%TF.GenerationSoftware,KiCad,Pcbnew,7.0.6*%
%TF.CreationDate,2023-12-21T21:59:25+03:00*%
%TF.ProjectId,_______ _____,21383b3e-3230-44f2-903f-3b3042302e6b,rev?*%
%TF.SameCoordinates,Original*%
%TF.FileFunction,Copper,L1,Top*%
%TF.FilePolarity,Positive*%
%FSLAX46Y46*%
G04 Gerber Fmt 4.6, Leading zero omitted, Abs format (unit mm)*
G04 Created by KiCad (PCBNEW 7.0.6) date 2023-12-21 21:59:25*
%MOMM*%
%LPD*%
G01*
G04 APERTURE LIST*
G04 Aperture macros list*
%AMRoundRect*
0 Rectangle with rounded corners*
0 $1 Rounding radius*
0 $2 $3 $4 $5 $6 $7 $8 $9 X,Y pos of 4 corners*
0 Add a 4 corners polygon primitive as box body*
4,1,4,$2,$3,$4,$5,$6,$7,$8,$9,$2,$3,0*
0 Add four circle primitives for the rounded corners*
1,1,$1+$1,$2,$3*
1,1,$1+$1,$4,$5*
1,1,$1+$1,$6,$7*
1,1,$1+$1,$8,$9*
0 Add four rect primitives between the rounded corners*
20,1,$1+$1,$2,$3,$4,$5,0*
20,1,$1+$1,$4,$5,$6,$7,0*
20,1,$1+$1,$6,$7,$8,$9,0*
20,1,$1+$1,$8,$9,$2,$3,0*%
G04 Aperture macros list end*
%TA.AperFunction,SMDPad,CuDef*%
%ADD10R,2.800000X0.900000*%
%TD*%
%TA.AperFunction,SMDPad,CuDef*%
%ADD11R,1.550000X10.100000*%
%TD*%
%TA.AperFunction,SMDPad,CuDef*%
%ADD12R,2.750000X8.700000*%
%TD*%
%TA.AperFunction,SMDPad,CuDef*%
%ADD13R,3.700000X9.700000*%
%TD*%
%TA.AperFunction,SMDPad,CuDef*%
%ADD14R,0.900000X2.800000*%
%TD*%
%TA.AperFunction,SMDPad,CuDef*%
%ADD15R,10.100000X1.550000*%
%TD*%
%TA.AperFunction,SMDPad,CuDef*%
%ADD16R,8.700000X2.750000*%
%TD*%
%TA.AperFunction,SMDPad,CuDef*%
%ADD17R,9.700000X3.700000*%
%TD*%
%TA.AperFunction,ComponentPad*%
%ADD18C,5.000000*%
%TD*%
%TA.AperFunction,SMDPad,CuDef*%
%ADD19RoundRect,0.250000X1.100000X-0.412500X1.100000X0.412500X-1.100000X0.412500X-1.100000X-0.412500X0*%
%TD*%
%TA.AperFunction,ComponentPad*%
%ADD20C,8.200000*%
%TD*%
%TA.AperFunction,SMDPad,CuDef*%
%ADD21RoundRect,0.237500X-0.300000X-0.237500X0.300000X-0.237500X0.300000X0.237500X-0.300000X0.237500X0*%
%TD*%
%TA.AperFunction,ComponentPad*%
%ADD22C,6.000000*%
%TD*%
%TA.AperFunction,SMDPad,CuDef*%
%ADD23RoundRect,0.100000X0.100000X-0.712500X0.100000X0.712500X-0.100000X0.712500X-0.100000X-0.712500X0*%
%TD*%
%TA.AperFunction,ComponentPad*%
%ADD24R,1.700000X1.700000*%
%TD*%
%TA.AperFunction,ComponentPad*%
%ADD25O,1.700000X1.700000*%
%TD*%
%TA.AperFunction,ComponentPad*%
%ADD26C,2.000000*%
%TD*%
%TA.AperFunction,SMDPad,CuDef*%
%ADD27RoundRect,0.100000X-0.100000X0.712500X-0.100000X-0.712500X0.100000X-0.712500X0.100000X0.712500X0*%
%TD*%
%TA.AperFunction,SMDPad,CuDef*%
%ADD28RoundRect,0.250000X-1.100000X0.412500X-1.100000X-0.412500X1.100000X-0.412500X1.100000X0.412500X0*%
%TD*%
%TA.AperFunction,SMDPad,CuDef*%
%ADD29RoundRect,0.249999X-0.450001X-1.425001X0.450001X-1.425001X0.450001X1.425001X-0.450001X1.425001X0*%
%TD*%
%TA.AperFunction,SMDPad,CuDef*%
%ADD30RoundRect,0.225000X0.375000X-0.225000X0.375000X0.225000X-0.375000X0.225000X-0.375000X-0.225000X0*%
%TD*%
%TA.AperFunction,SMDPad,CuDef*%
%ADD31RoundRect,0.250000X-0.450000X0.350000X-0.450000X-0.350000X0.450000X-0.350000X0.450000X0.350000X0*%
%TD*%
%TA.AperFunction,ViaPad*%
%ADD32C,0.800000*%
%TD*%
%TA.AperFunction,Conductor*%
%ADD33C,0.500000*%
%TD*%
%TA.AperFunction,Conductor*%
%ADD34C,0.250000*%
%TD*%
%TA.AperFunction,Conductor*%
%ADD35C,1.000000*%
%TD*%
G04 APERTURE END LIST*
D10*
%TO.P,Q6,1,G*%
%TO.N,G6*%
X132852240Y-72583250D03*
%TO.P,Q6,2,S*%
%TO.N,GND*%
X132852240Y-71383250D03*
X132852240Y-70183250D03*
X132852240Y-68983250D03*
X132852240Y-67783250D03*
X132852240Y-66583250D03*
X132852240Y-65383250D03*
X132852240Y-64183250D03*
D11*
%TO.P,Q6,3,D*%
%TO.N,C*%
X122002240Y-68383250D03*
D12*
X124152240Y-68383250D03*
D13*
X127377240Y-68383250D03*
%TD*%
D14*
%TO.P,Q5,1,G*%
%TO.N,G4*%
X136912240Y-59488250D03*
%TO.P,Q5,2,S*%
%TO.N,GND*%
X138112240Y-59488250D03*
X139312240Y-59488250D03*
X140512240Y-59488250D03*
X141712240Y-59488250D03*
X142912240Y-59488250D03*
X144112240Y-59488250D03*
X145312240Y-59488250D03*
D15*
%TO.P,Q5,3,D*%
%TO.N,B*%
X141112240Y-48638250D03*
D16*
X141112240Y-50788250D03*
D17*
X141112240Y-54013250D03*
%TD*%
D14*
%TO.P,Q2,1,G*%
%TO.N,G3*%
X153168240Y-59507250D03*
%TO.P,Q2,2,S*%
%TO.N,B*%
X154368240Y-59507250D03*
X155568240Y-59507250D03*
X156768240Y-59507250D03*
X157968240Y-59507250D03*
X159168240Y-59507250D03*
X160368240Y-59507250D03*
X161568240Y-59507250D03*
D15*
%TO.P,Q2,3,D*%
%TO.N,Shunt_2*%
X157368240Y-48657250D03*
D16*
X157368240Y-50807250D03*
D17*
X157368240Y-54032250D03*
%TD*%
D10*
%TO.P,Q4,1,G*%
%TO.N,G2*%
X165877240Y-64183250D03*
%TO.P,Q4,2,S*%
%TO.N,GND*%
X165877240Y-65383250D03*
X165877240Y-66583250D03*
X165877240Y-67783250D03*
X165877240Y-68983250D03*
X165877240Y-70183250D03*
X165877240Y-71383250D03*
X165877240Y-72583250D03*
D11*
%TO.P,Q4,3,D*%
%TO.N,A*%
X176727240Y-68383250D03*
D12*
X174577240Y-68383250D03*
D13*
X171352240Y-68383250D03*
%TD*%
D10*
%TO.P,Q1,1,G*%
%TO.N,G1*%
X161437240Y-77518250D03*
%TO.P,Q1,2,S*%
%TO.N,A*%
X161437240Y-78718250D03*
X161437240Y-79918250D03*
X161437240Y-81118250D03*
X161437240Y-82318250D03*
X161437240Y-83518250D03*
X161437240Y-84718250D03*
X161437240Y-85918250D03*
D11*
%TO.P,Q1,3,D*%
%TO.N,Shunt_2*%
X172287240Y-81718250D03*
D12*
X170137240Y-81718250D03*
D13*
X166912240Y-81718250D03*
%TD*%
D14*
%TO.P,Q7,1,G*%
%TO.N,Net-(D1-K)*%
X161187240Y-101408250D03*
%TO.P,Q7,2,S*%
%TO.N,GND*%
X159987240Y-101408250D03*
X158787240Y-101408250D03*
X157587240Y-101408250D03*
X156387240Y-101408250D03*
X155187240Y-101408250D03*
X153987240Y-101408250D03*
X152787240Y-101408250D03*
D15*
%TO.P,Q7,3,D*%
%TO.N,Net-(J5-Pin_1)*%
X156987240Y-112258250D03*
D16*
X156987240Y-110108250D03*
D17*
X156987240Y-106883250D03*
%TD*%
D10*
%TO.P,Q3,1,G*%
%TO.N,G5*%
X137297240Y-85918250D03*
%TO.P,Q3,2,S*%
%TO.N,C*%
X137297240Y-84718250D03*
X137297240Y-83518250D03*
X137297240Y-82318250D03*
X137297240Y-81118250D03*
X137297240Y-79918250D03*
X137297240Y-78718250D03*
X137297240Y-77518250D03*
D11*
%TO.P,Q3,3,D*%
%TO.N,Shunt_2*%
X126447240Y-81718250D03*
D12*
X128597240Y-81718250D03*
D13*
X131822240Y-81718250D03*
%TD*%
D18*
%TO.P,J8,1,Pin_1*%
%TO.N,Earth_Protective*%
X132222240Y-124898250D03*
%TD*%
%TO.P,J2,1,Pin_1*%
%TO.N,Earth_Protective*%
X167147240Y-124898250D03*
%TD*%
D19*
%TO.P,C14,1*%
%TO.N,Shunt_1*%
X145557240Y-102330750D03*
%TO.P,C14,2*%
%TO.N,GND*%
X145557240Y-99205750D03*
%TD*%
D20*
%TO.P,J4,1,Pin_1*%
%TO.N,C*%
X127142240Y-58223250D03*
%TD*%
%TO.P,J1,1,Pin_1*%
%TO.N,A*%
X171592240Y-58223250D03*
%TD*%
D19*
%TO.P,C26,1*%
%TO.N,Shunt_1*%
X145557240Y-113418250D03*
%TO.P,C26,2*%
%TO.N,GND*%
X145557240Y-110293250D03*
%TD*%
D21*
%TO.P,C47,1*%
%TO.N,+3.3V*%
X148377740Y-64907750D03*
%TO.P,C47,2*%
%TO.N,GND*%
X150102740Y-64907750D03*
%TD*%
D19*
%TO.P,C25,1*%
%TO.N,Shunt_1*%
X141747240Y-113418250D03*
%TO.P,C25,2*%
%TO.N,GND*%
X141747240Y-110293250D03*
%TD*%
D22*
%TO.P,J6,1,Pin_1*%
%TO.N,Shunt_1*%
X144287240Y-119483250D03*
%TD*%
D23*
%TO.P,D2,1,SDA*%
%TO.N,SDA_MCU*%
X175230240Y-81544750D03*
%TO.P,D2,2,SCL*%
%TO.N,SCL_MCU*%
X175880240Y-81544750D03*
%TO.P,D2,3,~{OS}/INT*%
%TO.N,~{OS}_MCU*%
X176530240Y-81544750D03*
%TO.P,D2,4,GND*%
%TO.N,GND*%
X177180240Y-81544750D03*
%TO.P,D2,5,A2*%
X177180240Y-77319750D03*
%TO.P,D2,6,A1*%
X176530240Y-77319750D03*
%TO.P,D2,7,A0*%
%TO.N,+3.3V*%
X175880240Y-77319750D03*
%TO.P,D2,8,VDD*%
X175230240Y-77319750D03*
%TD*%
D19*
%TO.P,C3,1*%
%TO.N,Shunt_1*%
X137937240Y-102330750D03*
%TO.P,C3,2*%
%TO.N,GND*%
X137937240Y-99205750D03*
%TD*%
D24*
%TO.P,J7,1,Pin_1*%
%TO.N,+3.3V*%
X150637240Y-68383250D03*
D25*
%TO.P,J7,2,Pin_2*%
%TO.N,~{OS}_MCU*%
X148097240Y-68383250D03*
%TO.P,J7,3,Pin_3*%
%TO.N,G3*%
X150637240Y-70923250D03*
%TO.P,J7,4,Pin_4*%
%TO.N,SCL_MCU*%
X148097240Y-70923250D03*
%TO.P,J7,5,Pin_5*%
%TO.N,B*%
X150637240Y-73463250D03*
%TO.P,J7,6,Pin_6*%
%TO.N,SDA_MCU*%
X148097240Y-73463250D03*
%TO.P,J7,7,Pin_7*%
%TO.N,G2*%
X150637240Y-76003250D03*
%TO.P,J7,8,Pin_8*%
%TO.N,G4*%
X148097240Y-76003250D03*
%TO.P,J7,9,Pin_9*%
%TO.N,GND*%
X150637240Y-78543250D03*
%TO.P,J7,10,Pin_10*%
X148097240Y-78543250D03*
%TO.P,J7,11,Pin_11*%
%TO.N,G1*%
X150637240Y-81083250D03*
%TO.P,J7,12,Pin_12*%
%TO.N,G6*%
X148097240Y-81083250D03*
%TO.P,J7,13,Pin_13*%
%TO.N,A*%
X150637240Y-83623250D03*
%TO.P,J7,14,Pin_14*%
%TO.N,C*%
X148097240Y-83623250D03*
%TO.P,J7,15,Pin_15*%
%TO.N,GND*%
X150637240Y-86163250D03*
%TO.P,J7,16,Pin_16*%
%TO.N,G5*%
X148097240Y-86163250D03*
%TO.P,J7,17,Pin_17*%
%TO.N,Shunt_1*%
X150637240Y-88703250D03*
%TO.P,J7,18,Pin_18*%
%TO.N,GND*%
X148097240Y-88703250D03*
%TO.P,J7,19,Pin_19*%
%TO.N,Shunt_1*%
X150637240Y-91243250D03*
%TO.P,J7,20,Pin_20*%
%TO.N,Shunt_2*%
X148097240Y-91243250D03*
%TD*%
D20*
%TO.P,J3,1,Pin_1*%
%TO.N,B*%
X149367240Y-43618250D03*
%TD*%
D26*
%TO.P,C44,1*%
%TO.N,Earth_Protective*%
X160797240Y-124838250D03*
%TO.P,C44,2*%
%TO.N,Net-(J5-Pin_1)*%
X160797240Y-117338250D03*
%TD*%
D27*
%TO.P,D3,1,SDA*%
%TO.N,SDA_MCU*%
X150215240Y-58650750D03*
%TO.P,D3,2,SCL*%
%TO.N,SCL_MCU*%
X149565240Y-58650750D03*
%TO.P,D3,3,~{OS}/INT*%
%TO.N,~{OS}_MCU*%
X148915240Y-58650750D03*
%TO.P,D3,4,GND*%
%TO.N,GND*%
X148265240Y-58650750D03*
%TO.P,D3,5,A2*%
X148265240Y-62875750D03*
%TO.P,D3,6,A1*%
%TO.N,+3.3V*%
X148915240Y-62875750D03*
%TO.P,D3,7,A0*%
%TO.N,GND*%
X149565240Y-62875750D03*
%TO.P,D3,8,VDD*%
%TO.N,+3.3V*%
X150215240Y-62875750D03*
%TD*%
D28*
%TO.P,C29,1*%
%TO.N,Shunt_1*%
X141747240Y-104920750D03*
%TO.P,C29,2*%
%TO.N,GND*%
X141747240Y-108045750D03*
%TD*%
D21*
%TO.P,C48,1*%
%TO.N,+3.3V*%
X121707740Y-75368250D03*
%TO.P,C48,2*%
%TO.N,GND*%
X123432740Y-75368250D03*
%TD*%
D22*
%TO.P,J5,1,Pin_1*%
%TO.N,Net-(J5-Pin_1)*%
X154447240Y-119483250D03*
%TD*%
D19*
%TO.P,C5,1*%
%TO.N,Shunt_1*%
X137937240Y-113418250D03*
%TO.P,C5,2*%
%TO.N,GND*%
X137937240Y-110293250D03*
%TD*%
D29*
%TO.P,R1,1*%
%TO.N,Shunt_1*%
X134887240Y-92513250D03*
%TO.P,R1,2*%
%TO.N,Shunt_2*%
X140987240Y-92513250D03*
%TD*%
D30*
%TO.P,D1,1,K*%
%TO.N,Net-(D1-K)*%
X164607240Y-102798250D03*
%TO.P,D1,2,A*%
%TO.N,GND*%
X164607240Y-99498250D03*
%TD*%
D28*
%TO.P,C10,1*%
%TO.N,Shunt_1*%
X145557240Y-104920750D03*
%TO.P,C10,2*%
%TO.N,GND*%
X145557240Y-108045750D03*
%TD*%
D26*
%TO.P,C45,1*%
%TO.N,Shunt_1*%
X137937240Y-117338250D03*
%TO.P,C45,2*%
%TO.N,Earth_Protective*%
X137937240Y-124838250D03*
%TD*%
D28*
%TO.P,C17,1*%
%TO.N,Shunt_1*%
X137937240Y-104920750D03*
%TO.P,C17,2*%
%TO.N,GND*%
X137937240Y-108045750D03*
%TD*%
D21*
%TO.P,C46,1*%
%TO.N,+3.3V*%
X175301740Y-75368250D03*
%TO.P,C46,2*%
%TO.N,GND*%
X177026740Y-75368250D03*
%TD*%
D31*
%TO.P,R2,1*%
%TO.N,Net-(D1-K)*%
X164607240Y-104848250D03*
%TO.P,R2,2*%
%TO.N,Shunt_1*%
X164607240Y-106848250D03*
%TD*%
D19*
%TO.P,C11,1*%
%TO.N,Shunt_1*%
X141874240Y-102330750D03*
%TO.P,C11,2*%
%TO.N,GND*%
X141874240Y-99205750D03*
%TD*%
D23*
%TO.P,D4,1,SDA*%
%TO.N,SDA_MCU*%
X121595240Y-81544750D03*
%TO.P,D4,2,SCL*%
%TO.N,SCL_MCU*%
X122245240Y-81544750D03*
%TO.P,D4,3,~{OS}/INT*%
%TO.N,~{OS}_MCU*%
X122895240Y-81544750D03*
%TO.P,D4,4,GND*%
%TO.N,GND*%
X123545240Y-81544750D03*
%TO.P,D4,5,A2*%
X123545240Y-77319750D03*
%TO.P,D4,6,A1*%
%TO.N,+3.3V*%
X122895240Y-77319750D03*
%TO.P,D4,7,A0*%
X122245240Y-77319750D03*
%TO.P,D4,8,VDD*%
X121595240Y-77319750D03*
%TD*%
D32*
%TO.N,SDA_MCU*%
X175148240Y-79940250D03*
%TO.N,G1*%
X158892240Y-77273250D03*
%TO.N,A*%
X176672240Y-69653250D03*
X158892240Y-79813250D03*
X170322240Y-65843250D03*
X173497240Y-67113250D03*
X158892240Y-81083250D03*
X173497240Y-70923250D03*
X158892240Y-82353250D03*
X173497240Y-65843250D03*
X170322240Y-70923250D03*
X173497240Y-69653250D03*
X170322240Y-68383250D03*
X173497240Y-68383250D03*
X170322240Y-72193250D03*
X176672240Y-64573250D03*
X170322240Y-64573250D03*
X176672240Y-68383250D03*
X176672240Y-67113250D03*
X158892240Y-78543250D03*
X158892240Y-86163250D03*
X176672240Y-70923250D03*
X158892240Y-84893250D03*
X176672240Y-72193250D03*
X176672240Y-65843250D03*
X158892240Y-83623250D03*
X170322240Y-69653250D03*
X170322240Y-67113250D03*
%TO.N,G2*%
X162702240Y-63938250D03*
%TO.N,GND*%
X144922240Y-62033250D03*
X162702240Y-95688250D03*
X162702240Y-72828250D03*
X162702240Y-65208250D03*
X163972240Y-93148250D03*
X176926240Y-82988250D03*
X135397240Y-66478250D03*
X162702240Y-70288250D03*
X159527240Y-91878250D03*
X135397240Y-65208250D03*
X164607240Y-94418250D03*
X160797240Y-91878250D03*
X164607240Y-91878250D03*
X124348240Y-75368250D03*
X163337240Y-94418250D03*
X146192240Y-62033250D03*
X124094240Y-81464250D03*
X147970240Y-57287750D03*
X164607240Y-98228250D03*
X139842240Y-109023250D03*
X165242240Y-93148250D03*
X158257240Y-91878250D03*
X163337240Y-96958250D03*
X135397240Y-69018250D03*
X177942240Y-75114250D03*
X165877240Y-91878250D03*
X162702240Y-69018250D03*
X139842240Y-99205750D03*
X135397240Y-67748250D03*
X135397240Y-70288250D03*
X142382240Y-62033250D03*
X143703040Y-99193450D03*
X135397240Y-63938250D03*
X141112240Y-62033250D03*
X163972240Y-110293250D03*
X143652240Y-109023250D03*
X162067240Y-91878250D03*
X162702240Y-66478250D03*
X143652240Y-62033250D03*
X163337240Y-98228250D03*
X164607240Y-96958250D03*
X135397240Y-71558250D03*
X138572240Y-62033250D03*
X163337240Y-91878250D03*
X162702240Y-71558250D03*
X163972240Y-95688250D03*
X162702240Y-67748250D03*
X139842240Y-62033250D03*
%TO.N,G3*%
X152415240Y-62668250D03*
%TO.N,B*%
X138572240Y-51873250D03*
X143652240Y-55048250D03*
X142382240Y-51873250D03*
X141112240Y-48698250D03*
X139842240Y-48698250D03*
X137302240Y-55048250D03*
X137302240Y-48698250D03*
X139842240Y-51873250D03*
X143652240Y-48698250D03*
X157622240Y-62668250D03*
X139842240Y-55048250D03*
X153812240Y-62668250D03*
X155082240Y-62668250D03*
X143652240Y-51873250D03*
X142382240Y-48698250D03*
X161432240Y-62668250D03*
X138572240Y-55048250D03*
X141112240Y-55048250D03*
X142382240Y-55048250D03*
X158892240Y-62668250D03*
X138572240Y-48698250D03*
X141112240Y-51873250D03*
X144922240Y-55048250D03*
X160162240Y-62668250D03*
X144922240Y-48698250D03*
X156352240Y-62668250D03*
%TO.N,G4*%
X137302240Y-62033250D03*
%TO.N,G5*%
X139842240Y-86163250D03*
%TO.N,C*%
X139842240Y-82353250D03*
X128412240Y-69653250D03*
X139842240Y-84893250D03*
X128412240Y-68383250D03*
X128412240Y-67113250D03*
X125237240Y-69653250D03*
X125237240Y-67113250D03*
X122062240Y-68383250D03*
X122062240Y-67113250D03*
X139842240Y-79813250D03*
X122062240Y-70923250D03*
X128412240Y-64573250D03*
X122062240Y-64573250D03*
X122062240Y-65843250D03*
X128412240Y-65843250D03*
X128412240Y-70923250D03*
X125237240Y-68383250D03*
X139842240Y-77273250D03*
X125237240Y-70923250D03*
X122062240Y-72193250D03*
X128412240Y-72193250D03*
X125237240Y-65843250D03*
X139842240Y-78543250D03*
X139842240Y-81083250D03*
X139842240Y-83623250D03*
X122062240Y-69653250D03*
%TO.N,G6*%
X135397240Y-72828250D03*
%TO.N,Shunt_1*%
X134762240Y-97593250D03*
X143652240Y-105213250D03*
X136032240Y-105213250D03*
X165877240Y-106483250D03*
X143652240Y-103943250D03*
X134762240Y-95053250D03*
X147462240Y-97593250D03*
X139842240Y-105213250D03*
X134762240Y-96323250D03*
X147462240Y-103943250D03*
X144287240Y-86442750D03*
X134762240Y-98863250D03*
X154447240Y-86163250D03*
X147462240Y-105213250D03*
X136667240Y-91243250D03*
X139842240Y-103943250D03*
X132857240Y-91243250D03*
%TO.N,Shunt_2*%
X144922240Y-77273250D03*
X153812240Y-69018250D03*
X157368240Y-51873250D03*
X126507240Y-85528250D03*
X169052240Y-81718250D03*
X153558240Y-55048250D03*
X126507240Y-79178250D03*
X172227240Y-77908250D03*
X159908240Y-51873250D03*
X158638240Y-55048250D03*
X165877240Y-77908250D03*
X143652240Y-76003250D03*
X157368240Y-48698250D03*
X129682240Y-81718250D03*
X169052240Y-84258250D03*
X154447240Y-67748250D03*
X155082240Y-66478250D03*
X126507240Y-77908250D03*
X172227240Y-79178250D03*
X132857240Y-77908250D03*
X143652240Y-65208250D03*
X129682240Y-79178250D03*
X165877240Y-84258250D03*
X172227240Y-84258250D03*
X126507240Y-82988250D03*
X156098240Y-55048250D03*
X132857240Y-85528250D03*
X169052240Y-82988250D03*
X154828240Y-51873250D03*
X132857240Y-81718250D03*
X159908240Y-55048250D03*
X129682240Y-84258250D03*
X154828240Y-48698250D03*
X156098240Y-51873250D03*
X159908240Y-48698250D03*
X172227240Y-82988250D03*
X165877240Y-79178250D03*
X153558240Y-48698250D03*
X126507240Y-84258250D03*
X155082240Y-69018250D03*
X129682240Y-82988250D03*
X132857240Y-82988250D03*
X165877240Y-81718250D03*
X161178240Y-55048250D03*
X158638240Y-51873250D03*
X143652240Y-70923250D03*
X155717240Y-67748250D03*
X153812240Y-66478250D03*
X144287240Y-66478250D03*
X165877240Y-85528250D03*
X154828240Y-55048250D03*
X155717240Y-65208250D03*
X144922240Y-65208250D03*
X126507240Y-81718250D03*
X154447240Y-65208250D03*
X161178240Y-48698250D03*
X172227240Y-85528250D03*
X165877240Y-80448250D03*
X132857240Y-79178250D03*
X158638240Y-48698250D03*
X132857240Y-84258250D03*
X129682240Y-80448250D03*
X169052240Y-80448250D03*
X165877240Y-82988250D03*
X169052240Y-79178250D03*
X156098240Y-48698250D03*
X126507240Y-80448250D03*
X145557240Y-66478250D03*
X144922240Y-72193250D03*
X172227240Y-80448250D03*
X172227240Y-81718250D03*
X132857240Y-80448250D03*
X157368240Y-55048250D03*
%TO.N,+3.3V*%
X120792240Y-75368250D03*
X150764240Y-61605750D03*
X174384056Y-75115342D03*
X148224240Y-66050750D03*
%TO.N,SDA_MCU*%
X121300240Y-79940250D03*
X150764240Y-60081750D03*
%TO.N,SCL_MCU*%
X176159941Y-79935951D03*
X149748240Y-60081750D03*
X122316240Y-79940250D03*
%TO.N,~{OS}_MCU*%
X148732240Y-60081750D03*
X177180240Y-79940250D03*
X123332240Y-79940250D03*
%TD*%
D33*
%TO.N,G1*%
X161437240Y-77518250D02*
X159137240Y-77518250D01*
X159137240Y-77518250D02*
X158892240Y-77273250D01*
%TO.N,G2*%
X162947240Y-64183250D02*
X162702240Y-63938250D01*
X165877240Y-64183250D02*
X162947240Y-64183250D01*
D34*
%TO.N,GND*%
X177688240Y-75368250D02*
X177942240Y-75114250D01*
X149565240Y-61827000D02*
X149343990Y-61605750D01*
X146192240Y-62033250D02*
X146192240Y-62668250D01*
X146573240Y-63049250D02*
X148091740Y-63049250D01*
X148091740Y-63049250D02*
X148265240Y-62875750D01*
D35*
X145557240Y-99205750D02*
X143690740Y-99205750D01*
D34*
X124013740Y-81544750D02*
X124094240Y-81464250D01*
X146192240Y-62668250D02*
X146573240Y-63049250D01*
X176530240Y-77319750D02*
X177180240Y-77319750D01*
D35*
X137937240Y-99205750D02*
X141874240Y-99205750D01*
D34*
X148265240Y-57582750D02*
X147970240Y-57287750D01*
X177180240Y-77319750D02*
X177180240Y-75521750D01*
X177180240Y-75521750D02*
X177026740Y-75368250D01*
X123432740Y-75368250D02*
X124348240Y-75368250D01*
D35*
X137937240Y-99205750D02*
X139842240Y-99205750D01*
D34*
X177180240Y-81544750D02*
X177180240Y-82734250D01*
X148478240Y-61605750D02*
X148224240Y-61859750D01*
X123545240Y-77319750D02*
X123545240Y-75480750D01*
X149565240Y-62875750D02*
X149565240Y-61827000D01*
X149565240Y-64370250D02*
X150102740Y-64907750D01*
X177026740Y-75368250D02*
X177688240Y-75368250D01*
X149565240Y-62875750D02*
X149565240Y-64370250D01*
X123545240Y-81544750D02*
X124013740Y-81544750D01*
X148224240Y-61859750D02*
X148224240Y-62834750D01*
X149343990Y-61605750D02*
X148478240Y-61605750D01*
X148265240Y-58650750D02*
X148265240Y-57582750D01*
X148224240Y-62834750D02*
X148265240Y-62875750D01*
D35*
X143613740Y-99205750D02*
X141874240Y-99205750D01*
D34*
X123545240Y-75480750D02*
X123432740Y-75368250D01*
X177180240Y-82734250D02*
X176926240Y-82988250D01*
D33*
%TO.N,G3*%
X153168240Y-59507250D02*
X153168240Y-61915250D01*
X153168240Y-61915250D02*
X152415240Y-62668250D01*
%TO.N,G4*%
X136912240Y-59488250D02*
X136912240Y-61643250D01*
X136912240Y-61643250D02*
X137302240Y-62033250D01*
%TO.N,G5*%
X139597240Y-85918250D02*
X139842240Y-86163250D01*
X137297240Y-85918250D02*
X139597240Y-85918250D01*
%TO.N,G6*%
X132852240Y-72583250D02*
X135152240Y-72583250D01*
X135152240Y-72583250D02*
X135397240Y-72828250D01*
%TO.N,Shunt_1*%
X165512240Y-106848250D02*
X164607240Y-106848250D01*
X165877240Y-106483250D02*
X165512240Y-106848250D01*
D34*
%TO.N,+3.3V*%
X121707740Y-75368250D02*
X120792240Y-75368250D01*
X122895240Y-77319750D02*
X122245240Y-77319750D01*
X148224240Y-66050750D02*
X148377740Y-65897250D01*
X174636964Y-75368250D02*
X174384056Y-75115342D01*
X150215240Y-62154750D02*
X150215240Y-62875750D01*
X175301740Y-75368250D02*
X174636964Y-75368250D01*
X175230240Y-77319750D02*
X175230240Y-75439750D01*
X148915240Y-64370250D02*
X148377740Y-64907750D01*
X148377740Y-65897250D02*
X148377740Y-64907750D01*
X175230240Y-75439750D02*
X175301740Y-75368250D01*
X121595240Y-75480750D02*
X121707740Y-75368250D01*
X175880240Y-77319750D02*
X175230240Y-77319750D01*
X148915240Y-62875750D02*
X148915240Y-64370250D01*
X122245240Y-77319750D02*
X121595240Y-77319750D01*
X121595240Y-77319750D02*
X121595240Y-75480750D01*
X150764240Y-61605750D02*
X150215240Y-62154750D01*
%TO.N,SDA_MCU*%
X175148240Y-79940250D02*
X175148240Y-81462750D01*
X175148240Y-81462750D02*
X175230240Y-81544750D01*
X150215240Y-58650750D02*
X150764240Y-59199750D01*
X150764240Y-59199750D02*
X150764240Y-60081750D01*
X121595240Y-81544750D02*
X121595240Y-80235250D01*
X121595240Y-80235250D02*
X121300240Y-79940250D01*
%TO.N,SCL_MCU*%
X122245240Y-80011250D02*
X122316240Y-79940250D01*
X149565240Y-58650750D02*
X149565240Y-59898750D01*
X149565240Y-59898750D02*
X149748240Y-60081750D01*
X175880240Y-80215652D02*
X176159941Y-79935951D01*
X175880240Y-81544750D02*
X175880240Y-80215652D01*
X122245240Y-81544750D02*
X122245240Y-80011250D01*
D33*
%TO.N,Net-(D1-K)*%
X164607240Y-104848250D02*
X164607240Y-102798250D01*
X161187240Y-101408250D02*
X163217240Y-101408250D01*
X163217240Y-101408250D02*
X164607240Y-102798250D01*
D34*
%TO.N,~{OS}_MCU*%
X177180240Y-79940250D02*
X176530240Y-80590250D01*
X148915240Y-58650750D02*
X148915240Y-59898750D01*
X122895240Y-81544750D02*
X122895240Y-80377250D01*
X148915240Y-59898750D02*
X148732240Y-60081750D01*
X176530240Y-80590250D02*
X176530240Y-81544750D01*
X122895240Y-80377250D02*
X123332240Y-79940250D01*
%TD*%
%TA.AperFunction,Conductor*%
%TO.N,GND*%
G36*
X136610279Y-63322935D02*
G01*
X136656034Y-63375739D01*
X136667240Y-63427250D01*
X136667240Y-72069250D01*
X136647555Y-72136289D01*
X136594751Y-72182044D01*
X136543240Y-72193250D01*
X136092434Y-72193250D01*
X136025395Y-72173565D01*
X136008434Y-72159151D01*
X136007935Y-72159706D01*
X136003104Y-72155356D01*
X135849974Y-72044101D01*
X135849969Y-72044098D01*
X135677047Y-71967107D01*
X135677043Y-71967106D01*
X135561684Y-71942585D01*
X135535062Y-71933677D01*
X135479297Y-71907674D01*
X135410670Y-71873208D01*
X135403885Y-71870739D01*
X135403905Y-71870683D01*
X135396789Y-71868209D01*
X135396771Y-71868265D01*
X135389911Y-71865992D01*
X135362081Y-71860246D01*
X135314674Y-71850457D01*
X135265712Y-71838853D01*
X135239959Y-71832749D01*
X135232787Y-71831911D01*
X135232793Y-71831851D01*
X135225295Y-71831085D01*
X135225290Y-71831145D01*
X135218100Y-71830515D01*
X135141323Y-71832750D01*
X134714560Y-71832750D01*
X134647521Y-71813065D01*
X134615292Y-71783059D01*
X134609788Y-71775707D01*
X134609786Y-71775704D01*
X134609782Y-71775701D01*
X134494575Y-71689456D01*
X134494568Y-71689452D01*
X134359722Y-71639158D01*
X134359723Y-71639158D01*
X134300123Y-71632751D01*
X134300121Y-71632750D01*
X134300113Y-71632750D01*
X134300105Y-71632750D01*
X131711240Y-71632750D01*
X131644201Y-71613065D01*
X131598446Y-71560261D01*
X131587240Y-71508750D01*
X131587240Y-63427250D01*
X131606925Y-63360211D01*
X131659729Y-63314456D01*
X131711240Y-63303250D01*
X136543240Y-63303250D01*
X136610279Y-63322935D01*
G37*
%TD.AperFunction*%
%TD*%
%TA.AperFunction,Conductor*%
%TO.N,GND*%
G36*
X146770279Y-58242935D02*
G01*
X146816034Y-58295739D01*
X146827240Y-58347250D01*
X146827240Y-63179250D01*
X146807555Y-63246289D01*
X146754751Y-63292044D01*
X146703240Y-63303250D01*
X138061240Y-63303250D01*
X137994201Y-63283565D01*
X137948446Y-63230761D01*
X137937240Y-63179250D01*
X137937240Y-62721386D01*
X137956925Y-62654347D01*
X137969090Y-62638414D01*
X138034773Y-62565466D01*
X138129419Y-62401534D01*
X138187914Y-62221506D01*
X138207700Y-62033250D01*
X138187914Y-61844994D01*
X138129419Y-61664966D01*
X138034773Y-61501034D01*
X138034769Y-61501028D01*
X137969090Y-61428084D01*
X137938860Y-61365092D01*
X137937240Y-61345112D01*
X137937240Y-58347250D01*
X137956925Y-58280211D01*
X138009729Y-58234456D01*
X138061240Y-58223250D01*
X146703240Y-58223250D01*
X146770279Y-58242935D01*
G37*
%TD.AperFunction*%
%TD*%
%TA.AperFunction,Conductor*%
%TO.N,Shunt_2*%
G36*
X147533727Y-63957935D02*
G01*
X147579482Y-64010739D01*
X147589426Y-64079897D01*
X147560401Y-64143453D01*
X147554369Y-64149931D01*
X147494901Y-64209398D01*
X147404333Y-64356231D01*
X147404331Y-64356234D01*
X147404332Y-64356234D01*
X147350066Y-64519997D01*
X147350066Y-64519998D01*
X147350065Y-64519998D01*
X147339740Y-64621065D01*
X147339740Y-65194419D01*
X147339741Y-65194437D01*
X147350065Y-65295502D01*
X147386349Y-65404998D01*
X147404332Y-65459266D01*
X147404336Y-65459272D01*
X147428280Y-65498093D01*
X147446720Y-65565486D01*
X147430129Y-65625187D01*
X147397061Y-65682463D01*
X147352809Y-65818658D01*
X147338566Y-65862494D01*
X147318780Y-66050750D01*
X147338566Y-66239006D01*
X147338567Y-66239009D01*
X147397058Y-66419027D01*
X147397061Y-66419034D01*
X147491707Y-66582966D01*
X147618369Y-66723638D01*
X147771510Y-66834901D01*
X147784620Y-66840738D01*
X147837855Y-66885989D01*
X147858175Y-66952838D01*
X147839128Y-67020062D01*
X147786761Y-67066316D01*
X147766274Y-67073791D01*
X147633584Y-67109344D01*
X147633575Y-67109348D01*
X147419411Y-67209214D01*
X147419409Y-67209215D01*
X147225837Y-67344755D01*
X147058745Y-67511847D01*
X146923205Y-67705419D01*
X146923204Y-67705421D01*
X146823338Y-67919585D01*
X146823334Y-67919594D01*
X146762178Y-68147836D01*
X146762176Y-68147846D01*
X146741581Y-68383249D01*
X146741581Y-68383250D01*
X146762176Y-68618653D01*
X146762178Y-68618663D01*
X146823334Y-68846905D01*
X146823336Y-68846909D01*
X146823337Y-68846913D01*
X146907739Y-69027913D01*
X146923205Y-69061080D01*
X146923207Y-69061084D01*
X147058741Y-69254645D01*
X147058746Y-69254652D01*
X147225837Y-69421743D01*
X147225843Y-69421748D01*
X147411398Y-69551675D01*
X147455023Y-69606252D01*
X147462217Y-69675750D01*
X147430694Y-69738105D01*
X147411398Y-69754825D01*
X147225837Y-69884755D01*
X147058745Y-70051847D01*
X146923205Y-70245419D01*
X146923204Y-70245421D01*
X146823338Y-70459585D01*
X146823334Y-70459594D01*
X146762178Y-70687836D01*
X146762176Y-70687846D01*
X146741581Y-70923249D01*
X146741581Y-70923250D01*
X146762176Y-71158653D01*
X146762178Y-71158663D01*
X146823334Y-71386905D01*
X146823336Y-71386909D01*
X146823337Y-71386913D01*
X146827240Y-71395282D01*
X146923205Y-71601080D01*
X146923207Y-71601084D01*
X147031521Y-71755771D01*
X147058741Y-71794646D01*
X147058746Y-71794652D01*
X147225837Y-71961743D01*
X147225843Y-71961748D01*
X147411398Y-72091675D01*
X147455023Y-72146252D01*
X147462217Y-72215750D01*
X147430694Y-72278105D01*
X147411398Y-72294825D01*
X147225837Y-72424755D01*
X147058745Y-72591847D01*
X146923205Y-72785419D01*
X146923204Y-72785421D01*
X146823338Y-72999585D01*
X146823334Y-72999594D01*
X146762178Y-73227836D01*
X146762176Y-73227846D01*
X146741581Y-73463249D01*
X146741581Y-73463250D01*
X146762176Y-73698653D01*
X146762178Y-73698663D01*
X146823334Y-73926905D01*
X146823336Y-73926909D01*
X146823337Y-73926913D01*
X146827240Y-73935282D01*
X146923205Y-74141080D01*
X146923207Y-74141084D01*
X147031521Y-74295771D01*
X147058741Y-74334646D01*
X147058746Y-74334652D01*
X147225837Y-74501743D01*
X147225843Y-74501748D01*
X147411398Y-74631675D01*
X147455023Y-74686252D01*
X147462217Y-74755750D01*
X147430694Y-74818105D01*
X147411398Y-74834825D01*
X147225837Y-74964755D01*
X147058745Y-75131847D01*
X146923205Y-75325419D01*
X146923204Y-75325421D01*
X146823338Y-75539585D01*
X146823334Y-75539594D01*
X146762178Y-75767836D01*
X146762176Y-75767846D01*
X146741581Y-76003249D01*
X146741581Y-76003250D01*
X146762176Y-76238653D01*
X146762178Y-76238663D01*
X146823334Y-76466905D01*
X146823336Y-76466909D01*
X146823337Y-76466913D01*
X146896800Y-76624454D01*
X146923205Y-76681080D01*
X146923207Y-76681084D01*
X147024622Y-76825919D01*
X147058741Y-76874646D01*
X147058746Y-76874652D01*
X147225837Y-77041743D01*
X147225843Y-77041748D01*
X147411398Y-77171675D01*
X147455023Y-77226252D01*
X147462217Y-77295750D01*
X147430694Y-77358105D01*
X147411398Y-77374825D01*
X147225837Y-77504755D01*
X147058745Y-77671847D01*
X146923205Y-77865419D01*
X146923204Y-77865421D01*
X146823338Y-78079585D01*
X146823334Y-78079594D01*
X146762178Y-78307836D01*
X146762176Y-78307846D01*
X146741581Y-78543249D01*
X146741581Y-78543250D01*
X146762176Y-78778653D01*
X146762178Y-78778663D01*
X146823334Y-79006905D01*
X146823336Y-79006909D01*
X146823337Y-79006913D01*
X146827240Y-79015282D01*
X146923205Y-79221080D01*
X146923207Y-79221084D01*
X147021015Y-79360767D01*
X147058741Y-79414646D01*
X147058746Y-79414652D01*
X147225837Y-79581743D01*
X147225843Y-79581748D01*
X147411398Y-79711675D01*
X147455023Y-79766252D01*
X147462217Y-79835750D01*
X147430694Y-79898105D01*
X147411398Y-79914825D01*
X147225837Y-80044755D01*
X147058745Y-80211847D01*
X146923205Y-80405419D01*
X146923204Y-80405421D01*
X146823338Y-80619585D01*
X146823334Y-80619594D01*
X146762178Y-80847836D01*
X146762176Y-80847846D01*
X146741581Y-81083249D01*
X146741581Y-81083250D01*
X146762176Y-81318653D01*
X146762178Y-81318663D01*
X146823334Y-81546905D01*
X146823336Y-81546909D01*
X146823337Y-81546913D01*
X146827240Y-81555282D01*
X146923205Y-81761080D01*
X146923207Y-81761084D01*
X146964725Y-81820377D01*
X147058741Y-81954646D01*
X147058746Y-81954652D01*
X147225837Y-82121743D01*
X147225843Y-82121748D01*
X147411398Y-82251675D01*
X147455023Y-82306252D01*
X147462217Y-82375750D01*
X147430694Y-82438105D01*
X147411398Y-82454825D01*
X147225837Y-82584755D01*
X147058745Y-82751847D01*
X146923205Y-82945419D01*
X146923204Y-82945421D01*
X146823338Y-83159585D01*
X146823334Y-83159594D01*
X146762178Y-83387836D01*
X146762176Y-83387846D01*
X146741581Y-83623249D01*
X146741581Y-83623250D01*
X146762176Y-83858653D01*
X146762178Y-83858663D01*
X146823334Y-84086905D01*
X146823336Y-84086909D01*
X146823337Y-84086913D01*
X146903233Y-84258249D01*
X146923205Y-84301080D01*
X146923207Y-84301084D01*
X146965185Y-84361034D01*
X147058741Y-84494646D01*
X147058746Y-84494652D01*
X147225837Y-84661743D01*
X147225843Y-84661748D01*
X147411398Y-84791675D01*
X147455023Y-84846252D01*
X147462217Y-84915750D01*
X147430694Y-84978105D01*
X147411398Y-84994825D01*
X147225837Y-85124755D01*
X147058745Y-85291847D01*
X146923205Y-85485419D01*
X146923204Y-85485421D01*
X146823338Y-85699585D01*
X146823334Y-85699594D01*
X146762178Y-85927836D01*
X146762176Y-85927846D01*
X146741581Y-86163249D01*
X146741581Y-86163250D01*
X146762176Y-86398653D01*
X146762178Y-86398663D01*
X146823334Y-86626905D01*
X146823336Y-86626909D01*
X146823337Y-86626913D01*
X146827240Y-86635282D01*
X146923205Y-86841080D01*
X146923207Y-86841084D01*
X146997652Y-86947401D01*
X147058741Y-87034646D01*
X147058746Y-87034652D01*
X147225837Y-87201743D01*
X147225843Y-87201748D01*
X147411398Y-87331675D01*
X147455023Y-87386252D01*
X147462217Y-87455750D01*
X147430694Y-87518105D01*
X147411398Y-87534825D01*
X147225837Y-87664755D01*
X147058745Y-87831847D01*
X146923205Y-88025419D01*
X146923204Y-88025421D01*
X146823338Y-88239585D01*
X146823334Y-88239594D01*
X146762178Y-88467836D01*
X146762176Y-88467846D01*
X146741581Y-88703249D01*
X146741581Y-88703250D01*
X146762176Y-88938653D01*
X146762178Y-88938663D01*
X146823334Y-89166905D01*
X146823336Y-89166909D01*
X146823337Y-89166913D01*
X146827240Y-89175282D01*
X146923205Y-89381080D01*
X146923207Y-89381084D01*
X146998230Y-89488227D01*
X147058745Y-89574651D01*
X147225839Y-89741745D01*
X147247503Y-89756914D01*
X147419405Y-89877282D01*
X147419407Y-89877283D01*
X147419410Y-89877285D01*
X147633577Y-89977153D01*
X147861832Y-90038313D01*
X148050158Y-90054789D01*
X148097239Y-90058909D01*
X148097240Y-90058909D01*
X148097241Y-90058909D01*
X148136474Y-90055476D01*
X148332648Y-90038313D01*
X148560903Y-89977153D01*
X148775070Y-89877285D01*
X148968641Y-89741745D01*
X149135735Y-89574651D01*
X149265664Y-89389092D01*
X149320242Y-89345467D01*
X149389740Y-89338273D01*
X149452095Y-89369796D01*
X149468815Y-89389092D01*
X149598741Y-89574646D01*
X149598746Y-89574652D01*
X149765837Y-89741743D01*
X149765843Y-89741748D01*
X149951398Y-89871675D01*
X149995023Y-89926252D01*
X150002217Y-89995750D01*
X149970694Y-90058105D01*
X149951398Y-90074825D01*
X149765837Y-90204755D01*
X149598745Y-90371847D01*
X149463205Y-90565419D01*
X149463204Y-90565421D01*
X149363338Y-90779585D01*
X149363334Y-90779594D01*
X149302178Y-91007836D01*
X149302176Y-91007846D01*
X149281581Y-91243249D01*
X149281581Y-91243250D01*
X149302176Y-91478653D01*
X149302178Y-91478663D01*
X149363334Y-91706905D01*
X149363336Y-91706909D01*
X149363337Y-91706913D01*
X149463205Y-91921080D01*
X149463207Y-91921084D01*
X149571521Y-92075771D01*
X149598745Y-92114651D01*
X149765839Y-92281745D01*
X149862624Y-92349514D01*
X149959405Y-92417282D01*
X149959407Y-92417283D01*
X149959410Y-92417285D01*
X150173577Y-92517153D01*
X150401832Y-92578313D01*
X150590158Y-92594789D01*
X150637239Y-92598909D01*
X150637240Y-92598909D01*
X150637241Y-92598909D01*
X150676474Y-92595476D01*
X150872648Y-92578313D01*
X151100903Y-92517153D01*
X151315070Y-92417285D01*
X151508641Y-92281745D01*
X151675735Y-92114651D01*
X151811275Y-91921080D01*
X151911143Y-91706913D01*
X151972303Y-91478658D01*
X151992899Y-91243250D01*
X151972303Y-91007842D01*
X151911143Y-90779587D01*
X151811275Y-90565421D01*
X151675735Y-90371849D01*
X151675734Y-90371847D01*
X151508642Y-90204756D01*
X151508636Y-90204751D01*
X151323082Y-90074825D01*
X151279457Y-90020248D01*
X151272263Y-89950750D01*
X151303786Y-89888395D01*
X151323082Y-89871675D01*
X151486977Y-89756914D01*
X151508641Y-89741745D01*
X151675735Y-89574651D01*
X151811275Y-89381080D01*
X151911143Y-89166913D01*
X151972303Y-88938658D01*
X151992899Y-88703250D01*
X151972303Y-88467842D01*
X151911143Y-88239587D01*
X151811275Y-88025421D01*
X151675735Y-87831849D01*
X151675734Y-87831847D01*
X151508642Y-87664756D01*
X151508636Y-87664751D01*
X151323082Y-87534825D01*
X151279457Y-87480248D01*
X151272263Y-87410750D01*
X151303786Y-87348395D01*
X151323082Y-87331675D01*
X151362760Y-87303892D01*
X151508641Y-87201745D01*
X151675735Y-87034651D01*
X151811275Y-86841080D01*
X151911143Y-86626913D01*
X151972303Y-86398658D01*
X151992899Y-86163250D01*
X153541780Y-86163250D01*
X153561566Y-86351506D01*
X153561567Y-86351509D01*
X153620058Y-86531527D01*
X153620061Y-86531534D01*
X153714707Y-86695466D01*
X153835659Y-86829796D01*
X153841369Y-86836138D01*
X153994505Y-86947398D01*
X153994510Y-86947401D01*
X154167432Y-87024392D01*
X154167437Y-87024394D01*
X154352594Y-87063750D01*
X154352595Y-87063750D01*
X154541884Y-87063750D01*
X154541886Y-87063750D01*
X154727043Y-87024394D01*
X154899970Y-86947401D01*
X155053111Y-86836138D01*
X155179773Y-86695466D01*
X155274419Y-86531534D01*
X155332914Y-86351506D01*
X155352700Y-86163250D01*
X155332914Y-85974994D01*
X155274419Y-85794966D01*
X155179773Y-85631034D01*
X155053111Y-85490362D01*
X155053110Y-85490361D01*
X154899974Y-85379101D01*
X154899969Y-85379098D01*
X154727047Y-85302107D01*
X154727042Y-85302105D01*
X154581240Y-85271115D01*
X154541886Y-85262750D01*
X154352594Y-85262750D01*
X154320137Y-85269648D01*
X154167437Y-85302105D01*
X154167432Y-85302107D01*
X153994510Y-85379098D01*
X153994505Y-85379101D01*
X153841369Y-85490361D01*
X153714706Y-85631035D01*
X153620061Y-85794965D01*
X153620058Y-85794972D01*
X153576885Y-85927846D01*
X153561566Y-85974994D01*
X153541780Y-86163250D01*
X151992899Y-86163250D01*
X151972303Y-85927842D01*
X151911143Y-85699587D01*
X151811275Y-85485421D01*
X151769295Y-85425466D01*
X151675734Y-85291847D01*
X151508642Y-85124756D01*
X151508636Y-85124751D01*
X151323082Y-84994825D01*
X151279457Y-84940248D01*
X151272263Y-84870750D01*
X151303786Y-84808395D01*
X151323082Y-84791675D01*
X151446875Y-84704994D01*
X151508641Y-84661745D01*
X151675735Y-84494651D01*
X151811275Y-84301080D01*
X151911143Y-84086913D01*
X151972303Y-83858658D01*
X151992899Y-83623250D01*
X151972303Y-83387842D01*
X151911143Y-83159587D01*
X151811275Y-82945421D01*
X151769295Y-82885466D01*
X151675734Y-82751847D01*
X151508642Y-82584756D01*
X151508636Y-82584751D01*
X151323082Y-82454825D01*
X151279457Y-82400248D01*
X151272263Y-82330750D01*
X151303786Y-82268395D01*
X151323082Y-82251675D01*
X151446875Y-82164994D01*
X151508641Y-82121745D01*
X151675735Y-81954651D01*
X151811275Y-81761080D01*
X151911143Y-81546913D01*
X151972303Y-81318658D01*
X151992899Y-81083250D01*
X151972303Y-80847842D01*
X151911143Y-80619587D01*
X151811275Y-80405421D01*
X151769295Y-80345466D01*
X151675734Y-80211847D01*
X151508642Y-80044756D01*
X151508636Y-80044751D01*
X151323082Y-79914825D01*
X151279457Y-79860248D01*
X151272263Y-79790750D01*
X151303786Y-79728395D01*
X151323082Y-79711675D01*
X151446875Y-79624994D01*
X151508641Y-79581745D01*
X151675735Y-79414651D01*
X151811275Y-79221080D01*
X151911143Y-79006913D01*
X151972303Y-78778658D01*
X151992899Y-78543250D01*
X151972303Y-78307842D01*
X151911143Y-78079587D01*
X151811275Y-77865421D01*
X151769295Y-77805466D01*
X151675734Y-77671847D01*
X151508642Y-77504756D01*
X151508636Y-77504751D01*
X151323082Y-77374825D01*
X151279457Y-77320248D01*
X151272263Y-77250750D01*
X151303786Y-77188395D01*
X151323082Y-77171675D01*
X151446875Y-77084994D01*
X151508641Y-77041745D01*
X151675735Y-76874651D01*
X151811275Y-76681080D01*
X151911143Y-76466913D01*
X151972303Y-76238658D01*
X151992899Y-76003250D01*
X151972303Y-75767842D01*
X151911143Y-75539587D01*
X151811275Y-75325421D01*
X151675735Y-75131849D01*
X151675734Y-75131847D01*
X151508642Y-74964756D01*
X151508636Y-74964751D01*
X151323082Y-74834825D01*
X151279457Y-74780248D01*
X151272263Y-74710750D01*
X151303786Y-74648395D01*
X151323082Y-74631675D01*
X151345266Y-74616141D01*
X151508641Y-74501745D01*
X151675735Y-74334651D01*
X151811275Y-74141080D01*
X151911143Y-73926913D01*
X151972303Y-73698658D01*
X151992899Y-73463250D01*
X151972303Y-73227842D01*
X151911143Y-72999587D01*
X151811275Y-72785421D01*
X151742499Y-72687197D01*
X151675734Y-72591847D01*
X151508642Y-72424756D01*
X151508636Y-72424751D01*
X151323082Y-72294825D01*
X151279457Y-72240248D01*
X151272263Y-72170750D01*
X151303786Y-72108395D01*
X151323082Y-72091675D01*
X151399285Y-72038317D01*
X151508641Y-71961745D01*
X151675735Y-71794651D01*
X151811275Y-71601080D01*
X151911143Y-71386913D01*
X151972303Y-71158658D01*
X151992899Y-70923250D01*
X151972303Y-70687842D01*
X151911143Y-70459587D01*
X151811275Y-70245421D01*
X151675735Y-70051849D01*
X151553807Y-69929921D01*
X151520324Y-69868601D01*
X151525308Y-69798909D01*
X151567179Y-69742975D01*
X151598155Y-69726060D01*
X151729571Y-69677046D01*
X151844786Y-69590796D01*
X151931036Y-69475581D01*
X151981331Y-69340733D01*
X151987740Y-69281123D01*
X151987739Y-67485378D01*
X151981331Y-67425767D01*
X151980050Y-67422333D01*
X151931037Y-67290921D01*
X151931033Y-67290914D01*
X151844787Y-67175705D01*
X151844784Y-67175702D01*
X151729575Y-67089456D01*
X151729568Y-67089452D01*
X151594722Y-67039158D01*
X151594723Y-67039158D01*
X151535123Y-67032751D01*
X151535121Y-67032750D01*
X151535113Y-67032750D01*
X151535104Y-67032750D01*
X149739369Y-67032750D01*
X149739363Y-67032751D01*
X149679756Y-67039158D01*
X149544911Y-67089452D01*
X149544904Y-67089456D01*
X149429695Y-67175702D01*
X149429692Y-67175705D01*
X149343446Y-67290914D01*
X149343443Y-67290919D01*
X149294429Y-67422333D01*
X149252557Y-67478266D01*
X149187093Y-67502683D01*
X149118820Y-67487831D01*
X149090566Y-67466680D01*
X148968642Y-67344756D01*
X148968635Y-67344751D01*
X148775074Y-67209217D01*
X148775070Y-67209215D01*
X148563114Y-67110378D01*
X148510675Y-67064206D01*
X148491523Y-66997012D01*
X148511739Y-66930131D01*
X148564902Y-66884797D01*
X148676970Y-66834901D01*
X148830111Y-66723638D01*
X148956773Y-66582966D01*
X149051419Y-66419034D01*
X149109914Y-66239006D01*
X149129700Y-66050750D01*
X149109914Y-65862494D01*
X149107467Y-65854965D01*
X149105469Y-65785126D01*
X149137716Y-65728963D01*
X149138587Y-65728091D01*
X149138590Y-65728090D01*
X149152559Y-65714119D01*
X149213881Y-65680636D01*
X149283573Y-65685620D01*
X149327920Y-65714121D01*
X149341886Y-65728087D01*
X149341888Y-65728088D01*
X149341890Y-65728090D01*
X149488724Y-65818658D01*
X149652487Y-65872924D01*
X149753563Y-65883250D01*
X150451916Y-65883249D01*
X150451924Y-65883248D01*
X150451927Y-65883248D01*
X150507270Y-65877594D01*
X150552993Y-65872924D01*
X150716756Y-65818658D01*
X150863590Y-65728090D01*
X150985580Y-65606100D01*
X151076148Y-65459266D01*
X151130414Y-65295503D01*
X151140740Y-65194427D01*
X151140739Y-64621074D01*
X151130414Y-64519997D01*
X151076148Y-64356234D01*
X150985580Y-64209400D01*
X150926111Y-64149931D01*
X150892626Y-64088608D01*
X150897610Y-64018916D01*
X150939482Y-63962983D01*
X151004946Y-63938566D01*
X151013792Y-63938250D01*
X156228240Y-63938250D01*
X156295279Y-63957935D01*
X156341034Y-64010739D01*
X156352240Y-64062250D01*
X156352240Y-96199250D01*
X156332555Y-96266289D01*
X156279751Y-96312044D01*
X156228240Y-96323250D01*
X138696240Y-96323250D01*
X138629201Y-96303565D01*
X138583446Y-96250761D01*
X138572240Y-96199250D01*
X138572240Y-90097250D01*
X138591925Y-90030211D01*
X138644729Y-89984456D01*
X138696240Y-89973250D01*
X142382240Y-89973250D01*
X142382240Y-86442750D01*
X143381780Y-86442750D01*
X143401566Y-86631006D01*
X143401567Y-86631009D01*
X143460058Y-86811027D01*
X143460061Y-86811034D01*
X143554707Y-86974966D01*
X143608448Y-87034651D01*
X143681369Y-87115638D01*
X143834505Y-87226898D01*
X143834510Y-87226901D01*
X144007432Y-87303892D01*
X144007437Y-87303894D01*
X144192594Y-87343250D01*
X144192595Y-87343250D01*
X144381884Y-87343250D01*
X144381886Y-87343250D01*
X144567043Y-87303894D01*
X144739970Y-87226901D01*
X144893111Y-87115638D01*
X145019773Y-86974966D01*
X145114419Y-86811034D01*
X145172914Y-86631006D01*
X145192700Y-86442750D01*
X145172914Y-86254494D01*
X145114419Y-86074466D01*
X145019773Y-85910534D01*
X144893111Y-85769862D01*
X144893110Y-85769861D01*
X144739974Y-85658601D01*
X144739969Y-85658598D01*
X144567047Y-85581607D01*
X144567042Y-85581605D01*
X144421240Y-85550615D01*
X144381886Y-85542250D01*
X144192594Y-85542250D01*
X144160137Y-85549148D01*
X144007437Y-85581605D01*
X144007432Y-85581607D01*
X143834510Y-85658598D01*
X143834505Y-85658601D01*
X143681369Y-85769861D01*
X143554706Y-85910535D01*
X143460061Y-86074465D01*
X143460058Y-86074472D01*
X143401567Y-86254490D01*
X143401566Y-86254494D01*
X143381780Y-86442750D01*
X142382240Y-86442750D01*
X142382240Y-64062250D01*
X142401925Y-63995211D01*
X142454729Y-63949456D01*
X142506240Y-63938250D01*
X147466688Y-63938250D01*
X147533727Y-63957935D01*
G37*
%TD.AperFunction*%
%TD*%
%TA.AperFunction,Conductor*%
%TO.N,Shunt_1*%
G36*
X137880279Y-89992935D02*
G01*
X137926034Y-90045739D01*
X137937240Y-90097249D01*
X137937240Y-96958250D01*
X148608240Y-96958250D01*
X148675279Y-96977935D01*
X148721034Y-97030739D01*
X148732240Y-97082250D01*
X148732240Y-119186250D01*
X148712555Y-119253289D01*
X148659751Y-119299044D01*
X148608240Y-119310250D01*
X134242624Y-119310250D01*
X134175585Y-119290565D01*
X134129830Y-119237761D01*
X134119886Y-119168603D01*
X134146085Y-119108429D01*
X134173645Y-119074240D01*
X134466989Y-118650105D01*
X134728443Y-118205608D01*
X134728443Y-118205609D01*
X134956609Y-117743131D01*
X135150252Y-117265167D01*
X135249419Y-116957230D01*
X135308328Y-116774302D01*
X135308329Y-116774302D01*
X135429991Y-116273168D01*
X135514584Y-115764455D01*
X135561652Y-115250907D01*
X135561652Y-115250906D01*
X135570941Y-114735297D01*
X135542401Y-114220388D01*
X135476186Y-113708961D01*
X135372655Y-113203777D01*
X135269774Y-112839870D01*
X135232359Y-112707525D01*
X135056058Y-112222902D01*
X134996821Y-112091064D01*
X134844703Y-111752511D01*
X134844703Y-111752512D01*
X134675752Y-111440044D01*
X134599424Y-111298879D01*
X134599423Y-111298877D01*
X134321551Y-110864458D01*
X134317129Y-110858549D01*
X134240201Y-110755751D01*
X136086740Y-110755751D01*
X136086741Y-110755769D01*
X136097240Y-110858546D01*
X136097241Y-110858549D01*
X136143799Y-110999049D01*
X136152426Y-111025084D01*
X136244528Y-111174406D01*
X136368584Y-111298462D01*
X136517906Y-111390564D01*
X136684443Y-111445749D01*
X136787231Y-111456250D01*
X139087248Y-111456249D01*
X139190037Y-111445749D01*
X139207254Y-111440043D01*
X139246258Y-111433750D01*
X140438222Y-111433750D01*
X140477225Y-111440043D01*
X140494443Y-111445749D01*
X140597231Y-111456250D01*
X142897248Y-111456249D01*
X143000037Y-111445749D01*
X143017254Y-111440043D01*
X143056258Y-111433750D01*
X144248222Y-111433750D01*
X144287225Y-111440043D01*
X144304443Y-111445749D01*
X144407231Y-111456250D01*
X146707248Y-111456249D01*
X146810037Y-111445749D01*
X146976574Y-111390564D01*
X147125896Y-111298462D01*
X147249952Y-111174406D01*
X147342054Y-111025084D01*
X147397239Y-110858547D01*
X147407740Y-110755759D01*
X147407739Y-109830742D01*
X147397239Y-109727953D01*
X147342054Y-109561416D01*
X147342053Y-109561414D01*
X147339782Y-109554561D01*
X147341604Y-109553957D01*
X147332740Y-109513952D01*
X147332740Y-108825048D01*
X147341608Y-108785045D01*
X147339782Y-108784440D01*
X147342054Y-108777584D01*
X147397239Y-108611047D01*
X147407740Y-108508259D01*
X147407739Y-107583242D01*
X147397239Y-107480453D01*
X147342054Y-107313916D01*
X147342053Y-107313914D01*
X147339782Y-107307061D01*
X147341604Y-107306457D01*
X147332740Y-107266452D01*
X147332740Y-107242260D01*
X147332740Y-107242250D01*
X147321187Y-107134794D01*
X147309981Y-107083283D01*
X147309877Y-107082972D01*
X147275856Y-106980752D01*
X147275853Y-106980746D01*
X147198068Y-106859712D01*
X147198065Y-106859707D01*
X147198060Y-106859701D01*
X147152316Y-106806909D01*
X147152312Y-106806906D01*
X147152310Y-106806903D01*
X147043576Y-106712683D01*
X147043573Y-106712681D01*
X147043571Y-106712680D01*
X146912705Y-106652914D01*
X146912700Y-106652912D01*
X146912699Y-106652912D01*
X146890098Y-106646275D01*
X146845665Y-106633228D01*
X146845659Y-106633226D01*
X146760206Y-106620940D01*
X146703240Y-106612750D01*
X136791240Y-106612750D01*
X136791231Y-106612750D01*
X136791230Y-106612751D01*
X136683789Y-106624302D01*
X136683777Y-106624304D01*
X136632267Y-106635510D01*
X136529742Y-106669633D01*
X136529736Y-106669636D01*
X136408702Y-106747421D01*
X136408691Y-106747429D01*
X136355899Y-106793173D01*
X136261673Y-106901914D01*
X136261670Y-106901918D01*
X136201904Y-107032784D01*
X136182218Y-107099825D01*
X136182216Y-107099830D01*
X136165835Y-107213766D01*
X136161742Y-107242240D01*
X136161740Y-107242251D01*
X136161740Y-107266452D01*
X136152875Y-107306457D01*
X136154698Y-107307061D01*
X136152427Y-107313914D01*
X136152426Y-107313916D01*
X136097241Y-107480453D01*
X136097241Y-107480454D01*
X136097240Y-107480454D01*
X136086740Y-107583233D01*
X136086740Y-108508251D01*
X136086741Y-108508269D01*
X136097240Y-108611046D01*
X136097241Y-108611049D01*
X136154698Y-108784440D01*
X136152871Y-108785045D01*
X136161740Y-108825048D01*
X136161740Y-109513952D01*
X136152875Y-109553957D01*
X136154698Y-109554561D01*
X136152427Y-109561414D01*
X136152426Y-109561416D01*
X136097241Y-109727953D01*
X136097241Y-109727954D01*
X136097240Y-109727954D01*
X136086740Y-109830733D01*
X136086740Y-110755751D01*
X134240201Y-110755751D01*
X134012568Y-110451568D01*
X134012566Y-110451565D01*
X133674145Y-110062446D01*
X133308113Y-109699193D01*
X133308112Y-109699192D01*
X132916421Y-109363743D01*
X132501196Y-109057921D01*
X132501190Y-109057917D01*
X132501187Y-109057915D01*
X132327944Y-108948953D01*
X132064665Y-108783363D01*
X131950558Y-108722785D01*
X131656215Y-108566522D01*
X131606232Y-108517700D01*
X131590359Y-108456999D01*
X131590359Y-99668251D01*
X136086740Y-99668251D01*
X136086741Y-99668269D01*
X136097240Y-99771046D01*
X136097241Y-99771049D01*
X136152425Y-99937581D01*
X136152426Y-99937584D01*
X136244528Y-100086906D01*
X136368584Y-100210962D01*
X136517906Y-100303064D01*
X136684443Y-100358249D01*
X136787231Y-100368750D01*
X139087248Y-100368749D01*
X139190037Y-100358249D01*
X139356574Y-100303064D01*
X139483606Y-100224710D01*
X139548701Y-100206250D01*
X139892982Y-100206250D01*
X140262779Y-100206250D01*
X140327873Y-100224710D01*
X140454906Y-100303064D01*
X140621443Y-100358249D01*
X140724231Y-100368750D01*
X143024248Y-100368749D01*
X143127037Y-100358249D01*
X143293574Y-100303064D01*
X143420606Y-100224710D01*
X143485701Y-100206250D01*
X143588999Y-100206250D01*
X143945779Y-100206250D01*
X144010873Y-100224710D01*
X144137906Y-100303064D01*
X144304443Y-100358249D01*
X144407231Y-100368750D01*
X146707248Y-100368749D01*
X146810037Y-100358249D01*
X146976574Y-100303064D01*
X147125896Y-100210962D01*
X147249952Y-100086906D01*
X147342054Y-99937584D01*
X147397239Y-99771047D01*
X147407740Y-99668259D01*
X147407739Y-98743242D01*
X147397239Y-98640453D01*
X147342054Y-98473916D01*
X147249952Y-98324594D01*
X147125896Y-98200538D01*
X146976574Y-98108436D01*
X146810037Y-98053251D01*
X146810035Y-98053250D01*
X146707250Y-98042750D01*
X144407238Y-98042750D01*
X144407221Y-98042751D01*
X144304443Y-98053250D01*
X144304440Y-98053251D01*
X144137908Y-98108435D01*
X144137903Y-98108437D01*
X144069724Y-98150490D01*
X144010873Y-98186789D01*
X143945779Y-98205250D01*
X143485701Y-98205250D01*
X143420606Y-98186789D01*
X143293574Y-98108436D01*
X143127037Y-98053251D01*
X143127035Y-98053250D01*
X143024250Y-98042750D01*
X140724238Y-98042750D01*
X140724221Y-98042751D01*
X140621443Y-98053250D01*
X140621440Y-98053251D01*
X140454908Y-98108435D01*
X140454903Y-98108437D01*
X140386724Y-98150490D01*
X140327873Y-98186789D01*
X140262779Y-98205250D01*
X139548701Y-98205250D01*
X139483606Y-98186789D01*
X139356574Y-98108436D01*
X139190037Y-98053251D01*
X139190035Y-98053250D01*
X139087250Y-98042750D01*
X136787238Y-98042750D01*
X136787221Y-98042751D01*
X136684443Y-98053250D01*
X136684440Y-98053251D01*
X136517908Y-98108435D01*
X136517903Y-98108437D01*
X136368582Y-98200539D01*
X136244529Y-98324592D01*
X136152427Y-98473913D01*
X136152425Y-98473916D01*
X136152426Y-98473916D01*
X136097241Y-98640453D01*
X136097241Y-98640454D01*
X136097240Y-98640454D01*
X136086740Y-98743233D01*
X136086740Y-99668251D01*
X131590359Y-99668251D01*
X131590359Y-99391222D01*
X131590443Y-99140078D01*
X131559126Y-98705872D01*
X131559125Y-98705872D01*
X131549608Y-98640453D01*
X131496458Y-98275087D01*
X131480028Y-98200538D01*
X131402769Y-97849973D01*
X131402768Y-97849972D01*
X131402767Y-97849964D01*
X131278545Y-97432740D01*
X131124445Y-97025603D01*
X130941275Y-96630690D01*
X130729995Y-96250074D01*
X130707573Y-96215792D01*
X130491720Y-95885757D01*
X130227685Y-95539634D01*
X130227685Y-95539633D01*
X129939295Y-95213544D01*
X129939294Y-95213543D01*
X129628050Y-94909183D01*
X129578960Y-94867677D01*
X129576237Y-94865232D01*
X129575695Y-94864715D01*
X129575690Y-94864710D01*
X129575682Y-94864703D01*
X129460030Y-94767121D01*
X128647890Y-94057340D01*
X127860879Y-93319680D01*
X127813344Y-93271912D01*
X127780010Y-93210507D01*
X127777240Y-93184446D01*
X127777240Y-90097250D01*
X127796925Y-90030211D01*
X127849729Y-89984456D01*
X127901240Y-89973250D01*
X137813240Y-89973250D01*
X137880279Y-89992935D01*
G37*
%TD.AperFunction*%
%TD*%
%TA.AperFunction,Conductor*%
%TO.N,GND*%
G36*
X146770279Y-107137935D02*
G01*
X146816034Y-107190739D01*
X146827240Y-107242250D01*
X146827240Y-110804250D01*
X146807555Y-110871289D01*
X146754751Y-110917044D01*
X146703240Y-110928250D01*
X136791240Y-110928250D01*
X136724201Y-110908565D01*
X136678446Y-110855761D01*
X136667240Y-110804250D01*
X136667240Y-107242250D01*
X136686925Y-107175211D01*
X136739729Y-107129456D01*
X136791240Y-107118250D01*
X146703240Y-107118250D01*
X146770279Y-107137935D01*
G37*
%TD.AperFunction*%
%TD*%
%TA.AperFunction,Conductor*%
%TO.N,GND*%
G36*
X162074085Y-64592935D02*
G01*
X162091045Y-64607348D01*
X162091545Y-64606794D01*
X162096375Y-64611143D01*
X162249505Y-64722398D01*
X162249510Y-64722401D01*
X162422437Y-64799394D01*
X162537806Y-64823916D01*
X162564408Y-64832817D01*
X162605546Y-64851999D01*
X162620171Y-64858820D01*
X162653546Y-64875581D01*
X162688807Y-64893290D01*
X162688816Y-64893292D01*
X162695595Y-64895760D01*
X162695574Y-64895817D01*
X162702691Y-64898290D01*
X162702710Y-64898234D01*
X162709570Y-64900507D01*
X162784771Y-64916033D01*
X162784772Y-64916034D01*
X162859519Y-64933750D01*
X162859528Y-64933750D01*
X162866692Y-64934588D01*
X162866685Y-64934647D01*
X162874186Y-64935413D01*
X162874192Y-64935354D01*
X162881380Y-64935983D01*
X162881383Y-64935982D01*
X162881384Y-64935983D01*
X162958138Y-64933750D01*
X164014920Y-64933750D01*
X164081959Y-64953435D01*
X164114188Y-64983441D01*
X164119694Y-64990796D01*
X164119697Y-64990798D01*
X164234904Y-65077043D01*
X164234911Y-65077047D01*
X164369757Y-65127341D01*
X164369756Y-65127341D01*
X164376684Y-65128085D01*
X164429367Y-65133750D01*
X167325112Y-65133749D01*
X167384723Y-65127341D01*
X167519571Y-65077046D01*
X167583928Y-65028867D01*
X167649393Y-65004450D01*
X167717666Y-65019301D01*
X167767072Y-65068706D01*
X167782240Y-65128134D01*
X167782240Y-73339250D01*
X167762555Y-73406289D01*
X167709751Y-73452044D01*
X167658240Y-73463250D01*
X161556240Y-73463250D01*
X161489201Y-73443565D01*
X161443446Y-73390761D01*
X161432240Y-73339250D01*
X161432240Y-64697250D01*
X161451925Y-64630211D01*
X161504729Y-64584456D01*
X161556240Y-64573250D01*
X162007046Y-64573250D01*
X162074085Y-64592935D01*
G37*
%TD.AperFunction*%
%TD*%
%TA.AperFunction,Conductor*%
%TO.N,Net-(J5-Pin_1)*%
G36*
X163349779Y-104597935D02*
G01*
X163395534Y-104650739D01*
X163406740Y-104702250D01*
X163406740Y-105248251D01*
X163406741Y-105248269D01*
X163417240Y-105351046D01*
X163417241Y-105351049D01*
X163469999Y-105510261D01*
X163472426Y-105517584D01*
X163536895Y-105622106D01*
X163564529Y-105666907D01*
X163658191Y-105760569D01*
X163691676Y-105821892D01*
X163686692Y-105891584D01*
X163658191Y-105935931D01*
X163564529Y-106029592D01*
X163472427Y-106178913D01*
X163472425Y-106178916D01*
X163472426Y-106178916D01*
X163417241Y-106345453D01*
X163417241Y-106345454D01*
X163417240Y-106345454D01*
X163406740Y-106448233D01*
X163406740Y-107248251D01*
X163406741Y-107248269D01*
X163417240Y-107351046D01*
X163417241Y-107351049D01*
X163445550Y-107436479D01*
X163472426Y-107517584D01*
X163564528Y-107666906D01*
X163688584Y-107790962D01*
X163837906Y-107883064D01*
X164004443Y-107938249D01*
X164107231Y-107948750D01*
X165107248Y-107948749D01*
X165107256Y-107948748D01*
X165107259Y-107948748D01*
X165163542Y-107942998D01*
X165210037Y-107938249D01*
X165376574Y-107883064D01*
X165525896Y-107790962D01*
X165649952Y-107666906D01*
X165683089Y-107613179D01*
X165735034Y-107566455D01*
X165746219Y-107561752D01*
X165758663Y-107557224D01*
X165831574Y-107533064D01*
X165831583Y-107533058D01*
X165838122Y-107530010D01*
X165838148Y-107530066D01*
X165844930Y-107526782D01*
X165844903Y-107526728D01*
X165851346Y-107523490D01*
X165851357Y-107523487D01*
X165915523Y-107481284D01*
X165980896Y-107440962D01*
X165980902Y-107440955D01*
X165986565Y-107436479D01*
X165986603Y-107436527D01*
X165992440Y-107431772D01*
X165992401Y-107431725D01*
X165997935Y-107427081D01*
X165997936Y-107427080D01*
X166029045Y-107394105D01*
X166089365Y-107358851D01*
X166093396Y-107357921D01*
X166157043Y-107344394D01*
X166157047Y-107344392D01*
X166157048Y-107344392D01*
X166225497Y-107313916D01*
X166329970Y-107267401D01*
X166483111Y-107156138D01*
X166609773Y-107015466D01*
X166704419Y-106851534D01*
X166762914Y-106671506D01*
X166782700Y-106483250D01*
X166762914Y-106294994D01*
X166704419Y-106114966D01*
X166609773Y-105951034D01*
X166483111Y-105810362D01*
X166483110Y-105810361D01*
X166329974Y-105699101D01*
X166329969Y-105699098D01*
X166157047Y-105622107D01*
X166157042Y-105622105D01*
X166011240Y-105591115D01*
X165971886Y-105582750D01*
X165892180Y-105582750D01*
X165825141Y-105563065D01*
X165779386Y-105510261D01*
X165769442Y-105441103D01*
X165774474Y-105419746D01*
X165797239Y-105351047D01*
X165807740Y-105248259D01*
X165807739Y-104702248D01*
X165827423Y-104635211D01*
X165880227Y-104589456D01*
X165931739Y-104578250D01*
X167302813Y-104578250D01*
X167369852Y-104597935D01*
X167415607Y-104650739D01*
X167426813Y-104702250D01*
X167426813Y-108415610D01*
X167407128Y-108482649D01*
X167357587Y-108526856D01*
X167116449Y-108645586D01*
X166984120Y-108710741D01*
X166535075Y-108974897D01*
X166535075Y-108974896D01*
X166106852Y-109271623D01*
X166106850Y-109271625D01*
X165957120Y-109392750D01*
X165701807Y-109599287D01*
X165355277Y-109924972D01*
X165322177Y-109956081D01*
X165217167Y-110070582D01*
X165077557Y-110222812D01*
X165017738Y-110258914D01*
X164947896Y-110256945D01*
X164890206Y-110217529D01*
X164862984Y-110153181D01*
X164862873Y-110152179D01*
X164857914Y-110104994D01*
X164799419Y-109924966D01*
X164704773Y-109761034D01*
X164578111Y-109620362D01*
X164549104Y-109599287D01*
X164424974Y-109509101D01*
X164424969Y-109509098D01*
X164252047Y-109432107D01*
X164252042Y-109432105D01*
X164106240Y-109401115D01*
X164066886Y-109392750D01*
X163877594Y-109392750D01*
X163845137Y-109399648D01*
X163692437Y-109432105D01*
X163692432Y-109432107D01*
X163519510Y-109509098D01*
X163519505Y-109509101D01*
X163366369Y-109620361D01*
X163239706Y-109761035D01*
X163145061Y-109924965D01*
X163145058Y-109924972D01*
X163097591Y-110071062D01*
X163086566Y-110104994D01*
X163066780Y-110293250D01*
X163086566Y-110481506D01*
X163086567Y-110481509D01*
X163145058Y-110661527D01*
X163145061Y-110661534D01*
X163239707Y-110825466D01*
X163352513Y-110950749D01*
X163366369Y-110966138D01*
X163519505Y-111077398D01*
X163519510Y-111077401D01*
X163692432Y-111154392D01*
X163692437Y-111154394D01*
X163877594Y-111193750D01*
X163877595Y-111193750D01*
X164066884Y-111193750D01*
X164066886Y-111193750D01*
X164116562Y-111183191D01*
X164186228Y-111188507D01*
X164241962Y-111230644D01*
X164266067Y-111296224D01*
X164250890Y-111364425D01*
X164249995Y-111366016D01*
X164141548Y-111555634D01*
X164097235Y-111633113D01*
X164097234Y-111633113D01*
X164097234Y-111633114D01*
X163872828Y-112103288D01*
X163683904Y-112588808D01*
X163683903Y-112588812D01*
X163683902Y-112588812D01*
X163531500Y-113087001D01*
X163531501Y-113087000D01*
X163416458Y-113595120D01*
X163339410Y-114110368D01*
X163339410Y-114110369D01*
X163321365Y-114353060D01*
X163300779Y-114629920D01*
X163300779Y-115150901D01*
X163317335Y-115373564D01*
X163339410Y-115670453D01*
X163377655Y-115926209D01*
X163416459Y-116185701D01*
X163453582Y-116349669D01*
X163531501Y-116693821D01*
X163531500Y-116693820D01*
X163683902Y-117192010D01*
X163808559Y-117512366D01*
X163872829Y-117677533D01*
X164097234Y-118147707D01*
X164355886Y-118599948D01*
X164355888Y-118599951D01*
X164355887Y-118599950D01*
X164647364Y-119031773D01*
X164708644Y-119109446D01*
X164734714Y-119174270D01*
X164721599Y-119242897D01*
X164673462Y-119293540D01*
X164611294Y-119310250D01*
X149491240Y-119310250D01*
X149424201Y-119290565D01*
X149378446Y-119237761D01*
X149367240Y-119186250D01*
X149367240Y-104702250D01*
X149386925Y-104635211D01*
X149439729Y-104589456D01*
X149491240Y-104578250D01*
X163282740Y-104578250D01*
X163349779Y-104597935D01*
G37*
%TD.AperFunction*%
%TD*%
%TA.AperFunction,Conductor*%
%TO.N,GND*%
G36*
X170900279Y-91262935D02*
G01*
X170946034Y-91315739D01*
X170957240Y-91367250D01*
X170957240Y-93342033D01*
X170937555Y-93409072D01*
X170918391Y-93432174D01*
X170344441Y-93974351D01*
X169539926Y-94683253D01*
X169413913Y-94790467D01*
X169374004Y-94824423D01*
X169374000Y-94824426D01*
X169374001Y-94824426D01*
X169065197Y-95128175D01*
X169065198Y-95128175D01*
X168779096Y-95453395D01*
X168779095Y-95453396D01*
X168779093Y-95453399D01*
X168517177Y-95798400D01*
X168517174Y-95798405D01*
X168517174Y-95798404D01*
X168280816Y-96161378D01*
X168280812Y-96161383D01*
X168280812Y-96161385D01*
X168071228Y-96540464D01*
X167889517Y-96933666D01*
X167736623Y-97338943D01*
X167700204Y-97461611D01*
X167613345Y-97754178D01*
X167613346Y-97754178D01*
X167613343Y-97754188D01*
X167533157Y-98118848D01*
X167520316Y-98177245D01*
X167458029Y-98605894D01*
X167426805Y-99037924D01*
X167426813Y-99254501D01*
X167426813Y-103819250D01*
X167407128Y-103886289D01*
X167354324Y-103932044D01*
X167302813Y-103943250D01*
X165614970Y-103943250D01*
X165547931Y-103923565D01*
X165527289Y-103906931D01*
X165525897Y-103905539D01*
X165525896Y-103905538D01*
X165416642Y-103838150D01*
X165369919Y-103786203D01*
X165357740Y-103732612D01*
X165357740Y-103713254D01*
X165377425Y-103646215D01*
X165416643Y-103607715D01*
X165435284Y-103596218D01*
X165555208Y-103476294D01*
X165644243Y-103331947D01*
X165697589Y-103170958D01*
X165707740Y-103071595D01*
X165707739Y-102524906D01*
X165697589Y-102425542D01*
X165644243Y-102264553D01*
X165644239Y-102264547D01*
X165644238Y-102264544D01*
X165555210Y-102120209D01*
X165555207Y-102120205D01*
X165435284Y-102000282D01*
X165435280Y-102000279D01*
X165290945Y-101911251D01*
X165290939Y-101911248D01*
X165290937Y-101911247D01*
X165290934Y-101911246D01*
X165129949Y-101857901D01*
X165030592Y-101847750D01*
X165030585Y-101847750D01*
X164769469Y-101847750D01*
X164702430Y-101828065D01*
X164681788Y-101811431D01*
X163792969Y-100922611D01*
X163781189Y-100908980D01*
X163773722Y-100898951D01*
X163766852Y-100889722D01*
X163766850Y-100889720D01*
X163726827Y-100856136D01*
X163722852Y-100852494D01*
X163719930Y-100849572D01*
X163717020Y-100846661D01*
X163691280Y-100826309D01*
X163632449Y-100776944D01*
X163626420Y-100772979D01*
X163626452Y-100772930D01*
X163620093Y-100768878D01*
X163620062Y-100768929D01*
X163613920Y-100765141D01*
X163613918Y-100765140D01*
X163613917Y-100765139D01*
X163574714Y-100746858D01*
X163544298Y-100732674D01*
X163510134Y-100715517D01*
X163475673Y-100698210D01*
X163475671Y-100698209D01*
X163475670Y-100698209D01*
X163468885Y-100695739D01*
X163468905Y-100695683D01*
X163461789Y-100693209D01*
X163461771Y-100693265D01*
X163454911Y-100690992D01*
X163427081Y-100685246D01*
X163379674Y-100675457D01*
X163330712Y-100663853D01*
X163304959Y-100657749D01*
X163297787Y-100656911D01*
X163297793Y-100656851D01*
X163290295Y-100656085D01*
X163290290Y-100656145D01*
X163283100Y-100655515D01*
X163206323Y-100657750D01*
X162261739Y-100657750D01*
X162194700Y-100638065D01*
X162148945Y-100585261D01*
X162137739Y-100533750D01*
X162137739Y-99960379D01*
X162137738Y-99960373D01*
X162137737Y-99960366D01*
X162131331Y-99900767D01*
X162098125Y-99811738D01*
X162081037Y-99765921D01*
X162081033Y-99765914D01*
X161994787Y-99650705D01*
X161994784Y-99650702D01*
X161879575Y-99564456D01*
X161879568Y-99564452D01*
X161744722Y-99514158D01*
X161744723Y-99514158D01*
X161685123Y-99507751D01*
X161685121Y-99507750D01*
X161685113Y-99507750D01*
X161685104Y-99507750D01*
X160689369Y-99507750D01*
X160689363Y-99507751D01*
X160629756Y-99514158D01*
X160494911Y-99564452D01*
X160494904Y-99564456D01*
X160379695Y-99650702D01*
X160379692Y-99650705D01*
X160293446Y-99765914D01*
X160293442Y-99765921D01*
X160243148Y-99900767D01*
X160236741Y-99960366D01*
X160236741Y-99960373D01*
X160236740Y-99960385D01*
X160236740Y-102856120D01*
X160236741Y-102856126D01*
X160243148Y-102915733D01*
X160293442Y-103050578D01*
X160293446Y-103050585D01*
X160379692Y-103165794D01*
X160379695Y-103165797D01*
X160494904Y-103252043D01*
X160494911Y-103252047D01*
X160629757Y-103302341D01*
X160629756Y-103302341D01*
X160636684Y-103303085D01*
X160689367Y-103308750D01*
X161685112Y-103308749D01*
X161744723Y-103302341D01*
X161879571Y-103252046D01*
X161994786Y-103165796D01*
X162081036Y-103050581D01*
X162131331Y-102915733D01*
X162137740Y-102856123D01*
X162137740Y-102282749D01*
X162157425Y-102215711D01*
X162210229Y-102169956D01*
X162261740Y-102158750D01*
X162855010Y-102158750D01*
X162922049Y-102178435D01*
X162942691Y-102195069D01*
X163470421Y-102722799D01*
X163503906Y-102784122D01*
X163506740Y-102810480D01*
X163506740Y-103071586D01*
X163506741Y-103071605D01*
X163516890Y-103170957D01*
X163516891Y-103170960D01*
X163570236Y-103331944D01*
X163570241Y-103331955D01*
X163659269Y-103476290D01*
X163659272Y-103476294D01*
X163779196Y-103596218D01*
X163797836Y-103607715D01*
X163844561Y-103659662D01*
X163856740Y-103713254D01*
X163856740Y-103732612D01*
X163837055Y-103799651D01*
X163797838Y-103838149D01*
X163744967Y-103870761D01*
X163688582Y-103905539D01*
X163687191Y-103906931D01*
X163685999Y-103907581D01*
X163682921Y-103910016D01*
X163682504Y-103909489D01*
X163625868Y-103940416D01*
X163599510Y-103943250D01*
X149491240Y-103943250D01*
X149424201Y-103923565D01*
X149378446Y-103870761D01*
X149367240Y-103819250D01*
X149367240Y-97082250D01*
X149386925Y-97015211D01*
X149439729Y-96969456D01*
X149491240Y-96958250D01*
X156987240Y-96958250D01*
X156987240Y-91367250D01*
X157006925Y-91300211D01*
X157059729Y-91254456D01*
X157111240Y-91243250D01*
X170833240Y-91243250D01*
X170900279Y-91262935D01*
G37*
%TD.AperFunction*%
%TD*%
%TA.AperFunction,Conductor*%
%TO.N,Earth_Protective*%
G36*
X138769279Y-122631935D02*
G01*
X138815034Y-122684739D01*
X138826240Y-122736250D01*
X138826240Y-125400406D01*
X138806555Y-125467445D01*
X138753751Y-125513200D01*
X138702266Y-125524406D01*
X131552283Y-125525890D01*
X131485239Y-125506219D01*
X131439473Y-125453425D01*
X131428257Y-125401890D01*
X131428257Y-122736250D01*
X131447942Y-122669211D01*
X131500746Y-122623456D01*
X131552257Y-122612250D01*
X138702240Y-122612250D01*
X138769279Y-122631935D01*
G37*
%TD.AperFunction*%
%TD*%
%TA.AperFunction,Conductor*%
%TO.N,B*%
G36*
X150556947Y-40094548D02*
G01*
X151661981Y-40153779D01*
X152764197Y-40252414D01*
X153862191Y-40390326D01*
X154954562Y-40567341D01*
X156039920Y-40783232D01*
X157116880Y-41037724D01*
X157677848Y-41191618D01*
X157737289Y-41228337D01*
X157767443Y-41291364D01*
X157759322Y-41359320D01*
X157743540Y-41396799D01*
X157613986Y-41808627D01*
X157523559Y-42230807D01*
X157473064Y-42659589D01*
X157473064Y-42659591D01*
X157462944Y-43091216D01*
X157462944Y-43091227D01*
X157493284Y-43521889D01*
X157563824Y-43947846D01*
X157673933Y-44365300D01*
X157673935Y-44365307D01*
X157748937Y-44569713D01*
X157822659Y-44770631D01*
X157956137Y-45050191D01*
X158008682Y-45160244D01*
X158008685Y-45160250D01*
X158230371Y-45530728D01*
X158230375Y-45530734D01*
X158485782Y-45878826D01*
X158632214Y-46043515D01*
X158772665Y-46201476D01*
X159088501Y-46495844D01*
X159088510Y-46495852D01*
X159430504Y-46759336D01*
X159430511Y-46759341D01*
X159430514Y-46759343D01*
X159795699Y-46989658D01*
X160106563Y-47147134D01*
X160157470Y-47194989D01*
X160174424Y-47262770D01*
X160152042Y-47328958D01*
X160097429Y-47372537D01*
X160050526Y-47381750D01*
X152270369Y-47381750D01*
X152270363Y-47381751D01*
X152210756Y-47388158D01*
X152075911Y-47438452D01*
X152075904Y-47438456D01*
X151960695Y-47524702D01*
X151960692Y-47524705D01*
X151874446Y-47639914D01*
X151874442Y-47639921D01*
X151824148Y-47774767D01*
X151817741Y-47834366D01*
X151817741Y-47834373D01*
X151817740Y-47834385D01*
X151817740Y-49480120D01*
X151817741Y-49480126D01*
X151824148Y-49539733D01*
X151874442Y-49674578D01*
X151874446Y-49674585D01*
X151960692Y-49789794D01*
X151960695Y-49789797D01*
X152075904Y-49876043D01*
X152075911Y-49876047D01*
X152120858Y-49892811D01*
X152210757Y-49926341D01*
X152270367Y-49932750D01*
X152393740Y-49932749D01*
X152460779Y-49952433D01*
X152506534Y-50005237D01*
X152517740Y-50056749D01*
X152517740Y-51565273D01*
X152498055Y-51632312D01*
X152445251Y-51678067D01*
X152418105Y-51685516D01*
X152418308Y-51686374D01*
X152410760Y-51688157D01*
X152275911Y-51738452D01*
X152275904Y-51738456D01*
X152160695Y-51824702D01*
X152160692Y-51824705D01*
X152074446Y-51939914D01*
X152074442Y-51939921D01*
X152024148Y-52074767D01*
X152017741Y-52134366D01*
X152017740Y-52134385D01*
X152017740Y-55930120D01*
X152017741Y-55930126D01*
X152024148Y-55989733D01*
X152074442Y-56124578D01*
X152074446Y-56124585D01*
X152160692Y-56239794D01*
X152160695Y-56239797D01*
X152275904Y-56326043D01*
X152275911Y-56326047D01*
X152410757Y-56376341D01*
X152410756Y-56376341D01*
X152417684Y-56377085D01*
X152470367Y-56382750D01*
X162266112Y-56382749D01*
X162325723Y-56376341D01*
X162460571Y-56326046D01*
X162503930Y-56293587D01*
X162569391Y-56269170D01*
X162637665Y-56284021D01*
X162687071Y-56333425D01*
X162702240Y-56392854D01*
X162702240Y-62917219D01*
X162682555Y-62984258D01*
X162629751Y-63030013D01*
X162604021Y-63038509D01*
X162422437Y-63077105D01*
X162422432Y-63077107D01*
X162249510Y-63154098D01*
X162249505Y-63154101D01*
X162096375Y-63265356D01*
X162091545Y-63269706D01*
X162089942Y-63267926D01*
X162039697Y-63298874D01*
X162007046Y-63303250D01*
X153303205Y-63303250D01*
X153236166Y-63283565D01*
X153190411Y-63230761D01*
X153180467Y-63161603D01*
X153195817Y-63117251D01*
X153242419Y-63036534D01*
X153297762Y-62866205D01*
X153328009Y-62816847D01*
X153653882Y-62490974D01*
X153667511Y-62479197D01*
X153686770Y-62464860D01*
X153720341Y-62424851D01*
X153724001Y-62420856D01*
X153729830Y-62415028D01*
X153750181Y-62389289D01*
X153756188Y-62382129D01*
X153799542Y-62330464D01*
X153799546Y-62330455D01*
X153803514Y-62324425D01*
X153803565Y-62324458D01*
X153807612Y-62318106D01*
X153807560Y-62318074D01*
X153811352Y-62311925D01*
X153843815Y-62242308D01*
X153861356Y-62207378D01*
X153878280Y-62173683D01*
X153878282Y-62173671D01*
X153880749Y-62166896D01*
X153880807Y-62166917D01*
X153883283Y-62159796D01*
X153883226Y-62159778D01*
X153885497Y-62152923D01*
X153901032Y-62077684D01*
X153916247Y-62013488D01*
X153918740Y-62002971D01*
X153918740Y-62002960D01*
X153919578Y-61995798D01*
X153919638Y-61995805D01*
X153920404Y-61988305D01*
X153920345Y-61988300D01*
X153920974Y-61981110D01*
X153920708Y-61971984D01*
X153918740Y-61904332D01*
X153918740Y-61369570D01*
X153938425Y-61302531D01*
X153968432Y-61270301D01*
X153975786Y-61264796D01*
X154062036Y-61149581D01*
X154112331Y-61014733D01*
X154118740Y-60955123D01*
X154118739Y-58059378D01*
X154112331Y-57999767D01*
X154105244Y-57980767D01*
X154062037Y-57864921D01*
X154062033Y-57864914D01*
X153975787Y-57749705D01*
X153975784Y-57749702D01*
X153860575Y-57663456D01*
X153860568Y-57663452D01*
X153725722Y-57613158D01*
X153725723Y-57613158D01*
X153666123Y-57606751D01*
X153666121Y-57606750D01*
X153666113Y-57606750D01*
X153666104Y-57606750D01*
X152670369Y-57606750D01*
X152670363Y-57606751D01*
X152610756Y-57613158D01*
X152475911Y-57663452D01*
X152475904Y-57663456D01*
X152360695Y-57749702D01*
X152360692Y-57749705D01*
X152274446Y-57864914D01*
X152274442Y-57864921D01*
X152224148Y-57999767D01*
X152217741Y-58059366D01*
X152217741Y-58059373D01*
X152217740Y-58059385D01*
X152217740Y-60955120D01*
X152217741Y-60955126D01*
X152224148Y-61014733D01*
X152274442Y-61149578D01*
X152274443Y-61149579D01*
X152274444Y-61149581D01*
X152340234Y-61237465D01*
X152360694Y-61264796D01*
X152368048Y-61270301D01*
X152409921Y-61326233D01*
X152417740Y-61369570D01*
X152417740Y-61553020D01*
X152398055Y-61620059D01*
X152381425Y-61640696D01*
X152302597Y-61719525D01*
X152262469Y-61759653D01*
X152201146Y-61793137D01*
X152200570Y-61793261D01*
X152135436Y-61807106D01*
X152135432Y-61807107D01*
X151962510Y-61884098D01*
X151962505Y-61884101D01*
X151823744Y-61984917D01*
X151757938Y-62008397D01*
X151689884Y-61992571D01*
X151641189Y-61942465D01*
X151627314Y-61873987D01*
X151632925Y-61846290D01*
X151649914Y-61794006D01*
X151669700Y-61605750D01*
X151649914Y-61417494D01*
X151591419Y-61237466D01*
X151496773Y-61073534D01*
X151370111Y-60932862D01*
X151370110Y-60932861D01*
X151365762Y-60928032D01*
X151367612Y-60926366D01*
X151336837Y-60876417D01*
X151338165Y-60806560D01*
X151367451Y-60760989D01*
X151365762Y-60759468D01*
X151370111Y-60754638D01*
X151496773Y-60613966D01*
X151591419Y-60450034D01*
X151649914Y-60270006D01*
X151669700Y-60081750D01*
X151649914Y-59893494D01*
X151591419Y-59713466D01*
X151496773Y-59549534D01*
X151481232Y-59532274D01*
X151421590Y-59466034D01*
X151391360Y-59403042D01*
X151389740Y-59383062D01*
X151389740Y-59282487D01*
X151391464Y-59266873D01*
X151391178Y-59266846D01*
X151391912Y-59259083D01*
X151389740Y-59189953D01*
X151389740Y-59160401D01*
X151389740Y-59160400D01*
X151388869Y-59153509D01*
X151388412Y-59147695D01*
X151386949Y-59101122D01*
X151381362Y-59081894D01*
X151377414Y-59062834D01*
X151374904Y-59042958D01*
X151357747Y-58999625D01*
X151355859Y-58994109D01*
X151342859Y-58949362D01*
X151332658Y-58932113D01*
X151324100Y-58914644D01*
X151316726Y-58896018D01*
X151316723Y-58896014D01*
X151316723Y-58896013D01*
X151289338Y-58858321D01*
X151286130Y-58853437D01*
X151262412Y-58813332D01*
X151262403Y-58813321D01*
X151248245Y-58799163D01*
X151235610Y-58784370D01*
X151223833Y-58768162D01*
X151187933Y-58738463D01*
X151183621Y-58734540D01*
X150952058Y-58502977D01*
X150918573Y-58441654D01*
X150915739Y-58415296D01*
X150915739Y-57898886D01*
X150900286Y-57781496D01*
X150900284Y-57781491D01*
X150900284Y-57781488D01*
X150839776Y-57635409D01*
X150743522Y-57509968D01*
X150618081Y-57413714D01*
X150472002Y-57353206D01*
X150472000Y-57353205D01*
X150354601Y-57337750D01*
X150075876Y-57337750D01*
X149958486Y-57353203D01*
X149958474Y-57353207D01*
X149937690Y-57361816D01*
X149868221Y-57369283D01*
X149842790Y-57361816D01*
X149822005Y-57353207D01*
X149822000Y-57353205D01*
X149704601Y-57337750D01*
X149425876Y-57337750D01*
X149308486Y-57353203D01*
X149308474Y-57353207D01*
X149287690Y-57361816D01*
X149218221Y-57369283D01*
X149192790Y-57361816D01*
X149172005Y-57353207D01*
X149172000Y-57353205D01*
X149054610Y-57337751D01*
X149054607Y-57337750D01*
X149054601Y-57337750D01*
X149054594Y-57337750D01*
X148992605Y-57337750D01*
X148925566Y-57318065D01*
X148879811Y-57265261D01*
X148869285Y-57226715D01*
X148855914Y-57099494D01*
X148797419Y-56919466D01*
X148702773Y-56755534D01*
X148576111Y-56614862D01*
X148500026Y-56559583D01*
X148422974Y-56503601D01*
X148422969Y-56503598D01*
X148250047Y-56426607D01*
X148250042Y-56426605D01*
X148091251Y-56392854D01*
X148064886Y-56387250D01*
X147875594Y-56387250D01*
X147849229Y-56392854D01*
X147690437Y-56426605D01*
X147690432Y-56426607D01*
X147517510Y-56503598D01*
X147517505Y-56503601D01*
X147364369Y-56614861D01*
X147237706Y-56755535D01*
X147143061Y-56919465D01*
X147143058Y-56919472D01*
X147084567Y-57099490D01*
X147084566Y-57099494D01*
X147064780Y-57287750D01*
X147084566Y-57476006D01*
X147084567Y-57476009D01*
X147134890Y-57630889D01*
X147136885Y-57700730D01*
X147100804Y-57760563D01*
X147038103Y-57791391D01*
X146968689Y-57783426D01*
X146965447Y-57782001D01*
X146912705Y-57757914D01*
X146912700Y-57757912D01*
X146912699Y-57757912D01*
X146890098Y-57751275D01*
X146845665Y-57738228D01*
X146845659Y-57738226D01*
X146760206Y-57725940D01*
X146703240Y-57717750D01*
X146703238Y-57717750D01*
X146143754Y-57717750D01*
X146076715Y-57698065D01*
X146069443Y-57693017D01*
X146004571Y-57644454D01*
X146004568Y-57644452D01*
X145869722Y-57594158D01*
X145869723Y-57594158D01*
X145810123Y-57587751D01*
X145810121Y-57587750D01*
X145810113Y-57587750D01*
X145810104Y-57587750D01*
X144814369Y-57587750D01*
X144814363Y-57587751D01*
X144754760Y-57594158D01*
X144747214Y-57595942D01*
X144746868Y-57594480D01*
X144685862Y-57598834D01*
X144670840Y-57594422D01*
X144669722Y-57594158D01*
X144610123Y-57587751D01*
X144610121Y-57587750D01*
X144610113Y-57587750D01*
X144610104Y-57587750D01*
X143614369Y-57587750D01*
X143614363Y-57587751D01*
X143554760Y-57594158D01*
X143547214Y-57595942D01*
X143546868Y-57594480D01*
X143485862Y-57598834D01*
X143470840Y-57594422D01*
X143469722Y-57594158D01*
X143410123Y-57587751D01*
X143410121Y-57587750D01*
X143410113Y-57587750D01*
X143410104Y-57587750D01*
X142414369Y-57587750D01*
X142414363Y-57587751D01*
X142354760Y-57594158D01*
X142347214Y-57595942D01*
X142346868Y-57594480D01*
X142285862Y-57598834D01*
X142270840Y-57594422D01*
X142269722Y-57594158D01*
X142210123Y-57587751D01*
X142210121Y-57587750D01*
X142210113Y-57587750D01*
X142210104Y-57587750D01*
X141214369Y-57587750D01*
X141214363Y-57587751D01*
X141154760Y-57594158D01*
X141147214Y-57595942D01*
X141146868Y-57594480D01*
X141085862Y-57598834D01*
X141070840Y-57594422D01*
X141069722Y-57594158D01*
X141010123Y-57587751D01*
X141010121Y-57587750D01*
X141010113Y-57587750D01*
X141010104Y-57587750D01*
X140014369Y-57587750D01*
X140014363Y-57587751D01*
X139954760Y-57594158D01*
X139947214Y-57595942D01*
X139946868Y-57594480D01*
X139885862Y-57598834D01*
X139870840Y-57594422D01*
X139869722Y-57594158D01*
X139810123Y-57587751D01*
X139810121Y-57587750D01*
X139810113Y-57587750D01*
X139810104Y-57587750D01*
X138814369Y-57587750D01*
X138814363Y-57587751D01*
X138754760Y-57594158D01*
X138747214Y-57595942D01*
X138746868Y-57594480D01*
X138685862Y-57598834D01*
X138670840Y-57594422D01*
X138669722Y-57594158D01*
X138610123Y-57587751D01*
X138610121Y-57587750D01*
X138610113Y-57587750D01*
X138610104Y-57587750D01*
X137614369Y-57587750D01*
X137614363Y-57587751D01*
X137554760Y-57594158D01*
X137547214Y-57595942D01*
X137546868Y-57594480D01*
X137485862Y-57598834D01*
X137470840Y-57594422D01*
X137469722Y-57594158D01*
X137410123Y-57587751D01*
X137410121Y-57587750D01*
X137410113Y-57587750D01*
X137410104Y-57587750D01*
X136414369Y-57587750D01*
X136414363Y-57587751D01*
X136354756Y-57594158D01*
X136219906Y-57644454D01*
X136215662Y-57646772D01*
X136147388Y-57661621D01*
X136081925Y-57637201D01*
X136040056Y-57581265D01*
X136032240Y-57537937D01*
X136032240Y-50603250D01*
X126454030Y-50603250D01*
X126386991Y-50583565D01*
X126341236Y-50530761D01*
X126331292Y-50461603D01*
X126360317Y-50398047D01*
X126361781Y-50396388D01*
X126762138Y-49950681D01*
X127530545Y-49154339D01*
X128326887Y-48385932D01*
X129150147Y-47646437D01*
X129999277Y-46936798D01*
X130873194Y-46257918D01*
X131770785Y-45610663D01*
X132163768Y-45348080D01*
X132453526Y-45154469D01*
X132520203Y-45133592D01*
X132587583Y-45152077D01*
X132628821Y-45193901D01*
X132830371Y-45530728D01*
X132830375Y-45530734D01*
X133085782Y-45878826D01*
X133232214Y-46043515D01*
X133372665Y-46201476D01*
X133688501Y-46495844D01*
X133688510Y-46495852D01*
X134030504Y-46759336D01*
X134030511Y-46759341D01*
X134030514Y-46759343D01*
X134395699Y-46989658D01*
X134780846Y-47184764D01*
X135147044Y-47328958D01*
X135182576Y-47342949D01*
X135316836Y-47381750D01*
X135597343Y-47462817D01*
X135597347Y-47462817D01*
X135597347Y-47462818D01*
X136021512Y-47543320D01*
X136021513Y-47543320D01*
X136021518Y-47543321D01*
X136451367Y-47583750D01*
X136451369Y-47583750D01*
X136775120Y-47583750D01*
X136802356Y-47582471D01*
X137098512Y-47568575D01*
X137408341Y-47524702D01*
X137525981Y-47508044D01*
X137525984Y-47508043D01*
X137525993Y-47508042D01*
X137945928Y-47407745D01*
X138354626Y-47268566D01*
X138748495Y-47091727D01*
X139124074Y-46878782D01*
X139478062Y-46631603D01*
X139807348Y-46352363D01*
X140109039Y-46043515D01*
X140380484Y-45707773D01*
X140619296Y-45348087D01*
X140720051Y-45160250D01*
X140823370Y-44967634D01*
X140823371Y-44967629D01*
X140823377Y-44967620D01*
X140990935Y-44569713D01*
X141077308Y-44295147D01*
X141120493Y-44157872D01*
X141120493Y-44157869D01*
X141120495Y-44157865D01*
X141210920Y-43735695D01*
X141261415Y-43306911D01*
X141271536Y-42875284D01*
X141241195Y-42444605D01*
X141170657Y-42018660D01*
X141060544Y-41601192D01*
X140985335Y-41396220D01*
X140980722Y-41326503D01*
X141014533Y-41265359D01*
X141068936Y-41233925D01*
X141784124Y-41037724D01*
X142861084Y-40783232D01*
X143946442Y-40567341D01*
X145038813Y-40390326D01*
X146136807Y-40252414D01*
X147239023Y-40153779D01*
X148344057Y-40094548D01*
X149450502Y-40074796D01*
X150556947Y-40094548D01*
G37*
%TD.AperFunction*%
%TD*%
%TA.AperFunction,Conductor*%
%TO.N,A*%
G36*
X173275463Y-51257935D02*
G01*
X173303568Y-51282729D01*
X173385860Y-51381197D01*
X173588000Y-51623072D01*
X174182664Y-52388577D01*
X174266880Y-52496988D01*
X174914135Y-53394579D01*
X175528941Y-54314701D01*
X176110513Y-55256180D01*
X176658112Y-56217817D01*
X177171038Y-57198386D01*
X177648639Y-58196638D01*
X178090306Y-59211301D01*
X178495475Y-60241081D01*
X178863631Y-61284667D01*
X179194304Y-62340728D01*
X179487074Y-63407918D01*
X179741566Y-64484878D01*
X179844649Y-65003114D01*
X179844857Y-65004156D01*
X179847240Y-65028347D01*
X179847240Y-77125336D01*
X179844997Y-77148813D01*
X179783157Y-77469537D01*
X179543531Y-78515981D01*
X179267815Y-79553500D01*
X178956341Y-80580850D01*
X178609480Y-81596799D01*
X178227651Y-82600129D01*
X178065368Y-82985820D01*
X178021224Y-83039979D01*
X177954808Y-83061674D01*
X177887206Y-83044017D01*
X177839881Y-82992616D01*
X177827752Y-82950691D01*
X177811914Y-82799994D01*
X177811912Y-82799990D01*
X177811656Y-82798782D01*
X177811612Y-82797135D01*
X177811234Y-82793530D01*
X177811517Y-82793500D01*
X177810690Y-82761870D01*
X177810155Y-82761854D01*
X177810400Y-82754055D01*
X177806015Y-82707665D01*
X177805740Y-82701827D01*
X177805740Y-82582428D01*
X177815179Y-82534975D01*
X177843141Y-82467469D01*
X177865284Y-82414012D01*
X177880740Y-82296611D01*
X177880739Y-80792890D01*
X177880739Y-80792886D01*
X177865286Y-80675496D01*
X177865284Y-80675492D01*
X177865284Y-80675488D01*
X177852588Y-80644839D01*
X177845120Y-80575372D01*
X177875000Y-80514416D01*
X177912773Y-80472466D01*
X178007419Y-80308534D01*
X178065914Y-80128506D01*
X178085700Y-79940250D01*
X178065914Y-79751994D01*
X178007419Y-79571966D01*
X177912773Y-79408034D01*
X177786111Y-79267362D01*
X177786110Y-79267361D01*
X177632974Y-79156101D01*
X177632969Y-79156098D01*
X177460047Y-79079107D01*
X177460042Y-79079105D01*
X177314240Y-79048115D01*
X177274886Y-79039750D01*
X177085594Y-79039750D01*
X177053137Y-79046648D01*
X176900437Y-79079105D01*
X176900432Y-79079107D01*
X176724595Y-79157396D01*
X176655345Y-79166681D01*
X176618865Y-79153863D01*
X176618607Y-79154443D01*
X176439748Y-79074808D01*
X176439743Y-79074806D01*
X176274812Y-79039750D01*
X176254587Y-79035451D01*
X176065295Y-79035451D01*
X176045070Y-79039750D01*
X175880138Y-79074806D01*
X175880133Y-79074808D01*
X175701275Y-79154443D01*
X175700222Y-79152079D01*
X175643518Y-79165813D01*
X175599030Y-79155235D01*
X175428047Y-79079107D01*
X175428042Y-79079105D01*
X175282240Y-79048115D01*
X175242886Y-79039750D01*
X175053594Y-79039750D01*
X175021137Y-79046648D01*
X174868437Y-79079105D01*
X174868432Y-79079107D01*
X174695510Y-79156098D01*
X174695505Y-79156101D01*
X174542369Y-79267361D01*
X174415706Y-79408035D01*
X174321061Y-79571965D01*
X174321058Y-79571972D01*
X174262567Y-79751990D01*
X174262566Y-79751994D01*
X174242780Y-79940250D01*
X174262566Y-80128506D01*
X174262567Y-80128509D01*
X174321058Y-80308527D01*
X174321061Y-80308534D01*
X174415707Y-80472466D01*
X174453478Y-80514415D01*
X174490889Y-80555964D01*
X174521119Y-80618955D01*
X174522739Y-80638936D01*
X174522739Y-81380011D01*
X174521016Y-81395628D01*
X174521300Y-81395655D01*
X174520566Y-81403414D01*
X174522740Y-81472564D01*
X174522740Y-81502093D01*
X174522741Y-81502110D01*
X174523608Y-81508981D01*
X174524066Y-81514800D01*
X174525530Y-81561372D01*
X174526751Y-81569075D01*
X174526272Y-81569150D01*
X174529740Y-81593510D01*
X174529740Y-82296613D01*
X174545193Y-82414003D01*
X174545196Y-82414012D01*
X174595300Y-82534975D01*
X174605704Y-82560091D01*
X174701958Y-82685532D01*
X174827399Y-82781786D01*
X174973478Y-82842294D01*
X175090879Y-82857750D01*
X175369600Y-82857749D01*
X175369601Y-82857749D01*
X175408734Y-82852597D01*
X175487002Y-82842294D01*
X175507785Y-82833684D01*
X175577252Y-82826215D01*
X175602689Y-82833682D01*
X175623478Y-82842294D01*
X175740879Y-82857750D01*
X175896780Y-82857749D01*
X175963819Y-82877433D01*
X176009574Y-82930237D01*
X176020780Y-82981749D01*
X176020780Y-82988247D01*
X176020780Y-82988250D01*
X176040566Y-83176506D01*
X176040567Y-83176509D01*
X176099058Y-83356527D01*
X176099061Y-83356534D01*
X176193707Y-83520466D01*
X176308774Y-83648260D01*
X176320369Y-83661138D01*
X176473505Y-83772398D01*
X176473510Y-83772401D01*
X176646432Y-83849392D01*
X176646437Y-83849394D01*
X176831594Y-83888750D01*
X176831595Y-83888750D01*
X177020884Y-83888750D01*
X177020886Y-83888750D01*
X177206043Y-83849394D01*
X177378970Y-83772401D01*
X177517520Y-83671738D01*
X177583324Y-83648260D01*
X177651378Y-83664085D01*
X177700073Y-83714191D01*
X177713948Y-83782669D01*
X177702964Y-83824077D01*
X177360955Y-84564134D01*
X176877129Y-85522453D01*
X176360411Y-86463446D01*
X175811421Y-87385983D01*
X175230816Y-88288957D01*
X174619294Y-89171287D01*
X173977588Y-90031913D01*
X173553192Y-90561769D01*
X173495918Y-90601788D01*
X173456410Y-90608250D01*
X163972240Y-90608250D01*
X157111240Y-90608250D01*
X157044201Y-90588565D01*
X156998446Y-90535761D01*
X156987240Y-90484250D01*
X156987240Y-86616120D01*
X164561740Y-86616120D01*
X164561741Y-86616126D01*
X164568148Y-86675733D01*
X164618442Y-86810578D01*
X164618446Y-86810585D01*
X164704692Y-86925794D01*
X164704695Y-86925797D01*
X164819904Y-87012043D01*
X164819911Y-87012047D01*
X164954757Y-87062341D01*
X164954756Y-87062341D01*
X164961684Y-87063085D01*
X165014367Y-87068750D01*
X168810112Y-87068749D01*
X168869723Y-87062341D01*
X169004571Y-87012046D01*
X169119786Y-86925796D01*
X169206036Y-86810581D01*
X169256331Y-86675733D01*
X169256331Y-86675731D01*
X169258114Y-86668188D01*
X169260386Y-86668724D01*
X169282667Y-86614940D01*
X169340060Y-86575093D01*
X169379216Y-86568749D01*
X170887740Y-86568749D01*
X170954779Y-86588434D01*
X171000534Y-86641238D01*
X171011740Y-86692748D01*
X171011740Y-86816119D01*
X171011741Y-86816126D01*
X171018148Y-86875733D01*
X171068442Y-87010578D01*
X171068446Y-87010585D01*
X171154692Y-87125794D01*
X171154695Y-87125797D01*
X171269904Y-87212043D01*
X171269911Y-87212047D01*
X171404757Y-87262341D01*
X171404756Y-87262341D01*
X171411684Y-87263085D01*
X171464367Y-87268750D01*
X173110112Y-87268749D01*
X173169723Y-87262341D01*
X173304571Y-87212046D01*
X173419786Y-87125796D01*
X173506036Y-87010581D01*
X173556331Y-86875733D01*
X173562740Y-86816123D01*
X173562739Y-76620378D01*
X173556331Y-76560767D01*
X173551748Y-76548480D01*
X173506037Y-76425921D01*
X173506033Y-76425914D01*
X173419787Y-76310705D01*
X173419784Y-76310702D01*
X173304575Y-76224456D01*
X173304568Y-76224452D01*
X173169722Y-76174158D01*
X173169723Y-76174158D01*
X173110123Y-76167751D01*
X173110121Y-76167750D01*
X173110113Y-76167750D01*
X173110104Y-76167750D01*
X171464369Y-76167750D01*
X171464363Y-76167751D01*
X171404756Y-76174158D01*
X171269911Y-76224452D01*
X171269904Y-76224456D01*
X171154695Y-76310702D01*
X171154692Y-76310705D01*
X171068446Y-76425914D01*
X171068442Y-76425921D01*
X171018148Y-76560767D01*
X171011741Y-76620366D01*
X171011741Y-76620373D01*
X171011740Y-76620385D01*
X171011740Y-76743750D01*
X170992055Y-76810789D01*
X170939251Y-76856544D01*
X170887740Y-76867750D01*
X169379217Y-76867750D01*
X169312178Y-76848065D01*
X169266423Y-76795261D01*
X169258973Y-76768115D01*
X169258116Y-76768318D01*
X169256332Y-76760770D01*
X169255147Y-76757594D01*
X169206036Y-76625919D01*
X169206035Y-76625918D01*
X169206033Y-76625914D01*
X169119787Y-76510705D01*
X169119784Y-76510702D01*
X169004575Y-76424456D01*
X169004568Y-76424452D01*
X168869722Y-76374158D01*
X168869723Y-76374158D01*
X168810123Y-76367751D01*
X168810121Y-76367750D01*
X168810113Y-76367750D01*
X168810104Y-76367750D01*
X165014369Y-76367750D01*
X165014363Y-76367751D01*
X164954756Y-76374158D01*
X164819911Y-76424452D01*
X164819904Y-76424456D01*
X164704695Y-76510702D01*
X164704692Y-76510705D01*
X164618446Y-76625914D01*
X164618442Y-76625921D01*
X164568148Y-76760767D01*
X164561741Y-76820366D01*
X164561740Y-76820385D01*
X164561740Y-86616120D01*
X156987240Y-86616120D01*
X156987240Y-77273250D01*
X157986780Y-77273250D01*
X158006566Y-77461506D01*
X158006567Y-77461509D01*
X158065058Y-77641527D01*
X158065061Y-77641534D01*
X158159707Y-77805466D01*
X158238943Y-77893466D01*
X158286369Y-77946138D01*
X158439505Y-78057398D01*
X158439510Y-78057401D01*
X158471423Y-78071610D01*
X158612437Y-78134394D01*
X158727806Y-78158916D01*
X158754408Y-78167817D01*
X158795546Y-78186999D01*
X158810171Y-78193820D01*
X158837867Y-78207729D01*
X158878807Y-78228290D01*
X158878816Y-78228292D01*
X158885595Y-78230760D01*
X158885574Y-78230817D01*
X158892691Y-78233290D01*
X158892710Y-78233234D01*
X158899570Y-78235507D01*
X158974771Y-78251033D01*
X158974772Y-78251034D01*
X159049519Y-78268750D01*
X159049528Y-78268750D01*
X159056692Y-78269588D01*
X159056685Y-78269647D01*
X159064186Y-78270413D01*
X159064192Y-78270354D01*
X159071380Y-78270983D01*
X159071383Y-78270982D01*
X159071384Y-78270983D01*
X159148138Y-78268750D01*
X159574920Y-78268750D01*
X159641959Y-78288435D01*
X159674188Y-78318441D01*
X159679694Y-78325796D01*
X159679697Y-78325798D01*
X159794904Y-78412043D01*
X159794911Y-78412047D01*
X159929757Y-78462341D01*
X159929756Y-78462341D01*
X159936684Y-78463085D01*
X159989367Y-78468750D01*
X162885112Y-78468749D01*
X162944723Y-78462341D01*
X163079571Y-78412046D01*
X163194786Y-78325796D01*
X163281036Y-78210581D01*
X163331331Y-78075733D01*
X163337740Y-78016123D01*
X163337739Y-77020378D01*
X163331331Y-76960767D01*
X163331168Y-76960331D01*
X163281037Y-76825921D01*
X163281033Y-76825914D01*
X163194787Y-76710705D01*
X163194784Y-76710702D01*
X163079575Y-76624456D01*
X163079568Y-76624452D01*
X162944722Y-76574158D01*
X162944723Y-76574158D01*
X162885123Y-76567751D01*
X162885121Y-76567750D01*
X162885113Y-76567750D01*
X162885104Y-76567750D01*
X159989369Y-76567750D01*
X159989363Y-76567751D01*
X159929756Y-76574158D01*
X159794911Y-76624452D01*
X159794909Y-76624453D01*
X159721245Y-76679599D01*
X159655781Y-76704016D01*
X159587508Y-76689165D01*
X159554784Y-76663304D01*
X159545531Y-76653028D01*
X159498111Y-76600362D01*
X159462046Y-76574159D01*
X159344974Y-76489101D01*
X159344969Y-76489098D01*
X159172047Y-76412107D01*
X159172042Y-76412105D01*
X159026241Y-76381115D01*
X158986886Y-76372750D01*
X158797594Y-76372750D01*
X158765137Y-76379648D01*
X158612437Y-76412105D01*
X158612432Y-76412107D01*
X158439510Y-76489098D01*
X158439505Y-76489101D01*
X158286369Y-76600361D01*
X158159706Y-76741035D01*
X158065061Y-76904965D01*
X158065058Y-76904972D01*
X158006567Y-77084990D01*
X158006566Y-77084994D01*
X157986780Y-77273250D01*
X156987240Y-77273250D01*
X156987240Y-75115342D01*
X173478596Y-75115342D01*
X173498382Y-75303598D01*
X173498383Y-75303601D01*
X173556874Y-75483619D01*
X173556877Y-75483626D01*
X173651523Y-75647558D01*
X173749071Y-75755896D01*
X173778185Y-75788230D01*
X173931321Y-75899490D01*
X173931326Y-75899493D01*
X174104248Y-75976484D01*
X174104253Y-75976486D01*
X174289410Y-76015842D01*
X174318733Y-76015842D01*
X174385772Y-76035527D01*
X174415999Y-76062931D01*
X174418900Y-76066600D01*
X174540889Y-76188589D01*
X174546557Y-76193071D01*
X174545783Y-76194049D01*
X174587576Y-76240513D01*
X174598799Y-76309476D01*
X174590316Y-76341557D01*
X174545197Y-76450484D01*
X174545195Y-76450489D01*
X174529758Y-76567750D01*
X174529741Y-76567886D01*
X174529740Y-76567895D01*
X174529740Y-78071613D01*
X174545193Y-78189003D01*
X174545196Y-78189012D01*
X174579149Y-78270983D01*
X174605704Y-78335091D01*
X174701958Y-78460532D01*
X174827399Y-78556786D01*
X174973478Y-78617294D01*
X175090879Y-78632750D01*
X175369600Y-78632749D01*
X175369601Y-78632749D01*
X175408734Y-78627597D01*
X175487002Y-78617294D01*
X175507785Y-78608684D01*
X175577252Y-78601215D01*
X175602689Y-78608682D01*
X175623478Y-78617294D01*
X175740879Y-78632750D01*
X176019600Y-78632749D01*
X176019601Y-78632749D01*
X176031834Y-78631138D01*
X176137002Y-78617294D01*
X176157785Y-78608684D01*
X176227254Y-78601215D01*
X176252693Y-78608684D01*
X176273478Y-78617294D01*
X176390879Y-78632750D01*
X176669600Y-78632749D01*
X176669601Y-78632749D01*
X176681834Y-78631138D01*
X176787002Y-78617294D01*
X176807785Y-78608684D01*
X176877254Y-78601215D01*
X176902693Y-78608684D01*
X176923478Y-78617294D01*
X177040879Y-78632750D01*
X177319600Y-78632749D01*
X177319603Y-78632749D01*
X177436993Y-78617296D01*
X177436997Y-78617294D01*
X177437002Y-78617294D01*
X177583081Y-78556786D01*
X177708522Y-78460532D01*
X177804776Y-78335091D01*
X177865284Y-78189012D01*
X177880740Y-78071611D01*
X177880739Y-76567890D01*
X177880739Y-76567889D01*
X177880739Y-76567886D01*
X177865286Y-76450496D01*
X177865284Y-76450492D01*
X177865284Y-76450488D01*
X177815177Y-76329519D01*
X177805739Y-76282074D01*
X177805739Y-76221800D01*
X177825424Y-76154763D01*
X177842059Y-76134120D01*
X177909577Y-76066603D01*
X177909577Y-76066602D01*
X177909580Y-76066600D01*
X177909582Y-76066596D01*
X177913343Y-76061841D01*
X177970364Y-76021463D01*
X178010611Y-76014750D01*
X178036884Y-76014750D01*
X178036886Y-76014750D01*
X178222043Y-75975394D01*
X178394970Y-75898401D01*
X178548111Y-75787138D01*
X178674773Y-75646466D01*
X178769419Y-75482534D01*
X178827914Y-75302506D01*
X178847700Y-75114250D01*
X178827914Y-74925994D01*
X178769774Y-74747058D01*
X178769421Y-74745972D01*
X178769420Y-74745971D01*
X178769419Y-74745966D01*
X178674773Y-74582034D01*
X178548111Y-74441362D01*
X178548110Y-74441361D01*
X178394974Y-74330101D01*
X178394969Y-74330098D01*
X178222047Y-74253107D01*
X178222042Y-74253105D01*
X178076241Y-74222115D01*
X178036886Y-74213750D01*
X177847594Y-74213750D01*
X177815137Y-74220648D01*
X177662437Y-74253105D01*
X177662432Y-74253107D01*
X177489510Y-74330098D01*
X177435871Y-74369069D01*
X177370064Y-74392548D01*
X177362987Y-74392750D01*
X176677570Y-74392750D01*
X176677552Y-74392751D01*
X176576487Y-74403075D01*
X176412724Y-74457342D01*
X176412721Y-74457343D01*
X176265888Y-74547911D01*
X176251921Y-74561879D01*
X176190598Y-74595364D01*
X176120906Y-74590380D01*
X176076559Y-74561879D01*
X176062591Y-74547911D01*
X176062590Y-74547910D01*
X175915756Y-74457342D01*
X175751993Y-74403076D01*
X175751991Y-74403075D01*
X175650924Y-74392750D01*
X174961806Y-74392750D01*
X174894767Y-74373065D01*
X174888921Y-74369069D01*
X174884351Y-74365749D01*
X174836786Y-74331191D01*
X174836784Y-74331190D01*
X174836785Y-74331190D01*
X174663863Y-74254199D01*
X174663858Y-74254197D01*
X174491649Y-74217594D01*
X174478702Y-74214842D01*
X174289410Y-74214842D01*
X174276463Y-74217594D01*
X174104253Y-74254197D01*
X174104248Y-74254199D01*
X173931326Y-74331190D01*
X173931321Y-74331193D01*
X173778185Y-74442453D01*
X173651522Y-74583127D01*
X173556877Y-74747057D01*
X173556874Y-74747064D01*
X173529181Y-74832296D01*
X173498382Y-74927086D01*
X173478596Y-75115342D01*
X156987240Y-75115342D01*
X156987240Y-64062250D01*
X157006925Y-63995211D01*
X157059729Y-63949456D01*
X157111240Y-63938250D01*
X161162455Y-63938250D01*
X161229494Y-63957935D01*
X161275249Y-64010739D01*
X161285193Y-64079897D01*
X161256168Y-64143453D01*
X161229495Y-64166565D01*
X161173702Y-64202421D01*
X161173691Y-64202429D01*
X161120899Y-64248173D01*
X161026673Y-64356914D01*
X161026670Y-64356918D01*
X160966904Y-64487784D01*
X160947218Y-64554825D01*
X160947216Y-64554830D01*
X160931829Y-64661854D01*
X160926740Y-64697250D01*
X160926740Y-73339250D01*
X160926741Y-73339259D01*
X160938292Y-73446700D01*
X160938294Y-73446712D01*
X160949500Y-73498222D01*
X160983623Y-73600747D01*
X160983626Y-73600753D01*
X161061411Y-73721787D01*
X161061419Y-73721798D01*
X161107163Y-73774590D01*
X161107166Y-73774593D01*
X161107170Y-73774597D01*
X161215904Y-73868817D01*
X161215907Y-73868818D01*
X161215908Y-73868819D01*
X161310165Y-73911866D01*
X161346781Y-73928588D01*
X161391597Y-73941747D01*
X161413815Y-73948272D01*
X161413820Y-73948273D01*
X161413824Y-73948274D01*
X161556240Y-73968750D01*
X161556243Y-73968750D01*
X167658230Y-73968750D01*
X167658240Y-73968750D01*
X167765696Y-73957197D01*
X167817207Y-73945991D01*
X167851437Y-73934597D01*
X167919737Y-73911866D01*
X167919741Y-73911863D01*
X167919744Y-73911863D01*
X168040783Y-73834075D01*
X168093587Y-73788320D01*
X168187807Y-73679586D01*
X168247578Y-73548709D01*
X168267263Y-73481670D01*
X168267264Y-73481666D01*
X168287740Y-73339250D01*
X168287740Y-65128134D01*
X168272038Y-65003121D01*
X168256870Y-64943693D01*
X168210736Y-64826441D01*
X168124511Y-64711260D01*
X168124506Y-64711255D01*
X168124501Y-64711249D01*
X168075112Y-64661862D01*
X168075109Y-64661859D01*
X168075105Y-64661855D01*
X168075104Y-64661854D01*
X167959921Y-64575631D01*
X167959920Y-64575630D01*
X167858407Y-64537769D01*
X167802473Y-64495898D01*
X167778055Y-64430434D01*
X167777739Y-64421587D01*
X167777739Y-63685379D01*
X167777738Y-63685373D01*
X167775015Y-63660043D01*
X167771331Y-63625767D01*
X167766636Y-63613180D01*
X167721037Y-63490921D01*
X167721033Y-63490914D01*
X167634787Y-63375705D01*
X167634784Y-63375702D01*
X167519575Y-63289456D01*
X167519568Y-63289452D01*
X167384722Y-63239158D01*
X167384723Y-63239158D01*
X167325123Y-63232751D01*
X167325121Y-63232750D01*
X167325113Y-63232750D01*
X167325104Y-63232750D01*
X164429369Y-63232750D01*
X164429363Y-63232751D01*
X164369756Y-63239158D01*
X164234911Y-63289452D01*
X164234904Y-63289456D01*
X164119697Y-63375701D01*
X164119691Y-63375707D01*
X164114188Y-63383059D01*
X164058255Y-63424931D01*
X164014920Y-63432750D01*
X163514037Y-63432750D01*
X163446998Y-63413065D01*
X163421887Y-63391722D01*
X163369090Y-63333085D01*
X163338860Y-63270094D01*
X163337240Y-63250113D01*
X163337240Y-51362250D01*
X163356925Y-51295211D01*
X163409729Y-51249456D01*
X163461240Y-51238250D01*
X173208424Y-51238250D01*
X173275463Y-51257935D01*
G37*
%TD.AperFunction*%
%TD*%
%TA.AperFunction,Conductor*%
%TO.N,C*%
G36*
X135340279Y-51257935D02*
G01*
X135386034Y-51310739D01*
X135397240Y-51362250D01*
X135397240Y-62673750D01*
X135377555Y-62740789D01*
X135324751Y-62786544D01*
X135273240Y-62797750D01*
X131711240Y-62797750D01*
X131711231Y-62797750D01*
X131711230Y-62797751D01*
X131603789Y-62809302D01*
X131603777Y-62809304D01*
X131552267Y-62820510D01*
X131449742Y-62854633D01*
X131449736Y-62854636D01*
X131328702Y-62932421D01*
X131328691Y-62932429D01*
X131275899Y-62978173D01*
X131181673Y-63086914D01*
X131181670Y-63086918D01*
X131121904Y-63217784D01*
X131107076Y-63268283D01*
X131102217Y-63284830D01*
X131102216Y-63284834D01*
X131096920Y-63321666D01*
X131092337Y-63353541D01*
X131068866Y-63410203D01*
X131008446Y-63490914D01*
X131008442Y-63490921D01*
X130958148Y-63625767D01*
X130951741Y-63685366D01*
X130951740Y-63685385D01*
X130951740Y-64681120D01*
X130951741Y-64681126D01*
X130958149Y-64740734D01*
X130959932Y-64748279D01*
X130958469Y-64748624D01*
X130962825Y-64809622D01*
X130958414Y-64824645D01*
X130958148Y-64825770D01*
X130951741Y-64885366D01*
X130951740Y-64885385D01*
X130951740Y-65881120D01*
X130951741Y-65881126D01*
X130958149Y-65940734D01*
X130959932Y-65948279D01*
X130958469Y-65948624D01*
X130962825Y-66009622D01*
X130958414Y-66024645D01*
X130958148Y-66025770D01*
X130951741Y-66085366D01*
X130951740Y-66085385D01*
X130951740Y-67081120D01*
X130951741Y-67081126D01*
X130958149Y-67140734D01*
X130959932Y-67148279D01*
X130958469Y-67148624D01*
X130962825Y-67209622D01*
X130958414Y-67224645D01*
X130958148Y-67225770D01*
X130951741Y-67285366D01*
X130951740Y-67285385D01*
X130951740Y-68281120D01*
X130951741Y-68281126D01*
X130958149Y-68340734D01*
X130959932Y-68348279D01*
X130958469Y-68348624D01*
X130962825Y-68409622D01*
X130958414Y-68424645D01*
X130958148Y-68425770D01*
X130951741Y-68485366D01*
X130951740Y-68485385D01*
X130951740Y-69481120D01*
X130951741Y-69481126D01*
X130958149Y-69540734D01*
X130959932Y-69548279D01*
X130958469Y-69548624D01*
X130962825Y-69609622D01*
X130958414Y-69624645D01*
X130958148Y-69625770D01*
X130951741Y-69685366D01*
X130951740Y-69685385D01*
X130951740Y-70681120D01*
X130951741Y-70681126D01*
X130958149Y-70740734D01*
X130959932Y-70748279D01*
X130958469Y-70748624D01*
X130962825Y-70809622D01*
X130958414Y-70824645D01*
X130958148Y-70825770D01*
X130951741Y-70885366D01*
X130951740Y-70885385D01*
X130951740Y-71881120D01*
X130951741Y-71881126D01*
X130958149Y-71940734D01*
X130959932Y-71948279D01*
X130958469Y-71948624D01*
X130962825Y-72009622D01*
X130958414Y-72024645D01*
X130958148Y-72025770D01*
X130951741Y-72085366D01*
X130951740Y-72085385D01*
X130951740Y-73081120D01*
X130951741Y-73081126D01*
X130958148Y-73140733D01*
X131008442Y-73275578D01*
X131008446Y-73275585D01*
X131094692Y-73390794D01*
X131094695Y-73390797D01*
X131209904Y-73477043D01*
X131209911Y-73477047D01*
X131344757Y-73527341D01*
X131344756Y-73527341D01*
X131351684Y-73528085D01*
X131404367Y-73533750D01*
X134300112Y-73533749D01*
X134359723Y-73527341D01*
X134494571Y-73477046D01*
X134568234Y-73421901D01*
X134633697Y-73397484D01*
X134701971Y-73412335D01*
X134734694Y-73438195D01*
X134791368Y-73501137D01*
X134791369Y-73501138D01*
X134944505Y-73612398D01*
X134944510Y-73612401D01*
X135117432Y-73689392D01*
X135117437Y-73689394D01*
X135302594Y-73728750D01*
X135302595Y-73728750D01*
X135491884Y-73728750D01*
X135491886Y-73728750D01*
X135677043Y-73689394D01*
X135849970Y-73612401D01*
X136003111Y-73501138D01*
X136129773Y-73360466D01*
X136224419Y-73196534D01*
X136282914Y-73016506D01*
X136302700Y-72828250D01*
X136302700Y-72828247D01*
X136302700Y-72822750D01*
X136322385Y-72755711D01*
X136375189Y-72709956D01*
X136426700Y-72698750D01*
X136543230Y-72698750D01*
X136543240Y-72698750D01*
X136650696Y-72687197D01*
X136702207Y-72675991D01*
X136749840Y-72660137D01*
X136804737Y-72641866D01*
X136804741Y-72641863D01*
X136804744Y-72641863D01*
X136925783Y-72564075D01*
X136978587Y-72518320D01*
X137072807Y-72409586D01*
X137132578Y-72278709D01*
X137146860Y-72230068D01*
X137152262Y-72211675D01*
X137152263Y-72211669D01*
X137152264Y-72211666D01*
X137172740Y-72069250D01*
X137172740Y-64062250D01*
X137192425Y-63995211D01*
X137245229Y-63949456D01*
X137296740Y-63938250D01*
X141623240Y-63938250D01*
X141690279Y-63957935D01*
X141736034Y-64010739D01*
X141747240Y-64062250D01*
X141747240Y-89214250D01*
X141727555Y-89281289D01*
X141674751Y-89327044D01*
X141623240Y-89338250D01*
X134762240Y-89338250D01*
X124466799Y-89338250D01*
X124399760Y-89318565D01*
X124367619Y-89288676D01*
X124335855Y-89246347D01*
X123718833Y-88361579D01*
X123132968Y-87455881D01*
X122578967Y-86530347D01*
X122057502Y-85586100D01*
X121569204Y-84624282D01*
X121114664Y-83646058D01*
X120694433Y-82652612D01*
X120536214Y-82239031D01*
X120309020Y-81645148D01*
X119958890Y-80624884D01*
X119750267Y-79940250D01*
X120394780Y-79940250D01*
X120414566Y-80128506D01*
X120414567Y-80128509D01*
X120473058Y-80308527D01*
X120473061Y-80308534D01*
X120567707Y-80472466D01*
X120694369Y-80613138D01*
X120843625Y-80721578D01*
X120886291Y-80776907D01*
X120894740Y-80821896D01*
X120894740Y-82296613D01*
X120910193Y-82414003D01*
X120910196Y-82414012D01*
X120970704Y-82560091D01*
X121066958Y-82685532D01*
X121192399Y-82781786D01*
X121338478Y-82842294D01*
X121455879Y-82857750D01*
X121734600Y-82857749D01*
X121734601Y-82857749D01*
X121773733Y-82852597D01*
X121852002Y-82842294D01*
X121872785Y-82833684D01*
X121942252Y-82826215D01*
X121967689Y-82833682D01*
X121988478Y-82842294D01*
X122105879Y-82857750D01*
X122384600Y-82857749D01*
X122384601Y-82857749D01*
X122396834Y-82856138D01*
X122502002Y-82842294D01*
X122522785Y-82833684D01*
X122592254Y-82826215D01*
X122617693Y-82833684D01*
X122638478Y-82842294D01*
X122755879Y-82857750D01*
X123034600Y-82857749D01*
X123034601Y-82857749D01*
X123046834Y-82856138D01*
X123152002Y-82842294D01*
X123172785Y-82833684D01*
X123242254Y-82826215D01*
X123267693Y-82833684D01*
X123288478Y-82842294D01*
X123405879Y-82857750D01*
X123684600Y-82857749D01*
X123684603Y-82857749D01*
X123801993Y-82842296D01*
X123801997Y-82842294D01*
X123802002Y-82842294D01*
X123948081Y-82781786D01*
X124073522Y-82685532D01*
X124169776Y-82560091D01*
X124230284Y-82414012D01*
X124230284Y-82414010D01*
X124231689Y-82410619D01*
X124275530Y-82356215D01*
X124320465Y-82336782D01*
X124374043Y-82325394D01*
X124546970Y-82248401D01*
X124700111Y-82137138D01*
X124826773Y-81996466D01*
X124921419Y-81832534D01*
X124929809Y-81806710D01*
X124969244Y-81749037D01*
X125033603Y-81721838D01*
X125102449Y-81733750D01*
X125153926Y-81780994D01*
X125171740Y-81845029D01*
X125171740Y-86816120D01*
X125171741Y-86816126D01*
X125178148Y-86875733D01*
X125228442Y-87010578D01*
X125228446Y-87010585D01*
X125314692Y-87125794D01*
X125314695Y-87125797D01*
X125429904Y-87212043D01*
X125429911Y-87212047D01*
X125564757Y-87262341D01*
X125564756Y-87262341D01*
X125571684Y-87263085D01*
X125624367Y-87268750D01*
X127270112Y-87268749D01*
X127329723Y-87262341D01*
X127464571Y-87212046D01*
X127579786Y-87125796D01*
X127666036Y-87010581D01*
X127716331Y-86875733D01*
X127722740Y-86816123D01*
X127722739Y-86692748D01*
X127742423Y-86625710D01*
X127795227Y-86579955D01*
X127846739Y-86568749D01*
X129355263Y-86568749D01*
X129422302Y-86588434D01*
X129468057Y-86641238D01*
X129475505Y-86668384D01*
X129476364Y-86668182D01*
X129478147Y-86675729D01*
X129528442Y-86810578D01*
X129528446Y-86810585D01*
X129614692Y-86925794D01*
X129614695Y-86925797D01*
X129729904Y-87012043D01*
X129729911Y-87012047D01*
X129864757Y-87062341D01*
X129864756Y-87062341D01*
X129871684Y-87063085D01*
X129924367Y-87068750D01*
X133720112Y-87068749D01*
X133779723Y-87062341D01*
X133914571Y-87012046D01*
X134029786Y-86925796D01*
X134116036Y-86810581D01*
X134166331Y-86675733D01*
X134172740Y-86616123D01*
X134172740Y-86416120D01*
X135396740Y-86416120D01*
X135396741Y-86416126D01*
X135403148Y-86475733D01*
X135453442Y-86610578D01*
X135453446Y-86610585D01*
X135539692Y-86725794D01*
X135539695Y-86725797D01*
X135654904Y-86812043D01*
X135654911Y-86812047D01*
X135789757Y-86862341D01*
X135789756Y-86862341D01*
X135796684Y-86863085D01*
X135849367Y-86868750D01*
X138745112Y-86868749D01*
X138804723Y-86862341D01*
X138939571Y-86812046D01*
X139013234Y-86756901D01*
X139078697Y-86732484D01*
X139146971Y-86747335D01*
X139179694Y-86773195D01*
X139236368Y-86836137D01*
X139236369Y-86836138D01*
X139389505Y-86947398D01*
X139389510Y-86947401D01*
X139562432Y-87024392D01*
X139562437Y-87024394D01*
X139747594Y-87063750D01*
X139747595Y-87063750D01*
X139936884Y-87063750D01*
X139936886Y-87063750D01*
X140122043Y-87024394D01*
X140294970Y-86947401D01*
X140448111Y-86836138D01*
X140574773Y-86695466D01*
X140669419Y-86531534D01*
X140727914Y-86351506D01*
X140747700Y-86163250D01*
X140727914Y-85974994D01*
X140669419Y-85794966D01*
X140574773Y-85631034D01*
X140448111Y-85490362D01*
X140351785Y-85420377D01*
X140294974Y-85379101D01*
X140294969Y-85379098D01*
X140122047Y-85302107D01*
X140122043Y-85302106D01*
X140006684Y-85277585D01*
X139980062Y-85268677D01*
X139924297Y-85242674D01*
X139855670Y-85208208D01*
X139848885Y-85205739D01*
X139848905Y-85205683D01*
X139841789Y-85203209D01*
X139841771Y-85203265D01*
X139834911Y-85200992D01*
X139807081Y-85195246D01*
X139759674Y-85185457D01*
X139710712Y-85173853D01*
X139684959Y-85167749D01*
X139677787Y-85166911D01*
X139677793Y-85166851D01*
X139670295Y-85166085D01*
X139670290Y-85166145D01*
X139663100Y-85165515D01*
X139586323Y-85167750D01*
X139159560Y-85167750D01*
X139092521Y-85148065D01*
X139060292Y-85118059D01*
X139054788Y-85110707D01*
X139054786Y-85110704D01*
X139054782Y-85110701D01*
X138939575Y-85024456D01*
X138939568Y-85024452D01*
X138804722Y-84974158D01*
X138804723Y-84974158D01*
X138745123Y-84967751D01*
X138745121Y-84967750D01*
X138745113Y-84967750D01*
X138745104Y-84967750D01*
X135849369Y-84967750D01*
X135849363Y-84967751D01*
X135789756Y-84974158D01*
X135654911Y-85024452D01*
X135654904Y-85024456D01*
X135539695Y-85110702D01*
X135539692Y-85110705D01*
X135453446Y-85225914D01*
X135453442Y-85225921D01*
X135403148Y-85360767D01*
X135396741Y-85420366D01*
X135396740Y-85420385D01*
X135396740Y-86416120D01*
X134172740Y-86416120D01*
X134172739Y-76820378D01*
X134166331Y-76760767D01*
X134116036Y-76625919D01*
X134116035Y-76625918D01*
X134116033Y-76625914D01*
X134029787Y-76510705D01*
X134029784Y-76510702D01*
X133914575Y-76424456D01*
X133914568Y-76424452D01*
X133779722Y-76374158D01*
X133779723Y-76374158D01*
X133720123Y-76367751D01*
X133720121Y-76367750D01*
X133720113Y-76367750D01*
X133720104Y-76367750D01*
X129924369Y-76367750D01*
X129924363Y-76367751D01*
X129864756Y-76374158D01*
X129729911Y-76424452D01*
X129729904Y-76424456D01*
X129614695Y-76510702D01*
X129614692Y-76510705D01*
X129528446Y-76625914D01*
X129528442Y-76625921D01*
X129478148Y-76760767D01*
X129476366Y-76768312D01*
X129474093Y-76767775D01*
X129451811Y-76821562D01*
X129394417Y-76861407D01*
X129355264Y-76867750D01*
X127846739Y-76867750D01*
X127779700Y-76848065D01*
X127733945Y-76795261D01*
X127722739Y-76743750D01*
X127722739Y-76620379D01*
X127722738Y-76620373D01*
X127722737Y-76620366D01*
X127716331Y-76560767D01*
X127711748Y-76548480D01*
X127666037Y-76425921D01*
X127666033Y-76425914D01*
X127579787Y-76310705D01*
X127579784Y-76310702D01*
X127464575Y-76224456D01*
X127464568Y-76224452D01*
X127329722Y-76174158D01*
X127329723Y-76174158D01*
X127270123Y-76167751D01*
X127270121Y-76167750D01*
X127270113Y-76167750D01*
X127270104Y-76167750D01*
X125624369Y-76167750D01*
X125624363Y-76167751D01*
X125564756Y-76174158D01*
X125429911Y-76224452D01*
X125429904Y-76224456D01*
X125314695Y-76310702D01*
X125314692Y-76310705D01*
X125228446Y-76425914D01*
X125228442Y-76425921D01*
X125178148Y-76560767D01*
X125171741Y-76620366D01*
X125171741Y-76620373D01*
X125171740Y-76620385D01*
X125171740Y-81083470D01*
X125152055Y-81150509D01*
X125099251Y-81196264D01*
X125030093Y-81206208D01*
X124966537Y-81177183D01*
X124929809Y-81121787D01*
X124921422Y-81095974D01*
X124921420Y-81095970D01*
X124921419Y-81095966D01*
X124826773Y-80932034D01*
X124700111Y-80791362D01*
X124691780Y-80785309D01*
X124546974Y-80680101D01*
X124546969Y-80680098D01*
X124374047Y-80603107D01*
X124374042Y-80603105D01*
X124242284Y-80575100D01*
X124180802Y-80541908D01*
X124169697Y-80529306D01*
X124141532Y-80492601D01*
X124116340Y-80427436D01*
X124130378Y-80358991D01*
X124132524Y-80355117D01*
X124159419Y-80308534D01*
X124202524Y-80175870D01*
X124217914Y-80128506D01*
X124237700Y-79940250D01*
X124217914Y-79751994D01*
X124159419Y-79571966D01*
X124064773Y-79408034D01*
X123938111Y-79267362D01*
X123938110Y-79267361D01*
X123784974Y-79156101D01*
X123784969Y-79156098D01*
X123612047Y-79079107D01*
X123612042Y-79079105D01*
X123466240Y-79048115D01*
X123426886Y-79039750D01*
X123237594Y-79039750D01*
X123205137Y-79046648D01*
X123052437Y-79079105D01*
X123052432Y-79079107D01*
X122874676Y-79158251D01*
X122805426Y-79167536D01*
X122773804Y-79158251D01*
X122596047Y-79079107D01*
X122596042Y-79079105D01*
X122450240Y-79048115D01*
X122410886Y-79039750D01*
X122221594Y-79039750D01*
X122189137Y-79046648D01*
X122036437Y-79079105D01*
X122036432Y-79079107D01*
X121858676Y-79158251D01*
X121789426Y-79167536D01*
X121757804Y-79158251D01*
X121580047Y-79079107D01*
X121580042Y-79079105D01*
X121434240Y-79048115D01*
X121394886Y-79039750D01*
X121205594Y-79039750D01*
X121173137Y-79046648D01*
X121020437Y-79079105D01*
X121020432Y-79079107D01*
X120847510Y-79156098D01*
X120847505Y-79156101D01*
X120694369Y-79267361D01*
X120567706Y-79408035D01*
X120473061Y-79571965D01*
X120473058Y-79571972D01*
X120414567Y-79751990D01*
X120414566Y-79751994D01*
X120394780Y-79940250D01*
X119750267Y-79940250D01*
X119644469Y-79593056D01*
X119366137Y-78550914D01*
X119124230Y-77499720D01*
X118919042Y-76440746D01*
X118907517Y-76367750D01*
X118888757Y-76248927D01*
X118887240Y-76229589D01*
X118887240Y-75368250D01*
X119886780Y-75368250D01*
X119906566Y-75556506D01*
X119906567Y-75556509D01*
X119965058Y-75736527D01*
X119965061Y-75736534D01*
X120059707Y-75900466D01*
X120186368Y-76041138D01*
X120186369Y-76041138D01*
X120339505Y-76152398D01*
X120339510Y-76152401D01*
X120512432Y-76229392D01*
X120512437Y-76229394D01*
X120697594Y-76268750D01*
X120697595Y-76268750D01*
X120799895Y-76268750D01*
X120866934Y-76288435D01*
X120912689Y-76341239D01*
X120922633Y-76410397D01*
X120914457Y-76440200D01*
X120910197Y-76450484D01*
X120910195Y-76450489D01*
X120894741Y-76567879D01*
X120894741Y-76567886D01*
X120894740Y-76567895D01*
X120894740Y-78071613D01*
X120910193Y-78189003D01*
X120910196Y-78189012D01*
X120936759Y-78253142D01*
X120970704Y-78335091D01*
X121066958Y-78460532D01*
X121192399Y-78556786D01*
X121338478Y-78617294D01*
X121455879Y-78632750D01*
X121734600Y-78632749D01*
X121734601Y-78632749D01*
X121746834Y-78631138D01*
X121852002Y-78617294D01*
X121872785Y-78608684D01*
X121942254Y-78601215D01*
X121967693Y-78608684D01*
X121988478Y-78617294D01*
X122105879Y-78632750D01*
X122384600Y-78632749D01*
X122384601Y-78632749D01*
X122396834Y-78631138D01*
X122502002Y-78617294D01*
X122522785Y-78608684D01*
X122592254Y-78601215D01*
X122617693Y-78608684D01*
X122638478Y-78617294D01*
X122755879Y-78632750D01*
X123034600Y-78632749D01*
X123034601Y-78632749D01*
X123046834Y-78631138D01*
X123152002Y-78617294D01*
X123172785Y-78608684D01*
X123242254Y-78601215D01*
X123267693Y-78608684D01*
X123288478Y-78617294D01*
X123405879Y-78632750D01*
X123684600Y-78632749D01*
X123684603Y-78632749D01*
X123801993Y-78617296D01*
X123801997Y-78617294D01*
X123802002Y-78617294D01*
X123948081Y-78556786D01*
X124073522Y-78460532D01*
X124169776Y-78335091D01*
X124230284Y-78189012D01*
X124245740Y-78071611D01*
X124245739Y-76567890D01*
X124245739Y-76567889D01*
X124245739Y-76567886D01*
X124230286Y-76450496D01*
X124230284Y-76450489D01*
X124230284Y-76450488D01*
X124226023Y-76440200D01*
X124218556Y-76370730D01*
X124249832Y-76308252D01*
X124309922Y-76272601D01*
X124340585Y-76268750D01*
X124442884Y-76268750D01*
X124442886Y-76268750D01*
X124628043Y-76229394D01*
X124800970Y-76152401D01*
X124954111Y-76041138D01*
X125080773Y-75900466D01*
X125175419Y-75736534D01*
X125233914Y-75556506D01*
X125253700Y-75368250D01*
X125233914Y-75179994D01*
X125175419Y-74999966D01*
X125080773Y-74836034D01*
X124954111Y-74695362D01*
X124891070Y-74649560D01*
X124800974Y-74584101D01*
X124800969Y-74584098D01*
X124628047Y-74507107D01*
X124628042Y-74507105D01*
X124461469Y-74471700D01*
X124442886Y-74467750D01*
X124253594Y-74467750D01*
X124160906Y-74487450D01*
X124091242Y-74482134D01*
X124070033Y-74471699D01*
X124046762Y-74457345D01*
X124046757Y-74457343D01*
X124046756Y-74457342D01*
X123882993Y-74403076D01*
X123882991Y-74403075D01*
X123781918Y-74392750D01*
X123083570Y-74392750D01*
X123083552Y-74392751D01*
X122982487Y-74403075D01*
X122818724Y-74457342D01*
X122818721Y-74457343D01*
X122671888Y-74547911D01*
X122657921Y-74561879D01*
X122596598Y-74595364D01*
X122526906Y-74590380D01*
X122482559Y-74561879D01*
X122468591Y-74547911D01*
X122468590Y-74547910D01*
X122345034Y-74471700D01*
X122321758Y-74457343D01*
X122321753Y-74457341D01*
X122320309Y-74456862D01*
X122157993Y-74403076D01*
X122157991Y-74403075D01*
X122056918Y-74392750D01*
X121358570Y-74392750D01*
X121358552Y-74392751D01*
X121257487Y-74403075D01*
X121093723Y-74457342D01*
X121077614Y-74467278D01*
X121070448Y-74471699D01*
X121070446Y-74471700D01*
X121003053Y-74490139D01*
X120979576Y-74487451D01*
X120886886Y-74467750D01*
X120697594Y-74467750D01*
X120679011Y-74471700D01*
X120512437Y-74507105D01*
X120512432Y-74507107D01*
X120339510Y-74584098D01*
X120339505Y-74584101D01*
X120186369Y-74695361D01*
X120059706Y-74836035D01*
X119965061Y-74999965D01*
X119965058Y-74999972D01*
X119906567Y-75179990D01*
X119906566Y-75179994D01*
X119886780Y-75368250D01*
X118887240Y-75368250D01*
X118887240Y-65927689D01*
X118888837Y-65907854D01*
X118891861Y-65889196D01*
X118943547Y-65570236D01*
X119159438Y-64484878D01*
X119413930Y-63407918D01*
X119706700Y-62340728D01*
X120037373Y-61284667D01*
X120405529Y-60241081D01*
X120810698Y-59211301D01*
X121252365Y-58196638D01*
X121729966Y-57198386D01*
X122242892Y-56217817D01*
X122790491Y-55256180D01*
X123372063Y-54314701D01*
X123986869Y-53394579D01*
X124634124Y-52496988D01*
X124798962Y-52284793D01*
X125313004Y-51623072D01*
X125574027Y-51310739D01*
X125597433Y-51282732D01*
X125655527Y-51243915D01*
X125692580Y-51238250D01*
X135273240Y-51238250D01*
X135340279Y-51257935D01*
G37*
%TD.AperFunction*%
%TD*%
%TA.AperFunction,Conductor*%
%TO.N,Earth_Protective*%
G36*
X167370060Y-122631935D02*
G01*
X167415815Y-122684739D01*
X167427021Y-122736242D01*
X167427186Y-125402094D01*
X167407506Y-125469135D01*
X167354704Y-125514893D01*
X167303169Y-125526102D01*
X160032223Y-125525125D01*
X159965187Y-125505431D01*
X159919439Y-125452621D01*
X159908240Y-125401125D01*
X159908240Y-122736250D01*
X159927925Y-122669211D01*
X159980729Y-122623456D01*
X160032240Y-122612250D01*
X167303021Y-122612250D01*
X167370060Y-122631935D01*
G37*
%TD.AperFunction*%
%TD*%
M02*
