M48
; DRILL file {KiCad 7.0.6} date Thu Oct 19 15:55:58 2023
; FORMAT={-:-/ absolute / metric / decimal}
; #@! TF.CreationDate,2023-10-19T15:55:58+03:00
; #@! TF.GenerationSoftware,Kicad,Pcbnew,7.0.6
; #@! TF.FileFunction,Plated,1,6,PTH
FMAT,2
METRIC
; #@! TA.AperFunction,Plated,PTH,ViaDrill
T1C0.400
; #@! TA.AperFunction,Plated,PTH,ComponentDrill
T2C1.200
; #@! TA.AperFunction,Plated,PTH,ComponentDrill
T3C7.000
%
G90
G05
T1
X120.396Y-85.344
X120.396Y-88.9
X120.396Y-91.948
X120.396Y-94.996
X120.396Y-106.426
X120.396Y-109.474
X120.396Y-112.776
X120.396Y-115.824
X120.65Y-99.695
X120.65Y-101.6
X120.65Y-119.38
X125.782Y-99.699
X125.782Y-100.961
X130.175Y-107.95
X130.175Y-111.125
X130.175Y-114.3
X135.255Y-100.965
X136.292Y-98.425
X137.795Y-74.93
X137.795Y-76.2
X139.065Y-74.93
X139.065Y-76.2
X139.065Y-79.375
X140.335Y-74.93
X140.335Y-76.2
X140.97Y-93.345
X140.97Y-105.41
X141.605Y-74.93
X141.605Y-76.2
X142.24Y-109.855
X144.832Y-99.699
X144.832Y-100.961
X152.4Y-109.855
X153.67Y-105.41
X154.305Y-100.965
X154.94Y-98.425
X156.845Y-74.93
X156.845Y-76.2
X158.115Y-74.93
X158.115Y-76.2
X158.26Y-79.23
X159.385Y-74.93
X159.385Y-76.2
X160.02Y-93.345
X160.655Y-74.93
X160.655Y-76.2
X163.83Y-105.41
X163.882Y-99.699
X163.882Y-100.961
X165.1Y-109.855
X172.72Y-100.965
X173.99Y-98.425
X174.625Y-106.68
X174.625Y-109.855
X174.625Y-113.03
X174.625Y-116.205
X175.895Y-74.93
X175.895Y-76.2
X177.165Y-74.93
X177.165Y-76.2
X177.165Y-79.375
X178.435Y-74.93
X178.435Y-76.2
X179.07Y-93.345
X179.705Y-74.93
X179.705Y-76.2
X185.674Y-95.504
X185.674Y-98.806
X185.674Y-101.854
X185.674Y-105.156
X185.674Y-108.204
X185.674Y-111.506
X185.674Y-114.554
X185.674Y-117.856
T2
X139.9Y-117.475
X164.9Y-117.475
T3
X132.715Y-57.785
X133.35Y-125.73
X152.4Y-57.785
X171.45Y-125.73
X172.085Y-57.785
T0
M30
