%TF.GenerationSoftware,KiCad,Pcbnew,7.0.6*%
%TF.CreationDate,2023-12-21T21:59:25+03:00*%
%TF.ProjectId,_______ _____,21383b3e-3230-44f2-903f-3b3042302e6b,rev?*%
%TF.SameCoordinates,Original*%
%TF.FileFunction,Soldermask,Bot*%
%TF.FilePolarity,Negative*%
%FSLAX46Y46*%
G04 Gerber Fmt 4.6, Leading zero omitted, Abs format (unit mm)*
G04 Created by KiCad (PCBNEW 7.0.6) date 2023-12-21 21:59:25*
%MOMM*%
%LPD*%
G01*
G04 APERTURE LIST*
G04 Aperture macros list*
%AMRoundRect*
0 Rectangle with rounded corners*
0 $1 Rounding radius*
0 $2 $3 $4 $5 $6 $7 $8 $9 X,Y pos of 4 corners*
0 Add a 4 corners polygon primitive as box body*
4,1,4,$2,$3,$4,$5,$6,$7,$8,$9,$2,$3,0*
0 Add four circle primitives for the rounded corners*
1,1,$1+$1,$2,$3*
1,1,$1+$1,$4,$5*
1,1,$1+$1,$6,$7*
1,1,$1+$1,$8,$9*
0 Add four rect primitives between the rounded corners*
20,1,$1+$1,$2,$3,$4,$5,0*
20,1,$1+$1,$4,$5,$6,$7,0*
20,1,$1+$1,$6,$7,$8,$9,0*
20,1,$1+$1,$8,$9,$2,$3,0*%
G04 Aperture macros list end*
%ADD10C,5.000000*%
%ADD11C,8.200000*%
%ADD12C,6.000000*%
%ADD13R,1.700000X1.700000*%
%ADD14O,1.700000X1.700000*%
%ADD15C,2.000000*%
%ADD16C,3.200000*%
%ADD17RoundRect,0.250000X-1.100000X0.412500X-1.100000X-0.412500X1.100000X-0.412500X1.100000X0.412500X0*%
%ADD18RoundRect,0.250000X1.100000X-0.412500X1.100000X0.412500X-1.100000X0.412500X-1.100000X-0.412500X0*%
G04 APERTURE END LIST*
D10*
%TO.C,J8*%
X132222240Y-124898250D03*
%TD*%
%TO.C,J2*%
X167147240Y-124898250D03*
%TD*%
D11*
%TO.C,J4*%
X127142240Y-58223250D03*
%TD*%
%TO.C,J1*%
X171592240Y-58223250D03*
%TD*%
D12*
%TO.C,J6*%
X144287240Y-119483250D03*
%TD*%
D13*
%TO.C,J7*%
X150637240Y-68383250D03*
D14*
X148097240Y-68383250D03*
X150637240Y-70923250D03*
X148097240Y-70923250D03*
X150637240Y-73463250D03*
X148097240Y-73463250D03*
X150637240Y-76003250D03*
X148097240Y-76003250D03*
X150637240Y-78543250D03*
X148097240Y-78543250D03*
X150637240Y-81083250D03*
X148097240Y-81083250D03*
X150637240Y-83623250D03*
X148097240Y-83623250D03*
X150637240Y-86163250D03*
X148097240Y-86163250D03*
X150637240Y-88703250D03*
X148097240Y-88703250D03*
X150637240Y-91243250D03*
X148097240Y-91243250D03*
%TD*%
D11*
%TO.C,J3*%
X149367240Y-43618250D03*
%TD*%
D15*
%TO.C,C44*%
X160797240Y-124838250D03*
X160797240Y-117338250D03*
%TD*%
D12*
%TO.C,J5*%
X154447240Y-119483250D03*
%TD*%
D16*
%TO.C,H1*%
X162067240Y-42983250D03*
%TD*%
D15*
%TO.C,C45*%
X137937240Y-117338250D03*
X137937240Y-124838250D03*
%TD*%
D16*
%TO.C,H2*%
X136667240Y-42983250D03*
%TD*%
D17*
%TO.C,C6*%
X145557240Y-93490750D03*
X145557240Y-96615750D03*
%TD*%
D18*
%TO.C,C4*%
X153177240Y-102330750D03*
X153177240Y-99205750D03*
%TD*%
D17*
%TO.C,C39*%
X164607240Y-104920750D03*
X164607240Y-108045750D03*
%TD*%
D18*
%TO.C,C9*%
X149367240Y-102330750D03*
X149367240Y-99205750D03*
%TD*%
D17*
%TO.C,C21*%
X153177240Y-93490750D03*
X153177240Y-96615750D03*
%TD*%
D18*
%TO.C,C28*%
X137937240Y-102330750D03*
X137937240Y-99205750D03*
%TD*%
D17*
%TO.C,C24*%
X137937240Y-104920750D03*
X137937240Y-108045750D03*
%TD*%
D18*
%TO.C,C19*%
X156987240Y-113418250D03*
X156987240Y-110293250D03*
%TD*%
D17*
%TO.C,C12*%
X134127240Y-104920750D03*
X134127240Y-108045750D03*
%TD*%
D18*
%TO.C,C27*%
X137937240Y-113368250D03*
X137937240Y-110243250D03*
%TD*%
D17*
%TO.C,C42*%
X156987240Y-93490750D03*
X156987240Y-96615750D03*
%TD*%
%TO.C,C32*%
X160797240Y-104920750D03*
X160797240Y-108045750D03*
%TD*%
%TO.C,C41*%
X156987240Y-104920750D03*
X156987240Y-108045750D03*
%TD*%
%TO.C,C34*%
X154447240Y-87775750D03*
X154447240Y-90900750D03*
%TD*%
D18*
%TO.C,C15*%
X160797240Y-113368250D03*
X160797240Y-110243250D03*
%TD*%
%TO.C,C23*%
X160797240Y-102330750D03*
X160797240Y-99205750D03*
%TD*%
D17*
%TO.C,C13*%
X144287240Y-87775750D03*
X144287240Y-90900750D03*
%TD*%
D18*
%TO.C,C40*%
X145557240Y-113368250D03*
X145557240Y-110243250D03*
%TD*%
%TO.C,C33*%
X149367240Y-113418250D03*
X149367240Y-110293250D03*
%TD*%
D17*
%TO.C,C18*%
X145557240Y-104920750D03*
X145557240Y-108045750D03*
%TD*%
D18*
%TO.C,C38*%
X144287240Y-85185750D03*
X144287240Y-82060750D03*
%TD*%
D17*
%TO.C,C8*%
X149367240Y-93490750D03*
X149367240Y-96615750D03*
%TD*%
D18*
%TO.C,C16*%
X141747240Y-102330750D03*
X141747240Y-99205750D03*
%TD*%
D17*
%TO.C,C37*%
X153177240Y-104920750D03*
X153177240Y-108045750D03*
%TD*%
%TO.C,C43*%
X149367240Y-104920750D03*
X149367240Y-108045750D03*
%TD*%
D18*
%TO.C,C35*%
X145557240Y-102330750D03*
X145557240Y-99205750D03*
%TD*%
D17*
%TO.C,C20*%
X160797240Y-93490750D03*
X160797240Y-96615750D03*
%TD*%
%TO.C,C2*%
X141747240Y-93490750D03*
X141747240Y-96615750D03*
%TD*%
%TO.C,C22*%
X137937240Y-93490750D03*
X137937240Y-96615750D03*
%TD*%
D18*
%TO.C,C7*%
X141747240Y-113368250D03*
X141747240Y-110243250D03*
%TD*%
%TO.C,C1*%
X156987240Y-102380750D03*
X156987240Y-99255750D03*
%TD*%
%TO.C,C36*%
X154447240Y-85185750D03*
X154447240Y-82060750D03*
%TD*%
%TO.C,C31*%
X153177240Y-113418250D03*
X153177240Y-110293250D03*
%TD*%
D17*
%TO.C,C30*%
X141747240Y-104920750D03*
X141747240Y-108045750D03*
%TD*%
M02*
