%TF.GenerationSoftware,KiCad,Pcbnew,7.0.6*%
%TF.CreationDate,2023-10-19T15:55:56+03:00*%
%TF.ProjectId,_______ _____,21383b3e-3230-44f2-903f-3b3042302e6b,rev?*%
%TF.SameCoordinates,Original*%
%TF.FileFunction,Paste,Top*%
%TF.FilePolarity,Positive*%
%FSLAX46Y46*%
G04 Gerber Fmt 4.6, Leading zero omitted, Abs format (unit mm)*
G04 Created by KiCad (PCBNEW 7.0.6) date 2023-10-19 15:55:56*
%MOMM*%
%LPD*%
G01*
G04 APERTURE LIST*
G04 Aperture macros list*
%AMRoundRect*
0 Rectangle with rounded corners*
0 $1 Rounding radius*
0 $2 $3 $4 $5 $6 $7 $8 $9 X,Y pos of 4 corners*
0 Add a 4 corners polygon primitive as box body*
4,1,4,$2,$3,$4,$5,$6,$7,$8,$9,$2,$3,0*
0 Add four circle primitives for the rounded corners*
1,1,$1+$1,$2,$3*
1,1,$1+$1,$4,$5*
1,1,$1+$1,$6,$7*
1,1,$1+$1,$8,$9*
0 Add four rect primitives between the rounded corners*
20,1,$1+$1,$2,$3,$4,$5,0*
20,1,$1+$1,$4,$5,$6,$7,0*
20,1,$1+$1,$6,$7,$8,$9,0*
20,1,$1+$1,$8,$9,$2,$3,0*%
G04 Aperture macros list end*
%ADD10RoundRect,0.250000X-0.412500X-0.650000X0.412500X-0.650000X0.412500X0.650000X-0.412500X0.650000X0*%
%ADD11RoundRect,0.250000X0.412500X0.650000X-0.412500X0.650000X-0.412500X-0.650000X0.412500X-0.650000X0*%
%ADD12R,1.000000X2.997200*%
%ADD13RoundRect,0.250000X2.050000X0.300000X-2.050000X0.300000X-2.050000X-0.300000X2.050000X-0.300000X0*%
%ADD14RoundRect,0.250000X2.025000X2.375000X-2.025000X2.375000X-2.025000X-2.375000X2.025000X-2.375000X0*%
%ADD15RoundRect,0.150000X-0.825000X-0.150000X0.825000X-0.150000X0.825000X0.150000X-0.825000X0.150000X0*%
%ADD16RoundRect,0.250000X0.475000X-0.337500X0.475000X0.337500X-0.475000X0.337500X-0.475000X-0.337500X0*%
%ADD17RoundRect,0.250000X-0.337500X-0.475000X0.337500X-0.475000X0.337500X0.475000X-0.337500X0.475000X0*%
%ADD18RoundRect,0.250000X0.625000X-0.400000X0.625000X0.400000X-0.625000X0.400000X-0.625000X-0.400000X0*%
%ADD19RoundRect,0.112500X0.187500X0.112500X-0.187500X0.112500X-0.187500X-0.112500X0.187500X-0.112500X0*%
G04 APERTURE END LIST*
D10*
%TO.C,C48*%
X169887500Y-116205000D03*
X173012500Y-116205000D03*
%TD*%
%TO.C,C47*%
X169887500Y-106680000D03*
X173012500Y-106680000D03*
%TD*%
%TO.C,C46*%
X169887500Y-109855000D03*
X173012500Y-109855000D03*
%TD*%
%TO.C,C45*%
X169887500Y-113030000D03*
X173012500Y-113030000D03*
%TD*%
D11*
%TO.C,C44*%
X179362500Y-106680000D03*
X176237500Y-106680000D03*
%TD*%
%TO.C,C43*%
X123482500Y-83755000D03*
X120357500Y-83755000D03*
%TD*%
%TO.C,C42*%
X123482500Y-87105000D03*
X120357500Y-87105000D03*
%TD*%
%TO.C,C41*%
X123482500Y-90455000D03*
X120357500Y-90455000D03*
%TD*%
%TO.C,C40*%
X123482500Y-93345000D03*
X120357500Y-93345000D03*
%TD*%
%TO.C,C39*%
X120357500Y-96520000D03*
X123482500Y-96520000D03*
%TD*%
%TO.C,C38*%
X123482500Y-104775000D03*
X120357500Y-104775000D03*
%TD*%
%TO.C,C37*%
X123482500Y-107950000D03*
X120357500Y-107950000D03*
%TD*%
%TO.C,C36*%
X123482500Y-111125000D03*
X120357500Y-111125000D03*
%TD*%
%TO.C,C35*%
X123482500Y-114300000D03*
X120357500Y-114300000D03*
%TD*%
%TO.C,C34*%
X123432500Y-117475000D03*
X120307500Y-117475000D03*
%TD*%
D10*
%TO.C,C33*%
X182587500Y-106680000D03*
X185712500Y-106680000D03*
%TD*%
%TO.C,C32*%
X182587500Y-103505000D03*
X185712500Y-103505000D03*
%TD*%
%TO.C,C31*%
X182587500Y-100330000D03*
X185712500Y-100330000D03*
%TD*%
%TO.C,C30*%
X182587500Y-97155000D03*
X185712500Y-97155000D03*
%TD*%
%TO.C,C29*%
X182587500Y-93980000D03*
X185712500Y-93980000D03*
%TD*%
D11*
%TO.C,C28*%
X179362500Y-116205000D03*
X176237500Y-116205000D03*
%TD*%
D10*
%TO.C,C27*%
X182587500Y-119380000D03*
X185712500Y-119380000D03*
%TD*%
%TO.C,C26*%
X182587500Y-116205000D03*
X185712500Y-116205000D03*
%TD*%
%TO.C,C25*%
X182587500Y-113030000D03*
X185712500Y-113030000D03*
%TD*%
%TO.C,C24*%
X182587500Y-109855000D03*
X185712500Y-109855000D03*
%TD*%
D11*
%TO.C,C23*%
X131445000Y-107950000D03*
X134570000Y-107950000D03*
%TD*%
%TO.C,C22*%
X134570000Y-111125000D03*
X131445000Y-111125000D03*
%TD*%
%TO.C,C21*%
X131445000Y-114300000D03*
X134570000Y-114300000D03*
%TD*%
%TO.C,C20*%
X134570000Y-104775000D03*
X131445000Y-104775000D03*
%TD*%
D10*
%TO.C,C19*%
X125730000Y-117475000D03*
X128855000Y-117475000D03*
%TD*%
%TO.C,C18*%
X125730000Y-114300000D03*
X128855000Y-114300000D03*
%TD*%
%TO.C,C17*%
X125730000Y-111125000D03*
X128855000Y-111125000D03*
%TD*%
%TO.C,C16*%
X125730000Y-107950000D03*
X128855000Y-107950000D03*
%TD*%
D11*
%TO.C,C15*%
X179362500Y-109855000D03*
X176237500Y-109855000D03*
%TD*%
%TO.C,C14*%
X179362500Y-113030000D03*
X176237500Y-113030000D03*
%TD*%
D12*
%TO.C,J6*%
X140970000Y-107605000D03*
X142240000Y-112105001D03*
X143510000Y-107605000D03*
X144780000Y-112105001D03*
X146050000Y-107605000D03*
X147320000Y-112105001D03*
X148590000Y-107605000D03*
X149860000Y-112105001D03*
X151130000Y-107605000D03*
X152400000Y-112105001D03*
X153670000Y-107605000D03*
X154940000Y-112105001D03*
X156210000Y-107605000D03*
X157480000Y-112105001D03*
X158750000Y-107605000D03*
X160020000Y-112105001D03*
X161290000Y-107605000D03*
X162560000Y-112105001D03*
X163830000Y-107605000D03*
X165100000Y-112105001D03*
%TD*%
D13*
%TO.C,Q4*%
X158260000Y-78105000D03*
D14*
X151535000Y-78340000D03*
X151535000Y-72790000D03*
X146685000Y-78340000D03*
X146685000Y-72790000D03*
D13*
X158260000Y-73025000D03*
%TD*%
%TO.C,Q3*%
X158260000Y-90805000D03*
D14*
X151535000Y-91040000D03*
X151535000Y-85490000D03*
X146685000Y-91040000D03*
X146685000Y-85490000D03*
D13*
X158260000Y-85725000D03*
%TD*%
D15*
%TO.C,U2*%
X146750000Y-98425000D03*
X146750000Y-99695000D03*
X146750000Y-100965000D03*
X146750000Y-102235000D03*
X151700000Y-102235000D03*
X151700000Y-100965000D03*
X151700000Y-99695000D03*
X151700000Y-98425000D03*
%TD*%
D16*
%TO.C,C8*%
X162560000Y-101367500D03*
X162560000Y-99292500D03*
%TD*%
D15*
%TO.C,U3*%
X165800000Y-98425000D03*
X165800000Y-99695000D03*
X165800000Y-100965000D03*
X165800000Y-102235000D03*
X170750000Y-102235000D03*
X170750000Y-100965000D03*
X170750000Y-99695000D03*
X170750000Y-98425000D03*
%TD*%
D13*
%TO.C,Q6*%
X177165000Y-78105000D03*
D14*
X170440000Y-78340000D03*
X170440000Y-72790000D03*
X165590000Y-78340000D03*
X165590000Y-72790000D03*
D13*
X177165000Y-73025000D03*
%TD*%
D16*
%TO.C,C6*%
X143510000Y-101367500D03*
X143510000Y-99292500D03*
%TD*%
D17*
%TO.C,C7*%
X153267500Y-96520000D03*
X155342500Y-96520000D03*
%TD*%
D18*
%TO.C,R13*%
X138430000Y-98070000D03*
X138430000Y-94970000D03*
%TD*%
D19*
%TO.C,D1*%
X131225000Y-96520000D03*
X129125000Y-96520000D03*
%TD*%
D17*
%TO.C,C5*%
X134217500Y-96520000D03*
X136292500Y-96520000D03*
%TD*%
D16*
%TO.C,C4*%
X124460000Y-101367500D03*
X124460000Y-99292500D03*
%TD*%
D13*
%TO.C,Q5*%
X177165000Y-90805000D03*
D14*
X170440000Y-91040000D03*
X170440000Y-85490000D03*
X165590000Y-91040000D03*
X165590000Y-85490000D03*
D13*
X177165000Y-85725000D03*
%TD*%
D17*
%TO.C,C9*%
X172317500Y-96520000D03*
X174392500Y-96520000D03*
%TD*%
D19*
%TO.C,D2*%
X150275000Y-96520000D03*
X148175000Y-96520000D03*
%TD*%
D18*
%TO.C,R14*%
X140970000Y-98070000D03*
X140970000Y-94970000D03*
%TD*%
%TO.C,R18*%
X179070000Y-98070000D03*
X179070000Y-94970000D03*
%TD*%
%TO.C,R15*%
X157480000Y-98070000D03*
X157480000Y-94970000D03*
%TD*%
D13*
%TO.C,Q2*%
X139125000Y-78105000D03*
D14*
X132400000Y-78340000D03*
X132400000Y-72790000D03*
X127550000Y-78340000D03*
X127550000Y-72790000D03*
D13*
X139125000Y-73025000D03*
%TD*%
D18*
%TO.C,R17*%
X176530000Y-98070000D03*
X176530000Y-94970000D03*
%TD*%
%TO.C,R16*%
X160020000Y-98070000D03*
X160020000Y-94970000D03*
%TD*%
D15*
%TO.C,U1*%
X127700000Y-98425000D03*
X127700000Y-99695000D03*
X127700000Y-100965000D03*
X127700000Y-102235000D03*
X132650000Y-102235000D03*
X132650000Y-100965000D03*
X132650000Y-99695000D03*
X132650000Y-98425000D03*
%TD*%
D13*
%TO.C,Q1*%
X139095000Y-90805000D03*
D14*
X132370000Y-91040000D03*
X132370000Y-85490000D03*
X127520000Y-91040000D03*
X127520000Y-85490000D03*
D13*
X139095000Y-85725000D03*
%TD*%
D19*
%TO.C,D3*%
X169325000Y-96520000D03*
X167225000Y-96520000D03*
%TD*%
M02*
