%TF.GenerationSoftware,KiCad,Pcbnew,7.0.6*%
%TF.CreationDate,2023-10-19T15:55:55+03:00*%
%TF.ProjectId,_______ _____,21383b3e-3230-44f2-903f-3b3042302e6b,rev?*%
%TF.SameCoordinates,Original*%
%TF.FileFunction,Copper,L1,Top*%
%TF.FilePolarity,Positive*%
%FSLAX46Y46*%
G04 Gerber Fmt 4.6, Leading zero omitted, Abs format (unit mm)*
G04 Created by KiCad (PCBNEW 7.0.6) date 2023-10-19 15:55:55*
%MOMM*%
%LPD*%
G01*
G04 APERTURE LIST*
G04 Aperture macros list*
%AMRoundRect*
0 Rectangle with rounded corners*
0 $1 Rounding radius*
0 $2 $3 $4 $5 $6 $7 $8 $9 X,Y pos of 4 corners*
0 Add a 4 corners polygon primitive as box body*
4,1,4,$2,$3,$4,$5,$6,$7,$8,$9,$2,$3,0*
0 Add four circle primitives for the rounded corners*
1,1,$1+$1,$2,$3*
1,1,$1+$1,$4,$5*
1,1,$1+$1,$6,$7*
1,1,$1+$1,$8,$9*
0 Add four rect primitives between the rounded corners*
20,1,$1+$1,$2,$3,$4,$5,0*
20,1,$1+$1,$4,$5,$6,$7,0*
20,1,$1+$1,$6,$7,$8,$9,0*
20,1,$1+$1,$8,$9,$2,$3,0*%
G04 Aperture macros list end*
%TA.AperFunction,SMDPad,CuDef*%
%ADD10RoundRect,0.250000X-0.412500X-0.650000X0.412500X-0.650000X0.412500X0.650000X-0.412500X0.650000X0*%
%TD*%
%TA.AperFunction,SMDPad,CuDef*%
%ADD11RoundRect,0.250000X0.412500X0.650000X-0.412500X0.650000X-0.412500X-0.650000X0.412500X-0.650000X0*%
%TD*%
%TA.AperFunction,ComponentPad*%
%ADD12C,15.000000*%
%TD*%
%TA.AperFunction,SMDPad,CuDef*%
%ADD13R,1.000000X2.997200*%
%TD*%
%TA.AperFunction,ComponentPad*%
%ADD14O,2.400000X2.400000*%
%TD*%
%TA.AperFunction,ComponentPad*%
%ADD15R,2.400000X2.400000*%
%TD*%
%TA.AperFunction,SMDPad,CuDef*%
%ADD16RoundRect,0.250000X2.050000X0.300000X-2.050000X0.300000X-2.050000X-0.300000X2.050000X-0.300000X0*%
%TD*%
%TA.AperFunction,SMDPad,CuDef*%
%ADD17RoundRect,0.250000X2.025000X2.375000X-2.025000X2.375000X-2.025000X-2.375000X2.025000X-2.375000X0*%
%TD*%
%TA.AperFunction,SMDPad,CuDef*%
%ADD18RoundRect,0.250002X4.449998X5.149998X-4.449998X5.149998X-4.449998X-5.149998X4.449998X-5.149998X0*%
%TD*%
%TA.AperFunction,SMDPad,CuDef*%
%ADD19RoundRect,0.150000X-0.825000X-0.150000X0.825000X-0.150000X0.825000X0.150000X-0.825000X0.150000X0*%
%TD*%
%TA.AperFunction,SMDPad,CuDef*%
%ADD20RoundRect,0.250000X0.475000X-0.337500X0.475000X0.337500X-0.475000X0.337500X-0.475000X-0.337500X0*%
%TD*%
%TA.AperFunction,SMDPad,CuDef*%
%ADD21RoundRect,0.250000X-0.337500X-0.475000X0.337500X-0.475000X0.337500X0.475000X-0.337500X0.475000X0*%
%TD*%
%TA.AperFunction,SMDPad,CuDef*%
%ADD22RoundRect,0.250000X0.625000X-0.400000X0.625000X0.400000X-0.625000X0.400000X-0.625000X-0.400000X0*%
%TD*%
%TA.AperFunction,SMDPad,CuDef*%
%ADD23RoundRect,0.112500X0.187500X0.112500X-0.187500X0.112500X-0.187500X-0.112500X0.187500X-0.112500X0*%
%TD*%
%TA.AperFunction,ViaPad*%
%ADD24C,0.800000*%
%TD*%
%TA.AperFunction,Conductor*%
%ADD25C,1.000000*%
%TD*%
%TA.AperFunction,Conductor*%
%ADD26C,0.500000*%
%TD*%
G04 APERTURE END LIST*
D10*
%TO.P,C48,1*%
%TO.N,+24V*%
X169887500Y-116205000D03*
%TO.P,C48,2*%
%TO.N,GND*%
X173012500Y-116205000D03*
%TD*%
%TO.P,C47,1*%
%TO.N,+24V*%
X169887500Y-106680000D03*
%TO.P,C47,2*%
%TO.N,GND*%
X173012500Y-106680000D03*
%TD*%
%TO.P,C46,1*%
%TO.N,+24V*%
X169887500Y-109855000D03*
%TO.P,C46,2*%
%TO.N,GND*%
X173012500Y-109855000D03*
%TD*%
%TO.P,C45,1*%
%TO.N,+24V*%
X169887500Y-113030000D03*
%TO.P,C45,2*%
%TO.N,GND*%
X173012500Y-113030000D03*
%TD*%
D11*
%TO.P,C44,1*%
%TO.N,+24V*%
X179362500Y-106680000D03*
%TO.P,C44,2*%
%TO.N,GND*%
X176237500Y-106680000D03*
%TD*%
%TO.P,C43,1*%
%TO.N,+24V*%
X123482500Y-83755000D03*
%TO.P,C43,2*%
%TO.N,GND*%
X120357500Y-83755000D03*
%TD*%
%TO.P,C42,1*%
%TO.N,+24V*%
X123482500Y-87105000D03*
%TO.P,C42,2*%
%TO.N,GND*%
X120357500Y-87105000D03*
%TD*%
%TO.P,C41,1*%
%TO.N,+24V*%
X123482500Y-90455000D03*
%TO.P,C41,2*%
%TO.N,GND*%
X120357500Y-90455000D03*
%TD*%
%TO.P,C40,1*%
%TO.N,+24V*%
X123482500Y-93345000D03*
%TO.P,C40,2*%
%TO.N,GND*%
X120357500Y-93345000D03*
%TD*%
%TO.P,C39,2*%
%TO.N,GND*%
X120357500Y-96520000D03*
%TO.P,C39,1*%
%TO.N,+24V*%
X123482500Y-96520000D03*
%TD*%
%TO.P,C38,1*%
%TO.N,+24V*%
X123482500Y-104775000D03*
%TO.P,C38,2*%
%TO.N,GND*%
X120357500Y-104775000D03*
%TD*%
%TO.P,C37,1*%
%TO.N,+24V*%
X123482500Y-107950000D03*
%TO.P,C37,2*%
%TO.N,GND*%
X120357500Y-107950000D03*
%TD*%
%TO.P,C36,1*%
%TO.N,+24V*%
X123482500Y-111125000D03*
%TO.P,C36,2*%
%TO.N,GND*%
X120357500Y-111125000D03*
%TD*%
%TO.P,C35,1*%
%TO.N,+24V*%
X123482500Y-114300000D03*
%TO.P,C35,2*%
%TO.N,GND*%
X120357500Y-114300000D03*
%TD*%
%TO.P,C34,1*%
%TO.N,+24V*%
X123432500Y-117475000D03*
%TO.P,C34,2*%
%TO.N,GND*%
X120307500Y-117475000D03*
%TD*%
D10*
%TO.P,C33,1*%
%TO.N,+24V*%
X182587500Y-106680000D03*
%TO.P,C33,2*%
%TO.N,GND*%
X185712500Y-106680000D03*
%TD*%
%TO.P,C32,1*%
%TO.N,+24V*%
X182587500Y-103505000D03*
%TO.P,C32,2*%
%TO.N,GND*%
X185712500Y-103505000D03*
%TD*%
%TO.P,C31,1*%
%TO.N,+24V*%
X182587500Y-100330000D03*
%TO.P,C31,2*%
%TO.N,GND*%
X185712500Y-100330000D03*
%TD*%
%TO.P,C30,1*%
%TO.N,+24V*%
X182587500Y-97155000D03*
%TO.P,C30,2*%
%TO.N,GND*%
X185712500Y-97155000D03*
%TD*%
%TO.P,C29,1*%
%TO.N,+24V*%
X182587500Y-93980000D03*
%TO.P,C29,2*%
%TO.N,GND*%
X185712500Y-93980000D03*
%TD*%
D11*
%TO.P,C28,1*%
%TO.N,+24V*%
X179362500Y-116205000D03*
%TO.P,C28,2*%
%TO.N,GND*%
X176237500Y-116205000D03*
%TD*%
D10*
%TO.P,C27,1*%
%TO.N,+24V*%
X182587500Y-119380000D03*
%TO.P,C27,2*%
%TO.N,GND*%
X185712500Y-119380000D03*
%TD*%
%TO.P,C26,1*%
%TO.N,+24V*%
X182587500Y-116205000D03*
%TO.P,C26,2*%
%TO.N,GND*%
X185712500Y-116205000D03*
%TD*%
%TO.P,C25,1*%
%TO.N,+24V*%
X182587500Y-113030000D03*
%TO.P,C25,2*%
%TO.N,GND*%
X185712500Y-113030000D03*
%TD*%
%TO.P,C24,1*%
%TO.N,+24V*%
X182587500Y-109855000D03*
%TO.P,C24,2*%
%TO.N,GND*%
X185712500Y-109855000D03*
%TD*%
D11*
%TO.P,C23,2*%
%TO.N,GND*%
X131445000Y-107950000D03*
%TO.P,C23,1*%
%TO.N,+24V*%
X134570000Y-107950000D03*
%TD*%
%TO.P,C22,1*%
%TO.N,+24V*%
X134570000Y-111125000D03*
%TO.P,C22,2*%
%TO.N,GND*%
X131445000Y-111125000D03*
%TD*%
%TO.P,C21,2*%
%TO.N,GND*%
X131445000Y-114300000D03*
%TO.P,C21,1*%
%TO.N,+24V*%
X134570000Y-114300000D03*
%TD*%
%TO.P,C20,1*%
%TO.N,+24V*%
X134570000Y-104775000D03*
%TO.P,C20,2*%
%TO.N,GND*%
X131445000Y-104775000D03*
%TD*%
D10*
%TO.P,C19,1*%
%TO.N,+24V*%
X125730000Y-117475000D03*
%TO.P,C19,2*%
%TO.N,GND*%
X128855000Y-117475000D03*
%TD*%
%TO.P,C18,1*%
%TO.N,+24V*%
X125730000Y-114300000D03*
%TO.P,C18,2*%
%TO.N,GND*%
X128855000Y-114300000D03*
%TD*%
%TO.P,C17,1*%
%TO.N,+24V*%
X125730000Y-111125000D03*
%TO.P,C17,2*%
%TO.N,GND*%
X128855000Y-111125000D03*
%TD*%
%TO.P,C16,1*%
%TO.N,+24V*%
X125730000Y-107950000D03*
%TO.P,C16,2*%
%TO.N,GND*%
X128855000Y-107950000D03*
%TD*%
D11*
%TO.P,C15,1*%
%TO.N,+24V*%
X179362500Y-109855000D03*
%TO.P,C15,2*%
%TO.N,GND*%
X176237500Y-109855000D03*
%TD*%
%TO.P,C14,1*%
%TO.N,+24V*%
X179362500Y-113030000D03*
%TO.P,C14,2*%
%TO.N,GND*%
X176237500Y-113030000D03*
%TD*%
D12*
%TO.P,J1,1,Pin_1*%
%TO.N,+24V*%
X133350000Y-125730000D03*
%TD*%
%TO.P,J2,1,Pin_1*%
%TO.N,GND*%
X171450000Y-125730000D03*
%TD*%
%TO.P,J5,1,Pin_1*%
%TO.N,C*%
X172085000Y-57785000D03*
%TD*%
%TO.P,J4,1,Pin_1*%
%TO.N,B*%
X152400000Y-57785000D03*
%TD*%
%TO.P,J3,1,Pin_1*%
%TO.N,A*%
X132715000Y-57785000D03*
%TD*%
D13*
%TO.P,J6,1,1*%
%TO.N,HIN_A*%
X140970000Y-107605000D03*
%TO.P,J6,2,2*%
%TO.N,LIN_A*%
X142240000Y-112105001D03*
%TO.P,J6,3,3*%
%TO.N,unconnected-(J6-Pad3)*%
X143510000Y-107605000D03*
%TO.P,J6,4,4*%
%TO.N,unconnected-(J6-Pad4)*%
X144780000Y-112105001D03*
%TO.P,J6,5,5*%
%TO.N,unconnected-(J6-Pad5)*%
X146050000Y-107605000D03*
%TO.P,J6,6,6*%
%TO.N,unconnected-(J6-Pad6)*%
X147320000Y-112105001D03*
%TO.P,J6,7,7*%
%TO.N,unconnected-(J6-Pad7)*%
X148590000Y-107605000D03*
%TO.P,J6,8,8*%
%TO.N,unconnected-(J6-Pad8)*%
X149860000Y-112105001D03*
%TO.P,J6,9,9*%
%TO.N,unconnected-(J6-Pad9)*%
X151130000Y-107605000D03*
%TO.P,J6,10,10*%
%TO.N,LIN_B*%
X152400000Y-112105001D03*
%TO.P,J6,11,11*%
%TO.N,HIN_B*%
X153670000Y-107605000D03*
%TO.P,J6,12,12*%
%TO.N,unconnected-(J6-Pad12)*%
X154940000Y-112105001D03*
%TO.P,J6,13,13*%
%TO.N,unconnected-(J6-Pad13)*%
X156210000Y-107605000D03*
%TO.P,J6,14,14*%
%TO.N,unconnected-(J6-Pad14)*%
X157480000Y-112105001D03*
%TO.P,J6,15,15*%
%TO.N,unconnected-(J6-Pad15)*%
X158750000Y-107605000D03*
%TO.P,J6,16,16*%
%TO.N,unconnected-(J6-Pad16)*%
X160020000Y-112105001D03*
%TO.P,J6,17,17*%
%TO.N,unconnected-(J6-Pad17)*%
X161290000Y-107605000D03*
%TO.P,J6,18,18*%
%TO.N,unconnected-(J6-Pad18)*%
X162560000Y-112105001D03*
%TO.P,J6,19,19*%
%TO.N,LIN_C*%
X163830000Y-107605000D03*
%TO.P,J6,20,20*%
%TO.N,HIN_C*%
X165100000Y-112105001D03*
%TD*%
D14*
%TO.P,C1,2*%
%TO.N,GND*%
X164900000Y-117475000D03*
D15*
%TO.P,C1,1*%
%TO.N,+24V*%
X139900000Y-117475000D03*
%TD*%
D16*
%TO.P,Q4,1,G*%
%TO.N,G4*%
X158260000Y-78105000D03*
D17*
%TO.P,Q4,2,D*%
%TO.N,B*%
X151535000Y-78340000D03*
X151535000Y-72790000D03*
D18*
X149110000Y-75565000D03*
D17*
X146685000Y-78340000D03*
X146685000Y-72790000D03*
D16*
%TO.P,Q4,3,S*%
%TO.N,GND*%
X158260000Y-73025000D03*
%TD*%
%TO.P,Q3,1,G*%
%TO.N,G3*%
X158260000Y-90805000D03*
D17*
%TO.P,Q3,2,D*%
%TO.N,+24V*%
X151535000Y-91040000D03*
X151535000Y-85490000D03*
D18*
X149110000Y-88265000D03*
D17*
X146685000Y-91040000D03*
X146685000Y-85490000D03*
D16*
%TO.P,Q3,3,S*%
%TO.N,B*%
X158260000Y-85725000D03*
%TD*%
D19*
%TO.P,U2,1,VCC*%
%TO.N,Net-(D2-A)*%
X146750000Y-98425000D03*
%TO.P,U2,2,HIN*%
%TO.N,HIN_B*%
X146750000Y-99695000D03*
%TO.P,U2,3,LIN*%
%TO.N,LIN_B*%
X146750000Y-100965000D03*
%TO.P,U2,4,COM*%
%TO.N,Net-(U2-COM)*%
X146750000Y-102235000D03*
%TO.P,U2,5,LO*%
%TO.N,Net-(U2-LO)*%
X151700000Y-102235000D03*
%TO.P,U2,6,VS*%
%TO.N,Net-(U2-VS)*%
X151700000Y-100965000D03*
%TO.P,U2,7,HO*%
%TO.N,Net-(U2-HO)*%
X151700000Y-99695000D03*
%TO.P,U2,8,VB*%
%TO.N,Net-(D2-K)*%
X151700000Y-98425000D03*
%TD*%
D20*
%TO.P,C8,1*%
%TO.N,Net-(U3-COM)*%
X162560000Y-101367500D03*
%TO.P,C8,2*%
%TO.N,Net-(D3-A)*%
X162560000Y-99292500D03*
%TD*%
D19*
%TO.P,U3,1,VCC*%
%TO.N,Net-(D3-A)*%
X165800000Y-98425000D03*
%TO.P,U3,2,HIN*%
%TO.N,HIN_C*%
X165800000Y-99695000D03*
%TO.P,U3,3,LIN*%
%TO.N,LIN_C*%
X165800000Y-100965000D03*
%TO.P,U3,4,COM*%
%TO.N,Net-(U3-COM)*%
X165800000Y-102235000D03*
%TO.P,U3,5,LO*%
%TO.N,Net-(U3-LO)*%
X170750000Y-102235000D03*
%TO.P,U3,6,VS*%
%TO.N,Net-(U3-VS)*%
X170750000Y-100965000D03*
%TO.P,U3,7,HO*%
%TO.N,Net-(U3-HO)*%
X170750000Y-99695000D03*
%TO.P,U3,8,VB*%
%TO.N,Net-(D3-K)*%
X170750000Y-98425000D03*
%TD*%
D16*
%TO.P,Q6,1,G*%
%TO.N,G6*%
X177165000Y-78105000D03*
D17*
%TO.P,Q6,2,D*%
%TO.N,C*%
X170440000Y-78340000D03*
X170440000Y-72790000D03*
D18*
X168015000Y-75565000D03*
D17*
X165590000Y-78340000D03*
X165590000Y-72790000D03*
D16*
%TO.P,Q6,3,S*%
%TO.N,GND*%
X177165000Y-73025000D03*
%TD*%
D20*
%TO.P,C6,1*%
%TO.N,Net-(U2-COM)*%
X143510000Y-101367500D03*
%TO.P,C6,2*%
%TO.N,Net-(D2-A)*%
X143510000Y-99292500D03*
%TD*%
D21*
%TO.P,C7,1*%
%TO.N,Net-(D2-K)*%
X153267500Y-96520000D03*
%TO.P,C7,2*%
%TO.N,Net-(U2-VS)*%
X155342500Y-96520000D03*
%TD*%
D22*
%TO.P,R13,1*%
%TO.N,Net-(U1-HO)*%
X138430000Y-98070000D03*
%TO.P,R13,2*%
%TO.N,G1*%
X138430000Y-94970000D03*
%TD*%
D23*
%TO.P,D1,1,K*%
%TO.N,Net-(D1-K)*%
X131225000Y-96520000D03*
%TO.P,D1,2,A*%
%TO.N,Net-(D1-A)*%
X129125000Y-96520000D03*
%TD*%
D21*
%TO.P,C5,1*%
%TO.N,Net-(D1-K)*%
X134217500Y-96520000D03*
%TO.P,C5,2*%
%TO.N,Net-(U1-VS)*%
X136292500Y-96520000D03*
%TD*%
D20*
%TO.P,C4,1*%
%TO.N,Net-(U1-COM)*%
X124460000Y-101367500D03*
%TO.P,C4,2*%
%TO.N,Net-(D1-A)*%
X124460000Y-99292500D03*
%TD*%
D16*
%TO.P,Q5,1,G*%
%TO.N,G5*%
X177165000Y-90805000D03*
D17*
%TO.P,Q5,2,D*%
%TO.N,+24V*%
X170440000Y-91040000D03*
X170440000Y-85490000D03*
D18*
X168015000Y-88265000D03*
D17*
X165590000Y-91040000D03*
X165590000Y-85490000D03*
D16*
%TO.P,Q5,3,S*%
%TO.N,C*%
X177165000Y-85725000D03*
%TD*%
D21*
%TO.P,C9,1*%
%TO.N,Net-(D3-K)*%
X172317500Y-96520000D03*
%TO.P,C9,2*%
%TO.N,Net-(U3-VS)*%
X174392500Y-96520000D03*
%TD*%
D23*
%TO.P,D2,1,K*%
%TO.N,Net-(D2-K)*%
X150275000Y-96520000D03*
%TO.P,D2,2,A*%
%TO.N,Net-(D2-A)*%
X148175000Y-96520000D03*
%TD*%
D22*
%TO.P,R14,1*%
%TO.N,Net-(U1-LO)*%
X140970000Y-98070000D03*
%TO.P,R14,2*%
%TO.N,G2*%
X140970000Y-94970000D03*
%TD*%
%TO.P,R18,1*%
%TO.N,Net-(U3-LO)*%
X179070000Y-98070000D03*
%TO.P,R18,2*%
%TO.N,G6*%
X179070000Y-94970000D03*
%TD*%
%TO.P,R15,1*%
%TO.N,Net-(U2-HO)*%
X157480000Y-98070000D03*
%TO.P,R15,2*%
%TO.N,G3*%
X157480000Y-94970000D03*
%TD*%
D16*
%TO.P,Q2,1,G*%
%TO.N,G2*%
X139125000Y-78105000D03*
D17*
%TO.P,Q2,2,D*%
%TO.N,A*%
X132400000Y-78340000D03*
X132400000Y-72790000D03*
D18*
X129975000Y-75565000D03*
D17*
X127550000Y-78340000D03*
X127550000Y-72790000D03*
D16*
%TO.P,Q2,3,S*%
%TO.N,GND*%
X139125000Y-73025000D03*
%TD*%
D22*
%TO.P,R17,1*%
%TO.N,Net-(U3-HO)*%
X176530000Y-98070000D03*
%TO.P,R17,2*%
%TO.N,G5*%
X176530000Y-94970000D03*
%TD*%
%TO.P,R16,1*%
%TO.N,Net-(U2-LO)*%
X160020000Y-98070000D03*
%TO.P,R16,2*%
%TO.N,G4*%
X160020000Y-94970000D03*
%TD*%
D19*
%TO.P,U1,1,VCC*%
%TO.N,Net-(D1-A)*%
X127700000Y-98425000D03*
%TO.P,U1,2,HIN*%
%TO.N,HIN_A*%
X127700000Y-99695000D03*
%TO.P,U1,3,LIN*%
%TO.N,LIN_A*%
X127700000Y-100965000D03*
%TO.P,U1,4,COM*%
%TO.N,Net-(U1-COM)*%
X127700000Y-102235000D03*
%TO.P,U1,5,LO*%
%TO.N,Net-(U1-LO)*%
X132650000Y-102235000D03*
%TO.P,U1,6,VS*%
%TO.N,Net-(U1-VS)*%
X132650000Y-100965000D03*
%TO.P,U1,7,HO*%
%TO.N,Net-(U1-HO)*%
X132650000Y-99695000D03*
%TO.P,U1,8,VB*%
%TO.N,Net-(D1-K)*%
X132650000Y-98425000D03*
%TD*%
D16*
%TO.P,Q1,1,G*%
%TO.N,G1*%
X139095000Y-90805000D03*
D17*
%TO.P,Q1,2,D*%
%TO.N,+24V*%
X132370000Y-91040000D03*
X132370000Y-85490000D03*
D18*
X129945000Y-88265000D03*
D17*
X127520000Y-91040000D03*
X127520000Y-85490000D03*
D16*
%TO.P,Q1,3,S*%
%TO.N,A*%
X139095000Y-85725000D03*
%TD*%
D23*
%TO.P,D3,1,K*%
%TO.N,Net-(D3-K)*%
X169325000Y-96520000D03*
%TO.P,D3,2,A*%
%TO.N,Net-(D3-A)*%
X167225000Y-96520000D03*
%TD*%
D24*
%TO.N,GND*%
X120396000Y-85344000D03*
X120396000Y-88900000D03*
X120396000Y-91948000D03*
X120396000Y-94996000D03*
X120396000Y-106426000D03*
X120396000Y-109474000D03*
X120396000Y-112776000D03*
X120396000Y-115824000D03*
X185674000Y-117856000D03*
X185674000Y-114554000D03*
X185674000Y-111506000D03*
X185674000Y-108204000D03*
X185674000Y-105156000D03*
X185674000Y-101854000D03*
X185674000Y-98806000D03*
X185674000Y-95504000D03*
X174625000Y-116205000D03*
X174625000Y-113030000D03*
X174625000Y-109855000D03*
X174625000Y-106680000D03*
X130175000Y-114300000D03*
X130175000Y-111125000D03*
X130175000Y-107950000D03*
X120650000Y-119380000D03*
X120650000Y-101600000D03*
X120650000Y-99695000D03*
%TO.N,HIN_C*%
X165100000Y-109855000D03*
%TO.N,LIN_C*%
X163830000Y-105410000D03*
%TO.N,HIN_B*%
X153670000Y-105410000D03*
%TO.N,LIN_B*%
X152400000Y-109855000D03*
%TO.N,LIN_A*%
X142240000Y-109855000D03*
%TO.N,HIN_A*%
X140970000Y-105410000D03*
%TO.N,GND*%
X175895000Y-74930000D03*
X175895000Y-76200000D03*
X178435000Y-76200000D03*
X179705000Y-74930000D03*
X178435000Y-74930000D03*
X177165000Y-74930000D03*
X179705000Y-76200000D03*
X177165000Y-76200000D03*
X156845000Y-74930000D03*
X156845000Y-76200000D03*
X159385000Y-76200000D03*
X160655000Y-74930000D03*
X159385000Y-74930000D03*
X158115000Y-74930000D03*
X160655000Y-76200000D03*
X158115000Y-76200000D03*
X137795000Y-76200000D03*
X139065000Y-76200000D03*
X140335000Y-76200000D03*
X141605000Y-76200000D03*
X141605000Y-74930000D03*
X140335000Y-74930000D03*
X139065000Y-74930000D03*
X137795000Y-74930000D03*
%TO.N,LIN_C*%
X163881676Y-100960775D03*
%TO.N,HIN_C*%
X163881676Y-99699225D03*
%TO.N,Net-(U3-VS)*%
X173990000Y-98425000D03*
X172720000Y-100965000D03*
%TO.N,LIN_B*%
X144831676Y-100960775D03*
%TO.N,HIN_B*%
X144831676Y-99699225D03*
%TO.N,LIN_A*%
X125781676Y-100960775D03*
%TO.N,HIN_A*%
X125781676Y-99699225D03*
%TO.N,Net-(U2-VS)*%
X154305000Y-100965000D03*
X154940000Y-98425000D03*
%TO.N,Net-(U1-VS)*%
X136292500Y-98425000D03*
X135255000Y-100965000D03*
%TO.N,G6*%
X179070000Y-93345000D03*
%TO.N,G4*%
X160020000Y-93345000D03*
%TO.N,G2*%
X140970000Y-93345000D03*
%TO.N,G6*%
X177165000Y-79375000D03*
%TO.N,G4*%
X158260000Y-79230000D03*
%TO.N,G2*%
X139065000Y-79375000D03*
%TD*%
D25*
%TO.N,GND*%
X185712500Y-117817500D02*
X185712500Y-119380000D01*
X120357500Y-85382500D02*
X120357500Y-87105000D01*
X120396000Y-85344000D02*
X120357500Y-85382500D01*
X120357500Y-85305500D02*
X120396000Y-85344000D01*
X120357500Y-88938500D02*
X120357500Y-90455000D01*
X120396000Y-88900000D02*
X120357500Y-88938500D01*
X120357500Y-88861500D02*
X120396000Y-88900000D01*
X120357500Y-91986500D02*
X120357500Y-93345000D01*
X120396000Y-91948000D02*
X120357500Y-91986500D01*
X120357500Y-91909500D02*
X120396000Y-91948000D01*
X120357500Y-95034500D02*
X120357500Y-96520000D01*
X120396000Y-94996000D02*
X120357500Y-95034500D01*
X120357500Y-94957500D02*
X120396000Y-94996000D01*
X120357500Y-106464500D02*
X120357500Y-107950000D01*
X120396000Y-106426000D02*
X120357500Y-106464500D01*
X120357500Y-106387500D02*
X120396000Y-106426000D01*
X120357500Y-109512500D02*
X120357500Y-111125000D01*
X120396000Y-109474000D02*
X120357500Y-109512500D01*
X120357500Y-109435500D02*
X120396000Y-109474000D01*
X120357500Y-112814500D02*
X120357500Y-114300000D01*
X120396000Y-112776000D02*
X120357500Y-112814500D01*
X120357500Y-112737500D02*
X120396000Y-112776000D01*
X120357500Y-115862500D02*
X120357500Y-117425000D01*
X120396000Y-115824000D02*
X120357500Y-115862500D01*
X120357500Y-115785500D02*
X120396000Y-115824000D01*
X185674000Y-117856000D02*
X185712500Y-117894500D01*
X185712500Y-117817500D02*
X185674000Y-117856000D01*
X185712500Y-114592500D02*
X185712500Y-116205000D01*
X185674000Y-114554000D02*
X185712500Y-114592500D01*
X185712500Y-114515500D02*
X185674000Y-114554000D01*
X185712500Y-111544500D02*
X185712500Y-113030000D01*
X185674000Y-111506000D02*
X185712500Y-111544500D01*
X185712500Y-111467500D02*
X185674000Y-111506000D01*
X185712500Y-108242500D02*
X185712500Y-109855000D01*
X185674000Y-108204000D02*
X185712500Y-108242500D01*
X185712500Y-108165500D02*
X185674000Y-108204000D01*
X185712500Y-105194500D02*
X185712500Y-106680000D01*
X185674000Y-105156000D02*
X185712500Y-105194500D01*
X185712500Y-105117500D02*
X185674000Y-105156000D01*
X185712500Y-101892500D02*
X185712500Y-103505000D01*
X185674000Y-101854000D02*
X185712500Y-101892500D01*
X185712500Y-101815500D02*
X185674000Y-101854000D01*
X185712500Y-98844500D02*
X185712500Y-100330000D01*
X185674000Y-98806000D02*
X185712500Y-98844500D01*
X185712500Y-98767500D02*
X185674000Y-98806000D01*
X185712500Y-95542500D02*
X185712500Y-97155000D01*
X185674000Y-95504000D02*
X185712500Y-95542500D01*
X185712500Y-95465500D02*
X185674000Y-95504000D01*
X185712500Y-116205000D02*
X185712500Y-117817500D01*
X185712500Y-113030000D02*
X185712500Y-114515500D01*
X185712500Y-109855000D02*
X185712500Y-111467500D01*
X185712500Y-106680000D02*
X185712500Y-108165500D01*
X185712500Y-103505000D02*
X185712500Y-105117500D01*
X185712500Y-100330000D02*
X185712500Y-101815500D01*
X185712500Y-97155000D02*
X185712500Y-98767500D01*
X185712500Y-93980000D02*
X185712500Y-95465500D01*
X173012500Y-113030000D02*
X173012500Y-116205000D01*
X173012500Y-109855000D02*
X173012500Y-113030000D01*
X173012500Y-106680000D02*
X173012500Y-109855000D01*
X174625000Y-116205000D02*
X173647500Y-116205000D01*
X174625000Y-113030000D02*
X173647500Y-113030000D01*
X174625000Y-109855000D02*
X173647500Y-109855000D01*
X174625000Y-106680000D02*
X176237500Y-106680000D01*
X176237500Y-113030000D02*
X174625000Y-113030000D01*
X176237500Y-109855000D02*
X174625000Y-109855000D01*
X176237500Y-116205000D02*
X176237500Y-113030000D01*
X176237500Y-109855000D02*
X176237500Y-113030000D01*
X176237500Y-106680000D02*
X176237500Y-109855000D01*
X176237500Y-116205000D02*
X174625000Y-116205000D01*
X173647500Y-106680000D02*
X174625000Y-106680000D01*
X130175000Y-114300000D02*
X131445000Y-114300000D01*
X130175000Y-111125000D02*
X131445000Y-111125000D01*
X130175000Y-107950000D02*
X128855000Y-107950000D01*
X120307500Y-119037500D02*
X120650000Y-119380000D01*
X120307500Y-117475000D02*
X120307500Y-119037500D01*
X120357500Y-101307500D02*
X120357500Y-99987500D01*
X120650000Y-101600000D02*
X120357500Y-101307500D01*
X120357500Y-101892500D02*
X120650000Y-101600000D01*
X120357500Y-99402500D02*
X120357500Y-96520000D01*
X120650000Y-99695000D02*
X120357500Y-99402500D01*
X120357500Y-99987500D02*
X120650000Y-99695000D01*
X120357500Y-90455000D02*
X120357500Y-91909500D01*
X120357500Y-87105000D02*
X120357500Y-88861500D01*
X120357500Y-83755000D02*
X120357500Y-85305500D01*
X120357500Y-93345000D02*
X120357500Y-94957500D01*
X120357500Y-104775000D02*
X120357500Y-101892500D01*
X128855000Y-111125000D02*
X130175000Y-111125000D01*
X128855000Y-114300000D02*
X130175000Y-114300000D01*
X131445000Y-114300000D02*
X131445000Y-111125000D01*
X131445000Y-107950000D02*
X131445000Y-111125000D01*
X128855000Y-114300000D02*
X128855000Y-117475000D01*
X128855000Y-111125000D02*
X128855000Y-114300000D01*
X128855000Y-107950000D02*
X128855000Y-111125000D01*
X131445000Y-107950000D02*
X130175000Y-107950000D01*
X131445000Y-104775000D02*
X131445000Y-107950000D01*
X120357500Y-117425000D02*
X120307500Y-117475000D01*
X120357500Y-114300000D02*
X120357500Y-115785500D01*
X120357500Y-111125000D02*
X120357500Y-112737500D01*
X120357500Y-107950000D02*
X120357500Y-109435500D01*
X120357500Y-104775000D02*
X120357500Y-106387500D01*
D26*
%TO.N,HIN_C*%
X165100000Y-112105001D02*
X165100000Y-109855000D01*
%TO.N,LIN_C*%
X163830000Y-107605000D02*
X163830000Y-105410000D01*
%TO.N,LIN_A*%
X142240000Y-109855000D02*
X142240000Y-112105001D01*
%TO.N,HIN_A*%
X140970000Y-105410000D02*
X140970000Y-107605000D01*
%TO.N,HIN_B*%
X153670000Y-105410000D02*
X153670000Y-107605000D01*
%TO.N,LIN_B*%
X152400000Y-112105001D02*
X152400000Y-109855000D01*
%TO.N,LIN_C*%
X163885901Y-100965000D02*
X163881676Y-100960775D01*
X165800000Y-100965000D02*
X163885901Y-100965000D01*
%TO.N,HIN_C*%
X163885901Y-99695000D02*
X163881676Y-99699225D01*
X165800000Y-99695000D02*
X163885901Y-99695000D01*
%TO.N,Net-(U3-VS)*%
X174392500Y-98022500D02*
X173990000Y-98425000D01*
X174392500Y-96520000D02*
X174392500Y-98022500D01*
X170750000Y-100965000D02*
X172720000Y-100965000D01*
%TO.N,Net-(U3-HO)*%
X174905000Y-99695000D02*
X176530000Y-98070000D01*
X170750000Y-99695000D02*
X174905000Y-99695000D01*
%TO.N,Net-(U3-LO)*%
X174905000Y-102235000D02*
X179070000Y-98070000D01*
X170750000Y-102235000D02*
X174905000Y-102235000D01*
%TO.N,Net-(D3-K)*%
X172317500Y-97557500D02*
X172317500Y-96520000D01*
X171450000Y-98425000D02*
X172317500Y-97557500D01*
X170750000Y-98425000D02*
X171450000Y-98425000D01*
X169325000Y-96520000D02*
X172317500Y-96520000D01*
%TO.N,Net-(D3-A)*%
X165800000Y-97090000D02*
X166370000Y-96520000D01*
X165800000Y-98425000D02*
X165800000Y-97090000D01*
X166370000Y-96520000D02*
X167225000Y-96520000D01*
%TO.N,Net-(U3-COM)*%
X163427500Y-102235000D02*
X162560000Y-101367500D01*
X165800000Y-102235000D02*
X163427500Y-102235000D01*
%TO.N,Net-(D3-A)*%
X163427500Y-98425000D02*
X162560000Y-99292500D01*
X165800000Y-98425000D02*
X163427500Y-98425000D01*
%TO.N,LIN_B*%
X144835901Y-100965000D02*
X144831676Y-100960775D01*
X146750000Y-100965000D02*
X144835901Y-100965000D01*
%TO.N,HIN_B*%
X144835901Y-99695000D02*
X144831676Y-99699225D01*
X146750000Y-99695000D02*
X144835901Y-99695000D01*
%TO.N,Net-(U2-COM)*%
X146750000Y-102235000D02*
X144377500Y-102235000D01*
X144377500Y-102235000D02*
X143510000Y-101367500D01*
%TO.N,Net-(D2-A)*%
X144377500Y-98425000D02*
X143510000Y-99292500D01*
X146750000Y-98425000D02*
X144377500Y-98425000D01*
%TO.N,LIN_A*%
X125785901Y-100965000D02*
X125781676Y-100960775D01*
X127700000Y-100965000D02*
X125785901Y-100965000D01*
%TO.N,HIN_A*%
X127700000Y-99695000D02*
X125785901Y-99695000D01*
X125785901Y-99695000D02*
X125781676Y-99699225D01*
%TO.N,Net-(U1-COM)*%
X125327500Y-102235000D02*
X124460000Y-101367500D01*
X127700000Y-102235000D02*
X125327500Y-102235000D01*
%TO.N,Net-(D1-A)*%
X125327500Y-98425000D02*
X124460000Y-99292500D01*
X127700000Y-98425000D02*
X125327500Y-98425000D01*
X128270000Y-96520000D02*
X129125000Y-96520000D01*
X127700000Y-97090000D02*
X128270000Y-96520000D01*
X127700000Y-98425000D02*
X127700000Y-97090000D01*
%TO.N,Net-(D1-K)*%
X131225000Y-96520000D02*
X134217500Y-96520000D01*
%TO.N,Net-(D2-A)*%
X146750000Y-97090000D02*
X147320000Y-96520000D01*
X146750000Y-98425000D02*
X146750000Y-97090000D01*
X147320000Y-96520000D02*
X148175000Y-96520000D01*
%TO.N,Net-(D2-K)*%
X150275000Y-96520000D02*
X153267500Y-96520000D01*
X151700000Y-98425000D02*
X152400000Y-98425000D01*
X152400000Y-98425000D02*
X153267500Y-97557500D01*
X153267500Y-97557500D02*
X153267500Y-96520000D01*
%TO.N,Net-(U2-VS)*%
X155342500Y-98022500D02*
X155342500Y-96520000D01*
X154940000Y-98425000D02*
X155342500Y-98022500D01*
X151700000Y-100965000D02*
X154305000Y-100965000D01*
%TO.N,Net-(U1-VS)*%
X136292500Y-98425000D02*
X136292500Y-96520000D01*
%TO.N,Net-(U2-HO)*%
X155855000Y-99695000D02*
X157480000Y-98070000D01*
X151700000Y-99695000D02*
X155855000Y-99695000D01*
%TO.N,Net-(U2-LO)*%
X155855000Y-102235000D02*
X160020000Y-98070000D01*
X151700000Y-102235000D02*
X155855000Y-102235000D01*
%TO.N,Net-(D1-K)*%
X134217500Y-97557500D02*
X134217500Y-96520000D01*
X132650000Y-98425000D02*
X133350000Y-98425000D01*
X133350000Y-98425000D02*
X134217500Y-97557500D01*
%TO.N,Net-(U1-VS)*%
X132650000Y-100965000D02*
X135255000Y-100965000D01*
%TO.N,Net-(U1-LO)*%
X136805000Y-102235000D02*
X140970000Y-98070000D01*
X132650000Y-102235000D02*
X136805000Y-102235000D01*
%TO.N,Net-(U1-HO)*%
X136805000Y-99695000D02*
X138430000Y-98070000D01*
X132650000Y-99695000D02*
X136805000Y-99695000D01*
D25*
%TO.N,G6*%
X179070000Y-94970000D02*
X179070000Y-93345000D01*
%TO.N,G5*%
X176530000Y-91440000D02*
X177165000Y-90805000D01*
X176530000Y-94970000D02*
X176530000Y-91440000D01*
%TO.N,G4*%
X160020000Y-94970000D02*
X160020000Y-93345000D01*
%TO.N,G3*%
X157480000Y-91585000D02*
X158260000Y-90805000D01*
X157480000Y-94970000D02*
X157480000Y-91585000D01*
%TO.N,G2*%
X140970000Y-94970000D02*
X140970000Y-93345000D01*
%TO.N,G1*%
X138430000Y-91470000D02*
X139095000Y-90805000D01*
X138430000Y-94970000D02*
X138430000Y-91470000D01*
%TO.N,G4*%
X158260000Y-79230000D02*
X158260000Y-78105000D01*
%TO.N,G6*%
X177165000Y-78105000D02*
X177165000Y-79375000D01*
%TO.N,G2*%
X139125000Y-79315000D02*
X139065000Y-79375000D01*
X139125000Y-78105000D02*
X139125000Y-79315000D01*
%TD*%
%TA.AperFunction,Conductor*%
%TO.N,GND*%
G36*
X142183039Y-71774685D02*
G01*
X142228794Y-71827489D01*
X142240000Y-71879000D01*
X142240000Y-76711000D01*
X142220315Y-76778039D01*
X142167511Y-76823794D01*
X142116000Y-76835000D01*
X137284000Y-76835000D01*
X137216961Y-76815315D01*
X137171206Y-76762511D01*
X137160000Y-76711000D01*
X137160000Y-71879000D01*
X137179685Y-71811961D01*
X137232489Y-71766206D01*
X137284000Y-71755000D01*
X142116000Y-71755000D01*
X142183039Y-71774685D01*
G37*
%TD.AperFunction*%
%TD*%
%TA.AperFunction,Conductor*%
%TO.N,GND*%
G36*
X161233039Y-71774685D02*
G01*
X161278794Y-71827489D01*
X161290000Y-71879000D01*
X161290000Y-76711000D01*
X161270315Y-76778039D01*
X161217511Y-76823794D01*
X161166000Y-76835000D01*
X156334000Y-76835000D01*
X156266961Y-76815315D01*
X156221206Y-76762511D01*
X156210000Y-76711000D01*
X156210000Y-71879000D01*
X156229685Y-71811961D01*
X156282489Y-71766206D01*
X156334000Y-71755000D01*
X161166000Y-71755000D01*
X161233039Y-71774685D01*
G37*
%TD.AperFunction*%
%TD*%
%TA.AperFunction,Conductor*%
%TO.N,GND*%
G36*
X180283039Y-71774685D02*
G01*
X180328794Y-71827489D01*
X180340000Y-71879000D01*
X180340000Y-76711000D01*
X180320315Y-76778039D01*
X180267511Y-76823794D01*
X180216000Y-76835000D01*
X175384000Y-76835000D01*
X175316961Y-76815315D01*
X175271206Y-76762511D01*
X175260000Y-76711000D01*
X175260000Y-71879000D01*
X175279685Y-71811961D01*
X175332489Y-71766206D01*
X175384000Y-71755000D01*
X180216000Y-71755000D01*
X180283039Y-71774685D01*
G37*
%TD.AperFunction*%
%TD*%
%TA.AperFunction,Conductor*%
%TO.N,A*%
G36*
X142183039Y-59074685D02*
G01*
X142228794Y-59127489D01*
X142240000Y-59179000D01*
X142240000Y-70361000D01*
X142220315Y-70428039D01*
X142167511Y-70473794D01*
X142116000Y-70485000D01*
X135890000Y-70485000D01*
X135890000Y-77470000D01*
X136223657Y-77470000D01*
X136290696Y-77489685D01*
X136336451Y-77542489D01*
X136346395Y-77611647D01*
X136341363Y-77633003D01*
X136335001Y-77652200D01*
X136335000Y-77652204D01*
X136324500Y-77754983D01*
X136324500Y-78455001D01*
X136324501Y-78455019D01*
X136335000Y-78557796D01*
X136335001Y-78557799D01*
X136390185Y-78724331D01*
X136390186Y-78724334D01*
X136482288Y-78873656D01*
X136606344Y-78997712D01*
X136755666Y-79089814D01*
X136922203Y-79144999D01*
X137024991Y-79155500D01*
X137944515Y-79155499D01*
X138011554Y-79175183D01*
X138057309Y-79227987D01*
X138068157Y-79288913D01*
X138059662Y-79400473D01*
X138059662Y-79400477D01*
X138085368Y-79602321D01*
X138085370Y-79602329D01*
X138151183Y-79794870D01*
X138151189Y-79794882D01*
X138254406Y-79970221D01*
X138254411Y-79970228D01*
X138390820Y-80121212D01*
X138554828Y-80241646D01*
X138554832Y-80241648D01*
X138554833Y-80241649D01*
X138739732Y-80326605D01*
X138805456Y-80341857D01*
X138937945Y-80372603D01*
X139141358Y-80377757D01*
X139141358Y-80377756D01*
X139141363Y-80377757D01*
X139320852Y-80345586D01*
X139341648Y-80341859D01*
X139341648Y-80341858D01*
X139341653Y-80341858D01*
X139530617Y-80266377D01*
X139568138Y-80241649D01*
X139700516Y-80154404D01*
X139700516Y-80154403D01*
X139700519Y-80154402D01*
X139761995Y-80092925D01*
X139823473Y-80031448D01*
X139843986Y-80011947D01*
X139888053Y-79970059D01*
X139923099Y-79919706D01*
X139925938Y-79915941D01*
X139929612Y-79911435D01*
X139964698Y-79868407D01*
X139980601Y-79837960D01*
X139984674Y-79831239D01*
X139989489Y-79824320D01*
X140004295Y-79803049D01*
X140028492Y-79746660D01*
X140030498Y-79742435D01*
X140058909Y-79688049D01*
X140068360Y-79655015D01*
X140070991Y-79647628D01*
X140084540Y-79616058D01*
X140096893Y-79555940D01*
X140098006Y-79551412D01*
X140114887Y-79492418D01*
X140117495Y-79458155D01*
X140118587Y-79450376D01*
X140125500Y-79416739D01*
X140125500Y-79355401D01*
X140125679Y-79350692D01*
X140130337Y-79289524D01*
X140130178Y-79283242D01*
X140132971Y-79283171D01*
X140142127Y-79226146D01*
X140188741Y-79174099D01*
X140254062Y-79155499D01*
X141225002Y-79155499D01*
X141225008Y-79155499D01*
X141327797Y-79144999D01*
X141494334Y-79089814D01*
X141643656Y-78997712D01*
X141767712Y-78873656D01*
X141859814Y-78724334D01*
X141914999Y-78557797D01*
X141925500Y-78455009D01*
X141925499Y-77754992D01*
X141914999Y-77652203D01*
X141914998Y-77652200D01*
X141914997Y-77652195D01*
X141908638Y-77633005D01*
X141906235Y-77563177D01*
X141941966Y-77503135D01*
X142004486Y-77471942D01*
X142026343Y-77470000D01*
X142116000Y-77470000D01*
X142183039Y-77489685D01*
X142228794Y-77542489D01*
X142240000Y-77594000D01*
X142240000Y-89411000D01*
X142220315Y-89478039D01*
X142167511Y-89523794D01*
X142116000Y-89535000D01*
X136014000Y-89535000D01*
X135946961Y-89515315D01*
X135901206Y-89462511D01*
X135890000Y-89411000D01*
X135890000Y-81280000D01*
X119504000Y-81280000D01*
X119436961Y-81260315D01*
X119391206Y-81207511D01*
X119380000Y-81156000D01*
X119380000Y-59179000D01*
X119399685Y-59111961D01*
X119452489Y-59066206D01*
X119504000Y-59055000D01*
X142116000Y-59055000D01*
X142183039Y-59074685D01*
G37*
%TD.AperFunction*%
%TD*%
%TA.AperFunction,Conductor*%
%TO.N,B*%
G36*
X161233039Y-59074685D02*
G01*
X161278794Y-59127489D01*
X161290000Y-59179000D01*
X161290000Y-70361000D01*
X161270315Y-70428039D01*
X161217511Y-70473794D01*
X161166000Y-70485000D01*
X154940000Y-70485000D01*
X154939999Y-77469999D01*
X154940000Y-77470000D01*
X155358657Y-77470000D01*
X155425696Y-77489685D01*
X155471451Y-77542489D01*
X155481395Y-77611647D01*
X155476363Y-77633003D01*
X155470001Y-77652200D01*
X155470000Y-77652204D01*
X155459500Y-77754983D01*
X155459500Y-78455001D01*
X155459501Y-78455019D01*
X155470000Y-78557796D01*
X155470001Y-78557799D01*
X155484630Y-78601945D01*
X155525186Y-78724334D01*
X155617288Y-78873656D01*
X155741344Y-78997712D01*
X155890666Y-79089814D01*
X156057203Y-79144999D01*
X156159991Y-79155500D01*
X157135500Y-79155499D01*
X157202539Y-79175183D01*
X157248294Y-79227987D01*
X157259091Y-79277622D01*
X157259141Y-79277620D01*
X157259182Y-79277616D01*
X157259182Y-79277618D01*
X157259341Y-79277610D01*
X157259417Y-79279119D01*
X157259500Y-79279499D01*
X157259500Y-79280743D01*
X157274925Y-79432439D01*
X157335837Y-79626579D01*
X157335844Y-79626594D01*
X157434589Y-79804499D01*
X157434592Y-79804504D01*
X157567132Y-79958893D01*
X157567134Y-79958895D01*
X157728037Y-80083445D01*
X157728038Y-80083445D01*
X157728042Y-80083448D01*
X157910729Y-80173060D01*
X158107715Y-80224063D01*
X158310936Y-80234369D01*
X158512071Y-80203556D01*
X158702887Y-80132886D01*
X158875571Y-80025252D01*
X159023053Y-79885059D01*
X159139295Y-79718049D01*
X159219540Y-79531058D01*
X159260500Y-79331741D01*
X159260500Y-79279498D01*
X159280185Y-79212460D01*
X159332989Y-79166705D01*
X159384500Y-79155499D01*
X160360002Y-79155499D01*
X160360008Y-79155499D01*
X160462797Y-79144999D01*
X160629334Y-79089814D01*
X160778656Y-78997712D01*
X160902712Y-78873656D01*
X160994814Y-78724334D01*
X161048294Y-78562939D01*
X161088067Y-78505496D01*
X161152582Y-78478673D01*
X161221358Y-78490988D01*
X161272558Y-78538531D01*
X161290000Y-78601945D01*
X161290000Y-89411000D01*
X161270315Y-89478039D01*
X161217511Y-89523794D01*
X161166000Y-89535000D01*
X155064000Y-89535000D01*
X154996961Y-89515315D01*
X154951206Y-89462511D01*
X154940000Y-89411000D01*
X154940000Y-81280000D01*
X143634000Y-81280000D01*
X143566961Y-81260315D01*
X143521206Y-81207511D01*
X143510000Y-81156000D01*
X143510000Y-59179000D01*
X143529685Y-59111961D01*
X143582489Y-59066206D01*
X143634000Y-59055000D01*
X161166000Y-59055000D01*
X161233039Y-59074685D01*
G37*
%TD.AperFunction*%
%TD*%
%TA.AperFunction,Conductor*%
%TO.N,C*%
G36*
X186633039Y-59074685D02*
G01*
X186678794Y-59127489D01*
X186690000Y-59179000D01*
X186690000Y-70361000D01*
X186670315Y-70428039D01*
X186617511Y-70473794D01*
X186566000Y-70485000D01*
X173990000Y-70485000D01*
X173990000Y-77470000D01*
X174263657Y-77470000D01*
X174330696Y-77489685D01*
X174376451Y-77542489D01*
X174386395Y-77611647D01*
X174381363Y-77633003D01*
X174375001Y-77652200D01*
X174375000Y-77652204D01*
X174364500Y-77754983D01*
X174364500Y-78455001D01*
X174364501Y-78455019D01*
X174375000Y-78557796D01*
X174375001Y-78557799D01*
X174430185Y-78724331D01*
X174430186Y-78724334D01*
X174522288Y-78873656D01*
X174646344Y-78997712D01*
X174795666Y-79089814D01*
X174962203Y-79144999D01*
X175064991Y-79155500D01*
X176040500Y-79155499D01*
X176107539Y-79175183D01*
X176153294Y-79227987D01*
X176164500Y-79279499D01*
X176164500Y-79425743D01*
X176179925Y-79577439D01*
X176240837Y-79771579D01*
X176240844Y-79771594D01*
X176339589Y-79949499D01*
X176339592Y-79949504D01*
X176472132Y-80103893D01*
X176472134Y-80103895D01*
X176633037Y-80228445D01*
X176633038Y-80228445D01*
X176633042Y-80228448D01*
X176815729Y-80318060D01*
X177012715Y-80369063D01*
X177215936Y-80379369D01*
X177417071Y-80348556D01*
X177607887Y-80277886D01*
X177780571Y-80170252D01*
X177928053Y-80030059D01*
X178044295Y-79863049D01*
X178124540Y-79676058D01*
X178165500Y-79476741D01*
X178165500Y-79279499D01*
X178185185Y-79212460D01*
X178237989Y-79166705D01*
X178289500Y-79155499D01*
X179265002Y-79155499D01*
X179265008Y-79155499D01*
X179367797Y-79144999D01*
X179534334Y-79089814D01*
X179683656Y-78997712D01*
X179807712Y-78873656D01*
X179899814Y-78724334D01*
X179954999Y-78557797D01*
X179965500Y-78455009D01*
X179965499Y-77754992D01*
X179954999Y-77652203D01*
X179954998Y-77652200D01*
X179954997Y-77652195D01*
X179948638Y-77633005D01*
X179946235Y-77563177D01*
X179981966Y-77503135D01*
X180044486Y-77471942D01*
X180066343Y-77470000D01*
X186566000Y-77470000D01*
X186633039Y-77489685D01*
X186678794Y-77542489D01*
X186690000Y-77594000D01*
X186690000Y-89411000D01*
X186670315Y-89478039D01*
X186617511Y-89523794D01*
X186566000Y-89535000D01*
X174114000Y-89535000D01*
X174046961Y-89515315D01*
X174001206Y-89462511D01*
X173990000Y-89411000D01*
X173990000Y-81280000D01*
X162684000Y-81280000D01*
X162616961Y-81260315D01*
X162571206Y-81207511D01*
X162560000Y-81156000D01*
X162560000Y-59179000D01*
X162579685Y-59111961D01*
X162632489Y-59066206D01*
X162684000Y-59055000D01*
X186566000Y-59055000D01*
X186633039Y-59074685D01*
G37*
%TD.AperFunction*%
%TD*%
%TA.AperFunction,Conductor*%
%TO.N,+24V*%
G36*
X134563039Y-82569685D02*
G01*
X134608794Y-82622489D01*
X134620000Y-82674000D01*
X134620000Y-90805000D01*
X136170501Y-90805000D01*
X136237540Y-90824685D01*
X136283295Y-90877489D01*
X136294501Y-90929000D01*
X136294501Y-91155018D01*
X136305000Y-91257796D01*
X136305001Y-91257799D01*
X136360185Y-91424331D01*
X136360186Y-91424334D01*
X136452288Y-91573656D01*
X136576344Y-91697712D01*
X136725666Y-91789814D01*
X136892203Y-91844999D01*
X136994991Y-91855500D01*
X137305500Y-91855499D01*
X137372539Y-91875183D01*
X137418294Y-91927987D01*
X137429500Y-91979499D01*
X137429500Y-93850621D01*
X137409815Y-93917660D01*
X137370599Y-93956158D01*
X137336346Y-93977285D01*
X137212289Y-94101342D01*
X137120187Y-94250663D01*
X137120185Y-94250666D01*
X137120186Y-94250666D01*
X137065001Y-94417203D01*
X137065001Y-94417204D01*
X137065000Y-94417204D01*
X137054500Y-94519983D01*
X137054500Y-95223315D01*
X137034815Y-95290354D01*
X136982011Y-95336109D01*
X136912853Y-95346053D01*
X136891502Y-95341022D01*
X136782797Y-95305001D01*
X136782795Y-95305000D01*
X136680010Y-95294500D01*
X135904998Y-95294500D01*
X135904980Y-95294501D01*
X135802203Y-95305000D01*
X135802200Y-95305001D01*
X135635668Y-95360185D01*
X135635663Y-95360187D01*
X135486342Y-95452289D01*
X135362285Y-95576346D01*
X135360537Y-95579182D01*
X135358829Y-95580717D01*
X135357807Y-95582011D01*
X135357585Y-95581836D01*
X135308589Y-95625905D01*
X135239626Y-95637126D01*
X135175544Y-95609282D01*
X135149463Y-95579182D01*
X135147714Y-95576346D01*
X135023657Y-95452289D01*
X135023656Y-95452288D01*
X134901508Y-95376947D01*
X134874336Y-95360187D01*
X134874331Y-95360185D01*
X134849793Y-95352054D01*
X134707797Y-95305001D01*
X134707795Y-95305000D01*
X134605010Y-95294500D01*
X133829998Y-95294500D01*
X133829980Y-95294501D01*
X133727203Y-95305000D01*
X133727200Y-95305001D01*
X133560668Y-95360185D01*
X133560663Y-95360187D01*
X133411342Y-95452289D01*
X133287289Y-95576342D01*
X133266972Y-95609282D01*
X133217595Y-95689336D01*
X133204481Y-95710597D01*
X133152533Y-95757321D01*
X133098942Y-95769500D01*
X131181291Y-95769500D01*
X131050745Y-95784759D01*
X131050743Y-95784759D01*
X131050739Y-95784760D01*
X131044516Y-95787025D01*
X131002119Y-95794500D01*
X130975596Y-95794501D01*
X130940847Y-95797234D01*
X130940843Y-95797235D01*
X130940844Y-95797235D01*
X130792113Y-95840445D01*
X130792111Y-95840445D01*
X130792111Y-95840446D01*
X130658805Y-95919282D01*
X130658796Y-95919289D01*
X130549289Y-96028796D01*
X130549282Y-96028805D01*
X130470446Y-96162111D01*
X130470445Y-96162113D01*
X130463602Y-96185668D01*
X130427234Y-96310847D01*
X130427234Y-96310849D01*
X130424500Y-96345593D01*
X130424501Y-96694405D01*
X130427234Y-96729152D01*
X130427234Y-96729155D01*
X130427235Y-96729156D01*
X130470445Y-96877887D01*
X130499825Y-96927565D01*
X130549282Y-97011194D01*
X130549289Y-97011203D01*
X130658796Y-97120710D01*
X130658800Y-97120713D01*
X130658802Y-97120715D01*
X130792113Y-97199555D01*
X130940844Y-97242765D01*
X130960701Y-97244327D01*
X130975592Y-97245500D01*
X130975594Y-97245499D01*
X130975595Y-97245500D01*
X131017302Y-97245499D01*
X131045901Y-97248842D01*
X131137273Y-97270499D01*
X131137276Y-97270499D01*
X131137279Y-97270500D01*
X133098943Y-97270500D01*
X133165982Y-97290185D01*
X133204481Y-97329404D01*
X133217597Y-97350668D01*
X133221583Y-97357131D01*
X133240022Y-97424524D01*
X133219098Y-97491187D01*
X133203725Y-97509905D01*
X133125452Y-97588180D01*
X133064130Y-97621666D01*
X133037770Y-97624500D01*
X131759304Y-97624500D01*
X131722432Y-97627401D01*
X131722426Y-97627402D01*
X131564606Y-97673254D01*
X131564603Y-97673255D01*
X131423137Y-97756917D01*
X131423129Y-97756923D01*
X131306923Y-97873129D01*
X131306917Y-97873137D01*
X131223255Y-98014603D01*
X131223254Y-98014606D01*
X131177402Y-98172426D01*
X131177401Y-98172432D01*
X131174500Y-98209304D01*
X131174500Y-98640696D01*
X131177401Y-98677567D01*
X131177402Y-98677573D01*
X131223254Y-98835393D01*
X131223255Y-98835396D01*
X131306917Y-98976862D01*
X131311702Y-98983031D01*
X131309256Y-98984927D01*
X131335857Y-99033642D01*
X131330873Y-99103334D01*
X131310069Y-99135703D01*
X131311702Y-99136969D01*
X131306917Y-99143137D01*
X131223255Y-99284603D01*
X131223254Y-99284606D01*
X131177402Y-99442426D01*
X131177401Y-99442432D01*
X131174500Y-99479304D01*
X131174500Y-99910696D01*
X131177401Y-99947567D01*
X131177402Y-99947573D01*
X131223254Y-100105393D01*
X131223255Y-100105396D01*
X131306917Y-100246862D01*
X131311702Y-100253031D01*
X131309256Y-100254927D01*
X131335857Y-100303642D01*
X131330873Y-100373334D01*
X131310069Y-100405703D01*
X131311702Y-100406969D01*
X131306917Y-100413137D01*
X131223255Y-100554603D01*
X131223254Y-100554606D01*
X131177402Y-100712426D01*
X131177401Y-100712432D01*
X131174500Y-100749304D01*
X131174500Y-101180696D01*
X131177401Y-101217567D01*
X131177402Y-101217573D01*
X131223254Y-101375393D01*
X131223255Y-101375396D01*
X131306917Y-101516862D01*
X131311702Y-101523031D01*
X131309256Y-101524927D01*
X131335857Y-101573642D01*
X131330873Y-101643334D01*
X131310069Y-101675703D01*
X131311702Y-101676969D01*
X131306917Y-101683137D01*
X131223255Y-101824603D01*
X131223254Y-101824606D01*
X131177402Y-101982426D01*
X131177401Y-101982432D01*
X131174500Y-102019304D01*
X131174500Y-102450696D01*
X131177401Y-102487567D01*
X131177402Y-102487573D01*
X131223254Y-102645393D01*
X131223255Y-102645396D01*
X131306917Y-102786862D01*
X131306923Y-102786870D01*
X131423129Y-102903076D01*
X131423133Y-102903079D01*
X131423135Y-102903081D01*
X131564602Y-102986744D01*
X131576804Y-102990289D01*
X131722426Y-103032597D01*
X131722429Y-103032597D01*
X131722431Y-103032598D01*
X131734722Y-103033565D01*
X131759304Y-103035500D01*
X131759306Y-103035500D01*
X133540696Y-103035500D01*
X133559131Y-103034049D01*
X133577569Y-103032598D01*
X133577571Y-103032597D01*
X133577573Y-103032597D01*
X133722733Y-102990424D01*
X133757328Y-102985500D01*
X136741295Y-102985500D01*
X136759265Y-102986809D01*
X136783023Y-102990289D01*
X136835068Y-102985735D01*
X136840470Y-102985500D01*
X136848704Y-102985500D01*
X136848709Y-102985500D01*
X136860327Y-102984141D01*
X136881276Y-102981693D01*
X136894028Y-102980577D01*
X136957797Y-102974999D01*
X136957805Y-102974996D01*
X136964866Y-102973539D01*
X136964878Y-102973598D01*
X136972243Y-102971965D01*
X136972229Y-102971906D01*
X136979246Y-102970241D01*
X136979255Y-102970241D01*
X137051423Y-102943974D01*
X137124334Y-102919814D01*
X137124343Y-102919807D01*
X137130882Y-102916760D01*
X137130908Y-102916816D01*
X137137690Y-102913532D01*
X137137663Y-102913478D01*
X137144106Y-102910240D01*
X137144117Y-102910237D01*
X137208283Y-102868034D01*
X137273656Y-102827712D01*
X137273662Y-102827705D01*
X137279325Y-102823229D01*
X137279362Y-102823277D01*
X137285204Y-102818518D01*
X137285164Y-102818471D01*
X137290691Y-102813832D01*
X137290696Y-102813830D01*
X137312456Y-102790766D01*
X137343386Y-102757981D01*
X140844548Y-99256818D01*
X140905871Y-99223333D01*
X140932229Y-99220499D01*
X141645002Y-99220499D01*
X141645008Y-99220499D01*
X141747797Y-99209999D01*
X141914334Y-99154814D01*
X142063656Y-99062712D01*
X142072818Y-99053549D01*
X142134138Y-99020064D01*
X142203829Y-99025046D01*
X142259765Y-99066915D01*
X142284184Y-99132379D01*
X142284500Y-99141229D01*
X142284500Y-99680001D01*
X142284501Y-99680019D01*
X142295000Y-99782796D01*
X142295001Y-99782799D01*
X142350185Y-99949331D01*
X142350187Y-99949336D01*
X142442289Y-100098657D01*
X142566346Y-100222714D01*
X142569182Y-100224463D01*
X142570717Y-100226170D01*
X142572011Y-100227193D01*
X142571836Y-100227414D01*
X142615905Y-100276411D01*
X142627126Y-100345374D01*
X142599282Y-100409456D01*
X142569182Y-100435537D01*
X142566346Y-100437285D01*
X142442289Y-100561342D01*
X142350187Y-100710663D01*
X142350185Y-100710668D01*
X142337382Y-100749306D01*
X142295001Y-100877203D01*
X142295001Y-100877204D01*
X142295000Y-100877204D01*
X142284500Y-100979983D01*
X142284500Y-101755001D01*
X142284501Y-101755019D01*
X142295000Y-101857796D01*
X142295001Y-101857799D01*
X142348519Y-102019304D01*
X142350186Y-102024334D01*
X142442288Y-102173656D01*
X142566344Y-102297712D01*
X142715666Y-102389814D01*
X142882203Y-102444999D01*
X142984991Y-102455500D01*
X143485269Y-102455499D01*
X143552308Y-102475183D01*
X143572950Y-102491818D01*
X143801769Y-102720637D01*
X143813549Y-102734268D01*
X143827889Y-102753530D01*
X143827891Y-102753532D01*
X143867909Y-102787110D01*
X143871899Y-102790766D01*
X143877720Y-102796587D01*
X143877722Y-102796590D01*
X143888349Y-102804992D01*
X143903444Y-102816927D01*
X143962286Y-102866302D01*
X143962294Y-102866306D01*
X143968324Y-102870273D01*
X143968290Y-102870323D01*
X143974637Y-102874366D01*
X143974669Y-102874316D01*
X143980818Y-102878108D01*
X143980820Y-102878109D01*
X143980823Y-102878111D01*
X144050430Y-102910569D01*
X144119067Y-102945040D01*
X144119076Y-102945042D01*
X144125855Y-102947510D01*
X144125834Y-102947567D01*
X144132951Y-102950040D01*
X144132970Y-102949984D01*
X144139830Y-102952257D01*
X144215032Y-102967783D01*
X144215032Y-102967784D01*
X144289779Y-102985500D01*
X144289788Y-102985500D01*
X144296952Y-102986338D01*
X144296945Y-102986397D01*
X144304446Y-102987163D01*
X144304452Y-102987104D01*
X144311640Y-102987733D01*
X144311643Y-102987732D01*
X144311644Y-102987733D01*
X144388398Y-102985500D01*
X145642672Y-102985500D01*
X145677267Y-102990424D01*
X145822426Y-103032597D01*
X145822429Y-103032597D01*
X145822431Y-103032598D01*
X145834722Y-103033565D01*
X145859304Y-103035500D01*
X145859306Y-103035500D01*
X147640696Y-103035500D01*
X147659131Y-103034049D01*
X147677569Y-103032598D01*
X147677571Y-103032597D01*
X147677573Y-103032597D01*
X147719191Y-103020505D01*
X147835398Y-102986744D01*
X147976865Y-102903081D01*
X148093081Y-102786865D01*
X148176744Y-102645398D01*
X148222598Y-102487569D01*
X148225500Y-102450694D01*
X148225500Y-102019306D01*
X148222598Y-101982431D01*
X148176744Y-101824602D01*
X148093081Y-101683135D01*
X148093078Y-101683132D01*
X148088298Y-101676969D01*
X148090750Y-101675066D01*
X148064155Y-101626421D01*
X148069104Y-101556726D01*
X148089940Y-101524304D01*
X148088298Y-101523031D01*
X148093075Y-101516870D01*
X148093081Y-101516865D01*
X148176744Y-101375398D01*
X148222598Y-101217569D01*
X148225500Y-101180694D01*
X148225500Y-100749306D01*
X148222598Y-100712431D01*
X148222085Y-100710666D01*
X148176745Y-100554606D01*
X148176744Y-100554603D01*
X148176744Y-100554602D01*
X148093081Y-100413135D01*
X148093078Y-100413132D01*
X148088298Y-100406969D01*
X148090742Y-100405072D01*
X148064142Y-100356357D01*
X148069126Y-100286665D01*
X148089944Y-100254307D01*
X148088298Y-100253031D01*
X148093075Y-100246870D01*
X148093081Y-100246865D01*
X148176744Y-100105398D01*
X148222598Y-99947569D01*
X148225500Y-99910694D01*
X148225500Y-99479306D01*
X148222598Y-99442431D01*
X148198843Y-99360668D01*
X148176745Y-99284606D01*
X148176744Y-99284603D01*
X148176744Y-99284602D01*
X148093081Y-99143135D01*
X148093078Y-99143132D01*
X148088298Y-99136969D01*
X148090750Y-99135066D01*
X148064155Y-99086421D01*
X148069104Y-99016726D01*
X148089940Y-98984304D01*
X148088298Y-98983031D01*
X148093075Y-98976870D01*
X148093081Y-98976865D01*
X148176744Y-98835398D01*
X148222198Y-98678946D01*
X148222597Y-98677573D01*
X148222598Y-98677567D01*
X148225500Y-98640696D01*
X148225500Y-98209304D01*
X148222598Y-98172432D01*
X148222597Y-98172426D01*
X148176745Y-98014606D01*
X148176744Y-98014603D01*
X148176744Y-98014602D01*
X148093081Y-97873135D01*
X148093079Y-97873133D01*
X148093076Y-97873129D01*
X147976870Y-97756923D01*
X147976862Y-97756917D01*
X147860393Y-97688038D01*
X147835398Y-97673256D01*
X147835397Y-97673255D01*
X147835396Y-97673255D01*
X147835393Y-97673254D01*
X147677573Y-97627402D01*
X147677567Y-97627401D01*
X147640696Y-97624500D01*
X147640694Y-97624500D01*
X147624500Y-97624500D01*
X147557461Y-97604815D01*
X147511706Y-97552011D01*
X147500500Y-97500500D01*
X147500500Y-97452230D01*
X147520185Y-97385191D01*
X147536819Y-97364549D01*
X147594549Y-97306819D01*
X147655872Y-97273334D01*
X147682230Y-97270500D01*
X148218701Y-97270500D01*
X148218709Y-97270500D01*
X148349255Y-97255241D01*
X148355472Y-97252978D01*
X148397885Y-97245499D01*
X148424405Y-97245499D01*
X148431354Y-97244952D01*
X148459156Y-97242765D01*
X148607887Y-97199555D01*
X148741198Y-97120715D01*
X148850715Y-97011198D01*
X148929555Y-96877887D01*
X148972765Y-96729156D01*
X148975500Y-96694405D01*
X148975499Y-96345596D01*
X148972765Y-96310844D01*
X148929555Y-96162113D01*
X148850715Y-96028802D01*
X148850713Y-96028800D01*
X148850710Y-96028796D01*
X148741203Y-95919289D01*
X148741194Y-95919282D01*
X148660111Y-95871330D01*
X148607887Y-95840445D01*
X148459156Y-95797235D01*
X148459153Y-95797234D01*
X148459151Y-95797234D01*
X148424407Y-95794500D01*
X148424405Y-95794500D01*
X148382695Y-95794500D01*
X148354098Y-95791157D01*
X148262722Y-95769500D01*
X148262721Y-95769500D01*
X147383705Y-95769500D01*
X147365735Y-95768191D01*
X147341972Y-95764710D01*
X147296533Y-95768686D01*
X147289931Y-95769264D01*
X147284530Y-95769500D01*
X147276289Y-95769500D01*
X147254579Y-95772037D01*
X147243724Y-95773306D01*
X147228419Y-95774645D01*
X147167199Y-95780001D01*
X147160132Y-95781460D01*
X147160120Y-95781404D01*
X147152763Y-95783035D01*
X147152777Y-95783092D01*
X147145743Y-95784759D01*
X147073575Y-95811025D01*
X147000675Y-95835181D01*
X146994126Y-95838236D01*
X146994101Y-95838183D01*
X146987308Y-95841471D01*
X146987334Y-95841523D01*
X146980880Y-95844764D01*
X146916708Y-95886971D01*
X146851347Y-95927285D01*
X146845683Y-95931765D01*
X146845647Y-95931719D01*
X146839798Y-95936484D01*
X146839835Y-95936528D01*
X146834310Y-95941164D01*
X146781599Y-95997033D01*
X146264358Y-96514272D01*
X146250729Y-96526051D01*
X146231468Y-96540390D01*
X146197898Y-96580397D01*
X146194253Y-96584376D01*
X146188409Y-96590222D01*
X146168059Y-96615959D01*
X146118695Y-96674789D01*
X146114729Y-96680819D01*
X146114682Y-96680788D01*
X146110630Y-96687147D01*
X146110679Y-96687177D01*
X146106889Y-96693321D01*
X146074424Y-96762941D01*
X146039960Y-96831566D01*
X146037488Y-96838357D01*
X146037432Y-96838336D01*
X146034960Y-96845450D01*
X146035015Y-96845469D01*
X146032742Y-96852327D01*
X146027465Y-96877887D01*
X146017207Y-96927565D01*
X146007524Y-96968422D01*
X145999498Y-97002286D01*
X145998661Y-97009454D01*
X145998601Y-97009447D01*
X145997835Y-97016945D01*
X145997895Y-97016951D01*
X145997265Y-97024140D01*
X145999500Y-97100916D01*
X145999500Y-97500500D01*
X145979815Y-97567539D01*
X145927011Y-97613294D01*
X145875500Y-97624500D01*
X145859304Y-97624500D01*
X145822432Y-97627401D01*
X145822426Y-97627402D01*
X145677267Y-97669576D01*
X145642672Y-97674500D01*
X144441205Y-97674500D01*
X144423235Y-97673191D01*
X144399472Y-97669710D01*
X144354390Y-97673655D01*
X144347433Y-97674264D01*
X144342032Y-97674500D01*
X144333787Y-97674500D01*
X144307722Y-97677546D01*
X144301205Y-97678308D01*
X144295903Y-97678771D01*
X144224701Y-97685001D01*
X144217634Y-97686461D01*
X144217622Y-97686404D01*
X144210253Y-97688038D01*
X144210267Y-97688095D01*
X144203239Y-97689760D01*
X144131067Y-97716027D01*
X144131068Y-97716028D01*
X144058165Y-97740186D01*
X144058163Y-97740186D01*
X144058160Y-97740188D01*
X144051623Y-97743236D01*
X144051598Y-97743184D01*
X144044810Y-97746470D01*
X144044836Y-97746521D01*
X144038385Y-97749761D01*
X143974223Y-97791961D01*
X143908846Y-97832285D01*
X143903182Y-97836765D01*
X143903146Y-97836719D01*
X143897298Y-97841484D01*
X143897335Y-97841528D01*
X143891810Y-97846164D01*
X143891804Y-97846169D01*
X143891804Y-97846170D01*
X143855576Y-97884569D01*
X143839114Y-97902017D01*
X143572949Y-98168181D01*
X143511626Y-98201666D01*
X143485268Y-98204500D01*
X142984998Y-98204500D01*
X142984980Y-98204501D01*
X142882203Y-98215000D01*
X142882200Y-98215001D01*
X142715668Y-98270185D01*
X142715663Y-98270187D01*
X142566341Y-98362289D01*
X142557177Y-98371454D01*
X142495853Y-98404937D01*
X142426161Y-98399950D01*
X142370229Y-98358077D01*
X142345815Y-98292612D01*
X142345499Y-98283790D01*
X142345499Y-97619992D01*
X142344208Y-97607358D01*
X142334999Y-97517203D01*
X142334998Y-97517200D01*
X142304288Y-97424524D01*
X142279814Y-97350666D01*
X142187712Y-97201344D01*
X142063656Y-97077288D01*
X141956515Y-97011203D01*
X141914336Y-96985187D01*
X141914331Y-96985185D01*
X141912862Y-96984698D01*
X141747797Y-96930001D01*
X141747795Y-96930000D01*
X141645010Y-96919500D01*
X140294998Y-96919500D01*
X140294981Y-96919501D01*
X140192203Y-96930000D01*
X140192200Y-96930001D01*
X140025668Y-96985185D01*
X140025663Y-96985187D01*
X139876342Y-97077289D01*
X139787681Y-97165951D01*
X139726358Y-97199436D01*
X139656666Y-97194452D01*
X139612319Y-97165951D01*
X139523657Y-97077289D01*
X139523656Y-97077288D01*
X139416515Y-97011203D01*
X139374336Y-96985187D01*
X139374331Y-96985185D01*
X139372862Y-96984698D01*
X139207797Y-96930001D01*
X139207795Y-96930000D01*
X139105010Y-96919500D01*
X137754998Y-96919500D01*
X137754981Y-96919501D01*
X137652203Y-96930000D01*
X137652199Y-96930001D01*
X137543503Y-96966020D01*
X137473674Y-96968422D01*
X137413632Y-96932690D01*
X137382440Y-96870169D01*
X137380499Y-96848323D01*
X137380499Y-96191683D01*
X137400184Y-96124645D01*
X137452988Y-96078890D01*
X137522146Y-96068946D01*
X137543486Y-96073973D01*
X137652203Y-96109999D01*
X137754991Y-96120500D01*
X139105008Y-96120499D01*
X139207797Y-96109999D01*
X139374334Y-96054814D01*
X139523656Y-95962712D01*
X139612319Y-95874049D01*
X139673642Y-95840564D01*
X139743334Y-95845548D01*
X139787681Y-95874048D01*
X139876344Y-95962712D01*
X140025666Y-96054814D01*
X140192203Y-96109999D01*
X140294991Y-96120500D01*
X141645008Y-96120499D01*
X141747797Y-96109999D01*
X141914334Y-96054814D01*
X142063656Y-95962712D01*
X142187712Y-95838656D01*
X142279814Y-95689334D01*
X142334999Y-95522797D01*
X142345500Y-95420009D01*
X142345499Y-94519992D01*
X142334999Y-94417203D01*
X142279814Y-94250666D01*
X142187712Y-94101344D01*
X142063656Y-93977288D01*
X142063653Y-93977285D01*
X142029401Y-93956158D01*
X141982678Y-93904210D01*
X141970500Y-93850621D01*
X141970500Y-93294256D01*
X141955074Y-93142560D01*
X141894162Y-92948420D01*
X141894160Y-92948416D01*
X141894159Y-92948412D01*
X141795409Y-92770498D01*
X141795408Y-92770497D01*
X141795407Y-92770495D01*
X141662867Y-92616106D01*
X141662865Y-92616104D01*
X141501962Y-92491554D01*
X141501959Y-92491553D01*
X141501958Y-92491552D01*
X141319271Y-92401940D01*
X141122285Y-92350937D01*
X141122287Y-92350937D01*
X140986804Y-92344066D01*
X140919064Y-92340631D01*
X140919063Y-92340631D01*
X140919061Y-92340631D01*
X140717936Y-92371442D01*
X140717924Y-92371445D01*
X140527118Y-92442111D01*
X140527111Y-92442115D01*
X140354432Y-92549745D01*
X140354427Y-92549749D01*
X140206949Y-92689938D01*
X140206948Y-92689940D01*
X140090705Y-92856949D01*
X140010459Y-93043943D01*
X139969500Y-93243258D01*
X139969500Y-93850621D01*
X139949815Y-93917660D01*
X139910599Y-93956158D01*
X139876346Y-93977285D01*
X139876343Y-93977288D01*
X139787681Y-94065951D01*
X139726358Y-94099436D01*
X139656666Y-94094452D01*
X139612319Y-94065951D01*
X139523653Y-93977285D01*
X139489401Y-93956158D01*
X139442678Y-93904210D01*
X139430500Y-93850621D01*
X139430500Y-91979499D01*
X139450185Y-91912460D01*
X139502989Y-91866705D01*
X139554500Y-91855499D01*
X141195002Y-91855499D01*
X141195008Y-91855499D01*
X141297797Y-91844999D01*
X141464334Y-91789814D01*
X141613656Y-91697712D01*
X141737712Y-91573656D01*
X141829814Y-91424334D01*
X141884999Y-91257797D01*
X141895500Y-91155009D01*
X141895499Y-90928998D01*
X141915183Y-90861961D01*
X141967987Y-90816206D01*
X142019499Y-90805000D01*
X144145000Y-90805000D01*
X144145000Y-82674000D01*
X144164685Y-82606961D01*
X144217489Y-82561206D01*
X144269000Y-82550000D01*
X153546000Y-82550000D01*
X153613039Y-82569685D01*
X153658794Y-82622489D01*
X153670000Y-82674000D01*
X153670000Y-90805000D01*
X155335501Y-90805000D01*
X155402540Y-90824685D01*
X155448295Y-90877489D01*
X155459501Y-90929000D01*
X155459501Y-91155018D01*
X155470000Y-91257796D01*
X155470001Y-91257799D01*
X155525185Y-91424331D01*
X155525186Y-91424334D01*
X155617288Y-91573656D01*
X155741344Y-91697712D01*
X155890666Y-91789814D01*
X156057203Y-91844999D01*
X156159991Y-91855500D01*
X156355500Y-91855499D01*
X156422539Y-91875183D01*
X156468294Y-91927987D01*
X156479500Y-91979499D01*
X156479500Y-93850621D01*
X156459815Y-93917660D01*
X156420599Y-93956158D01*
X156386346Y-93977285D01*
X156262289Y-94101342D01*
X156170187Y-94250663D01*
X156170185Y-94250666D01*
X156170186Y-94250666D01*
X156115001Y-94417203D01*
X156115001Y-94417204D01*
X156115000Y-94417204D01*
X156104500Y-94519983D01*
X156104500Y-95223315D01*
X156084815Y-95290354D01*
X156032011Y-95336109D01*
X155962853Y-95346053D01*
X155941502Y-95341022D01*
X155832797Y-95305001D01*
X155832795Y-95305000D01*
X155730010Y-95294500D01*
X154954998Y-95294500D01*
X154954980Y-95294501D01*
X154852203Y-95305000D01*
X154852200Y-95305001D01*
X154685668Y-95360185D01*
X154685663Y-95360187D01*
X154536342Y-95452289D01*
X154412285Y-95576346D01*
X154410537Y-95579182D01*
X154408829Y-95580717D01*
X154407807Y-95582011D01*
X154407585Y-95581836D01*
X154358589Y-95625905D01*
X154289626Y-95637126D01*
X154225544Y-95609282D01*
X154199463Y-95579182D01*
X154197714Y-95576346D01*
X154073657Y-95452289D01*
X154073656Y-95452288D01*
X153951508Y-95376947D01*
X153924336Y-95360187D01*
X153924331Y-95360185D01*
X153899793Y-95352054D01*
X153757797Y-95305001D01*
X153757795Y-95305000D01*
X153655010Y-95294500D01*
X152879998Y-95294500D01*
X152879980Y-95294501D01*
X152777203Y-95305000D01*
X152777200Y-95305001D01*
X152610668Y-95360185D01*
X152610663Y-95360187D01*
X152461342Y-95452289D01*
X152337289Y-95576342D01*
X152316972Y-95609282D01*
X152267595Y-95689336D01*
X152254481Y-95710597D01*
X152202533Y-95757321D01*
X152148942Y-95769500D01*
X150231291Y-95769500D01*
X150100745Y-95784759D01*
X150100743Y-95784759D01*
X150100739Y-95784760D01*
X150094516Y-95787025D01*
X150052119Y-95794500D01*
X150025596Y-95794501D01*
X149990847Y-95797234D01*
X149990843Y-95797235D01*
X149990844Y-95797235D01*
X149842113Y-95840445D01*
X149842111Y-95840445D01*
X149842111Y-95840446D01*
X149708805Y-95919282D01*
X149708796Y-95919289D01*
X149599289Y-96028796D01*
X149599282Y-96028805D01*
X149520446Y-96162111D01*
X149520445Y-96162113D01*
X149513602Y-96185668D01*
X149477234Y-96310847D01*
X149477234Y-96310849D01*
X149474500Y-96345593D01*
X149474501Y-96694405D01*
X149477234Y-96729152D01*
X149477234Y-96729155D01*
X149477235Y-96729156D01*
X149520445Y-96877887D01*
X149549825Y-96927565D01*
X149599282Y-97011194D01*
X149599289Y-97011203D01*
X149708796Y-97120710D01*
X149708800Y-97120713D01*
X149708802Y-97120715D01*
X149842113Y-97199555D01*
X149990844Y-97242765D01*
X150010701Y-97244327D01*
X150025592Y-97245500D01*
X150025594Y-97245499D01*
X150025595Y-97245500D01*
X150067302Y-97245499D01*
X150095901Y-97248842D01*
X150187273Y-97270499D01*
X150187276Y-97270499D01*
X150187279Y-97270500D01*
X152148943Y-97270500D01*
X152215982Y-97290185D01*
X152254481Y-97329404D01*
X152267597Y-97350668D01*
X152271583Y-97357131D01*
X152290022Y-97424524D01*
X152269098Y-97491187D01*
X152253725Y-97509905D01*
X152175452Y-97588180D01*
X152114130Y-97621666D01*
X152087770Y-97624500D01*
X150809304Y-97624500D01*
X150772432Y-97627401D01*
X150772426Y-97627402D01*
X150614606Y-97673254D01*
X150614603Y-97673255D01*
X150473137Y-97756917D01*
X150473129Y-97756923D01*
X150356923Y-97873129D01*
X150356917Y-97873137D01*
X150273255Y-98014603D01*
X150273254Y-98014606D01*
X150227402Y-98172426D01*
X150227401Y-98172432D01*
X150224500Y-98209304D01*
X150224500Y-98640696D01*
X150227401Y-98677567D01*
X150227402Y-98677573D01*
X150273254Y-98835393D01*
X150273255Y-98835396D01*
X150356917Y-98976862D01*
X150361702Y-98983031D01*
X150359256Y-98984927D01*
X150385857Y-99033642D01*
X150380873Y-99103334D01*
X150360069Y-99135703D01*
X150361702Y-99136969D01*
X150356917Y-99143137D01*
X150273255Y-99284603D01*
X150273254Y-99284606D01*
X150227402Y-99442426D01*
X150227401Y-99442432D01*
X150224500Y-99479304D01*
X150224500Y-99910696D01*
X150227401Y-99947567D01*
X150227402Y-99947573D01*
X150273254Y-100105393D01*
X150273255Y-100105396D01*
X150356917Y-100246862D01*
X150361702Y-100253031D01*
X150359248Y-100254933D01*
X150385844Y-100303578D01*
X150380895Y-100373273D01*
X150360074Y-100405706D01*
X150361702Y-100406969D01*
X150356917Y-100413137D01*
X150273255Y-100554603D01*
X150273254Y-100554606D01*
X150227402Y-100712426D01*
X150227401Y-100712432D01*
X150224500Y-100749304D01*
X150224500Y-101180696D01*
X150227401Y-101217567D01*
X150227402Y-101217573D01*
X150273254Y-101375393D01*
X150273255Y-101375396D01*
X150356917Y-101516862D01*
X150361702Y-101523031D01*
X150359256Y-101524927D01*
X150385857Y-101573642D01*
X150380873Y-101643334D01*
X150360069Y-101675703D01*
X150361702Y-101676969D01*
X150356917Y-101683137D01*
X150273255Y-101824603D01*
X150273254Y-101824606D01*
X150227402Y-101982426D01*
X150227401Y-101982432D01*
X150224500Y-102019304D01*
X150224500Y-102450696D01*
X150227401Y-102487567D01*
X150227402Y-102487573D01*
X150273254Y-102645393D01*
X150273255Y-102645396D01*
X150356917Y-102786862D01*
X150356923Y-102786870D01*
X150473129Y-102903076D01*
X150473133Y-102903079D01*
X150473135Y-102903081D01*
X150614602Y-102986744D01*
X150626804Y-102990289D01*
X150772426Y-103032597D01*
X150772429Y-103032597D01*
X150772431Y-103032598D01*
X150784722Y-103033565D01*
X150809304Y-103035500D01*
X150809306Y-103035500D01*
X152590696Y-103035500D01*
X152609131Y-103034049D01*
X152627569Y-103032598D01*
X152627571Y-103032597D01*
X152627573Y-103032597D01*
X152772733Y-102990424D01*
X152807328Y-102985500D01*
X155791295Y-102985500D01*
X155809265Y-102986809D01*
X155833023Y-102990289D01*
X155885068Y-102985735D01*
X155890470Y-102985500D01*
X155898704Y-102985500D01*
X155898709Y-102985500D01*
X155910327Y-102984141D01*
X155931276Y-102981693D01*
X155944028Y-102980577D01*
X156007797Y-102974999D01*
X156007805Y-102974996D01*
X156014866Y-102973539D01*
X156014878Y-102973598D01*
X156022243Y-102971965D01*
X156022229Y-102971906D01*
X156029246Y-102970241D01*
X156029255Y-102970241D01*
X156101423Y-102943974D01*
X156174334Y-102919814D01*
X156174343Y-102919807D01*
X156180882Y-102916760D01*
X156180908Y-102916816D01*
X156187690Y-102913532D01*
X156187663Y-102913478D01*
X156194106Y-102910240D01*
X156194117Y-102910237D01*
X156258283Y-102868034D01*
X156323656Y-102827712D01*
X156323662Y-102827705D01*
X156329325Y-102823229D01*
X156329362Y-102823277D01*
X156335204Y-102818518D01*
X156335164Y-102818471D01*
X156340691Y-102813832D01*
X156340696Y-102813830D01*
X156362456Y-102790766D01*
X156393386Y-102757981D01*
X159894548Y-99256818D01*
X159955871Y-99223333D01*
X159982229Y-99220499D01*
X160695002Y-99220499D01*
X160695008Y-99220499D01*
X160797797Y-99209999D01*
X160964334Y-99154814D01*
X161113656Y-99062712D01*
X161122818Y-99053549D01*
X161184138Y-99020064D01*
X161253829Y-99025046D01*
X161309765Y-99066915D01*
X161334184Y-99132379D01*
X161334500Y-99141229D01*
X161334500Y-99680001D01*
X161334501Y-99680019D01*
X161345000Y-99782796D01*
X161345001Y-99782799D01*
X161400185Y-99949331D01*
X161400187Y-99949336D01*
X161492289Y-100098657D01*
X161616346Y-100222714D01*
X161619182Y-100224463D01*
X161620717Y-100226170D01*
X161622011Y-100227193D01*
X161621836Y-100227414D01*
X161665905Y-100276411D01*
X161677126Y-100345374D01*
X161649282Y-100409456D01*
X161619182Y-100435537D01*
X161616346Y-100437285D01*
X161492289Y-100561342D01*
X161400187Y-100710663D01*
X161400185Y-100710668D01*
X161387382Y-100749306D01*
X161345001Y-100877203D01*
X161345001Y-100877204D01*
X161345000Y-100877204D01*
X161334500Y-100979983D01*
X161334500Y-101755001D01*
X161334501Y-101755019D01*
X161345000Y-101857796D01*
X161345001Y-101857799D01*
X161398519Y-102019304D01*
X161400186Y-102024334D01*
X161492288Y-102173656D01*
X161616344Y-102297712D01*
X161765666Y-102389814D01*
X161932203Y-102444999D01*
X162034991Y-102455500D01*
X162535269Y-102455499D01*
X162602308Y-102475183D01*
X162622950Y-102491818D01*
X162851769Y-102720637D01*
X162863549Y-102734268D01*
X162877889Y-102753530D01*
X162877891Y-102753532D01*
X162917909Y-102787110D01*
X162921899Y-102790766D01*
X162927720Y-102796587D01*
X162927722Y-102796590D01*
X162938349Y-102804992D01*
X162953444Y-102816927D01*
X163012286Y-102866302D01*
X163012294Y-102866306D01*
X163018324Y-102870273D01*
X163018290Y-102870323D01*
X163024637Y-102874366D01*
X163024669Y-102874316D01*
X163030818Y-102878108D01*
X163030820Y-102878109D01*
X163030823Y-102878111D01*
X163100430Y-102910569D01*
X163169067Y-102945040D01*
X163169076Y-102945042D01*
X163175855Y-102947510D01*
X163175834Y-102947567D01*
X163182951Y-102950040D01*
X163182970Y-102949984D01*
X163189830Y-102952257D01*
X163265032Y-102967783D01*
X163265032Y-102967784D01*
X163339779Y-102985500D01*
X163339788Y-102985500D01*
X163346952Y-102986338D01*
X163346945Y-102986397D01*
X163354446Y-102987163D01*
X163354452Y-102987104D01*
X163361640Y-102987733D01*
X163361643Y-102987732D01*
X163361644Y-102987733D01*
X163438398Y-102985500D01*
X164692672Y-102985500D01*
X164727267Y-102990424D01*
X164872426Y-103032597D01*
X164872429Y-103032597D01*
X164872431Y-103032598D01*
X164884722Y-103033565D01*
X164909304Y-103035500D01*
X164909306Y-103035500D01*
X166690696Y-103035500D01*
X166709131Y-103034049D01*
X166727569Y-103032598D01*
X166727571Y-103032597D01*
X166727573Y-103032597D01*
X166769191Y-103020505D01*
X166885398Y-102986744D01*
X167026865Y-102903081D01*
X167143081Y-102786865D01*
X167226744Y-102645398D01*
X167272598Y-102487569D01*
X167275500Y-102450694D01*
X167275500Y-102019306D01*
X167272598Y-101982431D01*
X167226744Y-101824602D01*
X167143081Y-101683135D01*
X167143078Y-101683132D01*
X167138298Y-101676969D01*
X167140750Y-101675066D01*
X167114155Y-101626421D01*
X167119104Y-101556726D01*
X167139940Y-101524304D01*
X167138298Y-101523031D01*
X167143075Y-101516870D01*
X167143081Y-101516865D01*
X167226744Y-101375398D01*
X167272598Y-101217569D01*
X167275500Y-101180694D01*
X167275500Y-100749306D01*
X167272598Y-100712431D01*
X167272085Y-100710666D01*
X167226745Y-100554606D01*
X167226744Y-100554603D01*
X167226744Y-100554602D01*
X167143081Y-100413135D01*
X167143078Y-100413132D01*
X167138298Y-100406969D01*
X167140750Y-100405066D01*
X167114155Y-100356421D01*
X167119104Y-100286726D01*
X167139940Y-100254304D01*
X167138298Y-100253031D01*
X167143075Y-100246870D01*
X167143081Y-100246865D01*
X167226744Y-100105398D01*
X167272598Y-99947569D01*
X167275500Y-99910694D01*
X167275500Y-99479306D01*
X167272598Y-99442431D01*
X167248843Y-99360668D01*
X167226745Y-99284606D01*
X167226744Y-99284603D01*
X167226744Y-99284602D01*
X167143081Y-99143135D01*
X167143078Y-99143132D01*
X167138298Y-99136969D01*
X167140750Y-99135066D01*
X167114155Y-99086421D01*
X167119104Y-99016726D01*
X167139940Y-98984304D01*
X167138298Y-98983031D01*
X167143075Y-98976870D01*
X167143081Y-98976865D01*
X167226744Y-98835398D01*
X167272198Y-98678946D01*
X167272597Y-98677573D01*
X167272598Y-98677567D01*
X167275500Y-98640696D01*
X167275500Y-98209304D01*
X167272598Y-98172432D01*
X167272597Y-98172426D01*
X167226745Y-98014606D01*
X167226744Y-98014603D01*
X167226744Y-98014602D01*
X167143081Y-97873135D01*
X167143079Y-97873133D01*
X167143076Y-97873129D01*
X167026870Y-97756923D01*
X167026862Y-97756917D01*
X166910393Y-97688038D01*
X166885398Y-97673256D01*
X166885397Y-97673255D01*
X166885396Y-97673255D01*
X166885393Y-97673254D01*
X166727573Y-97627402D01*
X166727567Y-97627401D01*
X166690696Y-97624500D01*
X166690694Y-97624500D01*
X166674500Y-97624500D01*
X166607461Y-97604815D01*
X166561706Y-97552011D01*
X166550500Y-97500500D01*
X166550500Y-97452230D01*
X166570185Y-97385191D01*
X166586820Y-97364548D01*
X166644551Y-97306818D01*
X166705874Y-97273334D01*
X166732231Y-97270500D01*
X167268701Y-97270500D01*
X167268709Y-97270500D01*
X167399255Y-97255241D01*
X167405472Y-97252978D01*
X167447885Y-97245499D01*
X167474405Y-97245499D01*
X167481354Y-97244952D01*
X167509156Y-97242765D01*
X167657887Y-97199555D01*
X167791198Y-97120715D01*
X167900715Y-97011198D01*
X167979555Y-96877887D01*
X168022765Y-96729156D01*
X168025500Y-96694405D01*
X168025499Y-96345596D01*
X168022765Y-96310844D01*
X167979555Y-96162113D01*
X167900715Y-96028802D01*
X167900713Y-96028800D01*
X167900710Y-96028796D01*
X167791203Y-95919289D01*
X167791194Y-95919282D01*
X167710111Y-95871330D01*
X167657887Y-95840445D01*
X167509156Y-95797235D01*
X167509153Y-95797234D01*
X167509151Y-95797234D01*
X167474407Y-95794500D01*
X167474405Y-95794500D01*
X167432695Y-95794500D01*
X167404098Y-95791157D01*
X167312722Y-95769500D01*
X167312721Y-95769500D01*
X166433705Y-95769500D01*
X166415735Y-95768191D01*
X166391972Y-95764710D01*
X166346533Y-95768686D01*
X166339931Y-95769264D01*
X166334530Y-95769500D01*
X166326289Y-95769500D01*
X166304579Y-95772037D01*
X166293724Y-95773306D01*
X166278419Y-95774645D01*
X166217199Y-95780001D01*
X166210132Y-95781460D01*
X166210120Y-95781404D01*
X166202763Y-95783035D01*
X166202777Y-95783092D01*
X166195743Y-95784759D01*
X166123575Y-95811025D01*
X166050675Y-95835181D01*
X166044126Y-95838236D01*
X166044101Y-95838183D01*
X166037308Y-95841471D01*
X166037334Y-95841523D01*
X166030880Y-95844764D01*
X165966708Y-95886971D01*
X165901347Y-95927285D01*
X165895683Y-95931765D01*
X165895647Y-95931719D01*
X165889798Y-95936484D01*
X165889835Y-95936528D01*
X165884310Y-95941164D01*
X165831599Y-95997033D01*
X165314358Y-96514272D01*
X165300729Y-96526051D01*
X165281468Y-96540390D01*
X165247898Y-96580397D01*
X165244253Y-96584376D01*
X165238409Y-96590222D01*
X165218059Y-96615959D01*
X165168695Y-96674789D01*
X165164729Y-96680819D01*
X165164682Y-96680788D01*
X165160630Y-96687147D01*
X165160679Y-96687177D01*
X165156889Y-96693321D01*
X165124424Y-96762941D01*
X165089960Y-96831566D01*
X165087488Y-96838357D01*
X165087432Y-96838336D01*
X165084960Y-96845450D01*
X165085015Y-96845469D01*
X165082742Y-96852327D01*
X165077465Y-96877887D01*
X165067207Y-96927565D01*
X165057524Y-96968422D01*
X165049498Y-97002286D01*
X165048661Y-97009454D01*
X165048601Y-97009447D01*
X165047835Y-97016945D01*
X165047895Y-97016951D01*
X165047265Y-97024140D01*
X165049500Y-97100916D01*
X165049500Y-97500500D01*
X165029815Y-97567539D01*
X164977011Y-97613294D01*
X164925500Y-97624500D01*
X164909304Y-97624500D01*
X164872432Y-97627401D01*
X164872426Y-97627402D01*
X164727267Y-97669576D01*
X164692672Y-97674500D01*
X163491205Y-97674500D01*
X163473235Y-97673191D01*
X163449472Y-97669710D01*
X163404390Y-97673655D01*
X163397433Y-97674264D01*
X163392032Y-97674500D01*
X163383787Y-97674500D01*
X163357722Y-97677546D01*
X163351205Y-97678308D01*
X163345903Y-97678771D01*
X163274701Y-97685001D01*
X163267634Y-97686461D01*
X163267622Y-97686404D01*
X163260253Y-97688038D01*
X163260267Y-97688095D01*
X163253239Y-97689760D01*
X163181067Y-97716027D01*
X163181068Y-97716028D01*
X163108165Y-97740186D01*
X163108163Y-97740186D01*
X163108160Y-97740188D01*
X163101623Y-97743236D01*
X163101598Y-97743184D01*
X163094810Y-97746470D01*
X163094836Y-97746521D01*
X163088385Y-97749761D01*
X163024223Y-97791961D01*
X162958846Y-97832285D01*
X162953182Y-97836765D01*
X162953146Y-97836719D01*
X162947298Y-97841484D01*
X162947335Y-97841528D01*
X162941810Y-97846164D01*
X162941804Y-97846169D01*
X162941804Y-97846170D01*
X162905576Y-97884569D01*
X162889114Y-97902017D01*
X162622949Y-98168181D01*
X162561626Y-98201666D01*
X162535268Y-98204500D01*
X162034998Y-98204500D01*
X162034980Y-98204501D01*
X161932203Y-98215000D01*
X161932200Y-98215001D01*
X161765668Y-98270185D01*
X161765663Y-98270187D01*
X161616341Y-98362289D01*
X161607177Y-98371454D01*
X161545853Y-98404937D01*
X161476161Y-98399950D01*
X161420229Y-98358077D01*
X161395815Y-98292612D01*
X161395499Y-98283790D01*
X161395499Y-97619992D01*
X161394208Y-97607358D01*
X161384999Y-97517203D01*
X161384998Y-97517200D01*
X161354288Y-97424524D01*
X161329814Y-97350666D01*
X161237712Y-97201344D01*
X161113656Y-97077288D01*
X161006515Y-97011203D01*
X160964336Y-96985187D01*
X160964331Y-96985185D01*
X160962862Y-96984698D01*
X160797797Y-96930001D01*
X160797795Y-96930000D01*
X160695010Y-96919500D01*
X159344998Y-96919500D01*
X159344981Y-96919501D01*
X159242203Y-96930000D01*
X159242200Y-96930001D01*
X159075668Y-96985185D01*
X159075663Y-96985187D01*
X158926342Y-97077289D01*
X158837681Y-97165951D01*
X158776358Y-97199436D01*
X158706666Y-97194452D01*
X158662319Y-97165951D01*
X158573657Y-97077289D01*
X158573656Y-97077288D01*
X158466515Y-97011203D01*
X158424336Y-96985187D01*
X158424331Y-96985185D01*
X158422862Y-96984698D01*
X158257797Y-96930001D01*
X158257795Y-96930000D01*
X158155010Y-96919500D01*
X156804998Y-96919500D01*
X156804981Y-96919501D01*
X156702203Y-96930000D01*
X156702199Y-96930001D01*
X156593503Y-96966020D01*
X156523674Y-96968422D01*
X156463632Y-96932690D01*
X156432440Y-96870169D01*
X156430499Y-96848323D01*
X156430499Y-96191683D01*
X156450184Y-96124645D01*
X156502988Y-96078890D01*
X156572146Y-96068946D01*
X156593486Y-96073973D01*
X156702203Y-96109999D01*
X156804991Y-96120500D01*
X158155008Y-96120499D01*
X158257797Y-96109999D01*
X158424334Y-96054814D01*
X158573656Y-95962712D01*
X158662319Y-95874048D01*
X158723642Y-95840564D01*
X158793334Y-95845548D01*
X158837681Y-95874048D01*
X158926344Y-95962712D01*
X159075666Y-96054814D01*
X159242203Y-96109999D01*
X159344991Y-96120500D01*
X160695008Y-96120499D01*
X160797797Y-96109999D01*
X160964334Y-96054814D01*
X161113656Y-95962712D01*
X161237712Y-95838656D01*
X161329814Y-95689334D01*
X161384999Y-95522797D01*
X161395500Y-95420009D01*
X161395499Y-94519992D01*
X161384999Y-94417203D01*
X161329814Y-94250666D01*
X161237712Y-94101344D01*
X161113656Y-93977288D01*
X161113653Y-93977285D01*
X161079401Y-93956158D01*
X161032678Y-93904210D01*
X161020500Y-93850621D01*
X161020500Y-93294256D01*
X161005074Y-93142560D01*
X160944162Y-92948420D01*
X160944160Y-92948416D01*
X160944159Y-92948412D01*
X160845409Y-92770498D01*
X160845408Y-92770497D01*
X160845407Y-92770495D01*
X160712867Y-92616106D01*
X160712865Y-92616104D01*
X160551962Y-92491554D01*
X160551959Y-92491553D01*
X160551958Y-92491552D01*
X160369271Y-92401940D01*
X160172285Y-92350937D01*
X160172287Y-92350937D01*
X160036804Y-92344066D01*
X159969064Y-92340631D01*
X159969063Y-92340631D01*
X159969061Y-92340631D01*
X159767936Y-92371442D01*
X159767924Y-92371445D01*
X159577118Y-92442111D01*
X159577111Y-92442115D01*
X159404432Y-92549745D01*
X159404427Y-92549749D01*
X159256949Y-92689938D01*
X159256948Y-92689940D01*
X159140705Y-92856949D01*
X159060459Y-93043943D01*
X159019500Y-93243258D01*
X159019500Y-93850621D01*
X158999815Y-93917660D01*
X158960599Y-93956158D01*
X158926346Y-93977285D01*
X158926343Y-93977288D01*
X158837681Y-94065951D01*
X158776358Y-94099436D01*
X158706666Y-94094452D01*
X158662319Y-94065951D01*
X158573653Y-93977285D01*
X158539401Y-93956158D01*
X158492678Y-93904210D01*
X158480500Y-93850621D01*
X158480500Y-92050783D01*
X158500185Y-91983744D01*
X158516819Y-91963102D01*
X158588103Y-91891818D01*
X158649426Y-91858333D01*
X158675784Y-91855499D01*
X160360002Y-91855499D01*
X160360008Y-91855499D01*
X160462797Y-91844999D01*
X160629334Y-91789814D01*
X160778656Y-91697712D01*
X160902712Y-91573656D01*
X160994814Y-91424334D01*
X161049999Y-91257797D01*
X161060500Y-91155009D01*
X161060499Y-90928998D01*
X161080183Y-90861961D01*
X161132987Y-90816206D01*
X161184499Y-90805000D01*
X163195000Y-90805000D01*
X163195000Y-82674000D01*
X163214685Y-82606961D01*
X163267489Y-82561206D01*
X163319000Y-82550000D01*
X172596000Y-82550000D01*
X172663039Y-82569685D01*
X172708794Y-82622489D01*
X172720000Y-82674000D01*
X172720000Y-90805000D01*
X174240501Y-90805000D01*
X174307540Y-90824685D01*
X174353295Y-90877489D01*
X174364501Y-90929000D01*
X174364501Y-91155018D01*
X174375000Y-91257796D01*
X174375001Y-91257799D01*
X174430185Y-91424331D01*
X174430186Y-91424334D01*
X174522288Y-91573656D01*
X174646344Y-91697712D01*
X174795666Y-91789814D01*
X174962203Y-91844999D01*
X175064991Y-91855500D01*
X175405499Y-91855499D01*
X175472538Y-91875183D01*
X175518293Y-91927987D01*
X175529499Y-91979499D01*
X175529500Y-93850621D01*
X175509815Y-93917660D01*
X175470599Y-93956158D01*
X175436346Y-93977285D01*
X175312289Y-94101342D01*
X175220187Y-94250663D01*
X175220185Y-94250666D01*
X175220186Y-94250666D01*
X175165001Y-94417203D01*
X175165001Y-94417204D01*
X175165000Y-94417204D01*
X175154500Y-94519983D01*
X175154499Y-94519996D01*
X175154500Y-95223315D01*
X175134815Y-95290354D01*
X175082011Y-95336109D01*
X175012853Y-95346053D01*
X174991502Y-95341022D01*
X174882797Y-95305001D01*
X174882795Y-95305000D01*
X174780010Y-95294500D01*
X174004998Y-95294500D01*
X174004980Y-95294501D01*
X173902203Y-95305000D01*
X173902200Y-95305001D01*
X173735668Y-95360185D01*
X173735663Y-95360187D01*
X173586342Y-95452289D01*
X173462285Y-95576346D01*
X173460537Y-95579182D01*
X173458829Y-95580717D01*
X173457807Y-95582011D01*
X173457585Y-95581836D01*
X173408589Y-95625905D01*
X173339626Y-95637126D01*
X173275544Y-95609282D01*
X173249463Y-95579182D01*
X173247714Y-95576346D01*
X173123657Y-95452289D01*
X173123656Y-95452288D01*
X173001508Y-95376947D01*
X172974336Y-95360187D01*
X172974331Y-95360185D01*
X172949793Y-95352054D01*
X172807797Y-95305001D01*
X172807795Y-95305000D01*
X172705010Y-95294500D01*
X171929998Y-95294500D01*
X171929980Y-95294501D01*
X171827203Y-95305000D01*
X171827200Y-95305001D01*
X171660668Y-95360185D01*
X171660663Y-95360187D01*
X171511342Y-95452289D01*
X171387289Y-95576342D01*
X171366972Y-95609282D01*
X171317595Y-95689336D01*
X171304481Y-95710597D01*
X171252533Y-95757321D01*
X171198942Y-95769500D01*
X169281291Y-95769500D01*
X169150745Y-95784759D01*
X169150743Y-95784759D01*
X169150739Y-95784760D01*
X169144516Y-95787025D01*
X169102119Y-95794500D01*
X169075596Y-95794501D01*
X169040847Y-95797234D01*
X169040843Y-95797235D01*
X169040844Y-95797235D01*
X168892113Y-95840445D01*
X168892111Y-95840445D01*
X168892111Y-95840446D01*
X168758805Y-95919282D01*
X168758796Y-95919289D01*
X168649289Y-96028796D01*
X168649282Y-96028805D01*
X168570446Y-96162111D01*
X168570445Y-96162113D01*
X168563602Y-96185668D01*
X168527234Y-96310847D01*
X168527234Y-96310849D01*
X168524500Y-96345593D01*
X168524501Y-96694405D01*
X168527234Y-96729152D01*
X168527234Y-96729155D01*
X168527235Y-96729156D01*
X168570445Y-96877887D01*
X168599825Y-96927565D01*
X168649282Y-97011194D01*
X168649289Y-97011203D01*
X168758796Y-97120710D01*
X168758800Y-97120713D01*
X168758802Y-97120715D01*
X168892113Y-97199555D01*
X169040844Y-97242765D01*
X169060701Y-97244327D01*
X169075592Y-97245500D01*
X169075594Y-97245499D01*
X169075595Y-97245500D01*
X169117302Y-97245499D01*
X169145901Y-97248842D01*
X169237273Y-97270499D01*
X169237276Y-97270499D01*
X169237279Y-97270500D01*
X171198943Y-97270500D01*
X171265982Y-97290185D01*
X171304481Y-97329404D01*
X171317597Y-97350668D01*
X171321583Y-97357131D01*
X171340022Y-97424524D01*
X171319098Y-97491187D01*
X171303725Y-97509905D01*
X171225452Y-97588180D01*
X171164130Y-97621666D01*
X171137770Y-97624500D01*
X169859304Y-97624500D01*
X169822432Y-97627401D01*
X169822426Y-97627402D01*
X169664606Y-97673254D01*
X169664603Y-97673255D01*
X169523137Y-97756917D01*
X169523129Y-97756923D01*
X169406923Y-97873129D01*
X169406917Y-97873137D01*
X169323255Y-98014603D01*
X169323254Y-98014606D01*
X169277402Y-98172426D01*
X169277401Y-98172432D01*
X169274500Y-98209304D01*
X169274500Y-98640696D01*
X169277401Y-98677567D01*
X169277402Y-98677573D01*
X169323254Y-98835393D01*
X169323255Y-98835396D01*
X169406917Y-98976862D01*
X169411702Y-98983031D01*
X169409256Y-98984927D01*
X169435857Y-99033642D01*
X169430873Y-99103334D01*
X169410069Y-99135703D01*
X169411702Y-99136969D01*
X169406917Y-99143137D01*
X169323255Y-99284603D01*
X169323254Y-99284606D01*
X169277402Y-99442426D01*
X169277401Y-99442432D01*
X169274500Y-99479304D01*
X169274500Y-99910696D01*
X169277401Y-99947567D01*
X169277402Y-99947573D01*
X169323254Y-100105393D01*
X169323255Y-100105396D01*
X169406917Y-100246862D01*
X169411702Y-100253031D01*
X169409256Y-100254927D01*
X169435857Y-100303642D01*
X169430873Y-100373334D01*
X169410069Y-100405703D01*
X169411702Y-100406969D01*
X169406917Y-100413137D01*
X169323255Y-100554603D01*
X169323254Y-100554606D01*
X169277402Y-100712426D01*
X169277401Y-100712432D01*
X169274500Y-100749304D01*
X169274500Y-101180696D01*
X169277401Y-101217567D01*
X169277402Y-101217573D01*
X169323254Y-101375393D01*
X169323255Y-101375396D01*
X169406917Y-101516862D01*
X169411702Y-101523031D01*
X169409256Y-101524927D01*
X169435857Y-101573642D01*
X169430873Y-101643334D01*
X169410069Y-101675703D01*
X169411702Y-101676969D01*
X169406917Y-101683137D01*
X169323255Y-101824603D01*
X169323254Y-101824606D01*
X169277402Y-101982426D01*
X169277401Y-101982432D01*
X169274500Y-102019304D01*
X169274500Y-102450696D01*
X169277401Y-102487567D01*
X169277402Y-102487573D01*
X169323254Y-102645393D01*
X169323255Y-102645396D01*
X169406917Y-102786862D01*
X169406923Y-102786870D01*
X169523129Y-102903076D01*
X169523133Y-102903079D01*
X169523135Y-102903081D01*
X169664602Y-102986744D01*
X169676804Y-102990289D01*
X169822426Y-103032597D01*
X169822429Y-103032597D01*
X169822431Y-103032598D01*
X169834722Y-103033565D01*
X169859304Y-103035500D01*
X169859306Y-103035500D01*
X171640696Y-103035500D01*
X171659131Y-103034049D01*
X171677569Y-103032598D01*
X171677571Y-103032597D01*
X171677573Y-103032597D01*
X171822733Y-102990424D01*
X171857328Y-102985500D01*
X174841295Y-102985500D01*
X174859265Y-102986809D01*
X174883023Y-102990289D01*
X174935068Y-102985735D01*
X174940470Y-102985500D01*
X174948704Y-102985500D01*
X174948709Y-102985500D01*
X174960327Y-102984141D01*
X174981276Y-102981693D01*
X174994028Y-102980577D01*
X175057797Y-102974999D01*
X175057805Y-102974996D01*
X175064866Y-102973539D01*
X175064878Y-102973598D01*
X175072243Y-102971965D01*
X175072229Y-102971906D01*
X175079246Y-102970241D01*
X175079255Y-102970241D01*
X175151423Y-102943974D01*
X175224334Y-102919814D01*
X175224343Y-102919807D01*
X175230882Y-102916760D01*
X175230908Y-102916816D01*
X175237690Y-102913532D01*
X175237663Y-102913478D01*
X175244106Y-102910240D01*
X175244117Y-102910237D01*
X175308283Y-102868034D01*
X175373656Y-102827712D01*
X175373662Y-102827705D01*
X175379325Y-102823229D01*
X175379362Y-102823277D01*
X175385204Y-102818518D01*
X175385164Y-102818471D01*
X175390691Y-102813832D01*
X175390696Y-102813830D01*
X175412456Y-102790766D01*
X175443386Y-102757981D01*
X178944548Y-99256818D01*
X179005871Y-99223333D01*
X179032229Y-99220499D01*
X179745002Y-99220499D01*
X179745008Y-99220499D01*
X179847797Y-99209999D01*
X180014334Y-99154814D01*
X180163656Y-99062712D01*
X180287712Y-98938656D01*
X180379814Y-98789334D01*
X180434999Y-98622797D01*
X180445500Y-98520009D01*
X180445499Y-97619992D01*
X180444208Y-97607358D01*
X180434999Y-97517203D01*
X180434998Y-97517200D01*
X180404288Y-97424524D01*
X180379814Y-97350666D01*
X180287712Y-97201344D01*
X180163656Y-97077288D01*
X180056515Y-97011203D01*
X180014336Y-96985187D01*
X180014331Y-96985185D01*
X180012862Y-96984698D01*
X179847797Y-96930001D01*
X179847795Y-96930000D01*
X179745010Y-96919500D01*
X178394998Y-96919500D01*
X178394981Y-96919501D01*
X178292203Y-96930000D01*
X178292200Y-96930001D01*
X178125668Y-96985185D01*
X178125663Y-96985187D01*
X177976342Y-97077289D01*
X177887679Y-97165951D01*
X177826356Y-97199435D01*
X177756664Y-97194450D01*
X177712318Y-97165950D01*
X177623657Y-97077289D01*
X177623656Y-97077288D01*
X177516515Y-97011203D01*
X177474336Y-96985187D01*
X177474331Y-96985185D01*
X177472862Y-96984698D01*
X177307797Y-96930001D01*
X177307795Y-96930000D01*
X177205010Y-96919500D01*
X175854998Y-96919500D01*
X175854981Y-96919501D01*
X175752203Y-96930000D01*
X175752199Y-96930001D01*
X175643503Y-96966020D01*
X175573674Y-96968422D01*
X175513632Y-96932690D01*
X175482440Y-96870169D01*
X175480499Y-96848323D01*
X175480499Y-96191683D01*
X175500184Y-96124645D01*
X175552988Y-96078890D01*
X175622146Y-96068946D01*
X175643486Y-96073973D01*
X175752203Y-96109999D01*
X175854991Y-96120500D01*
X177205008Y-96120499D01*
X177307797Y-96109999D01*
X177474334Y-96054814D01*
X177623656Y-95962712D01*
X177712319Y-95874049D01*
X177773642Y-95840564D01*
X177843334Y-95845548D01*
X177887681Y-95874048D01*
X177976344Y-95962712D01*
X178125666Y-96054814D01*
X178292203Y-96109999D01*
X178394991Y-96120500D01*
X179745008Y-96120499D01*
X179847797Y-96109999D01*
X180014334Y-96054814D01*
X180163656Y-95962712D01*
X180287712Y-95838656D01*
X180379814Y-95689334D01*
X180434999Y-95522797D01*
X180445500Y-95420009D01*
X180445499Y-94519992D01*
X180434999Y-94417203D01*
X180379814Y-94250666D01*
X180287712Y-94101344D01*
X180163656Y-93977288D01*
X180163653Y-93977285D01*
X180129401Y-93956158D01*
X180082678Y-93904210D01*
X180070500Y-93850621D01*
X180070500Y-93294256D01*
X180055074Y-93142560D01*
X179994162Y-92948420D01*
X179994160Y-92948416D01*
X179994159Y-92948412D01*
X179895409Y-92770498D01*
X179895408Y-92770497D01*
X179895407Y-92770495D01*
X179762867Y-92616106D01*
X179762865Y-92616104D01*
X179601962Y-92491554D01*
X179601959Y-92491553D01*
X179601958Y-92491552D01*
X179419271Y-92401940D01*
X179222285Y-92350937D01*
X179222287Y-92350937D01*
X179086804Y-92344066D01*
X179019064Y-92340631D01*
X179019063Y-92340631D01*
X179019061Y-92340631D01*
X178817936Y-92371442D01*
X178817924Y-92371445D01*
X178627118Y-92442111D01*
X178627111Y-92442115D01*
X178454432Y-92549745D01*
X178454427Y-92549749D01*
X178306949Y-92689938D01*
X178306948Y-92689940D01*
X178190705Y-92856949D01*
X178110459Y-93043943D01*
X178069500Y-93243258D01*
X178069500Y-93850621D01*
X178049815Y-93917660D01*
X178010599Y-93956158D01*
X177976346Y-93977285D01*
X177976343Y-93977288D01*
X177887681Y-94065951D01*
X177826358Y-94099436D01*
X177756666Y-94094452D01*
X177712319Y-94065951D01*
X177623653Y-93977285D01*
X177589401Y-93956158D01*
X177542678Y-93904210D01*
X177530500Y-93850621D01*
X177530500Y-91979499D01*
X177550185Y-91912460D01*
X177602989Y-91866705D01*
X177654500Y-91855499D01*
X179265002Y-91855499D01*
X179265008Y-91855499D01*
X179367797Y-91844999D01*
X179534334Y-91789814D01*
X179683656Y-91697712D01*
X179807712Y-91573656D01*
X179899814Y-91424334D01*
X179954999Y-91257797D01*
X179965500Y-91155009D01*
X179965499Y-90928998D01*
X179985183Y-90861961D01*
X180037987Y-90816206D01*
X180089499Y-90805000D01*
X186566000Y-90805000D01*
X186633039Y-90824685D01*
X186678794Y-90877489D01*
X186690000Y-90929000D01*
X186690000Y-92574539D01*
X186670315Y-92641578D01*
X186617511Y-92687333D01*
X186548353Y-92697277D01*
X186500904Y-92680078D01*
X186444340Y-92645189D01*
X186444335Y-92645187D01*
X186444334Y-92645186D01*
X186277797Y-92590001D01*
X186277795Y-92590000D01*
X186175010Y-92579500D01*
X185249998Y-92579500D01*
X185249980Y-92579501D01*
X185147203Y-92590000D01*
X185147200Y-92590001D01*
X184980668Y-92645185D01*
X184980663Y-92645187D01*
X184831342Y-92737289D01*
X184707289Y-92861342D01*
X184615187Y-93010663D01*
X184615185Y-93010666D01*
X184615186Y-93010666D01*
X184560001Y-93177203D01*
X184560001Y-93177204D01*
X184560000Y-93177204D01*
X184549500Y-93279983D01*
X184549500Y-94680001D01*
X184549501Y-94680018D01*
X184560000Y-94782796D01*
X184560001Y-94782799D01*
X184615185Y-94949331D01*
X184615186Y-94949334D01*
X184693539Y-95076366D01*
X184712000Y-95141461D01*
X184712000Y-95209323D01*
X184708788Y-95237364D01*
X184705477Y-95251624D01*
X184704691Y-95254659D01*
X184684113Y-95326577D01*
X184682890Y-95342641D01*
X184680039Y-95361246D01*
X184676397Y-95376941D01*
X184676396Y-95376947D01*
X184674500Y-95451753D01*
X184674341Y-95454888D01*
X184668662Y-95529478D01*
X184668663Y-95529482D01*
X184670697Y-95545461D01*
X184671650Y-95564252D01*
X184671242Y-95580356D01*
X184671243Y-95580367D01*
X184684442Y-95654011D01*
X184684918Y-95657116D01*
X184694368Y-95731322D01*
X184694371Y-95731334D01*
X184699580Y-95746571D01*
X184704299Y-95764793D01*
X184705825Y-95773306D01*
X184707143Y-95780659D01*
X184707215Y-95780908D01*
X184707310Y-95781588D01*
X184708252Y-95786841D01*
X184708052Y-95786876D01*
X184712000Y-95815021D01*
X184712000Y-95993538D01*
X184693539Y-96058634D01*
X184615189Y-96185659D01*
X184615185Y-96185666D01*
X184615186Y-96185666D01*
X184560001Y-96352203D01*
X184560001Y-96352204D01*
X184560000Y-96352204D01*
X184549500Y-96454983D01*
X184549500Y-97855001D01*
X184549501Y-97855018D01*
X184560000Y-97957796D01*
X184560001Y-97957799D01*
X184615185Y-98124331D01*
X184615187Y-98124336D01*
X184620674Y-98133231D01*
X184693539Y-98251366D01*
X184712000Y-98316461D01*
X184712000Y-98511323D01*
X184708788Y-98539364D01*
X184705477Y-98553624D01*
X184704691Y-98556659D01*
X184684113Y-98628577D01*
X184682890Y-98644641D01*
X184680039Y-98663246D01*
X184676397Y-98678941D01*
X184676396Y-98678947D01*
X184674500Y-98753753D01*
X184674341Y-98756888D01*
X184668662Y-98831478D01*
X184668663Y-98831482D01*
X184670697Y-98847461D01*
X184671650Y-98866252D01*
X184671242Y-98882356D01*
X184671243Y-98882367D01*
X184684442Y-98956011D01*
X184684918Y-98959116D01*
X184694368Y-99033322D01*
X184694371Y-99033334D01*
X184699580Y-99048571D01*
X184704299Y-99066793D01*
X184706769Y-99080573D01*
X184707143Y-99082659D01*
X184707215Y-99082908D01*
X184707310Y-99083588D01*
X184708252Y-99088841D01*
X184708052Y-99088876D01*
X184712000Y-99117021D01*
X184712000Y-99168538D01*
X184693539Y-99233634D01*
X184615189Y-99360659D01*
X184615185Y-99360668D01*
X184593635Y-99425702D01*
X184560001Y-99527203D01*
X184560001Y-99527204D01*
X184560000Y-99527204D01*
X184549500Y-99629983D01*
X184549500Y-101030001D01*
X184549501Y-101030018D01*
X184560000Y-101132796D01*
X184560001Y-101132799D01*
X184588093Y-101217573D01*
X184615186Y-101299334D01*
X184693539Y-101426366D01*
X184712000Y-101491461D01*
X184712000Y-101559323D01*
X184708788Y-101587364D01*
X184705477Y-101601624D01*
X184704691Y-101604659D01*
X184684113Y-101676577D01*
X184682890Y-101692641D01*
X184680039Y-101711246D01*
X184676397Y-101726941D01*
X184676396Y-101726947D01*
X184674500Y-101801753D01*
X184674341Y-101804888D01*
X184668662Y-101879478D01*
X184668663Y-101879482D01*
X184670697Y-101895461D01*
X184671650Y-101914252D01*
X184671242Y-101930356D01*
X184671243Y-101930367D01*
X184684442Y-102004011D01*
X184684918Y-102007116D01*
X184694368Y-102081322D01*
X184694371Y-102081334D01*
X184699580Y-102096571D01*
X184704301Y-102114800D01*
X184707143Y-102130659D01*
X184707215Y-102130908D01*
X184707310Y-102131588D01*
X184708252Y-102136841D01*
X184708052Y-102136876D01*
X184712000Y-102165021D01*
X184712000Y-102343538D01*
X184693539Y-102408634D01*
X184615189Y-102535659D01*
X184615185Y-102535666D01*
X184615186Y-102535666D01*
X184560001Y-102702203D01*
X184560001Y-102702204D01*
X184560000Y-102702204D01*
X184549500Y-102804983D01*
X184549500Y-104205001D01*
X184549501Y-104205018D01*
X184560000Y-104307796D01*
X184560001Y-104307799D01*
X184615185Y-104474331D01*
X184615186Y-104474334D01*
X184693539Y-104601366D01*
X184712000Y-104666461D01*
X184712000Y-104861323D01*
X184708788Y-104889364D01*
X184705477Y-104903624D01*
X184704691Y-104906659D01*
X184684113Y-104978577D01*
X184682890Y-104994641D01*
X184680039Y-105013246D01*
X184676397Y-105028941D01*
X184676396Y-105028947D01*
X184674500Y-105103753D01*
X184674341Y-105106888D01*
X184668662Y-105181478D01*
X184668663Y-105181482D01*
X184670697Y-105197461D01*
X184671650Y-105216252D01*
X184671242Y-105232356D01*
X184671243Y-105232367D01*
X184684442Y-105306011D01*
X184684918Y-105309116D01*
X184694368Y-105383322D01*
X184694371Y-105383334D01*
X184699580Y-105398571D01*
X184704301Y-105416800D01*
X184707143Y-105432659D01*
X184707215Y-105432908D01*
X184707310Y-105433588D01*
X184708252Y-105438841D01*
X184708052Y-105438876D01*
X184712000Y-105467021D01*
X184712000Y-105518538D01*
X184693539Y-105583634D01*
X184615189Y-105710659D01*
X184615185Y-105710668D01*
X184604029Y-105744336D01*
X184560001Y-105877203D01*
X184560001Y-105877204D01*
X184560000Y-105877204D01*
X184549500Y-105979983D01*
X184549500Y-107380001D01*
X184549501Y-107380018D01*
X184560000Y-107482796D01*
X184560001Y-107482799D01*
X184615185Y-107649331D01*
X184615186Y-107649334D01*
X184693539Y-107776366D01*
X184712000Y-107841461D01*
X184712000Y-107909323D01*
X184708788Y-107937364D01*
X184705477Y-107951624D01*
X184704691Y-107954659D01*
X184684113Y-108026577D01*
X184682890Y-108042641D01*
X184680039Y-108061246D01*
X184676397Y-108076941D01*
X184676396Y-108076947D01*
X184674500Y-108151753D01*
X184674341Y-108154888D01*
X184668662Y-108229478D01*
X184668663Y-108229482D01*
X184670697Y-108245461D01*
X184671650Y-108264252D01*
X184671242Y-108280356D01*
X184671243Y-108280367D01*
X184684442Y-108354011D01*
X184684918Y-108357116D01*
X184694368Y-108431322D01*
X184694371Y-108431334D01*
X184699580Y-108446571D01*
X184704301Y-108464800D01*
X184707143Y-108480659D01*
X184707215Y-108480908D01*
X184707310Y-108481588D01*
X184708252Y-108486841D01*
X184708052Y-108486876D01*
X184712000Y-108515021D01*
X184712000Y-108693538D01*
X184693539Y-108758634D01*
X184615189Y-108885659D01*
X184615185Y-108885668D01*
X184604029Y-108919336D01*
X184560001Y-109052203D01*
X184560001Y-109052204D01*
X184560000Y-109052204D01*
X184549500Y-109154983D01*
X184549500Y-110555001D01*
X184549501Y-110555018D01*
X184560000Y-110657796D01*
X184560001Y-110657799D01*
X184615185Y-110824331D01*
X184615186Y-110824334D01*
X184693539Y-110951366D01*
X184712000Y-111016461D01*
X184712000Y-111211323D01*
X184708788Y-111239364D01*
X184705477Y-111253624D01*
X184704691Y-111256659D01*
X184684113Y-111328577D01*
X184682890Y-111344641D01*
X184680039Y-111363246D01*
X184676397Y-111378941D01*
X184676396Y-111378947D01*
X184674500Y-111453753D01*
X184674341Y-111456888D01*
X184668662Y-111531478D01*
X184668663Y-111531482D01*
X184670697Y-111547461D01*
X184671650Y-111566252D01*
X184671242Y-111582356D01*
X184671243Y-111582367D01*
X184684442Y-111656011D01*
X184684918Y-111659116D01*
X184694368Y-111733322D01*
X184694371Y-111733334D01*
X184699580Y-111748571D01*
X184704301Y-111766800D01*
X184707143Y-111782659D01*
X184707215Y-111782908D01*
X184707310Y-111783588D01*
X184708252Y-111788841D01*
X184708052Y-111788876D01*
X184712000Y-111817021D01*
X184712000Y-111868538D01*
X184693539Y-111933634D01*
X184615189Y-112060659D01*
X184615185Y-112060668D01*
X184604029Y-112094336D01*
X184560001Y-112227203D01*
X184560001Y-112227204D01*
X184560000Y-112227204D01*
X184549500Y-112329983D01*
X184549500Y-113730001D01*
X184549501Y-113730018D01*
X184560000Y-113832796D01*
X184560001Y-113832799D01*
X184602531Y-113961145D01*
X184615186Y-113999334D01*
X184693539Y-114126366D01*
X184712000Y-114191461D01*
X184712000Y-114259323D01*
X184708788Y-114287364D01*
X184705477Y-114301624D01*
X184704691Y-114304659D01*
X184684113Y-114376577D01*
X184682890Y-114392641D01*
X184680039Y-114411246D01*
X184676397Y-114426941D01*
X184676396Y-114426947D01*
X184674500Y-114501753D01*
X184674341Y-114504888D01*
X184668662Y-114579478D01*
X184668663Y-114579482D01*
X184670697Y-114595461D01*
X184671650Y-114614252D01*
X184671242Y-114630356D01*
X184671243Y-114630367D01*
X184684442Y-114704011D01*
X184684918Y-114707116D01*
X184694368Y-114781322D01*
X184694371Y-114781334D01*
X184699580Y-114796571D01*
X184704301Y-114814800D01*
X184707143Y-114830659D01*
X184707215Y-114830908D01*
X184707310Y-114831588D01*
X184708252Y-114836841D01*
X184708052Y-114836876D01*
X184712000Y-114865021D01*
X184712000Y-115043538D01*
X184693539Y-115108634D01*
X184615189Y-115235659D01*
X184615185Y-115235668D01*
X184604029Y-115269336D01*
X184560001Y-115402203D01*
X184560001Y-115402204D01*
X184560000Y-115402204D01*
X184549500Y-115504983D01*
X184549500Y-116905001D01*
X184549501Y-116905018D01*
X184560000Y-117007796D01*
X184560001Y-117007799D01*
X184615185Y-117174331D01*
X184615186Y-117174334D01*
X184693539Y-117301366D01*
X184712000Y-117366461D01*
X184712000Y-117561323D01*
X184708788Y-117589364D01*
X184705477Y-117603624D01*
X184704691Y-117606659D01*
X184684113Y-117678577D01*
X184682890Y-117694641D01*
X184680039Y-117713246D01*
X184676397Y-117728941D01*
X184676396Y-117728947D01*
X184674500Y-117803753D01*
X184674341Y-117806888D01*
X184668662Y-117881478D01*
X184668663Y-117881482D01*
X184670697Y-117897461D01*
X184671650Y-117916252D01*
X184671242Y-117932356D01*
X184671243Y-117932367D01*
X184684442Y-118006011D01*
X184684918Y-118009116D01*
X184694368Y-118083322D01*
X184694371Y-118083334D01*
X184699580Y-118098571D01*
X184704301Y-118116800D01*
X184707143Y-118132659D01*
X184707215Y-118132908D01*
X184707310Y-118133588D01*
X184708252Y-118138841D01*
X184708052Y-118138876D01*
X184712000Y-118167021D01*
X184712000Y-118218538D01*
X184693539Y-118283634D01*
X184615189Y-118410659D01*
X184615185Y-118410668D01*
X184604029Y-118444336D01*
X184560001Y-118577203D01*
X184560001Y-118577204D01*
X184560000Y-118577204D01*
X184549500Y-118679983D01*
X184549500Y-120080001D01*
X184549501Y-120080018D01*
X184560000Y-120182796D01*
X184560001Y-120182799D01*
X184615185Y-120349331D01*
X184615186Y-120349334D01*
X184707288Y-120498656D01*
X184831344Y-120622712D01*
X184980666Y-120714814D01*
X185147203Y-120769999D01*
X185249991Y-120780500D01*
X186175008Y-120780499D01*
X186175016Y-120780498D01*
X186175019Y-120780498D01*
X186231302Y-120774748D01*
X186277797Y-120769999D01*
X186444334Y-120714814D01*
X186500903Y-120679921D01*
X186568295Y-120661481D01*
X186634959Y-120682403D01*
X186679728Y-120736045D01*
X186690000Y-120785460D01*
X186690000Y-124971000D01*
X186670315Y-125038039D01*
X186617511Y-125083794D01*
X186566000Y-125095000D01*
X179539478Y-125095000D01*
X179472439Y-125075315D01*
X179426684Y-125022511D01*
X179416157Y-124983962D01*
X179377468Y-124615860D01*
X179280440Y-124065589D01*
X179145262Y-123523419D01*
X178972594Y-122992000D01*
X178972593Y-122991997D01*
X178972592Y-122991996D01*
X178763277Y-122473922D01*
X178763276Y-122473921D01*
X178518330Y-121971707D01*
X178518329Y-121971706D01*
X178518328Y-121971703D01*
X178238945Y-121487797D01*
X177926486Y-121024557D01*
X177926484Y-121024554D01*
X177582479Y-120584247D01*
X177283363Y-120252046D01*
X177208586Y-120168998D01*
X177208585Y-120168997D01*
X177208585Y-120168996D01*
X176806648Y-119780850D01*
X176378609Y-119421682D01*
X176378608Y-119421682D01*
X176378602Y-119421677D01*
X175926550Y-119093242D01*
X175926542Y-119093237D01*
X175877172Y-119062387D01*
X175452701Y-118797147D01*
X175452700Y-118797147D01*
X175452689Y-118797140D01*
X175069992Y-118593657D01*
X174959329Y-118534816D01*
X174959330Y-118534817D01*
X174959326Y-118534815D01*
X174448867Y-118307544D01*
X173923798Y-118116434D01*
X173386676Y-117962417D01*
X173123896Y-117906561D01*
X172861509Y-117850789D01*
X172800027Y-117817597D01*
X172766251Y-117756433D01*
X172770903Y-117686719D01*
X172812508Y-117630587D01*
X172877855Y-117605858D01*
X172887273Y-117605499D01*
X173475008Y-117605499D01*
X173475016Y-117605498D01*
X173475019Y-117605498D01*
X173531302Y-117599748D01*
X173577797Y-117594999D01*
X173744334Y-117539814D01*
X173893656Y-117447712D01*
X174017712Y-117323656D01*
X174054259Y-117264402D01*
X174106207Y-117217679D01*
X174159798Y-117205500D01*
X174523259Y-117205500D01*
X175090202Y-117205500D01*
X175157241Y-117225185D01*
X175195739Y-117264401D01*
X175232288Y-117323656D01*
X175356344Y-117447712D01*
X175505666Y-117539814D01*
X175672203Y-117594999D01*
X175774991Y-117605500D01*
X176700008Y-117605499D01*
X176700016Y-117605498D01*
X176700019Y-117605498D01*
X176756302Y-117599748D01*
X176802797Y-117594999D01*
X176969334Y-117539814D01*
X177118656Y-117447712D01*
X177242712Y-117323656D01*
X177334814Y-117174334D01*
X177389999Y-117007797D01*
X177400500Y-116905009D01*
X177400499Y-115504992D01*
X177389999Y-115402203D01*
X177334814Y-115235666D01*
X177256461Y-115108634D01*
X177238000Y-115043538D01*
X177238000Y-114191461D01*
X177256460Y-114126366D01*
X177334814Y-113999334D01*
X177389999Y-113832797D01*
X177400500Y-113730009D01*
X177400499Y-112329992D01*
X177389999Y-112227203D01*
X177334814Y-112060666D01*
X177256461Y-111933634D01*
X177238000Y-111868538D01*
X177238000Y-111016461D01*
X177256460Y-110951366D01*
X177334814Y-110824334D01*
X177389999Y-110657797D01*
X177400500Y-110555009D01*
X177400499Y-109154992D01*
X177400139Y-109151472D01*
X177389999Y-109052203D01*
X177389998Y-109052200D01*
X177370665Y-108993857D01*
X177334814Y-108885666D01*
X177256461Y-108758634D01*
X177238000Y-108693538D01*
X177238000Y-107841461D01*
X177256460Y-107776366D01*
X177334814Y-107649334D01*
X177389999Y-107482797D01*
X177400500Y-107380009D01*
X177400499Y-105979992D01*
X177389999Y-105877203D01*
X177334814Y-105710666D01*
X177242712Y-105561344D01*
X177118656Y-105437288D01*
X176969334Y-105345186D01*
X176802797Y-105290001D01*
X176802795Y-105290000D01*
X176700010Y-105279500D01*
X175774998Y-105279500D01*
X175774980Y-105279501D01*
X175672203Y-105290000D01*
X175672200Y-105290001D01*
X175505668Y-105345185D01*
X175505663Y-105345187D01*
X175356342Y-105437289D01*
X175232289Y-105561342D01*
X175219624Y-105581874D01*
X175200854Y-105612308D01*
X175195741Y-105620597D01*
X175143793Y-105667321D01*
X175090202Y-105679500D01*
X174159798Y-105679500D01*
X174092759Y-105659815D01*
X174054259Y-105620597D01*
X174049147Y-105612309D01*
X174017712Y-105561344D01*
X173893656Y-105437288D01*
X173744334Y-105345186D01*
X173577797Y-105290001D01*
X173577795Y-105290000D01*
X173475010Y-105279500D01*
X172549998Y-105279500D01*
X172549980Y-105279501D01*
X172447203Y-105290000D01*
X172447200Y-105290001D01*
X172280668Y-105345185D01*
X172280663Y-105345187D01*
X172131342Y-105437289D01*
X172007289Y-105561342D01*
X171915187Y-105710663D01*
X171915185Y-105710668D01*
X171904029Y-105744336D01*
X171860001Y-105877203D01*
X171860001Y-105877204D01*
X171860000Y-105877204D01*
X171849500Y-105979983D01*
X171849500Y-107380001D01*
X171849501Y-107380018D01*
X171860000Y-107482796D01*
X171860001Y-107482799D01*
X171915185Y-107649331D01*
X171915186Y-107649334D01*
X171993539Y-107776366D01*
X172012000Y-107841461D01*
X172012000Y-108693538D01*
X171993539Y-108758634D01*
X171915189Y-108885659D01*
X171915185Y-108885668D01*
X171904029Y-108919336D01*
X171860001Y-109052203D01*
X171860001Y-109052204D01*
X171860000Y-109052204D01*
X171849500Y-109154983D01*
X171849500Y-110555001D01*
X171849501Y-110555018D01*
X171860000Y-110657796D01*
X171860001Y-110657799D01*
X171915185Y-110824331D01*
X171915186Y-110824334D01*
X171993539Y-110951366D01*
X172012000Y-111016461D01*
X172012000Y-111868538D01*
X171993539Y-111933634D01*
X171915189Y-112060659D01*
X171915185Y-112060668D01*
X171904029Y-112094336D01*
X171860001Y-112227203D01*
X171860001Y-112227204D01*
X171860000Y-112227204D01*
X171849500Y-112329983D01*
X171849500Y-113730001D01*
X171849501Y-113730018D01*
X171860000Y-113832796D01*
X171860001Y-113832799D01*
X171902531Y-113961145D01*
X171915186Y-113999334D01*
X171993539Y-114126366D01*
X172012000Y-114191461D01*
X172012000Y-115043538D01*
X171993539Y-115108634D01*
X171915189Y-115235659D01*
X171915185Y-115235668D01*
X171904029Y-115269336D01*
X171860001Y-115402203D01*
X171860001Y-115402204D01*
X171860000Y-115402204D01*
X171849500Y-115504983D01*
X171849500Y-116905001D01*
X171849501Y-116905018D01*
X171860000Y-117007796D01*
X171860001Y-117007799D01*
X171915185Y-117174331D01*
X171915186Y-117174334D01*
X171993538Y-117301364D01*
X172007289Y-117323657D01*
X172131344Y-117447712D01*
X172269403Y-117532867D01*
X172316128Y-117584815D01*
X172327351Y-117653777D01*
X172299507Y-117717860D01*
X172241439Y-117756716D01*
X172195657Y-117762104D01*
X171729386Y-117729500D01*
X171729384Y-117729500D01*
X171170616Y-117729500D01*
X171170614Y-117729500D01*
X170613217Y-117768476D01*
X170613211Y-117768476D01*
X170613210Y-117768477D01*
X170490835Y-117785675D01*
X170059885Y-117846242D01*
X169946919Y-117870253D01*
X169513324Y-117962417D01*
X168976202Y-118116434D01*
X168451133Y-118307544D01*
X167940674Y-118534815D01*
X167940670Y-118534817D01*
X167940671Y-118534816D01*
X167680108Y-118673359D01*
X167447313Y-118797139D01*
X166973458Y-119093237D01*
X166973450Y-119093242D01*
X166521398Y-119421677D01*
X166521392Y-119421682D01*
X166521391Y-119421682D01*
X166093352Y-119780850D01*
X165691415Y-120168996D01*
X165691415Y-120168997D01*
X165691414Y-120168998D01*
X165616636Y-120252047D01*
X165317521Y-120584247D01*
X164973516Y-121024554D01*
X164973514Y-121024557D01*
X164661055Y-121487797D01*
X164381672Y-121971703D01*
X164381671Y-121971706D01*
X164381670Y-121971707D01*
X164136724Y-122473921D01*
X164136723Y-122473922D01*
X163927407Y-122991996D01*
X163927407Y-122991997D01*
X163927406Y-122992000D01*
X163754738Y-123523419D01*
X163619560Y-124065589D01*
X163522532Y-124615860D01*
X163483843Y-124983962D01*
X163457258Y-125048576D01*
X163399961Y-125088561D01*
X163360522Y-125095000D01*
X122679000Y-125095000D01*
X122611961Y-125075315D01*
X122566206Y-125022511D01*
X122555000Y-124971000D01*
X122555000Y-118175001D01*
X127692000Y-118175001D01*
X127692001Y-118175018D01*
X127702500Y-118277796D01*
X127702501Y-118277799D01*
X127746530Y-118410668D01*
X127757686Y-118444334D01*
X127849788Y-118593656D01*
X127973844Y-118717712D01*
X128123166Y-118809814D01*
X128289703Y-118864999D01*
X128392491Y-118875500D01*
X129317508Y-118875499D01*
X129317516Y-118875498D01*
X129317519Y-118875498D01*
X129373802Y-118869748D01*
X129420297Y-118864999D01*
X129586834Y-118809814D01*
X129736156Y-118717712D01*
X129860212Y-118593656D01*
X129952314Y-118444334D01*
X130007499Y-118277797D01*
X130018000Y-118175009D01*
X130018000Y-117475004D01*
X163194732Y-117475004D01*
X163213777Y-117729154D01*
X163254327Y-117906816D01*
X163270492Y-117977637D01*
X163363607Y-118214888D01*
X163491041Y-118435612D01*
X163649950Y-118634877D01*
X163836783Y-118808232D01*
X164047366Y-118951805D01*
X164047371Y-118951807D01*
X164047372Y-118951808D01*
X164047373Y-118951809D01*
X164169328Y-119010538D01*
X164276992Y-119062387D01*
X164276993Y-119062387D01*
X164276996Y-119062389D01*
X164520542Y-119137513D01*
X164772565Y-119175500D01*
X165027435Y-119175500D01*
X165279458Y-119137513D01*
X165523004Y-119062389D01*
X165752634Y-118951805D01*
X165963217Y-118808232D01*
X166150050Y-118634877D01*
X166308959Y-118435612D01*
X166436393Y-118214888D01*
X166529508Y-117977637D01*
X166586222Y-117729157D01*
X166605268Y-117475000D01*
X166586222Y-117220843D01*
X166529508Y-116972363D01*
X166436393Y-116735112D01*
X166308959Y-116514388D01*
X166150050Y-116315123D01*
X165963217Y-116141768D01*
X165752634Y-115998195D01*
X165752630Y-115998193D01*
X165752627Y-115998191D01*
X165752626Y-115998190D01*
X165523006Y-115887612D01*
X165523008Y-115887612D01*
X165279466Y-115812489D01*
X165279462Y-115812488D01*
X165279458Y-115812487D01*
X165158231Y-115794214D01*
X165027440Y-115774500D01*
X165027435Y-115774500D01*
X164772565Y-115774500D01*
X164772559Y-115774500D01*
X164615609Y-115798157D01*
X164520542Y-115812487D01*
X164520538Y-115812488D01*
X164520539Y-115812488D01*
X164520533Y-115812489D01*
X164276992Y-115887612D01*
X164047373Y-115998190D01*
X164047372Y-115998191D01*
X163836782Y-116141768D01*
X163649952Y-116315121D01*
X163649950Y-116315123D01*
X163491041Y-116514388D01*
X163363608Y-116735109D01*
X163270492Y-116972362D01*
X163270490Y-116972369D01*
X163213777Y-117220845D01*
X163194732Y-117474995D01*
X163194732Y-117475004D01*
X130018000Y-117475004D01*
X130017999Y-116774992D01*
X130007499Y-116672203D01*
X129952314Y-116505666D01*
X129873961Y-116378634D01*
X129873960Y-116378632D01*
X129855499Y-116313536D01*
X129855499Y-115461462D01*
X129873960Y-115396366D01*
X129896760Y-115359401D01*
X129948709Y-115312678D01*
X130002298Y-115300500D01*
X130073259Y-115300500D01*
X130297702Y-115300500D01*
X130364741Y-115320185D01*
X130403239Y-115359401D01*
X130439788Y-115418656D01*
X130563844Y-115542712D01*
X130713166Y-115634814D01*
X130879703Y-115689999D01*
X130982491Y-115700500D01*
X131907508Y-115700499D01*
X131907516Y-115700498D01*
X131907519Y-115700498D01*
X131963802Y-115694748D01*
X132010297Y-115689999D01*
X132176834Y-115634814D01*
X132326156Y-115542712D01*
X132450212Y-115418656D01*
X132542314Y-115269334D01*
X132597499Y-115102797D01*
X132608000Y-115000009D01*
X132607999Y-113599992D01*
X132597499Y-113497203D01*
X132542314Y-113330666D01*
X132463961Y-113203634D01*
X132445500Y-113138538D01*
X132445500Y-112286461D01*
X132463960Y-112221366D01*
X132542314Y-112094334D01*
X132597499Y-111927797D01*
X132608000Y-111825009D01*
X132607999Y-110424992D01*
X132597499Y-110322203D01*
X132542314Y-110155666D01*
X132515572Y-110112310D01*
X132463961Y-110028634D01*
X132445500Y-109963538D01*
X132445500Y-109151470D01*
X139969500Y-109151470D01*
X139969501Y-109151476D01*
X139975908Y-109211083D01*
X140026202Y-109345928D01*
X140026206Y-109345935D01*
X140112452Y-109461144D01*
X140112455Y-109461147D01*
X140227664Y-109547393D01*
X140227671Y-109547397D01*
X140362517Y-109597691D01*
X140362516Y-109597691D01*
X140369444Y-109598435D01*
X140422127Y-109604100D01*
X141223194Y-109604099D01*
X141290233Y-109623783D01*
X141335988Y-109676587D01*
X141346515Y-109741060D01*
X141334540Y-109855000D01*
X141354326Y-110043256D01*
X141354327Y-110043259D01*
X141389553Y-110151674D01*
X141391548Y-110221515D01*
X141370889Y-110264303D01*
X141296204Y-110364069D01*
X141296202Y-110364072D01*
X141245908Y-110498918D01*
X141239877Y-110555018D01*
X141239501Y-110558524D01*
X141239500Y-110558536D01*
X141239500Y-113651471D01*
X141239501Y-113651477D01*
X141245908Y-113711084D01*
X141296202Y-113845929D01*
X141296206Y-113845936D01*
X141382452Y-113961145D01*
X141382455Y-113961148D01*
X141497664Y-114047394D01*
X141497671Y-114047398D01*
X141632517Y-114097692D01*
X141632516Y-114097692D01*
X141639444Y-114098436D01*
X141692127Y-114104101D01*
X142787872Y-114104100D01*
X142847483Y-114097692D01*
X142982331Y-114047397D01*
X143097546Y-113961147D01*
X143183796Y-113845932D01*
X143234091Y-113711084D01*
X143240500Y-113651474D01*
X143240500Y-113651471D01*
X143779500Y-113651471D01*
X143779501Y-113651477D01*
X143785908Y-113711084D01*
X143836202Y-113845929D01*
X143836206Y-113845936D01*
X143922452Y-113961145D01*
X143922455Y-113961148D01*
X144037664Y-114047394D01*
X144037671Y-114047398D01*
X144172517Y-114097692D01*
X144172516Y-114097692D01*
X144179444Y-114098436D01*
X144232127Y-114104101D01*
X145327872Y-114104100D01*
X145387483Y-114097692D01*
X145522331Y-114047397D01*
X145637546Y-113961147D01*
X145723796Y-113845932D01*
X145774091Y-113711084D01*
X145780500Y-113651474D01*
X145780500Y-113651471D01*
X146319500Y-113651471D01*
X146319501Y-113651477D01*
X146325908Y-113711084D01*
X146376202Y-113845929D01*
X146376206Y-113845936D01*
X146462452Y-113961145D01*
X146462455Y-113961148D01*
X146577664Y-114047394D01*
X146577671Y-114047398D01*
X146712517Y-114097692D01*
X146712516Y-114097692D01*
X146719444Y-114098436D01*
X146772127Y-114104101D01*
X147867872Y-114104100D01*
X147927483Y-114097692D01*
X148062331Y-114047397D01*
X148177546Y-113961147D01*
X148263796Y-113845932D01*
X148314091Y-113711084D01*
X148320500Y-113651474D01*
X148320500Y-113651471D01*
X148859500Y-113651471D01*
X148859501Y-113651477D01*
X148865908Y-113711084D01*
X148916202Y-113845929D01*
X148916206Y-113845936D01*
X149002452Y-113961145D01*
X149002455Y-113961148D01*
X149117664Y-114047394D01*
X149117671Y-114047398D01*
X149252517Y-114097692D01*
X149252516Y-114097692D01*
X149259444Y-114098436D01*
X149312127Y-114104101D01*
X150407872Y-114104100D01*
X150467483Y-114097692D01*
X150602331Y-114047397D01*
X150717546Y-113961147D01*
X150803796Y-113845932D01*
X150854091Y-113711084D01*
X150860500Y-113651474D01*
X150860499Y-110558529D01*
X150854091Y-110498918D01*
X150826518Y-110424992D01*
X150803797Y-110364072D01*
X150803793Y-110364065D01*
X150717547Y-110248856D01*
X150717544Y-110248853D01*
X150602335Y-110162607D01*
X150602328Y-110162603D01*
X150467482Y-110112309D01*
X150467483Y-110112309D01*
X150407883Y-110105902D01*
X150407881Y-110105901D01*
X150407873Y-110105901D01*
X150407864Y-110105901D01*
X149312129Y-110105901D01*
X149312123Y-110105902D01*
X149252516Y-110112309D01*
X149117671Y-110162603D01*
X149117664Y-110162607D01*
X149002455Y-110248853D01*
X149002452Y-110248856D01*
X148916206Y-110364065D01*
X148916202Y-110364072D01*
X148865908Y-110498918D01*
X148859877Y-110555018D01*
X148859501Y-110558524D01*
X148859500Y-110558536D01*
X148859500Y-113651471D01*
X148320500Y-113651471D01*
X148320499Y-110558529D01*
X148314091Y-110498918D01*
X148286518Y-110424992D01*
X148263797Y-110364072D01*
X148263793Y-110364065D01*
X148177547Y-110248856D01*
X148177544Y-110248853D01*
X148062335Y-110162607D01*
X148062328Y-110162603D01*
X147927482Y-110112309D01*
X147927483Y-110112309D01*
X147867883Y-110105902D01*
X147867881Y-110105901D01*
X147867873Y-110105901D01*
X147867864Y-110105901D01*
X146772129Y-110105901D01*
X146772123Y-110105902D01*
X146712516Y-110112309D01*
X146577671Y-110162603D01*
X146577664Y-110162607D01*
X146462455Y-110248853D01*
X146462452Y-110248856D01*
X146376206Y-110364065D01*
X146376202Y-110364072D01*
X146325908Y-110498918D01*
X146319877Y-110555018D01*
X146319501Y-110558524D01*
X146319500Y-110558536D01*
X146319500Y-113651471D01*
X145780500Y-113651471D01*
X145780499Y-110558529D01*
X145774091Y-110498918D01*
X145746518Y-110424992D01*
X145723797Y-110364072D01*
X145723793Y-110364065D01*
X145637547Y-110248856D01*
X145637544Y-110248853D01*
X145522335Y-110162607D01*
X145522328Y-110162603D01*
X145387482Y-110112309D01*
X145387483Y-110112309D01*
X145327883Y-110105902D01*
X145327881Y-110105901D01*
X145327873Y-110105901D01*
X145327864Y-110105901D01*
X144232129Y-110105901D01*
X144232123Y-110105902D01*
X144172516Y-110112309D01*
X144037671Y-110162603D01*
X144037664Y-110162607D01*
X143922455Y-110248853D01*
X143922452Y-110248856D01*
X143836206Y-110364065D01*
X143836202Y-110364072D01*
X143785908Y-110498918D01*
X143779877Y-110555018D01*
X143779501Y-110558524D01*
X143779500Y-110558536D01*
X143779500Y-113651471D01*
X143240500Y-113651471D01*
X143240499Y-110558529D01*
X143234091Y-110498918D01*
X143206518Y-110424992D01*
X143183797Y-110364072D01*
X143183796Y-110364070D01*
X143109110Y-110264303D01*
X143084693Y-110198839D01*
X143090445Y-110151677D01*
X143125674Y-110043256D01*
X143145460Y-109855000D01*
X143133484Y-109741058D01*
X143146053Y-109672331D01*
X143193785Y-109621307D01*
X143256805Y-109604099D01*
X144057871Y-109604099D01*
X144057872Y-109604099D01*
X144117483Y-109597691D01*
X144252331Y-109547396D01*
X144367546Y-109461146D01*
X144453796Y-109345931D01*
X144504091Y-109211083D01*
X144510500Y-109151473D01*
X144510500Y-109151470D01*
X145049500Y-109151470D01*
X145049501Y-109151476D01*
X145055908Y-109211083D01*
X145106202Y-109345928D01*
X145106206Y-109345935D01*
X145192452Y-109461144D01*
X145192455Y-109461147D01*
X145307664Y-109547393D01*
X145307671Y-109547397D01*
X145442517Y-109597691D01*
X145442516Y-109597691D01*
X145449444Y-109598435D01*
X145502127Y-109604100D01*
X146597872Y-109604099D01*
X146657483Y-109597691D01*
X146792331Y-109547396D01*
X146907546Y-109461146D01*
X146993796Y-109345931D01*
X147044091Y-109211083D01*
X147050500Y-109151473D01*
X147050500Y-109151470D01*
X147589500Y-109151470D01*
X147589501Y-109151476D01*
X147595908Y-109211083D01*
X147646202Y-109345928D01*
X147646206Y-109345935D01*
X147732452Y-109461144D01*
X147732455Y-109461147D01*
X147847664Y-109547393D01*
X147847671Y-109547397D01*
X147982517Y-109597691D01*
X147982516Y-109597691D01*
X147989444Y-109598435D01*
X148042127Y-109604100D01*
X149137872Y-109604099D01*
X149197483Y-109597691D01*
X149332331Y-109547396D01*
X149447546Y-109461146D01*
X149533796Y-109345931D01*
X149584091Y-109211083D01*
X149590500Y-109151473D01*
X149590500Y-109151470D01*
X150129500Y-109151470D01*
X150129501Y-109151476D01*
X150135908Y-109211083D01*
X150186202Y-109345928D01*
X150186206Y-109345935D01*
X150272452Y-109461144D01*
X150272455Y-109461147D01*
X150387664Y-109547393D01*
X150387671Y-109547397D01*
X150522517Y-109597691D01*
X150522516Y-109597691D01*
X150529444Y-109598435D01*
X150582127Y-109604100D01*
X151383194Y-109604099D01*
X151450233Y-109623783D01*
X151495988Y-109676587D01*
X151506515Y-109741060D01*
X151494540Y-109855000D01*
X151514326Y-110043256D01*
X151514327Y-110043259D01*
X151549553Y-110151674D01*
X151551548Y-110221515D01*
X151530889Y-110264303D01*
X151456204Y-110364069D01*
X151456202Y-110364072D01*
X151405908Y-110498918D01*
X151399877Y-110555018D01*
X151399501Y-110558524D01*
X151399500Y-110558536D01*
X151399500Y-113651471D01*
X151399501Y-113651477D01*
X151405908Y-113711084D01*
X151456202Y-113845929D01*
X151456206Y-113845936D01*
X151542452Y-113961145D01*
X151542455Y-113961148D01*
X151657664Y-114047394D01*
X151657671Y-114047398D01*
X151792517Y-114097692D01*
X151792516Y-114097692D01*
X151799444Y-114098436D01*
X151852127Y-114104101D01*
X152947872Y-114104100D01*
X153007483Y-114097692D01*
X153142331Y-114047397D01*
X153257546Y-113961147D01*
X153343796Y-113845932D01*
X153394091Y-113711084D01*
X153400500Y-113651474D01*
X153400500Y-113651471D01*
X153939500Y-113651471D01*
X153939501Y-113651477D01*
X153945908Y-113711084D01*
X153996202Y-113845929D01*
X153996206Y-113845936D01*
X154082452Y-113961145D01*
X154082455Y-113961148D01*
X154197664Y-114047394D01*
X154197671Y-114047398D01*
X154332517Y-114097692D01*
X154332516Y-114097692D01*
X154339444Y-114098436D01*
X154392127Y-114104101D01*
X155487872Y-114104100D01*
X155547483Y-114097692D01*
X155682331Y-114047397D01*
X155797546Y-113961147D01*
X155883796Y-113845932D01*
X155934091Y-113711084D01*
X155940500Y-113651474D01*
X155940500Y-113651471D01*
X156479500Y-113651471D01*
X156479501Y-113651477D01*
X156485908Y-113711084D01*
X156536202Y-113845929D01*
X156536206Y-113845936D01*
X156622452Y-113961145D01*
X156622455Y-113961148D01*
X156737664Y-114047394D01*
X156737671Y-114047398D01*
X156872517Y-114097692D01*
X156872516Y-114097692D01*
X156879444Y-114098436D01*
X156932127Y-114104101D01*
X158027872Y-114104100D01*
X158087483Y-114097692D01*
X158222331Y-114047397D01*
X158337546Y-113961147D01*
X158423796Y-113845932D01*
X158474091Y-113711084D01*
X158480500Y-113651474D01*
X158480500Y-113651471D01*
X159019500Y-113651471D01*
X159019501Y-113651477D01*
X159025908Y-113711084D01*
X159076202Y-113845929D01*
X159076206Y-113845936D01*
X159162452Y-113961145D01*
X159162455Y-113961148D01*
X159277664Y-114047394D01*
X159277671Y-114047398D01*
X159412517Y-114097692D01*
X159412516Y-114097692D01*
X159419444Y-114098436D01*
X159472127Y-114104101D01*
X160567872Y-114104100D01*
X160627483Y-114097692D01*
X160762331Y-114047397D01*
X160877546Y-113961147D01*
X160963796Y-113845932D01*
X161014091Y-113711084D01*
X161020500Y-113651474D01*
X161020500Y-113651471D01*
X161559500Y-113651471D01*
X161559501Y-113651477D01*
X161565908Y-113711084D01*
X161616202Y-113845929D01*
X161616206Y-113845936D01*
X161702452Y-113961145D01*
X161702455Y-113961148D01*
X161817664Y-114047394D01*
X161817671Y-114047398D01*
X161952517Y-114097692D01*
X161952516Y-114097692D01*
X161959444Y-114098436D01*
X162012127Y-114104101D01*
X163107872Y-114104100D01*
X163167483Y-114097692D01*
X163302331Y-114047397D01*
X163417546Y-113961147D01*
X163503796Y-113845932D01*
X163554091Y-113711084D01*
X163560500Y-113651474D01*
X163560499Y-110558529D01*
X163554091Y-110498918D01*
X163526518Y-110424992D01*
X163503797Y-110364072D01*
X163503793Y-110364065D01*
X163417547Y-110248856D01*
X163417544Y-110248853D01*
X163302335Y-110162607D01*
X163302328Y-110162603D01*
X163167482Y-110112309D01*
X163167483Y-110112309D01*
X163107883Y-110105902D01*
X163107881Y-110105901D01*
X163107873Y-110105901D01*
X163107864Y-110105901D01*
X162012129Y-110105901D01*
X162012123Y-110105902D01*
X161952516Y-110112309D01*
X161817671Y-110162603D01*
X161817664Y-110162607D01*
X161702455Y-110248853D01*
X161702452Y-110248856D01*
X161616206Y-110364065D01*
X161616202Y-110364072D01*
X161565908Y-110498918D01*
X161559877Y-110555018D01*
X161559501Y-110558524D01*
X161559500Y-110558536D01*
X161559500Y-113651471D01*
X161020500Y-113651471D01*
X161020499Y-110558529D01*
X161014091Y-110498918D01*
X160986518Y-110424992D01*
X160963797Y-110364072D01*
X160963793Y-110364065D01*
X160877547Y-110248856D01*
X160877544Y-110248853D01*
X160762335Y-110162607D01*
X160762328Y-110162603D01*
X160627482Y-110112309D01*
X160627483Y-110112309D01*
X160567883Y-110105902D01*
X160567881Y-110105901D01*
X160567873Y-110105901D01*
X160567864Y-110105901D01*
X159472129Y-110105901D01*
X159472123Y-110105902D01*
X159412516Y-110112309D01*
X159277671Y-110162603D01*
X159277664Y-110162607D01*
X159162455Y-110248853D01*
X159162452Y-110248856D01*
X159076206Y-110364065D01*
X159076202Y-110364072D01*
X159025908Y-110498918D01*
X159019877Y-110555018D01*
X159019501Y-110558524D01*
X159019500Y-110558536D01*
X159019500Y-113651471D01*
X158480500Y-113651471D01*
X158480499Y-110558529D01*
X158474091Y-110498918D01*
X158446518Y-110424992D01*
X158423797Y-110364072D01*
X158423793Y-110364065D01*
X158337547Y-110248856D01*
X158337544Y-110248853D01*
X158222335Y-110162607D01*
X158222328Y-110162603D01*
X158087482Y-110112309D01*
X158087483Y-110112309D01*
X158027883Y-110105902D01*
X158027881Y-110105901D01*
X158027873Y-110105901D01*
X158027864Y-110105901D01*
X156932129Y-110105901D01*
X156932123Y-110105902D01*
X156872516Y-110112309D01*
X156737671Y-110162603D01*
X156737664Y-110162607D01*
X156622455Y-110248853D01*
X156622452Y-110248856D01*
X156536206Y-110364065D01*
X156536202Y-110364072D01*
X156485908Y-110498918D01*
X156479877Y-110555018D01*
X156479501Y-110558524D01*
X156479500Y-110558536D01*
X156479500Y-113651471D01*
X155940500Y-113651471D01*
X155940499Y-110558529D01*
X155934091Y-110498918D01*
X155906518Y-110424992D01*
X155883797Y-110364072D01*
X155883793Y-110364065D01*
X155797547Y-110248856D01*
X155797544Y-110248853D01*
X155682335Y-110162607D01*
X155682328Y-110162603D01*
X155547482Y-110112309D01*
X155547483Y-110112309D01*
X155487883Y-110105902D01*
X155487881Y-110105901D01*
X155487873Y-110105901D01*
X155487864Y-110105901D01*
X154392129Y-110105901D01*
X154392123Y-110105902D01*
X154332516Y-110112309D01*
X154197671Y-110162603D01*
X154197664Y-110162607D01*
X154082455Y-110248853D01*
X154082452Y-110248856D01*
X153996206Y-110364065D01*
X153996202Y-110364072D01*
X153945908Y-110498918D01*
X153939877Y-110555018D01*
X153939501Y-110558524D01*
X153939500Y-110558536D01*
X153939500Y-113651471D01*
X153400500Y-113651471D01*
X153400499Y-110558529D01*
X153394091Y-110498918D01*
X153366518Y-110424992D01*
X153343797Y-110364072D01*
X153343796Y-110364070D01*
X153269110Y-110264303D01*
X153244693Y-110198839D01*
X153250445Y-110151677D01*
X153285674Y-110043256D01*
X153305460Y-109855000D01*
X153293484Y-109741058D01*
X153306053Y-109672331D01*
X153353785Y-109621307D01*
X153416805Y-109604099D01*
X154217871Y-109604099D01*
X154217872Y-109604099D01*
X154277483Y-109597691D01*
X154412331Y-109547396D01*
X154527546Y-109461146D01*
X154613796Y-109345931D01*
X154664091Y-109211083D01*
X154670500Y-109151473D01*
X154670500Y-109151470D01*
X155209500Y-109151470D01*
X155209501Y-109151476D01*
X155215908Y-109211083D01*
X155266202Y-109345928D01*
X155266206Y-109345935D01*
X155352452Y-109461144D01*
X155352455Y-109461147D01*
X155467664Y-109547393D01*
X155467671Y-109547397D01*
X155602517Y-109597691D01*
X155602516Y-109597691D01*
X155609444Y-109598435D01*
X155662127Y-109604100D01*
X156757872Y-109604099D01*
X156817483Y-109597691D01*
X156952331Y-109547396D01*
X157067546Y-109461146D01*
X157153796Y-109345931D01*
X157204091Y-109211083D01*
X157210500Y-109151473D01*
X157210500Y-109151470D01*
X157749500Y-109151470D01*
X157749501Y-109151476D01*
X157755908Y-109211083D01*
X157806202Y-109345928D01*
X157806206Y-109345935D01*
X157892452Y-109461144D01*
X157892455Y-109461147D01*
X158007664Y-109547393D01*
X158007671Y-109547397D01*
X158142517Y-109597691D01*
X158142516Y-109597691D01*
X158149444Y-109598435D01*
X158202127Y-109604100D01*
X159297872Y-109604099D01*
X159357483Y-109597691D01*
X159492331Y-109547396D01*
X159607546Y-109461146D01*
X159693796Y-109345931D01*
X159744091Y-109211083D01*
X159750500Y-109151473D01*
X159750500Y-109151470D01*
X160289500Y-109151470D01*
X160289501Y-109151476D01*
X160295908Y-109211083D01*
X160346202Y-109345928D01*
X160346206Y-109345935D01*
X160432452Y-109461144D01*
X160432455Y-109461147D01*
X160547664Y-109547393D01*
X160547671Y-109547397D01*
X160682517Y-109597691D01*
X160682516Y-109597691D01*
X160689444Y-109598435D01*
X160742127Y-109604100D01*
X161837872Y-109604099D01*
X161897483Y-109597691D01*
X162032331Y-109547396D01*
X162147546Y-109461146D01*
X162233796Y-109345931D01*
X162284091Y-109211083D01*
X162290500Y-109151473D01*
X162290500Y-109151470D01*
X162829500Y-109151470D01*
X162829501Y-109151476D01*
X162835908Y-109211083D01*
X162886202Y-109345928D01*
X162886206Y-109345935D01*
X162972452Y-109461144D01*
X162972455Y-109461147D01*
X163087664Y-109547393D01*
X163087671Y-109547397D01*
X163222517Y-109597691D01*
X163222516Y-109597691D01*
X163229444Y-109598435D01*
X163282127Y-109604100D01*
X164083194Y-109604099D01*
X164150233Y-109623783D01*
X164195988Y-109676587D01*
X164206515Y-109741060D01*
X164194540Y-109855000D01*
X164214326Y-110043256D01*
X164214327Y-110043259D01*
X164249553Y-110151674D01*
X164251548Y-110221515D01*
X164230889Y-110264303D01*
X164156204Y-110364069D01*
X164156202Y-110364072D01*
X164105908Y-110498918D01*
X164099877Y-110555018D01*
X164099501Y-110558524D01*
X164099500Y-110558536D01*
X164099500Y-113651471D01*
X164099501Y-113651477D01*
X164105908Y-113711084D01*
X164156202Y-113845929D01*
X164156206Y-113845936D01*
X164242452Y-113961145D01*
X164242455Y-113961148D01*
X164357664Y-114047394D01*
X164357671Y-114047398D01*
X164492517Y-114097692D01*
X164492516Y-114097692D01*
X164499444Y-114098436D01*
X164552127Y-114104101D01*
X165647872Y-114104100D01*
X165707483Y-114097692D01*
X165842331Y-114047397D01*
X165957546Y-113961147D01*
X166043796Y-113845932D01*
X166094091Y-113711084D01*
X166100500Y-113651474D01*
X166100499Y-110558529D01*
X166094091Y-110498918D01*
X166066518Y-110424992D01*
X166043797Y-110364072D01*
X166043796Y-110364070D01*
X165969110Y-110264303D01*
X165944693Y-110198839D01*
X165950445Y-110151677D01*
X165985674Y-110043256D01*
X166005460Y-109855000D01*
X165985674Y-109666744D01*
X165927179Y-109486716D01*
X165832533Y-109322784D01*
X165705871Y-109182112D01*
X165668552Y-109154998D01*
X165552734Y-109070851D01*
X165552729Y-109070848D01*
X165379807Y-108993857D01*
X165379802Y-108993855D01*
X165233116Y-108962677D01*
X165194646Y-108954500D01*
X165005354Y-108954500D01*
X164988247Y-108958135D01*
X164980277Y-108959830D01*
X164910610Y-108954512D01*
X164854877Y-108912373D01*
X164830774Y-108846793D01*
X164830499Y-108838539D01*
X164830499Y-106058529D01*
X164830498Y-106058523D01*
X164830497Y-106058516D01*
X164824091Y-105998917D01*
X164817032Y-105979992D01*
X164773797Y-105864071D01*
X164773796Y-105864069D01*
X164711572Y-105780949D01*
X164687155Y-105715485D01*
X164692908Y-105668319D01*
X164715674Y-105598256D01*
X164735460Y-105410000D01*
X164715674Y-105221744D01*
X164657179Y-105041716D01*
X164562533Y-104877784D01*
X164435871Y-104737112D01*
X164435870Y-104737111D01*
X164282734Y-104625851D01*
X164282729Y-104625848D01*
X164109807Y-104548857D01*
X164109802Y-104548855D01*
X163964001Y-104517865D01*
X163924646Y-104509500D01*
X163735354Y-104509500D01*
X163702897Y-104516398D01*
X163550197Y-104548855D01*
X163550192Y-104548857D01*
X163377270Y-104625848D01*
X163377265Y-104625851D01*
X163224129Y-104737111D01*
X163097466Y-104877785D01*
X163002821Y-105041715D01*
X163002818Y-105041722D01*
X162946110Y-105216252D01*
X162944326Y-105221744D01*
X162924540Y-105410000D01*
X162944326Y-105598256D01*
X162944327Y-105598259D01*
X162967091Y-105668320D01*
X162969086Y-105738161D01*
X162948427Y-105780949D01*
X162886204Y-105864068D01*
X162886202Y-105864071D01*
X162835908Y-105998917D01*
X162829501Y-106058516D01*
X162829501Y-106058523D01*
X162829500Y-106058535D01*
X162829500Y-109151470D01*
X162290500Y-109151470D01*
X162290499Y-106058528D01*
X162284091Y-105998917D01*
X162277032Y-105979992D01*
X162233797Y-105864071D01*
X162233793Y-105864064D01*
X162147547Y-105748855D01*
X162147544Y-105748852D01*
X162032335Y-105662606D01*
X162032328Y-105662602D01*
X161897482Y-105612308D01*
X161897483Y-105612308D01*
X161837883Y-105605901D01*
X161837881Y-105605900D01*
X161837873Y-105605900D01*
X161837864Y-105605900D01*
X160742129Y-105605900D01*
X160742123Y-105605901D01*
X160682516Y-105612308D01*
X160547671Y-105662602D01*
X160547664Y-105662606D01*
X160432455Y-105748852D01*
X160432452Y-105748855D01*
X160346206Y-105864064D01*
X160346202Y-105864071D01*
X160295908Y-105998917D01*
X160289501Y-106058516D01*
X160289501Y-106058523D01*
X160289500Y-106058535D01*
X160289500Y-109151470D01*
X159750500Y-109151470D01*
X159750499Y-106058528D01*
X159744091Y-105998917D01*
X159737032Y-105979992D01*
X159693797Y-105864071D01*
X159693793Y-105864064D01*
X159607547Y-105748855D01*
X159607544Y-105748852D01*
X159492335Y-105662606D01*
X159492328Y-105662602D01*
X159357482Y-105612308D01*
X159357483Y-105612308D01*
X159297883Y-105605901D01*
X159297881Y-105605900D01*
X159297873Y-105605900D01*
X159297864Y-105605900D01*
X158202129Y-105605900D01*
X158202123Y-105605901D01*
X158142516Y-105612308D01*
X158007671Y-105662602D01*
X158007664Y-105662606D01*
X157892455Y-105748852D01*
X157892452Y-105748855D01*
X157806206Y-105864064D01*
X157806202Y-105864071D01*
X157755908Y-105998917D01*
X157749501Y-106058516D01*
X157749501Y-106058523D01*
X157749500Y-106058535D01*
X157749500Y-109151470D01*
X157210500Y-109151470D01*
X157210499Y-106058528D01*
X157204091Y-105998917D01*
X157197032Y-105979992D01*
X157153797Y-105864071D01*
X157153793Y-105864064D01*
X157067547Y-105748855D01*
X157067544Y-105748852D01*
X156952335Y-105662606D01*
X156952328Y-105662602D01*
X156817482Y-105612308D01*
X156817483Y-105612308D01*
X156757883Y-105605901D01*
X156757881Y-105605900D01*
X156757873Y-105605900D01*
X156757864Y-105605900D01*
X155662129Y-105605900D01*
X155662123Y-105605901D01*
X155602516Y-105612308D01*
X155467671Y-105662602D01*
X155467664Y-105662606D01*
X155352455Y-105748852D01*
X155352452Y-105748855D01*
X155266206Y-105864064D01*
X155266202Y-105864071D01*
X155215908Y-105998917D01*
X155209501Y-106058516D01*
X155209501Y-106058523D01*
X155209500Y-106058535D01*
X155209500Y-109151470D01*
X154670500Y-109151470D01*
X154670499Y-106058528D01*
X154664091Y-105998917D01*
X154657032Y-105979992D01*
X154613797Y-105864071D01*
X154613796Y-105864069D01*
X154551572Y-105780949D01*
X154527155Y-105715485D01*
X154532908Y-105668319D01*
X154555674Y-105598256D01*
X154575460Y-105410000D01*
X154555674Y-105221744D01*
X154497179Y-105041716D01*
X154402533Y-104877784D01*
X154275871Y-104737112D01*
X154275870Y-104737111D01*
X154122734Y-104625851D01*
X154122729Y-104625848D01*
X153949807Y-104548857D01*
X153949802Y-104548855D01*
X153804001Y-104517865D01*
X153764646Y-104509500D01*
X153575354Y-104509500D01*
X153542897Y-104516398D01*
X153390197Y-104548855D01*
X153390192Y-104548857D01*
X153217270Y-104625848D01*
X153217265Y-104625851D01*
X153064129Y-104737111D01*
X152937466Y-104877785D01*
X152842821Y-105041715D01*
X152842818Y-105041722D01*
X152786110Y-105216252D01*
X152784326Y-105221744D01*
X152764540Y-105410000D01*
X152784326Y-105598256D01*
X152784327Y-105598259D01*
X152807091Y-105668320D01*
X152809086Y-105738161D01*
X152788427Y-105780949D01*
X152726204Y-105864068D01*
X152726202Y-105864071D01*
X152675908Y-105998917D01*
X152669501Y-106058516D01*
X152669501Y-106058523D01*
X152669500Y-106058535D01*
X152669500Y-108838539D01*
X152649815Y-108905578D01*
X152597011Y-108951333D01*
X152527853Y-108961277D01*
X152519726Y-108959831D01*
X152494646Y-108954500D01*
X152305354Y-108954500D01*
X152288247Y-108958135D01*
X152280277Y-108959830D01*
X152210610Y-108954512D01*
X152154877Y-108912373D01*
X152130774Y-108846793D01*
X152130499Y-108838539D01*
X152130499Y-106058529D01*
X152130498Y-106058523D01*
X152130497Y-106058516D01*
X152124091Y-105998917D01*
X152117032Y-105979992D01*
X152073797Y-105864071D01*
X152073793Y-105864064D01*
X151987547Y-105748855D01*
X151987544Y-105748852D01*
X151872335Y-105662606D01*
X151872328Y-105662602D01*
X151737482Y-105612308D01*
X151737483Y-105612308D01*
X151677883Y-105605901D01*
X151677881Y-105605900D01*
X151677873Y-105605900D01*
X151677864Y-105605900D01*
X150582129Y-105605900D01*
X150582123Y-105605901D01*
X150522516Y-105612308D01*
X150387671Y-105662602D01*
X150387664Y-105662606D01*
X150272455Y-105748852D01*
X150272452Y-105748855D01*
X150186206Y-105864064D01*
X150186202Y-105864071D01*
X150135908Y-105998917D01*
X150129501Y-106058516D01*
X150129501Y-106058523D01*
X150129500Y-106058535D01*
X150129500Y-109151470D01*
X149590500Y-109151470D01*
X149590499Y-106058528D01*
X149584091Y-105998917D01*
X149577032Y-105979992D01*
X149533797Y-105864071D01*
X149533793Y-105864064D01*
X149447547Y-105748855D01*
X149447544Y-105748852D01*
X149332335Y-105662606D01*
X149332328Y-105662602D01*
X149197482Y-105612308D01*
X149197483Y-105612308D01*
X149137883Y-105605901D01*
X149137881Y-105605900D01*
X149137873Y-105605900D01*
X149137864Y-105605900D01*
X148042129Y-105605900D01*
X148042123Y-105605901D01*
X147982516Y-105612308D01*
X147847671Y-105662602D01*
X147847664Y-105662606D01*
X147732455Y-105748852D01*
X147732452Y-105748855D01*
X147646206Y-105864064D01*
X147646202Y-105864071D01*
X147595908Y-105998917D01*
X147589501Y-106058516D01*
X147589501Y-106058523D01*
X147589500Y-106058535D01*
X147589500Y-109151470D01*
X147050500Y-109151470D01*
X147050499Y-106058528D01*
X147044091Y-105998917D01*
X147037032Y-105979992D01*
X146993797Y-105864071D01*
X146993793Y-105864064D01*
X146907547Y-105748855D01*
X146907544Y-105748852D01*
X146792335Y-105662606D01*
X146792328Y-105662602D01*
X146657482Y-105612308D01*
X146657483Y-105612308D01*
X146597883Y-105605901D01*
X146597881Y-105605900D01*
X146597873Y-105605900D01*
X146597864Y-105605900D01*
X145502129Y-105605900D01*
X145502123Y-105605901D01*
X145442516Y-105612308D01*
X145307671Y-105662602D01*
X145307664Y-105662606D01*
X145192455Y-105748852D01*
X145192452Y-105748855D01*
X145106206Y-105864064D01*
X145106202Y-105864071D01*
X145055908Y-105998917D01*
X145049501Y-106058516D01*
X145049501Y-106058523D01*
X145049500Y-106058535D01*
X145049500Y-109151470D01*
X144510500Y-109151470D01*
X144510499Y-106058528D01*
X144504091Y-105998917D01*
X144497032Y-105979992D01*
X144453797Y-105864071D01*
X144453793Y-105864064D01*
X144367547Y-105748855D01*
X144367544Y-105748852D01*
X144252335Y-105662606D01*
X144252328Y-105662602D01*
X144117482Y-105612308D01*
X144117483Y-105612308D01*
X144057883Y-105605901D01*
X144057881Y-105605900D01*
X144057873Y-105605900D01*
X144057864Y-105605900D01*
X142962129Y-105605900D01*
X142962123Y-105605901D01*
X142902516Y-105612308D01*
X142767671Y-105662602D01*
X142767664Y-105662606D01*
X142652455Y-105748852D01*
X142652452Y-105748855D01*
X142566206Y-105864064D01*
X142566202Y-105864071D01*
X142515908Y-105998917D01*
X142509501Y-106058516D01*
X142509501Y-106058523D01*
X142509500Y-106058535D01*
X142509500Y-108838539D01*
X142489815Y-108905578D01*
X142437011Y-108951333D01*
X142367853Y-108961277D01*
X142359726Y-108959831D01*
X142334646Y-108954500D01*
X142145354Y-108954500D01*
X142128247Y-108958135D01*
X142120277Y-108959830D01*
X142050610Y-108954512D01*
X141994877Y-108912373D01*
X141970774Y-108846793D01*
X141970499Y-108838539D01*
X141970499Y-106058529D01*
X141970498Y-106058523D01*
X141970497Y-106058516D01*
X141964091Y-105998917D01*
X141957032Y-105979992D01*
X141913797Y-105864071D01*
X141913796Y-105864069D01*
X141851572Y-105780949D01*
X141827155Y-105715485D01*
X141832908Y-105668319D01*
X141855674Y-105598256D01*
X141875460Y-105410000D01*
X141855674Y-105221744D01*
X141797179Y-105041716D01*
X141702533Y-104877784D01*
X141575871Y-104737112D01*
X141575870Y-104737111D01*
X141422734Y-104625851D01*
X141422729Y-104625848D01*
X141249807Y-104548857D01*
X141249802Y-104548855D01*
X141104001Y-104517865D01*
X141064646Y-104509500D01*
X140875354Y-104509500D01*
X140842897Y-104516398D01*
X140690197Y-104548855D01*
X140690192Y-104548857D01*
X140517270Y-104625848D01*
X140517265Y-104625851D01*
X140364129Y-104737111D01*
X140237466Y-104877785D01*
X140142821Y-105041715D01*
X140142818Y-105041722D01*
X140086110Y-105216252D01*
X140084326Y-105221744D01*
X140064540Y-105410000D01*
X140084326Y-105598256D01*
X140084327Y-105598259D01*
X140107091Y-105668320D01*
X140109086Y-105738161D01*
X140088427Y-105780949D01*
X140026204Y-105864068D01*
X140026202Y-105864071D01*
X139975908Y-105998917D01*
X139969501Y-106058516D01*
X139969501Y-106058523D01*
X139969500Y-106058535D01*
X139969500Y-109151470D01*
X132445500Y-109151470D01*
X132445500Y-109111461D01*
X132463960Y-109046366D01*
X132542314Y-108919334D01*
X132597499Y-108752797D01*
X132608000Y-108650009D01*
X132607999Y-107249992D01*
X132597499Y-107147203D01*
X132542314Y-106980666D01*
X132510949Y-106929815D01*
X132463961Y-106853634D01*
X132445500Y-106788538D01*
X132445500Y-105936461D01*
X132463960Y-105871366D01*
X132542314Y-105744334D01*
X132597499Y-105577797D01*
X132608000Y-105475009D01*
X132607999Y-104074992D01*
X132597499Y-103972203D01*
X132542314Y-103805666D01*
X132450212Y-103656344D01*
X132326156Y-103532288D01*
X132176834Y-103440186D01*
X132010297Y-103385001D01*
X132010295Y-103385000D01*
X131907510Y-103374500D01*
X130982498Y-103374500D01*
X130982480Y-103374501D01*
X130879703Y-103385000D01*
X130879700Y-103385001D01*
X130713168Y-103440185D01*
X130713163Y-103440187D01*
X130563842Y-103532289D01*
X130439789Y-103656342D01*
X130347687Y-103805663D01*
X130347685Y-103805666D01*
X130347686Y-103805666D01*
X130292501Y-103972203D01*
X130292501Y-103972204D01*
X130292500Y-103972204D01*
X130282000Y-104074983D01*
X130282000Y-105475001D01*
X130282001Y-105475018D01*
X130292500Y-105577796D01*
X130292501Y-105577799D01*
X130347685Y-105744331D01*
X130347687Y-105744336D01*
X130366602Y-105775002D01*
X130426039Y-105871366D01*
X130444500Y-105936461D01*
X130444500Y-106788538D01*
X130426039Y-106853634D01*
X130403241Y-106890596D01*
X130351294Y-106937321D01*
X130297702Y-106949500D01*
X130002298Y-106949500D01*
X129935259Y-106929815D01*
X129896759Y-106890597D01*
X129860212Y-106831344D01*
X129736156Y-106707288D01*
X129586834Y-106615186D01*
X129420297Y-106560001D01*
X129420295Y-106560000D01*
X129317510Y-106549500D01*
X128392498Y-106549500D01*
X128392480Y-106549501D01*
X128289703Y-106560000D01*
X128289700Y-106560001D01*
X128123168Y-106615185D01*
X128123163Y-106615187D01*
X127973842Y-106707289D01*
X127849789Y-106831342D01*
X127757687Y-106980663D01*
X127757685Y-106980666D01*
X127757686Y-106980666D01*
X127702501Y-107147203D01*
X127702501Y-107147204D01*
X127702500Y-107147204D01*
X127692000Y-107249983D01*
X127692000Y-108650001D01*
X127692001Y-108650018D01*
X127702500Y-108752796D01*
X127702501Y-108752799D01*
X127746530Y-108885668D01*
X127757686Y-108919334D01*
X127836039Y-109046366D01*
X127854500Y-109111461D01*
X127854499Y-109963538D01*
X127836038Y-110028634D01*
X127757690Y-110155659D01*
X127757685Y-110155668D01*
X127755386Y-110162607D01*
X127702501Y-110322203D01*
X127702501Y-110322204D01*
X127702500Y-110322204D01*
X127692000Y-110424983D01*
X127692000Y-111825001D01*
X127692001Y-111825018D01*
X127702500Y-111927796D01*
X127702501Y-111927799D01*
X127746530Y-112060668D01*
X127757686Y-112094334D01*
X127836039Y-112221366D01*
X127854500Y-112286461D01*
X127854500Y-113138538D01*
X127836039Y-113203634D01*
X127757689Y-113330659D01*
X127757685Y-113330666D01*
X127757686Y-113330666D01*
X127702501Y-113497203D01*
X127702501Y-113497204D01*
X127702500Y-113497204D01*
X127692000Y-113599983D01*
X127692000Y-115000001D01*
X127692001Y-115000018D01*
X127702500Y-115102796D01*
X127702501Y-115102799D01*
X127746530Y-115235668D01*
X127757686Y-115269334D01*
X127836039Y-115396366D01*
X127854500Y-115461461D01*
X127854500Y-116313538D01*
X127836039Y-116378634D01*
X127757689Y-116505659D01*
X127757685Y-116505666D01*
X127757686Y-116505666D01*
X127702501Y-116672203D01*
X127702501Y-116672204D01*
X127702500Y-116672204D01*
X127692000Y-116774983D01*
X127692000Y-118175001D01*
X122555000Y-118175001D01*
X122555000Y-101755001D01*
X123234500Y-101755001D01*
X123234501Y-101755019D01*
X123245000Y-101857796D01*
X123245001Y-101857799D01*
X123298519Y-102019304D01*
X123300186Y-102024334D01*
X123392288Y-102173656D01*
X123516344Y-102297712D01*
X123665666Y-102389814D01*
X123832203Y-102444999D01*
X123934991Y-102455500D01*
X124435269Y-102455499D01*
X124502308Y-102475183D01*
X124522950Y-102491818D01*
X124751769Y-102720637D01*
X124763549Y-102734268D01*
X124777889Y-102753530D01*
X124777891Y-102753532D01*
X124817909Y-102787110D01*
X124821899Y-102790766D01*
X124827720Y-102796587D01*
X124827722Y-102796590D01*
X124838349Y-102804992D01*
X124853444Y-102816927D01*
X124912286Y-102866302D01*
X124912294Y-102866306D01*
X124918324Y-102870273D01*
X124918290Y-102870323D01*
X124924637Y-102874366D01*
X124924669Y-102874316D01*
X124930818Y-102878108D01*
X124930820Y-102878109D01*
X124930823Y-102878111D01*
X125000430Y-102910569D01*
X125069067Y-102945040D01*
X125069076Y-102945042D01*
X125075855Y-102947510D01*
X125075834Y-102947567D01*
X125082951Y-102950040D01*
X125082970Y-102949984D01*
X125089830Y-102952257D01*
X125165031Y-102967783D01*
X125165032Y-102967784D01*
X125239779Y-102985500D01*
X125239788Y-102985500D01*
X125246952Y-102986338D01*
X125246945Y-102986397D01*
X125254446Y-102987163D01*
X125254452Y-102987104D01*
X125261640Y-102987733D01*
X125261643Y-102987732D01*
X125261644Y-102987733D01*
X125338398Y-102985500D01*
X126592672Y-102985500D01*
X126627267Y-102990424D01*
X126772426Y-103032597D01*
X126772429Y-103032597D01*
X126772431Y-103032598D01*
X126784722Y-103033565D01*
X126809304Y-103035500D01*
X126809306Y-103035500D01*
X128590696Y-103035500D01*
X128609131Y-103034049D01*
X128627569Y-103032598D01*
X128627571Y-103032597D01*
X128627573Y-103032597D01*
X128669191Y-103020505D01*
X128785398Y-102986744D01*
X128926865Y-102903081D01*
X129043081Y-102786865D01*
X129126744Y-102645398D01*
X129172598Y-102487569D01*
X129175500Y-102450694D01*
X129175500Y-102019306D01*
X129172598Y-101982431D01*
X129126744Y-101824602D01*
X129048703Y-101692641D01*
X129043084Y-101683139D01*
X129038301Y-101676974D01*
X129040745Y-101675077D01*
X129014142Y-101626358D01*
X129019126Y-101556666D01*
X129039932Y-101524291D01*
X129038301Y-101523026D01*
X129043077Y-101516868D01*
X129043081Y-101516865D01*
X129126744Y-101375398D01*
X129172598Y-101217569D01*
X129175500Y-101180694D01*
X129175500Y-100749306D01*
X129172598Y-100712431D01*
X129172085Y-100710666D01*
X129126745Y-100554606D01*
X129126744Y-100554603D01*
X129126744Y-100554602D01*
X129057365Y-100437288D01*
X129043084Y-100413139D01*
X129038301Y-100406974D01*
X129040745Y-100405077D01*
X129014142Y-100356358D01*
X129019126Y-100286666D01*
X129039932Y-100254291D01*
X129038301Y-100253026D01*
X129043077Y-100246868D01*
X129043081Y-100246865D01*
X129126744Y-100105398D01*
X129172598Y-99947569D01*
X129175500Y-99910694D01*
X129175500Y-99479306D01*
X129172598Y-99442431D01*
X129148843Y-99360668D01*
X129126745Y-99284606D01*
X129126744Y-99284603D01*
X129126744Y-99284602D01*
X129080632Y-99206631D01*
X129043084Y-99143139D01*
X129038301Y-99136974D01*
X129040745Y-99135077D01*
X129014142Y-99086358D01*
X129019126Y-99016666D01*
X129039932Y-98984291D01*
X129038301Y-98983026D01*
X129043077Y-98976868D01*
X129043081Y-98976865D01*
X129126744Y-98835398D01*
X129172198Y-98678946D01*
X129172597Y-98677573D01*
X129172598Y-98677567D01*
X129175500Y-98640696D01*
X129175500Y-98209304D01*
X129172598Y-98172432D01*
X129172597Y-98172426D01*
X129126745Y-98014606D01*
X129126744Y-98014603D01*
X129126744Y-98014602D01*
X129043081Y-97873135D01*
X129043079Y-97873133D01*
X129043076Y-97873129D01*
X128926870Y-97756923D01*
X128926862Y-97756917D01*
X128810393Y-97688038D01*
X128785398Y-97673256D01*
X128785397Y-97673255D01*
X128785396Y-97673255D01*
X128785393Y-97673254D01*
X128627573Y-97627402D01*
X128627567Y-97627401D01*
X128590696Y-97624500D01*
X128590694Y-97624500D01*
X128574500Y-97624500D01*
X128507461Y-97604815D01*
X128461706Y-97552011D01*
X128450500Y-97500500D01*
X128450500Y-97452230D01*
X128470185Y-97385191D01*
X128486819Y-97364549D01*
X128544549Y-97306819D01*
X128605872Y-97273334D01*
X128632230Y-97270500D01*
X129168701Y-97270500D01*
X129168709Y-97270500D01*
X129299255Y-97255241D01*
X129305472Y-97252978D01*
X129347885Y-97245499D01*
X129374405Y-97245499D01*
X129381354Y-97244952D01*
X129409156Y-97242765D01*
X129557887Y-97199555D01*
X129691198Y-97120715D01*
X129800715Y-97011198D01*
X129879555Y-96877887D01*
X129922765Y-96729156D01*
X129925500Y-96694405D01*
X129925499Y-96345596D01*
X129922765Y-96310844D01*
X129879555Y-96162113D01*
X129800715Y-96028802D01*
X129800713Y-96028800D01*
X129800710Y-96028796D01*
X129691203Y-95919289D01*
X129691194Y-95919282D01*
X129610111Y-95871330D01*
X129557887Y-95840445D01*
X129409156Y-95797235D01*
X129409153Y-95797234D01*
X129409151Y-95797234D01*
X129374407Y-95794500D01*
X129374405Y-95794500D01*
X129332695Y-95794500D01*
X129304098Y-95791157D01*
X129212722Y-95769500D01*
X129212721Y-95769500D01*
X128333705Y-95769500D01*
X128315735Y-95768191D01*
X128291972Y-95764710D01*
X128246533Y-95768686D01*
X128239931Y-95769264D01*
X128234530Y-95769500D01*
X128226289Y-95769500D01*
X128204579Y-95772037D01*
X128193724Y-95773306D01*
X128178419Y-95774645D01*
X128117199Y-95780001D01*
X128110132Y-95781460D01*
X128110120Y-95781404D01*
X128102763Y-95783035D01*
X128102777Y-95783092D01*
X128095743Y-95784759D01*
X128023575Y-95811025D01*
X127950675Y-95835181D01*
X127944126Y-95838236D01*
X127944101Y-95838183D01*
X127937308Y-95841471D01*
X127937334Y-95841523D01*
X127930880Y-95844764D01*
X127866708Y-95886971D01*
X127801347Y-95927285D01*
X127795683Y-95931765D01*
X127795647Y-95931719D01*
X127789798Y-95936484D01*
X127789835Y-95936528D01*
X127784310Y-95941164D01*
X127731599Y-95997033D01*
X127214358Y-96514272D01*
X127200729Y-96526051D01*
X127181468Y-96540390D01*
X127147898Y-96580397D01*
X127144253Y-96584376D01*
X127138409Y-96590222D01*
X127118059Y-96615959D01*
X127068695Y-96674789D01*
X127064729Y-96680819D01*
X127064682Y-96680788D01*
X127060630Y-96687147D01*
X127060679Y-96687177D01*
X127056889Y-96693321D01*
X127024424Y-96762941D01*
X126989960Y-96831566D01*
X126987488Y-96838357D01*
X126987432Y-96838336D01*
X126984960Y-96845450D01*
X126985015Y-96845469D01*
X126982742Y-96852327D01*
X126977465Y-96877887D01*
X126967207Y-96927565D01*
X126957524Y-96968422D01*
X126949498Y-97002286D01*
X126948661Y-97009454D01*
X126948601Y-97009447D01*
X126947835Y-97016945D01*
X126947895Y-97016951D01*
X126947265Y-97024140D01*
X126949500Y-97100916D01*
X126949500Y-97500500D01*
X126929815Y-97567539D01*
X126877011Y-97613294D01*
X126825500Y-97624500D01*
X126809304Y-97624500D01*
X126772432Y-97627401D01*
X126772426Y-97627402D01*
X126627267Y-97669576D01*
X126592672Y-97674500D01*
X125391205Y-97674500D01*
X125373235Y-97673191D01*
X125349472Y-97669710D01*
X125304390Y-97673655D01*
X125297433Y-97674264D01*
X125292032Y-97674500D01*
X125283787Y-97674500D01*
X125257722Y-97677546D01*
X125251205Y-97678308D01*
X125245903Y-97678771D01*
X125174701Y-97685001D01*
X125167634Y-97686461D01*
X125167622Y-97686404D01*
X125160253Y-97688038D01*
X125160267Y-97688095D01*
X125153239Y-97689760D01*
X125081067Y-97716027D01*
X125081068Y-97716028D01*
X125008165Y-97740186D01*
X125008163Y-97740186D01*
X125008160Y-97740188D01*
X125001623Y-97743236D01*
X125001598Y-97743184D01*
X124994810Y-97746470D01*
X124994836Y-97746521D01*
X124988385Y-97749761D01*
X124924223Y-97791961D01*
X124858846Y-97832285D01*
X124853182Y-97836765D01*
X124853146Y-97836719D01*
X124847298Y-97841484D01*
X124847335Y-97841528D01*
X124841810Y-97846164D01*
X124841804Y-97846169D01*
X124841804Y-97846170D01*
X124805576Y-97884569D01*
X124789114Y-97902017D01*
X124522949Y-98168181D01*
X124461626Y-98201666D01*
X124435268Y-98204500D01*
X123934998Y-98204500D01*
X123934980Y-98204501D01*
X123832203Y-98215000D01*
X123832200Y-98215001D01*
X123665668Y-98270185D01*
X123665663Y-98270187D01*
X123516342Y-98362289D01*
X123392289Y-98486342D01*
X123300187Y-98635663D01*
X123300185Y-98635666D01*
X123300186Y-98635666D01*
X123245001Y-98802203D01*
X123245001Y-98802204D01*
X123245000Y-98802204D01*
X123234500Y-98904983D01*
X123234500Y-99680001D01*
X123234501Y-99680019D01*
X123245000Y-99782796D01*
X123245001Y-99782799D01*
X123300185Y-99949331D01*
X123300187Y-99949336D01*
X123392289Y-100098657D01*
X123516346Y-100222714D01*
X123519182Y-100224463D01*
X123520717Y-100226170D01*
X123522011Y-100227193D01*
X123521836Y-100227414D01*
X123565905Y-100276411D01*
X123577126Y-100345374D01*
X123549282Y-100409456D01*
X123519182Y-100435537D01*
X123516346Y-100437285D01*
X123392289Y-100561342D01*
X123300187Y-100710663D01*
X123300185Y-100710668D01*
X123287382Y-100749306D01*
X123245001Y-100877203D01*
X123245001Y-100877204D01*
X123245000Y-100877204D01*
X123234500Y-100979983D01*
X123234500Y-101755001D01*
X122555000Y-101755001D01*
X122555000Y-82674000D01*
X122574685Y-82606961D01*
X122627489Y-82561206D01*
X122679000Y-82550000D01*
X134496000Y-82550000D01*
X134563039Y-82569685D01*
G37*
%TD.AperFunction*%
%TD*%
M02*
