%TF.GenerationSoftware,KiCad,Pcbnew,7.0.1*%
%TF.CreationDate,2024-07-26T16:33:55+03:00*%
%TF.ProjectId,_______ _____,21383b3e-3230-44f2-903f-3b3042302e6b,rev?*%
%TF.SameCoordinates,Original*%
%TF.FileFunction,Copper,L5,Inr*%
%TF.FilePolarity,Positive*%
%FSLAX46Y46*%
G04 Gerber Fmt 4.6, Leading zero omitted, Abs format (unit mm)*
G04 Created by KiCad (PCBNEW 7.0.1) date 2024-07-26 16:33:55*
%MOMM*%
%LPD*%
G01*
G04 APERTURE LIST*
%TA.AperFunction,ComponentPad*%
%ADD10C,5.000000*%
%TD*%
%TA.AperFunction,ComponentPad*%
%ADD11C,8.200000*%
%TD*%
%TA.AperFunction,ComponentPad*%
%ADD12C,6.000000*%
%TD*%
%TA.AperFunction,ComponentPad*%
%ADD13R,1.350000X1.350000*%
%TD*%
%TA.AperFunction,ComponentPad*%
%ADD14O,1.350000X1.350000*%
%TD*%
%TA.AperFunction,ComponentPad*%
%ADD15C,2.000000*%
%TD*%
%TA.AperFunction,ViaPad*%
%ADD16C,0.800000*%
%TD*%
G04 APERTURE END LIST*
D10*
%TO.N,Earth_Protective*%
%TO.C,J8*%
X132222240Y-124898250D03*
%TD*%
D11*
%TO.N,C*%
%TO.C,J4*%
X127142240Y-58223250D03*
%TD*%
%TO.N,A*%
%TO.C,J1*%
X171592240Y-58223250D03*
%TD*%
D10*
%TO.N,Earth_Protective*%
%TO.C,J2*%
X167147240Y-124898250D03*
%TD*%
D12*
%TO.N,Shunt_1*%
%TO.C,J6*%
X144287240Y-119483250D03*
%TD*%
D13*
%TO.N,+3.3V*%
%TO.C,J7*%
X150367240Y-70686250D03*
D14*
%TO.N,~{OS}_MCU*%
X148367240Y-70686250D03*
%TO.N,G3*%
X150367240Y-72686250D03*
%TO.N,SCL_MCU*%
X148367240Y-72686250D03*
%TO.N,B*%
X150367240Y-74686250D03*
%TO.N,SDA_MCU*%
X148367240Y-74686250D03*
%TO.N,G2*%
X150367240Y-76686250D03*
%TO.N,G4*%
X148367240Y-76686250D03*
%TO.N,GND*%
X150367240Y-78686250D03*
X148367240Y-78686250D03*
%TO.N,G1*%
X150367240Y-80686250D03*
%TO.N,G6*%
X148367240Y-80686250D03*
%TO.N,A*%
X150367240Y-82686250D03*
%TO.N,C*%
X148367240Y-82686250D03*
%TO.N,GND*%
X150367240Y-84686250D03*
%TO.N,G5*%
X148367240Y-84686250D03*
%TO.N,Shunt_1*%
X150367240Y-86686250D03*
%TO.N,GND*%
X148367240Y-86686250D03*
%TO.N,Shunt_1*%
X150367240Y-88686250D03*
%TO.N,Shunt_2*%
X148367240Y-88686250D03*
%TD*%
D11*
%TO.N,B*%
%TO.C,J3*%
X149367240Y-43618250D03*
%TD*%
D15*
%TO.N,Earth_Protective*%
%TO.C,C44*%
X160797240Y-124838250D03*
%TO.N,Net-(J5-Pin_1)*%
X160797240Y-117338250D03*
%TD*%
D12*
%TO.N,Net-(J5-Pin_1)*%
%TO.C,J5*%
X154447240Y-119483250D03*
%TD*%
D15*
%TO.N,Shunt_1*%
%TO.C,C45*%
X137937240Y-117338250D03*
%TO.N,Earth_Protective*%
X137937240Y-124838250D03*
%TD*%
D16*
%TO.N,Shunt_2*%
X143510000Y-78105000D03*
X143510000Y-79375000D03*
X144145000Y-77470000D03*
X144145000Y-78740000D03*
X144145000Y-80010000D03*
X154940000Y-80010000D03*
%TO.N,G1*%
X158892240Y-77273250D03*
%TO.N,A*%
X176672240Y-69653250D03*
X158892240Y-79813250D03*
X170322240Y-65843250D03*
X173497240Y-67113250D03*
X158892240Y-81083250D03*
X173497240Y-70923250D03*
X158892240Y-82353250D03*
X173497240Y-65843250D03*
X170322240Y-70923250D03*
X173497240Y-69653250D03*
X170322240Y-68383250D03*
X173497240Y-68383250D03*
X170322240Y-72193250D03*
X176672240Y-64573250D03*
X170322240Y-64573250D03*
X176672240Y-68383250D03*
X176672240Y-67113250D03*
X158892240Y-78543250D03*
X158892240Y-86163250D03*
X176672240Y-70923250D03*
X158892240Y-84893250D03*
X176672240Y-72193250D03*
X176672240Y-65843250D03*
X158892240Y-83623250D03*
X170322240Y-69653250D03*
X170322240Y-67113250D03*
%TO.N,G2*%
X162702240Y-63938250D03*
%TO.N,GND*%
X144922240Y-62033250D03*
X162702240Y-95688250D03*
X163830000Y-72828250D03*
X162702240Y-65208250D03*
X163972240Y-93148250D03*
X176926240Y-82988250D03*
X135397240Y-66478250D03*
X162702240Y-70288250D03*
X159527240Y-91878250D03*
X135397240Y-65208250D03*
X164607240Y-94418250D03*
X160797240Y-91878250D03*
X164607240Y-91878250D03*
X124348240Y-75368250D03*
X163337240Y-94418250D03*
X146192240Y-62033250D03*
X124094240Y-81464250D03*
X147970240Y-57287750D03*
X164607240Y-98228250D03*
X139842240Y-109023250D03*
X165242240Y-93148250D03*
X158257240Y-91878250D03*
X163337240Y-96958250D03*
X135397240Y-69018250D03*
X177942240Y-75114250D03*
X162702240Y-69018250D03*
X139842240Y-99205750D03*
X135397240Y-67748250D03*
X135397240Y-70288250D03*
X142382240Y-62033250D03*
X143703040Y-99193450D03*
X135397240Y-63938250D03*
X141112240Y-62033250D03*
X163972240Y-110293250D03*
X143652240Y-109023250D03*
X162067240Y-91878250D03*
X162702240Y-66478250D03*
X143652240Y-62033250D03*
X163337240Y-98228250D03*
X164607240Y-96958250D03*
X135397240Y-71558250D03*
X138572240Y-62033250D03*
X163337240Y-91878250D03*
X163830000Y-71558250D03*
X163972240Y-95688250D03*
X162702240Y-67748250D03*
X139842240Y-62033250D03*
%TO.N,G3*%
X152415240Y-62668250D03*
%TO.N,B*%
X138572240Y-51873250D03*
X143652240Y-55048250D03*
X142382240Y-51873250D03*
X141112240Y-48698250D03*
X139842240Y-48698250D03*
X137302240Y-55048250D03*
X137302240Y-48698250D03*
X139842240Y-51873250D03*
X143652240Y-48698250D03*
X157622240Y-62668250D03*
X139842240Y-55048250D03*
X153812240Y-62668250D03*
X155082240Y-62668250D03*
X143652240Y-51873250D03*
X142382240Y-48698250D03*
X161432240Y-62668250D03*
X138572240Y-55048250D03*
X141112240Y-55048250D03*
X142382240Y-55048250D03*
X158892240Y-62668250D03*
X138572240Y-48698250D03*
X141112240Y-51873250D03*
X144922240Y-55048250D03*
X160162240Y-62668250D03*
X144922240Y-48698250D03*
X156352240Y-62668250D03*
%TO.N,G4*%
X137302240Y-62033250D03*
%TO.N,G5*%
X139842240Y-86163250D03*
%TO.N,C*%
X139842240Y-82353250D03*
X128412240Y-69653250D03*
X139842240Y-84893250D03*
X128412240Y-68383250D03*
X128412240Y-67113250D03*
X125237240Y-69653250D03*
X125237240Y-67113250D03*
X122062240Y-68383250D03*
X122062240Y-67113250D03*
X139842240Y-79813250D03*
X122062240Y-70923250D03*
X128412240Y-64573250D03*
X122062240Y-64573250D03*
X122062240Y-65843250D03*
X128412240Y-65843250D03*
X128412240Y-70923250D03*
X125237240Y-68383250D03*
X139842240Y-77273250D03*
X125237240Y-70923250D03*
X122062240Y-72193250D03*
X128412240Y-72193250D03*
X125237240Y-65843250D03*
X139842240Y-78543250D03*
X139842240Y-81083250D03*
X139842240Y-83623250D03*
X122062240Y-69653250D03*
%TO.N,G6*%
X135397240Y-72828250D03*
%TO.N,Shunt_1*%
X134762240Y-97593250D03*
X143652240Y-105213250D03*
X136032240Y-105213250D03*
X165877240Y-106483250D03*
X143652240Y-103943250D03*
X134762240Y-95053250D03*
X147462240Y-97593250D03*
X139842240Y-105213250D03*
X134762240Y-96323250D03*
X147462240Y-103943250D03*
X144287240Y-86442750D03*
X158750000Y-93726000D03*
X134762240Y-98863250D03*
X147462240Y-105213250D03*
X136398000Y-90678000D03*
X147320000Y-93726000D03*
X154940000Y-93726000D03*
X139842240Y-103943250D03*
X143510000Y-93726000D03*
X151130000Y-93726000D03*
X133350000Y-90805000D03*
%TO.N,Shunt_2*%
X153812240Y-69018250D03*
X157368240Y-51873250D03*
X126507240Y-85528250D03*
X154432000Y-70358000D03*
X151384000Y-91948000D03*
X169052240Y-81718250D03*
X153558240Y-55048250D03*
X126507240Y-79178250D03*
X172227240Y-77908250D03*
X159908240Y-51873250D03*
X158638240Y-55048250D03*
X165877240Y-77908250D03*
X157368240Y-48698250D03*
X129682240Y-81718250D03*
X169052240Y-84258250D03*
X154447240Y-67748250D03*
X155082240Y-66478250D03*
X126507240Y-77908250D03*
X172227240Y-79178250D03*
X132857240Y-77908250D03*
X143652240Y-65208250D03*
X129682240Y-79178250D03*
X165877240Y-84258250D03*
X172227240Y-84258250D03*
X126507240Y-82988250D03*
X156098240Y-55048250D03*
X151384000Y-90170000D03*
X132857240Y-85528250D03*
X150114000Y-90170000D03*
X169052240Y-82988250D03*
X154828240Y-51873250D03*
X132857240Y-81718250D03*
X159908240Y-55048250D03*
X129682240Y-84258250D03*
X154828240Y-48698250D03*
X156098240Y-51873250D03*
X159908240Y-48698250D03*
X172227240Y-82988250D03*
X165877240Y-79178250D03*
X153558240Y-48698250D03*
X126507240Y-84258250D03*
X155082240Y-69018250D03*
X129682240Y-82988250D03*
X132857240Y-82988250D03*
X152146000Y-91186000D03*
X165877240Y-81718250D03*
X161178240Y-55048250D03*
X158638240Y-51873250D03*
X143652240Y-70923250D03*
X155717240Y-67748250D03*
X153812240Y-66478250D03*
X144287240Y-66478250D03*
X165877240Y-85528250D03*
X149606000Y-91186000D03*
X154828240Y-55048250D03*
X155717240Y-65208250D03*
X144922240Y-65208250D03*
X126507240Y-81718250D03*
X154447240Y-65208250D03*
X161178240Y-48698250D03*
X172227240Y-85528250D03*
X165877240Y-80448250D03*
X150876000Y-91186000D03*
X132857240Y-79178250D03*
X158638240Y-48698250D03*
X132857240Y-84258250D03*
X129682240Y-80448250D03*
X150114000Y-91948000D03*
X169052240Y-80448250D03*
X139446000Y-90678000D03*
X165877240Y-82988250D03*
X169052240Y-79178250D03*
X156098240Y-48698250D03*
X126507240Y-80448250D03*
X145557240Y-66478250D03*
X144922240Y-72193250D03*
X172227240Y-80448250D03*
X148844000Y-91948000D03*
X172227240Y-81718250D03*
X132857240Y-80448250D03*
X157368240Y-55048250D03*
%TO.N,+3.3V*%
X120792240Y-75368250D03*
X150764240Y-61605750D03*
X174384056Y-75115342D03*
X148224240Y-66050750D03*
%TO.N,SDA_MCU*%
X153921356Y-75694733D03*
X121300240Y-79940250D03*
X142025166Y-74658101D03*
X175148240Y-79940250D03*
X150764240Y-60081750D03*
%TO.N,SCL_MCU*%
X176159941Y-79935951D03*
X149748240Y-60081750D03*
X154616364Y-74976424D03*
X141978295Y-75673650D03*
X122316240Y-79940250D03*
%TO.N,~{OS}_MCU*%
X148732240Y-60081750D03*
X141994489Y-76934952D03*
X177180240Y-79940250D03*
X123332240Y-79940250D03*
X155448000Y-74422000D03*
%TD*%
%TA.AperFunction,Conductor*%
%TO.N,C*%
G36*
X135335240Y-51254863D02*
G01*
X135380627Y-51300250D01*
X135397240Y-51362250D01*
X135397240Y-62917219D01*
X135384690Y-62971577D01*
X135349582Y-63014932D01*
X135299021Y-63038509D01*
X135117437Y-63077105D01*
X134944509Y-63154098D01*
X134791369Y-63265360D01*
X134664706Y-63406033D01*
X134570060Y-63569965D01*
X134511566Y-63749992D01*
X134491780Y-63938249D01*
X134511566Y-64126507D01*
X134570060Y-64306534D01*
X134664706Y-64470466D01*
X134682545Y-64490278D01*
X134710712Y-64543252D01*
X134710712Y-64603248D01*
X134682545Y-64656222D01*
X134664706Y-64676033D01*
X134570060Y-64839965D01*
X134511566Y-65019992D01*
X134500459Y-65125670D01*
X134491780Y-65208250D01*
X134501672Y-65302377D01*
X134511566Y-65396507D01*
X134570060Y-65576534D01*
X134664706Y-65740466D01*
X134682545Y-65760278D01*
X134710712Y-65813252D01*
X134710712Y-65873248D01*
X134682545Y-65926222D01*
X134664706Y-65946033D01*
X134570060Y-66109965D01*
X134511566Y-66289992D01*
X134491780Y-66478250D01*
X134511566Y-66666507D01*
X134570060Y-66846534D01*
X134664706Y-67010466D01*
X134682545Y-67030278D01*
X134710712Y-67083252D01*
X134710712Y-67143248D01*
X134682545Y-67196222D01*
X134664706Y-67216033D01*
X134570060Y-67379965D01*
X134511566Y-67559992D01*
X134511565Y-67559994D01*
X134511566Y-67559994D01*
X134491780Y-67748250D01*
X134501673Y-67842378D01*
X134511566Y-67936507D01*
X134570060Y-68116534D01*
X134664706Y-68280465D01*
X134682544Y-68300276D01*
X134710711Y-68353249D01*
X134710712Y-68413245D01*
X134682547Y-68466219D01*
X134664706Y-68486033D01*
X134570060Y-68649965D01*
X134511566Y-68829992D01*
X134491780Y-69018250D01*
X134511566Y-69206507D01*
X134570060Y-69386534D01*
X134664706Y-69550466D01*
X134682545Y-69570278D01*
X134710712Y-69623252D01*
X134710712Y-69683248D01*
X134682545Y-69736222D01*
X134664706Y-69756033D01*
X134570060Y-69919965D01*
X134511566Y-70099992D01*
X134491780Y-70288250D01*
X134511566Y-70476507D01*
X134570060Y-70656534D01*
X134664706Y-70820466D01*
X134682545Y-70840278D01*
X134710712Y-70893252D01*
X134710712Y-70953248D01*
X134682545Y-71006222D01*
X134664706Y-71026033D01*
X134570060Y-71189965D01*
X134511566Y-71369992D01*
X134491780Y-71558250D01*
X134511566Y-71746507D01*
X134570060Y-71926534D01*
X134664706Y-72090466D01*
X134682545Y-72110278D01*
X134710712Y-72163252D01*
X134710712Y-72223248D01*
X134682545Y-72276222D01*
X134664706Y-72296033D01*
X134570060Y-72459965D01*
X134511566Y-72639992D01*
X134491780Y-72828249D01*
X134511566Y-73016507D01*
X134570060Y-73196534D01*
X134664706Y-73360466D01*
X134791369Y-73501139D01*
X134944509Y-73612401D01*
X135117437Y-73689394D01*
X135302592Y-73728750D01*
X135302594Y-73728750D01*
X135491886Y-73728750D01*
X135491888Y-73728750D01*
X135615324Y-73702512D01*
X135677043Y-73689394D01*
X135849970Y-73612401D01*
X135901729Y-73574796D01*
X136003110Y-73501139D01*
X136129773Y-73360466D01*
X136224419Y-73196534D01*
X136243098Y-73139046D01*
X136282914Y-73016506D01*
X136302700Y-72828250D01*
X136282914Y-72639994D01*
X136224419Y-72459966D01*
X136224419Y-72459965D01*
X136129775Y-72296037D01*
X136129774Y-72296036D01*
X136129773Y-72296034D01*
X136111933Y-72276221D01*
X136083767Y-72223249D01*
X136083767Y-72163251D01*
X136111933Y-72110278D01*
X136129773Y-72090466D01*
X136224419Y-71926534D01*
X136282914Y-71746506D01*
X136302700Y-71558250D01*
X136282914Y-71369994D01*
X136235988Y-71225570D01*
X136224419Y-71189965D01*
X136129775Y-71026037D01*
X136129774Y-71026036D01*
X136129773Y-71026034D01*
X136111933Y-71006221D01*
X136083767Y-70953249D01*
X136083767Y-70893251D01*
X136111933Y-70840278D01*
X136129773Y-70820466D01*
X136224419Y-70656534D01*
X136282914Y-70476506D01*
X136302700Y-70288250D01*
X136282914Y-70099994D01*
X136252572Y-70006613D01*
X136224419Y-69919965D01*
X136129775Y-69756037D01*
X136129774Y-69756036D01*
X136129773Y-69756034D01*
X136111933Y-69736221D01*
X136083767Y-69683249D01*
X136083767Y-69623251D01*
X136111933Y-69570278D01*
X136129773Y-69550466D01*
X136224419Y-69386534D01*
X136282914Y-69206506D01*
X136302700Y-69018250D01*
X136282914Y-68829994D01*
X136252572Y-68736613D01*
X136224419Y-68649965D01*
X136129773Y-68486033D01*
X136111934Y-68466221D01*
X136083767Y-68413247D01*
X136083768Y-68353250D01*
X136111934Y-68300277D01*
X136129773Y-68280466D01*
X136224419Y-68116534D01*
X136282914Y-67936506D01*
X136302700Y-67748250D01*
X136282914Y-67559994D01*
X136248178Y-67453089D01*
X136224419Y-67379965D01*
X136129773Y-67216033D01*
X136111934Y-67196221D01*
X136083767Y-67143246D01*
X136083768Y-67083248D01*
X136111936Y-67030275D01*
X136129773Y-67010466D01*
X136224419Y-66846534D01*
X136282914Y-66666506D01*
X136302700Y-66478250D01*
X136282914Y-66289994D01*
X136250488Y-66190199D01*
X136224419Y-66109965D01*
X136129773Y-65946033D01*
X136111934Y-65926221D01*
X136083767Y-65873247D01*
X136083768Y-65813250D01*
X136111934Y-65760277D01*
X136129773Y-65740466D01*
X136224419Y-65576534D01*
X136282914Y-65396506D01*
X136302700Y-65208250D01*
X136282914Y-65019994D01*
X136232321Y-64864285D01*
X136224419Y-64839965D01*
X136129775Y-64676037D01*
X136129774Y-64676036D01*
X136129773Y-64676034D01*
X136111933Y-64656221D01*
X136083767Y-64603249D01*
X136083767Y-64543251D01*
X136111933Y-64490278D01*
X136129773Y-64470466D01*
X136224419Y-64306534D01*
X136282914Y-64126506D01*
X136291029Y-64049286D01*
X136311549Y-63992910D01*
X136356135Y-63952765D01*
X136414350Y-63938250D01*
X138448240Y-63938250D01*
X138510240Y-63954863D01*
X138555627Y-64000250D01*
X138572240Y-64062250D01*
X138572240Y-76200000D01*
X138577740Y-76200000D01*
X138639740Y-76216613D01*
X138685127Y-76262000D01*
X138701740Y-76324000D01*
X138701740Y-76379311D01*
X138717293Y-76503738D01*
X138732318Y-76562899D01*
X138778026Y-76679681D01*
X138851071Y-76781614D01*
X138892504Y-76826435D01*
X138988390Y-76907250D01*
X139033892Y-76929320D01*
X139101214Y-76961974D01*
X139159020Y-76981597D01*
X139159022Y-76981597D01*
X139159024Y-76981598D01*
X139281848Y-77006867D01*
X139281850Y-77006866D01*
X139281851Y-77006867D01*
X139407123Y-77001123D01*
X139467288Y-76990784D01*
X139587284Y-76954382D01*
X139707607Y-76900809D01*
X139732248Y-76892803D01*
X139753606Y-76888263D01*
X139787978Y-76880959D01*
X139813755Y-76878250D01*
X139870728Y-76878250D01*
X139896501Y-76880958D01*
X139952230Y-76892803D01*
X139976870Y-76900809D01*
X140028921Y-76923984D01*
X140051370Y-76936945D01*
X140097457Y-76970429D01*
X140116720Y-76987773D01*
X140154840Y-77030108D01*
X140170076Y-77051077D01*
X140198563Y-77100419D01*
X140209105Y-77124097D01*
X140226708Y-77178273D01*
X140232098Y-77203629D01*
X140238053Y-77260286D01*
X140238053Y-77286210D01*
X140232098Y-77342865D01*
X140226708Y-77368222D01*
X140209103Y-77422403D01*
X140198560Y-77446083D01*
X140147765Y-77534064D01*
X140141951Y-77543190D01*
X140110610Y-77587947D01*
X140082445Y-77640915D01*
X140038284Y-77755949D01*
X140023267Y-77878236D01*
X140023267Y-77938237D01*
X140038280Y-78060532D01*
X140073182Y-78151455D01*
X140082436Y-78175562D01*
X140110603Y-78228537D01*
X140137216Y-78266545D01*
X140141949Y-78273304D01*
X140147760Y-78282426D01*
X140198561Y-78370415D01*
X140209105Y-78394097D01*
X140226708Y-78448273D01*
X140232098Y-78473631D01*
X140238052Y-78530288D01*
X140238052Y-78556208D01*
X140232098Y-78612863D01*
X140226708Y-78638222D01*
X140209103Y-78692403D01*
X140198559Y-78716084D01*
X140147757Y-78804075D01*
X140141946Y-78813197D01*
X140110604Y-78857959D01*
X140082437Y-78910934D01*
X140038284Y-79025954D01*
X140023267Y-79148245D01*
X140023267Y-79178249D01*
X140023267Y-79208239D01*
X140024839Y-79221041D01*
X140038282Y-79330536D01*
X140055350Y-79374999D01*
X140082437Y-79445566D01*
X140110603Y-79498538D01*
X140141949Y-79543305D01*
X140147760Y-79552426D01*
X140198563Y-79640419D01*
X140209105Y-79664097D01*
X140226708Y-79718273D01*
X140232098Y-79743632D01*
X140238052Y-79800290D01*
X140238052Y-79826209D01*
X140232098Y-79882863D01*
X140226708Y-79908222D01*
X140209103Y-79962403D01*
X140198559Y-79986084D01*
X140147757Y-80074076D01*
X140141945Y-80083199D01*
X140110603Y-80127958D01*
X140082434Y-80180937D01*
X140038282Y-80295958D01*
X140036738Y-80308534D01*
X140023267Y-80418251D01*
X140023267Y-80478249D01*
X140038283Y-80600542D01*
X140082438Y-80715569D01*
X140110604Y-80768541D01*
X140141956Y-80813315D01*
X140147765Y-80822434D01*
X140198563Y-80910418D01*
X140209105Y-80934096D01*
X140226708Y-80988273D01*
X140232098Y-81013632D01*
X140238052Y-81070290D01*
X140238052Y-81096209D01*
X140232098Y-81152863D01*
X140226708Y-81178222D01*
X140209103Y-81232403D01*
X140198559Y-81256084D01*
X140147757Y-81344075D01*
X140141946Y-81353197D01*
X140110604Y-81397959D01*
X140082437Y-81450934D01*
X140038284Y-81565954D01*
X140023267Y-81688245D01*
X140023267Y-81748237D01*
X140038282Y-81870536D01*
X140082437Y-81985566D01*
X140110603Y-82038538D01*
X140141949Y-82083305D01*
X140147760Y-82092426D01*
X140198563Y-82180419D01*
X140209105Y-82204097D01*
X140226708Y-82258273D01*
X140232098Y-82283631D01*
X140238052Y-82340288D01*
X140238052Y-82366208D01*
X140232098Y-82422863D01*
X140226708Y-82448222D01*
X140209103Y-82502403D01*
X140198559Y-82526084D01*
X140147757Y-82614076D01*
X140141945Y-82623199D01*
X140110603Y-82667958D01*
X140082434Y-82720937D01*
X140038282Y-82835958D01*
X140038281Y-82835960D01*
X140038282Y-82835960D01*
X140023267Y-82958251D01*
X140023267Y-83018249D01*
X140038283Y-83140542D01*
X140082438Y-83255569D01*
X140110604Y-83308541D01*
X140124582Y-83328503D01*
X140141956Y-83353315D01*
X140147765Y-83362434D01*
X140198563Y-83450418D01*
X140209105Y-83474096D01*
X140226708Y-83528273D01*
X140232098Y-83553632D01*
X140238052Y-83610290D01*
X140238052Y-83636209D01*
X140232098Y-83692863D01*
X140226708Y-83718222D01*
X140209103Y-83772403D01*
X140198559Y-83796084D01*
X140147757Y-83884075D01*
X140141946Y-83893197D01*
X140110604Y-83937959D01*
X140082437Y-83990934D01*
X140038284Y-84105954D01*
X140023267Y-84228245D01*
X140023267Y-84258249D01*
X140023267Y-84288239D01*
X140028643Y-84332026D01*
X140038282Y-84410536D01*
X140082437Y-84525566D01*
X140110603Y-84578538D01*
X140141949Y-84623305D01*
X140147760Y-84632426D01*
X140198563Y-84720419D01*
X140209105Y-84744097D01*
X140226708Y-84798273D01*
X140232098Y-84823632D01*
X140238052Y-84880290D01*
X140238052Y-84906209D01*
X140232098Y-84962863D01*
X140226708Y-84988222D01*
X140209103Y-85042403D01*
X140198559Y-85066084D01*
X140147757Y-85154076D01*
X140141945Y-85163199D01*
X140106252Y-85214174D01*
X140105651Y-85213753D01*
X140076367Y-85248242D01*
X140028359Y-85270627D01*
X139975390Y-85270934D01*
X139936887Y-85262750D01*
X139936886Y-85262750D01*
X139747594Y-85262750D01*
X139747592Y-85262750D01*
X139562437Y-85302105D01*
X139389509Y-85379098D01*
X139236369Y-85490360D01*
X139109706Y-85631033D01*
X139015060Y-85794965D01*
X138956566Y-85974992D01*
X138936780Y-86163250D01*
X138956566Y-86351509D01*
X138982959Y-86432737D01*
X138988624Y-86481053D01*
X138975266Y-86527830D01*
X138944941Y-86565869D01*
X138892505Y-86610062D01*
X138851071Y-86654885D01*
X138778026Y-86756818D01*
X138732318Y-86873600D01*
X138725227Y-86901524D01*
X138700724Y-86949874D01*
X138657937Y-86983153D01*
X138605043Y-86995000D01*
X138430000Y-86995000D01*
X138430000Y-115752822D01*
X138418502Y-115804968D01*
X138386141Y-115847444D01*
X138338918Y-115872373D01*
X138285591Y-115875130D01*
X138061575Y-115837750D01*
X137812905Y-115837750D01*
X137567624Y-115878679D01*
X137332434Y-115959420D01*
X137113725Y-116077779D01*
X136917499Y-116230509D01*
X136917496Y-116230511D01*
X136917496Y-116230512D01*
X136764031Y-116397220D01*
X136749077Y-116413464D01*
X136613065Y-116621645D01*
X136546105Y-116774300D01*
X136513177Y-116849369D01*
X136468462Y-117025943D01*
X136452131Y-117090433D01*
X136431596Y-117338249D01*
X136452131Y-117586066D01*
X136452131Y-117586069D01*
X136452132Y-117586071D01*
X136513177Y-117827131D01*
X136556867Y-117926735D01*
X136613065Y-118054854D01*
X136613067Y-118054857D01*
X136749076Y-118263035D01*
X136917496Y-118445988D01*
X136917499Y-118445990D01*
X137113725Y-118598720D01*
X137113727Y-118598721D01*
X137113731Y-118598724D01*
X137332430Y-118717078D01*
X137567626Y-118797821D01*
X137812905Y-118838750D01*
X138061575Y-118838750D01*
X138285591Y-118801369D01*
X138338918Y-118804127D01*
X138386141Y-118829056D01*
X138418502Y-118871532D01*
X138430000Y-118923678D01*
X138430000Y-119186250D01*
X138413387Y-119248250D01*
X138368000Y-119293637D01*
X138306000Y-119310250D01*
X134242624Y-119310250D01*
X134176514Y-119291157D01*
X134130763Y-119239757D01*
X134119459Y-119171880D01*
X134146085Y-119108428D01*
X134152933Y-119099933D01*
X134173645Y-119074240D01*
X134466989Y-118650105D01*
X134728446Y-118205603D01*
X134956610Y-117743128D01*
X135150251Y-117265170D01*
X135308329Y-116774300D01*
X135429992Y-116273161D01*
X135429991Y-116273161D01*
X135429994Y-116273153D01*
X135514584Y-115764451D01*
X135561651Y-115250916D01*
X135561652Y-115250909D01*
X135570941Y-114735297D01*
X135542401Y-114220392D01*
X135476187Y-113708966D01*
X135372653Y-113203770D01*
X135274746Y-112857455D01*
X135232361Y-112707531D01*
X135185464Y-112578619D01*
X135056058Y-112222902D01*
X134844701Y-111752509D01*
X134777761Y-111628707D01*
X134599429Y-111298888D01*
X134599428Y-111298886D01*
X134599424Y-111298879D01*
X134321547Y-110864452D01*
X134012568Y-110451568D01*
X133674148Y-110062449D01*
X133308110Y-109699190D01*
X133308103Y-109699183D01*
X132916423Y-109363744D01*
X132566246Y-109105832D01*
X132501196Y-109057921D01*
X132146755Y-108834994D01*
X132064664Y-108783362D01*
X131656215Y-108566522D01*
X131608091Y-108520898D01*
X131590359Y-108456999D01*
X131590359Y-105213250D01*
X135126780Y-105213250D01*
X135146566Y-105401507D01*
X135205060Y-105581534D01*
X135299706Y-105745466D01*
X135426369Y-105886139D01*
X135579509Y-105997401D01*
X135752437Y-106074394D01*
X135937592Y-106113750D01*
X135937594Y-106113750D01*
X136126886Y-106113750D01*
X136126888Y-106113750D01*
X136250323Y-106087512D01*
X136312043Y-106074394D01*
X136484970Y-105997401D01*
X136505120Y-105982761D01*
X136638110Y-105886139D01*
X136764773Y-105745466D01*
X136859419Y-105581534D01*
X136883180Y-105508406D01*
X136917914Y-105401506D01*
X136937700Y-105213250D01*
X136917914Y-105024994D01*
X136859615Y-104845569D01*
X136859419Y-104844965D01*
X136764773Y-104681033D01*
X136638110Y-104540360D01*
X136484970Y-104429098D01*
X136312042Y-104352105D01*
X136126888Y-104312750D01*
X136126886Y-104312750D01*
X135937594Y-104312750D01*
X135937592Y-104312750D01*
X135752437Y-104352105D01*
X135579509Y-104429098D01*
X135426369Y-104540360D01*
X135299706Y-104681033D01*
X135205060Y-104844965D01*
X135146566Y-105024992D01*
X135126780Y-105213250D01*
X131590359Y-105213250D01*
X131590359Y-99391054D01*
X131590370Y-99357736D01*
X131590443Y-99140074D01*
X131570477Y-98863249D01*
X133856780Y-98863249D01*
X133876566Y-99051507D01*
X133935060Y-99231534D01*
X134029706Y-99395466D01*
X134156369Y-99536139D01*
X134309509Y-99647401D01*
X134482437Y-99724394D01*
X134667592Y-99763750D01*
X134667594Y-99763750D01*
X134856886Y-99763750D01*
X134856888Y-99763750D01*
X134980324Y-99737512D01*
X135042043Y-99724394D01*
X135214970Y-99647401D01*
X135214970Y-99647400D01*
X135368110Y-99536139D01*
X135494773Y-99395466D01*
X135589419Y-99231534D01*
X135601793Y-99193450D01*
X135647914Y-99051506D01*
X135667700Y-98863250D01*
X135647914Y-98674994D01*
X135617572Y-98581613D01*
X135589419Y-98494965D01*
X135494775Y-98331037D01*
X135494774Y-98331036D01*
X135494773Y-98331034D01*
X135476933Y-98311221D01*
X135448767Y-98258249D01*
X135448767Y-98198251D01*
X135476933Y-98145278D01*
X135494773Y-98125466D01*
X135589419Y-97961534D01*
X135647914Y-97781506D01*
X135667700Y-97593250D01*
X135647914Y-97404994D01*
X135589419Y-97224966D01*
X135589419Y-97224965D01*
X135494775Y-97061037D01*
X135494774Y-97061036D01*
X135494773Y-97061034D01*
X135476933Y-97041221D01*
X135448767Y-96988249D01*
X135448767Y-96928251D01*
X135476933Y-96875278D01*
X135494773Y-96855466D01*
X135589419Y-96691534D01*
X135647914Y-96511506D01*
X135667700Y-96323250D01*
X135647914Y-96134994D01*
X135589419Y-95954966D01*
X135589419Y-95954965D01*
X135494775Y-95791037D01*
X135494774Y-95791036D01*
X135494773Y-95791034D01*
X135476933Y-95771221D01*
X135448767Y-95718249D01*
X135448767Y-95658251D01*
X135476933Y-95605278D01*
X135494773Y-95585466D01*
X135589419Y-95421534D01*
X135647914Y-95241506D01*
X135667700Y-95053250D01*
X135647914Y-94864994D01*
X135589419Y-94684966D01*
X135589419Y-94684965D01*
X135494773Y-94521033D01*
X135368110Y-94380360D01*
X135214970Y-94269098D01*
X135042042Y-94192105D01*
X134856888Y-94152750D01*
X134856886Y-94152750D01*
X134667594Y-94152750D01*
X134667592Y-94152750D01*
X134482437Y-94192105D01*
X134309509Y-94269098D01*
X134156369Y-94380360D01*
X134029706Y-94521033D01*
X133935060Y-94684965D01*
X133876566Y-94864992D01*
X133856780Y-95053250D01*
X133876566Y-95241507D01*
X133935060Y-95421534D01*
X134029706Y-95585466D01*
X134047545Y-95605278D01*
X134075712Y-95658252D01*
X134075712Y-95718248D01*
X134047545Y-95771222D01*
X134029706Y-95791033D01*
X133935060Y-95954965D01*
X133876566Y-96134992D01*
X133856780Y-96323250D01*
X133876566Y-96511507D01*
X133935060Y-96691534D01*
X134029706Y-96855466D01*
X134047545Y-96875278D01*
X134075712Y-96928252D01*
X134075712Y-96988248D01*
X134047545Y-97041222D01*
X134029706Y-97061033D01*
X133935060Y-97224965D01*
X133876566Y-97404992D01*
X133856780Y-97593249D01*
X133876566Y-97781507D01*
X133935060Y-97961534D01*
X134029706Y-98125466D01*
X134047545Y-98145278D01*
X134075712Y-98198252D01*
X134075712Y-98258248D01*
X134047545Y-98311222D01*
X134029706Y-98331033D01*
X133935060Y-98494965D01*
X133876566Y-98674992D01*
X133856780Y-98863249D01*
X131570477Y-98863249D01*
X131559126Y-98705877D01*
X131496458Y-98275087D01*
X131458981Y-98105037D01*
X131402767Y-97849961D01*
X131278547Y-97432746D01*
X131137856Y-97061037D01*
X131124445Y-97025603D01*
X130941275Y-96630690D01*
X130729995Y-96250074D01*
X130491716Y-95885752D01*
X130491715Y-95885751D01*
X130491712Y-95885746D01*
X130227688Y-95539637D01*
X129939293Y-95213541D01*
X129628052Y-94909184D01*
X129582243Y-94870452D01*
X129580308Y-94868607D01*
X129575692Y-94864712D01*
X129575690Y-94864710D01*
X129460780Y-94767754D01*
X129459292Y-94766476D01*
X128798345Y-94188832D01*
X128649522Y-94058766D01*
X128646323Y-94055871D01*
X127862449Y-93321151D01*
X127859353Y-93318146D01*
X127487270Y-92944243D01*
X127101514Y-92556599D01*
X127098556Y-92553522D01*
X126367664Y-91766064D01*
X126364789Y-91762856D01*
X126322979Y-91714543D01*
X126121011Y-91481159D01*
X125661750Y-90950460D01*
X125658984Y-90947149D01*
X125544370Y-90804999D01*
X132444540Y-90804999D01*
X132464326Y-90993257D01*
X132522820Y-91173284D01*
X132617466Y-91337216D01*
X132744129Y-91477889D01*
X132897269Y-91589151D01*
X133070197Y-91666144D01*
X133255352Y-91705500D01*
X133255354Y-91705500D01*
X133444646Y-91705500D01*
X133444648Y-91705500D01*
X133568084Y-91679262D01*
X133629803Y-91666144D01*
X133802730Y-91589151D01*
X133955871Y-91477888D01*
X134082533Y-91337216D01*
X134177179Y-91173284D01*
X134235674Y-90993256D01*
X134255460Y-90805000D01*
X134242112Y-90678000D01*
X135492540Y-90678000D01*
X135512326Y-90866257D01*
X135570820Y-91046284D01*
X135665466Y-91210216D01*
X135792129Y-91350889D01*
X135945269Y-91462151D01*
X136118197Y-91539144D01*
X136303352Y-91578500D01*
X136303354Y-91578500D01*
X136492646Y-91578500D01*
X136492648Y-91578500D01*
X136616084Y-91552262D01*
X136677803Y-91539144D01*
X136850730Y-91462151D01*
X137003871Y-91350888D01*
X137130533Y-91210216D01*
X137225179Y-91046284D01*
X137283674Y-90866256D01*
X137303460Y-90678000D01*
X137283674Y-90489744D01*
X137248826Y-90382493D01*
X137225179Y-90309715D01*
X137130533Y-90145783D01*
X137003870Y-90005110D01*
X136850730Y-89893848D01*
X136677802Y-89816855D01*
X136492648Y-89777500D01*
X136492646Y-89777500D01*
X136303354Y-89777500D01*
X136303352Y-89777500D01*
X136118197Y-89816855D01*
X135945269Y-89893848D01*
X135792129Y-90005110D01*
X135665466Y-90145783D01*
X135570820Y-90309715D01*
X135512326Y-90489742D01*
X135492540Y-90678000D01*
X134242112Y-90678000D01*
X134235674Y-90616744D01*
X134177179Y-90436716D01*
X134177179Y-90436715D01*
X134082533Y-90272783D01*
X133955870Y-90132110D01*
X133802730Y-90020848D01*
X133629802Y-89943855D01*
X133444648Y-89904500D01*
X133444646Y-89904500D01*
X133255354Y-89904500D01*
X133255352Y-89904500D01*
X133070197Y-89943855D01*
X132897269Y-90020848D01*
X132744129Y-90132110D01*
X132617466Y-90272783D01*
X132522820Y-90436715D01*
X132464326Y-90616742D01*
X132444540Y-90804999D01*
X125544370Y-90804999D01*
X125012852Y-90145783D01*
X124984620Y-90110768D01*
X124981979Y-90107372D01*
X124918830Y-90023220D01*
X124337166Y-89248094D01*
X124334636Y-89244599D01*
X123945252Y-88686249D01*
X123720049Y-88363323D01*
X123717654Y-88359757D01*
X123690466Y-88317727D01*
X123170550Y-87513980D01*
X123134139Y-87457691D01*
X123131859Y-87454028D01*
X122982171Y-87203954D01*
X122580058Y-86532169D01*
X122577935Y-86528479D01*
X122058540Y-85587979D01*
X122056525Y-85584176D01*
X122028132Y-85528250D01*
X125601780Y-85528250D01*
X125621566Y-85716507D01*
X125680060Y-85896534D01*
X125774706Y-86060466D01*
X125901369Y-86201139D01*
X126054509Y-86312401D01*
X126227437Y-86389394D01*
X126412592Y-86428750D01*
X126412594Y-86428750D01*
X126601886Y-86428750D01*
X126601888Y-86428750D01*
X126725324Y-86402512D01*
X126787043Y-86389394D01*
X126959970Y-86312401D01*
X127068628Y-86233457D01*
X127113110Y-86201139D01*
X127239773Y-86060466D01*
X127334419Y-85896534D01*
X127346772Y-85858515D01*
X127392914Y-85716506D01*
X127412700Y-85528250D01*
X131951780Y-85528250D01*
X131971566Y-85716507D01*
X132030060Y-85896534D01*
X132124706Y-86060466D01*
X132251369Y-86201139D01*
X132404509Y-86312401D01*
X132577437Y-86389394D01*
X132762592Y-86428750D01*
X132762594Y-86428750D01*
X132951886Y-86428750D01*
X132951888Y-86428750D01*
X133075324Y-86402512D01*
X133137043Y-86389394D01*
X133309970Y-86312401D01*
X133418628Y-86233457D01*
X133463110Y-86201139D01*
X133589773Y-86060466D01*
X133684419Y-85896534D01*
X133696772Y-85858515D01*
X133742914Y-85716506D01*
X133762700Y-85528250D01*
X133742914Y-85339994D01*
X133700014Y-85207962D01*
X133684419Y-85159965D01*
X133589775Y-84996037D01*
X133589774Y-84996036D01*
X133589773Y-84996034D01*
X133571933Y-84976221D01*
X133543767Y-84923249D01*
X133543767Y-84863251D01*
X133571933Y-84810278D01*
X133589773Y-84790466D01*
X133684419Y-84626534D01*
X133742914Y-84446506D01*
X133762700Y-84258250D01*
X133742914Y-84069994D01*
X133684419Y-83889966D01*
X133684419Y-83889965D01*
X133589775Y-83726037D01*
X133589774Y-83726036D01*
X133589773Y-83726034D01*
X133571933Y-83706221D01*
X133543767Y-83653249D01*
X133543767Y-83593251D01*
X133571933Y-83540278D01*
X133589773Y-83520466D01*
X133684419Y-83356534D01*
X133742914Y-83176506D01*
X133762700Y-82988250D01*
X133742914Y-82799994D01*
X133695677Y-82654614D01*
X133684419Y-82619965D01*
X133589775Y-82456037D01*
X133589774Y-82456036D01*
X133589773Y-82456034D01*
X133571933Y-82436221D01*
X133543767Y-82383249D01*
X133543767Y-82323251D01*
X133571933Y-82270278D01*
X133589773Y-82250466D01*
X133684419Y-82086534D01*
X133742914Y-81906506D01*
X133762700Y-81718250D01*
X133742914Y-81529994D01*
X133684419Y-81349966D01*
X133684419Y-81349965D01*
X133589775Y-81186037D01*
X133589774Y-81186036D01*
X133589773Y-81186034D01*
X133571933Y-81166221D01*
X133543767Y-81113249D01*
X133543767Y-81053251D01*
X133571933Y-81000278D01*
X133589773Y-80980466D01*
X133684419Y-80816534D01*
X133742914Y-80636506D01*
X133762700Y-80448250D01*
X133742914Y-80259994D01*
X133688517Y-80092577D01*
X133684419Y-80079965D01*
X133589775Y-79916037D01*
X133589774Y-79916036D01*
X133589773Y-79916034D01*
X133571933Y-79896221D01*
X133543767Y-79843249D01*
X133543767Y-79783251D01*
X133571933Y-79730278D01*
X133589773Y-79710466D01*
X133684419Y-79546534D01*
X133742914Y-79366506D01*
X133762700Y-79178250D01*
X133742914Y-78989994D01*
X133684419Y-78809966D01*
X133684419Y-78809965D01*
X133589775Y-78646037D01*
X133589774Y-78646036D01*
X133589773Y-78646034D01*
X133571933Y-78626221D01*
X133543767Y-78573249D01*
X133543767Y-78513251D01*
X133571933Y-78460278D01*
X133589773Y-78440466D01*
X133684419Y-78276534D01*
X133742914Y-78096506D01*
X133762700Y-77908250D01*
X133742914Y-77719994D01*
X133684419Y-77539966D01*
X133684419Y-77539965D01*
X133589773Y-77376033D01*
X133463110Y-77235360D01*
X133309970Y-77124098D01*
X133137042Y-77047105D01*
X132951888Y-77007750D01*
X132951886Y-77007750D01*
X132762594Y-77007750D01*
X132762592Y-77007750D01*
X132577437Y-77047105D01*
X132404509Y-77124098D01*
X132251369Y-77235360D01*
X132124706Y-77376033D01*
X132030060Y-77539965D01*
X131971566Y-77719992D01*
X131951780Y-77908250D01*
X131971566Y-78096507D01*
X132030060Y-78276534D01*
X132124706Y-78440465D01*
X132142544Y-78460276D01*
X132170711Y-78513249D01*
X132170712Y-78573245D01*
X132142547Y-78626219D01*
X132124706Y-78646033D01*
X132030060Y-78809965D01*
X131971566Y-78989992D01*
X131951780Y-79178250D01*
X131971566Y-79366507D01*
X132030060Y-79546534D01*
X132124706Y-79710466D01*
X132142545Y-79730278D01*
X132170712Y-79783252D01*
X132170712Y-79843248D01*
X132142545Y-79896222D01*
X132124706Y-79916033D01*
X132030060Y-80079965D01*
X131971566Y-80259992D01*
X131951780Y-80448250D01*
X131971566Y-80636507D01*
X132030060Y-80816534D01*
X132124706Y-80980466D01*
X132142545Y-81000278D01*
X132170712Y-81053252D01*
X132170712Y-81113248D01*
X132142545Y-81166222D01*
X132124706Y-81186033D01*
X132030060Y-81349965D01*
X131971566Y-81529992D01*
X131951780Y-81718249D01*
X131951780Y-81718250D01*
X131951983Y-81720184D01*
X131971566Y-81906507D01*
X132030060Y-82086534D01*
X132124706Y-82250466D01*
X132142545Y-82270278D01*
X132170712Y-82323252D01*
X132170712Y-82383248D01*
X132142545Y-82436222D01*
X132124706Y-82456033D01*
X132030060Y-82619965D01*
X131971566Y-82799992D01*
X131951780Y-82988249D01*
X131971566Y-83176507D01*
X132030060Y-83356534D01*
X132124706Y-83520466D01*
X132142545Y-83540278D01*
X132170712Y-83593252D01*
X132170712Y-83653248D01*
X132142545Y-83706222D01*
X132124706Y-83726033D01*
X132030060Y-83889965D01*
X131971566Y-84069992D01*
X131951780Y-84258249D01*
X131971566Y-84446507D01*
X132030060Y-84626534D01*
X132124706Y-84790466D01*
X132142545Y-84810278D01*
X132170712Y-84863252D01*
X132170712Y-84923248D01*
X132142545Y-84976222D01*
X132124706Y-84996033D01*
X132030060Y-85159965D01*
X131971566Y-85339992D01*
X131951780Y-85528250D01*
X127412700Y-85528250D01*
X127392914Y-85339994D01*
X127350014Y-85207962D01*
X127334419Y-85159965D01*
X127239775Y-84996037D01*
X127239774Y-84996036D01*
X127239773Y-84996034D01*
X127221933Y-84976221D01*
X127193767Y-84923249D01*
X127193767Y-84863251D01*
X127221933Y-84810278D01*
X127239773Y-84790466D01*
X127334419Y-84626534D01*
X127392914Y-84446506D01*
X127412700Y-84258250D01*
X127412700Y-84258249D01*
X128776780Y-84258249D01*
X128796566Y-84446507D01*
X128855060Y-84626534D01*
X128949706Y-84790466D01*
X129076369Y-84931139D01*
X129229509Y-85042401D01*
X129402437Y-85119394D01*
X129587592Y-85158750D01*
X129587594Y-85158750D01*
X129776886Y-85158750D01*
X129776888Y-85158750D01*
X129900323Y-85132512D01*
X129962043Y-85119394D01*
X130134970Y-85042401D01*
X130244445Y-84962863D01*
X130288110Y-84931139D01*
X130397284Y-84809890D01*
X130414773Y-84790466D01*
X130509419Y-84626534D01*
X130567914Y-84446506D01*
X130587700Y-84258250D01*
X130567914Y-84069994D01*
X130509419Y-83889966D01*
X130509419Y-83889965D01*
X130414775Y-83726037D01*
X130414774Y-83726036D01*
X130414773Y-83726034D01*
X130396933Y-83706221D01*
X130368767Y-83653249D01*
X130368767Y-83593251D01*
X130396933Y-83540278D01*
X130414773Y-83520466D01*
X130509419Y-83356534D01*
X130567914Y-83176506D01*
X130587700Y-82988250D01*
X130567914Y-82799994D01*
X130520677Y-82654614D01*
X130509419Y-82619965D01*
X130414775Y-82456037D01*
X130414774Y-82456036D01*
X130414773Y-82456034D01*
X130396933Y-82436221D01*
X130368767Y-82383249D01*
X130368767Y-82323251D01*
X130396933Y-82270278D01*
X130414773Y-82250466D01*
X130509419Y-82086534D01*
X130567914Y-81906506D01*
X130587700Y-81718250D01*
X130567914Y-81529994D01*
X130509419Y-81349966D01*
X130509419Y-81349965D01*
X130414775Y-81186037D01*
X130414774Y-81186036D01*
X130414773Y-81186034D01*
X130396933Y-81166221D01*
X130368767Y-81113249D01*
X130368767Y-81053251D01*
X130396933Y-81000278D01*
X130414773Y-80980466D01*
X130509419Y-80816534D01*
X130567914Y-80636506D01*
X130587700Y-80448250D01*
X130567914Y-80259994D01*
X130513517Y-80092577D01*
X130509419Y-80079965D01*
X130414775Y-79916037D01*
X130414774Y-79916036D01*
X130414773Y-79916034D01*
X130396933Y-79896221D01*
X130368767Y-79843249D01*
X130368767Y-79783251D01*
X130396933Y-79730278D01*
X130414773Y-79710466D01*
X130509419Y-79546534D01*
X130567914Y-79366506D01*
X130587700Y-79178250D01*
X130567914Y-78989994D01*
X130509419Y-78809966D01*
X130509419Y-78809965D01*
X130414773Y-78646033D01*
X130288110Y-78505360D01*
X130134970Y-78394098D01*
X129962042Y-78317105D01*
X129776888Y-78277750D01*
X129776886Y-78277750D01*
X129587594Y-78277750D01*
X129587592Y-78277750D01*
X129402437Y-78317105D01*
X129229509Y-78394098D01*
X129076369Y-78505360D01*
X128949706Y-78646033D01*
X128855060Y-78809965D01*
X128796566Y-78989992D01*
X128776780Y-79178250D01*
X128796566Y-79366507D01*
X128855060Y-79546534D01*
X128949706Y-79710466D01*
X128967545Y-79730278D01*
X128995712Y-79783252D01*
X128995712Y-79843248D01*
X128967545Y-79896222D01*
X128949706Y-79916033D01*
X128855060Y-80079965D01*
X128796566Y-80259992D01*
X128776780Y-80448250D01*
X128796566Y-80636507D01*
X128855060Y-80816534D01*
X128949706Y-80980466D01*
X128967545Y-81000278D01*
X128995712Y-81053252D01*
X128995712Y-81113248D01*
X128967545Y-81166222D01*
X128949706Y-81186033D01*
X128855060Y-81349965D01*
X128796566Y-81529992D01*
X128776780Y-81718249D01*
X128776780Y-81718250D01*
X128776983Y-81720184D01*
X128796566Y-81906507D01*
X128855060Y-82086534D01*
X128949706Y-82250466D01*
X128967545Y-82270278D01*
X128995712Y-82323252D01*
X128995712Y-82383248D01*
X128967545Y-82436222D01*
X128949706Y-82456033D01*
X128855060Y-82619965D01*
X128796566Y-82799992D01*
X128776780Y-82988249D01*
X128796566Y-83176507D01*
X128855060Y-83356534D01*
X128949706Y-83520466D01*
X128967545Y-83540278D01*
X128995712Y-83593252D01*
X128995712Y-83653248D01*
X128967545Y-83706222D01*
X128949706Y-83726033D01*
X128855060Y-83889965D01*
X128796566Y-84069992D01*
X128776780Y-84258249D01*
X127412700Y-84258249D01*
X127392914Y-84069994D01*
X127334419Y-83889966D01*
X127334419Y-83889965D01*
X127239775Y-83726037D01*
X127239774Y-83726036D01*
X127239773Y-83726034D01*
X127221933Y-83706221D01*
X127193767Y-83653249D01*
X127193767Y-83593251D01*
X127221933Y-83540278D01*
X127239773Y-83520466D01*
X127334419Y-83356534D01*
X127392914Y-83176506D01*
X127412700Y-82988250D01*
X127392914Y-82799994D01*
X127345677Y-82654614D01*
X127334419Y-82619965D01*
X127239775Y-82456037D01*
X127239774Y-82456036D01*
X127239773Y-82456034D01*
X127221933Y-82436221D01*
X127193767Y-82383249D01*
X127193767Y-82323251D01*
X127221933Y-82270278D01*
X127239773Y-82250466D01*
X127334419Y-82086534D01*
X127392914Y-81906506D01*
X127412700Y-81718250D01*
X127392914Y-81529994D01*
X127334419Y-81349966D01*
X127334419Y-81349965D01*
X127239775Y-81186037D01*
X127239774Y-81186036D01*
X127239773Y-81186034D01*
X127221933Y-81166221D01*
X127193767Y-81113249D01*
X127193767Y-81053251D01*
X127221933Y-81000278D01*
X127239773Y-80980466D01*
X127334419Y-80816534D01*
X127392914Y-80636506D01*
X127412700Y-80448250D01*
X127392914Y-80259994D01*
X127338517Y-80092577D01*
X127334419Y-80079965D01*
X127239775Y-79916037D01*
X127239774Y-79916036D01*
X127239773Y-79916034D01*
X127221933Y-79896221D01*
X127193767Y-79843249D01*
X127193767Y-79783251D01*
X127221933Y-79730278D01*
X127239773Y-79710466D01*
X127334419Y-79546534D01*
X127392914Y-79366506D01*
X127412700Y-79178250D01*
X127392914Y-78989994D01*
X127334419Y-78809966D01*
X127334419Y-78809965D01*
X127239775Y-78646037D01*
X127239774Y-78646036D01*
X127239773Y-78646034D01*
X127221933Y-78626221D01*
X127193767Y-78573249D01*
X127193767Y-78513251D01*
X127221933Y-78460278D01*
X127239773Y-78440466D01*
X127334419Y-78276534D01*
X127392914Y-78096506D01*
X127412700Y-77908250D01*
X127392914Y-77719994D01*
X127334419Y-77539966D01*
X127334419Y-77539965D01*
X127239773Y-77376033D01*
X127113110Y-77235360D01*
X126959970Y-77124098D01*
X126787042Y-77047105D01*
X126601888Y-77007750D01*
X126601886Y-77007750D01*
X126412594Y-77007750D01*
X126412592Y-77007750D01*
X126227437Y-77047105D01*
X126054509Y-77124098D01*
X125901369Y-77235360D01*
X125774706Y-77376033D01*
X125680060Y-77539965D01*
X125621566Y-77719992D01*
X125601780Y-77908250D01*
X125621566Y-78096507D01*
X125680060Y-78276534D01*
X125774706Y-78440465D01*
X125792544Y-78460276D01*
X125820711Y-78513249D01*
X125820712Y-78573245D01*
X125792547Y-78626219D01*
X125774706Y-78646033D01*
X125680060Y-78809965D01*
X125621566Y-78989992D01*
X125601780Y-79178250D01*
X125621566Y-79366507D01*
X125680060Y-79546534D01*
X125774706Y-79710466D01*
X125792545Y-79730278D01*
X125820712Y-79783252D01*
X125820712Y-79843248D01*
X125792545Y-79896222D01*
X125774706Y-79916033D01*
X125680060Y-80079965D01*
X125621566Y-80259992D01*
X125601780Y-80448249D01*
X125621566Y-80636507D01*
X125680060Y-80816534D01*
X125774706Y-80980466D01*
X125792545Y-81000278D01*
X125820712Y-81053252D01*
X125820712Y-81113248D01*
X125792545Y-81166222D01*
X125774706Y-81186033D01*
X125680060Y-81349965D01*
X125621566Y-81529992D01*
X125601780Y-81718250D01*
X125621566Y-81906507D01*
X125680060Y-82086534D01*
X125774706Y-82250466D01*
X125792545Y-82270278D01*
X125820712Y-82323252D01*
X125820712Y-82383248D01*
X125792545Y-82436222D01*
X125774706Y-82456033D01*
X125680060Y-82619965D01*
X125621566Y-82799992D01*
X125601780Y-82988249D01*
X125621566Y-83176507D01*
X125680060Y-83356534D01*
X125774706Y-83520466D01*
X125792545Y-83540278D01*
X125820712Y-83593252D01*
X125820712Y-83653248D01*
X125792545Y-83706222D01*
X125774706Y-83726033D01*
X125680060Y-83889965D01*
X125621566Y-84069992D01*
X125601780Y-84258249D01*
X125621566Y-84446507D01*
X125680060Y-84626534D01*
X125774706Y-84790466D01*
X125792545Y-84810278D01*
X125820712Y-84863252D01*
X125820712Y-84923248D01*
X125792545Y-84976222D01*
X125774706Y-84996033D01*
X125680060Y-85159965D01*
X125621566Y-85339992D01*
X125601780Y-85528250D01*
X122028132Y-85528250D01*
X121570173Y-84626191D01*
X121568293Y-84622322D01*
X121547949Y-84578540D01*
X121311649Y-84069994D01*
X121115575Y-83648018D01*
X121113825Y-83644074D01*
X120695280Y-82654614D01*
X120693668Y-82650612D01*
X120497235Y-82137139D01*
X120309784Y-81647147D01*
X120308317Y-81643100D01*
X120281842Y-81565954D01*
X119959587Y-80626915D01*
X119958258Y-80622810D01*
X119940261Y-80563750D01*
X119750266Y-79940249D01*
X120394780Y-79940249D01*
X120414566Y-80128507D01*
X120473060Y-80308534D01*
X120567706Y-80472466D01*
X120694369Y-80613139D01*
X120847509Y-80724401D01*
X121020437Y-80801394D01*
X121205592Y-80840750D01*
X121205594Y-80840750D01*
X121394886Y-80840750D01*
X121394888Y-80840750D01*
X121580040Y-80801395D01*
X121580041Y-80801394D01*
X121580043Y-80801394D01*
X121752970Y-80724401D01*
X121752975Y-80724396D01*
X121757802Y-80722248D01*
X121808239Y-80711527D01*
X121858675Y-80722248D01*
X121863508Y-80724400D01*
X121863510Y-80724401D01*
X121962640Y-80768537D01*
X122036437Y-80801394D01*
X122221592Y-80840750D01*
X122221594Y-80840750D01*
X122410886Y-80840750D01*
X122410888Y-80840750D01*
X122596040Y-80801395D01*
X122596041Y-80801394D01*
X122596043Y-80801394D01*
X122768970Y-80724401D01*
X122768975Y-80724396D01*
X122773802Y-80722248D01*
X122824239Y-80711527D01*
X122874675Y-80722248D01*
X122879508Y-80724400D01*
X122879510Y-80724401D01*
X122978640Y-80768537D01*
X123052437Y-80801394D01*
X123228141Y-80838741D01*
X123280395Y-80863665D01*
X123315640Y-80909595D01*
X123326190Y-80966521D01*
X123309747Y-81022031D01*
X123267060Y-81095965D01*
X123208566Y-81275992D01*
X123188780Y-81464250D01*
X123208566Y-81652507D01*
X123267060Y-81832534D01*
X123361706Y-81996466D01*
X123488369Y-82137139D01*
X123641509Y-82248401D01*
X123814437Y-82325394D01*
X123999592Y-82364750D01*
X123999594Y-82364750D01*
X124188886Y-82364750D01*
X124188888Y-82364750D01*
X124312324Y-82338512D01*
X124374043Y-82325394D01*
X124546970Y-82248401D01*
X124568253Y-82232938D01*
X124700110Y-82137139D01*
X124826773Y-81996466D01*
X124921419Y-81832534D01*
X124957924Y-81720184D01*
X124979914Y-81652506D01*
X124999700Y-81464250D01*
X124979914Y-81275994D01*
X124927035Y-81113249D01*
X124921419Y-81095965D01*
X124826773Y-80932033D01*
X124700110Y-80791360D01*
X124546970Y-80680098D01*
X124374042Y-80603105D01*
X124198339Y-80565758D01*
X124146084Y-80540834D01*
X124110840Y-80494903D01*
X124100290Y-80437978D01*
X124116732Y-80382470D01*
X124159419Y-80308534D01*
X124217914Y-80128506D01*
X124237700Y-79940250D01*
X124217914Y-79751994D01*
X124181659Y-79640414D01*
X124159419Y-79571965D01*
X124064773Y-79408033D01*
X123938110Y-79267360D01*
X123784970Y-79156098D01*
X123612042Y-79079105D01*
X123426888Y-79039750D01*
X123426886Y-79039750D01*
X123237594Y-79039750D01*
X123237592Y-79039750D01*
X123052441Y-79079104D01*
X122874676Y-79158251D01*
X122824240Y-79168971D01*
X122773804Y-79158251D01*
X122660229Y-79107684D01*
X122596043Y-79079106D01*
X122596042Y-79079105D01*
X122596038Y-79079104D01*
X122410888Y-79039750D01*
X122410886Y-79039750D01*
X122221594Y-79039750D01*
X122221592Y-79039750D01*
X122036441Y-79079104D01*
X121858676Y-79158251D01*
X121808240Y-79168971D01*
X121757804Y-79158251D01*
X121644229Y-79107684D01*
X121580043Y-79079106D01*
X121580042Y-79079105D01*
X121580038Y-79079104D01*
X121394888Y-79039750D01*
X121394886Y-79039750D01*
X121205594Y-79039750D01*
X121205592Y-79039750D01*
X121020437Y-79079105D01*
X120847509Y-79156098D01*
X120694369Y-79267360D01*
X120567706Y-79408033D01*
X120473060Y-79571965D01*
X120414566Y-79751992D01*
X120394780Y-79940249D01*
X119750266Y-79940249D01*
X119645091Y-79595100D01*
X119643913Y-79590976D01*
X119638836Y-79571965D01*
X119366685Y-78552967D01*
X119365665Y-78548866D01*
X119124703Y-77501777D01*
X119123824Y-77497629D01*
X118919448Y-76442842D01*
X118918705Y-76438614D01*
X118909341Y-76379307D01*
X118888756Y-76248927D01*
X118887240Y-76229590D01*
X118887240Y-75368250D01*
X119886780Y-75368250D01*
X119906566Y-75556507D01*
X119965060Y-75736534D01*
X120059706Y-75900466D01*
X120186369Y-76041139D01*
X120339509Y-76152401D01*
X120512437Y-76229394D01*
X120697592Y-76268750D01*
X120697594Y-76268750D01*
X120886886Y-76268750D01*
X120886888Y-76268750D01*
X121055360Y-76232940D01*
X121072043Y-76229394D01*
X121244970Y-76152401D01*
X121295536Y-76115663D01*
X121398110Y-76041139D01*
X121524773Y-75900466D01*
X121619419Y-75736534D01*
X121633001Y-75694732D01*
X121677914Y-75556506D01*
X121697700Y-75368250D01*
X123442780Y-75368250D01*
X123462566Y-75556507D01*
X123521060Y-75736534D01*
X123615706Y-75900466D01*
X123742369Y-76041139D01*
X123895509Y-76152401D01*
X124068437Y-76229394D01*
X124253592Y-76268750D01*
X124253594Y-76268750D01*
X124442886Y-76268750D01*
X124442888Y-76268750D01*
X124611360Y-76232940D01*
X124628043Y-76229394D01*
X124800970Y-76152401D01*
X124851536Y-76115663D01*
X124954110Y-76041139D01*
X125080773Y-75900466D01*
X125175419Y-75736534D01*
X125189001Y-75694732D01*
X125233914Y-75556506D01*
X125253700Y-75368250D01*
X125233914Y-75179994D01*
X125175419Y-74999966D01*
X125175419Y-74999965D01*
X125080773Y-74836033D01*
X124954110Y-74695360D01*
X124800970Y-74584098D01*
X124628042Y-74507105D01*
X124442888Y-74467750D01*
X124442886Y-74467750D01*
X124253594Y-74467750D01*
X124253592Y-74467750D01*
X124068437Y-74507105D01*
X123895509Y-74584098D01*
X123742369Y-74695360D01*
X123615706Y-74836033D01*
X123521060Y-74999965D01*
X123462566Y-75179992D01*
X123442780Y-75368250D01*
X121697700Y-75368250D01*
X121677914Y-75179994D01*
X121619419Y-74999966D01*
X121619419Y-74999965D01*
X121524773Y-74836033D01*
X121398110Y-74695360D01*
X121244970Y-74584098D01*
X121072042Y-74507105D01*
X120886888Y-74467750D01*
X120886886Y-74467750D01*
X120697594Y-74467750D01*
X120697592Y-74467750D01*
X120512437Y-74507105D01*
X120339509Y-74584098D01*
X120186369Y-74695360D01*
X120059706Y-74836033D01*
X119965060Y-74999965D01*
X119906566Y-75179992D01*
X119886780Y-75368250D01*
X118887240Y-75368250D01*
X118887240Y-65927690D01*
X118888837Y-65907855D01*
X118912751Y-65760278D01*
X118943197Y-65572395D01*
X118943979Y-65568062D01*
X119159013Y-64487009D01*
X119159937Y-64482765D01*
X119413426Y-63410050D01*
X119414499Y-63405841D01*
X119706118Y-62342847D01*
X119707361Y-62338616D01*
X119710557Y-62328409D01*
X120036722Y-61286744D01*
X120038098Y-61282609D01*
X120404809Y-60243119D01*
X120406325Y-60239057D01*
X120809892Y-59213349D01*
X120811580Y-59209274D01*
X120980199Y-58821897D01*
X121251500Y-58198625D01*
X121253298Y-58194686D01*
X121729022Y-57200357D01*
X121730973Y-57196459D01*
X122241885Y-56219740D01*
X122243981Y-56215904D01*
X122789427Y-55258047D01*
X122791625Y-55254343D01*
X123370915Y-54316559D01*
X123373269Y-54312895D01*
X123985655Y-53396395D01*
X123988133Y-53392826D01*
X124632858Y-52498743D01*
X124635471Y-52495253D01*
X125311681Y-51624773D01*
X125314392Y-51621409D01*
X125545474Y-51344904D01*
X125597433Y-51282733D01*
X125640064Y-51249920D01*
X125692580Y-51238250D01*
X135273240Y-51238250D01*
X135335240Y-51254863D01*
G37*
%TD.AperFunction*%
%TD*%
%TA.AperFunction,Conductor*%
%TO.N,A*%
G36*
X173260940Y-51249920D02*
G01*
X173303571Y-51282733D01*
X173586577Y-51621368D01*
X173589355Y-51624815D01*
X174265511Y-52495226D01*
X174268164Y-52498769D01*
X174912847Y-53392793D01*
X174915371Y-53396429D01*
X175527714Y-54312865D01*
X175530107Y-54316589D01*
X176109347Y-55254292D01*
X176111606Y-55258099D01*
X176657008Y-56215879D01*
X176659130Y-56219764D01*
X177170014Y-57196429D01*
X177171995Y-57200387D01*
X177647684Y-58194642D01*
X177649523Y-58198669D01*
X178089423Y-59209274D01*
X178091117Y-59213364D01*
X178494662Y-60239015D01*
X178496209Y-60243162D01*
X178862893Y-61282576D01*
X178864291Y-61286776D01*
X179193642Y-62338616D01*
X179194889Y-62342863D01*
X179486493Y-63405801D01*
X179487587Y-63410090D01*
X179741057Y-64482725D01*
X179741998Y-64487051D01*
X179844857Y-65004157D01*
X179847240Y-65028348D01*
X179847240Y-77125337D01*
X179844997Y-77148814D01*
X179783562Y-77467436D01*
X179782676Y-77471637D01*
X179544016Y-78513861D01*
X179542986Y-78518030D01*
X179268362Y-79551439D01*
X179267187Y-79555569D01*
X178956965Y-80578791D01*
X178955648Y-80582879D01*
X178610178Y-81594753D01*
X178608721Y-81598792D01*
X178228409Y-82598135D01*
X178226812Y-82602121D01*
X178065368Y-82985821D01*
X178025602Y-83036834D01*
X177965558Y-83060882D01*
X177901573Y-83051422D01*
X177851056Y-83011029D01*
X177827752Y-82950694D01*
X177811914Y-82799994D01*
X177753419Y-82619966D01*
X177753419Y-82619965D01*
X177658773Y-82456033D01*
X177532110Y-82315360D01*
X177378970Y-82204098D01*
X177206042Y-82127105D01*
X177020888Y-82087750D01*
X177020886Y-82087750D01*
X176831594Y-82087750D01*
X176831592Y-82087750D01*
X176646437Y-82127105D01*
X176473509Y-82204098D01*
X176320369Y-82315360D01*
X176193706Y-82456033D01*
X176099060Y-82619965D01*
X176040566Y-82799992D01*
X176040565Y-82799994D01*
X176040566Y-82799994D01*
X176020780Y-82988250D01*
X176028414Y-83060882D01*
X176040566Y-83176507D01*
X176099060Y-83356534D01*
X176193706Y-83520466D01*
X176320369Y-83661139D01*
X176473509Y-83772401D01*
X176646437Y-83849394D01*
X176831592Y-83888750D01*
X176831594Y-83888750D01*
X177020886Y-83888750D01*
X177020888Y-83888750D01*
X177144323Y-83862512D01*
X177206043Y-83849394D01*
X177378970Y-83772401D01*
X177442789Y-83726034D01*
X177517518Y-83671741D01*
X177577787Y-83648702D01*
X177641473Y-83659064D01*
X177691331Y-83700020D01*
X177713861Y-83760482D01*
X177702964Y-83824078D01*
X177361861Y-84562172D01*
X177359993Y-84566038D01*
X176878088Y-85520552D01*
X176876086Y-85524351D01*
X176361444Y-86461564D01*
X176359312Y-86465292D01*
X175812529Y-87384120D01*
X175810270Y-87387772D01*
X175231971Y-88287160D01*
X175229586Y-88290731D01*
X174620510Y-89169531D01*
X174618003Y-89173017D01*
X173978877Y-90030184D01*
X173976251Y-90033582D01*
X173307815Y-90868119D01*
X173305073Y-90871424D01*
X172608125Y-91682337D01*
X172605270Y-91685544D01*
X171880694Y-92471804D01*
X171877730Y-92474911D01*
X171126353Y-93235622D01*
X171123283Y-93238625D01*
X170345986Y-93972891D01*
X170342813Y-93975785D01*
X169540755Y-94682523D01*
X169539130Y-94683930D01*
X169374012Y-94824415D01*
X169065198Y-95128175D01*
X168779089Y-95453403D01*
X168517175Y-95798403D01*
X168280818Y-96161374D01*
X168280811Y-96161385D01*
X168280812Y-96161385D01*
X168108859Y-96472401D01*
X168071227Y-96540466D01*
X167889513Y-96933674D01*
X167736624Y-97338936D01*
X167613343Y-97754185D01*
X167520315Y-98177245D01*
X167458028Y-98605898D01*
X167426805Y-99037921D01*
X167426813Y-99254502D01*
X167426813Y-108415611D01*
X167408094Y-108481124D01*
X167357589Y-108526855D01*
X166988988Y-108708343D01*
X166984122Y-108710740D01*
X166535065Y-108974902D01*
X166106852Y-109271623D01*
X165701804Y-109599289D01*
X165322179Y-109956078D01*
X165077557Y-110222812D01*
X165030972Y-110254623D01*
X164975115Y-110262506D01*
X164921546Y-110244829D01*
X164881351Y-110205250D01*
X164862850Y-110151964D01*
X164857914Y-110104994D01*
X164799419Y-109924966D01*
X164799419Y-109924965D01*
X164704773Y-109761033D01*
X164578110Y-109620360D01*
X164424970Y-109509098D01*
X164252042Y-109432105D01*
X164066888Y-109392750D01*
X164066886Y-109392750D01*
X163877594Y-109392750D01*
X163877592Y-109392750D01*
X163692437Y-109432105D01*
X163519509Y-109509098D01*
X163366369Y-109620360D01*
X163239706Y-109761033D01*
X163145060Y-109924965D01*
X163086566Y-110104992D01*
X163066780Y-110293250D01*
X163086566Y-110481507D01*
X163145060Y-110661534D01*
X163239706Y-110825466D01*
X163366369Y-110966139D01*
X163519509Y-111077401D01*
X163692437Y-111154394D01*
X163877592Y-111193750D01*
X163877594Y-111193750D01*
X164066885Y-111193750D01*
X164066886Y-111193750D01*
X164116562Y-111183191D01*
X164173079Y-111184351D01*
X164223211Y-111210481D01*
X164256534Y-111256149D01*
X164266121Y-111311863D01*
X164249980Y-111366043D01*
X164097231Y-111633119D01*
X163872831Y-112103280D01*
X163683904Y-112588807D01*
X163531500Y-113087001D01*
X163416458Y-113595114D01*
X163339410Y-114110374D01*
X163300779Y-114629925D01*
X163300779Y-115150896D01*
X163339411Y-115670461D01*
X163416456Y-116185693D01*
X163521819Y-116651058D01*
X163531501Y-116693822D01*
X163683904Y-117192014D01*
X163848804Y-117615792D01*
X163872832Y-117677540D01*
X164097231Y-118147701D01*
X164097234Y-118147707D01*
X164355886Y-118599948D01*
X164647358Y-119031764D01*
X164693823Y-119090659D01*
X164708645Y-119109446D01*
X164734568Y-119172850D01*
X164722873Y-119240344D01*
X164677129Y-119291330D01*
X164611294Y-119310250D01*
X160285695Y-119310250D01*
X160223853Y-119293728D01*
X160178490Y-119248565D01*
X160161696Y-119186798D01*
X160160347Y-118880276D01*
X160173907Y-118823349D01*
X160212070Y-118778978D01*
X160266333Y-118757051D01*
X160324608Y-118762455D01*
X160361218Y-118775023D01*
X160427626Y-118797821D01*
X160672905Y-118838750D01*
X160921575Y-118838750D01*
X161166854Y-118797821D01*
X161402050Y-118717078D01*
X161620749Y-118598724D01*
X161816984Y-118445988D01*
X161985404Y-118263035D01*
X162121413Y-118054857D01*
X162221303Y-117827131D01*
X162282348Y-117586071D01*
X162302883Y-117338250D01*
X162282348Y-117090429D01*
X162221303Y-116849369D01*
X162121413Y-116621643D01*
X161985404Y-116413465D01*
X161816984Y-116230512D01*
X161712751Y-116149384D01*
X161620754Y-116077779D01*
X161620750Y-116077776D01*
X161620749Y-116077776D01*
X161402050Y-115959422D01*
X161402046Y-115959420D01*
X161402045Y-115959420D01*
X161166855Y-115878679D01*
X160921575Y-115837750D01*
X160672905Y-115837750D01*
X160427624Y-115878679D01*
X160311059Y-115918696D01*
X160253053Y-115924139D01*
X160198965Y-115902491D01*
X160160733Y-115858530D01*
X160146797Y-115801964D01*
X160105779Y-106483249D01*
X164971780Y-106483249D01*
X164991566Y-106671507D01*
X165050060Y-106851534D01*
X165144706Y-107015466D01*
X165271369Y-107156139D01*
X165424509Y-107267401D01*
X165597437Y-107344394D01*
X165782592Y-107383750D01*
X165782594Y-107383750D01*
X165971886Y-107383750D01*
X165971888Y-107383750D01*
X166095324Y-107357512D01*
X166157043Y-107344394D01*
X166329970Y-107267401D01*
X166483111Y-107156138D01*
X166609773Y-107015466D01*
X166704419Y-106851534D01*
X166762914Y-106671506D01*
X166782700Y-106483250D01*
X166762914Y-106294994D01*
X166704419Y-106114966D01*
X166704419Y-106114965D01*
X166609773Y-105951033D01*
X166483110Y-105810360D01*
X166329970Y-105699098D01*
X166157042Y-105622105D01*
X165971888Y-105582750D01*
X165971886Y-105582750D01*
X165782594Y-105582750D01*
X165782592Y-105582750D01*
X165597437Y-105622105D01*
X165424509Y-105699098D01*
X165271369Y-105810360D01*
X165144706Y-105951033D01*
X165050060Y-106114965D01*
X164991566Y-106294992D01*
X164971780Y-106483249D01*
X160105779Y-106483249D01*
X160045061Y-92688745D01*
X160063119Y-92623762D01*
X160112522Y-92577841D01*
X160178653Y-92564574D01*
X160241945Y-92587883D01*
X160344510Y-92662401D01*
X160344511Y-92662401D01*
X160344512Y-92662402D01*
X160517437Y-92739394D01*
X160702592Y-92778750D01*
X160702594Y-92778750D01*
X160891886Y-92778750D01*
X160891888Y-92778750D01*
X161015324Y-92752512D01*
X161077043Y-92739394D01*
X161249970Y-92662401D01*
X161249973Y-92662399D01*
X161359355Y-92582929D01*
X161406459Y-92561957D01*
X161458021Y-92561957D01*
X161505125Y-92582929D01*
X161614509Y-92662401D01*
X161787437Y-92739394D01*
X161972592Y-92778750D01*
X161972594Y-92778750D01*
X162161886Y-92778750D01*
X162161888Y-92778750D01*
X162285324Y-92752512D01*
X162347043Y-92739394D01*
X162519970Y-92662401D01*
X162519973Y-92662399D01*
X162629355Y-92582929D01*
X162676459Y-92561957D01*
X162728021Y-92561957D01*
X162775125Y-92582929D01*
X162884506Y-92662399D01*
X162884509Y-92662400D01*
X162884510Y-92662401D01*
X163043507Y-92733192D01*
X163090783Y-92770129D01*
X163115186Y-92824938D01*
X163111001Y-92884788D01*
X163086566Y-92959990D01*
X163066780Y-93148250D01*
X163086566Y-93336509D01*
X163111001Y-93411711D01*
X163115186Y-93471561D01*
X163090784Y-93526370D01*
X163043506Y-93563307D01*
X162884509Y-93634098D01*
X162731369Y-93745360D01*
X162604706Y-93886033D01*
X162510060Y-94049965D01*
X162451566Y-94229992D01*
X162431780Y-94418250D01*
X162451566Y-94606509D01*
X162476001Y-94681711D01*
X162480186Y-94741561D01*
X162455784Y-94796370D01*
X162408506Y-94833307D01*
X162249509Y-94904098D01*
X162096369Y-95015360D01*
X161969706Y-95156033D01*
X161875060Y-95319965D01*
X161816566Y-95499992D01*
X161796780Y-95688249D01*
X161816566Y-95876507D01*
X161875060Y-96056534D01*
X161969706Y-96220466D01*
X162096369Y-96361139D01*
X162249505Y-96472399D01*
X162303202Y-96496306D01*
X162408507Y-96543192D01*
X162455783Y-96580129D01*
X162480186Y-96634938D01*
X162476001Y-96694788D01*
X162451566Y-96769990D01*
X162431780Y-96958250D01*
X162451566Y-97146507D01*
X162510060Y-97326534D01*
X162604706Y-97490465D01*
X162622544Y-97510276D01*
X162650711Y-97563249D01*
X162650712Y-97623245D01*
X162622547Y-97676219D01*
X162604706Y-97696033D01*
X162510060Y-97859965D01*
X162451566Y-98039992D01*
X162431780Y-98228249D01*
X162451566Y-98416507D01*
X162510060Y-98596534D01*
X162604706Y-98760466D01*
X162731369Y-98901139D01*
X162884509Y-99012401D01*
X163057437Y-99089394D01*
X163242592Y-99128750D01*
X163242594Y-99128750D01*
X163431886Y-99128750D01*
X163431888Y-99128750D01*
X163555324Y-99102512D01*
X163617043Y-99089394D01*
X163686433Y-99058498D01*
X163789967Y-99012403D01*
X163789970Y-99012401D01*
X163899356Y-98932927D01*
X163946457Y-98911957D01*
X163998020Y-98911957D01*
X164045124Y-98932929D01*
X164154509Y-99012401D01*
X164327437Y-99089394D01*
X164512592Y-99128750D01*
X164512594Y-99128750D01*
X164701886Y-99128750D01*
X164701888Y-99128750D01*
X164825324Y-99102512D01*
X164887043Y-99089394D01*
X165059970Y-99012401D01*
X165059969Y-99012401D01*
X165213110Y-98901139D01*
X165339773Y-98760466D01*
X165434419Y-98596534D01*
X165434419Y-98596533D01*
X165492914Y-98416506D01*
X165512700Y-98228250D01*
X165492914Y-98039994D01*
X165434419Y-97859966D01*
X165434419Y-97859965D01*
X165339773Y-97696033D01*
X165321934Y-97676221D01*
X165293767Y-97623247D01*
X165293768Y-97563250D01*
X165321934Y-97510277D01*
X165339773Y-97490466D01*
X165434419Y-97326534D01*
X165492914Y-97146506D01*
X165512700Y-96958250D01*
X165492914Y-96769994D01*
X165462572Y-96676613D01*
X165434419Y-96589965D01*
X165339773Y-96426033D01*
X165213110Y-96285360D01*
X165059970Y-96174098D01*
X164900973Y-96103307D01*
X164853695Y-96066370D01*
X164829293Y-96011560D01*
X164833477Y-95951712D01*
X164857914Y-95876506D01*
X164877700Y-95688250D01*
X164857914Y-95499994D01*
X164833477Y-95424787D01*
X164829293Y-95364939D01*
X164853696Y-95310129D01*
X164900972Y-95273192D01*
X165059970Y-95202401D01*
X165059970Y-95202400D01*
X165059972Y-95202400D01*
X165213110Y-95091139D01*
X165339773Y-94950466D01*
X165434419Y-94786534D01*
X165467709Y-94684078D01*
X165492914Y-94606506D01*
X165512700Y-94418250D01*
X165492914Y-94229994D01*
X165468477Y-94154787D01*
X165464293Y-94094939D01*
X165488696Y-94040129D01*
X165535972Y-94003192D01*
X165694970Y-93932401D01*
X165694970Y-93932400D01*
X165694972Y-93932400D01*
X165848110Y-93821139D01*
X165974773Y-93680466D01*
X166069419Y-93516534D01*
X166121022Y-93357716D01*
X166127914Y-93336506D01*
X166147700Y-93148250D01*
X166127914Y-92959994D01*
X166084214Y-92825500D01*
X166069419Y-92779965D01*
X165974773Y-92616033D01*
X165848110Y-92475360D01*
X165694970Y-92364098D01*
X165535973Y-92293307D01*
X165488695Y-92256370D01*
X165464293Y-92201560D01*
X165468477Y-92141712D01*
X165492914Y-92066506D01*
X165512700Y-91878250D01*
X165492914Y-91689994D01*
X165434419Y-91509966D01*
X165434419Y-91509965D01*
X165339773Y-91346033D01*
X165213110Y-91205360D01*
X165059970Y-91094098D01*
X164887042Y-91017105D01*
X164701888Y-90977750D01*
X164701886Y-90977750D01*
X164512594Y-90977750D01*
X164512592Y-90977750D01*
X164327437Y-91017105D01*
X164154509Y-91094098D01*
X164045125Y-91173571D01*
X163998021Y-91194543D01*
X163946459Y-91194543D01*
X163899355Y-91173571D01*
X163789970Y-91094098D01*
X163617042Y-91017105D01*
X163431888Y-90977750D01*
X163431886Y-90977750D01*
X163242594Y-90977750D01*
X163242592Y-90977750D01*
X163057437Y-91017105D01*
X162884509Y-91094098D01*
X162775125Y-91173571D01*
X162728021Y-91194543D01*
X162676459Y-91194543D01*
X162629355Y-91173571D01*
X162519970Y-91094098D01*
X162347042Y-91017105D01*
X162161888Y-90977750D01*
X162161886Y-90977750D01*
X161972594Y-90977750D01*
X161972592Y-90977750D01*
X161787437Y-91017105D01*
X161614509Y-91094098D01*
X161505125Y-91173571D01*
X161458021Y-91194543D01*
X161406459Y-91194543D01*
X161359355Y-91173571D01*
X161249970Y-91094098D01*
X161077042Y-91017105D01*
X160891888Y-90977750D01*
X160891886Y-90977750D01*
X160702594Y-90977750D01*
X160702592Y-90977750D01*
X160517437Y-91017105D01*
X160344509Y-91094098D01*
X160235125Y-91173571D01*
X160188018Y-91194544D01*
X160136454Y-91194542D01*
X160089348Y-91173566D01*
X160089059Y-91173356D01*
X160051588Y-91129577D01*
X160037952Y-91073589D01*
X160020000Y-86995000D01*
X160019999Y-86995000D01*
X158249220Y-86995000D01*
X158187254Y-86978407D01*
X158141872Y-86933069D01*
X158125220Y-86871119D01*
X158123934Y-85528250D01*
X164971780Y-85528250D01*
X164991566Y-85716507D01*
X165050060Y-85896534D01*
X165144706Y-86060466D01*
X165271369Y-86201139D01*
X165424509Y-86312401D01*
X165597437Y-86389394D01*
X165782592Y-86428750D01*
X165782594Y-86428750D01*
X165971886Y-86428750D01*
X165971888Y-86428750D01*
X166095324Y-86402512D01*
X166157043Y-86389394D01*
X166329970Y-86312401D01*
X166483111Y-86201138D01*
X166609773Y-86060466D01*
X166704419Y-85896534D01*
X166762914Y-85716506D01*
X166782700Y-85528250D01*
X171321780Y-85528250D01*
X171341566Y-85716507D01*
X171400060Y-85896534D01*
X171494706Y-86060466D01*
X171621369Y-86201139D01*
X171774509Y-86312401D01*
X171947437Y-86389394D01*
X172132592Y-86428750D01*
X172132594Y-86428750D01*
X172321886Y-86428750D01*
X172321888Y-86428750D01*
X172445324Y-86402512D01*
X172507043Y-86389394D01*
X172679970Y-86312401D01*
X172833111Y-86201138D01*
X172959773Y-86060466D01*
X173054419Y-85896534D01*
X173112914Y-85716506D01*
X173132700Y-85528250D01*
X173112914Y-85339994D01*
X173054419Y-85159966D01*
X173054419Y-85159965D01*
X172959775Y-84996037D01*
X172959774Y-84996036D01*
X172959773Y-84996034D01*
X172941933Y-84976221D01*
X172913767Y-84923249D01*
X172913767Y-84863251D01*
X172941933Y-84810278D01*
X172959773Y-84790466D01*
X173054419Y-84626534D01*
X173112914Y-84446506D01*
X173132700Y-84258250D01*
X173112914Y-84069994D01*
X173054419Y-83889966D01*
X173054419Y-83889965D01*
X172959775Y-83726037D01*
X172959774Y-83726036D01*
X172959773Y-83726034D01*
X172941933Y-83706221D01*
X172913767Y-83653249D01*
X172913767Y-83593251D01*
X172941933Y-83540278D01*
X172959773Y-83520466D01*
X173054419Y-83356534D01*
X173112914Y-83176506D01*
X173132700Y-82988250D01*
X173112914Y-82799994D01*
X173054419Y-82619966D01*
X173054419Y-82619965D01*
X172959775Y-82456037D01*
X172959774Y-82456036D01*
X172959773Y-82456034D01*
X172941933Y-82436221D01*
X172913767Y-82383249D01*
X172913767Y-82323251D01*
X172941933Y-82270278D01*
X172959773Y-82250466D01*
X173054419Y-82086534D01*
X173112914Y-81906506D01*
X173132700Y-81718250D01*
X173112914Y-81529994D01*
X173054419Y-81349966D01*
X173054419Y-81349965D01*
X172959775Y-81186037D01*
X172959774Y-81186036D01*
X172959773Y-81186034D01*
X172941933Y-81166221D01*
X172913767Y-81113249D01*
X172913767Y-81053251D01*
X172941933Y-81000278D01*
X172959773Y-80980466D01*
X173054419Y-80816534D01*
X173112914Y-80636506D01*
X173132700Y-80448250D01*
X173112914Y-80259994D01*
X173054419Y-80079966D01*
X173054419Y-80079965D01*
X172973754Y-79940250D01*
X174242780Y-79940250D01*
X174262566Y-80128507D01*
X174321060Y-80308534D01*
X174415706Y-80472466D01*
X174542369Y-80613139D01*
X174695509Y-80724401D01*
X174868437Y-80801394D01*
X175053592Y-80840750D01*
X175053594Y-80840750D01*
X175242886Y-80840750D01*
X175242888Y-80840750D01*
X175366323Y-80814512D01*
X175428043Y-80801394D01*
X175600970Y-80724401D01*
X175600971Y-80724399D01*
X175608482Y-80721056D01*
X175658918Y-80710335D01*
X175709353Y-80721055D01*
X175880138Y-80797095D01*
X176065293Y-80836451D01*
X176065295Y-80836451D01*
X176254587Y-80836451D01*
X176254589Y-80836451D01*
X176378025Y-80810213D01*
X176439744Y-80797095D01*
X176612671Y-80720102D01*
X176612671Y-80720101D01*
X176614827Y-80719142D01*
X176665263Y-80708421D01*
X176715699Y-80719142D01*
X176727508Y-80724400D01*
X176727510Y-80724401D01*
X176823408Y-80767098D01*
X176900437Y-80801394D01*
X177085592Y-80840750D01*
X177085594Y-80840750D01*
X177274886Y-80840750D01*
X177274888Y-80840750D01*
X177398323Y-80814512D01*
X177460043Y-80801394D01*
X177632970Y-80724401D01*
X177689050Y-80683657D01*
X177786110Y-80613139D01*
X177912773Y-80472466D01*
X178007419Y-80308534D01*
X178023191Y-80259992D01*
X178065914Y-80128506D01*
X178085700Y-79940250D01*
X178065914Y-79751994D01*
X178007419Y-79571966D01*
X178007419Y-79571965D01*
X177912773Y-79408033D01*
X177786110Y-79267360D01*
X177632970Y-79156098D01*
X177460042Y-79079105D01*
X177274888Y-79039750D01*
X177274886Y-79039750D01*
X177085594Y-79039750D01*
X177085592Y-79039750D01*
X176900439Y-79079104D01*
X176725353Y-79157058D01*
X176674918Y-79167778D01*
X176624483Y-79157058D01*
X176439741Y-79074805D01*
X176254589Y-79035451D01*
X176254587Y-79035451D01*
X176065295Y-79035451D01*
X176065293Y-79035451D01*
X175880138Y-79074806D01*
X175699699Y-79155144D01*
X175649263Y-79165865D01*
X175598827Y-79155144D01*
X175428042Y-79079105D01*
X175242888Y-79039750D01*
X175242886Y-79039750D01*
X175053594Y-79039750D01*
X175053592Y-79039750D01*
X174868437Y-79079105D01*
X174695509Y-79156098D01*
X174542369Y-79267360D01*
X174415706Y-79408033D01*
X174321060Y-79571965D01*
X174262566Y-79751992D01*
X174242780Y-79940250D01*
X172973754Y-79940250D01*
X172959775Y-79916037D01*
X172959774Y-79916036D01*
X172959773Y-79916034D01*
X172941933Y-79896221D01*
X172913767Y-79843249D01*
X172913767Y-79783251D01*
X172941933Y-79730278D01*
X172959773Y-79710466D01*
X173054419Y-79546534D01*
X173112914Y-79366506D01*
X173132700Y-79178250D01*
X173112914Y-78989994D01*
X173054419Y-78809966D01*
X173054419Y-78809965D01*
X172959775Y-78646037D01*
X172959774Y-78646036D01*
X172959773Y-78646034D01*
X172941933Y-78626221D01*
X172913767Y-78573249D01*
X172913767Y-78513251D01*
X172941933Y-78460278D01*
X172959773Y-78440466D01*
X173054419Y-78276534D01*
X173112914Y-78096506D01*
X173132700Y-77908250D01*
X173112914Y-77719994D01*
X173054419Y-77539966D01*
X173054419Y-77539965D01*
X172959773Y-77376033D01*
X172833110Y-77235360D01*
X172679970Y-77124098D01*
X172507042Y-77047105D01*
X172321888Y-77007750D01*
X172321886Y-77007750D01*
X172132594Y-77007750D01*
X172132592Y-77007750D01*
X171947437Y-77047105D01*
X171774509Y-77124098D01*
X171621369Y-77235360D01*
X171494706Y-77376033D01*
X171400060Y-77539965D01*
X171341566Y-77719992D01*
X171321780Y-77908249D01*
X171341566Y-78096507D01*
X171400060Y-78276534D01*
X171494706Y-78440465D01*
X171512544Y-78460276D01*
X171540711Y-78513249D01*
X171540712Y-78573245D01*
X171512547Y-78626219D01*
X171494706Y-78646033D01*
X171400060Y-78809965D01*
X171341566Y-78989992D01*
X171321780Y-79178250D01*
X171341566Y-79366507D01*
X171400060Y-79546534D01*
X171494706Y-79710466D01*
X171512545Y-79730278D01*
X171540712Y-79783252D01*
X171540712Y-79843248D01*
X171512545Y-79896222D01*
X171494706Y-79916033D01*
X171400060Y-80079965D01*
X171341566Y-80259992D01*
X171321780Y-80448250D01*
X171341566Y-80636507D01*
X171400060Y-80816534D01*
X171494706Y-80980466D01*
X171512545Y-81000278D01*
X171540712Y-81053252D01*
X171540712Y-81113248D01*
X171512545Y-81166222D01*
X171494706Y-81186033D01*
X171400060Y-81349965D01*
X171341566Y-81529992D01*
X171321780Y-81718249D01*
X171341566Y-81906507D01*
X171400060Y-82086534D01*
X171494706Y-82250466D01*
X171512545Y-82270278D01*
X171540712Y-82323252D01*
X171540712Y-82383248D01*
X171512545Y-82436222D01*
X171494706Y-82456033D01*
X171400060Y-82619965D01*
X171341566Y-82799992D01*
X171341565Y-82799994D01*
X171341566Y-82799994D01*
X171321780Y-82988250D01*
X171329414Y-83060882D01*
X171341566Y-83176507D01*
X171400060Y-83356534D01*
X171494706Y-83520466D01*
X171512545Y-83540278D01*
X171540712Y-83593252D01*
X171540712Y-83653248D01*
X171512545Y-83706222D01*
X171494706Y-83726033D01*
X171400060Y-83889965D01*
X171341566Y-84069992D01*
X171321780Y-84258250D01*
X171341566Y-84446507D01*
X171400060Y-84626534D01*
X171494706Y-84790466D01*
X171512545Y-84810278D01*
X171540712Y-84863252D01*
X171540712Y-84923248D01*
X171512545Y-84976222D01*
X171494706Y-84996033D01*
X171400060Y-85159965D01*
X171341566Y-85339992D01*
X171321780Y-85528250D01*
X166782700Y-85528250D01*
X166762914Y-85339994D01*
X166704419Y-85159966D01*
X166704419Y-85159965D01*
X166609775Y-84996037D01*
X166609774Y-84996036D01*
X166609773Y-84996034D01*
X166591933Y-84976221D01*
X166563767Y-84923249D01*
X166563767Y-84863251D01*
X166591933Y-84810278D01*
X166609773Y-84790466D01*
X166704419Y-84626534D01*
X166762914Y-84446506D01*
X166782700Y-84258250D01*
X168146780Y-84258250D01*
X168166566Y-84446507D01*
X168225060Y-84626534D01*
X168319706Y-84790466D01*
X168446369Y-84931139D01*
X168599509Y-85042401D01*
X168772437Y-85119394D01*
X168957592Y-85158750D01*
X168957594Y-85158750D01*
X169146886Y-85158750D01*
X169146888Y-85158750D01*
X169270324Y-85132512D01*
X169332043Y-85119394D01*
X169504970Y-85042401D01*
X169658111Y-84931138D01*
X169784773Y-84790466D01*
X169879419Y-84626534D01*
X169937914Y-84446506D01*
X169957700Y-84258250D01*
X169937914Y-84069994D01*
X169879419Y-83889966D01*
X169879419Y-83889965D01*
X169784775Y-83726037D01*
X169784774Y-83726036D01*
X169784773Y-83726034D01*
X169766933Y-83706221D01*
X169738767Y-83653249D01*
X169738767Y-83593251D01*
X169766933Y-83540278D01*
X169784773Y-83520466D01*
X169879419Y-83356534D01*
X169937914Y-83176506D01*
X169957700Y-82988250D01*
X169937914Y-82799994D01*
X169879419Y-82619966D01*
X169879419Y-82619965D01*
X169784775Y-82456037D01*
X169784774Y-82456036D01*
X169784773Y-82456034D01*
X169766933Y-82436221D01*
X169738767Y-82383249D01*
X169738767Y-82323251D01*
X169766933Y-82270278D01*
X169784773Y-82250466D01*
X169879419Y-82086534D01*
X169937914Y-81906506D01*
X169957700Y-81718250D01*
X169937914Y-81529994D01*
X169879419Y-81349966D01*
X169879419Y-81349965D01*
X169784775Y-81186037D01*
X169784774Y-81186036D01*
X169784773Y-81186034D01*
X169766933Y-81166221D01*
X169738767Y-81113249D01*
X169738767Y-81053251D01*
X169766933Y-81000278D01*
X169784773Y-80980466D01*
X169879419Y-80816534D01*
X169937914Y-80636506D01*
X169957700Y-80448250D01*
X169937914Y-80259994D01*
X169879419Y-80079966D01*
X169879419Y-80079965D01*
X169784775Y-79916037D01*
X169784774Y-79916036D01*
X169784773Y-79916034D01*
X169766933Y-79896221D01*
X169738767Y-79843249D01*
X169738767Y-79783251D01*
X169766933Y-79730278D01*
X169784773Y-79710466D01*
X169879419Y-79546534D01*
X169937914Y-79366506D01*
X169957700Y-79178250D01*
X169937914Y-78989994D01*
X169879419Y-78809966D01*
X169879419Y-78809965D01*
X169784773Y-78646033D01*
X169658110Y-78505360D01*
X169504970Y-78394098D01*
X169332042Y-78317105D01*
X169146888Y-78277750D01*
X169146886Y-78277750D01*
X168957594Y-78277750D01*
X168957592Y-78277750D01*
X168772437Y-78317105D01*
X168599509Y-78394098D01*
X168446369Y-78505360D01*
X168319706Y-78646033D01*
X168225060Y-78809965D01*
X168166566Y-78989992D01*
X168146780Y-79178250D01*
X168166566Y-79366507D01*
X168225060Y-79546534D01*
X168319706Y-79710466D01*
X168337545Y-79730278D01*
X168365712Y-79783252D01*
X168365712Y-79843248D01*
X168337545Y-79896222D01*
X168319706Y-79916033D01*
X168225060Y-80079965D01*
X168166566Y-80259992D01*
X168146780Y-80448250D01*
X168166566Y-80636507D01*
X168225060Y-80816534D01*
X168319706Y-80980466D01*
X168337545Y-81000278D01*
X168365712Y-81053252D01*
X168365712Y-81113248D01*
X168337545Y-81166222D01*
X168319706Y-81186033D01*
X168225060Y-81349965D01*
X168166566Y-81529992D01*
X168146780Y-81718249D01*
X168166566Y-81906507D01*
X168225060Y-82086534D01*
X168319706Y-82250466D01*
X168337545Y-82270278D01*
X168365712Y-82323252D01*
X168365712Y-82383248D01*
X168337545Y-82436222D01*
X168319706Y-82456033D01*
X168225060Y-82619965D01*
X168166566Y-82799992D01*
X168166565Y-82799994D01*
X168166566Y-82799994D01*
X168146780Y-82988250D01*
X168154414Y-83060882D01*
X168166566Y-83176507D01*
X168225060Y-83356534D01*
X168319706Y-83520466D01*
X168337545Y-83540278D01*
X168365712Y-83593252D01*
X168365712Y-83653248D01*
X168337545Y-83706222D01*
X168319706Y-83726033D01*
X168225060Y-83889965D01*
X168166566Y-84069992D01*
X168146780Y-84258250D01*
X166782700Y-84258250D01*
X166762914Y-84069994D01*
X166704419Y-83889966D01*
X166704419Y-83889965D01*
X166609775Y-83726037D01*
X166609774Y-83726036D01*
X166609773Y-83726034D01*
X166591933Y-83706221D01*
X166563767Y-83653249D01*
X166563767Y-83593251D01*
X166591933Y-83540278D01*
X166609773Y-83520466D01*
X166704419Y-83356534D01*
X166762914Y-83176506D01*
X166782700Y-82988250D01*
X166762914Y-82799994D01*
X166704419Y-82619966D01*
X166704419Y-82619965D01*
X166609775Y-82456037D01*
X166609774Y-82456036D01*
X166609773Y-82456034D01*
X166591933Y-82436221D01*
X166563767Y-82383249D01*
X166563767Y-82323251D01*
X166591933Y-82270278D01*
X166609773Y-82250466D01*
X166704419Y-82086534D01*
X166762914Y-81906506D01*
X166782700Y-81718250D01*
X166762914Y-81529994D01*
X166704419Y-81349966D01*
X166704419Y-81349965D01*
X166609775Y-81186037D01*
X166609774Y-81186036D01*
X166609773Y-81186034D01*
X166591933Y-81166221D01*
X166563767Y-81113249D01*
X166563767Y-81053251D01*
X166591933Y-81000278D01*
X166609773Y-80980466D01*
X166704419Y-80816534D01*
X166762914Y-80636506D01*
X166782700Y-80448250D01*
X166762914Y-80259994D01*
X166704419Y-80079966D01*
X166704419Y-80079965D01*
X166609775Y-79916037D01*
X166609774Y-79916036D01*
X166609773Y-79916034D01*
X166591933Y-79896221D01*
X166563767Y-79843249D01*
X166563767Y-79783251D01*
X166591933Y-79730278D01*
X166609773Y-79710466D01*
X166704419Y-79546534D01*
X166762914Y-79366506D01*
X166782700Y-79178250D01*
X166762914Y-78989994D01*
X166704419Y-78809966D01*
X166704419Y-78809965D01*
X166609775Y-78646037D01*
X166609774Y-78646036D01*
X166609773Y-78646034D01*
X166591933Y-78626221D01*
X166563767Y-78573249D01*
X166563767Y-78513251D01*
X166591933Y-78460278D01*
X166609773Y-78440466D01*
X166704419Y-78276534D01*
X166762914Y-78096506D01*
X166782700Y-77908250D01*
X166762914Y-77719994D01*
X166704419Y-77539966D01*
X166704419Y-77539965D01*
X166609773Y-77376033D01*
X166483110Y-77235360D01*
X166329970Y-77124098D01*
X166157042Y-77047105D01*
X165971888Y-77007750D01*
X165971886Y-77007750D01*
X165782594Y-77007750D01*
X165782592Y-77007750D01*
X165597437Y-77047105D01*
X165424509Y-77124098D01*
X165271369Y-77235360D01*
X165144706Y-77376033D01*
X165050060Y-77539965D01*
X164991566Y-77719992D01*
X164971780Y-77908249D01*
X164991566Y-78096507D01*
X165050060Y-78276534D01*
X165144706Y-78440465D01*
X165162544Y-78460276D01*
X165190711Y-78513249D01*
X165190712Y-78573245D01*
X165162547Y-78626219D01*
X165144706Y-78646033D01*
X165050060Y-78809965D01*
X164991566Y-78989992D01*
X164971780Y-79178250D01*
X164991566Y-79366507D01*
X165050060Y-79546534D01*
X165144706Y-79710466D01*
X165162545Y-79730278D01*
X165190712Y-79783252D01*
X165190712Y-79843248D01*
X165162545Y-79896222D01*
X165144706Y-79916033D01*
X165050060Y-80079965D01*
X164991566Y-80259992D01*
X164971780Y-80448250D01*
X164991566Y-80636507D01*
X165050060Y-80816534D01*
X165144706Y-80980466D01*
X165162545Y-81000278D01*
X165190712Y-81053252D01*
X165190712Y-81113248D01*
X165162545Y-81166222D01*
X165144706Y-81186033D01*
X165050060Y-81349965D01*
X164991566Y-81529992D01*
X164971780Y-81718249D01*
X164991566Y-81906507D01*
X165050060Y-82086534D01*
X165144706Y-82250466D01*
X165162545Y-82270278D01*
X165190712Y-82323252D01*
X165190712Y-82383248D01*
X165162545Y-82436222D01*
X165144706Y-82456033D01*
X165050060Y-82619965D01*
X164991566Y-82799992D01*
X164991565Y-82799994D01*
X164991566Y-82799994D01*
X164971780Y-82988250D01*
X164979414Y-83060882D01*
X164991566Y-83176507D01*
X165050060Y-83356534D01*
X165144706Y-83520466D01*
X165162545Y-83540278D01*
X165190712Y-83593252D01*
X165190712Y-83653248D01*
X165162545Y-83706222D01*
X165144706Y-83726033D01*
X165050060Y-83889965D01*
X164991566Y-84069992D01*
X164971780Y-84258250D01*
X164991566Y-84446507D01*
X165050060Y-84626534D01*
X165144706Y-84790466D01*
X165162545Y-84810278D01*
X165190712Y-84863252D01*
X165190712Y-84923248D01*
X165162545Y-84976222D01*
X165144706Y-84996033D01*
X165050060Y-85159965D01*
X164991566Y-85339992D01*
X164971780Y-85528250D01*
X158123934Y-85528250D01*
X158116787Y-78066406D01*
X158135012Y-78001579D01*
X158184438Y-77955835D01*
X158250485Y-77942673D01*
X158313671Y-77965975D01*
X158439509Y-78057401D01*
X158612437Y-78134394D01*
X158797592Y-78173750D01*
X158797594Y-78173750D01*
X158986886Y-78173750D01*
X158986888Y-78173750D01*
X159110323Y-78147512D01*
X159172043Y-78134394D01*
X159344970Y-78057401D01*
X159470808Y-77965975D01*
X159498110Y-77946139D01*
X159532227Y-77908249D01*
X159624773Y-77805466D01*
X159719419Y-77641534D01*
X159777914Y-77461506D01*
X159797700Y-77273250D01*
X159777914Y-77084994D01*
X159719419Y-76904966D01*
X159719419Y-76904965D01*
X159624773Y-76741033D01*
X159498110Y-76600360D01*
X159344974Y-76489100D01*
X159271908Y-76456569D01*
X159228581Y-76437278D01*
X159177196Y-76394768D01*
X159155264Y-76331786D01*
X159169130Y-76266551D01*
X159214784Y-76217935D01*
X159279019Y-76200000D01*
X160162240Y-76200000D01*
X160162240Y-75115342D01*
X173478596Y-75115342D01*
X173498382Y-75303599D01*
X173556876Y-75483626D01*
X173651522Y-75647558D01*
X173778185Y-75788231D01*
X173931325Y-75899493D01*
X174104253Y-75976486D01*
X174289408Y-76015842D01*
X174289410Y-76015842D01*
X174478702Y-76015842D01*
X174478704Y-76015842D01*
X174602140Y-75989604D01*
X174663859Y-75976486D01*
X174836786Y-75899493D01*
X174989927Y-75788230D01*
X175116589Y-75647558D01*
X175211235Y-75483626D01*
X175269730Y-75303598D01*
X175289516Y-75115342D01*
X175289401Y-75114250D01*
X177036780Y-75114250D01*
X177056566Y-75302507D01*
X177115060Y-75482534D01*
X177209706Y-75646466D01*
X177336369Y-75787139D01*
X177489509Y-75898401D01*
X177662437Y-75975394D01*
X177847592Y-76014750D01*
X177847594Y-76014750D01*
X178036886Y-76014750D01*
X178036888Y-76014750D01*
X178160323Y-75988512D01*
X178222043Y-75975394D01*
X178394970Y-75898401D01*
X178548111Y-75787138D01*
X178674773Y-75646466D01*
X178769419Y-75482534D01*
X178827914Y-75302506D01*
X178847700Y-75114250D01*
X178827914Y-74925994D01*
X178769774Y-74747058D01*
X178769419Y-74745965D01*
X178674773Y-74582033D01*
X178548110Y-74441360D01*
X178394970Y-74330098D01*
X178222042Y-74253105D01*
X178036888Y-74213750D01*
X178036886Y-74213750D01*
X177847594Y-74213750D01*
X177847592Y-74213750D01*
X177662437Y-74253105D01*
X177489509Y-74330098D01*
X177336369Y-74441360D01*
X177209706Y-74582033D01*
X177115060Y-74745965D01*
X177056566Y-74925992D01*
X177036780Y-75114250D01*
X175289401Y-75114250D01*
X175269730Y-74927086D01*
X175211235Y-74747058D01*
X175211235Y-74747057D01*
X175116589Y-74583125D01*
X174989926Y-74442452D01*
X174836786Y-74331190D01*
X174663858Y-74254197D01*
X174478704Y-74214842D01*
X174478702Y-74214842D01*
X174289410Y-74214842D01*
X174289408Y-74214842D01*
X174104253Y-74254197D01*
X173931325Y-74331190D01*
X173778185Y-74442452D01*
X173651522Y-74583125D01*
X173556876Y-74747057D01*
X173498382Y-74927084D01*
X173478596Y-75115342D01*
X160162240Y-75115342D01*
X160162240Y-64062250D01*
X160178853Y-64000250D01*
X160224240Y-63954863D01*
X160286240Y-63938250D01*
X161685130Y-63938250D01*
X161743345Y-63952765D01*
X161787931Y-63992910D01*
X161808450Y-64049286D01*
X161809813Y-64062250D01*
X161816566Y-64126507D01*
X161875060Y-64306534D01*
X161969706Y-64470466D01*
X161987545Y-64490278D01*
X162015712Y-64543252D01*
X162015712Y-64603248D01*
X161987545Y-64656222D01*
X161969706Y-64676033D01*
X161875060Y-64839965D01*
X161816566Y-65019992D01*
X161796780Y-65208249D01*
X161816566Y-65396507D01*
X161875060Y-65576534D01*
X161969706Y-65740466D01*
X161987545Y-65760278D01*
X162015712Y-65813252D01*
X162015712Y-65873248D01*
X161987545Y-65926222D01*
X161969706Y-65946033D01*
X161875060Y-66109965D01*
X161816566Y-66289992D01*
X161796780Y-66478250D01*
X161816566Y-66666507D01*
X161875060Y-66846534D01*
X161969706Y-67010466D01*
X161987545Y-67030278D01*
X162015712Y-67083252D01*
X162015712Y-67143248D01*
X161987545Y-67196222D01*
X161969706Y-67216033D01*
X161875060Y-67379965D01*
X161816566Y-67559992D01*
X161796780Y-67748250D01*
X161816566Y-67936507D01*
X161875060Y-68116534D01*
X161969706Y-68280465D01*
X161987544Y-68300276D01*
X162015711Y-68353249D01*
X162015712Y-68413245D01*
X161987547Y-68466219D01*
X161969706Y-68486033D01*
X161875060Y-68649965D01*
X161816566Y-68829992D01*
X161796780Y-69018249D01*
X161816566Y-69206507D01*
X161875060Y-69386534D01*
X161969706Y-69550466D01*
X161987545Y-69570278D01*
X162015712Y-69623252D01*
X162015712Y-69683248D01*
X161987545Y-69736222D01*
X161969706Y-69756033D01*
X161875060Y-69919965D01*
X161816566Y-70099992D01*
X161796780Y-70288249D01*
X161816566Y-70476507D01*
X161875060Y-70656534D01*
X161969706Y-70820466D01*
X162096369Y-70961139D01*
X162249509Y-71072401D01*
X162422437Y-71149394D01*
X162607592Y-71188750D01*
X162607594Y-71188750D01*
X162796885Y-71188750D01*
X162796886Y-71188750D01*
X162808439Y-71186294D01*
X162872537Y-71189651D01*
X162926371Y-71224608D01*
X162955513Y-71281799D01*
X162952155Y-71345899D01*
X162944326Y-71369993D01*
X162924540Y-71558250D01*
X162944326Y-71746507D01*
X163002820Y-71926534D01*
X163097466Y-72090466D01*
X163115305Y-72110278D01*
X163143472Y-72163252D01*
X163143472Y-72223248D01*
X163115305Y-72276222D01*
X163097466Y-72296033D01*
X163002820Y-72459965D01*
X162944326Y-72639992D01*
X162924540Y-72828249D01*
X162944326Y-73016507D01*
X163002820Y-73196534D01*
X163097466Y-73360466D01*
X163224129Y-73501139D01*
X163377269Y-73612401D01*
X163550197Y-73689394D01*
X163735352Y-73728750D01*
X163735354Y-73728750D01*
X163924646Y-73728750D01*
X163924648Y-73728750D01*
X164048084Y-73702512D01*
X164109803Y-73689394D01*
X164282730Y-73612401D01*
X164353676Y-73560856D01*
X164435870Y-73501139D01*
X164562533Y-73360466D01*
X164657179Y-73196534D01*
X164657179Y-73196533D01*
X164715674Y-73016506D01*
X164735460Y-72828250D01*
X164715674Y-72639994D01*
X164657179Y-72459966D01*
X164657179Y-72459965D01*
X164562535Y-72296037D01*
X164562534Y-72296036D01*
X164562533Y-72296034D01*
X164544693Y-72276221D01*
X164516527Y-72223249D01*
X164516527Y-72163251D01*
X164544693Y-72110278D01*
X164562533Y-72090466D01*
X164657179Y-71926534D01*
X164715674Y-71746506D01*
X164735460Y-71558250D01*
X164715674Y-71369994D01*
X164685332Y-71276613D01*
X164657179Y-71189965D01*
X164562533Y-71026033D01*
X164435870Y-70885360D01*
X164282730Y-70774098D01*
X164109802Y-70697105D01*
X163924648Y-70657750D01*
X163924646Y-70657750D01*
X163735354Y-70657750D01*
X163735353Y-70657750D01*
X163723791Y-70660207D01*
X163659693Y-70656844D01*
X163605863Y-70621884D01*
X163576725Y-70564692D01*
X163580085Y-70500598D01*
X163587914Y-70476506D01*
X163607700Y-70288250D01*
X163587914Y-70099994D01*
X163529419Y-69919966D01*
X163529419Y-69919965D01*
X163434775Y-69756037D01*
X163434774Y-69756036D01*
X163434773Y-69756034D01*
X163416933Y-69736221D01*
X163388767Y-69683249D01*
X163388767Y-69623251D01*
X163416933Y-69570278D01*
X163434773Y-69550466D01*
X163529419Y-69386534D01*
X163587914Y-69206506D01*
X163607700Y-69018250D01*
X163587914Y-68829994D01*
X163529419Y-68649966D01*
X163529419Y-68649965D01*
X163434773Y-68486033D01*
X163416934Y-68466221D01*
X163388767Y-68413247D01*
X163388768Y-68353250D01*
X163416934Y-68300277D01*
X163434773Y-68280466D01*
X163529419Y-68116534D01*
X163587914Y-67936506D01*
X163607700Y-67748250D01*
X163587914Y-67559994D01*
X163529419Y-67379966D01*
X163529419Y-67379965D01*
X163434773Y-67216033D01*
X163416934Y-67196221D01*
X163388767Y-67143246D01*
X163388768Y-67083248D01*
X163416936Y-67030275D01*
X163434773Y-67010466D01*
X163529419Y-66846534D01*
X163587914Y-66666506D01*
X163607700Y-66478250D01*
X163587914Y-66289994D01*
X163529419Y-66109966D01*
X163529419Y-66109965D01*
X163434773Y-65946033D01*
X163416934Y-65926221D01*
X163388767Y-65873247D01*
X163388768Y-65813250D01*
X163416934Y-65760277D01*
X163434773Y-65740466D01*
X163529419Y-65576534D01*
X163587914Y-65396506D01*
X163607700Y-65208250D01*
X163587914Y-65019994D01*
X163529419Y-64839966D01*
X163529419Y-64839965D01*
X163434775Y-64676037D01*
X163434774Y-64676036D01*
X163434773Y-64676034D01*
X163416933Y-64656221D01*
X163388767Y-64603249D01*
X163388767Y-64543251D01*
X163416933Y-64490278D01*
X163434773Y-64470466D01*
X163529419Y-64306534D01*
X163587914Y-64126506D01*
X163607700Y-63938250D01*
X163587914Y-63749994D01*
X163529419Y-63569966D01*
X163529419Y-63569965D01*
X163434773Y-63406033D01*
X163369091Y-63333087D01*
X163345476Y-63294552D01*
X163337240Y-63250114D01*
X163337240Y-51362250D01*
X163353853Y-51300250D01*
X163399240Y-51254863D01*
X163461240Y-51238250D01*
X173208424Y-51238250D01*
X173260940Y-51249920D01*
G37*
%TD.AperFunction*%
%TD*%
%TA.AperFunction,Conductor*%
%TO.N,B*%
G36*
X150554759Y-40094508D02*
G01*
X150559131Y-40094665D01*
X151659825Y-40153663D01*
X151664144Y-40153972D01*
X152761999Y-40252217D01*
X152766377Y-40252687D01*
X153860043Y-40390056D01*
X153864325Y-40390671D01*
X154952392Y-40566989D01*
X154956722Y-40567770D01*
X156037776Y-40782805D01*
X156042043Y-40783733D01*
X157114734Y-41037216D01*
X157118970Y-41038297D01*
X157677846Y-41191617D01*
X157736955Y-41227968D01*
X157767280Y-41290384D01*
X157759321Y-41359319D01*
X157743545Y-41396784D01*
X157613986Y-41808629D01*
X157523559Y-42230808D01*
X157473064Y-42659587D01*
X157462944Y-43091221D01*
X157493283Y-43521888D01*
X157563824Y-43947844D01*
X157673934Y-44365303D01*
X157822658Y-44770628D01*
X158008683Y-45160247D01*
X158230374Y-45530732D01*
X158485782Y-45878826D01*
X158772663Y-46201474D01*
X159088503Y-46495846D01*
X159338545Y-46688487D01*
X159430514Y-46759343D01*
X159795699Y-46989658D01*
X160180846Y-47184764D01*
X160582571Y-47342947D01*
X160997343Y-47462817D01*
X161421518Y-47543321D01*
X161751772Y-47574382D01*
X161851365Y-47583750D01*
X161851367Y-47583750D01*
X162175111Y-47583750D01*
X162175117Y-47583750D01*
X162498512Y-47568575D01*
X162925993Y-47508042D01*
X163345928Y-47407745D01*
X163754626Y-47268566D01*
X164148495Y-47091727D01*
X164328518Y-46989658D01*
X164524075Y-46878782D01*
X164701068Y-46755192D01*
X164878062Y-46631603D01*
X165207348Y-46352363D01*
X165509039Y-46043515D01*
X165780484Y-45707773D01*
X166019296Y-45348087D01*
X166144150Y-45115321D01*
X166191525Y-45066491D01*
X166257538Y-45050006D01*
X166322310Y-45070835D01*
X166456122Y-45160246D01*
X167128368Y-45609426D01*
X167131997Y-45611945D01*
X167502098Y-45878826D01*
X168026028Y-46256633D01*
X168029571Y-46259286D01*
X168899997Y-46935454D01*
X168903415Y-46938209D01*
X168964979Y-46989659D01*
X169749136Y-47644999D01*
X169752481Y-47647897D01*
X170572490Y-48384471D01*
X170575717Y-48387476D01*
X171368891Y-49152826D01*
X171371971Y-49155906D01*
X172037676Y-49845812D01*
X172137322Y-49949081D01*
X172140339Y-49952321D01*
X172539223Y-50396388D01*
X172566438Y-50446018D01*
X172568761Y-50502572D01*
X172545708Y-50554267D01*
X172502082Y-50590331D01*
X172446974Y-50603250D01*
X162702240Y-50603250D01*
X162702240Y-62917219D01*
X162689690Y-62971577D01*
X162654582Y-63014932D01*
X162604021Y-63038509D01*
X162422437Y-63077105D01*
X162249509Y-63154098D01*
X162085825Y-63273022D01*
X162085309Y-63272311D01*
X162057482Y-63292530D01*
X162007046Y-63303250D01*
X159527240Y-63303250D01*
X159527240Y-75570500D01*
X159510627Y-75632500D01*
X159465240Y-75677887D01*
X159403240Y-75694500D01*
X159279019Y-75694500D01*
X159143078Y-75713122D01*
X159143074Y-75713122D01*
X159143074Y-75713123D01*
X159078845Y-75731055D01*
X158941486Y-75790497D01*
X158892240Y-75800695D01*
X158842994Y-75790497D01*
X158705634Y-75731055D01*
X158649277Y-75715320D01*
X158641402Y-75713122D01*
X158505461Y-75694500D01*
X158239119Y-75694500D01*
X158206390Y-75698811D01*
X158108202Y-75711746D01*
X158046175Y-75728377D01*
X157924195Y-75778937D01*
X157819475Y-75859357D01*
X157774086Y-75904788D01*
X157693759Y-76009589D01*
X157643313Y-76131622D01*
X157626738Y-76193672D01*
X157609617Y-76324600D01*
X157609768Y-76481915D01*
X157628862Y-76619049D01*
X157647181Y-76683797D01*
X157702765Y-76810602D01*
X157702766Y-76810603D01*
X157702767Y-76810605D01*
X157790673Y-76917576D01*
X157840112Y-76963223D01*
X157947011Y-77037642D01*
X157988928Y-77087833D01*
X157999484Y-77152369D01*
X157986780Y-77273249D01*
X157999687Y-77396056D01*
X157989159Y-77460531D01*
X157947323Y-77510708D01*
X157841080Y-77584841D01*
X157791652Y-77630586D01*
X157703815Y-77737761D01*
X157648375Y-77864774D01*
X157630153Y-77929591D01*
X157630152Y-77929595D01*
X157630152Y-77929597D01*
X157621685Y-77991221D01*
X157611287Y-78066892D01*
X157618434Y-85528249D01*
X157618434Y-85528734D01*
X157619720Y-86871604D01*
X157637048Y-87002341D01*
X157653698Y-87064284D01*
X157704257Y-87186097D01*
X157784461Y-87290501D01*
X157784603Y-87290685D01*
X157829985Y-87336023D01*
X157882315Y-87376144D01*
X157934644Y-87416264D01*
X157934645Y-87416264D01*
X157934646Y-87416265D01*
X158056500Y-87466704D01*
X158118466Y-87483297D01*
X158249220Y-87500500D01*
X159393263Y-87500500D01*
X159455105Y-87517022D01*
X159500468Y-87562185D01*
X159517262Y-87623954D01*
X159527239Y-89890456D01*
X159527240Y-89891002D01*
X159527240Y-90857219D01*
X159514690Y-90911577D01*
X159479582Y-90954932D01*
X159429021Y-90978509D01*
X159247437Y-91017105D01*
X159074509Y-91094098D01*
X158965125Y-91173571D01*
X158918021Y-91194543D01*
X158866459Y-91194543D01*
X158819355Y-91173571D01*
X158709970Y-91094098D01*
X158537042Y-91017105D01*
X158351888Y-90977750D01*
X158351886Y-90977750D01*
X158162594Y-90977750D01*
X158162592Y-90977750D01*
X157977437Y-91017105D01*
X157804509Y-91094098D01*
X157651369Y-91205360D01*
X157524706Y-91346033D01*
X157430060Y-91509965D01*
X157371566Y-91689992D01*
X157351780Y-91878250D01*
X157371566Y-92066507D01*
X157430060Y-92246534D01*
X157524706Y-92410466D01*
X157651369Y-92551139D01*
X157804509Y-92662401D01*
X157961167Y-92732150D01*
X157977437Y-92739394D01*
X158162594Y-92778750D01*
X158162596Y-92778750D01*
X158168039Y-92779907D01*
X158219281Y-92804018D01*
X158254457Y-92848400D01*
X158266232Y-92903793D01*
X158252149Y-92958645D01*
X158215145Y-93001515D01*
X158144128Y-93053112D01*
X158017466Y-93193783D01*
X157922820Y-93357715D01*
X157864326Y-93537742D01*
X157844540Y-93726000D01*
X157864326Y-93914257D01*
X157922820Y-94094284D01*
X158017466Y-94258216D01*
X158144129Y-94398889D01*
X158297269Y-94510151D01*
X158470197Y-94587144D01*
X158655352Y-94626500D01*
X158655354Y-94626500D01*
X158844646Y-94626500D01*
X158844648Y-94626500D01*
X158968084Y-94600262D01*
X159029803Y-94587144D01*
X159202730Y-94510151D01*
X159281454Y-94452955D01*
X159330355Y-94417427D01*
X159393511Y-94394127D01*
X159459535Y-94407260D01*
X159508967Y-94452955D01*
X159527240Y-94517745D01*
X159527240Y-116501808D01*
X159522085Y-116537189D01*
X159507049Y-116569629D01*
X159473067Y-116621642D01*
X159373177Y-116849367D01*
X159312131Y-117090433D01*
X159291596Y-117338249D01*
X159312131Y-117586066D01*
X159312131Y-117586069D01*
X159312132Y-117586071D01*
X159330568Y-117658871D01*
X159373177Y-117827132D01*
X159473067Y-118054857D01*
X159507049Y-118106871D01*
X159522085Y-118139311D01*
X159527240Y-118174692D01*
X159527240Y-119186250D01*
X159510627Y-119248250D01*
X159465240Y-119293637D01*
X159403240Y-119310250D01*
X158562124Y-119310250D01*
X158501889Y-119294637D01*
X158456823Y-119251730D01*
X158438273Y-119192334D01*
X158436307Y-119152320D01*
X158433278Y-119090659D01*
X158375604Y-118701850D01*
X158280097Y-118320566D01*
X158266802Y-118283410D01*
X158147681Y-117950486D01*
X158147680Y-117950484D01*
X158147678Y-117950478D01*
X157979621Y-117595153D01*
X157979620Y-117595151D01*
X157979618Y-117595147D01*
X157777549Y-117258015D01*
X157646683Y-117081563D01*
X157543398Y-116942299D01*
X157543396Y-116942297D01*
X157543394Y-116942294D01*
X157279432Y-116651057D01*
X156988195Y-116387095D01*
X156672474Y-116152940D01*
X156335342Y-115950871D01*
X156096168Y-115837750D01*
X155980012Y-115782812D01*
X155980009Y-115782811D01*
X155980003Y-115782808D01*
X155609929Y-115650394D01*
X155228641Y-115554886D01*
X154839833Y-115497212D01*
X154447240Y-115477924D01*
X154054646Y-115497212D01*
X153665838Y-115554886D01*
X153284550Y-115650394D01*
X152914476Y-115782808D01*
X152559137Y-115950871D01*
X152222005Y-116152940D01*
X151906284Y-116387095D01*
X151615047Y-116651057D01*
X151351085Y-116942294D01*
X151116930Y-117258015D01*
X150914861Y-117595147D01*
X150746798Y-117950486D01*
X150614384Y-118320560D01*
X150518876Y-118701848D01*
X150461202Y-119090657D01*
X150456207Y-119192334D01*
X150437657Y-119251730D01*
X150392591Y-119294637D01*
X150332356Y-119310250D01*
X147901150Y-119310250D01*
X147841034Y-119294703D01*
X147795992Y-119251960D01*
X147777320Y-119192740D01*
X147773342Y-119116843D01*
X147715946Y-118754461D01*
X147714988Y-118750886D01*
X147620982Y-118400051D01*
X147489495Y-118057514D01*
X147322922Y-117730598D01*
X147322919Y-117730593D01*
X147123093Y-117422886D01*
X147002504Y-117273972D01*
X146892189Y-117137744D01*
X146632746Y-116878301D01*
X146372409Y-116667484D01*
X146347603Y-116647396D01*
X146039896Y-116447570D01*
X145712975Y-116280994D01*
X145370440Y-116149508D01*
X145016028Y-116054543D01*
X144653646Y-115997147D01*
X144287240Y-115977946D01*
X143920833Y-115997147D01*
X143558451Y-116054543D01*
X143204039Y-116149508D01*
X142861504Y-116280994D01*
X142534583Y-116447570D01*
X142226876Y-116647396D01*
X141941730Y-116878304D01*
X141682294Y-117137740D01*
X141451386Y-117422886D01*
X141251560Y-117730593D01*
X141084984Y-118057514D01*
X140953498Y-118400049D01*
X140858533Y-118754461D01*
X140801137Y-119116843D01*
X140797160Y-119192740D01*
X140778488Y-119251960D01*
X140733446Y-119294703D01*
X140673330Y-119310250D01*
X139331240Y-119310250D01*
X139269240Y-119293637D01*
X139223853Y-119248250D01*
X139207240Y-119186250D01*
X139207240Y-118174692D01*
X139212395Y-118139311D01*
X139227431Y-118106871D01*
X139242925Y-118083155D01*
X139261413Y-118054857D01*
X139361303Y-117827131D01*
X139422348Y-117586071D01*
X139442883Y-117338250D01*
X139422348Y-117090429D01*
X139361303Y-116849369D01*
X139261413Y-116621643D01*
X139227431Y-116569629D01*
X139212395Y-116537189D01*
X139207240Y-116501808D01*
X139207240Y-109917193D01*
X139222267Y-109858025D01*
X139263705Y-109813198D01*
X139321511Y-109793575D01*
X139381676Y-109803914D01*
X139562437Y-109884394D01*
X139747592Y-109923750D01*
X139747594Y-109923750D01*
X139936886Y-109923750D01*
X139936888Y-109923750D01*
X140060323Y-109897512D01*
X140122043Y-109884394D01*
X140294970Y-109807401D01*
X140314000Y-109793575D01*
X140448110Y-109696139D01*
X140574773Y-109555466D01*
X140669419Y-109391534D01*
X140678448Y-109363745D01*
X140727914Y-109211506D01*
X140747700Y-109023250D01*
X142746780Y-109023250D01*
X142766566Y-109211507D01*
X142825060Y-109391534D01*
X142919706Y-109555466D01*
X143046369Y-109696139D01*
X143199509Y-109807401D01*
X143372437Y-109884394D01*
X143557592Y-109923750D01*
X143557594Y-109923750D01*
X143746886Y-109923750D01*
X143746888Y-109923750D01*
X143870323Y-109897512D01*
X143932043Y-109884394D01*
X144104970Y-109807401D01*
X144124000Y-109793575D01*
X144258110Y-109696139D01*
X144384773Y-109555466D01*
X144479419Y-109391534D01*
X144488448Y-109363745D01*
X144537914Y-109211506D01*
X144557700Y-109023250D01*
X144537914Y-108834994D01*
X144479419Y-108654966D01*
X144479419Y-108654965D01*
X144384773Y-108491033D01*
X144258110Y-108350360D01*
X144104970Y-108239098D01*
X143932042Y-108162105D01*
X143746888Y-108122750D01*
X143746886Y-108122750D01*
X143557594Y-108122750D01*
X143557592Y-108122750D01*
X143372437Y-108162105D01*
X143199509Y-108239098D01*
X143046369Y-108350360D01*
X142919706Y-108491033D01*
X142825060Y-108654965D01*
X142766566Y-108834992D01*
X142746780Y-109023250D01*
X140747700Y-109023250D01*
X140727914Y-108834994D01*
X140669419Y-108654966D01*
X140669419Y-108654965D01*
X140574773Y-108491033D01*
X140448110Y-108350360D01*
X140294970Y-108239098D01*
X140122042Y-108162105D01*
X139936888Y-108122750D01*
X139936886Y-108122750D01*
X139747594Y-108122750D01*
X139747592Y-108122750D01*
X139562437Y-108162105D01*
X139381676Y-108242586D01*
X139321511Y-108252925D01*
X139263705Y-108233302D01*
X139222267Y-108188475D01*
X139207240Y-108129307D01*
X139207240Y-106107193D01*
X139222267Y-106048025D01*
X139263705Y-106003198D01*
X139321511Y-105983575D01*
X139381676Y-105993914D01*
X139562437Y-106074394D01*
X139747592Y-106113750D01*
X139747594Y-106113750D01*
X139936886Y-106113750D01*
X139936888Y-106113750D01*
X140060323Y-106087512D01*
X140122043Y-106074394D01*
X140294970Y-105997401D01*
X140448111Y-105886138D01*
X140574773Y-105745466D01*
X140669419Y-105581534D01*
X140727914Y-105401506D01*
X140747700Y-105213250D01*
X142746780Y-105213250D01*
X142766566Y-105401507D01*
X142825060Y-105581534D01*
X142919706Y-105745466D01*
X143046369Y-105886139D01*
X143199509Y-105997401D01*
X143372437Y-106074394D01*
X143557592Y-106113750D01*
X143557594Y-106113750D01*
X143746886Y-106113750D01*
X143746888Y-106113750D01*
X143870323Y-106087512D01*
X143932043Y-106074394D01*
X144104970Y-105997401D01*
X144258111Y-105886138D01*
X144384773Y-105745466D01*
X144479419Y-105581534D01*
X144537914Y-105401506D01*
X144557700Y-105213250D01*
X146556780Y-105213250D01*
X146576566Y-105401507D01*
X146635060Y-105581534D01*
X146729706Y-105745466D01*
X146856369Y-105886139D01*
X147009509Y-105997401D01*
X147182437Y-106074394D01*
X147367592Y-106113750D01*
X147367594Y-106113750D01*
X147556886Y-106113750D01*
X147556888Y-106113750D01*
X147680323Y-106087512D01*
X147742043Y-106074394D01*
X147914970Y-105997401D01*
X148068111Y-105886138D01*
X148194773Y-105745466D01*
X148289419Y-105581534D01*
X148347914Y-105401506D01*
X148367700Y-105213250D01*
X148347914Y-105024994D01*
X148289419Y-104844966D01*
X148289419Y-104844965D01*
X148194775Y-104681037D01*
X148194774Y-104681036D01*
X148194773Y-104681034D01*
X148176933Y-104661221D01*
X148148767Y-104608249D01*
X148148767Y-104548251D01*
X148176933Y-104495278D01*
X148194773Y-104475466D01*
X148289419Y-104311534D01*
X148347914Y-104131506D01*
X148367700Y-103943250D01*
X148347914Y-103754994D01*
X148289419Y-103574966D01*
X148289419Y-103574965D01*
X148194773Y-103411033D01*
X148068110Y-103270360D01*
X147914970Y-103159098D01*
X147742042Y-103082105D01*
X147556888Y-103042750D01*
X147556886Y-103042750D01*
X147367594Y-103042750D01*
X147367592Y-103042750D01*
X147182437Y-103082105D01*
X147009509Y-103159098D01*
X146856369Y-103270360D01*
X146729706Y-103411033D01*
X146635060Y-103574965D01*
X146576566Y-103754992D01*
X146556780Y-103943249D01*
X146576566Y-104131507D01*
X146635060Y-104311534D01*
X146729706Y-104475466D01*
X146747545Y-104495278D01*
X146775712Y-104548252D01*
X146775712Y-104608248D01*
X146747545Y-104661222D01*
X146729706Y-104681033D01*
X146635060Y-104844965D01*
X146576566Y-105024992D01*
X146556780Y-105213250D01*
X144557700Y-105213250D01*
X144537914Y-105024994D01*
X144479419Y-104844966D01*
X144479419Y-104844965D01*
X144384775Y-104681037D01*
X144384774Y-104681036D01*
X144384773Y-104681034D01*
X144366933Y-104661221D01*
X144338767Y-104608249D01*
X144338767Y-104548251D01*
X144366933Y-104495278D01*
X144384773Y-104475466D01*
X144479419Y-104311534D01*
X144537914Y-104131506D01*
X144557700Y-103943250D01*
X144537914Y-103754994D01*
X144479419Y-103574966D01*
X144479419Y-103574965D01*
X144384773Y-103411033D01*
X144258110Y-103270360D01*
X144104970Y-103159098D01*
X143932042Y-103082105D01*
X143746888Y-103042750D01*
X143746886Y-103042750D01*
X143557594Y-103042750D01*
X143557592Y-103042750D01*
X143372437Y-103082105D01*
X143199509Y-103159098D01*
X143046369Y-103270360D01*
X142919706Y-103411033D01*
X142825060Y-103574965D01*
X142766566Y-103754992D01*
X142746780Y-103943250D01*
X142766566Y-104131507D01*
X142825060Y-104311534D01*
X142919706Y-104475466D01*
X142937545Y-104495278D01*
X142965712Y-104548252D01*
X142965712Y-104608248D01*
X142937545Y-104661222D01*
X142919706Y-104681033D01*
X142825060Y-104844965D01*
X142766566Y-105024992D01*
X142746780Y-105213250D01*
X140747700Y-105213250D01*
X140727914Y-105024994D01*
X140669419Y-104844966D01*
X140669419Y-104844965D01*
X140574775Y-104681037D01*
X140574774Y-104681036D01*
X140574773Y-104681034D01*
X140556933Y-104661221D01*
X140528767Y-104608249D01*
X140528767Y-104548251D01*
X140556933Y-104495278D01*
X140574773Y-104475466D01*
X140669419Y-104311534D01*
X140727914Y-104131506D01*
X140747700Y-103943250D01*
X140727914Y-103754994D01*
X140669419Y-103574966D01*
X140669419Y-103574965D01*
X140574773Y-103411033D01*
X140448110Y-103270360D01*
X140294970Y-103159098D01*
X140122042Y-103082105D01*
X139936888Y-103042750D01*
X139936886Y-103042750D01*
X139747594Y-103042750D01*
X139747592Y-103042750D01*
X139562437Y-103082105D01*
X139381676Y-103162586D01*
X139321511Y-103172925D01*
X139263705Y-103153302D01*
X139222267Y-103108475D01*
X139207240Y-103049307D01*
X139207240Y-100099693D01*
X139222267Y-100040525D01*
X139263705Y-99995698D01*
X139321511Y-99976075D01*
X139381676Y-99986414D01*
X139562437Y-100066894D01*
X139747592Y-100106250D01*
X139747594Y-100106250D01*
X139936886Y-100106250D01*
X139936888Y-100106250D01*
X140060323Y-100080012D01*
X140122043Y-100066894D01*
X140294970Y-99989901D01*
X140448111Y-99878638D01*
X140574773Y-99737966D01*
X140669419Y-99574034D01*
X140727914Y-99394006D01*
X140747700Y-99205750D01*
X140746407Y-99193450D01*
X142797580Y-99193450D01*
X142817366Y-99381707D01*
X142875860Y-99561734D01*
X142970506Y-99725666D01*
X143097169Y-99866339D01*
X143250309Y-99977601D01*
X143423237Y-100054594D01*
X143608392Y-100093950D01*
X143608394Y-100093950D01*
X143797686Y-100093950D01*
X143797688Y-100093950D01*
X143921124Y-100067712D01*
X143982843Y-100054594D01*
X144155770Y-99977601D01*
X144291980Y-99878639D01*
X144308910Y-99866339D01*
X144435573Y-99725666D01*
X144530219Y-99561734D01*
X144548097Y-99506710D01*
X144588714Y-99381706D01*
X144608500Y-99193450D01*
X144588714Y-99005194D01*
X144542593Y-98863250D01*
X144530219Y-98825165D01*
X144435573Y-98661233D01*
X144308910Y-98520560D01*
X144155770Y-98409298D01*
X143982842Y-98332305D01*
X143797688Y-98292950D01*
X143797686Y-98292950D01*
X143608394Y-98292950D01*
X143608392Y-98292950D01*
X143423237Y-98332305D01*
X143250309Y-98409298D01*
X143097169Y-98520560D01*
X142970506Y-98661233D01*
X142875860Y-98825165D01*
X142817366Y-99005192D01*
X142797580Y-99193450D01*
X140746407Y-99193450D01*
X140727914Y-99017494D01*
X140669419Y-98837466D01*
X140669419Y-98837465D01*
X140574773Y-98673533D01*
X140448110Y-98532860D01*
X140294970Y-98421598D01*
X140122042Y-98344605D01*
X139936888Y-98305250D01*
X139936886Y-98305250D01*
X139747594Y-98305250D01*
X139747592Y-98305250D01*
X139562437Y-98344605D01*
X139381676Y-98425086D01*
X139321511Y-98435425D01*
X139263705Y-98415802D01*
X139222267Y-98370975D01*
X139207240Y-98311807D01*
X139207240Y-97593249D01*
X146556780Y-97593249D01*
X146576566Y-97781507D01*
X146635060Y-97961534D01*
X146729706Y-98125466D01*
X146856369Y-98266139D01*
X147009509Y-98377401D01*
X147182437Y-98454394D01*
X147367592Y-98493750D01*
X147367594Y-98493750D01*
X147556886Y-98493750D01*
X147556888Y-98493750D01*
X147680323Y-98467512D01*
X147742043Y-98454394D01*
X147914970Y-98377401D01*
X148014278Y-98305250D01*
X148068110Y-98266139D01*
X148194773Y-98125466D01*
X148289419Y-97961534D01*
X148289418Y-97961534D01*
X148347914Y-97781506D01*
X148367700Y-97593250D01*
X148347914Y-97404994D01*
X148289419Y-97224966D01*
X148289419Y-97224965D01*
X148194773Y-97061033D01*
X148068110Y-96920360D01*
X147914970Y-96809098D01*
X147742042Y-96732105D01*
X147556888Y-96692750D01*
X147556886Y-96692750D01*
X147367594Y-96692750D01*
X147367592Y-96692750D01*
X147182437Y-96732105D01*
X147009509Y-96809098D01*
X146856369Y-96920360D01*
X146729706Y-97061033D01*
X146635060Y-97224965D01*
X146576566Y-97404992D01*
X146556780Y-97593249D01*
X139207240Y-97593249D01*
X139207240Y-93726000D01*
X142604540Y-93726000D01*
X142624326Y-93914257D01*
X142682820Y-94094284D01*
X142777466Y-94258216D01*
X142904129Y-94398889D01*
X143057269Y-94510151D01*
X143230197Y-94587144D01*
X143415352Y-94626500D01*
X143415354Y-94626500D01*
X143604646Y-94626500D01*
X143604648Y-94626500D01*
X143728084Y-94600262D01*
X143789803Y-94587144D01*
X143962730Y-94510151D01*
X144115871Y-94398888D01*
X144242533Y-94258216D01*
X144337179Y-94094284D01*
X144395674Y-93914256D01*
X144415460Y-93726000D01*
X146414540Y-93726000D01*
X146434326Y-93914257D01*
X146492820Y-94094284D01*
X146587466Y-94258216D01*
X146714129Y-94398889D01*
X146867269Y-94510151D01*
X147040197Y-94587144D01*
X147225352Y-94626500D01*
X147225354Y-94626500D01*
X147414646Y-94626500D01*
X147414648Y-94626500D01*
X147538084Y-94600262D01*
X147599803Y-94587144D01*
X147772730Y-94510151D01*
X147925871Y-94398888D01*
X148052533Y-94258216D01*
X148147179Y-94094284D01*
X148205674Y-93914256D01*
X148225460Y-93726000D01*
X148205674Y-93537744D01*
X148147179Y-93357716D01*
X148147179Y-93357715D01*
X148052533Y-93193783D01*
X147925870Y-93053110D01*
X147772730Y-92941848D01*
X147599802Y-92864855D01*
X147414648Y-92825500D01*
X147414646Y-92825500D01*
X147225354Y-92825500D01*
X147225352Y-92825500D01*
X147040197Y-92864855D01*
X146867269Y-92941848D01*
X146714129Y-93053110D01*
X146587466Y-93193783D01*
X146492820Y-93357715D01*
X146434326Y-93537742D01*
X146414540Y-93726000D01*
X144415460Y-93726000D01*
X144395674Y-93537744D01*
X144337179Y-93357716D01*
X144337179Y-93357715D01*
X144242533Y-93193783D01*
X144115870Y-93053110D01*
X143962730Y-92941848D01*
X143789802Y-92864855D01*
X143604648Y-92825500D01*
X143604646Y-92825500D01*
X143415354Y-92825500D01*
X143415352Y-92825500D01*
X143230197Y-92864855D01*
X143057269Y-92941848D01*
X142904129Y-93053110D01*
X142777466Y-93193783D01*
X142682820Y-93357715D01*
X142624326Y-93537742D01*
X142604540Y-93726000D01*
X139207240Y-93726000D01*
X139207240Y-91700995D01*
X139219319Y-91647612D01*
X139253204Y-91604629D01*
X139302291Y-91580421D01*
X139338321Y-91579949D01*
X139338321Y-91578500D01*
X139540648Y-91578500D01*
X139664084Y-91552262D01*
X139725803Y-91539144D01*
X139898730Y-91462151D01*
X140051871Y-91350888D01*
X140178533Y-91210216D01*
X140273179Y-91046284D01*
X140331674Y-90866256D01*
X140351460Y-90678000D01*
X140331674Y-90489744D01*
X140279658Y-90329656D01*
X140273179Y-90309715D01*
X140178533Y-90145783D01*
X140051870Y-90005110D01*
X139898730Y-89893848D01*
X139725802Y-89816855D01*
X139540648Y-89777500D01*
X139540646Y-89777500D01*
X139351354Y-89777500D01*
X139338321Y-89777500D01*
X139338321Y-89776051D01*
X139302291Y-89775579D01*
X139253204Y-89751371D01*
X139219319Y-89708388D01*
X139207240Y-89655005D01*
X139207240Y-88686250D01*
X147186704Y-88686250D01*
X147206804Y-88903175D01*
X147266421Y-89112707D01*
X147363527Y-89307721D01*
X147494813Y-89481573D01*
X147642733Y-89616419D01*
X147655808Y-89628338D01*
X147671064Y-89637784D01*
X147841031Y-89743023D01*
X147992535Y-89801716D01*
X148044171Y-89821720D01*
X148258314Y-89861750D01*
X148476164Y-89861750D01*
X148476166Y-89861750D01*
X148690309Y-89821720D01*
X148871899Y-89751371D01*
X148893448Y-89743023D01*
X149078669Y-89628340D01*
X149078669Y-89628339D01*
X149078672Y-89628338D01*
X149139095Y-89573254D01*
X149201350Y-89542733D01*
X149270261Y-89550405D01*
X149324279Y-89593873D01*
X149346517Y-89659547D01*
X149330019Y-89726892D01*
X149286821Y-89801713D01*
X149228326Y-89981742D01*
X149208540Y-90170000D01*
X149219930Y-90278381D01*
X149214541Y-90329656D01*
X149188764Y-90374308D01*
X149162980Y-90393043D01*
X149163813Y-90394189D01*
X149000129Y-90513111D01*
X148873466Y-90653783D01*
X148778821Y-90817714D01*
X148722929Y-90989731D01*
X148687971Y-91043561D01*
X148630782Y-91072702D01*
X148564196Y-91086856D01*
X148391267Y-91163849D01*
X148238129Y-91275110D01*
X148111466Y-91415783D01*
X148016820Y-91579715D01*
X147958326Y-91759742D01*
X147938540Y-91947999D01*
X147958326Y-92136257D01*
X148016820Y-92316284D01*
X148111466Y-92480216D01*
X148238129Y-92620889D01*
X148391269Y-92732151D01*
X148564197Y-92809144D01*
X148749352Y-92848500D01*
X148749354Y-92848500D01*
X148938646Y-92848500D01*
X148938648Y-92848500D01*
X149062083Y-92822262D01*
X149123803Y-92809144D01*
X149296730Y-92732151D01*
X149296730Y-92732150D01*
X149406115Y-92652679D01*
X149453219Y-92631707D01*
X149504781Y-92631707D01*
X149551885Y-92652679D01*
X149661269Y-92732151D01*
X149834197Y-92809144D01*
X150019352Y-92848500D01*
X150019354Y-92848500D01*
X150208646Y-92848500D01*
X150208648Y-92848500D01*
X150332083Y-92822262D01*
X150393803Y-92809144D01*
X150459470Y-92779907D01*
X150519853Y-92753023D01*
X150578938Y-92742604D01*
X150635999Y-92761144D01*
X150677676Y-92804302D01*
X150694213Y-92861974D01*
X150681740Y-92920660D01*
X150643174Y-92966620D01*
X150524129Y-93053110D01*
X150397466Y-93193783D01*
X150302820Y-93357715D01*
X150244326Y-93537742D01*
X150224540Y-93726000D01*
X150244326Y-93914257D01*
X150302820Y-94094284D01*
X150397466Y-94258216D01*
X150524129Y-94398889D01*
X150677269Y-94510151D01*
X150850197Y-94587144D01*
X151035352Y-94626500D01*
X151035354Y-94626500D01*
X151224646Y-94626500D01*
X151224648Y-94626500D01*
X151348084Y-94600262D01*
X151409803Y-94587144D01*
X151582730Y-94510151D01*
X151735871Y-94398888D01*
X151862533Y-94258216D01*
X151957179Y-94094284D01*
X152015674Y-93914256D01*
X152035460Y-93726000D01*
X154034540Y-93726000D01*
X154054326Y-93914257D01*
X154112820Y-94094284D01*
X154207466Y-94258216D01*
X154334129Y-94398889D01*
X154487269Y-94510151D01*
X154660197Y-94587144D01*
X154845352Y-94626500D01*
X154845354Y-94626500D01*
X155034646Y-94626500D01*
X155034648Y-94626500D01*
X155158084Y-94600262D01*
X155219803Y-94587144D01*
X155392730Y-94510151D01*
X155545871Y-94398888D01*
X155672533Y-94258216D01*
X155767179Y-94094284D01*
X155825674Y-93914256D01*
X155845460Y-93726000D01*
X155825674Y-93537744D01*
X155767179Y-93357716D01*
X155767179Y-93357715D01*
X155672533Y-93193783D01*
X155545870Y-93053110D01*
X155392730Y-92941848D01*
X155219802Y-92864855D01*
X155034648Y-92825500D01*
X155034646Y-92825500D01*
X154845354Y-92825500D01*
X154845352Y-92825500D01*
X154660197Y-92864855D01*
X154487269Y-92941848D01*
X154334129Y-93053110D01*
X154207466Y-93193783D01*
X154112820Y-93357715D01*
X154054326Y-93537742D01*
X154034540Y-93726000D01*
X152035460Y-93726000D01*
X152015674Y-93537744D01*
X151957179Y-93357716D01*
X151957179Y-93357715D01*
X151862533Y-93193783D01*
X151735871Y-93053112D01*
X151674039Y-93008188D01*
X151633645Y-92958305D01*
X151623604Y-92894908D01*
X151646607Y-92834984D01*
X151696488Y-92794591D01*
X151836730Y-92732151D01*
X151836730Y-92732150D01*
X151836732Y-92732150D01*
X151989870Y-92620889D01*
X152116533Y-92480216D01*
X152211179Y-92316284D01*
X152267071Y-92144268D01*
X152302030Y-92090435D01*
X152359220Y-92061296D01*
X152425803Y-92047144D01*
X152425804Y-92047143D01*
X152425806Y-92047143D01*
X152598730Y-91970151D01*
X152751870Y-91858889D01*
X152878533Y-91718216D01*
X152973179Y-91554284D01*
X152987579Y-91509965D01*
X153031674Y-91374256D01*
X153051460Y-91186000D01*
X153031674Y-90997744D01*
X152988951Y-90866256D01*
X152973179Y-90817715D01*
X152878533Y-90653783D01*
X152751870Y-90513110D01*
X152598730Y-90401848D01*
X152425803Y-90324855D01*
X152385728Y-90316337D01*
X152331803Y-90290036D01*
X152296539Y-90241497D01*
X152288190Y-90182083D01*
X152289460Y-90170000D01*
X152285478Y-90132112D01*
X152269674Y-89981744D01*
X152217678Y-89821718D01*
X152211179Y-89801715D01*
X152116533Y-89637783D01*
X151989870Y-89497110D01*
X151836730Y-89385848D01*
X151663802Y-89308855D01*
X151555036Y-89285736D01*
X151504273Y-89262001D01*
X151469143Y-89218343D01*
X151456819Y-89163678D01*
X151466248Y-89124140D01*
X151464913Y-89123761D01*
X151527675Y-88903175D01*
X151530817Y-88869258D01*
X151547776Y-88686250D01*
X151527675Y-88469327D01*
X151527675Y-88469324D01*
X151468058Y-88259792D01*
X151370952Y-88064778D01*
X151239666Y-87890926D01*
X151115667Y-87777887D01*
X151079939Y-87720184D01*
X151079939Y-87652316D01*
X151115667Y-87594613D01*
X151239666Y-87481573D01*
X151239667Y-87481572D01*
X151370952Y-87307722D01*
X151468057Y-87112709D01*
X151481834Y-87064288D01*
X151527675Y-86903175D01*
X151530600Y-86871603D01*
X151547776Y-86686250D01*
X151527675Y-86469327D01*
X151527675Y-86469324D01*
X151468058Y-86259792D01*
X151370952Y-86064778D01*
X151239666Y-85890926D01*
X151115667Y-85777886D01*
X151079938Y-85720183D01*
X151079939Y-85652314D01*
X151115664Y-85594614D01*
X151239667Y-85481572D01*
X151370952Y-85307722D01*
X151468057Y-85112709D01*
X151476935Y-85081506D01*
X151527675Y-84903175D01*
X151530589Y-84871717D01*
X151547776Y-84686250D01*
X151527675Y-84469327D01*
X151527675Y-84469324D01*
X151468058Y-84259792D01*
X151370952Y-84064778D01*
X151239666Y-83890926D01*
X151115667Y-83777887D01*
X151079939Y-83720184D01*
X151079939Y-83652316D01*
X151115667Y-83594613D01*
X151239666Y-83481573D01*
X151274842Y-83434992D01*
X151370952Y-83307722D01*
X151468057Y-83112709D01*
X151468058Y-83112707D01*
X151527675Y-82903175D01*
X151544506Y-82721534D01*
X151547776Y-82686250D01*
X151527675Y-82469327D01*
X151527675Y-82469324D01*
X151468058Y-82259792D01*
X151370952Y-82064778D01*
X151239666Y-81890926D01*
X151115667Y-81777887D01*
X151079939Y-81720184D01*
X151079939Y-81652316D01*
X151115667Y-81594613D01*
X151239666Y-81481573D01*
X151252748Y-81464250D01*
X151370952Y-81307722D01*
X151468057Y-81112709D01*
X151476439Y-81083250D01*
X151527675Y-80903175D01*
X151537777Y-80794151D01*
X151547776Y-80686250D01*
X151527675Y-80469327D01*
X151527675Y-80469324D01*
X151468058Y-80259792D01*
X151370952Y-80064778D01*
X151329585Y-80009999D01*
X154034540Y-80009999D01*
X154054326Y-80198257D01*
X154112820Y-80378284D01*
X154207466Y-80542216D01*
X154334129Y-80682889D01*
X154487269Y-80794151D01*
X154660197Y-80871144D01*
X154845352Y-80910500D01*
X154845354Y-80910500D01*
X155034646Y-80910500D01*
X155034648Y-80910500D01*
X155158083Y-80884262D01*
X155219803Y-80871144D01*
X155392730Y-80794151D01*
X155396569Y-80791362D01*
X155545870Y-80682889D01*
X155672533Y-80542216D01*
X155767179Y-80378284D01*
X155777842Y-80345466D01*
X155825674Y-80198256D01*
X155845460Y-80010000D01*
X155825674Y-79821744D01*
X155789517Y-79710466D01*
X155767179Y-79641715D01*
X155672533Y-79477783D01*
X155545870Y-79337110D01*
X155392730Y-79225848D01*
X155219802Y-79148855D01*
X155034648Y-79109500D01*
X155034646Y-79109500D01*
X154845354Y-79109500D01*
X154845352Y-79109500D01*
X154660197Y-79148855D01*
X154487269Y-79225848D01*
X154334129Y-79337110D01*
X154207466Y-79477783D01*
X154112820Y-79641715D01*
X154054326Y-79821742D01*
X154034540Y-80009999D01*
X151329585Y-80009999D01*
X151239666Y-79890926D01*
X151115667Y-79777887D01*
X151079939Y-79720184D01*
X151079939Y-79652316D01*
X151115667Y-79594613D01*
X151239666Y-79481573D01*
X151239667Y-79481572D01*
X151370952Y-79307722D01*
X151468057Y-79112709D01*
X151469316Y-79108284D01*
X151527675Y-78903175D01*
X151536312Y-78809966D01*
X151547776Y-78686250D01*
X151527675Y-78469327D01*
X151527675Y-78469324D01*
X151468058Y-78259792D01*
X151370952Y-78064778D01*
X151239666Y-77890926D01*
X151115667Y-77777886D01*
X151079938Y-77720183D01*
X151079939Y-77652314D01*
X151115664Y-77594614D01*
X151239667Y-77481572D01*
X151370952Y-77307722D01*
X151468057Y-77112709D01*
X151475943Y-77084994D01*
X151527675Y-76903175D01*
X151530589Y-76871717D01*
X151547776Y-76686250D01*
X151528970Y-76483302D01*
X151527675Y-76469324D01*
X151468058Y-76259792D01*
X151370952Y-76064778D01*
X151239666Y-75890926D01*
X151078672Y-75744162D01*
X150998842Y-75694733D01*
X153015896Y-75694733D01*
X153019714Y-75731057D01*
X153035682Y-75882990D01*
X153094176Y-76063017D01*
X153188822Y-76226949D01*
X153315485Y-76367622D01*
X153468625Y-76478884D01*
X153641553Y-76555877D01*
X153826708Y-76595233D01*
X153826710Y-76595233D01*
X154016002Y-76595233D01*
X154016004Y-76595233D01*
X154150391Y-76566668D01*
X154201159Y-76555877D01*
X154374086Y-76478884D01*
X154426579Y-76440746D01*
X154527226Y-76367622D01*
X154653889Y-76226949D01*
X154748535Y-76063017D01*
X154794147Y-75922638D01*
X154829107Y-75868805D01*
X154886299Y-75839665D01*
X154896167Y-75837568D01*
X155069094Y-75760575D01*
X155159718Y-75694733D01*
X155222234Y-75649313D01*
X155348898Y-75508639D01*
X155420569Y-75384500D01*
X155465956Y-75339113D01*
X155527956Y-75322500D01*
X155542648Y-75322500D01*
X155666084Y-75296262D01*
X155727803Y-75283144D01*
X155900730Y-75206151D01*
X156010968Y-75126059D01*
X156053870Y-75094889D01*
X156180533Y-74954216D01*
X156275179Y-74790284D01*
X156318128Y-74658100D01*
X156333674Y-74610256D01*
X156353460Y-74422000D01*
X156333674Y-74233744D01*
X156298628Y-74125884D01*
X156275179Y-74053715D01*
X156180533Y-73889783D01*
X156053870Y-73749110D01*
X155900730Y-73637848D01*
X155727802Y-73560855D01*
X155542648Y-73521500D01*
X155542646Y-73521500D01*
X155353354Y-73521500D01*
X155353352Y-73521500D01*
X155168197Y-73560855D01*
X154995269Y-73637848D01*
X154842129Y-73749110D01*
X154715466Y-73889783D01*
X154643795Y-74013924D01*
X154598408Y-74059311D01*
X154536408Y-74075924D01*
X154521716Y-74075924D01*
X154336561Y-74115279D01*
X154163633Y-74192272D01*
X154010493Y-74303534D01*
X153883830Y-74444207D01*
X153789185Y-74608138D01*
X153743572Y-74748520D01*
X153708614Y-74802350D01*
X153651424Y-74831490D01*
X153641552Y-74833589D01*
X153641553Y-74833589D01*
X153468623Y-74910582D01*
X153315485Y-75021843D01*
X153188822Y-75162516D01*
X153094176Y-75326448D01*
X153035682Y-75506475D01*
X153015920Y-75694500D01*
X153015896Y-75694733D01*
X150998842Y-75694733D01*
X150893448Y-75629476D01*
X150690313Y-75550781D01*
X150690310Y-75550780D01*
X150690309Y-75550780D01*
X150476166Y-75510750D01*
X150258314Y-75510750D01*
X150044171Y-75550780D01*
X150044166Y-75550781D01*
X149841031Y-75629476D01*
X149655807Y-75744162D01*
X149494813Y-75890927D01*
X149466194Y-75928825D01*
X149422511Y-75965098D01*
X149367240Y-75978098D01*
X149311969Y-75965098D01*
X149268286Y-75928825D01*
X149239666Y-75890927D01*
X149115667Y-75777887D01*
X149079939Y-75720184D01*
X149079939Y-75652316D01*
X149115667Y-75594613D01*
X149239666Y-75481573D01*
X149319939Y-75375274D01*
X149370952Y-75307722D01*
X149468057Y-75112709D01*
X149469732Y-75106823D01*
X149527675Y-74903175D01*
X149534317Y-74831491D01*
X149547776Y-74686250D01*
X149527675Y-74469327D01*
X149527675Y-74469324D01*
X149468058Y-74259792D01*
X149370952Y-74064778D01*
X149239666Y-73890926D01*
X149115667Y-73777887D01*
X149079939Y-73720184D01*
X149079939Y-73652316D01*
X149115667Y-73594613D01*
X149239667Y-73481572D01*
X149268285Y-73443675D01*
X149311968Y-73407400D01*
X149367240Y-73394400D01*
X149422512Y-73407400D01*
X149466195Y-73443675D01*
X149494812Y-73481572D01*
X149618813Y-73594613D01*
X149655808Y-73628338D01*
X149671169Y-73637849D01*
X149841031Y-73743023D01*
X149980248Y-73796956D01*
X150044171Y-73821720D01*
X150258314Y-73861750D01*
X150476164Y-73861750D01*
X150476166Y-73861750D01*
X150690309Y-73821720D01*
X150877730Y-73749112D01*
X150893448Y-73743023D01*
X150916500Y-73728750D01*
X151078672Y-73628338D01*
X151239667Y-73481572D01*
X151370952Y-73307722D01*
X151468057Y-73112709D01*
X151468058Y-73112707D01*
X151527675Y-72903175D01*
X151531107Y-72866138D01*
X151547776Y-72686250D01*
X151527675Y-72469327D01*
X151527675Y-72469324D01*
X151468058Y-72259792D01*
X151370952Y-72064778D01*
X151289492Y-71956907D01*
X151265365Y-71897246D01*
X151274390Y-71833527D01*
X151314134Y-71782914D01*
X151399786Y-71718796D01*
X151486036Y-71603581D01*
X151536331Y-71468733D01*
X151542740Y-71409123D01*
X151542739Y-69963378D01*
X151536331Y-69903767D01*
X151486036Y-69768919D01*
X151399786Y-69653704D01*
X151284571Y-69567454D01*
X151149723Y-69517159D01*
X151090113Y-69510750D01*
X151090109Y-69510750D01*
X149644370Y-69510750D01*
X149584755Y-69517159D01*
X149449909Y-69567454D01*
X149334691Y-69653705D01*
X149272454Y-69736844D01*
X149218304Y-69778034D01*
X149150572Y-69784453D01*
X149089650Y-69754170D01*
X149078672Y-69744162D01*
X149078669Y-69744160D01*
X149078668Y-69744159D01*
X148893448Y-69629476D01*
X148690313Y-69550781D01*
X148690310Y-69550780D01*
X148690309Y-69550780D01*
X148476166Y-69510750D01*
X148258314Y-69510750D01*
X148045851Y-69550466D01*
X148044166Y-69550781D01*
X147841031Y-69629476D01*
X147655807Y-69744162D01*
X147494813Y-69890926D01*
X147363527Y-70064778D01*
X147266421Y-70259792D01*
X147206804Y-70469324D01*
X147186704Y-70686249D01*
X147206804Y-70903175D01*
X147266421Y-71112707D01*
X147363527Y-71307721D01*
X147494813Y-71481573D01*
X147618812Y-71594613D01*
X147654540Y-71652316D01*
X147654540Y-71720184D01*
X147618812Y-71777887D01*
X147494813Y-71890926D01*
X147363527Y-72064778D01*
X147266421Y-72259792D01*
X147206804Y-72469324D01*
X147186704Y-72686249D01*
X147206804Y-72903175D01*
X147266421Y-73112707D01*
X147363527Y-73307721D01*
X147494813Y-73481573D01*
X147618812Y-73594613D01*
X147654540Y-73652316D01*
X147654540Y-73720184D01*
X147618812Y-73777887D01*
X147494813Y-73890926D01*
X147363527Y-74064778D01*
X147266421Y-74259792D01*
X147206804Y-74469324D01*
X147186704Y-74686249D01*
X147206804Y-74903175D01*
X147266421Y-75112707D01*
X147363527Y-75307721D01*
X147494813Y-75481573D01*
X147618812Y-75594613D01*
X147654540Y-75652316D01*
X147654540Y-75720184D01*
X147618812Y-75777887D01*
X147494813Y-75890926D01*
X147363527Y-76064778D01*
X147266421Y-76259792D01*
X147206804Y-76469324D01*
X147186704Y-76686249D01*
X147206804Y-76903175D01*
X147266421Y-77112707D01*
X147363527Y-77307721D01*
X147494813Y-77481573D01*
X147618812Y-77594612D01*
X147654540Y-77652314D01*
X147654541Y-77720183D01*
X147618813Y-77777886D01*
X147494811Y-77890929D01*
X147363527Y-78064778D01*
X147266421Y-78259792D01*
X147206804Y-78469324D01*
X147186704Y-78686249D01*
X147206804Y-78903175D01*
X147266421Y-79112707D01*
X147363527Y-79307721D01*
X147494813Y-79481573D01*
X147618812Y-79594612D01*
X147654540Y-79652314D01*
X147654541Y-79720183D01*
X147618813Y-79777886D01*
X147494811Y-79890929D01*
X147363527Y-80064778D01*
X147266421Y-80259792D01*
X147206804Y-80469324D01*
X147186704Y-80686249D01*
X147206804Y-80903175D01*
X147266421Y-81112707D01*
X147363527Y-81307721D01*
X147494813Y-81481573D01*
X147618812Y-81594612D01*
X147654540Y-81652314D01*
X147654541Y-81720183D01*
X147618813Y-81777886D01*
X147494811Y-81890929D01*
X147363527Y-82064778D01*
X147266421Y-82259792D01*
X147206804Y-82469324D01*
X147186704Y-82686249D01*
X147206804Y-82903175D01*
X147266421Y-83112707D01*
X147363527Y-83307721D01*
X147494813Y-83481573D01*
X147618812Y-83594613D01*
X147654540Y-83652316D01*
X147654540Y-83720184D01*
X147618812Y-83777887D01*
X147494813Y-83890926D01*
X147363527Y-84064778D01*
X147266421Y-84259792D01*
X147206804Y-84469324D01*
X147186704Y-84686249D01*
X147206804Y-84903175D01*
X147266421Y-85112707D01*
X147363527Y-85307721D01*
X147494813Y-85481573D01*
X147618812Y-85594612D01*
X147654540Y-85652314D01*
X147654541Y-85720183D01*
X147618813Y-85777886D01*
X147494811Y-85890929D01*
X147363527Y-86064778D01*
X147266421Y-86259792D01*
X147206804Y-86469324D01*
X147186704Y-86686249D01*
X147206804Y-86903175D01*
X147266421Y-87112707D01*
X147363527Y-87307721D01*
X147494813Y-87481573D01*
X147618812Y-87594613D01*
X147654540Y-87652316D01*
X147654540Y-87720184D01*
X147618812Y-87777887D01*
X147494813Y-87890926D01*
X147363527Y-88064778D01*
X147266421Y-88259792D01*
X147206804Y-88469324D01*
X147186704Y-88686250D01*
X139207240Y-88686250D01*
X139207240Y-87057193D01*
X139222267Y-86998025D01*
X139263705Y-86953198D01*
X139321511Y-86933575D01*
X139381676Y-86943914D01*
X139562437Y-87024394D01*
X139747592Y-87063750D01*
X139747594Y-87063750D01*
X139936886Y-87063750D01*
X139936888Y-87063750D01*
X140060323Y-87037512D01*
X140122043Y-87024394D01*
X140294970Y-86947401D01*
X140399296Y-86871604D01*
X140448110Y-86836139D01*
X140574773Y-86695466D01*
X140669419Y-86531534D01*
X140698267Y-86442750D01*
X143381780Y-86442750D01*
X143401566Y-86631007D01*
X143460060Y-86811034D01*
X143554706Y-86974966D01*
X143681369Y-87115639D01*
X143834509Y-87226901D01*
X144007437Y-87303894D01*
X144192592Y-87343250D01*
X144192594Y-87343250D01*
X144381886Y-87343250D01*
X144381888Y-87343250D01*
X144525910Y-87312637D01*
X144567043Y-87303894D01*
X144739970Y-87226901D01*
X144893111Y-87115638D01*
X145019773Y-86974966D01*
X145114419Y-86811034D01*
X145172914Y-86631006D01*
X145192700Y-86442750D01*
X145172914Y-86254494D01*
X145114419Y-86074466D01*
X145114419Y-86074465D01*
X145019773Y-85910533D01*
X144893110Y-85769860D01*
X144739970Y-85658598D01*
X144567042Y-85581605D01*
X144381888Y-85542250D01*
X144381886Y-85542250D01*
X144192594Y-85542250D01*
X144192592Y-85542250D01*
X144007437Y-85581605D01*
X143834509Y-85658598D01*
X143681369Y-85769860D01*
X143554706Y-85910533D01*
X143460060Y-86074465D01*
X143401566Y-86254492D01*
X143381780Y-86442750D01*
X140698267Y-86442750D01*
X140727914Y-86351506D01*
X140747700Y-86163250D01*
X140727914Y-85974994D01*
X140669419Y-85794966D01*
X140669419Y-85794965D01*
X140574775Y-85631037D01*
X140574774Y-85631036D01*
X140574773Y-85631034D01*
X140556933Y-85611221D01*
X140528767Y-85558249D01*
X140528767Y-85498251D01*
X140556933Y-85445278D01*
X140574773Y-85425466D01*
X140669419Y-85261534D01*
X140727914Y-85081506D01*
X140747700Y-84893250D01*
X140727914Y-84704994D01*
X140669419Y-84524966D01*
X140669419Y-84524965D01*
X140574773Y-84361033D01*
X140556934Y-84341221D01*
X140528767Y-84288247D01*
X140528768Y-84228250D01*
X140556934Y-84175277D01*
X140574773Y-84155466D01*
X140669419Y-83991534D01*
X140727914Y-83811506D01*
X140747700Y-83623250D01*
X140727914Y-83434994D01*
X140669419Y-83254966D01*
X140669419Y-83254965D01*
X140574775Y-83091037D01*
X140574774Y-83091036D01*
X140574773Y-83091034D01*
X140556933Y-83071221D01*
X140528767Y-83018249D01*
X140528767Y-82958251D01*
X140556933Y-82905278D01*
X140574773Y-82885466D01*
X140669419Y-82721534D01*
X140727914Y-82541506D01*
X140747700Y-82353250D01*
X140727914Y-82164994D01*
X140669419Y-81984966D01*
X140669419Y-81984965D01*
X140574773Y-81821033D01*
X140556934Y-81801221D01*
X140528767Y-81748247D01*
X140528768Y-81688250D01*
X140556934Y-81635277D01*
X140574773Y-81615466D01*
X140669419Y-81451534D01*
X140727914Y-81271506D01*
X140747700Y-81083250D01*
X140727914Y-80894994D01*
X140669419Y-80714966D01*
X140669419Y-80714965D01*
X140574775Y-80551037D01*
X140574774Y-80551036D01*
X140574773Y-80551034D01*
X140556933Y-80531221D01*
X140528767Y-80478249D01*
X140528767Y-80418251D01*
X140556933Y-80365278D01*
X140574773Y-80345466D01*
X140669419Y-80181534D01*
X140727914Y-80001506D01*
X140747700Y-79813250D01*
X140727914Y-79624994D01*
X140697572Y-79531613D01*
X140669419Y-79444965D01*
X140574773Y-79281033D01*
X140556934Y-79261221D01*
X140528767Y-79208247D01*
X140528768Y-79148250D01*
X140556934Y-79095277D01*
X140574773Y-79075466D01*
X140669419Y-78911534D01*
X140727914Y-78731506D01*
X140747700Y-78543250D01*
X140727914Y-78354994D01*
X140669419Y-78174966D01*
X140669419Y-78174965D01*
X140574773Y-78011033D01*
X140556934Y-77991221D01*
X140528767Y-77938246D01*
X140528768Y-77878248D01*
X140556936Y-77825275D01*
X140574773Y-77805466D01*
X140669419Y-77641534D01*
X140727914Y-77461506D01*
X140747700Y-77273250D01*
X140727914Y-77084994D01*
X140673517Y-76917578D01*
X140669419Y-76904965D01*
X140574773Y-76741033D01*
X140448110Y-76600360D01*
X140294970Y-76489098D01*
X140122042Y-76412105D01*
X139936888Y-76372750D01*
X139936886Y-76372750D01*
X139747594Y-76372750D01*
X139747592Y-76372750D01*
X139562437Y-76412105D01*
X139381676Y-76492586D01*
X139321511Y-76502925D01*
X139263705Y-76483302D01*
X139222267Y-76438475D01*
X139207240Y-76379307D01*
X139207240Y-75673649D01*
X141072835Y-75673649D01*
X141092621Y-75861907D01*
X141151115Y-76041934D01*
X141245759Y-76205863D01*
X141245761Y-76205865D01*
X141245762Y-76205866D01*
X141264745Y-76226949D01*
X141267781Y-76230320D01*
X141295947Y-76283293D01*
X141295948Y-76343289D01*
X141267784Y-76396262D01*
X141261956Y-76402735D01*
X141167309Y-76566667D01*
X141108815Y-76746694D01*
X141089029Y-76934952D01*
X141108815Y-77123209D01*
X141167309Y-77303236D01*
X141261955Y-77467168D01*
X141388618Y-77607841D01*
X141541758Y-77719103D01*
X141714686Y-77796096D01*
X141899841Y-77835452D01*
X141899843Y-77835452D01*
X142089135Y-77835452D01*
X142089137Y-77835452D01*
X142230214Y-77805465D01*
X142274292Y-77796096D01*
X142447219Y-77719103D01*
X142454366Y-77713909D01*
X142511708Y-77691204D01*
X142572897Y-77698932D01*
X142622795Y-77735183D01*
X142649057Y-77790988D01*
X142645186Y-77852542D01*
X142624326Y-77916743D01*
X142604540Y-78105000D01*
X142624326Y-78293257D01*
X142682820Y-78473284D01*
X142777466Y-78637215D01*
X142795304Y-78657026D01*
X142823471Y-78709999D01*
X142823472Y-78769995D01*
X142795307Y-78822969D01*
X142777466Y-78842783D01*
X142682820Y-79006715D01*
X142624326Y-79186742D01*
X142604540Y-79374999D01*
X142624326Y-79563257D01*
X142682820Y-79743284D01*
X142777466Y-79907216D01*
X142904129Y-80047889D01*
X143057269Y-80159151D01*
X143228210Y-80235260D01*
X143269923Y-80265566D01*
X143295704Y-80310219D01*
X143317821Y-80378284D01*
X143412465Y-80542214D01*
X143539129Y-80682889D01*
X143692269Y-80794151D01*
X143865197Y-80871144D01*
X144050352Y-80910500D01*
X144050354Y-80910500D01*
X144239646Y-80910500D01*
X144239648Y-80910500D01*
X144363083Y-80884262D01*
X144424803Y-80871144D01*
X144597730Y-80794151D01*
X144601569Y-80791362D01*
X144750870Y-80682889D01*
X144877533Y-80542216D01*
X144972179Y-80378284D01*
X144982842Y-80345466D01*
X145030674Y-80198256D01*
X145050460Y-80010000D01*
X145030674Y-79821744D01*
X144994517Y-79710466D01*
X144972179Y-79641715D01*
X144877533Y-79477783D01*
X144859694Y-79457971D01*
X144831527Y-79404997D01*
X144831528Y-79345000D01*
X144859694Y-79292027D01*
X144877533Y-79272216D01*
X144972179Y-79108284D01*
X145030674Y-78928256D01*
X145050460Y-78740000D01*
X145030674Y-78551744D01*
X144972179Y-78371716D01*
X144972179Y-78371715D01*
X144877535Y-78207787D01*
X144877534Y-78207786D01*
X144877533Y-78207784D01*
X144859693Y-78187971D01*
X144831527Y-78134999D01*
X144831527Y-78075001D01*
X144859693Y-78022028D01*
X144877533Y-78002216D01*
X144972179Y-77838284D01*
X145030674Y-77658256D01*
X145050460Y-77470000D01*
X145030674Y-77281744D01*
X144972179Y-77101716D01*
X144972179Y-77101715D01*
X144877533Y-76937783D01*
X144750870Y-76797110D01*
X144597730Y-76685848D01*
X144424802Y-76608855D01*
X144239648Y-76569500D01*
X144239646Y-76569500D01*
X144050354Y-76569500D01*
X144050352Y-76569500D01*
X143865197Y-76608855D01*
X143692269Y-76685848D01*
X143539129Y-76797110D01*
X143412466Y-76937783D01*
X143317820Y-77101716D01*
X143295704Y-77169781D01*
X143269923Y-77214434D01*
X143228210Y-77244740D01*
X143057269Y-77320848D01*
X143050118Y-77326044D01*
X142992774Y-77348747D01*
X142931585Y-77341017D01*
X142881690Y-77304765D01*
X142855430Y-77248960D01*
X142859303Y-77187407D01*
X142865030Y-77169781D01*
X142880163Y-77123208D01*
X142899949Y-76934952D01*
X142880163Y-76746696D01*
X142835376Y-76608856D01*
X142821668Y-76566667D01*
X142727024Y-76402738D01*
X142705926Y-76379307D01*
X142705001Y-76378279D01*
X142676835Y-76325305D01*
X142676836Y-76265307D01*
X142705005Y-76212333D01*
X142710828Y-76205866D01*
X142805474Y-76041934D01*
X142863969Y-75861906D01*
X142883755Y-75673650D01*
X142863969Y-75485394D01*
X142805474Y-75305366D01*
X142784171Y-75268468D01*
X142767557Y-75206467D01*
X142784170Y-75144467D01*
X142785922Y-75141434D01*
X142852345Y-75026385D01*
X142910840Y-74846357D01*
X142930626Y-74658101D01*
X142910840Y-74469845D01*
X142880498Y-74376464D01*
X142852345Y-74289816D01*
X142757699Y-74125884D01*
X142631036Y-73985211D01*
X142477896Y-73873949D01*
X142304968Y-73796956D01*
X142119814Y-73757601D01*
X142119812Y-73757601D01*
X141930520Y-73757601D01*
X141930518Y-73757601D01*
X141745363Y-73796956D01*
X141572435Y-73873949D01*
X141419295Y-73985211D01*
X141292632Y-74125884D01*
X141197986Y-74289816D01*
X141139492Y-74469843D01*
X141119706Y-74658101D01*
X141139492Y-74846358D01*
X141197986Y-75026385D01*
X141219290Y-75063284D01*
X141235903Y-75125284D01*
X141219290Y-75187284D01*
X141151115Y-75305365D01*
X141092621Y-75485392D01*
X141072835Y-75673649D01*
X139207240Y-75673649D01*
X139207240Y-70923250D01*
X142746780Y-70923250D01*
X142766566Y-71111507D01*
X142825060Y-71291534D01*
X142919706Y-71455466D01*
X143046369Y-71596139D01*
X143199509Y-71707401D01*
X143372437Y-71784394D01*
X143557592Y-71823750D01*
X143557594Y-71823750D01*
X143746886Y-71823750D01*
X143746888Y-71823750D01*
X143911234Y-71788817D01*
X143975333Y-71792176D01*
X144029165Y-71827134D01*
X144058305Y-71884325D01*
X144054946Y-71948424D01*
X144036566Y-72004990D01*
X144016780Y-72193250D01*
X144036566Y-72381507D01*
X144095060Y-72561534D01*
X144189706Y-72725466D01*
X144316369Y-72866139D01*
X144469509Y-72977401D01*
X144642437Y-73054394D01*
X144827592Y-73093750D01*
X144827594Y-73093750D01*
X145016886Y-73093750D01*
X145016888Y-73093750D01*
X145140324Y-73067512D01*
X145202043Y-73054394D01*
X145374970Y-72977401D01*
X145477134Y-72903175D01*
X145528110Y-72866139D01*
X145654773Y-72725466D01*
X145749419Y-72561534D01*
X145779380Y-72469324D01*
X145807914Y-72381506D01*
X145827700Y-72193250D01*
X145807914Y-72004994D01*
X145772904Y-71897246D01*
X145749419Y-71824965D01*
X145654773Y-71661033D01*
X145528110Y-71520360D01*
X145374970Y-71409098D01*
X145202042Y-71332105D01*
X145016888Y-71292750D01*
X145016886Y-71292750D01*
X144827594Y-71292750D01*
X144827591Y-71292750D01*
X144663244Y-71327682D01*
X144599145Y-71324323D01*
X144545313Y-71289364D01*
X144516174Y-71232172D01*
X144519532Y-71168077D01*
X144537914Y-71111506D01*
X144557700Y-70923250D01*
X144537914Y-70734994D01*
X144479419Y-70554966D01*
X144479419Y-70554965D01*
X144384773Y-70391033D01*
X144258110Y-70250360D01*
X144104970Y-70139098D01*
X143932042Y-70062105D01*
X143746888Y-70022750D01*
X143746886Y-70022750D01*
X143557594Y-70022750D01*
X143557592Y-70022750D01*
X143372437Y-70062105D01*
X143199509Y-70139098D01*
X143046369Y-70250360D01*
X142919706Y-70391033D01*
X142825060Y-70554965D01*
X142766566Y-70734992D01*
X142746780Y-70923250D01*
X139207240Y-70923250D01*
X139207240Y-69018249D01*
X152906780Y-69018249D01*
X152926566Y-69206507D01*
X152985060Y-69386534D01*
X153079706Y-69550466D01*
X153206369Y-69691139D01*
X153359507Y-69802400D01*
X153441535Y-69838921D01*
X153524991Y-69876078D01*
X153572268Y-69913016D01*
X153596671Y-69967825D01*
X153592486Y-70027675D01*
X153546326Y-70169740D01*
X153526540Y-70358000D01*
X153546326Y-70546257D01*
X153604820Y-70726284D01*
X153699466Y-70890216D01*
X153826129Y-71030889D01*
X153979269Y-71142151D01*
X154152197Y-71219144D01*
X154337352Y-71258500D01*
X154337354Y-71258500D01*
X154526646Y-71258500D01*
X154526648Y-71258500D01*
X154650511Y-71232172D01*
X154711803Y-71219144D01*
X154884730Y-71142151D01*
X155037871Y-71030888D01*
X155164533Y-70890216D01*
X155259179Y-70726284D01*
X155317674Y-70546256D01*
X155337460Y-70358000D01*
X155317674Y-70169744D01*
X155295011Y-70099994D01*
X155274851Y-70037948D01*
X155272466Y-69969627D01*
X155306650Y-69910426D01*
X155351076Y-69886808D01*
X155350136Y-69884696D01*
X155534970Y-69802401D01*
X155688110Y-69691139D01*
X155814773Y-69550466D01*
X155909419Y-69386534D01*
X155941106Y-69289012D01*
X155967914Y-69206506D01*
X155987700Y-69018250D01*
X155967914Y-68829994D01*
X155943477Y-68754787D01*
X155939293Y-68694939D01*
X155963696Y-68640129D01*
X156010972Y-68603192D01*
X156169970Y-68532401D01*
X156169970Y-68532400D01*
X156169972Y-68532400D01*
X156323110Y-68421139D01*
X156357227Y-68383249D01*
X156449773Y-68280466D01*
X156544419Y-68116534D01*
X156602914Y-67936506D01*
X156622700Y-67748250D01*
X156602914Y-67559994D01*
X156572572Y-67466613D01*
X156544419Y-67379965D01*
X156449773Y-67216033D01*
X156323110Y-67075360D01*
X156169970Y-66964098D01*
X156010973Y-66893307D01*
X155963695Y-66856370D01*
X155939293Y-66801560D01*
X155943477Y-66741712D01*
X155967914Y-66666506D01*
X155987700Y-66478250D01*
X155967914Y-66289994D01*
X155943477Y-66214787D01*
X155939293Y-66154939D01*
X155963696Y-66100129D01*
X156010972Y-66063192D01*
X156169970Y-65992401D01*
X156169970Y-65992400D01*
X156169972Y-65992400D01*
X156323110Y-65881139D01*
X156357227Y-65843249D01*
X156449773Y-65740466D01*
X156544419Y-65576534D01*
X156602914Y-65396506D01*
X156622700Y-65208250D01*
X156602914Y-65019994D01*
X156544419Y-64839966D01*
X156544419Y-64839965D01*
X156449773Y-64676033D01*
X156323110Y-64535360D01*
X156169970Y-64424098D01*
X155997042Y-64347105D01*
X155811888Y-64307750D01*
X155811886Y-64307750D01*
X155622594Y-64307750D01*
X155622592Y-64307750D01*
X155437437Y-64347105D01*
X155264509Y-64424098D01*
X155155125Y-64503571D01*
X155108021Y-64524543D01*
X155056459Y-64524543D01*
X155009355Y-64503571D01*
X154899970Y-64424098D01*
X154727042Y-64347105D01*
X154541888Y-64307750D01*
X154541886Y-64307750D01*
X154352594Y-64307750D01*
X154352592Y-64307750D01*
X154167437Y-64347105D01*
X153994509Y-64424098D01*
X153841369Y-64535360D01*
X153714706Y-64676033D01*
X153620060Y-64839965D01*
X153561566Y-65019992D01*
X153541780Y-65208249D01*
X153561566Y-65396509D01*
X153586001Y-65471711D01*
X153590186Y-65531561D01*
X153565784Y-65586370D01*
X153518506Y-65623307D01*
X153359509Y-65694098D01*
X153206369Y-65805360D01*
X153079706Y-65946033D01*
X152985060Y-66109965D01*
X152926566Y-66289992D01*
X152906780Y-66478250D01*
X152926566Y-66666507D01*
X152985060Y-66846534D01*
X153079706Y-67010466D01*
X153206369Y-67151139D01*
X153359505Y-67262399D01*
X153413202Y-67286306D01*
X153518507Y-67333192D01*
X153565783Y-67370129D01*
X153590186Y-67424938D01*
X153586001Y-67484788D01*
X153561566Y-67559990D01*
X153541780Y-67748250D01*
X153561566Y-67936509D01*
X153586001Y-68011711D01*
X153590186Y-68071561D01*
X153565784Y-68126370D01*
X153518506Y-68163307D01*
X153359509Y-68234098D01*
X153206369Y-68345360D01*
X153079706Y-68486033D01*
X152985060Y-68649965D01*
X152926566Y-68829992D01*
X152906780Y-69018249D01*
X139207240Y-69018249D01*
X139207240Y-65208250D01*
X142746780Y-65208250D01*
X142752913Y-65266599D01*
X142766566Y-65396507D01*
X142825060Y-65576534D01*
X142919706Y-65740466D01*
X143046369Y-65881139D01*
X143199505Y-65992399D01*
X143253202Y-66016306D01*
X143358507Y-66063192D01*
X143405783Y-66100129D01*
X143430186Y-66154938D01*
X143426001Y-66214788D01*
X143401566Y-66289990D01*
X143381780Y-66478250D01*
X143401566Y-66666507D01*
X143460060Y-66846534D01*
X143554706Y-67010466D01*
X143681369Y-67151139D01*
X143834509Y-67262401D01*
X144007437Y-67339394D01*
X144192592Y-67378750D01*
X144192594Y-67378750D01*
X144381886Y-67378750D01*
X144381888Y-67378750D01*
X144505324Y-67352512D01*
X144567043Y-67339394D01*
X144739970Y-67262401D01*
X144803789Y-67216034D01*
X144849355Y-67182929D01*
X144896459Y-67161957D01*
X144948021Y-67161957D01*
X144995125Y-67182929D01*
X145104509Y-67262401D01*
X145277437Y-67339394D01*
X145462592Y-67378750D01*
X145462594Y-67378750D01*
X145651886Y-67378750D01*
X145651888Y-67378750D01*
X145775324Y-67352512D01*
X145837043Y-67339394D01*
X146009970Y-67262401D01*
X146073790Y-67216033D01*
X146163110Y-67151139D01*
X146289773Y-67010466D01*
X146384419Y-66846534D01*
X146399032Y-66801560D01*
X146442914Y-66666506D01*
X146462700Y-66478250D01*
X146442914Y-66289994D01*
X146399032Y-66154939D01*
X146384419Y-66109965D01*
X146350231Y-66050749D01*
X147318780Y-66050749D01*
X147338566Y-66239007D01*
X147397060Y-66419034D01*
X147491706Y-66582966D01*
X147618369Y-66723639D01*
X147771509Y-66834901D01*
X147944437Y-66911894D01*
X148129592Y-66951250D01*
X148129594Y-66951250D01*
X148318886Y-66951250D01*
X148318888Y-66951250D01*
X148483676Y-66916223D01*
X148504043Y-66911894D01*
X148676970Y-66834901D01*
X148722860Y-66801560D01*
X148830110Y-66723639D01*
X148956773Y-66582966D01*
X149051419Y-66419034D01*
X149065575Y-66375466D01*
X149109914Y-66239006D01*
X149129700Y-66050750D01*
X149109914Y-65862494D01*
X149079572Y-65769113D01*
X149051419Y-65682465D01*
X148956773Y-65518533D01*
X148830110Y-65377860D01*
X148676970Y-65266598D01*
X148504042Y-65189605D01*
X148318888Y-65150250D01*
X148318886Y-65150250D01*
X148129594Y-65150250D01*
X148129592Y-65150250D01*
X147944437Y-65189605D01*
X147771509Y-65266598D01*
X147618369Y-65377860D01*
X147491706Y-65518533D01*
X147397060Y-65682465D01*
X147338566Y-65862492D01*
X147318780Y-66050749D01*
X146350231Y-66050749D01*
X146289773Y-65946033D01*
X146163110Y-65805360D01*
X146009970Y-65694098D01*
X145850973Y-65623307D01*
X145803695Y-65586370D01*
X145779293Y-65531560D01*
X145783478Y-65471711D01*
X145807914Y-65396506D01*
X145827700Y-65208250D01*
X145807914Y-65019994D01*
X145749419Y-64839966D01*
X145749419Y-64839965D01*
X145654773Y-64676033D01*
X145528110Y-64535360D01*
X145374970Y-64424098D01*
X145202042Y-64347105D01*
X145016888Y-64307750D01*
X145016886Y-64307750D01*
X144827594Y-64307750D01*
X144827592Y-64307750D01*
X144642437Y-64347105D01*
X144469509Y-64424098D01*
X144360125Y-64503571D01*
X144313021Y-64524543D01*
X144261459Y-64524543D01*
X144214355Y-64503571D01*
X144104970Y-64424098D01*
X143932042Y-64347105D01*
X143746888Y-64307750D01*
X143746886Y-64307750D01*
X143557594Y-64307750D01*
X143557592Y-64307750D01*
X143372437Y-64347105D01*
X143199509Y-64424098D01*
X143046369Y-64535360D01*
X142919706Y-64676033D01*
X142825060Y-64839965D01*
X142766566Y-65019992D01*
X142746780Y-65208249D01*
X142746780Y-65208250D01*
X139207240Y-65208250D01*
X139207240Y-63303250D01*
X136156240Y-63303250D01*
X136094240Y-63286637D01*
X136048853Y-63241250D01*
X136032240Y-63179250D01*
X136032240Y-62033250D01*
X136396780Y-62033250D01*
X136416566Y-62221507D01*
X136475060Y-62401534D01*
X136569706Y-62565466D01*
X136696369Y-62706139D01*
X136849509Y-62817401D01*
X137022437Y-62894394D01*
X137207592Y-62933750D01*
X137207594Y-62933750D01*
X137396886Y-62933750D01*
X137396888Y-62933750D01*
X137520323Y-62907512D01*
X137582043Y-62894394D01*
X137754970Y-62817401D01*
X137847399Y-62750248D01*
X137864355Y-62737929D01*
X137911459Y-62716957D01*
X137963021Y-62716957D01*
X138010125Y-62737929D01*
X138119509Y-62817401D01*
X138292437Y-62894394D01*
X138477592Y-62933750D01*
X138477594Y-62933750D01*
X138666886Y-62933750D01*
X138666888Y-62933750D01*
X138790323Y-62907512D01*
X138852043Y-62894394D01*
X139024970Y-62817401D01*
X139117399Y-62750248D01*
X139134355Y-62737929D01*
X139181459Y-62716957D01*
X139233021Y-62716957D01*
X139280125Y-62737929D01*
X139389509Y-62817401D01*
X139562437Y-62894394D01*
X139747592Y-62933750D01*
X139747594Y-62933750D01*
X139936886Y-62933750D01*
X139936888Y-62933750D01*
X140060323Y-62907512D01*
X140122043Y-62894394D01*
X140294970Y-62817401D01*
X140387399Y-62750248D01*
X140404355Y-62737929D01*
X140451459Y-62716957D01*
X140503021Y-62716957D01*
X140550125Y-62737929D01*
X140659509Y-62817401D01*
X140832437Y-62894394D01*
X141017592Y-62933750D01*
X141017594Y-62933750D01*
X141206886Y-62933750D01*
X141206888Y-62933750D01*
X141330323Y-62907512D01*
X141392043Y-62894394D01*
X141564970Y-62817401D01*
X141657399Y-62750248D01*
X141674355Y-62737929D01*
X141721459Y-62716957D01*
X141773021Y-62716957D01*
X141820125Y-62737929D01*
X141929509Y-62817401D01*
X142102437Y-62894394D01*
X142287592Y-62933750D01*
X142287594Y-62933750D01*
X142476886Y-62933750D01*
X142476888Y-62933750D01*
X142600323Y-62907512D01*
X142662043Y-62894394D01*
X142834970Y-62817401D01*
X142927399Y-62750248D01*
X142944355Y-62737929D01*
X142991459Y-62716957D01*
X143043021Y-62716957D01*
X143090125Y-62737929D01*
X143199509Y-62817401D01*
X143372437Y-62894394D01*
X143557592Y-62933750D01*
X143557594Y-62933750D01*
X143746886Y-62933750D01*
X143746888Y-62933750D01*
X143870323Y-62907512D01*
X143932043Y-62894394D01*
X144104970Y-62817401D01*
X144197399Y-62750248D01*
X144214355Y-62737929D01*
X144261459Y-62716957D01*
X144313021Y-62716957D01*
X144360125Y-62737929D01*
X144469509Y-62817401D01*
X144642437Y-62894394D01*
X144827592Y-62933750D01*
X144827594Y-62933750D01*
X145016886Y-62933750D01*
X145016888Y-62933750D01*
X145140323Y-62907512D01*
X145202043Y-62894394D01*
X145374970Y-62817401D01*
X145467399Y-62750248D01*
X145484355Y-62737929D01*
X145531459Y-62716957D01*
X145583021Y-62716957D01*
X145630125Y-62737929D01*
X145739509Y-62817401D01*
X145912437Y-62894394D01*
X146097592Y-62933750D01*
X146097594Y-62933750D01*
X146286886Y-62933750D01*
X146286888Y-62933750D01*
X146410323Y-62907512D01*
X146472043Y-62894394D01*
X146644970Y-62817401D01*
X146737399Y-62750248D01*
X146798110Y-62706139D01*
X146924773Y-62565466D01*
X147019419Y-62401534D01*
X147030911Y-62366165D01*
X147077914Y-62221506D01*
X147097700Y-62033250D01*
X147077914Y-61844994D01*
X147019419Y-61664966D01*
X147019419Y-61664965D01*
X146924773Y-61501033D01*
X146798110Y-61360360D01*
X146644970Y-61249098D01*
X146472042Y-61172105D01*
X146286888Y-61132750D01*
X146286886Y-61132750D01*
X146097594Y-61132750D01*
X146097592Y-61132750D01*
X145912437Y-61172105D01*
X145739509Y-61249098D01*
X145630125Y-61328571D01*
X145583021Y-61349543D01*
X145531459Y-61349543D01*
X145484355Y-61328571D01*
X145374970Y-61249098D01*
X145202042Y-61172105D01*
X145016888Y-61132750D01*
X145016886Y-61132750D01*
X144827594Y-61132750D01*
X144827592Y-61132750D01*
X144642437Y-61172105D01*
X144469509Y-61249098D01*
X144360125Y-61328571D01*
X144313021Y-61349543D01*
X144261459Y-61349543D01*
X144214355Y-61328571D01*
X144104970Y-61249098D01*
X143932042Y-61172105D01*
X143746888Y-61132750D01*
X143746886Y-61132750D01*
X143557594Y-61132750D01*
X143557592Y-61132750D01*
X143372437Y-61172105D01*
X143199509Y-61249098D01*
X143090125Y-61328571D01*
X143043021Y-61349543D01*
X142991459Y-61349543D01*
X142944355Y-61328571D01*
X142834970Y-61249098D01*
X142662042Y-61172105D01*
X142476888Y-61132750D01*
X142476886Y-61132750D01*
X142287594Y-61132750D01*
X142287592Y-61132750D01*
X142102437Y-61172105D01*
X141929509Y-61249098D01*
X141820125Y-61328571D01*
X141773021Y-61349543D01*
X141721459Y-61349543D01*
X141674355Y-61328571D01*
X141564970Y-61249098D01*
X141392042Y-61172105D01*
X141206888Y-61132750D01*
X141206886Y-61132750D01*
X141017594Y-61132750D01*
X141017592Y-61132750D01*
X140832437Y-61172105D01*
X140659509Y-61249098D01*
X140550125Y-61328571D01*
X140503021Y-61349543D01*
X140451459Y-61349543D01*
X140404355Y-61328571D01*
X140294970Y-61249098D01*
X140122042Y-61172105D01*
X139936888Y-61132750D01*
X139936886Y-61132750D01*
X139747594Y-61132750D01*
X139747592Y-61132750D01*
X139562437Y-61172105D01*
X139389509Y-61249098D01*
X139280125Y-61328571D01*
X139233021Y-61349543D01*
X139181459Y-61349543D01*
X139134355Y-61328571D01*
X139024970Y-61249098D01*
X138852042Y-61172105D01*
X138666888Y-61132750D01*
X138666886Y-61132750D01*
X138477594Y-61132750D01*
X138477592Y-61132750D01*
X138292437Y-61172105D01*
X138119509Y-61249098D01*
X138010125Y-61328571D01*
X137963021Y-61349543D01*
X137911459Y-61349543D01*
X137864355Y-61328571D01*
X137754970Y-61249098D01*
X137582042Y-61172105D01*
X137396888Y-61132750D01*
X137396886Y-61132750D01*
X137207594Y-61132750D01*
X137207592Y-61132750D01*
X137022437Y-61172105D01*
X136849509Y-61249098D01*
X136696369Y-61360360D01*
X136569706Y-61501033D01*
X136475060Y-61664965D01*
X136416566Y-61844992D01*
X136396780Y-62033250D01*
X136032240Y-62033250D01*
X136032240Y-60081750D01*
X147826780Y-60081750D01*
X147846566Y-60270007D01*
X147905060Y-60450034D01*
X147999706Y-60613966D01*
X148126369Y-60754639D01*
X148279509Y-60865901D01*
X148452437Y-60942894D01*
X148637592Y-60982250D01*
X148637594Y-60982250D01*
X148826886Y-60982250D01*
X148826888Y-60982250D01*
X148950323Y-60956012D01*
X149012043Y-60942894D01*
X149123995Y-60893048D01*
X149189804Y-60863749D01*
X149240240Y-60853028D01*
X149290676Y-60863749D01*
X149468437Y-60942894D01*
X149653592Y-60982250D01*
X149653594Y-60982250D01*
X149842882Y-60982250D01*
X149842886Y-60982250D01*
X149845769Y-60981637D01*
X149902385Y-60982820D01*
X149952574Y-61009056D01*
X149985863Y-61054871D01*
X149995308Y-61110709D01*
X149978941Y-61164925D01*
X149937060Y-61237466D01*
X149878566Y-61417492D01*
X149858780Y-61605750D01*
X149878566Y-61794007D01*
X149937060Y-61974034D01*
X150031706Y-62137966D01*
X150158369Y-62278639D01*
X150311509Y-62389901D01*
X150484437Y-62466894D01*
X150669592Y-62506250D01*
X150669594Y-62506250D01*
X150858886Y-62506250D01*
X150858888Y-62506250D01*
X150982431Y-62479990D01*
X151044043Y-62466894D01*
X151216970Y-62389901D01*
X151355735Y-62289082D01*
X151413078Y-62266379D01*
X151474267Y-62274109D01*
X151524163Y-62310360D01*
X151550423Y-62366165D01*
X151546551Y-62427718D01*
X151529566Y-62479990D01*
X151509780Y-62668250D01*
X151529566Y-62856507D01*
X151588060Y-63036534D01*
X151682706Y-63200466D01*
X151809369Y-63341139D01*
X151962509Y-63452401D01*
X152135437Y-63529394D01*
X152320592Y-63568750D01*
X152320594Y-63568750D01*
X152509886Y-63568750D01*
X152509888Y-63568750D01*
X152633324Y-63542512D01*
X152695043Y-63529394D01*
X152867970Y-63452401D01*
X153021111Y-63341138D01*
X153147773Y-63200466D01*
X153242419Y-63036534D01*
X153300914Y-62856506D01*
X153320700Y-62668250D01*
X153300914Y-62479994D01*
X153270572Y-62386613D01*
X153242419Y-62299965D01*
X153147773Y-62136033D01*
X153021110Y-61995360D01*
X152867970Y-61884098D01*
X152695042Y-61807105D01*
X152509888Y-61767750D01*
X152509886Y-61767750D01*
X152320594Y-61767750D01*
X152320592Y-61767750D01*
X152135437Y-61807105D01*
X151962512Y-61884096D01*
X151823744Y-61984917D01*
X151766399Y-62007620D01*
X151705211Y-61999890D01*
X151655315Y-61963638D01*
X151629055Y-61907832D01*
X151632927Y-61846284D01*
X151649914Y-61794006D01*
X151669700Y-61605750D01*
X151649914Y-61417494D01*
X151595199Y-61249099D01*
X151591419Y-61237465D01*
X151496775Y-61073536D01*
X151479969Y-61054871D01*
X151370111Y-60932862D01*
X151370107Y-60932859D01*
X151364582Y-60926723D01*
X151336415Y-60873749D01*
X151336415Y-60813751D01*
X151364582Y-60760777D01*
X151370107Y-60754640D01*
X151370111Y-60754638D01*
X151496773Y-60613966D01*
X151591419Y-60450034D01*
X151649914Y-60270006D01*
X151669700Y-60081750D01*
X151649914Y-59893494D01*
X151591419Y-59713466D01*
X151591419Y-59713465D01*
X151496773Y-59549533D01*
X151370110Y-59408860D01*
X151216970Y-59297598D01*
X151044042Y-59220605D01*
X150858888Y-59181250D01*
X150858886Y-59181250D01*
X150669594Y-59181250D01*
X150669592Y-59181250D01*
X150484441Y-59220604D01*
X150306676Y-59299751D01*
X150256240Y-59310471D01*
X150205804Y-59299751D01*
X150110445Y-59257294D01*
X150028043Y-59220606D01*
X150028042Y-59220605D01*
X150028038Y-59220604D01*
X149842888Y-59181250D01*
X149842886Y-59181250D01*
X149653594Y-59181250D01*
X149653592Y-59181250D01*
X149468441Y-59220604D01*
X149290676Y-59299751D01*
X149240240Y-59310471D01*
X149189804Y-59299751D01*
X149094445Y-59257294D01*
X149012043Y-59220606D01*
X149012042Y-59220605D01*
X149012038Y-59220604D01*
X148826888Y-59181250D01*
X148826886Y-59181250D01*
X148637594Y-59181250D01*
X148637592Y-59181250D01*
X148452437Y-59220605D01*
X148279509Y-59297598D01*
X148126369Y-59408860D01*
X147999706Y-59549533D01*
X147905060Y-59713465D01*
X147846566Y-59893492D01*
X147826780Y-60081750D01*
X136032240Y-60081750D01*
X136032240Y-57287749D01*
X147064780Y-57287749D01*
X147084566Y-57476007D01*
X147143060Y-57656034D01*
X147237706Y-57819966D01*
X147364369Y-57960639D01*
X147517509Y-58071901D01*
X147690437Y-58148894D01*
X147875592Y-58188250D01*
X147875594Y-58188250D01*
X148064886Y-58188250D01*
X148064888Y-58188250D01*
X148188323Y-58162012D01*
X148250043Y-58148894D01*
X148422970Y-58071901D01*
X148576111Y-57960638D01*
X148702773Y-57819966D01*
X148797419Y-57656034D01*
X148855914Y-57476006D01*
X148875700Y-57287750D01*
X148855914Y-57099494D01*
X148797419Y-56919466D01*
X148797419Y-56919465D01*
X148702773Y-56755533D01*
X148576110Y-56614860D01*
X148422970Y-56503598D01*
X148250042Y-56426605D01*
X148064888Y-56387250D01*
X148064886Y-56387250D01*
X147875594Y-56387250D01*
X147875592Y-56387250D01*
X147690437Y-56426605D01*
X147517509Y-56503598D01*
X147364369Y-56614860D01*
X147237706Y-56755533D01*
X147143060Y-56919465D01*
X147084566Y-57099492D01*
X147064780Y-57287749D01*
X136032240Y-57287749D01*
X136032240Y-55048249D01*
X152652780Y-55048249D01*
X152672566Y-55236507D01*
X152731060Y-55416534D01*
X152825706Y-55580466D01*
X152952369Y-55721139D01*
X153105509Y-55832401D01*
X153278437Y-55909394D01*
X153463592Y-55948750D01*
X153463594Y-55948750D01*
X153652886Y-55948750D01*
X153652888Y-55948750D01*
X153776324Y-55922512D01*
X153838043Y-55909394D01*
X154010970Y-55832401D01*
X154010970Y-55832400D01*
X154120355Y-55752929D01*
X154167459Y-55731957D01*
X154219021Y-55731957D01*
X154266125Y-55752929D01*
X154375509Y-55832401D01*
X154548437Y-55909394D01*
X154733592Y-55948750D01*
X154733594Y-55948750D01*
X154922886Y-55948750D01*
X154922888Y-55948750D01*
X155046324Y-55922512D01*
X155108043Y-55909394D01*
X155280970Y-55832401D01*
X155280970Y-55832400D01*
X155390355Y-55752929D01*
X155437459Y-55731957D01*
X155489021Y-55731957D01*
X155536125Y-55752929D01*
X155645509Y-55832401D01*
X155818437Y-55909394D01*
X156003592Y-55948750D01*
X156003594Y-55948750D01*
X156192886Y-55948750D01*
X156192888Y-55948750D01*
X156316324Y-55922512D01*
X156378043Y-55909394D01*
X156550970Y-55832401D01*
X156550970Y-55832400D01*
X156660355Y-55752929D01*
X156707459Y-55731957D01*
X156759021Y-55731957D01*
X156806125Y-55752929D01*
X156915509Y-55832401D01*
X157088437Y-55909394D01*
X157273592Y-55948750D01*
X157273594Y-55948750D01*
X157462886Y-55948750D01*
X157462888Y-55948750D01*
X157586324Y-55922512D01*
X157648043Y-55909394D01*
X157820970Y-55832401D01*
X157820970Y-55832400D01*
X157930355Y-55752929D01*
X157977459Y-55731957D01*
X158029021Y-55731957D01*
X158076125Y-55752929D01*
X158185509Y-55832401D01*
X158358437Y-55909394D01*
X158543592Y-55948750D01*
X158543594Y-55948750D01*
X158732886Y-55948750D01*
X158732888Y-55948750D01*
X158856324Y-55922512D01*
X158918043Y-55909394D01*
X159090970Y-55832401D01*
X159090970Y-55832400D01*
X159200355Y-55752929D01*
X159247459Y-55731957D01*
X159299021Y-55731957D01*
X159346125Y-55752929D01*
X159455509Y-55832401D01*
X159628437Y-55909394D01*
X159813592Y-55948750D01*
X159813594Y-55948750D01*
X160002886Y-55948750D01*
X160002888Y-55948750D01*
X160126324Y-55922512D01*
X160188043Y-55909394D01*
X160360970Y-55832401D01*
X160360970Y-55832400D01*
X160470355Y-55752929D01*
X160517459Y-55731957D01*
X160569021Y-55731957D01*
X160616125Y-55752929D01*
X160725509Y-55832401D01*
X160898437Y-55909394D01*
X161083592Y-55948750D01*
X161083594Y-55948750D01*
X161272886Y-55948750D01*
X161272888Y-55948750D01*
X161396324Y-55922512D01*
X161458043Y-55909394D01*
X161630970Y-55832401D01*
X161630970Y-55832400D01*
X161784110Y-55721139D01*
X161910773Y-55580466D01*
X162005419Y-55416534D01*
X162057521Y-55256180D01*
X162063914Y-55236506D01*
X162083700Y-55048250D01*
X162063914Y-54859994D01*
X162005419Y-54679966D01*
X162005419Y-54679965D01*
X161910773Y-54516033D01*
X161784110Y-54375360D01*
X161630970Y-54264098D01*
X161458042Y-54187105D01*
X161272888Y-54147750D01*
X161272886Y-54147750D01*
X161083594Y-54147750D01*
X161083592Y-54147750D01*
X160898437Y-54187105D01*
X160725509Y-54264098D01*
X160616125Y-54343571D01*
X160569021Y-54364543D01*
X160517459Y-54364543D01*
X160470355Y-54343571D01*
X160360970Y-54264098D01*
X160188042Y-54187105D01*
X160002888Y-54147750D01*
X160002886Y-54147750D01*
X159813594Y-54147750D01*
X159813592Y-54147750D01*
X159628437Y-54187105D01*
X159455509Y-54264098D01*
X159346125Y-54343571D01*
X159299021Y-54364543D01*
X159247459Y-54364543D01*
X159200355Y-54343571D01*
X159090970Y-54264098D01*
X158918042Y-54187105D01*
X158732888Y-54147750D01*
X158732886Y-54147750D01*
X158543594Y-54147750D01*
X158543592Y-54147750D01*
X158358437Y-54187105D01*
X158185509Y-54264098D01*
X158076125Y-54343571D01*
X158029021Y-54364543D01*
X157977459Y-54364543D01*
X157930355Y-54343571D01*
X157820970Y-54264098D01*
X157648042Y-54187105D01*
X157462888Y-54147750D01*
X157462886Y-54147750D01*
X157273594Y-54147750D01*
X157273592Y-54147750D01*
X157088437Y-54187105D01*
X156915509Y-54264098D01*
X156806125Y-54343571D01*
X156759021Y-54364543D01*
X156707459Y-54364543D01*
X156660355Y-54343571D01*
X156550970Y-54264098D01*
X156378042Y-54187105D01*
X156192888Y-54147750D01*
X156192886Y-54147750D01*
X156003594Y-54147750D01*
X156003592Y-54147750D01*
X155818437Y-54187105D01*
X155645509Y-54264098D01*
X155536125Y-54343571D01*
X155489021Y-54364543D01*
X155437459Y-54364543D01*
X155390355Y-54343571D01*
X155280970Y-54264098D01*
X155108042Y-54187105D01*
X154922888Y-54147750D01*
X154922886Y-54147750D01*
X154733594Y-54147750D01*
X154733592Y-54147750D01*
X154548437Y-54187105D01*
X154375509Y-54264098D01*
X154266125Y-54343571D01*
X154219021Y-54364543D01*
X154167459Y-54364543D01*
X154120355Y-54343571D01*
X154010970Y-54264098D01*
X153838042Y-54187105D01*
X153652888Y-54147750D01*
X153652886Y-54147750D01*
X153463594Y-54147750D01*
X153463592Y-54147750D01*
X153278437Y-54187105D01*
X153105509Y-54264098D01*
X152952369Y-54375360D01*
X152825706Y-54516033D01*
X152731060Y-54679965D01*
X152672566Y-54859992D01*
X152652780Y-55048249D01*
X136032240Y-55048249D01*
X136032240Y-51873250D01*
X153922780Y-51873250D01*
X153942566Y-52061507D01*
X154001060Y-52241534D01*
X154095706Y-52405466D01*
X154222369Y-52546139D01*
X154375509Y-52657401D01*
X154548437Y-52734394D01*
X154733592Y-52773750D01*
X154733594Y-52773750D01*
X154922886Y-52773750D01*
X154922888Y-52773750D01*
X155046324Y-52747512D01*
X155108043Y-52734394D01*
X155280970Y-52657401D01*
X155280970Y-52657400D01*
X155390355Y-52577929D01*
X155437459Y-52556957D01*
X155489021Y-52556957D01*
X155536125Y-52577929D01*
X155645509Y-52657401D01*
X155818437Y-52734394D01*
X156003592Y-52773750D01*
X156003594Y-52773750D01*
X156192886Y-52773750D01*
X156192888Y-52773750D01*
X156316324Y-52747512D01*
X156378043Y-52734394D01*
X156550970Y-52657401D01*
X156550970Y-52657400D01*
X156660355Y-52577929D01*
X156707459Y-52556957D01*
X156759021Y-52556957D01*
X156806125Y-52577929D01*
X156915509Y-52657401D01*
X157088437Y-52734394D01*
X157273592Y-52773750D01*
X157273594Y-52773750D01*
X157462886Y-52773750D01*
X157462888Y-52773750D01*
X157586324Y-52747512D01*
X157648043Y-52734394D01*
X157820970Y-52657401D01*
X157820970Y-52657400D01*
X157930355Y-52577929D01*
X157977459Y-52556957D01*
X158029021Y-52556957D01*
X158076125Y-52577929D01*
X158185509Y-52657401D01*
X158358437Y-52734394D01*
X158543592Y-52773750D01*
X158543594Y-52773750D01*
X158732886Y-52773750D01*
X158732888Y-52773750D01*
X158856324Y-52747512D01*
X158918043Y-52734394D01*
X159090970Y-52657401D01*
X159090970Y-52657400D01*
X159200355Y-52577929D01*
X159247459Y-52556957D01*
X159299021Y-52556957D01*
X159346125Y-52577929D01*
X159455509Y-52657401D01*
X159628437Y-52734394D01*
X159813592Y-52773750D01*
X159813594Y-52773750D01*
X160002886Y-52773750D01*
X160002888Y-52773750D01*
X160126324Y-52747512D01*
X160188043Y-52734394D01*
X160360970Y-52657401D01*
X160360969Y-52657401D01*
X160514110Y-52546139D01*
X160640773Y-52405466D01*
X160735419Y-52241534D01*
X160735419Y-52241533D01*
X160793914Y-52061506D01*
X160813700Y-51873250D01*
X160793914Y-51684994D01*
X160735419Y-51504966D01*
X160735419Y-51504965D01*
X160640773Y-51341033D01*
X160514110Y-51200360D01*
X160360970Y-51089098D01*
X160188042Y-51012105D01*
X160002888Y-50972750D01*
X160002886Y-50972750D01*
X159813594Y-50972750D01*
X159813592Y-50972750D01*
X159628437Y-51012105D01*
X159455509Y-51089098D01*
X159346125Y-51168571D01*
X159299021Y-51189543D01*
X159247459Y-51189543D01*
X159200355Y-51168571D01*
X159090970Y-51089098D01*
X158918042Y-51012105D01*
X158732888Y-50972750D01*
X158732886Y-50972750D01*
X158543594Y-50972750D01*
X158543592Y-50972750D01*
X158358437Y-51012105D01*
X158185509Y-51089098D01*
X158076125Y-51168571D01*
X158029021Y-51189543D01*
X157977459Y-51189543D01*
X157930355Y-51168571D01*
X157820970Y-51089098D01*
X157648042Y-51012105D01*
X157462888Y-50972750D01*
X157462886Y-50972750D01*
X157273594Y-50972750D01*
X157273592Y-50972750D01*
X157088437Y-51012105D01*
X156915509Y-51089098D01*
X156806125Y-51168571D01*
X156759021Y-51189543D01*
X156707459Y-51189543D01*
X156660355Y-51168571D01*
X156550970Y-51089098D01*
X156378042Y-51012105D01*
X156192888Y-50972750D01*
X156192886Y-50972750D01*
X156003594Y-50972750D01*
X156003592Y-50972750D01*
X155818437Y-51012105D01*
X155645509Y-51089098D01*
X155536125Y-51168571D01*
X155489021Y-51189543D01*
X155437459Y-51189543D01*
X155390355Y-51168571D01*
X155280970Y-51089098D01*
X155108042Y-51012105D01*
X154922888Y-50972750D01*
X154922886Y-50972750D01*
X154733594Y-50972750D01*
X154733592Y-50972750D01*
X154548437Y-51012105D01*
X154375509Y-51089098D01*
X154222369Y-51200360D01*
X154095706Y-51341033D01*
X154001060Y-51504965D01*
X153942566Y-51684992D01*
X153922780Y-51873250D01*
X136032240Y-51873250D01*
X136032240Y-50603250D01*
X126454030Y-50603250D01*
X126398922Y-50590331D01*
X126355296Y-50554267D01*
X126332243Y-50502572D01*
X126334566Y-50446018D01*
X126361781Y-50396388D01*
X126447107Y-50301395D01*
X126760688Y-49952294D01*
X126763656Y-49949106D01*
X127529059Y-49155878D01*
X127532084Y-49152853D01*
X128003214Y-48698249D01*
X152652780Y-48698249D01*
X152672566Y-48886507D01*
X152731060Y-49066534D01*
X152825706Y-49230466D01*
X152952369Y-49371139D01*
X153105509Y-49482401D01*
X153278437Y-49559394D01*
X153463592Y-49598750D01*
X153463594Y-49598750D01*
X153652886Y-49598750D01*
X153652888Y-49598750D01*
X153776323Y-49572512D01*
X153838043Y-49559394D01*
X154010970Y-49482401D01*
X154080182Y-49432116D01*
X154120355Y-49402929D01*
X154167459Y-49381957D01*
X154219021Y-49381957D01*
X154266125Y-49402929D01*
X154375509Y-49482401D01*
X154548437Y-49559394D01*
X154733592Y-49598750D01*
X154733594Y-49598750D01*
X154922886Y-49598750D01*
X154922888Y-49598750D01*
X155046323Y-49572512D01*
X155108043Y-49559394D01*
X155280970Y-49482401D01*
X155350182Y-49432116D01*
X155390355Y-49402929D01*
X155437459Y-49381957D01*
X155489021Y-49381957D01*
X155536125Y-49402929D01*
X155645509Y-49482401D01*
X155818437Y-49559394D01*
X156003592Y-49598750D01*
X156003594Y-49598750D01*
X156192886Y-49598750D01*
X156192888Y-49598750D01*
X156316323Y-49572512D01*
X156378043Y-49559394D01*
X156550970Y-49482401D01*
X156620182Y-49432116D01*
X156660355Y-49402929D01*
X156707459Y-49381957D01*
X156759021Y-49381957D01*
X156806125Y-49402929D01*
X156915509Y-49482401D01*
X157088437Y-49559394D01*
X157273592Y-49598750D01*
X157273594Y-49598750D01*
X157462886Y-49598750D01*
X157462888Y-49598750D01*
X157586323Y-49572512D01*
X157648043Y-49559394D01*
X157820970Y-49482401D01*
X157890182Y-49432116D01*
X157930355Y-49402929D01*
X157977459Y-49381957D01*
X158029021Y-49381957D01*
X158076125Y-49402929D01*
X158185509Y-49482401D01*
X158358437Y-49559394D01*
X158543592Y-49598750D01*
X158543594Y-49598750D01*
X158732886Y-49598750D01*
X158732888Y-49598750D01*
X158856323Y-49572512D01*
X158918043Y-49559394D01*
X159090970Y-49482401D01*
X159160182Y-49432116D01*
X159200355Y-49402929D01*
X159247459Y-49381957D01*
X159299021Y-49381957D01*
X159346125Y-49402929D01*
X159455509Y-49482401D01*
X159628437Y-49559394D01*
X159813592Y-49598750D01*
X159813594Y-49598750D01*
X160002886Y-49598750D01*
X160002888Y-49598750D01*
X160126323Y-49572512D01*
X160188043Y-49559394D01*
X160360970Y-49482401D01*
X160430182Y-49432116D01*
X160470355Y-49402929D01*
X160517459Y-49381957D01*
X160569021Y-49381957D01*
X160616125Y-49402929D01*
X160725509Y-49482401D01*
X160898437Y-49559394D01*
X161083592Y-49598750D01*
X161083594Y-49598750D01*
X161272886Y-49598750D01*
X161272888Y-49598750D01*
X161396323Y-49572512D01*
X161458043Y-49559394D01*
X161630970Y-49482401D01*
X161700182Y-49432116D01*
X161784110Y-49371139D01*
X161910773Y-49230466D01*
X162005419Y-49066534D01*
X162005419Y-49066533D01*
X162063914Y-48886506D01*
X162083700Y-48698250D01*
X162063914Y-48509994D01*
X162005419Y-48329966D01*
X162005419Y-48329965D01*
X161910773Y-48166033D01*
X161784110Y-48025360D01*
X161630970Y-47914098D01*
X161458042Y-47837105D01*
X161272888Y-47797750D01*
X161272886Y-47797750D01*
X161083594Y-47797750D01*
X161083592Y-47797750D01*
X160898437Y-47837105D01*
X160725509Y-47914098D01*
X160616125Y-47993571D01*
X160569021Y-48014543D01*
X160517459Y-48014543D01*
X160470355Y-47993571D01*
X160360970Y-47914098D01*
X160188042Y-47837105D01*
X160002888Y-47797750D01*
X160002886Y-47797750D01*
X159813594Y-47797750D01*
X159813592Y-47797750D01*
X159628437Y-47837105D01*
X159455509Y-47914098D01*
X159346125Y-47993571D01*
X159299021Y-48014543D01*
X159247459Y-48014543D01*
X159200355Y-47993571D01*
X159090970Y-47914098D01*
X158918042Y-47837105D01*
X158732888Y-47797750D01*
X158732886Y-47797750D01*
X158543594Y-47797750D01*
X158543592Y-47797750D01*
X158358437Y-47837105D01*
X158185509Y-47914098D01*
X158076125Y-47993571D01*
X158029021Y-48014543D01*
X157977459Y-48014543D01*
X157930355Y-47993571D01*
X157820970Y-47914098D01*
X157648042Y-47837105D01*
X157462888Y-47797750D01*
X157462886Y-47797750D01*
X157273594Y-47797750D01*
X157273592Y-47797750D01*
X157088437Y-47837105D01*
X156915509Y-47914098D01*
X156806125Y-47993571D01*
X156759021Y-48014543D01*
X156707459Y-48014543D01*
X156660355Y-47993571D01*
X156550970Y-47914098D01*
X156378042Y-47837105D01*
X156192888Y-47797750D01*
X156192886Y-47797750D01*
X156003594Y-47797750D01*
X156003592Y-47797750D01*
X155818437Y-47837105D01*
X155645509Y-47914098D01*
X155536125Y-47993571D01*
X155489021Y-48014543D01*
X155437459Y-48014543D01*
X155390355Y-47993571D01*
X155280970Y-47914098D01*
X155108042Y-47837105D01*
X154922888Y-47797750D01*
X154922886Y-47797750D01*
X154733594Y-47797750D01*
X154733592Y-47797750D01*
X154548437Y-47837105D01*
X154375509Y-47914098D01*
X154266125Y-47993571D01*
X154219021Y-48014543D01*
X154167459Y-48014543D01*
X154120355Y-47993571D01*
X154010970Y-47914098D01*
X153838042Y-47837105D01*
X153652888Y-47797750D01*
X153652886Y-47797750D01*
X153463594Y-47797750D01*
X153463592Y-47797750D01*
X153278437Y-47837105D01*
X153105509Y-47914098D01*
X152952369Y-48025360D01*
X152825706Y-48166033D01*
X152731060Y-48329965D01*
X152672566Y-48509992D01*
X152652780Y-48698249D01*
X128003214Y-48698249D01*
X128325313Y-48387449D01*
X128328513Y-48384471D01*
X128389194Y-48329965D01*
X128937880Y-47837106D01*
X129148522Y-47647897D01*
X129151848Y-47645014D01*
X129997615Y-46938186D01*
X130000979Y-46935475D01*
X130871459Y-46259265D01*
X130874949Y-46256652D01*
X131769032Y-45611927D01*
X131772601Y-45609449D01*
X132453526Y-45154469D01*
X132516362Y-45133720D01*
X132580923Y-45148242D01*
X132628821Y-45193901D01*
X132830374Y-45530732D01*
X133085782Y-45878826D01*
X133372663Y-46201474D01*
X133688503Y-46495846D01*
X133938545Y-46688487D01*
X134030514Y-46759343D01*
X134395699Y-46989658D01*
X134780846Y-47184764D01*
X135182571Y-47342947D01*
X135597343Y-47462817D01*
X136021518Y-47543321D01*
X136351772Y-47574382D01*
X136451365Y-47583750D01*
X136451367Y-47583750D01*
X136775111Y-47583750D01*
X136775117Y-47583750D01*
X137098512Y-47568575D01*
X137525993Y-47508042D01*
X137945928Y-47407745D01*
X138354626Y-47268566D01*
X138748495Y-47091727D01*
X138928518Y-46989658D01*
X139124075Y-46878782D01*
X139301068Y-46755192D01*
X139478062Y-46631603D01*
X139807348Y-46352363D01*
X140109039Y-46043515D01*
X140380484Y-45707773D01*
X140619296Y-45348087D01*
X140823377Y-44967620D01*
X140990935Y-44569713D01*
X141120495Y-44157865D01*
X141210920Y-43735695D01*
X141261415Y-43306911D01*
X141271536Y-42875284D01*
X141256340Y-42659587D01*
X141241196Y-42444611D01*
X141205789Y-42230808D01*
X141170657Y-42018660D01*
X141060544Y-41601192D01*
X140985333Y-41396217D01*
X140980214Y-41328884D01*
X141011140Y-41268850D01*
X141068938Y-41233925D01*
X141782046Y-41038293D01*
X141786256Y-41037220D01*
X142858971Y-40783731D01*
X142863215Y-40782807D01*
X143944291Y-40567768D01*
X143948601Y-40566991D01*
X145036686Y-40390670D01*
X145040952Y-40390057D01*
X146134632Y-40252687D01*
X146138998Y-40252217D01*
X147236863Y-40153972D01*
X147241174Y-40153663D01*
X148341874Y-40094664D01*
X148346242Y-40094508D01*
X149448317Y-40074835D01*
X149452687Y-40074835D01*
X150554759Y-40094508D01*
G37*
%TD.AperFunction*%
%TD*%
M02*
