%TF.GenerationSoftware,KiCad,Pcbnew,7.0.1*%
%TF.CreationDate,2024-07-26T16:33:55+03:00*%
%TF.ProjectId,_______ _____,21383b3e-3230-44f2-903f-3b3042302e6b,rev?*%
%TF.SameCoordinates,Original*%
%TF.FileFunction,Copper,L2,Inr*%
%TF.FilePolarity,Positive*%
%FSLAX46Y46*%
G04 Gerber Fmt 4.6, Leading zero omitted, Abs format (unit mm)*
G04 Created by KiCad (PCBNEW 7.0.1) date 2024-07-26 16:33:55*
%MOMM*%
%LPD*%
G01*
G04 APERTURE LIST*
%TA.AperFunction,ComponentPad*%
%ADD10C,5.000000*%
%TD*%
%TA.AperFunction,ComponentPad*%
%ADD11C,8.200000*%
%TD*%
%TA.AperFunction,ComponentPad*%
%ADD12C,6.000000*%
%TD*%
%TA.AperFunction,ComponentPad*%
%ADD13R,1.350000X1.350000*%
%TD*%
%TA.AperFunction,ComponentPad*%
%ADD14O,1.350000X1.350000*%
%TD*%
%TA.AperFunction,ComponentPad*%
%ADD15C,2.000000*%
%TD*%
%TA.AperFunction,ViaPad*%
%ADD16C,0.800000*%
%TD*%
%TA.AperFunction,Conductor*%
%ADD17C,0.250000*%
%TD*%
G04 APERTURE END LIST*
D10*
%TO.N,Earth_Protective*%
%TO.C,J8*%
X132222240Y-124898250D03*
%TD*%
D11*
%TO.N,C*%
%TO.C,J4*%
X127142240Y-58223250D03*
%TD*%
%TO.N,A*%
%TO.C,J1*%
X171592240Y-58223250D03*
%TD*%
D10*
%TO.N,Earth_Protective*%
%TO.C,J2*%
X167147240Y-124898250D03*
%TD*%
D12*
%TO.N,Shunt_1*%
%TO.C,J6*%
X144287240Y-119483250D03*
%TD*%
D13*
%TO.N,+3.3V*%
%TO.C,J7*%
X150367240Y-70686250D03*
D14*
%TO.N,~{OS}_MCU*%
X148367240Y-70686250D03*
%TO.N,G3*%
X150367240Y-72686250D03*
%TO.N,SCL_MCU*%
X148367240Y-72686250D03*
%TO.N,B*%
X150367240Y-74686250D03*
%TO.N,SDA_MCU*%
X148367240Y-74686250D03*
%TO.N,G2*%
X150367240Y-76686250D03*
%TO.N,G4*%
X148367240Y-76686250D03*
%TO.N,GND*%
X150367240Y-78686250D03*
X148367240Y-78686250D03*
%TO.N,G1*%
X150367240Y-80686250D03*
%TO.N,G6*%
X148367240Y-80686250D03*
%TO.N,A*%
X150367240Y-82686250D03*
%TO.N,C*%
X148367240Y-82686250D03*
%TO.N,GND*%
X150367240Y-84686250D03*
%TO.N,G5*%
X148367240Y-84686250D03*
%TO.N,Shunt_1*%
X150367240Y-86686250D03*
%TO.N,GND*%
X148367240Y-86686250D03*
%TO.N,Shunt_1*%
X150367240Y-88686250D03*
%TO.N,Shunt_2*%
X148367240Y-88686250D03*
%TD*%
D11*
%TO.N,B*%
%TO.C,J3*%
X149367240Y-43618250D03*
%TD*%
D15*
%TO.N,Earth_Protective*%
%TO.C,C44*%
X160797240Y-124838250D03*
%TO.N,Net-(J5-Pin_1)*%
X160797240Y-117338250D03*
%TD*%
D12*
%TO.N,Net-(J5-Pin_1)*%
%TO.C,J5*%
X154447240Y-119483250D03*
%TD*%
D15*
%TO.N,Shunt_1*%
%TO.C,C45*%
X137937240Y-117338250D03*
%TO.N,Earth_Protective*%
X137937240Y-124838250D03*
%TD*%
D16*
%TO.N,Shunt_2*%
X143510000Y-78105000D03*
X143510000Y-79375000D03*
X144145000Y-77470000D03*
X144145000Y-78740000D03*
X144145000Y-80010000D03*
X154940000Y-80010000D03*
%TO.N,G1*%
X158892240Y-77273250D03*
%TO.N,A*%
X176672240Y-69653250D03*
X158892240Y-79813250D03*
X170322240Y-65843250D03*
X173497240Y-67113250D03*
X158892240Y-81083250D03*
X173497240Y-70923250D03*
X158892240Y-82353250D03*
X173497240Y-65843250D03*
X170322240Y-70923250D03*
X173497240Y-69653250D03*
X170322240Y-68383250D03*
X173497240Y-68383250D03*
X170322240Y-72193250D03*
X176672240Y-64573250D03*
X170322240Y-64573250D03*
X176672240Y-68383250D03*
X176672240Y-67113250D03*
X158892240Y-78543250D03*
X158892240Y-86163250D03*
X176672240Y-70923250D03*
X158892240Y-84893250D03*
X176672240Y-72193250D03*
X176672240Y-65843250D03*
X158892240Y-83623250D03*
X170322240Y-69653250D03*
X170322240Y-67113250D03*
%TO.N,G2*%
X162702240Y-63938250D03*
%TO.N,GND*%
X144922240Y-62033250D03*
X162702240Y-95688250D03*
X163830000Y-72828250D03*
X162702240Y-65208250D03*
X163972240Y-93148250D03*
X176926240Y-82988250D03*
X135397240Y-66478250D03*
X162702240Y-70288250D03*
X159527240Y-91878250D03*
X135397240Y-65208250D03*
X164607240Y-94418250D03*
X160797240Y-91878250D03*
X164607240Y-91878250D03*
X124348240Y-75368250D03*
X163337240Y-94418250D03*
X146192240Y-62033250D03*
X124094240Y-81464250D03*
X147970240Y-57287750D03*
X164607240Y-98228250D03*
X139842240Y-109023250D03*
X165242240Y-93148250D03*
X158257240Y-91878250D03*
X163337240Y-96958250D03*
X135397240Y-69018250D03*
X177942240Y-75114250D03*
X162702240Y-69018250D03*
X139842240Y-99205750D03*
X135397240Y-67748250D03*
X135397240Y-70288250D03*
X142382240Y-62033250D03*
X143703040Y-99193450D03*
X135397240Y-63938250D03*
X141112240Y-62033250D03*
X163972240Y-110293250D03*
X143652240Y-109023250D03*
X162067240Y-91878250D03*
X162702240Y-66478250D03*
X143652240Y-62033250D03*
X163337240Y-98228250D03*
X164607240Y-96958250D03*
X135397240Y-71558250D03*
X138572240Y-62033250D03*
X163337240Y-91878250D03*
X163830000Y-71558250D03*
X163972240Y-95688250D03*
X162702240Y-67748250D03*
X139842240Y-62033250D03*
%TO.N,G3*%
X152415240Y-62668250D03*
%TO.N,B*%
X138572240Y-51873250D03*
X143652240Y-55048250D03*
X142382240Y-51873250D03*
X141112240Y-48698250D03*
X139842240Y-48698250D03*
X137302240Y-55048250D03*
X137302240Y-48698250D03*
X139842240Y-51873250D03*
X143652240Y-48698250D03*
X157622240Y-62668250D03*
X139842240Y-55048250D03*
X153812240Y-62668250D03*
X155082240Y-62668250D03*
X143652240Y-51873250D03*
X142382240Y-48698250D03*
X161432240Y-62668250D03*
X138572240Y-55048250D03*
X141112240Y-55048250D03*
X142382240Y-55048250D03*
X158892240Y-62668250D03*
X138572240Y-48698250D03*
X141112240Y-51873250D03*
X144922240Y-55048250D03*
X160162240Y-62668250D03*
X144922240Y-48698250D03*
X156352240Y-62668250D03*
%TO.N,G4*%
X137302240Y-62033250D03*
%TO.N,G5*%
X139842240Y-86163250D03*
%TO.N,C*%
X139842240Y-82353250D03*
X128412240Y-69653250D03*
X139842240Y-84893250D03*
X128412240Y-68383250D03*
X128412240Y-67113250D03*
X125237240Y-69653250D03*
X125237240Y-67113250D03*
X122062240Y-68383250D03*
X122062240Y-67113250D03*
X139842240Y-79813250D03*
X122062240Y-70923250D03*
X128412240Y-64573250D03*
X122062240Y-64573250D03*
X122062240Y-65843250D03*
X128412240Y-65843250D03*
X128412240Y-70923250D03*
X125237240Y-68383250D03*
X139842240Y-77273250D03*
X125237240Y-70923250D03*
X122062240Y-72193250D03*
X128412240Y-72193250D03*
X125237240Y-65843250D03*
X139842240Y-78543250D03*
X139842240Y-81083250D03*
X139842240Y-83623250D03*
X122062240Y-69653250D03*
%TO.N,G6*%
X135397240Y-72828250D03*
%TO.N,Shunt_1*%
X134762240Y-97593250D03*
X143652240Y-105213250D03*
X136032240Y-105213250D03*
X165877240Y-106483250D03*
X143652240Y-103943250D03*
X134762240Y-95053250D03*
X147462240Y-97593250D03*
X139842240Y-105213250D03*
X134762240Y-96323250D03*
X147462240Y-103943250D03*
X144287240Y-86442750D03*
X158750000Y-93726000D03*
X134762240Y-98863250D03*
X147462240Y-105213250D03*
X136398000Y-90678000D03*
X147320000Y-93726000D03*
X154940000Y-93726000D03*
X139842240Y-103943250D03*
X143510000Y-93726000D03*
X151130000Y-93726000D03*
X133350000Y-90805000D03*
%TO.N,Shunt_2*%
X153812240Y-69018250D03*
X157368240Y-51873250D03*
X126507240Y-85528250D03*
X154432000Y-70358000D03*
X151384000Y-91948000D03*
X169052240Y-81718250D03*
X153558240Y-55048250D03*
X126507240Y-79178250D03*
X172227240Y-77908250D03*
X159908240Y-51873250D03*
X158638240Y-55048250D03*
X165877240Y-77908250D03*
X157368240Y-48698250D03*
X129682240Y-81718250D03*
X169052240Y-84258250D03*
X154447240Y-67748250D03*
X155082240Y-66478250D03*
X126507240Y-77908250D03*
X172227240Y-79178250D03*
X132857240Y-77908250D03*
X143652240Y-65208250D03*
X129682240Y-79178250D03*
X165877240Y-84258250D03*
X172227240Y-84258250D03*
X126507240Y-82988250D03*
X156098240Y-55048250D03*
X151384000Y-90170000D03*
X132857240Y-85528250D03*
X150114000Y-90170000D03*
X169052240Y-82988250D03*
X154828240Y-51873250D03*
X132857240Y-81718250D03*
X159908240Y-55048250D03*
X129682240Y-84258250D03*
X154828240Y-48698250D03*
X156098240Y-51873250D03*
X159908240Y-48698250D03*
X172227240Y-82988250D03*
X165877240Y-79178250D03*
X153558240Y-48698250D03*
X126507240Y-84258250D03*
X155082240Y-69018250D03*
X129682240Y-82988250D03*
X132857240Y-82988250D03*
X152146000Y-91186000D03*
X165877240Y-81718250D03*
X161178240Y-55048250D03*
X158638240Y-51873250D03*
X143652240Y-70923250D03*
X155717240Y-67748250D03*
X153812240Y-66478250D03*
X144287240Y-66478250D03*
X165877240Y-85528250D03*
X149606000Y-91186000D03*
X154828240Y-55048250D03*
X155717240Y-65208250D03*
X144922240Y-65208250D03*
X126507240Y-81718250D03*
X154447240Y-65208250D03*
X161178240Y-48698250D03*
X172227240Y-85528250D03*
X165877240Y-80448250D03*
X150876000Y-91186000D03*
X132857240Y-79178250D03*
X158638240Y-48698250D03*
X132857240Y-84258250D03*
X129682240Y-80448250D03*
X150114000Y-91948000D03*
X169052240Y-80448250D03*
X139446000Y-90678000D03*
X165877240Y-82988250D03*
X169052240Y-79178250D03*
X156098240Y-48698250D03*
X126507240Y-80448250D03*
X145557240Y-66478250D03*
X144922240Y-72193250D03*
X172227240Y-80448250D03*
X148844000Y-91948000D03*
X172227240Y-81718250D03*
X132857240Y-80448250D03*
X157368240Y-55048250D03*
%TO.N,+3.3V*%
X120792240Y-75368250D03*
X150764240Y-61605750D03*
X174384056Y-75115342D03*
X148224240Y-66050750D03*
%TO.N,SDA_MCU*%
X153921356Y-75694733D03*
X121300240Y-79940250D03*
X142025166Y-74658101D03*
X175148240Y-79940250D03*
X150764240Y-60081750D03*
%TO.N,SCL_MCU*%
X176159941Y-79935951D03*
X149748240Y-60081750D03*
X154616364Y-74976424D03*
X141978295Y-75673650D03*
X122316240Y-79940250D03*
%TO.N,~{OS}_MCU*%
X148732240Y-60081750D03*
X141994489Y-76934952D03*
X177180240Y-79940250D03*
X123332240Y-79940250D03*
X155448000Y-74422000D03*
%TD*%
D17*
%TO.N,~{OS}_MCU*%
X147454545Y-70686250D02*
X148367240Y-70686250D01*
X142702795Y-76226646D02*
X142702795Y-75438000D01*
X142702795Y-75438000D02*
X147454545Y-70686250D01*
X141994489Y-76934952D02*
X142702795Y-76226646D01*
%TO.N,SDA_MCU*%
X151459350Y-73686250D02*
X151739600Y-73406000D01*
X149748240Y-61596445D02*
X150764240Y-60580445D01*
X151028400Y-68376800D02*
X150357840Y-68376800D01*
X149748240Y-67767200D02*
X149748240Y-61596445D01*
X150357840Y-68376800D02*
X149748240Y-67767200D01*
X148367240Y-74686250D02*
X149367240Y-73686250D01*
X149367240Y-73686250D02*
X151459350Y-73686250D01*
X151739600Y-69088000D02*
X151028400Y-68376800D01*
X151739600Y-73406000D02*
X151739600Y-69088000D01*
X150764240Y-60580445D02*
X150764240Y-60081750D01*
%TO.N,SCL_MCU*%
X149748240Y-60960049D02*
X149272240Y-61436049D01*
X149272240Y-61436049D02*
X149272240Y-70177036D01*
X149748240Y-60081750D02*
X149748240Y-60960049D01*
X149367240Y-71686250D02*
X148367240Y-72686250D01*
X149272240Y-70177036D02*
X149367240Y-70272036D01*
X149367240Y-70272036D02*
X149367240Y-71686250D01*
%TO.N,~{OS}_MCU*%
X148732240Y-61134945D02*
X146922240Y-62944945D01*
X148732240Y-60081750D02*
X148732240Y-61134945D01*
X148367240Y-68653250D02*
X148367240Y-70686250D01*
X146922240Y-67208250D02*
X148367240Y-68653250D01*
X146922240Y-62944945D02*
X146922240Y-67208250D01*
%TD*%
%TA.AperFunction,Conductor*%
%TO.N,GND*%
G36*
X153860043Y-40390056D02*
G01*
X153864325Y-40390671D01*
X154952392Y-40566989D01*
X154956722Y-40567770D01*
X156037776Y-40782805D01*
X156042043Y-40783733D01*
X157114734Y-41037216D01*
X157118970Y-41038297D01*
X157677846Y-41191617D01*
X157736955Y-41227968D01*
X157767280Y-41290384D01*
X157759321Y-41359319D01*
X157743545Y-41396784D01*
X157613986Y-41808629D01*
X157523559Y-42230808D01*
X157473064Y-42659587D01*
X157462944Y-43091221D01*
X157493283Y-43521888D01*
X157563824Y-43947844D01*
X157673934Y-44365303D01*
X157748936Y-44569711D01*
X157822659Y-44770631D01*
X157911061Y-44955783D01*
X158008683Y-45160247D01*
X158230374Y-45530732D01*
X158485782Y-45878826D01*
X158772663Y-46201474D01*
X159088503Y-46495846D01*
X159338545Y-46688487D01*
X159430514Y-46759343D01*
X159795699Y-46989658D01*
X160180846Y-47184764D01*
X160582571Y-47342947D01*
X160997343Y-47462817D01*
X161421518Y-47543321D01*
X161751435Y-47574351D01*
X161851365Y-47583750D01*
X161851367Y-47583750D01*
X162175111Y-47583750D01*
X162175117Y-47583750D01*
X162498512Y-47568575D01*
X162925993Y-47508042D01*
X163345928Y-47407745D01*
X163754626Y-47268566D01*
X164148495Y-47091727D01*
X164328518Y-46989658D01*
X164524075Y-46878782D01*
X164750183Y-46720897D01*
X164878062Y-46631603D01*
X165207348Y-46352363D01*
X165509039Y-46043515D01*
X165780484Y-45707773D01*
X166019296Y-45348087D01*
X166144150Y-45115321D01*
X166191525Y-45066491D01*
X166257538Y-45050006D01*
X166322310Y-45070835D01*
X166456122Y-45160246D01*
X167128368Y-45609426D01*
X167131997Y-45611945D01*
X167730483Y-46043515D01*
X168026028Y-46256633D01*
X168029571Y-46259286D01*
X168899997Y-46935454D01*
X168903415Y-46938209D01*
X169087110Y-47091727D01*
X169749136Y-47644999D01*
X169752481Y-47647897D01*
X170572490Y-48384471D01*
X170575717Y-48387476D01*
X171368891Y-49152826D01*
X171371971Y-49155906D01*
X172137309Y-49949067D01*
X172140326Y-49952307D01*
X172876900Y-50772316D01*
X172879798Y-50775661D01*
X173586577Y-51621368D01*
X173589355Y-51624815D01*
X174265511Y-52495226D01*
X174268164Y-52498769D01*
X174912847Y-53392793D01*
X174915371Y-53396429D01*
X175527714Y-54312865D01*
X175530107Y-54316589D01*
X176109347Y-55254292D01*
X176111606Y-55258099D01*
X176657008Y-56215879D01*
X176659130Y-56219764D01*
X177170014Y-57196429D01*
X177171995Y-57200387D01*
X177647684Y-58194642D01*
X177649523Y-58198669D01*
X178089423Y-59209274D01*
X178091117Y-59213364D01*
X178494662Y-60239015D01*
X178496209Y-60243162D01*
X178862893Y-61282576D01*
X178864291Y-61286776D01*
X179193642Y-62338616D01*
X179194889Y-62342863D01*
X179486493Y-63405801D01*
X179487587Y-63410090D01*
X179741057Y-64482725D01*
X179741998Y-64487051D01*
X179844857Y-65004157D01*
X179847240Y-65028348D01*
X179847240Y-77125337D01*
X179844997Y-77148813D01*
X179828541Y-77234159D01*
X179783562Y-77467436D01*
X179782676Y-77471637D01*
X179544016Y-78513861D01*
X179542986Y-78518030D01*
X179268362Y-79551439D01*
X179267187Y-79555569D01*
X178956965Y-80578791D01*
X178955648Y-80582879D01*
X178610178Y-81594753D01*
X178608721Y-81598792D01*
X178228409Y-82598135D01*
X178226812Y-82602121D01*
X177812140Y-83587660D01*
X177810406Y-83591589D01*
X177361861Y-84562172D01*
X177359993Y-84566038D01*
X176878088Y-85520552D01*
X176876086Y-85524351D01*
X176361444Y-86461564D01*
X176359312Y-86465292D01*
X175812529Y-87384120D01*
X175810270Y-87387772D01*
X175231971Y-88287160D01*
X175229586Y-88290731D01*
X174620510Y-89169531D01*
X174618003Y-89173017D01*
X173978877Y-90030184D01*
X173976251Y-90033582D01*
X173307815Y-90868119D01*
X173305073Y-90871424D01*
X172608125Y-91682337D01*
X172605270Y-91685544D01*
X171880694Y-92471804D01*
X171877730Y-92474911D01*
X171126353Y-93235622D01*
X171123283Y-93238625D01*
X170345986Y-93972891D01*
X170342813Y-93975785D01*
X169540755Y-94682523D01*
X169539130Y-94683930D01*
X169374012Y-94824415D01*
X169065198Y-95128175D01*
X168779089Y-95453403D01*
X168623574Y-95658252D01*
X168537809Y-95771224D01*
X168517175Y-95798403D01*
X168280818Y-96161374D01*
X168071227Y-96540466D01*
X167889513Y-96933674D01*
X167736624Y-97338936D01*
X167613343Y-97754185D01*
X167520315Y-98177245D01*
X167458028Y-98605898D01*
X167426805Y-99037921D01*
X167426813Y-99254502D01*
X167426813Y-108415611D01*
X167408094Y-108481124D01*
X167357589Y-108526855D01*
X166988988Y-108708343D01*
X166984122Y-108710740D01*
X166535065Y-108974902D01*
X166106852Y-109271623D01*
X165701804Y-109599289D01*
X165322180Y-109956077D01*
X165022151Y-110283228D01*
X164970047Y-110340042D01*
X164647358Y-110749057D01*
X164468230Y-111014436D01*
X164355884Y-111180876D01*
X164097231Y-111633119D01*
X163872831Y-112103280D01*
X163683904Y-112588807D01*
X163531500Y-113087001D01*
X163416458Y-113595114D01*
X163339410Y-114110374D01*
X163300779Y-114629925D01*
X163300779Y-115150896D01*
X163339411Y-115670461D01*
X163416456Y-116185693D01*
X163525538Y-116667484D01*
X163531501Y-116693822D01*
X163683904Y-117192014D01*
X163865567Y-117658871D01*
X163872832Y-117677540D01*
X164097231Y-118147701D01*
X164097234Y-118147707D01*
X164355886Y-118599948D01*
X164647358Y-119031764D01*
X164693823Y-119090659D01*
X164708645Y-119109446D01*
X164734568Y-119172850D01*
X164722873Y-119240344D01*
X164677129Y-119291330D01*
X164611294Y-119310250D01*
X158562124Y-119310250D01*
X158501889Y-119294637D01*
X158456823Y-119251730D01*
X158438273Y-119192334D01*
X158436307Y-119152320D01*
X158433278Y-119090659D01*
X158375604Y-118701850D01*
X158280097Y-118320566D01*
X158266802Y-118283410D01*
X158147681Y-117950486D01*
X158147680Y-117950484D01*
X158147678Y-117950478D01*
X157979621Y-117595153D01*
X157979620Y-117595151D01*
X157979618Y-117595147D01*
X157825639Y-117338249D01*
X159291596Y-117338249D01*
X159312131Y-117586066D01*
X159312131Y-117586069D01*
X159312132Y-117586071D01*
X159373177Y-117827131D01*
X159412458Y-117916683D01*
X159473065Y-118054854D01*
X159473067Y-118054857D01*
X159609076Y-118263035D01*
X159777496Y-118445988D01*
X159777499Y-118445990D01*
X159973725Y-118598720D01*
X159973727Y-118598721D01*
X159973731Y-118598724D01*
X160192430Y-118717078D01*
X160427626Y-118797821D01*
X160672905Y-118838750D01*
X160921575Y-118838750D01*
X161166854Y-118797821D01*
X161402050Y-118717078D01*
X161620749Y-118598724D01*
X161816984Y-118445988D01*
X161985404Y-118263035D01*
X162121413Y-118054857D01*
X162221303Y-117827131D01*
X162282348Y-117586071D01*
X162302883Y-117338250D01*
X162282348Y-117090429D01*
X162221303Y-116849369D01*
X162121413Y-116621643D01*
X161985404Y-116413465D01*
X161816984Y-116230512D01*
X161717320Y-116152940D01*
X161620754Y-116077779D01*
X161620750Y-116077776D01*
X161620749Y-116077776D01*
X161402050Y-115959422D01*
X161402046Y-115959420D01*
X161402045Y-115959420D01*
X161166855Y-115878679D01*
X160921575Y-115837750D01*
X160672905Y-115837750D01*
X160427624Y-115878679D01*
X160192434Y-115959420D01*
X160192430Y-115959421D01*
X160192430Y-115959422D01*
X160104950Y-116006763D01*
X159973725Y-116077779D01*
X159777499Y-116230509D01*
X159777496Y-116230511D01*
X159777496Y-116230512D01*
X159609076Y-116413465D01*
X159586794Y-116447570D01*
X159473065Y-116621645D01*
X159406105Y-116774300D01*
X159373177Y-116849369D01*
X159341239Y-116975488D01*
X159312131Y-117090433D01*
X159291596Y-117338249D01*
X157825639Y-117338249D01*
X157777549Y-117258015D01*
X157646683Y-117081563D01*
X157543398Y-116942299D01*
X157543396Y-116942297D01*
X157543394Y-116942294D01*
X157279432Y-116651057D01*
X156988195Y-116387095D01*
X156672474Y-116152940D01*
X156335342Y-115950871D01*
X156096168Y-115837750D01*
X155980012Y-115782812D01*
X155980009Y-115782811D01*
X155980003Y-115782808D01*
X155609929Y-115650394D01*
X155228641Y-115554886D01*
X154839833Y-115497212D01*
X154447240Y-115477924D01*
X154054646Y-115497212D01*
X153665838Y-115554886D01*
X153284550Y-115650394D01*
X152914476Y-115782808D01*
X152559137Y-115950871D01*
X152222005Y-116152940D01*
X151906284Y-116387095D01*
X151615047Y-116651057D01*
X151351085Y-116942294D01*
X151116930Y-117258015D01*
X150914861Y-117595147D01*
X150746798Y-117950486D01*
X150614384Y-118320560D01*
X150518876Y-118701848D01*
X150461202Y-119090657D01*
X150456207Y-119192334D01*
X150437657Y-119251730D01*
X150392591Y-119294637D01*
X150332356Y-119310250D01*
X147901150Y-119310250D01*
X147841034Y-119294703D01*
X147795992Y-119251960D01*
X147777320Y-119192740D01*
X147773342Y-119116843D01*
X147715946Y-118754461D01*
X147714988Y-118750886D01*
X147620982Y-118400051D01*
X147489495Y-118057514D01*
X147322922Y-117730598D01*
X147322919Y-117730593D01*
X147123093Y-117422886D01*
X146995383Y-117265178D01*
X146892189Y-117137744D01*
X146632746Y-116878301D01*
X146372409Y-116667484D01*
X146347603Y-116647396D01*
X146039896Y-116447570D01*
X145712975Y-116280994D01*
X145370440Y-116149508D01*
X145016028Y-116054543D01*
X144653646Y-115997147D01*
X144287240Y-115977946D01*
X143920833Y-115997147D01*
X143558451Y-116054543D01*
X143204039Y-116149508D01*
X142861504Y-116280994D01*
X142534583Y-116447570D01*
X142226876Y-116647396D01*
X141941730Y-116878304D01*
X141682294Y-117137740D01*
X141451386Y-117422886D01*
X141251560Y-117730593D01*
X141084984Y-118057514D01*
X140953498Y-118400049D01*
X140858533Y-118754461D01*
X140801137Y-119116843D01*
X140797160Y-119192740D01*
X140778488Y-119251960D01*
X140733446Y-119294703D01*
X140673330Y-119310250D01*
X134242624Y-119310250D01*
X134176514Y-119291157D01*
X134130763Y-119239757D01*
X134119459Y-119171880D01*
X134146085Y-119108428D01*
X134160409Y-119090659D01*
X134173645Y-119074240D01*
X134466989Y-118650105D01*
X134728446Y-118205603D01*
X134956610Y-117743128D01*
X135120644Y-117338249D01*
X136431596Y-117338249D01*
X136452131Y-117586066D01*
X136452131Y-117586069D01*
X136452132Y-117586071D01*
X136513177Y-117827131D01*
X136552458Y-117916683D01*
X136613065Y-118054854D01*
X136613067Y-118054857D01*
X136749076Y-118263035D01*
X136917496Y-118445988D01*
X136917499Y-118445990D01*
X137113725Y-118598720D01*
X137113727Y-118598721D01*
X137113731Y-118598724D01*
X137332430Y-118717078D01*
X137567626Y-118797821D01*
X137812905Y-118838750D01*
X138061575Y-118838750D01*
X138306854Y-118797821D01*
X138542050Y-118717078D01*
X138760749Y-118598724D01*
X138956984Y-118445988D01*
X139125404Y-118263035D01*
X139261413Y-118054857D01*
X139361303Y-117827131D01*
X139422348Y-117586071D01*
X139442883Y-117338250D01*
X139422348Y-117090429D01*
X139361303Y-116849369D01*
X139261413Y-116621643D01*
X139125404Y-116413465D01*
X138956984Y-116230512D01*
X138857320Y-116152940D01*
X138760754Y-116077779D01*
X138760750Y-116077776D01*
X138760749Y-116077776D01*
X138542050Y-115959422D01*
X138542046Y-115959420D01*
X138542045Y-115959420D01*
X138306855Y-115878679D01*
X138061575Y-115837750D01*
X137812905Y-115837750D01*
X137567624Y-115878679D01*
X137332434Y-115959420D01*
X137332430Y-115959421D01*
X137332430Y-115959422D01*
X137244950Y-116006763D01*
X137113725Y-116077779D01*
X136917499Y-116230509D01*
X136917496Y-116230511D01*
X136917496Y-116230512D01*
X136749076Y-116413465D01*
X136726794Y-116447570D01*
X136613065Y-116621645D01*
X136546105Y-116774300D01*
X136513177Y-116849369D01*
X136481239Y-116975488D01*
X136452131Y-117090433D01*
X136431596Y-117338249D01*
X135120644Y-117338249D01*
X135150251Y-117265170D01*
X135308329Y-116774300D01*
X135429992Y-116273161D01*
X135429991Y-116273161D01*
X135429994Y-116273153D01*
X135511531Y-115782812D01*
X135514584Y-115764452D01*
X135561652Y-115250909D01*
X135570941Y-114735297D01*
X135565100Y-114629925D01*
X135542401Y-114220395D01*
X135542401Y-114220392D01*
X135476187Y-113708966D01*
X135372653Y-113203770D01*
X135278141Y-112869465D01*
X135232361Y-112707531D01*
X135208872Y-112642964D01*
X135056058Y-112222902D01*
X134844701Y-111752509D01*
X134805911Y-111680769D01*
X134599429Y-111298888D01*
X134599428Y-111298886D01*
X134599424Y-111298879D01*
X134321547Y-110864452D01*
X134012568Y-110451568D01*
X133997593Y-110434350D01*
X133866161Y-110283228D01*
X133674148Y-110062449D01*
X133308110Y-109699190D01*
X133308103Y-109699183D01*
X132916423Y-109363744D01*
X132644492Y-109163462D01*
X132501196Y-109057921D01*
X132210175Y-108874882D01*
X132064664Y-108783362D01*
X131656215Y-108566522D01*
X131608091Y-108520898D01*
X131590359Y-108456999D01*
X131590359Y-106483249D01*
X164971780Y-106483249D01*
X164991566Y-106671507D01*
X165050060Y-106851534D01*
X165144706Y-107015466D01*
X165271369Y-107156139D01*
X165424509Y-107267401D01*
X165597437Y-107344394D01*
X165782592Y-107383750D01*
X165782594Y-107383750D01*
X165971886Y-107383750D01*
X165971888Y-107383750D01*
X166095324Y-107357512D01*
X166157043Y-107344394D01*
X166329970Y-107267401D01*
X166483111Y-107156138D01*
X166609773Y-107015466D01*
X166704419Y-106851534D01*
X166762914Y-106671506D01*
X166782700Y-106483250D01*
X166762914Y-106294994D01*
X166704419Y-106114966D01*
X166704419Y-106114965D01*
X166609773Y-105951033D01*
X166483110Y-105810360D01*
X166329970Y-105699098D01*
X166157042Y-105622105D01*
X165971888Y-105582750D01*
X165971886Y-105582750D01*
X165782594Y-105582750D01*
X165782592Y-105582750D01*
X165597437Y-105622105D01*
X165424509Y-105699098D01*
X165271369Y-105810360D01*
X165144706Y-105951033D01*
X165050060Y-106114965D01*
X164991566Y-106294992D01*
X164971780Y-106483249D01*
X131590359Y-106483249D01*
X131590359Y-105213250D01*
X135126780Y-105213250D01*
X135146566Y-105401507D01*
X135205060Y-105581534D01*
X135299706Y-105745466D01*
X135426369Y-105886139D01*
X135579509Y-105997401D01*
X135752437Y-106074394D01*
X135937592Y-106113750D01*
X135937594Y-106113750D01*
X136126886Y-106113750D01*
X136126888Y-106113750D01*
X136250323Y-106087512D01*
X136312043Y-106074394D01*
X136484970Y-105997401D01*
X136638111Y-105886138D01*
X136764773Y-105745466D01*
X136859419Y-105581534D01*
X136917914Y-105401506D01*
X136937700Y-105213250D01*
X138936780Y-105213250D01*
X138956566Y-105401507D01*
X139015060Y-105581534D01*
X139109706Y-105745466D01*
X139236369Y-105886139D01*
X139389509Y-105997401D01*
X139562437Y-106074394D01*
X139747592Y-106113750D01*
X139747594Y-106113750D01*
X139936886Y-106113750D01*
X139936888Y-106113750D01*
X140060323Y-106087512D01*
X140122043Y-106074394D01*
X140294970Y-105997401D01*
X140448111Y-105886138D01*
X140574773Y-105745466D01*
X140669419Y-105581534D01*
X140727914Y-105401506D01*
X140747700Y-105213250D01*
X142746780Y-105213250D01*
X142766566Y-105401507D01*
X142825060Y-105581534D01*
X142919706Y-105745466D01*
X143046369Y-105886139D01*
X143199509Y-105997401D01*
X143372437Y-106074394D01*
X143557592Y-106113750D01*
X143557594Y-106113750D01*
X143746886Y-106113750D01*
X143746888Y-106113750D01*
X143870323Y-106087512D01*
X143932043Y-106074394D01*
X144104970Y-105997401D01*
X144258111Y-105886138D01*
X144384773Y-105745466D01*
X144479419Y-105581534D01*
X144537914Y-105401506D01*
X144557700Y-105213250D01*
X146556780Y-105213250D01*
X146576566Y-105401507D01*
X146635060Y-105581534D01*
X146729706Y-105745466D01*
X146856369Y-105886139D01*
X147009509Y-105997401D01*
X147182437Y-106074394D01*
X147367592Y-106113750D01*
X147367594Y-106113750D01*
X147556886Y-106113750D01*
X147556888Y-106113750D01*
X147680323Y-106087512D01*
X147742043Y-106074394D01*
X147914970Y-105997401D01*
X148068111Y-105886138D01*
X148194773Y-105745466D01*
X148289419Y-105581534D01*
X148347914Y-105401506D01*
X148367700Y-105213250D01*
X148347914Y-105024994D01*
X148289419Y-104844966D01*
X148289419Y-104844965D01*
X148194775Y-104681037D01*
X148194774Y-104681036D01*
X148194773Y-104681034D01*
X148176933Y-104661221D01*
X148148767Y-104608249D01*
X148148767Y-104548251D01*
X148176933Y-104495278D01*
X148194773Y-104475466D01*
X148289419Y-104311534D01*
X148347914Y-104131506D01*
X148367700Y-103943250D01*
X148347914Y-103754994D01*
X148289419Y-103574966D01*
X148289419Y-103574965D01*
X148194773Y-103411033D01*
X148068110Y-103270360D01*
X147914970Y-103159098D01*
X147742042Y-103082105D01*
X147556888Y-103042750D01*
X147556886Y-103042750D01*
X147367594Y-103042750D01*
X147367592Y-103042750D01*
X147182437Y-103082105D01*
X147009509Y-103159098D01*
X146856369Y-103270360D01*
X146729706Y-103411033D01*
X146635060Y-103574965D01*
X146576566Y-103754992D01*
X146556780Y-103943249D01*
X146576566Y-104131507D01*
X146635060Y-104311534D01*
X146729706Y-104475466D01*
X146747545Y-104495278D01*
X146775712Y-104548252D01*
X146775712Y-104608248D01*
X146747545Y-104661222D01*
X146729706Y-104681033D01*
X146635060Y-104844965D01*
X146576566Y-105024992D01*
X146556780Y-105213250D01*
X144557700Y-105213250D01*
X144537914Y-105024994D01*
X144479419Y-104844966D01*
X144479419Y-104844965D01*
X144384775Y-104681037D01*
X144384774Y-104681036D01*
X144384773Y-104681034D01*
X144366933Y-104661221D01*
X144338767Y-104608249D01*
X144338767Y-104548251D01*
X144366933Y-104495278D01*
X144384773Y-104475466D01*
X144479419Y-104311534D01*
X144537914Y-104131506D01*
X144557700Y-103943250D01*
X144537914Y-103754994D01*
X144479419Y-103574966D01*
X144479419Y-103574965D01*
X144384773Y-103411033D01*
X144258110Y-103270360D01*
X144104970Y-103159098D01*
X143932042Y-103082105D01*
X143746888Y-103042750D01*
X143746886Y-103042750D01*
X143557594Y-103042750D01*
X143557592Y-103042750D01*
X143372437Y-103082105D01*
X143199509Y-103159098D01*
X143046369Y-103270360D01*
X142919706Y-103411033D01*
X142825060Y-103574965D01*
X142766566Y-103754992D01*
X142746780Y-103943250D01*
X142766566Y-104131507D01*
X142825060Y-104311534D01*
X142919706Y-104475466D01*
X142937545Y-104495278D01*
X142965712Y-104548252D01*
X142965712Y-104608248D01*
X142937545Y-104661222D01*
X142919706Y-104681033D01*
X142825060Y-104844965D01*
X142766566Y-105024992D01*
X142746780Y-105213250D01*
X140747700Y-105213250D01*
X140727914Y-105024994D01*
X140669419Y-104844966D01*
X140669419Y-104844965D01*
X140574775Y-104681037D01*
X140574774Y-104681036D01*
X140574773Y-104681034D01*
X140556933Y-104661221D01*
X140528767Y-104608249D01*
X140528767Y-104548251D01*
X140556933Y-104495278D01*
X140574773Y-104475466D01*
X140669419Y-104311534D01*
X140727914Y-104131506D01*
X140747700Y-103943250D01*
X140727914Y-103754994D01*
X140669419Y-103574966D01*
X140669419Y-103574965D01*
X140574773Y-103411033D01*
X140448110Y-103270360D01*
X140294970Y-103159098D01*
X140122042Y-103082105D01*
X139936888Y-103042750D01*
X139936886Y-103042750D01*
X139747594Y-103042750D01*
X139747592Y-103042750D01*
X139562437Y-103082105D01*
X139389509Y-103159098D01*
X139236369Y-103270360D01*
X139109706Y-103411033D01*
X139015060Y-103574965D01*
X138956566Y-103754992D01*
X138936780Y-103943250D01*
X138956566Y-104131507D01*
X139015060Y-104311534D01*
X139109706Y-104475466D01*
X139127545Y-104495278D01*
X139155712Y-104548252D01*
X139155712Y-104608248D01*
X139127545Y-104661222D01*
X139109706Y-104681033D01*
X139015060Y-104844965D01*
X138956566Y-105024992D01*
X138936780Y-105213250D01*
X136937700Y-105213250D01*
X136917914Y-105024994D01*
X136859419Y-104844966D01*
X136859419Y-104844965D01*
X136764773Y-104681033D01*
X136638110Y-104540360D01*
X136484970Y-104429098D01*
X136312042Y-104352105D01*
X136126888Y-104312750D01*
X136126886Y-104312750D01*
X135937594Y-104312750D01*
X135937592Y-104312750D01*
X135752437Y-104352105D01*
X135579509Y-104429098D01*
X135426369Y-104540360D01*
X135299706Y-104681033D01*
X135205060Y-104844965D01*
X135146566Y-105024992D01*
X135126780Y-105213250D01*
X131590359Y-105213250D01*
X131590359Y-99391054D01*
X131590370Y-99357736D01*
X131590443Y-99140074D01*
X131570477Y-98863249D01*
X133856780Y-98863249D01*
X133876566Y-99051507D01*
X133935060Y-99231534D01*
X134029706Y-99395466D01*
X134156369Y-99536139D01*
X134309509Y-99647401D01*
X134482437Y-99724394D01*
X134667592Y-99763750D01*
X134667594Y-99763750D01*
X134856886Y-99763750D01*
X134856888Y-99763750D01*
X134980324Y-99737512D01*
X135042043Y-99724394D01*
X135214970Y-99647401D01*
X135368111Y-99536138D01*
X135494773Y-99395466D01*
X135589419Y-99231534D01*
X135647914Y-99051506D01*
X135667700Y-98863250D01*
X135647914Y-98674994D01*
X135589419Y-98494966D01*
X135589419Y-98494965D01*
X135494775Y-98331037D01*
X135494774Y-98331036D01*
X135494773Y-98331034D01*
X135476933Y-98311221D01*
X135448767Y-98258249D01*
X135448767Y-98198251D01*
X135476933Y-98145278D01*
X135494773Y-98125466D01*
X135589419Y-97961534D01*
X135647914Y-97781506D01*
X135667700Y-97593250D01*
X135667700Y-97593249D01*
X146556780Y-97593249D01*
X146576566Y-97781507D01*
X146635060Y-97961534D01*
X146729706Y-98125466D01*
X146856369Y-98266139D01*
X147009509Y-98377401D01*
X147182437Y-98454394D01*
X147367592Y-98493750D01*
X147367594Y-98493750D01*
X147556886Y-98493750D01*
X147556888Y-98493750D01*
X147680323Y-98467512D01*
X147742043Y-98454394D01*
X147914970Y-98377401D01*
X148068111Y-98266138D01*
X148194773Y-98125466D01*
X148289419Y-97961534D01*
X148347914Y-97781506D01*
X148367700Y-97593250D01*
X148347914Y-97404994D01*
X148289419Y-97224966D01*
X148289419Y-97224965D01*
X148194773Y-97061033D01*
X148068110Y-96920360D01*
X147914970Y-96809098D01*
X147742042Y-96732105D01*
X147556888Y-96692750D01*
X147556886Y-96692750D01*
X147367594Y-96692750D01*
X147367592Y-96692750D01*
X147182437Y-96732105D01*
X147009509Y-96809098D01*
X146856369Y-96920360D01*
X146729706Y-97061033D01*
X146635060Y-97224965D01*
X146576566Y-97404992D01*
X146556780Y-97593249D01*
X135667700Y-97593249D01*
X135647914Y-97404994D01*
X135589419Y-97224966D01*
X135589419Y-97224965D01*
X135494775Y-97061037D01*
X135494774Y-97061036D01*
X135494773Y-97061034D01*
X135476933Y-97041221D01*
X135448767Y-96988249D01*
X135448767Y-96928251D01*
X135476933Y-96875278D01*
X135494773Y-96855466D01*
X135589419Y-96691534D01*
X135647914Y-96511506D01*
X135667700Y-96323250D01*
X135647914Y-96134994D01*
X135589419Y-95954966D01*
X135589419Y-95954965D01*
X135494775Y-95791037D01*
X135494774Y-95791036D01*
X135494773Y-95791034D01*
X135476933Y-95771221D01*
X135448767Y-95718249D01*
X135448767Y-95658251D01*
X135476933Y-95605278D01*
X135494773Y-95585466D01*
X135589419Y-95421534D01*
X135647914Y-95241506D01*
X135667700Y-95053250D01*
X135647914Y-94864994D01*
X135589419Y-94684966D01*
X135589419Y-94684965D01*
X135494773Y-94521033D01*
X135368110Y-94380360D01*
X135214970Y-94269098D01*
X135042042Y-94192105D01*
X134856888Y-94152750D01*
X134856886Y-94152750D01*
X134667594Y-94152750D01*
X134667592Y-94152750D01*
X134482437Y-94192105D01*
X134309509Y-94269098D01*
X134156369Y-94380360D01*
X134029706Y-94521033D01*
X133935060Y-94684965D01*
X133876566Y-94864992D01*
X133856780Y-95053250D01*
X133876566Y-95241507D01*
X133935060Y-95421534D01*
X134029706Y-95585466D01*
X134047545Y-95605278D01*
X134075712Y-95658252D01*
X134075712Y-95718248D01*
X134047545Y-95771222D01*
X134029706Y-95791033D01*
X133935060Y-95954965D01*
X133876566Y-96134992D01*
X133856780Y-96323250D01*
X133876566Y-96511507D01*
X133935060Y-96691534D01*
X134029706Y-96855466D01*
X134047545Y-96875278D01*
X134075712Y-96928252D01*
X134075712Y-96988248D01*
X134047545Y-97041222D01*
X134029706Y-97061033D01*
X133935060Y-97224965D01*
X133876566Y-97404992D01*
X133856780Y-97593249D01*
X133876566Y-97781507D01*
X133935060Y-97961534D01*
X134029706Y-98125466D01*
X134047545Y-98145278D01*
X134075712Y-98198252D01*
X134075712Y-98258248D01*
X134047545Y-98311222D01*
X134029706Y-98331033D01*
X133935060Y-98494965D01*
X133876566Y-98674992D01*
X133856780Y-98863249D01*
X131570477Y-98863249D01*
X131559126Y-98705877D01*
X131496458Y-98275087D01*
X131458981Y-98105037D01*
X131402767Y-97849961D01*
X131278547Y-97432746D01*
X131137856Y-97061037D01*
X131124445Y-97025603D01*
X130941275Y-96630690D01*
X130729995Y-96250074D01*
X130491716Y-95885752D01*
X130491715Y-95885751D01*
X130491712Y-95885746D01*
X130227688Y-95539637D01*
X129939293Y-95213541D01*
X129628052Y-94909184D01*
X129582243Y-94870452D01*
X129580308Y-94868607D01*
X129575692Y-94864712D01*
X129575690Y-94864710D01*
X129460780Y-94767754D01*
X129459292Y-94766476D01*
X128802090Y-94192105D01*
X128649522Y-94058766D01*
X128646323Y-94055871D01*
X128294383Y-93726000D01*
X142604540Y-93726000D01*
X142624326Y-93914257D01*
X142682820Y-94094284D01*
X142777466Y-94258216D01*
X142904129Y-94398889D01*
X143057269Y-94510151D01*
X143230197Y-94587144D01*
X143415352Y-94626500D01*
X143415354Y-94626500D01*
X143604646Y-94626500D01*
X143604648Y-94626500D01*
X143728084Y-94600262D01*
X143789803Y-94587144D01*
X143962730Y-94510151D01*
X144115871Y-94398888D01*
X144242533Y-94258216D01*
X144337179Y-94094284D01*
X144395674Y-93914256D01*
X144415460Y-93726000D01*
X146414540Y-93726000D01*
X146434326Y-93914257D01*
X146492820Y-94094284D01*
X146587466Y-94258216D01*
X146714129Y-94398889D01*
X146867269Y-94510151D01*
X147040197Y-94587144D01*
X147225352Y-94626500D01*
X147225354Y-94626500D01*
X147414646Y-94626500D01*
X147414648Y-94626500D01*
X147538084Y-94600262D01*
X147599803Y-94587144D01*
X147772730Y-94510151D01*
X147925871Y-94398888D01*
X148052533Y-94258216D01*
X148147179Y-94094284D01*
X148205674Y-93914256D01*
X148225460Y-93726000D01*
X148205674Y-93537744D01*
X148147179Y-93357716D01*
X148147179Y-93357715D01*
X148052533Y-93193783D01*
X147925870Y-93053110D01*
X147772730Y-92941848D01*
X147599802Y-92864855D01*
X147414648Y-92825500D01*
X147414646Y-92825500D01*
X147225354Y-92825500D01*
X147225352Y-92825500D01*
X147040197Y-92864855D01*
X146867269Y-92941848D01*
X146714129Y-93053110D01*
X146587466Y-93193783D01*
X146492820Y-93357715D01*
X146434326Y-93537742D01*
X146414540Y-93726000D01*
X144415460Y-93726000D01*
X144395674Y-93537744D01*
X144337179Y-93357716D01*
X144337179Y-93357715D01*
X144242533Y-93193783D01*
X144115870Y-93053110D01*
X143962730Y-92941848D01*
X143789802Y-92864855D01*
X143604648Y-92825500D01*
X143604646Y-92825500D01*
X143415354Y-92825500D01*
X143415352Y-92825500D01*
X143230197Y-92864855D01*
X143057269Y-92941848D01*
X142904129Y-93053110D01*
X142777466Y-93193783D01*
X142682820Y-93357715D01*
X142624326Y-93537742D01*
X142604540Y-93726000D01*
X128294383Y-93726000D01*
X127862449Y-93321151D01*
X127859353Y-93318146D01*
X127352829Y-92809144D01*
X127101514Y-92556599D01*
X127098556Y-92553522D01*
X126367664Y-91766064D01*
X126364789Y-91762856D01*
X126281095Y-91666144D01*
X126171191Y-91539144D01*
X125661750Y-90950460D01*
X125658984Y-90947149D01*
X125544371Y-90805000D01*
X132444540Y-90805000D01*
X132450978Y-90866256D01*
X132464326Y-90993257D01*
X132522820Y-91173284D01*
X132617466Y-91337216D01*
X132744129Y-91477889D01*
X132897269Y-91589151D01*
X133070197Y-91666144D01*
X133255352Y-91705500D01*
X133255354Y-91705500D01*
X133444646Y-91705500D01*
X133444648Y-91705500D01*
X133568084Y-91679262D01*
X133629803Y-91666144D01*
X133802730Y-91589151D01*
X133955871Y-91477888D01*
X134082533Y-91337216D01*
X134177179Y-91173284D01*
X134235674Y-90993256D01*
X134255460Y-90805000D01*
X134242112Y-90678000D01*
X135492540Y-90678000D01*
X135512326Y-90866257D01*
X135570820Y-91046284D01*
X135665466Y-91210216D01*
X135792129Y-91350889D01*
X135945269Y-91462151D01*
X136118197Y-91539144D01*
X136303352Y-91578500D01*
X136303354Y-91578500D01*
X136492646Y-91578500D01*
X136492648Y-91578500D01*
X136616084Y-91552262D01*
X136677803Y-91539144D01*
X136850730Y-91462151D01*
X137003871Y-91350888D01*
X137130533Y-91210216D01*
X137225179Y-91046284D01*
X137283674Y-90866256D01*
X137303460Y-90678000D01*
X138540540Y-90678000D01*
X138560326Y-90866257D01*
X138618820Y-91046284D01*
X138713466Y-91210216D01*
X138840129Y-91350889D01*
X138993269Y-91462151D01*
X139166197Y-91539144D01*
X139351352Y-91578500D01*
X139351354Y-91578500D01*
X139540646Y-91578500D01*
X139540648Y-91578500D01*
X139664084Y-91552262D01*
X139725803Y-91539144D01*
X139898730Y-91462151D01*
X140051871Y-91350888D01*
X140178533Y-91210216D01*
X140273179Y-91046284D01*
X140331674Y-90866256D01*
X140351460Y-90678000D01*
X140331674Y-90489744D01*
X140279658Y-90329656D01*
X140273179Y-90309715D01*
X140178533Y-90145783D01*
X140051870Y-90005110D01*
X139898730Y-89893848D01*
X139725802Y-89816855D01*
X139540648Y-89777500D01*
X139540646Y-89777500D01*
X139351354Y-89777500D01*
X139351352Y-89777500D01*
X139166197Y-89816855D01*
X138993269Y-89893848D01*
X138840129Y-90005110D01*
X138713466Y-90145783D01*
X138618820Y-90309715D01*
X138560326Y-90489742D01*
X138540540Y-90678000D01*
X137303460Y-90678000D01*
X137283674Y-90489744D01*
X137231658Y-90329656D01*
X137225179Y-90309715D01*
X137130533Y-90145783D01*
X137003870Y-90005110D01*
X136850730Y-89893848D01*
X136677802Y-89816855D01*
X136492648Y-89777500D01*
X136492646Y-89777500D01*
X136303354Y-89777500D01*
X136303352Y-89777500D01*
X136118197Y-89816855D01*
X135945269Y-89893848D01*
X135792129Y-90005110D01*
X135665466Y-90145783D01*
X135570820Y-90309715D01*
X135512326Y-90489742D01*
X135492540Y-90678000D01*
X134242112Y-90678000D01*
X134235674Y-90616744D01*
X134177179Y-90436716D01*
X134177179Y-90436715D01*
X134082533Y-90272783D01*
X133955870Y-90132110D01*
X133802730Y-90020848D01*
X133629802Y-89943855D01*
X133444648Y-89904500D01*
X133444646Y-89904500D01*
X133255354Y-89904500D01*
X133255352Y-89904500D01*
X133070197Y-89943855D01*
X132897269Y-90020848D01*
X132744129Y-90132110D01*
X132617466Y-90272783D01*
X132522820Y-90436715D01*
X132464326Y-90616742D01*
X132464325Y-90616744D01*
X132464326Y-90616744D01*
X132444540Y-90805000D01*
X125544371Y-90805000D01*
X125085130Y-90235426D01*
X124984620Y-90110768D01*
X124981979Y-90107372D01*
X124917050Y-90020848D01*
X124337166Y-89248094D01*
X124334636Y-89244599D01*
X123945253Y-88686250D01*
X147186704Y-88686250D01*
X147206804Y-88903175D01*
X147266421Y-89112707D01*
X147363527Y-89307721D01*
X147494813Y-89481573D01*
X147642733Y-89616419D01*
X147655808Y-89628338D01*
X147671064Y-89637784D01*
X147841031Y-89743023D01*
X147992535Y-89801716D01*
X148044171Y-89821720D01*
X148258314Y-89861750D01*
X148476164Y-89861750D01*
X148476166Y-89861750D01*
X148690309Y-89821720D01*
X148825736Y-89769254D01*
X148893448Y-89743023D01*
X149078669Y-89628340D01*
X149078669Y-89628339D01*
X149078672Y-89628338D01*
X149139095Y-89573254D01*
X149201350Y-89542733D01*
X149270261Y-89550405D01*
X149324279Y-89593873D01*
X149346517Y-89659547D01*
X149330019Y-89726892D01*
X149286821Y-89801713D01*
X149228326Y-89981742D01*
X149208540Y-90170000D01*
X149219930Y-90278381D01*
X149214541Y-90329656D01*
X149188764Y-90374308D01*
X149162980Y-90393043D01*
X149163813Y-90394189D01*
X149000129Y-90513111D01*
X148873466Y-90653783D01*
X148778821Y-90817714D01*
X148722929Y-90989731D01*
X148687971Y-91043561D01*
X148630782Y-91072702D01*
X148564196Y-91086856D01*
X148391267Y-91163849D01*
X148238129Y-91275110D01*
X148111466Y-91415783D01*
X148016820Y-91579715D01*
X147958326Y-91759742D01*
X147938540Y-91947999D01*
X147958326Y-92136257D01*
X148016820Y-92316284D01*
X148111466Y-92480216D01*
X148238129Y-92620889D01*
X148391269Y-92732151D01*
X148564197Y-92809144D01*
X148749352Y-92848500D01*
X148749354Y-92848500D01*
X148938646Y-92848500D01*
X148938648Y-92848500D01*
X149062083Y-92822262D01*
X149123803Y-92809144D01*
X149296730Y-92732151D01*
X149296730Y-92732150D01*
X149406115Y-92652679D01*
X149453219Y-92631707D01*
X149504781Y-92631707D01*
X149551885Y-92652679D01*
X149661269Y-92732151D01*
X149834197Y-92809144D01*
X150019352Y-92848500D01*
X150019354Y-92848500D01*
X150208646Y-92848500D01*
X150208648Y-92848500D01*
X150332083Y-92822262D01*
X150393803Y-92809144D01*
X150440354Y-92788417D01*
X150519853Y-92753023D01*
X150578938Y-92742604D01*
X150635999Y-92761144D01*
X150677676Y-92804302D01*
X150694213Y-92861974D01*
X150681740Y-92920660D01*
X150643174Y-92966620D01*
X150524129Y-93053110D01*
X150397466Y-93193783D01*
X150302820Y-93357715D01*
X150244326Y-93537742D01*
X150224540Y-93726000D01*
X150244326Y-93914257D01*
X150302820Y-94094284D01*
X150397466Y-94258216D01*
X150524129Y-94398889D01*
X150677269Y-94510151D01*
X150850197Y-94587144D01*
X151035352Y-94626500D01*
X151035354Y-94626500D01*
X151224646Y-94626500D01*
X151224648Y-94626500D01*
X151348084Y-94600262D01*
X151409803Y-94587144D01*
X151582730Y-94510151D01*
X151735871Y-94398888D01*
X151862533Y-94258216D01*
X151957179Y-94094284D01*
X152015674Y-93914256D01*
X152035460Y-93726000D01*
X154034540Y-93726000D01*
X154054326Y-93914257D01*
X154112820Y-94094284D01*
X154207466Y-94258216D01*
X154334129Y-94398889D01*
X154487269Y-94510151D01*
X154660197Y-94587144D01*
X154845352Y-94626500D01*
X154845354Y-94626500D01*
X155034646Y-94626500D01*
X155034648Y-94626500D01*
X155158084Y-94600262D01*
X155219803Y-94587144D01*
X155392730Y-94510151D01*
X155545871Y-94398888D01*
X155672533Y-94258216D01*
X155767179Y-94094284D01*
X155825674Y-93914256D01*
X155845460Y-93726000D01*
X157844540Y-93726000D01*
X157864326Y-93914257D01*
X157922820Y-94094284D01*
X158017466Y-94258216D01*
X158144129Y-94398889D01*
X158297269Y-94510151D01*
X158470197Y-94587144D01*
X158655352Y-94626500D01*
X158655354Y-94626500D01*
X158844646Y-94626500D01*
X158844648Y-94626500D01*
X158968084Y-94600262D01*
X159029803Y-94587144D01*
X159202730Y-94510151D01*
X159355871Y-94398888D01*
X159482533Y-94258216D01*
X159577179Y-94094284D01*
X159635674Y-93914256D01*
X159655460Y-93726000D01*
X159635674Y-93537744D01*
X159577179Y-93357716D01*
X159577179Y-93357715D01*
X159482533Y-93193783D01*
X159355870Y-93053110D01*
X159202730Y-92941848D01*
X159029802Y-92864855D01*
X158844648Y-92825500D01*
X158844646Y-92825500D01*
X158655354Y-92825500D01*
X158655352Y-92825500D01*
X158470197Y-92864855D01*
X158297269Y-92941848D01*
X158144129Y-93053110D01*
X158017466Y-93193783D01*
X157922820Y-93357715D01*
X157864326Y-93537742D01*
X157844540Y-93726000D01*
X155845460Y-93726000D01*
X155825674Y-93537744D01*
X155767179Y-93357716D01*
X155767179Y-93357715D01*
X155672533Y-93193783D01*
X155545870Y-93053110D01*
X155392730Y-92941848D01*
X155219802Y-92864855D01*
X155034648Y-92825500D01*
X155034646Y-92825500D01*
X154845354Y-92825500D01*
X154845352Y-92825500D01*
X154660197Y-92864855D01*
X154487269Y-92941848D01*
X154334129Y-93053110D01*
X154207466Y-93193783D01*
X154112820Y-93357715D01*
X154054326Y-93537742D01*
X154034540Y-93726000D01*
X152035460Y-93726000D01*
X152015674Y-93537744D01*
X151957179Y-93357716D01*
X151957179Y-93357715D01*
X151862533Y-93193783D01*
X151735871Y-93053112D01*
X151674039Y-93008188D01*
X151633645Y-92958305D01*
X151623604Y-92894908D01*
X151646607Y-92834984D01*
X151696488Y-92794591D01*
X151836730Y-92732151D01*
X151836730Y-92732150D01*
X151836732Y-92732150D01*
X151989870Y-92620889D01*
X152116533Y-92480216D01*
X152211179Y-92316284D01*
X152267071Y-92144268D01*
X152302030Y-92090435D01*
X152359220Y-92061296D01*
X152425803Y-92047144D01*
X152425804Y-92047143D01*
X152425806Y-92047143D01*
X152598730Y-91970151D01*
X152751870Y-91858889D01*
X152878533Y-91718216D01*
X152973179Y-91554284D01*
X152998001Y-91477889D01*
X153031674Y-91374256D01*
X153051460Y-91186000D01*
X153031674Y-90997744D01*
X152973179Y-90817716D01*
X152973179Y-90817715D01*
X152878533Y-90653783D01*
X152751870Y-90513110D01*
X152598730Y-90401848D01*
X152425803Y-90324855D01*
X152385728Y-90316337D01*
X152331803Y-90290036D01*
X152296539Y-90241497D01*
X152288190Y-90182083D01*
X152289460Y-90170000D01*
X152285478Y-90132110D01*
X152269674Y-89981744D01*
X152217678Y-89821718D01*
X152211179Y-89801715D01*
X152116533Y-89637783D01*
X151989870Y-89497110D01*
X151836730Y-89385848D01*
X151663802Y-89308855D01*
X151555036Y-89285736D01*
X151504273Y-89262001D01*
X151469143Y-89218343D01*
X151456819Y-89163678D01*
X151466248Y-89124140D01*
X151464913Y-89123761D01*
X151527675Y-88903175D01*
X151530817Y-88869258D01*
X151547776Y-88686250D01*
X151527675Y-88469327D01*
X151527675Y-88469324D01*
X151468058Y-88259792D01*
X151370952Y-88064778D01*
X151239666Y-87890926D01*
X151115667Y-87777887D01*
X151079939Y-87720184D01*
X151079939Y-87652316D01*
X151115667Y-87594613D01*
X151239666Y-87481573D01*
X151313259Y-87384120D01*
X151370952Y-87307722D01*
X151468057Y-87112709D01*
X151493185Y-87024394D01*
X151527675Y-86903175D01*
X151530589Y-86871717D01*
X151547776Y-86686250D01*
X151527675Y-86469327D01*
X151527675Y-86469324D01*
X151468058Y-86259792D01*
X151419986Y-86163250D01*
X157986780Y-86163250D01*
X158006566Y-86351507D01*
X158065060Y-86531534D01*
X158159706Y-86695466D01*
X158286369Y-86836139D01*
X158439509Y-86947401D01*
X158612437Y-87024394D01*
X158797592Y-87063750D01*
X158797594Y-87063750D01*
X158986886Y-87063750D01*
X158986888Y-87063750D01*
X159110323Y-87037512D01*
X159172043Y-87024394D01*
X159344970Y-86947401D01*
X159498111Y-86836138D01*
X159624773Y-86695466D01*
X159719419Y-86531534D01*
X159777914Y-86351506D01*
X159797700Y-86163250D01*
X159777914Y-85974994D01*
X159728112Y-85821720D01*
X159719419Y-85794965D01*
X159624775Y-85631037D01*
X159624774Y-85631036D01*
X159624773Y-85631034D01*
X159606933Y-85611221D01*
X159578767Y-85558249D01*
X159578767Y-85528250D01*
X164971780Y-85528250D01*
X164991566Y-85716507D01*
X165050060Y-85896534D01*
X165144706Y-86060466D01*
X165271369Y-86201139D01*
X165424509Y-86312401D01*
X165597437Y-86389394D01*
X165782592Y-86428750D01*
X165782594Y-86428750D01*
X165971886Y-86428750D01*
X165971888Y-86428750D01*
X166095324Y-86402512D01*
X166157043Y-86389394D01*
X166329970Y-86312401D01*
X166329969Y-86312401D01*
X166483110Y-86201139D01*
X166609773Y-86060466D01*
X166704419Y-85896534D01*
X166704419Y-85896533D01*
X166762914Y-85716506D01*
X166782700Y-85528250D01*
X171321780Y-85528250D01*
X171341566Y-85716507D01*
X171400060Y-85896534D01*
X171494706Y-86060466D01*
X171621369Y-86201139D01*
X171774509Y-86312401D01*
X171947437Y-86389394D01*
X172132592Y-86428750D01*
X172132594Y-86428750D01*
X172321886Y-86428750D01*
X172321888Y-86428750D01*
X172445324Y-86402512D01*
X172507043Y-86389394D01*
X172679970Y-86312401D01*
X172679969Y-86312401D01*
X172833110Y-86201139D01*
X172959773Y-86060466D01*
X173054419Y-85896534D01*
X173054419Y-85896533D01*
X173112914Y-85716506D01*
X173132700Y-85528250D01*
X173112914Y-85339994D01*
X173082572Y-85246613D01*
X173054419Y-85159965D01*
X172959775Y-84996037D01*
X172959774Y-84996036D01*
X172959773Y-84996034D01*
X172941933Y-84976221D01*
X172913767Y-84923249D01*
X172913767Y-84863251D01*
X172941933Y-84810278D01*
X172959773Y-84790466D01*
X173054419Y-84626534D01*
X173112914Y-84446506D01*
X173132700Y-84258250D01*
X173112914Y-84069994D01*
X173054419Y-83889966D01*
X173054419Y-83889965D01*
X172959775Y-83726037D01*
X172959774Y-83726036D01*
X172959773Y-83726034D01*
X172941933Y-83706221D01*
X172913767Y-83653249D01*
X172913767Y-83593251D01*
X172941933Y-83540278D01*
X172959773Y-83520466D01*
X173054419Y-83356534D01*
X173112914Y-83176506D01*
X173132700Y-82988250D01*
X173112914Y-82799994D01*
X173065677Y-82654614D01*
X173054419Y-82619965D01*
X172959775Y-82456037D01*
X172959774Y-82456036D01*
X172959773Y-82456034D01*
X172941933Y-82436221D01*
X172913767Y-82383249D01*
X172913767Y-82323251D01*
X172941933Y-82270278D01*
X172959773Y-82250466D01*
X173054419Y-82086534D01*
X173112914Y-81906506D01*
X173132700Y-81718250D01*
X173112914Y-81529994D01*
X173054419Y-81349966D01*
X173054419Y-81349965D01*
X172959775Y-81186037D01*
X172959774Y-81186036D01*
X172959773Y-81186034D01*
X172941933Y-81166221D01*
X172913767Y-81113249D01*
X172913767Y-81053251D01*
X172941933Y-81000278D01*
X172959773Y-80980466D01*
X173054419Y-80816534D01*
X173112914Y-80636506D01*
X173132700Y-80448250D01*
X173112914Y-80259994D01*
X173054419Y-80079966D01*
X173054419Y-80079965D01*
X172973754Y-79940250D01*
X174242780Y-79940250D01*
X174262566Y-80128507D01*
X174321060Y-80308534D01*
X174415706Y-80472466D01*
X174542369Y-80613139D01*
X174695509Y-80724401D01*
X174868437Y-80801394D01*
X175053592Y-80840750D01*
X175053594Y-80840750D01*
X175242886Y-80840750D01*
X175242888Y-80840750D01*
X175376409Y-80812369D01*
X175428043Y-80801394D01*
X175600970Y-80724401D01*
X175600971Y-80724399D01*
X175608482Y-80721056D01*
X175658918Y-80710335D01*
X175709353Y-80721055D01*
X175873526Y-80794151D01*
X175880138Y-80797095D01*
X176065293Y-80836451D01*
X176065295Y-80836451D01*
X176254587Y-80836451D01*
X176254589Y-80836451D01*
X176378025Y-80810213D01*
X176439744Y-80797095D01*
X176612671Y-80720102D01*
X176612671Y-80720101D01*
X176614827Y-80719142D01*
X176665263Y-80708421D01*
X176715699Y-80719142D01*
X176727508Y-80724400D01*
X176727510Y-80724401D01*
X176823408Y-80767098D01*
X176900437Y-80801394D01*
X177085592Y-80840750D01*
X177085594Y-80840750D01*
X177274886Y-80840750D01*
X177274888Y-80840750D01*
X177408409Y-80812369D01*
X177460043Y-80801394D01*
X177632970Y-80724401D01*
X177690108Y-80682888D01*
X177786110Y-80613139D01*
X177912773Y-80472466D01*
X178007419Y-80308534D01*
X178023256Y-80259792D01*
X178065914Y-80128506D01*
X178085700Y-79940250D01*
X178065914Y-79751994D01*
X178007419Y-79571966D01*
X178007419Y-79571965D01*
X177912773Y-79408033D01*
X177786110Y-79267360D01*
X177632970Y-79156098D01*
X177460042Y-79079105D01*
X177274888Y-79039750D01*
X177274886Y-79039750D01*
X177085594Y-79039750D01*
X177085592Y-79039750D01*
X176900439Y-79079104D01*
X176725353Y-79157058D01*
X176674918Y-79167778D01*
X176624483Y-79157058D01*
X176439741Y-79074805D01*
X176254589Y-79035451D01*
X176254587Y-79035451D01*
X176065295Y-79035451D01*
X176065293Y-79035451D01*
X175880138Y-79074806D01*
X175699699Y-79155144D01*
X175649263Y-79165865D01*
X175598827Y-79155144D01*
X175428042Y-79079105D01*
X175242888Y-79039750D01*
X175242886Y-79039750D01*
X175053594Y-79039750D01*
X175053592Y-79039750D01*
X174868437Y-79079105D01*
X174695509Y-79156098D01*
X174542369Y-79267360D01*
X174415706Y-79408033D01*
X174321060Y-79571965D01*
X174262566Y-79751992D01*
X174242780Y-79940250D01*
X172973754Y-79940250D01*
X172959775Y-79916037D01*
X172959774Y-79916036D01*
X172959773Y-79916034D01*
X172941933Y-79896221D01*
X172913767Y-79843249D01*
X172913767Y-79783251D01*
X172941933Y-79730278D01*
X172959773Y-79710466D01*
X173054419Y-79546534D01*
X173112914Y-79366506D01*
X173132700Y-79178250D01*
X173112914Y-78989994D01*
X173054419Y-78809966D01*
X173054419Y-78809965D01*
X172959775Y-78646037D01*
X172959774Y-78646036D01*
X172959773Y-78646034D01*
X172941933Y-78626221D01*
X172913767Y-78573249D01*
X172913767Y-78513251D01*
X172941933Y-78460278D01*
X172959773Y-78440466D01*
X173054419Y-78276534D01*
X173112914Y-78096506D01*
X173132700Y-77908250D01*
X173112914Y-77719994D01*
X173054419Y-77539966D01*
X173054419Y-77539965D01*
X172959773Y-77376033D01*
X172833110Y-77235360D01*
X172679970Y-77124098D01*
X172507042Y-77047105D01*
X172321888Y-77007750D01*
X172321886Y-77007750D01*
X172132594Y-77007750D01*
X172132592Y-77007750D01*
X171947437Y-77047105D01*
X171774509Y-77124098D01*
X171621369Y-77235360D01*
X171494706Y-77376033D01*
X171400060Y-77539965D01*
X171341566Y-77719992D01*
X171321780Y-77908249D01*
X171341566Y-78096507D01*
X171400060Y-78276534D01*
X171494706Y-78440465D01*
X171512544Y-78460276D01*
X171540711Y-78513249D01*
X171540712Y-78573245D01*
X171512547Y-78626219D01*
X171494706Y-78646033D01*
X171400060Y-78809965D01*
X171341566Y-78989992D01*
X171321780Y-79178250D01*
X171341566Y-79366507D01*
X171400060Y-79546534D01*
X171494706Y-79710466D01*
X171512545Y-79730278D01*
X171540712Y-79783252D01*
X171540712Y-79843248D01*
X171512545Y-79896222D01*
X171494706Y-79916033D01*
X171400060Y-80079965D01*
X171341566Y-80259992D01*
X171321780Y-80448250D01*
X171341566Y-80636507D01*
X171400060Y-80816534D01*
X171494706Y-80980466D01*
X171512545Y-81000278D01*
X171540712Y-81053252D01*
X171540712Y-81113248D01*
X171512545Y-81166222D01*
X171494706Y-81186033D01*
X171400060Y-81349965D01*
X171341566Y-81529992D01*
X171321780Y-81718249D01*
X171341566Y-81906507D01*
X171400060Y-82086534D01*
X171494706Y-82250466D01*
X171512545Y-82270278D01*
X171540712Y-82323252D01*
X171540712Y-82383248D01*
X171512545Y-82436222D01*
X171494706Y-82456033D01*
X171400060Y-82619965D01*
X171341566Y-82799992D01*
X171321780Y-82988249D01*
X171341566Y-83176507D01*
X171400060Y-83356534D01*
X171494706Y-83520466D01*
X171512545Y-83540278D01*
X171540712Y-83593252D01*
X171540712Y-83653248D01*
X171512545Y-83706222D01*
X171494706Y-83726033D01*
X171400060Y-83889965D01*
X171341566Y-84069992D01*
X171321780Y-84258250D01*
X171341566Y-84446507D01*
X171400060Y-84626534D01*
X171494706Y-84790466D01*
X171512545Y-84810278D01*
X171540712Y-84863252D01*
X171540712Y-84923248D01*
X171512545Y-84976222D01*
X171494706Y-84996033D01*
X171400060Y-85159965D01*
X171341566Y-85339992D01*
X171321780Y-85528250D01*
X166782700Y-85528250D01*
X166762914Y-85339994D01*
X166732572Y-85246613D01*
X166704419Y-85159965D01*
X166609775Y-84996037D01*
X166609774Y-84996036D01*
X166609773Y-84996034D01*
X166591933Y-84976221D01*
X166563767Y-84923249D01*
X166563767Y-84863251D01*
X166591933Y-84810278D01*
X166609773Y-84790466D01*
X166704419Y-84626534D01*
X166762914Y-84446506D01*
X166782700Y-84258250D01*
X168146780Y-84258250D01*
X168166566Y-84446507D01*
X168225060Y-84626534D01*
X168319706Y-84790466D01*
X168446369Y-84931139D01*
X168599509Y-85042401D01*
X168772437Y-85119394D01*
X168957592Y-85158750D01*
X168957594Y-85158750D01*
X169146886Y-85158750D01*
X169146888Y-85158750D01*
X169270324Y-85132512D01*
X169332043Y-85119394D01*
X169504970Y-85042401D01*
X169658111Y-84931138D01*
X169784773Y-84790466D01*
X169879419Y-84626534D01*
X169937914Y-84446506D01*
X169957700Y-84258250D01*
X169937914Y-84069994D01*
X169879419Y-83889966D01*
X169879419Y-83889965D01*
X169784775Y-83726037D01*
X169784774Y-83726036D01*
X169784773Y-83726034D01*
X169766933Y-83706221D01*
X169738767Y-83653249D01*
X169738767Y-83593251D01*
X169766933Y-83540278D01*
X169784773Y-83520466D01*
X169879419Y-83356534D01*
X169937914Y-83176506D01*
X169957700Y-82988250D01*
X169937914Y-82799994D01*
X169890677Y-82654614D01*
X169879419Y-82619965D01*
X169784775Y-82456037D01*
X169784774Y-82456036D01*
X169784773Y-82456034D01*
X169766933Y-82436221D01*
X169738767Y-82383249D01*
X169738767Y-82323251D01*
X169766933Y-82270278D01*
X169784773Y-82250466D01*
X169879419Y-82086534D01*
X169937914Y-81906506D01*
X169957700Y-81718250D01*
X169937914Y-81529994D01*
X169879419Y-81349966D01*
X169879419Y-81349965D01*
X169784775Y-81186037D01*
X169784774Y-81186036D01*
X169784773Y-81186034D01*
X169766933Y-81166221D01*
X169738767Y-81113249D01*
X169738767Y-81053251D01*
X169766933Y-81000278D01*
X169784773Y-80980466D01*
X169879419Y-80816534D01*
X169937914Y-80636506D01*
X169957700Y-80448250D01*
X169937914Y-80259994D01*
X169879419Y-80079966D01*
X169879419Y-80079965D01*
X169784775Y-79916037D01*
X169784774Y-79916036D01*
X169784773Y-79916034D01*
X169766933Y-79896221D01*
X169738767Y-79843249D01*
X169738767Y-79783251D01*
X169766933Y-79730278D01*
X169784773Y-79710466D01*
X169879419Y-79546534D01*
X169937914Y-79366506D01*
X169957700Y-79178250D01*
X169937914Y-78989994D01*
X169879419Y-78809966D01*
X169879419Y-78809965D01*
X169784773Y-78646033D01*
X169658110Y-78505360D01*
X169504970Y-78394098D01*
X169332042Y-78317105D01*
X169146888Y-78277750D01*
X169146886Y-78277750D01*
X168957594Y-78277750D01*
X168957592Y-78277750D01*
X168772437Y-78317105D01*
X168599509Y-78394098D01*
X168446369Y-78505360D01*
X168319706Y-78646033D01*
X168225060Y-78809965D01*
X168166566Y-78989992D01*
X168146780Y-79178250D01*
X168166566Y-79366507D01*
X168225060Y-79546534D01*
X168319706Y-79710466D01*
X168337545Y-79730278D01*
X168365712Y-79783252D01*
X168365712Y-79843248D01*
X168337545Y-79896222D01*
X168319706Y-79916033D01*
X168225060Y-80079965D01*
X168166566Y-80259992D01*
X168146780Y-80448250D01*
X168166566Y-80636507D01*
X168225060Y-80816534D01*
X168319706Y-80980466D01*
X168337545Y-81000278D01*
X168365712Y-81053252D01*
X168365712Y-81113248D01*
X168337545Y-81166222D01*
X168319706Y-81186033D01*
X168225060Y-81349965D01*
X168166566Y-81529992D01*
X168146780Y-81718249D01*
X168166566Y-81906507D01*
X168225060Y-82086534D01*
X168319706Y-82250466D01*
X168337545Y-82270278D01*
X168365712Y-82323252D01*
X168365712Y-82383248D01*
X168337545Y-82436222D01*
X168319706Y-82456033D01*
X168225060Y-82619965D01*
X168166566Y-82799992D01*
X168146780Y-82988249D01*
X168166566Y-83176507D01*
X168225060Y-83356534D01*
X168319706Y-83520466D01*
X168337545Y-83540278D01*
X168365712Y-83593252D01*
X168365712Y-83653248D01*
X168337545Y-83706222D01*
X168319706Y-83726033D01*
X168225060Y-83889965D01*
X168166566Y-84069992D01*
X168146780Y-84258250D01*
X166782700Y-84258250D01*
X166762914Y-84069994D01*
X166704419Y-83889966D01*
X166704419Y-83889965D01*
X166609775Y-83726037D01*
X166609774Y-83726036D01*
X166609773Y-83726034D01*
X166591933Y-83706221D01*
X166563767Y-83653249D01*
X166563767Y-83593251D01*
X166591933Y-83540278D01*
X166609773Y-83520466D01*
X166704419Y-83356534D01*
X166762914Y-83176506D01*
X166782700Y-82988250D01*
X166762914Y-82799994D01*
X166715677Y-82654614D01*
X166704419Y-82619965D01*
X166609775Y-82456037D01*
X166609774Y-82456036D01*
X166609773Y-82456034D01*
X166591933Y-82436221D01*
X166563767Y-82383249D01*
X166563767Y-82323251D01*
X166591933Y-82270278D01*
X166609773Y-82250466D01*
X166704419Y-82086534D01*
X166762914Y-81906506D01*
X166782700Y-81718250D01*
X166762914Y-81529994D01*
X166704419Y-81349966D01*
X166704419Y-81349965D01*
X166609775Y-81186037D01*
X166609774Y-81186036D01*
X166609773Y-81186034D01*
X166591933Y-81166221D01*
X166563767Y-81113249D01*
X166563767Y-81053251D01*
X166591933Y-81000278D01*
X166609773Y-80980466D01*
X166704419Y-80816534D01*
X166762914Y-80636506D01*
X166782700Y-80448250D01*
X166762914Y-80259994D01*
X166704419Y-80079966D01*
X166704419Y-80079965D01*
X166609775Y-79916037D01*
X166609774Y-79916036D01*
X166609773Y-79916034D01*
X166591933Y-79896221D01*
X166563767Y-79843249D01*
X166563767Y-79783251D01*
X166591933Y-79730278D01*
X166609773Y-79710466D01*
X166704419Y-79546534D01*
X166762914Y-79366506D01*
X166782700Y-79178250D01*
X166762914Y-78989994D01*
X166704419Y-78809966D01*
X166704419Y-78809965D01*
X166609775Y-78646037D01*
X166609774Y-78646036D01*
X166609773Y-78646034D01*
X166591933Y-78626221D01*
X166563767Y-78573249D01*
X166563767Y-78513251D01*
X166591933Y-78460278D01*
X166609773Y-78440466D01*
X166704419Y-78276534D01*
X166762914Y-78096506D01*
X166782700Y-77908250D01*
X166762914Y-77719994D01*
X166704419Y-77539966D01*
X166704419Y-77539965D01*
X166609773Y-77376033D01*
X166483110Y-77235360D01*
X166329970Y-77124098D01*
X166157042Y-77047105D01*
X165971888Y-77007750D01*
X165971886Y-77007750D01*
X165782594Y-77007750D01*
X165782592Y-77007750D01*
X165597437Y-77047105D01*
X165424509Y-77124098D01*
X165271369Y-77235360D01*
X165144706Y-77376033D01*
X165050060Y-77539965D01*
X164991566Y-77719992D01*
X164971780Y-77908249D01*
X164991566Y-78096507D01*
X165050060Y-78276534D01*
X165144706Y-78440465D01*
X165162544Y-78460276D01*
X165190711Y-78513249D01*
X165190712Y-78573245D01*
X165162547Y-78626219D01*
X165144706Y-78646033D01*
X165050060Y-78809965D01*
X164991566Y-78989992D01*
X164971780Y-79178250D01*
X164991566Y-79366507D01*
X165050060Y-79546534D01*
X165144706Y-79710466D01*
X165162545Y-79730278D01*
X165190712Y-79783252D01*
X165190712Y-79843248D01*
X165162545Y-79896222D01*
X165144706Y-79916033D01*
X165050060Y-80079965D01*
X164991566Y-80259992D01*
X164971780Y-80448250D01*
X164991566Y-80636507D01*
X165050060Y-80816534D01*
X165144706Y-80980466D01*
X165162545Y-81000278D01*
X165190712Y-81053252D01*
X165190712Y-81113248D01*
X165162545Y-81166222D01*
X165144706Y-81186033D01*
X165050060Y-81349965D01*
X164991566Y-81529992D01*
X164971780Y-81718249D01*
X164991566Y-81906507D01*
X165050060Y-82086534D01*
X165144706Y-82250466D01*
X165162545Y-82270278D01*
X165190712Y-82323252D01*
X165190712Y-82383248D01*
X165162545Y-82436222D01*
X165144706Y-82456033D01*
X165050060Y-82619965D01*
X164991566Y-82799992D01*
X164971780Y-82988249D01*
X164991566Y-83176507D01*
X165050060Y-83356534D01*
X165144706Y-83520466D01*
X165162545Y-83540278D01*
X165190712Y-83593252D01*
X165190712Y-83653248D01*
X165162545Y-83706222D01*
X165144706Y-83726033D01*
X165050060Y-83889965D01*
X164991566Y-84069992D01*
X164971780Y-84258250D01*
X164991566Y-84446507D01*
X165050060Y-84626534D01*
X165144706Y-84790466D01*
X165162545Y-84810278D01*
X165190712Y-84863252D01*
X165190712Y-84923248D01*
X165162545Y-84976222D01*
X165144706Y-84996033D01*
X165050060Y-85159965D01*
X164991566Y-85339992D01*
X164971780Y-85528250D01*
X159578767Y-85528250D01*
X159578767Y-85498251D01*
X159606933Y-85445278D01*
X159624773Y-85425466D01*
X159719419Y-85261534D01*
X159777914Y-85081506D01*
X159797700Y-84893250D01*
X159777914Y-84704994D01*
X159719419Y-84524966D01*
X159719419Y-84524965D01*
X159624773Y-84361033D01*
X159606934Y-84341221D01*
X159578767Y-84288247D01*
X159578768Y-84228250D01*
X159606934Y-84175277D01*
X159624773Y-84155466D01*
X159719419Y-83991534D01*
X159777914Y-83811506D01*
X159797700Y-83623250D01*
X159777914Y-83434994D01*
X159719419Y-83254966D01*
X159719419Y-83254965D01*
X159624775Y-83091037D01*
X159624774Y-83091036D01*
X159624773Y-83091034D01*
X159606933Y-83071221D01*
X159578767Y-83018249D01*
X159578767Y-82958251D01*
X159606933Y-82905278D01*
X159624773Y-82885466D01*
X159719419Y-82721534D01*
X159777914Y-82541506D01*
X159797700Y-82353250D01*
X159777914Y-82164994D01*
X159719419Y-81984966D01*
X159719419Y-81984965D01*
X159624773Y-81821033D01*
X159606934Y-81801221D01*
X159578767Y-81748247D01*
X159578768Y-81688250D01*
X159606934Y-81635277D01*
X159624773Y-81615466D01*
X159719419Y-81451534D01*
X159777914Y-81271506D01*
X159797700Y-81083250D01*
X159777914Y-80894994D01*
X159747501Y-80801394D01*
X159719419Y-80714965D01*
X159624775Y-80551037D01*
X159624774Y-80551036D01*
X159624773Y-80551034D01*
X159606933Y-80531221D01*
X159578767Y-80478249D01*
X159578767Y-80418251D01*
X159606933Y-80365278D01*
X159624773Y-80345466D01*
X159719419Y-80181534D01*
X159777914Y-80001506D01*
X159797700Y-79813250D01*
X159777914Y-79624994D01*
X159719419Y-79444966D01*
X159719419Y-79444965D01*
X159624773Y-79281033D01*
X159606934Y-79261221D01*
X159578767Y-79208247D01*
X159578768Y-79148250D01*
X159606934Y-79095277D01*
X159624773Y-79075466D01*
X159719419Y-78911534D01*
X159777914Y-78731506D01*
X159797700Y-78543250D01*
X159777914Y-78354994D01*
X159719419Y-78174966D01*
X159719419Y-78174965D01*
X159624773Y-78011033D01*
X159606934Y-77991221D01*
X159578767Y-77938246D01*
X159578768Y-77878248D01*
X159606936Y-77825275D01*
X159624773Y-77805466D01*
X159719419Y-77641534D01*
X159777914Y-77461506D01*
X159797700Y-77273250D01*
X159777914Y-77084994D01*
X159719419Y-76904966D01*
X159719419Y-76904965D01*
X159624773Y-76741033D01*
X159498110Y-76600360D01*
X159344970Y-76489098D01*
X159172042Y-76412105D01*
X158986888Y-76372750D01*
X158986886Y-76372750D01*
X158797594Y-76372750D01*
X158797592Y-76372750D01*
X158612437Y-76412105D01*
X158439509Y-76489098D01*
X158286369Y-76600360D01*
X158159706Y-76741033D01*
X158065060Y-76904965D01*
X158006566Y-77084992D01*
X157986780Y-77273250D01*
X158006566Y-77461507D01*
X158065060Y-77641534D01*
X158159706Y-77805466D01*
X158177545Y-77825278D01*
X158205712Y-77878252D01*
X158205712Y-77938248D01*
X158177545Y-77991222D01*
X158159706Y-78011033D01*
X158065060Y-78174965D01*
X158006566Y-78354992D01*
X157990762Y-78505360D01*
X157986780Y-78543250D01*
X157987673Y-78551742D01*
X158006566Y-78731507D01*
X158065060Y-78911534D01*
X158159706Y-79075465D01*
X158177544Y-79095276D01*
X158205711Y-79148249D01*
X158205712Y-79208245D01*
X158177547Y-79261219D01*
X158159706Y-79281033D01*
X158065060Y-79444965D01*
X158006566Y-79624992D01*
X157986780Y-79813250D01*
X158006566Y-80001507D01*
X158065060Y-80181534D01*
X158159706Y-80345466D01*
X158177545Y-80365278D01*
X158205712Y-80418252D01*
X158205712Y-80478248D01*
X158177545Y-80531222D01*
X158159706Y-80551033D01*
X158065060Y-80714965D01*
X158006566Y-80894992D01*
X157986780Y-81083249D01*
X158006566Y-81271507D01*
X158065060Y-81451534D01*
X158159706Y-81615465D01*
X158177544Y-81635276D01*
X158205711Y-81688249D01*
X158205712Y-81748245D01*
X158177547Y-81801219D01*
X158159706Y-81821033D01*
X158065060Y-81984965D01*
X158006566Y-82164992D01*
X157986780Y-82353249D01*
X158006566Y-82541507D01*
X158065060Y-82721534D01*
X158159706Y-82885466D01*
X158177545Y-82905278D01*
X158205712Y-82958252D01*
X158205712Y-83018248D01*
X158177545Y-83071222D01*
X158159706Y-83091033D01*
X158065060Y-83254965D01*
X158006566Y-83434992D01*
X157986780Y-83623250D01*
X158006566Y-83811507D01*
X158065060Y-83991534D01*
X158159706Y-84155465D01*
X158177544Y-84175276D01*
X158205711Y-84228249D01*
X158205712Y-84288245D01*
X158177547Y-84341219D01*
X158159706Y-84361033D01*
X158065060Y-84524965D01*
X158006566Y-84704992D01*
X157986780Y-84893250D01*
X158006566Y-85081507D01*
X158065060Y-85261534D01*
X158159706Y-85425466D01*
X158177545Y-85445278D01*
X158205712Y-85498252D01*
X158205712Y-85558248D01*
X158177545Y-85611222D01*
X158159706Y-85631033D01*
X158065060Y-85794965D01*
X158006566Y-85974992D01*
X157986780Y-86163250D01*
X151419986Y-86163250D01*
X151370952Y-86064778D01*
X151239666Y-85890926D01*
X151078672Y-85744162D01*
X150893448Y-85629476D01*
X150690313Y-85550781D01*
X150690310Y-85550780D01*
X150690309Y-85550780D01*
X150476166Y-85510750D01*
X150258314Y-85510750D01*
X150089803Y-85542250D01*
X150044166Y-85550781D01*
X149841031Y-85629476D01*
X149655807Y-85744162D01*
X149494813Y-85890926D01*
X149363527Y-86064778D01*
X149266421Y-86259792D01*
X149206804Y-86469324D01*
X149186704Y-86686249D01*
X149206804Y-86903175D01*
X149266421Y-87112707D01*
X149363527Y-87307721D01*
X149494813Y-87481573D01*
X149618812Y-87594613D01*
X149654540Y-87652316D01*
X149654540Y-87720184D01*
X149618812Y-87777887D01*
X149494813Y-87890926D01*
X149466194Y-87928825D01*
X149422511Y-87965098D01*
X149367240Y-87978098D01*
X149311969Y-87965098D01*
X149268286Y-87928825D01*
X149239666Y-87890927D01*
X149078672Y-87744162D01*
X148893448Y-87629476D01*
X148690313Y-87550781D01*
X148690310Y-87550780D01*
X148690309Y-87550780D01*
X148476166Y-87510750D01*
X148258314Y-87510750D01*
X148044171Y-87550780D01*
X148044166Y-87550781D01*
X147841031Y-87629476D01*
X147655807Y-87744162D01*
X147494813Y-87890926D01*
X147363527Y-88064778D01*
X147266421Y-88259792D01*
X147206804Y-88469324D01*
X147186704Y-88686250D01*
X123945253Y-88686250D01*
X123720049Y-88363323D01*
X123717654Y-88359757D01*
X123673003Y-88290731D01*
X123134139Y-87457691D01*
X123131859Y-87454028D01*
X122874691Y-87024394D01*
X122580058Y-86532169D01*
X122577935Y-86528479D01*
X122058540Y-85587979D01*
X122056525Y-85584176D01*
X122055220Y-85581605D01*
X122028133Y-85528250D01*
X125601780Y-85528250D01*
X125621566Y-85716507D01*
X125680060Y-85896534D01*
X125774706Y-86060466D01*
X125901369Y-86201139D01*
X126054509Y-86312401D01*
X126227437Y-86389394D01*
X126412592Y-86428750D01*
X126412594Y-86428750D01*
X126601886Y-86428750D01*
X126601888Y-86428750D01*
X126725324Y-86402512D01*
X126787043Y-86389394D01*
X126959970Y-86312401D01*
X126959969Y-86312401D01*
X127113110Y-86201139D01*
X127239773Y-86060466D01*
X127334419Y-85896534D01*
X127334419Y-85896533D01*
X127392914Y-85716506D01*
X127412700Y-85528250D01*
X131951780Y-85528250D01*
X131971566Y-85716507D01*
X132030060Y-85896534D01*
X132124706Y-86060466D01*
X132251369Y-86201139D01*
X132404509Y-86312401D01*
X132577437Y-86389394D01*
X132762592Y-86428750D01*
X132762594Y-86428750D01*
X132951886Y-86428750D01*
X132951888Y-86428750D01*
X133075324Y-86402512D01*
X133137043Y-86389394D01*
X133309970Y-86312401D01*
X133309969Y-86312401D01*
X133463110Y-86201139D01*
X133497226Y-86163250D01*
X138936780Y-86163250D01*
X138956566Y-86351507D01*
X139015060Y-86531534D01*
X139109706Y-86695466D01*
X139236369Y-86836139D01*
X139389509Y-86947401D01*
X139562437Y-87024394D01*
X139747592Y-87063750D01*
X139747594Y-87063750D01*
X139936886Y-87063750D01*
X139936888Y-87063750D01*
X140060323Y-87037512D01*
X140122043Y-87024394D01*
X140294970Y-86947401D01*
X140448111Y-86836138D01*
X140574773Y-86695466D01*
X140669419Y-86531534D01*
X140698267Y-86442750D01*
X143381780Y-86442750D01*
X143401566Y-86631007D01*
X143460060Y-86811034D01*
X143554706Y-86974966D01*
X143681369Y-87115639D01*
X143834509Y-87226901D01*
X144007437Y-87303894D01*
X144192592Y-87343250D01*
X144192594Y-87343250D01*
X144381886Y-87343250D01*
X144381888Y-87343250D01*
X144505324Y-87317012D01*
X144567043Y-87303894D01*
X144739970Y-87226901D01*
X144893111Y-87115638D01*
X145019773Y-86974966D01*
X145114419Y-86811034D01*
X145172914Y-86631006D01*
X145192700Y-86442750D01*
X145172914Y-86254494D01*
X145114419Y-86074466D01*
X145114419Y-86074465D01*
X145019773Y-85910533D01*
X144893110Y-85769860D01*
X144739970Y-85658598D01*
X144567042Y-85581605D01*
X144381888Y-85542250D01*
X144381886Y-85542250D01*
X144192594Y-85542250D01*
X144192592Y-85542250D01*
X144007437Y-85581605D01*
X143834509Y-85658598D01*
X143681369Y-85769860D01*
X143554706Y-85910533D01*
X143460060Y-86074465D01*
X143401566Y-86254492D01*
X143381780Y-86442750D01*
X140698267Y-86442750D01*
X140727914Y-86351506D01*
X140747700Y-86163250D01*
X140727914Y-85974994D01*
X140678112Y-85821720D01*
X140669419Y-85794965D01*
X140574775Y-85631037D01*
X140574774Y-85631036D01*
X140574773Y-85631034D01*
X140556933Y-85611221D01*
X140528767Y-85558249D01*
X140528767Y-85498251D01*
X140556933Y-85445278D01*
X140574773Y-85425466D01*
X140669419Y-85261534D01*
X140727914Y-85081506D01*
X140747700Y-84893250D01*
X140727914Y-84704994D01*
X140721823Y-84686249D01*
X147186704Y-84686249D01*
X147206804Y-84903175D01*
X147266421Y-85112707D01*
X147363527Y-85307721D01*
X147494813Y-85481573D01*
X147604544Y-85581605D01*
X147655808Y-85628338D01*
X147748418Y-85685679D01*
X147841031Y-85743023D01*
X148025231Y-85814382D01*
X148044171Y-85821720D01*
X148258314Y-85861750D01*
X148476164Y-85861750D01*
X148476166Y-85861750D01*
X148690309Y-85821720D01*
X148825736Y-85769254D01*
X148893448Y-85743023D01*
X148936273Y-85716507D01*
X149078672Y-85628338D01*
X149239667Y-85481572D01*
X149370952Y-85307722D01*
X149468057Y-85112709D01*
X149476935Y-85081506D01*
X149527675Y-84903175D01*
X149536283Y-84810276D01*
X149547776Y-84686250D01*
X149527675Y-84469327D01*
X149527675Y-84469324D01*
X149468058Y-84259792D01*
X149370952Y-84064778D01*
X149239666Y-83890926D01*
X149115667Y-83777887D01*
X149079939Y-83720184D01*
X149079939Y-83652316D01*
X149115667Y-83594613D01*
X149239667Y-83481572D01*
X149268285Y-83443675D01*
X149311968Y-83407400D01*
X149367240Y-83394400D01*
X149422512Y-83407400D01*
X149466195Y-83443675D01*
X149494812Y-83481572D01*
X149611186Y-83587660D01*
X149655808Y-83628338D01*
X149696041Y-83653249D01*
X149841031Y-83743023D01*
X150017806Y-83811506D01*
X150044171Y-83821720D01*
X150258314Y-83861750D01*
X150476164Y-83861750D01*
X150476166Y-83861750D01*
X150690309Y-83821720D01*
X150825736Y-83769254D01*
X150893448Y-83743023D01*
X150893450Y-83743022D01*
X151078672Y-83628338D01*
X151239667Y-83481572D01*
X151370952Y-83307722D01*
X151468057Y-83112709D01*
X151468058Y-83112707D01*
X151527675Y-82903175D01*
X151544506Y-82721534D01*
X151547776Y-82686250D01*
X151527675Y-82469327D01*
X151527675Y-82469324D01*
X151468058Y-82259792D01*
X151370952Y-82064778D01*
X151239666Y-81890926D01*
X151115667Y-81777887D01*
X151079939Y-81720184D01*
X151079939Y-81652316D01*
X151115667Y-81594613D01*
X151239666Y-81481573D01*
X151239667Y-81481572D01*
X151370952Y-81307722D01*
X151468057Y-81112709D01*
X151476439Y-81083250D01*
X151527675Y-80903175D01*
X151537106Y-80801394D01*
X151547776Y-80686250D01*
X151527675Y-80469327D01*
X151527675Y-80469324D01*
X151468058Y-80259792D01*
X151370952Y-80064778D01*
X151329585Y-80009999D01*
X154034540Y-80009999D01*
X154054326Y-80198257D01*
X154112820Y-80378284D01*
X154207466Y-80542216D01*
X154334129Y-80682889D01*
X154487269Y-80794151D01*
X154660197Y-80871144D01*
X154845352Y-80910500D01*
X154845354Y-80910500D01*
X155034646Y-80910500D01*
X155034648Y-80910500D01*
X155158083Y-80884262D01*
X155219803Y-80871144D01*
X155392730Y-80794151D01*
X155392729Y-80794151D01*
X155545870Y-80682889D01*
X155672533Y-80542216D01*
X155767179Y-80378284D01*
X155777842Y-80345466D01*
X155825674Y-80198256D01*
X155845460Y-80010000D01*
X155825674Y-79821744D01*
X155789516Y-79710462D01*
X155767179Y-79641715D01*
X155672533Y-79477783D01*
X155545870Y-79337110D01*
X155392730Y-79225848D01*
X155219802Y-79148855D01*
X155034648Y-79109500D01*
X155034646Y-79109500D01*
X154845354Y-79109500D01*
X154845352Y-79109500D01*
X154660197Y-79148855D01*
X154487269Y-79225848D01*
X154334129Y-79337110D01*
X154207466Y-79477783D01*
X154112820Y-79641715D01*
X154054326Y-79821742D01*
X154034540Y-80009999D01*
X151329585Y-80009999D01*
X151239666Y-79890926D01*
X151078672Y-79744162D01*
X150893448Y-79629476D01*
X150690313Y-79550781D01*
X150690310Y-79550780D01*
X150690309Y-79550780D01*
X150476166Y-79510750D01*
X150258314Y-79510750D01*
X150044171Y-79550780D01*
X150044166Y-79550781D01*
X149841031Y-79629476D01*
X149655807Y-79744162D01*
X149494813Y-79890927D01*
X149466194Y-79928825D01*
X149422511Y-79965098D01*
X149367240Y-79978098D01*
X149311969Y-79965098D01*
X149268286Y-79928825D01*
X149239666Y-79890927D01*
X149078672Y-79744162D01*
X148893448Y-79629476D01*
X148690313Y-79550781D01*
X148690310Y-79550780D01*
X148690309Y-79550780D01*
X148476166Y-79510750D01*
X148258314Y-79510750D01*
X148044171Y-79550780D01*
X148044166Y-79550781D01*
X147841031Y-79629476D01*
X147655807Y-79744162D01*
X147494813Y-79890926D01*
X147363527Y-80064778D01*
X147266421Y-80259792D01*
X147206804Y-80469324D01*
X147186704Y-80686249D01*
X147206804Y-80903175D01*
X147266421Y-81112707D01*
X147363527Y-81307721D01*
X147494813Y-81481573D01*
X147618812Y-81594612D01*
X147654540Y-81652314D01*
X147654541Y-81720183D01*
X147618813Y-81777886D01*
X147494811Y-81890929D01*
X147363527Y-82064778D01*
X147266421Y-82259792D01*
X147206804Y-82469324D01*
X147186704Y-82686249D01*
X147206804Y-82903175D01*
X147266421Y-83112707D01*
X147363527Y-83307721D01*
X147494813Y-83481573D01*
X147618812Y-83594613D01*
X147654540Y-83652316D01*
X147654540Y-83720184D01*
X147618812Y-83777887D01*
X147494813Y-83890926D01*
X147363527Y-84064778D01*
X147266421Y-84259792D01*
X147206804Y-84469324D01*
X147186704Y-84686249D01*
X140721823Y-84686249D01*
X140669419Y-84524966D01*
X140669419Y-84524965D01*
X140574773Y-84361033D01*
X140556934Y-84341221D01*
X140528767Y-84288247D01*
X140528768Y-84228250D01*
X140556934Y-84175277D01*
X140574773Y-84155466D01*
X140669419Y-83991534D01*
X140727914Y-83811506D01*
X140747700Y-83623250D01*
X140727914Y-83434994D01*
X140669419Y-83254966D01*
X140669419Y-83254965D01*
X140574775Y-83091037D01*
X140574774Y-83091036D01*
X140574773Y-83091034D01*
X140556933Y-83071221D01*
X140528767Y-83018249D01*
X140528767Y-82958251D01*
X140556933Y-82905278D01*
X140574773Y-82885466D01*
X140669419Y-82721534D01*
X140727914Y-82541506D01*
X140747700Y-82353250D01*
X140727914Y-82164994D01*
X140669419Y-81984966D01*
X140669419Y-81984965D01*
X140574773Y-81821033D01*
X140556934Y-81801221D01*
X140528767Y-81748247D01*
X140528768Y-81688250D01*
X140556934Y-81635277D01*
X140574773Y-81615466D01*
X140669419Y-81451534D01*
X140727914Y-81271506D01*
X140747700Y-81083250D01*
X140727914Y-80894994D01*
X140697501Y-80801394D01*
X140669419Y-80714965D01*
X140574775Y-80551037D01*
X140574774Y-80551036D01*
X140574773Y-80551034D01*
X140556933Y-80531221D01*
X140528767Y-80478249D01*
X140528767Y-80418251D01*
X140556933Y-80365278D01*
X140574773Y-80345466D01*
X140669419Y-80181534D01*
X140727914Y-80001506D01*
X140747700Y-79813250D01*
X140727914Y-79624994D01*
X140669419Y-79444966D01*
X140669419Y-79444965D01*
X140574773Y-79281033D01*
X140556934Y-79261221D01*
X140528767Y-79208247D01*
X140528768Y-79148250D01*
X140556934Y-79095277D01*
X140574773Y-79075466D01*
X140669419Y-78911534D01*
X140727914Y-78731506D01*
X140747700Y-78543250D01*
X140727914Y-78354994D01*
X140669419Y-78174966D01*
X140669419Y-78174965D01*
X140574773Y-78011033D01*
X140556934Y-77991221D01*
X140528767Y-77938246D01*
X140528768Y-77878248D01*
X140556936Y-77825275D01*
X140574773Y-77805466D01*
X140669419Y-77641534D01*
X140727914Y-77461506D01*
X140747700Y-77273250D01*
X140727914Y-77084994D01*
X140669419Y-76904966D01*
X140669419Y-76904965D01*
X140574773Y-76741033D01*
X140448110Y-76600360D01*
X140294970Y-76489098D01*
X140122042Y-76412105D01*
X139936888Y-76372750D01*
X139936886Y-76372750D01*
X139747594Y-76372750D01*
X139747592Y-76372750D01*
X139562437Y-76412105D01*
X139389509Y-76489098D01*
X139236369Y-76600360D01*
X139109706Y-76741033D01*
X139015060Y-76904965D01*
X138956566Y-77084992D01*
X138936780Y-77273250D01*
X138956566Y-77461507D01*
X139015060Y-77641534D01*
X139109706Y-77805466D01*
X139127545Y-77825278D01*
X139155712Y-77878252D01*
X139155712Y-77938248D01*
X139127545Y-77991222D01*
X139109706Y-78011033D01*
X139015060Y-78174965D01*
X138956566Y-78354992D01*
X138936780Y-78543250D01*
X138956566Y-78731507D01*
X139015060Y-78911534D01*
X139109706Y-79075465D01*
X139127544Y-79095276D01*
X139155711Y-79148249D01*
X139155712Y-79208245D01*
X139127547Y-79261219D01*
X139109706Y-79281033D01*
X139015060Y-79444965D01*
X138956566Y-79624992D01*
X138936780Y-79813250D01*
X138956566Y-80001507D01*
X139015060Y-80181534D01*
X139109706Y-80345466D01*
X139127545Y-80365278D01*
X139155712Y-80418252D01*
X139155712Y-80478248D01*
X139127545Y-80531222D01*
X139109706Y-80551033D01*
X139015060Y-80714965D01*
X138956566Y-80894992D01*
X138936780Y-81083249D01*
X138956566Y-81271507D01*
X139015060Y-81451534D01*
X139109706Y-81615465D01*
X139127544Y-81635276D01*
X139155711Y-81688249D01*
X139155712Y-81748245D01*
X139127547Y-81801219D01*
X139109706Y-81821033D01*
X139015060Y-81984965D01*
X138956566Y-82164992D01*
X138936780Y-82353249D01*
X138956566Y-82541507D01*
X139015060Y-82721534D01*
X139109706Y-82885466D01*
X139127545Y-82905278D01*
X139155712Y-82958252D01*
X139155712Y-83018248D01*
X139127545Y-83071222D01*
X139109706Y-83091033D01*
X139015060Y-83254965D01*
X138956566Y-83434992D01*
X138936780Y-83623250D01*
X138956566Y-83811507D01*
X139015060Y-83991534D01*
X139109706Y-84155465D01*
X139127544Y-84175276D01*
X139155711Y-84228249D01*
X139155712Y-84288245D01*
X139127547Y-84341219D01*
X139109706Y-84361033D01*
X139015060Y-84524965D01*
X138956566Y-84704992D01*
X138936780Y-84893249D01*
X138956566Y-85081507D01*
X139015060Y-85261534D01*
X139109706Y-85425466D01*
X139127545Y-85445278D01*
X139155712Y-85498252D01*
X139155712Y-85558248D01*
X139127545Y-85611222D01*
X139109706Y-85631033D01*
X139015060Y-85794965D01*
X138956566Y-85974992D01*
X138936780Y-86163250D01*
X133497226Y-86163250D01*
X133589773Y-86060466D01*
X133684419Y-85896534D01*
X133684419Y-85896533D01*
X133742914Y-85716506D01*
X133762700Y-85528250D01*
X133742914Y-85339994D01*
X133712572Y-85246613D01*
X133684419Y-85159965D01*
X133589775Y-84996037D01*
X133589774Y-84996036D01*
X133589773Y-84996034D01*
X133571933Y-84976221D01*
X133543767Y-84923249D01*
X133543767Y-84863251D01*
X133571933Y-84810278D01*
X133589773Y-84790466D01*
X133684419Y-84626534D01*
X133742914Y-84446506D01*
X133762700Y-84258250D01*
X133742914Y-84069994D01*
X133684419Y-83889966D01*
X133684419Y-83889965D01*
X133589775Y-83726037D01*
X133589774Y-83726036D01*
X133589773Y-83726034D01*
X133571933Y-83706221D01*
X133543767Y-83653249D01*
X133543767Y-83593251D01*
X133571933Y-83540278D01*
X133589773Y-83520466D01*
X133684419Y-83356534D01*
X133742914Y-83176506D01*
X133762700Y-82988250D01*
X133742914Y-82799994D01*
X133695677Y-82654614D01*
X133684419Y-82619965D01*
X133589775Y-82456037D01*
X133589774Y-82456036D01*
X133589773Y-82456034D01*
X133571933Y-82436221D01*
X133543767Y-82383249D01*
X133543767Y-82323251D01*
X133571933Y-82270278D01*
X133589773Y-82250466D01*
X133684419Y-82086534D01*
X133742914Y-81906506D01*
X133762700Y-81718250D01*
X133742914Y-81529994D01*
X133684419Y-81349966D01*
X133684419Y-81349965D01*
X133589775Y-81186037D01*
X133589774Y-81186036D01*
X133589773Y-81186034D01*
X133571933Y-81166221D01*
X133543767Y-81113249D01*
X133543767Y-81053251D01*
X133571933Y-81000278D01*
X133589773Y-80980466D01*
X133684419Y-80816534D01*
X133742914Y-80636506D01*
X133762700Y-80448250D01*
X133742914Y-80259994D01*
X133684419Y-80079966D01*
X133684419Y-80079965D01*
X133589775Y-79916037D01*
X133589774Y-79916036D01*
X133589773Y-79916034D01*
X133571933Y-79896221D01*
X133543767Y-79843249D01*
X133543767Y-79783251D01*
X133571933Y-79730278D01*
X133589773Y-79710466D01*
X133684419Y-79546534D01*
X133742914Y-79366506D01*
X133762700Y-79178250D01*
X133742914Y-78989994D01*
X133684419Y-78809966D01*
X133684419Y-78809965D01*
X133589775Y-78646037D01*
X133589774Y-78646036D01*
X133589773Y-78646034D01*
X133571933Y-78626221D01*
X133543767Y-78573249D01*
X133543767Y-78513251D01*
X133571933Y-78460278D01*
X133589773Y-78440466D01*
X133684419Y-78276534D01*
X133742914Y-78096506D01*
X133762700Y-77908250D01*
X133742914Y-77719994D01*
X133684419Y-77539966D01*
X133684419Y-77539965D01*
X133589773Y-77376033D01*
X133463110Y-77235360D01*
X133309970Y-77124098D01*
X133137042Y-77047105D01*
X132951888Y-77007750D01*
X132951886Y-77007750D01*
X132762594Y-77007750D01*
X132762592Y-77007750D01*
X132577437Y-77047105D01*
X132404509Y-77124098D01*
X132251369Y-77235360D01*
X132124706Y-77376033D01*
X132030060Y-77539965D01*
X131971566Y-77719992D01*
X131951780Y-77908250D01*
X131971566Y-78096507D01*
X132030060Y-78276534D01*
X132124706Y-78440465D01*
X132142544Y-78460276D01*
X132170711Y-78513249D01*
X132170712Y-78573245D01*
X132142547Y-78626219D01*
X132124706Y-78646033D01*
X132030060Y-78809965D01*
X131971566Y-78989992D01*
X131951780Y-79178250D01*
X131971566Y-79366507D01*
X132030060Y-79546534D01*
X132124706Y-79710466D01*
X132142545Y-79730278D01*
X132170712Y-79783252D01*
X132170712Y-79843248D01*
X132142545Y-79896222D01*
X132124706Y-79916033D01*
X132030060Y-80079965D01*
X131971566Y-80259992D01*
X131951780Y-80448250D01*
X131971566Y-80636507D01*
X132030060Y-80816534D01*
X132124706Y-80980466D01*
X132142545Y-81000278D01*
X132170712Y-81053252D01*
X132170712Y-81113248D01*
X132142545Y-81166222D01*
X132124706Y-81186033D01*
X132030060Y-81349965D01*
X131971566Y-81529992D01*
X131951780Y-81718249D01*
X131971566Y-81906507D01*
X132030060Y-82086534D01*
X132124706Y-82250466D01*
X132142545Y-82270278D01*
X132170712Y-82323252D01*
X132170712Y-82383248D01*
X132142545Y-82436222D01*
X132124706Y-82456033D01*
X132030060Y-82619965D01*
X131971566Y-82799992D01*
X131951780Y-82988249D01*
X131971566Y-83176507D01*
X132030060Y-83356534D01*
X132124706Y-83520466D01*
X132142545Y-83540278D01*
X132170712Y-83593252D01*
X132170712Y-83653248D01*
X132142545Y-83706222D01*
X132124706Y-83726033D01*
X132030060Y-83889965D01*
X131971566Y-84069992D01*
X131951780Y-84258249D01*
X131971566Y-84446507D01*
X132030060Y-84626534D01*
X132124706Y-84790466D01*
X132142545Y-84810278D01*
X132170712Y-84863252D01*
X132170712Y-84923248D01*
X132142545Y-84976222D01*
X132124706Y-84996033D01*
X132030060Y-85159965D01*
X131971566Y-85339992D01*
X131951780Y-85528250D01*
X127412700Y-85528250D01*
X127392914Y-85339994D01*
X127362572Y-85246613D01*
X127334419Y-85159965D01*
X127239775Y-84996037D01*
X127239774Y-84996036D01*
X127239773Y-84996034D01*
X127221933Y-84976221D01*
X127193767Y-84923249D01*
X127193767Y-84863251D01*
X127221933Y-84810278D01*
X127239773Y-84790466D01*
X127334419Y-84626534D01*
X127392914Y-84446506D01*
X127412700Y-84258250D01*
X127412700Y-84258249D01*
X128776780Y-84258249D01*
X128796566Y-84446507D01*
X128855060Y-84626534D01*
X128949706Y-84790466D01*
X129076369Y-84931139D01*
X129229509Y-85042401D01*
X129402437Y-85119394D01*
X129587592Y-85158750D01*
X129587594Y-85158750D01*
X129776886Y-85158750D01*
X129776888Y-85158750D01*
X129900323Y-85132512D01*
X129962043Y-85119394D01*
X130134970Y-85042401D01*
X130288111Y-84931138D01*
X130414773Y-84790466D01*
X130509419Y-84626534D01*
X130567914Y-84446506D01*
X130587700Y-84258250D01*
X130567914Y-84069994D01*
X130509419Y-83889966D01*
X130509419Y-83889965D01*
X130414775Y-83726037D01*
X130414774Y-83726036D01*
X130414773Y-83726034D01*
X130396933Y-83706221D01*
X130368767Y-83653249D01*
X130368767Y-83593251D01*
X130396933Y-83540278D01*
X130414773Y-83520466D01*
X130509419Y-83356534D01*
X130567914Y-83176506D01*
X130587700Y-82988250D01*
X130567914Y-82799994D01*
X130520677Y-82654614D01*
X130509419Y-82619965D01*
X130414775Y-82456037D01*
X130414774Y-82456036D01*
X130414773Y-82456034D01*
X130396933Y-82436221D01*
X130368767Y-82383249D01*
X130368767Y-82323251D01*
X130396933Y-82270278D01*
X130414773Y-82250466D01*
X130509419Y-82086534D01*
X130567914Y-81906506D01*
X130587700Y-81718250D01*
X130567914Y-81529994D01*
X130509419Y-81349966D01*
X130509419Y-81349965D01*
X130414775Y-81186037D01*
X130414774Y-81186036D01*
X130414773Y-81186034D01*
X130396933Y-81166221D01*
X130368767Y-81113249D01*
X130368767Y-81053251D01*
X130396933Y-81000278D01*
X130414773Y-80980466D01*
X130509419Y-80816534D01*
X130567914Y-80636506D01*
X130587700Y-80448250D01*
X130567914Y-80259994D01*
X130509419Y-80079966D01*
X130509419Y-80079965D01*
X130414775Y-79916037D01*
X130414774Y-79916036D01*
X130414773Y-79916034D01*
X130396933Y-79896221D01*
X130368767Y-79843249D01*
X130368767Y-79783251D01*
X130396933Y-79730278D01*
X130414773Y-79710466D01*
X130509419Y-79546534D01*
X130567914Y-79366506D01*
X130587700Y-79178250D01*
X130567914Y-78989994D01*
X130509419Y-78809966D01*
X130509419Y-78809965D01*
X130414773Y-78646033D01*
X130288110Y-78505360D01*
X130134970Y-78394098D01*
X129962042Y-78317105D01*
X129776888Y-78277750D01*
X129776886Y-78277750D01*
X129587594Y-78277750D01*
X129587592Y-78277750D01*
X129402437Y-78317105D01*
X129229509Y-78394098D01*
X129076369Y-78505360D01*
X128949706Y-78646033D01*
X128855060Y-78809965D01*
X128796566Y-78989992D01*
X128776780Y-79178250D01*
X128796566Y-79366507D01*
X128855060Y-79546534D01*
X128949706Y-79710466D01*
X128967545Y-79730278D01*
X128995712Y-79783252D01*
X128995712Y-79843248D01*
X128967545Y-79896222D01*
X128949706Y-79916033D01*
X128855060Y-80079965D01*
X128796566Y-80259992D01*
X128776780Y-80448250D01*
X128796566Y-80636507D01*
X128855060Y-80816534D01*
X128949706Y-80980466D01*
X128967545Y-81000278D01*
X128995712Y-81053252D01*
X128995712Y-81113248D01*
X128967545Y-81166222D01*
X128949706Y-81186033D01*
X128855060Y-81349965D01*
X128796566Y-81529992D01*
X128776780Y-81718249D01*
X128796566Y-81906507D01*
X128855060Y-82086534D01*
X128949706Y-82250466D01*
X128967545Y-82270278D01*
X128995712Y-82323252D01*
X128995712Y-82383248D01*
X128967545Y-82436222D01*
X128949706Y-82456033D01*
X128855060Y-82619965D01*
X128796566Y-82799992D01*
X128776780Y-82988249D01*
X128796566Y-83176507D01*
X128855060Y-83356534D01*
X128949706Y-83520466D01*
X128967545Y-83540278D01*
X128995712Y-83593252D01*
X128995712Y-83653248D01*
X128967545Y-83706222D01*
X128949706Y-83726033D01*
X128855060Y-83889965D01*
X128796566Y-84069992D01*
X128776780Y-84258249D01*
X127412700Y-84258249D01*
X127392914Y-84069994D01*
X127334419Y-83889966D01*
X127334419Y-83889965D01*
X127239775Y-83726037D01*
X127239774Y-83726036D01*
X127239773Y-83726034D01*
X127221933Y-83706221D01*
X127193767Y-83653249D01*
X127193767Y-83593251D01*
X127221933Y-83540278D01*
X127239773Y-83520466D01*
X127334419Y-83356534D01*
X127392914Y-83176506D01*
X127412700Y-82988250D01*
X127392914Y-82799994D01*
X127345677Y-82654614D01*
X127334419Y-82619965D01*
X127239775Y-82456037D01*
X127239774Y-82456036D01*
X127239773Y-82456034D01*
X127221933Y-82436221D01*
X127193767Y-82383249D01*
X127193767Y-82323251D01*
X127221933Y-82270278D01*
X127239773Y-82250466D01*
X127334419Y-82086534D01*
X127392914Y-81906506D01*
X127412700Y-81718250D01*
X127392914Y-81529994D01*
X127334419Y-81349966D01*
X127334419Y-81349965D01*
X127239775Y-81186037D01*
X127239774Y-81186036D01*
X127239773Y-81186034D01*
X127221933Y-81166221D01*
X127193767Y-81113249D01*
X127193767Y-81053251D01*
X127221933Y-81000278D01*
X127239773Y-80980466D01*
X127334419Y-80816534D01*
X127392914Y-80636506D01*
X127412700Y-80448250D01*
X127392914Y-80259994D01*
X127334419Y-80079966D01*
X127334419Y-80079965D01*
X127239775Y-79916037D01*
X127239774Y-79916036D01*
X127239773Y-79916034D01*
X127221933Y-79896221D01*
X127193767Y-79843249D01*
X127193767Y-79783251D01*
X127221933Y-79730278D01*
X127239773Y-79710466D01*
X127334419Y-79546534D01*
X127392914Y-79366506D01*
X127412700Y-79178250D01*
X127392914Y-78989994D01*
X127334419Y-78809966D01*
X127334419Y-78809965D01*
X127239775Y-78646037D01*
X127239774Y-78646036D01*
X127239773Y-78646034D01*
X127221933Y-78626221D01*
X127193767Y-78573249D01*
X127193767Y-78513251D01*
X127221933Y-78460278D01*
X127239773Y-78440466D01*
X127334419Y-78276534D01*
X127392914Y-78096506D01*
X127412700Y-77908250D01*
X127392914Y-77719994D01*
X127334419Y-77539966D01*
X127334419Y-77539965D01*
X127239773Y-77376033D01*
X127113110Y-77235360D01*
X126959970Y-77124098D01*
X126787042Y-77047105D01*
X126601888Y-77007750D01*
X126601886Y-77007750D01*
X126412594Y-77007750D01*
X126412592Y-77007750D01*
X126227437Y-77047105D01*
X126054509Y-77124098D01*
X125901369Y-77235360D01*
X125774706Y-77376033D01*
X125680060Y-77539965D01*
X125621566Y-77719992D01*
X125601780Y-77908250D01*
X125621566Y-78096507D01*
X125680060Y-78276534D01*
X125774706Y-78440465D01*
X125792544Y-78460276D01*
X125820711Y-78513249D01*
X125820712Y-78573245D01*
X125792547Y-78626219D01*
X125774706Y-78646033D01*
X125680060Y-78809965D01*
X125621566Y-78989992D01*
X125601780Y-79178250D01*
X125621566Y-79366507D01*
X125680060Y-79546534D01*
X125774706Y-79710466D01*
X125792545Y-79730278D01*
X125820712Y-79783252D01*
X125820712Y-79843248D01*
X125792545Y-79896222D01*
X125774706Y-79916033D01*
X125680060Y-80079965D01*
X125621566Y-80259992D01*
X125601780Y-80448249D01*
X125621566Y-80636507D01*
X125680060Y-80816534D01*
X125774706Y-80980466D01*
X125792545Y-81000278D01*
X125820712Y-81053252D01*
X125820712Y-81113248D01*
X125792545Y-81166222D01*
X125774706Y-81186033D01*
X125680060Y-81349965D01*
X125621566Y-81529992D01*
X125601780Y-81718250D01*
X125621566Y-81906507D01*
X125680060Y-82086534D01*
X125774706Y-82250466D01*
X125792545Y-82270278D01*
X125820712Y-82323252D01*
X125820712Y-82383248D01*
X125792545Y-82436222D01*
X125774706Y-82456033D01*
X125680060Y-82619965D01*
X125621566Y-82799992D01*
X125601780Y-82988249D01*
X125621566Y-83176507D01*
X125680060Y-83356534D01*
X125774706Y-83520466D01*
X125792545Y-83540278D01*
X125820712Y-83593252D01*
X125820712Y-83653248D01*
X125792545Y-83706222D01*
X125774706Y-83726033D01*
X125680060Y-83889965D01*
X125621566Y-84069992D01*
X125601780Y-84258249D01*
X125621566Y-84446507D01*
X125680060Y-84626534D01*
X125774706Y-84790466D01*
X125792545Y-84810278D01*
X125820712Y-84863252D01*
X125820712Y-84923248D01*
X125792545Y-84976222D01*
X125774706Y-84996033D01*
X125680060Y-85159965D01*
X125621566Y-85339992D01*
X125601780Y-85528250D01*
X122028133Y-85528250D01*
X121570173Y-84626191D01*
X121568293Y-84622322D01*
X121541255Y-84564134D01*
X121311649Y-84069994D01*
X121115575Y-83648018D01*
X121113825Y-83644074D01*
X120695280Y-82654614D01*
X120693668Y-82650612D01*
X120439020Y-81984966D01*
X120309784Y-81647147D01*
X120308317Y-81643100D01*
X120298833Y-81615465D01*
X119959587Y-80626915D01*
X119958258Y-80622810D01*
X119873744Y-80345462D01*
X119750266Y-79940249D01*
X120394780Y-79940249D01*
X120414566Y-80128507D01*
X120473060Y-80308534D01*
X120567706Y-80472466D01*
X120694369Y-80613139D01*
X120847509Y-80724401D01*
X121020437Y-80801394D01*
X121205592Y-80840750D01*
X121205594Y-80840750D01*
X121394886Y-80840750D01*
X121394888Y-80840750D01*
X121580040Y-80801395D01*
X121580041Y-80801394D01*
X121580043Y-80801394D01*
X121752970Y-80724401D01*
X121752975Y-80724396D01*
X121757802Y-80722248D01*
X121808239Y-80711527D01*
X121858675Y-80722248D01*
X121863508Y-80724400D01*
X121863510Y-80724401D01*
X121959408Y-80767098D01*
X122036437Y-80801394D01*
X122221592Y-80840750D01*
X122221594Y-80840750D01*
X122410886Y-80840750D01*
X122410888Y-80840750D01*
X122596040Y-80801395D01*
X122596041Y-80801394D01*
X122596043Y-80801394D01*
X122768970Y-80724401D01*
X122768975Y-80724396D01*
X122773802Y-80722248D01*
X122824239Y-80711527D01*
X122874675Y-80722248D01*
X122879508Y-80724400D01*
X122879510Y-80724401D01*
X122975408Y-80767098D01*
X123052437Y-80801394D01*
X123237592Y-80840750D01*
X123237594Y-80840750D01*
X123426886Y-80840750D01*
X123426888Y-80840750D01*
X123560409Y-80812369D01*
X123612043Y-80801394D01*
X123784970Y-80724401D01*
X123842108Y-80682888D01*
X123938110Y-80613139D01*
X124064773Y-80472466D01*
X124159419Y-80308534D01*
X124175256Y-80259792D01*
X124217914Y-80128506D01*
X124237700Y-79940250D01*
X124217914Y-79751994D01*
X124159419Y-79571966D01*
X124159419Y-79571965D01*
X124064773Y-79408033D01*
X123938110Y-79267360D01*
X123784970Y-79156098D01*
X123612042Y-79079105D01*
X123426888Y-79039750D01*
X123426886Y-79039750D01*
X123237594Y-79039750D01*
X123237592Y-79039750D01*
X123052441Y-79079104D01*
X122874676Y-79158251D01*
X122824240Y-79168971D01*
X122773804Y-79158251D01*
X122632361Y-79095276D01*
X122596043Y-79079106D01*
X122596042Y-79079105D01*
X122596038Y-79079104D01*
X122410888Y-79039750D01*
X122410886Y-79039750D01*
X122221594Y-79039750D01*
X122221592Y-79039750D01*
X122036441Y-79079104D01*
X121858676Y-79158251D01*
X121808240Y-79168971D01*
X121757804Y-79158251D01*
X121616361Y-79095276D01*
X121580043Y-79079106D01*
X121580042Y-79079105D01*
X121580038Y-79079104D01*
X121394888Y-79039750D01*
X121394886Y-79039750D01*
X121205594Y-79039750D01*
X121205592Y-79039750D01*
X121020437Y-79079105D01*
X120847509Y-79156098D01*
X120694369Y-79267360D01*
X120567706Y-79408033D01*
X120473060Y-79571965D01*
X120414566Y-79751992D01*
X120394780Y-79940249D01*
X119750266Y-79940249D01*
X119645091Y-79595100D01*
X119643913Y-79590976D01*
X119634457Y-79555569D01*
X119366685Y-78552967D01*
X119365665Y-78548866D01*
X119124703Y-77501777D01*
X119123824Y-77497629D01*
X118919448Y-76442842D01*
X118918705Y-76438614D01*
X118913040Y-76402735D01*
X118888756Y-76248927D01*
X118887240Y-76229590D01*
X118887240Y-75368250D01*
X119886780Y-75368250D01*
X119906566Y-75556507D01*
X119965060Y-75736534D01*
X120059706Y-75900466D01*
X120186369Y-76041139D01*
X120339509Y-76152401D01*
X120512437Y-76229394D01*
X120697592Y-76268750D01*
X120697594Y-76268750D01*
X120886886Y-76268750D01*
X120886888Y-76268750D01*
X121067686Y-76230320D01*
X121072043Y-76229394D01*
X121244970Y-76152401D01*
X121372340Y-76059862D01*
X121398110Y-76041139D01*
X121524773Y-75900466D01*
X121619419Y-75736534D01*
X121639851Y-75673650D01*
X121639851Y-75673649D01*
X141072835Y-75673649D01*
X141092621Y-75861907D01*
X141151115Y-76041934D01*
X141245759Y-76205863D01*
X141245762Y-76205866D01*
X141267123Y-76229590D01*
X141267781Y-76230320D01*
X141295947Y-76283293D01*
X141295948Y-76343289D01*
X141267784Y-76396262D01*
X141261956Y-76402735D01*
X141167309Y-76566667D01*
X141108815Y-76746694D01*
X141089029Y-76934952D01*
X141108815Y-77123209D01*
X141167309Y-77303236D01*
X141261955Y-77467168D01*
X141388618Y-77607841D01*
X141541758Y-77719103D01*
X141714686Y-77796096D01*
X141899841Y-77835452D01*
X141899843Y-77835452D01*
X142089135Y-77835452D01*
X142089137Y-77835452D01*
X142230214Y-77805465D01*
X142274292Y-77796096D01*
X142447219Y-77719103D01*
X142454366Y-77713909D01*
X142511708Y-77691204D01*
X142572897Y-77698932D01*
X142622795Y-77735183D01*
X142649057Y-77790988D01*
X142645186Y-77852542D01*
X142624326Y-77916743D01*
X142604540Y-78105000D01*
X142624326Y-78293257D01*
X142682820Y-78473284D01*
X142777466Y-78637215D01*
X142795304Y-78657026D01*
X142823471Y-78709999D01*
X142823472Y-78769995D01*
X142795307Y-78822969D01*
X142777466Y-78842783D01*
X142682820Y-79006715D01*
X142624326Y-79186742D01*
X142604540Y-79374999D01*
X142624326Y-79563257D01*
X142682820Y-79743284D01*
X142777466Y-79907216D01*
X142904129Y-80047889D01*
X143057269Y-80159151D01*
X143228210Y-80235260D01*
X143269923Y-80265566D01*
X143295704Y-80310219D01*
X143317821Y-80378284D01*
X143412465Y-80542214D01*
X143539129Y-80682889D01*
X143692269Y-80794151D01*
X143865197Y-80871144D01*
X144050352Y-80910500D01*
X144050354Y-80910500D01*
X144239646Y-80910500D01*
X144239648Y-80910500D01*
X144363083Y-80884262D01*
X144424803Y-80871144D01*
X144597730Y-80794151D01*
X144597729Y-80794151D01*
X144750870Y-80682889D01*
X144877533Y-80542216D01*
X144972179Y-80378284D01*
X144982842Y-80345466D01*
X145030674Y-80198256D01*
X145050460Y-80010000D01*
X145030674Y-79821744D01*
X144994516Y-79710462D01*
X144972179Y-79641715D01*
X144877533Y-79477783D01*
X144859694Y-79457971D01*
X144831527Y-79404997D01*
X144831528Y-79345000D01*
X144859694Y-79292027D01*
X144877533Y-79272216D01*
X144972179Y-79108284D01*
X145030674Y-78928256D01*
X145050460Y-78740000D01*
X145030674Y-78551744D01*
X144979452Y-78394099D01*
X144972179Y-78371715D01*
X144877535Y-78207787D01*
X144877534Y-78207786D01*
X144877533Y-78207784D01*
X144859693Y-78187971D01*
X144831527Y-78134999D01*
X144831527Y-78075001D01*
X144859693Y-78022028D01*
X144877533Y-78002216D01*
X144972179Y-77838284D01*
X145030674Y-77658256D01*
X145050460Y-77470000D01*
X145030674Y-77281744D01*
X144979452Y-77124099D01*
X144972179Y-77101715D01*
X144877533Y-76937783D01*
X144750870Y-76797110D01*
X144597730Y-76685848D01*
X144424802Y-76608855D01*
X144239648Y-76569500D01*
X144239646Y-76569500D01*
X144050354Y-76569500D01*
X144050352Y-76569500D01*
X143865197Y-76608855D01*
X143692269Y-76685848D01*
X143539129Y-76797110D01*
X143412466Y-76937783D01*
X143317820Y-77101716D01*
X143295704Y-77169781D01*
X143269923Y-77214434D01*
X143228210Y-77244740D01*
X143057269Y-77320848D01*
X143050118Y-77326044D01*
X142992774Y-77348747D01*
X142931585Y-77341017D01*
X142881690Y-77304765D01*
X142855430Y-77248960D01*
X142859303Y-77187407D01*
X142879873Y-77124099D01*
X142880163Y-77123208D01*
X142897811Y-76955293D01*
X142909209Y-76914879D01*
X142933446Y-76880584D01*
X143086584Y-76727446D01*
X143102680Y-76714552D01*
X143104668Y-76712433D01*
X143104672Y-76712432D01*
X143150743Y-76663369D01*
X143153361Y-76660669D01*
X143172915Y-76641117D01*
X143175376Y-76637944D01*
X143182951Y-76629073D01*
X143212857Y-76597228D01*
X143222507Y-76579673D01*
X143233195Y-76563403D01*
X143245466Y-76547584D01*
X143245468Y-76547582D01*
X143262821Y-76507478D01*
X143267952Y-76497008D01*
X143288992Y-76458738D01*
X143293970Y-76439345D01*
X143300276Y-76420928D01*
X143304094Y-76412105D01*
X143308233Y-76402542D01*
X143315067Y-76359391D01*
X143317430Y-76347977D01*
X143328295Y-76305665D01*
X143328295Y-76285630D01*
X143329822Y-76266231D01*
X143330842Y-76259791D01*
X143332955Y-76246450D01*
X143328845Y-76202971D01*
X143328295Y-76191302D01*
X143328295Y-75748452D01*
X143337734Y-75700999D01*
X143364614Y-75660771D01*
X145397047Y-73628338D01*
X147436726Y-71588658D01*
X147490468Y-71557075D01*
X147552790Y-71555633D01*
X147607937Y-71584698D01*
X147618808Y-71594608D01*
X147654540Y-71652309D01*
X147654542Y-71720180D01*
X147618813Y-71777886D01*
X147494813Y-71890926D01*
X147363527Y-72064778D01*
X147266421Y-72259792D01*
X147206804Y-72469324D01*
X147186704Y-72686249D01*
X147206804Y-72903175D01*
X147266421Y-73112707D01*
X147363527Y-73307721D01*
X147494813Y-73481573D01*
X147618812Y-73594613D01*
X147654540Y-73652316D01*
X147654540Y-73720184D01*
X147618812Y-73777887D01*
X147494813Y-73890926D01*
X147363527Y-74064778D01*
X147266421Y-74259792D01*
X147206804Y-74469324D01*
X147186704Y-74686249D01*
X147206804Y-74903175D01*
X147266421Y-75112707D01*
X147363527Y-75307721D01*
X147494813Y-75481573D01*
X147618812Y-75594613D01*
X147654540Y-75652316D01*
X147654540Y-75720184D01*
X147618812Y-75777887D01*
X147494813Y-75890926D01*
X147363527Y-76064778D01*
X147266421Y-76259792D01*
X147206804Y-76469324D01*
X147186704Y-76686249D01*
X147206804Y-76903175D01*
X147266421Y-77112707D01*
X147363527Y-77307721D01*
X147494813Y-77481573D01*
X147558867Y-77539965D01*
X147655808Y-77628338D01*
X147704129Y-77658257D01*
X147841031Y-77743023D01*
X147964843Y-77790988D01*
X148044171Y-77821720D01*
X148258314Y-77861750D01*
X148476164Y-77861750D01*
X148476166Y-77861750D01*
X148690309Y-77821720D01*
X148825736Y-77769254D01*
X148893448Y-77743023D01*
X148893450Y-77743022D01*
X149078672Y-77628338D01*
X149239667Y-77481572D01*
X149268285Y-77443674D01*
X149311968Y-77407400D01*
X149367240Y-77394400D01*
X149422512Y-77407400D01*
X149466195Y-77443675D01*
X149494812Y-77481572D01*
X149514720Y-77499720D01*
X149655808Y-77628338D01*
X149704129Y-77658257D01*
X149841031Y-77743023D01*
X149964843Y-77790988D01*
X150044171Y-77821720D01*
X150258314Y-77861750D01*
X150476164Y-77861750D01*
X150476166Y-77861750D01*
X150690309Y-77821720D01*
X150825736Y-77769254D01*
X150893448Y-77743023D01*
X150893450Y-77743022D01*
X151078672Y-77628338D01*
X151239667Y-77481572D01*
X151370952Y-77307722D01*
X151468057Y-77112709D01*
X151475943Y-77084994D01*
X151527675Y-76903175D01*
X151537503Y-76797110D01*
X151547776Y-76686250D01*
X151527675Y-76469327D01*
X151527675Y-76469324D01*
X151468058Y-76259792D01*
X151370952Y-76064778D01*
X151239666Y-75890926D01*
X151115667Y-75777887D01*
X151079939Y-75720184D01*
X151079939Y-75694732D01*
X153015896Y-75694732D01*
X153035682Y-75882990D01*
X153094176Y-76063017D01*
X153188822Y-76226949D01*
X153315485Y-76367622D01*
X153468625Y-76478884D01*
X153641553Y-76555877D01*
X153826708Y-76595233D01*
X153826710Y-76595233D01*
X154016002Y-76595233D01*
X154016004Y-76595233D01*
X154150391Y-76566668D01*
X154201159Y-76555877D01*
X154374086Y-76478884D01*
X154401815Y-76458738D01*
X154527226Y-76367622D01*
X154609838Y-76275873D01*
X154653889Y-76226949D01*
X154748535Y-76063017D01*
X154794147Y-75922637D01*
X154829107Y-75868805D01*
X154886299Y-75839665D01*
X154896167Y-75837568D01*
X155069094Y-75760575D01*
X155159718Y-75694733D01*
X155222234Y-75649313D01*
X155348897Y-75508640D01*
X155420569Y-75384500D01*
X155465956Y-75339113D01*
X155527956Y-75322500D01*
X155542648Y-75322500D01*
X155666084Y-75296262D01*
X155727803Y-75283144D01*
X155900730Y-75206151D01*
X156010968Y-75126059D01*
X156025719Y-75115342D01*
X173478596Y-75115342D01*
X173498382Y-75303599D01*
X173556876Y-75483626D01*
X173651522Y-75647558D01*
X173778185Y-75788231D01*
X173931325Y-75899493D01*
X174104253Y-75976486D01*
X174289408Y-76015842D01*
X174289410Y-76015842D01*
X174478702Y-76015842D01*
X174478704Y-76015842D01*
X174602140Y-75989604D01*
X174663859Y-75976486D01*
X174836786Y-75899493D01*
X174888520Y-75861906D01*
X174989926Y-75788231D01*
X175116589Y-75647558D01*
X175211235Y-75483626D01*
X175262305Y-75326449D01*
X175269730Y-75303598D01*
X175289516Y-75115342D01*
X175269730Y-74927086D01*
X175211235Y-74747058D01*
X175211235Y-74747057D01*
X175116589Y-74583125D01*
X174989926Y-74442452D01*
X174836786Y-74331190D01*
X174663858Y-74254197D01*
X174478704Y-74214842D01*
X174478702Y-74214842D01*
X174289410Y-74214842D01*
X174289408Y-74214842D01*
X174104253Y-74254197D01*
X173931325Y-74331190D01*
X173778185Y-74442452D01*
X173651522Y-74583125D01*
X173556876Y-74747057D01*
X173498382Y-74927084D01*
X173478596Y-75115342D01*
X156025719Y-75115342D01*
X156053870Y-75094889D01*
X156180533Y-74954216D01*
X156275179Y-74790284D01*
X156318128Y-74658101D01*
X156333674Y-74610256D01*
X156353460Y-74422000D01*
X156333674Y-74233744D01*
X156298628Y-74125884D01*
X156275179Y-74053715D01*
X156180533Y-73889783D01*
X156053870Y-73749110D01*
X155900730Y-73637848D01*
X155727802Y-73560855D01*
X155542648Y-73521500D01*
X155542646Y-73521500D01*
X155353354Y-73521500D01*
X155353352Y-73521500D01*
X155168197Y-73560855D01*
X154995269Y-73637848D01*
X154842129Y-73749110D01*
X154715466Y-73889783D01*
X154643795Y-74013924D01*
X154598408Y-74059311D01*
X154536408Y-74075924D01*
X154521716Y-74075924D01*
X154336561Y-74115279D01*
X154163633Y-74192272D01*
X154010493Y-74303534D01*
X153883830Y-74444207D01*
X153789185Y-74608138D01*
X153743572Y-74748520D01*
X153708614Y-74802350D01*
X153651424Y-74831490D01*
X153641552Y-74833589D01*
X153641553Y-74833589D01*
X153468623Y-74910582D01*
X153315485Y-75021843D01*
X153188822Y-75162516D01*
X153094176Y-75326448D01*
X153035682Y-75506475D01*
X153015896Y-75694732D01*
X151079939Y-75694732D01*
X151079939Y-75652316D01*
X151115667Y-75594613D01*
X151239666Y-75481573D01*
X151268285Y-75443675D01*
X151370952Y-75307722D01*
X151468057Y-75112709D01*
X151469732Y-75106823D01*
X151527675Y-74903175D01*
X151534317Y-74831491D01*
X151547776Y-74686250D01*
X151527675Y-74469327D01*
X151527226Y-74467750D01*
X151522901Y-74452549D01*
X151519622Y-74399664D01*
X151538720Y-74350239D01*
X151576706Y-74313298D01*
X151602197Y-74304257D01*
X151601574Y-74302682D01*
X151634066Y-74289817D01*
X151656757Y-74280832D01*
X151667794Y-74277053D01*
X151709740Y-74264868D01*
X151726979Y-74254672D01*
X151744452Y-74246112D01*
X151763082Y-74238736D01*
X151798414Y-74213064D01*
X151808180Y-74206650D01*
X151832491Y-74192273D01*
X151845770Y-74184420D01*
X151859935Y-74170254D01*
X151874723Y-74157623D01*
X151890937Y-74145844D01*
X151918787Y-74112177D01*
X151926628Y-74103560D01*
X152123388Y-73906801D01*
X152139487Y-73893904D01*
X152141474Y-73891787D01*
X152141477Y-73891786D01*
X152187534Y-73842739D01*
X152190182Y-73840007D01*
X152209720Y-73820471D01*
X152212181Y-73817298D01*
X152219756Y-73808427D01*
X152249662Y-73776582D01*
X152259317Y-73759018D01*
X152269994Y-73742764D01*
X152282273Y-73726936D01*
X152299618Y-73686852D01*
X152304760Y-73676356D01*
X152325797Y-73638092D01*
X152330779Y-73618684D01*
X152337081Y-73600280D01*
X152345037Y-73581896D01*
X152351869Y-73538752D01*
X152354233Y-73527338D01*
X152365100Y-73485019D01*
X152365100Y-73464984D01*
X152366627Y-73445585D01*
X152366668Y-73445321D01*
X152369760Y-73425804D01*
X152365650Y-73382325D01*
X152365100Y-73370656D01*
X152365100Y-72193250D01*
X169416780Y-72193250D01*
X169436566Y-72381507D01*
X169495060Y-72561534D01*
X169589706Y-72725466D01*
X169716369Y-72866139D01*
X169869509Y-72977401D01*
X170042437Y-73054394D01*
X170227592Y-73093750D01*
X170227594Y-73093750D01*
X170416886Y-73093750D01*
X170416888Y-73093750D01*
X170540324Y-73067512D01*
X170602043Y-73054394D01*
X170774970Y-72977401D01*
X170877134Y-72903175D01*
X170928110Y-72866139D01*
X170962227Y-72828249D01*
X171054773Y-72725466D01*
X171149419Y-72561534D01*
X171207914Y-72381506D01*
X171227700Y-72193250D01*
X175766780Y-72193250D01*
X175786566Y-72381507D01*
X175845060Y-72561534D01*
X175939706Y-72725466D01*
X176066369Y-72866139D01*
X176219509Y-72977401D01*
X176392437Y-73054394D01*
X176577592Y-73093750D01*
X176577594Y-73093750D01*
X176766886Y-73093750D01*
X176766888Y-73093750D01*
X176890324Y-73067512D01*
X176952043Y-73054394D01*
X177124970Y-72977401D01*
X177227134Y-72903175D01*
X177278110Y-72866139D01*
X177312227Y-72828249D01*
X177404773Y-72725466D01*
X177499419Y-72561534D01*
X177557914Y-72381506D01*
X177577700Y-72193250D01*
X177557914Y-72004994D01*
X177527572Y-71911613D01*
X177499419Y-71824965D01*
X177404773Y-71661033D01*
X177386934Y-71641221D01*
X177358767Y-71588246D01*
X177358768Y-71528248D01*
X177386936Y-71475275D01*
X177404773Y-71455466D01*
X177499419Y-71291534D01*
X177557914Y-71111506D01*
X177577700Y-70923250D01*
X177557914Y-70734994D01*
X177499419Y-70554966D01*
X177499419Y-70554965D01*
X177404775Y-70391037D01*
X177404774Y-70391036D01*
X177404773Y-70391034D01*
X177386933Y-70371221D01*
X177358767Y-70318249D01*
X177358767Y-70258251D01*
X177386933Y-70205278D01*
X177404773Y-70185466D01*
X177499419Y-70021534D01*
X177557914Y-69841506D01*
X177577700Y-69653250D01*
X177557914Y-69464994D01*
X177527572Y-69371613D01*
X177499419Y-69284965D01*
X177404775Y-69121037D01*
X177404774Y-69121036D01*
X177404773Y-69121034D01*
X177386933Y-69101221D01*
X177358767Y-69048249D01*
X177358767Y-68988251D01*
X177386933Y-68935278D01*
X177404773Y-68915466D01*
X177499419Y-68751534D01*
X177557914Y-68571506D01*
X177577700Y-68383250D01*
X177557914Y-68194994D01*
X177517808Y-68071561D01*
X177499419Y-68014965D01*
X177404775Y-67851037D01*
X177404774Y-67851036D01*
X177404773Y-67851034D01*
X177386933Y-67831221D01*
X177358767Y-67778249D01*
X177358767Y-67718251D01*
X177386933Y-67665278D01*
X177404773Y-67645466D01*
X177499419Y-67481534D01*
X177557914Y-67301506D01*
X177577700Y-67113250D01*
X177557914Y-66924994D01*
X177499419Y-66744966D01*
X177499419Y-66744965D01*
X177404775Y-66581037D01*
X177404774Y-66581036D01*
X177404773Y-66581034D01*
X177386933Y-66561221D01*
X177358767Y-66508249D01*
X177358767Y-66448251D01*
X177386933Y-66395278D01*
X177404773Y-66375466D01*
X177499419Y-66211534D01*
X177557914Y-66031506D01*
X177577700Y-65843250D01*
X177557914Y-65654994D01*
X177499419Y-65474966D01*
X177499419Y-65474965D01*
X177404773Y-65311033D01*
X177386934Y-65291221D01*
X177358767Y-65238247D01*
X177358768Y-65178250D01*
X177386934Y-65125277D01*
X177404773Y-65105466D01*
X177499419Y-64941534D01*
X177557914Y-64761506D01*
X177577700Y-64573250D01*
X177557914Y-64384994D01*
X177499419Y-64204966D01*
X177499419Y-64204965D01*
X177404773Y-64041033D01*
X177278110Y-63900360D01*
X177124970Y-63789098D01*
X176952042Y-63712105D01*
X176766888Y-63672750D01*
X176766886Y-63672750D01*
X176577594Y-63672750D01*
X176577592Y-63672750D01*
X176392437Y-63712105D01*
X176219509Y-63789098D01*
X176066369Y-63900360D01*
X175939706Y-64041033D01*
X175845060Y-64204965D01*
X175786566Y-64384992D01*
X175766780Y-64573249D01*
X175786566Y-64761507D01*
X175845060Y-64941534D01*
X175939706Y-65105465D01*
X175957544Y-65125276D01*
X175985711Y-65178249D01*
X175985712Y-65238245D01*
X175957547Y-65291219D01*
X175939706Y-65311033D01*
X175845060Y-65474965D01*
X175786566Y-65654992D01*
X175766780Y-65843249D01*
X175786566Y-66031507D01*
X175845060Y-66211534D01*
X175939706Y-66375466D01*
X175957545Y-66395278D01*
X175985712Y-66448252D01*
X175985712Y-66508248D01*
X175957545Y-66561222D01*
X175939706Y-66581033D01*
X175845060Y-66744965D01*
X175786566Y-66924992D01*
X175766780Y-67113250D01*
X175786566Y-67301507D01*
X175845060Y-67481534D01*
X175939706Y-67645466D01*
X175957545Y-67665278D01*
X175985712Y-67718252D01*
X175985712Y-67778248D01*
X175957545Y-67831222D01*
X175939706Y-67851033D01*
X175845060Y-68014965D01*
X175786566Y-68194992D01*
X175766780Y-68383250D01*
X175786566Y-68571507D01*
X175845060Y-68751534D01*
X175939706Y-68915466D01*
X175957545Y-68935278D01*
X175985712Y-68988252D01*
X175985712Y-69048248D01*
X175957545Y-69101222D01*
X175939706Y-69121033D01*
X175845060Y-69284965D01*
X175786566Y-69464992D01*
X175766780Y-69653249D01*
X175786566Y-69841507D01*
X175845060Y-70021534D01*
X175939706Y-70185466D01*
X175957545Y-70205278D01*
X175985712Y-70258252D01*
X175985712Y-70318248D01*
X175957545Y-70371222D01*
X175939706Y-70391033D01*
X175845060Y-70554965D01*
X175786566Y-70734992D01*
X175766780Y-70923250D01*
X175786566Y-71111507D01*
X175845060Y-71291534D01*
X175939706Y-71455466D01*
X175957545Y-71475278D01*
X175985712Y-71528252D01*
X175985712Y-71588248D01*
X175957545Y-71641222D01*
X175939706Y-71661033D01*
X175845060Y-71824965D01*
X175786566Y-72004992D01*
X175766780Y-72193250D01*
X171227700Y-72193250D01*
X171207914Y-72004994D01*
X171177572Y-71911613D01*
X171149419Y-71824965D01*
X171054773Y-71661033D01*
X171036934Y-71641221D01*
X171008767Y-71588246D01*
X171008768Y-71528248D01*
X171036936Y-71475275D01*
X171054773Y-71455466D01*
X171149419Y-71291534D01*
X171207914Y-71111506D01*
X171227700Y-70923250D01*
X172591780Y-70923250D01*
X172611566Y-71111507D01*
X172670060Y-71291534D01*
X172764706Y-71455466D01*
X172891369Y-71596139D01*
X173044509Y-71707401D01*
X173217437Y-71784394D01*
X173402592Y-71823750D01*
X173402594Y-71823750D01*
X173591886Y-71823750D01*
X173591888Y-71823750D01*
X173756234Y-71788817D01*
X173777043Y-71784394D01*
X173949970Y-71707401D01*
X174041058Y-71641222D01*
X174103110Y-71596139D01*
X174229773Y-71455466D01*
X174324419Y-71291534D01*
X174364534Y-71168073D01*
X174382914Y-71111506D01*
X174402700Y-70923250D01*
X174382914Y-70734994D01*
X174324419Y-70554966D01*
X174324419Y-70554965D01*
X174229775Y-70391037D01*
X174229774Y-70391036D01*
X174229773Y-70391034D01*
X174211933Y-70371221D01*
X174183767Y-70318249D01*
X174183767Y-70258251D01*
X174211933Y-70205278D01*
X174229773Y-70185466D01*
X174324419Y-70021534D01*
X174382914Y-69841506D01*
X174402700Y-69653250D01*
X174382914Y-69464994D01*
X174352572Y-69371613D01*
X174324419Y-69284965D01*
X174229775Y-69121037D01*
X174229774Y-69121036D01*
X174229773Y-69121034D01*
X174211933Y-69101221D01*
X174183767Y-69048249D01*
X174183767Y-68988251D01*
X174211933Y-68935278D01*
X174229773Y-68915466D01*
X174324419Y-68751534D01*
X174382914Y-68571506D01*
X174402700Y-68383250D01*
X174382914Y-68194994D01*
X174342808Y-68071561D01*
X174324419Y-68014965D01*
X174229775Y-67851037D01*
X174229774Y-67851036D01*
X174229773Y-67851034D01*
X174211933Y-67831221D01*
X174183767Y-67778249D01*
X174183767Y-67718251D01*
X174211933Y-67665278D01*
X174229773Y-67645466D01*
X174324419Y-67481534D01*
X174382914Y-67301506D01*
X174402700Y-67113250D01*
X174382914Y-66924994D01*
X174324419Y-66744966D01*
X174324419Y-66744965D01*
X174229775Y-66581037D01*
X174229774Y-66581036D01*
X174229773Y-66581034D01*
X174211933Y-66561221D01*
X174183767Y-66508249D01*
X174183767Y-66448251D01*
X174211933Y-66395278D01*
X174229773Y-66375466D01*
X174324419Y-66211534D01*
X174382914Y-66031506D01*
X174402700Y-65843250D01*
X174382914Y-65654994D01*
X174324419Y-65474966D01*
X174324419Y-65474965D01*
X174229773Y-65311033D01*
X174103110Y-65170360D01*
X173949970Y-65059098D01*
X173777042Y-64982105D01*
X173591888Y-64942750D01*
X173591886Y-64942750D01*
X173402594Y-64942750D01*
X173402592Y-64942750D01*
X173217437Y-64982105D01*
X173044509Y-65059098D01*
X172891369Y-65170360D01*
X172764706Y-65311033D01*
X172670060Y-65474965D01*
X172611566Y-65654992D01*
X172591780Y-65843249D01*
X172611566Y-66031507D01*
X172670060Y-66211534D01*
X172764706Y-66375466D01*
X172782545Y-66395278D01*
X172810712Y-66448252D01*
X172810712Y-66508248D01*
X172782545Y-66561222D01*
X172764706Y-66581033D01*
X172670060Y-66744965D01*
X172611566Y-66924992D01*
X172591780Y-67113250D01*
X172611566Y-67301507D01*
X172670060Y-67481534D01*
X172764706Y-67645466D01*
X172782545Y-67665278D01*
X172810712Y-67718252D01*
X172810712Y-67778248D01*
X172782545Y-67831222D01*
X172764706Y-67851033D01*
X172670060Y-68014965D01*
X172611566Y-68194992D01*
X172591780Y-68383250D01*
X172611566Y-68571507D01*
X172670060Y-68751534D01*
X172764706Y-68915466D01*
X172782545Y-68935278D01*
X172810712Y-68988252D01*
X172810712Y-69048248D01*
X172782545Y-69101222D01*
X172764706Y-69121033D01*
X172670060Y-69284965D01*
X172611566Y-69464992D01*
X172591780Y-69653249D01*
X172611566Y-69841507D01*
X172670060Y-70021534D01*
X172764706Y-70185466D01*
X172782545Y-70205278D01*
X172810712Y-70258252D01*
X172810712Y-70318248D01*
X172782545Y-70371222D01*
X172764706Y-70391033D01*
X172670060Y-70554965D01*
X172611566Y-70734992D01*
X172591780Y-70923250D01*
X171227700Y-70923250D01*
X171207914Y-70734994D01*
X171149419Y-70554966D01*
X171149419Y-70554965D01*
X171054775Y-70391037D01*
X171054774Y-70391036D01*
X171054773Y-70391034D01*
X171036933Y-70371221D01*
X171008767Y-70318249D01*
X171008767Y-70258251D01*
X171036933Y-70205278D01*
X171054773Y-70185466D01*
X171149419Y-70021534D01*
X171207914Y-69841506D01*
X171227700Y-69653250D01*
X171207914Y-69464994D01*
X171177572Y-69371613D01*
X171149419Y-69284965D01*
X171054775Y-69121037D01*
X171054774Y-69121036D01*
X171054773Y-69121034D01*
X171036933Y-69101221D01*
X171008767Y-69048249D01*
X171008767Y-68988251D01*
X171036933Y-68935278D01*
X171054773Y-68915466D01*
X171149419Y-68751534D01*
X171207914Y-68571506D01*
X171227700Y-68383250D01*
X171207914Y-68194994D01*
X171167808Y-68071561D01*
X171149419Y-68014965D01*
X171054775Y-67851037D01*
X171054774Y-67851036D01*
X171054773Y-67851034D01*
X171036933Y-67831221D01*
X171008767Y-67778249D01*
X171008767Y-67718251D01*
X171036933Y-67665278D01*
X171054773Y-67645466D01*
X171149419Y-67481534D01*
X171207914Y-67301506D01*
X171227700Y-67113250D01*
X171207914Y-66924994D01*
X171149419Y-66744966D01*
X171149419Y-66744965D01*
X171054775Y-66581037D01*
X171054774Y-66581036D01*
X171054773Y-66581034D01*
X171036933Y-66561221D01*
X171008767Y-66508249D01*
X171008767Y-66448251D01*
X171036933Y-66395278D01*
X171054773Y-66375466D01*
X171149419Y-66211534D01*
X171207914Y-66031506D01*
X171227700Y-65843250D01*
X171207914Y-65654994D01*
X171149419Y-65474966D01*
X171149419Y-65474965D01*
X171054773Y-65311033D01*
X171036934Y-65291221D01*
X171008767Y-65238247D01*
X171008768Y-65178250D01*
X171036934Y-65125277D01*
X171054773Y-65105466D01*
X171149419Y-64941534D01*
X171207914Y-64761506D01*
X171227700Y-64573250D01*
X171207914Y-64384994D01*
X171149419Y-64204966D01*
X171149419Y-64204965D01*
X171054773Y-64041033D01*
X170928110Y-63900360D01*
X170774970Y-63789098D01*
X170602042Y-63712105D01*
X170416888Y-63672750D01*
X170416886Y-63672750D01*
X170227594Y-63672750D01*
X170227592Y-63672750D01*
X170042437Y-63712105D01*
X169869509Y-63789098D01*
X169716369Y-63900360D01*
X169589706Y-64041033D01*
X169495060Y-64204965D01*
X169436566Y-64384992D01*
X169416780Y-64573249D01*
X169436566Y-64761507D01*
X169495060Y-64941534D01*
X169589706Y-65105465D01*
X169607544Y-65125276D01*
X169635711Y-65178249D01*
X169635712Y-65238245D01*
X169607547Y-65291219D01*
X169589706Y-65311033D01*
X169495060Y-65474965D01*
X169436566Y-65654992D01*
X169416780Y-65843249D01*
X169436566Y-66031507D01*
X169495060Y-66211534D01*
X169589706Y-66375466D01*
X169607545Y-66395278D01*
X169635712Y-66448252D01*
X169635712Y-66508248D01*
X169607545Y-66561222D01*
X169589706Y-66581033D01*
X169495060Y-66744965D01*
X169436566Y-66924992D01*
X169416780Y-67113250D01*
X169436566Y-67301507D01*
X169495060Y-67481534D01*
X169589706Y-67645466D01*
X169607545Y-67665278D01*
X169635712Y-67718252D01*
X169635712Y-67778248D01*
X169607545Y-67831222D01*
X169589706Y-67851033D01*
X169495060Y-68014965D01*
X169436566Y-68194992D01*
X169416780Y-68383250D01*
X169436566Y-68571507D01*
X169495060Y-68751534D01*
X169589706Y-68915466D01*
X169607545Y-68935278D01*
X169635712Y-68988252D01*
X169635712Y-69048248D01*
X169607545Y-69101222D01*
X169589706Y-69121033D01*
X169495060Y-69284965D01*
X169436566Y-69464992D01*
X169416780Y-69653249D01*
X169436566Y-69841507D01*
X169495060Y-70021534D01*
X169589706Y-70185466D01*
X169607545Y-70205278D01*
X169635712Y-70258252D01*
X169635712Y-70318248D01*
X169607545Y-70371222D01*
X169589706Y-70391033D01*
X169495060Y-70554965D01*
X169436566Y-70734992D01*
X169416780Y-70923250D01*
X169436566Y-71111507D01*
X169495060Y-71291534D01*
X169589706Y-71455466D01*
X169607545Y-71475278D01*
X169635712Y-71528252D01*
X169635712Y-71588248D01*
X169607545Y-71641222D01*
X169589706Y-71661033D01*
X169495060Y-71824965D01*
X169436566Y-72004992D01*
X169416780Y-72193250D01*
X152365100Y-72193250D01*
X152365100Y-69170744D01*
X152367364Y-69150236D01*
X152365161Y-69080113D01*
X152365100Y-69076219D01*
X152365100Y-69048654D01*
X152365100Y-69048650D01*
X152364597Y-69044670D01*
X152363681Y-69033028D01*
X152363217Y-69018249D01*
X152906780Y-69018249D01*
X152926566Y-69206507D01*
X152985060Y-69386534D01*
X153079706Y-69550466D01*
X153206369Y-69691139D01*
X153359507Y-69802400D01*
X153441535Y-69838921D01*
X153524991Y-69876078D01*
X153572268Y-69913016D01*
X153596671Y-69967825D01*
X153592486Y-70027675D01*
X153546326Y-70169740D01*
X153526540Y-70358000D01*
X153546326Y-70546257D01*
X153604820Y-70726284D01*
X153699466Y-70890216D01*
X153826129Y-71030889D01*
X153979269Y-71142151D01*
X154152197Y-71219144D01*
X154337352Y-71258500D01*
X154337354Y-71258500D01*
X154526646Y-71258500D01*
X154526648Y-71258500D01*
X154650511Y-71232172D01*
X154711803Y-71219144D01*
X154884730Y-71142151D01*
X155037871Y-71030888D01*
X155164533Y-70890216D01*
X155259179Y-70726284D01*
X155317674Y-70546256D01*
X155337460Y-70358000D01*
X155317674Y-70169744D01*
X155286595Y-70074094D01*
X155274851Y-70037948D01*
X155272466Y-69969627D01*
X155306650Y-69910426D01*
X155351076Y-69886808D01*
X155350136Y-69884696D01*
X155534970Y-69802401D01*
X155688110Y-69691139D01*
X155722227Y-69653249D01*
X155814773Y-69550466D01*
X155909419Y-69386534D01*
X155967914Y-69206506D01*
X155987700Y-69018250D01*
X155967914Y-68829994D01*
X155943477Y-68754787D01*
X155939293Y-68694939D01*
X155963696Y-68640129D01*
X156010972Y-68603192D01*
X156169970Y-68532401D01*
X156169970Y-68532400D01*
X156169972Y-68532400D01*
X156323110Y-68421139D01*
X156449773Y-68280466D01*
X156544419Y-68116534D01*
X156566635Y-68048160D01*
X156602914Y-67936506D01*
X156622700Y-67748250D01*
X156602914Y-67559994D01*
X156569367Y-67456747D01*
X156544419Y-67379965D01*
X156449773Y-67216033D01*
X156323110Y-67075360D01*
X156169970Y-66964098D01*
X156010973Y-66893307D01*
X155963695Y-66856370D01*
X155939293Y-66801560D01*
X155943477Y-66741712D01*
X155967914Y-66666506D01*
X155987700Y-66478250D01*
X155967914Y-66289994D01*
X155943477Y-66214787D01*
X155939293Y-66154939D01*
X155963696Y-66100129D01*
X156010972Y-66063192D01*
X156169970Y-65992401D01*
X156169970Y-65992400D01*
X156169972Y-65992400D01*
X156323110Y-65881139D01*
X156357227Y-65843249D01*
X156449773Y-65740466D01*
X156544419Y-65576534D01*
X156602914Y-65396506D01*
X156622700Y-65208250D01*
X156602914Y-65019994D01*
X156544419Y-64839966D01*
X156544419Y-64839965D01*
X156449773Y-64676033D01*
X156323110Y-64535360D01*
X156169970Y-64424098D01*
X155997042Y-64347105D01*
X155811888Y-64307750D01*
X155811886Y-64307750D01*
X155622594Y-64307750D01*
X155622592Y-64307750D01*
X155437437Y-64347105D01*
X155264509Y-64424098D01*
X155155125Y-64503571D01*
X155108021Y-64524543D01*
X155056459Y-64524543D01*
X155009355Y-64503571D01*
X154899970Y-64424098D01*
X154727042Y-64347105D01*
X154541888Y-64307750D01*
X154541886Y-64307750D01*
X154352594Y-64307750D01*
X154352592Y-64307750D01*
X154167437Y-64347105D01*
X153994509Y-64424098D01*
X153841369Y-64535360D01*
X153714706Y-64676033D01*
X153620060Y-64839965D01*
X153561566Y-65019992D01*
X153541780Y-65208249D01*
X153561566Y-65396509D01*
X153586001Y-65471711D01*
X153590186Y-65531561D01*
X153565784Y-65586370D01*
X153518506Y-65623307D01*
X153359509Y-65694098D01*
X153206369Y-65805360D01*
X153079706Y-65946033D01*
X152985060Y-66109965D01*
X152926566Y-66289992D01*
X152906780Y-66478250D01*
X152926566Y-66666507D01*
X152985060Y-66846534D01*
X153079706Y-67010466D01*
X153206369Y-67151139D01*
X153359505Y-67262399D01*
X153359514Y-67262403D01*
X153518507Y-67333192D01*
X153565783Y-67370129D01*
X153590186Y-67424938D01*
X153586001Y-67484788D01*
X153561566Y-67559990D01*
X153541780Y-67748250D01*
X153561566Y-67936509D01*
X153586001Y-68011711D01*
X153590186Y-68071561D01*
X153565784Y-68126370D01*
X153518506Y-68163307D01*
X153359509Y-68234098D01*
X153206369Y-68345360D01*
X153079706Y-68486033D01*
X152985060Y-68649965D01*
X152926566Y-68829992D01*
X152906780Y-69018249D01*
X152363217Y-69018249D01*
X152362310Y-68989373D01*
X152356718Y-68970126D01*
X152352774Y-68951085D01*
X152350264Y-68931208D01*
X152334179Y-68890583D01*
X152330408Y-68879568D01*
X152318218Y-68837610D01*
X152308014Y-68820355D01*
X152299461Y-68802895D01*
X152292086Y-68784269D01*
X152292086Y-68784268D01*
X152266408Y-68748925D01*
X152260001Y-68739171D01*
X152237769Y-68701579D01*
X152223606Y-68687416D01*
X152210967Y-68672617D01*
X152199195Y-68656413D01*
X152165541Y-68628573D01*
X152156899Y-68620709D01*
X151529202Y-67993011D01*
X151516306Y-67976913D01*
X151465175Y-67928898D01*
X151462378Y-67926187D01*
X151442870Y-67906679D01*
X151439690Y-67904212D01*
X151430824Y-67896639D01*
X151398982Y-67866738D01*
X151381424Y-67857085D01*
X151365164Y-67846404D01*
X151349336Y-67834127D01*
X151309251Y-67816780D01*
X151298761Y-67811641D01*
X151260491Y-67790602D01*
X151241091Y-67785621D01*
X151222684Y-67779319D01*
X151204297Y-67771362D01*
X151161158Y-67764529D01*
X151149724Y-67762161D01*
X151107419Y-67751300D01*
X151087384Y-67751300D01*
X151067986Y-67749773D01*
X151060562Y-67748597D01*
X151048205Y-67746640D01*
X151048204Y-67746640D01*
X151025375Y-67748798D01*
X151004725Y-67750750D01*
X150993056Y-67751300D01*
X150668292Y-67751300D01*
X150620839Y-67741861D01*
X150580611Y-67714981D01*
X150410059Y-67544428D01*
X150383179Y-67504200D01*
X150373740Y-67456747D01*
X150373740Y-62596492D01*
X150385819Y-62543109D01*
X150419704Y-62500126D01*
X150468793Y-62475918D01*
X150523521Y-62475202D01*
X150669592Y-62506250D01*
X150669594Y-62506250D01*
X150858886Y-62506250D01*
X150858888Y-62506250D01*
X151001588Y-62475918D01*
X151044043Y-62466894D01*
X151216970Y-62389901D01*
X151355735Y-62289082D01*
X151413078Y-62266379D01*
X151474267Y-62274109D01*
X151524163Y-62310360D01*
X151550423Y-62366165D01*
X151546551Y-62427718D01*
X151529566Y-62479990D01*
X151509780Y-62668250D01*
X151529566Y-62856507D01*
X151588060Y-63036534D01*
X151682706Y-63200466D01*
X151809369Y-63341139D01*
X151962509Y-63452401D01*
X152135437Y-63529394D01*
X152320592Y-63568750D01*
X152320594Y-63568750D01*
X152509886Y-63568750D01*
X152509888Y-63568750D01*
X152674234Y-63533817D01*
X152695043Y-63529394D01*
X152867970Y-63452401D01*
X153021111Y-63341138D01*
X153021589Y-63340606D01*
X153023402Y-63339473D01*
X153031655Y-63333478D01*
X153032074Y-63334054D01*
X153079560Y-63304382D01*
X153147920Y-63304382D01*
X153195405Y-63334054D01*
X153195825Y-63333478D01*
X153204077Y-63339473D01*
X153205891Y-63340607D01*
X153206371Y-63341140D01*
X153359509Y-63452401D01*
X153532437Y-63529394D01*
X153717592Y-63568750D01*
X153717594Y-63568750D01*
X153906886Y-63568750D01*
X153906888Y-63568750D01*
X154071234Y-63533817D01*
X154092043Y-63529394D01*
X154264970Y-63452401D01*
X154264969Y-63452401D01*
X154374355Y-63372929D01*
X154421459Y-63351957D01*
X154473021Y-63351957D01*
X154520125Y-63372929D01*
X154629509Y-63452401D01*
X154802437Y-63529394D01*
X154987592Y-63568750D01*
X154987594Y-63568750D01*
X155176886Y-63568750D01*
X155176888Y-63568750D01*
X155341234Y-63533817D01*
X155362043Y-63529394D01*
X155534970Y-63452401D01*
X155534969Y-63452401D01*
X155644355Y-63372929D01*
X155691459Y-63351957D01*
X155743021Y-63351957D01*
X155790125Y-63372929D01*
X155899509Y-63452401D01*
X156072437Y-63529394D01*
X156257592Y-63568750D01*
X156257594Y-63568750D01*
X156446886Y-63568750D01*
X156446888Y-63568750D01*
X156611234Y-63533817D01*
X156632043Y-63529394D01*
X156804970Y-63452401D01*
X156804969Y-63452401D01*
X156914355Y-63372929D01*
X156961459Y-63351957D01*
X157013021Y-63351957D01*
X157060125Y-63372929D01*
X157169509Y-63452401D01*
X157342437Y-63529394D01*
X157527592Y-63568750D01*
X157527594Y-63568750D01*
X157716886Y-63568750D01*
X157716888Y-63568750D01*
X157881234Y-63533817D01*
X157902043Y-63529394D01*
X158074970Y-63452401D01*
X158074969Y-63452401D01*
X158184355Y-63372929D01*
X158231459Y-63351957D01*
X158283021Y-63351957D01*
X158330125Y-63372929D01*
X158439509Y-63452401D01*
X158612437Y-63529394D01*
X158797592Y-63568750D01*
X158797594Y-63568750D01*
X158986886Y-63568750D01*
X158986888Y-63568750D01*
X159151234Y-63533817D01*
X159172043Y-63529394D01*
X159344970Y-63452401D01*
X159344969Y-63452401D01*
X159454355Y-63372929D01*
X159501459Y-63351957D01*
X159553021Y-63351957D01*
X159600125Y-63372929D01*
X159709509Y-63452401D01*
X159882437Y-63529394D01*
X160067592Y-63568750D01*
X160067594Y-63568750D01*
X160256886Y-63568750D01*
X160256888Y-63568750D01*
X160421234Y-63533817D01*
X160442043Y-63529394D01*
X160614970Y-63452401D01*
X160614969Y-63452401D01*
X160724355Y-63372929D01*
X160771459Y-63351957D01*
X160823021Y-63351957D01*
X160870125Y-63372929D01*
X160979509Y-63452401D01*
X161152437Y-63529394D01*
X161337592Y-63568750D01*
X161337594Y-63568750D01*
X161526886Y-63568750D01*
X161526888Y-63568750D01*
X161691234Y-63533817D01*
X161755333Y-63537176D01*
X161809165Y-63572134D01*
X161838305Y-63629325D01*
X161834946Y-63693424D01*
X161816566Y-63749990D01*
X161796780Y-63938249D01*
X161816566Y-64126507D01*
X161875060Y-64306534D01*
X161969706Y-64470466D01*
X162096369Y-64611139D01*
X162249509Y-64722401D01*
X162422437Y-64799394D01*
X162607592Y-64838750D01*
X162607594Y-64838750D01*
X162796886Y-64838750D01*
X162796888Y-64838750D01*
X162920323Y-64812512D01*
X162982043Y-64799394D01*
X163154970Y-64722401D01*
X163308111Y-64611138D01*
X163434773Y-64470466D01*
X163529419Y-64306534D01*
X163587914Y-64126506D01*
X163607700Y-63938250D01*
X163587914Y-63749994D01*
X163548706Y-63629325D01*
X163529419Y-63569965D01*
X163434773Y-63406033D01*
X163308110Y-63265360D01*
X163154970Y-63154098D01*
X162982042Y-63077105D01*
X162796888Y-63037750D01*
X162796886Y-63037750D01*
X162607594Y-63037750D01*
X162607591Y-63037750D01*
X162443244Y-63072682D01*
X162379145Y-63069323D01*
X162325313Y-63034364D01*
X162296174Y-62977172D01*
X162299532Y-62913077D01*
X162317914Y-62856506D01*
X162337700Y-62668250D01*
X162317914Y-62479994D01*
X162287572Y-62386613D01*
X162259419Y-62299965D01*
X162164773Y-62136033D01*
X162038110Y-61995360D01*
X161884970Y-61884098D01*
X161712042Y-61807105D01*
X161526888Y-61767750D01*
X161526886Y-61767750D01*
X161337594Y-61767750D01*
X161337592Y-61767750D01*
X161152437Y-61807105D01*
X160979509Y-61884098D01*
X160870125Y-61963571D01*
X160823021Y-61984543D01*
X160771459Y-61984543D01*
X160724355Y-61963571D01*
X160614970Y-61884098D01*
X160442042Y-61807105D01*
X160256888Y-61767750D01*
X160256886Y-61767750D01*
X160067594Y-61767750D01*
X160067592Y-61767750D01*
X159882437Y-61807105D01*
X159709509Y-61884098D01*
X159600125Y-61963571D01*
X159553021Y-61984543D01*
X159501459Y-61984543D01*
X159454355Y-61963571D01*
X159344970Y-61884098D01*
X159172042Y-61807105D01*
X158986888Y-61767750D01*
X158986886Y-61767750D01*
X158797594Y-61767750D01*
X158797592Y-61767750D01*
X158612437Y-61807105D01*
X158439509Y-61884098D01*
X158330125Y-61963571D01*
X158283021Y-61984543D01*
X158231459Y-61984543D01*
X158184355Y-61963571D01*
X158074970Y-61884098D01*
X157902042Y-61807105D01*
X157716888Y-61767750D01*
X157716886Y-61767750D01*
X157527594Y-61767750D01*
X157527592Y-61767750D01*
X157342437Y-61807105D01*
X157169509Y-61884098D01*
X157060125Y-61963571D01*
X157013021Y-61984543D01*
X156961459Y-61984543D01*
X156914355Y-61963571D01*
X156804970Y-61884098D01*
X156632042Y-61807105D01*
X156446888Y-61767750D01*
X156446886Y-61767750D01*
X156257594Y-61767750D01*
X156257592Y-61767750D01*
X156072437Y-61807105D01*
X155899509Y-61884098D01*
X155790125Y-61963571D01*
X155743021Y-61984543D01*
X155691459Y-61984543D01*
X155644355Y-61963571D01*
X155534970Y-61884098D01*
X155362042Y-61807105D01*
X155176888Y-61767750D01*
X155176886Y-61767750D01*
X154987594Y-61767750D01*
X154987592Y-61767750D01*
X154802437Y-61807105D01*
X154629509Y-61884098D01*
X154520125Y-61963571D01*
X154473021Y-61984543D01*
X154421459Y-61984543D01*
X154374355Y-61963571D01*
X154264970Y-61884098D01*
X154092042Y-61807105D01*
X153906888Y-61767750D01*
X153906886Y-61767750D01*
X153717594Y-61767750D01*
X153717592Y-61767750D01*
X153532437Y-61807105D01*
X153359509Y-61884098D01*
X153206367Y-61995362D01*
X153205887Y-61995896D01*
X153204072Y-61997029D01*
X153195825Y-62003022D01*
X153195405Y-62002445D01*
X153147918Y-62032118D01*
X153079562Y-62032118D01*
X153032074Y-62002445D01*
X153031655Y-62003022D01*
X153023407Y-61997029D01*
X153021593Y-61995896D01*
X153021112Y-61995362D01*
X152867970Y-61884098D01*
X152695042Y-61807105D01*
X152509888Y-61767750D01*
X152509886Y-61767750D01*
X152320594Y-61767750D01*
X152320592Y-61767750D01*
X152135437Y-61807105D01*
X151962512Y-61884096D01*
X151823744Y-61984917D01*
X151766399Y-62007620D01*
X151705211Y-61999890D01*
X151655315Y-61963638D01*
X151629055Y-61907832D01*
X151632927Y-61846284D01*
X151649914Y-61794006D01*
X151669700Y-61605750D01*
X151649914Y-61417494D01*
X151595199Y-61249099D01*
X151591419Y-61237465D01*
X151496775Y-61073536D01*
X151429335Y-60998637D01*
X151375250Y-60938569D01*
X151346982Y-60885180D01*
X151347297Y-60824767D01*
X151355415Y-60793145D01*
X151361710Y-60774749D01*
X151362629Y-60772627D01*
X151384279Y-60738902D01*
X151496773Y-60613966D01*
X151591419Y-60450034D01*
X151649914Y-60270006D01*
X151669700Y-60081750D01*
X151649914Y-59893494D01*
X151591419Y-59713466D01*
X151591419Y-59713465D01*
X151496773Y-59549533D01*
X151370110Y-59408860D01*
X151216970Y-59297598D01*
X151044042Y-59220605D01*
X150858888Y-59181250D01*
X150858886Y-59181250D01*
X150669594Y-59181250D01*
X150669592Y-59181250D01*
X150484441Y-59220604D01*
X150306676Y-59299751D01*
X150256240Y-59310471D01*
X150205804Y-59299751D01*
X150110445Y-59257294D01*
X150028043Y-59220606D01*
X150028042Y-59220605D01*
X150028038Y-59220604D01*
X149842888Y-59181250D01*
X149842886Y-59181250D01*
X149653594Y-59181250D01*
X149653592Y-59181250D01*
X149468441Y-59220604D01*
X149290676Y-59299751D01*
X149240240Y-59310471D01*
X149189804Y-59299751D01*
X149094445Y-59257294D01*
X149012043Y-59220606D01*
X149012042Y-59220605D01*
X149012038Y-59220604D01*
X148826888Y-59181250D01*
X148826886Y-59181250D01*
X148637594Y-59181250D01*
X148637592Y-59181250D01*
X148452437Y-59220605D01*
X148279509Y-59297598D01*
X148126369Y-59408860D01*
X147999706Y-59549533D01*
X147905060Y-59713465D01*
X147846566Y-59893492D01*
X147826780Y-60081750D01*
X147846566Y-60270007D01*
X147905060Y-60450034D01*
X147999704Y-60613963D01*
X147999706Y-60613965D01*
X147999707Y-60613966D01*
X148074892Y-60697467D01*
X148098504Y-60735999D01*
X148106740Y-60780437D01*
X148106740Y-60824493D01*
X148097301Y-60871946D01*
X148070421Y-60912174D01*
X146538448Y-62444144D01*
X146522350Y-62457041D01*
X146474336Y-62508170D01*
X146471631Y-62510962D01*
X146452114Y-62530479D01*
X146449655Y-62533650D01*
X146442082Y-62542517D01*
X146412175Y-62574365D01*
X146402525Y-62591919D01*
X146391849Y-62608173D01*
X146379566Y-62624008D01*
X146362215Y-62664103D01*
X146357078Y-62674589D01*
X146336042Y-62712852D01*
X146331061Y-62732254D01*
X146324760Y-62750656D01*
X146316801Y-62769047D01*
X146309968Y-62812187D01*
X146307600Y-62823619D01*
X146296740Y-62865923D01*
X146296740Y-62885961D01*
X146295213Y-62905360D01*
X146292080Y-62925139D01*
X146296190Y-62968620D01*
X146296740Y-62980289D01*
X146296740Y-65659085D01*
X146278467Y-65723875D01*
X146229035Y-65769570D01*
X146163011Y-65782703D01*
X146099855Y-65759403D01*
X146009970Y-65694098D01*
X145850973Y-65623307D01*
X145803695Y-65586370D01*
X145779293Y-65531560D01*
X145783478Y-65471711D01*
X145807914Y-65396506D01*
X145827700Y-65208250D01*
X145807914Y-65019994D01*
X145749419Y-64839966D01*
X145749419Y-64839965D01*
X145654773Y-64676033D01*
X145528110Y-64535360D01*
X145374970Y-64424098D01*
X145202042Y-64347105D01*
X145016888Y-64307750D01*
X145016886Y-64307750D01*
X144827594Y-64307750D01*
X144827592Y-64307750D01*
X144642437Y-64347105D01*
X144469509Y-64424098D01*
X144360125Y-64503571D01*
X144313021Y-64524543D01*
X144261459Y-64524543D01*
X144214355Y-64503571D01*
X144104970Y-64424098D01*
X143932042Y-64347105D01*
X143746888Y-64307750D01*
X143746886Y-64307750D01*
X143557594Y-64307750D01*
X143557592Y-64307750D01*
X143372437Y-64347105D01*
X143199509Y-64424098D01*
X143046369Y-64535360D01*
X142919706Y-64676033D01*
X142825060Y-64839965D01*
X142766566Y-65019992D01*
X142746780Y-65208249D01*
X142746780Y-65208250D01*
X142752913Y-65266599D01*
X142766566Y-65396507D01*
X142825060Y-65576534D01*
X142919706Y-65740466D01*
X143046369Y-65881139D01*
X143199505Y-65992399D01*
X143253202Y-66016306D01*
X143358507Y-66063192D01*
X143405783Y-66100129D01*
X143430186Y-66154938D01*
X143426001Y-66214788D01*
X143401566Y-66289990D01*
X143381780Y-66478250D01*
X143401566Y-66666507D01*
X143460060Y-66846534D01*
X143554706Y-67010466D01*
X143681369Y-67151139D01*
X143834509Y-67262401D01*
X144007437Y-67339394D01*
X144192592Y-67378750D01*
X144192594Y-67378750D01*
X144381886Y-67378750D01*
X144381888Y-67378750D01*
X144505324Y-67352512D01*
X144567043Y-67339394D01*
X144739970Y-67262401D01*
X144760342Y-67247600D01*
X144849355Y-67182929D01*
X144896459Y-67161957D01*
X144948021Y-67161957D01*
X144995125Y-67182929D01*
X145104509Y-67262401D01*
X145277437Y-67339394D01*
X145462592Y-67378750D01*
X145462594Y-67378750D01*
X145651886Y-67378750D01*
X145651888Y-67378750D01*
X145775324Y-67352512D01*
X145837043Y-67339394D01*
X145906433Y-67308498D01*
X146009967Y-67262403D01*
X146016881Y-67257380D01*
X146102233Y-67195368D01*
X146164416Y-67172150D01*
X146229668Y-67184331D01*
X146279287Y-67228422D01*
X146299056Y-67291789D01*
X146299530Y-67306875D01*
X146305119Y-67326110D01*
X146309065Y-67345166D01*
X146311575Y-67365042D01*
X146327654Y-67405654D01*
X146331437Y-67416701D01*
X146343622Y-67458641D01*
X146353820Y-67475885D01*
X146362376Y-67493350D01*
X146369754Y-67511982D01*
X146369755Y-67511983D01*
X146395420Y-67547309D01*
X146401833Y-67557072D01*
X146424066Y-67594666D01*
X146424069Y-67594669D01*
X146424070Y-67594670D01*
X146438235Y-67608835D01*
X146450867Y-67623625D01*
X146462646Y-67639837D01*
X146496298Y-67667676D01*
X146504939Y-67675539D01*
X147705421Y-68876021D01*
X147732301Y-68916249D01*
X147741740Y-68963702D01*
X147741740Y-69621887D01*
X147726070Y-69682225D01*
X147683019Y-69727313D01*
X147655807Y-69744162D01*
X147494813Y-69890927D01*
X147392961Y-70025800D01*
X147356142Y-70058382D01*
X147309555Y-70074094D01*
X147297753Y-70075585D01*
X147257127Y-70091669D01*
X147246082Y-70095450D01*
X147204158Y-70107631D01*
X147186910Y-70117831D01*
X147169448Y-70126385D01*
X147157460Y-70131131D01*
X147150810Y-70133765D01*
X147115471Y-70159439D01*
X147105713Y-70165849D01*
X147068124Y-70188079D01*
X147053955Y-70202248D01*
X147039167Y-70214878D01*
X147022958Y-70226655D01*
X146995117Y-70260308D01*
X146987256Y-70268946D01*
X145718929Y-71537273D01*
X145661246Y-71569909D01*
X145594994Y-71568174D01*
X145539098Y-71532564D01*
X145528110Y-71520360D01*
X145374970Y-71409098D01*
X145202042Y-71332105D01*
X145016888Y-71292750D01*
X145016886Y-71292750D01*
X144827594Y-71292750D01*
X144827591Y-71292750D01*
X144663244Y-71327682D01*
X144599145Y-71324323D01*
X144545313Y-71289364D01*
X144516174Y-71232172D01*
X144519532Y-71168077D01*
X144537914Y-71111506D01*
X144557700Y-70923250D01*
X144537914Y-70734994D01*
X144479419Y-70554966D01*
X144479419Y-70554965D01*
X144384773Y-70391033D01*
X144258110Y-70250360D01*
X144104970Y-70139098D01*
X143932042Y-70062105D01*
X143746888Y-70022750D01*
X143746886Y-70022750D01*
X143557594Y-70022750D01*
X143557592Y-70022750D01*
X143372437Y-70062105D01*
X143199509Y-70139098D01*
X143046369Y-70250360D01*
X142919706Y-70391033D01*
X142825060Y-70554965D01*
X142766566Y-70734992D01*
X142746780Y-70923250D01*
X142766566Y-71111507D01*
X142825060Y-71291534D01*
X142919706Y-71455466D01*
X143046369Y-71596139D01*
X143199509Y-71707401D01*
X143372437Y-71784394D01*
X143557592Y-71823750D01*
X143557594Y-71823750D01*
X143746886Y-71823750D01*
X143746888Y-71823750D01*
X143911234Y-71788817D01*
X143975333Y-71792176D01*
X144029165Y-71827134D01*
X144058305Y-71884325D01*
X144054946Y-71948424D01*
X144036566Y-72004990D01*
X144016780Y-72193250D01*
X144036566Y-72381507D01*
X144095060Y-72561534D01*
X144189704Y-72725463D01*
X144189707Y-72725466D01*
X144272549Y-72817471D01*
X144301220Y-72872548D01*
X144299595Y-72934621D01*
X144268079Y-72988123D01*
X143008355Y-74247847D01*
X142960532Y-74277585D01*
X142904489Y-74283105D01*
X142851783Y-74263268D01*
X142813287Y-74222166D01*
X142757699Y-74125884D01*
X142631036Y-73985211D01*
X142477896Y-73873949D01*
X142304968Y-73796956D01*
X142119814Y-73757601D01*
X142119812Y-73757601D01*
X141930520Y-73757601D01*
X141930518Y-73757601D01*
X141745363Y-73796956D01*
X141572435Y-73873949D01*
X141419295Y-73985211D01*
X141292632Y-74125884D01*
X141197986Y-74289816D01*
X141139492Y-74469843D01*
X141119706Y-74658101D01*
X141139492Y-74846358D01*
X141197986Y-75026385D01*
X141219290Y-75063284D01*
X141235903Y-75125284D01*
X141219290Y-75187284D01*
X141151115Y-75305365D01*
X141092621Y-75485392D01*
X141072835Y-75673649D01*
X121639851Y-75673649D01*
X121677914Y-75556506D01*
X121697700Y-75368250D01*
X121677914Y-75179994D01*
X121626528Y-75021845D01*
X121619419Y-74999965D01*
X121524773Y-74836033D01*
X121398110Y-74695360D01*
X121244970Y-74584098D01*
X121072042Y-74507105D01*
X120886888Y-74467750D01*
X120886886Y-74467750D01*
X120697594Y-74467750D01*
X120697592Y-74467750D01*
X120512437Y-74507105D01*
X120339509Y-74584098D01*
X120186369Y-74695360D01*
X120059706Y-74836033D01*
X119965060Y-74999965D01*
X119906566Y-75179992D01*
X119886780Y-75368250D01*
X118887240Y-75368250D01*
X118887240Y-72193249D01*
X121156780Y-72193249D01*
X121176566Y-72381507D01*
X121235060Y-72561534D01*
X121329706Y-72725466D01*
X121456369Y-72866139D01*
X121609509Y-72977401D01*
X121782437Y-73054394D01*
X121967592Y-73093750D01*
X121967594Y-73093750D01*
X122156886Y-73093750D01*
X122156888Y-73093750D01*
X122280324Y-73067512D01*
X122342043Y-73054394D01*
X122514970Y-72977401D01*
X122617134Y-72903175D01*
X122668110Y-72866139D01*
X122702227Y-72828249D01*
X122794773Y-72725466D01*
X122889419Y-72561534D01*
X122947914Y-72381506D01*
X122967700Y-72193250D01*
X127506780Y-72193250D01*
X127526566Y-72381507D01*
X127585060Y-72561534D01*
X127679706Y-72725466D01*
X127806369Y-72866139D01*
X127959509Y-72977401D01*
X128132437Y-73054394D01*
X128317592Y-73093750D01*
X128317594Y-73093750D01*
X128506886Y-73093750D01*
X128506888Y-73093750D01*
X128630324Y-73067512D01*
X128692043Y-73054394D01*
X128864970Y-72977401D01*
X128967134Y-72903175D01*
X129018110Y-72866139D01*
X129052226Y-72828250D01*
X134491780Y-72828250D01*
X134499655Y-72903173D01*
X134511566Y-73016507D01*
X134570060Y-73196534D01*
X134664706Y-73360466D01*
X134791369Y-73501139D01*
X134944509Y-73612401D01*
X135117437Y-73689394D01*
X135302592Y-73728750D01*
X135302594Y-73728750D01*
X135491886Y-73728750D01*
X135491888Y-73728750D01*
X135615324Y-73702512D01*
X135677043Y-73689394D01*
X135849970Y-73612401D01*
X136003111Y-73501138D01*
X136129773Y-73360466D01*
X136224419Y-73196534D01*
X136282914Y-73016506D01*
X136302700Y-72828250D01*
X136282914Y-72639994D01*
X136224419Y-72459966D01*
X136224419Y-72459965D01*
X136129773Y-72296033D01*
X136003110Y-72155360D01*
X135849970Y-72044098D01*
X135677042Y-71967105D01*
X135491888Y-71927750D01*
X135491886Y-71927750D01*
X135302594Y-71927750D01*
X135302592Y-71927750D01*
X135117437Y-71967105D01*
X134944509Y-72044098D01*
X134791369Y-72155360D01*
X134664706Y-72296033D01*
X134570060Y-72459965D01*
X134511566Y-72639992D01*
X134506704Y-72686250D01*
X134491780Y-72828250D01*
X129052226Y-72828250D01*
X129052227Y-72828249D01*
X129144773Y-72725466D01*
X129239419Y-72561534D01*
X129297914Y-72381506D01*
X129317700Y-72193250D01*
X129297914Y-72004994D01*
X129267572Y-71911613D01*
X129239419Y-71824965D01*
X129144773Y-71661033D01*
X129126934Y-71641221D01*
X129098767Y-71588246D01*
X129098768Y-71528248D01*
X129126936Y-71475275D01*
X129144773Y-71455466D01*
X129239419Y-71291534D01*
X129297914Y-71111506D01*
X129317700Y-70923250D01*
X129297914Y-70734994D01*
X129239419Y-70554966D01*
X129239419Y-70554965D01*
X129144775Y-70391037D01*
X129144774Y-70391036D01*
X129144773Y-70391034D01*
X129126933Y-70371221D01*
X129098767Y-70318249D01*
X129098767Y-70258251D01*
X129126933Y-70205278D01*
X129144773Y-70185466D01*
X129239419Y-70021534D01*
X129297914Y-69841506D01*
X129317700Y-69653250D01*
X129297914Y-69464994D01*
X129267572Y-69371613D01*
X129239419Y-69284965D01*
X129144775Y-69121037D01*
X129144774Y-69121036D01*
X129144773Y-69121034D01*
X129126933Y-69101221D01*
X129098767Y-69048249D01*
X129098767Y-68988251D01*
X129126933Y-68935278D01*
X129144773Y-68915466D01*
X129239419Y-68751534D01*
X129297914Y-68571506D01*
X129317700Y-68383250D01*
X129297914Y-68194994D01*
X129257808Y-68071561D01*
X129239419Y-68014965D01*
X129144775Y-67851037D01*
X129144774Y-67851036D01*
X129144773Y-67851034D01*
X129126933Y-67831221D01*
X129098767Y-67778249D01*
X129098767Y-67718251D01*
X129126933Y-67665278D01*
X129144773Y-67645466D01*
X129239419Y-67481534D01*
X129297914Y-67301506D01*
X129317700Y-67113250D01*
X129297914Y-66924994D01*
X129239419Y-66744966D01*
X129239419Y-66744965D01*
X129144775Y-66581037D01*
X129144774Y-66581036D01*
X129144773Y-66581034D01*
X129126933Y-66561221D01*
X129098767Y-66508249D01*
X129098767Y-66448251D01*
X129126933Y-66395278D01*
X129144773Y-66375466D01*
X129239419Y-66211534D01*
X129297914Y-66031506D01*
X129317700Y-65843250D01*
X129297914Y-65654994D01*
X129239419Y-65474966D01*
X129239419Y-65474965D01*
X129144773Y-65311033D01*
X129126934Y-65291221D01*
X129098767Y-65238247D01*
X129098768Y-65178250D01*
X129126934Y-65125277D01*
X129144773Y-65105466D01*
X129239419Y-64941534D01*
X129297914Y-64761506D01*
X129317700Y-64573250D01*
X129297914Y-64384994D01*
X129239419Y-64204966D01*
X129239419Y-64204965D01*
X129144773Y-64041033D01*
X129018110Y-63900360D01*
X128864970Y-63789098D01*
X128692042Y-63712105D01*
X128506888Y-63672750D01*
X128506886Y-63672750D01*
X128317594Y-63672750D01*
X128317592Y-63672750D01*
X128132437Y-63712105D01*
X127959509Y-63789098D01*
X127806369Y-63900360D01*
X127679706Y-64041033D01*
X127585060Y-64204965D01*
X127526566Y-64384992D01*
X127506780Y-64573249D01*
X127526566Y-64761507D01*
X127585060Y-64941534D01*
X127679706Y-65105465D01*
X127697544Y-65125276D01*
X127725711Y-65178249D01*
X127725712Y-65238245D01*
X127697547Y-65291219D01*
X127679706Y-65311033D01*
X127585060Y-65474965D01*
X127526566Y-65654992D01*
X127506780Y-65843249D01*
X127526566Y-66031507D01*
X127585060Y-66211534D01*
X127679706Y-66375466D01*
X127697545Y-66395278D01*
X127725712Y-66448252D01*
X127725712Y-66508248D01*
X127697545Y-66561222D01*
X127679706Y-66581033D01*
X127585060Y-66744965D01*
X127526566Y-66924992D01*
X127520647Y-66981308D01*
X127506780Y-67113250D01*
X127514103Y-67182929D01*
X127526566Y-67301507D01*
X127585060Y-67481534D01*
X127679706Y-67645466D01*
X127697545Y-67665278D01*
X127725712Y-67718252D01*
X127725712Y-67778248D01*
X127697545Y-67831222D01*
X127679706Y-67851033D01*
X127585060Y-68014965D01*
X127526566Y-68194992D01*
X127506780Y-68383250D01*
X127526566Y-68571507D01*
X127585060Y-68751534D01*
X127679706Y-68915466D01*
X127697545Y-68935278D01*
X127725712Y-68988252D01*
X127725712Y-69048248D01*
X127697545Y-69101222D01*
X127679706Y-69121033D01*
X127585060Y-69284965D01*
X127526566Y-69464992D01*
X127506780Y-69653250D01*
X127526566Y-69841507D01*
X127585060Y-70021534D01*
X127679706Y-70185466D01*
X127697545Y-70205278D01*
X127725712Y-70258252D01*
X127725712Y-70318248D01*
X127697545Y-70371222D01*
X127679706Y-70391033D01*
X127585060Y-70554965D01*
X127526566Y-70734992D01*
X127506780Y-70923250D01*
X127526566Y-71111507D01*
X127585060Y-71291534D01*
X127679706Y-71455466D01*
X127697545Y-71475278D01*
X127725712Y-71528252D01*
X127725712Y-71588248D01*
X127697545Y-71641222D01*
X127679706Y-71661033D01*
X127585060Y-71824965D01*
X127526566Y-72004992D01*
X127506780Y-72193250D01*
X122967700Y-72193250D01*
X122947914Y-72004994D01*
X122917572Y-71911613D01*
X122889419Y-71824965D01*
X122794773Y-71661033D01*
X122776934Y-71641221D01*
X122748767Y-71588246D01*
X122748768Y-71528248D01*
X122776936Y-71475275D01*
X122794773Y-71455466D01*
X122889419Y-71291534D01*
X122947914Y-71111506D01*
X122967700Y-70923250D01*
X124331780Y-70923250D01*
X124351566Y-71111507D01*
X124410060Y-71291534D01*
X124504706Y-71455466D01*
X124631369Y-71596139D01*
X124784509Y-71707401D01*
X124957437Y-71784394D01*
X125142592Y-71823750D01*
X125142594Y-71823750D01*
X125331886Y-71823750D01*
X125331888Y-71823750D01*
X125496234Y-71788817D01*
X125517043Y-71784394D01*
X125689970Y-71707401D01*
X125781058Y-71641222D01*
X125843110Y-71596139D01*
X125969773Y-71455466D01*
X126064419Y-71291534D01*
X126104534Y-71168073D01*
X126122914Y-71111506D01*
X126142700Y-70923250D01*
X126122914Y-70734994D01*
X126064419Y-70554966D01*
X126064419Y-70554965D01*
X125969775Y-70391037D01*
X125969774Y-70391036D01*
X125969773Y-70391034D01*
X125951933Y-70371221D01*
X125923767Y-70318249D01*
X125923767Y-70258251D01*
X125951933Y-70205278D01*
X125969773Y-70185466D01*
X126064419Y-70021534D01*
X126122914Y-69841506D01*
X126142700Y-69653250D01*
X126122914Y-69464994D01*
X126092572Y-69371613D01*
X126064419Y-69284965D01*
X125969775Y-69121037D01*
X125969774Y-69121036D01*
X125969773Y-69121034D01*
X125951933Y-69101221D01*
X125923767Y-69048249D01*
X125923767Y-68988251D01*
X125951933Y-68935278D01*
X125969773Y-68915466D01*
X126064419Y-68751534D01*
X126122914Y-68571506D01*
X126142700Y-68383250D01*
X126122914Y-68194994D01*
X126082808Y-68071561D01*
X126064419Y-68014965D01*
X125969775Y-67851037D01*
X125969774Y-67851036D01*
X125969773Y-67851034D01*
X125951933Y-67831221D01*
X125923767Y-67778249D01*
X125923767Y-67718251D01*
X125951933Y-67665278D01*
X125969773Y-67645466D01*
X126064419Y-67481534D01*
X126122914Y-67301506D01*
X126142700Y-67113250D01*
X126122914Y-66924994D01*
X126064419Y-66744966D01*
X126064419Y-66744965D01*
X125969775Y-66581037D01*
X125969774Y-66581036D01*
X125969773Y-66581034D01*
X125951933Y-66561221D01*
X125923767Y-66508249D01*
X125923767Y-66448251D01*
X125951933Y-66395278D01*
X125969773Y-66375466D01*
X126064419Y-66211534D01*
X126122914Y-66031506D01*
X126142700Y-65843250D01*
X126122914Y-65654994D01*
X126064419Y-65474966D01*
X126064419Y-65474965D01*
X125969773Y-65311033D01*
X125843110Y-65170360D01*
X125689970Y-65059098D01*
X125517042Y-64982105D01*
X125331888Y-64942750D01*
X125331886Y-64942750D01*
X125142594Y-64942750D01*
X125142592Y-64942750D01*
X124957437Y-64982105D01*
X124784509Y-65059098D01*
X124631369Y-65170360D01*
X124504706Y-65311033D01*
X124410060Y-65474965D01*
X124351566Y-65654992D01*
X124331780Y-65843249D01*
X124351566Y-66031507D01*
X124410060Y-66211534D01*
X124504706Y-66375466D01*
X124522545Y-66395278D01*
X124550712Y-66448252D01*
X124550712Y-66508248D01*
X124522545Y-66561222D01*
X124504706Y-66581033D01*
X124410060Y-66744965D01*
X124351566Y-66924992D01*
X124345647Y-66981308D01*
X124331780Y-67113250D01*
X124339103Y-67182929D01*
X124351566Y-67301507D01*
X124410060Y-67481534D01*
X124504706Y-67645466D01*
X124522545Y-67665278D01*
X124550712Y-67718252D01*
X124550712Y-67778248D01*
X124522545Y-67831222D01*
X124504706Y-67851033D01*
X124410060Y-68014965D01*
X124351566Y-68194992D01*
X124331780Y-68383250D01*
X124351566Y-68571507D01*
X124410060Y-68751534D01*
X124504706Y-68915466D01*
X124522545Y-68935278D01*
X124550712Y-68988252D01*
X124550712Y-69048248D01*
X124522545Y-69101222D01*
X124504706Y-69121033D01*
X124410060Y-69284965D01*
X124351566Y-69464992D01*
X124331780Y-69653250D01*
X124351566Y-69841507D01*
X124410060Y-70021534D01*
X124504706Y-70185466D01*
X124522545Y-70205278D01*
X124550712Y-70258252D01*
X124550712Y-70318248D01*
X124522545Y-70371222D01*
X124504706Y-70391033D01*
X124410060Y-70554965D01*
X124351566Y-70734992D01*
X124331780Y-70923250D01*
X122967700Y-70923250D01*
X122947914Y-70734994D01*
X122889419Y-70554966D01*
X122889419Y-70554965D01*
X122794775Y-70391037D01*
X122794774Y-70391036D01*
X122794773Y-70391034D01*
X122776933Y-70371221D01*
X122748767Y-70318249D01*
X122748767Y-70258251D01*
X122776933Y-70205278D01*
X122794773Y-70185466D01*
X122889419Y-70021534D01*
X122947914Y-69841506D01*
X122967700Y-69653250D01*
X122947914Y-69464994D01*
X122917572Y-69371613D01*
X122889419Y-69284965D01*
X122794775Y-69121037D01*
X122794774Y-69121036D01*
X122794773Y-69121034D01*
X122776933Y-69101221D01*
X122748767Y-69048249D01*
X122748767Y-68988251D01*
X122776933Y-68935278D01*
X122794773Y-68915466D01*
X122889419Y-68751534D01*
X122947914Y-68571506D01*
X122967700Y-68383250D01*
X122947914Y-68194994D01*
X122907808Y-68071561D01*
X122889419Y-68014965D01*
X122794775Y-67851037D01*
X122794774Y-67851036D01*
X122794773Y-67851034D01*
X122776933Y-67831221D01*
X122748767Y-67778249D01*
X122748767Y-67718251D01*
X122776933Y-67665278D01*
X122794773Y-67645466D01*
X122889419Y-67481534D01*
X122947914Y-67301506D01*
X122967700Y-67113250D01*
X122947914Y-66924994D01*
X122889419Y-66744966D01*
X122889419Y-66744965D01*
X122794775Y-66581037D01*
X122794774Y-66581036D01*
X122794773Y-66581034D01*
X122776933Y-66561221D01*
X122748767Y-66508249D01*
X122748767Y-66448251D01*
X122776933Y-66395278D01*
X122794773Y-66375466D01*
X122889419Y-66211534D01*
X122947914Y-66031506D01*
X122967700Y-65843250D01*
X122947914Y-65654994D01*
X122889419Y-65474966D01*
X122889419Y-65474965D01*
X122794773Y-65311033D01*
X122776934Y-65291221D01*
X122748767Y-65238247D01*
X122748768Y-65178250D01*
X122776934Y-65125277D01*
X122794773Y-65105466D01*
X122889419Y-64941534D01*
X122947914Y-64761506D01*
X122967700Y-64573250D01*
X122947914Y-64384994D01*
X122889419Y-64204966D01*
X122889419Y-64204965D01*
X122794773Y-64041033D01*
X122668110Y-63900360D01*
X122514970Y-63789098D01*
X122342042Y-63712105D01*
X122156888Y-63672750D01*
X122156886Y-63672750D01*
X121967594Y-63672750D01*
X121967592Y-63672750D01*
X121782437Y-63712105D01*
X121609509Y-63789098D01*
X121456369Y-63900360D01*
X121329706Y-64041033D01*
X121235060Y-64204965D01*
X121176566Y-64384992D01*
X121156780Y-64573250D01*
X121176566Y-64761507D01*
X121235060Y-64941534D01*
X121329706Y-65105465D01*
X121347544Y-65125276D01*
X121375711Y-65178249D01*
X121375712Y-65238245D01*
X121347547Y-65291219D01*
X121329706Y-65311033D01*
X121235060Y-65474965D01*
X121176566Y-65654992D01*
X121156780Y-65843249D01*
X121176566Y-66031507D01*
X121235060Y-66211534D01*
X121329706Y-66375466D01*
X121347545Y-66395278D01*
X121375712Y-66448252D01*
X121375712Y-66508248D01*
X121347545Y-66561222D01*
X121329706Y-66581033D01*
X121235060Y-66744965D01*
X121176566Y-66924992D01*
X121170647Y-66981308D01*
X121156780Y-67113250D01*
X121164103Y-67182929D01*
X121176566Y-67301507D01*
X121235060Y-67481534D01*
X121329706Y-67645466D01*
X121347545Y-67665278D01*
X121375712Y-67718252D01*
X121375712Y-67778248D01*
X121347545Y-67831222D01*
X121329706Y-67851033D01*
X121235060Y-68014965D01*
X121176566Y-68194992D01*
X121156780Y-68383250D01*
X121176566Y-68571507D01*
X121235060Y-68751534D01*
X121329706Y-68915466D01*
X121347545Y-68935278D01*
X121375712Y-68988252D01*
X121375712Y-69048248D01*
X121347545Y-69101222D01*
X121329706Y-69121033D01*
X121235060Y-69284965D01*
X121176566Y-69464992D01*
X121156780Y-69653250D01*
X121176566Y-69841507D01*
X121235060Y-70021534D01*
X121329706Y-70185466D01*
X121347545Y-70205278D01*
X121375712Y-70258252D01*
X121375712Y-70318248D01*
X121347545Y-70371222D01*
X121329706Y-70391033D01*
X121235060Y-70554965D01*
X121176566Y-70734992D01*
X121156780Y-70923250D01*
X121176566Y-71111507D01*
X121235060Y-71291534D01*
X121329706Y-71455466D01*
X121347545Y-71475278D01*
X121375712Y-71528252D01*
X121375712Y-71588248D01*
X121347545Y-71641222D01*
X121329706Y-71661033D01*
X121235060Y-71824965D01*
X121176566Y-72004992D01*
X121156780Y-72193249D01*
X118887240Y-72193249D01*
X118887240Y-65927690D01*
X118888837Y-65907855D01*
X118909117Y-65782703D01*
X118943197Y-65572395D01*
X118943979Y-65568062D01*
X119159013Y-64487009D01*
X119159937Y-64482765D01*
X119413426Y-63410050D01*
X119414499Y-63405841D01*
X119706118Y-62342847D01*
X119707361Y-62338616D01*
X120036722Y-61286744D01*
X120038098Y-61282609D01*
X120404809Y-60243119D01*
X120406325Y-60239057D01*
X120809892Y-59213349D01*
X120811580Y-59209274D01*
X121240782Y-58223249D01*
X122536826Y-58223249D01*
X122556472Y-58648187D01*
X122615242Y-59069496D01*
X122712633Y-59483577D01*
X122847817Y-59886913D01*
X123019644Y-60276065D01*
X123116545Y-60450034D01*
X123226638Y-60647688D01*
X123299992Y-60754772D01*
X123467043Y-60998637D01*
X123738797Y-61325897D01*
X124039592Y-61626692D01*
X124366852Y-61898446D01*
X124366858Y-61898450D01*
X124717802Y-62138852D01*
X124717806Y-62138854D01*
X125089424Y-62345845D01*
X125089426Y-62345846D01*
X125089430Y-62345848D01*
X125478573Y-62517671D01*
X125478576Y-62517672D01*
X125881912Y-62652856D01*
X126226663Y-62733940D01*
X126295997Y-62750248D01*
X126717306Y-62809018D01*
X127142240Y-62828664D01*
X127567174Y-62809018D01*
X127988483Y-62750248D01*
X128402571Y-62652855D01*
X128805907Y-62517671D01*
X129195050Y-62345848D01*
X129566678Y-62138852D01*
X129720838Y-62033250D01*
X136396780Y-62033250D01*
X136416566Y-62221507D01*
X136475060Y-62401534D01*
X136569706Y-62565466D01*
X136696369Y-62706139D01*
X136849509Y-62817401D01*
X137022437Y-62894394D01*
X137207592Y-62933750D01*
X137207594Y-62933750D01*
X137396886Y-62933750D01*
X137396888Y-62933750D01*
X137520323Y-62907512D01*
X137582043Y-62894394D01*
X137754970Y-62817401D01*
X137754970Y-62817400D01*
X137908110Y-62706139D01*
X138034773Y-62565466D01*
X138129419Y-62401534D01*
X138146780Y-62348102D01*
X138187914Y-62221506D01*
X138207700Y-62033250D01*
X138187914Y-61844994D01*
X138129419Y-61664966D01*
X138129419Y-61664965D01*
X138034773Y-61501033D01*
X137908110Y-61360360D01*
X137754970Y-61249098D01*
X137582042Y-61172105D01*
X137396888Y-61132750D01*
X137396886Y-61132750D01*
X137207594Y-61132750D01*
X137207592Y-61132750D01*
X137022437Y-61172105D01*
X136849509Y-61249098D01*
X136696369Y-61360360D01*
X136569706Y-61501033D01*
X136475060Y-61664965D01*
X136416566Y-61844992D01*
X136396780Y-62033250D01*
X129720838Y-62033250D01*
X129917622Y-61898450D01*
X129934906Y-61884098D01*
X130244887Y-61626692D01*
X130545682Y-61325897D01*
X130817436Y-60998637D01*
X130817436Y-60998635D01*
X130817440Y-60998632D01*
X131057842Y-60647688D01*
X131264838Y-60276060D01*
X131436661Y-59886917D01*
X131571845Y-59483581D01*
X131669238Y-59069493D01*
X131728008Y-58648184D01*
X131747654Y-58223250D01*
X166986826Y-58223250D01*
X167006472Y-58648187D01*
X167065242Y-59069496D01*
X167162633Y-59483577D01*
X167297817Y-59886913D01*
X167469644Y-60276065D01*
X167566545Y-60450034D01*
X167676638Y-60647688D01*
X167749992Y-60754772D01*
X167917043Y-60998637D01*
X168188797Y-61325897D01*
X168489592Y-61626692D01*
X168816852Y-61898446D01*
X168816858Y-61898450D01*
X169167802Y-62138852D01*
X169167806Y-62138854D01*
X169539424Y-62345845D01*
X169539426Y-62345846D01*
X169539430Y-62345848D01*
X169928573Y-62517671D01*
X169928576Y-62517672D01*
X170331912Y-62652856D01*
X170676663Y-62733940D01*
X170745997Y-62750248D01*
X171167306Y-62809018D01*
X171592240Y-62828664D01*
X172017174Y-62809018D01*
X172438483Y-62750248D01*
X172852571Y-62652855D01*
X173255907Y-62517671D01*
X173645050Y-62345848D01*
X174016678Y-62138852D01*
X174367622Y-61898450D01*
X174384906Y-61884098D01*
X174694887Y-61626692D01*
X174995682Y-61325897D01*
X175267436Y-60998637D01*
X175267436Y-60998635D01*
X175267440Y-60998632D01*
X175507842Y-60647688D01*
X175714838Y-60276060D01*
X175886661Y-59886917D01*
X176021845Y-59483581D01*
X176119238Y-59069493D01*
X176178008Y-58648184D01*
X176197654Y-58223250D01*
X176178008Y-57798316D01*
X176119238Y-57377007D01*
X176021845Y-56962919D01*
X175886661Y-56559583D01*
X175714838Y-56170440D01*
X175507842Y-55798812D01*
X175267440Y-55447868D01*
X175267436Y-55447862D01*
X174995682Y-55120602D01*
X174694887Y-54819807D01*
X174367627Y-54548053D01*
X174192150Y-54427849D01*
X174016678Y-54307648D01*
X173938493Y-54264099D01*
X173645055Y-54100654D01*
X173255903Y-53928827D01*
X172852567Y-53793643D01*
X172438486Y-53696252D01*
X172017177Y-53637482D01*
X171592240Y-53617836D01*
X171167302Y-53637482D01*
X170745993Y-53696252D01*
X170331912Y-53793643D01*
X169928576Y-53928827D01*
X169539424Y-54100654D01*
X169167806Y-54307645D01*
X168816852Y-54548053D01*
X168489592Y-54819807D01*
X168188797Y-55120602D01*
X167917043Y-55447862D01*
X167676635Y-55798816D01*
X167469644Y-56170434D01*
X167297817Y-56559586D01*
X167162633Y-56962922D01*
X167065242Y-57377003D01*
X167006472Y-57798312D01*
X166986826Y-58223250D01*
X131747654Y-58223250D01*
X131728008Y-57798316D01*
X131669238Y-57377007D01*
X131571845Y-56962919D01*
X131436661Y-56559583D01*
X131264838Y-56170440D01*
X131057842Y-55798812D01*
X130817440Y-55447868D01*
X130817436Y-55447862D01*
X130545682Y-55120602D01*
X130473329Y-55048249D01*
X136396780Y-55048249D01*
X136416566Y-55236507D01*
X136475060Y-55416534D01*
X136569706Y-55580466D01*
X136696369Y-55721139D01*
X136849509Y-55832401D01*
X137022437Y-55909394D01*
X137207592Y-55948750D01*
X137207594Y-55948750D01*
X137396886Y-55948750D01*
X137396888Y-55948750D01*
X137520324Y-55922512D01*
X137582043Y-55909394D01*
X137754970Y-55832401D01*
X137801196Y-55798816D01*
X137864355Y-55752929D01*
X137911459Y-55731957D01*
X137963021Y-55731957D01*
X138010125Y-55752929D01*
X138119509Y-55832401D01*
X138292437Y-55909394D01*
X138477592Y-55948750D01*
X138477594Y-55948750D01*
X138666886Y-55948750D01*
X138666888Y-55948750D01*
X138790324Y-55922512D01*
X138852043Y-55909394D01*
X139024970Y-55832401D01*
X139071196Y-55798816D01*
X139134355Y-55752929D01*
X139181459Y-55731957D01*
X139233021Y-55731957D01*
X139280125Y-55752929D01*
X139389509Y-55832401D01*
X139562437Y-55909394D01*
X139747592Y-55948750D01*
X139747594Y-55948750D01*
X139936886Y-55948750D01*
X139936888Y-55948750D01*
X140060324Y-55922512D01*
X140122043Y-55909394D01*
X140294970Y-55832401D01*
X140341196Y-55798816D01*
X140404355Y-55752929D01*
X140451459Y-55731957D01*
X140503021Y-55731957D01*
X140550125Y-55752929D01*
X140659509Y-55832401D01*
X140832437Y-55909394D01*
X141017592Y-55948750D01*
X141017594Y-55948750D01*
X141206886Y-55948750D01*
X141206888Y-55948750D01*
X141330324Y-55922512D01*
X141392043Y-55909394D01*
X141564970Y-55832401D01*
X141611196Y-55798816D01*
X141674355Y-55752929D01*
X141721459Y-55731957D01*
X141773021Y-55731957D01*
X141820125Y-55752929D01*
X141929509Y-55832401D01*
X142102437Y-55909394D01*
X142287592Y-55948750D01*
X142287594Y-55948750D01*
X142476886Y-55948750D01*
X142476888Y-55948750D01*
X142600324Y-55922512D01*
X142662043Y-55909394D01*
X142834970Y-55832401D01*
X142881196Y-55798816D01*
X142944355Y-55752929D01*
X142991459Y-55731957D01*
X143043021Y-55731957D01*
X143090125Y-55752929D01*
X143199509Y-55832401D01*
X143372437Y-55909394D01*
X143557592Y-55948750D01*
X143557594Y-55948750D01*
X143746886Y-55948750D01*
X143746888Y-55948750D01*
X143870324Y-55922512D01*
X143932043Y-55909394D01*
X144104970Y-55832401D01*
X144151196Y-55798816D01*
X144214355Y-55752929D01*
X144261459Y-55731957D01*
X144313021Y-55731957D01*
X144360125Y-55752929D01*
X144469509Y-55832401D01*
X144642437Y-55909394D01*
X144827592Y-55948750D01*
X144827594Y-55948750D01*
X145016886Y-55948750D01*
X145016888Y-55948750D01*
X145140324Y-55922512D01*
X145202043Y-55909394D01*
X145374970Y-55832401D01*
X145421196Y-55798816D01*
X145528110Y-55721139D01*
X145654773Y-55580466D01*
X145749419Y-55416534D01*
X145749419Y-55416533D01*
X145807914Y-55236506D01*
X145827700Y-55048250D01*
X145827700Y-55048249D01*
X152652780Y-55048249D01*
X152672566Y-55236507D01*
X152731060Y-55416534D01*
X152825706Y-55580466D01*
X152952369Y-55721139D01*
X153105509Y-55832401D01*
X153278437Y-55909394D01*
X153463592Y-55948750D01*
X153463594Y-55948750D01*
X153652886Y-55948750D01*
X153652888Y-55948750D01*
X153776324Y-55922512D01*
X153838043Y-55909394D01*
X154010970Y-55832401D01*
X154057196Y-55798816D01*
X154120355Y-55752929D01*
X154167459Y-55731957D01*
X154219021Y-55731957D01*
X154266125Y-55752929D01*
X154375509Y-55832401D01*
X154548437Y-55909394D01*
X154733592Y-55948750D01*
X154733594Y-55948750D01*
X154922886Y-55948750D01*
X154922888Y-55948750D01*
X155046324Y-55922512D01*
X155108043Y-55909394D01*
X155280970Y-55832401D01*
X155327196Y-55798816D01*
X155390355Y-55752929D01*
X155437459Y-55731957D01*
X155489021Y-55731957D01*
X155536125Y-55752929D01*
X155645509Y-55832401D01*
X155818437Y-55909394D01*
X156003592Y-55948750D01*
X156003594Y-55948750D01*
X156192886Y-55948750D01*
X156192888Y-55948750D01*
X156316324Y-55922512D01*
X156378043Y-55909394D01*
X156550970Y-55832401D01*
X156597196Y-55798816D01*
X156660355Y-55752929D01*
X156707459Y-55731957D01*
X156759021Y-55731957D01*
X156806125Y-55752929D01*
X156915509Y-55832401D01*
X157088437Y-55909394D01*
X157273592Y-55948750D01*
X157273594Y-55948750D01*
X157462886Y-55948750D01*
X157462888Y-55948750D01*
X157586324Y-55922512D01*
X157648043Y-55909394D01*
X157820970Y-55832401D01*
X157867196Y-55798816D01*
X157930355Y-55752929D01*
X157977459Y-55731957D01*
X158029021Y-55731957D01*
X158076125Y-55752929D01*
X158185509Y-55832401D01*
X158358437Y-55909394D01*
X158543592Y-55948750D01*
X158543594Y-55948750D01*
X158732886Y-55948750D01*
X158732888Y-55948750D01*
X158856324Y-55922512D01*
X158918043Y-55909394D01*
X159090970Y-55832401D01*
X159137196Y-55798816D01*
X159200355Y-55752929D01*
X159247459Y-55731957D01*
X159299021Y-55731957D01*
X159346125Y-55752929D01*
X159455509Y-55832401D01*
X159628437Y-55909394D01*
X159813592Y-55948750D01*
X159813594Y-55948750D01*
X160002886Y-55948750D01*
X160002888Y-55948750D01*
X160126324Y-55922512D01*
X160188043Y-55909394D01*
X160360970Y-55832401D01*
X160407196Y-55798816D01*
X160470355Y-55752929D01*
X160517459Y-55731957D01*
X160569021Y-55731957D01*
X160616125Y-55752929D01*
X160725509Y-55832401D01*
X160898437Y-55909394D01*
X161083592Y-55948750D01*
X161083594Y-55948750D01*
X161272886Y-55948750D01*
X161272888Y-55948750D01*
X161396324Y-55922512D01*
X161458043Y-55909394D01*
X161630970Y-55832401D01*
X161677196Y-55798816D01*
X161784110Y-55721139D01*
X161910773Y-55580466D01*
X162005419Y-55416534D01*
X162005419Y-55416533D01*
X162063914Y-55236506D01*
X162083700Y-55048250D01*
X162063914Y-54859994D01*
X162005419Y-54679966D01*
X162005419Y-54679965D01*
X161910773Y-54516033D01*
X161784110Y-54375360D01*
X161630970Y-54264098D01*
X161458042Y-54187105D01*
X161272888Y-54147750D01*
X161272886Y-54147750D01*
X161083594Y-54147750D01*
X161083592Y-54147750D01*
X160898437Y-54187105D01*
X160725509Y-54264098D01*
X160616125Y-54343571D01*
X160569021Y-54364543D01*
X160517459Y-54364543D01*
X160470355Y-54343571D01*
X160360970Y-54264098D01*
X160188042Y-54187105D01*
X160002888Y-54147750D01*
X160002886Y-54147750D01*
X159813594Y-54147750D01*
X159813592Y-54147750D01*
X159628437Y-54187105D01*
X159455509Y-54264098D01*
X159346125Y-54343571D01*
X159299021Y-54364543D01*
X159247459Y-54364543D01*
X159200355Y-54343571D01*
X159090970Y-54264098D01*
X158918042Y-54187105D01*
X158732888Y-54147750D01*
X158732886Y-54147750D01*
X158543594Y-54147750D01*
X158543592Y-54147750D01*
X158358437Y-54187105D01*
X158185509Y-54264098D01*
X158076125Y-54343571D01*
X158029021Y-54364543D01*
X157977459Y-54364543D01*
X157930355Y-54343571D01*
X157820970Y-54264098D01*
X157648042Y-54187105D01*
X157462888Y-54147750D01*
X157462886Y-54147750D01*
X157273594Y-54147750D01*
X157273592Y-54147750D01*
X157088437Y-54187105D01*
X156915509Y-54264098D01*
X156806125Y-54343571D01*
X156759021Y-54364543D01*
X156707459Y-54364543D01*
X156660355Y-54343571D01*
X156550970Y-54264098D01*
X156378042Y-54187105D01*
X156192888Y-54147750D01*
X156192886Y-54147750D01*
X156003594Y-54147750D01*
X156003592Y-54147750D01*
X155818437Y-54187105D01*
X155645509Y-54264098D01*
X155536125Y-54343571D01*
X155489021Y-54364543D01*
X155437459Y-54364543D01*
X155390355Y-54343571D01*
X155280970Y-54264098D01*
X155108042Y-54187105D01*
X154922888Y-54147750D01*
X154922886Y-54147750D01*
X154733594Y-54147750D01*
X154733592Y-54147750D01*
X154548437Y-54187105D01*
X154375509Y-54264098D01*
X154266125Y-54343571D01*
X154219021Y-54364543D01*
X154167459Y-54364543D01*
X154120355Y-54343571D01*
X154010970Y-54264098D01*
X153838042Y-54187105D01*
X153652888Y-54147750D01*
X153652886Y-54147750D01*
X153463594Y-54147750D01*
X153463592Y-54147750D01*
X153278437Y-54187105D01*
X153105509Y-54264098D01*
X152952369Y-54375360D01*
X152825706Y-54516033D01*
X152731060Y-54679965D01*
X152672566Y-54859992D01*
X152652780Y-55048249D01*
X145827700Y-55048249D01*
X145807914Y-54859994D01*
X145749419Y-54679966D01*
X145749419Y-54679965D01*
X145654773Y-54516033D01*
X145528110Y-54375360D01*
X145374970Y-54264098D01*
X145202042Y-54187105D01*
X145016888Y-54147750D01*
X145016886Y-54147750D01*
X144827594Y-54147750D01*
X144827592Y-54147750D01*
X144642437Y-54187105D01*
X144469509Y-54264098D01*
X144360125Y-54343571D01*
X144313021Y-54364543D01*
X144261459Y-54364543D01*
X144214355Y-54343571D01*
X144104970Y-54264098D01*
X143932042Y-54187105D01*
X143746888Y-54147750D01*
X143746886Y-54147750D01*
X143557594Y-54147750D01*
X143557592Y-54147750D01*
X143372437Y-54187105D01*
X143199509Y-54264098D01*
X143090125Y-54343571D01*
X143043021Y-54364543D01*
X142991459Y-54364543D01*
X142944355Y-54343571D01*
X142834970Y-54264098D01*
X142662042Y-54187105D01*
X142476888Y-54147750D01*
X142476886Y-54147750D01*
X142287594Y-54147750D01*
X142287592Y-54147750D01*
X142102437Y-54187105D01*
X141929509Y-54264098D01*
X141820125Y-54343571D01*
X141773021Y-54364543D01*
X141721459Y-54364543D01*
X141674355Y-54343571D01*
X141564970Y-54264098D01*
X141392042Y-54187105D01*
X141206888Y-54147750D01*
X141206886Y-54147750D01*
X141017594Y-54147750D01*
X141017592Y-54147750D01*
X140832437Y-54187105D01*
X140659509Y-54264098D01*
X140550125Y-54343571D01*
X140503021Y-54364543D01*
X140451459Y-54364543D01*
X140404355Y-54343571D01*
X140294970Y-54264098D01*
X140122042Y-54187105D01*
X139936888Y-54147750D01*
X139936886Y-54147750D01*
X139747594Y-54147750D01*
X139747592Y-54147750D01*
X139562437Y-54187105D01*
X139389509Y-54264098D01*
X139280125Y-54343571D01*
X139233021Y-54364543D01*
X139181459Y-54364543D01*
X139134355Y-54343571D01*
X139024970Y-54264098D01*
X138852042Y-54187105D01*
X138666888Y-54147750D01*
X138666886Y-54147750D01*
X138477594Y-54147750D01*
X138477592Y-54147750D01*
X138292437Y-54187105D01*
X138119509Y-54264098D01*
X138010125Y-54343571D01*
X137963021Y-54364543D01*
X137911459Y-54364543D01*
X137864355Y-54343571D01*
X137754970Y-54264098D01*
X137582042Y-54187105D01*
X137396888Y-54147750D01*
X137396886Y-54147750D01*
X137207594Y-54147750D01*
X137207592Y-54147750D01*
X137022437Y-54187105D01*
X136849509Y-54264098D01*
X136696369Y-54375360D01*
X136569706Y-54516033D01*
X136475060Y-54679965D01*
X136416566Y-54859992D01*
X136396780Y-55048249D01*
X130473329Y-55048249D01*
X130244887Y-54819807D01*
X129917627Y-54548053D01*
X129742150Y-54427849D01*
X129566678Y-54307648D01*
X129488493Y-54264099D01*
X129195055Y-54100654D01*
X128805903Y-53928827D01*
X128402567Y-53793643D01*
X127988486Y-53696252D01*
X127567177Y-53637482D01*
X127142240Y-53617836D01*
X126717302Y-53637482D01*
X126295993Y-53696252D01*
X125881912Y-53793643D01*
X125478576Y-53928827D01*
X125089424Y-54100654D01*
X124717806Y-54307645D01*
X124366852Y-54548053D01*
X124039592Y-54819807D01*
X123738797Y-55120602D01*
X123467043Y-55447862D01*
X123226635Y-55798816D01*
X123019644Y-56170434D01*
X122847817Y-56559586D01*
X122712633Y-56962922D01*
X122615242Y-57377003D01*
X122556472Y-57798312D01*
X122536826Y-58223249D01*
X121240782Y-58223249D01*
X121251500Y-58198625D01*
X121253298Y-58194686D01*
X121729022Y-57200357D01*
X121730973Y-57196459D01*
X122241885Y-56219740D01*
X122243981Y-56215904D01*
X122789427Y-55258047D01*
X122791625Y-55254343D01*
X123370915Y-54316559D01*
X123373269Y-54312895D01*
X123985655Y-53396395D01*
X123988133Y-53392826D01*
X124632858Y-52498743D01*
X124635471Y-52495253D01*
X125118658Y-51873250D01*
X137666780Y-51873250D01*
X137686566Y-52061507D01*
X137745060Y-52241534D01*
X137839706Y-52405466D01*
X137966369Y-52546139D01*
X138119509Y-52657401D01*
X138292437Y-52734394D01*
X138477592Y-52773750D01*
X138477594Y-52773750D01*
X138666886Y-52773750D01*
X138666888Y-52773750D01*
X138790324Y-52747512D01*
X138852043Y-52734394D01*
X139024970Y-52657401D01*
X139024970Y-52657400D01*
X139134355Y-52577929D01*
X139181459Y-52556957D01*
X139233021Y-52556957D01*
X139280125Y-52577929D01*
X139389509Y-52657401D01*
X139562437Y-52734394D01*
X139747592Y-52773750D01*
X139747594Y-52773750D01*
X139936886Y-52773750D01*
X139936888Y-52773750D01*
X140060324Y-52747512D01*
X140122043Y-52734394D01*
X140294970Y-52657401D01*
X140294970Y-52657400D01*
X140404355Y-52577929D01*
X140451459Y-52556957D01*
X140503021Y-52556957D01*
X140550125Y-52577929D01*
X140659509Y-52657401D01*
X140832437Y-52734394D01*
X141017592Y-52773750D01*
X141017594Y-52773750D01*
X141206886Y-52773750D01*
X141206888Y-52773750D01*
X141330324Y-52747512D01*
X141392043Y-52734394D01*
X141564970Y-52657401D01*
X141564970Y-52657400D01*
X141674355Y-52577929D01*
X141721459Y-52556957D01*
X141773021Y-52556957D01*
X141820125Y-52577929D01*
X141929509Y-52657401D01*
X142102437Y-52734394D01*
X142287592Y-52773750D01*
X142287594Y-52773750D01*
X142476886Y-52773750D01*
X142476888Y-52773750D01*
X142600324Y-52747512D01*
X142662043Y-52734394D01*
X142834970Y-52657401D01*
X142834970Y-52657400D01*
X142944355Y-52577929D01*
X142991459Y-52556957D01*
X143043021Y-52556957D01*
X143090125Y-52577929D01*
X143199509Y-52657401D01*
X143372437Y-52734394D01*
X143557592Y-52773750D01*
X143557594Y-52773750D01*
X143746886Y-52773750D01*
X143746888Y-52773750D01*
X143870324Y-52747512D01*
X143932043Y-52734394D01*
X144104970Y-52657401D01*
X144104969Y-52657401D01*
X144258110Y-52546139D01*
X144303953Y-52495226D01*
X144384773Y-52405466D01*
X144479419Y-52241534D01*
X144537914Y-52061506D01*
X144557700Y-51873250D01*
X153922780Y-51873250D01*
X153942566Y-52061507D01*
X154001060Y-52241534D01*
X154095706Y-52405466D01*
X154222369Y-52546139D01*
X154375509Y-52657401D01*
X154548437Y-52734394D01*
X154733592Y-52773750D01*
X154733594Y-52773750D01*
X154922886Y-52773750D01*
X154922888Y-52773750D01*
X155046324Y-52747512D01*
X155108043Y-52734394D01*
X155280970Y-52657401D01*
X155280970Y-52657400D01*
X155390355Y-52577929D01*
X155437459Y-52556957D01*
X155489021Y-52556957D01*
X155536125Y-52577929D01*
X155645509Y-52657401D01*
X155818437Y-52734394D01*
X156003592Y-52773750D01*
X156003594Y-52773750D01*
X156192886Y-52773750D01*
X156192888Y-52773750D01*
X156316324Y-52747512D01*
X156378043Y-52734394D01*
X156550970Y-52657401D01*
X156550970Y-52657400D01*
X156660355Y-52577929D01*
X156707459Y-52556957D01*
X156759021Y-52556957D01*
X156806125Y-52577929D01*
X156915509Y-52657401D01*
X157088437Y-52734394D01*
X157273592Y-52773750D01*
X157273594Y-52773750D01*
X157462886Y-52773750D01*
X157462888Y-52773750D01*
X157586324Y-52747512D01*
X157648043Y-52734394D01*
X157820970Y-52657401D01*
X157820970Y-52657400D01*
X157930355Y-52577929D01*
X157977459Y-52556957D01*
X158029021Y-52556957D01*
X158076125Y-52577929D01*
X158185509Y-52657401D01*
X158358437Y-52734394D01*
X158543592Y-52773750D01*
X158543594Y-52773750D01*
X158732886Y-52773750D01*
X158732888Y-52773750D01*
X158856324Y-52747512D01*
X158918043Y-52734394D01*
X159090970Y-52657401D01*
X159090970Y-52657400D01*
X159200355Y-52577929D01*
X159247459Y-52556957D01*
X159299021Y-52556957D01*
X159346125Y-52577929D01*
X159455509Y-52657401D01*
X159628437Y-52734394D01*
X159813592Y-52773750D01*
X159813594Y-52773750D01*
X160002886Y-52773750D01*
X160002888Y-52773750D01*
X160126324Y-52747512D01*
X160188043Y-52734394D01*
X160360970Y-52657401D01*
X160360969Y-52657401D01*
X160514110Y-52546139D01*
X160559953Y-52495226D01*
X160640773Y-52405466D01*
X160735419Y-52241534D01*
X160793914Y-52061506D01*
X160813700Y-51873250D01*
X160793914Y-51684994D01*
X160735419Y-51504966D01*
X160735419Y-51504965D01*
X160640773Y-51341033D01*
X160514110Y-51200360D01*
X160360970Y-51089098D01*
X160188042Y-51012105D01*
X160002888Y-50972750D01*
X160002886Y-50972750D01*
X159813594Y-50972750D01*
X159813592Y-50972750D01*
X159628437Y-51012105D01*
X159455509Y-51089098D01*
X159346125Y-51168571D01*
X159299021Y-51189543D01*
X159247459Y-51189543D01*
X159200355Y-51168571D01*
X159090970Y-51089098D01*
X158918042Y-51012105D01*
X158732888Y-50972750D01*
X158732886Y-50972750D01*
X158543594Y-50972750D01*
X158543592Y-50972750D01*
X158358437Y-51012105D01*
X158185509Y-51089098D01*
X158076125Y-51168571D01*
X158029021Y-51189543D01*
X157977459Y-51189543D01*
X157930355Y-51168571D01*
X157820970Y-51089098D01*
X157648042Y-51012105D01*
X157462888Y-50972750D01*
X157462886Y-50972750D01*
X157273594Y-50972750D01*
X157273592Y-50972750D01*
X157088437Y-51012105D01*
X156915509Y-51089098D01*
X156806125Y-51168571D01*
X156759021Y-51189543D01*
X156707459Y-51189543D01*
X156660355Y-51168571D01*
X156550970Y-51089098D01*
X156378042Y-51012105D01*
X156192888Y-50972750D01*
X156192886Y-50972750D01*
X156003594Y-50972750D01*
X156003592Y-50972750D01*
X155818437Y-51012105D01*
X155645509Y-51089098D01*
X155536125Y-51168571D01*
X155489021Y-51189543D01*
X155437459Y-51189543D01*
X155390355Y-51168571D01*
X155280970Y-51089098D01*
X155108042Y-51012105D01*
X154922888Y-50972750D01*
X154922886Y-50972750D01*
X154733594Y-50972750D01*
X154733592Y-50972750D01*
X154548437Y-51012105D01*
X154375509Y-51089098D01*
X154222369Y-51200360D01*
X154095706Y-51341033D01*
X154001060Y-51504965D01*
X153942566Y-51684992D01*
X153922780Y-51873250D01*
X144557700Y-51873250D01*
X144537914Y-51684994D01*
X144479419Y-51504966D01*
X144479419Y-51504965D01*
X144384773Y-51341033D01*
X144258110Y-51200360D01*
X144104970Y-51089098D01*
X143932042Y-51012105D01*
X143746888Y-50972750D01*
X143746886Y-50972750D01*
X143557594Y-50972750D01*
X143557592Y-50972750D01*
X143372437Y-51012105D01*
X143199509Y-51089098D01*
X143090125Y-51168571D01*
X143043021Y-51189543D01*
X142991459Y-51189543D01*
X142944355Y-51168571D01*
X142834970Y-51089098D01*
X142662042Y-51012105D01*
X142476888Y-50972750D01*
X142476886Y-50972750D01*
X142287594Y-50972750D01*
X142287592Y-50972750D01*
X142102437Y-51012105D01*
X141929509Y-51089098D01*
X141820125Y-51168571D01*
X141773021Y-51189543D01*
X141721459Y-51189543D01*
X141674355Y-51168571D01*
X141564970Y-51089098D01*
X141392042Y-51012105D01*
X141206888Y-50972750D01*
X141206886Y-50972750D01*
X141017594Y-50972750D01*
X141017592Y-50972750D01*
X140832437Y-51012105D01*
X140659509Y-51089098D01*
X140550125Y-51168571D01*
X140503021Y-51189543D01*
X140451459Y-51189543D01*
X140404355Y-51168571D01*
X140294970Y-51089098D01*
X140122042Y-51012105D01*
X139936888Y-50972750D01*
X139936886Y-50972750D01*
X139747594Y-50972750D01*
X139747592Y-50972750D01*
X139562437Y-51012105D01*
X139389509Y-51089098D01*
X139280125Y-51168571D01*
X139233021Y-51189543D01*
X139181459Y-51189543D01*
X139134355Y-51168571D01*
X139024970Y-51089098D01*
X138852042Y-51012105D01*
X138666888Y-50972750D01*
X138666886Y-50972750D01*
X138477594Y-50972750D01*
X138477592Y-50972750D01*
X138292437Y-51012105D01*
X138119509Y-51089098D01*
X137966369Y-51200360D01*
X137839706Y-51341033D01*
X137745060Y-51504965D01*
X137686566Y-51684992D01*
X137666780Y-51873250D01*
X125118658Y-51873250D01*
X125311681Y-51624773D01*
X125314392Y-51621409D01*
X126021220Y-50775642D01*
X126024103Y-50772316D01*
X126760677Y-49952307D01*
X126763655Y-49949107D01*
X127529059Y-49155878D01*
X127532084Y-49152853D01*
X128003214Y-48698249D01*
X136396780Y-48698249D01*
X136416566Y-48886507D01*
X136475060Y-49066534D01*
X136569706Y-49230466D01*
X136696369Y-49371139D01*
X136849509Y-49482401D01*
X137022437Y-49559394D01*
X137207592Y-49598750D01*
X137207594Y-49598750D01*
X137396886Y-49598750D01*
X137396888Y-49598750D01*
X137520323Y-49572512D01*
X137582043Y-49559394D01*
X137754970Y-49482401D01*
X137824182Y-49432116D01*
X137864355Y-49402929D01*
X137911459Y-49381957D01*
X137963021Y-49381957D01*
X138010125Y-49402929D01*
X138119509Y-49482401D01*
X138292437Y-49559394D01*
X138477592Y-49598750D01*
X138477594Y-49598750D01*
X138666886Y-49598750D01*
X138666888Y-49598750D01*
X138790323Y-49572512D01*
X138852043Y-49559394D01*
X139024970Y-49482401D01*
X139094182Y-49432116D01*
X139134355Y-49402929D01*
X139181459Y-49381957D01*
X139233021Y-49381957D01*
X139280125Y-49402929D01*
X139389509Y-49482401D01*
X139562437Y-49559394D01*
X139747592Y-49598750D01*
X139747594Y-49598750D01*
X139936886Y-49598750D01*
X139936888Y-49598750D01*
X140060323Y-49572512D01*
X140122043Y-49559394D01*
X140294970Y-49482401D01*
X140364182Y-49432116D01*
X140404355Y-49402929D01*
X140451459Y-49381957D01*
X140503021Y-49381957D01*
X140550125Y-49402929D01*
X140659509Y-49482401D01*
X140832437Y-49559394D01*
X141017592Y-49598750D01*
X141017594Y-49598750D01*
X141206886Y-49598750D01*
X141206888Y-49598750D01*
X141330323Y-49572512D01*
X141392043Y-49559394D01*
X141564970Y-49482401D01*
X141634182Y-49432116D01*
X141674355Y-49402929D01*
X141721459Y-49381957D01*
X141773021Y-49381957D01*
X141820125Y-49402929D01*
X141929509Y-49482401D01*
X142102437Y-49559394D01*
X142287592Y-49598750D01*
X142287594Y-49598750D01*
X142476886Y-49598750D01*
X142476888Y-49598750D01*
X142600323Y-49572512D01*
X142662043Y-49559394D01*
X142834970Y-49482401D01*
X142904182Y-49432116D01*
X142944355Y-49402929D01*
X142991459Y-49381957D01*
X143043021Y-49381957D01*
X143090125Y-49402929D01*
X143199509Y-49482401D01*
X143372437Y-49559394D01*
X143557592Y-49598750D01*
X143557594Y-49598750D01*
X143746886Y-49598750D01*
X143746888Y-49598750D01*
X143870323Y-49572512D01*
X143932043Y-49559394D01*
X144104970Y-49482401D01*
X144174182Y-49432116D01*
X144214355Y-49402929D01*
X144261459Y-49381957D01*
X144313021Y-49381957D01*
X144360125Y-49402929D01*
X144469509Y-49482401D01*
X144642437Y-49559394D01*
X144827592Y-49598750D01*
X144827594Y-49598750D01*
X145016886Y-49598750D01*
X145016888Y-49598750D01*
X145140323Y-49572512D01*
X145202043Y-49559394D01*
X145374970Y-49482401D01*
X145444182Y-49432116D01*
X145528110Y-49371139D01*
X145654773Y-49230466D01*
X145749419Y-49066534D01*
X145749419Y-49066533D01*
X145807914Y-48886506D01*
X145827700Y-48698250D01*
X145827700Y-48698249D01*
X152652780Y-48698249D01*
X152672566Y-48886507D01*
X152731060Y-49066534D01*
X152825706Y-49230466D01*
X152952369Y-49371139D01*
X153105509Y-49482401D01*
X153278437Y-49559394D01*
X153463592Y-49598750D01*
X153463594Y-49598750D01*
X153652886Y-49598750D01*
X153652888Y-49598750D01*
X153776323Y-49572512D01*
X153838043Y-49559394D01*
X154010970Y-49482401D01*
X154080182Y-49432116D01*
X154120355Y-49402929D01*
X154167459Y-49381957D01*
X154219021Y-49381957D01*
X154266125Y-49402929D01*
X154375509Y-49482401D01*
X154548437Y-49559394D01*
X154733592Y-49598750D01*
X154733594Y-49598750D01*
X154922886Y-49598750D01*
X154922888Y-49598750D01*
X155046323Y-49572512D01*
X155108043Y-49559394D01*
X155280970Y-49482401D01*
X155350182Y-49432116D01*
X155390355Y-49402929D01*
X155437459Y-49381957D01*
X155489021Y-49381957D01*
X155536125Y-49402929D01*
X155645509Y-49482401D01*
X155818437Y-49559394D01*
X156003592Y-49598750D01*
X156003594Y-49598750D01*
X156192886Y-49598750D01*
X156192888Y-49598750D01*
X156316323Y-49572512D01*
X156378043Y-49559394D01*
X156550970Y-49482401D01*
X156620182Y-49432116D01*
X156660355Y-49402929D01*
X156707459Y-49381957D01*
X156759021Y-49381957D01*
X156806125Y-49402929D01*
X156915509Y-49482401D01*
X157088437Y-49559394D01*
X157273592Y-49598750D01*
X157273594Y-49598750D01*
X157462886Y-49598750D01*
X157462888Y-49598750D01*
X157586323Y-49572512D01*
X157648043Y-49559394D01*
X157820970Y-49482401D01*
X157890182Y-49432116D01*
X157930355Y-49402929D01*
X157977459Y-49381957D01*
X158029021Y-49381957D01*
X158076125Y-49402929D01*
X158185509Y-49482401D01*
X158358437Y-49559394D01*
X158543592Y-49598750D01*
X158543594Y-49598750D01*
X158732886Y-49598750D01*
X158732888Y-49598750D01*
X158856323Y-49572512D01*
X158918043Y-49559394D01*
X159090970Y-49482401D01*
X159160182Y-49432116D01*
X159200355Y-49402929D01*
X159247459Y-49381957D01*
X159299021Y-49381957D01*
X159346125Y-49402929D01*
X159455509Y-49482401D01*
X159628437Y-49559394D01*
X159813592Y-49598750D01*
X159813594Y-49598750D01*
X160002886Y-49598750D01*
X160002888Y-49598750D01*
X160126323Y-49572512D01*
X160188043Y-49559394D01*
X160360970Y-49482401D01*
X160430182Y-49432116D01*
X160470355Y-49402929D01*
X160517459Y-49381957D01*
X160569021Y-49381957D01*
X160616125Y-49402929D01*
X160725509Y-49482401D01*
X160898437Y-49559394D01*
X161083592Y-49598750D01*
X161083594Y-49598750D01*
X161272886Y-49598750D01*
X161272888Y-49598750D01*
X161396323Y-49572512D01*
X161458043Y-49559394D01*
X161630970Y-49482401D01*
X161700182Y-49432116D01*
X161784110Y-49371139D01*
X161910773Y-49230466D01*
X162005419Y-49066534D01*
X162005419Y-49066533D01*
X162063914Y-48886506D01*
X162083700Y-48698250D01*
X162063914Y-48509994D01*
X162005419Y-48329966D01*
X162005419Y-48329965D01*
X161910773Y-48166033D01*
X161784110Y-48025360D01*
X161630970Y-47914098D01*
X161458042Y-47837105D01*
X161272888Y-47797750D01*
X161272886Y-47797750D01*
X161083594Y-47797750D01*
X161083592Y-47797750D01*
X160898437Y-47837105D01*
X160725509Y-47914098D01*
X160616125Y-47993571D01*
X160569021Y-48014543D01*
X160517459Y-48014543D01*
X160470355Y-47993571D01*
X160360970Y-47914098D01*
X160188042Y-47837105D01*
X160002888Y-47797750D01*
X160002886Y-47797750D01*
X159813594Y-47797750D01*
X159813592Y-47797750D01*
X159628437Y-47837105D01*
X159455509Y-47914098D01*
X159346125Y-47993571D01*
X159299021Y-48014543D01*
X159247459Y-48014543D01*
X159200355Y-47993571D01*
X159090970Y-47914098D01*
X158918042Y-47837105D01*
X158732888Y-47797750D01*
X158732886Y-47797750D01*
X158543594Y-47797750D01*
X158543592Y-47797750D01*
X158358437Y-47837105D01*
X158185509Y-47914098D01*
X158076125Y-47993571D01*
X158029021Y-48014543D01*
X157977459Y-48014543D01*
X157930355Y-47993571D01*
X157820970Y-47914098D01*
X157648042Y-47837105D01*
X157462888Y-47797750D01*
X157462886Y-47797750D01*
X157273594Y-47797750D01*
X157273592Y-47797750D01*
X157088437Y-47837105D01*
X156915509Y-47914098D01*
X156806125Y-47993571D01*
X156759021Y-48014543D01*
X156707459Y-48014543D01*
X156660355Y-47993571D01*
X156550970Y-47914098D01*
X156378042Y-47837105D01*
X156192888Y-47797750D01*
X156192886Y-47797750D01*
X156003594Y-47797750D01*
X156003592Y-47797750D01*
X155818437Y-47837105D01*
X155645509Y-47914098D01*
X155536125Y-47993571D01*
X155489021Y-48014543D01*
X155437459Y-48014543D01*
X155390355Y-47993571D01*
X155280970Y-47914098D01*
X155108042Y-47837105D01*
X154922888Y-47797750D01*
X154922886Y-47797750D01*
X154733594Y-47797750D01*
X154733592Y-47797750D01*
X154548437Y-47837105D01*
X154375509Y-47914098D01*
X154266125Y-47993571D01*
X154219021Y-48014543D01*
X154167459Y-48014543D01*
X154120355Y-47993571D01*
X154010970Y-47914098D01*
X153838042Y-47837105D01*
X153652888Y-47797750D01*
X153652886Y-47797750D01*
X153463594Y-47797750D01*
X153463592Y-47797750D01*
X153278437Y-47837105D01*
X153105509Y-47914098D01*
X152952369Y-48025360D01*
X152825706Y-48166033D01*
X152731060Y-48329965D01*
X152672566Y-48509992D01*
X152652780Y-48698249D01*
X145827700Y-48698249D01*
X145807914Y-48509994D01*
X145749419Y-48329966D01*
X145749419Y-48329965D01*
X145654773Y-48166033D01*
X145528110Y-48025360D01*
X145374970Y-47914098D01*
X145202042Y-47837105D01*
X145016888Y-47797750D01*
X145016886Y-47797750D01*
X144827594Y-47797750D01*
X144827592Y-47797750D01*
X144642437Y-47837105D01*
X144469509Y-47914098D01*
X144360125Y-47993571D01*
X144313021Y-48014543D01*
X144261459Y-48014543D01*
X144214355Y-47993571D01*
X144104970Y-47914098D01*
X143932042Y-47837105D01*
X143746888Y-47797750D01*
X143746886Y-47797750D01*
X143557594Y-47797750D01*
X143557592Y-47797750D01*
X143372437Y-47837105D01*
X143199509Y-47914098D01*
X143090125Y-47993571D01*
X143043021Y-48014543D01*
X142991459Y-48014543D01*
X142944355Y-47993571D01*
X142834970Y-47914098D01*
X142662042Y-47837105D01*
X142476888Y-47797750D01*
X142476886Y-47797750D01*
X142287594Y-47797750D01*
X142287592Y-47797750D01*
X142102437Y-47837105D01*
X141929509Y-47914098D01*
X141820125Y-47993571D01*
X141773021Y-48014543D01*
X141721459Y-48014543D01*
X141674355Y-47993571D01*
X141564970Y-47914098D01*
X141392042Y-47837105D01*
X141206888Y-47797750D01*
X141206886Y-47797750D01*
X141017594Y-47797750D01*
X141017592Y-47797750D01*
X140832437Y-47837105D01*
X140659509Y-47914098D01*
X140550125Y-47993571D01*
X140503021Y-48014543D01*
X140451459Y-48014543D01*
X140404355Y-47993571D01*
X140294970Y-47914098D01*
X140122042Y-47837105D01*
X139936888Y-47797750D01*
X139936886Y-47797750D01*
X139747594Y-47797750D01*
X139747592Y-47797750D01*
X139562437Y-47837105D01*
X139389509Y-47914098D01*
X139280125Y-47993571D01*
X139233021Y-48014543D01*
X139181459Y-48014543D01*
X139134355Y-47993571D01*
X139024970Y-47914098D01*
X138852042Y-47837105D01*
X138666888Y-47797750D01*
X138666886Y-47797750D01*
X138477594Y-47797750D01*
X138477592Y-47797750D01*
X138292437Y-47837105D01*
X138119509Y-47914098D01*
X138010125Y-47993571D01*
X137963021Y-48014543D01*
X137911459Y-48014543D01*
X137864355Y-47993571D01*
X137754970Y-47914098D01*
X137582042Y-47837105D01*
X137396888Y-47797750D01*
X137396886Y-47797750D01*
X137240188Y-47797750D01*
X137189123Y-47784706D01*
X137187737Y-47786663D01*
X137133072Y-47813589D01*
X137022437Y-47837105D01*
X136849509Y-47914098D01*
X136696369Y-48025360D01*
X136569706Y-48166033D01*
X136475060Y-48329965D01*
X136416566Y-48509992D01*
X136396780Y-48698249D01*
X128003214Y-48698249D01*
X128325313Y-48387449D01*
X128328513Y-48384471D01*
X128389194Y-48329965D01*
X128937880Y-47837106D01*
X129148522Y-47647897D01*
X129151848Y-47645014D01*
X129997615Y-46938186D01*
X130000979Y-46935475D01*
X130871459Y-46259265D01*
X130874949Y-46256652D01*
X131769032Y-45611927D01*
X131772601Y-45609449D01*
X132453526Y-45154469D01*
X132516362Y-45133720D01*
X132580923Y-45148242D01*
X132628821Y-45193901D01*
X132830374Y-45530732D01*
X133085782Y-45878826D01*
X133372663Y-46201474D01*
X133688503Y-46495846D01*
X133938545Y-46688487D01*
X134030514Y-46759343D01*
X134395699Y-46989658D01*
X134780846Y-47184764D01*
X135182571Y-47342947D01*
X135597343Y-47462817D01*
X136021518Y-47543321D01*
X136351435Y-47574351D01*
X136451365Y-47583750D01*
X136451367Y-47583750D01*
X136775111Y-47583750D01*
X136775117Y-47583750D01*
X137098512Y-47568575D01*
X137098520Y-47568573D01*
X137101479Y-47568435D01*
X137161011Y-47580587D01*
X137166054Y-47574351D01*
X137222802Y-47550975D01*
X137276854Y-47543321D01*
X137525993Y-47508042D01*
X137945928Y-47407745D01*
X138354626Y-47268566D01*
X138748495Y-47091727D01*
X138928518Y-46989658D01*
X139124075Y-46878782D01*
X139350183Y-46720897D01*
X139478062Y-46631603D01*
X139807348Y-46352363D01*
X140109039Y-46043515D01*
X140380484Y-45707773D01*
X140619296Y-45348087D01*
X140823377Y-44967620D01*
X140990935Y-44569713D01*
X141120495Y-44157865D01*
X141210920Y-43735695D01*
X141261415Y-43306911D01*
X141271536Y-42875284D01*
X141256340Y-42659587D01*
X141241196Y-42444611D01*
X141205789Y-42230808D01*
X141170657Y-42018660D01*
X141060544Y-41601192D01*
X140985333Y-41396217D01*
X140980214Y-41328884D01*
X141011140Y-41268850D01*
X141068938Y-41233925D01*
X141782046Y-41038293D01*
X141786256Y-41037220D01*
X142858971Y-40783731D01*
X142863215Y-40782807D01*
X143944291Y-40567768D01*
X143948601Y-40566991D01*
X145036686Y-40390670D01*
X145040952Y-40390057D01*
X145881009Y-40284543D01*
X145941450Y-40292025D01*
X145991039Y-40327381D01*
X146017813Y-40382082D01*
X146015314Y-40442933D01*
X145984145Y-40495255D01*
X145963798Y-40515602D01*
X145692043Y-40842862D01*
X145451635Y-41193816D01*
X145244644Y-41565434D01*
X145072817Y-41954586D01*
X144937633Y-42357922D01*
X144840242Y-42772003D01*
X144781472Y-43193312D01*
X144761826Y-43618249D01*
X144781472Y-44043187D01*
X144840242Y-44464496D01*
X144937633Y-44878577D01*
X145072817Y-45281913D01*
X145244644Y-45671065D01*
X145451635Y-46042683D01*
X145692043Y-46393637D01*
X145963797Y-46720897D01*
X146264592Y-47021692D01*
X146591852Y-47293446D01*
X146591858Y-47293450D01*
X146942802Y-47533852D01*
X147021470Y-47577670D01*
X147314424Y-47740845D01*
X147314426Y-47740846D01*
X147314430Y-47740848D01*
X147703573Y-47912671D01*
X147703576Y-47912672D01*
X148106912Y-48047856D01*
X148451663Y-48128940D01*
X148520997Y-48145248D01*
X148942306Y-48204018D01*
X149367240Y-48223664D01*
X149792174Y-48204018D01*
X150213483Y-48145248D01*
X150627571Y-48047855D01*
X151030907Y-47912671D01*
X151420050Y-47740848D01*
X151791678Y-47533852D01*
X152142622Y-47293450D01*
X152469887Y-47021692D01*
X152770682Y-46720897D01*
X153042440Y-46393632D01*
X153282842Y-46042688D01*
X153489838Y-45671060D01*
X153661661Y-45281917D01*
X153796845Y-44878581D01*
X153894238Y-44464493D01*
X153953008Y-44043184D01*
X153972654Y-43618250D01*
X153953008Y-43193316D01*
X153894238Y-42772007D01*
X153817235Y-42444611D01*
X153796846Y-42357922D01*
X153661662Y-41954586D01*
X153657561Y-41945298D01*
X153489838Y-41565440D01*
X153282842Y-41193812D01*
X153042440Y-40842868D01*
X153042436Y-40842862D01*
X152770682Y-40515602D01*
X152726416Y-40471336D01*
X152695245Y-40419014D01*
X152692746Y-40358163D01*
X152719520Y-40303461D01*
X152769109Y-40268104D01*
X152829547Y-40260622D01*
X153860043Y-40390056D01*
G37*
%TD.AperFunction*%
%TD*%
M02*
