%TF.GenerationSoftware,KiCad,Pcbnew,7.0.1*%
%TF.CreationDate,2024-07-26T16:33:55+03:00*%
%TF.ProjectId,_______ _____,21383b3e-3230-44f2-903f-3b3042302e6b,rev?*%
%TF.SameCoordinates,Original*%
%TF.FileFunction,Copper,L1,Top*%
%TF.FilePolarity,Positive*%
%FSLAX46Y46*%
G04 Gerber Fmt 4.6, Leading zero omitted, Abs format (unit mm)*
G04 Created by KiCad (PCBNEW 7.0.1) date 2024-07-26 16:33:55*
%MOMM*%
%LPD*%
G01*
G04 APERTURE LIST*
G04 Aperture macros list*
%AMRoundRect*
0 Rectangle with rounded corners*
0 $1 Rounding radius*
0 $2 $3 $4 $5 $6 $7 $8 $9 X,Y pos of 4 corners*
0 Add a 4 corners polygon primitive as box body*
4,1,4,$2,$3,$4,$5,$6,$7,$8,$9,$2,$3,0*
0 Add four circle primitives for the rounded corners*
1,1,$1+$1,$2,$3*
1,1,$1+$1,$4,$5*
1,1,$1+$1,$6,$7*
1,1,$1+$1,$8,$9*
0 Add four rect primitives between the rounded corners*
20,1,$1+$1,$2,$3,$4,$5,0*
20,1,$1+$1,$4,$5,$6,$7,0*
20,1,$1+$1,$6,$7,$8,$9,0*
20,1,$1+$1,$8,$9,$2,$3,0*%
G04 Aperture macros list end*
%TA.AperFunction,SMDPad,CuDef*%
%ADD10RoundRect,0.250000X1.100000X-0.412500X1.100000X0.412500X-1.100000X0.412500X-1.100000X-0.412500X0*%
%TD*%
%TA.AperFunction,ComponentPad*%
%ADD11C,5.000000*%
%TD*%
%TA.AperFunction,ComponentPad*%
%ADD12C,8.200000*%
%TD*%
%TA.AperFunction,SMDPad,CuDef*%
%ADD13R,2.800000X0.900000*%
%TD*%
%TA.AperFunction,SMDPad,CuDef*%
%ADD14R,1.550000X10.100000*%
%TD*%
%TA.AperFunction,SMDPad,CuDef*%
%ADD15R,2.750000X8.700000*%
%TD*%
%TA.AperFunction,SMDPad,CuDef*%
%ADD16R,3.700000X9.700000*%
%TD*%
%TA.AperFunction,SMDPad,CuDef*%
%ADD17RoundRect,0.237500X-0.300000X-0.237500X0.300000X-0.237500X0.300000X0.237500X-0.300000X0.237500X0*%
%TD*%
%TA.AperFunction,ComponentPad*%
%ADD18C,6.000000*%
%TD*%
%TA.AperFunction,SMDPad,CuDef*%
%ADD19R,0.900000X2.800000*%
%TD*%
%TA.AperFunction,SMDPad,CuDef*%
%ADD20R,10.100000X1.550000*%
%TD*%
%TA.AperFunction,SMDPad,CuDef*%
%ADD21R,8.700000X2.750000*%
%TD*%
%TA.AperFunction,SMDPad,CuDef*%
%ADD22R,9.700000X3.700000*%
%TD*%
%TA.AperFunction,SMDPad,CuDef*%
%ADD23RoundRect,0.100000X0.100000X-0.712500X0.100000X0.712500X-0.100000X0.712500X-0.100000X-0.712500X0*%
%TD*%
%TA.AperFunction,ComponentPad*%
%ADD24R,1.350000X1.350000*%
%TD*%
%TA.AperFunction,ComponentPad*%
%ADD25O,1.350000X1.350000*%
%TD*%
%TA.AperFunction,SMDPad,CuDef*%
%ADD26RoundRect,0.250000X-0.650000X0.412500X-0.650000X-0.412500X0.650000X-0.412500X0.650000X0.412500X0*%
%TD*%
%TA.AperFunction,ComponentPad*%
%ADD27C,2.000000*%
%TD*%
%TA.AperFunction,SMDPad,CuDef*%
%ADD28RoundRect,0.100000X-0.100000X0.712500X-0.100000X-0.712500X0.100000X-0.712500X0.100000X0.712500X0*%
%TD*%
%TA.AperFunction,SMDPad,CuDef*%
%ADD29RoundRect,0.250000X-1.100000X0.412500X-1.100000X-0.412500X1.100000X-0.412500X1.100000X0.412500X0*%
%TD*%
%TA.AperFunction,SMDPad,CuDef*%
%ADD30RoundRect,0.249999X-0.450001X-1.425001X0.450001X-1.425001X0.450001X1.425001X-0.450001X1.425001X0*%
%TD*%
%TA.AperFunction,SMDPad,CuDef*%
%ADD31RoundRect,0.250000X-0.412500X-0.650000X0.412500X-0.650000X0.412500X0.650000X-0.412500X0.650000X0*%
%TD*%
%TA.AperFunction,SMDPad,CuDef*%
%ADD32RoundRect,0.225000X0.375000X-0.225000X0.375000X0.225000X-0.375000X0.225000X-0.375000X-0.225000X0*%
%TD*%
%TA.AperFunction,SMDPad,CuDef*%
%ADD33RoundRect,0.250000X0.412500X0.650000X-0.412500X0.650000X-0.412500X-0.650000X0.412500X-0.650000X0*%
%TD*%
%TA.AperFunction,SMDPad,CuDef*%
%ADD34RoundRect,0.250000X-0.450000X0.350000X-0.450000X-0.350000X0.450000X-0.350000X0.450000X0.350000X0*%
%TD*%
%TA.AperFunction,SMDPad,CuDef*%
%ADD35RoundRect,0.250000X0.650000X-0.412500X0.650000X0.412500X-0.650000X0.412500X-0.650000X-0.412500X0*%
%TD*%
%TA.AperFunction,ViaPad*%
%ADD36C,0.800000*%
%TD*%
%TA.AperFunction,Conductor*%
%ADD37C,1.000000*%
%TD*%
%TA.AperFunction,Conductor*%
%ADD38C,0.500000*%
%TD*%
%TA.AperFunction,Conductor*%
%ADD39C,0.250000*%
%TD*%
G04 APERTURE END LIST*
D10*
%TO.P,C14,1*%
%TO.N,Shunt_1*%
X145557240Y-102330750D03*
%TO.P,C14,2*%
%TO.N,GND*%
X145557240Y-99205750D03*
%TD*%
D11*
%TO.P,J8,1,Pin_1*%
%TO.N,Earth_Protective*%
X132222240Y-124898250D03*
%TD*%
D12*
%TO.P,J4,1,Pin_1*%
%TO.N,C*%
X127142240Y-58223250D03*
%TD*%
%TO.P,J1,1,Pin_1*%
%TO.N,A*%
X171592240Y-58223250D03*
%TD*%
D11*
%TO.P,J2,1,Pin_1*%
%TO.N,Earth_Protective*%
X167147240Y-124898250D03*
%TD*%
D10*
%TO.P,C26,1*%
%TO.N,Shunt_1*%
X145557240Y-113418250D03*
%TO.P,C26,2*%
%TO.N,GND*%
X145557240Y-110293250D03*
%TD*%
D13*
%TO.P,Q6,1,G*%
%TO.N,G6*%
X132852240Y-72583250D03*
%TO.P,Q6,2,S*%
%TO.N,GND*%
X132852240Y-71383250D03*
X132852240Y-70183250D03*
X132852240Y-68983250D03*
X132852240Y-67783250D03*
X132852240Y-66583250D03*
X132852240Y-65383250D03*
X132852240Y-64183250D03*
D14*
%TO.P,Q6,3,D*%
%TO.N,C*%
X122002240Y-68383250D03*
D15*
X124152240Y-68383250D03*
D16*
X127377240Y-68383250D03*
%TD*%
D17*
%TO.P,C47,1*%
%TO.N,+3.3V*%
X148377740Y-64907750D03*
%TO.P,C47,2*%
%TO.N,GND*%
X150102740Y-64907750D03*
%TD*%
D10*
%TO.P,C25,1*%
%TO.N,Shunt_1*%
X141747240Y-113418250D03*
%TO.P,C25,2*%
%TO.N,GND*%
X141747240Y-110293250D03*
%TD*%
D18*
%TO.P,J6,1,Pin_1*%
%TO.N,Shunt_1*%
X144287240Y-119483250D03*
%TD*%
D19*
%TO.P,Q7,1,G*%
%TO.N,Net-(D1-K)*%
X161187240Y-101408250D03*
%TO.P,Q7,2,S*%
%TO.N,GND*%
X159987240Y-101408250D03*
X158787240Y-101408250D03*
X157587240Y-101408250D03*
X156387240Y-101408250D03*
X155187240Y-101408250D03*
X153987240Y-101408250D03*
X152787240Y-101408250D03*
D20*
%TO.P,Q7,3,D*%
%TO.N,Net-(J5-Pin_1)*%
X156987240Y-112258250D03*
D21*
X156987240Y-110108250D03*
D22*
X156987240Y-106883250D03*
%TD*%
D23*
%TO.P,D2,1,SDA*%
%TO.N,SDA_MCU*%
X175230240Y-81544750D03*
%TO.P,D2,2,SCL*%
%TO.N,SCL_MCU*%
X175880240Y-81544750D03*
%TO.P,D2,3,~{OS}/INT*%
%TO.N,~{OS}_MCU*%
X176530240Y-81544750D03*
%TO.P,D2,4,GND*%
%TO.N,GND*%
X177180240Y-81544750D03*
%TO.P,D2,5,A2*%
X177180240Y-77319750D03*
%TO.P,D2,6,A1*%
X176530240Y-77319750D03*
%TO.P,D2,7,A0*%
%TO.N,+3.3V*%
X175880240Y-77319750D03*
%TO.P,D2,8,VDD*%
X175230240Y-77319750D03*
%TD*%
D10*
%TO.P,C3,1*%
%TO.N,Shunt_1*%
X137937240Y-102330750D03*
%TO.P,C3,2*%
%TO.N,GND*%
X137937240Y-99205750D03*
%TD*%
D24*
%TO.P,J7,1,Pin_1*%
%TO.N,+3.3V*%
X150367240Y-70686250D03*
D25*
%TO.P,J7,2,Pin_2*%
%TO.N,~{OS}_MCU*%
X148367240Y-70686250D03*
%TO.P,J7,3,Pin_3*%
%TO.N,G3*%
X150367240Y-72686250D03*
%TO.P,J7,4,Pin_4*%
%TO.N,SCL_MCU*%
X148367240Y-72686250D03*
%TO.P,J7,5,Pin_5*%
%TO.N,B*%
X150367240Y-74686250D03*
%TO.P,J7,6,Pin_6*%
%TO.N,SDA_MCU*%
X148367240Y-74686250D03*
%TO.P,J7,7,Pin_7*%
%TO.N,G2*%
X150367240Y-76686250D03*
%TO.P,J7,8,Pin_8*%
%TO.N,G4*%
X148367240Y-76686250D03*
%TO.P,J7,9,Pin_9*%
%TO.N,GND*%
X150367240Y-78686250D03*
%TO.P,J7,10,Pin_10*%
X148367240Y-78686250D03*
%TO.P,J7,11,Pin_11*%
%TO.N,G1*%
X150367240Y-80686250D03*
%TO.P,J7,12,Pin_12*%
%TO.N,G6*%
X148367240Y-80686250D03*
%TO.P,J7,13,Pin_13*%
%TO.N,A*%
X150367240Y-82686250D03*
%TO.P,J7,14,Pin_14*%
%TO.N,C*%
X148367240Y-82686250D03*
%TO.P,J7,15,Pin_15*%
%TO.N,GND*%
X150367240Y-84686250D03*
%TO.P,J7,16,Pin_16*%
%TO.N,G5*%
X148367240Y-84686250D03*
%TO.P,J7,17,Pin_17*%
%TO.N,Shunt_1*%
X150367240Y-86686250D03*
%TO.P,J7,18,Pin_18*%
%TO.N,GND*%
X148367240Y-86686250D03*
%TO.P,J7,19,Pin_19*%
%TO.N,Shunt_1*%
X150367240Y-88686250D03*
%TO.P,J7,20,Pin_20*%
%TO.N,Shunt_2*%
X148367240Y-88686250D03*
%TD*%
D12*
%TO.P,J3,1,Pin_1*%
%TO.N,B*%
X149367240Y-43618250D03*
%TD*%
D13*
%TO.P,Q3,1,G*%
%TO.N,G5*%
X137297240Y-85918250D03*
%TO.P,Q3,2,S*%
%TO.N,C*%
X137297240Y-84718250D03*
X137297240Y-83518250D03*
X137297240Y-82318250D03*
X137297240Y-81118250D03*
X137297240Y-79918250D03*
X137297240Y-78718250D03*
X137297240Y-77518250D03*
D14*
%TO.P,Q3,3,D*%
%TO.N,Shunt_2*%
X126447240Y-81718250D03*
D15*
X128597240Y-81718250D03*
D16*
X131822240Y-81718250D03*
%TD*%
D26*
%TO.P,C53,1*%
%TO.N,GND*%
X139700000Y-71462500D03*
%TO.P,C53,2*%
%TO.N,Shunt_2*%
X139700000Y-74587500D03*
%TD*%
%TO.P,C54,1*%
%TO.N,GND*%
X162560000Y-71462500D03*
%TO.P,C54,2*%
%TO.N,Shunt_2*%
X162560000Y-74587500D03*
%TD*%
D27*
%TO.P,C44,1*%
%TO.N,Earth_Protective*%
X160797240Y-124838250D03*
%TO.P,C44,2*%
%TO.N,Net-(J5-Pin_1)*%
X160797240Y-117338250D03*
%TD*%
D28*
%TO.P,D3,1,SDA*%
%TO.N,SDA_MCU*%
X150215240Y-58650750D03*
%TO.P,D3,2,SCL*%
%TO.N,SCL_MCU*%
X149565240Y-58650750D03*
%TO.P,D3,3,~{OS}/INT*%
%TO.N,~{OS}_MCU*%
X148915240Y-58650750D03*
%TO.P,D3,4,GND*%
%TO.N,GND*%
X148265240Y-58650750D03*
%TO.P,D3,5,A2*%
X148265240Y-62875750D03*
%TO.P,D3,6,A1*%
%TO.N,+3.3V*%
X148915240Y-62875750D03*
%TO.P,D3,7,A0*%
%TO.N,GND*%
X149565240Y-62875750D03*
%TO.P,D3,8,VDD*%
%TO.N,+3.3V*%
X150215240Y-62875750D03*
%TD*%
D29*
%TO.P,C29,1*%
%TO.N,Shunt_1*%
X141747240Y-104920750D03*
%TO.P,C29,2*%
%TO.N,GND*%
X141747240Y-108045750D03*
%TD*%
D17*
%TO.P,C48,1*%
%TO.N,+3.3V*%
X121707740Y-75368250D03*
%TO.P,C48,2*%
%TO.N,GND*%
X123432740Y-75368250D03*
%TD*%
D18*
%TO.P,J5,1,Pin_1*%
%TO.N,Net-(J5-Pin_1)*%
X154447240Y-119483250D03*
%TD*%
D10*
%TO.P,C5,1*%
%TO.N,Shunt_1*%
X137937240Y-113418250D03*
%TO.P,C5,2*%
%TO.N,GND*%
X137937240Y-110293250D03*
%TD*%
D30*
%TO.P,R1,1*%
%TO.N,Shunt_1*%
X134887240Y-92513250D03*
%TO.P,R1,2*%
%TO.N,Shunt_2*%
X140987240Y-92513250D03*
%TD*%
D19*
%TO.P,Q5,1,G*%
%TO.N,G4*%
X136912240Y-59488250D03*
%TO.P,Q5,2,S*%
%TO.N,GND*%
X138112240Y-59488250D03*
X139312240Y-59488250D03*
X140512240Y-59488250D03*
X141712240Y-59488250D03*
X142912240Y-59488250D03*
X144112240Y-59488250D03*
X145312240Y-59488250D03*
D20*
%TO.P,Q5,3,D*%
%TO.N,B*%
X141112240Y-48638250D03*
D21*
X141112240Y-50788250D03*
D22*
X141112240Y-54013250D03*
%TD*%
D31*
%TO.P,C51,1*%
%TO.N,GND*%
X147662500Y-53340000D03*
%TO.P,C51,2*%
%TO.N,Shunt_2*%
X150787500Y-53340000D03*
%TD*%
D13*
%TO.P,Q4,1,G*%
%TO.N,G2*%
X165877240Y-64183250D03*
%TO.P,Q4,2,S*%
%TO.N,GND*%
X165877240Y-65383250D03*
X165877240Y-66583250D03*
X165877240Y-67783250D03*
X165877240Y-68983250D03*
X165877240Y-70183250D03*
X165877240Y-71383250D03*
X165877240Y-72583250D03*
D14*
%TO.P,Q4,3,D*%
%TO.N,A*%
X176727240Y-68383250D03*
D15*
X174577240Y-68383250D03*
D16*
X171352240Y-68383250D03*
%TD*%
D32*
%TO.P,D1,1,K*%
%TO.N,Net-(D1-K)*%
X164607240Y-102798250D03*
%TO.P,D1,2,A*%
%TO.N,GND*%
X164607240Y-99498250D03*
%TD*%
D33*
%TO.P,C50,2*%
%TO.N,GND*%
X147662500Y-55880000D03*
%TO.P,C50,1*%
%TO.N,Shunt_2*%
X150787500Y-55880000D03*
%TD*%
D29*
%TO.P,C10,1*%
%TO.N,Shunt_1*%
X145557240Y-104920750D03*
%TO.P,C10,2*%
%TO.N,GND*%
X145557240Y-108045750D03*
%TD*%
D27*
%TO.P,C45,1*%
%TO.N,Shunt_1*%
X137937240Y-117338250D03*
%TO.P,C45,2*%
%TO.N,Earth_Protective*%
X137937240Y-124838250D03*
%TD*%
D26*
%TO.P,C52,1*%
%TO.N,GND*%
X137160000Y-71462500D03*
%TO.P,C52,2*%
%TO.N,Shunt_2*%
X137160000Y-74587500D03*
%TD*%
D29*
%TO.P,C17,1*%
%TO.N,Shunt_1*%
X137937240Y-104920750D03*
%TO.P,C17,2*%
%TO.N,GND*%
X137937240Y-108045750D03*
%TD*%
D17*
%TO.P,C46,1*%
%TO.N,+3.3V*%
X175301740Y-75368250D03*
%TO.P,C46,2*%
%TO.N,GND*%
X177026740Y-75368250D03*
%TD*%
D34*
%TO.P,R2,1*%
%TO.N,Net-(D1-K)*%
X164607240Y-104848250D03*
%TO.P,R2,2*%
%TO.N,Shunt_1*%
X164607240Y-106848250D03*
%TD*%
D19*
%TO.P,Q2,1,G*%
%TO.N,G3*%
X153168240Y-59507250D03*
%TO.P,Q2,2,S*%
%TO.N,B*%
X154368240Y-59507250D03*
X155568240Y-59507250D03*
X156768240Y-59507250D03*
X157968240Y-59507250D03*
X159168240Y-59507250D03*
X160368240Y-59507250D03*
X161568240Y-59507250D03*
D20*
%TO.P,Q2,3,D*%
%TO.N,Shunt_2*%
X157368240Y-48657250D03*
D21*
X157368240Y-50807250D03*
D22*
X157368240Y-54032250D03*
%TD*%
D13*
%TO.P,Q1,1,G*%
%TO.N,G1*%
X161437240Y-77518250D03*
%TO.P,Q1,2,S*%
%TO.N,A*%
X161437240Y-78718250D03*
X161437240Y-79918250D03*
X161437240Y-81118250D03*
X161437240Y-82318250D03*
X161437240Y-83518250D03*
X161437240Y-84718250D03*
X161437240Y-85918250D03*
D14*
%TO.P,Q1,3,D*%
%TO.N,Shunt_2*%
X172287240Y-81718250D03*
D15*
X170137240Y-81718250D03*
D16*
X166912240Y-81718250D03*
%TD*%
D10*
%TO.P,C11,1*%
%TO.N,Shunt_1*%
X141874240Y-102330750D03*
%TO.P,C11,2*%
%TO.N,GND*%
X141874240Y-99205750D03*
%TD*%
D35*
%TO.P,C49,1*%
%TO.N,Shunt_2*%
X160020000Y-74587500D03*
%TO.P,C49,2*%
%TO.N,GND*%
X160020000Y-71462500D03*
%TD*%
D23*
%TO.P,D4,1,SDA*%
%TO.N,SDA_MCU*%
X121595240Y-81544750D03*
%TO.P,D4,2,SCL*%
%TO.N,SCL_MCU*%
X122245240Y-81544750D03*
%TO.P,D4,3,~{OS}/INT*%
%TO.N,~{OS}_MCU*%
X122895240Y-81544750D03*
%TO.P,D4,4,GND*%
%TO.N,GND*%
X123545240Y-81544750D03*
%TO.P,D4,5,A2*%
X123545240Y-77319750D03*
%TO.P,D4,6,A1*%
%TO.N,+3.3V*%
X122895240Y-77319750D03*
%TO.P,D4,7,A0*%
X122245240Y-77319750D03*
%TO.P,D4,8,VDD*%
X121595240Y-77319750D03*
%TD*%
D36*
%TO.N,Shunt_2*%
X143510000Y-78105000D03*
X143510000Y-79375000D03*
X144145000Y-77470000D03*
X144145000Y-78740000D03*
X144145000Y-80010000D03*
X154940000Y-80010000D03*
%TO.N,G1*%
X158892240Y-77273250D03*
%TO.N,A*%
X176672240Y-69653250D03*
X158892240Y-79813250D03*
X170322240Y-65843250D03*
X173497240Y-67113250D03*
X158892240Y-81083250D03*
X173497240Y-70923250D03*
X158892240Y-82353250D03*
X173497240Y-65843250D03*
X170322240Y-70923250D03*
X173497240Y-69653250D03*
X170322240Y-68383250D03*
X173497240Y-68383250D03*
X170322240Y-72193250D03*
X176672240Y-64573250D03*
X170322240Y-64573250D03*
X176672240Y-68383250D03*
X176672240Y-67113250D03*
X158892240Y-78543250D03*
X158892240Y-86163250D03*
X176672240Y-70923250D03*
X158892240Y-84893250D03*
X176672240Y-72193250D03*
X176672240Y-65843250D03*
X158892240Y-83623250D03*
X170322240Y-69653250D03*
X170322240Y-67113250D03*
%TO.N,G2*%
X162702240Y-63938250D03*
%TO.N,GND*%
X144922240Y-62033250D03*
X162702240Y-95688250D03*
X163830000Y-72828250D03*
X162702240Y-65208250D03*
X163972240Y-93148250D03*
X176926240Y-82988250D03*
X135397240Y-66478250D03*
X162702240Y-70288250D03*
X159527240Y-91878250D03*
X135397240Y-65208250D03*
X164607240Y-94418250D03*
X160797240Y-91878250D03*
X164607240Y-91878250D03*
X124348240Y-75368250D03*
X163337240Y-94418250D03*
X146192240Y-62033250D03*
X124094240Y-81464250D03*
X147970240Y-57287750D03*
X164607240Y-98228250D03*
X139842240Y-109023250D03*
X165242240Y-93148250D03*
X158257240Y-91878250D03*
X163337240Y-96958250D03*
X135397240Y-69018250D03*
X177942240Y-75114250D03*
X162702240Y-69018250D03*
X139842240Y-99205750D03*
X135397240Y-67748250D03*
X135397240Y-70288250D03*
X142382240Y-62033250D03*
X143703040Y-99193450D03*
X135397240Y-63938250D03*
X141112240Y-62033250D03*
X163972240Y-110293250D03*
X143652240Y-109023250D03*
X162067240Y-91878250D03*
X162702240Y-66478250D03*
X143652240Y-62033250D03*
X163337240Y-98228250D03*
X164607240Y-96958250D03*
X135397240Y-71558250D03*
X138572240Y-62033250D03*
X163337240Y-91878250D03*
X163830000Y-71558250D03*
X163972240Y-95688250D03*
X162702240Y-67748250D03*
X139842240Y-62033250D03*
%TO.N,G3*%
X152415240Y-62668250D03*
%TO.N,B*%
X138572240Y-51873250D03*
X143652240Y-55048250D03*
X142382240Y-51873250D03*
X141112240Y-48698250D03*
X139842240Y-48698250D03*
X137302240Y-55048250D03*
X137302240Y-48698250D03*
X139842240Y-51873250D03*
X143652240Y-48698250D03*
X157622240Y-62668250D03*
X139842240Y-55048250D03*
X153812240Y-62668250D03*
X155082240Y-62668250D03*
X143652240Y-51873250D03*
X142382240Y-48698250D03*
X161432240Y-62668250D03*
X138572240Y-55048250D03*
X141112240Y-55048250D03*
X142382240Y-55048250D03*
X158892240Y-62668250D03*
X138572240Y-48698250D03*
X141112240Y-51873250D03*
X144922240Y-55048250D03*
X160162240Y-62668250D03*
X144922240Y-48698250D03*
X156352240Y-62668250D03*
%TO.N,G4*%
X137302240Y-62033250D03*
%TO.N,G5*%
X139842240Y-86163250D03*
%TO.N,C*%
X139842240Y-82353250D03*
X128412240Y-69653250D03*
X139842240Y-84893250D03*
X128412240Y-68383250D03*
X128412240Y-67113250D03*
X125237240Y-69653250D03*
X125237240Y-67113250D03*
X122062240Y-68383250D03*
X122062240Y-67113250D03*
X139842240Y-79813250D03*
X122062240Y-70923250D03*
X128412240Y-64573250D03*
X122062240Y-64573250D03*
X122062240Y-65843250D03*
X128412240Y-65843250D03*
X128412240Y-70923250D03*
X125237240Y-68383250D03*
X139842240Y-77273250D03*
X125237240Y-70923250D03*
X122062240Y-72193250D03*
X128412240Y-72193250D03*
X125237240Y-65843250D03*
X139842240Y-78543250D03*
X139842240Y-81083250D03*
X139842240Y-83623250D03*
X122062240Y-69653250D03*
%TO.N,G6*%
X135397240Y-72828250D03*
%TO.N,Shunt_1*%
X134762240Y-97593250D03*
X143652240Y-105213250D03*
X136032240Y-105213250D03*
X165877240Y-106483250D03*
X143652240Y-103943250D03*
X134762240Y-95053250D03*
X147462240Y-97593250D03*
X139842240Y-105213250D03*
X134762240Y-96323250D03*
X147462240Y-103943250D03*
X144287240Y-86442750D03*
X158750000Y-93726000D03*
X134762240Y-98863250D03*
X147462240Y-105213250D03*
X136398000Y-90678000D03*
X147320000Y-93726000D03*
X154940000Y-93726000D03*
X139842240Y-103943250D03*
X143510000Y-93726000D03*
X151130000Y-93726000D03*
X133350000Y-90805000D03*
%TO.N,Shunt_2*%
X153812240Y-69018250D03*
X157368240Y-51873250D03*
X126507240Y-85528250D03*
X154432000Y-70358000D03*
X151384000Y-91948000D03*
X169052240Y-81718250D03*
X153558240Y-55048250D03*
X126507240Y-79178250D03*
X172227240Y-77908250D03*
X159908240Y-51873250D03*
X158638240Y-55048250D03*
X165877240Y-77908250D03*
X157368240Y-48698250D03*
X129682240Y-81718250D03*
X169052240Y-84258250D03*
X154447240Y-67748250D03*
X155082240Y-66478250D03*
X126507240Y-77908250D03*
X172227240Y-79178250D03*
X132857240Y-77908250D03*
X143652240Y-65208250D03*
X129682240Y-79178250D03*
X165877240Y-84258250D03*
X172227240Y-84258250D03*
X126507240Y-82988250D03*
X156098240Y-55048250D03*
X151384000Y-90170000D03*
X132857240Y-85528250D03*
X150114000Y-90170000D03*
X169052240Y-82988250D03*
X154828240Y-51873250D03*
X132857240Y-81718250D03*
X159908240Y-55048250D03*
X129682240Y-84258250D03*
X154828240Y-48698250D03*
X156098240Y-51873250D03*
X159908240Y-48698250D03*
X172227240Y-82988250D03*
X165877240Y-79178250D03*
X153558240Y-48698250D03*
X126507240Y-84258250D03*
X155082240Y-69018250D03*
X129682240Y-82988250D03*
X132857240Y-82988250D03*
X152146000Y-91186000D03*
X165877240Y-81718250D03*
X161178240Y-55048250D03*
X158638240Y-51873250D03*
X143652240Y-70923250D03*
X155717240Y-67748250D03*
X153812240Y-66478250D03*
X144287240Y-66478250D03*
X165877240Y-85528250D03*
X149606000Y-91186000D03*
X154828240Y-55048250D03*
X155717240Y-65208250D03*
X144922240Y-65208250D03*
X126507240Y-81718250D03*
X154447240Y-65208250D03*
X161178240Y-48698250D03*
X172227240Y-85528250D03*
X165877240Y-80448250D03*
X150876000Y-91186000D03*
X132857240Y-79178250D03*
X158638240Y-48698250D03*
X132857240Y-84258250D03*
X129682240Y-80448250D03*
X150114000Y-91948000D03*
X169052240Y-80448250D03*
X139446000Y-90678000D03*
X165877240Y-82988250D03*
X169052240Y-79178250D03*
X156098240Y-48698250D03*
X126507240Y-80448250D03*
X145557240Y-66478250D03*
X144922240Y-72193250D03*
X172227240Y-80448250D03*
X148844000Y-91948000D03*
X172227240Y-81718250D03*
X132857240Y-80448250D03*
X157368240Y-55048250D03*
%TO.N,+3.3V*%
X120792240Y-75368250D03*
X150764240Y-61605750D03*
X174384056Y-75115342D03*
X148224240Y-66050750D03*
%TO.N,SDA_MCU*%
X153921356Y-75694733D03*
X121300240Y-79940250D03*
X142025166Y-74658101D03*
X175148240Y-79940250D03*
X150764240Y-60081750D03*
%TO.N,SCL_MCU*%
X176159941Y-79935951D03*
X149748240Y-60081750D03*
X154616364Y-74976424D03*
X141978295Y-75673650D03*
X122316240Y-79940250D03*
%TO.N,~{OS}_MCU*%
X148732240Y-60081750D03*
X141994489Y-76934952D03*
X177180240Y-79940250D03*
X123332240Y-79940250D03*
X155448000Y-74422000D03*
%TD*%
D37*
%TO.N,Shunt_2*%
X152726490Y-55880000D02*
X153558240Y-55048250D01*
X150787500Y-55880000D02*
X152726490Y-55880000D01*
X150787500Y-55880000D02*
X150787500Y-53340000D01*
%TO.N,GND*%
X145312240Y-58230260D02*
X147662500Y-55880000D01*
X145312240Y-59488250D02*
X145312240Y-58230260D01*
X147662500Y-53340000D02*
X147662500Y-55880000D01*
%TO.N,Shunt_2*%
X136177990Y-74587500D02*
X132857240Y-77908250D01*
X137160000Y-74587500D02*
X136177990Y-74587500D01*
X139700000Y-74587500D02*
X137160000Y-74587500D01*
%TO.N,GND*%
X135492990Y-71462500D02*
X135397240Y-71558250D01*
X137160000Y-71462500D02*
X135492990Y-71462500D01*
X139700000Y-71462500D02*
X137160000Y-71462500D01*
X160020000Y-71462500D02*
X162560000Y-71462500D01*
%TO.N,Shunt_2*%
X162560000Y-74591010D02*
X165877240Y-77908250D01*
X162560000Y-74587500D02*
X162560000Y-74591010D01*
X160020000Y-74587500D02*
X162560000Y-74587500D01*
D38*
%TO.N,G1*%
X161437240Y-77518250D02*
X159137240Y-77518250D01*
X159137240Y-77518250D02*
X158892240Y-77273250D01*
%TO.N,G2*%
X162947240Y-64183250D02*
X162702240Y-63938250D01*
X165877240Y-64183250D02*
X162947240Y-64183250D01*
D39*
%TO.N,GND*%
X177688240Y-75368250D02*
X177942240Y-75114250D01*
X149565240Y-61827000D02*
X149343990Y-61605750D01*
X146192240Y-62033250D02*
X146192240Y-62668250D01*
X146573240Y-63049250D02*
X148091740Y-63049250D01*
X148091740Y-63049250D02*
X148265240Y-62875750D01*
D37*
X145557240Y-99205750D02*
X143690740Y-99205750D01*
D39*
X124013740Y-81544750D02*
X124094240Y-81464250D01*
X146192240Y-62668250D02*
X146573240Y-63049250D01*
X176530240Y-77319750D02*
X177180240Y-77319750D01*
D37*
X137937240Y-99205750D02*
X141874240Y-99205750D01*
D39*
X148265240Y-57582750D02*
X147970240Y-57287750D01*
X177180240Y-77319750D02*
X177180240Y-75521750D01*
X177180240Y-75521750D02*
X177026740Y-75368250D01*
X123432740Y-75368250D02*
X124348240Y-75368250D01*
D37*
X137937240Y-99205750D02*
X139842240Y-99205750D01*
D39*
X177180240Y-81544750D02*
X177180240Y-82734250D01*
X148478240Y-61605750D02*
X148224240Y-61859750D01*
X123545240Y-77319750D02*
X123545240Y-75480750D01*
X149565240Y-62875750D02*
X149565240Y-61827000D01*
X149565240Y-64370250D02*
X150102740Y-64907750D01*
X177026740Y-75368250D02*
X177688240Y-75368250D01*
X149565240Y-62875750D02*
X149565240Y-64370250D01*
X123545240Y-81544750D02*
X124013740Y-81544750D01*
X148224240Y-61859750D02*
X148224240Y-62834750D01*
X149343990Y-61605750D02*
X148478240Y-61605750D01*
X148265240Y-58650750D02*
X148265240Y-57582750D01*
X148224240Y-62834750D02*
X148265240Y-62875750D01*
D37*
X143613740Y-99205750D02*
X141874240Y-99205750D01*
D39*
X123545240Y-75480750D02*
X123432740Y-75368250D01*
X177180240Y-82734250D02*
X176926240Y-82988250D01*
D38*
%TO.N,G3*%
X153168240Y-59507250D02*
X153168240Y-61915250D01*
X153168240Y-61915250D02*
X152415240Y-62668250D01*
%TO.N,G4*%
X136912240Y-59488250D02*
X136912240Y-61643250D01*
X136912240Y-61643250D02*
X137302240Y-62033250D01*
%TO.N,G5*%
X139597240Y-85918250D02*
X139842240Y-86163250D01*
X137297240Y-85918250D02*
X139597240Y-85918250D01*
%TO.N,G6*%
X132852240Y-72583250D02*
X135152240Y-72583250D01*
X135152240Y-72583250D02*
X135397240Y-72828250D01*
D39*
%TO.N,Shunt_1*%
X136398000Y-92202000D02*
X136086750Y-92513250D01*
D38*
X165512240Y-106848250D02*
X164607240Y-106848250D01*
D39*
X136398000Y-90678000D02*
X136398000Y-92202000D01*
D38*
X165877240Y-106483250D02*
X165512240Y-106848250D01*
D39*
X136086750Y-92513250D02*
X134887240Y-92513250D01*
%TO.N,Shunt_2*%
X139757250Y-92513250D02*
X139446000Y-92202000D01*
X140987240Y-92513250D02*
X139757250Y-92513250D01*
X139446000Y-92202000D02*
X139446000Y-90678000D01*
%TO.N,+3.3V*%
X121707740Y-75368250D02*
X120792240Y-75368250D01*
X122895240Y-77319750D02*
X122245240Y-77319750D01*
X148224240Y-66050750D02*
X148377740Y-65897250D01*
X174636964Y-75368250D02*
X174384056Y-75115342D01*
X150215240Y-62154750D02*
X150215240Y-62875750D01*
X175301740Y-75368250D02*
X174636964Y-75368250D01*
X175230240Y-77319750D02*
X175230240Y-75439750D01*
X148915240Y-64370250D02*
X148377740Y-64907750D01*
X148377740Y-65897250D02*
X148377740Y-64907750D01*
X175230240Y-75439750D02*
X175301740Y-75368250D01*
X121595240Y-75480750D02*
X121707740Y-75368250D01*
X175880240Y-77319750D02*
X175230240Y-77319750D01*
X148915240Y-62875750D02*
X148915240Y-64370250D01*
X122245240Y-77319750D02*
X121595240Y-77319750D01*
X121595240Y-77319750D02*
X121595240Y-75480750D01*
X150764240Y-61605750D02*
X150215240Y-62154750D01*
%TO.N,SDA_MCU*%
X175148240Y-79940250D02*
X175148240Y-81462750D01*
X175148240Y-81462750D02*
X175230240Y-81544750D01*
X150215240Y-58650750D02*
X150764240Y-59199750D01*
X150764240Y-59199750D02*
X150764240Y-60081750D01*
X121595240Y-81544750D02*
X121595240Y-80235250D01*
X121595240Y-80235250D02*
X121300240Y-79940250D01*
D38*
%TO.N,Net-(D1-K)*%
X164607240Y-104848250D02*
X164607240Y-102798250D01*
X161187240Y-101408250D02*
X163217240Y-101408250D01*
X163217240Y-101408250D02*
X164607240Y-102798250D01*
D39*
%TO.N,SCL_MCU*%
X122245240Y-80011250D02*
X122316240Y-79940250D01*
X149565240Y-58650750D02*
X149565240Y-59898750D01*
X149565240Y-59898750D02*
X149748240Y-60081750D01*
X175880240Y-80215652D02*
X176159941Y-79935951D01*
X175880240Y-81544750D02*
X175880240Y-80215652D01*
X122245240Y-81544750D02*
X122245240Y-80011250D01*
%TO.N,~{OS}_MCU*%
X177180240Y-79940250D02*
X176530240Y-80590250D01*
X148915240Y-58650750D02*
X148915240Y-59898750D01*
X122895240Y-81544750D02*
X122895240Y-80377250D01*
X148915240Y-59898750D02*
X148732240Y-60081750D01*
X176530240Y-80590250D02*
X176530240Y-81544750D01*
X122895240Y-80377250D02*
X123332240Y-79940250D01*
%TD*%
%TA.AperFunction,Conductor*%
%TO.N,GND*%
G36*
X136605240Y-63319863D02*
G01*
X136650627Y-63365250D01*
X136667240Y-63427250D01*
X136667240Y-72069250D01*
X136650627Y-72131250D01*
X136605240Y-72176637D01*
X136543240Y-72193250D01*
X136092434Y-72193250D01*
X136041998Y-72182530D01*
X136014170Y-72162311D01*
X136013655Y-72163022D01*
X135849972Y-72044099D01*
X135734685Y-71992770D01*
X135677043Y-71967106D01*
X135634106Y-71957979D01*
X135561684Y-71942585D01*
X135535061Y-71933677D01*
X135480945Y-71908442D01*
X135477701Y-71906871D01*
X135409549Y-71872645D01*
X135391143Y-71866247D01*
X135316451Y-71850824D01*
X135312932Y-71850044D01*
X135238730Y-71832458D01*
X135219361Y-71830479D01*
X135143109Y-71832698D01*
X135139503Y-71832750D01*
X134714560Y-71832750D01*
X134659055Y-71819634D01*
X134615293Y-71783061D01*
X134609786Y-71775704D01*
X134494571Y-71689454D01*
X134359723Y-71639159D01*
X134300113Y-71632750D01*
X134300109Y-71632750D01*
X134300075Y-71632750D01*
X131711239Y-71632750D01*
X131649240Y-71616138D01*
X131603853Y-71570751D01*
X131587240Y-71508751D01*
X131587240Y-63427250D01*
X131603853Y-63365250D01*
X131649240Y-63319863D01*
X131711240Y-63303250D01*
X136543240Y-63303250D01*
X136605240Y-63319863D01*
G37*
%TD.AperFunction*%
%TD*%
%TA.AperFunction,Conductor*%
%TO.N,GND*%
G36*
X146765240Y-58239863D02*
G01*
X146810627Y-58285250D01*
X146827240Y-58347250D01*
X146827240Y-63179250D01*
X146810627Y-63241250D01*
X146765240Y-63286637D01*
X146703240Y-63303250D01*
X138061240Y-63303250D01*
X137999240Y-63286637D01*
X137953853Y-63241250D01*
X137937240Y-63179250D01*
X137937240Y-62721386D01*
X137945476Y-62676948D01*
X137969091Y-62638413D01*
X138034773Y-62565466D01*
X138129419Y-62401534D01*
X138183371Y-62235487D01*
X138187914Y-62221506D01*
X138207700Y-62033250D01*
X138187914Y-61844994D01*
X138152164Y-61734968D01*
X138129419Y-61664965D01*
X138034773Y-61501033D01*
X137969091Y-61428087D01*
X137945476Y-61389552D01*
X137937240Y-61345114D01*
X137937240Y-58347250D01*
X137953853Y-58285250D01*
X137999240Y-58239863D01*
X138061240Y-58223250D01*
X146703240Y-58223250D01*
X146765240Y-58239863D01*
G37*
%TD.AperFunction*%
%TD*%
%TA.AperFunction,Conductor*%
%TO.N,Shunt_2*%
G36*
X147522982Y-63951765D02*
G01*
X147567005Y-63989365D01*
X147589160Y-64042852D01*
X147584618Y-64100568D01*
X147554368Y-64149931D01*
X147494901Y-64209397D01*
X147404331Y-64356234D01*
X147350065Y-64519996D01*
X147339740Y-64621073D01*
X147339740Y-65194426D01*
X147350065Y-65295502D01*
X147404332Y-65459267D01*
X147428280Y-65498093D01*
X147446728Y-65561385D01*
X147430129Y-65625187D01*
X147397061Y-65682464D01*
X147338566Y-65862492D01*
X147318780Y-66050749D01*
X147338566Y-66239007D01*
X147397060Y-66419034D01*
X147491706Y-66582966D01*
X147618369Y-66723639D01*
X147771509Y-66834901D01*
X147944437Y-66911894D01*
X148129592Y-66951250D01*
X148129594Y-66951250D01*
X148318886Y-66951250D01*
X148318888Y-66951250D01*
X148483676Y-66916223D01*
X148504043Y-66911894D01*
X148676970Y-66834901D01*
X148830111Y-66723638D01*
X148956773Y-66582966D01*
X149051419Y-66419034D01*
X149109914Y-66239006D01*
X149129700Y-66050750D01*
X149109914Y-65862494D01*
X149107466Y-65854962D01*
X149104823Y-65787698D01*
X149137716Y-65728963D01*
X149138587Y-65728091D01*
X149138590Y-65728090D01*
X149152560Y-65714119D01*
X149208145Y-65682027D01*
X149272333Y-65682027D01*
X149327920Y-65714121D01*
X149341887Y-65728088D01*
X149341889Y-65728089D01*
X149341890Y-65728090D01*
X149354716Y-65736001D01*
X149488724Y-65818658D01*
X149652486Y-65872924D01*
X149661854Y-65873881D01*
X149753563Y-65883250D01*
X150451916Y-65883249D01*
X150552993Y-65872924D01*
X150716756Y-65818658D01*
X150863590Y-65728090D01*
X150985580Y-65606100D01*
X151076148Y-65459266D01*
X151130414Y-65295503D01*
X151140740Y-65194427D01*
X151140739Y-64621074D01*
X151130414Y-64519997D01*
X151076148Y-64356234D01*
X150985580Y-64209400D01*
X150985579Y-64209399D01*
X150985578Y-64209397D01*
X150926112Y-64149931D01*
X150895862Y-64100568D01*
X150891320Y-64042852D01*
X150913475Y-63989365D01*
X150957498Y-63951765D01*
X151013793Y-63938250D01*
X156228240Y-63938250D01*
X156290240Y-63954863D01*
X156335627Y-64000250D01*
X156352240Y-64062250D01*
X156352240Y-73757453D01*
X156338129Y-73814902D01*
X156299009Y-73859275D01*
X156243781Y-73880475D01*
X156185017Y-73873676D01*
X156136090Y-73840425D01*
X156053870Y-73749110D01*
X155900730Y-73637848D01*
X155727802Y-73560855D01*
X155542648Y-73521500D01*
X155542646Y-73521500D01*
X155353354Y-73521500D01*
X155353352Y-73521500D01*
X155168197Y-73560855D01*
X154995269Y-73637848D01*
X154842129Y-73749110D01*
X154715466Y-73889783D01*
X154643795Y-74013924D01*
X154598408Y-74059311D01*
X154536408Y-74075924D01*
X154521716Y-74075924D01*
X154336561Y-74115279D01*
X154163633Y-74192272D01*
X154010493Y-74303534D01*
X153883830Y-74444207D01*
X153789185Y-74608138D01*
X153743572Y-74748520D01*
X153708614Y-74802350D01*
X153651424Y-74831490D01*
X153641552Y-74833589D01*
X153641553Y-74833589D01*
X153468623Y-74910582D01*
X153315485Y-75021843D01*
X153188822Y-75162516D01*
X153094176Y-75326448D01*
X153035682Y-75506475D01*
X153015896Y-75694732D01*
X153035682Y-75882990D01*
X153094176Y-76063017D01*
X153188822Y-76226949D01*
X153315485Y-76367622D01*
X153468625Y-76478884D01*
X153641553Y-76555877D01*
X153826708Y-76595233D01*
X153826710Y-76595233D01*
X154016002Y-76595233D01*
X154016004Y-76595233D01*
X154150391Y-76566668D01*
X154201159Y-76555877D01*
X154374086Y-76478884D01*
X154387244Y-76469324D01*
X154527226Y-76367622D01*
X154653889Y-76226949D01*
X154748535Y-76063017D01*
X154794147Y-75922638D01*
X154829107Y-75868805D01*
X154886299Y-75839665D01*
X154896167Y-75837568D01*
X155069094Y-75760575D01*
X155159718Y-75694733D01*
X155222234Y-75649313D01*
X155348897Y-75508640D01*
X155420569Y-75384500D01*
X155465956Y-75339113D01*
X155527956Y-75322500D01*
X155542648Y-75322500D01*
X155666084Y-75296262D01*
X155727803Y-75283144D01*
X155900730Y-75206151D01*
X156007176Y-75128814D01*
X156053870Y-75094889D01*
X156136090Y-75003575D01*
X156185017Y-74970324D01*
X156243781Y-74963525D01*
X156299009Y-74984725D01*
X156338129Y-75029098D01*
X156352240Y-75086547D01*
X156352240Y-96199250D01*
X156335627Y-96261250D01*
X156290240Y-96306637D01*
X156228240Y-96323250D01*
X138696240Y-96323250D01*
X138634240Y-96306637D01*
X138588853Y-96261250D01*
X138572240Y-96199250D01*
X138572240Y-94612000D01*
X138588853Y-94550000D01*
X138634240Y-94504613D01*
X138696240Y-94488000D01*
X140462000Y-94488000D01*
X140462000Y-93726000D01*
X142604540Y-93726000D01*
X142624326Y-93914257D01*
X142682820Y-94094284D01*
X142777466Y-94258216D01*
X142904129Y-94398889D01*
X143057269Y-94510151D01*
X143230197Y-94587144D01*
X143415352Y-94626500D01*
X143415354Y-94626500D01*
X143604646Y-94626500D01*
X143604648Y-94626500D01*
X143728084Y-94600262D01*
X143789803Y-94587144D01*
X143962730Y-94510151D01*
X144072116Y-94430678D01*
X144115870Y-94398889D01*
X144242533Y-94258216D01*
X144337179Y-94094284D01*
X144337178Y-94094284D01*
X144395674Y-93914256D01*
X144415460Y-93726000D01*
X146414540Y-93726000D01*
X146434326Y-93914257D01*
X146492820Y-94094284D01*
X146587466Y-94258216D01*
X146714129Y-94398889D01*
X146867269Y-94510151D01*
X147040197Y-94587144D01*
X147225352Y-94626500D01*
X147225354Y-94626500D01*
X147414646Y-94626500D01*
X147414648Y-94626500D01*
X147538084Y-94600262D01*
X147599803Y-94587144D01*
X147772730Y-94510151D01*
X147882116Y-94430678D01*
X147925870Y-94398889D01*
X148052533Y-94258216D01*
X148147179Y-94094284D01*
X148147178Y-94094284D01*
X148205674Y-93914256D01*
X148225460Y-93726000D01*
X150224540Y-93726000D01*
X150244326Y-93914257D01*
X150302820Y-94094284D01*
X150397466Y-94258216D01*
X150524129Y-94398889D01*
X150677269Y-94510151D01*
X150850197Y-94587144D01*
X151035352Y-94626500D01*
X151035354Y-94626500D01*
X151224646Y-94626500D01*
X151224648Y-94626500D01*
X151348084Y-94600262D01*
X151409803Y-94587144D01*
X151582730Y-94510151D01*
X151692116Y-94430678D01*
X151735870Y-94398889D01*
X151862533Y-94258216D01*
X151957179Y-94094284D01*
X151957178Y-94094284D01*
X152015674Y-93914256D01*
X152035460Y-93726000D01*
X154034540Y-93726000D01*
X154054326Y-93914257D01*
X154112820Y-94094284D01*
X154207466Y-94258216D01*
X154334129Y-94398889D01*
X154487269Y-94510151D01*
X154660197Y-94587144D01*
X154845352Y-94626500D01*
X154845354Y-94626500D01*
X155034646Y-94626500D01*
X155034648Y-94626500D01*
X155158084Y-94600262D01*
X155219803Y-94587144D01*
X155392730Y-94510151D01*
X155502116Y-94430678D01*
X155545870Y-94398889D01*
X155672533Y-94258216D01*
X155767179Y-94094284D01*
X155767178Y-94094284D01*
X155825674Y-93914256D01*
X155845460Y-93726000D01*
X155825674Y-93537744D01*
X155767179Y-93357716D01*
X155767179Y-93357715D01*
X155672533Y-93193783D01*
X155545870Y-93053110D01*
X155392730Y-92941848D01*
X155219802Y-92864855D01*
X155034648Y-92825500D01*
X155034646Y-92825500D01*
X154845354Y-92825500D01*
X154845352Y-92825500D01*
X154660197Y-92864855D01*
X154487269Y-92941848D01*
X154334129Y-93053110D01*
X154207466Y-93193783D01*
X154112820Y-93357715D01*
X154054326Y-93537742D01*
X154034540Y-93726000D01*
X152035460Y-93726000D01*
X152015674Y-93537744D01*
X151957179Y-93357716D01*
X151957179Y-93357715D01*
X151862533Y-93193783D01*
X151735870Y-93053110D01*
X151582730Y-92941848D01*
X151409802Y-92864855D01*
X151224648Y-92825500D01*
X151224646Y-92825500D01*
X151035354Y-92825500D01*
X151035352Y-92825500D01*
X150850197Y-92864855D01*
X150677269Y-92941848D01*
X150524129Y-93053110D01*
X150397466Y-93193783D01*
X150302820Y-93357715D01*
X150244326Y-93537742D01*
X150224540Y-93726000D01*
X148225460Y-93726000D01*
X148205674Y-93537744D01*
X148147179Y-93357716D01*
X148147179Y-93357715D01*
X148052533Y-93193783D01*
X147925870Y-93053110D01*
X147772730Y-92941848D01*
X147599802Y-92864855D01*
X147414648Y-92825500D01*
X147414646Y-92825500D01*
X147225354Y-92825500D01*
X147225352Y-92825500D01*
X147040197Y-92864855D01*
X146867269Y-92941848D01*
X146714129Y-93053110D01*
X146587466Y-93193783D01*
X146492820Y-93357715D01*
X146434326Y-93537742D01*
X146414540Y-93726000D01*
X144415460Y-93726000D01*
X144395674Y-93537744D01*
X144337179Y-93357716D01*
X144337179Y-93357715D01*
X144242533Y-93193783D01*
X144115870Y-93053110D01*
X143962730Y-92941848D01*
X143789802Y-92864855D01*
X143604648Y-92825500D01*
X143604646Y-92825500D01*
X143415354Y-92825500D01*
X143415352Y-92825500D01*
X143230197Y-92864855D01*
X143057269Y-92941848D01*
X142904129Y-93053110D01*
X142777466Y-93193783D01*
X142682820Y-93357715D01*
X142624326Y-93537742D01*
X142604540Y-93726000D01*
X140462000Y-93726000D01*
X140462000Y-90097250D01*
X140478613Y-90035250D01*
X140524000Y-89989863D01*
X140586000Y-89973250D01*
X142382240Y-89973250D01*
X142382240Y-86442750D01*
X143381780Y-86442750D01*
X143401566Y-86631007D01*
X143460060Y-86811034D01*
X143554706Y-86974966D01*
X143681369Y-87115639D01*
X143834509Y-87226901D01*
X144007437Y-87303894D01*
X144192592Y-87343250D01*
X144192594Y-87343250D01*
X144381886Y-87343250D01*
X144381888Y-87343250D01*
X144525910Y-87312637D01*
X144567043Y-87303894D01*
X144739970Y-87226901D01*
X144893111Y-87115638D01*
X145019773Y-86974966D01*
X145114419Y-86811034D01*
X145154964Y-86686249D01*
X147186704Y-86686249D01*
X147206804Y-86903175D01*
X147266421Y-87112707D01*
X147363527Y-87307721D01*
X147494813Y-87481573D01*
X147618813Y-87594613D01*
X147655808Y-87628338D01*
X147694534Y-87652316D01*
X147841031Y-87743023D01*
X148025231Y-87814382D01*
X148044171Y-87821720D01*
X148258314Y-87861750D01*
X148476164Y-87861750D01*
X148476166Y-87861750D01*
X148690309Y-87821720D01*
X148825736Y-87769254D01*
X148893448Y-87743023D01*
X148893450Y-87743022D01*
X149078672Y-87628338D01*
X149239667Y-87481572D01*
X149268285Y-87443674D01*
X149311968Y-87407400D01*
X149367240Y-87394400D01*
X149422512Y-87407400D01*
X149466195Y-87443675D01*
X149494812Y-87481572D01*
X149618812Y-87594613D01*
X149654540Y-87652316D01*
X149654540Y-87720184D01*
X149618812Y-87777887D01*
X149494813Y-87890926D01*
X149363527Y-88064778D01*
X149266421Y-88259792D01*
X149206804Y-88469324D01*
X149186704Y-88686250D01*
X149206804Y-88903175D01*
X149266421Y-89112707D01*
X149363527Y-89307721D01*
X149494813Y-89481573D01*
X149572164Y-89552087D01*
X149655808Y-89628338D01*
X149700912Y-89656265D01*
X149841031Y-89743023D01*
X150025231Y-89814382D01*
X150044171Y-89821720D01*
X150258314Y-89861750D01*
X150476164Y-89861750D01*
X150476166Y-89861750D01*
X150690309Y-89821720D01*
X150825736Y-89769254D01*
X150893448Y-89743023D01*
X150893450Y-89743022D01*
X151078672Y-89628338D01*
X151226592Y-89493490D01*
X151239666Y-89481573D01*
X151250105Y-89467750D01*
X151370952Y-89307722D01*
X151468057Y-89112709D01*
X151468058Y-89112707D01*
X151527675Y-88903175D01*
X151530817Y-88869258D01*
X151547776Y-88686250D01*
X151527675Y-88469327D01*
X151527675Y-88469324D01*
X151468058Y-88259792D01*
X151370952Y-88064778D01*
X151239666Y-87890926D01*
X151115667Y-87777887D01*
X151079939Y-87720184D01*
X151079939Y-87652316D01*
X151115667Y-87594613D01*
X151239666Y-87481573D01*
X151268285Y-87443675D01*
X151370952Y-87307722D01*
X151468057Y-87112709D01*
X151493185Y-87024394D01*
X151527675Y-86903175D01*
X151536213Y-86811034D01*
X151547776Y-86686250D01*
X151527675Y-86469327D01*
X151527675Y-86469324D01*
X151468058Y-86259792D01*
X151370952Y-86064778D01*
X151239666Y-85890926D01*
X151115667Y-85777886D01*
X151079938Y-85720183D01*
X151079939Y-85652314D01*
X151115664Y-85594614D01*
X151239667Y-85481572D01*
X151370952Y-85307722D01*
X151468057Y-85112709D01*
X151476935Y-85081506D01*
X151527675Y-84903175D01*
X151530589Y-84871717D01*
X151547776Y-84686250D01*
X151527675Y-84469327D01*
X151527675Y-84469324D01*
X151468058Y-84259792D01*
X151370952Y-84064778D01*
X151239666Y-83890926D01*
X151115667Y-83777887D01*
X151079939Y-83720184D01*
X151079939Y-83652316D01*
X151115667Y-83594613D01*
X151239666Y-83481573D01*
X151274841Y-83434994D01*
X151370952Y-83307722D01*
X151468057Y-83112709D01*
X151468058Y-83112707D01*
X151527675Y-82903175D01*
X151530589Y-82871717D01*
X151547776Y-82686250D01*
X151527675Y-82469327D01*
X151527675Y-82469324D01*
X151468058Y-82259792D01*
X151370952Y-82064778D01*
X151239666Y-81890926D01*
X151115667Y-81777887D01*
X151079939Y-81720184D01*
X151079939Y-81652316D01*
X151115667Y-81594613D01*
X151239666Y-81481573D01*
X151239667Y-81481572D01*
X151370952Y-81307722D01*
X151468057Y-81112709D01*
X151476439Y-81083250D01*
X151527675Y-80903175D01*
X151530589Y-80871717D01*
X151547776Y-80686250D01*
X151527675Y-80469327D01*
X151527675Y-80469324D01*
X151468058Y-80259792D01*
X151370952Y-80064778D01*
X151239666Y-79890926D01*
X151115667Y-79777887D01*
X151079939Y-79720184D01*
X151079939Y-79652316D01*
X151115667Y-79594613D01*
X151239666Y-79481573D01*
X151285879Y-79420377D01*
X151370952Y-79307722D01*
X151468057Y-79112709D01*
X151478654Y-79075466D01*
X151527675Y-78903175D01*
X151543582Y-78731506D01*
X151547776Y-78686250D01*
X151527675Y-78469327D01*
X151527675Y-78469324D01*
X151468058Y-78259792D01*
X151370952Y-78064778D01*
X151239666Y-77890926D01*
X151115667Y-77777886D01*
X151079938Y-77720183D01*
X151079939Y-77652314D01*
X151115664Y-77594614D01*
X151239667Y-77481572D01*
X151370952Y-77307722D01*
X151468057Y-77112709D01*
X151494328Y-77020377D01*
X151527675Y-76903175D01*
X151530589Y-76871717D01*
X151547776Y-76686250D01*
X151527675Y-76469327D01*
X151527675Y-76469324D01*
X151468058Y-76259792D01*
X151370952Y-76064778D01*
X151239666Y-75890926D01*
X151115667Y-75777887D01*
X151079939Y-75720184D01*
X151079939Y-75652316D01*
X151115667Y-75594613D01*
X151239666Y-75481573D01*
X151268285Y-75443675D01*
X151370952Y-75307722D01*
X151468057Y-75112709D01*
X151468058Y-75112707D01*
X151527675Y-74903175D01*
X151534317Y-74831491D01*
X151547776Y-74686250D01*
X151527675Y-74469327D01*
X151527675Y-74469324D01*
X151468058Y-74259792D01*
X151370952Y-74064778D01*
X151239666Y-73890926D01*
X151115667Y-73777887D01*
X151079939Y-73720184D01*
X151079939Y-73652316D01*
X151115667Y-73594613D01*
X151239666Y-73481573D01*
X151268285Y-73443675D01*
X151370952Y-73307722D01*
X151468057Y-73112709D01*
X151483027Y-73060096D01*
X151527675Y-72903175D01*
X151532581Y-72850232D01*
X151547776Y-72686250D01*
X151527675Y-72469327D01*
X151527675Y-72469324D01*
X151468058Y-72259792D01*
X151370952Y-72064778D01*
X151289492Y-71956907D01*
X151265365Y-71897246D01*
X151274390Y-71833527D01*
X151314134Y-71782914D01*
X151399786Y-71718796D01*
X151486036Y-71603581D01*
X151536331Y-71468733D01*
X151542740Y-71409123D01*
X151542739Y-69963378D01*
X151536331Y-69903767D01*
X151486036Y-69768919D01*
X151399786Y-69653704D01*
X151284571Y-69567454D01*
X151149723Y-69517159D01*
X151090113Y-69510750D01*
X151090109Y-69510750D01*
X149644370Y-69510750D01*
X149584755Y-69517159D01*
X149449909Y-69567454D01*
X149334691Y-69653705D01*
X149272454Y-69736844D01*
X149218304Y-69778034D01*
X149150572Y-69784453D01*
X149089650Y-69754170D01*
X149078672Y-69744162D01*
X149078669Y-69744160D01*
X149078668Y-69744159D01*
X148893448Y-69629476D01*
X148690313Y-69550781D01*
X148690310Y-69550780D01*
X148690309Y-69550780D01*
X148476166Y-69510750D01*
X148258314Y-69510750D01*
X148044171Y-69550780D01*
X148044166Y-69550781D01*
X147841031Y-69629476D01*
X147655807Y-69744162D01*
X147494813Y-69890926D01*
X147363527Y-70064778D01*
X147266421Y-70259792D01*
X147206804Y-70469324D01*
X147186704Y-70686249D01*
X147206804Y-70903175D01*
X147266421Y-71112707D01*
X147363527Y-71307721D01*
X147494813Y-71481573D01*
X147618812Y-71594613D01*
X147654540Y-71652316D01*
X147654540Y-71720184D01*
X147618812Y-71777887D01*
X147494813Y-71890926D01*
X147363527Y-72064778D01*
X147266421Y-72259792D01*
X147206804Y-72469324D01*
X147186704Y-72686249D01*
X147206804Y-72903175D01*
X147266421Y-73112707D01*
X147363527Y-73307721D01*
X147494813Y-73481573D01*
X147618812Y-73594613D01*
X147654540Y-73652316D01*
X147654540Y-73720184D01*
X147618812Y-73777887D01*
X147494813Y-73890926D01*
X147363527Y-74064778D01*
X147266421Y-74259792D01*
X147206804Y-74469324D01*
X147186704Y-74686249D01*
X147206804Y-74903175D01*
X147266421Y-75112707D01*
X147363527Y-75307721D01*
X147494813Y-75481573D01*
X147618812Y-75594613D01*
X147654540Y-75652316D01*
X147654540Y-75720184D01*
X147618812Y-75777887D01*
X147494813Y-75890926D01*
X147363527Y-76064778D01*
X147266421Y-76259792D01*
X147206804Y-76469324D01*
X147186704Y-76686249D01*
X147206804Y-76903175D01*
X147266421Y-77112707D01*
X147363527Y-77307721D01*
X147494813Y-77481573D01*
X147618812Y-77594612D01*
X147654540Y-77652314D01*
X147654541Y-77720183D01*
X147618813Y-77777886D01*
X147494811Y-77890929D01*
X147363527Y-78064778D01*
X147266421Y-78259792D01*
X147206804Y-78469324D01*
X147186704Y-78686249D01*
X147206804Y-78903175D01*
X147266421Y-79112707D01*
X147363527Y-79307721D01*
X147494813Y-79481573D01*
X147618812Y-79594612D01*
X147654540Y-79652314D01*
X147654541Y-79720183D01*
X147618813Y-79777886D01*
X147494811Y-79890929D01*
X147363527Y-80064778D01*
X147266421Y-80259792D01*
X147206804Y-80469324D01*
X147186704Y-80686249D01*
X147206804Y-80903175D01*
X147266421Y-81112707D01*
X147363527Y-81307721D01*
X147494813Y-81481573D01*
X147618812Y-81594612D01*
X147654540Y-81652314D01*
X147654541Y-81720183D01*
X147618813Y-81777886D01*
X147494811Y-81890929D01*
X147363527Y-82064778D01*
X147266421Y-82259792D01*
X147206804Y-82469324D01*
X147186704Y-82686249D01*
X147206804Y-82903175D01*
X147266421Y-83112707D01*
X147363527Y-83307721D01*
X147494813Y-83481573D01*
X147618812Y-83594613D01*
X147654540Y-83652316D01*
X147654540Y-83720184D01*
X147618812Y-83777887D01*
X147494813Y-83890926D01*
X147363527Y-84064778D01*
X147266421Y-84259792D01*
X147206804Y-84469324D01*
X147186704Y-84686249D01*
X147206804Y-84903175D01*
X147266421Y-85112707D01*
X147363527Y-85307721D01*
X147494813Y-85481573D01*
X147618812Y-85594612D01*
X147654540Y-85652314D01*
X147654541Y-85720183D01*
X147618813Y-85777886D01*
X147494811Y-85890929D01*
X147363527Y-86064778D01*
X147266421Y-86259792D01*
X147206804Y-86469324D01*
X147186704Y-86686249D01*
X145154964Y-86686249D01*
X145172914Y-86631006D01*
X145192700Y-86442750D01*
X145172914Y-86254494D01*
X145114419Y-86074466D01*
X145114419Y-86074465D01*
X145019773Y-85910533D01*
X144893110Y-85769860D01*
X144739970Y-85658598D01*
X144567042Y-85581605D01*
X144381888Y-85542250D01*
X144381886Y-85542250D01*
X144192594Y-85542250D01*
X144192592Y-85542250D01*
X144007437Y-85581605D01*
X143834509Y-85658598D01*
X143681369Y-85769860D01*
X143554706Y-85910533D01*
X143460060Y-86074465D01*
X143401566Y-86254492D01*
X143381780Y-86442750D01*
X142382240Y-86442750D01*
X142382240Y-77828560D01*
X142391268Y-77782113D01*
X142417036Y-77742428D01*
X142437595Y-77728029D01*
X142436676Y-77726763D01*
X142492437Y-77686250D01*
X142600360Y-77607840D01*
X142727022Y-77467168D01*
X142821668Y-77303236D01*
X142880163Y-77123208D01*
X142899949Y-76934952D01*
X142880163Y-76746696D01*
X142832616Y-76600362D01*
X142821668Y-76566667D01*
X142727024Y-76402738D01*
X142721002Y-76396051D01*
X142705001Y-76378279D01*
X142676835Y-76325305D01*
X142676836Y-76265307D01*
X142705005Y-76212333D01*
X142710828Y-76205866D01*
X142805474Y-76041934D01*
X142863969Y-75861906D01*
X142883755Y-75673650D01*
X142863969Y-75485394D01*
X142805474Y-75305366D01*
X142784171Y-75268468D01*
X142767557Y-75206467D01*
X142784170Y-75144467D01*
X142785922Y-75141434D01*
X142852345Y-75026385D01*
X142910840Y-74846357D01*
X142930626Y-74658101D01*
X142910840Y-74469845D01*
X142852345Y-74289817D01*
X142852345Y-74289816D01*
X142757699Y-74125884D01*
X142631036Y-73985211D01*
X142477896Y-73873950D01*
X142455803Y-73864113D01*
X142417041Y-73836971D01*
X142391269Y-73797285D01*
X142382240Y-73750834D01*
X142382240Y-64062250D01*
X142398853Y-64000250D01*
X142444240Y-63954863D01*
X142506240Y-63938250D01*
X147466687Y-63938250D01*
X147522982Y-63951765D01*
G37*
%TD.AperFunction*%
%TD*%
%TA.AperFunction,Conductor*%
%TO.N,Shunt_1*%
G36*
X135320000Y-89989863D02*
G01*
X135365387Y-90035250D01*
X135382000Y-90097250D01*
X135382000Y-94488000D01*
X137813240Y-94488000D01*
X137875240Y-94504613D01*
X137920627Y-94550000D01*
X137937240Y-94612000D01*
X137937240Y-96958250D01*
X148608240Y-96958250D01*
X148670240Y-96974863D01*
X148715627Y-97020250D01*
X148732240Y-97082250D01*
X148732240Y-119186250D01*
X148715627Y-119248250D01*
X148670240Y-119293637D01*
X148608240Y-119310250D01*
X134242624Y-119310250D01*
X134176514Y-119291157D01*
X134130763Y-119239757D01*
X134119459Y-119171880D01*
X134146085Y-119108428D01*
X134152933Y-119099933D01*
X134173645Y-119074240D01*
X134466989Y-118650105D01*
X134728446Y-118205603D01*
X134956610Y-117743128D01*
X135150251Y-117265170D01*
X135308329Y-116774300D01*
X135429992Y-116273161D01*
X135429991Y-116273161D01*
X135429994Y-116273153D01*
X135514584Y-115764451D01*
X135561651Y-115250916D01*
X135561652Y-115250909D01*
X135570941Y-114735297D01*
X135542401Y-114220392D01*
X135476187Y-113708966D01*
X135372653Y-113203770D01*
X135274746Y-112857455D01*
X135232361Y-112707531D01*
X135185464Y-112578619D01*
X135056058Y-112222902D01*
X134844701Y-111752509D01*
X134777761Y-111628707D01*
X134599429Y-111298888D01*
X134599428Y-111298886D01*
X134599424Y-111298879D01*
X134321547Y-110864452D01*
X134240207Y-110755758D01*
X136086740Y-110755758D01*
X136097240Y-110858546D01*
X136152426Y-111025084D01*
X136244528Y-111174407D01*
X136368582Y-111298461D01*
X136425135Y-111333342D01*
X136517906Y-111390564D01*
X136629256Y-111427462D01*
X136684442Y-111445749D01*
X136694942Y-111446821D01*
X136787231Y-111456250D01*
X139087248Y-111456249D01*
X139190037Y-111445749D01*
X139207255Y-111440043D01*
X139246257Y-111433750D01*
X140438223Y-111433750D01*
X140477224Y-111440043D01*
X140494443Y-111445749D01*
X140597231Y-111456250D01*
X142897248Y-111456249D01*
X143000037Y-111445749D01*
X143017255Y-111440043D01*
X143056257Y-111433750D01*
X144248223Y-111433750D01*
X144287224Y-111440043D01*
X144304443Y-111445749D01*
X144407231Y-111456250D01*
X146707248Y-111456249D01*
X146810037Y-111445749D01*
X146976574Y-111390564D01*
X147125896Y-111298462D01*
X147249952Y-111174406D01*
X147342054Y-111025084D01*
X147397239Y-110858547D01*
X147407740Y-110755759D01*
X147407739Y-109830742D01*
X147397239Y-109727953D01*
X147342054Y-109561416D01*
X147339034Y-109552302D01*
X147332740Y-109513298D01*
X147332740Y-108825702D01*
X147339034Y-108786698D01*
X147397239Y-108611047D01*
X147397239Y-108611046D01*
X147407740Y-108508259D01*
X147407739Y-107583242D01*
X147397239Y-107480453D01*
X147342054Y-107313916D01*
X147339034Y-107304802D01*
X147332740Y-107265798D01*
X147332740Y-107242249D01*
X147315515Y-107111419D01*
X147315515Y-107111416D01*
X147298902Y-107049416D01*
X147248403Y-106927500D01*
X147168069Y-106822807D01*
X147122682Y-106777420D01*
X147017989Y-106697086D01*
X146896078Y-106646589D01*
X146834070Y-106629974D01*
X146703241Y-106612750D01*
X146703240Y-106612750D01*
X136791240Y-106612750D01*
X136791239Y-106612750D01*
X136660409Y-106629974D01*
X136598401Y-106646589D01*
X136476490Y-106697086D01*
X136371797Y-106777420D01*
X136326410Y-106822807D01*
X136246076Y-106927500D01*
X136195579Y-107049411D01*
X136178964Y-107111419D01*
X136161740Y-107242249D01*
X136161740Y-107265798D01*
X136155446Y-107304802D01*
X136097240Y-107480452D01*
X136086740Y-107583240D01*
X136086740Y-108508258D01*
X136097240Y-108611046D01*
X136155446Y-108786698D01*
X136161740Y-108825702D01*
X136161740Y-109513298D01*
X136155446Y-109552302D01*
X136097240Y-109727952D01*
X136086740Y-109830740D01*
X136086740Y-110755758D01*
X134240207Y-110755758D01*
X134012568Y-110451568D01*
X133674148Y-110062449D01*
X133308110Y-109699190D01*
X133308103Y-109699183D01*
X132916423Y-109363744D01*
X132644492Y-109163462D01*
X132501196Y-109057921D01*
X132079485Y-108792684D01*
X132064664Y-108783362D01*
X131656215Y-108566522D01*
X131608091Y-108520898D01*
X131590359Y-108456999D01*
X131590359Y-99668258D01*
X136086740Y-99668258D01*
X136097240Y-99771046D01*
X136152426Y-99937584D01*
X136244528Y-100086907D01*
X136368582Y-100210961D01*
X136368584Y-100210962D01*
X136517906Y-100303064D01*
X136629256Y-100339962D01*
X136684442Y-100358249D01*
X136694943Y-100359321D01*
X136787231Y-100368750D01*
X139087248Y-100368749D01*
X139190037Y-100358249D01*
X139356574Y-100303064D01*
X139441285Y-100250813D01*
X139483606Y-100224711D01*
X139548702Y-100206250D01*
X139892982Y-100206250D01*
X140262778Y-100206250D01*
X140327874Y-100224711D01*
X140399762Y-100269051D01*
X140454906Y-100303064D01*
X140566256Y-100339962D01*
X140621442Y-100358249D01*
X140631943Y-100359321D01*
X140724231Y-100368750D01*
X143024248Y-100368749D01*
X143127037Y-100358249D01*
X143293574Y-100303064D01*
X143378285Y-100250813D01*
X143420606Y-100224711D01*
X143485702Y-100206250D01*
X143588999Y-100206250D01*
X143664482Y-100206250D01*
X143945778Y-100206250D01*
X144010874Y-100224711D01*
X144082762Y-100269051D01*
X144137906Y-100303064D01*
X144249256Y-100339962D01*
X144304442Y-100358249D01*
X144314943Y-100359321D01*
X144407231Y-100368750D01*
X146707248Y-100368749D01*
X146810037Y-100358249D01*
X146976574Y-100303064D01*
X147125896Y-100210962D01*
X147249952Y-100086906D01*
X147342054Y-99937584D01*
X147397239Y-99771047D01*
X147407740Y-99668259D01*
X147407739Y-98743242D01*
X147397239Y-98640453D01*
X147342054Y-98473916D01*
X147249952Y-98324594D01*
X147249951Y-98324592D01*
X147125897Y-98200538D01*
X146976574Y-98108436D01*
X146810037Y-98053250D01*
X146707249Y-98042750D01*
X144407231Y-98042750D01*
X144304443Y-98053250D01*
X144137905Y-98108436D01*
X144010874Y-98186789D01*
X143945778Y-98205250D01*
X143715481Y-98205250D01*
X143485702Y-98205250D01*
X143420606Y-98186789D01*
X143293574Y-98108436D01*
X143127037Y-98053250D01*
X143024249Y-98042750D01*
X140724231Y-98042750D01*
X140621443Y-98053250D01*
X140454905Y-98108436D01*
X140327874Y-98186789D01*
X140262778Y-98205250D01*
X139943981Y-98205250D01*
X139548702Y-98205250D01*
X139483606Y-98186789D01*
X139356574Y-98108436D01*
X139190037Y-98053250D01*
X139087249Y-98042750D01*
X136787231Y-98042750D01*
X136684443Y-98053250D01*
X136517905Y-98108436D01*
X136368582Y-98200538D01*
X136244528Y-98324592D01*
X136152426Y-98473915D01*
X136097240Y-98640452D01*
X136086740Y-98743240D01*
X136086740Y-99668258D01*
X131590359Y-99668258D01*
X131590359Y-99391054D01*
X131590370Y-99357736D01*
X131590443Y-99140074D01*
X131559126Y-98705877D01*
X131496458Y-98275087D01*
X131447568Y-98053250D01*
X131402767Y-97849961D01*
X131278547Y-97432746D01*
X131145885Y-97082250D01*
X131124445Y-97025603D01*
X130941275Y-96630690D01*
X130729995Y-96250074D01*
X130491716Y-95885752D01*
X130491715Y-95885751D01*
X130491712Y-95885746D01*
X130227688Y-95539637D01*
X129939293Y-95213541D01*
X129628052Y-94909184D01*
X129582243Y-94870452D01*
X129580308Y-94868607D01*
X129575692Y-94864712D01*
X129575690Y-94864710D01*
X129460780Y-94767754D01*
X129459292Y-94766476D01*
X128649522Y-94058766D01*
X128646323Y-94055871D01*
X127862449Y-93321151D01*
X127859353Y-93318146D01*
X127276211Y-92732151D01*
X127101514Y-92556599D01*
X127098556Y-92553522D01*
X126367664Y-91766064D01*
X126364789Y-91762856D01*
X125661750Y-90950460D01*
X125658984Y-90947149D01*
X125036476Y-90175082D01*
X125009844Y-90111629D01*
X125021143Y-90043748D01*
X125066894Y-89992345D01*
X125133007Y-89973250D01*
X135258000Y-89973250D01*
X135320000Y-89989863D01*
G37*
%TD.AperFunction*%
%TD*%
%TA.AperFunction,Conductor*%
%TO.N,GND*%
G36*
X146765240Y-107134863D02*
G01*
X146810627Y-107180250D01*
X146827240Y-107242250D01*
X146827240Y-110804250D01*
X146810627Y-110866250D01*
X146765240Y-110911637D01*
X146703240Y-110928250D01*
X136791240Y-110928250D01*
X136729240Y-110911637D01*
X136683853Y-110866250D01*
X136667240Y-110804250D01*
X136667240Y-107242250D01*
X136683853Y-107180250D01*
X136729240Y-107134863D01*
X136791240Y-107118250D01*
X146703240Y-107118250D01*
X146765240Y-107134863D01*
G37*
%TD.AperFunction*%
%TD*%
%TA.AperFunction,Conductor*%
%TO.N,GND*%
G36*
X162057482Y-64583970D02*
G01*
X162085309Y-64604188D01*
X162085825Y-64603478D01*
X162249509Y-64722401D01*
X162422433Y-64799393D01*
X162422436Y-64799393D01*
X162422437Y-64799394D01*
X162537803Y-64823915D01*
X162564411Y-64832818D01*
X162618568Y-64858072D01*
X162621749Y-64859612D01*
X162688807Y-64893290D01*
X162688808Y-64893290D01*
X162689941Y-64893859D01*
X162708324Y-64900248D01*
X162709561Y-64900503D01*
X162709567Y-64900506D01*
X162783102Y-64915689D01*
X162786449Y-64916431D01*
X162859519Y-64933750D01*
X162859521Y-64933750D01*
X162860745Y-64934040D01*
X162880116Y-64936019D01*
X162881380Y-64935982D01*
X162881384Y-64935983D01*
X162956350Y-64933802D01*
X162959956Y-64933750D01*
X164014920Y-64933750D01*
X164070425Y-64946866D01*
X164114186Y-64983438D01*
X164119694Y-64990796D01*
X164234909Y-65077046D01*
X164369757Y-65127341D01*
X164429367Y-65133750D01*
X167325112Y-65133749D01*
X167384723Y-65127341D01*
X167519571Y-65077046D01*
X167583930Y-65028866D01*
X167647187Y-65004628D01*
X167713744Y-65017250D01*
X167763735Y-65062967D01*
X167782240Y-65128134D01*
X167782240Y-73339250D01*
X167765627Y-73401250D01*
X167720240Y-73446637D01*
X167658240Y-73463250D01*
X164043011Y-73463250D01*
X164001237Y-73456002D01*
X163964346Y-73435103D01*
X163796449Y-73297314D01*
X163613956Y-73199769D01*
X163613955Y-73199768D01*
X163613954Y-73199768D01*
X163514944Y-73169734D01*
X163415932Y-73139699D01*
X163278467Y-73126160D01*
X163261608Y-73124500D01*
X161858392Y-73124500D01*
X161843193Y-73125996D01*
X161704067Y-73139699D01*
X161592235Y-73173623D01*
X161535040Y-73177136D01*
X161482373Y-73154560D01*
X161445480Y-73110714D01*
X161432240Y-73054962D01*
X161432240Y-64697250D01*
X161448853Y-64635250D01*
X161494240Y-64589863D01*
X161556240Y-64573250D01*
X162007046Y-64573250D01*
X162057482Y-64583970D01*
G37*
%TD.AperFunction*%
%TD*%
%TA.AperFunction,Conductor*%
%TO.N,Net-(J5-Pin_1)*%
G36*
X163344740Y-104594863D02*
G01*
X163390127Y-104640250D01*
X163406740Y-104702250D01*
X163406740Y-105248258D01*
X163417240Y-105351046D01*
X163472426Y-105517584D01*
X163564528Y-105666907D01*
X163658190Y-105760569D01*
X163690284Y-105816156D01*
X163690284Y-105880344D01*
X163658190Y-105935931D01*
X163564528Y-106029592D01*
X163472426Y-106178915D01*
X163417240Y-106345452D01*
X163406740Y-106448240D01*
X163406740Y-107248258D01*
X163417240Y-107351046D01*
X163472426Y-107517584D01*
X163564528Y-107666907D01*
X163688582Y-107790961D01*
X163745135Y-107825843D01*
X163837906Y-107883064D01*
X163949257Y-107919962D01*
X164004442Y-107938249D01*
X164014943Y-107939321D01*
X164107231Y-107948750D01*
X165107248Y-107948749D01*
X165210037Y-107938249D01*
X165376574Y-107883064D01*
X165525896Y-107790962D01*
X165649952Y-107666906D01*
X165683095Y-107613170D01*
X165710313Y-107582135D01*
X165746212Y-107561755D01*
X165757064Y-107557805D01*
X165760325Y-107556673D01*
X165831574Y-107533064D01*
X165831576Y-107533062D01*
X165832776Y-107532665D01*
X165850303Y-107524179D01*
X165851352Y-107523488D01*
X165851357Y-107523487D01*
X165914046Y-107482255D01*
X165917038Y-107480349D01*
X165980896Y-107440962D01*
X165980896Y-107440961D01*
X165981969Y-107440300D01*
X165997064Y-107428003D01*
X165997932Y-107427082D01*
X165997936Y-107427080D01*
X166029047Y-107394103D01*
X166058493Y-107371098D01*
X166093457Y-107357908D01*
X166157043Y-107344394D01*
X166157044Y-107344393D01*
X166157046Y-107344393D01*
X166329970Y-107267401D01*
X166483110Y-107156139D01*
X166609773Y-107015466D01*
X166704419Y-106851534D01*
X166704418Y-106851534D01*
X166762914Y-106671506D01*
X166782700Y-106483250D01*
X166762914Y-106294994D01*
X166725198Y-106178916D01*
X166704419Y-106114965D01*
X166609773Y-105951033D01*
X166483110Y-105810360D01*
X166329970Y-105699098D01*
X166157042Y-105622105D01*
X165971888Y-105582750D01*
X165971886Y-105582750D01*
X165892181Y-105582750D01*
X165835726Y-105569153D01*
X165791651Y-105531343D01*
X165769624Y-105477613D01*
X165774475Y-105419746D01*
X165797239Y-105351047D01*
X165797239Y-105351046D01*
X165807740Y-105248259D01*
X165807739Y-104702248D01*
X165824352Y-104640250D01*
X165869739Y-104594863D01*
X165931739Y-104578250D01*
X167302813Y-104578250D01*
X167364813Y-104594863D01*
X167410200Y-104640250D01*
X167426813Y-104702250D01*
X167426813Y-108415611D01*
X167408094Y-108481124D01*
X167357589Y-108526855D01*
X166993408Y-108706168D01*
X166984122Y-108710740D01*
X166535065Y-108974902D01*
X166106852Y-109271623D01*
X165701804Y-109599289D01*
X165322179Y-109956078D01*
X165077557Y-110222812D01*
X165030972Y-110254623D01*
X164975115Y-110262506D01*
X164921546Y-110244829D01*
X164881351Y-110205250D01*
X164862850Y-110151964D01*
X164857914Y-110104994D01*
X164799419Y-109924966D01*
X164799419Y-109924965D01*
X164704773Y-109761033D01*
X164578110Y-109620360D01*
X164424970Y-109509098D01*
X164252042Y-109432105D01*
X164066888Y-109392750D01*
X164066886Y-109392750D01*
X163877594Y-109392750D01*
X163877592Y-109392750D01*
X163692437Y-109432105D01*
X163519509Y-109509098D01*
X163366369Y-109620360D01*
X163239706Y-109761033D01*
X163145060Y-109924965D01*
X163086566Y-110104992D01*
X163066780Y-110293250D01*
X163086566Y-110481507D01*
X163145060Y-110661534D01*
X163239706Y-110825466D01*
X163366369Y-110966139D01*
X163519509Y-111077401D01*
X163692437Y-111154394D01*
X163877592Y-111193750D01*
X163877594Y-111193750D01*
X164066885Y-111193750D01*
X164066886Y-111193750D01*
X164116562Y-111183191D01*
X164173079Y-111184351D01*
X164223211Y-111210481D01*
X164256534Y-111256149D01*
X164266121Y-111311863D01*
X164249980Y-111366043D01*
X164097231Y-111633119D01*
X163872831Y-112103280D01*
X163683904Y-112588807D01*
X163531500Y-113087001D01*
X163416458Y-113595114D01*
X163386976Y-113792276D01*
X163339410Y-114110373D01*
X163327772Y-114266900D01*
X163300779Y-114629925D01*
X163300779Y-115150896D01*
X163339411Y-115670461D01*
X163416456Y-116185693D01*
X163453582Y-116349669D01*
X163531501Y-116693822D01*
X163683904Y-117192014D01*
X163848804Y-117615792D01*
X163872832Y-117677540D01*
X164097231Y-118147701D01*
X164097234Y-118147707D01*
X164355886Y-118599948D01*
X164647358Y-119031764D01*
X164708645Y-119109446D01*
X164734568Y-119172850D01*
X164722873Y-119240344D01*
X164677129Y-119291330D01*
X164611294Y-119310250D01*
X149491240Y-119310250D01*
X149429240Y-119293637D01*
X149383853Y-119248250D01*
X149367240Y-119186250D01*
X149367240Y-104702250D01*
X149383853Y-104640250D01*
X149429240Y-104594863D01*
X149491240Y-104578250D01*
X163282740Y-104578250D01*
X163344740Y-104594863D01*
G37*
%TD.AperFunction*%
%TD*%
%TA.AperFunction,Conductor*%
%TO.N,GND*%
G36*
X172782361Y-91262867D02*
G01*
X172828117Y-91315511D01*
X172838218Y-91384526D01*
X172809467Y-91448074D01*
X172608125Y-91682337D01*
X172605270Y-91685544D01*
X171880694Y-92471804D01*
X171877730Y-92474911D01*
X171126353Y-93235622D01*
X171123283Y-93238625D01*
X170345986Y-93972891D01*
X170342813Y-93975785D01*
X169540755Y-94682523D01*
X169539130Y-94683930D01*
X169374012Y-94824415D01*
X169065198Y-95128175D01*
X168779089Y-95453403D01*
X168517175Y-95798403D01*
X168280818Y-96161374D01*
X168071227Y-96540466D01*
X167889513Y-96933674D01*
X167736624Y-97338936D01*
X167613343Y-97754185D01*
X167520315Y-98177245D01*
X167458028Y-98605898D01*
X167426805Y-99037921D01*
X167426813Y-99254502D01*
X167426813Y-103819250D01*
X167410200Y-103881250D01*
X167364813Y-103926637D01*
X167302813Y-103943250D01*
X165614971Y-103943250D01*
X165567518Y-103933811D01*
X165527290Y-103906931D01*
X165525897Y-103905538D01*
X165416644Y-103838151D01*
X165373463Y-103793044D01*
X165357740Y-103732612D01*
X165357740Y-103713255D01*
X165373462Y-103652824D01*
X165416643Y-103607717D01*
X165435284Y-103596218D01*
X165555208Y-103476294D01*
X165644242Y-103331949D01*
X165651930Y-103308750D01*
X165697589Y-103170958D01*
X165707740Y-103071595D01*
X165707739Y-102524906D01*
X165697589Y-102425542D01*
X165644243Y-102264553D01*
X165644242Y-102264552D01*
X165644242Y-102264550D01*
X165555208Y-102120205D01*
X165435284Y-102000281D01*
X165290939Y-101911247D01*
X165129947Y-101857900D01*
X165030585Y-101847750D01*
X164769469Y-101847750D01*
X164722016Y-101838311D01*
X164681788Y-101811431D01*
X163792968Y-100922610D01*
X163781186Y-100908977D01*
X163766849Y-100889719D01*
X163728906Y-100857881D01*
X163720931Y-100850573D01*
X163717022Y-100846664D01*
X163717017Y-100846659D01*
X163692663Y-100827402D01*
X163689887Y-100825140D01*
X163631491Y-100776140D01*
X163615061Y-100765672D01*
X163545931Y-100733436D01*
X163542687Y-100731865D01*
X163474546Y-100697644D01*
X163456143Y-100691247D01*
X163381451Y-100675824D01*
X163377932Y-100675044D01*
X163303730Y-100657458D01*
X163284361Y-100655479D01*
X163208109Y-100657698D01*
X163204503Y-100657750D01*
X162261739Y-100657750D01*
X162199739Y-100641137D01*
X162154352Y-100595750D01*
X162137739Y-100533750D01*
X162137739Y-99960380D01*
X162137739Y-99960377D01*
X162131331Y-99900767D01*
X162081036Y-99765919D01*
X161994786Y-99650704D01*
X161879571Y-99564454D01*
X161744723Y-99514159D01*
X161685113Y-99507750D01*
X161685109Y-99507750D01*
X160689370Y-99507750D01*
X160629755Y-99514159D01*
X160494909Y-99564454D01*
X160379694Y-99650704D01*
X160293444Y-99765918D01*
X160243149Y-99900766D01*
X160236740Y-99960380D01*
X160236740Y-102856119D01*
X160243149Y-102915733D01*
X160293444Y-103050581D01*
X160379694Y-103165796D01*
X160494909Y-103252046D01*
X160629757Y-103302341D01*
X160689367Y-103308750D01*
X161685112Y-103308749D01*
X161744723Y-103302341D01*
X161879571Y-103252046D01*
X161994786Y-103165796D01*
X162081036Y-103050581D01*
X162131331Y-102915733D01*
X162137740Y-102856123D01*
X162137740Y-102282750D01*
X162154353Y-102220750D01*
X162199740Y-102175363D01*
X162261740Y-102158750D01*
X162855010Y-102158750D01*
X162902463Y-102168189D01*
X162942691Y-102195069D01*
X163470421Y-102722799D01*
X163497301Y-102763027D01*
X163506740Y-102810480D01*
X163506740Y-103071594D01*
X163516890Y-103170957D01*
X163570237Y-103331949D01*
X163659271Y-103476294D01*
X163779195Y-103596218D01*
X163797837Y-103607717D01*
X163841018Y-103652824D01*
X163856740Y-103713255D01*
X163856740Y-103732612D01*
X163841017Y-103793044D01*
X163797836Y-103838151D01*
X163688582Y-103905538D01*
X163687190Y-103906931D01*
X163646962Y-103933811D01*
X163599509Y-103943250D01*
X149491240Y-103943250D01*
X149429240Y-103926637D01*
X149383853Y-103881250D01*
X149367240Y-103819250D01*
X149367240Y-97082250D01*
X149383853Y-97020250D01*
X149429240Y-96974863D01*
X149491240Y-96958250D01*
X156987240Y-96958250D01*
X156987240Y-93726000D01*
X157844540Y-93726000D01*
X157864326Y-93914257D01*
X157922820Y-94094284D01*
X158017466Y-94258216D01*
X158144129Y-94398889D01*
X158297269Y-94510151D01*
X158470197Y-94587144D01*
X158655352Y-94626500D01*
X158655354Y-94626500D01*
X158844646Y-94626500D01*
X158844648Y-94626500D01*
X158968084Y-94600262D01*
X159029803Y-94587144D01*
X159202730Y-94510151D01*
X159312116Y-94430678D01*
X159355870Y-94398889D01*
X159482533Y-94258216D01*
X159577179Y-94094284D01*
X159615189Y-93977301D01*
X159635674Y-93914256D01*
X159655460Y-93726000D01*
X159635674Y-93537744D01*
X159577179Y-93357716D01*
X159577179Y-93357715D01*
X159482533Y-93193783D01*
X159355870Y-93053110D01*
X159202730Y-92941848D01*
X159029802Y-92864855D01*
X158844648Y-92825500D01*
X158844646Y-92825500D01*
X158655354Y-92825500D01*
X158655352Y-92825500D01*
X158470197Y-92864855D01*
X158297269Y-92941848D01*
X158144129Y-93053110D01*
X158017466Y-93193783D01*
X157922820Y-93357715D01*
X157864326Y-93537742D01*
X157844540Y-93726000D01*
X156987240Y-93726000D01*
X156987240Y-91367250D01*
X157003853Y-91305250D01*
X157049240Y-91259863D01*
X157111240Y-91243250D01*
X172715427Y-91243250D01*
X172782361Y-91262867D01*
G37*
%TD.AperFunction*%
%TD*%
%TA.AperFunction,Conductor*%
%TO.N,Earth_Protective*%
G36*
X138764240Y-122628863D02*
G01*
X138809627Y-122674250D01*
X138826240Y-122736250D01*
X138826240Y-125400407D01*
X138809631Y-125462400D01*
X138764255Y-125507786D01*
X138702266Y-125524407D01*
X131552283Y-125525890D01*
X131490272Y-125509286D01*
X131444874Y-125463897D01*
X131428257Y-125401890D01*
X131428257Y-122736250D01*
X131444870Y-122674250D01*
X131490257Y-122628863D01*
X131552257Y-122612250D01*
X138702240Y-122612250D01*
X138764240Y-122628863D01*
G37*
%TD.AperFunction*%
%TD*%
%TA.AperFunction,Conductor*%
%TO.N,B*%
G36*
X162633745Y-56281971D02*
G01*
X162683735Y-56327688D01*
X162702240Y-56392855D01*
X162702240Y-62917219D01*
X162689690Y-62971577D01*
X162654582Y-63014932D01*
X162604021Y-63038509D01*
X162422437Y-63077105D01*
X162249509Y-63154098D01*
X162085825Y-63273022D01*
X162085309Y-63272311D01*
X162057482Y-63292530D01*
X162007046Y-63303250D01*
X153303205Y-63303250D01*
X153241205Y-63286637D01*
X153195818Y-63241250D01*
X153179205Y-63179250D01*
X153195818Y-63117250D01*
X153242419Y-63036534D01*
X153243648Y-63032751D01*
X153297762Y-62866205D01*
X153328009Y-62816847D01*
X153653882Y-62490974D01*
X153667500Y-62479204D01*
X153686770Y-62464860D01*
X153718616Y-62426906D01*
X153725902Y-62418954D01*
X153729831Y-62415027D01*
X153749073Y-62390689D01*
X153751330Y-62387920D01*
X153769585Y-62366165D01*
X153799542Y-62330464D01*
X153799543Y-62330461D01*
X153800355Y-62329494D01*
X153810813Y-62313077D01*
X153811346Y-62311932D01*
X153811351Y-62311927D01*
X153843073Y-62243896D01*
X153844602Y-62240738D01*
X153878280Y-62173683D01*
X153878280Y-62173682D01*
X153878852Y-62172544D01*
X153885240Y-62154164D01*
X153885495Y-62152925D01*
X153885497Y-62152923D01*
X153900687Y-62079353D01*
X153901426Y-62076020D01*
X153918740Y-62002971D01*
X153918740Y-62002967D01*
X153919031Y-62001739D01*
X153921010Y-61982371D01*
X153920973Y-61981109D01*
X153920974Y-61981106D01*
X153918792Y-61906119D01*
X153918740Y-61902513D01*
X153918740Y-61369570D01*
X153931856Y-61314065D01*
X153968428Y-61270303D01*
X153975786Y-61264796D01*
X154062036Y-61149581D01*
X154112331Y-61014733D01*
X154118740Y-60955123D01*
X154118739Y-58059378D01*
X154112331Y-57999767D01*
X154062036Y-57864919D01*
X153975786Y-57749704D01*
X153860571Y-57663454D01*
X153725723Y-57613159D01*
X153666113Y-57606750D01*
X153666109Y-57606750D01*
X152670370Y-57606750D01*
X152610755Y-57613159D01*
X152475909Y-57663454D01*
X152360694Y-57749704D01*
X152274444Y-57864918D01*
X152224149Y-57999766D01*
X152217740Y-58059380D01*
X152217740Y-60955119D01*
X152224149Y-61014734D01*
X152234844Y-61043408D01*
X152274444Y-61149581D01*
X152360694Y-61264796D01*
X152368051Y-61270303D01*
X152404624Y-61314065D01*
X152417740Y-61369570D01*
X152417740Y-61553021D01*
X152408301Y-61600474D01*
X152381423Y-61640699D01*
X152289354Y-61732768D01*
X152262469Y-61759653D01*
X152233955Y-61780945D01*
X152200569Y-61793261D01*
X152135437Y-61807105D01*
X151962512Y-61884096D01*
X151823744Y-61984917D01*
X151766399Y-62007620D01*
X151705211Y-61999890D01*
X151655315Y-61963638D01*
X151629055Y-61907832D01*
X151632927Y-61846284D01*
X151649914Y-61794006D01*
X151669700Y-61605750D01*
X151649914Y-61417494D01*
X151610244Y-61295404D01*
X151591419Y-61237465D01*
X151496775Y-61073536D01*
X151468647Y-61042297D01*
X151370111Y-60932862D01*
X151370107Y-60932859D01*
X151364582Y-60926723D01*
X151336415Y-60873749D01*
X151336415Y-60813751D01*
X151364582Y-60760777D01*
X151370107Y-60754640D01*
X151370111Y-60754638D01*
X151496773Y-60613966D01*
X151591419Y-60450034D01*
X151649914Y-60270006D01*
X151669700Y-60081750D01*
X151649914Y-59893494D01*
X151591419Y-59713466D01*
X151591419Y-59713465D01*
X151496775Y-59549536D01*
X151466660Y-59516090D01*
X151421587Y-59466032D01*
X151397976Y-59427501D01*
X151389740Y-59383063D01*
X151389740Y-59282490D01*
X151392003Y-59261986D01*
X151389801Y-59191894D01*
X151389740Y-59188000D01*
X151389740Y-59160407D01*
X151389740Y-59160400D01*
X151389235Y-59156403D01*
X151388320Y-59144773D01*
X151386949Y-59101123D01*
X151381360Y-59081890D01*
X151377414Y-59062832D01*
X151374904Y-59042958D01*
X151358828Y-59002356D01*
X151355044Y-58991302D01*
X151342859Y-58949363D01*
X151342858Y-58949362D01*
X151342858Y-58949360D01*
X151332657Y-58932111D01*
X151324100Y-58914645D01*
X151316726Y-58896018D01*
X151291053Y-58860682D01*
X151284642Y-58850922D01*
X151262409Y-58813328D01*
X151248246Y-58799165D01*
X151235609Y-58784370D01*
X151223835Y-58768164D01*
X151223834Y-58768163D01*
X151190175Y-58740318D01*
X151181545Y-58732464D01*
X150952058Y-58502977D01*
X150925178Y-58462749D01*
X150915739Y-58415296D01*
X150915739Y-57898887D01*
X150900284Y-57781489D01*
X150900284Y-57781488D01*
X150839776Y-57635409D01*
X150764434Y-57537221D01*
X150743521Y-57509966D01*
X150734278Y-57502874D01*
X150696485Y-57454934D01*
X150686147Y-57394770D01*
X150705770Y-57336964D01*
X150750597Y-57295526D01*
X150809763Y-57280499D01*
X151250008Y-57280499D01*
X151250009Y-57280499D01*
X151301402Y-57275248D01*
X151352797Y-57269999D01*
X151519334Y-57214814D01*
X151668656Y-57122712D01*
X151792712Y-56998656D01*
X151829258Y-56939404D01*
X151874366Y-56896223D01*
X151934798Y-56880500D01*
X152712211Y-56880500D01*
X152715352Y-56880539D01*
X152802853Y-56882757D01*
X152860922Y-56872348D01*
X152870226Y-56871043D01*
X152928928Y-56865074D01*
X152957957Y-56855965D01*
X152973190Y-56852226D01*
X153003143Y-56846858D01*
X153057916Y-56824978D01*
X153066791Y-56821819D01*
X153084165Y-56816367D01*
X153123078Y-56804159D01*
X153149684Y-56789390D01*
X153163852Y-56782662D01*
X153192107Y-56771377D01*
X153241369Y-56738909D01*
X153249400Y-56734043D01*
X153300992Y-56705409D01*
X153324077Y-56685589D01*
X153336604Y-56676144D01*
X153362009Y-56659402D01*
X153403735Y-56617674D01*
X153410621Y-56611294D01*
X153447065Y-56580008D01*
X153455385Y-56572866D01*
X153474010Y-56548803D01*
X153484378Y-56537032D01*
X153602342Y-56419068D01*
X153642570Y-56392188D01*
X153690023Y-56382749D01*
X162266110Y-56382749D01*
X162266112Y-56382749D01*
X162325723Y-56376341D01*
X162460571Y-56326046D01*
X162473897Y-56316069D01*
X162503930Y-56293588D01*
X162567188Y-56269349D01*
X162633745Y-56281971D01*
G37*
%TD.AperFunction*%
%TA.AperFunction,Conductor*%
G36*
X150554759Y-40094508D02*
G01*
X150559131Y-40094665D01*
X151659825Y-40153663D01*
X151664144Y-40153972D01*
X152761999Y-40252217D01*
X152766377Y-40252687D01*
X153860043Y-40390056D01*
X153864325Y-40390671D01*
X154952392Y-40566989D01*
X154956722Y-40567770D01*
X156037776Y-40782805D01*
X156042043Y-40783733D01*
X157114734Y-41037216D01*
X157118970Y-41038297D01*
X157677846Y-41191617D01*
X157736955Y-41227968D01*
X157767280Y-41290384D01*
X157759321Y-41359319D01*
X157743545Y-41396784D01*
X157613986Y-41808629D01*
X157523559Y-42230808D01*
X157473064Y-42659587D01*
X157462944Y-43091221D01*
X157493283Y-43521888D01*
X157563824Y-43947844D01*
X157673934Y-44365303D01*
X157822658Y-44770628D01*
X158008683Y-45160247D01*
X158230374Y-45530732D01*
X158485782Y-45878826D01*
X158772663Y-46201474D01*
X159088503Y-46495846D01*
X159338545Y-46688487D01*
X159430514Y-46759343D01*
X159795699Y-46989658D01*
X159795701Y-46989659D01*
X160106562Y-47147134D01*
X160155098Y-47191111D01*
X160174459Y-47253681D01*
X160159244Y-47317386D01*
X160113697Y-47364452D01*
X160050526Y-47381750D01*
X152270370Y-47381750D01*
X152210755Y-47388159D01*
X152075909Y-47438454D01*
X151960694Y-47524704D01*
X151874444Y-47639918D01*
X151824149Y-47774766D01*
X151817740Y-47834380D01*
X151817740Y-49480119D01*
X151824149Y-49539733D01*
X151874444Y-49674581D01*
X151960694Y-49789796D01*
X152075909Y-49876046D01*
X152210757Y-49926341D01*
X152270367Y-49932750D01*
X152393740Y-49932749D01*
X152455739Y-49949362D01*
X152501127Y-49994749D01*
X152517740Y-50056749D01*
X152517740Y-51565274D01*
X152503271Y-51623403D01*
X152463241Y-51667966D01*
X152425062Y-51681946D01*
X152425350Y-51682716D01*
X152275909Y-51738454D01*
X152213815Y-51784937D01*
X152160067Y-51807952D01*
X152101748Y-51803781D01*
X152051824Y-51773350D01*
X152004654Y-51726180D01*
X151819625Y-51597992D01*
X151614681Y-51504902D01*
X151396416Y-51449904D01*
X151330314Y-51444702D01*
X151264217Y-51439500D01*
X151264213Y-51439500D01*
X150310785Y-51439500D01*
X150178583Y-51449904D01*
X149960318Y-51504902D01*
X149755374Y-51597992D01*
X149570345Y-51726180D01*
X149411180Y-51885345D01*
X149326928Y-52006957D01*
X149282531Y-52046187D01*
X149225000Y-52060341D01*
X149167469Y-52046187D01*
X149123072Y-52006957D01*
X149038819Y-51885345D01*
X148879654Y-51726180D01*
X148694625Y-51597992D01*
X148489681Y-51504902D01*
X148271416Y-51449904D01*
X148205314Y-51444702D01*
X148139217Y-51439500D01*
X148139213Y-51439500D01*
X147185785Y-51439500D01*
X147053583Y-51449904D01*
X146835318Y-51504902D01*
X146630374Y-51597992D01*
X146445345Y-51726180D01*
X146286180Y-51885345D01*
X146157992Y-52070374D01*
X146064902Y-52275318D01*
X146009904Y-52493583D01*
X145999500Y-52625786D01*
X145999500Y-54054214D01*
X146009904Y-54186416D01*
X146064902Y-54404681D01*
X146157992Y-54609625D01*
X146286180Y-54794654D01*
X146445342Y-54953816D01*
X146445345Y-54953818D01*
X146445346Y-54953819D01*
X146457314Y-54962110D01*
X146499331Y-55012172D01*
X146510058Y-55076642D01*
X146499500Y-55179991D01*
X146499500Y-55576717D01*
X146490061Y-55624170D01*
X146463181Y-55664398D01*
X144614886Y-57512692D01*
X144612638Y-57514884D01*
X144571886Y-57553623D01*
X144532452Y-57578903D01*
X144486453Y-57587750D01*
X143614370Y-57587750D01*
X143561324Y-57593453D01*
X143554757Y-57594159D01*
X143554756Y-57594159D01*
X143552600Y-57594391D01*
X143512239Y-57601672D01*
X143471886Y-57594391D01*
X143437050Y-57590646D01*
X143410113Y-57587750D01*
X143410109Y-57587750D01*
X142414370Y-57587750D01*
X142361324Y-57593453D01*
X142354757Y-57594159D01*
X142354756Y-57594159D01*
X142352600Y-57594391D01*
X142312239Y-57601672D01*
X142271886Y-57594391D01*
X142237050Y-57590646D01*
X142210113Y-57587750D01*
X142210109Y-57587750D01*
X141214370Y-57587750D01*
X141161324Y-57593453D01*
X141154757Y-57594159D01*
X141154756Y-57594159D01*
X141152600Y-57594391D01*
X141112239Y-57601672D01*
X141071886Y-57594391D01*
X141037050Y-57590646D01*
X141010113Y-57587750D01*
X141010109Y-57587750D01*
X140014370Y-57587750D01*
X139961324Y-57593453D01*
X139954757Y-57594159D01*
X139954756Y-57594159D01*
X139952600Y-57594391D01*
X139912239Y-57601672D01*
X139871886Y-57594391D01*
X139837050Y-57590646D01*
X139810113Y-57587750D01*
X139810109Y-57587750D01*
X138814370Y-57587750D01*
X138761324Y-57593453D01*
X138754757Y-57594159D01*
X138754756Y-57594159D01*
X138752600Y-57594391D01*
X138712239Y-57601672D01*
X138671886Y-57594391D01*
X138637050Y-57590646D01*
X138610113Y-57587750D01*
X138610109Y-57587750D01*
X137614370Y-57587750D01*
X137561324Y-57593453D01*
X137554757Y-57594159D01*
X137554756Y-57594159D01*
X137552600Y-57594391D01*
X137512239Y-57601672D01*
X137471886Y-57594391D01*
X137437050Y-57590646D01*
X137410113Y-57587750D01*
X137410109Y-57587750D01*
X136414370Y-57587750D01*
X136354755Y-57594159D01*
X136259775Y-57629584D01*
X136219909Y-57644454D01*
X136219908Y-57644454D01*
X136203204Y-57650685D01*
X136201990Y-57647432D01*
X136167290Y-57660728D01*
X136100734Y-57648104D01*
X136050744Y-57602387D01*
X136032240Y-57537221D01*
X136032240Y-50603250D01*
X126454030Y-50603250D01*
X126398922Y-50590331D01*
X126355296Y-50554267D01*
X126332243Y-50502572D01*
X126334566Y-50446018D01*
X126361781Y-50396388D01*
X126666862Y-50056749D01*
X126760688Y-49952294D01*
X126763656Y-49949106D01*
X127529059Y-49155878D01*
X127532084Y-49152853D01*
X128325313Y-48387449D01*
X128328513Y-48384471D01*
X129148522Y-47647897D01*
X129151848Y-47645014D01*
X129997615Y-46938186D01*
X130000979Y-46935475D01*
X130871459Y-46259265D01*
X130874949Y-46256652D01*
X131769032Y-45611927D01*
X131772601Y-45609449D01*
X132453526Y-45154469D01*
X132516362Y-45133720D01*
X132580923Y-45148242D01*
X132628821Y-45193901D01*
X132830374Y-45530732D01*
X133085782Y-45878826D01*
X133372663Y-46201474D01*
X133688503Y-46495846D01*
X133938545Y-46688487D01*
X134030514Y-46759343D01*
X134395699Y-46989658D01*
X134780846Y-47184764D01*
X135182571Y-47342947D01*
X135597343Y-47462817D01*
X136021518Y-47543321D01*
X136351772Y-47574382D01*
X136451365Y-47583750D01*
X136451367Y-47583750D01*
X136775111Y-47583750D01*
X136775117Y-47583750D01*
X137098512Y-47568575D01*
X137525993Y-47508042D01*
X137945928Y-47407745D01*
X138354626Y-47268566D01*
X138541283Y-47184761D01*
X138748493Y-47091728D01*
X139124075Y-46878782D01*
X139301068Y-46755192D01*
X139478062Y-46631603D01*
X139807348Y-46352363D01*
X140109039Y-46043515D01*
X140380484Y-45707773D01*
X140619296Y-45348087D01*
X140823377Y-44967620D01*
X140990935Y-44569713D01*
X141120495Y-44157865D01*
X141210920Y-43735695D01*
X141261415Y-43306911D01*
X141271536Y-42875284D01*
X141256340Y-42659587D01*
X141241196Y-42444611D01*
X141205789Y-42230808D01*
X141170657Y-42018660D01*
X141060544Y-41601192D01*
X140985333Y-41396217D01*
X140980214Y-41328884D01*
X141011140Y-41268850D01*
X141068938Y-41233925D01*
X141782046Y-41038293D01*
X141786256Y-41037220D01*
X142858971Y-40783731D01*
X142863215Y-40782807D01*
X143944291Y-40567768D01*
X143948601Y-40566991D01*
X145036686Y-40390670D01*
X145040952Y-40390057D01*
X146134632Y-40252687D01*
X146138998Y-40252217D01*
X147236863Y-40153972D01*
X147241174Y-40153663D01*
X148341874Y-40094664D01*
X148346242Y-40094508D01*
X149448317Y-40074835D01*
X149452687Y-40074835D01*
X150554759Y-40094508D01*
G37*
%TD.AperFunction*%
%TD*%
%TA.AperFunction,Conductor*%
%TO.N,Earth_Protective*%
G36*
X167365019Y-122628862D02*
G01*
X167410406Y-122674246D01*
X167427020Y-122736240D01*
X167427099Y-124007941D01*
X167427186Y-125402094D01*
X167410573Y-125464102D01*
X167365179Y-125509493D01*
X167303169Y-125526102D01*
X160734223Y-125525220D01*
X160032222Y-125525125D01*
X159970230Y-125508508D01*
X159924850Y-125463121D01*
X159908240Y-125401126D01*
X159908240Y-122736250D01*
X159924853Y-122674250D01*
X159970240Y-122628863D01*
X160032240Y-122612250D01*
X167303021Y-122612250D01*
X167365019Y-122628862D01*
G37*
%TD.AperFunction*%
%TD*%
%TA.AperFunction,Conductor*%
%TO.N,C*%
G36*
X135335240Y-51254863D02*
G01*
X135380627Y-51300250D01*
X135397240Y-51362250D01*
X135397240Y-62673750D01*
X135380627Y-62735750D01*
X135335240Y-62781137D01*
X135273240Y-62797750D01*
X131711239Y-62797750D01*
X131580409Y-62814974D01*
X131518401Y-62831589D01*
X131396490Y-62882086D01*
X131291797Y-62962420D01*
X131246410Y-63007807D01*
X131166076Y-63112500D01*
X131115579Y-63234411D01*
X131115578Y-63234416D01*
X131100766Y-63289697D01*
X131098965Y-63296417D01*
X131091443Y-63353544D01*
X131067772Y-63411666D01*
X131008444Y-63490919D01*
X130965131Y-63607048D01*
X130958149Y-63625767D01*
X130952106Y-63681979D01*
X130951740Y-63685380D01*
X130951740Y-64681119D01*
X130958381Y-64742894D01*
X130965662Y-64783248D01*
X130958381Y-64823609D01*
X130951740Y-64885380D01*
X130951740Y-65881119D01*
X130958381Y-65942894D01*
X130965662Y-65983246D01*
X130958378Y-66023627D01*
X130951740Y-66085371D01*
X130951740Y-67081119D01*
X130958381Y-67142894D01*
X130965662Y-67183248D01*
X130958381Y-67223609D01*
X130951740Y-67285380D01*
X130951740Y-68281119D01*
X130958381Y-68342894D01*
X130965662Y-68383248D01*
X130958381Y-68423609D01*
X130951740Y-68485380D01*
X130951740Y-69481119D01*
X130958381Y-69542894D01*
X130965662Y-69583248D01*
X130958381Y-69623609D01*
X130951740Y-69685380D01*
X130951740Y-70681119D01*
X130958381Y-70742894D01*
X130965662Y-70783248D01*
X130958381Y-70823609D01*
X130951740Y-70885380D01*
X130951740Y-71881119D01*
X130958381Y-71942894D01*
X130965662Y-71983248D01*
X130958381Y-72023609D01*
X130958148Y-72025767D01*
X130958149Y-72025767D01*
X130953242Y-72071412D01*
X130951740Y-72085380D01*
X130951740Y-73081119D01*
X130956665Y-73126927D01*
X130958149Y-73140733D01*
X131008444Y-73275581D01*
X131094694Y-73390796D01*
X131209909Y-73477046D01*
X131344757Y-73527341D01*
X131404367Y-73533750D01*
X134300112Y-73533749D01*
X134359723Y-73527341D01*
X134494571Y-73477046D01*
X134568237Y-73421898D01*
X134624118Y-73398544D01*
X134684400Y-73404444D01*
X134734695Y-73438195D01*
X134791369Y-73501139D01*
X134944509Y-73612401D01*
X135117433Y-73689393D01*
X135117436Y-73689393D01*
X135117437Y-73689394D01*
X135205406Y-73708092D01*
X135263738Y-73738273D01*
X135298473Y-73794015D01*
X135299866Y-73859680D01*
X135269904Y-73978588D01*
X135264772Y-74043783D01*
X135253763Y-74085967D01*
X135228835Y-74121733D01*
X133019137Y-76331431D01*
X132978909Y-76358311D01*
X132931456Y-76367750D01*
X129924370Y-76367750D01*
X129864755Y-76374159D01*
X129729909Y-76424454D01*
X129614694Y-76510704D01*
X129528444Y-76625918D01*
X129472706Y-76775360D01*
X129471935Y-76775072D01*
X129457956Y-76813250D01*
X129413393Y-76853281D01*
X129355264Y-76867750D01*
X127846739Y-76867750D01*
X127784739Y-76851137D01*
X127739352Y-76805750D01*
X127722739Y-76743750D01*
X127722739Y-76620380D01*
X127722739Y-76620377D01*
X127716331Y-76560767D01*
X127666036Y-76425919D01*
X127579786Y-76310704D01*
X127464571Y-76224454D01*
X127329723Y-76174159D01*
X127270113Y-76167750D01*
X127270109Y-76167750D01*
X125624370Y-76167750D01*
X125564755Y-76174159D01*
X125429909Y-76224454D01*
X125314694Y-76310704D01*
X125228444Y-76425918D01*
X125178149Y-76560766D01*
X125171740Y-76620381D01*
X125171740Y-81083470D01*
X125152437Y-81149913D01*
X125100536Y-81195669D01*
X125032198Y-81206492D01*
X124968699Y-81179013D01*
X124929809Y-81121787D01*
X124921419Y-81095966D01*
X124826773Y-80932033D01*
X124700110Y-80791360D01*
X124546970Y-80680098D01*
X124374042Y-80603105D01*
X124242284Y-80575099D01*
X124201897Y-80558679D01*
X124169689Y-80529296D01*
X124141532Y-80492601D01*
X124120135Y-80449210D01*
X124116971Y-80400931D01*
X124132522Y-80355119D01*
X124159419Y-80308534D01*
X124217914Y-80128506D01*
X124237700Y-79940250D01*
X124217914Y-79751994D01*
X124159419Y-79571966D01*
X124159419Y-79571965D01*
X124064773Y-79408033D01*
X123938110Y-79267360D01*
X123784970Y-79156098D01*
X123612042Y-79079105D01*
X123426888Y-79039750D01*
X123426886Y-79039750D01*
X123237594Y-79039750D01*
X123237592Y-79039750D01*
X123052441Y-79079104D01*
X122874676Y-79158251D01*
X122824240Y-79168971D01*
X122773804Y-79158251D01*
X122678445Y-79115794D01*
X122596043Y-79079106D01*
X122596042Y-79079105D01*
X122596038Y-79079104D01*
X122410888Y-79039750D01*
X122410886Y-79039750D01*
X122221594Y-79039750D01*
X122221592Y-79039750D01*
X122036441Y-79079104D01*
X121858676Y-79158251D01*
X121808240Y-79168971D01*
X121757804Y-79158251D01*
X121662445Y-79115794D01*
X121580043Y-79079106D01*
X121580042Y-79079105D01*
X121580038Y-79079104D01*
X121394888Y-79039750D01*
X121394886Y-79039750D01*
X121205594Y-79039750D01*
X121205592Y-79039750D01*
X121020437Y-79079105D01*
X120847509Y-79156098D01*
X120694369Y-79267360D01*
X120567706Y-79408033D01*
X120473060Y-79571965D01*
X120414566Y-79751992D01*
X120394780Y-79940249D01*
X120414566Y-80128507D01*
X120473060Y-80308534D01*
X120567706Y-80472466D01*
X120694366Y-80613136D01*
X120694369Y-80613138D01*
X120843628Y-80721580D01*
X120881225Y-80765601D01*
X120894740Y-80821896D01*
X120894740Y-82296612D01*
X120910195Y-82414010D01*
X120970704Y-82560091D01*
X121066957Y-82685532D01*
X121192398Y-82781785D01*
X121192399Y-82781786D01*
X121338478Y-82842294D01*
X121455879Y-82857750D01*
X121734600Y-82857749D01*
X121734602Y-82857749D01*
X121781560Y-82851567D01*
X121852002Y-82842294D01*
X121872789Y-82833683D01*
X121920240Y-82824245D01*
X121967690Y-82833683D01*
X121988478Y-82842294D01*
X122105879Y-82857750D01*
X122384600Y-82857749D01*
X122384602Y-82857749D01*
X122431560Y-82851567D01*
X122502002Y-82842294D01*
X122522789Y-82833683D01*
X122570240Y-82824245D01*
X122617690Y-82833683D01*
X122638478Y-82842294D01*
X122755879Y-82857750D01*
X123034600Y-82857749D01*
X123034602Y-82857749D01*
X123081560Y-82851567D01*
X123152002Y-82842294D01*
X123172789Y-82833683D01*
X123220240Y-82824245D01*
X123267690Y-82833683D01*
X123288478Y-82842294D01*
X123405879Y-82857750D01*
X123684600Y-82857749D01*
X123684602Y-82857749D01*
X123743300Y-82850021D01*
X123802002Y-82842294D01*
X123948081Y-82781786D01*
X124073522Y-82685532D01*
X124169776Y-82560091D01*
X124230284Y-82414012D01*
X124230283Y-82414012D01*
X124231690Y-82410618D01*
X124266961Y-82362734D01*
X124320469Y-82336781D01*
X124374043Y-82325394D01*
X124374044Y-82325393D01*
X124374046Y-82325393D01*
X124546970Y-82248401D01*
X124700110Y-82137139D01*
X124826773Y-81996466D01*
X124832646Y-81986293D01*
X124921419Y-81832534D01*
X124929809Y-81806710D01*
X124968698Y-81749487D01*
X125032197Y-81722007D01*
X125100536Y-81732830D01*
X125152436Y-81778586D01*
X125171740Y-81845029D01*
X125171740Y-86816119D01*
X125178149Y-86875734D01*
X125196821Y-86925795D01*
X125228444Y-87010581D01*
X125314694Y-87125796D01*
X125429909Y-87212046D01*
X125564757Y-87262341D01*
X125624367Y-87268750D01*
X127270112Y-87268749D01*
X127329723Y-87262341D01*
X127464571Y-87212046D01*
X127579786Y-87125796D01*
X127666036Y-87010581D01*
X127716331Y-86875733D01*
X127722740Y-86816123D01*
X127722739Y-86692748D01*
X127739352Y-86630750D01*
X127784739Y-86585362D01*
X127846739Y-86568749D01*
X129355264Y-86568749D01*
X129413393Y-86583218D01*
X129457956Y-86623249D01*
X129471936Y-86661427D01*
X129472706Y-86661140D01*
X129478149Y-86675733D01*
X129528444Y-86810581D01*
X129614694Y-86925796D01*
X129729909Y-87012046D01*
X129864757Y-87062341D01*
X129924367Y-87068750D01*
X133720112Y-87068749D01*
X133779723Y-87062341D01*
X133914571Y-87012046D01*
X134029786Y-86925796D01*
X134116036Y-86810581D01*
X134166331Y-86675733D01*
X134172740Y-86616123D01*
X134172740Y-86416119D01*
X135396740Y-86416119D01*
X135402551Y-86470170D01*
X135403149Y-86475733D01*
X135453444Y-86610581D01*
X135539694Y-86725796D01*
X135654909Y-86812046D01*
X135789757Y-86862341D01*
X135849367Y-86868750D01*
X138745112Y-86868749D01*
X138804723Y-86862341D01*
X138939571Y-86812046D01*
X139013237Y-86756898D01*
X139069118Y-86733544D01*
X139129400Y-86739444D01*
X139179695Y-86773195D01*
X139236369Y-86836139D01*
X139389509Y-86947401D01*
X139562437Y-87024394D01*
X139747592Y-87063750D01*
X139747594Y-87063750D01*
X139936886Y-87063750D01*
X139936888Y-87063750D01*
X140060323Y-87037512D01*
X140122043Y-87024394D01*
X140294970Y-86947401D01*
X140294969Y-86947401D01*
X140448110Y-86836139D01*
X140466134Y-86816122D01*
X140574773Y-86695466D01*
X140669419Y-86531534D01*
X140727914Y-86351506D01*
X140747700Y-86163250D01*
X140727914Y-85974994D01*
X140690069Y-85858519D01*
X140669419Y-85794965D01*
X140574773Y-85631033D01*
X140448110Y-85490360D01*
X140294972Y-85379099D01*
X140179685Y-85327770D01*
X140122043Y-85302106D01*
X140079106Y-85292979D01*
X140006684Y-85277585D01*
X139980061Y-85268677D01*
X139925945Y-85243442D01*
X139922701Y-85241871D01*
X139854549Y-85207645D01*
X139836143Y-85201247D01*
X139761451Y-85185824D01*
X139757932Y-85185044D01*
X139683730Y-85167458D01*
X139664361Y-85165479D01*
X139588109Y-85167698D01*
X139584503Y-85167750D01*
X139159560Y-85167750D01*
X139104055Y-85154634D01*
X139060293Y-85118061D01*
X139054786Y-85110704D01*
X138939571Y-85024454D01*
X138804723Y-84974159D01*
X138745113Y-84967750D01*
X138745109Y-84967750D01*
X135849370Y-84967750D01*
X135789755Y-84974159D01*
X135654909Y-85024454D01*
X135539694Y-85110704D01*
X135453444Y-85225918D01*
X135415184Y-85328498D01*
X135403149Y-85360767D01*
X135400414Y-85386210D01*
X135396740Y-85420380D01*
X135396740Y-86416119D01*
X134172740Y-86416119D01*
X134172739Y-78059031D01*
X134182178Y-78011579D01*
X134209055Y-77971354D01*
X135965805Y-76214604D01*
X136007301Y-76187208D01*
X136056227Y-76178317D01*
X136083925Y-76184627D01*
X136084495Y-76182369D01*
X136095316Y-76185095D01*
X136095317Y-76185096D01*
X136313588Y-76240096D01*
X136445783Y-76250500D01*
X137874216Y-76250499D01*
X138006412Y-76240096D01*
X138006416Y-76240095D01*
X138224681Y-76185097D01*
X138378719Y-76115130D01*
X138430000Y-76104029D01*
X138481281Y-76115130D01*
X138635318Y-76185097D01*
X138853583Y-76240095D01*
X138853584Y-76240095D01*
X138853588Y-76240096D01*
X138985783Y-76250500D01*
X140414216Y-76250499D01*
X140546412Y-76240096D01*
X140546416Y-76240095D01*
X140764681Y-76185097D01*
X140969624Y-76092008D01*
X140969624Y-76092007D01*
X140969626Y-76092007D01*
X141009231Y-76064567D01*
X141073050Y-76042682D01*
X141138881Y-76057448D01*
X141187234Y-76104494D01*
X141245762Y-76205866D01*
X141267781Y-76230320D01*
X141295947Y-76283293D01*
X141295948Y-76343289D01*
X141267784Y-76396262D01*
X141261956Y-76402735D01*
X141167309Y-76566667D01*
X141108815Y-76746694D01*
X141089029Y-76934952D01*
X141108815Y-77123209D01*
X141167309Y-77303236D01*
X141261955Y-77467168D01*
X141388618Y-77607841D01*
X141541756Y-77719102D01*
X141594516Y-77742592D01*
X141673676Y-77777837D01*
X141712438Y-77804978D01*
X141738211Y-77844665D01*
X141747240Y-77891116D01*
X141747240Y-89214250D01*
X141730627Y-89276250D01*
X141685240Y-89321637D01*
X141623240Y-89338250D01*
X124466799Y-89338250D01*
X124411359Y-89325166D01*
X124367621Y-89288678D01*
X124337138Y-89248057D01*
X124334636Y-89244599D01*
X123945252Y-88686249D01*
X123720049Y-88363323D01*
X123717654Y-88359757D01*
X123635619Y-88232938D01*
X123134139Y-87457691D01*
X123131859Y-87454028D01*
X122943629Y-87139564D01*
X122580058Y-86532169D01*
X122577935Y-86528479D01*
X122058540Y-85587979D01*
X122056525Y-85584176D01*
X122020884Y-85513972D01*
X121570173Y-84626191D01*
X121568293Y-84622322D01*
X121540545Y-84562606D01*
X121115575Y-83648018D01*
X121113825Y-83644074D01*
X120695280Y-82654614D01*
X120693668Y-82650612D01*
X120497235Y-82137139D01*
X120309784Y-81647147D01*
X120308317Y-81643100D01*
X120264003Y-81513972D01*
X119959587Y-80626915D01*
X119958258Y-80622810D01*
X119940261Y-80563750D01*
X119645091Y-79595100D01*
X119643913Y-79590976D01*
X119638836Y-79571965D01*
X119366685Y-78552967D01*
X119365665Y-78548866D01*
X119124703Y-77501777D01*
X119123824Y-77497629D01*
X118919448Y-76442842D01*
X118918705Y-76438614D01*
X118916469Y-76424454D01*
X118888756Y-76248927D01*
X118887240Y-76229590D01*
X118887240Y-75368250D01*
X119886780Y-75368250D01*
X119906566Y-75556507D01*
X119965060Y-75736534D01*
X120059706Y-75900466D01*
X120186369Y-76041139D01*
X120339509Y-76152401D01*
X120512437Y-76229394D01*
X120697592Y-76268750D01*
X120799896Y-76268750D01*
X120858349Y-76283392D01*
X120902998Y-76323860D01*
X120923299Y-76380597D01*
X120914457Y-76440199D01*
X120910196Y-76450488D01*
X120910195Y-76450491D01*
X120894740Y-76567887D01*
X120894740Y-78071612D01*
X120910195Y-78189010D01*
X120970704Y-78335091D01*
X121066957Y-78460532D01*
X121097018Y-78483598D01*
X121192399Y-78556786D01*
X121338478Y-78617294D01*
X121455879Y-78632750D01*
X121734600Y-78632749D01*
X121734602Y-78632749D01*
X121781560Y-78626567D01*
X121852002Y-78617294D01*
X121872789Y-78608683D01*
X121920240Y-78599245D01*
X121967690Y-78608683D01*
X121988478Y-78617294D01*
X122105879Y-78632750D01*
X122384600Y-78632749D01*
X122384602Y-78632749D01*
X122431560Y-78626567D01*
X122502002Y-78617294D01*
X122522789Y-78608683D01*
X122570240Y-78599245D01*
X122617690Y-78608683D01*
X122638478Y-78617294D01*
X122755879Y-78632750D01*
X123034600Y-78632749D01*
X123034602Y-78632749D01*
X123081560Y-78626567D01*
X123152002Y-78617294D01*
X123172789Y-78608683D01*
X123220240Y-78599245D01*
X123267690Y-78608683D01*
X123288478Y-78617294D01*
X123405879Y-78632750D01*
X123684600Y-78632749D01*
X123684602Y-78632749D01*
X123743300Y-78625021D01*
X123802002Y-78617294D01*
X123948081Y-78556786D01*
X124073522Y-78460532D01*
X124169776Y-78335091D01*
X124230284Y-78189012D01*
X124245740Y-78071611D01*
X124245739Y-76567890D01*
X124245739Y-76567887D01*
X124230285Y-76450490D01*
X124228463Y-76446092D01*
X124226023Y-76440203D01*
X124217182Y-76380597D01*
X124237483Y-76323860D01*
X124282132Y-76283392D01*
X124340585Y-76268750D01*
X124442888Y-76268750D01*
X124566323Y-76242512D01*
X124628043Y-76229394D01*
X124800970Y-76152401D01*
X124884096Y-76092007D01*
X124954110Y-76041139D01*
X125080773Y-75900466D01*
X125175419Y-75736534D01*
X125215834Y-75612149D01*
X125233914Y-75556506D01*
X125253700Y-75368250D01*
X125233914Y-75179994D01*
X125175419Y-74999966D01*
X125175419Y-74999965D01*
X125080773Y-74836033D01*
X124954110Y-74695360D01*
X124800970Y-74584098D01*
X124628042Y-74507105D01*
X124442888Y-74467750D01*
X124442886Y-74467750D01*
X124253594Y-74467750D01*
X124253592Y-74467750D01*
X124160909Y-74487450D01*
X124113951Y-74488338D01*
X124070034Y-74471700D01*
X124046756Y-74457342D01*
X124046237Y-74457170D01*
X123882993Y-74403075D01*
X123791284Y-74393707D01*
X123781916Y-74392750D01*
X123083563Y-74392750D01*
X122982487Y-74403075D01*
X122818724Y-74457341D01*
X122671887Y-74547911D01*
X122657921Y-74561878D01*
X122602334Y-74593972D01*
X122538146Y-74593972D01*
X122482559Y-74561878D01*
X122468592Y-74547911D01*
X122321755Y-74457341D01*
X122157993Y-74403075D01*
X122066284Y-74393707D01*
X122056916Y-74392750D01*
X121358563Y-74392750D01*
X121257487Y-74403075D01*
X121094243Y-74457170D01*
X121093724Y-74457342D01*
X121070448Y-74471699D01*
X121070446Y-74471700D01*
X121026527Y-74488338D01*
X120979570Y-74487450D01*
X120886888Y-74467750D01*
X120886886Y-74467750D01*
X120697594Y-74467750D01*
X120697592Y-74467750D01*
X120512437Y-74507105D01*
X120339509Y-74584098D01*
X120186369Y-74695360D01*
X120059706Y-74836033D01*
X119965060Y-74999965D01*
X119906566Y-75179992D01*
X119886780Y-75368250D01*
X118887240Y-75368250D01*
X118887240Y-65927690D01*
X118888837Y-65907855D01*
X118916685Y-65736001D01*
X118943197Y-65572395D01*
X118943979Y-65568062D01*
X118946770Y-65554031D01*
X119159013Y-64487009D01*
X119159937Y-64482765D01*
X119413426Y-63410050D01*
X119414499Y-63405841D01*
X119706118Y-62342847D01*
X119707361Y-62338616D01*
X119711850Y-62324281D01*
X120036722Y-61286744D01*
X120038098Y-61282609D01*
X120404809Y-60243119D01*
X120406325Y-60239057D01*
X120809892Y-59213349D01*
X120811580Y-59209274D01*
X120817394Y-59195918D01*
X121251500Y-58198625D01*
X121253298Y-58194686D01*
X121729022Y-57200357D01*
X121730973Y-57196459D01*
X122241885Y-56219740D01*
X122243981Y-56215904D01*
X122789427Y-55258047D01*
X122791625Y-55254343D01*
X123370915Y-54316559D01*
X123373269Y-54312895D01*
X123985655Y-53396395D01*
X123988133Y-53392826D01*
X124632858Y-52498743D01*
X124635471Y-52495253D01*
X125311681Y-51624773D01*
X125314392Y-51621409D01*
X125545474Y-51344904D01*
X125597433Y-51282733D01*
X125640064Y-51249920D01*
X125692580Y-51238250D01*
X135273240Y-51238250D01*
X135335240Y-51254863D01*
G37*
%TD.AperFunction*%
%TD*%
%TA.AperFunction,Conductor*%
%TO.N,A*%
G36*
X173260940Y-51249920D02*
G01*
X173303571Y-51282733D01*
X173586577Y-51621368D01*
X173589348Y-51624807D01*
X173834135Y-51939919D01*
X174265511Y-52495226D01*
X174268164Y-52498769D01*
X174912847Y-53392793D01*
X174915371Y-53396429D01*
X175527714Y-54312865D01*
X175530107Y-54316589D01*
X176109347Y-55254292D01*
X176111606Y-55258099D01*
X176657008Y-56215879D01*
X176659130Y-56219764D01*
X177170014Y-57196429D01*
X177171995Y-57200387D01*
X177647684Y-58194642D01*
X177649523Y-58198669D01*
X178089423Y-59209274D01*
X178091117Y-59213364D01*
X178494662Y-60239015D01*
X178496209Y-60243162D01*
X178862893Y-61282576D01*
X178864291Y-61286776D01*
X179193642Y-62338616D01*
X179194889Y-62342863D01*
X179486493Y-63405801D01*
X179487587Y-63410090D01*
X179741057Y-64482725D01*
X179741998Y-64487051D01*
X179844857Y-65004157D01*
X179847240Y-65028348D01*
X179847240Y-77125337D01*
X179844997Y-77148814D01*
X179783562Y-77467436D01*
X179782676Y-77471637D01*
X179544016Y-78513861D01*
X179542986Y-78518030D01*
X179268362Y-79551439D01*
X179267187Y-79555569D01*
X178956965Y-80578791D01*
X178955648Y-80582879D01*
X178610178Y-81594753D01*
X178608721Y-81598792D01*
X178228409Y-82598135D01*
X178226812Y-82602121D01*
X178065368Y-82985821D01*
X178025602Y-83036834D01*
X177965558Y-83060882D01*
X177901573Y-83051422D01*
X177851056Y-83011029D01*
X177827752Y-82950694D01*
X177811914Y-82799994D01*
X177811913Y-82799991D01*
X177810551Y-82787031D01*
X177813368Y-82786734D01*
X177812021Y-82769636D01*
X177811874Y-82769650D01*
X177806290Y-82710575D01*
X177805740Y-82698906D01*
X177805740Y-82582429D01*
X177815179Y-82534977D01*
X177827325Y-82505652D01*
X177865284Y-82414012D01*
X177880740Y-82296611D01*
X177880739Y-80792890D01*
X177865284Y-80675488D01*
X177852590Y-80644841D01*
X177844942Y-80576388D01*
X177875002Y-80514415D01*
X177912773Y-80472466D01*
X178007419Y-80308534D01*
X178007419Y-80308533D01*
X178065914Y-80128506D01*
X178085700Y-79940250D01*
X178065914Y-79751994D01*
X178007419Y-79571966D01*
X178007419Y-79571965D01*
X177912773Y-79408033D01*
X177786110Y-79267360D01*
X177632970Y-79156098D01*
X177460042Y-79079105D01*
X177274888Y-79039750D01*
X177274886Y-79039750D01*
X177085594Y-79039750D01*
X177085592Y-79039750D01*
X176900439Y-79079104D01*
X176725353Y-79157058D01*
X176674918Y-79167778D01*
X176624483Y-79157058D01*
X176439741Y-79074805D01*
X176254589Y-79035451D01*
X176254587Y-79035451D01*
X176065295Y-79035451D01*
X176065293Y-79035451D01*
X175880138Y-79074806D01*
X175699699Y-79155144D01*
X175649263Y-79165865D01*
X175598827Y-79155144D01*
X175428042Y-79079105D01*
X175242888Y-79039750D01*
X175242886Y-79039750D01*
X175053594Y-79039750D01*
X175053592Y-79039750D01*
X174868437Y-79079105D01*
X174695509Y-79156098D01*
X174542369Y-79267360D01*
X174415706Y-79408033D01*
X174321060Y-79571965D01*
X174262566Y-79751992D01*
X174242780Y-79940250D01*
X174262566Y-80128507D01*
X174321060Y-80308534D01*
X174415704Y-80472463D01*
X174415707Y-80472466D01*
X174490892Y-80555967D01*
X174514504Y-80594499D01*
X174522740Y-80638937D01*
X174522740Y-81380006D01*
X174520475Y-81400512D01*
X174522679Y-81470623D01*
X174522740Y-81474518D01*
X174522740Y-81502099D01*
X174523243Y-81506084D01*
X174524158Y-81517717D01*
X174525634Y-81564665D01*
X174529740Y-81593512D01*
X174529740Y-82296612D01*
X174545195Y-82414010D01*
X174605704Y-82560091D01*
X174701957Y-82685532D01*
X174791258Y-82754054D01*
X174827399Y-82781786D01*
X174973478Y-82842294D01*
X175090879Y-82857750D01*
X175369600Y-82857749D01*
X175369602Y-82857749D01*
X175416560Y-82851567D01*
X175487002Y-82842294D01*
X175507789Y-82833683D01*
X175555240Y-82824245D01*
X175602690Y-82833683D01*
X175623478Y-82842294D01*
X175740879Y-82857750D01*
X175896780Y-82857749D01*
X175962488Y-82876590D01*
X176008229Y-82927388D01*
X176016726Y-82975571D01*
X176019418Y-82975289D01*
X176020780Y-82988249D01*
X176020780Y-82988250D01*
X176027773Y-83054781D01*
X176040566Y-83176507D01*
X176099060Y-83356534D01*
X176193706Y-83520466D01*
X176320369Y-83661139D01*
X176473509Y-83772401D01*
X176646437Y-83849394D01*
X176831592Y-83888750D01*
X176831594Y-83888750D01*
X177020886Y-83888750D01*
X177020888Y-83888750D01*
X177163108Y-83858520D01*
X177206043Y-83849394D01*
X177378970Y-83772401D01*
X177450841Y-83720184D01*
X177517518Y-83671741D01*
X177577787Y-83648702D01*
X177641473Y-83659064D01*
X177691331Y-83700020D01*
X177713861Y-83760482D01*
X177702964Y-83824078D01*
X177361861Y-84562172D01*
X177359993Y-84566038D01*
X176878088Y-85520552D01*
X176876086Y-85524351D01*
X176361444Y-86461564D01*
X176359312Y-86465292D01*
X175812529Y-87384120D01*
X175810270Y-87387772D01*
X175231971Y-88287160D01*
X175229586Y-88290731D01*
X174620510Y-89169531D01*
X174618003Y-89173017D01*
X173978877Y-90030183D01*
X173976251Y-90033581D01*
X173553192Y-90561769D01*
X173510093Y-90596027D01*
X173456410Y-90608250D01*
X157111240Y-90608250D01*
X157049240Y-90591637D01*
X157003853Y-90546250D01*
X156987240Y-90484250D01*
X156987240Y-64062250D01*
X157003853Y-64000250D01*
X157049240Y-63954863D01*
X157111240Y-63938250D01*
X161154876Y-63938250D01*
X161214044Y-63953277D01*
X161258871Y-63994715D01*
X161278494Y-64052521D01*
X161268156Y-64112685D01*
X161230364Y-64160623D01*
X161175769Y-64202516D01*
X161136792Y-64232425D01*
X161091410Y-64277807D01*
X161011076Y-64382500D01*
X160960579Y-64504411D01*
X160943964Y-64566419D01*
X160926740Y-64697249D01*
X160926740Y-70183306D01*
X160907962Y-70248914D01*
X160857315Y-70294651D01*
X160790138Y-70306664D01*
X160720009Y-70299500D01*
X159319991Y-70299500D01*
X159217203Y-70310000D01*
X159050665Y-70365186D01*
X158901342Y-70457288D01*
X158777288Y-70581342D01*
X158685186Y-70730665D01*
X158630000Y-70897202D01*
X158619500Y-70999990D01*
X158619500Y-71925008D01*
X158630000Y-72027796D01*
X158685186Y-72194334D01*
X158777288Y-72343657D01*
X158901342Y-72467711D01*
X158901344Y-72467712D01*
X159050666Y-72559814D01*
X159162017Y-72596712D01*
X159217202Y-72614999D01*
X159227703Y-72616071D01*
X159319991Y-72625500D01*
X160720008Y-72625499D01*
X160790139Y-72618335D01*
X160857315Y-72630349D01*
X160907962Y-72676085D01*
X160926740Y-72741693D01*
X160926740Y-72805510D01*
X160908467Y-72870300D01*
X160859034Y-72915995D01*
X160793013Y-72929127D01*
X160734217Y-72924500D01*
X160734212Y-72924500D01*
X159305785Y-72924500D01*
X159173583Y-72934904D01*
X158955318Y-72989902D01*
X158750374Y-73082992D01*
X158565345Y-73211180D01*
X158406180Y-73370345D01*
X158277992Y-73555374D01*
X158184902Y-73760318D01*
X158129904Y-73978583D01*
X158119500Y-74110786D01*
X158119500Y-75064214D01*
X158129904Y-75196416D01*
X158184902Y-75414681D01*
X158277992Y-75619625D01*
X158406180Y-75804654D01*
X158565345Y-75963819D01*
X158750374Y-76092007D01*
X158846899Y-76135851D01*
X158897862Y-76178592D01*
X158919407Y-76241519D01*
X158905335Y-76306527D01*
X158859695Y-76354911D01*
X158810063Y-76368728D01*
X158810342Y-76370040D01*
X158612437Y-76412105D01*
X158439509Y-76489098D01*
X158286369Y-76600360D01*
X158159706Y-76741033D01*
X158065060Y-76904965D01*
X158006566Y-77084992D01*
X157986780Y-77273250D01*
X158006566Y-77461507D01*
X158065060Y-77641534D01*
X158159706Y-77805466D01*
X158286369Y-77946139D01*
X158439509Y-78057401D01*
X158612433Y-78134393D01*
X158612436Y-78134393D01*
X158612437Y-78134394D01*
X158727803Y-78158915D01*
X158754411Y-78167818D01*
X158808568Y-78193072D01*
X158811749Y-78194612D01*
X158878807Y-78228290D01*
X158878808Y-78228290D01*
X158879941Y-78228859D01*
X158898324Y-78235248D01*
X158899561Y-78235503D01*
X158899567Y-78235506D01*
X158973102Y-78250689D01*
X158976449Y-78251431D01*
X159049519Y-78268750D01*
X159049521Y-78268750D01*
X159050745Y-78269040D01*
X159070116Y-78271019D01*
X159071380Y-78270982D01*
X159071384Y-78270983D01*
X159146350Y-78268802D01*
X159149956Y-78268750D01*
X159574920Y-78268750D01*
X159630425Y-78281866D01*
X159674186Y-78318438D01*
X159679694Y-78325796D01*
X159794909Y-78412046D01*
X159929757Y-78462341D01*
X159989367Y-78468750D01*
X162885112Y-78468749D01*
X162944723Y-78462341D01*
X163079571Y-78412046D01*
X163194786Y-78325796D01*
X163281036Y-78210581D01*
X163331331Y-78075733D01*
X163337740Y-78016123D01*
X163337739Y-77083030D01*
X163351254Y-77026736D01*
X163388854Y-76982713D01*
X163442341Y-76960558D01*
X163500057Y-76965100D01*
X163549418Y-76995349D01*
X163594542Y-77040472D01*
X164525421Y-77971351D01*
X164552301Y-78011579D01*
X164561740Y-78059032D01*
X164561740Y-86616119D01*
X164563313Y-86630748D01*
X164568149Y-86675733D01*
X164618444Y-86810581D01*
X164704694Y-86925796D01*
X164819909Y-87012046D01*
X164954757Y-87062341D01*
X165014367Y-87068750D01*
X168810112Y-87068749D01*
X168869723Y-87062341D01*
X169004571Y-87012046D01*
X169119786Y-86925796D01*
X169206036Y-86810581D01*
X169256331Y-86675733D01*
X169256330Y-86675733D01*
X169261774Y-86661140D01*
X169262543Y-86661427D01*
X169276528Y-86623244D01*
X169321091Y-86583217D01*
X169379217Y-86568749D01*
X170887740Y-86568749D01*
X170949740Y-86585362D01*
X170995127Y-86630748D01*
X171011740Y-86692748D01*
X171011740Y-86816119D01*
X171018149Y-86875734D01*
X171036821Y-86925795D01*
X171068444Y-87010581D01*
X171154694Y-87125796D01*
X171269909Y-87212046D01*
X171404757Y-87262341D01*
X171464367Y-87268750D01*
X173110112Y-87268749D01*
X173169723Y-87262341D01*
X173304571Y-87212046D01*
X173419786Y-87125796D01*
X173506036Y-87010581D01*
X173556331Y-86875733D01*
X173562740Y-86816123D01*
X173562739Y-76620378D01*
X173556331Y-76560767D01*
X173506036Y-76425919D01*
X173419786Y-76310704D01*
X173304571Y-76224454D01*
X173169723Y-76174159D01*
X173110113Y-76167750D01*
X173110109Y-76167750D01*
X171464370Y-76167750D01*
X171404755Y-76174159D01*
X171269909Y-76224454D01*
X171154694Y-76310704D01*
X171068444Y-76425918D01*
X171018149Y-76560765D01*
X171018149Y-76560767D01*
X171012255Y-76615592D01*
X171011740Y-76620381D01*
X171011740Y-76743750D01*
X170995127Y-76805750D01*
X170949740Y-76851137D01*
X170887740Y-76867750D01*
X169379216Y-76867750D01*
X169321087Y-76853281D01*
X169276524Y-76813251D01*
X169262543Y-76775072D01*
X169261774Y-76775360D01*
X169248971Y-76741033D01*
X169206036Y-76625919D01*
X169119786Y-76510704D01*
X169004571Y-76424454D01*
X168869723Y-76374159D01*
X168810113Y-76367750D01*
X168810109Y-76367750D01*
X165803022Y-76367750D01*
X165755569Y-76358311D01*
X165715341Y-76331431D01*
X164499252Y-75115342D01*
X173478596Y-75115342D01*
X173498382Y-75303599D01*
X173556876Y-75483626D01*
X173651522Y-75647558D01*
X173778185Y-75788231D01*
X173931325Y-75899493D01*
X174104253Y-75976486D01*
X174289408Y-76015842D01*
X174289410Y-76015842D01*
X174318385Y-76015842D01*
X174378817Y-76031565D01*
X174406723Y-76058279D01*
X174408651Y-76056352D01*
X174551138Y-76198839D01*
X174551105Y-76198871D01*
X174581606Y-76229518D01*
X174599382Y-76284494D01*
X174590316Y-76341557D01*
X174545196Y-76450487D01*
X174529740Y-76567887D01*
X174529740Y-78071612D01*
X174545195Y-78189010D01*
X174605704Y-78335091D01*
X174701957Y-78460532D01*
X174776891Y-78518030D01*
X174827399Y-78556786D01*
X174973478Y-78617294D01*
X175090879Y-78632750D01*
X175369600Y-78632749D01*
X175369602Y-78632749D01*
X175416560Y-78626567D01*
X175487002Y-78617294D01*
X175507789Y-78608683D01*
X175555240Y-78599245D01*
X175602690Y-78608683D01*
X175623478Y-78617294D01*
X175740879Y-78632750D01*
X176019600Y-78632749D01*
X176019602Y-78632749D01*
X176066560Y-78626567D01*
X176137002Y-78617294D01*
X176157789Y-78608683D01*
X176205240Y-78599245D01*
X176252690Y-78608683D01*
X176273478Y-78617294D01*
X176390879Y-78632750D01*
X176669600Y-78632749D01*
X176669602Y-78632749D01*
X176716560Y-78626567D01*
X176787002Y-78617294D01*
X176807789Y-78608683D01*
X176855240Y-78599245D01*
X176902690Y-78608683D01*
X176923478Y-78617294D01*
X177040879Y-78632750D01*
X177319600Y-78632749D01*
X177319602Y-78632749D01*
X177378300Y-78625021D01*
X177437002Y-78617294D01*
X177583081Y-78556786D01*
X177708522Y-78460532D01*
X177804776Y-78335091D01*
X177865284Y-78189012D01*
X177880740Y-78071611D01*
X177880739Y-76567890D01*
X177880043Y-76562606D01*
X177865284Y-76450489D01*
X177865283Y-76450487D01*
X177815178Y-76329523D01*
X177805740Y-76282071D01*
X177805740Y-76221802D01*
X177815179Y-76174349D01*
X177842059Y-76134121D01*
X177919829Y-76056351D01*
X177921528Y-76058050D01*
X177950336Y-76030472D01*
X178010768Y-76014750D01*
X178036888Y-76014750D01*
X178188470Y-75982530D01*
X178222043Y-75975394D01*
X178394970Y-75898401D01*
X178503482Y-75819563D01*
X178548110Y-75787139D01*
X178572029Y-75760575D01*
X178674773Y-75646466D01*
X178769419Y-75482534D01*
X178827914Y-75302506D01*
X178847700Y-75114250D01*
X178827914Y-74925994D01*
X178769774Y-74747058D01*
X178769419Y-74745965D01*
X178674773Y-74582033D01*
X178548110Y-74441360D01*
X178394970Y-74330098D01*
X178222042Y-74253105D01*
X178036888Y-74213750D01*
X178036886Y-74213750D01*
X177847594Y-74213750D01*
X177847592Y-74213750D01*
X177662437Y-74253105D01*
X177489510Y-74330098D01*
X177435870Y-74369069D01*
X177401303Y-74386681D01*
X177362986Y-74392750D01*
X176677563Y-74392750D01*
X176576487Y-74403075D01*
X176412724Y-74457341D01*
X176265887Y-74547911D01*
X176251921Y-74561878D01*
X176196334Y-74593972D01*
X176132146Y-74593972D01*
X176076559Y-74561878D01*
X176062592Y-74547911D01*
X175915755Y-74457341D01*
X175751993Y-74403075D01*
X175660284Y-74393707D01*
X175650916Y-74392750D01*
X174961806Y-74392750D01*
X174923488Y-74386681D01*
X174888921Y-74369068D01*
X174836786Y-74331190D01*
X174663858Y-74254197D01*
X174478704Y-74214842D01*
X174478702Y-74214842D01*
X174289410Y-74214842D01*
X174289408Y-74214842D01*
X174104253Y-74254197D01*
X173931325Y-74331190D01*
X173778185Y-74442452D01*
X173651522Y-74583125D01*
X173556876Y-74747057D01*
X173498382Y-74927084D01*
X173478596Y-75115342D01*
X164499252Y-75115342D01*
X164296819Y-74912909D01*
X164269939Y-74872681D01*
X164260500Y-74825228D01*
X164260500Y-74123393D01*
X164258679Y-74104904D01*
X164270870Y-74037906D01*
X164316602Y-73987449D01*
X164382082Y-73968750D01*
X167658241Y-73968750D01*
X167684406Y-73965304D01*
X167789074Y-73951525D01*
X167851074Y-73934912D01*
X167972990Y-73884413D01*
X168077682Y-73804079D01*
X168123069Y-73758692D01*
X168203403Y-73654000D01*
X168253902Y-73532084D01*
X168270515Y-73470084D01*
X168287740Y-73339250D01*
X168287740Y-65128134D01*
X168287740Y-65128131D01*
X168268516Y-64990054D01*
X168268515Y-64990050D01*
X168250010Y-64924883D01*
X168193798Y-64797305D01*
X168104875Y-64689934D01*
X168054884Y-64644217D01*
X168054882Y-64644215D01*
X167978302Y-64591550D01*
X167940012Y-64565218D01*
X167862055Y-64538885D01*
X167818057Y-64512912D01*
X167788265Y-64471403D01*
X167777739Y-64421406D01*
X167777739Y-63685380D01*
X167777739Y-63685378D01*
X167771331Y-63625767D01*
X167721036Y-63490919D01*
X167634786Y-63375704D01*
X167519571Y-63289454D01*
X167384723Y-63239159D01*
X167325113Y-63232750D01*
X167325109Y-63232750D01*
X164429370Y-63232750D01*
X164369755Y-63239159D01*
X164234909Y-63289453D01*
X164234909Y-63289454D01*
X164119694Y-63375704D01*
X164114186Y-63383061D01*
X164070425Y-63419634D01*
X164014920Y-63432750D01*
X163514036Y-63432750D01*
X163463601Y-63422030D01*
X163421886Y-63391722D01*
X163407463Y-63375704D01*
X163369089Y-63333085D01*
X163345476Y-63294552D01*
X163337240Y-63250114D01*
X163337240Y-51362250D01*
X163353853Y-51300250D01*
X163399240Y-51254863D01*
X163461240Y-51238250D01*
X173208424Y-51238250D01*
X173260940Y-51249920D01*
G37*
%TD.AperFunction*%
%TD*%
M02*
