%TF.GenerationSoftware,KiCad,Pcbnew,7.0.6*%
%TF.CreationDate,2023-12-21T21:59:25+03:00*%
%TF.ProjectId,_______ _____,21383b3e-3230-44f2-903f-3b3042302e6b,rev?*%
%TF.SameCoordinates,Original*%
%TF.FileFunction,Legend,Top*%
%TF.FilePolarity,Positive*%
%FSLAX46Y46*%
G04 Gerber Fmt 4.6, Leading zero omitted, Abs format (unit mm)*
G04 Created by KiCad (PCBNEW 7.0.6) date 2023-12-21 21:59:25*
%MOMM*%
%LPD*%
G01*
G04 APERTURE LIST*
%ADD10C,0.150000*%
%ADD11C,0.300000*%
%ADD12C,0.200000*%
%ADD13C,0.120000*%
G04 APERTURE END LIST*
D10*
X118919001Y-68933307D02*
X118823763Y-68885688D01*
X118823763Y-68885688D02*
X118728525Y-68790450D01*
X118728525Y-68790450D02*
X118585668Y-68647592D01*
X118585668Y-68647592D02*
X118490430Y-68599973D01*
X118490430Y-68599973D02*
X118395192Y-68599973D01*
X118442811Y-68838069D02*
X118347573Y-68790450D01*
X118347573Y-68790450D02*
X118252335Y-68695211D01*
X118252335Y-68695211D02*
X118204716Y-68504735D01*
X118204716Y-68504735D02*
X118204716Y-68171402D01*
X118204716Y-68171402D02*
X118252335Y-67980926D01*
X118252335Y-67980926D02*
X118347573Y-67885688D01*
X118347573Y-67885688D02*
X118442811Y-67838069D01*
X118442811Y-67838069D02*
X118633287Y-67838069D01*
X118633287Y-67838069D02*
X118728525Y-67885688D01*
X118728525Y-67885688D02*
X118823763Y-67980926D01*
X118823763Y-67980926D02*
X118871382Y-68171402D01*
X118871382Y-68171402D02*
X118871382Y-68504735D01*
X118871382Y-68504735D02*
X118823763Y-68695211D01*
X118823763Y-68695211D02*
X118728525Y-68790450D01*
X118728525Y-68790450D02*
X118633287Y-68838069D01*
X118633287Y-68838069D02*
X118442811Y-68838069D01*
X119728525Y-67838069D02*
X119538049Y-67838069D01*
X119538049Y-67838069D02*
X119442811Y-67885688D01*
X119442811Y-67885688D02*
X119395192Y-67933307D01*
X119395192Y-67933307D02*
X119299954Y-68076164D01*
X119299954Y-68076164D02*
X119252335Y-68266640D01*
X119252335Y-68266640D02*
X119252335Y-68647592D01*
X119252335Y-68647592D02*
X119299954Y-68742830D01*
X119299954Y-68742830D02*
X119347573Y-68790450D01*
X119347573Y-68790450D02*
X119442811Y-68838069D01*
X119442811Y-68838069D02*
X119633287Y-68838069D01*
X119633287Y-68838069D02*
X119728525Y-68790450D01*
X119728525Y-68790450D02*
X119776144Y-68742830D01*
X119776144Y-68742830D02*
X119823763Y-68647592D01*
X119823763Y-68647592D02*
X119823763Y-68409497D01*
X119823763Y-68409497D02*
X119776144Y-68314259D01*
X119776144Y-68314259D02*
X119728525Y-68266640D01*
X119728525Y-68266640D02*
X119633287Y-68219021D01*
X119633287Y-68219021D02*
X119442811Y-68219021D01*
X119442811Y-68219021D02*
X119347573Y-68266640D01*
X119347573Y-68266640D02*
X119299954Y-68314259D01*
X119299954Y-68314259D02*
X119252335Y-68409497D01*
X142541001Y-46454307D02*
X142445763Y-46406688D01*
X142445763Y-46406688D02*
X142350525Y-46311450D01*
X142350525Y-46311450D02*
X142207668Y-46168592D01*
X142207668Y-46168592D02*
X142112430Y-46120973D01*
X142112430Y-46120973D02*
X142017192Y-46120973D01*
X142064811Y-46359069D02*
X141969573Y-46311450D01*
X141969573Y-46311450D02*
X141874335Y-46216211D01*
X141874335Y-46216211D02*
X141826716Y-46025735D01*
X141826716Y-46025735D02*
X141826716Y-45692402D01*
X141826716Y-45692402D02*
X141874335Y-45501926D01*
X141874335Y-45501926D02*
X141969573Y-45406688D01*
X141969573Y-45406688D02*
X142064811Y-45359069D01*
X142064811Y-45359069D02*
X142255287Y-45359069D01*
X142255287Y-45359069D02*
X142350525Y-45406688D01*
X142350525Y-45406688D02*
X142445763Y-45501926D01*
X142445763Y-45501926D02*
X142493382Y-45692402D01*
X142493382Y-45692402D02*
X142493382Y-46025735D01*
X142493382Y-46025735D02*
X142445763Y-46216211D01*
X142445763Y-46216211D02*
X142350525Y-46311450D01*
X142350525Y-46311450D02*
X142255287Y-46359069D01*
X142255287Y-46359069D02*
X142064811Y-46359069D01*
X143398144Y-45359069D02*
X142921954Y-45359069D01*
X142921954Y-45359069D02*
X142874335Y-45835259D01*
X142874335Y-45835259D02*
X142921954Y-45787640D01*
X142921954Y-45787640D02*
X143017192Y-45740021D01*
X143017192Y-45740021D02*
X143255287Y-45740021D01*
X143255287Y-45740021D02*
X143350525Y-45787640D01*
X143350525Y-45787640D02*
X143398144Y-45835259D01*
X143398144Y-45835259D02*
X143445763Y-45930497D01*
X143445763Y-45930497D02*
X143445763Y-46168592D01*
X143445763Y-46168592D02*
X143398144Y-46263830D01*
X143398144Y-46263830D02*
X143350525Y-46311450D01*
X143350525Y-46311450D02*
X143255287Y-46359069D01*
X143255287Y-46359069D02*
X143017192Y-46359069D01*
X143017192Y-46359069D02*
X142921954Y-46311450D01*
X142921954Y-46311450D02*
X142874335Y-46263830D01*
X155749001Y-46454307D02*
X155653763Y-46406688D01*
X155653763Y-46406688D02*
X155558525Y-46311450D01*
X155558525Y-46311450D02*
X155415668Y-46168592D01*
X155415668Y-46168592D02*
X155320430Y-46120973D01*
X155320430Y-46120973D02*
X155225192Y-46120973D01*
X155272811Y-46359069D02*
X155177573Y-46311450D01*
X155177573Y-46311450D02*
X155082335Y-46216211D01*
X155082335Y-46216211D02*
X155034716Y-46025735D01*
X155034716Y-46025735D02*
X155034716Y-45692402D01*
X155034716Y-45692402D02*
X155082335Y-45501926D01*
X155082335Y-45501926D02*
X155177573Y-45406688D01*
X155177573Y-45406688D02*
X155272811Y-45359069D01*
X155272811Y-45359069D02*
X155463287Y-45359069D01*
X155463287Y-45359069D02*
X155558525Y-45406688D01*
X155558525Y-45406688D02*
X155653763Y-45501926D01*
X155653763Y-45501926D02*
X155701382Y-45692402D01*
X155701382Y-45692402D02*
X155701382Y-46025735D01*
X155701382Y-46025735D02*
X155653763Y-46216211D01*
X155653763Y-46216211D02*
X155558525Y-46311450D01*
X155558525Y-46311450D02*
X155463287Y-46359069D01*
X155463287Y-46359069D02*
X155272811Y-46359069D01*
X156082335Y-45454307D02*
X156129954Y-45406688D01*
X156129954Y-45406688D02*
X156225192Y-45359069D01*
X156225192Y-45359069D02*
X156463287Y-45359069D01*
X156463287Y-45359069D02*
X156558525Y-45406688D01*
X156558525Y-45406688D02*
X156606144Y-45454307D01*
X156606144Y-45454307D02*
X156653763Y-45549545D01*
X156653763Y-45549545D02*
X156653763Y-45644783D01*
X156653763Y-45644783D02*
X156606144Y-45787640D01*
X156606144Y-45787640D02*
X156034716Y-46359069D01*
X156034716Y-46359069D02*
X156653763Y-46359069D01*
X179625001Y-68933307D02*
X179529763Y-68885688D01*
X179529763Y-68885688D02*
X179434525Y-68790450D01*
X179434525Y-68790450D02*
X179291668Y-68647592D01*
X179291668Y-68647592D02*
X179196430Y-68599973D01*
X179196430Y-68599973D02*
X179101192Y-68599973D01*
X179148811Y-68838069D02*
X179053573Y-68790450D01*
X179053573Y-68790450D02*
X178958335Y-68695211D01*
X178958335Y-68695211D02*
X178910716Y-68504735D01*
X178910716Y-68504735D02*
X178910716Y-68171402D01*
X178910716Y-68171402D02*
X178958335Y-67980926D01*
X178958335Y-67980926D02*
X179053573Y-67885688D01*
X179053573Y-67885688D02*
X179148811Y-67838069D01*
X179148811Y-67838069D02*
X179339287Y-67838069D01*
X179339287Y-67838069D02*
X179434525Y-67885688D01*
X179434525Y-67885688D02*
X179529763Y-67980926D01*
X179529763Y-67980926D02*
X179577382Y-68171402D01*
X179577382Y-68171402D02*
X179577382Y-68504735D01*
X179577382Y-68504735D02*
X179529763Y-68695211D01*
X179529763Y-68695211D02*
X179434525Y-68790450D01*
X179434525Y-68790450D02*
X179339287Y-68838069D01*
X179339287Y-68838069D02*
X179148811Y-68838069D01*
X180434525Y-68171402D02*
X180434525Y-68838069D01*
X180196430Y-67790450D02*
X179958335Y-68504735D01*
X179958335Y-68504735D02*
X180577382Y-68504735D01*
X167687001Y-89507307D02*
X167591763Y-89459688D01*
X167591763Y-89459688D02*
X167496525Y-89364450D01*
X167496525Y-89364450D02*
X167353668Y-89221592D01*
X167353668Y-89221592D02*
X167258430Y-89173973D01*
X167258430Y-89173973D02*
X167163192Y-89173973D01*
X167210811Y-89412069D02*
X167115573Y-89364450D01*
X167115573Y-89364450D02*
X167020335Y-89269211D01*
X167020335Y-89269211D02*
X166972716Y-89078735D01*
X166972716Y-89078735D02*
X166972716Y-88745402D01*
X166972716Y-88745402D02*
X167020335Y-88554926D01*
X167020335Y-88554926D02*
X167115573Y-88459688D01*
X167115573Y-88459688D02*
X167210811Y-88412069D01*
X167210811Y-88412069D02*
X167401287Y-88412069D01*
X167401287Y-88412069D02*
X167496525Y-88459688D01*
X167496525Y-88459688D02*
X167591763Y-88554926D01*
X167591763Y-88554926D02*
X167639382Y-88745402D01*
X167639382Y-88745402D02*
X167639382Y-89078735D01*
X167639382Y-89078735D02*
X167591763Y-89269211D01*
X167591763Y-89269211D02*
X167496525Y-89364450D01*
X167496525Y-89364450D02*
X167401287Y-89412069D01*
X167401287Y-89412069D02*
X167210811Y-89412069D01*
X168591763Y-89412069D02*
X168020335Y-89412069D01*
X168306049Y-89412069D02*
X168306049Y-88412069D01*
X168306049Y-88412069D02*
X168210811Y-88554926D01*
X168210811Y-88554926D02*
X168115573Y-88650164D01*
X168115573Y-88650164D02*
X168020335Y-88697783D01*
X157019001Y-98270307D02*
X156923763Y-98222688D01*
X156923763Y-98222688D02*
X156828525Y-98127450D01*
X156828525Y-98127450D02*
X156685668Y-97984592D01*
X156685668Y-97984592D02*
X156590430Y-97936973D01*
X156590430Y-97936973D02*
X156495192Y-97936973D01*
X156542811Y-98175069D02*
X156447573Y-98127450D01*
X156447573Y-98127450D02*
X156352335Y-98032211D01*
X156352335Y-98032211D02*
X156304716Y-97841735D01*
X156304716Y-97841735D02*
X156304716Y-97508402D01*
X156304716Y-97508402D02*
X156352335Y-97317926D01*
X156352335Y-97317926D02*
X156447573Y-97222688D01*
X156447573Y-97222688D02*
X156542811Y-97175069D01*
X156542811Y-97175069D02*
X156733287Y-97175069D01*
X156733287Y-97175069D02*
X156828525Y-97222688D01*
X156828525Y-97222688D02*
X156923763Y-97317926D01*
X156923763Y-97317926D02*
X156971382Y-97508402D01*
X156971382Y-97508402D02*
X156971382Y-97841735D01*
X156971382Y-97841735D02*
X156923763Y-98032211D01*
X156923763Y-98032211D02*
X156828525Y-98127450D01*
X156828525Y-98127450D02*
X156733287Y-98175069D01*
X156733287Y-98175069D02*
X156542811Y-98175069D01*
X157304716Y-97175069D02*
X157971382Y-97175069D01*
X157971382Y-97175069D02*
X157542811Y-98175069D01*
X130857001Y-89380307D02*
X130761763Y-89332688D01*
X130761763Y-89332688D02*
X130666525Y-89237450D01*
X130666525Y-89237450D02*
X130523668Y-89094592D01*
X130523668Y-89094592D02*
X130428430Y-89046973D01*
X130428430Y-89046973D02*
X130333192Y-89046973D01*
X130380811Y-89285069D02*
X130285573Y-89237450D01*
X130285573Y-89237450D02*
X130190335Y-89142211D01*
X130190335Y-89142211D02*
X130142716Y-88951735D01*
X130142716Y-88951735D02*
X130142716Y-88618402D01*
X130142716Y-88618402D02*
X130190335Y-88427926D01*
X130190335Y-88427926D02*
X130285573Y-88332688D01*
X130285573Y-88332688D02*
X130380811Y-88285069D01*
X130380811Y-88285069D02*
X130571287Y-88285069D01*
X130571287Y-88285069D02*
X130666525Y-88332688D01*
X130666525Y-88332688D02*
X130761763Y-88427926D01*
X130761763Y-88427926D02*
X130809382Y-88618402D01*
X130809382Y-88618402D02*
X130809382Y-88951735D01*
X130809382Y-88951735D02*
X130761763Y-89142211D01*
X130761763Y-89142211D02*
X130666525Y-89237450D01*
X130666525Y-89237450D02*
X130571287Y-89285069D01*
X130571287Y-89285069D02*
X130380811Y-89285069D01*
X131142716Y-88285069D02*
X131761763Y-88285069D01*
X131761763Y-88285069D02*
X131428430Y-88666021D01*
X131428430Y-88666021D02*
X131571287Y-88666021D01*
X131571287Y-88666021D02*
X131666525Y-88713640D01*
X131666525Y-88713640D02*
X131714144Y-88761259D01*
X131714144Y-88761259D02*
X131761763Y-88856497D01*
X131761763Y-88856497D02*
X131761763Y-89094592D01*
X131761763Y-89094592D02*
X131714144Y-89189830D01*
X131714144Y-89189830D02*
X131666525Y-89237450D01*
X131666525Y-89237450D02*
X131571287Y-89285069D01*
X131571287Y-89285069D02*
X131285573Y-89285069D01*
X131285573Y-89285069D02*
X131190335Y-89237450D01*
X131190335Y-89237450D02*
X131142716Y-89189830D01*
X131888906Y-121051069D02*
X131888906Y-121765354D01*
X131888906Y-121765354D02*
X131841287Y-121908211D01*
X131841287Y-121908211D02*
X131746049Y-122003450D01*
X131746049Y-122003450D02*
X131603192Y-122051069D01*
X131603192Y-122051069D02*
X131507954Y-122051069D01*
X132507954Y-121479640D02*
X132412716Y-121432021D01*
X132412716Y-121432021D02*
X132365097Y-121384402D01*
X132365097Y-121384402D02*
X132317478Y-121289164D01*
X132317478Y-121289164D02*
X132317478Y-121241545D01*
X132317478Y-121241545D02*
X132365097Y-121146307D01*
X132365097Y-121146307D02*
X132412716Y-121098688D01*
X132412716Y-121098688D02*
X132507954Y-121051069D01*
X132507954Y-121051069D02*
X132698430Y-121051069D01*
X132698430Y-121051069D02*
X132793668Y-121098688D01*
X132793668Y-121098688D02*
X132841287Y-121146307D01*
X132841287Y-121146307D02*
X132888906Y-121241545D01*
X132888906Y-121241545D02*
X132888906Y-121289164D01*
X132888906Y-121289164D02*
X132841287Y-121384402D01*
X132841287Y-121384402D02*
X132793668Y-121432021D01*
X132793668Y-121432021D02*
X132698430Y-121479640D01*
X132698430Y-121479640D02*
X132507954Y-121479640D01*
X132507954Y-121479640D02*
X132412716Y-121527259D01*
X132412716Y-121527259D02*
X132365097Y-121574878D01*
X132365097Y-121574878D02*
X132317478Y-121670116D01*
X132317478Y-121670116D02*
X132317478Y-121860592D01*
X132317478Y-121860592D02*
X132365097Y-121955830D01*
X132365097Y-121955830D02*
X132412716Y-122003450D01*
X132412716Y-122003450D02*
X132507954Y-122051069D01*
X132507954Y-122051069D02*
X132698430Y-122051069D01*
X132698430Y-122051069D02*
X132793668Y-122003450D01*
X132793668Y-122003450D02*
X132841287Y-121955830D01*
X132841287Y-121955830D02*
X132888906Y-121860592D01*
X132888906Y-121860592D02*
X132888906Y-121670116D01*
X132888906Y-121670116D02*
X132841287Y-121574878D01*
X132841287Y-121574878D02*
X132793668Y-121527259D01*
X132793668Y-121527259D02*
X132698430Y-121479640D01*
X166813906Y-121051069D02*
X166813906Y-121765354D01*
X166813906Y-121765354D02*
X166766287Y-121908211D01*
X166766287Y-121908211D02*
X166671049Y-122003450D01*
X166671049Y-122003450D02*
X166528192Y-122051069D01*
X166528192Y-122051069D02*
X166432954Y-122051069D01*
X167242478Y-121146307D02*
X167290097Y-121098688D01*
X167290097Y-121098688D02*
X167385335Y-121051069D01*
X167385335Y-121051069D02*
X167623430Y-121051069D01*
X167623430Y-121051069D02*
X167718668Y-121098688D01*
X167718668Y-121098688D02*
X167766287Y-121146307D01*
X167766287Y-121146307D02*
X167813906Y-121241545D01*
X167813906Y-121241545D02*
X167813906Y-121336783D01*
X167813906Y-121336783D02*
X167766287Y-121479640D01*
X167766287Y-121479640D02*
X167194859Y-122051069D01*
X167194859Y-122051069D02*
X167813906Y-122051069D01*
X144915954Y-98006354D02*
X144877858Y-98044450D01*
X144877858Y-98044450D02*
X144763573Y-98082545D01*
X144763573Y-98082545D02*
X144687382Y-98082545D01*
X144687382Y-98082545D02*
X144573096Y-98044450D01*
X144573096Y-98044450D02*
X144496906Y-97968259D01*
X144496906Y-97968259D02*
X144458811Y-97892069D01*
X144458811Y-97892069D02*
X144420715Y-97739688D01*
X144420715Y-97739688D02*
X144420715Y-97625402D01*
X144420715Y-97625402D02*
X144458811Y-97473021D01*
X144458811Y-97473021D02*
X144496906Y-97396830D01*
X144496906Y-97396830D02*
X144573096Y-97320640D01*
X144573096Y-97320640D02*
X144687382Y-97282545D01*
X144687382Y-97282545D02*
X144763573Y-97282545D01*
X144763573Y-97282545D02*
X144877858Y-97320640D01*
X144877858Y-97320640D02*
X144915954Y-97358735D01*
X145677858Y-98082545D02*
X145220715Y-98082545D01*
X145449287Y-98082545D02*
X145449287Y-97282545D01*
X145449287Y-97282545D02*
X145373096Y-97396830D01*
X145373096Y-97396830D02*
X145296906Y-97473021D01*
X145296906Y-97473021D02*
X145220715Y-97511116D01*
X146363573Y-97549211D02*
X146363573Y-98082545D01*
X146173097Y-97244450D02*
X145982620Y-97815878D01*
X145982620Y-97815878D02*
X146477859Y-97815878D01*
X126808906Y-52471069D02*
X126808906Y-53185354D01*
X126808906Y-53185354D02*
X126761287Y-53328211D01*
X126761287Y-53328211D02*
X126666049Y-53423450D01*
X126666049Y-53423450D02*
X126523192Y-53471069D01*
X126523192Y-53471069D02*
X126427954Y-53471069D01*
X127713668Y-52804402D02*
X127713668Y-53471069D01*
X127475573Y-52423450D02*
X127237478Y-53137735D01*
X127237478Y-53137735D02*
X127856525Y-53137735D01*
D11*
X133603287Y-58942411D02*
X133508049Y-59037650D01*
X133508049Y-59037650D02*
X133222335Y-59132888D01*
X133222335Y-59132888D02*
X133031859Y-59132888D01*
X133031859Y-59132888D02*
X132746144Y-59037650D01*
X132746144Y-59037650D02*
X132555668Y-58847173D01*
X132555668Y-58847173D02*
X132460430Y-58656697D01*
X132460430Y-58656697D02*
X132365192Y-58275745D01*
X132365192Y-58275745D02*
X132365192Y-57990030D01*
X132365192Y-57990030D02*
X132460430Y-57609078D01*
X132460430Y-57609078D02*
X132555668Y-57418602D01*
X132555668Y-57418602D02*
X132746144Y-57228126D01*
X132746144Y-57228126D02*
X133031859Y-57132888D01*
X133031859Y-57132888D02*
X133222335Y-57132888D01*
X133222335Y-57132888D02*
X133508049Y-57228126D01*
X133508049Y-57228126D02*
X133603287Y-57323364D01*
D10*
X171258906Y-53233069D02*
X171258906Y-53947354D01*
X171258906Y-53947354D02*
X171211287Y-54090211D01*
X171211287Y-54090211D02*
X171116049Y-54185450D01*
X171116049Y-54185450D02*
X170973192Y-54233069D01*
X170973192Y-54233069D02*
X170877954Y-54233069D01*
X172258906Y-54233069D02*
X171687478Y-54233069D01*
X171973192Y-54233069D02*
X171973192Y-53233069D01*
X171973192Y-53233069D02*
X171877954Y-53375926D01*
X171877954Y-53375926D02*
X171782716Y-53471164D01*
X171782716Y-53471164D02*
X171687478Y-53518783D01*
D11*
X165274049Y-58561459D02*
X166226430Y-58561459D01*
X165083573Y-59132888D02*
X165750239Y-57132888D01*
X165750239Y-57132888D02*
X166416906Y-59132888D01*
D10*
X145041382Y-115605830D02*
X144993763Y-115653450D01*
X144993763Y-115653450D02*
X144850906Y-115701069D01*
X144850906Y-115701069D02*
X144755668Y-115701069D01*
X144755668Y-115701069D02*
X144612811Y-115653450D01*
X144612811Y-115653450D02*
X144517573Y-115558211D01*
X144517573Y-115558211D02*
X144469954Y-115462973D01*
X144469954Y-115462973D02*
X144422335Y-115272497D01*
X144422335Y-115272497D02*
X144422335Y-115129640D01*
X144422335Y-115129640D02*
X144469954Y-114939164D01*
X144469954Y-114939164D02*
X144517573Y-114843926D01*
X144517573Y-114843926D02*
X144612811Y-114748688D01*
X144612811Y-114748688D02*
X144755668Y-114701069D01*
X144755668Y-114701069D02*
X144850906Y-114701069D01*
X144850906Y-114701069D02*
X144993763Y-114748688D01*
X144993763Y-114748688D02*
X145041382Y-114796307D01*
X145422335Y-114796307D02*
X145469954Y-114748688D01*
X145469954Y-114748688D02*
X145565192Y-114701069D01*
X145565192Y-114701069D02*
X145803287Y-114701069D01*
X145803287Y-114701069D02*
X145898525Y-114748688D01*
X145898525Y-114748688D02*
X145946144Y-114796307D01*
X145946144Y-114796307D02*
X145993763Y-114891545D01*
X145993763Y-114891545D02*
X145993763Y-114986783D01*
X145993763Y-114986783D02*
X145946144Y-115129640D01*
X145946144Y-115129640D02*
X145374716Y-115701069D01*
X145374716Y-115701069D02*
X145993763Y-115701069D01*
X146850906Y-114701069D02*
X146660430Y-114701069D01*
X146660430Y-114701069D02*
X146565192Y-114748688D01*
X146565192Y-114748688D02*
X146517573Y-114796307D01*
X146517573Y-114796307D02*
X146422335Y-114939164D01*
X146422335Y-114939164D02*
X146374716Y-115129640D01*
X146374716Y-115129640D02*
X146374716Y-115510592D01*
X146374716Y-115510592D02*
X146422335Y-115605830D01*
X146422335Y-115605830D02*
X146469954Y-115653450D01*
X146469954Y-115653450D02*
X146565192Y-115701069D01*
X146565192Y-115701069D02*
X146755668Y-115701069D01*
X146755668Y-115701069D02*
X146850906Y-115653450D01*
X146850906Y-115653450D02*
X146898525Y-115605830D01*
X146898525Y-115605830D02*
X146946144Y-115510592D01*
X146946144Y-115510592D02*
X146946144Y-115272497D01*
X146946144Y-115272497D02*
X146898525Y-115177259D01*
X146898525Y-115177259D02*
X146850906Y-115129640D01*
X146850906Y-115129640D02*
X146755668Y-115082021D01*
X146755668Y-115082021D02*
X146565192Y-115082021D01*
X146565192Y-115082021D02*
X146469954Y-115129640D01*
X146469954Y-115129640D02*
X146422335Y-115177259D01*
X146422335Y-115177259D02*
X146374716Y-115272497D01*
X151772382Y-65313830D02*
X151724763Y-65361450D01*
X151724763Y-65361450D02*
X151581906Y-65409069D01*
X151581906Y-65409069D02*
X151486668Y-65409069D01*
X151486668Y-65409069D02*
X151343811Y-65361450D01*
X151343811Y-65361450D02*
X151248573Y-65266211D01*
X151248573Y-65266211D02*
X151200954Y-65170973D01*
X151200954Y-65170973D02*
X151153335Y-64980497D01*
X151153335Y-64980497D02*
X151153335Y-64837640D01*
X151153335Y-64837640D02*
X151200954Y-64647164D01*
X151200954Y-64647164D02*
X151248573Y-64551926D01*
X151248573Y-64551926D02*
X151343811Y-64456688D01*
X151343811Y-64456688D02*
X151486668Y-64409069D01*
X151486668Y-64409069D02*
X151581906Y-64409069D01*
X151581906Y-64409069D02*
X151724763Y-64456688D01*
X151724763Y-64456688D02*
X151772382Y-64504307D01*
X152629525Y-64742402D02*
X152629525Y-65409069D01*
X152391430Y-64361450D02*
X152153335Y-65075735D01*
X152153335Y-65075735D02*
X152772382Y-65075735D01*
X153058097Y-64409069D02*
X153724763Y-64409069D01*
X153724763Y-64409069D02*
X153296192Y-65409069D01*
X141231382Y-115605830D02*
X141183763Y-115653450D01*
X141183763Y-115653450D02*
X141040906Y-115701069D01*
X141040906Y-115701069D02*
X140945668Y-115701069D01*
X140945668Y-115701069D02*
X140802811Y-115653450D01*
X140802811Y-115653450D02*
X140707573Y-115558211D01*
X140707573Y-115558211D02*
X140659954Y-115462973D01*
X140659954Y-115462973D02*
X140612335Y-115272497D01*
X140612335Y-115272497D02*
X140612335Y-115129640D01*
X140612335Y-115129640D02*
X140659954Y-114939164D01*
X140659954Y-114939164D02*
X140707573Y-114843926D01*
X140707573Y-114843926D02*
X140802811Y-114748688D01*
X140802811Y-114748688D02*
X140945668Y-114701069D01*
X140945668Y-114701069D02*
X141040906Y-114701069D01*
X141040906Y-114701069D02*
X141183763Y-114748688D01*
X141183763Y-114748688D02*
X141231382Y-114796307D01*
X141612335Y-114796307D02*
X141659954Y-114748688D01*
X141659954Y-114748688D02*
X141755192Y-114701069D01*
X141755192Y-114701069D02*
X141993287Y-114701069D01*
X141993287Y-114701069D02*
X142088525Y-114748688D01*
X142088525Y-114748688D02*
X142136144Y-114796307D01*
X142136144Y-114796307D02*
X142183763Y-114891545D01*
X142183763Y-114891545D02*
X142183763Y-114986783D01*
X142183763Y-114986783D02*
X142136144Y-115129640D01*
X142136144Y-115129640D02*
X141564716Y-115701069D01*
X141564716Y-115701069D02*
X142183763Y-115701069D01*
X143088525Y-114701069D02*
X142612335Y-114701069D01*
X142612335Y-114701069D02*
X142564716Y-115177259D01*
X142564716Y-115177259D02*
X142612335Y-115129640D01*
X142612335Y-115129640D02*
X142707573Y-115082021D01*
X142707573Y-115082021D02*
X142945668Y-115082021D01*
X142945668Y-115082021D02*
X143040906Y-115129640D01*
X143040906Y-115129640D02*
X143088525Y-115177259D01*
X143088525Y-115177259D02*
X143136144Y-115272497D01*
X143136144Y-115272497D02*
X143136144Y-115510592D01*
X143136144Y-115510592D02*
X143088525Y-115605830D01*
X143088525Y-115605830D02*
X143040906Y-115653450D01*
X143040906Y-115653450D02*
X142945668Y-115701069D01*
X142945668Y-115701069D02*
X142707573Y-115701069D01*
X142707573Y-115701069D02*
X142612335Y-115653450D01*
X142612335Y-115653450D02*
X142564716Y-115605830D01*
X146620906Y-121813069D02*
X146620906Y-122527354D01*
X146620906Y-122527354D02*
X146573287Y-122670211D01*
X146573287Y-122670211D02*
X146478049Y-122765450D01*
X146478049Y-122765450D02*
X146335192Y-122813069D01*
X146335192Y-122813069D02*
X146239954Y-122813069D01*
X147525668Y-121813069D02*
X147335192Y-121813069D01*
X147335192Y-121813069D02*
X147239954Y-121860688D01*
X147239954Y-121860688D02*
X147192335Y-121908307D01*
X147192335Y-121908307D02*
X147097097Y-122051164D01*
X147097097Y-122051164D02*
X147049478Y-122241640D01*
X147049478Y-122241640D02*
X147049478Y-122622592D01*
X147049478Y-122622592D02*
X147097097Y-122717830D01*
X147097097Y-122717830D02*
X147144716Y-122765450D01*
X147144716Y-122765450D02*
X147239954Y-122813069D01*
X147239954Y-122813069D02*
X147430430Y-122813069D01*
X147430430Y-122813069D02*
X147525668Y-122765450D01*
X147525668Y-122765450D02*
X147573287Y-122717830D01*
X147573287Y-122717830D02*
X147620906Y-122622592D01*
X147620906Y-122622592D02*
X147620906Y-122384497D01*
X147620906Y-122384497D02*
X147573287Y-122289259D01*
X147573287Y-122289259D02*
X147525668Y-122241640D01*
X147525668Y-122241640D02*
X147430430Y-122194021D01*
X147430430Y-122194021D02*
X147239954Y-122194021D01*
X147239954Y-122194021D02*
X147144716Y-122241640D01*
X147144716Y-122241640D02*
X147097097Y-122289259D01*
X147097097Y-122289259D02*
X147049478Y-122384497D01*
D11*
X142128526Y-125345888D02*
X142128526Y-123345888D01*
X143080907Y-125345888D02*
X143080907Y-123345888D01*
X143080907Y-123345888D02*
X144223764Y-125345888D01*
X144223764Y-125345888D02*
X144223764Y-123345888D01*
X145176145Y-124583983D02*
X146699955Y-124583983D01*
X145938050Y-125345888D02*
X145938050Y-123822078D01*
D10*
X178347145Y-79887069D02*
X178347145Y-78887069D01*
X178347145Y-78887069D02*
X178585240Y-78887069D01*
X178585240Y-78887069D02*
X178728097Y-78934688D01*
X178728097Y-78934688D02*
X178823335Y-79029926D01*
X178823335Y-79029926D02*
X178870954Y-79125164D01*
X178870954Y-79125164D02*
X178918573Y-79315640D01*
X178918573Y-79315640D02*
X178918573Y-79458497D01*
X178918573Y-79458497D02*
X178870954Y-79648973D01*
X178870954Y-79648973D02*
X178823335Y-79744211D01*
X178823335Y-79744211D02*
X178728097Y-79839450D01*
X178728097Y-79839450D02*
X178585240Y-79887069D01*
X178585240Y-79887069D02*
X178347145Y-79887069D01*
X179299526Y-78982307D02*
X179347145Y-78934688D01*
X179347145Y-78934688D02*
X179442383Y-78887069D01*
X179442383Y-78887069D02*
X179680478Y-78887069D01*
X179680478Y-78887069D02*
X179775716Y-78934688D01*
X179775716Y-78934688D02*
X179823335Y-78982307D01*
X179823335Y-78982307D02*
X179870954Y-79077545D01*
X179870954Y-79077545D02*
X179870954Y-79172783D01*
X179870954Y-79172783D02*
X179823335Y-79315640D01*
X179823335Y-79315640D02*
X179251907Y-79887069D01*
X179251907Y-79887069D02*
X179870954Y-79887069D01*
X137803907Y-98006354D02*
X137765811Y-98044450D01*
X137765811Y-98044450D02*
X137651526Y-98082545D01*
X137651526Y-98082545D02*
X137575335Y-98082545D01*
X137575335Y-98082545D02*
X137461049Y-98044450D01*
X137461049Y-98044450D02*
X137384859Y-97968259D01*
X137384859Y-97968259D02*
X137346764Y-97892069D01*
X137346764Y-97892069D02*
X137308668Y-97739688D01*
X137308668Y-97739688D02*
X137308668Y-97625402D01*
X137308668Y-97625402D02*
X137346764Y-97473021D01*
X137346764Y-97473021D02*
X137384859Y-97396830D01*
X137384859Y-97396830D02*
X137461049Y-97320640D01*
X137461049Y-97320640D02*
X137575335Y-97282545D01*
X137575335Y-97282545D02*
X137651526Y-97282545D01*
X137651526Y-97282545D02*
X137765811Y-97320640D01*
X137765811Y-97320640D02*
X137803907Y-97358735D01*
X138070573Y-97282545D02*
X138565811Y-97282545D01*
X138565811Y-97282545D02*
X138299145Y-97587307D01*
X138299145Y-97587307D02*
X138413430Y-97587307D01*
X138413430Y-97587307D02*
X138489621Y-97625402D01*
X138489621Y-97625402D02*
X138527716Y-97663497D01*
X138527716Y-97663497D02*
X138565811Y-97739688D01*
X138565811Y-97739688D02*
X138565811Y-97930164D01*
X138565811Y-97930164D02*
X138527716Y-98006354D01*
X138527716Y-98006354D02*
X138489621Y-98044450D01*
X138489621Y-98044450D02*
X138413430Y-98082545D01*
X138413430Y-98082545D02*
X138184859Y-98082545D01*
X138184859Y-98082545D02*
X138108668Y-98044450D01*
X138108668Y-98044450D02*
X138070573Y-98006354D01*
X152970906Y-79141069D02*
X152970906Y-79855354D01*
X152970906Y-79855354D02*
X152923287Y-79998211D01*
X152923287Y-79998211D02*
X152828049Y-80093450D01*
X152828049Y-80093450D02*
X152685192Y-80141069D01*
X152685192Y-80141069D02*
X152589954Y-80141069D01*
X153351859Y-79141069D02*
X154018525Y-79141069D01*
X154018525Y-79141069D02*
X153589954Y-80141069D01*
X149033906Y-37993069D02*
X149033906Y-38707354D01*
X149033906Y-38707354D02*
X148986287Y-38850211D01*
X148986287Y-38850211D02*
X148891049Y-38945450D01*
X148891049Y-38945450D02*
X148748192Y-38993069D01*
X148748192Y-38993069D02*
X148652954Y-38993069D01*
X149414859Y-37993069D02*
X150033906Y-37993069D01*
X150033906Y-37993069D02*
X149700573Y-38374021D01*
X149700573Y-38374021D02*
X149843430Y-38374021D01*
X149843430Y-38374021D02*
X149938668Y-38421640D01*
X149938668Y-38421640D02*
X149986287Y-38469259D01*
X149986287Y-38469259D02*
X150033906Y-38564497D01*
X150033906Y-38564497D02*
X150033906Y-38802592D01*
X150033906Y-38802592D02*
X149986287Y-38897830D01*
X149986287Y-38897830D02*
X149938668Y-38945450D01*
X149938668Y-38945450D02*
X149843430Y-38993069D01*
X149843430Y-38993069D02*
X149557716Y-38993069D01*
X149557716Y-38993069D02*
X149462478Y-38945450D01*
X149462478Y-38945450D02*
X149414859Y-38897830D01*
D11*
X149510097Y-49830269D02*
X149795811Y-49925507D01*
X149795811Y-49925507D02*
X149891049Y-50020745D01*
X149891049Y-50020745D02*
X149986287Y-50211221D01*
X149986287Y-50211221D02*
X149986287Y-50496935D01*
X149986287Y-50496935D02*
X149891049Y-50687411D01*
X149891049Y-50687411D02*
X149795811Y-50782650D01*
X149795811Y-50782650D02*
X149605335Y-50877888D01*
X149605335Y-50877888D02*
X148843430Y-50877888D01*
X148843430Y-50877888D02*
X148843430Y-48877888D01*
X148843430Y-48877888D02*
X149510097Y-48877888D01*
X149510097Y-48877888D02*
X149700573Y-48973126D01*
X149700573Y-48973126D02*
X149795811Y-49068364D01*
X149795811Y-49068364D02*
X149891049Y-49258840D01*
X149891049Y-49258840D02*
X149891049Y-49449316D01*
X149891049Y-49449316D02*
X149795811Y-49639792D01*
X149795811Y-49639792D02*
X149700573Y-49735030D01*
X149700573Y-49735030D02*
X149510097Y-49830269D01*
X149510097Y-49830269D02*
X148843430Y-49830269D01*
D10*
X160281382Y-127289830D02*
X160233763Y-127337450D01*
X160233763Y-127337450D02*
X160090906Y-127385069D01*
X160090906Y-127385069D02*
X159995668Y-127385069D01*
X159995668Y-127385069D02*
X159852811Y-127337450D01*
X159852811Y-127337450D02*
X159757573Y-127242211D01*
X159757573Y-127242211D02*
X159709954Y-127146973D01*
X159709954Y-127146973D02*
X159662335Y-126956497D01*
X159662335Y-126956497D02*
X159662335Y-126813640D01*
X159662335Y-126813640D02*
X159709954Y-126623164D01*
X159709954Y-126623164D02*
X159757573Y-126527926D01*
X159757573Y-126527926D02*
X159852811Y-126432688D01*
X159852811Y-126432688D02*
X159995668Y-126385069D01*
X159995668Y-126385069D02*
X160090906Y-126385069D01*
X160090906Y-126385069D02*
X160233763Y-126432688D01*
X160233763Y-126432688D02*
X160281382Y-126480307D01*
X161138525Y-126718402D02*
X161138525Y-127385069D01*
X160900430Y-126337450D02*
X160662335Y-127051735D01*
X160662335Y-127051735D02*
X161281382Y-127051735D01*
X162090906Y-126718402D02*
X162090906Y-127385069D01*
X161852811Y-126337450D02*
X161614716Y-127051735D01*
X161614716Y-127051735D02*
X162233763Y-127051735D01*
X148502145Y-57234569D02*
X148502145Y-56234569D01*
X148502145Y-56234569D02*
X148740240Y-56234569D01*
X148740240Y-56234569D02*
X148883097Y-56282188D01*
X148883097Y-56282188D02*
X148978335Y-56377426D01*
X148978335Y-56377426D02*
X149025954Y-56472664D01*
X149025954Y-56472664D02*
X149073573Y-56663140D01*
X149073573Y-56663140D02*
X149073573Y-56805997D01*
X149073573Y-56805997D02*
X149025954Y-56996473D01*
X149025954Y-56996473D02*
X148978335Y-57091711D01*
X148978335Y-57091711D02*
X148883097Y-57186950D01*
X148883097Y-57186950D02*
X148740240Y-57234569D01*
X148740240Y-57234569D02*
X148502145Y-57234569D01*
X149406907Y-56234569D02*
X150025954Y-56234569D01*
X150025954Y-56234569D02*
X149692621Y-56615521D01*
X149692621Y-56615521D02*
X149835478Y-56615521D01*
X149835478Y-56615521D02*
X149930716Y-56663140D01*
X149930716Y-56663140D02*
X149978335Y-56710759D01*
X149978335Y-56710759D02*
X150025954Y-56805997D01*
X150025954Y-56805997D02*
X150025954Y-57044092D01*
X150025954Y-57044092D02*
X149978335Y-57139330D01*
X149978335Y-57139330D02*
X149930716Y-57186950D01*
X149930716Y-57186950D02*
X149835478Y-57234569D01*
X149835478Y-57234569D02*
X149549764Y-57234569D01*
X149549764Y-57234569D02*
X149454526Y-57186950D01*
X149454526Y-57186950D02*
X149406907Y-57139330D01*
X141232954Y-104102354D02*
X141194858Y-104140450D01*
X141194858Y-104140450D02*
X141080573Y-104178545D01*
X141080573Y-104178545D02*
X141004382Y-104178545D01*
X141004382Y-104178545D02*
X140890096Y-104140450D01*
X140890096Y-104140450D02*
X140813906Y-104064259D01*
X140813906Y-104064259D02*
X140775811Y-103988069D01*
X140775811Y-103988069D02*
X140737715Y-103835688D01*
X140737715Y-103835688D02*
X140737715Y-103721402D01*
X140737715Y-103721402D02*
X140775811Y-103569021D01*
X140775811Y-103569021D02*
X140813906Y-103492830D01*
X140813906Y-103492830D02*
X140890096Y-103416640D01*
X140890096Y-103416640D02*
X141004382Y-103378545D01*
X141004382Y-103378545D02*
X141080573Y-103378545D01*
X141080573Y-103378545D02*
X141194858Y-103416640D01*
X141194858Y-103416640D02*
X141232954Y-103454735D01*
X141537715Y-103454735D02*
X141575811Y-103416640D01*
X141575811Y-103416640D02*
X141652001Y-103378545D01*
X141652001Y-103378545D02*
X141842477Y-103378545D01*
X141842477Y-103378545D02*
X141918668Y-103416640D01*
X141918668Y-103416640D02*
X141956763Y-103454735D01*
X141956763Y-103454735D02*
X141994858Y-103530926D01*
X141994858Y-103530926D02*
X141994858Y-103607116D01*
X141994858Y-103607116D02*
X141956763Y-103721402D01*
X141956763Y-103721402D02*
X141499620Y-104178545D01*
X141499620Y-104178545D02*
X141994858Y-104178545D01*
X142375811Y-104178545D02*
X142528192Y-104178545D01*
X142528192Y-104178545D02*
X142604382Y-104140450D01*
X142604382Y-104140450D02*
X142642478Y-104102354D01*
X142642478Y-104102354D02*
X142718668Y-103988069D01*
X142718668Y-103988069D02*
X142756763Y-103835688D01*
X142756763Y-103835688D02*
X142756763Y-103530926D01*
X142756763Y-103530926D02*
X142718668Y-103454735D01*
X142718668Y-103454735D02*
X142680573Y-103416640D01*
X142680573Y-103416640D02*
X142604382Y-103378545D01*
X142604382Y-103378545D02*
X142452001Y-103378545D01*
X142452001Y-103378545D02*
X142375811Y-103416640D01*
X142375811Y-103416640D02*
X142337716Y-103454735D01*
X142337716Y-103454735D02*
X142299620Y-103530926D01*
X142299620Y-103530926D02*
X142299620Y-103721402D01*
X142299620Y-103721402D02*
X142337716Y-103797592D01*
X142337716Y-103797592D02*
X142375811Y-103835688D01*
X142375811Y-103835688D02*
X142452001Y-103873783D01*
X142452001Y-103873783D02*
X142604382Y-103873783D01*
X142604382Y-103873783D02*
X142680573Y-103835688D01*
X142680573Y-103835688D02*
X142718668Y-103797592D01*
X142718668Y-103797592D02*
X142756763Y-103721402D01*
X118752382Y-75727830D02*
X118704763Y-75775450D01*
X118704763Y-75775450D02*
X118561906Y-75823069D01*
X118561906Y-75823069D02*
X118466668Y-75823069D01*
X118466668Y-75823069D02*
X118323811Y-75775450D01*
X118323811Y-75775450D02*
X118228573Y-75680211D01*
X118228573Y-75680211D02*
X118180954Y-75584973D01*
X118180954Y-75584973D02*
X118133335Y-75394497D01*
X118133335Y-75394497D02*
X118133335Y-75251640D01*
X118133335Y-75251640D02*
X118180954Y-75061164D01*
X118180954Y-75061164D02*
X118228573Y-74965926D01*
X118228573Y-74965926D02*
X118323811Y-74870688D01*
X118323811Y-74870688D02*
X118466668Y-74823069D01*
X118466668Y-74823069D02*
X118561906Y-74823069D01*
X118561906Y-74823069D02*
X118704763Y-74870688D01*
X118704763Y-74870688D02*
X118752382Y-74918307D01*
X119609525Y-75156402D02*
X119609525Y-75823069D01*
X119371430Y-74775450D02*
X119133335Y-75489735D01*
X119133335Y-75489735D02*
X119752382Y-75489735D01*
X120276192Y-75251640D02*
X120180954Y-75204021D01*
X120180954Y-75204021D02*
X120133335Y-75156402D01*
X120133335Y-75156402D02*
X120085716Y-75061164D01*
X120085716Y-75061164D02*
X120085716Y-75013545D01*
X120085716Y-75013545D02*
X120133335Y-74918307D01*
X120133335Y-74918307D02*
X120180954Y-74870688D01*
X120180954Y-74870688D02*
X120276192Y-74823069D01*
X120276192Y-74823069D02*
X120466668Y-74823069D01*
X120466668Y-74823069D02*
X120561906Y-74870688D01*
X120561906Y-74870688D02*
X120609525Y-74918307D01*
X120609525Y-74918307D02*
X120657144Y-75013545D01*
X120657144Y-75013545D02*
X120657144Y-75061164D01*
X120657144Y-75061164D02*
X120609525Y-75156402D01*
X120609525Y-75156402D02*
X120561906Y-75204021D01*
X120561906Y-75204021D02*
X120466668Y-75251640D01*
X120466668Y-75251640D02*
X120276192Y-75251640D01*
X120276192Y-75251640D02*
X120180954Y-75299259D01*
X120180954Y-75299259D02*
X120133335Y-75346878D01*
X120133335Y-75346878D02*
X120085716Y-75442116D01*
X120085716Y-75442116D02*
X120085716Y-75632592D01*
X120085716Y-75632592D02*
X120133335Y-75727830D01*
X120133335Y-75727830D02*
X120180954Y-75775450D01*
X120180954Y-75775450D02*
X120276192Y-75823069D01*
X120276192Y-75823069D02*
X120466668Y-75823069D01*
X120466668Y-75823069D02*
X120561906Y-75775450D01*
X120561906Y-75775450D02*
X120609525Y-75727830D01*
X120609525Y-75727830D02*
X120657144Y-75632592D01*
X120657144Y-75632592D02*
X120657144Y-75442116D01*
X120657144Y-75442116D02*
X120609525Y-75346878D01*
X120609525Y-75346878D02*
X120561906Y-75299259D01*
X120561906Y-75299259D02*
X120466668Y-75251640D01*
X150938906Y-121813069D02*
X150938906Y-122527354D01*
X150938906Y-122527354D02*
X150891287Y-122670211D01*
X150891287Y-122670211D02*
X150796049Y-122765450D01*
X150796049Y-122765450D02*
X150653192Y-122813069D01*
X150653192Y-122813069D02*
X150557954Y-122813069D01*
X151891287Y-121813069D02*
X151415097Y-121813069D01*
X151415097Y-121813069D02*
X151367478Y-122289259D01*
X151367478Y-122289259D02*
X151415097Y-122241640D01*
X151415097Y-122241640D02*
X151510335Y-122194021D01*
X151510335Y-122194021D02*
X151748430Y-122194021D01*
X151748430Y-122194021D02*
X151843668Y-122241640D01*
X151843668Y-122241640D02*
X151891287Y-122289259D01*
X151891287Y-122289259D02*
X151938906Y-122384497D01*
X151938906Y-122384497D02*
X151938906Y-122622592D01*
X151938906Y-122622592D02*
X151891287Y-122717830D01*
X151891287Y-122717830D02*
X151843668Y-122765450D01*
X151843668Y-122765450D02*
X151748430Y-122813069D01*
X151748430Y-122813069D02*
X151510335Y-122813069D01*
X151510335Y-122813069D02*
X151415097Y-122765450D01*
X151415097Y-122765450D02*
X151367478Y-122717830D01*
D11*
X153050526Y-125345888D02*
X153050526Y-123345888D01*
X154002907Y-125345888D02*
X154002907Y-123345888D01*
X154002907Y-123345888D02*
X155145764Y-125345888D01*
X155145764Y-125345888D02*
X155145764Y-123345888D01*
X156098145Y-124583983D02*
X157621955Y-124583983D01*
D10*
X137897573Y-115605830D02*
X137849954Y-115653450D01*
X137849954Y-115653450D02*
X137707097Y-115701069D01*
X137707097Y-115701069D02*
X137611859Y-115701069D01*
X137611859Y-115701069D02*
X137469002Y-115653450D01*
X137469002Y-115653450D02*
X137373764Y-115558211D01*
X137373764Y-115558211D02*
X137326145Y-115462973D01*
X137326145Y-115462973D02*
X137278526Y-115272497D01*
X137278526Y-115272497D02*
X137278526Y-115129640D01*
X137278526Y-115129640D02*
X137326145Y-114939164D01*
X137326145Y-114939164D02*
X137373764Y-114843926D01*
X137373764Y-114843926D02*
X137469002Y-114748688D01*
X137469002Y-114748688D02*
X137611859Y-114701069D01*
X137611859Y-114701069D02*
X137707097Y-114701069D01*
X137707097Y-114701069D02*
X137849954Y-114748688D01*
X137849954Y-114748688D02*
X137897573Y-114796307D01*
X138802335Y-114701069D02*
X138326145Y-114701069D01*
X138326145Y-114701069D02*
X138278526Y-115177259D01*
X138278526Y-115177259D02*
X138326145Y-115129640D01*
X138326145Y-115129640D02*
X138421383Y-115082021D01*
X138421383Y-115082021D02*
X138659478Y-115082021D01*
X138659478Y-115082021D02*
X138754716Y-115129640D01*
X138754716Y-115129640D02*
X138802335Y-115177259D01*
X138802335Y-115177259D02*
X138849954Y-115272497D01*
X138849954Y-115272497D02*
X138849954Y-115510592D01*
X138849954Y-115510592D02*
X138802335Y-115605830D01*
X138802335Y-115605830D02*
X138754716Y-115653450D01*
X138754716Y-115653450D02*
X138659478Y-115701069D01*
X138659478Y-115701069D02*
X138421383Y-115701069D01*
X138421383Y-115701069D02*
X138326145Y-115653450D01*
X138326145Y-115653450D02*
X138278526Y-115605830D01*
X142977573Y-93095069D02*
X142644240Y-92618878D01*
X142406145Y-93095069D02*
X142406145Y-92095069D01*
X142406145Y-92095069D02*
X142787097Y-92095069D01*
X142787097Y-92095069D02*
X142882335Y-92142688D01*
X142882335Y-92142688D02*
X142929954Y-92190307D01*
X142929954Y-92190307D02*
X142977573Y-92285545D01*
X142977573Y-92285545D02*
X142977573Y-92428402D01*
X142977573Y-92428402D02*
X142929954Y-92523640D01*
X142929954Y-92523640D02*
X142882335Y-92571259D01*
X142882335Y-92571259D02*
X142787097Y-92618878D01*
X142787097Y-92618878D02*
X142406145Y-92618878D01*
X143929954Y-93095069D02*
X143358526Y-93095069D01*
X143644240Y-93095069D02*
X143644240Y-92095069D01*
X143644240Y-92095069D02*
X143549002Y-92237926D01*
X143549002Y-92237926D02*
X143453764Y-92333164D01*
X143453764Y-92333164D02*
X143358526Y-92380783D01*
X166967059Y-102141344D02*
X165967059Y-102141344D01*
X165967059Y-102141344D02*
X165967059Y-101903249D01*
X165967059Y-101903249D02*
X166014678Y-101760392D01*
X166014678Y-101760392D02*
X166109916Y-101665154D01*
X166109916Y-101665154D02*
X166205154Y-101617535D01*
X166205154Y-101617535D02*
X166395630Y-101569916D01*
X166395630Y-101569916D02*
X166538487Y-101569916D01*
X166538487Y-101569916D02*
X166728963Y-101617535D01*
X166728963Y-101617535D02*
X166824201Y-101665154D01*
X166824201Y-101665154D02*
X166919440Y-101760392D01*
X166919440Y-101760392D02*
X166967059Y-101903249D01*
X166967059Y-101903249D02*
X166967059Y-102141344D01*
X166967059Y-100617535D02*
X166967059Y-101188963D01*
X166967059Y-100903249D02*
X165967059Y-100903249D01*
X165967059Y-100903249D02*
X166109916Y-100998487D01*
X166109916Y-100998487D02*
X166205154Y-101093725D01*
X166205154Y-101093725D02*
X166252773Y-101188963D01*
X145169954Y-104102354D02*
X145131858Y-104140450D01*
X145131858Y-104140450D02*
X145017573Y-104178545D01*
X145017573Y-104178545D02*
X144941382Y-104178545D01*
X144941382Y-104178545D02*
X144827096Y-104140450D01*
X144827096Y-104140450D02*
X144750906Y-104064259D01*
X144750906Y-104064259D02*
X144712811Y-103988069D01*
X144712811Y-103988069D02*
X144674715Y-103835688D01*
X144674715Y-103835688D02*
X144674715Y-103721402D01*
X144674715Y-103721402D02*
X144712811Y-103569021D01*
X144712811Y-103569021D02*
X144750906Y-103492830D01*
X144750906Y-103492830D02*
X144827096Y-103416640D01*
X144827096Y-103416640D02*
X144941382Y-103378545D01*
X144941382Y-103378545D02*
X145017573Y-103378545D01*
X145017573Y-103378545D02*
X145131858Y-103416640D01*
X145131858Y-103416640D02*
X145169954Y-103454735D01*
X145931858Y-104178545D02*
X145474715Y-104178545D01*
X145703287Y-104178545D02*
X145703287Y-103378545D01*
X145703287Y-103378545D02*
X145627096Y-103492830D01*
X145627096Y-103492830D02*
X145550906Y-103569021D01*
X145550906Y-103569021D02*
X145474715Y-103607116D01*
X146427097Y-103378545D02*
X146503287Y-103378545D01*
X146503287Y-103378545D02*
X146579478Y-103416640D01*
X146579478Y-103416640D02*
X146617573Y-103454735D01*
X146617573Y-103454735D02*
X146655668Y-103530926D01*
X146655668Y-103530926D02*
X146693763Y-103683307D01*
X146693763Y-103683307D02*
X146693763Y-103873783D01*
X146693763Y-103873783D02*
X146655668Y-104026164D01*
X146655668Y-104026164D02*
X146617573Y-104102354D01*
X146617573Y-104102354D02*
X146579478Y-104140450D01*
X146579478Y-104140450D02*
X146503287Y-104178545D01*
X146503287Y-104178545D02*
X146427097Y-104178545D01*
X146427097Y-104178545D02*
X146350906Y-104140450D01*
X146350906Y-104140450D02*
X146312811Y-104102354D01*
X146312811Y-104102354D02*
X146274716Y-104026164D01*
X146274716Y-104026164D02*
X146236620Y-103873783D01*
X146236620Y-103873783D02*
X146236620Y-103683307D01*
X146236620Y-103683307D02*
X146274716Y-103530926D01*
X146274716Y-103530926D02*
X146312811Y-103454735D01*
X146312811Y-103454735D02*
X146350906Y-103416640D01*
X146350906Y-103416640D02*
X146427097Y-103378545D01*
X137421382Y-127289830D02*
X137373763Y-127337450D01*
X137373763Y-127337450D02*
X137230906Y-127385069D01*
X137230906Y-127385069D02*
X137135668Y-127385069D01*
X137135668Y-127385069D02*
X136992811Y-127337450D01*
X136992811Y-127337450D02*
X136897573Y-127242211D01*
X136897573Y-127242211D02*
X136849954Y-127146973D01*
X136849954Y-127146973D02*
X136802335Y-126956497D01*
X136802335Y-126956497D02*
X136802335Y-126813640D01*
X136802335Y-126813640D02*
X136849954Y-126623164D01*
X136849954Y-126623164D02*
X136897573Y-126527926D01*
X136897573Y-126527926D02*
X136992811Y-126432688D01*
X136992811Y-126432688D02*
X137135668Y-126385069D01*
X137135668Y-126385069D02*
X137230906Y-126385069D01*
X137230906Y-126385069D02*
X137373763Y-126432688D01*
X137373763Y-126432688D02*
X137421382Y-126480307D01*
X138278525Y-126718402D02*
X138278525Y-127385069D01*
X138040430Y-126337450D02*
X137802335Y-127051735D01*
X137802335Y-127051735D02*
X138421382Y-127051735D01*
X139278525Y-126385069D02*
X138802335Y-126385069D01*
X138802335Y-126385069D02*
X138754716Y-126861259D01*
X138754716Y-126861259D02*
X138802335Y-126813640D01*
X138802335Y-126813640D02*
X138897573Y-126766021D01*
X138897573Y-126766021D02*
X139135668Y-126766021D01*
X139135668Y-126766021D02*
X139230906Y-126813640D01*
X139230906Y-126813640D02*
X139278525Y-126861259D01*
X139278525Y-126861259D02*
X139326144Y-126956497D01*
X139326144Y-126956497D02*
X139326144Y-127194592D01*
X139326144Y-127194592D02*
X139278525Y-127289830D01*
X139278525Y-127289830D02*
X139230906Y-127337450D01*
X139230906Y-127337450D02*
X139135668Y-127385069D01*
X139135668Y-127385069D02*
X138897573Y-127385069D01*
X138897573Y-127385069D02*
X138802335Y-127337450D01*
X138802335Y-127337450D02*
X138754716Y-127289830D01*
X137295954Y-104102354D02*
X137257858Y-104140450D01*
X137257858Y-104140450D02*
X137143573Y-104178545D01*
X137143573Y-104178545D02*
X137067382Y-104178545D01*
X137067382Y-104178545D02*
X136953096Y-104140450D01*
X136953096Y-104140450D02*
X136876906Y-104064259D01*
X136876906Y-104064259D02*
X136838811Y-103988069D01*
X136838811Y-103988069D02*
X136800715Y-103835688D01*
X136800715Y-103835688D02*
X136800715Y-103721402D01*
X136800715Y-103721402D02*
X136838811Y-103569021D01*
X136838811Y-103569021D02*
X136876906Y-103492830D01*
X136876906Y-103492830D02*
X136953096Y-103416640D01*
X136953096Y-103416640D02*
X137067382Y-103378545D01*
X137067382Y-103378545D02*
X137143573Y-103378545D01*
X137143573Y-103378545D02*
X137257858Y-103416640D01*
X137257858Y-103416640D02*
X137295954Y-103454735D01*
X138057858Y-104178545D02*
X137600715Y-104178545D01*
X137829287Y-104178545D02*
X137829287Y-103378545D01*
X137829287Y-103378545D02*
X137753096Y-103492830D01*
X137753096Y-103492830D02*
X137676906Y-103569021D01*
X137676906Y-103569021D02*
X137600715Y-103607116D01*
X138324525Y-103378545D02*
X138857859Y-103378545D01*
X138857859Y-103378545D02*
X138515001Y-104178545D01*
X179077382Y-75727830D02*
X179029763Y-75775450D01*
X179029763Y-75775450D02*
X178886906Y-75823069D01*
X178886906Y-75823069D02*
X178791668Y-75823069D01*
X178791668Y-75823069D02*
X178648811Y-75775450D01*
X178648811Y-75775450D02*
X178553573Y-75680211D01*
X178553573Y-75680211D02*
X178505954Y-75584973D01*
X178505954Y-75584973D02*
X178458335Y-75394497D01*
X178458335Y-75394497D02*
X178458335Y-75251640D01*
X178458335Y-75251640D02*
X178505954Y-75061164D01*
X178505954Y-75061164D02*
X178553573Y-74965926D01*
X178553573Y-74965926D02*
X178648811Y-74870688D01*
X178648811Y-74870688D02*
X178791668Y-74823069D01*
X178791668Y-74823069D02*
X178886906Y-74823069D01*
X178886906Y-74823069D02*
X179029763Y-74870688D01*
X179029763Y-74870688D02*
X179077382Y-74918307D01*
X179934525Y-75156402D02*
X179934525Y-75823069D01*
X179696430Y-74775450D02*
X179458335Y-75489735D01*
X179458335Y-75489735D02*
X180077382Y-75489735D01*
X180886906Y-74823069D02*
X180696430Y-74823069D01*
X180696430Y-74823069D02*
X180601192Y-74870688D01*
X180601192Y-74870688D02*
X180553573Y-74918307D01*
X180553573Y-74918307D02*
X180458335Y-75061164D01*
X180458335Y-75061164D02*
X180410716Y-75251640D01*
X180410716Y-75251640D02*
X180410716Y-75632592D01*
X180410716Y-75632592D02*
X180458335Y-75727830D01*
X180458335Y-75727830D02*
X180505954Y-75775450D01*
X180505954Y-75775450D02*
X180601192Y-75823069D01*
X180601192Y-75823069D02*
X180791668Y-75823069D01*
X180791668Y-75823069D02*
X180886906Y-75775450D01*
X180886906Y-75775450D02*
X180934525Y-75727830D01*
X180934525Y-75727830D02*
X180982144Y-75632592D01*
X180982144Y-75632592D02*
X180982144Y-75394497D01*
X180982144Y-75394497D02*
X180934525Y-75299259D01*
X180934525Y-75299259D02*
X180886906Y-75251640D01*
X180886906Y-75251640D02*
X180791668Y-75204021D01*
X180791668Y-75204021D02*
X180601192Y-75204021D01*
X180601192Y-75204021D02*
X180505954Y-75251640D01*
X180505954Y-75251640D02*
X180458335Y-75299259D01*
X180458335Y-75299259D02*
X180410716Y-75394497D01*
X166967059Y-106014916D02*
X166490868Y-106348249D01*
X166967059Y-106586344D02*
X165967059Y-106586344D01*
X165967059Y-106586344D02*
X165967059Y-106205392D01*
X165967059Y-106205392D02*
X166014678Y-106110154D01*
X166014678Y-106110154D02*
X166062297Y-106062535D01*
X166062297Y-106062535D02*
X166157535Y-106014916D01*
X166157535Y-106014916D02*
X166300392Y-106014916D01*
X166300392Y-106014916D02*
X166395630Y-106062535D01*
X166395630Y-106062535D02*
X166443249Y-106110154D01*
X166443249Y-106110154D02*
X166490868Y-106205392D01*
X166490868Y-106205392D02*
X166490868Y-106586344D01*
X166062297Y-105633963D02*
X166014678Y-105586344D01*
X166014678Y-105586344D02*
X165967059Y-105491106D01*
X165967059Y-105491106D02*
X165967059Y-105253011D01*
X165967059Y-105253011D02*
X166014678Y-105157773D01*
X166014678Y-105157773D02*
X166062297Y-105110154D01*
X166062297Y-105110154D02*
X166157535Y-105062535D01*
X166157535Y-105062535D02*
X166252773Y-105062535D01*
X166252773Y-105062535D02*
X166395630Y-105110154D01*
X166395630Y-105110154D02*
X166967059Y-105681582D01*
X166967059Y-105681582D02*
X166967059Y-105062535D01*
X141359954Y-98006354D02*
X141321858Y-98044450D01*
X141321858Y-98044450D02*
X141207573Y-98082545D01*
X141207573Y-98082545D02*
X141131382Y-98082545D01*
X141131382Y-98082545D02*
X141017096Y-98044450D01*
X141017096Y-98044450D02*
X140940906Y-97968259D01*
X140940906Y-97968259D02*
X140902811Y-97892069D01*
X140902811Y-97892069D02*
X140864715Y-97739688D01*
X140864715Y-97739688D02*
X140864715Y-97625402D01*
X140864715Y-97625402D02*
X140902811Y-97473021D01*
X140902811Y-97473021D02*
X140940906Y-97396830D01*
X140940906Y-97396830D02*
X141017096Y-97320640D01*
X141017096Y-97320640D02*
X141131382Y-97282545D01*
X141131382Y-97282545D02*
X141207573Y-97282545D01*
X141207573Y-97282545D02*
X141321858Y-97320640D01*
X141321858Y-97320640D02*
X141359954Y-97358735D01*
X142121858Y-98082545D02*
X141664715Y-98082545D01*
X141893287Y-98082545D02*
X141893287Y-97282545D01*
X141893287Y-97282545D02*
X141817096Y-97396830D01*
X141817096Y-97396830D02*
X141740906Y-97473021D01*
X141740906Y-97473021D02*
X141664715Y-97511116D01*
X142883763Y-98082545D02*
X142426620Y-98082545D01*
X142655192Y-98082545D02*
X142655192Y-97282545D01*
X142655192Y-97282545D02*
X142579001Y-97396830D01*
X142579001Y-97396830D02*
X142502811Y-97473021D01*
X142502811Y-97473021D02*
X142426620Y-97511116D01*
X119165145Y-79887069D02*
X119165145Y-78887069D01*
X119165145Y-78887069D02*
X119403240Y-78887069D01*
X119403240Y-78887069D02*
X119546097Y-78934688D01*
X119546097Y-78934688D02*
X119641335Y-79029926D01*
X119641335Y-79029926D02*
X119688954Y-79125164D01*
X119688954Y-79125164D02*
X119736573Y-79315640D01*
X119736573Y-79315640D02*
X119736573Y-79458497D01*
X119736573Y-79458497D02*
X119688954Y-79648973D01*
X119688954Y-79648973D02*
X119641335Y-79744211D01*
X119641335Y-79744211D02*
X119546097Y-79839450D01*
X119546097Y-79839450D02*
X119403240Y-79887069D01*
X119403240Y-79887069D02*
X119165145Y-79887069D01*
X120593716Y-79220402D02*
X120593716Y-79887069D01*
X120355621Y-78839450D02*
X120117526Y-79553735D01*
X120117526Y-79553735D02*
X120736573Y-79553735D01*
D12*
%TO.C,Q6*%
X130107240Y-73333250D02*
X130782240Y-73333250D01*
X130782240Y-73333250D02*
X130782240Y-63433250D01*
X134807240Y-72583250D02*
X134807240Y-72583250D01*
X134807240Y-72583250D02*
X134907240Y-72583250D01*
X134907240Y-72583250D02*
X134907240Y-72583250D01*
X130782240Y-63433250D02*
X130107240Y-63433250D01*
X134907240Y-72583250D02*
G75*
G03*
X134807240Y-72583250I-50000J0D01*
G01*
X134807240Y-72583250D02*
G75*
G03*
X134907240Y-72583250I50000J0D01*
G01*
%TO.C,Q5*%
X136162240Y-56743250D02*
X136162240Y-57418250D01*
X136162240Y-57418250D02*
X146062240Y-57418250D01*
X136912240Y-61443250D02*
X136912240Y-61443250D01*
X136912240Y-61443250D02*
X136912240Y-61543250D01*
X136912240Y-61543250D02*
X136912240Y-61543250D01*
X146062240Y-57418250D02*
X146062240Y-56743250D01*
X136912240Y-61543250D02*
G75*
G03*
X136912240Y-61443250I0J50000D01*
G01*
X136912240Y-61443250D02*
G75*
G03*
X136912240Y-61543250I0J-50000D01*
G01*
%TO.C,Q2*%
X152418240Y-56762250D02*
X152418240Y-57437250D01*
X152418240Y-57437250D02*
X162318240Y-57437250D01*
X153168240Y-61462250D02*
X153168240Y-61462250D01*
X153168240Y-61462250D02*
X153168240Y-61562250D01*
X153168240Y-61562250D02*
X153168240Y-61562250D01*
X162318240Y-57437250D02*
X162318240Y-56762250D01*
X153168240Y-61562250D02*
G75*
G03*
X153168240Y-61462250I0J50000D01*
G01*
X153168240Y-61462250D02*
G75*
G03*
X153168240Y-61562250I0J-50000D01*
G01*
%TO.C,Q4*%
X168622240Y-63433250D02*
X167947240Y-63433250D01*
X167947240Y-63433250D02*
X167947240Y-73333250D01*
X163922240Y-64183250D02*
X163922240Y-64183250D01*
X163922240Y-64183250D02*
X163822240Y-64183250D01*
X163822240Y-64183250D02*
X163822240Y-64183250D01*
X167947240Y-73333250D02*
X168622240Y-73333250D01*
X163822240Y-64183250D02*
G75*
G03*
X163922240Y-64183250I50000J0D01*
G01*
X163922240Y-64183250D02*
G75*
G03*
X163822240Y-64183250I-50000J0D01*
G01*
%TO.C,Q1*%
X164182240Y-76768250D02*
X163507240Y-76768250D01*
X163507240Y-76768250D02*
X163507240Y-86668250D01*
X159482240Y-77518250D02*
X159482240Y-77518250D01*
X159482240Y-77518250D02*
X159382240Y-77518250D01*
X159382240Y-77518250D02*
X159382240Y-77518250D01*
X163507240Y-86668250D02*
X164182240Y-86668250D01*
X159382240Y-77518250D02*
G75*
G03*
X159482240Y-77518250I50000J0D01*
G01*
X159482240Y-77518250D02*
G75*
G03*
X159382240Y-77518250I-50000J0D01*
G01*
%TO.C,Q7*%
X161937240Y-104153250D02*
X161937240Y-103478250D01*
X161937240Y-103478250D02*
X152037240Y-103478250D01*
X161187240Y-99453250D02*
X161187240Y-99453250D01*
X161187240Y-99453250D02*
X161187240Y-99353250D01*
X161187240Y-99353250D02*
X161187240Y-99353250D01*
X152037240Y-103478250D02*
X152037240Y-104153250D01*
X161187240Y-99353250D02*
G75*
G03*
X161187240Y-99453250I0J-50000D01*
G01*
X161187240Y-99453250D02*
G75*
G03*
X161187240Y-99353250I0J50000D01*
G01*
%TO.C,Q3*%
X134552240Y-86668250D02*
X135227240Y-86668250D01*
X135227240Y-86668250D02*
X135227240Y-76768250D01*
X139252240Y-85918250D02*
X139252240Y-85918250D01*
X139252240Y-85918250D02*
X139352240Y-85918250D01*
X139352240Y-85918250D02*
X139352240Y-85918250D01*
X135227240Y-76768250D02*
X134552240Y-76768250D01*
X139352240Y-85918250D02*
G75*
G03*
X139252240Y-85918250I-50000J0D01*
G01*
X139252240Y-85918250D02*
G75*
G03*
X139352240Y-85918250I50000J0D01*
G01*
D13*
%TO.C,C14*%
X144197240Y-101479502D02*
X144197240Y-100056998D01*
X146917240Y-101479502D02*
X146917240Y-100056998D01*
%TO.C,C26*%
X144197240Y-112567002D02*
X144197240Y-111144498D01*
X146917240Y-112567002D02*
X146917240Y-111144498D01*
%TO.C,C47*%
X149093973Y-64397750D02*
X149386507Y-64397750D01*
X149093973Y-65417750D02*
X149386507Y-65417750D01*
%TO.C,C25*%
X140387240Y-112567002D02*
X140387240Y-111144498D01*
X143107240Y-112567002D02*
X143107240Y-111144498D01*
%TO.C,D2*%
X174595240Y-79432250D02*
X174595240Y-82357250D01*
X174595240Y-79432250D02*
X174595240Y-77932250D01*
X177815240Y-79432250D02*
X177815240Y-80932250D01*
X177815240Y-79432250D02*
X177815240Y-77932250D01*
%TO.C,C3*%
X136577240Y-101479502D02*
X136577240Y-100056998D01*
X139297240Y-101479502D02*
X139297240Y-100056998D01*
%TO.C,J7*%
X146767240Y-67053250D02*
X146767240Y-92573250D01*
X146767240Y-67053250D02*
X149367240Y-67053250D01*
X146767240Y-92573250D02*
X151967240Y-92573250D01*
X149367240Y-67053250D02*
X149367240Y-69653250D01*
X149367240Y-69653250D02*
X151967240Y-69653250D01*
X150637240Y-67053250D02*
X151967240Y-67053250D01*
X151967240Y-67053250D02*
X151967240Y-68383250D01*
X151967240Y-69653250D02*
X151967240Y-92573250D01*
%TO.C,C44*%
X158177240Y-124958250D02*
X159541240Y-124958250D01*
X158177240Y-124958250D02*
X158177240Y-117218250D01*
X162053240Y-124958250D02*
X163417240Y-124958250D01*
X163417240Y-124958250D02*
X163417240Y-117218250D01*
X158177240Y-117218250D02*
X159541240Y-117218250D01*
X162053240Y-117218250D02*
X163417240Y-117218250D01*
%TO.C,D3*%
X150850240Y-60763250D02*
X150850240Y-57838250D01*
X150850240Y-60763250D02*
X150850240Y-62263250D01*
X147630240Y-60763250D02*
X147630240Y-59263250D01*
X147630240Y-60763250D02*
X147630240Y-62263250D01*
%TO.C,C29*%
X143107240Y-105771998D02*
X143107240Y-107194502D01*
X140387240Y-105771998D02*
X140387240Y-107194502D01*
%TO.C,C48*%
X122423973Y-74858250D02*
X122716507Y-74858250D01*
X122423973Y-75878250D02*
X122716507Y-75878250D01*
%TO.C,C5*%
X136577240Y-112567002D02*
X136577240Y-111144498D01*
X139297240Y-112567002D02*
X139297240Y-111144498D01*
%TO.C,R1*%
X135760176Y-90803250D02*
X140114304Y-90803250D01*
X135760176Y-94223250D02*
X140114304Y-94223250D01*
%TO.C,D1*%
X163607240Y-103508250D02*
X165607240Y-103508250D01*
X163607240Y-103508250D02*
X163607240Y-99498250D01*
X165607240Y-103508250D02*
X165607240Y-99498250D01*
%TO.C,C10*%
X146917240Y-105771998D02*
X146917240Y-107194502D01*
X144197240Y-105771998D02*
X144197240Y-107194502D01*
%TO.C,C45*%
X140557240Y-117218250D02*
X139193240Y-117218250D01*
X140557240Y-117218250D02*
X140557240Y-124958250D01*
X136681240Y-117218250D02*
X135317240Y-117218250D01*
X135317240Y-117218250D02*
X135317240Y-124958250D01*
X140557240Y-124958250D02*
X139193240Y-124958250D01*
X136681240Y-124958250D02*
X135317240Y-124958250D01*
%TO.C,C17*%
X139297240Y-105771998D02*
X139297240Y-107194502D01*
X136577240Y-105771998D02*
X136577240Y-107194502D01*
%TO.C,C46*%
X176017973Y-74858250D02*
X176310507Y-74858250D01*
X176017973Y-75878250D02*
X176310507Y-75878250D01*
%TO.C,R2*%
X165342240Y-105621186D02*
X165342240Y-106075314D01*
X163872240Y-105621186D02*
X163872240Y-106075314D01*
%TO.C,C11*%
X140514240Y-101479502D02*
X140514240Y-100056998D01*
X143234240Y-101479502D02*
X143234240Y-100056998D01*
%TO.C,D4*%
X120960240Y-79432250D02*
X120960240Y-82357250D01*
X120960240Y-79432250D02*
X120960240Y-77932250D01*
X124180240Y-79432250D02*
X124180240Y-80932250D01*
X124180240Y-79432250D02*
X124180240Y-77932250D01*
%TD*%
M02*
