%TF.GenerationSoftware,KiCad,Pcbnew,7.0.6*%
%TF.CreationDate,2023-10-19T15:55:56+03:00*%
%TF.ProjectId,_______ _____,21383b3e-3230-44f2-903f-3b3042302e6b,rev?*%
%TF.SameCoordinates,Original*%
%TF.FileFunction,Profile,NP*%
%FSLAX46Y46*%
G04 Gerber Fmt 4.6, Leading zero omitted, Abs format (unit mm)*
G04 Created by KiCad (PCBNEW 7.0.6) date 2023-10-19 15:55:56*
%MOMM*%
%LPD*%
G01*
G04 APERTURE LIST*
%ADD10C,0.150000*%
%TA.AperFunction,Profile*%
%ADD11C,0.100000*%
%TD*%
G04 APERTURE END LIST*
D10*
X148828643Y-31959819D02*
X148638167Y-31959819D01*
X148638167Y-31959819D02*
X148542929Y-32007438D01*
X148542929Y-32007438D02*
X148495310Y-32055057D01*
X148495310Y-32055057D02*
X148400072Y-32197914D01*
X148400072Y-32197914D02*
X148352453Y-32388390D01*
X148352453Y-32388390D02*
X148352453Y-32769342D01*
X148352453Y-32769342D02*
X148400072Y-32864580D01*
X148400072Y-32864580D02*
X148447691Y-32912200D01*
X148447691Y-32912200D02*
X148542929Y-32959819D01*
X148542929Y-32959819D02*
X148733405Y-32959819D01*
X148733405Y-32959819D02*
X148828643Y-32912200D01*
X148828643Y-32912200D02*
X148876262Y-32864580D01*
X148876262Y-32864580D02*
X148923881Y-32769342D01*
X148923881Y-32769342D02*
X148923881Y-32531247D01*
X148923881Y-32531247D02*
X148876262Y-32436009D01*
X148876262Y-32436009D02*
X148828643Y-32388390D01*
X148828643Y-32388390D02*
X148733405Y-32340771D01*
X148733405Y-32340771D02*
X148542929Y-32340771D01*
X148542929Y-32340771D02*
X148447691Y-32388390D01*
X148447691Y-32388390D02*
X148400072Y-32436009D01*
X148400072Y-32436009D02*
X148352453Y-32531247D01*
X149495310Y-32388390D02*
X149400072Y-32340771D01*
X149400072Y-32340771D02*
X149352453Y-32293152D01*
X149352453Y-32293152D02*
X149304834Y-32197914D01*
X149304834Y-32197914D02*
X149304834Y-32150295D01*
X149304834Y-32150295D02*
X149352453Y-32055057D01*
X149352453Y-32055057D02*
X149400072Y-32007438D01*
X149400072Y-32007438D02*
X149495310Y-31959819D01*
X149495310Y-31959819D02*
X149685786Y-31959819D01*
X149685786Y-31959819D02*
X149781024Y-32007438D01*
X149781024Y-32007438D02*
X149828643Y-32055057D01*
X149828643Y-32055057D02*
X149876262Y-32150295D01*
X149876262Y-32150295D02*
X149876262Y-32197914D01*
X149876262Y-32197914D02*
X149828643Y-32293152D01*
X149828643Y-32293152D02*
X149781024Y-32340771D01*
X149781024Y-32340771D02*
X149685786Y-32388390D01*
X149685786Y-32388390D02*
X149495310Y-32388390D01*
X149495310Y-32388390D02*
X149400072Y-32436009D01*
X149400072Y-32436009D02*
X149352453Y-32483628D01*
X149352453Y-32483628D02*
X149304834Y-32578866D01*
X149304834Y-32578866D02*
X149304834Y-32769342D01*
X149304834Y-32769342D02*
X149352453Y-32864580D01*
X149352453Y-32864580D02*
X149400072Y-32912200D01*
X149400072Y-32912200D02*
X149495310Y-32959819D01*
X149495310Y-32959819D02*
X149685786Y-32959819D01*
X149685786Y-32959819D02*
X149781024Y-32912200D01*
X149781024Y-32912200D02*
X149828643Y-32864580D01*
X149828643Y-32864580D02*
X149876262Y-32769342D01*
X149876262Y-32769342D02*
X149876262Y-32578866D01*
X149876262Y-32578866D02*
X149828643Y-32483628D01*
X149828643Y-32483628D02*
X149781024Y-32436009D01*
X149781024Y-32436009D02*
X149685786Y-32388390D01*
X150352453Y-32912200D02*
X150352453Y-32959819D01*
X150352453Y-32959819D02*
X150304834Y-33055057D01*
X150304834Y-33055057D02*
X150257215Y-33102676D01*
X150971500Y-31959819D02*
X151066738Y-31959819D01*
X151066738Y-31959819D02*
X151161976Y-32007438D01*
X151161976Y-32007438D02*
X151209595Y-32055057D01*
X151209595Y-32055057D02*
X151257214Y-32150295D01*
X151257214Y-32150295D02*
X151304833Y-32340771D01*
X151304833Y-32340771D02*
X151304833Y-32578866D01*
X151304833Y-32578866D02*
X151257214Y-32769342D01*
X151257214Y-32769342D02*
X151209595Y-32864580D01*
X151209595Y-32864580D02*
X151161976Y-32912200D01*
X151161976Y-32912200D02*
X151066738Y-32959819D01*
X151066738Y-32959819D02*
X150971500Y-32959819D01*
X150971500Y-32959819D02*
X150876262Y-32912200D01*
X150876262Y-32912200D02*
X150828643Y-32864580D01*
X150828643Y-32864580D02*
X150781024Y-32769342D01*
X150781024Y-32769342D02*
X150733405Y-32578866D01*
X150733405Y-32578866D02*
X150733405Y-32340771D01*
X150733405Y-32340771D02*
X150781024Y-32150295D01*
X150781024Y-32150295D02*
X150828643Y-32055057D01*
X150828643Y-32055057D02*
X150876262Y-32007438D01*
X150876262Y-32007438D02*
X150971500Y-31959819D01*
X152257214Y-32959819D02*
X151685786Y-32959819D01*
X151971500Y-32959819D02*
X151971500Y-31959819D01*
X151971500Y-31959819D02*
X151876262Y-32102676D01*
X151876262Y-32102676D02*
X151781024Y-32197914D01*
X151781024Y-32197914D02*
X151685786Y-32245533D01*
X153161976Y-31959819D02*
X152685786Y-31959819D01*
X152685786Y-31959819D02*
X152638167Y-32436009D01*
X152638167Y-32436009D02*
X152685786Y-32388390D01*
X152685786Y-32388390D02*
X152781024Y-32340771D01*
X152781024Y-32340771D02*
X153019119Y-32340771D01*
X153019119Y-32340771D02*
X153114357Y-32388390D01*
X153114357Y-32388390D02*
X153161976Y-32436009D01*
X153161976Y-32436009D02*
X153209595Y-32531247D01*
X153209595Y-32531247D02*
X153209595Y-32769342D01*
X153209595Y-32769342D02*
X153161976Y-32864580D01*
X153161976Y-32864580D02*
X153114357Y-32912200D01*
X153114357Y-32912200D02*
X153019119Y-32959819D01*
X153019119Y-32959819D02*
X152781024Y-32959819D01*
X152781024Y-32959819D02*
X152685786Y-32912200D01*
X152685786Y-32912200D02*
X152638167Y-32864580D01*
X153828643Y-31959819D02*
X153923881Y-31959819D01*
X153923881Y-31959819D02*
X154019119Y-32007438D01*
X154019119Y-32007438D02*
X154066738Y-32055057D01*
X154066738Y-32055057D02*
X154114357Y-32150295D01*
X154114357Y-32150295D02*
X154161976Y-32340771D01*
X154161976Y-32340771D02*
X154161976Y-32578866D01*
X154161976Y-32578866D02*
X154114357Y-32769342D01*
X154114357Y-32769342D02*
X154066738Y-32864580D01*
X154066738Y-32864580D02*
X154019119Y-32912200D01*
X154019119Y-32912200D02*
X153923881Y-32959819D01*
X153923881Y-32959819D02*
X153828643Y-32959819D01*
X153828643Y-32959819D02*
X153733405Y-32912200D01*
X153733405Y-32912200D02*
X153685786Y-32864580D01*
X153685786Y-32864580D02*
X153638167Y-32769342D01*
X153638167Y-32769342D02*
X153590548Y-32578866D01*
X153590548Y-32578866D02*
X153590548Y-32340771D01*
X153590548Y-32340771D02*
X153638167Y-32150295D01*
X153638167Y-32150295D02*
X153685786Y-32055057D01*
X153685786Y-32055057D02*
X153733405Y-32007438D01*
X153733405Y-32007438D02*
X153828643Y-31959819D01*
X155352453Y-32959819D02*
X155352453Y-32293152D01*
X155352453Y-32388390D02*
X155400072Y-32340771D01*
X155400072Y-32340771D02*
X155495310Y-32293152D01*
X155495310Y-32293152D02*
X155638167Y-32293152D01*
X155638167Y-32293152D02*
X155733405Y-32340771D01*
X155733405Y-32340771D02*
X155781024Y-32436009D01*
X155781024Y-32436009D02*
X155781024Y-32959819D01*
X155781024Y-32436009D02*
X155828643Y-32340771D01*
X155828643Y-32340771D02*
X155923881Y-32293152D01*
X155923881Y-32293152D02*
X156066738Y-32293152D01*
X156066738Y-32293152D02*
X156161977Y-32340771D01*
X156161977Y-32340771D02*
X156209596Y-32436009D01*
X156209596Y-32436009D02*
X156209596Y-32959819D01*
X156685786Y-32959819D02*
X156685786Y-32293152D01*
X156685786Y-32388390D02*
X156733405Y-32340771D01*
X156733405Y-32340771D02*
X156828643Y-32293152D01*
X156828643Y-32293152D02*
X156971500Y-32293152D01*
X156971500Y-32293152D02*
X157066738Y-32340771D01*
X157066738Y-32340771D02*
X157114357Y-32436009D01*
X157114357Y-32436009D02*
X157114357Y-32959819D01*
X157114357Y-32436009D02*
X157161976Y-32340771D01*
X157161976Y-32340771D02*
X157257214Y-32293152D01*
X157257214Y-32293152D02*
X157400071Y-32293152D01*
X157400071Y-32293152D02*
X157495310Y-32340771D01*
X157495310Y-32340771D02*
X157542929Y-32436009D01*
X157542929Y-32436009D02*
X157542929Y-32959819D01*
D11*
X118964000Y-58174000D02*
X118964000Y-33068580D01*
X186979000Y-58174000D02*
X186979000Y-33068580D01*
X118964000Y-33655000D02*
X186979000Y-33655000D01*
X118964000Y-33655000D02*
X186979000Y-33655000D01*
X118964000Y-33655000D02*
X120090504Y-33068579D01*
X118964000Y-33655000D02*
X120090504Y-34241421D01*
X186979000Y-33655000D02*
X185852496Y-34241421D01*
X186979000Y-33655000D02*
X185852496Y-33068579D01*
D10*
X200869819Y-96189356D02*
X200869819Y-96379832D01*
X200869819Y-96379832D02*
X200917438Y-96475070D01*
X200917438Y-96475070D02*
X200965057Y-96522689D01*
X200965057Y-96522689D02*
X201107914Y-96617927D01*
X201107914Y-96617927D02*
X201298390Y-96665546D01*
X201298390Y-96665546D02*
X201679342Y-96665546D01*
X201679342Y-96665546D02*
X201774580Y-96617927D01*
X201774580Y-96617927D02*
X201822200Y-96570308D01*
X201822200Y-96570308D02*
X201869819Y-96475070D01*
X201869819Y-96475070D02*
X201869819Y-96284594D01*
X201869819Y-96284594D02*
X201822200Y-96189356D01*
X201822200Y-96189356D02*
X201774580Y-96141737D01*
X201774580Y-96141737D02*
X201679342Y-96094118D01*
X201679342Y-96094118D02*
X201441247Y-96094118D01*
X201441247Y-96094118D02*
X201346009Y-96141737D01*
X201346009Y-96141737D02*
X201298390Y-96189356D01*
X201298390Y-96189356D02*
X201250771Y-96284594D01*
X201250771Y-96284594D02*
X201250771Y-96475070D01*
X201250771Y-96475070D02*
X201298390Y-96570308D01*
X201298390Y-96570308D02*
X201346009Y-96617927D01*
X201346009Y-96617927D02*
X201441247Y-96665546D01*
X200869819Y-95236975D02*
X200869819Y-95427451D01*
X200869819Y-95427451D02*
X200917438Y-95522689D01*
X200917438Y-95522689D02*
X200965057Y-95570308D01*
X200965057Y-95570308D02*
X201107914Y-95665546D01*
X201107914Y-95665546D02*
X201298390Y-95713165D01*
X201298390Y-95713165D02*
X201679342Y-95713165D01*
X201679342Y-95713165D02*
X201774580Y-95665546D01*
X201774580Y-95665546D02*
X201822200Y-95617927D01*
X201822200Y-95617927D02*
X201869819Y-95522689D01*
X201869819Y-95522689D02*
X201869819Y-95332213D01*
X201869819Y-95332213D02*
X201822200Y-95236975D01*
X201822200Y-95236975D02*
X201774580Y-95189356D01*
X201774580Y-95189356D02*
X201679342Y-95141737D01*
X201679342Y-95141737D02*
X201441247Y-95141737D01*
X201441247Y-95141737D02*
X201346009Y-95189356D01*
X201346009Y-95189356D02*
X201298390Y-95236975D01*
X201298390Y-95236975D02*
X201250771Y-95332213D01*
X201250771Y-95332213D02*
X201250771Y-95522689D01*
X201250771Y-95522689D02*
X201298390Y-95617927D01*
X201298390Y-95617927D02*
X201346009Y-95665546D01*
X201346009Y-95665546D02*
X201441247Y-95713165D01*
X201822200Y-94665546D02*
X201869819Y-94665546D01*
X201869819Y-94665546D02*
X201965057Y-94713165D01*
X201965057Y-94713165D02*
X202012676Y-94760784D01*
X200869819Y-94332213D02*
X200869819Y-93665547D01*
X200869819Y-93665547D02*
X201869819Y-94094118D01*
X201203152Y-92856023D02*
X201869819Y-92856023D01*
X200822200Y-93094118D02*
X201536485Y-93332213D01*
X201536485Y-93332213D02*
X201536485Y-92713166D01*
X200869819Y-91856023D02*
X200869819Y-92332213D01*
X200869819Y-92332213D02*
X201346009Y-92379832D01*
X201346009Y-92379832D02*
X201298390Y-92332213D01*
X201298390Y-92332213D02*
X201250771Y-92236975D01*
X201250771Y-92236975D02*
X201250771Y-91998880D01*
X201250771Y-91998880D02*
X201298390Y-91903642D01*
X201298390Y-91903642D02*
X201346009Y-91856023D01*
X201346009Y-91856023D02*
X201441247Y-91808404D01*
X201441247Y-91808404D02*
X201679342Y-91808404D01*
X201679342Y-91808404D02*
X201774580Y-91856023D01*
X201774580Y-91856023D02*
X201822200Y-91903642D01*
X201822200Y-91903642D02*
X201869819Y-91998880D01*
X201869819Y-91998880D02*
X201869819Y-92236975D01*
X201869819Y-92236975D02*
X201822200Y-92332213D01*
X201822200Y-92332213D02*
X201774580Y-92379832D01*
X200869819Y-91189356D02*
X200869819Y-91094118D01*
X200869819Y-91094118D02*
X200917438Y-90998880D01*
X200917438Y-90998880D02*
X200965057Y-90951261D01*
X200965057Y-90951261D02*
X201060295Y-90903642D01*
X201060295Y-90903642D02*
X201250771Y-90856023D01*
X201250771Y-90856023D02*
X201488866Y-90856023D01*
X201488866Y-90856023D02*
X201679342Y-90903642D01*
X201679342Y-90903642D02*
X201774580Y-90951261D01*
X201774580Y-90951261D02*
X201822200Y-90998880D01*
X201822200Y-90998880D02*
X201869819Y-91094118D01*
X201869819Y-91094118D02*
X201869819Y-91189356D01*
X201869819Y-91189356D02*
X201822200Y-91284594D01*
X201822200Y-91284594D02*
X201774580Y-91332213D01*
X201774580Y-91332213D02*
X201679342Y-91379832D01*
X201679342Y-91379832D02*
X201488866Y-91427451D01*
X201488866Y-91427451D02*
X201250771Y-91427451D01*
X201250771Y-91427451D02*
X201060295Y-91379832D01*
X201060295Y-91379832D02*
X200965057Y-91332213D01*
X200965057Y-91332213D02*
X200917438Y-91284594D01*
X200917438Y-91284594D02*
X200869819Y-91189356D01*
X201869819Y-89665546D02*
X201203152Y-89665546D01*
X201298390Y-89665546D02*
X201250771Y-89617927D01*
X201250771Y-89617927D02*
X201203152Y-89522689D01*
X201203152Y-89522689D02*
X201203152Y-89379832D01*
X201203152Y-89379832D02*
X201250771Y-89284594D01*
X201250771Y-89284594D02*
X201346009Y-89236975D01*
X201346009Y-89236975D02*
X201869819Y-89236975D01*
X201346009Y-89236975D02*
X201250771Y-89189356D01*
X201250771Y-89189356D02*
X201203152Y-89094118D01*
X201203152Y-89094118D02*
X201203152Y-88951261D01*
X201203152Y-88951261D02*
X201250771Y-88856022D01*
X201250771Y-88856022D02*
X201346009Y-88808403D01*
X201346009Y-88808403D02*
X201869819Y-88808403D01*
X201869819Y-88332213D02*
X201203152Y-88332213D01*
X201298390Y-88332213D02*
X201250771Y-88284594D01*
X201250771Y-88284594D02*
X201203152Y-88189356D01*
X201203152Y-88189356D02*
X201203152Y-88046499D01*
X201203152Y-88046499D02*
X201250771Y-87951261D01*
X201250771Y-87951261D02*
X201346009Y-87903642D01*
X201346009Y-87903642D02*
X201869819Y-87903642D01*
X201346009Y-87903642D02*
X201250771Y-87856023D01*
X201250771Y-87856023D02*
X201203152Y-87760785D01*
X201203152Y-87760785D02*
X201203152Y-87617928D01*
X201203152Y-87617928D02*
X201250771Y-87522689D01*
X201250771Y-87522689D02*
X201346009Y-87475070D01*
X201346009Y-87475070D02*
X201869819Y-87475070D01*
D11*
X187479000Y-58674000D02*
X203151420Y-58674000D01*
X187479000Y-125419000D02*
X203151420Y-125419000D01*
X202565000Y-58674000D02*
X202565000Y-125419000D01*
X202565000Y-58674000D02*
X202565000Y-125419000D01*
X202565000Y-58674000D02*
X203151421Y-59800504D01*
X202565000Y-58674000D02*
X201978579Y-59800504D01*
X202565000Y-125419000D02*
X201978579Y-124292496D01*
X202565000Y-125419000D02*
X203151421Y-124292496D01*
X118964000Y-58674000D02*
X186979000Y-58674000D01*
X186979000Y-125419000D01*
X118964000Y-125419000D01*
X118964000Y-58674000D01*
M02*
