%TF.GenerationSoftware,KiCad,Pcbnew,7.0.6*%
%TF.CreationDate,2023-12-21T21:59:25+03:00*%
%TF.ProjectId,_______ _____,21383b3e-3230-44f2-903f-3b3042302e6b,rev?*%
%TF.SameCoordinates,Original*%
%TF.FileFunction,Copper,L6,Bot*%
%TF.FilePolarity,Positive*%
%FSLAX46Y46*%
G04 Gerber Fmt 4.6, Leading zero omitted, Abs format (unit mm)*
G04 Created by KiCad (PCBNEW 7.0.6) date 2023-12-21 21:59:25*
%MOMM*%
%LPD*%
G01*
G04 APERTURE LIST*
G04 Aperture macros list*
%AMRoundRect*
0 Rectangle with rounded corners*
0 $1 Rounding radius*
0 $2 $3 $4 $5 $6 $7 $8 $9 X,Y pos of 4 corners*
0 Add a 4 corners polygon primitive as box body*
4,1,4,$2,$3,$4,$5,$6,$7,$8,$9,$2,$3,0*
0 Add four circle primitives for the rounded corners*
1,1,$1+$1,$2,$3*
1,1,$1+$1,$4,$5*
1,1,$1+$1,$6,$7*
1,1,$1+$1,$8,$9*
0 Add four rect primitives between the rounded corners*
20,1,$1+$1,$2,$3,$4,$5,0*
20,1,$1+$1,$4,$5,$6,$7,0*
20,1,$1+$1,$6,$7,$8,$9,0*
20,1,$1+$1,$8,$9,$2,$3,0*%
G04 Aperture macros list end*
%TA.AperFunction,ComponentPad*%
%ADD10C,5.000000*%
%TD*%
%TA.AperFunction,ComponentPad*%
%ADD11C,8.200000*%
%TD*%
%TA.AperFunction,ComponentPad*%
%ADD12C,6.000000*%
%TD*%
%TA.AperFunction,ComponentPad*%
%ADD13R,1.700000X1.700000*%
%TD*%
%TA.AperFunction,ComponentPad*%
%ADD14O,1.700000X1.700000*%
%TD*%
%TA.AperFunction,ComponentPad*%
%ADD15C,2.000000*%
%TD*%
%TA.AperFunction,SMDPad,CuDef*%
%ADD16RoundRect,0.250000X-1.100000X0.412500X-1.100000X-0.412500X1.100000X-0.412500X1.100000X0.412500X0*%
%TD*%
%TA.AperFunction,SMDPad,CuDef*%
%ADD17RoundRect,0.250000X1.100000X-0.412500X1.100000X0.412500X-1.100000X0.412500X-1.100000X-0.412500X0*%
%TD*%
%TA.AperFunction,ViaPad*%
%ADD18C,0.800000*%
%TD*%
%TA.AperFunction,Conductor*%
%ADD19C,1.000000*%
%TD*%
%TA.AperFunction,Conductor*%
%ADD20C,0.500000*%
%TD*%
G04 APERTURE END LIST*
D10*
%TO.P,J8,1,Pin_1*%
%TO.N,Earth_Protective*%
X132222240Y-124898250D03*
%TD*%
%TO.P,J2,1,Pin_1*%
%TO.N,Earth_Protective*%
X167147240Y-124898250D03*
%TD*%
D11*
%TO.P,J4,1,Pin_1*%
%TO.N,C*%
X127142240Y-58223250D03*
%TD*%
%TO.P,J1,1,Pin_1*%
%TO.N,A*%
X171592240Y-58223250D03*
%TD*%
D12*
%TO.P,J6,1,Pin_1*%
%TO.N,Shunt_1*%
X144287240Y-119483250D03*
%TD*%
D13*
%TO.P,J7,1,Pin_1*%
%TO.N,+3.3V*%
X150637240Y-68383250D03*
D14*
%TO.P,J7,2,Pin_2*%
%TO.N,~{OS}_MCU*%
X148097240Y-68383250D03*
%TO.P,J7,3,Pin_3*%
%TO.N,G3*%
X150637240Y-70923250D03*
%TO.P,J7,4,Pin_4*%
%TO.N,SCL_MCU*%
X148097240Y-70923250D03*
%TO.P,J7,5,Pin_5*%
%TO.N,B*%
X150637240Y-73463250D03*
%TO.P,J7,6,Pin_6*%
%TO.N,SDA_MCU*%
X148097240Y-73463250D03*
%TO.P,J7,7,Pin_7*%
%TO.N,G2*%
X150637240Y-76003250D03*
%TO.P,J7,8,Pin_8*%
%TO.N,G4*%
X148097240Y-76003250D03*
%TO.P,J7,9,Pin_9*%
%TO.N,GND*%
X150637240Y-78543250D03*
%TO.P,J7,10,Pin_10*%
X148097240Y-78543250D03*
%TO.P,J7,11,Pin_11*%
%TO.N,G1*%
X150637240Y-81083250D03*
%TO.P,J7,12,Pin_12*%
%TO.N,G6*%
X148097240Y-81083250D03*
%TO.P,J7,13,Pin_13*%
%TO.N,A*%
X150637240Y-83623250D03*
%TO.P,J7,14,Pin_14*%
%TO.N,C*%
X148097240Y-83623250D03*
%TO.P,J7,15,Pin_15*%
%TO.N,GND*%
X150637240Y-86163250D03*
%TO.P,J7,16,Pin_16*%
%TO.N,G5*%
X148097240Y-86163250D03*
%TO.P,J7,17,Pin_17*%
%TO.N,Shunt_1*%
X150637240Y-88703250D03*
%TO.P,J7,18,Pin_18*%
%TO.N,GND*%
X148097240Y-88703250D03*
%TO.P,J7,19,Pin_19*%
%TO.N,Shunt_1*%
X150637240Y-91243250D03*
%TO.P,J7,20,Pin_20*%
%TO.N,Shunt_2*%
X148097240Y-91243250D03*
%TD*%
D11*
%TO.P,J3,1,Pin_1*%
%TO.N,B*%
X149367240Y-43618250D03*
%TD*%
D15*
%TO.P,C44,1*%
%TO.N,Earth_Protective*%
X160797240Y-124838250D03*
%TO.P,C44,2*%
%TO.N,Net-(J5-Pin_1)*%
X160797240Y-117338250D03*
%TD*%
D12*
%TO.P,J5,1,Pin_1*%
%TO.N,Net-(J5-Pin_1)*%
X154447240Y-119483250D03*
%TD*%
D15*
%TO.P,C45,1*%
%TO.N,Shunt_1*%
X137937240Y-117338250D03*
%TO.P,C45,2*%
%TO.N,Earth_Protective*%
X137937240Y-124838250D03*
%TD*%
D16*
%TO.P,C6,1*%
%TO.N,Shunt_1*%
X145557240Y-93490750D03*
%TO.P,C6,2*%
%TO.N,GND*%
X145557240Y-96615750D03*
%TD*%
D17*
%TO.P,C4,1*%
%TO.N,Shunt_1*%
X153177240Y-102330750D03*
%TO.P,C4,2*%
%TO.N,GND*%
X153177240Y-99205750D03*
%TD*%
D16*
%TO.P,C39,1*%
%TO.N,Shunt_1*%
X164607240Y-104920750D03*
%TO.P,C39,2*%
%TO.N,GND*%
X164607240Y-108045750D03*
%TD*%
D17*
%TO.P,C9,1*%
%TO.N,Shunt_1*%
X149367240Y-102330750D03*
%TO.P,C9,2*%
%TO.N,GND*%
X149367240Y-99205750D03*
%TD*%
D16*
%TO.P,C21,1*%
%TO.N,Shunt_1*%
X153177240Y-93490750D03*
%TO.P,C21,2*%
%TO.N,GND*%
X153177240Y-96615750D03*
%TD*%
D17*
%TO.P,C28,1*%
%TO.N,Shunt_1*%
X137937240Y-102330750D03*
%TO.P,C28,2*%
%TO.N,GND*%
X137937240Y-99205750D03*
%TD*%
D16*
%TO.P,C24,1*%
%TO.N,Shunt_1*%
X137937240Y-104920750D03*
%TO.P,C24,2*%
%TO.N,GND*%
X137937240Y-108045750D03*
%TD*%
D17*
%TO.P,C19,1*%
%TO.N,Shunt_1*%
X156987240Y-113418250D03*
%TO.P,C19,2*%
%TO.N,GND*%
X156987240Y-110293250D03*
%TD*%
D16*
%TO.P,C12,1*%
%TO.N,Shunt_1*%
X134127240Y-104920750D03*
%TO.P,C12,2*%
%TO.N,GND*%
X134127240Y-108045750D03*
%TD*%
D17*
%TO.P,C27,1*%
%TO.N,Shunt_1*%
X137937240Y-113368250D03*
%TO.P,C27,2*%
%TO.N,GND*%
X137937240Y-110243250D03*
%TD*%
D16*
%TO.P,C42,1*%
%TO.N,Shunt_1*%
X156987240Y-93490750D03*
%TO.P,C42,2*%
%TO.N,GND*%
X156987240Y-96615750D03*
%TD*%
%TO.P,C32,1*%
%TO.N,Shunt_1*%
X160797240Y-104920750D03*
%TO.P,C32,2*%
%TO.N,GND*%
X160797240Y-108045750D03*
%TD*%
%TO.P,C41,1*%
%TO.N,Shunt_1*%
X156987240Y-104920750D03*
%TO.P,C41,2*%
%TO.N,GND*%
X156987240Y-108045750D03*
%TD*%
%TO.P,C34,1*%
%TO.N,Shunt_1*%
X154447240Y-87775750D03*
%TO.P,C34,2*%
%TO.N,GND*%
X154447240Y-90900750D03*
%TD*%
D17*
%TO.P,C15,1*%
%TO.N,Shunt_1*%
X160797240Y-113368250D03*
%TO.P,C15,2*%
%TO.N,GND*%
X160797240Y-110243250D03*
%TD*%
%TO.P,C23,1*%
%TO.N,Shunt_1*%
X160797240Y-102330750D03*
%TO.P,C23,2*%
%TO.N,GND*%
X160797240Y-99205750D03*
%TD*%
D16*
%TO.P,C13,1*%
%TO.N,Shunt_1*%
X144287240Y-87775750D03*
%TO.P,C13,2*%
%TO.N,GND*%
X144287240Y-90900750D03*
%TD*%
D17*
%TO.P,C40,1*%
%TO.N,Shunt_1*%
X145557240Y-113368250D03*
%TO.P,C40,2*%
%TO.N,GND*%
X145557240Y-110243250D03*
%TD*%
%TO.P,C33,1*%
%TO.N,Shunt_1*%
X149367240Y-113418250D03*
%TO.P,C33,2*%
%TO.N,GND*%
X149367240Y-110293250D03*
%TD*%
D16*
%TO.P,C18,1*%
%TO.N,Shunt_1*%
X145557240Y-104920750D03*
%TO.P,C18,2*%
%TO.N,GND*%
X145557240Y-108045750D03*
%TD*%
D17*
%TO.P,C38,1*%
%TO.N,Shunt_1*%
X144287240Y-85185750D03*
%TO.P,C38,2*%
%TO.N,GND*%
X144287240Y-82060750D03*
%TD*%
D16*
%TO.P,C8,1*%
%TO.N,Shunt_1*%
X149367240Y-93490750D03*
%TO.P,C8,2*%
%TO.N,GND*%
X149367240Y-96615750D03*
%TD*%
D17*
%TO.P,C16,1*%
%TO.N,Shunt_1*%
X141747240Y-102330750D03*
%TO.P,C16,2*%
%TO.N,GND*%
X141747240Y-99205750D03*
%TD*%
D16*
%TO.P,C37,1*%
%TO.N,Shunt_1*%
X153177240Y-104920750D03*
%TO.P,C37,2*%
%TO.N,GND*%
X153177240Y-108045750D03*
%TD*%
%TO.P,C43,1*%
%TO.N,Shunt_1*%
X149367240Y-104920750D03*
%TO.P,C43,2*%
%TO.N,GND*%
X149367240Y-108045750D03*
%TD*%
D17*
%TO.P,C35,1*%
%TO.N,Shunt_1*%
X145557240Y-102330750D03*
%TO.P,C35,2*%
%TO.N,GND*%
X145557240Y-99205750D03*
%TD*%
D16*
%TO.P,C20,1*%
%TO.N,Shunt_1*%
X160797240Y-93490750D03*
%TO.P,C20,2*%
%TO.N,GND*%
X160797240Y-96615750D03*
%TD*%
%TO.P,C2,1*%
%TO.N,Shunt_1*%
X141747240Y-93490750D03*
%TO.P,C2,2*%
%TO.N,GND*%
X141747240Y-96615750D03*
%TD*%
%TO.P,C22,1*%
%TO.N,Shunt_1*%
X137937240Y-93490750D03*
%TO.P,C22,2*%
%TO.N,GND*%
X137937240Y-96615750D03*
%TD*%
D17*
%TO.P,C7,1*%
%TO.N,Shunt_1*%
X141747240Y-113368250D03*
%TO.P,C7,2*%
%TO.N,GND*%
X141747240Y-110243250D03*
%TD*%
%TO.P,C1,1*%
%TO.N,Shunt_1*%
X156987240Y-102380750D03*
%TO.P,C1,2*%
%TO.N,GND*%
X156987240Y-99255750D03*
%TD*%
%TO.P,C36,1*%
%TO.N,Shunt_1*%
X154447240Y-85185750D03*
%TO.P,C36,2*%
%TO.N,GND*%
X154447240Y-82060750D03*
%TD*%
%TO.P,C31,1*%
%TO.N,Shunt_1*%
X153177240Y-113418250D03*
%TO.P,C31,2*%
%TO.N,GND*%
X153177240Y-110293250D03*
%TD*%
D16*
%TO.P,C30,1*%
%TO.N,Shunt_1*%
X141747240Y-104920750D03*
%TO.P,C30,2*%
%TO.N,GND*%
X141747240Y-108045750D03*
%TD*%
D18*
%TO.N,SDA_MCU*%
X175148240Y-79940250D03*
%TO.N,G1*%
X158892240Y-77273250D03*
%TO.N,A*%
X176672240Y-69653250D03*
X158892240Y-79813250D03*
X170322240Y-65843250D03*
X173497240Y-67113250D03*
X158892240Y-81083250D03*
X173497240Y-70923250D03*
X158892240Y-82353250D03*
X173497240Y-65843250D03*
X170322240Y-70923250D03*
X173497240Y-69653250D03*
X170322240Y-68383250D03*
X173497240Y-68383250D03*
X170322240Y-72193250D03*
X176672240Y-64573250D03*
X170322240Y-64573250D03*
X176672240Y-68383250D03*
X176672240Y-67113250D03*
X158892240Y-78543250D03*
X158892240Y-86163250D03*
X176672240Y-70923250D03*
X158892240Y-84893250D03*
X176672240Y-72193250D03*
X176672240Y-65843250D03*
X158892240Y-83623250D03*
X170322240Y-69653250D03*
X170322240Y-67113250D03*
%TO.N,G2*%
X162702240Y-63938250D03*
%TO.N,GND*%
X144922240Y-62033250D03*
X162702240Y-95688250D03*
X162702240Y-72828250D03*
X162702240Y-65208250D03*
X163972240Y-93148250D03*
X176926240Y-82988250D03*
X135397240Y-66478250D03*
X162702240Y-70288250D03*
X159527240Y-91878250D03*
X135397240Y-65208250D03*
X164607240Y-94418250D03*
X160797240Y-91878250D03*
X164607240Y-91878250D03*
X124348240Y-75368250D03*
X163337240Y-94418250D03*
X146192240Y-62033250D03*
X124094240Y-81464250D03*
X147970240Y-57287750D03*
X164607240Y-98228250D03*
X139842240Y-109023250D03*
X165242240Y-93148250D03*
X158257240Y-91878250D03*
X163337240Y-96958250D03*
X135397240Y-69018250D03*
X177942240Y-75114250D03*
X165877240Y-91878250D03*
X162702240Y-69018250D03*
X139842240Y-99205750D03*
X135397240Y-67748250D03*
X135397240Y-70288250D03*
X142382240Y-62033250D03*
X143703040Y-99193450D03*
X135397240Y-63938250D03*
X141112240Y-62033250D03*
X163972240Y-110293250D03*
X143652240Y-109023250D03*
X162067240Y-91878250D03*
X162702240Y-66478250D03*
X143652240Y-62033250D03*
X163337240Y-98228250D03*
X164607240Y-96958250D03*
X135397240Y-71558250D03*
X138572240Y-62033250D03*
X163337240Y-91878250D03*
X162702240Y-71558250D03*
X163972240Y-95688250D03*
X162702240Y-67748250D03*
X139842240Y-62033250D03*
%TO.N,G3*%
X152415240Y-62668250D03*
%TO.N,B*%
X138572240Y-51873250D03*
X143652240Y-55048250D03*
X142382240Y-51873250D03*
X141112240Y-48698250D03*
X139842240Y-48698250D03*
X137302240Y-55048250D03*
X137302240Y-48698250D03*
X139842240Y-51873250D03*
X143652240Y-48698250D03*
X157622240Y-62668250D03*
X139842240Y-55048250D03*
X153812240Y-62668250D03*
X155082240Y-62668250D03*
X143652240Y-51873250D03*
X142382240Y-48698250D03*
X161432240Y-62668250D03*
X138572240Y-55048250D03*
X141112240Y-55048250D03*
X142382240Y-55048250D03*
X158892240Y-62668250D03*
X138572240Y-48698250D03*
X141112240Y-51873250D03*
X144922240Y-55048250D03*
X160162240Y-62668250D03*
X144922240Y-48698250D03*
X156352240Y-62668250D03*
%TO.N,G4*%
X137302240Y-62033250D03*
%TO.N,G5*%
X139842240Y-86163250D03*
%TO.N,C*%
X139842240Y-82353250D03*
X128412240Y-69653250D03*
X139842240Y-84893250D03*
X128412240Y-68383250D03*
X128412240Y-67113250D03*
X125237240Y-69653250D03*
X125237240Y-67113250D03*
X122062240Y-68383250D03*
X122062240Y-67113250D03*
X139842240Y-79813250D03*
X122062240Y-70923250D03*
X128412240Y-64573250D03*
X122062240Y-64573250D03*
X122062240Y-65843250D03*
X128412240Y-65843250D03*
X128412240Y-70923250D03*
X125237240Y-68383250D03*
X139842240Y-77273250D03*
X125237240Y-70923250D03*
X122062240Y-72193250D03*
X128412240Y-72193250D03*
X125237240Y-65843250D03*
X139842240Y-78543250D03*
X139842240Y-81083250D03*
X139842240Y-83623250D03*
X122062240Y-69653250D03*
%TO.N,G6*%
X135397240Y-72828250D03*
%TO.N,Shunt_1*%
X134762240Y-97593250D03*
X143652240Y-105213250D03*
X136032240Y-105213250D03*
X165877240Y-106483250D03*
X143652240Y-103943250D03*
X134762240Y-95053250D03*
X147462240Y-97593250D03*
X139842240Y-105213250D03*
X134762240Y-96323250D03*
X147462240Y-103943250D03*
X144287240Y-86442750D03*
X134762240Y-98863250D03*
X154447240Y-86163250D03*
X147462240Y-105213250D03*
X136667240Y-91243250D03*
X139842240Y-103943250D03*
X132857240Y-91243250D03*
%TO.N,Shunt_2*%
X144922240Y-77273250D03*
X153812240Y-69018250D03*
X157368240Y-51873250D03*
X126507240Y-85528250D03*
X169052240Y-81718250D03*
X153558240Y-55048250D03*
X126507240Y-79178250D03*
X172227240Y-77908250D03*
X159908240Y-51873250D03*
X158638240Y-55048250D03*
X165877240Y-77908250D03*
X143652240Y-76003250D03*
X157368240Y-48698250D03*
X129682240Y-81718250D03*
X169052240Y-84258250D03*
X154447240Y-67748250D03*
X155082240Y-66478250D03*
X126507240Y-77908250D03*
X172227240Y-79178250D03*
X132857240Y-77908250D03*
X143652240Y-65208250D03*
X129682240Y-79178250D03*
X165877240Y-84258250D03*
X172227240Y-84258250D03*
X126507240Y-82988250D03*
X156098240Y-55048250D03*
X132857240Y-85528250D03*
X169052240Y-82988250D03*
X154828240Y-51873250D03*
X132857240Y-81718250D03*
X159908240Y-55048250D03*
X129682240Y-84258250D03*
X154828240Y-48698250D03*
X156098240Y-51873250D03*
X159908240Y-48698250D03*
X172227240Y-82988250D03*
X165877240Y-79178250D03*
X153558240Y-48698250D03*
X126507240Y-84258250D03*
X155082240Y-69018250D03*
X129682240Y-82988250D03*
X132857240Y-82988250D03*
X165877240Y-81718250D03*
X161178240Y-55048250D03*
X158638240Y-51873250D03*
X143652240Y-70923250D03*
X155717240Y-67748250D03*
X153812240Y-66478250D03*
X144287240Y-66478250D03*
X165877240Y-85528250D03*
X154828240Y-55048250D03*
X155717240Y-65208250D03*
X144922240Y-65208250D03*
X126507240Y-81718250D03*
X154447240Y-65208250D03*
X161178240Y-48698250D03*
X172227240Y-85528250D03*
X165877240Y-80448250D03*
X132857240Y-79178250D03*
X158638240Y-48698250D03*
X132857240Y-84258250D03*
X129682240Y-80448250D03*
X169052240Y-80448250D03*
X165877240Y-82988250D03*
X169052240Y-79178250D03*
X156098240Y-48698250D03*
X126507240Y-80448250D03*
X145557240Y-66478250D03*
X144922240Y-72193250D03*
X172227240Y-80448250D03*
X172227240Y-81718250D03*
X132857240Y-80448250D03*
X157368240Y-55048250D03*
%TO.N,+3.3V*%
X120792240Y-75368250D03*
X150764240Y-61605750D03*
X174384056Y-75115342D03*
X148224240Y-66050750D03*
%TO.N,SDA_MCU*%
X121300240Y-79940250D03*
X150764240Y-60081750D03*
%TO.N,SCL_MCU*%
X176159941Y-79935951D03*
X149748240Y-60081750D03*
X122316240Y-79940250D03*
%TO.N,~{OS}_MCU*%
X148732240Y-60081750D03*
X177180240Y-79940250D03*
X123332240Y-79940250D03*
%TD*%
D19*
%TO.N,GND*%
X150929740Y-85870750D02*
X150637240Y-86163250D01*
D20*
%TO.N,Shunt_1*%
X164607240Y-105848250D02*
X164607240Y-104920750D01*
D19*
X144287240Y-85185750D02*
X144287240Y-86442750D01*
D20*
X165877240Y-106483250D02*
X165242240Y-106483250D01*
D19*
X144287240Y-86442750D02*
X144287240Y-87775750D01*
D20*
X165242240Y-106483250D02*
X164607240Y-105848250D01*
%TD*%
%TA.AperFunction,Conductor*%
%TO.N,Earth_Protective*%
G36*
X138769279Y-122631935D02*
G01*
X138815034Y-122684739D01*
X138826240Y-122736250D01*
X138826240Y-125400406D01*
X138806555Y-125467445D01*
X138753751Y-125513200D01*
X138702266Y-125524406D01*
X131552283Y-125525890D01*
X131485239Y-125506219D01*
X131439473Y-125453425D01*
X131428257Y-125401890D01*
X131428257Y-122736250D01*
X131447942Y-122669211D01*
X131500746Y-122623456D01*
X131552257Y-122612250D01*
X138702240Y-122612250D01*
X138769279Y-122631935D01*
G37*
%TD.AperFunction*%
%TD*%
%TA.AperFunction,Conductor*%
%TO.N,B*%
G36*
X150556947Y-40094548D02*
G01*
X151661981Y-40153779D01*
X152764197Y-40252414D01*
X153862191Y-40390326D01*
X154954562Y-40567341D01*
X156039920Y-40783232D01*
X157116880Y-41037724D01*
X157677848Y-41191618D01*
X157737289Y-41228337D01*
X157767443Y-41291364D01*
X157759322Y-41359320D01*
X157743540Y-41396799D01*
X157613986Y-41808627D01*
X157523559Y-42230807D01*
X157473064Y-42659589D01*
X157473064Y-42659591D01*
X157462944Y-43091216D01*
X157462944Y-43091227D01*
X157493284Y-43521889D01*
X157563824Y-43947846D01*
X157673933Y-44365300D01*
X157673935Y-44365307D01*
X157748937Y-44569713D01*
X157822659Y-44770631D01*
X157956137Y-45050191D01*
X158008682Y-45160244D01*
X158008685Y-45160250D01*
X158230371Y-45530728D01*
X158230375Y-45530734D01*
X158485782Y-45878826D01*
X158632214Y-46043515D01*
X158772665Y-46201476D01*
X159088501Y-46495844D01*
X159088510Y-46495852D01*
X159430504Y-46759336D01*
X159430511Y-46759341D01*
X159430514Y-46759343D01*
X159795699Y-46989658D01*
X160180846Y-47184764D01*
X160570420Y-47338162D01*
X160582576Y-47342949D01*
X160717113Y-47381830D01*
X160997343Y-47462817D01*
X160997347Y-47462817D01*
X160997347Y-47462818D01*
X161421512Y-47543320D01*
X161421513Y-47543320D01*
X161421518Y-47543321D01*
X161851367Y-47583750D01*
X161851369Y-47583750D01*
X162175120Y-47583750D01*
X162202356Y-47582471D01*
X162498512Y-47568575D01*
X162780669Y-47528620D01*
X162925981Y-47508044D01*
X162925984Y-47508043D01*
X162925993Y-47508042D01*
X163345928Y-47407745D01*
X163754626Y-47268566D01*
X164148495Y-47091727D01*
X164524074Y-46878782D01*
X164878062Y-46631603D01*
X165207348Y-46352363D01*
X165509039Y-46043515D01*
X165780484Y-45707773D01*
X166019296Y-45348087D01*
X166144150Y-45115321D01*
X166193182Y-45065552D01*
X166261343Y-45050191D01*
X166322311Y-45070836D01*
X167130219Y-45610663D01*
X168027810Y-46257918D01*
X168901727Y-46936798D01*
X169750857Y-47646437D01*
X170574117Y-48385932D01*
X171370459Y-49154339D01*
X172138866Y-49950681D01*
X172539223Y-50396388D01*
X172569377Y-50459415D01*
X172560670Y-50528740D01*
X172515865Y-50582352D01*
X172449187Y-50603230D01*
X172446974Y-50603250D01*
X162702240Y-50603250D01*
X162702240Y-62917219D01*
X162682555Y-62984258D01*
X162629751Y-63030013D01*
X162604021Y-63038509D01*
X162422437Y-63077105D01*
X162422432Y-63077107D01*
X162249510Y-63154098D01*
X162249505Y-63154101D01*
X162096375Y-63265356D01*
X162091545Y-63269706D01*
X162089942Y-63267926D01*
X162039697Y-63298874D01*
X162007046Y-63303250D01*
X153303205Y-63303250D01*
X153236166Y-63283565D01*
X153190411Y-63230761D01*
X153180467Y-63161603D01*
X153195817Y-63117251D01*
X153242419Y-63036534D01*
X153300914Y-62856506D01*
X153320700Y-62668250D01*
X153300914Y-62479994D01*
X153242419Y-62299966D01*
X153147773Y-62136034D01*
X153021111Y-61995362D01*
X153006735Y-61984917D01*
X152867974Y-61884101D01*
X152867969Y-61884098D01*
X152695047Y-61807107D01*
X152695042Y-61807105D01*
X152549241Y-61776115D01*
X152509886Y-61767750D01*
X152320594Y-61767750D01*
X152288137Y-61774648D01*
X152135437Y-61807105D01*
X152135432Y-61807107D01*
X151962510Y-61884098D01*
X151962505Y-61884101D01*
X151823744Y-61984917D01*
X151757938Y-62008397D01*
X151689884Y-61992571D01*
X151641189Y-61942465D01*
X151627314Y-61873987D01*
X151632925Y-61846290D01*
X151649914Y-61794006D01*
X151669700Y-61605750D01*
X151649914Y-61417494D01*
X151591419Y-61237466D01*
X151496773Y-61073534D01*
X151370111Y-60932862D01*
X151370110Y-60932861D01*
X151365762Y-60928032D01*
X151367612Y-60926366D01*
X151336837Y-60876417D01*
X151338165Y-60806560D01*
X151367451Y-60760989D01*
X151365762Y-60759468D01*
X151370111Y-60754638D01*
X151496773Y-60613966D01*
X151591419Y-60450034D01*
X151649914Y-60270006D01*
X151669700Y-60081750D01*
X151649914Y-59893494D01*
X151591419Y-59713466D01*
X151496773Y-59549534D01*
X151370111Y-59408862D01*
X151370110Y-59408861D01*
X151216974Y-59297601D01*
X151216969Y-59297598D01*
X151044047Y-59220607D01*
X151044042Y-59220605D01*
X150898240Y-59189615D01*
X150858886Y-59181250D01*
X150669594Y-59181250D01*
X150637137Y-59188148D01*
X150484437Y-59220605D01*
X150484432Y-59220607D01*
X150306676Y-59299751D01*
X150237426Y-59309036D01*
X150205804Y-59299751D01*
X150028047Y-59220607D01*
X150028042Y-59220605D01*
X149882240Y-59189615D01*
X149842886Y-59181250D01*
X149653594Y-59181250D01*
X149621137Y-59188148D01*
X149468437Y-59220605D01*
X149468432Y-59220607D01*
X149290676Y-59299751D01*
X149221426Y-59309036D01*
X149189804Y-59299751D01*
X149012047Y-59220607D01*
X149012042Y-59220605D01*
X148866240Y-59189615D01*
X148826886Y-59181250D01*
X148637594Y-59181250D01*
X148605137Y-59188148D01*
X148452437Y-59220605D01*
X148452432Y-59220607D01*
X148279510Y-59297598D01*
X148279505Y-59297601D01*
X148126369Y-59408861D01*
X147999706Y-59549535D01*
X147905061Y-59713465D01*
X147905058Y-59713472D01*
X147848703Y-59886917D01*
X147846566Y-59893494D01*
X147826780Y-60081750D01*
X147846566Y-60270006D01*
X147846567Y-60270009D01*
X147905058Y-60450027D01*
X147905061Y-60450034D01*
X147999707Y-60613966D01*
X148030071Y-60647688D01*
X148126369Y-60754638D01*
X148279505Y-60865898D01*
X148279510Y-60865901D01*
X148452432Y-60942892D01*
X148452437Y-60942894D01*
X148637594Y-60982250D01*
X148637595Y-60982250D01*
X148826884Y-60982250D01*
X148826886Y-60982250D01*
X149012043Y-60942894D01*
X149184970Y-60865901D01*
X149184974Y-60865898D01*
X149189803Y-60863748D01*
X149259053Y-60854462D01*
X149290677Y-60863748D01*
X149295505Y-60865898D01*
X149295510Y-60865901D01*
X149468437Y-60942894D01*
X149653594Y-60982250D01*
X149653595Y-60982250D01*
X149842881Y-60982250D01*
X149842886Y-60982250D01*
X149845763Y-60981638D01*
X149847467Y-60981768D01*
X149849343Y-60981571D01*
X149849379Y-60981913D01*
X149915427Y-60986946D01*
X149971165Y-61029076D01*
X149995278Y-61094653D01*
X149980109Y-61162857D01*
X149978942Y-61164923D01*
X149937062Y-61237463D01*
X149937058Y-61237472D01*
X149897129Y-61360362D01*
X149878566Y-61417494D01*
X149858780Y-61605750D01*
X149878566Y-61794006D01*
X149878567Y-61794009D01*
X149937058Y-61974027D01*
X149937061Y-61974034D01*
X150031707Y-62137966D01*
X150106927Y-62221506D01*
X150158369Y-62278638D01*
X150311505Y-62389898D01*
X150311510Y-62389901D01*
X150484432Y-62466892D01*
X150484437Y-62466894D01*
X150669594Y-62506250D01*
X150669595Y-62506250D01*
X150858884Y-62506250D01*
X150858886Y-62506250D01*
X151044043Y-62466894D01*
X151216970Y-62389901D01*
X151355737Y-62289080D01*
X151421540Y-62265602D01*
X151489594Y-62281427D01*
X151538289Y-62331533D01*
X151552165Y-62400011D01*
X151546551Y-62427717D01*
X151529567Y-62479989D01*
X151529567Y-62479990D01*
X151529566Y-62479994D01*
X151509780Y-62668250D01*
X151529566Y-62856506D01*
X151529567Y-62856509D01*
X151588058Y-63036527D01*
X151588060Y-63036531D01*
X151588061Y-63036534D01*
X151611486Y-63077107D01*
X151634663Y-63117251D01*
X151651135Y-63185151D01*
X151628282Y-63251178D01*
X151573360Y-63294368D01*
X151527275Y-63303250D01*
X136156240Y-63303250D01*
X136089201Y-63283565D01*
X136043446Y-63230761D01*
X136032240Y-63179250D01*
X136032240Y-62033250D01*
X136396780Y-62033250D01*
X136416566Y-62221506D01*
X136416567Y-62221509D01*
X136475058Y-62401527D01*
X136475061Y-62401534D01*
X136569707Y-62565466D01*
X136667240Y-62673787D01*
X136696369Y-62706138D01*
X136849505Y-62817398D01*
X136849510Y-62817401D01*
X137022432Y-62894392D01*
X137022437Y-62894394D01*
X137207594Y-62933750D01*
X137207595Y-62933750D01*
X137396884Y-62933750D01*
X137396886Y-62933750D01*
X137582043Y-62894394D01*
X137754970Y-62817401D01*
X137864357Y-62737926D01*
X137930160Y-62714448D01*
X137998214Y-62730273D01*
X138010111Y-62737918D01*
X138107972Y-62809018D01*
X138119510Y-62817401D01*
X138292432Y-62894392D01*
X138292437Y-62894394D01*
X138477594Y-62933750D01*
X138477595Y-62933750D01*
X138666884Y-62933750D01*
X138666886Y-62933750D01*
X138852043Y-62894394D01*
X139024970Y-62817401D01*
X139134357Y-62737926D01*
X139200160Y-62714448D01*
X139268214Y-62730273D01*
X139280111Y-62737918D01*
X139377972Y-62809018D01*
X139389510Y-62817401D01*
X139562432Y-62894392D01*
X139562437Y-62894394D01*
X139747594Y-62933750D01*
X139747595Y-62933750D01*
X139936884Y-62933750D01*
X139936886Y-62933750D01*
X140122043Y-62894394D01*
X140294970Y-62817401D01*
X140404357Y-62737926D01*
X140470160Y-62714448D01*
X140538214Y-62730273D01*
X140550111Y-62737918D01*
X140647972Y-62809018D01*
X140659510Y-62817401D01*
X140832432Y-62894392D01*
X140832437Y-62894394D01*
X141017594Y-62933750D01*
X141017595Y-62933750D01*
X141206884Y-62933750D01*
X141206886Y-62933750D01*
X141392043Y-62894394D01*
X141564970Y-62817401D01*
X141674357Y-62737926D01*
X141740160Y-62714448D01*
X141808214Y-62730273D01*
X141820111Y-62737918D01*
X141917972Y-62809018D01*
X141929510Y-62817401D01*
X142102432Y-62894392D01*
X142102437Y-62894394D01*
X142287594Y-62933750D01*
X142287595Y-62933750D01*
X142476884Y-62933750D01*
X142476886Y-62933750D01*
X142662043Y-62894394D01*
X142834970Y-62817401D01*
X142944357Y-62737926D01*
X143010160Y-62714448D01*
X143078214Y-62730273D01*
X143090111Y-62737918D01*
X143187972Y-62809018D01*
X143199510Y-62817401D01*
X143372432Y-62894392D01*
X143372437Y-62894394D01*
X143557594Y-62933750D01*
X143557595Y-62933750D01*
X143746884Y-62933750D01*
X143746886Y-62933750D01*
X143932043Y-62894394D01*
X144104970Y-62817401D01*
X144214357Y-62737926D01*
X144280160Y-62714448D01*
X144348214Y-62730273D01*
X144360111Y-62737918D01*
X144457972Y-62809018D01*
X144469510Y-62817401D01*
X144642432Y-62894392D01*
X144642437Y-62894394D01*
X144827594Y-62933750D01*
X144827595Y-62933750D01*
X145016884Y-62933750D01*
X145016886Y-62933750D01*
X145202043Y-62894394D01*
X145374970Y-62817401D01*
X145484357Y-62737926D01*
X145550160Y-62714448D01*
X145618214Y-62730273D01*
X145630111Y-62737918D01*
X145727972Y-62809018D01*
X145739510Y-62817401D01*
X145912432Y-62894392D01*
X145912437Y-62894394D01*
X146097594Y-62933750D01*
X146097595Y-62933750D01*
X146286884Y-62933750D01*
X146286886Y-62933750D01*
X146472043Y-62894394D01*
X146644970Y-62817401D01*
X146798111Y-62706138D01*
X146924773Y-62565466D01*
X147019419Y-62401534D01*
X147077914Y-62221506D01*
X147097700Y-62033250D01*
X147077914Y-61844994D01*
X147019419Y-61664966D01*
X146924773Y-61501034D01*
X146798111Y-61360362D01*
X146786672Y-61352051D01*
X146644974Y-61249101D01*
X146644969Y-61249098D01*
X146472047Y-61172107D01*
X146472042Y-61172105D01*
X146326240Y-61141115D01*
X146286886Y-61132750D01*
X146097594Y-61132750D01*
X146065137Y-61139648D01*
X145912437Y-61172105D01*
X145912432Y-61172107D01*
X145739510Y-61249098D01*
X145739505Y-61249101D01*
X145630125Y-61328571D01*
X145564319Y-61352051D01*
X145496265Y-61336225D01*
X145484355Y-61328571D01*
X145374974Y-61249101D01*
X145374969Y-61249098D01*
X145202047Y-61172107D01*
X145202042Y-61172105D01*
X145056241Y-61141115D01*
X145016886Y-61132750D01*
X144827594Y-61132750D01*
X144795137Y-61139648D01*
X144642437Y-61172105D01*
X144642432Y-61172107D01*
X144469510Y-61249098D01*
X144469505Y-61249101D01*
X144360125Y-61328571D01*
X144294319Y-61352051D01*
X144226265Y-61336225D01*
X144214355Y-61328571D01*
X144104974Y-61249101D01*
X144104969Y-61249098D01*
X143932047Y-61172107D01*
X143932042Y-61172105D01*
X143786241Y-61141115D01*
X143746886Y-61132750D01*
X143557594Y-61132750D01*
X143525137Y-61139648D01*
X143372437Y-61172105D01*
X143372432Y-61172107D01*
X143199510Y-61249098D01*
X143199505Y-61249101D01*
X143090125Y-61328571D01*
X143024319Y-61352051D01*
X142956265Y-61336225D01*
X142944355Y-61328571D01*
X142834974Y-61249101D01*
X142834969Y-61249098D01*
X142662047Y-61172107D01*
X142662042Y-61172105D01*
X142516240Y-61141115D01*
X142476886Y-61132750D01*
X142287594Y-61132750D01*
X142255137Y-61139648D01*
X142102437Y-61172105D01*
X142102432Y-61172107D01*
X141929510Y-61249098D01*
X141929505Y-61249101D01*
X141820125Y-61328571D01*
X141754319Y-61352051D01*
X141686265Y-61336225D01*
X141674355Y-61328571D01*
X141564974Y-61249101D01*
X141564969Y-61249098D01*
X141392047Y-61172107D01*
X141392042Y-61172105D01*
X141246241Y-61141115D01*
X141206886Y-61132750D01*
X141017594Y-61132750D01*
X140985137Y-61139648D01*
X140832437Y-61172105D01*
X140832432Y-61172107D01*
X140659510Y-61249098D01*
X140659505Y-61249101D01*
X140550125Y-61328571D01*
X140484319Y-61352051D01*
X140416265Y-61336225D01*
X140404355Y-61328571D01*
X140294974Y-61249101D01*
X140294969Y-61249098D01*
X140122047Y-61172107D01*
X140122042Y-61172105D01*
X139976240Y-61141115D01*
X139936886Y-61132750D01*
X139747594Y-61132750D01*
X139715137Y-61139648D01*
X139562437Y-61172105D01*
X139562432Y-61172107D01*
X139389510Y-61249098D01*
X139389505Y-61249101D01*
X139280125Y-61328571D01*
X139214319Y-61352051D01*
X139146265Y-61336225D01*
X139134355Y-61328571D01*
X139024974Y-61249101D01*
X139024969Y-61249098D01*
X138852047Y-61172107D01*
X138852042Y-61172105D01*
X138706240Y-61141115D01*
X138666886Y-61132750D01*
X138477594Y-61132750D01*
X138445137Y-61139648D01*
X138292437Y-61172105D01*
X138292432Y-61172107D01*
X138119510Y-61249098D01*
X138119505Y-61249101D01*
X138010125Y-61328571D01*
X137944319Y-61352051D01*
X137876265Y-61336225D01*
X137864355Y-61328571D01*
X137754974Y-61249101D01*
X137754969Y-61249098D01*
X137582047Y-61172107D01*
X137582042Y-61172105D01*
X137436240Y-61141115D01*
X137396886Y-61132750D01*
X137207594Y-61132750D01*
X137175137Y-61139648D01*
X137022437Y-61172105D01*
X137022432Y-61172107D01*
X136849510Y-61249098D01*
X136849505Y-61249101D01*
X136696369Y-61360361D01*
X136569706Y-61501035D01*
X136475061Y-61664965D01*
X136475058Y-61664972D01*
X136428876Y-61807107D01*
X136416566Y-61844994D01*
X136396780Y-62033250D01*
X136032240Y-62033250D01*
X136032240Y-57287750D01*
X147064780Y-57287750D01*
X147084566Y-57476006D01*
X147084567Y-57476009D01*
X147143058Y-57656027D01*
X147143061Y-57656034D01*
X147237707Y-57819966D01*
X147364369Y-57960638D01*
X147517505Y-58071898D01*
X147517510Y-58071901D01*
X147690432Y-58148892D01*
X147690437Y-58148894D01*
X147875594Y-58188250D01*
X147875595Y-58188250D01*
X148064884Y-58188250D01*
X148064886Y-58188250D01*
X148250043Y-58148894D01*
X148422970Y-58071901D01*
X148576111Y-57960638D01*
X148702773Y-57819966D01*
X148797419Y-57656034D01*
X148855914Y-57476006D01*
X148875700Y-57287750D01*
X148855914Y-57099494D01*
X148797419Y-56919466D01*
X148702773Y-56755534D01*
X148576111Y-56614862D01*
X148500026Y-56559583D01*
X148422974Y-56503601D01*
X148422969Y-56503598D01*
X148250047Y-56426607D01*
X148250042Y-56426605D01*
X148104241Y-56395615D01*
X148064886Y-56387250D01*
X147875594Y-56387250D01*
X147843137Y-56394148D01*
X147690437Y-56426605D01*
X147690432Y-56426607D01*
X147517510Y-56503598D01*
X147517505Y-56503601D01*
X147364369Y-56614861D01*
X147237706Y-56755535D01*
X147143061Y-56919465D01*
X147143058Y-56919472D01*
X147084567Y-57099490D01*
X147084566Y-57099494D01*
X147064780Y-57287750D01*
X136032240Y-57287750D01*
X136032240Y-55048250D01*
X152652780Y-55048250D01*
X152672566Y-55236506D01*
X152672567Y-55236509D01*
X152731058Y-55416527D01*
X152731061Y-55416534D01*
X152825707Y-55580466D01*
X152923240Y-55688787D01*
X152952369Y-55721138D01*
X153105505Y-55832398D01*
X153105510Y-55832401D01*
X153278432Y-55909392D01*
X153278437Y-55909394D01*
X153463594Y-55948750D01*
X153463595Y-55948750D01*
X153652884Y-55948750D01*
X153652886Y-55948750D01*
X153838043Y-55909394D01*
X154010970Y-55832401D01*
X154120357Y-55752926D01*
X154186160Y-55729448D01*
X154254214Y-55745273D01*
X154266111Y-55752918D01*
X154329279Y-55798812D01*
X154375510Y-55832401D01*
X154548432Y-55909392D01*
X154548437Y-55909394D01*
X154733594Y-55948750D01*
X154733595Y-55948750D01*
X154922884Y-55948750D01*
X154922886Y-55948750D01*
X155108043Y-55909394D01*
X155280970Y-55832401D01*
X155390357Y-55752926D01*
X155456160Y-55729448D01*
X155524214Y-55745273D01*
X155536111Y-55752918D01*
X155599279Y-55798812D01*
X155645510Y-55832401D01*
X155818432Y-55909392D01*
X155818437Y-55909394D01*
X156003594Y-55948750D01*
X156003595Y-55948750D01*
X156192884Y-55948750D01*
X156192886Y-55948750D01*
X156378043Y-55909394D01*
X156550970Y-55832401D01*
X156660357Y-55752926D01*
X156726160Y-55729448D01*
X156794214Y-55745273D01*
X156806111Y-55752918D01*
X156869279Y-55798812D01*
X156915510Y-55832401D01*
X157088432Y-55909392D01*
X157088437Y-55909394D01*
X157273594Y-55948750D01*
X157273595Y-55948750D01*
X157462884Y-55948750D01*
X157462886Y-55948750D01*
X157648043Y-55909394D01*
X157820970Y-55832401D01*
X157930357Y-55752926D01*
X157996160Y-55729448D01*
X158064214Y-55745273D01*
X158076111Y-55752918D01*
X158139279Y-55798812D01*
X158185510Y-55832401D01*
X158358432Y-55909392D01*
X158358437Y-55909394D01*
X158543594Y-55948750D01*
X158543595Y-55948750D01*
X158732884Y-55948750D01*
X158732886Y-55948750D01*
X158918043Y-55909394D01*
X159090970Y-55832401D01*
X159200357Y-55752926D01*
X159266160Y-55729448D01*
X159334214Y-55745273D01*
X159346111Y-55752918D01*
X159409279Y-55798812D01*
X159455510Y-55832401D01*
X159628432Y-55909392D01*
X159628437Y-55909394D01*
X159813594Y-55948750D01*
X159813595Y-55948750D01*
X160002884Y-55948750D01*
X160002886Y-55948750D01*
X160188043Y-55909394D01*
X160360970Y-55832401D01*
X160470357Y-55752926D01*
X160536160Y-55729448D01*
X160604214Y-55745273D01*
X160616111Y-55752918D01*
X160679279Y-55798812D01*
X160725510Y-55832401D01*
X160898432Y-55909392D01*
X160898437Y-55909394D01*
X161083594Y-55948750D01*
X161083595Y-55948750D01*
X161272884Y-55948750D01*
X161272886Y-55948750D01*
X161458043Y-55909394D01*
X161630970Y-55832401D01*
X161784111Y-55721138D01*
X161910773Y-55580466D01*
X162005419Y-55416534D01*
X162063914Y-55236506D01*
X162083700Y-55048250D01*
X162063914Y-54859994D01*
X162005419Y-54679966D01*
X161910773Y-54516034D01*
X161784111Y-54375362D01*
X161772672Y-54367051D01*
X161630974Y-54264101D01*
X161630969Y-54264098D01*
X161458047Y-54187107D01*
X161458042Y-54187105D01*
X161312241Y-54156115D01*
X161272886Y-54147750D01*
X161083594Y-54147750D01*
X161051137Y-54154648D01*
X160898437Y-54187105D01*
X160898432Y-54187107D01*
X160725510Y-54264098D01*
X160725505Y-54264101D01*
X160616125Y-54343571D01*
X160550319Y-54367051D01*
X160482265Y-54351225D01*
X160470355Y-54343571D01*
X160360974Y-54264101D01*
X160360969Y-54264098D01*
X160188047Y-54187107D01*
X160188042Y-54187105D01*
X160042241Y-54156115D01*
X160002886Y-54147750D01*
X159813594Y-54147750D01*
X159781137Y-54154648D01*
X159628437Y-54187105D01*
X159628432Y-54187107D01*
X159455510Y-54264098D01*
X159455505Y-54264101D01*
X159346125Y-54343571D01*
X159280319Y-54367051D01*
X159212265Y-54351225D01*
X159200355Y-54343571D01*
X159090974Y-54264101D01*
X159090969Y-54264098D01*
X158918047Y-54187107D01*
X158918042Y-54187105D01*
X158772240Y-54156115D01*
X158732886Y-54147750D01*
X158543594Y-54147750D01*
X158511137Y-54154648D01*
X158358437Y-54187105D01*
X158358432Y-54187107D01*
X158185510Y-54264098D01*
X158185505Y-54264101D01*
X158076125Y-54343571D01*
X158010319Y-54367051D01*
X157942265Y-54351225D01*
X157930355Y-54343571D01*
X157820974Y-54264101D01*
X157820969Y-54264098D01*
X157648047Y-54187107D01*
X157648042Y-54187105D01*
X157502241Y-54156115D01*
X157462886Y-54147750D01*
X157273594Y-54147750D01*
X157241137Y-54154648D01*
X157088437Y-54187105D01*
X157088432Y-54187107D01*
X156915510Y-54264098D01*
X156915505Y-54264101D01*
X156806125Y-54343571D01*
X156740319Y-54367051D01*
X156672265Y-54351225D01*
X156660355Y-54343571D01*
X156550974Y-54264101D01*
X156550969Y-54264098D01*
X156378047Y-54187107D01*
X156378042Y-54187105D01*
X156232240Y-54156115D01*
X156192886Y-54147750D01*
X156003594Y-54147750D01*
X155971137Y-54154648D01*
X155818437Y-54187105D01*
X155818432Y-54187107D01*
X155645510Y-54264098D01*
X155645505Y-54264101D01*
X155536125Y-54343571D01*
X155470319Y-54367051D01*
X155402265Y-54351225D01*
X155390355Y-54343571D01*
X155280974Y-54264101D01*
X155280969Y-54264098D01*
X155108047Y-54187107D01*
X155108042Y-54187105D01*
X154962240Y-54156115D01*
X154922886Y-54147750D01*
X154733594Y-54147750D01*
X154701137Y-54154648D01*
X154548437Y-54187105D01*
X154548432Y-54187107D01*
X154375510Y-54264098D01*
X154375505Y-54264101D01*
X154266125Y-54343571D01*
X154200319Y-54367051D01*
X154132265Y-54351225D01*
X154120355Y-54343571D01*
X154010974Y-54264101D01*
X154010969Y-54264098D01*
X153838047Y-54187107D01*
X153838042Y-54187105D01*
X153692241Y-54156115D01*
X153652886Y-54147750D01*
X153463594Y-54147750D01*
X153431137Y-54154648D01*
X153278437Y-54187105D01*
X153278432Y-54187107D01*
X153105510Y-54264098D01*
X153105505Y-54264101D01*
X152952369Y-54375361D01*
X152825706Y-54516035D01*
X152731061Y-54679965D01*
X152731058Y-54679972D01*
X152685623Y-54819808D01*
X152672566Y-54859994D01*
X152652780Y-55048250D01*
X136032240Y-55048250D01*
X136032240Y-51873250D01*
X153922780Y-51873250D01*
X153942566Y-52061506D01*
X153942567Y-52061509D01*
X154001058Y-52241527D01*
X154001061Y-52241534D01*
X154095707Y-52405466D01*
X154178114Y-52496988D01*
X154222369Y-52546138D01*
X154375505Y-52657398D01*
X154375510Y-52657401D01*
X154548432Y-52734392D01*
X154548437Y-52734394D01*
X154733594Y-52773750D01*
X154733595Y-52773750D01*
X154922884Y-52773750D01*
X154922886Y-52773750D01*
X155108043Y-52734394D01*
X155280970Y-52657401D01*
X155390357Y-52577926D01*
X155456160Y-52554448D01*
X155524214Y-52570273D01*
X155536111Y-52577918D01*
X155645506Y-52657398D01*
X155645510Y-52657401D01*
X155818432Y-52734392D01*
X155818437Y-52734394D01*
X156003594Y-52773750D01*
X156003595Y-52773750D01*
X156192884Y-52773750D01*
X156192886Y-52773750D01*
X156378043Y-52734394D01*
X156550970Y-52657401D01*
X156660357Y-52577926D01*
X156726160Y-52554448D01*
X156794214Y-52570273D01*
X156806111Y-52577918D01*
X156915506Y-52657398D01*
X156915510Y-52657401D01*
X157088432Y-52734392D01*
X157088437Y-52734394D01*
X157273594Y-52773750D01*
X157273595Y-52773750D01*
X157462884Y-52773750D01*
X157462886Y-52773750D01*
X157648043Y-52734394D01*
X157820970Y-52657401D01*
X157930357Y-52577926D01*
X157996160Y-52554448D01*
X158064214Y-52570273D01*
X158076111Y-52577918D01*
X158185506Y-52657398D01*
X158185510Y-52657401D01*
X158358432Y-52734392D01*
X158358437Y-52734394D01*
X158543594Y-52773750D01*
X158543595Y-52773750D01*
X158732884Y-52773750D01*
X158732886Y-52773750D01*
X158918043Y-52734394D01*
X159090970Y-52657401D01*
X159200357Y-52577926D01*
X159266160Y-52554448D01*
X159334214Y-52570273D01*
X159346111Y-52577918D01*
X159455506Y-52657398D01*
X159455510Y-52657401D01*
X159628432Y-52734392D01*
X159628437Y-52734394D01*
X159813594Y-52773750D01*
X159813595Y-52773750D01*
X160002884Y-52773750D01*
X160002886Y-52773750D01*
X160188043Y-52734394D01*
X160360970Y-52657401D01*
X160514111Y-52546138D01*
X160640773Y-52405466D01*
X160735419Y-52241534D01*
X160793914Y-52061506D01*
X160813700Y-51873250D01*
X160793914Y-51684994D01*
X160735419Y-51504966D01*
X160640773Y-51341034D01*
X160514111Y-51200362D01*
X160502672Y-51192051D01*
X160360974Y-51089101D01*
X160360969Y-51089098D01*
X160188047Y-51012107D01*
X160188042Y-51012105D01*
X160042241Y-50981115D01*
X160002886Y-50972750D01*
X159813594Y-50972750D01*
X159781137Y-50979648D01*
X159628437Y-51012105D01*
X159628432Y-51012107D01*
X159455510Y-51089098D01*
X159455505Y-51089101D01*
X159346125Y-51168571D01*
X159280319Y-51192051D01*
X159212265Y-51176225D01*
X159200355Y-51168571D01*
X159090974Y-51089101D01*
X159090969Y-51089098D01*
X158918047Y-51012107D01*
X158918042Y-51012105D01*
X158772240Y-50981115D01*
X158732886Y-50972750D01*
X158543594Y-50972750D01*
X158511137Y-50979648D01*
X158358437Y-51012105D01*
X158358432Y-51012107D01*
X158185510Y-51089098D01*
X158185505Y-51089101D01*
X158076125Y-51168571D01*
X158010319Y-51192051D01*
X157942265Y-51176225D01*
X157930355Y-51168571D01*
X157820974Y-51089101D01*
X157820969Y-51089098D01*
X157648047Y-51012107D01*
X157648042Y-51012105D01*
X157502241Y-50981115D01*
X157462886Y-50972750D01*
X157273594Y-50972750D01*
X157241137Y-50979648D01*
X157088437Y-51012105D01*
X157088432Y-51012107D01*
X156915510Y-51089098D01*
X156915505Y-51089101D01*
X156806125Y-51168571D01*
X156740319Y-51192051D01*
X156672265Y-51176225D01*
X156660355Y-51168571D01*
X156550974Y-51089101D01*
X156550969Y-51089098D01*
X156378047Y-51012107D01*
X156378042Y-51012105D01*
X156232240Y-50981115D01*
X156192886Y-50972750D01*
X156003594Y-50972750D01*
X155971137Y-50979648D01*
X155818437Y-51012105D01*
X155818432Y-51012107D01*
X155645510Y-51089098D01*
X155645505Y-51089101D01*
X155536125Y-51168571D01*
X155470319Y-51192051D01*
X155402265Y-51176225D01*
X155390355Y-51168571D01*
X155280974Y-51089101D01*
X155280969Y-51089098D01*
X155108047Y-51012107D01*
X155108042Y-51012105D01*
X154962240Y-50981115D01*
X154922886Y-50972750D01*
X154733594Y-50972750D01*
X154701137Y-50979648D01*
X154548437Y-51012105D01*
X154548432Y-51012107D01*
X154375510Y-51089098D01*
X154375505Y-51089101D01*
X154222369Y-51200361D01*
X154095706Y-51341035D01*
X154001061Y-51504965D01*
X154001058Y-51504972D01*
X153962686Y-51623071D01*
X153942566Y-51684994D01*
X153922780Y-51873250D01*
X136032240Y-51873250D01*
X136032240Y-50603250D01*
X126454030Y-50603250D01*
X126386991Y-50583565D01*
X126341236Y-50530761D01*
X126331292Y-50461603D01*
X126360317Y-50398047D01*
X126361781Y-50396388D01*
X126762138Y-49950681D01*
X127530545Y-49154339D01*
X128003215Y-48698250D01*
X152652780Y-48698250D01*
X152672566Y-48886506D01*
X152672567Y-48886509D01*
X152731058Y-49066527D01*
X152731061Y-49066534D01*
X152825707Y-49230466D01*
X152923240Y-49338787D01*
X152952369Y-49371138D01*
X153105505Y-49482398D01*
X153105510Y-49482401D01*
X153278432Y-49559392D01*
X153278437Y-49559394D01*
X153463594Y-49598750D01*
X153463595Y-49598750D01*
X153652884Y-49598750D01*
X153652886Y-49598750D01*
X153838043Y-49559394D01*
X154010970Y-49482401D01*
X154120357Y-49402926D01*
X154186160Y-49379448D01*
X154254214Y-49395273D01*
X154266111Y-49402918D01*
X154375506Y-49482398D01*
X154375510Y-49482401D01*
X154548432Y-49559392D01*
X154548437Y-49559394D01*
X154733594Y-49598750D01*
X154733595Y-49598750D01*
X154922884Y-49598750D01*
X154922886Y-49598750D01*
X155108043Y-49559394D01*
X155280970Y-49482401D01*
X155390357Y-49402926D01*
X155456160Y-49379448D01*
X155524214Y-49395273D01*
X155536111Y-49402918D01*
X155645506Y-49482398D01*
X155645510Y-49482401D01*
X155818432Y-49559392D01*
X155818437Y-49559394D01*
X156003594Y-49598750D01*
X156003595Y-49598750D01*
X156192884Y-49598750D01*
X156192886Y-49598750D01*
X156378043Y-49559394D01*
X156550970Y-49482401D01*
X156660357Y-49402926D01*
X156726160Y-49379448D01*
X156794214Y-49395273D01*
X156806111Y-49402918D01*
X156915506Y-49482398D01*
X156915510Y-49482401D01*
X157088432Y-49559392D01*
X157088437Y-49559394D01*
X157273594Y-49598750D01*
X157273595Y-49598750D01*
X157462884Y-49598750D01*
X157462886Y-49598750D01*
X157648043Y-49559394D01*
X157820970Y-49482401D01*
X157930357Y-49402926D01*
X157996160Y-49379448D01*
X158064214Y-49395273D01*
X158076111Y-49402918D01*
X158185506Y-49482398D01*
X158185510Y-49482401D01*
X158358432Y-49559392D01*
X158358437Y-49559394D01*
X158543594Y-49598750D01*
X158543595Y-49598750D01*
X158732884Y-49598750D01*
X158732886Y-49598750D01*
X158918043Y-49559394D01*
X159090970Y-49482401D01*
X159200357Y-49402926D01*
X159266160Y-49379448D01*
X159334214Y-49395273D01*
X159346111Y-49402918D01*
X159455506Y-49482398D01*
X159455510Y-49482401D01*
X159628432Y-49559392D01*
X159628437Y-49559394D01*
X159813594Y-49598750D01*
X159813595Y-49598750D01*
X160002884Y-49598750D01*
X160002886Y-49598750D01*
X160188043Y-49559394D01*
X160360970Y-49482401D01*
X160470357Y-49402926D01*
X160536160Y-49379448D01*
X160604214Y-49395273D01*
X160616111Y-49402918D01*
X160725506Y-49482398D01*
X160725510Y-49482401D01*
X160898432Y-49559392D01*
X160898437Y-49559394D01*
X161083594Y-49598750D01*
X161083595Y-49598750D01*
X161272884Y-49598750D01*
X161272886Y-49598750D01*
X161458043Y-49559394D01*
X161630970Y-49482401D01*
X161784111Y-49371138D01*
X161910773Y-49230466D01*
X162005419Y-49066534D01*
X162063914Y-48886506D01*
X162083700Y-48698250D01*
X162063914Y-48509994D01*
X162005419Y-48329966D01*
X161910773Y-48166034D01*
X161784111Y-48025362D01*
X161772672Y-48017051D01*
X161630974Y-47914101D01*
X161630969Y-47914098D01*
X161458047Y-47837107D01*
X161458042Y-47837105D01*
X161312241Y-47806115D01*
X161272886Y-47797750D01*
X161083594Y-47797750D01*
X161051137Y-47804648D01*
X160898437Y-47837105D01*
X160898432Y-47837107D01*
X160725510Y-47914098D01*
X160725505Y-47914101D01*
X160616125Y-47993571D01*
X160550319Y-48017051D01*
X160482265Y-48001225D01*
X160470355Y-47993571D01*
X160360974Y-47914101D01*
X160360969Y-47914098D01*
X160188047Y-47837107D01*
X160188042Y-47837105D01*
X160042240Y-47806115D01*
X160002886Y-47797750D01*
X159813594Y-47797750D01*
X159781137Y-47804648D01*
X159628437Y-47837105D01*
X159628432Y-47837107D01*
X159455510Y-47914098D01*
X159455505Y-47914101D01*
X159346125Y-47993571D01*
X159280319Y-48017051D01*
X159212265Y-48001225D01*
X159200355Y-47993571D01*
X159090974Y-47914101D01*
X159090969Y-47914098D01*
X158918047Y-47837107D01*
X158918042Y-47837105D01*
X158772240Y-47806115D01*
X158732886Y-47797750D01*
X158543594Y-47797750D01*
X158511137Y-47804648D01*
X158358437Y-47837105D01*
X158358432Y-47837107D01*
X158185510Y-47914098D01*
X158185505Y-47914101D01*
X158076125Y-47993571D01*
X158010319Y-48017051D01*
X157942265Y-48001225D01*
X157930355Y-47993571D01*
X157820974Y-47914101D01*
X157820969Y-47914098D01*
X157648047Y-47837107D01*
X157648042Y-47837105D01*
X157502241Y-47806115D01*
X157462886Y-47797750D01*
X157273594Y-47797750D01*
X157241137Y-47804648D01*
X157088437Y-47837105D01*
X157088432Y-47837107D01*
X156915510Y-47914098D01*
X156915505Y-47914101D01*
X156806125Y-47993571D01*
X156740319Y-48017051D01*
X156672265Y-48001225D01*
X156660355Y-47993571D01*
X156550974Y-47914101D01*
X156550969Y-47914098D01*
X156378047Y-47837107D01*
X156378042Y-47837105D01*
X156232241Y-47806115D01*
X156192886Y-47797750D01*
X156003594Y-47797750D01*
X155971137Y-47804648D01*
X155818437Y-47837105D01*
X155818432Y-47837107D01*
X155645510Y-47914098D01*
X155645505Y-47914101D01*
X155536125Y-47993571D01*
X155470319Y-48017051D01*
X155402265Y-48001225D01*
X155390355Y-47993571D01*
X155280974Y-47914101D01*
X155280969Y-47914098D01*
X155108047Y-47837107D01*
X155108042Y-47837105D01*
X154962240Y-47806115D01*
X154922886Y-47797750D01*
X154733594Y-47797750D01*
X154701137Y-47804648D01*
X154548437Y-47837105D01*
X154548432Y-47837107D01*
X154375510Y-47914098D01*
X154375505Y-47914101D01*
X154266125Y-47993571D01*
X154200319Y-48017051D01*
X154132265Y-48001225D01*
X154120355Y-47993571D01*
X154010974Y-47914101D01*
X154010969Y-47914098D01*
X153838047Y-47837107D01*
X153838042Y-47837105D01*
X153692240Y-47806115D01*
X153652886Y-47797750D01*
X153463594Y-47797750D01*
X153431137Y-47804648D01*
X153278437Y-47837105D01*
X153278432Y-47837107D01*
X153105510Y-47914098D01*
X153105505Y-47914101D01*
X152952369Y-48025361D01*
X152825706Y-48166035D01*
X152731061Y-48329965D01*
X152731058Y-48329972D01*
X152712876Y-48385932D01*
X152672566Y-48509994D01*
X152652780Y-48698250D01*
X128003215Y-48698250D01*
X128326887Y-48385932D01*
X129150147Y-47646437D01*
X129999277Y-46936798D01*
X130873194Y-46257918D01*
X131770785Y-45610663D01*
X132163768Y-45348080D01*
X132453526Y-45154469D01*
X132520203Y-45133592D01*
X132587583Y-45152077D01*
X132628821Y-45193901D01*
X132830371Y-45530728D01*
X132830375Y-45530734D01*
X133085782Y-45878826D01*
X133232214Y-46043515D01*
X133372665Y-46201476D01*
X133688501Y-46495844D01*
X133688510Y-46495852D01*
X134030504Y-46759336D01*
X134030511Y-46759341D01*
X134030514Y-46759343D01*
X134395699Y-46989658D01*
X134780846Y-47184764D01*
X135170420Y-47338162D01*
X135182576Y-47342949D01*
X135317113Y-47381830D01*
X135597343Y-47462817D01*
X135597347Y-47462817D01*
X135597347Y-47462818D01*
X136021512Y-47543320D01*
X136021513Y-47543320D01*
X136021518Y-47543321D01*
X136451367Y-47583750D01*
X136451369Y-47583750D01*
X136775120Y-47583750D01*
X136802356Y-47582471D01*
X137098512Y-47568575D01*
X137380669Y-47528620D01*
X137525981Y-47508044D01*
X137525984Y-47508043D01*
X137525993Y-47508042D01*
X137945928Y-47407745D01*
X138354626Y-47268566D01*
X138748495Y-47091727D01*
X139124074Y-46878782D01*
X139478062Y-46631603D01*
X139807348Y-46352363D01*
X140109039Y-46043515D01*
X140380484Y-45707773D01*
X140619296Y-45348087D01*
X140720051Y-45160250D01*
X140823370Y-44967634D01*
X140823371Y-44967629D01*
X140823377Y-44967620D01*
X140990935Y-44569713D01*
X141077308Y-44295147D01*
X141120493Y-44157872D01*
X141120493Y-44157869D01*
X141120495Y-44157865D01*
X141210920Y-43735695D01*
X141261415Y-43306911D01*
X141271536Y-42875284D01*
X141241195Y-42444605D01*
X141170657Y-42018660D01*
X141060544Y-41601192D01*
X140985335Y-41396220D01*
X140980722Y-41326503D01*
X141014533Y-41265359D01*
X141068936Y-41233925D01*
X141784124Y-41037724D01*
X142861084Y-40783232D01*
X143946442Y-40567341D01*
X145038813Y-40390326D01*
X146136807Y-40252414D01*
X147239023Y-40153779D01*
X148344057Y-40094548D01*
X149450502Y-40074796D01*
X150556947Y-40094548D01*
G37*
%TD.AperFunction*%
%TD*%
%TA.AperFunction,Conductor*%
%TO.N,A*%
G36*
X173275463Y-51257935D02*
G01*
X173303568Y-51282729D01*
X173385860Y-51381197D01*
X173588000Y-51623072D01*
X173636103Y-51684994D01*
X174266880Y-52496988D01*
X174914135Y-53394579D01*
X175528941Y-54314701D01*
X176110513Y-55256180D01*
X176658112Y-56217817D01*
X177171038Y-57198386D01*
X177648639Y-58196638D01*
X178090306Y-59211301D01*
X178495475Y-60241081D01*
X178863631Y-61284667D01*
X179194304Y-62340728D01*
X179487074Y-63407918D01*
X179741566Y-64484878D01*
X179839016Y-64974795D01*
X179844857Y-65004156D01*
X179847240Y-65028347D01*
X179847240Y-76359058D01*
X179827555Y-76426097D01*
X179774751Y-76471852D01*
X179705593Y-76481796D01*
X179642037Y-76452771D01*
X179618925Y-76426099D01*
X179601027Y-76398250D01*
X179589110Y-76379707D01*
X179588979Y-76379556D01*
X179543361Y-76326909D01*
X179543357Y-76326906D01*
X179543355Y-76326903D01*
X179434621Y-76232683D01*
X179434618Y-76232681D01*
X179434616Y-76232680D01*
X179303750Y-76172914D01*
X179303745Y-76172912D01*
X179303744Y-76172912D01*
X179276104Y-76164796D01*
X179236710Y-76153228D01*
X179236704Y-76153226D01*
X179151251Y-76140940D01*
X179094285Y-76132750D01*
X178451839Y-76132750D01*
X178384800Y-76113065D01*
X178339045Y-76060261D01*
X178329101Y-75991103D01*
X178358126Y-75927547D01*
X178389844Y-75901360D01*
X178394964Y-75898403D01*
X178394970Y-75898401D01*
X178548111Y-75787138D01*
X178674773Y-75646466D01*
X178769419Y-75482534D01*
X178827914Y-75302506D01*
X178847700Y-75114250D01*
X178827914Y-74925994D01*
X178769774Y-74747058D01*
X178769421Y-74745972D01*
X178769420Y-74745971D01*
X178769419Y-74745966D01*
X178674773Y-74582034D01*
X178548111Y-74441362D01*
X178548110Y-74441361D01*
X178394974Y-74330101D01*
X178394969Y-74330098D01*
X178222047Y-74253107D01*
X178222042Y-74253105D01*
X178076241Y-74222115D01*
X178036886Y-74213750D01*
X177847594Y-74213750D01*
X177815137Y-74220648D01*
X177662437Y-74253105D01*
X177662432Y-74253107D01*
X177489510Y-74330098D01*
X177489505Y-74330101D01*
X177336369Y-74441361D01*
X177209706Y-74582035D01*
X177115061Y-74745965D01*
X177115058Y-74745972D01*
X177082080Y-74847469D01*
X177056566Y-74925994D01*
X177036780Y-75114250D01*
X177056566Y-75302506D01*
X177056567Y-75302509D01*
X177115058Y-75482527D01*
X177115061Y-75482534D01*
X177209707Y-75646466D01*
X177320752Y-75769794D01*
X177336369Y-75787138D01*
X177489505Y-75898398D01*
X177494636Y-75901360D01*
X177542854Y-75951924D01*
X177556080Y-76020531D01*
X177530115Y-76085397D01*
X177473203Y-76125928D01*
X177432641Y-76132750D01*
X174895547Y-76132750D01*
X174828508Y-76113065D01*
X174782753Y-76060261D01*
X174772809Y-75991103D01*
X174801834Y-75927547D01*
X174833550Y-75901361D01*
X174836773Y-75899498D01*
X174836786Y-75899493D01*
X174989927Y-75788230D01*
X175116589Y-75647558D01*
X175211235Y-75483626D01*
X175269730Y-75303598D01*
X175289516Y-75115342D01*
X175269730Y-74927086D01*
X175211235Y-74747058D01*
X175116589Y-74583126D01*
X174989927Y-74442454D01*
X174988423Y-74441361D01*
X174836790Y-74331193D01*
X174836785Y-74331190D01*
X174663863Y-74254199D01*
X174663858Y-74254197D01*
X174491649Y-74217594D01*
X174478702Y-74214842D01*
X174289410Y-74214842D01*
X174276463Y-74217594D01*
X174104253Y-74254197D01*
X174104248Y-74254199D01*
X173931326Y-74331190D01*
X173931321Y-74331193D01*
X173778185Y-74442453D01*
X173651522Y-74583127D01*
X173556877Y-74747057D01*
X173556874Y-74747064D01*
X173529181Y-74832296D01*
X173498382Y-74927086D01*
X173478596Y-75115342D01*
X173498382Y-75303598D01*
X173498383Y-75303601D01*
X173556874Y-75483619D01*
X173556877Y-75483626D01*
X173651523Y-75647558D01*
X173778185Y-75788230D01*
X173931326Y-75899493D01*
X173931334Y-75899496D01*
X173934562Y-75901361D01*
X173936063Y-75902935D01*
X173936583Y-75903313D01*
X173936513Y-75903408D01*
X173982779Y-75951927D01*
X173996004Y-76020533D01*
X173970038Y-76085399D01*
X173913125Y-76125929D01*
X173872565Y-76132750D01*
X164731240Y-76132750D01*
X164731231Y-76132750D01*
X164731230Y-76132751D01*
X164623789Y-76144302D01*
X164623777Y-76144304D01*
X164572267Y-76155510D01*
X164469742Y-76189633D01*
X164469736Y-76189636D01*
X164348702Y-76267421D01*
X164348691Y-76267429D01*
X164295899Y-76313173D01*
X164201673Y-76421914D01*
X164201670Y-76421918D01*
X164141904Y-76552784D01*
X164122218Y-76619825D01*
X164122216Y-76619830D01*
X164119848Y-76636301D01*
X164101740Y-76762250D01*
X164101740Y-79940248D01*
X164101740Y-82988248D01*
X164101740Y-89214250D01*
X164101741Y-89214259D01*
X164113291Y-89321694D01*
X164113652Y-89323918D01*
X164113586Y-89324437D01*
X164113648Y-89325008D01*
X164113513Y-89325022D01*
X164104943Y-89393243D01*
X164060136Y-89446854D01*
X163993458Y-89467730D01*
X163991248Y-89467750D01*
X160156740Y-89467750D01*
X160089701Y-89448065D01*
X160043946Y-89395261D01*
X160032740Y-89343750D01*
X160032740Y-87056949D01*
X160032740Y-87056941D01*
X160023601Y-86961255D01*
X160014715Y-86915160D01*
X160014431Y-86914194D01*
X159987632Y-86822940D01*
X159915690Y-86698352D01*
X159915689Y-86698351D01*
X159915683Y-86698340D01*
X159872489Y-86643422D01*
X159872485Y-86643417D01*
X159859634Y-86631166D01*
X159768345Y-86544136D01*
X159768341Y-86544133D01*
X159640463Y-86478221D01*
X159640460Y-86478219D01*
X159640455Y-86478217D01*
X159640452Y-86478216D01*
X159640448Y-86478214D01*
X159574431Y-86455371D01*
X159574423Y-86455369D01*
X159433154Y-86428152D01*
X159433153Y-86428152D01*
X159401079Y-86431216D01*
X159289932Y-86441837D01*
X159289923Y-86441838D01*
X159206904Y-86461983D01*
X159204461Y-86464205D01*
X159184083Y-86471973D01*
X159145296Y-86482962D01*
X159026880Y-86535685D01*
X159002228Y-86543695D01*
X158969254Y-86550704D01*
X158946502Y-86555540D01*
X158920723Y-86558250D01*
X158863756Y-86558250D01*
X158837976Y-86555540D01*
X158816224Y-86550916D01*
X158782250Y-86543695D01*
X158757596Y-86535684D01*
X158705565Y-86512518D01*
X158683118Y-86499558D01*
X158637017Y-86466065D01*
X158617754Y-86448722D01*
X158579637Y-86406389D01*
X158564402Y-86385419D01*
X158535918Y-86336083D01*
X158525376Y-86312405D01*
X158507770Y-86258222D01*
X158502381Y-86232867D01*
X158496691Y-86178733D01*
X158496426Y-86176206D01*
X158496426Y-86150285D01*
X158498305Y-86132413D01*
X158502381Y-86093626D01*
X158507771Y-86068273D01*
X158522260Y-86023679D01*
X158525373Y-86014097D01*
X158535914Y-85990421D01*
X158577268Y-85918793D01*
X158581686Y-85912166D01*
X158602804Y-85884509D01*
X158602803Y-85884511D01*
X158616181Y-85863691D01*
X158624406Y-85850894D01*
X158662884Y-85778803D01*
X158700784Y-85640004D01*
X158709409Y-85570668D01*
X158709409Y-85570665D01*
X158706669Y-85426811D01*
X158663511Y-85289556D01*
X158633281Y-85226565D01*
X158600336Y-85177386D01*
X158598172Y-85173910D01*
X158535919Y-85066084D01*
X158525375Y-85042403D01*
X158507771Y-84988225D01*
X158502381Y-84962867D01*
X158496426Y-84906208D01*
X158496426Y-84880285D01*
X158502381Y-84823628D01*
X158507771Y-84798273D01*
X158523783Y-84748993D01*
X158525373Y-84744097D01*
X158535914Y-84720421D01*
X158577268Y-84648793D01*
X158581686Y-84642166D01*
X158602804Y-84614509D01*
X158602803Y-84614511D01*
X158616181Y-84593691D01*
X158624406Y-84580894D01*
X158662884Y-84508803D01*
X158700784Y-84370004D01*
X158709409Y-84300668D01*
X158709409Y-84300665D01*
X158706669Y-84156811D01*
X158663511Y-84019556D01*
X158633281Y-83956565D01*
X158600336Y-83907386D01*
X158598172Y-83903910D01*
X158542304Y-83807144D01*
X158535918Y-83796083D01*
X158525375Y-83772403D01*
X158524770Y-83770540D01*
X158507770Y-83718221D01*
X158502381Y-83692867D01*
X158496426Y-83636208D01*
X158496426Y-83610287D01*
X158502381Y-83553624D01*
X158507768Y-83528282D01*
X158525375Y-83474091D01*
X158535912Y-83450426D01*
X158577280Y-83378774D01*
X158581681Y-83372172D01*
X158602799Y-83344516D01*
X158603270Y-83343784D01*
X158624402Y-83310901D01*
X158624403Y-83310900D01*
X158636771Y-83287729D01*
X158662880Y-83238814D01*
X158700782Y-83100015D01*
X158709408Y-83030680D01*
X158706671Y-82886831D01*
X158663518Y-82749574D01*
X158633290Y-82686582D01*
X158633288Y-82686579D01*
X158600357Y-82637420D01*
X158598175Y-82633915D01*
X158535919Y-82526084D01*
X158525375Y-82502403D01*
X158507771Y-82448225D01*
X158502381Y-82422867D01*
X158496426Y-82366208D01*
X158496426Y-82340287D01*
X158498169Y-82323702D01*
X158502381Y-82283624D01*
X158507768Y-82258282D01*
X158525375Y-82204091D01*
X158535912Y-82180426D01*
X158577280Y-82108774D01*
X158581681Y-82102172D01*
X158602799Y-82074516D01*
X158603270Y-82073784D01*
X158624402Y-82040901D01*
X158624403Y-82040900D01*
X158651235Y-81990630D01*
X158662880Y-81968814D01*
X158696671Y-81845071D01*
X158700782Y-81830016D01*
X158700783Y-81830007D01*
X158709407Y-81760688D01*
X158709408Y-81760680D01*
X158706671Y-81616831D01*
X158663518Y-81479574D01*
X158633290Y-81416582D01*
X158633288Y-81416579D01*
X158600357Y-81367420D01*
X158598175Y-81363915D01*
X158542304Y-81267144D01*
X158535918Y-81256083D01*
X158525375Y-81232403D01*
X158524770Y-81230540D01*
X158507770Y-81178221D01*
X158502381Y-81152867D01*
X158496426Y-81096208D01*
X158496426Y-81070287D01*
X158502381Y-81013624D01*
X158507768Y-80988282D01*
X158525375Y-80934091D01*
X158535912Y-80910426D01*
X158577280Y-80838774D01*
X158581681Y-80832172D01*
X158602799Y-80804516D01*
X158603270Y-80803784D01*
X158624402Y-80770901D01*
X158624403Y-80770900D01*
X158636771Y-80747729D01*
X158662880Y-80698814D01*
X158700782Y-80560015D01*
X158709408Y-80490680D01*
X158706671Y-80346831D01*
X158663518Y-80209574D01*
X158633290Y-80146582D01*
X158633288Y-80146579D01*
X158600357Y-80097420D01*
X158598175Y-80093915D01*
X158535919Y-79986084D01*
X158525375Y-79962403D01*
X158507770Y-79908221D01*
X158502381Y-79882867D01*
X158496426Y-79826208D01*
X158496426Y-79800287D01*
X158502381Y-79743624D01*
X158507768Y-79718282D01*
X158525375Y-79664091D01*
X158535912Y-79640426D01*
X158577280Y-79568774D01*
X158581681Y-79562172D01*
X158602799Y-79534516D01*
X158603270Y-79533784D01*
X158624402Y-79500901D01*
X158624403Y-79500900D01*
X158635596Y-79479930D01*
X158662880Y-79428814D01*
X158700782Y-79290015D01*
X158709408Y-79220680D01*
X158706671Y-79076831D01*
X158663518Y-78939574D01*
X158633290Y-78876582D01*
X158633288Y-78876579D01*
X158600357Y-78827420D01*
X158598175Y-78823915D01*
X158535919Y-78716084D01*
X158525375Y-78692403D01*
X158507771Y-78638225D01*
X158502381Y-78612867D01*
X158496426Y-78556208D01*
X158496426Y-78530287D01*
X158497003Y-78524797D01*
X158502381Y-78473624D01*
X158507767Y-78448285D01*
X158525375Y-78394093D01*
X158535912Y-78370427D01*
X158577273Y-78298786D01*
X158581693Y-78292156D01*
X158602805Y-78264507D01*
X158602804Y-78264508D01*
X158624406Y-78230894D01*
X158625514Y-78228817D01*
X158674440Y-78178941D01*
X158742567Y-78163433D01*
X158760686Y-78165904D01*
X158797594Y-78173750D01*
X158797595Y-78173750D01*
X158986884Y-78173750D01*
X158986886Y-78173750D01*
X159172043Y-78134394D01*
X159344970Y-78057401D01*
X159498111Y-77946138D01*
X159624773Y-77805466D01*
X159719419Y-77641534D01*
X159777914Y-77461506D01*
X159797700Y-77273250D01*
X159777914Y-77084994D01*
X159751649Y-77004162D01*
X159749655Y-76934324D01*
X159785735Y-76874491D01*
X159788353Y-76872156D01*
X159838587Y-76828628D01*
X159932807Y-76719894D01*
X159992578Y-76589017D01*
X160012263Y-76521978D01*
X160012264Y-76521974D01*
X160032740Y-76379558D01*
X160032740Y-64062250D01*
X160032740Y-64062249D01*
X160052425Y-63995211D01*
X160105229Y-63949456D01*
X160156740Y-63938250D01*
X161685130Y-63938250D01*
X161752169Y-63957935D01*
X161797924Y-64010739D01*
X161808449Y-64049285D01*
X161816566Y-64126506D01*
X161816567Y-64126509D01*
X161875058Y-64306527D01*
X161875061Y-64306534D01*
X161969707Y-64470466D01*
X161980046Y-64481949D01*
X161987547Y-64490280D01*
X162017775Y-64553272D01*
X162009149Y-64622607D01*
X161987547Y-64656220D01*
X161969706Y-64676035D01*
X161875061Y-64839965D01*
X161875058Y-64839972D01*
X161816754Y-65019415D01*
X161816566Y-65019994D01*
X161796780Y-65208250D01*
X161816566Y-65396506D01*
X161816567Y-65396509D01*
X161875058Y-65576527D01*
X161875061Y-65576534D01*
X161969707Y-65740466D01*
X161987543Y-65760275D01*
X161987545Y-65760277D01*
X162017775Y-65823268D01*
X162009150Y-65892604D01*
X161987548Y-65926218D01*
X161969706Y-65946034D01*
X161875061Y-66109965D01*
X161875058Y-66109972D01*
X161818447Y-66284205D01*
X161816566Y-66289994D01*
X161796780Y-66478250D01*
X161816566Y-66666506D01*
X161816567Y-66666509D01*
X161875058Y-66846527D01*
X161875061Y-66846534D01*
X161969707Y-67010466D01*
X161976235Y-67017716D01*
X161987547Y-67030280D01*
X162017775Y-67093272D01*
X162009149Y-67162607D01*
X161987547Y-67196220D01*
X161969706Y-67216035D01*
X161875061Y-67379965D01*
X161875058Y-67379972D01*
X161816567Y-67559990D01*
X161816566Y-67559994D01*
X161796780Y-67748250D01*
X161816566Y-67936506D01*
X161816567Y-67936509D01*
X161875058Y-68116527D01*
X161875061Y-68116534D01*
X161969707Y-68280466D01*
X161980046Y-68291949D01*
X161987547Y-68300280D01*
X162017775Y-68363272D01*
X162009149Y-68432607D01*
X161987547Y-68466220D01*
X161969706Y-68486035D01*
X161875061Y-68649965D01*
X161875058Y-68649972D01*
X161818947Y-68822665D01*
X161816566Y-68829994D01*
X161796780Y-69018250D01*
X161816566Y-69206506D01*
X161816567Y-69206509D01*
X161875058Y-69386527D01*
X161875061Y-69386534D01*
X161969707Y-69550466D01*
X161973073Y-69554204D01*
X161987547Y-69570280D01*
X162017775Y-69633272D01*
X162009149Y-69702607D01*
X161987547Y-69736220D01*
X161969706Y-69756035D01*
X161875061Y-69919965D01*
X161875058Y-69919972D01*
X161816567Y-70099990D01*
X161816566Y-70099994D01*
X161796780Y-70288250D01*
X161816566Y-70476506D01*
X161816567Y-70476509D01*
X161875058Y-70656527D01*
X161875061Y-70656534D01*
X161969707Y-70820466D01*
X161980046Y-70831949D01*
X161987547Y-70840280D01*
X162017775Y-70903272D01*
X162009149Y-70972607D01*
X161987547Y-71006220D01*
X161969706Y-71026035D01*
X161875061Y-71189965D01*
X161875058Y-71189972D01*
X161816567Y-71369990D01*
X161816566Y-71369994D01*
X161796780Y-71558250D01*
X161816566Y-71746506D01*
X161816567Y-71746509D01*
X161875058Y-71926527D01*
X161875061Y-71926534D01*
X161969707Y-72090466D01*
X161973073Y-72094204D01*
X161987547Y-72110280D01*
X162017775Y-72173272D01*
X162009149Y-72242607D01*
X161987547Y-72276220D01*
X161969706Y-72296035D01*
X161875061Y-72459965D01*
X161875058Y-72459972D01*
X161816567Y-72639990D01*
X161816566Y-72639994D01*
X161796780Y-72828250D01*
X161816566Y-73016506D01*
X161816567Y-73016509D01*
X161875058Y-73196527D01*
X161875061Y-73196534D01*
X161969707Y-73360466D01*
X162064676Y-73465939D01*
X162096369Y-73501138D01*
X162249505Y-73612398D01*
X162249510Y-73612401D01*
X162422432Y-73689392D01*
X162422437Y-73689394D01*
X162607594Y-73728750D01*
X162607595Y-73728750D01*
X162796884Y-73728750D01*
X162796886Y-73728750D01*
X162982043Y-73689394D01*
X163154970Y-73612401D01*
X163308111Y-73501138D01*
X163434773Y-73360466D01*
X163529419Y-73196534D01*
X163587914Y-73016506D01*
X163607700Y-72828250D01*
X163587914Y-72639994D01*
X163529419Y-72459966D01*
X163434773Y-72296034D01*
X163416933Y-72276221D01*
X163386704Y-72213231D01*
X163395329Y-72143896D01*
X163416934Y-72110278D01*
X163424019Y-72102409D01*
X163434773Y-72090466D01*
X163529419Y-71926534D01*
X163587914Y-71746506D01*
X163607700Y-71558250D01*
X163587914Y-71369994D01*
X163529419Y-71189966D01*
X163434773Y-71026034D01*
X163422010Y-71011859D01*
X163416933Y-71006220D01*
X163386704Y-70943228D01*
X163395330Y-70873892D01*
X163416934Y-70840277D01*
X163434773Y-70820466D01*
X163529419Y-70656534D01*
X163587914Y-70476506D01*
X163607700Y-70288250D01*
X163587914Y-70099994D01*
X163529419Y-69919966D01*
X163434773Y-69756034D01*
X163431407Y-69752296D01*
X163416933Y-69736220D01*
X163386704Y-69673228D01*
X163395330Y-69603892D01*
X163416934Y-69570277D01*
X163434773Y-69550466D01*
X163529419Y-69386534D01*
X163587914Y-69206506D01*
X163607700Y-69018250D01*
X163587914Y-68829994D01*
X163529419Y-68649966D01*
X163434773Y-68486034D01*
X163416933Y-68466220D01*
X163386704Y-68403228D01*
X163395330Y-68333892D01*
X163416934Y-68300277D01*
X163434773Y-68280466D01*
X163529419Y-68116534D01*
X163587914Y-67936506D01*
X163607700Y-67748250D01*
X163587914Y-67559994D01*
X163529419Y-67379966D01*
X163434773Y-67216034D01*
X163416933Y-67196220D01*
X163386704Y-67133228D01*
X163395330Y-67063892D01*
X163416934Y-67030277D01*
X163434773Y-67010466D01*
X163529419Y-66846534D01*
X163587914Y-66666506D01*
X163607700Y-66478250D01*
X163587914Y-66289994D01*
X163529419Y-66109966D01*
X163434773Y-65946034D01*
X163416933Y-65926220D01*
X163386704Y-65863228D01*
X163395330Y-65793892D01*
X163416934Y-65760277D01*
X163434773Y-65740466D01*
X163529419Y-65576534D01*
X163587914Y-65396506D01*
X163607700Y-65208250D01*
X163587914Y-65019994D01*
X163529419Y-64839966D01*
X163434773Y-64676034D01*
X163416933Y-64656220D01*
X163386704Y-64593228D01*
X163395330Y-64523892D01*
X163416934Y-64490277D01*
X163434773Y-64470466D01*
X163529419Y-64306534D01*
X163587914Y-64126506D01*
X163607700Y-63938250D01*
X163587914Y-63749994D01*
X163529419Y-63569966D01*
X163473385Y-63472912D01*
X163434774Y-63406035D01*
X163434769Y-63406028D01*
X163369090Y-63333084D01*
X163338860Y-63270092D01*
X163337240Y-63250112D01*
X163337240Y-51362250D01*
X163356925Y-51295211D01*
X163409729Y-51249456D01*
X163461240Y-51238250D01*
X173208424Y-51238250D01*
X173275463Y-51257935D01*
G37*
%TD.AperFunction*%
%TD*%
%TA.AperFunction,Conductor*%
%TO.N,C*%
G36*
X135340279Y-51257935D02*
G01*
X135386034Y-51310739D01*
X135397240Y-51362250D01*
X135397240Y-62917219D01*
X135377555Y-62984258D01*
X135324751Y-63030013D01*
X135299021Y-63038509D01*
X135117437Y-63077105D01*
X135117432Y-63077107D01*
X134944510Y-63154098D01*
X134944505Y-63154101D01*
X134791369Y-63265361D01*
X134664706Y-63406035D01*
X134570061Y-63569965D01*
X134570058Y-63569972D01*
X134528352Y-63698332D01*
X134511566Y-63749994D01*
X134491780Y-63938250D01*
X134511566Y-64126506D01*
X134511567Y-64126509D01*
X134570058Y-64306527D01*
X134570061Y-64306534D01*
X134664707Y-64470466D01*
X134675046Y-64481949D01*
X134682547Y-64490280D01*
X134712775Y-64553272D01*
X134704149Y-64622607D01*
X134682547Y-64656220D01*
X134664706Y-64676035D01*
X134570061Y-64839965D01*
X134570058Y-64839972D01*
X134511754Y-65019415D01*
X134511566Y-65019994D01*
X134491780Y-65208250D01*
X134511566Y-65396506D01*
X134511567Y-65396509D01*
X134570058Y-65576527D01*
X134570061Y-65576534D01*
X134664707Y-65740466D01*
X134675046Y-65751949D01*
X134682547Y-65760280D01*
X134712775Y-65823272D01*
X134704149Y-65892607D01*
X134682547Y-65926220D01*
X134664706Y-65946035D01*
X134570061Y-66109965D01*
X134570058Y-66109972D01*
X134526252Y-66244794D01*
X134511566Y-66289994D01*
X134491780Y-66478250D01*
X134511566Y-66666506D01*
X134511567Y-66666509D01*
X134570058Y-66846527D01*
X134570061Y-66846534D01*
X134664707Y-67010466D01*
X134675046Y-67021949D01*
X134682547Y-67030280D01*
X134712775Y-67093272D01*
X134704149Y-67162607D01*
X134682547Y-67196220D01*
X134664706Y-67216035D01*
X134570061Y-67379965D01*
X134570058Y-67379972D01*
X134511567Y-67559990D01*
X134511566Y-67559994D01*
X134491780Y-67748250D01*
X134511566Y-67936506D01*
X134511567Y-67936509D01*
X134570058Y-68116527D01*
X134570061Y-68116534D01*
X134664707Y-68280466D01*
X134675046Y-68291949D01*
X134682547Y-68300280D01*
X134712775Y-68363272D01*
X134704149Y-68432607D01*
X134682547Y-68466220D01*
X134664706Y-68486035D01*
X134570061Y-68649965D01*
X134570058Y-68649972D01*
X134513947Y-68822665D01*
X134511566Y-68829994D01*
X134491780Y-69018250D01*
X134511566Y-69206506D01*
X134511567Y-69206509D01*
X134570058Y-69386527D01*
X134570061Y-69386534D01*
X134664707Y-69550466D01*
X134668073Y-69554204D01*
X134682547Y-69570280D01*
X134712775Y-69633272D01*
X134704149Y-69702607D01*
X134682547Y-69736220D01*
X134664706Y-69756035D01*
X134570061Y-69919965D01*
X134570058Y-69919972D01*
X134511567Y-70099990D01*
X134511566Y-70099994D01*
X134491780Y-70288250D01*
X134511566Y-70476506D01*
X134511567Y-70476509D01*
X134570058Y-70656527D01*
X134570061Y-70656534D01*
X134664707Y-70820466D01*
X134675046Y-70831949D01*
X134682547Y-70840280D01*
X134712775Y-70903272D01*
X134704149Y-70972607D01*
X134682547Y-71006220D01*
X134664706Y-71026035D01*
X134570061Y-71189965D01*
X134570058Y-71189972D01*
X134511567Y-71369990D01*
X134511566Y-71369994D01*
X134491780Y-71558250D01*
X134511566Y-71746506D01*
X134511567Y-71746509D01*
X134570058Y-71926527D01*
X134570061Y-71926534D01*
X134664707Y-72090466D01*
X134668073Y-72094204D01*
X134682547Y-72110280D01*
X134712775Y-72173272D01*
X134704149Y-72242607D01*
X134682547Y-72276220D01*
X134664706Y-72296035D01*
X134570061Y-72459965D01*
X134570058Y-72459972D01*
X134511567Y-72639990D01*
X134511566Y-72639994D01*
X134491780Y-72828250D01*
X134511566Y-73016506D01*
X134511567Y-73016509D01*
X134570058Y-73196527D01*
X134570061Y-73196534D01*
X134664707Y-73360466D01*
X134759676Y-73465939D01*
X134791369Y-73501138D01*
X134944505Y-73612398D01*
X134944510Y-73612401D01*
X135117432Y-73689392D01*
X135117437Y-73689394D01*
X135302594Y-73728750D01*
X135302595Y-73728750D01*
X135491884Y-73728750D01*
X135491886Y-73728750D01*
X135677043Y-73689394D01*
X135849970Y-73612401D01*
X136003111Y-73501138D01*
X136129773Y-73360466D01*
X136224419Y-73196534D01*
X136282914Y-73016506D01*
X136302700Y-72828250D01*
X136282914Y-72639994D01*
X136224419Y-72459966D01*
X136129773Y-72296034D01*
X136111933Y-72276221D01*
X136081704Y-72213231D01*
X136090329Y-72143896D01*
X136111934Y-72110278D01*
X136119019Y-72102409D01*
X136129773Y-72090466D01*
X136224419Y-71926534D01*
X136282914Y-71746506D01*
X136302700Y-71558250D01*
X136282914Y-71369994D01*
X136224419Y-71189966D01*
X136129773Y-71026034D01*
X136111933Y-71006221D01*
X136081704Y-70943231D01*
X136090329Y-70873896D01*
X136111934Y-70840278D01*
X136129773Y-70820466D01*
X136224419Y-70656534D01*
X136282914Y-70476506D01*
X136302700Y-70288250D01*
X136282914Y-70099994D01*
X136224419Y-69919966D01*
X136129773Y-69756034D01*
X136111933Y-69736221D01*
X136081704Y-69673231D01*
X136090329Y-69603896D01*
X136111934Y-69570278D01*
X136129773Y-69550466D01*
X136224419Y-69386534D01*
X136282914Y-69206506D01*
X136302700Y-69018250D01*
X136282914Y-68829994D01*
X136224419Y-68649966D01*
X136129773Y-68486034D01*
X136111933Y-68466221D01*
X136081704Y-68403231D01*
X136090329Y-68333896D01*
X136111934Y-68300278D01*
X136129773Y-68280466D01*
X136224419Y-68116534D01*
X136282914Y-67936506D01*
X136302700Y-67748250D01*
X136282914Y-67559994D01*
X136224419Y-67379966D01*
X136129773Y-67216034D01*
X136111933Y-67196221D01*
X136081704Y-67133231D01*
X136090329Y-67063896D01*
X136111934Y-67030278D01*
X136129773Y-67010466D01*
X136224419Y-66846534D01*
X136282914Y-66666506D01*
X136302700Y-66478250D01*
X136282914Y-66289994D01*
X136224419Y-66109966D01*
X136129773Y-65946034D01*
X136111933Y-65926221D01*
X136081704Y-65863231D01*
X136090329Y-65793896D01*
X136111934Y-65760278D01*
X136116155Y-65755590D01*
X136129773Y-65740466D01*
X136224419Y-65576534D01*
X136282914Y-65396506D01*
X136302700Y-65208250D01*
X136282914Y-65019994D01*
X136224419Y-64839966D01*
X136129773Y-64676034D01*
X136111933Y-64656221D01*
X136081704Y-64593231D01*
X136090329Y-64523896D01*
X136111934Y-64490278D01*
X136116796Y-64484878D01*
X136129773Y-64470466D01*
X136224419Y-64306534D01*
X136282914Y-64126506D01*
X136291029Y-64049286D01*
X136317613Y-63984674D01*
X136374911Y-63944689D01*
X136414350Y-63938250D01*
X138577740Y-63938250D01*
X138644779Y-63957935D01*
X138690534Y-64010739D01*
X138701740Y-64062250D01*
X138701740Y-76379565D01*
X138710860Y-76475143D01*
X138719729Y-76521198D01*
X138746758Y-76613333D01*
X138818657Y-76737959D01*
X138861828Y-76792892D01*
X138861829Y-76792893D01*
X138861831Y-76792895D01*
X138965925Y-76892213D01*
X139093789Y-76958185D01*
X139159127Y-76980823D01*
X139159808Y-76981059D01*
X139159823Y-76981064D01*
X139217278Y-76992155D01*
X139301092Y-77008336D01*
X139444325Y-76994703D01*
X139501616Y-76980823D01*
X139501615Y-76980822D01*
X139527370Y-76974583D01*
X139529837Y-76972342D01*
X139550207Y-76964580D01*
X139572775Y-76958186D01*
X139589184Y-76953537D01*
X139707601Y-76900812D01*
X139732242Y-76892805D01*
X139787982Y-76880958D01*
X139813754Y-76878250D01*
X139870724Y-76878250D01*
X139896504Y-76880959D01*
X139952228Y-76892803D01*
X139976883Y-76900814D01*
X140028917Y-76923981D01*
X140051357Y-76936936D01*
X140097467Y-76970436D01*
X140116723Y-76987775D01*
X140135236Y-77008336D01*
X140154839Y-77030107D01*
X140170076Y-77051079D01*
X140198560Y-77100415D01*
X140209104Y-77124097D01*
X140226708Y-77178277D01*
X140232098Y-77203634D01*
X140238052Y-77260287D01*
X140238052Y-77286208D01*
X140232098Y-77342863D01*
X140226708Y-77368222D01*
X140209103Y-77422403D01*
X140198559Y-77446084D01*
X140157211Y-77517701D01*
X140152793Y-77524331D01*
X140131684Y-77551980D01*
X140131683Y-77551981D01*
X140110076Y-77585602D01*
X140071596Y-77657693D01*
X140071595Y-77657696D01*
X140033694Y-77796497D01*
X140025070Y-77865831D01*
X140027810Y-78009686D01*
X140027810Y-78009689D01*
X140070962Y-78146928D01*
X140070966Y-78146939D01*
X140070967Y-78146940D01*
X140099509Y-78206416D01*
X140099687Y-78206856D01*
X140101195Y-78209930D01*
X140134134Y-78259100D01*
X140136317Y-78262607D01*
X140198559Y-78370414D01*
X140209103Y-78394095D01*
X140226708Y-78448276D01*
X140232098Y-78473635D01*
X140238052Y-78530289D01*
X140238052Y-78556209D01*
X140232098Y-78612863D01*
X140226708Y-78638222D01*
X140209103Y-78692403D01*
X140198559Y-78716084D01*
X140157212Y-78787700D01*
X140152793Y-78794331D01*
X140131684Y-78821978D01*
X140131683Y-78821979D01*
X140110072Y-78855606D01*
X140110073Y-78855605D01*
X140071596Y-78927692D01*
X140071594Y-78927696D01*
X140033694Y-79066497D01*
X140025070Y-79135831D01*
X140027810Y-79279686D01*
X140027810Y-79279689D01*
X140070962Y-79416928D01*
X140070966Y-79416939D01*
X140070967Y-79416940D01*
X140099509Y-79476416D01*
X140099687Y-79476856D01*
X140101195Y-79479930D01*
X140134134Y-79529100D01*
X140136317Y-79532607D01*
X140198559Y-79640414D01*
X140209103Y-79664095D01*
X140226708Y-79718276D01*
X140232098Y-79743635D01*
X140238052Y-79800289D01*
X140238052Y-79826209D01*
X140232098Y-79882863D01*
X140226708Y-79908222D01*
X140209103Y-79962403D01*
X140198559Y-79986084D01*
X140157212Y-80057700D01*
X140152793Y-80064331D01*
X140131684Y-80091978D01*
X140131683Y-80091979D01*
X140110072Y-80125606D01*
X140110073Y-80125605D01*
X140071596Y-80197692D01*
X140071594Y-80197696D01*
X140033694Y-80336497D01*
X140025070Y-80405831D01*
X140027810Y-80549686D01*
X140027810Y-80549689D01*
X140070962Y-80686928D01*
X140070970Y-80686947D01*
X140076665Y-80698814D01*
X140099509Y-80746416D01*
X140099687Y-80746856D01*
X140101195Y-80749930D01*
X140134134Y-80799100D01*
X140136317Y-80802607D01*
X140198559Y-80910414D01*
X140209103Y-80934095D01*
X140226708Y-80988276D01*
X140232098Y-81013635D01*
X140238052Y-81070289D01*
X140238052Y-81096209D01*
X140232098Y-81152863D01*
X140226708Y-81178222D01*
X140209103Y-81232403D01*
X140198559Y-81256084D01*
X140157212Y-81327700D01*
X140152793Y-81334331D01*
X140131684Y-81361978D01*
X140131683Y-81361979D01*
X140110072Y-81395606D01*
X140110073Y-81395605D01*
X140071596Y-81467692D01*
X140071594Y-81467696D01*
X140033694Y-81606497D01*
X140025070Y-81675831D01*
X140027810Y-81819686D01*
X140027810Y-81819689D01*
X140070962Y-81956928D01*
X140070966Y-81956939D01*
X140070967Y-81956940D01*
X140099509Y-82016416D01*
X140099687Y-82016856D01*
X140101195Y-82019930D01*
X140134134Y-82069100D01*
X140136317Y-82072607D01*
X140198559Y-82180414D01*
X140209103Y-82204095D01*
X140226708Y-82258276D01*
X140232098Y-82283635D01*
X140238052Y-82340289D01*
X140238052Y-82366209D01*
X140232098Y-82422863D01*
X140226708Y-82448222D01*
X140209103Y-82502403D01*
X140198559Y-82526084D01*
X140157212Y-82597700D01*
X140152793Y-82604331D01*
X140131684Y-82631978D01*
X140131683Y-82631979D01*
X140110072Y-82665606D01*
X140110073Y-82665605D01*
X140071596Y-82737692D01*
X140071594Y-82737696D01*
X140033694Y-82876497D01*
X140025070Y-82945831D01*
X140027810Y-83089686D01*
X140027810Y-83089689D01*
X140070962Y-83226928D01*
X140070970Y-83226947D01*
X140076665Y-83238814D01*
X140099509Y-83286416D01*
X140099687Y-83286856D01*
X140101195Y-83289930D01*
X140134134Y-83339100D01*
X140136317Y-83342607D01*
X140198559Y-83450414D01*
X140209103Y-83474095D01*
X140226708Y-83528276D01*
X140232098Y-83553635D01*
X140238052Y-83610289D01*
X140238052Y-83636209D01*
X140232098Y-83692863D01*
X140226708Y-83718222D01*
X140209103Y-83772403D01*
X140198559Y-83796084D01*
X140157212Y-83867700D01*
X140152793Y-83874331D01*
X140131684Y-83901978D01*
X140131683Y-83901979D01*
X140110072Y-83935606D01*
X140110073Y-83935605D01*
X140071596Y-84007692D01*
X140071594Y-84007696D01*
X140033694Y-84146497D01*
X140025070Y-84215831D01*
X140027810Y-84359686D01*
X140027810Y-84359689D01*
X140070962Y-84496928D01*
X140070966Y-84496939D01*
X140070967Y-84496940D01*
X140099509Y-84556416D01*
X140099687Y-84556856D01*
X140101195Y-84559930D01*
X140134134Y-84609100D01*
X140136317Y-84612607D01*
X140198559Y-84720414D01*
X140209103Y-84744095D01*
X140226708Y-84798276D01*
X140232098Y-84823635D01*
X140238052Y-84880289D01*
X140238052Y-84906209D01*
X140232098Y-84962863D01*
X140226708Y-84988222D01*
X140209103Y-85042403D01*
X140198559Y-85066084D01*
X140157211Y-85137701D01*
X140152793Y-85144331D01*
X140131684Y-85171980D01*
X140131683Y-85171981D01*
X140110076Y-85205602D01*
X140110070Y-85205613D01*
X140108948Y-85207714D01*
X140060005Y-85257577D01*
X139991873Y-85273064D01*
X139973794Y-85270594D01*
X139936886Y-85262750D01*
X139747594Y-85262750D01*
X139715137Y-85269648D01*
X139562437Y-85302105D01*
X139562432Y-85302107D01*
X139389510Y-85379098D01*
X139389505Y-85379101D01*
X139236369Y-85490361D01*
X139109706Y-85631035D01*
X139015061Y-85794965D01*
X139015058Y-85794972D01*
X138957630Y-85971718D01*
X138956566Y-85974994D01*
X138936780Y-86163250D01*
X138956566Y-86351506D01*
X138956566Y-86351508D01*
X138956567Y-86351510D01*
X138982828Y-86432335D01*
X138984823Y-86502176D01*
X138948742Y-86562008D01*
X138946101Y-86564364D01*
X138895896Y-86607867D01*
X138801673Y-86716605D01*
X138801670Y-86716609D01*
X138741904Y-86847475D01*
X138722218Y-86914516D01*
X138722216Y-86914521D01*
X138701740Y-87056942D01*
X138701740Y-89214250D01*
X138682055Y-89281289D01*
X138629251Y-89327044D01*
X138577740Y-89338250D01*
X134762240Y-89338250D01*
X134756740Y-89338250D01*
X134689701Y-89318565D01*
X134643946Y-89265761D01*
X134632740Y-89214250D01*
X134632740Y-76762259D01*
X134632740Y-76762250D01*
X134621187Y-76654794D01*
X134609981Y-76603283D01*
X134591742Y-76548483D01*
X134575856Y-76500752D01*
X134575853Y-76500746D01*
X134498068Y-76379712D01*
X134498065Y-76379707D01*
X134497936Y-76379558D01*
X134452316Y-76326909D01*
X134452312Y-76326906D01*
X134452310Y-76326903D01*
X134343576Y-76232683D01*
X134343573Y-76232681D01*
X134343571Y-76232680D01*
X134212705Y-76172914D01*
X134212700Y-76172912D01*
X134212699Y-76172912D01*
X134190098Y-76166275D01*
X134145665Y-76153228D01*
X134145659Y-76153226D01*
X134060206Y-76140940D01*
X134003240Y-76132750D01*
X134003238Y-76132750D01*
X125150132Y-76132750D01*
X125083093Y-76113065D01*
X125037338Y-76060261D01*
X125027394Y-75991103D01*
X125056419Y-75927547D01*
X125057982Y-75925778D01*
X125059093Y-75924543D01*
X125080773Y-75900466D01*
X125175419Y-75736534D01*
X125233914Y-75556506D01*
X125253700Y-75368250D01*
X125233914Y-75179994D01*
X125175419Y-74999966D01*
X125080773Y-74836034D01*
X124954111Y-74695362D01*
X124954110Y-74695361D01*
X124800974Y-74584101D01*
X124800969Y-74584098D01*
X124628047Y-74507107D01*
X124628042Y-74507105D01*
X124482240Y-74476115D01*
X124442886Y-74467750D01*
X124253594Y-74467750D01*
X124221137Y-74474648D01*
X124068437Y-74507105D01*
X124068432Y-74507107D01*
X123895510Y-74584098D01*
X123895505Y-74584101D01*
X123742369Y-74695361D01*
X123615706Y-74836035D01*
X123521061Y-74999965D01*
X123521058Y-74999972D01*
X123462567Y-75179990D01*
X123462566Y-75179994D01*
X123442780Y-75368250D01*
X123462566Y-75556506D01*
X123462567Y-75556509D01*
X123521058Y-75736527D01*
X123521061Y-75736534D01*
X123615707Y-75900466D01*
X123636141Y-75923160D01*
X123638498Y-75925778D01*
X123668728Y-75988770D01*
X123660103Y-76058105D01*
X123615361Y-76111770D01*
X123548709Y-76132728D01*
X123546348Y-76132750D01*
X121594132Y-76132750D01*
X121527093Y-76113065D01*
X121481338Y-76060261D01*
X121471394Y-75991103D01*
X121500419Y-75927547D01*
X121501982Y-75925778D01*
X121503093Y-75924543D01*
X121524773Y-75900466D01*
X121619419Y-75736534D01*
X121677914Y-75556506D01*
X121697700Y-75368250D01*
X121677914Y-75179994D01*
X121619419Y-74999966D01*
X121524773Y-74836034D01*
X121398111Y-74695362D01*
X121398110Y-74695361D01*
X121244974Y-74584101D01*
X121244969Y-74584098D01*
X121072047Y-74507107D01*
X121072042Y-74507105D01*
X120926241Y-74476115D01*
X120886886Y-74467750D01*
X120697594Y-74467750D01*
X120665137Y-74474648D01*
X120512437Y-74507105D01*
X120512432Y-74507107D01*
X120339510Y-74584098D01*
X120339505Y-74584101D01*
X120186369Y-74695361D01*
X120059706Y-74836035D01*
X119965061Y-74999965D01*
X119965058Y-74999972D01*
X119906567Y-75179990D01*
X119906566Y-75179994D01*
X119886780Y-75368250D01*
X119906566Y-75556506D01*
X119906567Y-75556509D01*
X119965058Y-75736527D01*
X119965061Y-75736534D01*
X120059707Y-75900466D01*
X120080141Y-75923160D01*
X120082498Y-75925778D01*
X120112728Y-75988770D01*
X120104103Y-76058105D01*
X120059361Y-76111770D01*
X119992709Y-76132728D01*
X119990348Y-76132750D01*
X119101518Y-76132750D01*
X119089371Y-76133044D01*
X119086294Y-76133156D01*
X119077061Y-76133493D01*
X119049255Y-76138881D01*
X119034827Y-76141676D01*
X118965269Y-76135105D01*
X118910304Y-76091969D01*
X118887386Y-76025965D01*
X118887240Y-76019941D01*
X118887240Y-65927689D01*
X118888837Y-65907854D01*
X118902413Y-65824079D01*
X118943547Y-65570236D01*
X119159438Y-64484878D01*
X119413930Y-63407918D01*
X119706700Y-62340728D01*
X120037373Y-61284667D01*
X120405529Y-60241081D01*
X120810698Y-59211301D01*
X121252365Y-58196638D01*
X121729966Y-57198386D01*
X122242892Y-56217817D01*
X122790491Y-55256180D01*
X123372063Y-54314701D01*
X123986869Y-53394579D01*
X124634124Y-52496988D01*
X124811813Y-52268250D01*
X125313004Y-51623072D01*
X125574027Y-51310739D01*
X125597433Y-51282732D01*
X125655527Y-51243915D01*
X125692580Y-51238250D01*
X135273240Y-51238250D01*
X135340279Y-51257935D01*
G37*
%TD.AperFunction*%
%TD*%
%TA.AperFunction,Conductor*%
%TO.N,Earth_Protective*%
G36*
X167370060Y-122631935D02*
G01*
X167415815Y-122684739D01*
X167427021Y-122736242D01*
X167427186Y-125402094D01*
X167407506Y-125469135D01*
X167354704Y-125514893D01*
X167303169Y-125526102D01*
X160032223Y-125525125D01*
X159965187Y-125505431D01*
X159919439Y-125452621D01*
X159908240Y-125401125D01*
X159908240Y-122736250D01*
X159927925Y-122669211D01*
X159980729Y-122623456D01*
X160032240Y-122612250D01*
X167303021Y-122612250D01*
X167370060Y-122631935D01*
G37*
%TD.AperFunction*%
%TD*%
%TA.AperFunction,Conductor*%
%TO.N,Shunt_2*%
G36*
X134070279Y-76657935D02*
G01*
X134116034Y-76710739D01*
X134127240Y-76762250D01*
X134127240Y-89214250D01*
X134107555Y-89281289D01*
X134054751Y-89327044D01*
X134003240Y-89338250D01*
X124466799Y-89338250D01*
X124399760Y-89318565D01*
X124367619Y-89288676D01*
X124335855Y-89246347D01*
X123718833Y-88361579D01*
X123132968Y-87455881D01*
X122578967Y-86530347D01*
X122057502Y-85586100D01*
X121569204Y-84624282D01*
X121114664Y-83646058D01*
X120694433Y-82652612D01*
X120569253Y-82325394D01*
X120309020Y-81645148D01*
X119958890Y-80624884D01*
X119750267Y-79940250D01*
X120394780Y-79940250D01*
X120414566Y-80128506D01*
X120414567Y-80128509D01*
X120473058Y-80308527D01*
X120473061Y-80308534D01*
X120567707Y-80472466D01*
X120685335Y-80603105D01*
X120694369Y-80613138D01*
X120847505Y-80724398D01*
X120847510Y-80724401D01*
X121020432Y-80801392D01*
X121020437Y-80801394D01*
X121205594Y-80840750D01*
X121205595Y-80840750D01*
X121394884Y-80840750D01*
X121394886Y-80840750D01*
X121580043Y-80801394D01*
X121752970Y-80724401D01*
X121752974Y-80724398D01*
X121757803Y-80722248D01*
X121827053Y-80712962D01*
X121858677Y-80722248D01*
X121863505Y-80724398D01*
X121863510Y-80724401D01*
X122036437Y-80801394D01*
X122221594Y-80840750D01*
X122221595Y-80840750D01*
X122410884Y-80840750D01*
X122410886Y-80840750D01*
X122596043Y-80801394D01*
X122768970Y-80724401D01*
X122768974Y-80724398D01*
X122773803Y-80722248D01*
X122843053Y-80712962D01*
X122874677Y-80722248D01*
X122879505Y-80724397D01*
X122879510Y-80724401D01*
X123052437Y-80801394D01*
X123228141Y-80838740D01*
X123289622Y-80871932D01*
X123323399Y-80933095D01*
X123318747Y-81002809D01*
X123309748Y-81022029D01*
X123267060Y-81095967D01*
X123267058Y-81095972D01*
X123208567Y-81275990D01*
X123208566Y-81275994D01*
X123188780Y-81464250D01*
X123208566Y-81652506D01*
X123208567Y-81652509D01*
X123267058Y-81832527D01*
X123267061Y-81832534D01*
X123361707Y-81996466D01*
X123488368Y-82137138D01*
X123488369Y-82137138D01*
X123641505Y-82248398D01*
X123641510Y-82248401D01*
X123814432Y-82325392D01*
X123814437Y-82325394D01*
X123999594Y-82364750D01*
X123999595Y-82364750D01*
X124188884Y-82364750D01*
X124188886Y-82364750D01*
X124374043Y-82325394D01*
X124546970Y-82248401D01*
X124700111Y-82137138D01*
X124826773Y-81996466D01*
X124921419Y-81832534D01*
X124979914Y-81652506D01*
X124999700Y-81464250D01*
X124979914Y-81275994D01*
X124921419Y-81095966D01*
X124826773Y-80932034D01*
X124700111Y-80791362D01*
X124700110Y-80791361D01*
X124546974Y-80680101D01*
X124546969Y-80680098D01*
X124374047Y-80603107D01*
X124374042Y-80603105D01*
X124198338Y-80565759D01*
X124136856Y-80532567D01*
X124103080Y-80471404D01*
X124107732Y-80401689D01*
X124116729Y-80382475D01*
X124159419Y-80308534D01*
X124217914Y-80128506D01*
X124237700Y-79940250D01*
X124217914Y-79751994D01*
X124159419Y-79571966D01*
X124064773Y-79408034D01*
X123938111Y-79267362D01*
X123938110Y-79267361D01*
X123784974Y-79156101D01*
X123784969Y-79156098D01*
X123612047Y-79079107D01*
X123612042Y-79079105D01*
X123466240Y-79048115D01*
X123426886Y-79039750D01*
X123237594Y-79039750D01*
X123205137Y-79046648D01*
X123052437Y-79079105D01*
X123052432Y-79079107D01*
X122874676Y-79158251D01*
X122805426Y-79167536D01*
X122773804Y-79158251D01*
X122596047Y-79079107D01*
X122596042Y-79079105D01*
X122450240Y-79048115D01*
X122410886Y-79039750D01*
X122221594Y-79039750D01*
X122189137Y-79046648D01*
X122036437Y-79079105D01*
X122036432Y-79079107D01*
X121858676Y-79158251D01*
X121789426Y-79167536D01*
X121757804Y-79158251D01*
X121580047Y-79079107D01*
X121580042Y-79079105D01*
X121434240Y-79048115D01*
X121394886Y-79039750D01*
X121205594Y-79039750D01*
X121173137Y-79046648D01*
X121020437Y-79079105D01*
X121020432Y-79079107D01*
X120847510Y-79156098D01*
X120847505Y-79156101D01*
X120694369Y-79267361D01*
X120567706Y-79408035D01*
X120473061Y-79571965D01*
X120473058Y-79571972D01*
X120434501Y-79690640D01*
X120414566Y-79751994D01*
X120394780Y-79940250D01*
X119750267Y-79940250D01*
X119644469Y-79593056D01*
X119366137Y-78550914D01*
X119124230Y-77499720D01*
X119109079Y-77421524D01*
X118985908Y-76785837D01*
X118992481Y-76716278D01*
X119035617Y-76661314D01*
X119101621Y-76638396D01*
X119107644Y-76638250D01*
X134003240Y-76638250D01*
X134070279Y-76657935D01*
G37*
%TD.AperFunction*%
%TD*%
%TA.AperFunction,Conductor*%
%TO.N,Shunt_1*%
G36*
X155660279Y-84277935D02*
G01*
X155706034Y-84330739D01*
X155717240Y-84382250D01*
X155717240Y-88579250D01*
X155697555Y-88646289D01*
X155644751Y-88692044D01*
X155593240Y-88703250D01*
X153301240Y-88703250D01*
X153234201Y-88683565D01*
X153188446Y-88630761D01*
X153177240Y-88579250D01*
X153177240Y-86798250D01*
X152025872Y-86798250D01*
X151958833Y-86778565D01*
X151913078Y-86725761D01*
X151903134Y-86656603D01*
X151909351Y-86631837D01*
X151911143Y-86626912D01*
X151972303Y-86398658D01*
X151992899Y-86163250D01*
X151972303Y-85927842D01*
X151922479Y-85741894D01*
X151920865Y-85733687D01*
X151912488Y-85667913D01*
X151923548Y-85598924D01*
X151970150Y-85546866D01*
X152035496Y-85528250D01*
X153177240Y-85528250D01*
X153177240Y-84382250D01*
X153196925Y-84315211D01*
X153249729Y-84269456D01*
X153301240Y-84258250D01*
X155593240Y-84258250D01*
X155660279Y-84277935D01*
G37*
%TD.AperFunction*%
%TD*%
%TA.AperFunction,Conductor*%
%TO.N,Shunt_1*%
G36*
X137245279Y-90627935D02*
G01*
X137291034Y-90680739D01*
X137302240Y-90732250D01*
X137302240Y-93148250D01*
X161943240Y-93148250D01*
X162010279Y-93167935D01*
X162056034Y-93220739D01*
X162067240Y-93272250D01*
X162067240Y-94294250D01*
X162047555Y-94361289D01*
X161994751Y-94407044D01*
X161943240Y-94418250D01*
X136156240Y-94418250D01*
X136089201Y-94398565D01*
X136043446Y-94345761D01*
X136032240Y-94294250D01*
X136032240Y-90732250D01*
X136051925Y-90665211D01*
X136104729Y-90619456D01*
X136156240Y-90608250D01*
X137178240Y-90608250D01*
X137245279Y-90627935D01*
G37*
%TD.AperFunction*%
%TD*%
%TA.AperFunction,Conductor*%
%TO.N,Shunt_2*%
G36*
X179161324Y-76657935D02*
G01*
X179207079Y-76710739D01*
X179218130Y-76756058D01*
X179342753Y-79248532D01*
X179338749Y-79286570D01*
X179267815Y-79553500D01*
X178956341Y-80580850D01*
X178609480Y-81596799D01*
X178227651Y-82600129D01*
X178065368Y-82985820D01*
X178021224Y-83039979D01*
X177954808Y-83061674D01*
X177887206Y-83044017D01*
X177839881Y-82992616D01*
X177827752Y-82950691D01*
X177811914Y-82799994D01*
X177753419Y-82619966D01*
X177658773Y-82456034D01*
X177532111Y-82315362D01*
X177532110Y-82315361D01*
X177378974Y-82204101D01*
X177378969Y-82204098D01*
X177206047Y-82127107D01*
X177206042Y-82127105D01*
X177060240Y-82096115D01*
X177020886Y-82087750D01*
X176831594Y-82087750D01*
X176799137Y-82094648D01*
X176646437Y-82127105D01*
X176646432Y-82127107D01*
X176473510Y-82204098D01*
X176473505Y-82204101D01*
X176320369Y-82315361D01*
X176193706Y-82456035D01*
X176099061Y-82619965D01*
X176099058Y-82619972D01*
X176040567Y-82799990D01*
X176040566Y-82799994D01*
X176020780Y-82988250D01*
X176040566Y-83176506D01*
X176040567Y-83176509D01*
X176099058Y-83356527D01*
X176099061Y-83356534D01*
X176193707Y-83520466D01*
X176308774Y-83648260D01*
X176320369Y-83661138D01*
X176473505Y-83772398D01*
X176473510Y-83772401D01*
X176646432Y-83849392D01*
X176646437Y-83849394D01*
X176831594Y-83888750D01*
X176831595Y-83888750D01*
X177020884Y-83888750D01*
X177020886Y-83888750D01*
X177206043Y-83849394D01*
X177378970Y-83772401D01*
X177517520Y-83671738D01*
X177583324Y-83648260D01*
X177651378Y-83664085D01*
X177700073Y-83714191D01*
X177713948Y-83782669D01*
X177702964Y-83824077D01*
X177360955Y-84564133D01*
X177360955Y-84564134D01*
X176877129Y-85522453D01*
X176360411Y-86463446D01*
X175811421Y-87385983D01*
X175230816Y-88288957D01*
X174619294Y-89171287D01*
X174531991Y-89288372D01*
X174476140Y-89330349D01*
X174432585Y-89338250D01*
X164731240Y-89338250D01*
X164664201Y-89318565D01*
X164618446Y-89265761D01*
X164607240Y-89214250D01*
X164607240Y-79940250D01*
X174242780Y-79940250D01*
X174262566Y-80128506D01*
X174262567Y-80128509D01*
X174321058Y-80308527D01*
X174321061Y-80308534D01*
X174415707Y-80472466D01*
X174513297Y-80580850D01*
X174542369Y-80613138D01*
X174695505Y-80724398D01*
X174695510Y-80724401D01*
X174868432Y-80801392D01*
X174868437Y-80801394D01*
X175053594Y-80840750D01*
X175053595Y-80840750D01*
X175242884Y-80840750D01*
X175242886Y-80840750D01*
X175428043Y-80801394D01*
X175505072Y-80767098D01*
X175606907Y-80721758D01*
X175607964Y-80724134D01*
X175664583Y-80710384D01*
X175709150Y-80720966D01*
X175880133Y-80797093D01*
X175880138Y-80797095D01*
X176065295Y-80836451D01*
X176065296Y-80836451D01*
X176254585Y-80836451D01*
X176254587Y-80836451D01*
X176439744Y-80797095D01*
X176612671Y-80720102D01*
X176612673Y-80720100D01*
X176615585Y-80718804D01*
X176684834Y-80709519D01*
X176721315Y-80722338D01*
X176721574Y-80721758D01*
X176900432Y-80801392D01*
X176900437Y-80801394D01*
X177085594Y-80840750D01*
X177085595Y-80840750D01*
X177274884Y-80840750D01*
X177274886Y-80840750D01*
X177460043Y-80801394D01*
X177632970Y-80724401D01*
X177786111Y-80613138D01*
X177912773Y-80472466D01*
X178007419Y-80308534D01*
X178065914Y-80128506D01*
X178085700Y-79940250D01*
X178065914Y-79751994D01*
X178007419Y-79571966D01*
X177912773Y-79408034D01*
X177786111Y-79267362D01*
X177760194Y-79248532D01*
X177632974Y-79156101D01*
X177632969Y-79156098D01*
X177460047Y-79079107D01*
X177460042Y-79079105D01*
X177314240Y-79048115D01*
X177274886Y-79039750D01*
X177085594Y-79039750D01*
X177053137Y-79046648D01*
X176900437Y-79079105D01*
X176900432Y-79079107D01*
X176724595Y-79157396D01*
X176655345Y-79166681D01*
X176618865Y-79153863D01*
X176618607Y-79154443D01*
X176439748Y-79074808D01*
X176439743Y-79074806D01*
X176274812Y-79039750D01*
X176254587Y-79035451D01*
X176065295Y-79035451D01*
X176045070Y-79039750D01*
X175880138Y-79074806D01*
X175880133Y-79074808D01*
X175701275Y-79154443D01*
X175700222Y-79152079D01*
X175643518Y-79165813D01*
X175599030Y-79155235D01*
X175428047Y-79079107D01*
X175428042Y-79079105D01*
X175282240Y-79048115D01*
X175242886Y-79039750D01*
X175053594Y-79039750D01*
X175021137Y-79046648D01*
X174868437Y-79079105D01*
X174868432Y-79079107D01*
X174695510Y-79156098D01*
X174695505Y-79156101D01*
X174542369Y-79267361D01*
X174415706Y-79408035D01*
X174321061Y-79571965D01*
X174321058Y-79571972D01*
X174262567Y-79751990D01*
X174262566Y-79751994D01*
X174242780Y-79940250D01*
X164607240Y-79940250D01*
X164607240Y-76762250D01*
X164626925Y-76695211D01*
X164679729Y-76649456D01*
X164731240Y-76638250D01*
X179094285Y-76638250D01*
X179161324Y-76657935D01*
G37*
%TD.AperFunction*%
%TD*%
%TA.AperFunction,Conductor*%
%TO.N,Shunt_1*%
G36*
X162010279Y-101422935D02*
G01*
X162056034Y-101475739D01*
X162067239Y-101527250D01*
X162067240Y-103943250D01*
X165753240Y-103943250D01*
X165820279Y-103962935D01*
X165866034Y-104015739D01*
X165877240Y-104067250D01*
X165877240Y-105724250D01*
X165857555Y-105791289D01*
X165804751Y-105837044D01*
X165753240Y-105848250D01*
X132981240Y-105848250D01*
X132914201Y-105828565D01*
X132868446Y-105775761D01*
X132857240Y-105724250D01*
X132857240Y-104067250D01*
X132876925Y-104000211D01*
X132929729Y-103954456D01*
X132981240Y-103943250D01*
X136667240Y-103943250D01*
X136667240Y-101527250D01*
X136686925Y-101460211D01*
X136739729Y-101414456D01*
X136791240Y-101403250D01*
X161943240Y-101403250D01*
X162010279Y-101422935D01*
G37*
%TD.AperFunction*%
%TD*%
%TA.AperFunction,Conductor*%
%TO.N,Shunt_1*%
G36*
X162010279Y-112852935D02*
G01*
X162056034Y-112905739D01*
X162067240Y-112957250D01*
X162067240Y-113979250D01*
X162047555Y-114046289D01*
X161994751Y-114092044D01*
X161943240Y-114103250D01*
X153812240Y-114103250D01*
X153812240Y-115934264D01*
X153792555Y-116001303D01*
X153739751Y-116047058D01*
X153720334Y-116054039D01*
X153364033Y-116149510D01*
X153021500Y-116280996D01*
X152694583Y-116447570D01*
X152386875Y-116647397D01*
X152101738Y-116878297D01*
X152101730Y-116878304D01*
X151842294Y-117137740D01*
X151842287Y-117137748D01*
X151765732Y-117232286D01*
X151708245Y-117271997D01*
X151669366Y-117278250D01*
X143652240Y-117278250D01*
X143652240Y-119186250D01*
X143632555Y-119253289D01*
X143579751Y-119299044D01*
X143528240Y-119310250D01*
X136791240Y-119310250D01*
X136724201Y-119290565D01*
X136678446Y-119237761D01*
X136667240Y-119186250D01*
X136667240Y-112957250D01*
X136686925Y-112890211D01*
X136739729Y-112844456D01*
X136791240Y-112833250D01*
X161943240Y-112833250D01*
X162010279Y-112852935D01*
G37*
%TD.AperFunction*%
%TD*%
%TA.AperFunction,Conductor*%
%TO.N,GND*%
G36*
X159470279Y-63957935D02*
G01*
X159516034Y-64010739D01*
X159527240Y-64062250D01*
X159527240Y-76379558D01*
X159507555Y-76446597D01*
X159454751Y-76492352D01*
X159385593Y-76502296D01*
X159351463Y-76490489D01*
X159350906Y-76491742D01*
X159172047Y-76412107D01*
X159172042Y-76412105D01*
X159018915Y-76379558D01*
X158986886Y-76372750D01*
X158797594Y-76372750D01*
X158765565Y-76379558D01*
X158612437Y-76412105D01*
X158612432Y-76412107D01*
X158439510Y-76489098D01*
X158439505Y-76489101D01*
X158286369Y-76600361D01*
X158159706Y-76741035D01*
X158065061Y-76904965D01*
X158065058Y-76904972D01*
X158006567Y-77084990D01*
X158006566Y-77084994D01*
X157986780Y-77273250D01*
X158006566Y-77461506D01*
X158006567Y-77461509D01*
X158065058Y-77641527D01*
X158065061Y-77641534D01*
X158159707Y-77805466D01*
X158177545Y-77825277D01*
X158207775Y-77888268D01*
X158199150Y-77957604D01*
X158177548Y-77991218D01*
X158159706Y-78011034D01*
X158065061Y-78174965D01*
X158065058Y-78174972D01*
X158006567Y-78354990D01*
X158006566Y-78354994D01*
X157986780Y-78543250D01*
X158006566Y-78731506D01*
X158006567Y-78731509D01*
X158065058Y-78911527D01*
X158065061Y-78911534D01*
X158159707Y-79075466D01*
X158170046Y-79086949D01*
X158177547Y-79095280D01*
X158207775Y-79158272D01*
X158199149Y-79227607D01*
X158177547Y-79261220D01*
X158159706Y-79281035D01*
X158065061Y-79444965D01*
X158065058Y-79444972D01*
X158006567Y-79624990D01*
X158006566Y-79624994D01*
X157999667Y-79690640D01*
X157987191Y-79809344D01*
X157986780Y-79813250D01*
X158006566Y-80001506D01*
X158006567Y-80001509D01*
X158065058Y-80181527D01*
X158065061Y-80181534D01*
X158159707Y-80345466D01*
X158170046Y-80356949D01*
X158177547Y-80365280D01*
X158207775Y-80428272D01*
X158199149Y-80497607D01*
X158177547Y-80531220D01*
X158159706Y-80551035D01*
X158065061Y-80714965D01*
X158065058Y-80714972D01*
X158021885Y-80847846D01*
X158006566Y-80894994D01*
X157986780Y-81083250D01*
X158006566Y-81271506D01*
X158006567Y-81271509D01*
X158065058Y-81451527D01*
X158065061Y-81451534D01*
X158159707Y-81615466D01*
X158169008Y-81625796D01*
X158177547Y-81635280D01*
X158207775Y-81698272D01*
X158199149Y-81767607D01*
X158177547Y-81801220D01*
X158159706Y-81821035D01*
X158065061Y-81984965D01*
X158065058Y-81984972D01*
X158006567Y-82164990D01*
X158006566Y-82164994D01*
X157986780Y-82353250D01*
X158006566Y-82541506D01*
X158006567Y-82541509D01*
X158065058Y-82721527D01*
X158065061Y-82721534D01*
X158159707Y-82885466D01*
X158170046Y-82896949D01*
X158177547Y-82905280D01*
X158207775Y-82968272D01*
X158199149Y-83037607D01*
X158177547Y-83071220D01*
X158159706Y-83091035D01*
X158065061Y-83254965D01*
X158065058Y-83254972D01*
X158021885Y-83387846D01*
X158006566Y-83434994D01*
X157986780Y-83623250D01*
X158006566Y-83811506D01*
X158006567Y-83811509D01*
X158065058Y-83991527D01*
X158065061Y-83991534D01*
X158159707Y-84155466D01*
X158175300Y-84172784D01*
X158177545Y-84175277D01*
X158207775Y-84238268D01*
X158199150Y-84307604D01*
X158177548Y-84341218D01*
X158159708Y-84361032D01*
X158159704Y-84361037D01*
X158065061Y-84524965D01*
X158065058Y-84524972D01*
X158006567Y-84704990D01*
X158006566Y-84704994D01*
X157986780Y-84893250D01*
X158006566Y-85081506D01*
X158006567Y-85081509D01*
X158065058Y-85261527D01*
X158065061Y-85261534D01*
X158159707Y-85425466D01*
X158176434Y-85444043D01*
X158177545Y-85445277D01*
X158207775Y-85508268D01*
X158199150Y-85577604D01*
X158177548Y-85611218D01*
X158159708Y-85631032D01*
X158159704Y-85631037D01*
X158065061Y-85794965D01*
X158065058Y-85794972D01*
X158006567Y-85974990D01*
X158006566Y-85974994D01*
X157986780Y-86163250D01*
X158006566Y-86351506D01*
X158006567Y-86351509D01*
X158065058Y-86531527D01*
X158065061Y-86531534D01*
X158159707Y-86695466D01*
X158251764Y-86797705D01*
X158286369Y-86836138D01*
X158439505Y-86947398D01*
X158439510Y-86947401D01*
X158612432Y-87024392D01*
X158612437Y-87024394D01*
X158797594Y-87063750D01*
X158797595Y-87063750D01*
X158986884Y-87063750D01*
X158986886Y-87063750D01*
X159172043Y-87024394D01*
X159344970Y-86947401D01*
X159344970Y-86947400D01*
X159350906Y-86944758D01*
X159351891Y-86946971D01*
X159409131Y-86933081D01*
X159475160Y-86955928D01*
X159518354Y-87010846D01*
X159527240Y-87056941D01*
X159527240Y-89973250D01*
X173766383Y-89973250D01*
X173833422Y-89992935D01*
X173879177Y-90045739D01*
X173889121Y-90114897D01*
X173863165Y-90174769D01*
X173306467Y-90869804D01*
X172606736Y-91683955D01*
X171879234Y-92473389D01*
X171124835Y-93237160D01*
X170344441Y-93974351D01*
X169539926Y-94683253D01*
X169441315Y-94767154D01*
X169374004Y-94824423D01*
X169374000Y-94824426D01*
X169374001Y-94824426D01*
X169065197Y-95128175D01*
X169065198Y-95128175D01*
X168779096Y-95453395D01*
X168779095Y-95453396D01*
X168779093Y-95453399D01*
X168517177Y-95798400D01*
X168517174Y-95798405D01*
X168517174Y-95798404D01*
X168280816Y-96161378D01*
X168087237Y-96511509D01*
X168071228Y-96540464D01*
X167889517Y-96933666D01*
X167736623Y-97338943D01*
X167708777Y-97432737D01*
X167613345Y-97754178D01*
X167613346Y-97754178D01*
X167613343Y-97754188D01*
X167533157Y-98118848D01*
X167520316Y-98177245D01*
X167458029Y-98605894D01*
X167426805Y-99037924D01*
X167426813Y-99254501D01*
X167426813Y-108415610D01*
X167407128Y-108482649D01*
X167357587Y-108526856D01*
X166984126Y-108710738D01*
X166984120Y-108710741D01*
X166535075Y-108974897D01*
X166535075Y-108974896D01*
X166106852Y-109271623D01*
X166106850Y-109271625D01*
X165992975Y-109363745D01*
X165701807Y-109599287D01*
X165322179Y-109956079D01*
X164970046Y-110340043D01*
X164970047Y-110340042D01*
X164647358Y-110749057D01*
X164355885Y-111180874D01*
X164148103Y-111544173D01*
X164097235Y-111633113D01*
X164097234Y-111633113D01*
X164097234Y-111633114D01*
X163872828Y-112103288D01*
X163683904Y-112588808D01*
X163683903Y-112588812D01*
X163683902Y-112588812D01*
X163531500Y-113087001D01*
X163531501Y-113087000D01*
X163416458Y-113595120D01*
X163339410Y-114110368D01*
X163339410Y-114110369D01*
X163323854Y-114319581D01*
X163304046Y-114585991D01*
X163300779Y-114629923D01*
X163300779Y-115150898D01*
X163339410Y-115670453D01*
X163382622Y-115959422D01*
X163416459Y-116185701D01*
X163475747Y-116447568D01*
X163531501Y-116693821D01*
X163531500Y-116693820D01*
X163683902Y-117192010D01*
X163848804Y-117615792D01*
X163872829Y-117677533D01*
X164097234Y-118147707D01*
X164355886Y-118599948D01*
X164355888Y-118599951D01*
X164355887Y-118599950D01*
X164647364Y-119031773D01*
X164708644Y-119109446D01*
X164734714Y-119174270D01*
X164721599Y-119242897D01*
X164673462Y-119293540D01*
X164611294Y-119310250D01*
X158061149Y-119310250D01*
X157994110Y-119290565D01*
X157948355Y-119237761D01*
X157937319Y-119192739D01*
X157936054Y-119168603D01*
X157933342Y-119116846D01*
X157875945Y-118754456D01*
X157780982Y-118400051D01*
X157649495Y-118057514D01*
X157482922Y-117730598D01*
X157482919Y-117730593D01*
X157283092Y-117422885D01*
X157214560Y-117338255D01*
X159291597Y-117338255D01*
X159312130Y-117586062D01*
X159312132Y-117586074D01*
X159373176Y-117827131D01*
X159473066Y-118054856D01*
X159609073Y-118263032D01*
X159609076Y-118263035D01*
X159777496Y-118445988D01*
X159973731Y-118598724D01*
X160192430Y-118717078D01*
X160427626Y-118797821D01*
X160672905Y-118838750D01*
X160921575Y-118838750D01*
X161166854Y-118797821D01*
X161402050Y-118717078D01*
X161620749Y-118598724D01*
X161816984Y-118445988D01*
X161985404Y-118263035D01*
X162121413Y-118054857D01*
X162221303Y-117827131D01*
X162282348Y-117586071D01*
X162286126Y-117540477D01*
X162302883Y-117338255D01*
X162302883Y-117338244D01*
X162282349Y-117090437D01*
X162282347Y-117090425D01*
X162221303Y-116849368D01*
X162121413Y-116621643D01*
X161985406Y-116413467D01*
X161963797Y-116389994D01*
X161816984Y-116230512D01*
X161620749Y-116077776D01*
X161620747Y-116077775D01*
X161620746Y-116077774D01*
X161402051Y-115959422D01*
X161402042Y-115959419D01*
X161166856Y-115878679D01*
X160921575Y-115837750D01*
X160672905Y-115837750D01*
X160427623Y-115878679D01*
X160192437Y-115959419D01*
X160192428Y-115959422D01*
X159973733Y-116077774D01*
X159777497Y-116230511D01*
X159609073Y-116413467D01*
X159473066Y-116621643D01*
X159373176Y-116849368D01*
X159312132Y-117090425D01*
X159312130Y-117090437D01*
X159291597Y-117338244D01*
X159291597Y-117338255D01*
X157214560Y-117338255D01*
X157052192Y-117137748D01*
X157052189Y-117137744D01*
X156792746Y-116878301D01*
X156564934Y-116693822D01*
X156507604Y-116647397D01*
X156199896Y-116447570D01*
X155872979Y-116280996D01*
X155530446Y-116149510D01*
X155529976Y-116149384D01*
X155176034Y-116054545D01*
X155176030Y-116054544D01*
X155176029Y-116054544D01*
X154813645Y-115997148D01*
X154447241Y-115977946D01*
X154443994Y-115977946D01*
X154443994Y-115976889D01*
X154380246Y-115961742D01*
X154331793Y-115911402D01*
X154317740Y-115854064D01*
X154317740Y-114732750D01*
X154337425Y-114665711D01*
X154390229Y-114619956D01*
X154441740Y-114608750D01*
X161943230Y-114608750D01*
X161943240Y-114608750D01*
X162050696Y-114597197D01*
X162102207Y-114585991D01*
X162136437Y-114574597D01*
X162204737Y-114551866D01*
X162204741Y-114551863D01*
X162204744Y-114551863D01*
X162325783Y-114474075D01*
X162378587Y-114428320D01*
X162472807Y-114319586D01*
X162532578Y-114188709D01*
X162532595Y-114188650D01*
X162532623Y-114188586D01*
X162534130Y-114184549D01*
X162534380Y-114184642D01*
X162546039Y-114158472D01*
X162582050Y-114100091D01*
X162582050Y-114100089D01*
X162582054Y-114100084D01*
X162637239Y-113933547D01*
X162647740Y-113830759D01*
X162647739Y-112905742D01*
X162644934Y-112878287D01*
X162637239Y-112802953D01*
X162637238Y-112802950D01*
X162627703Y-112774176D01*
X162582054Y-112636416D01*
X162489952Y-112487094D01*
X162365896Y-112363038D01*
X162216574Y-112270936D01*
X162050037Y-112215751D01*
X162050035Y-112215750D01*
X161947250Y-112205250D01*
X159647238Y-112205250D01*
X159647221Y-112205251D01*
X159544443Y-112215750D01*
X159544440Y-112215751D01*
X159377908Y-112270935D01*
X159377899Y-112270939D01*
X159315725Y-112309289D01*
X159250629Y-112327750D01*
X158447147Y-112327750D01*
X158408143Y-112321456D01*
X158406574Y-112320936D01*
X158240037Y-112265751D01*
X158240035Y-112265750D01*
X158137250Y-112255250D01*
X155837238Y-112255250D01*
X155837221Y-112255251D01*
X155734443Y-112265750D01*
X155734440Y-112265751D01*
X155566337Y-112321456D01*
X155527333Y-112327750D01*
X154637147Y-112327750D01*
X154598143Y-112321456D01*
X154596574Y-112320936D01*
X154430037Y-112265751D01*
X154430035Y-112265750D01*
X154327250Y-112255250D01*
X152027238Y-112255250D01*
X152027221Y-112255251D01*
X151924443Y-112265750D01*
X151924440Y-112265751D01*
X151756337Y-112321456D01*
X151717333Y-112327750D01*
X150827147Y-112327750D01*
X150788143Y-112321456D01*
X150786574Y-112320936D01*
X150620037Y-112265751D01*
X150620035Y-112265750D01*
X150517250Y-112255250D01*
X148217238Y-112255250D01*
X148217221Y-112255251D01*
X148114443Y-112265750D01*
X148114440Y-112265751D01*
X147946337Y-112321456D01*
X147907333Y-112327750D01*
X147103851Y-112327750D01*
X147038755Y-112309289D01*
X146976580Y-112270939D01*
X146976575Y-112270937D01*
X146976574Y-112270936D01*
X146810037Y-112215751D01*
X146810035Y-112215750D01*
X146707250Y-112205250D01*
X144407238Y-112205250D01*
X144407221Y-112205251D01*
X144304443Y-112215750D01*
X144304440Y-112215751D01*
X144137908Y-112270935D01*
X144137899Y-112270939D01*
X144075725Y-112309289D01*
X144010629Y-112327750D01*
X143293851Y-112327750D01*
X143228755Y-112309289D01*
X143166580Y-112270939D01*
X143166575Y-112270937D01*
X143166574Y-112270936D01*
X143000037Y-112215751D01*
X143000035Y-112215750D01*
X142897250Y-112205250D01*
X140597238Y-112205250D01*
X140597221Y-112205251D01*
X140494443Y-112215750D01*
X140494440Y-112215751D01*
X140327908Y-112270935D01*
X140327899Y-112270939D01*
X140265725Y-112309289D01*
X140200629Y-112327750D01*
X139483851Y-112327750D01*
X139418755Y-112309289D01*
X139356580Y-112270939D01*
X139356575Y-112270937D01*
X139356574Y-112270936D01*
X139190037Y-112215751D01*
X139190035Y-112215750D01*
X139087250Y-112205250D01*
X136787238Y-112205250D01*
X136787221Y-112205251D01*
X136684443Y-112215750D01*
X136684440Y-112215751D01*
X136517908Y-112270935D01*
X136517903Y-112270937D01*
X136368582Y-112363039D01*
X136244529Y-112487092D01*
X136152427Y-112636413D01*
X136152425Y-112636418D01*
X136128908Y-112707388D01*
X136097241Y-112802953D01*
X136097241Y-112802954D01*
X136097240Y-112802954D01*
X136086740Y-112905733D01*
X136086740Y-113830751D01*
X136086741Y-113830769D01*
X136097240Y-113933546D01*
X136097241Y-113933549D01*
X136154698Y-114106940D01*
X136152871Y-114107545D01*
X136161740Y-114147548D01*
X136161740Y-119186250D01*
X136142055Y-119253289D01*
X136089251Y-119299044D01*
X136037740Y-119310250D01*
X134242624Y-119310250D01*
X134175585Y-119290565D01*
X134129830Y-119237761D01*
X134119886Y-119168603D01*
X134146085Y-119108429D01*
X134173645Y-119074240D01*
X134466989Y-118650105D01*
X134728443Y-118205608D01*
X134728443Y-118205609D01*
X134956609Y-117743131D01*
X135120643Y-117338250D01*
X135150251Y-117265170D01*
X135308328Y-116774302D01*
X135308329Y-116774302D01*
X135429991Y-116273168D01*
X135514584Y-115764455D01*
X135561652Y-115250907D01*
X135561652Y-115250906D01*
X135570941Y-114735297D01*
X135542401Y-114220388D01*
X135476186Y-113708961D01*
X135372655Y-113203777D01*
X135339641Y-113087000D01*
X135232359Y-112707525D01*
X135056058Y-112222902D01*
X135003734Y-112106451D01*
X134844703Y-111752511D01*
X134844703Y-111752512D01*
X134628561Y-111352767D01*
X134599424Y-111298879D01*
X134599423Y-111298877D01*
X134321551Y-110864458D01*
X134293351Y-110826775D01*
X134068617Y-110526465D01*
X134012566Y-110451565D01*
X133674145Y-110062446D01*
X133308113Y-109699193D01*
X133308112Y-109699192D01*
X132916421Y-109363743D01*
X132501196Y-109057921D01*
X132501190Y-109057917D01*
X132501187Y-109057915D01*
X132327944Y-108948953D01*
X132064665Y-108783363D01*
X131927866Y-108710738D01*
X131656215Y-108566522D01*
X131606232Y-108517700D01*
X131590359Y-108456999D01*
X131590359Y-105383251D01*
X132276740Y-105383251D01*
X132276741Y-105383269D01*
X132287240Y-105486046D01*
X132287241Y-105486049D01*
X132344698Y-105659440D01*
X132342871Y-105660045D01*
X132351740Y-105700048D01*
X132351740Y-105724250D01*
X132351741Y-105724259D01*
X132363292Y-105831700D01*
X132363294Y-105831712D01*
X132374500Y-105883222D01*
X132408623Y-105985747D01*
X132408626Y-105985753D01*
X132486411Y-106106787D01*
X132486419Y-106106798D01*
X132532163Y-106159590D01*
X132532166Y-106159593D01*
X132532170Y-106159597D01*
X132640904Y-106253817D01*
X132640907Y-106253818D01*
X132640908Y-106253819D01*
X132731066Y-106294994D01*
X132771781Y-106313588D01*
X132816597Y-106326747D01*
X132838815Y-106333272D01*
X132838820Y-106333273D01*
X132838824Y-106333274D01*
X132981240Y-106353750D01*
X164000009Y-106353750D01*
X164067048Y-106373435D01*
X164087690Y-106390069D01*
X164666508Y-106968885D01*
X164678289Y-106982517D01*
X164692630Y-107001780D01*
X164732660Y-107035369D01*
X164736632Y-107039009D01*
X164742464Y-107044841D01*
X164742467Y-107044844D01*
X164768187Y-107065181D01*
X164827028Y-107114554D01*
X164833058Y-107118520D01*
X164833025Y-107118569D01*
X164839383Y-107122619D01*
X164839415Y-107122569D01*
X164845560Y-107126359D01*
X164845563Y-107126361D01*
X164915176Y-107158822D01*
X164983807Y-107193290D01*
X164983812Y-107193291D01*
X164990601Y-107195763D01*
X164990580Y-107195820D01*
X164997695Y-107198293D01*
X164997715Y-107198236D01*
X165004570Y-107200508D01*
X165079797Y-107216040D01*
X165079798Y-107216040D01*
X165154519Y-107233750D01*
X165154529Y-107233750D01*
X165161692Y-107234588D01*
X165161684Y-107234647D01*
X165169185Y-107235414D01*
X165169191Y-107235355D01*
X165176380Y-107235984D01*
X165176384Y-107235983D01*
X165176385Y-107235984D01*
X165253158Y-107233750D01*
X165337903Y-107233750D01*
X165404942Y-107253435D01*
X165410788Y-107257432D01*
X165424505Y-107267398D01*
X165424510Y-107267401D01*
X165597432Y-107344392D01*
X165597437Y-107344394D01*
X165782594Y-107383750D01*
X165782595Y-107383750D01*
X165971884Y-107383750D01*
X165971886Y-107383750D01*
X166157043Y-107344394D01*
X166329970Y-107267401D01*
X166483111Y-107156138D01*
X166609773Y-107015466D01*
X166704419Y-106851534D01*
X166762914Y-106671506D01*
X166782700Y-106483250D01*
X166762914Y-106294994D01*
X166704419Y-106114966D01*
X166609773Y-105951034D01*
X166483111Y-105810362D01*
X166440915Y-105779705D01*
X166398251Y-105724376D01*
X166392272Y-105654763D01*
X166396093Y-105640394D01*
X166447239Y-105486047D01*
X166457740Y-105383259D01*
X166457739Y-104458242D01*
X166447239Y-104355453D01*
X166392054Y-104188916D01*
X166392053Y-104188914D01*
X166389782Y-104182061D01*
X166391604Y-104181457D01*
X166382740Y-104141452D01*
X166382740Y-104067260D01*
X166382740Y-104067250D01*
X166371187Y-103959794D01*
X166359981Y-103908283D01*
X166359877Y-103907972D01*
X166325856Y-103805752D01*
X166325853Y-103805746D01*
X166248068Y-103684712D01*
X166248065Y-103684707D01*
X166248060Y-103684701D01*
X166202316Y-103631909D01*
X166202312Y-103631906D01*
X166202310Y-103631903D01*
X166093576Y-103537683D01*
X166093573Y-103537681D01*
X166093571Y-103537680D01*
X165962705Y-103477914D01*
X165962700Y-103477912D01*
X165962699Y-103477912D01*
X165940098Y-103471275D01*
X165895665Y-103458228D01*
X165895659Y-103458226D01*
X165810206Y-103445940D01*
X165753240Y-103437750D01*
X165753238Y-103437750D01*
X162696740Y-103437750D01*
X162629701Y-103418065D01*
X162583946Y-103365261D01*
X162572740Y-103313751D01*
X162572739Y-103110051D01*
X162581613Y-103070047D01*
X162579782Y-103069441D01*
X162586925Y-103047882D01*
X162637239Y-102896047D01*
X162647740Y-102793259D01*
X162647739Y-101868242D01*
X162637239Y-101765453D01*
X162636601Y-101763528D01*
X162579783Y-101592061D01*
X162581605Y-101591457D01*
X162572739Y-101551448D01*
X162572739Y-101527251D01*
X162572739Y-101527250D01*
X162561188Y-101419803D01*
X162549983Y-101368292D01*
X162515853Y-101265746D01*
X162438065Y-101144707D01*
X162438060Y-101144701D01*
X162392316Y-101091909D01*
X162392312Y-101091906D01*
X162392310Y-101091903D01*
X162283576Y-100997683D01*
X162283573Y-100997681D01*
X162283571Y-100997680D01*
X162152705Y-100937914D01*
X162152700Y-100937912D01*
X162152699Y-100937912D01*
X162130098Y-100931275D01*
X162085665Y-100918228D01*
X162085659Y-100918226D01*
X162000206Y-100905940D01*
X161943240Y-100897750D01*
X136791240Y-100897750D01*
X136791231Y-100897750D01*
X136791230Y-100897751D01*
X136683789Y-100909302D01*
X136683777Y-100909304D01*
X136632267Y-100920510D01*
X136529742Y-100954633D01*
X136529736Y-100954636D01*
X136408702Y-101032421D01*
X136408691Y-101032429D01*
X136355899Y-101078173D01*
X136261673Y-101186914D01*
X136261670Y-101186918D01*
X136201904Y-101317784D01*
X136182218Y-101384825D01*
X136182216Y-101384830D01*
X136165835Y-101498766D01*
X136161741Y-101527247D01*
X136161740Y-101527251D01*
X136161740Y-101551452D01*
X136152875Y-101591457D01*
X136154698Y-101592061D01*
X136152427Y-101598914D01*
X136152426Y-101598916D01*
X136097241Y-101765453D01*
X136097241Y-101765454D01*
X136097240Y-101765454D01*
X136086740Y-101868233D01*
X136086740Y-102793251D01*
X136086741Y-102793269D01*
X136097240Y-102896046D01*
X136097241Y-102896049D01*
X136154698Y-103069440D01*
X136152871Y-103070045D01*
X136161740Y-103110048D01*
X136161740Y-103313750D01*
X136142055Y-103380789D01*
X136089251Y-103426544D01*
X136037740Y-103437750D01*
X132981240Y-103437750D01*
X132981231Y-103437750D01*
X132981230Y-103437751D01*
X132873789Y-103449302D01*
X132873777Y-103449304D01*
X132822267Y-103460510D01*
X132719742Y-103494633D01*
X132719736Y-103494636D01*
X132598702Y-103572421D01*
X132598691Y-103572429D01*
X132545899Y-103618173D01*
X132451673Y-103726914D01*
X132451670Y-103726918D01*
X132391904Y-103857784D01*
X132372218Y-103924825D01*
X132372216Y-103924830D01*
X132355835Y-104038766D01*
X132351742Y-104067240D01*
X132351740Y-104067251D01*
X132351739Y-104067253D01*
X132351739Y-104141454D01*
X132342884Y-104181460D01*
X132344698Y-104182061D01*
X132342427Y-104188914D01*
X132342426Y-104188916D01*
X132287241Y-104355453D01*
X132287241Y-104355454D01*
X132287240Y-104355454D01*
X132276740Y-104458233D01*
X132276740Y-105383251D01*
X131590359Y-105383251D01*
X131590359Y-99391222D01*
X131590443Y-99140078D01*
X131583075Y-99037928D01*
X131559126Y-98705877D01*
X131559126Y-98705872D01*
X131559125Y-98705872D01*
X131546042Y-98615940D01*
X131496458Y-98275087D01*
X131490539Y-98248231D01*
X131402769Y-97849973D01*
X131402768Y-97849972D01*
X131402767Y-97849964D01*
X131278545Y-97432740D01*
X131243043Y-97338942D01*
X131124448Y-97025610D01*
X131124448Y-97025611D01*
X131124445Y-97025603D01*
X130941275Y-96630690D01*
X130729995Y-96250074D01*
X130654726Y-96134990D01*
X130491720Y-95885757D01*
X130277761Y-95605278D01*
X130227687Y-95539636D01*
X130227685Y-95539633D01*
X129939295Y-95213544D01*
X129851995Y-95128175D01*
X129628050Y-94909183D01*
X129578960Y-94867677D01*
X129576237Y-94865232D01*
X129575695Y-94864715D01*
X129575690Y-94864710D01*
X129565660Y-94856247D01*
X129460030Y-94767121D01*
X129432803Y-94743326D01*
X128647890Y-94057340D01*
X127860879Y-93319680D01*
X127100008Y-92555086D01*
X126366198Y-91764484D01*
X125915127Y-91243250D01*
X131951780Y-91243250D01*
X131971566Y-91431506D01*
X131971567Y-91431509D01*
X132030058Y-91611527D01*
X132030061Y-91611534D01*
X132124707Y-91775466D01*
X132217275Y-91878273D01*
X132251369Y-91916138D01*
X132404505Y-92027398D01*
X132404510Y-92027401D01*
X132577432Y-92104392D01*
X132577437Y-92104394D01*
X132762594Y-92143750D01*
X132762595Y-92143750D01*
X132951884Y-92143750D01*
X132951886Y-92143750D01*
X133137043Y-92104394D01*
X133309970Y-92027401D01*
X133463111Y-91916138D01*
X133589773Y-91775466D01*
X133684419Y-91611534D01*
X133742914Y-91431506D01*
X133762700Y-91243250D01*
X133742914Y-91054994D01*
X133684419Y-90874966D01*
X133589773Y-90711034D01*
X133463111Y-90570362D01*
X133463110Y-90570361D01*
X133309974Y-90459101D01*
X133309969Y-90459098D01*
X133137047Y-90382107D01*
X133137042Y-90382105D01*
X132984588Y-90349701D01*
X132951886Y-90342750D01*
X132762594Y-90342750D01*
X132730137Y-90349648D01*
X132577437Y-90382105D01*
X132577432Y-90382107D01*
X132404510Y-90459098D01*
X132404505Y-90459101D01*
X132251369Y-90570361D01*
X132124706Y-90711035D01*
X132030061Y-90874965D01*
X132030058Y-90874972D01*
X131986885Y-91007846D01*
X131971566Y-91054994D01*
X131951780Y-91243250D01*
X125915127Y-91243250D01*
X125660339Y-90948830D01*
X125036474Y-90175080D01*
X125009720Y-90110538D01*
X125022107Y-90041775D01*
X125069704Y-89990625D01*
X125133006Y-89973250D01*
X135762455Y-89973250D01*
X135829494Y-89992935D01*
X135875249Y-90045739D01*
X135885193Y-90114897D01*
X135856168Y-90178453D01*
X135829495Y-90201565D01*
X135773702Y-90237421D01*
X135773691Y-90237429D01*
X135720899Y-90283173D01*
X135626673Y-90391914D01*
X135626670Y-90391918D01*
X135566904Y-90522784D01*
X135547218Y-90589825D01*
X135547216Y-90589830D01*
X135530835Y-90703766D01*
X135526742Y-90732240D01*
X135526740Y-90732251D01*
X135526740Y-94252249D01*
X135507055Y-94319288D01*
X135454251Y-94365043D01*
X135385093Y-94374987D01*
X135329855Y-94352567D01*
X135214974Y-94269101D01*
X135214969Y-94269098D01*
X135042047Y-94192107D01*
X135042042Y-94192105D01*
X134896241Y-94161115D01*
X134856886Y-94152750D01*
X134667594Y-94152750D01*
X134635137Y-94159648D01*
X134482437Y-94192105D01*
X134482432Y-94192107D01*
X134309510Y-94269098D01*
X134309505Y-94269101D01*
X134156369Y-94380361D01*
X134029706Y-94521035D01*
X133935061Y-94684965D01*
X133935058Y-94684972D01*
X133876658Y-94864710D01*
X133876566Y-94864994D01*
X133856780Y-95053250D01*
X133876566Y-95241506D01*
X133876567Y-95241509D01*
X133935058Y-95421527D01*
X133935061Y-95421534D01*
X134029707Y-95585466D01*
X134040046Y-95596949D01*
X134047547Y-95605280D01*
X134077775Y-95668272D01*
X134069149Y-95737607D01*
X134047547Y-95771220D01*
X134029706Y-95791035D01*
X133935061Y-95954965D01*
X133935058Y-95954972D01*
X133876567Y-96134990D01*
X133876566Y-96134994D01*
X133856780Y-96323250D01*
X133876566Y-96511506D01*
X133876567Y-96511509D01*
X133935058Y-96691527D01*
X133935061Y-96691534D01*
X134029707Y-96855466D01*
X134040046Y-96866949D01*
X134047547Y-96875280D01*
X134077775Y-96938272D01*
X134069149Y-97007607D01*
X134047547Y-97041220D01*
X134029706Y-97061035D01*
X133935061Y-97224965D01*
X133935058Y-97224972D01*
X133876567Y-97404990D01*
X133876566Y-97404994D01*
X133856780Y-97593250D01*
X133876566Y-97781506D01*
X133876567Y-97781509D01*
X133935058Y-97961527D01*
X133935061Y-97961534D01*
X134029707Y-98125466D01*
X134040046Y-98136949D01*
X134047547Y-98145280D01*
X134077775Y-98208272D01*
X134069149Y-98277607D01*
X134047547Y-98311220D01*
X134029706Y-98331035D01*
X133935061Y-98494965D01*
X133935058Y-98494972D01*
X133876567Y-98674990D01*
X133876566Y-98674994D01*
X133856780Y-98863250D01*
X133876566Y-99051506D01*
X133876567Y-99051509D01*
X133935058Y-99231527D01*
X133935061Y-99231534D01*
X134029707Y-99395466D01*
X134129872Y-99506710D01*
X134156369Y-99536138D01*
X134309505Y-99647398D01*
X134309510Y-99647401D01*
X134482432Y-99724392D01*
X134482437Y-99724394D01*
X134667594Y-99763750D01*
X134667595Y-99763750D01*
X134856884Y-99763750D01*
X134856886Y-99763750D01*
X135042043Y-99724394D01*
X135214970Y-99647401D01*
X135368111Y-99536138D01*
X135494773Y-99395466D01*
X135589419Y-99231534D01*
X135647914Y-99051506D01*
X135667700Y-98863250D01*
X135647914Y-98674994D01*
X135589419Y-98494966D01*
X135494773Y-98331034D01*
X135476933Y-98311221D01*
X135446704Y-98248231D01*
X135455329Y-98178896D01*
X135476934Y-98145278D01*
X135494773Y-98125466D01*
X135589419Y-97961534D01*
X135647914Y-97781506D01*
X135667700Y-97593250D01*
X146556780Y-97593250D01*
X146576566Y-97781506D01*
X146576567Y-97781509D01*
X146635058Y-97961527D01*
X146635061Y-97961534D01*
X146729707Y-98125466D01*
X146856369Y-98266137D01*
X146856369Y-98266138D01*
X147009505Y-98377398D01*
X147009510Y-98377401D01*
X147182432Y-98454392D01*
X147182437Y-98454394D01*
X147367594Y-98493750D01*
X147367595Y-98493750D01*
X147556884Y-98493750D01*
X147556886Y-98493750D01*
X147742043Y-98454394D01*
X147914970Y-98377401D01*
X148068111Y-98266138D01*
X148194773Y-98125466D01*
X148289419Y-97961534D01*
X148347914Y-97781506D01*
X148367700Y-97593250D01*
X148347914Y-97404994D01*
X148289419Y-97224966D01*
X148194773Y-97061034D01*
X148068111Y-96920362D01*
X148068110Y-96920361D01*
X147914974Y-96809101D01*
X147914969Y-96809098D01*
X147742047Y-96732107D01*
X147742042Y-96732105D01*
X147596240Y-96701115D01*
X147556886Y-96692750D01*
X147367594Y-96692750D01*
X147335137Y-96699648D01*
X147182437Y-96732105D01*
X147182432Y-96732107D01*
X147009510Y-96809098D01*
X147009505Y-96809101D01*
X146856369Y-96920361D01*
X146729706Y-97061035D01*
X146635061Y-97224965D01*
X146635058Y-97224972D01*
X146576567Y-97404990D01*
X146576566Y-97404994D01*
X146556780Y-97593250D01*
X135667700Y-97593250D01*
X135647914Y-97404994D01*
X135589419Y-97224966D01*
X135494773Y-97061034D01*
X135476933Y-97041221D01*
X135446704Y-96978231D01*
X135455329Y-96908896D01*
X135476934Y-96875278D01*
X135494773Y-96855466D01*
X135589419Y-96691534D01*
X135647914Y-96511506D01*
X135667700Y-96323250D01*
X135647914Y-96134994D01*
X135589419Y-95954966D01*
X135494773Y-95791034D01*
X135476933Y-95771221D01*
X135446704Y-95708231D01*
X135455329Y-95638896D01*
X135476934Y-95605278D01*
X135494773Y-95585466D01*
X135589419Y-95421534D01*
X135647914Y-95241506D01*
X135667700Y-95053250D01*
X135657596Y-94957117D01*
X135670166Y-94888390D01*
X135717898Y-94837366D01*
X135785638Y-94820248D01*
X135832428Y-94831363D01*
X135946781Y-94883588D01*
X135989553Y-94896147D01*
X136013815Y-94903272D01*
X136013820Y-94903273D01*
X136013824Y-94903274D01*
X136156240Y-94923750D01*
X136156243Y-94923750D01*
X161943230Y-94923750D01*
X161943240Y-94923750D01*
X162050696Y-94912197D01*
X162102207Y-94900991D01*
X162136437Y-94889597D01*
X162204737Y-94866866D01*
X162204741Y-94866863D01*
X162204744Y-94866863D01*
X162325783Y-94789075D01*
X162378587Y-94743320D01*
X162472807Y-94634586D01*
X162532578Y-94503709D01*
X162552263Y-94436670D01*
X162552264Y-94436666D01*
X162572740Y-94294250D01*
X162572740Y-94270048D01*
X162581608Y-94230045D01*
X162579782Y-94229440D01*
X162592153Y-94192106D01*
X162637239Y-94056047D01*
X162647740Y-93953259D01*
X162647739Y-93028242D01*
X162637239Y-92925453D01*
X162582054Y-92758916D01*
X162489952Y-92609594D01*
X162365896Y-92485538D01*
X162216574Y-92393436D01*
X162050037Y-92338251D01*
X162050035Y-92338250D01*
X161947250Y-92327750D01*
X159647238Y-92327750D01*
X159647221Y-92327751D01*
X159544443Y-92338250D01*
X159544440Y-92338251D01*
X159377908Y-92393435D01*
X159377903Y-92393437D01*
X159228582Y-92485539D01*
X159107691Y-92606431D01*
X159046368Y-92639916D01*
X159020010Y-92642750D01*
X158764470Y-92642750D01*
X158697431Y-92623065D01*
X158676789Y-92606431D01*
X158555897Y-92485539D01*
X158555896Y-92485538D01*
X158406574Y-92393436D01*
X158240037Y-92338251D01*
X158240035Y-92338250D01*
X158137250Y-92327750D01*
X155837238Y-92327750D01*
X155837221Y-92327751D01*
X155734443Y-92338250D01*
X155734440Y-92338251D01*
X155567908Y-92393435D01*
X155567903Y-92393437D01*
X155418582Y-92485539D01*
X155297691Y-92606431D01*
X155236368Y-92639916D01*
X155210010Y-92642750D01*
X154954470Y-92642750D01*
X154887431Y-92623065D01*
X154866789Y-92606431D01*
X154745897Y-92485539D01*
X154745896Y-92485538D01*
X154596574Y-92393436D01*
X154430037Y-92338251D01*
X154430035Y-92338250D01*
X154327250Y-92327750D01*
X152027238Y-92327750D01*
X152027221Y-92327751D01*
X151924443Y-92338250D01*
X151924440Y-92338251D01*
X151757908Y-92393435D01*
X151757906Y-92393435D01*
X151757906Y-92393436D01*
X151757902Y-92393437D01*
X151757901Y-92393439D01*
X151718868Y-92417514D01*
X151651475Y-92435953D01*
X151584812Y-92415029D01*
X151540043Y-92361386D01*
X151531383Y-92292056D01*
X151561581Y-92229049D01*
X151566055Y-92224330D01*
X151675735Y-92114651D01*
X151811275Y-91921080D01*
X151911143Y-91706913D01*
X151972303Y-91478658D01*
X151992899Y-91243250D01*
X151972303Y-91007842D01*
X151911143Y-90779587D01*
X151811275Y-90565421D01*
X151781426Y-90522791D01*
X151675734Y-90371847D01*
X151508642Y-90204756D01*
X151508636Y-90204751D01*
X151323082Y-90074825D01*
X151279457Y-90020248D01*
X151272263Y-89950750D01*
X151303786Y-89888395D01*
X151323082Y-89871675D01*
X151379462Y-89832197D01*
X151508641Y-89741745D01*
X151675735Y-89574651D01*
X151811275Y-89381080D01*
X151911143Y-89166913D01*
X151972303Y-88938658D01*
X151992899Y-88703250D01*
X151972303Y-88467842D01*
X151911143Y-88239587D01*
X151811275Y-88025421D01*
X151675735Y-87831849D01*
X151675734Y-87831847D01*
X151508642Y-87664756D01*
X151508635Y-87664751D01*
X151315074Y-87529217D01*
X151315070Y-87529215D01*
X151292969Y-87518909D01*
X151100903Y-87429347D01*
X151100899Y-87429346D01*
X151100895Y-87429344D01*
X150872653Y-87368188D01*
X150872643Y-87368186D01*
X150637241Y-87347591D01*
X150637239Y-87347591D01*
X150401836Y-87368186D01*
X150401826Y-87368188D01*
X150173584Y-87429344D01*
X150173575Y-87429348D01*
X149959411Y-87529214D01*
X149959409Y-87529215D01*
X149765837Y-87664755D01*
X149598745Y-87831847D01*
X149463205Y-88025419D01*
X149463204Y-88025421D01*
X149363338Y-88239585D01*
X149363334Y-88239594D01*
X149302178Y-88467836D01*
X149302176Y-88467846D01*
X149281581Y-88703249D01*
X149281581Y-88703250D01*
X149302176Y-88938653D01*
X149302178Y-88938663D01*
X149363334Y-89166905D01*
X149363336Y-89166909D01*
X149363337Y-89166913D01*
X149451821Y-89356666D01*
X149463205Y-89381080D01*
X149463207Y-89381084D01*
X149598741Y-89574645D01*
X149598746Y-89574652D01*
X149765837Y-89741743D01*
X149765843Y-89741748D01*
X149951398Y-89871675D01*
X149995023Y-89926252D01*
X150002217Y-89995750D01*
X149970694Y-90058105D01*
X149951398Y-90074825D01*
X149765837Y-90204755D01*
X149598748Y-90371844D01*
X149468814Y-90557410D01*
X149414237Y-90601034D01*
X149344738Y-90608227D01*
X149282384Y-90576705D01*
X149265669Y-90557414D01*
X149135735Y-90371849D01*
X149135733Y-90371846D01*
X148968642Y-90204756D01*
X148968635Y-90204751D01*
X148775074Y-90069217D01*
X148775070Y-90069215D01*
X148775068Y-90069214D01*
X148560903Y-89969347D01*
X148560899Y-89969346D01*
X148560895Y-89969344D01*
X148332653Y-89908188D01*
X148332643Y-89908186D01*
X148097241Y-89887591D01*
X148097239Y-89887591D01*
X147861836Y-89908186D01*
X147861826Y-89908188D01*
X147633584Y-89969344D01*
X147633575Y-89969348D01*
X147419411Y-90069214D01*
X147419409Y-90069215D01*
X147225837Y-90204755D01*
X147058745Y-90371847D01*
X146923205Y-90565419D01*
X146923204Y-90565421D01*
X146823338Y-90779585D01*
X146823334Y-90779594D01*
X146762178Y-91007836D01*
X146762176Y-91007846D01*
X146741581Y-91243249D01*
X146741581Y-91243250D01*
X146762176Y-91478653D01*
X146762178Y-91478663D01*
X146823334Y-91706905D01*
X146823336Y-91706909D01*
X146823337Y-91706913D01*
X146827240Y-91715282D01*
X146923205Y-91921080D01*
X146923207Y-91921084D01*
X146997652Y-92027401D01*
X147058741Y-92114646D01*
X147058746Y-92114652D01*
X147168387Y-92224293D01*
X147201872Y-92285616D01*
X147196888Y-92355308D01*
X147155016Y-92411241D01*
X147089552Y-92435658D01*
X147021279Y-92420806D01*
X147015610Y-92417513D01*
X146976580Y-92393439D01*
X146976575Y-92393437D01*
X146976574Y-92393436D01*
X146810037Y-92338251D01*
X146810035Y-92338250D01*
X146707250Y-92327750D01*
X144407238Y-92327750D01*
X144407221Y-92327751D01*
X144304443Y-92338250D01*
X144304440Y-92338251D01*
X144137908Y-92393435D01*
X144137903Y-92393437D01*
X143988582Y-92485539D01*
X143867691Y-92606431D01*
X143806368Y-92639916D01*
X143780010Y-92642750D01*
X143524470Y-92642750D01*
X143457431Y-92623065D01*
X143436789Y-92606431D01*
X143315897Y-92485539D01*
X143315896Y-92485538D01*
X143166574Y-92393436D01*
X143000037Y-92338251D01*
X143000035Y-92338250D01*
X142897250Y-92327750D01*
X140597238Y-92327750D01*
X140597221Y-92327751D01*
X140494443Y-92338250D01*
X140494440Y-92338251D01*
X140327908Y-92393435D01*
X140327903Y-92393437D01*
X140178582Y-92485539D01*
X140057691Y-92606431D01*
X139996368Y-92639916D01*
X139970010Y-92642750D01*
X139714470Y-92642750D01*
X139647431Y-92623065D01*
X139626789Y-92606431D01*
X139505897Y-92485539D01*
X139505896Y-92485538D01*
X139356574Y-92393436D01*
X139190037Y-92338251D01*
X139190035Y-92338250D01*
X139087256Y-92327750D01*
X139087249Y-92327750D01*
X137931740Y-92327750D01*
X137864701Y-92308065D01*
X137818946Y-92255261D01*
X137807740Y-92203750D01*
X137807740Y-90732259D01*
X137807740Y-90732250D01*
X137796187Y-90624794D01*
X137784981Y-90573283D01*
X137779698Y-90557409D01*
X137750856Y-90470752D01*
X137750853Y-90470746D01*
X137673068Y-90349712D01*
X137673065Y-90349707D01*
X137667037Y-90342750D01*
X137627316Y-90296909D01*
X137627312Y-90296906D01*
X137627310Y-90296903D01*
X137518576Y-90202683D01*
X137518572Y-90202681D01*
X137516833Y-90201563D01*
X137515477Y-90199997D01*
X137511873Y-90196875D01*
X137512322Y-90196356D01*
X137471081Y-90148757D01*
X137461140Y-90079598D01*
X137490167Y-90016044D01*
X137548947Y-89978271D01*
X137583877Y-89973250D01*
X139207240Y-89973250D01*
X139207240Y-88238251D01*
X142436740Y-88238251D01*
X142436741Y-88238269D01*
X142447240Y-88341046D01*
X142447241Y-88341049D01*
X142489255Y-88467836D01*
X142502426Y-88507584D01*
X142594528Y-88656906D01*
X142718584Y-88780962D01*
X142867906Y-88873064D01*
X143034443Y-88928249D01*
X143137231Y-88938750D01*
X145437248Y-88938749D01*
X145540037Y-88928249D01*
X145706574Y-88873064D01*
X145855896Y-88780962D01*
X145979952Y-88656906D01*
X146072054Y-88507584D01*
X146127239Y-88341047D01*
X146137740Y-88238259D01*
X146137739Y-87313242D01*
X146136769Y-87303750D01*
X146127239Y-87210453D01*
X146127238Y-87210450D01*
X146124353Y-87201743D01*
X146072054Y-87043916D01*
X145979952Y-86894594D01*
X145855896Y-86770538D01*
X145706574Y-86678436D01*
X145540037Y-86623251D01*
X145540035Y-86623250D01*
X145437256Y-86612750D01*
X145437249Y-86612750D01*
X145411740Y-86612750D01*
X145344701Y-86593065D01*
X145298946Y-86540261D01*
X145287740Y-86488750D01*
X145287740Y-86472749D01*
X145307425Y-86405710D01*
X145360229Y-86359955D01*
X145411740Y-86348749D01*
X145437242Y-86348749D01*
X145437248Y-86348749D01*
X145540037Y-86338249D01*
X145706574Y-86283064D01*
X145855896Y-86190962D01*
X145883608Y-86163250D01*
X146741581Y-86163250D01*
X146762176Y-86398653D01*
X146762178Y-86398663D01*
X146823334Y-86626905D01*
X146823336Y-86626909D01*
X146823337Y-86626913D01*
X146855303Y-86695464D01*
X146923205Y-86841080D01*
X146923207Y-86841084D01*
X147027411Y-86989902D01*
X147058745Y-87034651D01*
X147225839Y-87201745D01*
X147314156Y-87263585D01*
X147419405Y-87337282D01*
X147419407Y-87337283D01*
X147419410Y-87337285D01*
X147633577Y-87437153D01*
X147861832Y-87498313D01*
X148050158Y-87514789D01*
X148097239Y-87518909D01*
X148097240Y-87518909D01*
X148097241Y-87518909D01*
X148136474Y-87515476D01*
X148332648Y-87498313D01*
X148560903Y-87437153D01*
X148775070Y-87337285D01*
X148968641Y-87201745D01*
X149135735Y-87034651D01*
X149271275Y-86841080D01*
X149323752Y-86728543D01*
X151402779Y-86728543D01*
X151402780Y-86728547D01*
X151412724Y-86797705D01*
X151412725Y-86797710D01*
X151412726Y-86797713D01*
X151453258Y-86935751D01*
X151453261Y-86935757D01*
X151531043Y-87056787D01*
X151531051Y-87056798D01*
X151576795Y-87109590D01*
X151576798Y-87109593D01*
X151576802Y-87109597D01*
X151685536Y-87203817D01*
X151685539Y-87203818D01*
X151685540Y-87203819D01*
X151718461Y-87218854D01*
X151816413Y-87263588D01*
X151861229Y-87276747D01*
X151883447Y-87283272D01*
X151883452Y-87283273D01*
X151883456Y-87283274D01*
X152025872Y-87303750D01*
X152472740Y-87303750D01*
X152539779Y-87323435D01*
X152585534Y-87376239D01*
X152596740Y-87427750D01*
X152596740Y-88238251D01*
X152596741Y-88238269D01*
X152607240Y-88341046D01*
X152607241Y-88341049D01*
X152664698Y-88514440D01*
X152662871Y-88515045D01*
X152671739Y-88555048D01*
X152671740Y-88579250D01*
X152671741Y-88579259D01*
X152683292Y-88686700D01*
X152683294Y-88686712D01*
X152694500Y-88738222D01*
X152728623Y-88840747D01*
X152728626Y-88840753D01*
X152806411Y-88961787D01*
X152806419Y-88961798D01*
X152852163Y-89014590D01*
X152852166Y-89014593D01*
X152852170Y-89014597D01*
X152960904Y-89108817D01*
X152960907Y-89108818D01*
X152960908Y-89108819D01*
X153088115Y-89166914D01*
X153091781Y-89168588D01*
X153136597Y-89181747D01*
X153158815Y-89188272D01*
X153158820Y-89188273D01*
X153158824Y-89188274D01*
X153301240Y-89208750D01*
X153301243Y-89208750D01*
X155593230Y-89208750D01*
X155593240Y-89208750D01*
X155700696Y-89197197D01*
X155752207Y-89185991D01*
X155786437Y-89174597D01*
X155854737Y-89151866D01*
X155854741Y-89151863D01*
X155854744Y-89151863D01*
X155975783Y-89074075D01*
X156028587Y-89028320D01*
X156122807Y-88919586D01*
X156182578Y-88788709D01*
X156202263Y-88721670D01*
X156202264Y-88721666D01*
X156222740Y-88579250D01*
X156222740Y-88555048D01*
X156231608Y-88515045D01*
X156229782Y-88514440D01*
X156232055Y-88507581D01*
X156287239Y-88341047D01*
X156297740Y-88238259D01*
X156297739Y-87313242D01*
X156296769Y-87303750D01*
X156287239Y-87210453D01*
X156287238Y-87210450D01*
X156284353Y-87201743D01*
X156232054Y-87043916D01*
X156232053Y-87043914D01*
X156229782Y-87037061D01*
X156231604Y-87036457D01*
X156222740Y-86996452D01*
X156222740Y-85965048D01*
X156231608Y-85925045D01*
X156229782Y-85924440D01*
X156232055Y-85917581D01*
X156287239Y-85751047D01*
X156297740Y-85648259D01*
X156297739Y-84723242D01*
X156287239Y-84620453D01*
X156232054Y-84453916D01*
X156232053Y-84453914D01*
X156229782Y-84447061D01*
X156231604Y-84446457D01*
X156222740Y-84406452D01*
X156222740Y-84382260D01*
X156222740Y-84382250D01*
X156211187Y-84274794D01*
X156199981Y-84223283D01*
X156199877Y-84222972D01*
X156165856Y-84120752D01*
X156165853Y-84120746D01*
X156109622Y-84033250D01*
X156088065Y-83999707D01*
X156080977Y-83991527D01*
X156042316Y-83946909D01*
X156042312Y-83946906D01*
X156042310Y-83946903D01*
X155933576Y-83852683D01*
X155933573Y-83852681D01*
X155933571Y-83852680D01*
X155802705Y-83792914D01*
X155802700Y-83792912D01*
X155802699Y-83792912D01*
X155780098Y-83786275D01*
X155735665Y-83773228D01*
X155735659Y-83773226D01*
X155650206Y-83760940D01*
X155593240Y-83752750D01*
X153301240Y-83752750D01*
X153301231Y-83752750D01*
X153301230Y-83752751D01*
X153193789Y-83764302D01*
X153193777Y-83764304D01*
X153142267Y-83775510D01*
X153039742Y-83809633D01*
X153039736Y-83809636D01*
X152918702Y-83887421D01*
X152918691Y-83887429D01*
X152865899Y-83933173D01*
X152771673Y-84041914D01*
X152771670Y-84041918D01*
X152711904Y-84172784D01*
X152692218Y-84239825D01*
X152692216Y-84239830D01*
X152682905Y-84304592D01*
X152671742Y-84382240D01*
X152671740Y-84382251D01*
X152671740Y-84406452D01*
X152662875Y-84446457D01*
X152664698Y-84447061D01*
X152662427Y-84453914D01*
X152662426Y-84453916D01*
X152607241Y-84620453D01*
X152607241Y-84620454D01*
X152607240Y-84620454D01*
X152596740Y-84723233D01*
X152596740Y-84898750D01*
X152577055Y-84965789D01*
X152524251Y-85011544D01*
X152472740Y-85022750D01*
X152035496Y-85022750D01*
X152008657Y-85026498D01*
X151897001Y-85042092D01*
X151831649Y-85060709D01*
X151703760Y-85117252D01*
X151593525Y-85209697D01*
X151593515Y-85209706D01*
X151546914Y-85261764D01*
X151546913Y-85261764D01*
X151467183Y-85381526D01*
X151424420Y-85518908D01*
X151413362Y-85587891D01*
X151413358Y-85587917D01*
X151413358Y-85587919D01*
X151411039Y-85731777D01*
X151420493Y-85806015D01*
X151423219Y-85822860D01*
X151428129Y-85847823D01*
X151431991Y-85864471D01*
X151469773Y-86005482D01*
X151473526Y-86026766D01*
X151484522Y-86152441D01*
X151484522Y-86174057D01*
X151473526Y-86299732D01*
X151469773Y-86321016D01*
X151442921Y-86421234D01*
X151427157Y-86480068D01*
X151422233Y-86496130D01*
X151422231Y-86496139D01*
X151412846Y-86533526D01*
X151408464Y-86555789D01*
X151402779Y-86584666D01*
X151402779Y-86728543D01*
X149323752Y-86728543D01*
X149371143Y-86626913D01*
X149432303Y-86398658D01*
X149452899Y-86163250D01*
X149432303Y-85927842D01*
X149384932Y-85751049D01*
X149371145Y-85699594D01*
X149371144Y-85699593D01*
X149371143Y-85699587D01*
X149271275Y-85485421D01*
X149266707Y-85478896D01*
X149135734Y-85291847D01*
X148968642Y-85124756D01*
X148968636Y-85124751D01*
X148783082Y-84994825D01*
X148739457Y-84940248D01*
X148732263Y-84870750D01*
X148763786Y-84808395D01*
X148783082Y-84791675D01*
X148805266Y-84776141D01*
X148968641Y-84661745D01*
X149135735Y-84494651D01*
X149265664Y-84309092D01*
X149320242Y-84265467D01*
X149389740Y-84258273D01*
X149452095Y-84289796D01*
X149468815Y-84309092D01*
X149598740Y-84494645D01*
X149598745Y-84494651D01*
X149765839Y-84661745D01*
X149827599Y-84704990D01*
X149959405Y-84797282D01*
X149959407Y-84797283D01*
X149959410Y-84797285D01*
X150173577Y-84897153D01*
X150401832Y-84958313D01*
X150590158Y-84974789D01*
X150637239Y-84978909D01*
X150637240Y-84978909D01*
X150637241Y-84978909D01*
X150676474Y-84975476D01*
X150872648Y-84958313D01*
X151100903Y-84897153D01*
X151315070Y-84797285D01*
X151508641Y-84661745D01*
X151675735Y-84494651D01*
X151811275Y-84301080D01*
X151911143Y-84086913D01*
X151972303Y-83858658D01*
X151992899Y-83623250D01*
X151972303Y-83387842D01*
X151911143Y-83159587D01*
X151811275Y-82945421D01*
X151806707Y-82938896D01*
X151675734Y-82751847D01*
X151508642Y-82584756D01*
X151508636Y-82584751D01*
X151323082Y-82454825D01*
X151279457Y-82400248D01*
X151272263Y-82330750D01*
X151303786Y-82268395D01*
X151323082Y-82251675D01*
X151446875Y-82164994D01*
X151508641Y-82121745D01*
X151675735Y-81954651D01*
X151811275Y-81761080D01*
X151911143Y-81546913D01*
X151972303Y-81318658D01*
X151992899Y-81083250D01*
X151990883Y-81060213D01*
X151983637Y-80977384D01*
X151972303Y-80847842D01*
X151911143Y-80619587D01*
X151811275Y-80405421D01*
X151806707Y-80398896D01*
X151675734Y-80211847D01*
X151508642Y-80044756D01*
X151508635Y-80044751D01*
X151315074Y-79909217D01*
X151315070Y-79909215D01*
X151315069Y-79909214D01*
X151100903Y-79809347D01*
X151100899Y-79809346D01*
X151100895Y-79809344D01*
X150872653Y-79748188D01*
X150872643Y-79748186D01*
X150637241Y-79727591D01*
X150637239Y-79727591D01*
X150401836Y-79748186D01*
X150401826Y-79748188D01*
X150173584Y-79809344D01*
X150173575Y-79809348D01*
X149959411Y-79909214D01*
X149959409Y-79909215D01*
X149765837Y-80044755D01*
X149598748Y-80211844D01*
X149468814Y-80397410D01*
X149414237Y-80441034D01*
X149344738Y-80448227D01*
X149282384Y-80416705D01*
X149265669Y-80397414D01*
X149135735Y-80211849D01*
X149135733Y-80211846D01*
X148968642Y-80044756D01*
X148968635Y-80044751D01*
X148775074Y-79909217D01*
X148775070Y-79909215D01*
X148775070Y-79909214D01*
X148560903Y-79809347D01*
X148560899Y-79809346D01*
X148560895Y-79809344D01*
X148332653Y-79748188D01*
X148332643Y-79748186D01*
X148097241Y-79727591D01*
X148097239Y-79727591D01*
X147861836Y-79748186D01*
X147861826Y-79748188D01*
X147633584Y-79809344D01*
X147633575Y-79809348D01*
X147419411Y-79909214D01*
X147419409Y-79909215D01*
X147225837Y-80044755D01*
X147058745Y-80211847D01*
X146923205Y-80405419D01*
X146923204Y-80405421D01*
X146823338Y-80619585D01*
X146823334Y-80619594D01*
X146762178Y-80847836D01*
X146762176Y-80847846D01*
X146741581Y-81083249D01*
X146741581Y-81083250D01*
X146762176Y-81318653D01*
X146762178Y-81318663D01*
X146823334Y-81546905D01*
X146823336Y-81546909D01*
X146823337Y-81546913D01*
X146880219Y-81668896D01*
X146923205Y-81761080D01*
X146923207Y-81761084D01*
X146979855Y-81841985D01*
X147058741Y-81954646D01*
X147058746Y-81954652D01*
X147225837Y-82121743D01*
X147225843Y-82121748D01*
X147411398Y-82251675D01*
X147455023Y-82306252D01*
X147462217Y-82375750D01*
X147430694Y-82438105D01*
X147411398Y-82454825D01*
X147225837Y-82584755D01*
X147058745Y-82751847D01*
X146923205Y-82945419D01*
X146923204Y-82945421D01*
X146823338Y-83159585D01*
X146823334Y-83159594D01*
X146762178Y-83387836D01*
X146762176Y-83387846D01*
X146741581Y-83623249D01*
X146741581Y-83623250D01*
X146762176Y-83858653D01*
X146762178Y-83858663D01*
X146823334Y-84086905D01*
X146823336Y-84086909D01*
X146823337Y-84086913D01*
X146903233Y-84258249D01*
X146923205Y-84301080D01*
X146923207Y-84301084D01*
X146980048Y-84382260D01*
X147058741Y-84494646D01*
X147058746Y-84494652D01*
X147225837Y-84661743D01*
X147225843Y-84661748D01*
X147411398Y-84791675D01*
X147455023Y-84846252D01*
X147462217Y-84915750D01*
X147430694Y-84978105D01*
X147411398Y-84994825D01*
X147225837Y-85124755D01*
X147058745Y-85291847D01*
X146923205Y-85485419D01*
X146923204Y-85485421D01*
X146823338Y-85699585D01*
X146823334Y-85699594D01*
X146762178Y-85927836D01*
X146762176Y-85927846D01*
X146741581Y-86163249D01*
X146741581Y-86163250D01*
X145883608Y-86163250D01*
X145979952Y-86066906D01*
X146072054Y-85917584D01*
X146127239Y-85751047D01*
X146137740Y-85648259D01*
X146137739Y-84723242D01*
X146127239Y-84620453D01*
X146072054Y-84453916D01*
X145979952Y-84304594D01*
X145855896Y-84180538D01*
X145745259Y-84112297D01*
X145706576Y-84088437D01*
X145706571Y-84088435D01*
X145701954Y-84086905D01*
X145540037Y-84033251D01*
X145540035Y-84033250D01*
X145437250Y-84022750D01*
X143137238Y-84022750D01*
X143137221Y-84022751D01*
X143034443Y-84033250D01*
X143034440Y-84033251D01*
X142867908Y-84088435D01*
X142867903Y-84088437D01*
X142718582Y-84180539D01*
X142594529Y-84304592D01*
X142502427Y-84453913D01*
X142502425Y-84453916D01*
X142502426Y-84453916D01*
X142447241Y-84620453D01*
X142447241Y-84620454D01*
X142447240Y-84620454D01*
X142436740Y-84723233D01*
X142436740Y-85648251D01*
X142436741Y-85648269D01*
X142447240Y-85751046D01*
X142447241Y-85751049D01*
X142502425Y-85917581D01*
X142502427Y-85917586D01*
X142511740Y-85932684D01*
X142594528Y-86066906D01*
X142718584Y-86190962D01*
X142867906Y-86283064D01*
X143034443Y-86338249D01*
X143137231Y-86348750D01*
X143162738Y-86348749D01*
X143229776Y-86368431D01*
X143275533Y-86421234D01*
X143286740Y-86472749D01*
X143286740Y-86488750D01*
X143267055Y-86555789D01*
X143214251Y-86601544D01*
X143162744Y-86612750D01*
X143137240Y-86612750D01*
X143137220Y-86612751D01*
X143034443Y-86623250D01*
X143034440Y-86623251D01*
X142867908Y-86678435D01*
X142867903Y-86678437D01*
X142718582Y-86770539D01*
X142594529Y-86894592D01*
X142502427Y-87043913D01*
X142502425Y-87043918D01*
X142480664Y-87109590D01*
X142447241Y-87210453D01*
X142447241Y-87210454D01*
X142447240Y-87210454D01*
X142436740Y-87313233D01*
X142436740Y-88238251D01*
X139207240Y-88238251D01*
X139207240Y-87056941D01*
X139226925Y-86989902D01*
X139279729Y-86944147D01*
X139348887Y-86934203D01*
X139383014Y-86946015D01*
X139383574Y-86944758D01*
X139562432Y-87024392D01*
X139562437Y-87024394D01*
X139747594Y-87063750D01*
X139747595Y-87063750D01*
X139936884Y-87063750D01*
X139936886Y-87063750D01*
X140122043Y-87024394D01*
X140294970Y-86947401D01*
X140448111Y-86836138D01*
X140574773Y-86695466D01*
X140669419Y-86531534D01*
X140727914Y-86351506D01*
X140747700Y-86163250D01*
X140727914Y-85974994D01*
X140669419Y-85794966D01*
X140574773Y-85631034D01*
X140556933Y-85611221D01*
X140526704Y-85548231D01*
X140535329Y-85478896D01*
X140556934Y-85445278D01*
X140556935Y-85445277D01*
X140574773Y-85425466D01*
X140669419Y-85261534D01*
X140727914Y-85081506D01*
X140747700Y-84893250D01*
X140727914Y-84704994D01*
X140669419Y-84524966D01*
X140574773Y-84361034D01*
X140556933Y-84341221D01*
X140526704Y-84278231D01*
X140535329Y-84208896D01*
X140556934Y-84175278D01*
X140559173Y-84172791D01*
X140574773Y-84155466D01*
X140669419Y-83991534D01*
X140727914Y-83811506D01*
X140747700Y-83623250D01*
X140727914Y-83434994D01*
X140669419Y-83254966D01*
X140574773Y-83091034D01*
X140556933Y-83071221D01*
X140526704Y-83008231D01*
X140535329Y-82938896D01*
X140556934Y-82905278D01*
X140574773Y-82885466D01*
X140669419Y-82721534D01*
X140727914Y-82541506D01*
X140747700Y-82353250D01*
X140727914Y-82164994D01*
X140669419Y-81984966D01*
X140574773Y-81821034D01*
X140556933Y-81801221D01*
X140526704Y-81738231D01*
X140535329Y-81668896D01*
X140556934Y-81635278D01*
X140574773Y-81615466D01*
X140669419Y-81451534D01*
X140727914Y-81271506D01*
X140747700Y-81083250D01*
X140727914Y-80894994D01*
X140669419Y-80714966D01*
X140574773Y-80551034D01*
X140556933Y-80531221D01*
X140526704Y-80468231D01*
X140535329Y-80398896D01*
X140556934Y-80365278D01*
X140574773Y-80345466D01*
X140669419Y-80181534D01*
X140727914Y-80001506D01*
X140747700Y-79813250D01*
X140727914Y-79624994D01*
X140669419Y-79444966D01*
X140574773Y-79281034D01*
X140556933Y-79261221D01*
X140526704Y-79198231D01*
X140535329Y-79128896D01*
X140556934Y-79095278D01*
X140574773Y-79075466D01*
X140669419Y-78911534D01*
X140727914Y-78731506D01*
X140747700Y-78543250D01*
X140727914Y-78354994D01*
X140669419Y-78174966D01*
X140574773Y-78011034D01*
X140556933Y-77991221D01*
X140526704Y-77928231D01*
X140535329Y-77858896D01*
X140556934Y-77825278D01*
X140556935Y-77825277D01*
X140574773Y-77805466D01*
X140669419Y-77641534D01*
X140727914Y-77461506D01*
X140747700Y-77273250D01*
X140727914Y-77084994D01*
X140669419Y-76904966D01*
X140574773Y-76741034D01*
X140448111Y-76600362D01*
X140448110Y-76600361D01*
X140294974Y-76489101D01*
X140294969Y-76489098D01*
X140122047Y-76412107D01*
X140122042Y-76412105D01*
X139968915Y-76379558D01*
X139936886Y-76372750D01*
X139747594Y-76372750D01*
X139715565Y-76379558D01*
X139562437Y-76412105D01*
X139562432Y-76412107D01*
X139383574Y-76491742D01*
X139382591Y-76489536D01*
X139325300Y-76503416D01*
X139259281Y-76480542D01*
X139216108Y-76425607D01*
X139207240Y-76379558D01*
X139207240Y-76003250D01*
X142746780Y-76003250D01*
X142766566Y-76191506D01*
X142766567Y-76191509D01*
X142825058Y-76371527D01*
X142825061Y-76371534D01*
X142919707Y-76535466D01*
X142969694Y-76590982D01*
X143046369Y-76676138D01*
X143199505Y-76787398D01*
X143199510Y-76787401D01*
X143372432Y-76864392D01*
X143372437Y-76864394D01*
X143557594Y-76903750D01*
X143557595Y-76903750D01*
X143746884Y-76903750D01*
X143746886Y-76903750D01*
X143911234Y-76868817D01*
X143980901Y-76874133D01*
X144036635Y-76916270D01*
X144060740Y-76981850D01*
X144054946Y-77028424D01*
X144036567Y-77084989D01*
X144036567Y-77084990D01*
X144036566Y-77084994D01*
X144016780Y-77273250D01*
X144036566Y-77461506D01*
X144036567Y-77461509D01*
X144095058Y-77641527D01*
X144095061Y-77641534D01*
X144189707Y-77805466D01*
X144316369Y-77946137D01*
X144316369Y-77946138D01*
X144469505Y-78057398D01*
X144469510Y-78057401D01*
X144642432Y-78134392D01*
X144642437Y-78134394D01*
X144827594Y-78173750D01*
X144827595Y-78173750D01*
X145016884Y-78173750D01*
X145016886Y-78173750D01*
X145202043Y-78134394D01*
X145374970Y-78057401D01*
X145528111Y-77946138D01*
X145654773Y-77805466D01*
X145749419Y-77641534D01*
X145807914Y-77461506D01*
X145827700Y-77273250D01*
X145807914Y-77084994D01*
X145749419Y-76904966D01*
X145654773Y-76741034D01*
X145528111Y-76600362D01*
X145528110Y-76600361D01*
X145374974Y-76489101D01*
X145374969Y-76489098D01*
X145202047Y-76412107D01*
X145202042Y-76412105D01*
X145048915Y-76379558D01*
X145016886Y-76372750D01*
X144827594Y-76372750D01*
X144713388Y-76397024D01*
X144663244Y-76407683D01*
X144593577Y-76402366D01*
X144537844Y-76360228D01*
X144513739Y-76294648D01*
X144519534Y-76248072D01*
X144537914Y-76191506D01*
X144557700Y-76003250D01*
X146741581Y-76003250D01*
X146762176Y-76238653D01*
X146762178Y-76238663D01*
X146823334Y-76466905D01*
X146823336Y-76466909D01*
X146823337Y-76466913D01*
X146902324Y-76636301D01*
X146923205Y-76681080D01*
X146923207Y-76681084D01*
X146997652Y-76787401D01*
X147058745Y-76874651D01*
X147225839Y-77041745D01*
X147287598Y-77084989D01*
X147419405Y-77177282D01*
X147419407Y-77177283D01*
X147419410Y-77177285D01*
X147633577Y-77277153D01*
X147861832Y-77338313D01*
X148050158Y-77354789D01*
X148097239Y-77358909D01*
X148097240Y-77358909D01*
X148097241Y-77358909D01*
X148136474Y-77355476D01*
X148332648Y-77338313D01*
X148560903Y-77277153D01*
X148775070Y-77177285D01*
X148968641Y-77041745D01*
X149135735Y-76874651D01*
X149250131Y-76711276D01*
X149265665Y-76689092D01*
X149320242Y-76645467D01*
X149389740Y-76638273D01*
X149452095Y-76669796D01*
X149468815Y-76689092D01*
X149598740Y-76874645D01*
X149598745Y-76874651D01*
X149765839Y-77041745D01*
X149827598Y-77084989D01*
X149959405Y-77177282D01*
X149959407Y-77177283D01*
X149959410Y-77177285D01*
X150173577Y-77277153D01*
X150401832Y-77338313D01*
X150590158Y-77354789D01*
X150637239Y-77358909D01*
X150637240Y-77358909D01*
X150637241Y-77358909D01*
X150676474Y-77355476D01*
X150872648Y-77338313D01*
X151100903Y-77277153D01*
X151315070Y-77177285D01*
X151508641Y-77041745D01*
X151675735Y-76874651D01*
X151811275Y-76681080D01*
X151911143Y-76466913D01*
X151972303Y-76238658D01*
X151992899Y-76003250D01*
X151972303Y-75767842D01*
X151911143Y-75539587D01*
X151811275Y-75325421D01*
X151795995Y-75303598D01*
X151675734Y-75131847D01*
X151508642Y-74964756D01*
X151508636Y-74964751D01*
X151323082Y-74834825D01*
X151279457Y-74780248D01*
X151272263Y-74710750D01*
X151303786Y-74648395D01*
X151323082Y-74631675D01*
X151392417Y-74583126D01*
X151508641Y-74501745D01*
X151675735Y-74334651D01*
X151811275Y-74141080D01*
X151911143Y-73926913D01*
X151972303Y-73698658D01*
X151992899Y-73463250D01*
X151972303Y-73227842D01*
X151911143Y-72999587D01*
X151811275Y-72785421D01*
X151769295Y-72725466D01*
X151675734Y-72591847D01*
X151508642Y-72424756D01*
X151508636Y-72424751D01*
X151323082Y-72294825D01*
X151279457Y-72240248D01*
X151272263Y-72170750D01*
X151303786Y-72108395D01*
X151323082Y-72091675D01*
X151446875Y-72004994D01*
X151508641Y-71961745D01*
X151675735Y-71794651D01*
X151811275Y-71601080D01*
X151911143Y-71386913D01*
X151972303Y-71158658D01*
X151992899Y-70923250D01*
X151972303Y-70687842D01*
X151911143Y-70459587D01*
X151811275Y-70245421D01*
X151769294Y-70185466D01*
X151675736Y-70051850D01*
X151645420Y-70021534D01*
X151553807Y-69929921D01*
X151520324Y-69868601D01*
X151525308Y-69798909D01*
X151567179Y-69742975D01*
X151598155Y-69726060D01*
X151729571Y-69677046D01*
X151844786Y-69590796D01*
X151931036Y-69475581D01*
X151981331Y-69340733D01*
X151987740Y-69281123D01*
X151987740Y-69018250D01*
X152906780Y-69018250D01*
X152926566Y-69206506D01*
X152926567Y-69206509D01*
X152985058Y-69386527D01*
X152985061Y-69386534D01*
X153079707Y-69550466D01*
X153193681Y-69677047D01*
X153206369Y-69691138D01*
X153359505Y-69802398D01*
X153359510Y-69802401D01*
X153532432Y-69879392D01*
X153532437Y-69879394D01*
X153717594Y-69918750D01*
X153717595Y-69918750D01*
X153906884Y-69918750D01*
X153906886Y-69918750D01*
X154092043Y-69879394D01*
X154264970Y-69802401D01*
X154374357Y-69722926D01*
X154440160Y-69699448D01*
X154508214Y-69715273D01*
X154520111Y-69722918D01*
X154624704Y-69798909D01*
X154629510Y-69802401D01*
X154802432Y-69879392D01*
X154802437Y-69879394D01*
X154987594Y-69918750D01*
X154987595Y-69918750D01*
X155176884Y-69918750D01*
X155176886Y-69918750D01*
X155362043Y-69879394D01*
X155534970Y-69802401D01*
X155688111Y-69691138D01*
X155814773Y-69550466D01*
X155909419Y-69386534D01*
X155967914Y-69206506D01*
X155987700Y-69018250D01*
X155967914Y-68829994D01*
X155943477Y-68754788D01*
X155941483Y-68684948D01*
X155977563Y-68625115D01*
X156010973Y-68603192D01*
X156042756Y-68589041D01*
X156169970Y-68532401D01*
X156323111Y-68421138D01*
X156449773Y-68280466D01*
X156544419Y-68116534D01*
X156602914Y-67936506D01*
X156622700Y-67748250D01*
X156602914Y-67559994D01*
X156544419Y-67379966D01*
X156449773Y-67216034D01*
X156323111Y-67075362D01*
X156320949Y-67073791D01*
X156169974Y-66964101D01*
X156169972Y-66964100D01*
X156010972Y-66893307D01*
X155957736Y-66848056D01*
X155937415Y-66781207D01*
X155943477Y-66741714D01*
X155967914Y-66666506D01*
X155987700Y-66478250D01*
X155967914Y-66289994D01*
X155943477Y-66214788D01*
X155941483Y-66144948D01*
X155977563Y-66085115D01*
X156010973Y-66063192D01*
X156042756Y-66049041D01*
X156169970Y-65992401D01*
X156323111Y-65881138D01*
X156449773Y-65740466D01*
X156544419Y-65576534D01*
X156602914Y-65396506D01*
X156622700Y-65208250D01*
X156602914Y-65019994D01*
X156544419Y-64839966D01*
X156449773Y-64676034D01*
X156323111Y-64535362D01*
X156311672Y-64527051D01*
X156169974Y-64424101D01*
X156169969Y-64424098D01*
X155997047Y-64347107D01*
X155997042Y-64347105D01*
X155851240Y-64316115D01*
X155811886Y-64307750D01*
X155622594Y-64307750D01*
X155590137Y-64314648D01*
X155437437Y-64347105D01*
X155437432Y-64347107D01*
X155264510Y-64424098D01*
X155264505Y-64424101D01*
X155155125Y-64503571D01*
X155089319Y-64527051D01*
X155021265Y-64511225D01*
X155009355Y-64503571D01*
X154899974Y-64424101D01*
X154899969Y-64424098D01*
X154727047Y-64347107D01*
X154727042Y-64347105D01*
X154581240Y-64316115D01*
X154541886Y-64307750D01*
X154352594Y-64307750D01*
X154320137Y-64314648D01*
X154167437Y-64347105D01*
X154167432Y-64347107D01*
X153994510Y-64424098D01*
X153994505Y-64424101D01*
X153841369Y-64535361D01*
X153714706Y-64676035D01*
X153620061Y-64839965D01*
X153620058Y-64839972D01*
X153561567Y-65019990D01*
X153561566Y-65019994D01*
X153557456Y-65059099D01*
X153543740Y-65189606D01*
X153541780Y-65208250D01*
X153561566Y-65396506D01*
X153561567Y-65396509D01*
X153586001Y-65471710D01*
X153587996Y-65541551D01*
X153551915Y-65601384D01*
X153518507Y-65623307D01*
X153359507Y-65694100D01*
X153359505Y-65694101D01*
X153206369Y-65805361D01*
X153079706Y-65946035D01*
X152985061Y-66109965D01*
X152985058Y-66109972D01*
X152926567Y-66289990D01*
X152926566Y-66289994D01*
X152906780Y-66478250D01*
X152926566Y-66666506D01*
X152926567Y-66666509D01*
X152985058Y-66846527D01*
X152985061Y-66846534D01*
X153079707Y-67010466D01*
X153177240Y-67118787D01*
X153206369Y-67151138D01*
X153359505Y-67262398D01*
X153359510Y-67262401D01*
X153518506Y-67333192D01*
X153571743Y-67378442D01*
X153592064Y-67445292D01*
X153586001Y-67484788D01*
X153561567Y-67559989D01*
X153561567Y-67559990D01*
X153561566Y-67559994D01*
X153541780Y-67748250D01*
X153561566Y-67936506D01*
X153561567Y-67936509D01*
X153586001Y-68011710D01*
X153587996Y-68081551D01*
X153551915Y-68141384D01*
X153518507Y-68163307D01*
X153359507Y-68234100D01*
X153359505Y-68234101D01*
X153206369Y-68345361D01*
X153079706Y-68486035D01*
X152985061Y-68649965D01*
X152985058Y-68649972D01*
X152952059Y-68751534D01*
X152926566Y-68829994D01*
X152906780Y-69018250D01*
X151987740Y-69018250D01*
X151987739Y-67485378D01*
X151981331Y-67425767D01*
X151980050Y-67422333D01*
X151931037Y-67290921D01*
X151931033Y-67290914D01*
X151844787Y-67175705D01*
X151844784Y-67175702D01*
X151729575Y-67089456D01*
X151729568Y-67089452D01*
X151594722Y-67039158D01*
X151594723Y-67039158D01*
X151535123Y-67032751D01*
X151535121Y-67032750D01*
X151535113Y-67032750D01*
X151535104Y-67032750D01*
X149739369Y-67032750D01*
X149739363Y-67032751D01*
X149679756Y-67039158D01*
X149544911Y-67089452D01*
X149544904Y-67089456D01*
X149429695Y-67175702D01*
X149429692Y-67175705D01*
X149343446Y-67290914D01*
X149343443Y-67290919D01*
X149294429Y-67422333D01*
X149252557Y-67478266D01*
X149187093Y-67502683D01*
X149118820Y-67487831D01*
X149090566Y-67466680D01*
X148968642Y-67344756D01*
X148968635Y-67344751D01*
X148960984Y-67339394D01*
X148891758Y-67290921D01*
X148775074Y-67209217D01*
X148775070Y-67209215D01*
X148563114Y-67110378D01*
X148510675Y-67064206D01*
X148491523Y-66997012D01*
X148511739Y-66930131D01*
X148564902Y-66884797D01*
X148676970Y-66834901D01*
X148830111Y-66723638D01*
X148956773Y-66582966D01*
X149051419Y-66419034D01*
X149109914Y-66239006D01*
X149129700Y-66050750D01*
X149109914Y-65862494D01*
X149051419Y-65682466D01*
X148956773Y-65518534D01*
X148830111Y-65377862D01*
X148830110Y-65377861D01*
X148676974Y-65266601D01*
X148676969Y-65266598D01*
X148504047Y-65189607D01*
X148504042Y-65189605D01*
X148358240Y-65158615D01*
X148318886Y-65150250D01*
X148129594Y-65150250D01*
X148097137Y-65157148D01*
X147944437Y-65189605D01*
X147944432Y-65189607D01*
X147771510Y-65266598D01*
X147771505Y-65266601D01*
X147618369Y-65377861D01*
X147491706Y-65518535D01*
X147397061Y-65682465D01*
X147397058Y-65682472D01*
X147338567Y-65862490D01*
X147338566Y-65862494D01*
X147318780Y-66050750D01*
X147338566Y-66239006D01*
X147338567Y-66239009D01*
X147397058Y-66419027D01*
X147397061Y-66419034D01*
X147491707Y-66582966D01*
X147566927Y-66666506D01*
X147618369Y-66723638D01*
X147647724Y-66744966D01*
X147771510Y-66834901D01*
X147784620Y-66840738D01*
X147837855Y-66885989D01*
X147858175Y-66952838D01*
X147839128Y-67020062D01*
X147786761Y-67066316D01*
X147766274Y-67073791D01*
X147633584Y-67109344D01*
X147633575Y-67109348D01*
X147419411Y-67209214D01*
X147419409Y-67209215D01*
X147225837Y-67344755D01*
X147058745Y-67511847D01*
X146923205Y-67705419D01*
X146923204Y-67705421D01*
X146823338Y-67919585D01*
X146823334Y-67919594D01*
X146762178Y-68147836D01*
X146762176Y-68147846D01*
X146741581Y-68383249D01*
X146741581Y-68383250D01*
X146762176Y-68618653D01*
X146762178Y-68618663D01*
X146823334Y-68846905D01*
X146823336Y-68846909D01*
X146823337Y-68846913D01*
X146855304Y-68915466D01*
X146923205Y-69061080D01*
X146923207Y-69061084D01*
X147058741Y-69254645D01*
X147058746Y-69254652D01*
X147225837Y-69421743D01*
X147225843Y-69421748D01*
X147411398Y-69551675D01*
X147455023Y-69606252D01*
X147462217Y-69675750D01*
X147430694Y-69738105D01*
X147411398Y-69754825D01*
X147225837Y-69884755D01*
X147058745Y-70051847D01*
X146923205Y-70245419D01*
X146923204Y-70245421D01*
X146823338Y-70459585D01*
X146823334Y-70459594D01*
X146762178Y-70687836D01*
X146762176Y-70687846D01*
X146741581Y-70923249D01*
X146741581Y-70923250D01*
X146762176Y-71158653D01*
X146762178Y-71158663D01*
X146823334Y-71386905D01*
X146823336Y-71386909D01*
X146823337Y-71386913D01*
X146903233Y-71558249D01*
X146923205Y-71601080D01*
X146923207Y-71601084D01*
X146997652Y-71707401D01*
X147058741Y-71794646D01*
X147058746Y-71794652D01*
X147225837Y-71961743D01*
X147225843Y-71961748D01*
X147411398Y-72091675D01*
X147455023Y-72146252D01*
X147462217Y-72215750D01*
X147430694Y-72278105D01*
X147411398Y-72294825D01*
X147225837Y-72424755D01*
X147058745Y-72591847D01*
X146923205Y-72785419D01*
X146923204Y-72785421D01*
X146823338Y-72999585D01*
X146823334Y-72999594D01*
X146762178Y-73227836D01*
X146762176Y-73227846D01*
X146741581Y-73463249D01*
X146741581Y-73463250D01*
X146762176Y-73698653D01*
X146762178Y-73698663D01*
X146823334Y-73926905D01*
X146823336Y-73926909D01*
X146823337Y-73926913D01*
X146827240Y-73935282D01*
X146923205Y-74141080D01*
X146923207Y-74141084D01*
X147002411Y-74254198D01*
X147058741Y-74334646D01*
X147058746Y-74334652D01*
X147225837Y-74501743D01*
X147225843Y-74501748D01*
X147411398Y-74631675D01*
X147455023Y-74686252D01*
X147462217Y-74755750D01*
X147430694Y-74818105D01*
X147411398Y-74834825D01*
X147225837Y-74964755D01*
X147058745Y-75131847D01*
X146923205Y-75325419D01*
X146923204Y-75325421D01*
X146823338Y-75539585D01*
X146823334Y-75539594D01*
X146762178Y-75767836D01*
X146762176Y-75767846D01*
X146741581Y-76003249D01*
X146741581Y-76003250D01*
X144557700Y-76003250D01*
X144537914Y-75814994D01*
X144479419Y-75634966D01*
X144384773Y-75471034D01*
X144258111Y-75330362D01*
X144258110Y-75330361D01*
X144104974Y-75219101D01*
X144104969Y-75219098D01*
X143932047Y-75142107D01*
X143932042Y-75142105D01*
X143766048Y-75106823D01*
X143746886Y-75102750D01*
X143557594Y-75102750D01*
X143538432Y-75106823D01*
X143372437Y-75142105D01*
X143372432Y-75142107D01*
X143199510Y-75219098D01*
X143199505Y-75219101D01*
X143046369Y-75330361D01*
X142919706Y-75471035D01*
X142825061Y-75634965D01*
X142825058Y-75634972D01*
X142781885Y-75767846D01*
X142766566Y-75814994D01*
X142746780Y-76003250D01*
X139207240Y-76003250D01*
X139207240Y-70923250D01*
X142746780Y-70923250D01*
X142766566Y-71111506D01*
X142766567Y-71111509D01*
X142825058Y-71291527D01*
X142825061Y-71291534D01*
X142919707Y-71455466D01*
X143012275Y-71558273D01*
X143046369Y-71596138D01*
X143199505Y-71707398D01*
X143199510Y-71707401D01*
X143372432Y-71784392D01*
X143372437Y-71784394D01*
X143557594Y-71823750D01*
X143557595Y-71823750D01*
X143746884Y-71823750D01*
X143746886Y-71823750D01*
X143911234Y-71788817D01*
X143980901Y-71794133D01*
X144036635Y-71836270D01*
X144060740Y-71901850D01*
X144054946Y-71948424D01*
X144036567Y-72004989D01*
X144036567Y-72004990D01*
X144036566Y-72004994D01*
X144016780Y-72193250D01*
X144036566Y-72381506D01*
X144036567Y-72381509D01*
X144095058Y-72561527D01*
X144095061Y-72561534D01*
X144189707Y-72725466D01*
X144316369Y-72866137D01*
X144316369Y-72866138D01*
X144469505Y-72977398D01*
X144469510Y-72977401D01*
X144642432Y-73054392D01*
X144642437Y-73054394D01*
X144827594Y-73093750D01*
X144827595Y-73093750D01*
X145016884Y-73093750D01*
X145016886Y-73093750D01*
X145202043Y-73054394D01*
X145374970Y-72977401D01*
X145528111Y-72866138D01*
X145654773Y-72725466D01*
X145749419Y-72561534D01*
X145807914Y-72381506D01*
X145827700Y-72193250D01*
X145807914Y-72004994D01*
X145749419Y-71824966D01*
X145654773Y-71661034D01*
X145528111Y-71520362D01*
X145528110Y-71520361D01*
X145374974Y-71409101D01*
X145374969Y-71409098D01*
X145202047Y-71332107D01*
X145202042Y-71332105D01*
X145056241Y-71301115D01*
X145016886Y-71292750D01*
X144827594Y-71292750D01*
X144713388Y-71317024D01*
X144663244Y-71327683D01*
X144593577Y-71322366D01*
X144537844Y-71280228D01*
X144513739Y-71214648D01*
X144519534Y-71168072D01*
X144537914Y-71111506D01*
X144557700Y-70923250D01*
X144537914Y-70734994D01*
X144479419Y-70554966D01*
X144384773Y-70391034D01*
X144258111Y-70250362D01*
X144258110Y-70250361D01*
X144104974Y-70139101D01*
X144104969Y-70139098D01*
X143932047Y-70062107D01*
X143932042Y-70062105D01*
X143786240Y-70031115D01*
X143746886Y-70022750D01*
X143557594Y-70022750D01*
X143525137Y-70029648D01*
X143372437Y-70062105D01*
X143372432Y-70062107D01*
X143199510Y-70139098D01*
X143199505Y-70139101D01*
X143046369Y-70250361D01*
X142919706Y-70391035D01*
X142825061Y-70554965D01*
X142825058Y-70554972D01*
X142781885Y-70687846D01*
X142766566Y-70734994D01*
X142746780Y-70923250D01*
X139207240Y-70923250D01*
X139207240Y-65208250D01*
X142746780Y-65208250D01*
X142766566Y-65396506D01*
X142766567Y-65396509D01*
X142825058Y-65576527D01*
X142825061Y-65576534D01*
X142919707Y-65740466D01*
X143029578Y-65862490D01*
X143046369Y-65881138D01*
X143199505Y-65992398D01*
X143199510Y-65992401D01*
X143358506Y-66063192D01*
X143411743Y-66108442D01*
X143432064Y-66175292D01*
X143426001Y-66214788D01*
X143401567Y-66289989D01*
X143401567Y-66289990D01*
X143401566Y-66289994D01*
X143381780Y-66478250D01*
X143401566Y-66666506D01*
X143401567Y-66666509D01*
X143460058Y-66846527D01*
X143460061Y-66846534D01*
X143554707Y-67010466D01*
X143652240Y-67118787D01*
X143681369Y-67151138D01*
X143834505Y-67262398D01*
X143834510Y-67262401D01*
X144007432Y-67339392D01*
X144007437Y-67339394D01*
X144192594Y-67378750D01*
X144192595Y-67378750D01*
X144381884Y-67378750D01*
X144381886Y-67378750D01*
X144567043Y-67339394D01*
X144739970Y-67262401D01*
X144849357Y-67182926D01*
X144915160Y-67159448D01*
X144983214Y-67175273D01*
X144995111Y-67182918D01*
X145104506Y-67262398D01*
X145104510Y-67262401D01*
X145277432Y-67339392D01*
X145277437Y-67339394D01*
X145462594Y-67378750D01*
X145462595Y-67378750D01*
X145651884Y-67378750D01*
X145651886Y-67378750D01*
X145837043Y-67339394D01*
X146009970Y-67262401D01*
X146163111Y-67151138D01*
X146289773Y-67010466D01*
X146384419Y-66846534D01*
X146442914Y-66666506D01*
X146462700Y-66478250D01*
X146442914Y-66289994D01*
X146384419Y-66109966D01*
X146289773Y-65946034D01*
X146163111Y-65805362D01*
X146163110Y-65805361D01*
X146009974Y-65694101D01*
X146009972Y-65694100D01*
X145850972Y-65623307D01*
X145797736Y-65578056D01*
X145777415Y-65511207D01*
X145783477Y-65471714D01*
X145807914Y-65396506D01*
X145827700Y-65208250D01*
X145807914Y-65019994D01*
X145749419Y-64839966D01*
X145654773Y-64676034D01*
X145528111Y-64535362D01*
X145516672Y-64527051D01*
X145374974Y-64424101D01*
X145374969Y-64424098D01*
X145202047Y-64347107D01*
X145202042Y-64347105D01*
X145056241Y-64316115D01*
X145016886Y-64307750D01*
X144827594Y-64307750D01*
X144795137Y-64314648D01*
X144642437Y-64347105D01*
X144642432Y-64347107D01*
X144469510Y-64424098D01*
X144469505Y-64424101D01*
X144360125Y-64503571D01*
X144294319Y-64527051D01*
X144226265Y-64511225D01*
X144214355Y-64503571D01*
X144104974Y-64424101D01*
X144104969Y-64424098D01*
X143932047Y-64347107D01*
X143932042Y-64347105D01*
X143786240Y-64316115D01*
X143746886Y-64307750D01*
X143557594Y-64307750D01*
X143525137Y-64314648D01*
X143372437Y-64347105D01*
X143372432Y-64347107D01*
X143199510Y-64424098D01*
X143199505Y-64424101D01*
X143046369Y-64535361D01*
X142919706Y-64676035D01*
X142825061Y-64839965D01*
X142825058Y-64839972D01*
X142766567Y-65019990D01*
X142766566Y-65019994D01*
X142762456Y-65059099D01*
X142748740Y-65189606D01*
X142746780Y-65208250D01*
X139207240Y-65208250D01*
X139207240Y-64062250D01*
X139226925Y-63995211D01*
X139279729Y-63949456D01*
X139331240Y-63938250D01*
X159403240Y-63938250D01*
X159470279Y-63957935D01*
G37*
%TD.AperFunction*%
%TD*%
M02*
