%TF.GenerationSoftware,KiCad,Pcbnew,7.0.6*%
%TF.CreationDate,2023-10-19T15:55:55+03:00*%
%TF.ProjectId,_______ _____,21383b3e-3230-44f2-903f-3b3042302e6b,rev?*%
%TF.SameCoordinates,Original*%
%TF.FileFunction,Copper,L5,Inr*%
%TF.FilePolarity,Positive*%
%FSLAX46Y46*%
G04 Gerber Fmt 4.6, Leading zero omitted, Abs format (unit mm)*
G04 Created by KiCad (PCBNEW 7.0.6) date 2023-10-19 15:55:55*
%MOMM*%
%LPD*%
G01*
G04 APERTURE LIST*
%TA.AperFunction,ComponentPad*%
%ADD10C,15.000000*%
%TD*%
%TA.AperFunction,ComponentPad*%
%ADD11O,2.400000X2.400000*%
%TD*%
%TA.AperFunction,ComponentPad*%
%ADD12R,2.400000X2.400000*%
%TD*%
%TA.AperFunction,ViaPad*%
%ADD13C,0.800000*%
%TD*%
G04 APERTURE END LIST*
D10*
%TO.N,+24V*%
%TO.C,J1*%
X133350000Y-125730000D03*
%TD*%
%TO.N,GND*%
%TO.C,J2*%
X171450000Y-125730000D03*
%TD*%
%TO.N,C*%
%TO.C,J5*%
X172085000Y-57785000D03*
%TD*%
%TO.N,B*%
%TO.C,J4*%
X152400000Y-57785000D03*
%TD*%
%TO.N,A*%
%TO.C,J3*%
X132715000Y-57785000D03*
%TD*%
D11*
%TO.N,GND*%
%TO.C,C1*%
X164900000Y-117475000D03*
D12*
%TO.N,+24V*%
X139900000Y-117475000D03*
%TD*%
D13*
%TO.N,GND*%
X120396000Y-85344000D03*
X120396000Y-88900000D03*
X120396000Y-91948000D03*
X120396000Y-94996000D03*
X120396000Y-106426000D03*
X120396000Y-109474000D03*
X120396000Y-112776000D03*
X120396000Y-115824000D03*
X185674000Y-117856000D03*
X185674000Y-114554000D03*
X185674000Y-111506000D03*
X185674000Y-108204000D03*
X185674000Y-105156000D03*
X185674000Y-101854000D03*
X185674000Y-98806000D03*
X185674000Y-95504000D03*
X174625000Y-116205000D03*
X174625000Y-113030000D03*
X174625000Y-109855000D03*
X174625000Y-106680000D03*
X130175000Y-114300000D03*
X130175000Y-111125000D03*
X130175000Y-107950000D03*
X120650000Y-119380000D03*
X120650000Y-101600000D03*
X120650000Y-99695000D03*
%TO.N,HIN_C*%
X165100000Y-109855000D03*
%TO.N,LIN_C*%
X163830000Y-105410000D03*
%TO.N,HIN_B*%
X153670000Y-105410000D03*
%TO.N,LIN_B*%
X152400000Y-109855000D03*
%TO.N,LIN_A*%
X142240000Y-109855000D03*
%TO.N,HIN_A*%
X140970000Y-105410000D03*
%TO.N,GND*%
X175895000Y-74930000D03*
X175895000Y-76200000D03*
X178435000Y-76200000D03*
X179705000Y-74930000D03*
X178435000Y-74930000D03*
X177165000Y-74930000D03*
X179705000Y-76200000D03*
X177165000Y-76200000D03*
X156845000Y-74930000D03*
X156845000Y-76200000D03*
X159385000Y-76200000D03*
X160655000Y-74930000D03*
X159385000Y-74930000D03*
X158115000Y-74930000D03*
X160655000Y-76200000D03*
X158115000Y-76200000D03*
X137795000Y-76200000D03*
X139065000Y-76200000D03*
X140335000Y-76200000D03*
X141605000Y-76200000D03*
X141605000Y-74930000D03*
X140335000Y-74930000D03*
X139065000Y-74930000D03*
X137795000Y-74930000D03*
%TO.N,LIN_C*%
X163881676Y-100960775D03*
%TO.N,HIN_C*%
X163881676Y-99699225D03*
%TO.N,Net-(U3-VS)*%
X173990000Y-98425000D03*
X172720000Y-100965000D03*
%TO.N,LIN_B*%
X144831676Y-100960775D03*
%TO.N,HIN_B*%
X144831676Y-99699225D03*
%TO.N,LIN_A*%
X125781676Y-100960775D03*
%TO.N,HIN_A*%
X125781676Y-99699225D03*
%TO.N,Net-(U2-VS)*%
X154305000Y-100965000D03*
X154940000Y-98425000D03*
%TO.N,Net-(U1-VS)*%
X136292500Y-98425000D03*
X135255000Y-100965000D03*
%TO.N,G6*%
X179070000Y-93345000D03*
%TO.N,G4*%
X160020000Y-93345000D03*
%TO.N,G2*%
X140970000Y-93345000D03*
%TO.N,G6*%
X177165000Y-79375000D03*
%TO.N,G4*%
X158260000Y-79230000D03*
%TO.N,G2*%
X139065000Y-79375000D03*
%TD*%
%TA.AperFunction,Conductor*%
%TO.N,A*%
G36*
X124778514Y-59074685D02*
G01*
X124824269Y-59127489D01*
X124833591Y-59157468D01*
X124885050Y-59449307D01*
X124885050Y-59449306D01*
X125020221Y-59991448D01*
X125020221Y-59991449D01*
X125192878Y-60522833D01*
X125192878Y-60522832D01*
X125402181Y-61040874D01*
X125402182Y-61040875D01*
X125647112Y-61543059D01*
X125647113Y-61543059D01*
X125926483Y-62026943D01*
X125926483Y-62026944D01*
X126238922Y-62490151D01*
X126238921Y-62490151D01*
X126582905Y-62930431D01*
X126882870Y-63263575D01*
X130069640Y-60076805D01*
X130203842Y-60230176D01*
X130421991Y-60431561D01*
X127237146Y-63616406D01*
X127358687Y-63733778D01*
X127786699Y-64092923D01*
X127786700Y-64092923D01*
X128238739Y-64421349D01*
X128238738Y-64421348D01*
X128712563Y-64717427D01*
X128712563Y-64717426D01*
X129205890Y-64979734D01*
X129205889Y-64979733D01*
X129716324Y-65206993D01*
X130241360Y-65398090D01*
X130241361Y-65398090D01*
X130778439Y-65552095D01*
X131324972Y-65668265D01*
X131878270Y-65746025D01*
X131878271Y-65746025D01*
X132435632Y-65785000D01*
X132994368Y-65785000D01*
X133551729Y-65746025D01*
X133551730Y-65746025D01*
X134105028Y-65668265D01*
X134651561Y-65552095D01*
X135188639Y-65398090D01*
X135188640Y-65398090D01*
X135713676Y-65206993D01*
X136224111Y-64979733D01*
X136224110Y-64979734D01*
X136717437Y-64717426D01*
X136717437Y-64717427D01*
X137191262Y-64421348D01*
X137191261Y-64421349D01*
X137643300Y-64092923D01*
X137643301Y-64092923D01*
X138071305Y-63733785D01*
X138071305Y-63733784D01*
X138192853Y-63616405D01*
X135007361Y-60430913D01*
X135092461Y-60360360D01*
X135352736Y-60093061D01*
X135363237Y-60079684D01*
X138547128Y-63263575D01*
X138547129Y-63263575D01*
X138847095Y-62930431D01*
X139191079Y-62490151D01*
X139191078Y-62490151D01*
X139503517Y-62026944D01*
X139503517Y-62026943D01*
X139782887Y-61543059D01*
X139782888Y-61543059D01*
X140027818Y-61040875D01*
X140027819Y-61040874D01*
X140237122Y-60522832D01*
X140237122Y-60522833D01*
X140409779Y-59991449D01*
X140409779Y-59991448D01*
X140544950Y-59449306D01*
X140544950Y-59449307D01*
X140596409Y-59157468D01*
X140627436Y-59094865D01*
X140687383Y-59058974D01*
X140718525Y-59055000D01*
X142116000Y-59055000D01*
X142183039Y-59074685D01*
X142228794Y-59127489D01*
X142240000Y-59179000D01*
X142240000Y-73707545D01*
X142220315Y-73774584D01*
X142167511Y-73820339D01*
X142098353Y-73830283D01*
X142071207Y-73823172D01*
X142001543Y-73796184D01*
X141934940Y-73770382D01*
X141716243Y-73729500D01*
X141493757Y-73729500D01*
X141275060Y-73770382D01*
X141146106Y-73820339D01*
X141067601Y-73850752D01*
X141067598Y-73850753D01*
X141035276Y-73870766D01*
X140967915Y-73889320D01*
X140904724Y-73870766D01*
X140872401Y-73850753D01*
X140872398Y-73850752D01*
X140664940Y-73770382D01*
X140446243Y-73729500D01*
X140223757Y-73729500D01*
X140005060Y-73770382D01*
X139876106Y-73820339D01*
X139797601Y-73850752D01*
X139797598Y-73850753D01*
X139765276Y-73870766D01*
X139697915Y-73889320D01*
X139634724Y-73870766D01*
X139602401Y-73850753D01*
X139602398Y-73850752D01*
X139394940Y-73770382D01*
X139176243Y-73729500D01*
X138953757Y-73729500D01*
X138735060Y-73770382D01*
X138606106Y-73820339D01*
X138527601Y-73850752D01*
X138527598Y-73850753D01*
X138495276Y-73870766D01*
X138427915Y-73889320D01*
X138364724Y-73870766D01*
X138332401Y-73850753D01*
X138332398Y-73850752D01*
X138124940Y-73770382D01*
X137906243Y-73729500D01*
X137683757Y-73729500D01*
X137465060Y-73770382D01*
X137336106Y-73820339D01*
X137257601Y-73850752D01*
X137257595Y-73850754D01*
X137068439Y-73967874D01*
X137068437Y-73967876D01*
X136904020Y-74117761D01*
X136769943Y-74295308D01*
X136769938Y-74295316D01*
X136670775Y-74494461D01*
X136670769Y-74494476D01*
X136609885Y-74708462D01*
X136609884Y-74708464D01*
X136589357Y-74929999D01*
X136589357Y-74930000D01*
X136609884Y-75151535D01*
X136609885Y-75151537D01*
X136670769Y-75365523D01*
X136670775Y-75365538D01*
X136742574Y-75509728D01*
X136754835Y-75578514D01*
X136742574Y-75620272D01*
X136670775Y-75764461D01*
X136670769Y-75764476D01*
X136609885Y-75978462D01*
X136609884Y-75978464D01*
X136589357Y-76199999D01*
X136589357Y-76200000D01*
X136609884Y-76421535D01*
X136609885Y-76421537D01*
X136670769Y-76635523D01*
X136670775Y-76635538D01*
X136769938Y-76834683D01*
X136769943Y-76834691D01*
X136904020Y-77012238D01*
X137068437Y-77162123D01*
X137068439Y-77162125D01*
X137257595Y-77279245D01*
X137257596Y-77279245D01*
X137257599Y-77279247D01*
X137465060Y-77359618D01*
X137683757Y-77400500D01*
X137683759Y-77400500D01*
X137906241Y-77400500D01*
X137906243Y-77400500D01*
X138124940Y-77359618D01*
X138332401Y-77279247D01*
X138364721Y-77259234D01*
X138432081Y-77240678D01*
X138495279Y-77259235D01*
X138527595Y-77279245D01*
X138527599Y-77279247D01*
X138735060Y-77359618D01*
X138953757Y-77400500D01*
X138953759Y-77400500D01*
X139176241Y-77400500D01*
X139176243Y-77400500D01*
X139394940Y-77359618D01*
X139602401Y-77279247D01*
X139634721Y-77259234D01*
X139702081Y-77240678D01*
X139765279Y-77259235D01*
X139797595Y-77279245D01*
X139797599Y-77279247D01*
X140005060Y-77359618D01*
X140223757Y-77400500D01*
X140223759Y-77400500D01*
X140446241Y-77400500D01*
X140446243Y-77400500D01*
X140664940Y-77359618D01*
X140872401Y-77279247D01*
X140904721Y-77259234D01*
X140972081Y-77240678D01*
X141035279Y-77259235D01*
X141067595Y-77279245D01*
X141067599Y-77279247D01*
X141275060Y-77359618D01*
X141493757Y-77400500D01*
X141493759Y-77400500D01*
X141716241Y-77400500D01*
X141716243Y-77400500D01*
X141934940Y-77359618D01*
X142071206Y-77306827D01*
X142140829Y-77300965D01*
X142202569Y-77333675D01*
X142236824Y-77394571D01*
X142240000Y-77422454D01*
X142240000Y-86871000D01*
X142220315Y-86938039D01*
X142167511Y-86983794D01*
X142116000Y-86995000D01*
X135890000Y-86995000D01*
X119504000Y-86995000D01*
X119436961Y-86975315D01*
X119391206Y-86922511D01*
X119380000Y-86871000D01*
X119380000Y-86323095D01*
X119399683Y-86256060D01*
X119452487Y-86210305D01*
X119521646Y-86200361D01*
X119585202Y-86229386D01*
X119587537Y-86231462D01*
X119669437Y-86306123D01*
X119669439Y-86306125D01*
X119858595Y-86423245D01*
X119858596Y-86423245D01*
X119858599Y-86423247D01*
X120066060Y-86503618D01*
X120284757Y-86544500D01*
X120284759Y-86544500D01*
X120507241Y-86544500D01*
X120507243Y-86544500D01*
X120725940Y-86503618D01*
X120933401Y-86423247D01*
X121122562Y-86306124D01*
X121286981Y-86156236D01*
X121421058Y-85978689D01*
X121520229Y-85779528D01*
X121581115Y-85565536D01*
X121601643Y-85344000D01*
X121581115Y-85122464D01*
X121520229Y-84908472D01*
X121520224Y-84908461D01*
X121421061Y-84709316D01*
X121421056Y-84709308D01*
X121286979Y-84531761D01*
X121122562Y-84381876D01*
X121122560Y-84381874D01*
X120933404Y-84264754D01*
X120933398Y-84264752D01*
X120725940Y-84184382D01*
X120507243Y-84143500D01*
X120284757Y-84143500D01*
X120066060Y-84184382D01*
X119934864Y-84235207D01*
X119858601Y-84264752D01*
X119858595Y-84264754D01*
X119669439Y-84381874D01*
X119669437Y-84381876D01*
X119587538Y-84456537D01*
X119524734Y-84487154D01*
X119455347Y-84478956D01*
X119401407Y-84434546D01*
X119380039Y-84368024D01*
X119380000Y-84364900D01*
X119380000Y-79375000D01*
X137859357Y-79375000D01*
X137879884Y-79596535D01*
X137879885Y-79596537D01*
X137940769Y-79810523D01*
X137940775Y-79810538D01*
X138039938Y-80009683D01*
X138039943Y-80009691D01*
X138174020Y-80187238D01*
X138338437Y-80337123D01*
X138338439Y-80337125D01*
X138527595Y-80454245D01*
X138527596Y-80454245D01*
X138527599Y-80454247D01*
X138735060Y-80534618D01*
X138953757Y-80575500D01*
X138953759Y-80575500D01*
X139176241Y-80575500D01*
X139176243Y-80575500D01*
X139394940Y-80534618D01*
X139602401Y-80454247D01*
X139791562Y-80337124D01*
X139955981Y-80187236D01*
X140090058Y-80009689D01*
X140189229Y-79810528D01*
X140250115Y-79596536D01*
X140270643Y-79375000D01*
X140250115Y-79153464D01*
X140189229Y-78939472D01*
X140189224Y-78939461D01*
X140090061Y-78740316D01*
X140090056Y-78740308D01*
X139955979Y-78562761D01*
X139791562Y-78412876D01*
X139791560Y-78412874D01*
X139602404Y-78295754D01*
X139602398Y-78295752D01*
X139394940Y-78215382D01*
X139176243Y-78174500D01*
X138953757Y-78174500D01*
X138735060Y-78215382D01*
X138603864Y-78266207D01*
X138527601Y-78295752D01*
X138527595Y-78295754D01*
X138338439Y-78412874D01*
X138338437Y-78412876D01*
X138174020Y-78562761D01*
X138039943Y-78740308D01*
X138039938Y-78740316D01*
X137940775Y-78939461D01*
X137940769Y-78939476D01*
X137879885Y-79153462D01*
X137879884Y-79153464D01*
X137859357Y-79374999D01*
X137859357Y-79375000D01*
X119380000Y-79375000D01*
X119380000Y-59179000D01*
X119399685Y-59111961D01*
X119452489Y-59066206D01*
X119504000Y-59055000D01*
X124711475Y-59055000D01*
X124778514Y-59074685D01*
G37*
%TD.AperFunction*%
%TD*%
%TA.AperFunction,Conductor*%
%TO.N,B*%
G36*
X144463514Y-59074685D02*
G01*
X144509269Y-59127489D01*
X144518591Y-59157468D01*
X144570050Y-59449307D01*
X144570050Y-59449306D01*
X144705221Y-59991448D01*
X144705221Y-59991449D01*
X144877878Y-60522833D01*
X144877878Y-60522832D01*
X145087181Y-61040874D01*
X145087182Y-61040875D01*
X145332112Y-61543059D01*
X145332113Y-61543059D01*
X145611483Y-62026943D01*
X145611483Y-62026944D01*
X145923922Y-62490151D01*
X145923921Y-62490151D01*
X146267905Y-62930431D01*
X146567870Y-63263575D01*
X149754640Y-60076805D01*
X149888842Y-60230176D01*
X150106991Y-60431561D01*
X146922146Y-63616406D01*
X147043687Y-63733778D01*
X147471699Y-64092923D01*
X147471700Y-64092923D01*
X147923739Y-64421349D01*
X147923738Y-64421348D01*
X148397563Y-64717427D01*
X148397563Y-64717426D01*
X148890890Y-64979734D01*
X148890889Y-64979733D01*
X149401324Y-65206993D01*
X149926360Y-65398090D01*
X149926361Y-65398090D01*
X150463439Y-65552095D01*
X151009972Y-65668265D01*
X151563270Y-65746025D01*
X151563271Y-65746025D01*
X152120632Y-65785000D01*
X152679368Y-65785000D01*
X153236729Y-65746025D01*
X153236730Y-65746025D01*
X153790028Y-65668265D01*
X154336561Y-65552095D01*
X154873639Y-65398090D01*
X154873640Y-65398090D01*
X155398676Y-65206993D01*
X155909111Y-64979733D01*
X155909110Y-64979734D01*
X156402437Y-64717426D01*
X156402437Y-64717427D01*
X156876262Y-64421348D01*
X156876261Y-64421349D01*
X157328300Y-64092923D01*
X157328301Y-64092923D01*
X157756305Y-63733785D01*
X157756305Y-63733784D01*
X157877853Y-63616405D01*
X154692361Y-60430913D01*
X154777461Y-60360360D01*
X155037736Y-60093061D01*
X155048237Y-60079684D01*
X158232128Y-63263575D01*
X158232129Y-63263575D01*
X158532095Y-62930431D01*
X158876079Y-62490151D01*
X158876078Y-62490151D01*
X159188517Y-62026944D01*
X159188517Y-62026943D01*
X159467887Y-61543059D01*
X159467888Y-61543059D01*
X159712818Y-61040875D01*
X159712819Y-61040874D01*
X159922122Y-60522832D01*
X159922122Y-60522833D01*
X160094779Y-59991449D01*
X160094779Y-59991448D01*
X160229950Y-59449306D01*
X160229950Y-59449307D01*
X160281409Y-59157468D01*
X160312436Y-59094865D01*
X160372383Y-59058974D01*
X160403525Y-59055000D01*
X161166000Y-59055000D01*
X161233039Y-59074685D01*
X161278794Y-59127489D01*
X161290000Y-59179000D01*
X161290000Y-73707545D01*
X161270315Y-73774584D01*
X161217511Y-73820339D01*
X161148353Y-73830283D01*
X161121207Y-73823172D01*
X161051543Y-73796184D01*
X160984940Y-73770382D01*
X160766243Y-73729500D01*
X160543757Y-73729500D01*
X160325060Y-73770382D01*
X160196106Y-73820339D01*
X160117601Y-73850752D01*
X160117598Y-73850753D01*
X160085276Y-73870766D01*
X160017915Y-73889320D01*
X159954724Y-73870766D01*
X159922401Y-73850753D01*
X159922398Y-73850752D01*
X159714940Y-73770382D01*
X159496243Y-73729500D01*
X159273757Y-73729500D01*
X159055060Y-73770382D01*
X158926106Y-73820339D01*
X158847601Y-73850752D01*
X158847598Y-73850753D01*
X158815276Y-73870766D01*
X158747915Y-73889320D01*
X158684724Y-73870766D01*
X158652401Y-73850753D01*
X158652398Y-73850752D01*
X158444940Y-73770382D01*
X158226243Y-73729500D01*
X158003757Y-73729500D01*
X157785060Y-73770382D01*
X157656106Y-73820339D01*
X157577601Y-73850752D01*
X157577598Y-73850753D01*
X157545276Y-73870766D01*
X157477915Y-73889320D01*
X157414724Y-73870766D01*
X157382401Y-73850753D01*
X157382398Y-73850752D01*
X157174940Y-73770382D01*
X156956243Y-73729500D01*
X156733757Y-73729500D01*
X156515060Y-73770382D01*
X156386106Y-73820339D01*
X156307601Y-73850752D01*
X156307595Y-73850754D01*
X156118439Y-73967874D01*
X156118437Y-73967876D01*
X155954020Y-74117761D01*
X155819943Y-74295308D01*
X155819938Y-74295316D01*
X155720775Y-74494461D01*
X155720769Y-74494476D01*
X155659885Y-74708462D01*
X155659884Y-74708464D01*
X155639356Y-74929999D01*
X155639356Y-74930000D01*
X155659884Y-75151535D01*
X155659885Y-75151537D01*
X155720769Y-75365523D01*
X155720775Y-75365538D01*
X155792574Y-75509728D01*
X155804835Y-75578514D01*
X155792574Y-75620272D01*
X155720775Y-75764461D01*
X155720769Y-75764476D01*
X155659885Y-75978462D01*
X155659884Y-75978464D01*
X155639356Y-76199999D01*
X155639356Y-76200000D01*
X155659884Y-76421535D01*
X155659885Y-76421537D01*
X155720769Y-76635523D01*
X155720775Y-76635538D01*
X155819938Y-76834683D01*
X155819943Y-76834691D01*
X155954020Y-77012238D01*
X156118437Y-77162123D01*
X156118439Y-77162125D01*
X156307595Y-77279245D01*
X156307596Y-77279245D01*
X156307599Y-77279247D01*
X156515060Y-77359618D01*
X156733757Y-77400500D01*
X156733759Y-77400500D01*
X156956241Y-77400500D01*
X156956243Y-77400500D01*
X157174940Y-77359618D01*
X157382401Y-77279247D01*
X157414721Y-77259234D01*
X157482081Y-77240678D01*
X157545279Y-77259235D01*
X157577595Y-77279245D01*
X157577599Y-77279247D01*
X157785060Y-77359618D01*
X158003757Y-77400500D01*
X158003759Y-77400500D01*
X158226241Y-77400500D01*
X158226243Y-77400500D01*
X158444940Y-77359618D01*
X158652401Y-77279247D01*
X158684721Y-77259234D01*
X158752081Y-77240678D01*
X158815279Y-77259235D01*
X158847595Y-77279245D01*
X158847599Y-77279247D01*
X159055060Y-77359618D01*
X159273757Y-77400500D01*
X159273759Y-77400500D01*
X159496241Y-77400500D01*
X159496243Y-77400500D01*
X159714940Y-77359618D01*
X159922401Y-77279247D01*
X159954721Y-77259234D01*
X160022081Y-77240678D01*
X160085279Y-77259235D01*
X160117595Y-77279245D01*
X160117599Y-77279247D01*
X160325060Y-77359618D01*
X160543757Y-77400500D01*
X160543759Y-77400500D01*
X160766241Y-77400500D01*
X160766243Y-77400500D01*
X160984940Y-77359618D01*
X161121206Y-77306827D01*
X161190829Y-77300965D01*
X161252569Y-77333675D01*
X161286824Y-77394571D01*
X161290000Y-77422454D01*
X161290000Y-86871000D01*
X161270315Y-86938039D01*
X161217511Y-86983794D01*
X161166000Y-86995000D01*
X154940000Y-86995000D01*
X143634000Y-86995000D01*
X143566961Y-86975315D01*
X143521206Y-86922511D01*
X143510000Y-86871000D01*
X143510000Y-79230000D01*
X157054356Y-79230000D01*
X157074884Y-79451535D01*
X157074885Y-79451537D01*
X157135769Y-79665523D01*
X157135775Y-79665538D01*
X157234938Y-79864683D01*
X157234943Y-79864691D01*
X157369020Y-80042238D01*
X157533437Y-80192123D01*
X157533439Y-80192125D01*
X157722595Y-80309245D01*
X157722596Y-80309245D01*
X157722599Y-80309247D01*
X157930060Y-80389618D01*
X158148757Y-80430500D01*
X158148759Y-80430500D01*
X158371241Y-80430500D01*
X158371243Y-80430500D01*
X158589940Y-80389618D01*
X158797401Y-80309247D01*
X158986562Y-80192124D01*
X159150981Y-80042236D01*
X159285058Y-79864689D01*
X159384229Y-79665528D01*
X159445115Y-79451536D01*
X159465643Y-79230000D01*
X159445115Y-79008464D01*
X159384229Y-78794472D01*
X159384224Y-78794461D01*
X159285061Y-78595316D01*
X159285056Y-78595308D01*
X159150979Y-78417761D01*
X158986562Y-78267876D01*
X158986560Y-78267874D01*
X158797404Y-78150754D01*
X158797398Y-78150752D01*
X158589940Y-78070382D01*
X158371243Y-78029500D01*
X158148757Y-78029500D01*
X157930060Y-78070382D01*
X157798864Y-78121207D01*
X157722601Y-78150752D01*
X157722595Y-78150754D01*
X157533439Y-78267874D01*
X157533437Y-78267876D01*
X157369020Y-78417761D01*
X157234943Y-78595308D01*
X157234938Y-78595316D01*
X157135775Y-78794461D01*
X157135769Y-78794476D01*
X157074885Y-79008462D01*
X157074884Y-79008464D01*
X157054356Y-79229999D01*
X157054356Y-79230000D01*
X143510000Y-79230000D01*
X143510000Y-59179000D01*
X143529685Y-59111961D01*
X143582489Y-59066206D01*
X143634000Y-59055000D01*
X144396475Y-59055000D01*
X144463514Y-59074685D01*
G37*
%TD.AperFunction*%
%TD*%
%TA.AperFunction,Conductor*%
%TO.N,C*%
G36*
X164148514Y-59074685D02*
G01*
X164194269Y-59127489D01*
X164203591Y-59157468D01*
X164255050Y-59449307D01*
X164255050Y-59449306D01*
X164390221Y-59991448D01*
X164390221Y-59991449D01*
X164562878Y-60522833D01*
X164562878Y-60522832D01*
X164772181Y-61040874D01*
X164772182Y-61040875D01*
X165017112Y-61543059D01*
X165017113Y-61543059D01*
X165296483Y-62026943D01*
X165296483Y-62026944D01*
X165608922Y-62490151D01*
X165608921Y-62490151D01*
X165952905Y-62930431D01*
X166252870Y-63263575D01*
X169439640Y-60076805D01*
X169573842Y-60230176D01*
X169791991Y-60431561D01*
X166607146Y-63616406D01*
X166728687Y-63733778D01*
X167156699Y-64092923D01*
X167156700Y-64092923D01*
X167608739Y-64421349D01*
X167608738Y-64421348D01*
X168082563Y-64717427D01*
X168082563Y-64717426D01*
X168575890Y-64979734D01*
X168575889Y-64979733D01*
X169086324Y-65206993D01*
X169611360Y-65398090D01*
X169611361Y-65398090D01*
X170148439Y-65552095D01*
X170694972Y-65668265D01*
X171248270Y-65746025D01*
X171248271Y-65746025D01*
X171805632Y-65785000D01*
X172364368Y-65785000D01*
X172921729Y-65746025D01*
X172921730Y-65746025D01*
X173475028Y-65668265D01*
X174021561Y-65552095D01*
X174558639Y-65398090D01*
X174558640Y-65398090D01*
X175083676Y-65206993D01*
X175594111Y-64979733D01*
X175594110Y-64979734D01*
X176087437Y-64717426D01*
X176087437Y-64717427D01*
X176561262Y-64421348D01*
X176561261Y-64421349D01*
X177013300Y-64092923D01*
X177013301Y-64092923D01*
X177441305Y-63733785D01*
X177441305Y-63733784D01*
X177562853Y-63616405D01*
X174377361Y-60430913D01*
X174462461Y-60360360D01*
X174722736Y-60093061D01*
X174733237Y-60079684D01*
X177917128Y-63263575D01*
X177917129Y-63263575D01*
X178217095Y-62930431D01*
X178561079Y-62490151D01*
X178561078Y-62490151D01*
X178873517Y-62026944D01*
X178873517Y-62026943D01*
X179152887Y-61543059D01*
X179152888Y-61543059D01*
X179397818Y-61040875D01*
X179397819Y-61040874D01*
X179607122Y-60522832D01*
X179607122Y-60522833D01*
X179779779Y-59991449D01*
X179779779Y-59991448D01*
X179914950Y-59449306D01*
X179914950Y-59449307D01*
X179966409Y-59157468D01*
X179997436Y-59094865D01*
X180057383Y-59058974D01*
X180088525Y-59055000D01*
X186566000Y-59055000D01*
X186633039Y-59074685D01*
X186678794Y-59127489D01*
X186690000Y-59179000D01*
X186690000Y-86871000D01*
X186670315Y-86938039D01*
X186617511Y-86983794D01*
X186566000Y-86995000D01*
X173990000Y-86995000D01*
X162684000Y-86995000D01*
X162616961Y-86975315D01*
X162571206Y-86922511D01*
X162560000Y-86871000D01*
X162560000Y-79375000D01*
X175959356Y-79375000D01*
X175979884Y-79596535D01*
X175979885Y-79596537D01*
X176040769Y-79810523D01*
X176040775Y-79810538D01*
X176139938Y-80009683D01*
X176139943Y-80009691D01*
X176274020Y-80187238D01*
X176438437Y-80337123D01*
X176438439Y-80337125D01*
X176627595Y-80454245D01*
X176627596Y-80454245D01*
X176627599Y-80454247D01*
X176835060Y-80534618D01*
X177053757Y-80575500D01*
X177053759Y-80575500D01*
X177276241Y-80575500D01*
X177276243Y-80575500D01*
X177494940Y-80534618D01*
X177702401Y-80454247D01*
X177891562Y-80337124D01*
X178055981Y-80187236D01*
X178190058Y-80009689D01*
X178289229Y-79810528D01*
X178350115Y-79596536D01*
X178370643Y-79375000D01*
X178350115Y-79153464D01*
X178289229Y-78939472D01*
X178289224Y-78939461D01*
X178190061Y-78740316D01*
X178190056Y-78740308D01*
X178055979Y-78562761D01*
X177891562Y-78412876D01*
X177891560Y-78412874D01*
X177702404Y-78295754D01*
X177702398Y-78295752D01*
X177494940Y-78215382D01*
X177276243Y-78174500D01*
X177053757Y-78174500D01*
X176835060Y-78215382D01*
X176703864Y-78266207D01*
X176627601Y-78295752D01*
X176627595Y-78295754D01*
X176438439Y-78412874D01*
X176438437Y-78412876D01*
X176274020Y-78562761D01*
X176139943Y-78740308D01*
X176139938Y-78740316D01*
X176040775Y-78939461D01*
X176040769Y-78939476D01*
X175979885Y-79153462D01*
X175979884Y-79153464D01*
X175959356Y-79374999D01*
X175959356Y-79375000D01*
X162560000Y-79375000D01*
X162560000Y-76200000D01*
X174689356Y-76200000D01*
X174709884Y-76421535D01*
X174709885Y-76421537D01*
X174770769Y-76635523D01*
X174770775Y-76635538D01*
X174869938Y-76834683D01*
X174869943Y-76834691D01*
X175004020Y-77012238D01*
X175168437Y-77162123D01*
X175168439Y-77162125D01*
X175357595Y-77279245D01*
X175357596Y-77279245D01*
X175357599Y-77279247D01*
X175565060Y-77359618D01*
X175783757Y-77400500D01*
X175783759Y-77400500D01*
X176006241Y-77400500D01*
X176006243Y-77400500D01*
X176224940Y-77359618D01*
X176432401Y-77279247D01*
X176464721Y-77259234D01*
X176532081Y-77240678D01*
X176595279Y-77259235D01*
X176627595Y-77279245D01*
X176627599Y-77279247D01*
X176835060Y-77359618D01*
X177053757Y-77400500D01*
X177053759Y-77400500D01*
X177276241Y-77400500D01*
X177276243Y-77400500D01*
X177494940Y-77359618D01*
X177702401Y-77279247D01*
X177734721Y-77259234D01*
X177802081Y-77240678D01*
X177865279Y-77259235D01*
X177897595Y-77279245D01*
X177897599Y-77279247D01*
X178105060Y-77359618D01*
X178323757Y-77400500D01*
X178323759Y-77400500D01*
X178546241Y-77400500D01*
X178546243Y-77400500D01*
X178764940Y-77359618D01*
X178972401Y-77279247D01*
X179004721Y-77259234D01*
X179072081Y-77240678D01*
X179135279Y-77259235D01*
X179167595Y-77279245D01*
X179167599Y-77279247D01*
X179375060Y-77359618D01*
X179593757Y-77400500D01*
X179593759Y-77400500D01*
X179816241Y-77400500D01*
X179816243Y-77400500D01*
X180034940Y-77359618D01*
X180242401Y-77279247D01*
X180431562Y-77162124D01*
X180595981Y-77012236D01*
X180730058Y-76834689D01*
X180829229Y-76635528D01*
X180890115Y-76421536D01*
X180910643Y-76200000D01*
X180890115Y-75978464D01*
X180829229Y-75764472D01*
X180757425Y-75620271D01*
X180745164Y-75551486D01*
X180757422Y-75509733D01*
X180829229Y-75365528D01*
X180890115Y-75151536D01*
X180910643Y-74930000D01*
X180890115Y-74708464D01*
X180829229Y-74494472D01*
X180829224Y-74494461D01*
X180730061Y-74295316D01*
X180730056Y-74295308D01*
X180595979Y-74117761D01*
X180431562Y-73967876D01*
X180431560Y-73967874D01*
X180242404Y-73850754D01*
X180242398Y-73850752D01*
X180034940Y-73770382D01*
X179816243Y-73729500D01*
X179593757Y-73729500D01*
X179375060Y-73770382D01*
X179243864Y-73821207D01*
X179167601Y-73850752D01*
X179167598Y-73850753D01*
X179135276Y-73870766D01*
X179067915Y-73889320D01*
X179004724Y-73870766D01*
X178972401Y-73850753D01*
X178972398Y-73850752D01*
X178764940Y-73770382D01*
X178546243Y-73729500D01*
X178323757Y-73729500D01*
X178105060Y-73770382D01*
X177973864Y-73821207D01*
X177897601Y-73850752D01*
X177897598Y-73850753D01*
X177865276Y-73870766D01*
X177797915Y-73889320D01*
X177734724Y-73870766D01*
X177702401Y-73850753D01*
X177702398Y-73850752D01*
X177494940Y-73770382D01*
X177276243Y-73729500D01*
X177053757Y-73729500D01*
X176835060Y-73770382D01*
X176703864Y-73821207D01*
X176627601Y-73850752D01*
X176627598Y-73850753D01*
X176595276Y-73870766D01*
X176527915Y-73889320D01*
X176464724Y-73870766D01*
X176432401Y-73850753D01*
X176432398Y-73850752D01*
X176224940Y-73770382D01*
X176006243Y-73729500D01*
X175783757Y-73729500D01*
X175565060Y-73770382D01*
X175433864Y-73821207D01*
X175357601Y-73850752D01*
X175357595Y-73850754D01*
X175168439Y-73967874D01*
X175168437Y-73967876D01*
X175004020Y-74117761D01*
X174869943Y-74295308D01*
X174869938Y-74295316D01*
X174770775Y-74494461D01*
X174770769Y-74494476D01*
X174709885Y-74708462D01*
X174709884Y-74708464D01*
X174689356Y-74929999D01*
X174689356Y-74930000D01*
X174709884Y-75151535D01*
X174709885Y-75151537D01*
X174770769Y-75365523D01*
X174770775Y-75365538D01*
X174842574Y-75509728D01*
X174854835Y-75578514D01*
X174842574Y-75620272D01*
X174770775Y-75764461D01*
X174770769Y-75764476D01*
X174709885Y-75978462D01*
X174709884Y-75978464D01*
X174689356Y-76199999D01*
X174689356Y-76200000D01*
X162560000Y-76200000D01*
X162560000Y-59179000D01*
X162579685Y-59111961D01*
X162632489Y-59066206D01*
X162684000Y-59055000D01*
X164081475Y-59055000D01*
X164148514Y-59074685D01*
G37*
%TD.AperFunction*%
%TD*%
M02*
