%TF.GenerationSoftware,KiCad,Pcbnew,7.0.6*%
%TF.CreationDate,2023-12-21T21:59:25+03:00*%
%TF.ProjectId,_______ _____,21383b3e-3230-44f2-903f-3b3042302e6b,rev?*%
%TF.SameCoordinates,Original*%
%TF.FileFunction,Copper,L4,Inr*%
%TF.FilePolarity,Positive*%
%FSLAX46Y46*%
G04 Gerber Fmt 4.6, Leading zero omitted, Abs format (unit mm)*
G04 Created by KiCad (PCBNEW 7.0.6) date 2023-12-21 21:59:25*
%MOMM*%
%LPD*%
G01*
G04 APERTURE LIST*
%TA.AperFunction,ComponentPad*%
%ADD10C,5.000000*%
%TD*%
%TA.AperFunction,ComponentPad*%
%ADD11C,8.200000*%
%TD*%
%TA.AperFunction,ComponentPad*%
%ADD12C,6.000000*%
%TD*%
%TA.AperFunction,ComponentPad*%
%ADD13R,1.700000X1.700000*%
%TD*%
%TA.AperFunction,ComponentPad*%
%ADD14O,1.700000X1.700000*%
%TD*%
%TA.AperFunction,ComponentPad*%
%ADD15C,2.000000*%
%TD*%
%TA.AperFunction,ViaPad*%
%ADD16C,0.800000*%
%TD*%
%TA.AperFunction,Conductor*%
%ADD17C,0.250000*%
%TD*%
G04 APERTURE END LIST*
D10*
%TO.N,Earth_Protective*%
%TO.C,J8*%
X132222240Y-124898250D03*
%TD*%
%TO.N,Earth_Protective*%
%TO.C,J2*%
X167147240Y-124898250D03*
%TD*%
D11*
%TO.N,C*%
%TO.C,J4*%
X127142240Y-58223250D03*
%TD*%
%TO.N,A*%
%TO.C,J1*%
X171592240Y-58223250D03*
%TD*%
D12*
%TO.N,Shunt_1*%
%TO.C,J6*%
X144287240Y-119483250D03*
%TD*%
D13*
%TO.N,+3.3V*%
%TO.C,J7*%
X150637240Y-68383250D03*
D14*
%TO.N,~{OS}_MCU*%
X148097240Y-68383250D03*
%TO.N,G3*%
X150637240Y-70923250D03*
%TO.N,SCL_MCU*%
X148097240Y-70923250D03*
%TO.N,B*%
X150637240Y-73463250D03*
%TO.N,SDA_MCU*%
X148097240Y-73463250D03*
%TO.N,G2*%
X150637240Y-76003250D03*
%TO.N,G4*%
X148097240Y-76003250D03*
%TO.N,GND*%
X150637240Y-78543250D03*
X148097240Y-78543250D03*
%TO.N,G1*%
X150637240Y-81083250D03*
%TO.N,G6*%
X148097240Y-81083250D03*
%TO.N,A*%
X150637240Y-83623250D03*
%TO.N,C*%
X148097240Y-83623250D03*
%TO.N,GND*%
X150637240Y-86163250D03*
%TO.N,G5*%
X148097240Y-86163250D03*
%TO.N,Shunt_1*%
X150637240Y-88703250D03*
%TO.N,GND*%
X148097240Y-88703250D03*
%TO.N,Shunt_1*%
X150637240Y-91243250D03*
%TO.N,Shunt_2*%
X148097240Y-91243250D03*
%TD*%
D11*
%TO.N,B*%
%TO.C,J3*%
X149367240Y-43618250D03*
%TD*%
D15*
%TO.N,Earth_Protective*%
%TO.C,C44*%
X160797240Y-124838250D03*
%TO.N,Net-(J5-Pin_1)*%
X160797240Y-117338250D03*
%TD*%
D12*
%TO.N,Net-(J5-Pin_1)*%
%TO.C,J5*%
X154447240Y-119483250D03*
%TD*%
D15*
%TO.N,Shunt_1*%
%TO.C,C45*%
X137937240Y-117338250D03*
%TO.N,Earth_Protective*%
X137937240Y-124838250D03*
%TD*%
D16*
%TO.N,SDA_MCU*%
X175148240Y-79940250D03*
%TO.N,G1*%
X158892240Y-77273250D03*
%TO.N,A*%
X176672240Y-69653250D03*
X158892240Y-79813250D03*
X170322240Y-65843250D03*
X173497240Y-67113250D03*
X158892240Y-81083250D03*
X173497240Y-70923250D03*
X158892240Y-82353250D03*
X173497240Y-65843250D03*
X170322240Y-70923250D03*
X173497240Y-69653250D03*
X170322240Y-68383250D03*
X173497240Y-68383250D03*
X170322240Y-72193250D03*
X176672240Y-64573250D03*
X170322240Y-64573250D03*
X176672240Y-68383250D03*
X176672240Y-67113250D03*
X158892240Y-78543250D03*
X158892240Y-86163250D03*
X176672240Y-70923250D03*
X158892240Y-84893250D03*
X176672240Y-72193250D03*
X176672240Y-65843250D03*
X158892240Y-83623250D03*
X170322240Y-69653250D03*
X170322240Y-67113250D03*
%TO.N,G2*%
X162702240Y-63938250D03*
%TO.N,GND*%
X144922240Y-62033250D03*
X162702240Y-95688250D03*
X162702240Y-72828250D03*
X162702240Y-65208250D03*
X163972240Y-93148250D03*
X176926240Y-82988250D03*
X135397240Y-66478250D03*
X162702240Y-70288250D03*
X159527240Y-91878250D03*
X135397240Y-65208250D03*
X164607240Y-94418250D03*
X160797240Y-91878250D03*
X164607240Y-91878250D03*
X124348240Y-75368250D03*
X163337240Y-94418250D03*
X146192240Y-62033250D03*
X124094240Y-81464250D03*
X147970240Y-57287750D03*
X164607240Y-98228250D03*
X139842240Y-109023250D03*
X165242240Y-93148250D03*
X158257240Y-91878250D03*
X163337240Y-96958250D03*
X135397240Y-69018250D03*
X177942240Y-75114250D03*
X165877240Y-91878250D03*
X162702240Y-69018250D03*
X139842240Y-99205750D03*
X135397240Y-67748250D03*
X135397240Y-70288250D03*
X142382240Y-62033250D03*
X143703040Y-99193450D03*
X135397240Y-63938250D03*
X141112240Y-62033250D03*
X163972240Y-110293250D03*
X143652240Y-109023250D03*
X162067240Y-91878250D03*
X162702240Y-66478250D03*
X143652240Y-62033250D03*
X163337240Y-98228250D03*
X164607240Y-96958250D03*
X135397240Y-71558250D03*
X138572240Y-62033250D03*
X163337240Y-91878250D03*
X162702240Y-71558250D03*
X163972240Y-95688250D03*
X162702240Y-67748250D03*
X139842240Y-62033250D03*
%TO.N,G3*%
X152415240Y-62668250D03*
%TO.N,B*%
X138572240Y-51873250D03*
X143652240Y-55048250D03*
X142382240Y-51873250D03*
X141112240Y-48698250D03*
X139842240Y-48698250D03*
X137302240Y-55048250D03*
X137302240Y-48698250D03*
X139842240Y-51873250D03*
X143652240Y-48698250D03*
X157622240Y-62668250D03*
X139842240Y-55048250D03*
X153812240Y-62668250D03*
X155082240Y-62668250D03*
X143652240Y-51873250D03*
X142382240Y-48698250D03*
X161432240Y-62668250D03*
X138572240Y-55048250D03*
X141112240Y-55048250D03*
X142382240Y-55048250D03*
X158892240Y-62668250D03*
X138572240Y-48698250D03*
X141112240Y-51873250D03*
X144922240Y-55048250D03*
X160162240Y-62668250D03*
X144922240Y-48698250D03*
X156352240Y-62668250D03*
%TO.N,G4*%
X137302240Y-62033250D03*
%TO.N,G5*%
X139842240Y-86163250D03*
%TO.N,C*%
X139842240Y-82353250D03*
X128412240Y-69653250D03*
X139842240Y-84893250D03*
X128412240Y-68383250D03*
X128412240Y-67113250D03*
X125237240Y-69653250D03*
X125237240Y-67113250D03*
X122062240Y-68383250D03*
X122062240Y-67113250D03*
X139842240Y-79813250D03*
X122062240Y-70923250D03*
X128412240Y-64573250D03*
X122062240Y-64573250D03*
X122062240Y-65843250D03*
X128412240Y-65843250D03*
X128412240Y-70923250D03*
X125237240Y-68383250D03*
X139842240Y-77273250D03*
X125237240Y-70923250D03*
X122062240Y-72193250D03*
X128412240Y-72193250D03*
X125237240Y-65843250D03*
X139842240Y-78543250D03*
X139842240Y-81083250D03*
X139842240Y-83623250D03*
X122062240Y-69653250D03*
%TO.N,G6*%
X135397240Y-72828250D03*
%TO.N,Shunt_1*%
X134762240Y-97593250D03*
X143652240Y-105213250D03*
X136032240Y-105213250D03*
X165877240Y-106483250D03*
X143652240Y-103943250D03*
X134762240Y-95053250D03*
X147462240Y-97593250D03*
X139842240Y-105213250D03*
X134762240Y-96323250D03*
X147462240Y-103943250D03*
X144287240Y-86442750D03*
X134762240Y-98863250D03*
X154447240Y-86163250D03*
X147462240Y-105213250D03*
X136667240Y-91243250D03*
X139842240Y-103943250D03*
X132857240Y-91243250D03*
%TO.N,Shunt_2*%
X144922240Y-77273250D03*
X153812240Y-69018250D03*
X157368240Y-51873250D03*
X126507240Y-85528250D03*
X169052240Y-81718250D03*
X153558240Y-55048250D03*
X126507240Y-79178250D03*
X172227240Y-77908250D03*
X159908240Y-51873250D03*
X158638240Y-55048250D03*
X165877240Y-77908250D03*
X143652240Y-76003250D03*
X157368240Y-48698250D03*
X129682240Y-81718250D03*
X169052240Y-84258250D03*
X154447240Y-67748250D03*
X155082240Y-66478250D03*
X126507240Y-77908250D03*
X172227240Y-79178250D03*
X132857240Y-77908250D03*
X143652240Y-65208250D03*
X129682240Y-79178250D03*
X165877240Y-84258250D03*
X172227240Y-84258250D03*
X126507240Y-82988250D03*
X156098240Y-55048250D03*
X132857240Y-85528250D03*
X169052240Y-82988250D03*
X154828240Y-51873250D03*
X132857240Y-81718250D03*
X159908240Y-55048250D03*
X129682240Y-84258250D03*
X154828240Y-48698250D03*
X156098240Y-51873250D03*
X159908240Y-48698250D03*
X172227240Y-82988250D03*
X165877240Y-79178250D03*
X153558240Y-48698250D03*
X126507240Y-84258250D03*
X155082240Y-69018250D03*
X129682240Y-82988250D03*
X132857240Y-82988250D03*
X165877240Y-81718250D03*
X161178240Y-55048250D03*
X158638240Y-51873250D03*
X143652240Y-70923250D03*
X155717240Y-67748250D03*
X153812240Y-66478250D03*
X144287240Y-66478250D03*
X165877240Y-85528250D03*
X154828240Y-55048250D03*
X155717240Y-65208250D03*
X144922240Y-65208250D03*
X126507240Y-81718250D03*
X154447240Y-65208250D03*
X161178240Y-48698250D03*
X172227240Y-85528250D03*
X165877240Y-80448250D03*
X132857240Y-79178250D03*
X158638240Y-48698250D03*
X132857240Y-84258250D03*
X129682240Y-80448250D03*
X169052240Y-80448250D03*
X165877240Y-82988250D03*
X169052240Y-79178250D03*
X156098240Y-48698250D03*
X126507240Y-80448250D03*
X145557240Y-66478250D03*
X144922240Y-72193250D03*
X172227240Y-80448250D03*
X172227240Y-81718250D03*
X132857240Y-80448250D03*
X157368240Y-55048250D03*
%TO.N,+3.3V*%
X120792240Y-75368250D03*
X150764240Y-61605750D03*
X174384056Y-75115342D03*
X148224240Y-66050750D03*
%TO.N,SDA_MCU*%
X121300240Y-79940250D03*
X150764240Y-60081750D03*
%TO.N,SCL_MCU*%
X176159941Y-79935951D03*
X149748240Y-60081750D03*
X122316240Y-79940250D03*
%TO.N,~{OS}_MCU*%
X148732240Y-60081750D03*
X177180240Y-79940250D03*
X123332240Y-79940250D03*
%TD*%
D17*
%TO.N,SDA_MCU*%
X171474545Y-76130250D02*
X154445844Y-76130250D01*
X154445844Y-76130250D02*
X152953844Y-74638250D01*
X149272240Y-74638250D02*
X148097240Y-73463250D01*
X175148240Y-79803945D02*
X171474545Y-76130250D01*
X152953844Y-74638250D02*
X149272240Y-74638250D01*
X175148240Y-79940250D02*
X175148240Y-79803945D01*
%TO.N,SCL_MCU*%
X154574240Y-75622250D02*
X151050240Y-72098250D01*
X149272240Y-72098250D02*
X148097240Y-70923250D01*
X176159941Y-79935951D02*
X176159941Y-79926646D01*
X171855545Y-75622250D02*
X154574240Y-75622250D01*
X151050240Y-72098250D02*
X149272240Y-72098250D01*
X176159941Y-79926646D02*
X171855545Y-75622250D01*
%TO.N,~{OS}_MCU*%
X177180240Y-79930945D02*
X172363545Y-75114250D01*
X147706935Y-68383250D02*
X148097240Y-68383250D01*
X151123941Y-69748250D02*
X149462240Y-69748250D01*
X123332240Y-79940250D02*
X127904240Y-75368250D01*
X156489941Y-75114250D02*
X151123941Y-69748250D01*
X172363545Y-75114250D02*
X156489941Y-75114250D01*
X127904240Y-75368250D02*
X140721935Y-75368250D01*
X177180240Y-79940250D02*
X177180240Y-79930945D01*
X140721935Y-75368250D02*
X147706935Y-68383250D01*
X149462240Y-69748250D02*
X148097240Y-68383250D01*
%TD*%
%TA.AperFunction,Conductor*%
%TO.N,Shunt_2*%
G36*
X152829544Y-40260621D02*
G01*
X153862191Y-40390326D01*
X154954562Y-40567341D01*
X156039920Y-40783232D01*
X157116880Y-41037724D01*
X157677848Y-41191618D01*
X157737289Y-41228337D01*
X157767443Y-41291364D01*
X157759322Y-41359320D01*
X157743540Y-41396799D01*
X157613986Y-41808627D01*
X157523559Y-42230807D01*
X157473064Y-42659589D01*
X157473064Y-42659591D01*
X157462944Y-43091216D01*
X157462944Y-43091227D01*
X157493284Y-43521889D01*
X157563824Y-43947846D01*
X157673933Y-44365300D01*
X157673935Y-44365307D01*
X157748937Y-44569713D01*
X157822659Y-44770631D01*
X157956137Y-45050191D01*
X158008682Y-45160244D01*
X158008685Y-45160250D01*
X158230371Y-45530728D01*
X158230375Y-45530734D01*
X158485782Y-45878826D01*
X158632214Y-46043515D01*
X158772665Y-46201476D01*
X158978835Y-46393632D01*
X159088510Y-46495852D01*
X159430504Y-46759336D01*
X159430511Y-46759341D01*
X159430514Y-46759343D01*
X159795699Y-46989658D01*
X160180846Y-47184764D01*
X160570420Y-47338162D01*
X160582576Y-47342949D01*
X160717113Y-47381830D01*
X160997343Y-47462817D01*
X160997347Y-47462817D01*
X160997347Y-47462818D01*
X161421512Y-47543320D01*
X161421513Y-47543320D01*
X161421518Y-47543321D01*
X161851367Y-47583750D01*
X161851369Y-47583750D01*
X162175120Y-47583750D01*
X162202356Y-47582471D01*
X162498512Y-47568575D01*
X162780669Y-47528620D01*
X162925981Y-47508044D01*
X162925984Y-47508043D01*
X162925993Y-47508042D01*
X163345928Y-47407745D01*
X163754626Y-47268566D01*
X164148495Y-47091727D01*
X164524074Y-46878782D01*
X164878062Y-46631603D01*
X165207348Y-46352363D01*
X165509039Y-46043515D01*
X165780484Y-45707773D01*
X166019296Y-45348087D01*
X166144150Y-45115321D01*
X166193182Y-45065552D01*
X166261343Y-45050191D01*
X166322310Y-45070835D01*
X167130219Y-45610663D01*
X168027810Y-46257918D01*
X168901727Y-46936798D01*
X169750857Y-47646437D01*
X170574117Y-48385932D01*
X171370459Y-49154339D01*
X172138866Y-49950681D01*
X172878361Y-50773941D01*
X173588000Y-51623071D01*
X174266880Y-52496988D01*
X174914135Y-53394579D01*
X175528941Y-54314701D01*
X176110513Y-55256180D01*
X176658112Y-56217817D01*
X177171038Y-57198386D01*
X177648639Y-58196638D01*
X178090306Y-59211301D01*
X178495475Y-60241081D01*
X178863631Y-61284667D01*
X179194304Y-62340728D01*
X179487074Y-63407918D01*
X179741566Y-64484878D01*
X179832642Y-64942750D01*
X179844857Y-65004156D01*
X179847240Y-65028347D01*
X179847240Y-77125336D01*
X179844997Y-77148813D01*
X179783157Y-77469537D01*
X179543531Y-78515981D01*
X179267815Y-79553500D01*
X178956341Y-80580850D01*
X178609480Y-81596799D01*
X178227651Y-82600129D01*
X178065368Y-82985820D01*
X178021224Y-83039979D01*
X177954808Y-83061674D01*
X177887206Y-83044017D01*
X177839881Y-82992616D01*
X177827752Y-82950691D01*
X177811914Y-82799994D01*
X177753419Y-82619966D01*
X177658773Y-82456034D01*
X177532111Y-82315362D01*
X177532110Y-82315361D01*
X177378974Y-82204101D01*
X177378969Y-82204098D01*
X177206047Y-82127107D01*
X177206042Y-82127105D01*
X177060240Y-82096115D01*
X177020886Y-82087750D01*
X176831594Y-82087750D01*
X176799137Y-82094648D01*
X176646437Y-82127105D01*
X176646432Y-82127107D01*
X176473510Y-82204098D01*
X176473505Y-82204101D01*
X176320369Y-82315361D01*
X176193706Y-82456035D01*
X176099061Y-82619965D01*
X176099058Y-82619972D01*
X176066059Y-82721534D01*
X176040566Y-82799994D01*
X176020780Y-82988250D01*
X176040566Y-83176506D01*
X176040567Y-83176509D01*
X176099058Y-83356527D01*
X176099061Y-83356534D01*
X176193707Y-83520466D01*
X176306791Y-83646058D01*
X176320369Y-83661138D01*
X176473505Y-83772398D01*
X176473510Y-83772401D01*
X176646432Y-83849392D01*
X176646437Y-83849394D01*
X176831594Y-83888750D01*
X176831595Y-83888750D01*
X177020884Y-83888750D01*
X177020886Y-83888750D01*
X177206043Y-83849394D01*
X177378970Y-83772401D01*
X177517520Y-83671738D01*
X177583324Y-83648260D01*
X177651378Y-83664085D01*
X177700073Y-83714191D01*
X177713948Y-83782669D01*
X177702964Y-83824077D01*
X177454815Y-84361035D01*
X177360955Y-84564134D01*
X176877129Y-85522453D01*
X176360411Y-86463446D01*
X175811421Y-87385983D01*
X175230816Y-88288957D01*
X174619294Y-89171287D01*
X174531991Y-89288373D01*
X174476140Y-89330349D01*
X174432585Y-89338250D01*
X156476240Y-89338250D01*
X156409201Y-89318565D01*
X156363446Y-89265761D01*
X156352240Y-89214250D01*
X156352240Y-78543250D01*
X152106524Y-78543250D01*
X152039485Y-78523565D01*
X151993730Y-78470761D01*
X151982996Y-78430058D01*
X151972303Y-78307846D01*
X151972303Y-78307842D01*
X151911143Y-78079587D01*
X151811275Y-77865421D01*
X151806707Y-77858896D01*
X151675734Y-77671847D01*
X151508642Y-77504756D01*
X151508636Y-77504751D01*
X151323082Y-77374825D01*
X151279457Y-77320248D01*
X151272263Y-77250750D01*
X151303786Y-77188395D01*
X151323082Y-77171675D01*
X151446875Y-77084994D01*
X151508641Y-77041745D01*
X151675735Y-76874651D01*
X151811275Y-76681080D01*
X151911143Y-76466913D01*
X151972303Y-76238658D01*
X151992899Y-76003250D01*
X151972303Y-75767842D01*
X151911143Y-75539587D01*
X151864777Y-75440155D01*
X151854285Y-75371077D01*
X151882805Y-75307293D01*
X151941281Y-75269054D01*
X151977159Y-75263750D01*
X152643392Y-75263750D01*
X152710431Y-75283435D01*
X152731073Y-75300069D01*
X153945038Y-76514034D01*
X153954863Y-76526298D01*
X153955084Y-76526116D01*
X153960054Y-76532123D01*
X153960057Y-76532126D01*
X153960058Y-76532127D01*
X154010495Y-76579491D01*
X154031374Y-76600370D01*
X154036848Y-76604616D01*
X154041286Y-76608406D01*
X154075262Y-76640312D01*
X154075266Y-76640314D01*
X154092817Y-76649963D01*
X154109075Y-76660642D01*
X154124908Y-76672924D01*
X154143766Y-76681084D01*
X154167681Y-76691433D01*
X154172925Y-76694002D01*
X154213752Y-76716447D01*
X154233156Y-76721429D01*
X154251554Y-76727728D01*
X154269949Y-76735688D01*
X154315973Y-76742976D01*
X154321676Y-76744157D01*
X154366825Y-76755750D01*
X154386860Y-76755750D01*
X154406257Y-76757276D01*
X154426040Y-76760410D01*
X154472427Y-76756025D01*
X154478266Y-76755750D01*
X157942873Y-76755750D01*
X158009912Y-76775435D01*
X158055667Y-76828239D01*
X158065611Y-76897397D01*
X158060804Y-76918068D01*
X158020618Y-77041748D01*
X158006566Y-77084994D01*
X157986780Y-77273250D01*
X158006566Y-77461506D01*
X158006567Y-77461509D01*
X158065058Y-77641527D01*
X158065061Y-77641534D01*
X158159707Y-77805466D01*
X158177545Y-77825277D01*
X158207775Y-77888268D01*
X158199150Y-77957604D01*
X158177548Y-77991218D01*
X158159706Y-78011034D01*
X158065061Y-78174965D01*
X158065058Y-78174972D01*
X158021885Y-78307846D01*
X158006566Y-78354994D01*
X157986780Y-78543250D01*
X158006566Y-78731506D01*
X158006567Y-78731509D01*
X158065058Y-78911527D01*
X158065061Y-78911534D01*
X158159707Y-79075466D01*
X158170046Y-79086949D01*
X158177547Y-79095280D01*
X158207775Y-79158272D01*
X158199149Y-79227607D01*
X158177547Y-79261220D01*
X158159706Y-79281035D01*
X158065061Y-79444965D01*
X158065058Y-79444972D01*
X158016943Y-79593056D01*
X158006566Y-79624994D01*
X157986780Y-79813250D01*
X158006566Y-80001506D01*
X158006567Y-80001509D01*
X158065058Y-80181527D01*
X158065061Y-80181534D01*
X158159707Y-80345466D01*
X158170046Y-80356949D01*
X158177547Y-80365280D01*
X158207775Y-80428272D01*
X158199149Y-80497607D01*
X158177547Y-80531220D01*
X158159706Y-80551035D01*
X158065061Y-80714965D01*
X158065058Y-80714972D01*
X158024844Y-80838740D01*
X158006566Y-80894994D01*
X157986780Y-81083250D01*
X158006566Y-81271506D01*
X158006567Y-81271509D01*
X158065058Y-81451527D01*
X158065061Y-81451534D01*
X158159707Y-81615466D01*
X158170046Y-81626949D01*
X158177547Y-81635280D01*
X158207775Y-81698272D01*
X158199149Y-81767607D01*
X158177547Y-81801220D01*
X158159706Y-81821035D01*
X158065061Y-81984965D01*
X158065058Y-81984972D01*
X158018876Y-82127107D01*
X158006566Y-82164994D01*
X157986780Y-82353250D01*
X158006566Y-82541506D01*
X158006567Y-82541509D01*
X158065058Y-82721527D01*
X158065061Y-82721534D01*
X158159707Y-82885466D01*
X158170046Y-82896949D01*
X158177547Y-82905280D01*
X158207775Y-82968272D01*
X158199149Y-83037607D01*
X158177547Y-83071220D01*
X158159706Y-83091035D01*
X158065061Y-83254965D01*
X158065058Y-83254972D01*
X158032059Y-83356534D01*
X158006566Y-83434994D01*
X157986780Y-83623250D01*
X158006566Y-83811506D01*
X158006567Y-83811509D01*
X158065058Y-83991527D01*
X158065061Y-83991534D01*
X158159707Y-84155466D01*
X158176434Y-84174043D01*
X158177545Y-84175277D01*
X158207775Y-84238268D01*
X158199150Y-84307604D01*
X158177548Y-84341218D01*
X158159708Y-84361032D01*
X158159704Y-84361037D01*
X158065061Y-84524965D01*
X158065058Y-84524972D01*
X158006567Y-84704990D01*
X158006566Y-84704994D01*
X157986780Y-84893250D01*
X158006566Y-85081506D01*
X158006567Y-85081509D01*
X158065058Y-85261527D01*
X158065061Y-85261534D01*
X158159707Y-85425466D01*
X158176434Y-85444043D01*
X158177545Y-85445277D01*
X158207775Y-85508268D01*
X158199150Y-85577604D01*
X158177548Y-85611218D01*
X158159708Y-85631032D01*
X158159704Y-85631037D01*
X158065061Y-85794965D01*
X158065058Y-85794972D01*
X158006567Y-85974990D01*
X158006566Y-85974994D01*
X157986780Y-86163250D01*
X158006566Y-86351506D01*
X158006567Y-86351509D01*
X158065058Y-86531527D01*
X158065061Y-86531534D01*
X158159707Y-86695466D01*
X158286369Y-86836138D01*
X158439505Y-86947398D01*
X158439510Y-86947401D01*
X158612432Y-87024392D01*
X158612437Y-87024394D01*
X158797594Y-87063750D01*
X158797595Y-87063750D01*
X158986884Y-87063750D01*
X158986886Y-87063750D01*
X159172043Y-87024394D01*
X159344970Y-86947401D01*
X159498111Y-86836138D01*
X159624773Y-86695466D01*
X159719419Y-86531534D01*
X159777914Y-86351506D01*
X159797700Y-86163250D01*
X159777914Y-85974994D01*
X159719419Y-85794966D01*
X159624773Y-85631034D01*
X159606931Y-85611218D01*
X159576703Y-85548230D01*
X159585328Y-85478895D01*
X159606933Y-85445278D01*
X159624773Y-85425466D01*
X159719419Y-85261534D01*
X159777914Y-85081506D01*
X159797700Y-84893250D01*
X159777914Y-84704994D01*
X159719419Y-84524966D01*
X159624773Y-84361034D01*
X159606931Y-84341218D01*
X159576703Y-84278230D01*
X159585328Y-84208895D01*
X159606933Y-84175278D01*
X159624773Y-84155466D01*
X159719419Y-83991534D01*
X159777914Y-83811506D01*
X159797700Y-83623250D01*
X159777914Y-83434994D01*
X159719419Y-83254966D01*
X159624773Y-83091034D01*
X159606931Y-83071219D01*
X159576703Y-83008230D01*
X159585328Y-82938895D01*
X159606933Y-82905278D01*
X159624773Y-82885466D01*
X159719419Y-82721534D01*
X159777914Y-82541506D01*
X159797700Y-82353250D01*
X159777914Y-82164994D01*
X159719419Y-81984966D01*
X159624773Y-81821034D01*
X159606931Y-81801218D01*
X159576703Y-81738230D01*
X159585328Y-81668895D01*
X159606933Y-81635278D01*
X159624773Y-81615466D01*
X159719419Y-81451534D01*
X159777914Y-81271506D01*
X159797700Y-81083250D01*
X159777914Y-80894994D01*
X159719419Y-80714966D01*
X159624773Y-80551034D01*
X159606933Y-80531221D01*
X159576704Y-80468231D01*
X159585329Y-80398896D01*
X159606934Y-80365278D01*
X159624773Y-80345466D01*
X159719419Y-80181534D01*
X159777914Y-80001506D01*
X159797700Y-79813250D01*
X159777914Y-79624994D01*
X159719419Y-79444966D01*
X159624773Y-79281034D01*
X159606933Y-79261221D01*
X159576704Y-79198231D01*
X159585329Y-79128896D01*
X159606934Y-79095278D01*
X159609173Y-79092791D01*
X159624773Y-79075466D01*
X159719419Y-78911534D01*
X159777914Y-78731506D01*
X159797700Y-78543250D01*
X159777914Y-78354994D01*
X159719419Y-78174966D01*
X159624773Y-78011034D01*
X159606933Y-77991221D01*
X159576704Y-77928231D01*
X159585329Y-77858896D01*
X159606934Y-77825278D01*
X159606935Y-77825277D01*
X159624773Y-77805466D01*
X159719419Y-77641534D01*
X159777914Y-77461506D01*
X159797700Y-77273250D01*
X159777914Y-77084994D01*
X159723675Y-76918067D01*
X159721681Y-76848227D01*
X159757761Y-76788394D01*
X159820462Y-76757566D01*
X159841607Y-76755750D01*
X171164093Y-76755750D01*
X171231132Y-76775435D01*
X171251774Y-76792069D01*
X174215906Y-79756202D01*
X174249391Y-79817525D01*
X174251545Y-79856843D01*
X174242780Y-79940250D01*
X174262566Y-80128506D01*
X174262567Y-80128509D01*
X174321058Y-80308527D01*
X174321061Y-80308534D01*
X174415707Y-80472466D01*
X174513297Y-80580850D01*
X174542369Y-80613138D01*
X174695505Y-80724398D01*
X174695510Y-80724401D01*
X174868432Y-80801392D01*
X174868437Y-80801394D01*
X175053594Y-80840750D01*
X175053595Y-80840750D01*
X175242884Y-80840750D01*
X175242886Y-80840750D01*
X175428043Y-80801394D01*
X175505072Y-80767098D01*
X175606907Y-80721758D01*
X175607964Y-80724134D01*
X175664583Y-80710384D01*
X175709150Y-80720966D01*
X175880133Y-80797093D01*
X175880138Y-80797095D01*
X176065295Y-80836451D01*
X176065296Y-80836451D01*
X176254585Y-80836451D01*
X176254587Y-80836451D01*
X176439744Y-80797095D01*
X176612671Y-80720102D01*
X176612673Y-80720100D01*
X176615585Y-80718804D01*
X176684834Y-80709519D01*
X176721315Y-80722338D01*
X176721574Y-80721758D01*
X176900432Y-80801392D01*
X176900437Y-80801394D01*
X177085594Y-80840750D01*
X177085595Y-80840750D01*
X177274884Y-80840750D01*
X177274886Y-80840750D01*
X177460043Y-80801394D01*
X177632970Y-80724401D01*
X177786111Y-80613138D01*
X177912773Y-80472466D01*
X178007419Y-80308534D01*
X178065914Y-80128506D01*
X178085700Y-79940250D01*
X178065914Y-79751994D01*
X178007419Y-79571966D01*
X177912773Y-79408034D01*
X177786111Y-79267362D01*
X177777660Y-79261222D01*
X177632974Y-79156101D01*
X177632969Y-79156098D01*
X177460047Y-79079107D01*
X177460042Y-79079105D01*
X177314240Y-79048115D01*
X177274886Y-79039750D01*
X177274885Y-79039750D01*
X177224998Y-79039750D01*
X177157959Y-79020065D01*
X177137317Y-79003431D01*
X174361409Y-76227523D01*
X174327924Y-76166200D01*
X174332908Y-76096508D01*
X174374780Y-76040575D01*
X174440244Y-76016158D01*
X174449090Y-76015842D01*
X174478700Y-76015842D01*
X174478702Y-76015842D01*
X174663859Y-75976486D01*
X174836786Y-75899493D01*
X174989927Y-75788230D01*
X175116589Y-75647558D01*
X175211235Y-75483626D01*
X175269730Y-75303598D01*
X175289516Y-75115342D01*
X175289401Y-75114250D01*
X177036780Y-75114250D01*
X177056566Y-75302506D01*
X177056567Y-75302509D01*
X177115058Y-75482527D01*
X177115061Y-75482534D01*
X177209707Y-75646466D01*
X177290799Y-75736527D01*
X177336369Y-75787138D01*
X177489505Y-75898398D01*
X177489510Y-75898401D01*
X177662432Y-75975392D01*
X177662437Y-75975394D01*
X177847594Y-76014750D01*
X177847595Y-76014750D01*
X178036884Y-76014750D01*
X178036886Y-76014750D01*
X178222043Y-75975394D01*
X178394970Y-75898401D01*
X178548111Y-75787138D01*
X178674773Y-75646466D01*
X178769419Y-75482534D01*
X178827914Y-75302506D01*
X178847700Y-75114250D01*
X178827914Y-74925994D01*
X178769774Y-74747058D01*
X178769421Y-74745972D01*
X178769420Y-74745971D01*
X178769419Y-74745966D01*
X178674773Y-74582034D01*
X178548111Y-74441362D01*
X178548110Y-74441361D01*
X178394974Y-74330101D01*
X178394969Y-74330098D01*
X178222047Y-74253107D01*
X178222042Y-74253105D01*
X178042023Y-74214842D01*
X178036886Y-74213750D01*
X177847594Y-74213750D01*
X177842457Y-74214842D01*
X177662437Y-74253105D01*
X177662432Y-74253107D01*
X177489510Y-74330098D01*
X177489505Y-74330101D01*
X177336369Y-74441361D01*
X177209706Y-74582035D01*
X177115061Y-74745965D01*
X177115058Y-74745972D01*
X177066026Y-74896878D01*
X177056566Y-74925994D01*
X177036780Y-75114250D01*
X175289401Y-75114250D01*
X175269730Y-74927086D01*
X175211235Y-74747058D01*
X175116589Y-74583126D01*
X174989927Y-74442454D01*
X174988423Y-74441361D01*
X174836790Y-74331193D01*
X174836785Y-74331190D01*
X174663863Y-74254199D01*
X174663858Y-74254197D01*
X174518056Y-74223207D01*
X174478702Y-74214842D01*
X174289410Y-74214842D01*
X174256953Y-74221740D01*
X174104253Y-74254197D01*
X174104248Y-74254199D01*
X173931326Y-74331190D01*
X173931321Y-74331193D01*
X173778185Y-74442453D01*
X173651522Y-74583127D01*
X173556877Y-74747057D01*
X173556874Y-74747064D01*
X173498738Y-74925990D01*
X173498382Y-74927086D01*
X173494423Y-74964755D01*
X173483955Y-75064348D01*
X173457370Y-75128963D01*
X173400072Y-75168947D01*
X173330253Y-75171607D01*
X173272953Y-75139067D01*
X172864348Y-74730462D01*
X172854525Y-74718200D01*
X172854304Y-74718384D01*
X172849331Y-74712373D01*
X172821515Y-74686252D01*
X172798909Y-74665023D01*
X172788464Y-74654577D01*
X172778020Y-74644133D01*
X172772531Y-74639875D01*
X172768106Y-74636097D01*
X172734127Y-74604188D01*
X172734125Y-74604186D01*
X172734122Y-74604185D01*
X172716574Y-74594538D01*
X172700308Y-74583854D01*
X172699371Y-74583127D01*
X172684481Y-74571577D01*
X172684480Y-74571576D01*
X172684478Y-74571575D01*
X172641713Y-74553068D01*
X172636467Y-74550498D01*
X172595638Y-74528053D01*
X172595637Y-74528052D01*
X172576238Y-74523072D01*
X172557826Y-74516768D01*
X172539443Y-74508812D01*
X172539437Y-74508810D01*
X172493419Y-74501522D01*
X172487697Y-74500337D01*
X172442566Y-74488750D01*
X172442564Y-74488750D01*
X172422529Y-74488750D01*
X172403131Y-74487223D01*
X172395707Y-74486047D01*
X172383350Y-74484090D01*
X172383349Y-74484090D01*
X172336961Y-74488475D01*
X172331123Y-74488750D01*
X156800393Y-74488750D01*
X156733354Y-74469065D01*
X156712712Y-74452431D01*
X151923456Y-69663174D01*
X151889971Y-69601851D01*
X151894955Y-69532159D01*
X151911867Y-69501186D01*
X151931036Y-69475581D01*
X151981331Y-69340733D01*
X151987740Y-69281123D01*
X151987739Y-67485378D01*
X151981331Y-67425767D01*
X151980050Y-67422333D01*
X151931037Y-67290921D01*
X151931033Y-67290914D01*
X151844787Y-67175705D01*
X151844784Y-67175702D01*
X151729575Y-67089456D01*
X151729568Y-67089452D01*
X151594722Y-67039158D01*
X151594723Y-67039158D01*
X151535123Y-67032751D01*
X151535121Y-67032750D01*
X151535113Y-67032750D01*
X151535104Y-67032750D01*
X149739369Y-67032750D01*
X149739363Y-67032751D01*
X149679756Y-67039158D01*
X149544911Y-67089452D01*
X149544904Y-67089456D01*
X149429695Y-67175702D01*
X149429692Y-67175705D01*
X149343446Y-67290914D01*
X149343443Y-67290919D01*
X149294429Y-67422333D01*
X149252557Y-67478266D01*
X149187093Y-67502683D01*
X149118820Y-67487831D01*
X149090566Y-67466680D01*
X148968642Y-67344756D01*
X148968635Y-67344751D01*
X148775074Y-67209217D01*
X148775070Y-67209215D01*
X148563114Y-67110378D01*
X148510675Y-67064206D01*
X148491523Y-66997012D01*
X148511739Y-66930131D01*
X148564902Y-66884797D01*
X148676970Y-66834901D01*
X148830111Y-66723638D01*
X148956773Y-66582966D01*
X149051419Y-66419034D01*
X149109914Y-66239006D01*
X149129700Y-66050750D01*
X149109914Y-65862494D01*
X149051419Y-65682466D01*
X148956773Y-65518534D01*
X148830111Y-65377862D01*
X148830110Y-65377861D01*
X148676974Y-65266601D01*
X148676969Y-65266598D01*
X148504047Y-65189607D01*
X148504042Y-65189605D01*
X148358240Y-65158615D01*
X148318886Y-65150250D01*
X148129594Y-65150250D01*
X148097137Y-65157148D01*
X147944437Y-65189605D01*
X147944432Y-65189607D01*
X147771510Y-65266598D01*
X147771505Y-65266601D01*
X147618369Y-65377861D01*
X147491706Y-65518535D01*
X147397061Y-65682465D01*
X147397058Y-65682472D01*
X147338567Y-65862490D01*
X147338566Y-65862494D01*
X147318780Y-66050750D01*
X147338566Y-66239006D01*
X147338567Y-66239009D01*
X147397058Y-66419027D01*
X147397061Y-66419034D01*
X147491707Y-66582966D01*
X147566927Y-66666506D01*
X147618369Y-66723638D01*
X147647724Y-66744966D01*
X147771510Y-66834901D01*
X147784620Y-66840738D01*
X147837855Y-66885989D01*
X147858175Y-66952838D01*
X147839128Y-67020062D01*
X147786761Y-67066316D01*
X147766274Y-67073791D01*
X147633584Y-67109344D01*
X147633575Y-67109348D01*
X147419411Y-67209214D01*
X147419409Y-67209215D01*
X147225837Y-67344755D01*
X147058745Y-67511847D01*
X146923205Y-67705419D01*
X146923204Y-67705421D01*
X146823338Y-67919585D01*
X146823334Y-67919594D01*
X146762178Y-68147836D01*
X146762176Y-68147846D01*
X146741581Y-68383247D01*
X146743039Y-68399918D01*
X146729269Y-68468418D01*
X146707191Y-68498402D01*
X140499163Y-74706431D01*
X140437840Y-74739916D01*
X140411482Y-74742750D01*
X127986977Y-74742750D01*
X127971360Y-74741026D01*
X127971333Y-74741312D01*
X127963571Y-74740577D01*
X127894443Y-74742750D01*
X127864890Y-74742750D01*
X127864169Y-74742840D01*
X127857997Y-74743619D01*
X127852185Y-74744076D01*
X127805612Y-74745540D01*
X127805609Y-74745541D01*
X127786366Y-74751131D01*
X127767323Y-74755075D01*
X127747444Y-74757586D01*
X127747443Y-74757587D01*
X127704118Y-74774740D01*
X127698592Y-74776632D01*
X127653848Y-74789633D01*
X127653844Y-74789635D01*
X127636605Y-74799830D01*
X127619138Y-74808387D01*
X127600509Y-74815762D01*
X127600507Y-74815763D01*
X127562804Y-74843156D01*
X127557922Y-74846362D01*
X127517820Y-74870078D01*
X127503648Y-74884250D01*
X127488863Y-74896878D01*
X127472652Y-74908657D01*
X127442949Y-74944560D01*
X127439017Y-74948881D01*
X123384468Y-79003431D01*
X123323145Y-79036916D01*
X123296787Y-79039750D01*
X123237594Y-79039750D01*
X123205137Y-79046648D01*
X123052437Y-79079105D01*
X123052432Y-79079107D01*
X122874676Y-79158251D01*
X122805426Y-79167536D01*
X122773804Y-79158251D01*
X122596047Y-79079107D01*
X122596042Y-79079105D01*
X122450240Y-79048115D01*
X122410886Y-79039750D01*
X122221594Y-79039750D01*
X122189137Y-79046648D01*
X122036437Y-79079105D01*
X122036432Y-79079107D01*
X121858676Y-79158251D01*
X121789426Y-79167536D01*
X121757804Y-79158251D01*
X121580047Y-79079107D01*
X121580042Y-79079105D01*
X121434240Y-79048115D01*
X121394886Y-79039750D01*
X121205594Y-79039750D01*
X121173137Y-79046648D01*
X121020437Y-79079105D01*
X121020432Y-79079107D01*
X120847510Y-79156098D01*
X120847505Y-79156101D01*
X120694369Y-79267361D01*
X120567706Y-79408035D01*
X120473061Y-79571965D01*
X120473058Y-79571972D01*
X120434501Y-79690640D01*
X120414566Y-79751994D01*
X120394780Y-79940250D01*
X120414566Y-80128506D01*
X120414567Y-80128509D01*
X120473058Y-80308527D01*
X120473061Y-80308534D01*
X120567707Y-80472466D01*
X120665297Y-80580850D01*
X120694369Y-80613138D01*
X120847505Y-80724398D01*
X120847510Y-80724401D01*
X121020432Y-80801392D01*
X121020437Y-80801394D01*
X121205594Y-80840750D01*
X121205595Y-80840750D01*
X121394884Y-80840750D01*
X121394886Y-80840750D01*
X121580043Y-80801394D01*
X121752970Y-80724401D01*
X121752974Y-80724398D01*
X121757803Y-80722248D01*
X121827053Y-80712962D01*
X121858677Y-80722248D01*
X121863505Y-80724398D01*
X121863510Y-80724401D01*
X122036437Y-80801394D01*
X122221594Y-80840750D01*
X122221595Y-80840750D01*
X122410884Y-80840750D01*
X122410886Y-80840750D01*
X122596043Y-80801394D01*
X122768970Y-80724401D01*
X122768974Y-80724398D01*
X122773803Y-80722248D01*
X122843053Y-80712962D01*
X122874677Y-80722248D01*
X122879505Y-80724397D01*
X122879510Y-80724401D01*
X123052437Y-80801394D01*
X123228141Y-80838740D01*
X123289622Y-80871932D01*
X123323399Y-80933095D01*
X123318747Y-81002809D01*
X123309748Y-81022029D01*
X123267060Y-81095967D01*
X123267058Y-81095972D01*
X123210024Y-81271506D01*
X123208566Y-81275994D01*
X123188780Y-81464250D01*
X123208566Y-81652506D01*
X123208567Y-81652509D01*
X123267058Y-81832527D01*
X123267061Y-81832534D01*
X123361707Y-81996466D01*
X123443900Y-82087750D01*
X123488369Y-82137138D01*
X123641505Y-82248398D01*
X123641510Y-82248401D01*
X123814432Y-82325392D01*
X123814437Y-82325394D01*
X123999594Y-82364750D01*
X123999595Y-82364750D01*
X124188884Y-82364750D01*
X124188886Y-82364750D01*
X124374043Y-82325394D01*
X124546970Y-82248401D01*
X124700111Y-82137138D01*
X124826773Y-81996466D01*
X124921419Y-81832534D01*
X124979914Y-81652506D01*
X124999700Y-81464250D01*
X124979914Y-81275994D01*
X124921419Y-81095966D01*
X124826773Y-80932034D01*
X124700111Y-80791362D01*
X124700110Y-80791361D01*
X124546974Y-80680101D01*
X124546969Y-80680098D01*
X124374047Y-80603107D01*
X124374042Y-80603105D01*
X124198338Y-80565759D01*
X124136856Y-80532567D01*
X124103080Y-80471404D01*
X124107732Y-80401689D01*
X124116729Y-80382475D01*
X124159419Y-80308534D01*
X124217914Y-80128506D01*
X124235561Y-79960595D01*
X124262145Y-79895982D01*
X124271192Y-79885886D01*
X128127011Y-76030069D01*
X128188335Y-75996584D01*
X128214693Y-75993750D01*
X140639192Y-75993750D01*
X140654812Y-75995474D01*
X140654839Y-75995189D01*
X140662595Y-75995921D01*
X140662602Y-75995923D01*
X140731749Y-75993750D01*
X140761285Y-75993750D01*
X140768163Y-75992880D01*
X140773976Y-75992422D01*
X140820562Y-75990959D01*
X140839804Y-75985367D01*
X140858847Y-75981424D01*
X140878727Y-75978914D01*
X140922057Y-75961757D01*
X140927581Y-75959867D01*
X140931331Y-75958777D01*
X140972325Y-75946868D01*
X140989564Y-75936672D01*
X141007038Y-75928112D01*
X141025662Y-75920738D01*
X141025662Y-75920737D01*
X141025667Y-75920736D01*
X141063384Y-75893332D01*
X141068240Y-75890142D01*
X141108355Y-75866420D01*
X141122524Y-75852249D01*
X141137314Y-75839618D01*
X141153522Y-75827844D01*
X141183234Y-75791926D01*
X141187147Y-75787626D01*
X146608898Y-70365875D01*
X146670219Y-70332392D01*
X146739911Y-70337376D01*
X146795844Y-70379248D01*
X146820261Y-70444712D01*
X146816352Y-70485650D01*
X146762179Y-70687833D01*
X146762176Y-70687846D01*
X146741581Y-70923249D01*
X146741581Y-70923250D01*
X146762176Y-71158653D01*
X146762178Y-71158663D01*
X146823334Y-71386905D01*
X146823336Y-71386909D01*
X146823337Y-71386913D01*
X146880219Y-71508896D01*
X146923205Y-71601080D01*
X146923207Y-71601084D01*
X147058741Y-71794645D01*
X147058746Y-71794652D01*
X147225837Y-71961743D01*
X147225843Y-71961748D01*
X147411398Y-72091675D01*
X147455023Y-72146252D01*
X147462217Y-72215750D01*
X147430694Y-72278105D01*
X147411398Y-72294825D01*
X147225837Y-72424755D01*
X147058745Y-72591847D01*
X146923205Y-72785419D01*
X146923204Y-72785421D01*
X146823338Y-72999585D01*
X146823334Y-72999594D01*
X146762178Y-73227836D01*
X146762176Y-73227846D01*
X146741581Y-73463249D01*
X146741581Y-73463250D01*
X146762176Y-73698653D01*
X146762178Y-73698663D01*
X146823334Y-73926905D01*
X146823336Y-73926909D01*
X146823337Y-73926913D01*
X146837664Y-73957637D01*
X146923205Y-74141080D01*
X146923207Y-74141084D01*
X147058741Y-74334645D01*
X147058746Y-74334652D01*
X147225837Y-74501743D01*
X147225843Y-74501748D01*
X147411398Y-74631675D01*
X147455023Y-74686252D01*
X147462217Y-74755750D01*
X147430694Y-74818105D01*
X147411398Y-74834825D01*
X147225837Y-74964755D01*
X147058745Y-75131847D01*
X146923205Y-75325419D01*
X146923204Y-75325421D01*
X146823338Y-75539585D01*
X146823334Y-75539594D01*
X146762178Y-75767836D01*
X146762176Y-75767846D01*
X146741581Y-76003249D01*
X146741581Y-76003250D01*
X146762176Y-76238653D01*
X146762178Y-76238663D01*
X146823334Y-76466905D01*
X146823336Y-76466909D01*
X146823337Y-76466913D01*
X146906598Y-76645467D01*
X146923205Y-76681080D01*
X146923207Y-76681084D01*
X146989273Y-76775435D01*
X147058741Y-76874646D01*
X147058746Y-76874652D01*
X147225837Y-77041743D01*
X147225843Y-77041748D01*
X147411398Y-77171675D01*
X147455023Y-77226252D01*
X147462217Y-77295750D01*
X147430694Y-77358105D01*
X147411398Y-77374825D01*
X147225837Y-77504755D01*
X147058745Y-77671847D01*
X146923205Y-77865419D01*
X146923204Y-77865421D01*
X146823338Y-78079585D01*
X146823334Y-78079594D01*
X146762178Y-78307836D01*
X146762176Y-78307846D01*
X146751484Y-78430058D01*
X146726031Y-78495127D01*
X146669440Y-78536105D01*
X146627956Y-78543250D01*
X142382240Y-78543250D01*
X142382240Y-89214250D01*
X142362555Y-89281289D01*
X142309751Y-89327044D01*
X142258240Y-89338250D01*
X124466799Y-89338250D01*
X124399760Y-89318565D01*
X124367619Y-89288676D01*
X124350423Y-89265761D01*
X124335855Y-89246347D01*
X123718833Y-88361579D01*
X123132968Y-87455881D01*
X122578967Y-86530347D01*
X122376236Y-86163250D01*
X138936780Y-86163250D01*
X138956566Y-86351506D01*
X138956567Y-86351509D01*
X139015058Y-86531527D01*
X139015061Y-86531534D01*
X139109707Y-86695466D01*
X139236369Y-86836138D01*
X139389505Y-86947398D01*
X139389510Y-86947401D01*
X139562432Y-87024392D01*
X139562437Y-87024394D01*
X139747594Y-87063750D01*
X139747595Y-87063750D01*
X139936884Y-87063750D01*
X139936886Y-87063750D01*
X140122043Y-87024394D01*
X140294970Y-86947401D01*
X140448111Y-86836138D01*
X140574773Y-86695466D01*
X140669419Y-86531534D01*
X140727914Y-86351506D01*
X140747700Y-86163250D01*
X140727914Y-85974994D01*
X140669419Y-85794966D01*
X140574773Y-85631034D01*
X140556933Y-85611221D01*
X140526704Y-85548231D01*
X140535329Y-85478896D01*
X140556934Y-85445278D01*
X140556939Y-85445273D01*
X140574773Y-85425466D01*
X140669419Y-85261534D01*
X140727914Y-85081506D01*
X140747700Y-84893250D01*
X140727914Y-84704994D01*
X140669419Y-84524966D01*
X140574773Y-84361034D01*
X140556933Y-84341221D01*
X140526704Y-84278231D01*
X140535329Y-84208896D01*
X140556934Y-84175278D01*
X140556939Y-84175273D01*
X140574773Y-84155466D01*
X140669419Y-83991534D01*
X140727914Y-83811506D01*
X140747700Y-83623250D01*
X140727914Y-83434994D01*
X140669419Y-83254966D01*
X140574773Y-83091034D01*
X140556933Y-83071221D01*
X140526704Y-83008231D01*
X140535329Y-82938896D01*
X140556934Y-82905278D01*
X140556939Y-82905273D01*
X140574773Y-82885466D01*
X140669419Y-82721534D01*
X140727914Y-82541506D01*
X140747700Y-82353250D01*
X140727914Y-82164994D01*
X140669419Y-81984966D01*
X140574773Y-81821034D01*
X140556933Y-81801221D01*
X140526704Y-81738231D01*
X140535329Y-81668896D01*
X140556934Y-81635278D01*
X140556939Y-81635273D01*
X140574773Y-81615466D01*
X140669419Y-81451534D01*
X140727914Y-81271506D01*
X140747700Y-81083250D01*
X140727914Y-80894994D01*
X140669419Y-80714966D01*
X140574773Y-80551034D01*
X140556933Y-80531221D01*
X140526704Y-80468231D01*
X140535329Y-80398896D01*
X140556934Y-80365278D01*
X140574773Y-80345466D01*
X140669419Y-80181534D01*
X140727914Y-80001506D01*
X140747700Y-79813250D01*
X140727914Y-79624994D01*
X140669419Y-79444966D01*
X140574773Y-79281034D01*
X140556933Y-79261221D01*
X140526704Y-79198231D01*
X140535329Y-79128896D01*
X140556934Y-79095278D01*
X140559173Y-79092791D01*
X140574773Y-79075466D01*
X140669419Y-78911534D01*
X140727914Y-78731506D01*
X140747700Y-78543250D01*
X140727914Y-78354994D01*
X140669419Y-78174966D01*
X140574773Y-78011034D01*
X140556933Y-77991221D01*
X140526704Y-77928231D01*
X140535329Y-77858896D01*
X140556934Y-77825278D01*
X140556935Y-77825277D01*
X140574773Y-77805466D01*
X140669419Y-77641534D01*
X140727914Y-77461506D01*
X140747700Y-77273250D01*
X140727914Y-77084994D01*
X140669419Y-76904966D01*
X140574773Y-76741034D01*
X140448111Y-76600362D01*
X140448110Y-76600361D01*
X140294974Y-76489101D01*
X140294969Y-76489098D01*
X140122047Y-76412107D01*
X140122042Y-76412105D01*
X139976240Y-76381115D01*
X139936886Y-76372750D01*
X139747594Y-76372750D01*
X139715137Y-76379648D01*
X139562437Y-76412105D01*
X139562432Y-76412107D01*
X139389510Y-76489098D01*
X139389505Y-76489101D01*
X139236369Y-76600361D01*
X139109706Y-76741035D01*
X139015061Y-76904965D01*
X139015058Y-76904972D01*
X138956567Y-77084990D01*
X138956566Y-77084994D01*
X138936780Y-77273250D01*
X138956566Y-77461506D01*
X138956567Y-77461509D01*
X139015058Y-77641527D01*
X139015061Y-77641534D01*
X139109707Y-77805466D01*
X139120046Y-77816949D01*
X139127547Y-77825280D01*
X139157775Y-77888272D01*
X139149149Y-77957607D01*
X139127547Y-77991220D01*
X139109706Y-78011035D01*
X139015061Y-78174965D01*
X139015058Y-78174972D01*
X138971885Y-78307846D01*
X138956566Y-78354994D01*
X138936780Y-78543250D01*
X138956566Y-78731506D01*
X138956567Y-78731509D01*
X139015058Y-78911527D01*
X139015061Y-78911534D01*
X139109707Y-79075466D01*
X139120046Y-79086949D01*
X139127547Y-79095280D01*
X139157775Y-79158272D01*
X139149149Y-79227607D01*
X139127547Y-79261220D01*
X139109706Y-79281035D01*
X139015061Y-79444965D01*
X139015058Y-79444972D01*
X138966943Y-79593056D01*
X138956566Y-79624994D01*
X138936780Y-79813250D01*
X138956566Y-80001506D01*
X138956567Y-80001509D01*
X139015058Y-80181527D01*
X139015061Y-80181534D01*
X139109707Y-80345466D01*
X139120046Y-80356949D01*
X139127547Y-80365280D01*
X139157775Y-80428272D01*
X139149149Y-80497607D01*
X139127547Y-80531220D01*
X139109706Y-80551035D01*
X139015061Y-80714965D01*
X139015058Y-80714972D01*
X138974844Y-80838740D01*
X138956566Y-80894994D01*
X138936780Y-81083250D01*
X138956566Y-81271506D01*
X138956567Y-81271509D01*
X139015058Y-81451527D01*
X139015061Y-81451534D01*
X139109707Y-81615466D01*
X139127541Y-81635273D01*
X139127545Y-81635277D01*
X139157775Y-81698268D01*
X139149150Y-81767604D01*
X139127548Y-81801218D01*
X139109706Y-81821034D01*
X139015061Y-81984965D01*
X139015058Y-81984972D01*
X138968876Y-82127107D01*
X138956566Y-82164994D01*
X138936780Y-82353250D01*
X138956566Y-82541506D01*
X138956567Y-82541509D01*
X139015058Y-82721527D01*
X139015061Y-82721534D01*
X139109707Y-82885466D01*
X139120046Y-82896949D01*
X139127547Y-82905280D01*
X139157775Y-82968272D01*
X139149149Y-83037607D01*
X139127547Y-83071220D01*
X139109706Y-83091035D01*
X139015061Y-83254965D01*
X139015058Y-83254972D01*
X138982059Y-83356534D01*
X138956566Y-83434994D01*
X138936780Y-83623250D01*
X138956566Y-83811506D01*
X138956567Y-83811509D01*
X139015058Y-83991527D01*
X139015061Y-83991534D01*
X139109707Y-84155466D01*
X139120046Y-84166949D01*
X139127547Y-84175280D01*
X139157775Y-84238272D01*
X139149149Y-84307607D01*
X139127547Y-84341220D01*
X139109706Y-84361035D01*
X139015061Y-84524965D01*
X139015058Y-84524972D01*
X138956567Y-84704990D01*
X138956566Y-84704994D01*
X138936780Y-84893250D01*
X138956566Y-85081506D01*
X138956567Y-85081509D01*
X139015058Y-85261527D01*
X139015061Y-85261534D01*
X139109707Y-85425466D01*
X139120046Y-85436949D01*
X139127547Y-85445280D01*
X139157775Y-85508272D01*
X139149149Y-85577607D01*
X139127547Y-85611220D01*
X139109706Y-85631035D01*
X139015061Y-85794965D01*
X139015058Y-85794972D01*
X138956567Y-85974990D01*
X138956566Y-85974994D01*
X138936780Y-86163250D01*
X122376236Y-86163250D01*
X122057502Y-85586100D01*
X121569204Y-84624282D01*
X121114664Y-83646058D01*
X120694433Y-82652612D01*
X120309020Y-81645148D01*
X119958890Y-80624884D01*
X119644469Y-79593056D01*
X119366137Y-78550914D01*
X119124230Y-77499720D01*
X118919042Y-76440746D01*
X118888753Y-76248904D01*
X118887240Y-76229612D01*
X118887240Y-75368250D01*
X119886780Y-75368250D01*
X119906566Y-75556506D01*
X119906567Y-75556509D01*
X119965058Y-75736527D01*
X119965061Y-75736534D01*
X120059707Y-75900466D01*
X120162609Y-76014750D01*
X120186369Y-76041138D01*
X120339505Y-76152398D01*
X120339510Y-76152401D01*
X120512432Y-76229392D01*
X120512437Y-76229394D01*
X120697594Y-76268750D01*
X120697595Y-76268750D01*
X120886884Y-76268750D01*
X120886886Y-76268750D01*
X121072043Y-76229394D01*
X121244970Y-76152401D01*
X121398111Y-76041138D01*
X121524773Y-75900466D01*
X121619419Y-75736534D01*
X121677914Y-75556506D01*
X121697700Y-75368250D01*
X123442780Y-75368250D01*
X123462566Y-75556506D01*
X123462567Y-75556509D01*
X123521058Y-75736527D01*
X123521061Y-75736534D01*
X123615707Y-75900466D01*
X123718609Y-76014750D01*
X123742369Y-76041138D01*
X123895505Y-76152398D01*
X123895510Y-76152401D01*
X124068432Y-76229392D01*
X124068437Y-76229394D01*
X124253594Y-76268750D01*
X124253595Y-76268750D01*
X124442884Y-76268750D01*
X124442886Y-76268750D01*
X124628043Y-76229394D01*
X124800970Y-76152401D01*
X124954111Y-76041138D01*
X125080773Y-75900466D01*
X125175419Y-75736534D01*
X125233914Y-75556506D01*
X125253700Y-75368250D01*
X125233914Y-75179994D01*
X125175419Y-74999966D01*
X125080773Y-74836034D01*
X124954111Y-74695362D01*
X124954110Y-74695361D01*
X124800974Y-74584101D01*
X124800969Y-74584098D01*
X124628047Y-74507107D01*
X124628042Y-74507105D01*
X124482240Y-74476115D01*
X124442886Y-74467750D01*
X124253594Y-74467750D01*
X124221137Y-74474648D01*
X124068437Y-74507105D01*
X124068432Y-74507107D01*
X123895510Y-74584098D01*
X123895505Y-74584101D01*
X123742369Y-74695361D01*
X123615706Y-74836035D01*
X123521061Y-74999965D01*
X123521058Y-74999972D01*
X123479147Y-75128963D01*
X123462566Y-75179994D01*
X123442780Y-75368250D01*
X121697700Y-75368250D01*
X121677914Y-75179994D01*
X121619419Y-74999966D01*
X121524773Y-74836034D01*
X121398111Y-74695362D01*
X121398110Y-74695361D01*
X121244974Y-74584101D01*
X121244969Y-74584098D01*
X121072047Y-74507107D01*
X121072042Y-74507105D01*
X120926241Y-74476115D01*
X120886886Y-74467750D01*
X120697594Y-74467750D01*
X120665137Y-74474648D01*
X120512437Y-74507105D01*
X120512432Y-74507107D01*
X120339510Y-74584098D01*
X120339505Y-74584101D01*
X120186369Y-74695361D01*
X120059706Y-74836035D01*
X119965061Y-74999965D01*
X119965058Y-74999972D01*
X119923147Y-75128963D01*
X119906566Y-75179994D01*
X119886780Y-75368250D01*
X118887240Y-75368250D01*
X118887240Y-72193250D01*
X121156780Y-72193250D01*
X121176566Y-72381506D01*
X121176567Y-72381509D01*
X121235058Y-72561527D01*
X121235061Y-72561534D01*
X121329707Y-72725466D01*
X121456369Y-72866137D01*
X121456369Y-72866138D01*
X121609505Y-72977398D01*
X121609510Y-72977401D01*
X121782432Y-73054392D01*
X121782437Y-73054394D01*
X121967594Y-73093750D01*
X121967595Y-73093750D01*
X122156884Y-73093750D01*
X122156886Y-73093750D01*
X122342043Y-73054394D01*
X122514970Y-72977401D01*
X122668111Y-72866138D01*
X122794773Y-72725466D01*
X122889419Y-72561534D01*
X122947914Y-72381506D01*
X122967700Y-72193250D01*
X127506780Y-72193250D01*
X127526566Y-72381506D01*
X127526567Y-72381509D01*
X127585058Y-72561527D01*
X127585061Y-72561534D01*
X127679707Y-72725466D01*
X127806369Y-72866137D01*
X127806369Y-72866138D01*
X127959505Y-72977398D01*
X127959510Y-72977401D01*
X128132432Y-73054392D01*
X128132437Y-73054394D01*
X128317594Y-73093750D01*
X128317595Y-73093750D01*
X128506884Y-73093750D01*
X128506886Y-73093750D01*
X128692043Y-73054394D01*
X128864970Y-72977401D01*
X129018111Y-72866138D01*
X129052226Y-72828250D01*
X134491780Y-72828250D01*
X134511566Y-73016506D01*
X134511567Y-73016509D01*
X134570058Y-73196527D01*
X134570061Y-73196534D01*
X134664707Y-73360466D01*
X134791368Y-73501138D01*
X134791369Y-73501138D01*
X134944505Y-73612398D01*
X134944510Y-73612401D01*
X135117432Y-73689392D01*
X135117437Y-73689394D01*
X135302594Y-73728750D01*
X135302595Y-73728750D01*
X135491884Y-73728750D01*
X135491886Y-73728750D01*
X135677043Y-73689394D01*
X135849970Y-73612401D01*
X136003111Y-73501138D01*
X136129773Y-73360466D01*
X136224419Y-73196534D01*
X136282914Y-73016506D01*
X136302700Y-72828250D01*
X136282914Y-72639994D01*
X136224419Y-72459966D01*
X136129773Y-72296034D01*
X136111933Y-72276221D01*
X136081704Y-72213231D01*
X136090329Y-72143896D01*
X136111934Y-72110278D01*
X136129773Y-72090466D01*
X136224419Y-71926534D01*
X136282914Y-71746506D01*
X136302700Y-71558250D01*
X136282914Y-71369994D01*
X136224419Y-71189966D01*
X136129773Y-71026034D01*
X136111933Y-71006221D01*
X136081704Y-70943231D01*
X136090329Y-70873896D01*
X136111934Y-70840278D01*
X136111937Y-70840275D01*
X136129773Y-70820466D01*
X136224419Y-70656534D01*
X136282914Y-70476506D01*
X136302700Y-70288250D01*
X136282914Y-70099994D01*
X136224419Y-69919966D01*
X136129773Y-69756034D01*
X136111933Y-69736221D01*
X136081704Y-69673231D01*
X136090329Y-69603896D01*
X136111934Y-69570278D01*
X136111937Y-69570275D01*
X136129773Y-69550466D01*
X136224419Y-69386534D01*
X136282914Y-69206506D01*
X136302700Y-69018250D01*
X136282914Y-68829994D01*
X136224419Y-68649966D01*
X136129773Y-68486034D01*
X136111933Y-68466221D01*
X136081704Y-68403231D01*
X136090329Y-68333896D01*
X136111934Y-68300278D01*
X136111937Y-68300275D01*
X136129773Y-68280466D01*
X136224419Y-68116534D01*
X136282914Y-67936506D01*
X136302700Y-67748250D01*
X136282914Y-67559994D01*
X136224419Y-67379966D01*
X136129773Y-67216034D01*
X136111933Y-67196221D01*
X136081704Y-67133231D01*
X136090329Y-67063896D01*
X136111934Y-67030278D01*
X136114353Y-67027591D01*
X136129773Y-67010466D01*
X136224419Y-66846534D01*
X136282914Y-66666506D01*
X136302700Y-66478250D01*
X136282914Y-66289994D01*
X136224419Y-66109966D01*
X136129773Y-65946034D01*
X136111933Y-65926221D01*
X136081704Y-65863231D01*
X136090329Y-65793896D01*
X136111934Y-65760278D01*
X136111937Y-65760275D01*
X136129773Y-65740466D01*
X136224419Y-65576534D01*
X136282914Y-65396506D01*
X136302700Y-65208250D01*
X136282914Y-65019994D01*
X136224419Y-64839966D01*
X136129773Y-64676034D01*
X136111933Y-64656221D01*
X136081704Y-64593231D01*
X136090329Y-64523896D01*
X136111934Y-64490278D01*
X136116796Y-64484878D01*
X136129773Y-64470466D01*
X136224419Y-64306534D01*
X136282914Y-64126506D01*
X136302700Y-63938250D01*
X136282914Y-63749994D01*
X136224419Y-63569966D01*
X136129773Y-63406034D01*
X136003111Y-63265362D01*
X136003110Y-63265361D01*
X135849974Y-63154101D01*
X135849969Y-63154098D01*
X135677047Y-63077107D01*
X135677042Y-63077105D01*
X135531241Y-63046115D01*
X135491886Y-63037750D01*
X135302594Y-63037750D01*
X135270137Y-63044648D01*
X135117437Y-63077105D01*
X135117432Y-63077107D01*
X134944510Y-63154098D01*
X134944505Y-63154101D01*
X134791369Y-63265361D01*
X134664706Y-63406035D01*
X134570061Y-63569965D01*
X134570058Y-63569972D01*
X134511567Y-63749990D01*
X134511566Y-63749994D01*
X134491780Y-63938250D01*
X134511566Y-64126506D01*
X134511567Y-64126509D01*
X134570058Y-64306527D01*
X134570061Y-64306534D01*
X134664707Y-64470466D01*
X134675046Y-64481949D01*
X134682547Y-64490280D01*
X134712775Y-64553272D01*
X134704149Y-64622607D01*
X134682547Y-64656220D01*
X134664706Y-64676035D01*
X134570061Y-64839965D01*
X134570058Y-64839972D01*
X134523876Y-64982107D01*
X134511566Y-65019994D01*
X134500500Y-65125280D01*
X134493740Y-65189606D01*
X134491780Y-65208250D01*
X134511566Y-65396506D01*
X134511567Y-65396509D01*
X134570058Y-65576527D01*
X134570061Y-65576534D01*
X134664707Y-65740466D01*
X134675046Y-65751949D01*
X134682547Y-65760280D01*
X134712775Y-65823272D01*
X134704149Y-65892607D01*
X134682547Y-65926220D01*
X134664706Y-65946035D01*
X134570061Y-66109965D01*
X134570058Y-66109972D01*
X134537059Y-66211534D01*
X134511566Y-66289994D01*
X134491780Y-66478250D01*
X134511566Y-66666506D01*
X134511567Y-66666509D01*
X134570058Y-66846527D01*
X134570061Y-66846534D01*
X134664707Y-67010466D01*
X134673347Y-67020062D01*
X134682547Y-67030280D01*
X134712775Y-67093272D01*
X134704149Y-67162607D01*
X134682547Y-67196220D01*
X134664706Y-67216035D01*
X134570061Y-67379965D01*
X134570058Y-67379972D01*
X134527210Y-67511847D01*
X134511566Y-67559994D01*
X134491780Y-67748250D01*
X134511566Y-67936506D01*
X134511567Y-67936509D01*
X134570058Y-68116527D01*
X134570061Y-68116534D01*
X134664707Y-68280466D01*
X134675046Y-68291949D01*
X134682547Y-68300280D01*
X134712775Y-68363272D01*
X134704149Y-68432607D01*
X134682547Y-68466220D01*
X134664706Y-68486035D01*
X134570061Y-68649965D01*
X134570058Y-68649972D01*
X134537059Y-68751534D01*
X134511566Y-68829994D01*
X134491780Y-69018250D01*
X134511566Y-69206506D01*
X134511567Y-69206509D01*
X134570058Y-69386527D01*
X134570061Y-69386534D01*
X134664707Y-69550466D01*
X134670135Y-69556494D01*
X134682547Y-69570280D01*
X134712775Y-69633272D01*
X134704149Y-69702607D01*
X134682547Y-69736220D01*
X134664706Y-69756035D01*
X134570061Y-69919965D01*
X134570058Y-69919972D01*
X134537059Y-70021534D01*
X134511566Y-70099994D01*
X134491780Y-70288250D01*
X134511566Y-70476506D01*
X134511567Y-70476509D01*
X134570058Y-70656527D01*
X134570061Y-70656534D01*
X134664707Y-70820466D01*
X134675046Y-70831949D01*
X134682547Y-70840280D01*
X134712775Y-70903272D01*
X134704149Y-70972607D01*
X134682547Y-71006220D01*
X134664706Y-71026035D01*
X134570061Y-71189965D01*
X134570058Y-71189972D01*
X134537059Y-71291534D01*
X134511566Y-71369994D01*
X134491780Y-71558250D01*
X134511566Y-71746506D01*
X134511567Y-71746509D01*
X134570058Y-71926527D01*
X134570061Y-71926534D01*
X134664707Y-72090466D01*
X134665796Y-72091675D01*
X134682547Y-72110280D01*
X134712775Y-72173272D01*
X134704149Y-72242607D01*
X134682547Y-72276220D01*
X134664706Y-72296035D01*
X134570061Y-72459965D01*
X134570058Y-72459972D01*
X134537059Y-72561534D01*
X134511566Y-72639994D01*
X134491780Y-72828250D01*
X129052226Y-72828250D01*
X129144773Y-72725466D01*
X129239419Y-72561534D01*
X129297914Y-72381506D01*
X129317700Y-72193250D01*
X129297914Y-72004994D01*
X129239419Y-71824966D01*
X129144773Y-71661034D01*
X129126933Y-71641221D01*
X129096704Y-71578231D01*
X129105329Y-71508896D01*
X129126934Y-71475278D01*
X129126939Y-71475273D01*
X129144773Y-71455466D01*
X129239419Y-71291534D01*
X129297914Y-71111506D01*
X129317700Y-70923250D01*
X129297914Y-70734994D01*
X129239419Y-70554966D01*
X129144773Y-70391034D01*
X129126933Y-70371221D01*
X129096704Y-70308231D01*
X129105329Y-70238896D01*
X129126934Y-70205278D01*
X129126939Y-70205273D01*
X129144773Y-70185466D01*
X129239419Y-70021534D01*
X129297914Y-69841506D01*
X129317700Y-69653250D01*
X129297914Y-69464994D01*
X129239419Y-69284966D01*
X129144773Y-69121034D01*
X129126933Y-69101221D01*
X129096704Y-69038231D01*
X129105329Y-68968896D01*
X129126934Y-68935278D01*
X129126939Y-68935273D01*
X129144773Y-68915466D01*
X129239419Y-68751534D01*
X129297914Y-68571506D01*
X129317700Y-68383250D01*
X129297914Y-68194994D01*
X129239419Y-68014966D01*
X129144773Y-67851034D01*
X129126933Y-67831221D01*
X129096704Y-67768231D01*
X129105329Y-67698896D01*
X129126934Y-67665278D01*
X129126939Y-67665273D01*
X129144773Y-67645466D01*
X129239419Y-67481534D01*
X129297914Y-67301506D01*
X129317700Y-67113250D01*
X129297914Y-66924994D01*
X129239419Y-66744966D01*
X129144773Y-66581034D01*
X129126933Y-66561221D01*
X129096704Y-66498231D01*
X129105329Y-66428896D01*
X129126934Y-66395278D01*
X129126939Y-66395273D01*
X129144773Y-66375466D01*
X129239419Y-66211534D01*
X129297914Y-66031506D01*
X129317700Y-65843250D01*
X129297914Y-65654994D01*
X129239419Y-65474966D01*
X129144773Y-65311034D01*
X129126933Y-65291221D01*
X129096704Y-65228231D01*
X129105329Y-65158896D01*
X129126934Y-65125278D01*
X129126939Y-65125273D01*
X129144773Y-65105466D01*
X129239419Y-64941534D01*
X129297914Y-64761506D01*
X129317700Y-64573250D01*
X129297914Y-64384994D01*
X129239419Y-64204966D01*
X129144773Y-64041034D01*
X129018111Y-63900362D01*
X129018110Y-63900361D01*
X128864974Y-63789101D01*
X128864969Y-63789098D01*
X128692047Y-63712107D01*
X128692042Y-63712105D01*
X128546240Y-63681115D01*
X128506886Y-63672750D01*
X128317594Y-63672750D01*
X128285137Y-63679648D01*
X128132437Y-63712105D01*
X128132432Y-63712107D01*
X127959510Y-63789098D01*
X127959505Y-63789101D01*
X127806369Y-63900361D01*
X127679706Y-64041035D01*
X127585061Y-64204965D01*
X127585058Y-64204972D01*
X127552059Y-64306534D01*
X127526566Y-64384994D01*
X127506780Y-64573250D01*
X127526566Y-64761506D01*
X127526567Y-64761509D01*
X127585058Y-64941527D01*
X127585061Y-64941534D01*
X127679707Y-65105466D01*
X127697541Y-65125273D01*
X127697545Y-65125277D01*
X127727775Y-65188268D01*
X127719150Y-65257604D01*
X127697548Y-65291218D01*
X127679706Y-65311034D01*
X127585061Y-65474965D01*
X127585058Y-65474972D01*
X127552059Y-65576534D01*
X127526566Y-65654994D01*
X127506780Y-65843250D01*
X127526566Y-66031506D01*
X127526567Y-66031509D01*
X127585058Y-66211527D01*
X127585061Y-66211534D01*
X127679707Y-66375466D01*
X127697541Y-66395273D01*
X127697545Y-66395277D01*
X127727775Y-66458268D01*
X127719150Y-66527604D01*
X127697548Y-66561218D01*
X127679706Y-66581034D01*
X127585061Y-66744965D01*
X127585058Y-66744972D01*
X127530822Y-66911894D01*
X127526566Y-66924994D01*
X127515500Y-67030280D01*
X127507191Y-67109344D01*
X127506780Y-67113250D01*
X127526566Y-67301506D01*
X127526567Y-67301509D01*
X127585058Y-67481527D01*
X127585061Y-67481534D01*
X127679707Y-67645466D01*
X127690046Y-67656949D01*
X127697547Y-67665280D01*
X127727775Y-67728272D01*
X127719149Y-67797607D01*
X127697547Y-67831220D01*
X127679706Y-67851035D01*
X127585061Y-68014965D01*
X127585058Y-68014972D01*
X127541885Y-68147846D01*
X127526566Y-68194994D01*
X127506780Y-68383250D01*
X127526566Y-68571506D01*
X127526567Y-68571509D01*
X127585058Y-68751527D01*
X127585061Y-68751534D01*
X127679707Y-68915466D01*
X127690046Y-68926949D01*
X127697547Y-68935280D01*
X127727775Y-68998272D01*
X127719149Y-69067607D01*
X127697547Y-69101220D01*
X127679706Y-69121035D01*
X127585061Y-69284965D01*
X127585058Y-69284972D01*
X127552059Y-69386534D01*
X127526566Y-69464994D01*
X127506780Y-69653250D01*
X127526566Y-69841506D01*
X127526567Y-69841509D01*
X127585058Y-70021527D01*
X127585061Y-70021534D01*
X127679707Y-70185466D01*
X127690046Y-70196949D01*
X127697547Y-70205280D01*
X127727775Y-70268272D01*
X127719149Y-70337607D01*
X127697547Y-70371220D01*
X127679706Y-70391035D01*
X127585061Y-70554965D01*
X127585058Y-70554972D01*
X127541885Y-70687846D01*
X127526566Y-70734994D01*
X127506780Y-70923250D01*
X127526566Y-71111506D01*
X127526567Y-71111509D01*
X127585058Y-71291527D01*
X127585061Y-71291534D01*
X127679707Y-71455466D01*
X127697541Y-71475273D01*
X127697545Y-71475277D01*
X127727775Y-71538268D01*
X127719150Y-71607604D01*
X127697548Y-71641218D01*
X127679706Y-71661034D01*
X127585061Y-71824965D01*
X127585058Y-71824972D01*
X127526567Y-72004990D01*
X127526566Y-72004994D01*
X127506780Y-72193250D01*
X122967700Y-72193250D01*
X122947914Y-72004994D01*
X122889419Y-71824966D01*
X122794773Y-71661034D01*
X122776933Y-71641221D01*
X122746704Y-71578231D01*
X122755329Y-71508896D01*
X122776934Y-71475278D01*
X122776939Y-71475273D01*
X122794773Y-71455466D01*
X122889419Y-71291534D01*
X122947914Y-71111506D01*
X122967700Y-70923250D01*
X124331780Y-70923250D01*
X124351566Y-71111506D01*
X124351567Y-71111509D01*
X124410058Y-71291527D01*
X124410061Y-71291534D01*
X124504707Y-71455466D01*
X124631369Y-71596138D01*
X124784505Y-71707398D01*
X124784510Y-71707401D01*
X124957432Y-71784392D01*
X124957437Y-71784394D01*
X125142594Y-71823750D01*
X125142595Y-71823750D01*
X125331884Y-71823750D01*
X125331886Y-71823750D01*
X125517043Y-71784394D01*
X125689970Y-71707401D01*
X125843111Y-71596138D01*
X125969773Y-71455466D01*
X126064419Y-71291534D01*
X126122914Y-71111506D01*
X126142700Y-70923250D01*
X126122914Y-70734994D01*
X126064419Y-70554966D01*
X125969773Y-70391034D01*
X125951933Y-70371221D01*
X125921704Y-70308231D01*
X125930329Y-70238896D01*
X125951934Y-70205278D01*
X125951939Y-70205273D01*
X125969773Y-70185466D01*
X126064419Y-70021534D01*
X126122914Y-69841506D01*
X126142700Y-69653250D01*
X126122914Y-69464994D01*
X126064419Y-69284966D01*
X125969773Y-69121034D01*
X125951933Y-69101221D01*
X125921704Y-69038231D01*
X125930329Y-68968896D01*
X125951934Y-68935278D01*
X125951939Y-68935273D01*
X125969773Y-68915466D01*
X126064419Y-68751534D01*
X126122914Y-68571506D01*
X126142700Y-68383250D01*
X126122914Y-68194994D01*
X126064419Y-68014966D01*
X125969773Y-67851034D01*
X125951933Y-67831221D01*
X125921704Y-67768231D01*
X125930329Y-67698896D01*
X125951934Y-67665278D01*
X125951939Y-67665273D01*
X125969773Y-67645466D01*
X126064419Y-67481534D01*
X126122914Y-67301506D01*
X126142700Y-67113250D01*
X126122914Y-66924994D01*
X126064419Y-66744966D01*
X125969773Y-66581034D01*
X125951933Y-66561221D01*
X125921704Y-66498231D01*
X125930329Y-66428896D01*
X125951934Y-66395278D01*
X125951939Y-66395273D01*
X125969773Y-66375466D01*
X126064419Y-66211534D01*
X126122914Y-66031506D01*
X126142700Y-65843250D01*
X126122914Y-65654994D01*
X126064419Y-65474966D01*
X125969773Y-65311034D01*
X125843111Y-65170362D01*
X125843110Y-65170361D01*
X125689974Y-65059101D01*
X125689969Y-65059098D01*
X125517047Y-64982107D01*
X125517042Y-64982105D01*
X125371240Y-64951115D01*
X125331886Y-64942750D01*
X125142594Y-64942750D01*
X125110137Y-64949648D01*
X124957437Y-64982105D01*
X124957432Y-64982107D01*
X124784510Y-65059098D01*
X124784505Y-65059101D01*
X124631369Y-65170361D01*
X124504706Y-65311035D01*
X124410061Y-65474965D01*
X124410058Y-65474972D01*
X124377059Y-65576534D01*
X124351566Y-65654994D01*
X124331780Y-65843250D01*
X124351566Y-66031506D01*
X124351567Y-66031509D01*
X124410058Y-66211527D01*
X124410061Y-66211534D01*
X124504707Y-66375466D01*
X124522541Y-66395273D01*
X124522545Y-66395277D01*
X124552775Y-66458268D01*
X124544150Y-66527604D01*
X124522548Y-66561218D01*
X124504706Y-66581034D01*
X124410061Y-66744965D01*
X124410058Y-66744972D01*
X124355822Y-66911894D01*
X124351566Y-66924994D01*
X124331780Y-67113250D01*
X124351566Y-67301506D01*
X124351567Y-67301509D01*
X124410058Y-67481527D01*
X124410061Y-67481534D01*
X124504707Y-67645466D01*
X124515046Y-67656949D01*
X124522547Y-67665280D01*
X124552775Y-67728272D01*
X124544149Y-67797607D01*
X124522547Y-67831220D01*
X124504706Y-67851035D01*
X124410061Y-68014965D01*
X124410058Y-68014972D01*
X124366885Y-68147846D01*
X124351566Y-68194994D01*
X124331780Y-68383250D01*
X124351566Y-68571506D01*
X124351567Y-68571509D01*
X124410058Y-68751527D01*
X124410061Y-68751534D01*
X124504707Y-68915466D01*
X124515046Y-68926949D01*
X124522547Y-68935280D01*
X124552775Y-68998272D01*
X124544149Y-69067607D01*
X124522547Y-69101220D01*
X124504706Y-69121035D01*
X124410061Y-69284965D01*
X124410058Y-69284972D01*
X124377059Y-69386534D01*
X124351566Y-69464994D01*
X124331780Y-69653250D01*
X124351566Y-69841506D01*
X124351567Y-69841509D01*
X124410058Y-70021527D01*
X124410061Y-70021534D01*
X124504707Y-70185466D01*
X124515046Y-70196949D01*
X124522547Y-70205280D01*
X124552775Y-70268272D01*
X124544149Y-70337607D01*
X124522547Y-70371220D01*
X124504706Y-70391035D01*
X124410061Y-70554965D01*
X124410058Y-70554972D01*
X124366885Y-70687846D01*
X124351566Y-70734994D01*
X124331780Y-70923250D01*
X122967700Y-70923250D01*
X122947914Y-70734994D01*
X122889419Y-70554966D01*
X122794773Y-70391034D01*
X122776933Y-70371221D01*
X122746704Y-70308231D01*
X122755329Y-70238896D01*
X122776934Y-70205278D01*
X122776939Y-70205273D01*
X122794773Y-70185466D01*
X122889419Y-70021534D01*
X122947914Y-69841506D01*
X122967700Y-69653250D01*
X122947914Y-69464994D01*
X122889419Y-69284966D01*
X122794773Y-69121034D01*
X122776933Y-69101221D01*
X122746704Y-69038231D01*
X122755329Y-68968896D01*
X122776934Y-68935278D01*
X122776939Y-68935273D01*
X122794773Y-68915466D01*
X122889419Y-68751534D01*
X122947914Y-68571506D01*
X122967700Y-68383250D01*
X122947914Y-68194994D01*
X122889419Y-68014966D01*
X122794773Y-67851034D01*
X122776933Y-67831221D01*
X122746704Y-67768231D01*
X122755329Y-67698896D01*
X122776934Y-67665278D01*
X122776939Y-67665273D01*
X122794773Y-67645466D01*
X122889419Y-67481534D01*
X122947914Y-67301506D01*
X122967700Y-67113250D01*
X122947914Y-66924994D01*
X122889419Y-66744966D01*
X122794773Y-66581034D01*
X122776933Y-66561221D01*
X122746704Y-66498231D01*
X122755329Y-66428896D01*
X122776934Y-66395278D01*
X122776939Y-66395273D01*
X122794773Y-66375466D01*
X122889419Y-66211534D01*
X122947914Y-66031506D01*
X122967700Y-65843250D01*
X122947914Y-65654994D01*
X122889419Y-65474966D01*
X122794773Y-65311034D01*
X122776933Y-65291221D01*
X122746704Y-65228231D01*
X122755329Y-65158896D01*
X122776934Y-65125278D01*
X122776939Y-65125273D01*
X122794773Y-65105466D01*
X122889419Y-64941534D01*
X122947914Y-64761506D01*
X122967700Y-64573250D01*
X122947914Y-64384994D01*
X122889419Y-64204966D01*
X122794773Y-64041034D01*
X122668111Y-63900362D01*
X122668110Y-63900361D01*
X122514974Y-63789101D01*
X122514969Y-63789098D01*
X122342047Y-63712107D01*
X122342042Y-63712105D01*
X122196241Y-63681115D01*
X122156886Y-63672750D01*
X121967594Y-63672750D01*
X121935137Y-63679648D01*
X121782437Y-63712105D01*
X121782432Y-63712107D01*
X121609510Y-63789098D01*
X121609505Y-63789101D01*
X121456369Y-63900361D01*
X121329706Y-64041035D01*
X121235061Y-64204965D01*
X121235058Y-64204972D01*
X121202059Y-64306534D01*
X121176566Y-64384994D01*
X121156780Y-64573250D01*
X121176566Y-64761506D01*
X121176567Y-64761509D01*
X121235058Y-64941527D01*
X121235061Y-64941534D01*
X121329707Y-65105466D01*
X121340046Y-65116949D01*
X121347547Y-65125280D01*
X121377775Y-65188272D01*
X121369149Y-65257607D01*
X121347547Y-65291220D01*
X121329706Y-65311035D01*
X121235061Y-65474965D01*
X121235058Y-65474972D01*
X121202059Y-65576534D01*
X121176566Y-65654994D01*
X121156780Y-65843250D01*
X121176566Y-66031506D01*
X121176567Y-66031509D01*
X121235058Y-66211527D01*
X121235061Y-66211534D01*
X121329707Y-66375466D01*
X121347541Y-66395273D01*
X121347545Y-66395277D01*
X121377775Y-66458268D01*
X121369150Y-66527604D01*
X121347548Y-66561218D01*
X121329706Y-66581034D01*
X121235061Y-66744965D01*
X121235058Y-66744972D01*
X121180822Y-66911894D01*
X121176566Y-66924994D01*
X121165500Y-67030280D01*
X121157191Y-67109344D01*
X121156780Y-67113250D01*
X121176566Y-67301506D01*
X121176567Y-67301509D01*
X121235058Y-67481527D01*
X121235061Y-67481534D01*
X121329707Y-67645466D01*
X121340046Y-67656949D01*
X121347547Y-67665280D01*
X121377775Y-67728272D01*
X121369149Y-67797607D01*
X121347547Y-67831220D01*
X121329706Y-67851035D01*
X121235061Y-68014965D01*
X121235058Y-68014972D01*
X121191885Y-68147846D01*
X121176566Y-68194994D01*
X121156780Y-68383250D01*
X121176566Y-68571506D01*
X121176567Y-68571509D01*
X121235058Y-68751527D01*
X121235061Y-68751534D01*
X121329707Y-68915466D01*
X121340046Y-68926949D01*
X121347547Y-68935280D01*
X121377775Y-68998272D01*
X121369149Y-69067607D01*
X121347547Y-69101220D01*
X121329706Y-69121035D01*
X121235061Y-69284965D01*
X121235058Y-69284972D01*
X121202059Y-69386534D01*
X121176566Y-69464994D01*
X121156780Y-69653250D01*
X121176566Y-69841506D01*
X121176567Y-69841509D01*
X121235058Y-70021527D01*
X121235061Y-70021534D01*
X121329707Y-70185466D01*
X121340046Y-70196949D01*
X121347547Y-70205280D01*
X121377775Y-70268272D01*
X121369149Y-70337607D01*
X121347547Y-70371220D01*
X121329706Y-70391035D01*
X121235061Y-70554965D01*
X121235058Y-70554972D01*
X121191885Y-70687846D01*
X121176566Y-70734994D01*
X121156780Y-70923250D01*
X121176566Y-71111506D01*
X121176567Y-71111509D01*
X121235058Y-71291527D01*
X121235061Y-71291534D01*
X121329707Y-71455466D01*
X121340046Y-71466949D01*
X121347547Y-71475280D01*
X121377775Y-71538272D01*
X121369149Y-71607607D01*
X121347547Y-71641220D01*
X121329706Y-71661035D01*
X121235061Y-71824965D01*
X121235058Y-71824972D01*
X121176567Y-72004990D01*
X121176566Y-72004994D01*
X121156780Y-72193250D01*
X118887240Y-72193250D01*
X118887240Y-65927680D01*
X118888835Y-65907864D01*
X118943547Y-65570236D01*
X119159438Y-64484878D01*
X119413930Y-63407918D01*
X119706700Y-62340728D01*
X120037373Y-61284667D01*
X120405529Y-60241081D01*
X120810698Y-59211301D01*
X121240781Y-58223250D01*
X122536826Y-58223250D01*
X122556472Y-58648184D01*
X122556472Y-58648190D01*
X122556473Y-58648193D01*
X122615241Y-59069490D01*
X122615243Y-59069498D01*
X122712634Y-59483578D01*
X122847816Y-59886911D01*
X122847823Y-59886929D01*
X123019633Y-60276041D01*
X123019638Y-60276051D01*
X123019642Y-60276060D01*
X123019646Y-60276068D01*
X123019647Y-60276069D01*
X123226633Y-60647680D01*
X123226636Y-60647684D01*
X123226638Y-60647688D01*
X123467040Y-60998632D01*
X123467042Y-60998634D01*
X123467049Y-60998644D01*
X123675027Y-61249101D01*
X123738798Y-61325897D01*
X124039593Y-61626692D01*
X124039604Y-61626701D01*
X124366845Y-61898440D01*
X124366851Y-61898444D01*
X124366858Y-61898450D01*
X124717802Y-62138852D01*
X125089430Y-62345848D01*
X125089447Y-62345855D01*
X125089448Y-62345856D01*
X125478560Y-62517666D01*
X125478578Y-62517673D01*
X125610051Y-62561737D01*
X125881909Y-62652855D01*
X126295997Y-62750248D01*
X126717306Y-62809018D01*
X127142240Y-62828664D01*
X127567174Y-62809018D01*
X127988483Y-62750248D01*
X128402571Y-62652855D01*
X128805907Y-62517671D01*
X128805913Y-62517668D01*
X128805919Y-62517666D01*
X129068933Y-62401534D01*
X129195050Y-62345848D01*
X129566678Y-62138852D01*
X129720838Y-62033250D01*
X136396780Y-62033250D01*
X136416566Y-62221506D01*
X136416567Y-62221509D01*
X136475058Y-62401527D01*
X136475061Y-62401534D01*
X136569707Y-62565466D01*
X136667240Y-62673787D01*
X136696369Y-62706138D01*
X136849505Y-62817398D01*
X136849510Y-62817401D01*
X137022432Y-62894392D01*
X137022437Y-62894394D01*
X137207594Y-62933750D01*
X137207595Y-62933750D01*
X137396884Y-62933750D01*
X137396886Y-62933750D01*
X137582043Y-62894394D01*
X137754970Y-62817401D01*
X137864357Y-62737926D01*
X137930160Y-62714448D01*
X137998214Y-62730273D01*
X138010111Y-62737918D01*
X138107969Y-62809016D01*
X138119510Y-62817401D01*
X138292432Y-62894392D01*
X138292437Y-62894394D01*
X138477594Y-62933750D01*
X138477595Y-62933750D01*
X138666884Y-62933750D01*
X138666886Y-62933750D01*
X138852043Y-62894394D01*
X139024970Y-62817401D01*
X139134357Y-62737926D01*
X139200160Y-62714448D01*
X139268214Y-62730273D01*
X139280111Y-62737918D01*
X139377969Y-62809016D01*
X139389510Y-62817401D01*
X139562432Y-62894392D01*
X139562437Y-62894394D01*
X139747594Y-62933750D01*
X139747595Y-62933750D01*
X139936884Y-62933750D01*
X139936886Y-62933750D01*
X140122043Y-62894394D01*
X140294970Y-62817401D01*
X140404357Y-62737926D01*
X140470160Y-62714448D01*
X140538214Y-62730273D01*
X140550111Y-62737918D01*
X140647969Y-62809016D01*
X140659510Y-62817401D01*
X140832432Y-62894392D01*
X140832437Y-62894394D01*
X141017594Y-62933750D01*
X141017595Y-62933750D01*
X141206884Y-62933750D01*
X141206886Y-62933750D01*
X141392043Y-62894394D01*
X141564970Y-62817401D01*
X141674357Y-62737926D01*
X141740160Y-62714448D01*
X141808214Y-62730273D01*
X141820111Y-62737918D01*
X141917969Y-62809016D01*
X141929510Y-62817401D01*
X142102432Y-62894392D01*
X142102437Y-62894394D01*
X142287594Y-62933750D01*
X142287595Y-62933750D01*
X142476884Y-62933750D01*
X142476886Y-62933750D01*
X142662043Y-62894394D01*
X142834970Y-62817401D01*
X142944357Y-62737926D01*
X143010160Y-62714448D01*
X143078214Y-62730273D01*
X143090111Y-62737918D01*
X143187969Y-62809016D01*
X143199510Y-62817401D01*
X143372432Y-62894392D01*
X143372437Y-62894394D01*
X143557594Y-62933750D01*
X143557595Y-62933750D01*
X143746884Y-62933750D01*
X143746886Y-62933750D01*
X143932043Y-62894394D01*
X144104970Y-62817401D01*
X144214357Y-62737926D01*
X144280160Y-62714448D01*
X144348214Y-62730273D01*
X144360111Y-62737918D01*
X144457969Y-62809016D01*
X144469510Y-62817401D01*
X144642432Y-62894392D01*
X144642437Y-62894394D01*
X144827594Y-62933750D01*
X144827595Y-62933750D01*
X145016884Y-62933750D01*
X145016886Y-62933750D01*
X145202043Y-62894394D01*
X145374970Y-62817401D01*
X145484357Y-62737926D01*
X145550160Y-62714448D01*
X145618214Y-62730273D01*
X145630111Y-62737918D01*
X145727969Y-62809016D01*
X145739510Y-62817401D01*
X145912432Y-62894392D01*
X145912437Y-62894394D01*
X146097594Y-62933750D01*
X146097595Y-62933750D01*
X146286884Y-62933750D01*
X146286886Y-62933750D01*
X146472043Y-62894394D01*
X146644970Y-62817401D01*
X146798111Y-62706138D01*
X146924773Y-62565466D01*
X147019419Y-62401534D01*
X147077914Y-62221506D01*
X147097700Y-62033250D01*
X147077914Y-61844994D01*
X147019419Y-61664966D01*
X146924773Y-61501034D01*
X146798111Y-61360362D01*
X146786672Y-61352051D01*
X146644974Y-61249101D01*
X146644969Y-61249098D01*
X146472047Y-61172107D01*
X146472042Y-61172105D01*
X146326240Y-61141115D01*
X146286886Y-61132750D01*
X146097594Y-61132750D01*
X146065137Y-61139648D01*
X145912437Y-61172105D01*
X145912432Y-61172107D01*
X145739510Y-61249098D01*
X145739505Y-61249101D01*
X145630125Y-61328571D01*
X145564319Y-61352051D01*
X145496265Y-61336225D01*
X145484355Y-61328571D01*
X145374974Y-61249101D01*
X145374969Y-61249098D01*
X145202047Y-61172107D01*
X145202042Y-61172105D01*
X145056241Y-61141115D01*
X145016886Y-61132750D01*
X144827594Y-61132750D01*
X144795137Y-61139648D01*
X144642437Y-61172105D01*
X144642432Y-61172107D01*
X144469510Y-61249098D01*
X144469505Y-61249101D01*
X144360125Y-61328571D01*
X144294319Y-61352051D01*
X144226265Y-61336225D01*
X144214355Y-61328571D01*
X144104974Y-61249101D01*
X144104969Y-61249098D01*
X143932047Y-61172107D01*
X143932042Y-61172105D01*
X143786241Y-61141115D01*
X143746886Y-61132750D01*
X143557594Y-61132750D01*
X143525137Y-61139648D01*
X143372437Y-61172105D01*
X143372432Y-61172107D01*
X143199510Y-61249098D01*
X143199505Y-61249101D01*
X143090125Y-61328571D01*
X143024319Y-61352051D01*
X142956265Y-61336225D01*
X142944355Y-61328571D01*
X142834974Y-61249101D01*
X142834969Y-61249098D01*
X142662047Y-61172107D01*
X142662042Y-61172105D01*
X142516240Y-61141115D01*
X142476886Y-61132750D01*
X142287594Y-61132750D01*
X142255137Y-61139648D01*
X142102437Y-61172105D01*
X142102432Y-61172107D01*
X141929510Y-61249098D01*
X141929505Y-61249101D01*
X141820125Y-61328571D01*
X141754319Y-61352051D01*
X141686265Y-61336225D01*
X141674355Y-61328571D01*
X141564974Y-61249101D01*
X141564969Y-61249098D01*
X141392047Y-61172107D01*
X141392042Y-61172105D01*
X141246241Y-61141115D01*
X141206886Y-61132750D01*
X141017594Y-61132750D01*
X140985137Y-61139648D01*
X140832437Y-61172105D01*
X140832432Y-61172107D01*
X140659510Y-61249098D01*
X140659505Y-61249101D01*
X140550125Y-61328571D01*
X140484319Y-61352051D01*
X140416265Y-61336225D01*
X140404355Y-61328571D01*
X140294974Y-61249101D01*
X140294969Y-61249098D01*
X140122047Y-61172107D01*
X140122042Y-61172105D01*
X139976240Y-61141115D01*
X139936886Y-61132750D01*
X139747594Y-61132750D01*
X139715137Y-61139648D01*
X139562437Y-61172105D01*
X139562432Y-61172107D01*
X139389510Y-61249098D01*
X139389505Y-61249101D01*
X139280125Y-61328571D01*
X139214319Y-61352051D01*
X139146265Y-61336225D01*
X139134355Y-61328571D01*
X139024974Y-61249101D01*
X139024969Y-61249098D01*
X138852047Y-61172107D01*
X138852042Y-61172105D01*
X138706240Y-61141115D01*
X138666886Y-61132750D01*
X138477594Y-61132750D01*
X138445137Y-61139648D01*
X138292437Y-61172105D01*
X138292432Y-61172107D01*
X138119510Y-61249098D01*
X138119505Y-61249101D01*
X138010125Y-61328571D01*
X137944319Y-61352051D01*
X137876265Y-61336225D01*
X137864355Y-61328571D01*
X137754974Y-61249101D01*
X137754969Y-61249098D01*
X137582047Y-61172107D01*
X137582042Y-61172105D01*
X137436240Y-61141115D01*
X137396886Y-61132750D01*
X137207594Y-61132750D01*
X137175137Y-61139648D01*
X137022437Y-61172105D01*
X137022432Y-61172107D01*
X136849510Y-61249098D01*
X136849505Y-61249101D01*
X136696369Y-61360361D01*
X136569706Y-61501035D01*
X136475061Y-61664965D01*
X136475058Y-61664972D01*
X136428876Y-61807107D01*
X136416566Y-61844994D01*
X136396780Y-62033250D01*
X129720838Y-62033250D01*
X129917622Y-61898450D01*
X130244887Y-61626692D01*
X130545682Y-61325897D01*
X130817440Y-60998632D01*
X131057842Y-60647688D01*
X131264838Y-60276060D01*
X131350633Y-60081750D01*
X147826780Y-60081750D01*
X147846566Y-60270006D01*
X147846567Y-60270009D01*
X147905058Y-60450027D01*
X147905061Y-60450034D01*
X147999707Y-60613966D01*
X148030069Y-60647686D01*
X148126369Y-60754638D01*
X148279505Y-60865898D01*
X148279510Y-60865901D01*
X148452432Y-60942892D01*
X148452437Y-60942894D01*
X148637594Y-60982250D01*
X148637595Y-60982250D01*
X148826884Y-60982250D01*
X148826886Y-60982250D01*
X149012043Y-60942894D01*
X149184970Y-60865901D01*
X149184974Y-60865898D01*
X149189803Y-60863748D01*
X149259053Y-60854462D01*
X149290677Y-60863748D01*
X149295505Y-60865898D01*
X149295510Y-60865901D01*
X149468437Y-60942894D01*
X149653594Y-60982250D01*
X149653595Y-60982250D01*
X149842881Y-60982250D01*
X149842886Y-60982250D01*
X149845763Y-60981638D01*
X149847467Y-60981768D01*
X149849343Y-60981571D01*
X149849379Y-60981913D01*
X149915427Y-60986946D01*
X149971165Y-61029076D01*
X149995278Y-61094653D01*
X149980109Y-61162857D01*
X149978942Y-61164923D01*
X149937062Y-61237463D01*
X149937058Y-61237472D01*
X149897129Y-61360362D01*
X149878566Y-61417494D01*
X149858780Y-61605750D01*
X149878566Y-61794006D01*
X149878567Y-61794009D01*
X149937058Y-61974027D01*
X149937061Y-61974034D01*
X150031707Y-62137966D01*
X150106927Y-62221506D01*
X150158369Y-62278638D01*
X150311505Y-62389898D01*
X150311510Y-62389901D01*
X150484432Y-62466892D01*
X150484437Y-62466894D01*
X150669594Y-62506250D01*
X150669595Y-62506250D01*
X150858884Y-62506250D01*
X150858886Y-62506250D01*
X151044043Y-62466894D01*
X151216970Y-62389901D01*
X151355737Y-62289080D01*
X151421540Y-62265602D01*
X151489594Y-62281427D01*
X151538289Y-62331533D01*
X151552165Y-62400011D01*
X151546551Y-62427717D01*
X151529567Y-62479989D01*
X151529567Y-62479990D01*
X151529566Y-62479994D01*
X151509780Y-62668250D01*
X151529566Y-62856506D01*
X151529567Y-62856509D01*
X151588058Y-63036527D01*
X151588061Y-63036534D01*
X151682707Y-63200466D01*
X151780240Y-63308787D01*
X151809369Y-63341138D01*
X151962505Y-63452398D01*
X151962510Y-63452401D01*
X152135432Y-63529392D01*
X152135437Y-63529394D01*
X152320594Y-63568750D01*
X152320595Y-63568750D01*
X152509884Y-63568750D01*
X152509886Y-63568750D01*
X152695043Y-63529394D01*
X152867970Y-63452401D01*
X153021111Y-63341138D01*
X153021589Y-63340606D01*
X153021942Y-63340388D01*
X153025946Y-63336785D01*
X153026604Y-63337516D01*
X153081076Y-63303959D01*
X153150933Y-63305288D01*
X153200951Y-63337432D01*
X153201534Y-63336785D01*
X153205500Y-63340356D01*
X153205891Y-63340607D01*
X153206369Y-63341138D01*
X153206370Y-63341139D01*
X153359505Y-63452398D01*
X153359510Y-63452401D01*
X153532432Y-63529392D01*
X153532437Y-63529394D01*
X153717594Y-63568750D01*
X153717595Y-63568750D01*
X153906884Y-63568750D01*
X153906886Y-63568750D01*
X154092043Y-63529394D01*
X154264970Y-63452401D01*
X154374357Y-63372926D01*
X154440160Y-63349448D01*
X154508214Y-63365273D01*
X154520111Y-63372918D01*
X154629506Y-63452398D01*
X154629510Y-63452401D01*
X154802432Y-63529392D01*
X154802437Y-63529394D01*
X154987594Y-63568750D01*
X154987595Y-63568750D01*
X155176884Y-63568750D01*
X155176886Y-63568750D01*
X155362043Y-63529394D01*
X155534970Y-63452401D01*
X155644357Y-63372926D01*
X155710160Y-63349448D01*
X155778214Y-63365273D01*
X155790111Y-63372918D01*
X155899506Y-63452398D01*
X155899510Y-63452401D01*
X156072432Y-63529392D01*
X156072437Y-63529394D01*
X156257594Y-63568750D01*
X156257595Y-63568750D01*
X156446884Y-63568750D01*
X156446886Y-63568750D01*
X156632043Y-63529394D01*
X156804970Y-63452401D01*
X156914357Y-63372926D01*
X156980160Y-63349448D01*
X157048214Y-63365273D01*
X157060111Y-63372918D01*
X157169506Y-63452398D01*
X157169510Y-63452401D01*
X157342432Y-63529392D01*
X157342437Y-63529394D01*
X157527594Y-63568750D01*
X157527595Y-63568750D01*
X157716884Y-63568750D01*
X157716886Y-63568750D01*
X157902043Y-63529394D01*
X158074970Y-63452401D01*
X158184358Y-63372926D01*
X158250159Y-63349448D01*
X158318213Y-63365273D01*
X158330124Y-63372928D01*
X158439505Y-63452398D01*
X158439510Y-63452401D01*
X158612432Y-63529392D01*
X158612437Y-63529394D01*
X158797594Y-63568750D01*
X158797595Y-63568750D01*
X158986884Y-63568750D01*
X158986886Y-63568750D01*
X159172043Y-63529394D01*
X159344970Y-63452401D01*
X159454357Y-63372926D01*
X159520160Y-63349448D01*
X159588214Y-63365273D01*
X159600111Y-63372918D01*
X159709506Y-63452398D01*
X159709510Y-63452401D01*
X159882432Y-63529392D01*
X159882437Y-63529394D01*
X160067594Y-63568750D01*
X160067595Y-63568750D01*
X160256884Y-63568750D01*
X160256886Y-63568750D01*
X160442043Y-63529394D01*
X160614970Y-63452401D01*
X160724357Y-63372926D01*
X160790160Y-63349448D01*
X160858214Y-63365273D01*
X160870111Y-63372918D01*
X160979506Y-63452398D01*
X160979510Y-63452401D01*
X161152432Y-63529392D01*
X161152437Y-63529394D01*
X161337594Y-63568750D01*
X161337595Y-63568750D01*
X161526884Y-63568750D01*
X161526886Y-63568750D01*
X161691234Y-63533817D01*
X161760901Y-63539133D01*
X161816635Y-63581270D01*
X161840740Y-63646850D01*
X161834946Y-63693424D01*
X161816567Y-63749989D01*
X161816567Y-63749990D01*
X161816566Y-63749994D01*
X161796780Y-63938250D01*
X161816566Y-64126506D01*
X161816567Y-64126509D01*
X161875058Y-64306527D01*
X161875061Y-64306534D01*
X161969707Y-64470466D01*
X161980046Y-64481949D01*
X161987547Y-64490280D01*
X162017775Y-64553272D01*
X162009149Y-64622607D01*
X161987547Y-64656220D01*
X161969706Y-64676035D01*
X161875061Y-64839965D01*
X161875058Y-64839972D01*
X161828876Y-64982107D01*
X161816566Y-65019994D01*
X161805500Y-65125280D01*
X161798740Y-65189606D01*
X161796780Y-65208250D01*
X161816566Y-65396506D01*
X161816567Y-65396509D01*
X161875058Y-65576527D01*
X161875061Y-65576534D01*
X161969707Y-65740466D01*
X161987543Y-65760275D01*
X161987545Y-65760277D01*
X162017775Y-65823268D01*
X162009150Y-65892604D01*
X161987548Y-65926218D01*
X161969706Y-65946034D01*
X161875061Y-66109965D01*
X161875058Y-66109972D01*
X161842059Y-66211534D01*
X161816566Y-66289994D01*
X161796780Y-66478250D01*
X161816566Y-66666506D01*
X161816567Y-66666509D01*
X161875058Y-66846527D01*
X161875061Y-66846534D01*
X161969707Y-67010466D01*
X161978347Y-67020062D01*
X161987547Y-67030280D01*
X162017775Y-67093272D01*
X162009149Y-67162607D01*
X161987547Y-67196220D01*
X161969706Y-67216035D01*
X161875061Y-67379965D01*
X161875058Y-67379972D01*
X161832210Y-67511847D01*
X161816566Y-67559994D01*
X161796780Y-67748250D01*
X161816566Y-67936506D01*
X161816567Y-67936509D01*
X161875058Y-68116527D01*
X161875061Y-68116534D01*
X161969707Y-68280466D01*
X161980046Y-68291949D01*
X161987547Y-68300280D01*
X162017775Y-68363272D01*
X162009149Y-68432607D01*
X161987547Y-68466220D01*
X161969706Y-68486035D01*
X161875061Y-68649965D01*
X161875058Y-68649972D01*
X161842059Y-68751534D01*
X161816566Y-68829994D01*
X161796780Y-69018250D01*
X161816566Y-69206506D01*
X161816567Y-69206509D01*
X161875058Y-69386527D01*
X161875061Y-69386534D01*
X161969707Y-69550466D01*
X161975135Y-69556494D01*
X161987547Y-69570280D01*
X162017775Y-69633272D01*
X162009149Y-69702607D01*
X161987547Y-69736220D01*
X161969706Y-69756035D01*
X161875061Y-69919965D01*
X161875058Y-69919972D01*
X161842059Y-70021534D01*
X161816566Y-70099994D01*
X161796780Y-70288250D01*
X161816566Y-70476506D01*
X161816567Y-70476509D01*
X161875058Y-70656527D01*
X161875061Y-70656534D01*
X161969707Y-70820466D01*
X161980046Y-70831949D01*
X161987547Y-70840280D01*
X162017775Y-70903272D01*
X162009149Y-70972607D01*
X161987547Y-71006220D01*
X161969706Y-71026035D01*
X161875061Y-71189965D01*
X161875058Y-71189972D01*
X161842059Y-71291534D01*
X161816566Y-71369994D01*
X161796780Y-71558250D01*
X161816566Y-71746506D01*
X161816567Y-71746509D01*
X161875058Y-71926527D01*
X161875061Y-71926534D01*
X161969707Y-72090466D01*
X161970796Y-72091675D01*
X161987547Y-72110280D01*
X162017775Y-72173272D01*
X162009149Y-72242607D01*
X161987547Y-72276220D01*
X161969706Y-72296035D01*
X161875061Y-72459965D01*
X161875058Y-72459972D01*
X161842059Y-72561534D01*
X161816566Y-72639994D01*
X161796780Y-72828250D01*
X161816566Y-73016506D01*
X161816567Y-73016509D01*
X161875058Y-73196527D01*
X161875061Y-73196534D01*
X161969707Y-73360466D01*
X162096368Y-73501138D01*
X162096369Y-73501138D01*
X162249505Y-73612398D01*
X162249510Y-73612401D01*
X162422432Y-73689392D01*
X162422437Y-73689394D01*
X162607594Y-73728750D01*
X162607595Y-73728750D01*
X162796884Y-73728750D01*
X162796886Y-73728750D01*
X162982043Y-73689394D01*
X163154970Y-73612401D01*
X163308111Y-73501138D01*
X163434773Y-73360466D01*
X163529419Y-73196534D01*
X163587914Y-73016506D01*
X163607700Y-72828250D01*
X163587914Y-72639994D01*
X163529419Y-72459966D01*
X163434773Y-72296034D01*
X163416933Y-72276221D01*
X163386704Y-72213231D01*
X163389190Y-72193250D01*
X169416780Y-72193250D01*
X169436566Y-72381506D01*
X169436567Y-72381509D01*
X169495058Y-72561527D01*
X169495061Y-72561534D01*
X169589707Y-72725466D01*
X169716369Y-72866137D01*
X169716369Y-72866138D01*
X169869505Y-72977398D01*
X169869510Y-72977401D01*
X170042432Y-73054392D01*
X170042437Y-73054394D01*
X170227594Y-73093750D01*
X170227595Y-73093750D01*
X170416884Y-73093750D01*
X170416886Y-73093750D01*
X170602043Y-73054394D01*
X170774970Y-72977401D01*
X170928111Y-72866138D01*
X171054773Y-72725466D01*
X171149419Y-72561534D01*
X171207914Y-72381506D01*
X171227700Y-72193250D01*
X175766780Y-72193250D01*
X175786566Y-72381506D01*
X175786567Y-72381509D01*
X175845058Y-72561527D01*
X175845061Y-72561534D01*
X175939707Y-72725466D01*
X176066368Y-72866137D01*
X176066369Y-72866138D01*
X176219505Y-72977398D01*
X176219510Y-72977401D01*
X176392432Y-73054392D01*
X176392437Y-73054394D01*
X176577594Y-73093750D01*
X176577595Y-73093750D01*
X176766884Y-73093750D01*
X176766886Y-73093750D01*
X176952043Y-73054394D01*
X177124970Y-72977401D01*
X177278111Y-72866138D01*
X177404773Y-72725466D01*
X177499419Y-72561534D01*
X177557914Y-72381506D01*
X177577700Y-72193250D01*
X177557914Y-72004994D01*
X177499419Y-71824966D01*
X177404773Y-71661034D01*
X177386931Y-71641218D01*
X177356703Y-71578230D01*
X177365328Y-71508895D01*
X177386933Y-71475278D01*
X177404773Y-71455466D01*
X177499419Y-71291534D01*
X177557914Y-71111506D01*
X177577700Y-70923250D01*
X177557914Y-70734994D01*
X177499419Y-70554966D01*
X177404773Y-70391034D01*
X177386931Y-70371218D01*
X177356703Y-70308230D01*
X177365328Y-70238895D01*
X177386933Y-70205278D01*
X177404773Y-70185466D01*
X177499419Y-70021534D01*
X177557914Y-69841506D01*
X177577700Y-69653250D01*
X177557914Y-69464994D01*
X177499419Y-69284966D01*
X177404773Y-69121034D01*
X177386931Y-69101218D01*
X177356703Y-69038230D01*
X177365328Y-68968895D01*
X177386933Y-68935278D01*
X177404773Y-68915466D01*
X177499419Y-68751534D01*
X177557914Y-68571506D01*
X177577700Y-68383250D01*
X177557914Y-68194994D01*
X177499419Y-68014966D01*
X177404773Y-67851034D01*
X177386931Y-67831218D01*
X177356703Y-67768230D01*
X177365328Y-67698895D01*
X177386933Y-67665278D01*
X177404773Y-67645466D01*
X177499419Y-67481534D01*
X177557914Y-67301506D01*
X177577700Y-67113250D01*
X177557914Y-66924994D01*
X177499419Y-66744966D01*
X177404773Y-66581034D01*
X177386931Y-66561218D01*
X177356703Y-66498230D01*
X177365328Y-66428895D01*
X177386933Y-66395278D01*
X177404773Y-66375466D01*
X177499419Y-66211534D01*
X177557914Y-66031506D01*
X177577700Y-65843250D01*
X177557914Y-65654994D01*
X177499419Y-65474966D01*
X177404773Y-65311034D01*
X177386931Y-65291218D01*
X177356703Y-65228230D01*
X177365328Y-65158895D01*
X177386933Y-65125278D01*
X177404773Y-65105466D01*
X177499419Y-64941534D01*
X177557914Y-64761506D01*
X177577700Y-64573250D01*
X177557914Y-64384994D01*
X177499419Y-64204966D01*
X177404773Y-64041034D01*
X177278111Y-63900362D01*
X177278110Y-63900361D01*
X177124974Y-63789101D01*
X177124969Y-63789098D01*
X176952047Y-63712107D01*
X176952042Y-63712105D01*
X176806240Y-63681115D01*
X176766886Y-63672750D01*
X176577594Y-63672750D01*
X176545137Y-63679648D01*
X176392437Y-63712105D01*
X176392432Y-63712107D01*
X176219510Y-63789098D01*
X176219505Y-63789101D01*
X176066369Y-63900361D01*
X175939706Y-64041035D01*
X175845061Y-64204965D01*
X175845058Y-64204972D01*
X175812059Y-64306534D01*
X175786566Y-64384994D01*
X175766780Y-64573250D01*
X175786566Y-64761506D01*
X175786567Y-64761509D01*
X175845058Y-64941527D01*
X175845061Y-64941534D01*
X175939707Y-65105466D01*
X175956434Y-65124043D01*
X175957545Y-65125277D01*
X175987775Y-65188268D01*
X175979150Y-65257604D01*
X175957548Y-65291218D01*
X175939708Y-65311032D01*
X175939704Y-65311037D01*
X175845061Y-65474965D01*
X175845058Y-65474972D01*
X175812059Y-65576534D01*
X175786566Y-65654994D01*
X175766780Y-65843250D01*
X175786566Y-66031506D01*
X175786567Y-66031509D01*
X175845058Y-66211527D01*
X175845061Y-66211534D01*
X175939707Y-66375466D01*
X175956434Y-66394043D01*
X175957545Y-66395277D01*
X175987775Y-66458268D01*
X175979150Y-66527604D01*
X175957548Y-66561218D01*
X175939708Y-66581032D01*
X175939704Y-66581037D01*
X175845061Y-66744965D01*
X175845058Y-66744972D01*
X175790822Y-66911894D01*
X175786566Y-66924994D01*
X175766780Y-67113250D01*
X175786566Y-67301506D01*
X175786567Y-67301509D01*
X175845058Y-67481527D01*
X175845061Y-67481534D01*
X175939707Y-67645466D01*
X175956434Y-67664043D01*
X175957545Y-67665277D01*
X175987775Y-67728268D01*
X175979150Y-67797604D01*
X175957548Y-67831218D01*
X175939708Y-67851032D01*
X175939704Y-67851037D01*
X175845061Y-68014965D01*
X175845058Y-68014972D01*
X175801885Y-68147846D01*
X175786566Y-68194994D01*
X175766780Y-68383250D01*
X175786566Y-68571506D01*
X175786567Y-68571509D01*
X175845058Y-68751527D01*
X175845061Y-68751534D01*
X175939707Y-68915466D01*
X175956434Y-68934043D01*
X175957545Y-68935277D01*
X175987775Y-68998268D01*
X175979150Y-69067604D01*
X175957548Y-69101218D01*
X175939708Y-69121032D01*
X175939704Y-69121037D01*
X175845061Y-69284965D01*
X175845058Y-69284972D01*
X175812059Y-69386534D01*
X175786566Y-69464994D01*
X175766780Y-69653250D01*
X175786566Y-69841506D01*
X175786567Y-69841509D01*
X175845058Y-70021527D01*
X175845061Y-70021534D01*
X175939707Y-70185466D01*
X175956434Y-70204043D01*
X175957545Y-70205277D01*
X175987775Y-70268268D01*
X175979150Y-70337604D01*
X175957548Y-70371218D01*
X175939708Y-70391032D01*
X175939704Y-70391037D01*
X175845061Y-70554965D01*
X175845058Y-70554972D01*
X175801885Y-70687846D01*
X175786566Y-70734994D01*
X175766780Y-70923250D01*
X175786566Y-71111506D01*
X175786567Y-71111509D01*
X175845058Y-71291527D01*
X175845061Y-71291534D01*
X175939707Y-71455466D01*
X175956434Y-71474043D01*
X175957545Y-71475277D01*
X175987775Y-71538268D01*
X175979150Y-71607604D01*
X175957548Y-71641218D01*
X175939708Y-71661032D01*
X175939704Y-71661037D01*
X175845061Y-71824965D01*
X175845058Y-71824972D01*
X175786567Y-72004990D01*
X175786566Y-72004994D01*
X175766780Y-72193250D01*
X171227700Y-72193250D01*
X171207914Y-72004994D01*
X171149419Y-71824966D01*
X171054773Y-71661034D01*
X171036931Y-71641218D01*
X171006703Y-71578230D01*
X171015328Y-71508895D01*
X171036933Y-71475278D01*
X171054773Y-71455466D01*
X171149419Y-71291534D01*
X171207914Y-71111506D01*
X171227700Y-70923250D01*
X172591780Y-70923250D01*
X172611566Y-71111506D01*
X172611567Y-71111509D01*
X172670058Y-71291527D01*
X172670061Y-71291534D01*
X172764707Y-71455466D01*
X172891369Y-71596138D01*
X173044505Y-71707398D01*
X173044510Y-71707401D01*
X173217432Y-71784392D01*
X173217437Y-71784394D01*
X173402594Y-71823750D01*
X173402595Y-71823750D01*
X173591884Y-71823750D01*
X173591886Y-71823750D01*
X173777043Y-71784394D01*
X173949970Y-71707401D01*
X174103111Y-71596138D01*
X174229773Y-71455466D01*
X174324419Y-71291534D01*
X174382914Y-71111506D01*
X174402700Y-70923250D01*
X174382914Y-70734994D01*
X174324419Y-70554966D01*
X174229773Y-70391034D01*
X174211931Y-70371218D01*
X174181703Y-70308230D01*
X174190328Y-70238895D01*
X174211933Y-70205278D01*
X174229773Y-70185466D01*
X174324419Y-70021534D01*
X174382914Y-69841506D01*
X174402700Y-69653250D01*
X174382914Y-69464994D01*
X174324419Y-69284966D01*
X174229773Y-69121034D01*
X174211931Y-69101218D01*
X174181703Y-69038230D01*
X174190328Y-68968895D01*
X174211933Y-68935278D01*
X174229773Y-68915466D01*
X174324419Y-68751534D01*
X174382914Y-68571506D01*
X174402700Y-68383250D01*
X174382914Y-68194994D01*
X174324419Y-68014966D01*
X174229773Y-67851034D01*
X174211931Y-67831218D01*
X174181703Y-67768230D01*
X174190328Y-67698895D01*
X174211933Y-67665278D01*
X174229773Y-67645466D01*
X174324419Y-67481534D01*
X174382914Y-67301506D01*
X174402700Y-67113250D01*
X174382914Y-66924994D01*
X174324419Y-66744966D01*
X174229773Y-66581034D01*
X174211931Y-66561218D01*
X174181703Y-66498230D01*
X174190328Y-66428895D01*
X174211933Y-66395278D01*
X174229773Y-66375466D01*
X174324419Y-66211534D01*
X174382914Y-66031506D01*
X174402700Y-65843250D01*
X174382914Y-65654994D01*
X174324419Y-65474966D01*
X174229773Y-65311034D01*
X174103111Y-65170362D01*
X174103110Y-65170361D01*
X173949974Y-65059101D01*
X173949969Y-65059098D01*
X173777047Y-64982107D01*
X173777042Y-64982105D01*
X173631241Y-64951115D01*
X173591886Y-64942750D01*
X173402594Y-64942750D01*
X173370137Y-64949648D01*
X173217437Y-64982105D01*
X173217432Y-64982107D01*
X173044510Y-65059098D01*
X173044505Y-65059101D01*
X172891369Y-65170361D01*
X172764706Y-65311035D01*
X172670061Y-65474965D01*
X172670058Y-65474972D01*
X172637059Y-65576534D01*
X172611566Y-65654994D01*
X172591780Y-65843250D01*
X172611566Y-66031506D01*
X172611567Y-66031509D01*
X172670058Y-66211527D01*
X172670061Y-66211534D01*
X172764707Y-66375466D01*
X172782541Y-66395273D01*
X172782545Y-66395277D01*
X172812775Y-66458268D01*
X172804150Y-66527604D01*
X172782548Y-66561218D01*
X172764706Y-66581034D01*
X172670061Y-66744965D01*
X172670058Y-66744972D01*
X172615822Y-66911894D01*
X172611566Y-66924994D01*
X172600500Y-67030280D01*
X172592191Y-67109344D01*
X172591780Y-67113250D01*
X172611566Y-67301506D01*
X172611567Y-67301509D01*
X172670058Y-67481527D01*
X172670061Y-67481534D01*
X172764707Y-67645466D01*
X172781434Y-67664043D01*
X172782545Y-67665277D01*
X172812775Y-67728268D01*
X172804150Y-67797604D01*
X172782548Y-67831218D01*
X172764708Y-67851032D01*
X172764704Y-67851037D01*
X172670061Y-68014965D01*
X172670058Y-68014972D01*
X172626885Y-68147846D01*
X172611566Y-68194994D01*
X172591780Y-68383250D01*
X172611566Y-68571506D01*
X172611567Y-68571509D01*
X172670058Y-68751527D01*
X172670061Y-68751534D01*
X172764707Y-68915466D01*
X172781434Y-68934043D01*
X172782545Y-68935277D01*
X172812775Y-68998268D01*
X172804150Y-69067604D01*
X172782548Y-69101218D01*
X172764708Y-69121032D01*
X172764704Y-69121037D01*
X172670061Y-69284965D01*
X172670058Y-69284972D01*
X172637059Y-69386534D01*
X172611566Y-69464994D01*
X172591780Y-69653250D01*
X172611566Y-69841506D01*
X172611567Y-69841509D01*
X172670058Y-70021527D01*
X172670061Y-70021534D01*
X172764707Y-70185466D01*
X172781434Y-70204043D01*
X172782545Y-70205277D01*
X172812775Y-70268268D01*
X172804150Y-70337604D01*
X172782548Y-70371218D01*
X172764708Y-70391032D01*
X172764704Y-70391037D01*
X172670061Y-70554965D01*
X172670058Y-70554972D01*
X172626885Y-70687846D01*
X172611566Y-70734994D01*
X172591780Y-70923250D01*
X171227700Y-70923250D01*
X171207914Y-70734994D01*
X171149419Y-70554966D01*
X171054773Y-70391034D01*
X171036931Y-70371218D01*
X171006703Y-70308230D01*
X171015328Y-70238895D01*
X171036933Y-70205278D01*
X171054773Y-70185466D01*
X171149419Y-70021534D01*
X171207914Y-69841506D01*
X171227700Y-69653250D01*
X171207914Y-69464994D01*
X171149419Y-69284966D01*
X171054773Y-69121034D01*
X171036931Y-69101218D01*
X171006703Y-69038230D01*
X171015328Y-68968895D01*
X171036933Y-68935278D01*
X171054773Y-68915466D01*
X171149419Y-68751534D01*
X171207914Y-68571506D01*
X171227700Y-68383250D01*
X171207914Y-68194994D01*
X171149419Y-68014966D01*
X171054773Y-67851034D01*
X171036933Y-67831221D01*
X171006704Y-67768231D01*
X171015329Y-67698896D01*
X171036934Y-67665278D01*
X171036939Y-67665273D01*
X171054773Y-67645466D01*
X171149419Y-67481534D01*
X171207914Y-67301506D01*
X171227700Y-67113250D01*
X171207914Y-66924994D01*
X171149419Y-66744966D01*
X171054773Y-66581034D01*
X171036933Y-66561221D01*
X171006704Y-66498231D01*
X171015329Y-66428896D01*
X171036934Y-66395278D01*
X171036939Y-66395273D01*
X171054773Y-66375466D01*
X171149419Y-66211534D01*
X171207914Y-66031506D01*
X171227700Y-65843250D01*
X171207914Y-65654994D01*
X171149419Y-65474966D01*
X171054773Y-65311034D01*
X171036933Y-65291221D01*
X171006704Y-65228231D01*
X171015329Y-65158896D01*
X171036934Y-65125278D01*
X171036939Y-65125273D01*
X171054773Y-65105466D01*
X171149419Y-64941534D01*
X171207914Y-64761506D01*
X171227700Y-64573250D01*
X171207914Y-64384994D01*
X171149419Y-64204966D01*
X171054773Y-64041034D01*
X170928111Y-63900362D01*
X170928110Y-63900361D01*
X170774974Y-63789101D01*
X170774969Y-63789098D01*
X170602047Y-63712107D01*
X170602042Y-63712105D01*
X170456241Y-63681115D01*
X170416886Y-63672750D01*
X170227594Y-63672750D01*
X170195137Y-63679648D01*
X170042437Y-63712105D01*
X170042432Y-63712107D01*
X169869510Y-63789098D01*
X169869505Y-63789101D01*
X169716369Y-63900361D01*
X169589706Y-64041035D01*
X169495061Y-64204965D01*
X169495058Y-64204972D01*
X169462059Y-64306534D01*
X169436566Y-64384994D01*
X169416780Y-64573250D01*
X169436566Y-64761506D01*
X169436567Y-64761509D01*
X169495058Y-64941527D01*
X169495061Y-64941534D01*
X169589707Y-65105466D01*
X169607541Y-65125273D01*
X169607545Y-65125277D01*
X169637775Y-65188268D01*
X169629150Y-65257604D01*
X169607548Y-65291218D01*
X169589706Y-65311034D01*
X169495061Y-65474965D01*
X169495058Y-65474972D01*
X169462059Y-65576534D01*
X169436566Y-65654994D01*
X169416780Y-65843250D01*
X169436566Y-66031506D01*
X169436567Y-66031509D01*
X169495058Y-66211527D01*
X169495061Y-66211534D01*
X169589707Y-66375466D01*
X169600046Y-66386949D01*
X169607547Y-66395280D01*
X169637775Y-66458272D01*
X169629149Y-66527607D01*
X169607547Y-66561220D01*
X169589706Y-66581035D01*
X169495061Y-66744965D01*
X169495058Y-66744972D01*
X169440822Y-66911894D01*
X169436566Y-66924994D01*
X169416780Y-67113250D01*
X169436566Y-67301506D01*
X169436567Y-67301509D01*
X169495058Y-67481527D01*
X169495061Y-67481534D01*
X169589707Y-67645466D01*
X169600046Y-67656949D01*
X169607547Y-67665280D01*
X169637775Y-67728272D01*
X169629149Y-67797607D01*
X169607547Y-67831220D01*
X169589706Y-67851035D01*
X169495061Y-68014965D01*
X169495058Y-68014972D01*
X169451885Y-68147846D01*
X169436566Y-68194994D01*
X169416780Y-68383250D01*
X169436566Y-68571506D01*
X169436567Y-68571509D01*
X169495058Y-68751527D01*
X169495061Y-68751534D01*
X169589707Y-68915466D01*
X169600046Y-68926949D01*
X169607547Y-68935280D01*
X169637775Y-68998272D01*
X169629149Y-69067607D01*
X169607547Y-69101220D01*
X169589706Y-69121035D01*
X169495061Y-69284965D01*
X169495058Y-69284972D01*
X169462059Y-69386534D01*
X169436566Y-69464994D01*
X169416780Y-69653250D01*
X169436566Y-69841506D01*
X169436567Y-69841509D01*
X169495058Y-70021527D01*
X169495061Y-70021534D01*
X169589707Y-70185466D01*
X169600046Y-70196949D01*
X169607547Y-70205280D01*
X169637775Y-70268272D01*
X169629149Y-70337607D01*
X169607547Y-70371220D01*
X169589706Y-70391035D01*
X169495061Y-70554965D01*
X169495058Y-70554972D01*
X169451885Y-70687846D01*
X169436566Y-70734994D01*
X169416780Y-70923250D01*
X169436566Y-71111506D01*
X169436567Y-71111509D01*
X169495058Y-71291527D01*
X169495061Y-71291534D01*
X169589707Y-71455466D01*
X169606434Y-71474043D01*
X169607545Y-71475277D01*
X169637775Y-71538268D01*
X169629150Y-71607604D01*
X169607548Y-71641218D01*
X169589708Y-71661032D01*
X169589704Y-71661037D01*
X169495061Y-71824965D01*
X169495058Y-71824972D01*
X169436567Y-72004990D01*
X169436566Y-72004994D01*
X169416780Y-72193250D01*
X163389190Y-72193250D01*
X163395329Y-72143896D01*
X163416934Y-72110278D01*
X163434773Y-72090466D01*
X163529419Y-71926534D01*
X163587914Y-71746506D01*
X163607700Y-71558250D01*
X163587914Y-71369994D01*
X163529419Y-71189966D01*
X163434773Y-71026034D01*
X163416933Y-71006220D01*
X163386704Y-70943228D01*
X163395330Y-70873892D01*
X163416934Y-70840277D01*
X163434773Y-70820466D01*
X163529419Y-70656534D01*
X163587914Y-70476506D01*
X163607700Y-70288250D01*
X163587914Y-70099994D01*
X163529419Y-69919966D01*
X163434773Y-69756034D01*
X163428633Y-69749215D01*
X163416933Y-69736220D01*
X163386704Y-69673228D01*
X163395330Y-69603892D01*
X163416934Y-69570277D01*
X163434773Y-69550466D01*
X163529419Y-69386534D01*
X163587914Y-69206506D01*
X163607700Y-69018250D01*
X163587914Y-68829994D01*
X163529419Y-68649966D01*
X163434773Y-68486034D01*
X163416933Y-68466220D01*
X163386704Y-68403228D01*
X163395330Y-68333892D01*
X163416934Y-68300277D01*
X163434773Y-68280466D01*
X163529419Y-68116534D01*
X163587914Y-67936506D01*
X163607700Y-67748250D01*
X163587914Y-67559994D01*
X163529419Y-67379966D01*
X163434773Y-67216034D01*
X163428632Y-67209214D01*
X163416933Y-67196220D01*
X163386704Y-67133228D01*
X163395330Y-67063892D01*
X163416934Y-67030277D01*
X163434773Y-67010466D01*
X163529419Y-66846534D01*
X163587914Y-66666506D01*
X163607700Y-66478250D01*
X163587914Y-66289994D01*
X163529419Y-66109966D01*
X163434773Y-65946034D01*
X163416933Y-65926220D01*
X163386704Y-65863228D01*
X163395330Y-65793892D01*
X163416934Y-65760277D01*
X163434773Y-65740466D01*
X163529419Y-65576534D01*
X163587914Y-65396506D01*
X163607700Y-65208250D01*
X163587914Y-65019994D01*
X163529419Y-64839966D01*
X163434773Y-64676034D01*
X163416933Y-64656220D01*
X163386704Y-64593228D01*
X163395330Y-64523892D01*
X163416934Y-64490277D01*
X163434773Y-64470466D01*
X163529419Y-64306534D01*
X163587914Y-64126506D01*
X163607700Y-63938250D01*
X163587914Y-63749994D01*
X163529419Y-63569966D01*
X163434773Y-63406034D01*
X163308111Y-63265362D01*
X163308110Y-63265361D01*
X163154974Y-63154101D01*
X163154969Y-63154098D01*
X162982047Y-63077107D01*
X162982042Y-63077105D01*
X162836240Y-63046115D01*
X162796886Y-63037750D01*
X162607594Y-63037750D01*
X162493388Y-63062024D01*
X162443244Y-63072683D01*
X162373577Y-63067366D01*
X162317844Y-63025228D01*
X162293739Y-62959648D01*
X162299534Y-62913072D01*
X162305603Y-62894394D01*
X162317914Y-62856506D01*
X162337700Y-62668250D01*
X162317914Y-62479994D01*
X162259419Y-62299966D01*
X162164773Y-62136034D01*
X162038111Y-61995362D01*
X162023735Y-61984917D01*
X161884974Y-61884101D01*
X161884969Y-61884098D01*
X161712047Y-61807107D01*
X161712042Y-61807105D01*
X161566240Y-61776115D01*
X161526886Y-61767750D01*
X161337594Y-61767750D01*
X161305137Y-61774648D01*
X161152437Y-61807105D01*
X161152432Y-61807107D01*
X160979510Y-61884098D01*
X160979505Y-61884101D01*
X160870125Y-61963571D01*
X160804319Y-61987051D01*
X160736265Y-61971225D01*
X160724355Y-61963571D01*
X160614974Y-61884101D01*
X160614969Y-61884098D01*
X160442047Y-61807107D01*
X160442042Y-61807105D01*
X160296241Y-61776115D01*
X160256886Y-61767750D01*
X160067594Y-61767750D01*
X160035137Y-61774648D01*
X159882437Y-61807105D01*
X159882432Y-61807107D01*
X159709510Y-61884098D01*
X159709505Y-61884101D01*
X159600125Y-61963571D01*
X159534319Y-61987051D01*
X159466265Y-61971225D01*
X159454355Y-61963571D01*
X159344974Y-61884101D01*
X159344969Y-61884098D01*
X159172047Y-61807107D01*
X159172042Y-61807105D01*
X159026240Y-61776115D01*
X158986886Y-61767750D01*
X158797594Y-61767750D01*
X158765137Y-61774648D01*
X158612437Y-61807105D01*
X158612432Y-61807107D01*
X158439510Y-61884098D01*
X158439505Y-61884101D01*
X158330125Y-61963571D01*
X158264319Y-61987051D01*
X158196265Y-61971225D01*
X158184355Y-61963571D01*
X158074974Y-61884101D01*
X158074969Y-61884098D01*
X157902047Y-61807107D01*
X157902042Y-61807105D01*
X157756241Y-61776115D01*
X157716886Y-61767750D01*
X157527594Y-61767750D01*
X157495137Y-61774648D01*
X157342437Y-61807105D01*
X157342432Y-61807107D01*
X157169510Y-61884098D01*
X157169505Y-61884101D01*
X157060125Y-61963571D01*
X156994319Y-61987051D01*
X156926265Y-61971225D01*
X156914355Y-61963571D01*
X156804974Y-61884101D01*
X156804969Y-61884098D01*
X156632047Y-61807107D01*
X156632042Y-61807105D01*
X156486240Y-61776115D01*
X156446886Y-61767750D01*
X156257594Y-61767750D01*
X156225137Y-61774648D01*
X156072437Y-61807105D01*
X156072432Y-61807107D01*
X155899511Y-61884098D01*
X155790124Y-61963572D01*
X155724317Y-61987051D01*
X155656263Y-61971225D01*
X155644363Y-61963578D01*
X155534970Y-61884099D01*
X155534969Y-61884098D01*
X155362047Y-61807107D01*
X155362042Y-61807105D01*
X155216241Y-61776115D01*
X155176886Y-61767750D01*
X154987594Y-61767750D01*
X154955137Y-61774648D01*
X154802437Y-61807105D01*
X154802432Y-61807107D01*
X154629510Y-61884098D01*
X154629505Y-61884101D01*
X154520125Y-61963571D01*
X154454319Y-61987051D01*
X154386265Y-61971225D01*
X154374355Y-61963571D01*
X154264974Y-61884101D01*
X154264969Y-61884098D01*
X154092047Y-61807107D01*
X154092042Y-61807105D01*
X153946240Y-61776115D01*
X153906886Y-61767750D01*
X153717594Y-61767750D01*
X153685137Y-61774648D01*
X153532437Y-61807105D01*
X153532432Y-61807107D01*
X153359510Y-61884098D01*
X153359505Y-61884101D01*
X153206375Y-61995356D01*
X153206365Y-61995365D01*
X153205882Y-61995902D01*
X153205525Y-61996121D01*
X153201545Y-61999706D01*
X153200888Y-61998977D01*
X153146392Y-62032545D01*
X153076535Y-62031208D01*
X153026514Y-61999061D01*
X153025935Y-61999706D01*
X153021991Y-61996154D01*
X153021598Y-61995902D01*
X153021114Y-61995365D01*
X153021104Y-61995356D01*
X152867974Y-61884101D01*
X152867969Y-61884098D01*
X152695047Y-61807107D01*
X152695042Y-61807105D01*
X152549241Y-61776115D01*
X152509886Y-61767750D01*
X152320594Y-61767750D01*
X152288137Y-61774648D01*
X152135437Y-61807105D01*
X152135432Y-61807107D01*
X151962510Y-61884098D01*
X151962505Y-61884101D01*
X151823744Y-61984917D01*
X151757938Y-62008397D01*
X151689884Y-61992571D01*
X151641189Y-61942465D01*
X151627314Y-61873987D01*
X151632925Y-61846290D01*
X151649914Y-61794006D01*
X151669700Y-61605750D01*
X151649914Y-61417494D01*
X151591419Y-61237466D01*
X151496773Y-61073534D01*
X151370111Y-60932862D01*
X151370110Y-60932861D01*
X151365762Y-60928032D01*
X151367612Y-60926366D01*
X151336837Y-60876417D01*
X151338165Y-60806560D01*
X151367451Y-60760989D01*
X151365762Y-60759468D01*
X151370111Y-60754638D01*
X151496773Y-60613966D01*
X151591419Y-60450034D01*
X151649914Y-60270006D01*
X151669700Y-60081750D01*
X151649914Y-59893494D01*
X151591419Y-59713466D01*
X151496773Y-59549534D01*
X151370111Y-59408862D01*
X151370110Y-59408861D01*
X151216974Y-59297601D01*
X151216969Y-59297598D01*
X151044047Y-59220607D01*
X151044042Y-59220605D01*
X150898240Y-59189615D01*
X150858886Y-59181250D01*
X150669594Y-59181250D01*
X150637137Y-59188148D01*
X150484437Y-59220605D01*
X150484432Y-59220607D01*
X150306676Y-59299751D01*
X150237426Y-59309036D01*
X150205804Y-59299751D01*
X150028047Y-59220607D01*
X150028042Y-59220605D01*
X149882240Y-59189615D01*
X149842886Y-59181250D01*
X149653594Y-59181250D01*
X149621137Y-59188148D01*
X149468437Y-59220605D01*
X149468432Y-59220607D01*
X149290676Y-59299751D01*
X149221426Y-59309036D01*
X149189804Y-59299751D01*
X149012047Y-59220607D01*
X149012042Y-59220605D01*
X148866240Y-59189615D01*
X148826886Y-59181250D01*
X148637594Y-59181250D01*
X148605137Y-59188148D01*
X148452437Y-59220605D01*
X148452432Y-59220607D01*
X148279510Y-59297598D01*
X148279505Y-59297601D01*
X148126369Y-59408861D01*
X147999706Y-59549535D01*
X147905061Y-59713465D01*
X147905058Y-59713472D01*
X147848705Y-59886911D01*
X147846566Y-59893494D01*
X147826780Y-60081750D01*
X131350633Y-60081750D01*
X131362090Y-60055802D01*
X131436656Y-59886929D01*
X131436663Y-59886911D01*
X131571845Y-59483581D01*
X131669238Y-59069493D01*
X131728008Y-58648184D01*
X131747654Y-58223250D01*
X166986826Y-58223250D01*
X167006472Y-58648184D01*
X167006472Y-58648190D01*
X167006473Y-58648193D01*
X167065241Y-59069490D01*
X167065243Y-59069498D01*
X167162634Y-59483578D01*
X167297816Y-59886911D01*
X167297823Y-59886929D01*
X167469633Y-60276041D01*
X167469638Y-60276051D01*
X167469642Y-60276060D01*
X167469646Y-60276068D01*
X167469647Y-60276069D01*
X167676633Y-60647680D01*
X167676636Y-60647684D01*
X167676638Y-60647688D01*
X167917040Y-60998632D01*
X167917042Y-60998634D01*
X167917049Y-60998644D01*
X168125027Y-61249101D01*
X168188798Y-61325897D01*
X168489593Y-61626692D01*
X168489604Y-61626701D01*
X168816845Y-61898440D01*
X168816851Y-61898444D01*
X168816858Y-61898450D01*
X169167802Y-62138852D01*
X169539430Y-62345848D01*
X169539447Y-62345855D01*
X169539448Y-62345856D01*
X169928560Y-62517666D01*
X169928578Y-62517673D01*
X170060051Y-62561737D01*
X170331909Y-62652855D01*
X170745997Y-62750248D01*
X171167306Y-62809018D01*
X171592240Y-62828664D01*
X172017174Y-62809018D01*
X172438483Y-62750248D01*
X172852571Y-62652855D01*
X173255907Y-62517671D01*
X173255913Y-62517668D01*
X173255919Y-62517666D01*
X173518933Y-62401534D01*
X173645050Y-62345848D01*
X174016678Y-62138852D01*
X174367622Y-61898450D01*
X174694887Y-61626692D01*
X174995682Y-61325897D01*
X175267440Y-60998632D01*
X175507842Y-60647688D01*
X175714838Y-60276060D01*
X175812090Y-60055802D01*
X175886656Y-59886929D01*
X175886663Y-59886911D01*
X176021845Y-59483581D01*
X176119238Y-59069493D01*
X176178008Y-58648184D01*
X176197654Y-58223250D01*
X176178008Y-57798316D01*
X176119238Y-57377007D01*
X176021845Y-56962919D01*
X175886661Y-56559583D01*
X175886656Y-56559570D01*
X175714846Y-56170458D01*
X175714845Y-56170457D01*
X175714838Y-56170440D01*
X175507842Y-55798812D01*
X175267440Y-55447868D01*
X175267434Y-55447861D01*
X175267430Y-55447855D01*
X174995691Y-55120614D01*
X174995682Y-55120603D01*
X174694887Y-54819808D01*
X174694875Y-54819798D01*
X174367634Y-54548059D01*
X174367624Y-54548052D01*
X174367622Y-54548050D01*
X174016678Y-54307648D01*
X174016674Y-54307646D01*
X174016670Y-54307643D01*
X173645059Y-54100657D01*
X173645058Y-54100656D01*
X173645050Y-54100652D01*
X173645041Y-54100648D01*
X173645031Y-54100643D01*
X173255919Y-53928833D01*
X173255901Y-53928826D01*
X172852568Y-53793644D01*
X172438488Y-53696253D01*
X172438480Y-53696251D01*
X172017183Y-53637483D01*
X172017180Y-53637482D01*
X172017174Y-53637482D01*
X171592240Y-53617836D01*
X171167306Y-53637482D01*
X171167300Y-53637482D01*
X171167296Y-53637483D01*
X170745999Y-53696251D01*
X170745991Y-53696253D01*
X170331911Y-53793644D01*
X169928578Y-53928826D01*
X169928560Y-53928833D01*
X169539448Y-54100643D01*
X169539420Y-54100657D01*
X169167809Y-54307643D01*
X169167803Y-54307647D01*
X168816855Y-54548052D01*
X168816845Y-54548059D01*
X168489604Y-54819798D01*
X168489584Y-54819816D01*
X168188806Y-55120594D01*
X168188788Y-55120614D01*
X167917049Y-55447855D01*
X167917042Y-55447865D01*
X167676637Y-55798813D01*
X167676633Y-55798819D01*
X167469647Y-56170430D01*
X167469633Y-56170458D01*
X167297823Y-56559570D01*
X167297816Y-56559588D01*
X167162634Y-56962921D01*
X167065243Y-57377001D01*
X167065241Y-57377009D01*
X167006473Y-57798306D01*
X167006472Y-57798316D01*
X166986826Y-58223250D01*
X131747654Y-58223250D01*
X131728008Y-57798316D01*
X131669238Y-57377007D01*
X131648245Y-57287750D01*
X147064780Y-57287750D01*
X147084566Y-57476006D01*
X147084567Y-57476009D01*
X147143058Y-57656027D01*
X147143061Y-57656034D01*
X147237707Y-57819966D01*
X147364369Y-57960638D01*
X147517505Y-58071898D01*
X147517510Y-58071901D01*
X147690432Y-58148892D01*
X147690437Y-58148894D01*
X147875594Y-58188250D01*
X147875595Y-58188250D01*
X148064884Y-58188250D01*
X148064886Y-58188250D01*
X148250043Y-58148894D01*
X148422970Y-58071901D01*
X148576111Y-57960638D01*
X148702773Y-57819966D01*
X148797419Y-57656034D01*
X148855914Y-57476006D01*
X148875700Y-57287750D01*
X148855914Y-57099494D01*
X148797419Y-56919466D01*
X148702773Y-56755534D01*
X148576111Y-56614862D01*
X148500026Y-56559583D01*
X148422974Y-56503601D01*
X148422969Y-56503598D01*
X148250047Y-56426607D01*
X148250042Y-56426605D01*
X148104241Y-56395615D01*
X148064886Y-56387250D01*
X147875594Y-56387250D01*
X147843137Y-56394148D01*
X147690437Y-56426605D01*
X147690432Y-56426607D01*
X147517510Y-56503598D01*
X147517505Y-56503601D01*
X147364369Y-56614861D01*
X147237706Y-56755535D01*
X147143061Y-56919465D01*
X147143058Y-56919472D01*
X147084567Y-57099490D01*
X147084566Y-57099494D01*
X147064780Y-57287750D01*
X131648245Y-57287750D01*
X131571845Y-56962919D01*
X131436661Y-56559583D01*
X131436656Y-56559570D01*
X131264846Y-56170458D01*
X131264845Y-56170457D01*
X131264838Y-56170440D01*
X131057842Y-55798812D01*
X130817440Y-55447868D01*
X130817434Y-55447861D01*
X130817430Y-55447855D01*
X130545691Y-55120614D01*
X130545682Y-55120603D01*
X130473329Y-55048250D01*
X136396780Y-55048250D01*
X136416566Y-55236506D01*
X136416567Y-55236509D01*
X136475058Y-55416527D01*
X136475061Y-55416534D01*
X136569707Y-55580466D01*
X136667240Y-55688787D01*
X136696369Y-55721138D01*
X136849505Y-55832398D01*
X136849510Y-55832401D01*
X137022432Y-55909392D01*
X137022437Y-55909394D01*
X137207594Y-55948750D01*
X137207595Y-55948750D01*
X137396884Y-55948750D01*
X137396886Y-55948750D01*
X137582043Y-55909394D01*
X137754970Y-55832401D01*
X137864357Y-55752926D01*
X137930160Y-55729448D01*
X137998214Y-55745273D01*
X138010111Y-55752918D01*
X138119506Y-55832398D01*
X138119510Y-55832401D01*
X138292432Y-55909392D01*
X138292437Y-55909394D01*
X138477594Y-55948750D01*
X138477595Y-55948750D01*
X138666884Y-55948750D01*
X138666886Y-55948750D01*
X138852043Y-55909394D01*
X139024970Y-55832401D01*
X139134357Y-55752926D01*
X139200160Y-55729448D01*
X139268214Y-55745273D01*
X139280111Y-55752918D01*
X139389506Y-55832398D01*
X139389510Y-55832401D01*
X139562432Y-55909392D01*
X139562437Y-55909394D01*
X139747594Y-55948750D01*
X139747595Y-55948750D01*
X139936884Y-55948750D01*
X139936886Y-55948750D01*
X140122043Y-55909394D01*
X140294970Y-55832401D01*
X140404357Y-55752926D01*
X140470160Y-55729448D01*
X140538214Y-55745273D01*
X140550111Y-55752918D01*
X140659506Y-55832398D01*
X140659510Y-55832401D01*
X140832432Y-55909392D01*
X140832437Y-55909394D01*
X141017594Y-55948750D01*
X141017595Y-55948750D01*
X141206884Y-55948750D01*
X141206886Y-55948750D01*
X141392043Y-55909394D01*
X141564970Y-55832401D01*
X141674357Y-55752926D01*
X141740160Y-55729448D01*
X141808214Y-55745273D01*
X141820111Y-55752918D01*
X141929506Y-55832398D01*
X141929510Y-55832401D01*
X142102432Y-55909392D01*
X142102437Y-55909394D01*
X142287594Y-55948750D01*
X142287595Y-55948750D01*
X142476884Y-55948750D01*
X142476886Y-55948750D01*
X142662043Y-55909394D01*
X142834970Y-55832401D01*
X142944357Y-55752926D01*
X143010160Y-55729448D01*
X143078214Y-55745273D01*
X143090111Y-55752918D01*
X143199506Y-55832398D01*
X143199510Y-55832401D01*
X143372432Y-55909392D01*
X143372437Y-55909394D01*
X143557594Y-55948750D01*
X143557595Y-55948750D01*
X143746884Y-55948750D01*
X143746886Y-55948750D01*
X143932043Y-55909394D01*
X144104970Y-55832401D01*
X144214357Y-55752926D01*
X144280160Y-55729448D01*
X144348214Y-55745273D01*
X144360111Y-55752918D01*
X144469506Y-55832398D01*
X144469510Y-55832401D01*
X144642432Y-55909392D01*
X144642437Y-55909394D01*
X144827594Y-55948750D01*
X144827595Y-55948750D01*
X145016884Y-55948750D01*
X145016886Y-55948750D01*
X145202043Y-55909394D01*
X145374970Y-55832401D01*
X145528111Y-55721138D01*
X145654773Y-55580466D01*
X145749419Y-55416534D01*
X145807914Y-55236506D01*
X145827700Y-55048250D01*
X145807914Y-54859994D01*
X145749419Y-54679966D01*
X145654773Y-54516034D01*
X145528111Y-54375362D01*
X145516672Y-54367051D01*
X145374974Y-54264101D01*
X145374969Y-54264098D01*
X145202047Y-54187107D01*
X145202042Y-54187105D01*
X145056241Y-54156115D01*
X145016886Y-54147750D01*
X144827594Y-54147750D01*
X144795137Y-54154648D01*
X144642437Y-54187105D01*
X144642432Y-54187107D01*
X144469510Y-54264098D01*
X144469505Y-54264101D01*
X144360125Y-54343571D01*
X144294319Y-54367051D01*
X144226265Y-54351225D01*
X144214355Y-54343571D01*
X144104974Y-54264101D01*
X144104969Y-54264098D01*
X143932047Y-54187107D01*
X143932042Y-54187105D01*
X143786241Y-54156115D01*
X143746886Y-54147750D01*
X143557594Y-54147750D01*
X143525137Y-54154648D01*
X143372437Y-54187105D01*
X143372432Y-54187107D01*
X143199510Y-54264098D01*
X143199505Y-54264101D01*
X143090125Y-54343571D01*
X143024319Y-54367051D01*
X142956265Y-54351225D01*
X142944355Y-54343571D01*
X142834974Y-54264101D01*
X142834969Y-54264098D01*
X142662047Y-54187107D01*
X142662042Y-54187105D01*
X142516240Y-54156115D01*
X142476886Y-54147750D01*
X142287594Y-54147750D01*
X142255137Y-54154648D01*
X142102437Y-54187105D01*
X142102432Y-54187107D01*
X141929510Y-54264098D01*
X141929505Y-54264101D01*
X141820125Y-54343571D01*
X141754319Y-54367051D01*
X141686265Y-54351225D01*
X141674355Y-54343571D01*
X141564974Y-54264101D01*
X141564969Y-54264098D01*
X141392047Y-54187107D01*
X141392042Y-54187105D01*
X141246241Y-54156115D01*
X141206886Y-54147750D01*
X141017594Y-54147750D01*
X140985137Y-54154648D01*
X140832437Y-54187105D01*
X140832432Y-54187107D01*
X140659510Y-54264098D01*
X140659505Y-54264101D01*
X140550125Y-54343571D01*
X140484319Y-54367051D01*
X140416265Y-54351225D01*
X140404355Y-54343571D01*
X140294974Y-54264101D01*
X140294969Y-54264098D01*
X140122047Y-54187107D01*
X140122042Y-54187105D01*
X139976240Y-54156115D01*
X139936886Y-54147750D01*
X139747594Y-54147750D01*
X139715137Y-54154648D01*
X139562437Y-54187105D01*
X139562432Y-54187107D01*
X139389510Y-54264098D01*
X139389505Y-54264101D01*
X139280125Y-54343571D01*
X139214319Y-54367051D01*
X139146265Y-54351225D01*
X139134355Y-54343571D01*
X139024974Y-54264101D01*
X139024969Y-54264098D01*
X138852047Y-54187107D01*
X138852042Y-54187105D01*
X138706240Y-54156115D01*
X138666886Y-54147750D01*
X138477594Y-54147750D01*
X138445137Y-54154648D01*
X138292437Y-54187105D01*
X138292432Y-54187107D01*
X138119510Y-54264098D01*
X138119505Y-54264101D01*
X138010125Y-54343571D01*
X137944319Y-54367051D01*
X137876265Y-54351225D01*
X137864355Y-54343571D01*
X137754974Y-54264101D01*
X137754969Y-54264098D01*
X137582047Y-54187107D01*
X137582042Y-54187105D01*
X137436241Y-54156115D01*
X137396886Y-54147750D01*
X137207594Y-54147750D01*
X137175137Y-54154648D01*
X137022437Y-54187105D01*
X137022432Y-54187107D01*
X136849510Y-54264098D01*
X136849505Y-54264101D01*
X136696369Y-54375361D01*
X136569706Y-54516035D01*
X136475061Y-54679965D01*
X136475058Y-54679972D01*
X136416567Y-54859990D01*
X136416566Y-54859994D01*
X136396780Y-55048250D01*
X130473329Y-55048250D01*
X130244887Y-54819808D01*
X130244875Y-54819798D01*
X129917634Y-54548059D01*
X129917624Y-54548052D01*
X129917622Y-54548050D01*
X129566678Y-54307648D01*
X129566674Y-54307646D01*
X129566670Y-54307643D01*
X129195059Y-54100657D01*
X129195058Y-54100656D01*
X129195050Y-54100652D01*
X129195041Y-54100648D01*
X129195031Y-54100643D01*
X128805919Y-53928833D01*
X128805901Y-53928826D01*
X128402568Y-53793644D01*
X127988488Y-53696253D01*
X127988480Y-53696251D01*
X127567183Y-53637483D01*
X127567180Y-53637482D01*
X127567174Y-53637482D01*
X127142240Y-53617836D01*
X126717306Y-53637482D01*
X126717300Y-53637482D01*
X126717296Y-53637483D01*
X126295999Y-53696251D01*
X126295991Y-53696253D01*
X125881911Y-53793644D01*
X125478578Y-53928826D01*
X125478560Y-53928833D01*
X125089448Y-54100643D01*
X125089420Y-54100657D01*
X124717809Y-54307643D01*
X124717803Y-54307647D01*
X124366855Y-54548052D01*
X124366845Y-54548059D01*
X124039604Y-54819798D01*
X124039584Y-54819816D01*
X123738806Y-55120594D01*
X123738788Y-55120614D01*
X123467049Y-55447855D01*
X123467042Y-55447865D01*
X123226637Y-55798813D01*
X123226633Y-55798819D01*
X123019647Y-56170430D01*
X123019633Y-56170458D01*
X122847823Y-56559570D01*
X122847816Y-56559588D01*
X122712634Y-56962921D01*
X122615243Y-57377001D01*
X122615241Y-57377009D01*
X122556473Y-57798306D01*
X122556472Y-57798316D01*
X122536826Y-58223250D01*
X121240781Y-58223250D01*
X121252365Y-58196638D01*
X121729966Y-57198386D01*
X122242892Y-56217817D01*
X122790491Y-55256180D01*
X123372063Y-54314701D01*
X123986869Y-53394579D01*
X124634124Y-52496988D01*
X125118659Y-51873250D01*
X137666780Y-51873250D01*
X137686566Y-52061506D01*
X137686567Y-52061509D01*
X137745058Y-52241527D01*
X137745061Y-52241534D01*
X137839707Y-52405466D01*
X137922114Y-52496988D01*
X137966369Y-52546138D01*
X138119505Y-52657398D01*
X138119510Y-52657401D01*
X138292432Y-52734392D01*
X138292437Y-52734394D01*
X138477594Y-52773750D01*
X138477595Y-52773750D01*
X138666884Y-52773750D01*
X138666886Y-52773750D01*
X138852043Y-52734394D01*
X139024970Y-52657401D01*
X139134357Y-52577926D01*
X139200160Y-52554448D01*
X139268214Y-52570273D01*
X139280111Y-52577918D01*
X139389506Y-52657398D01*
X139389510Y-52657401D01*
X139562432Y-52734392D01*
X139562437Y-52734394D01*
X139747594Y-52773750D01*
X139747595Y-52773750D01*
X139936884Y-52773750D01*
X139936886Y-52773750D01*
X140122043Y-52734394D01*
X140294970Y-52657401D01*
X140404357Y-52577926D01*
X140470160Y-52554448D01*
X140538214Y-52570273D01*
X140550111Y-52577918D01*
X140659506Y-52657398D01*
X140659510Y-52657401D01*
X140832432Y-52734392D01*
X140832437Y-52734394D01*
X141017594Y-52773750D01*
X141017595Y-52773750D01*
X141206884Y-52773750D01*
X141206886Y-52773750D01*
X141392043Y-52734394D01*
X141564970Y-52657401D01*
X141674357Y-52577926D01*
X141740160Y-52554448D01*
X141808214Y-52570273D01*
X141820111Y-52577918D01*
X141929506Y-52657398D01*
X141929510Y-52657401D01*
X142102432Y-52734392D01*
X142102437Y-52734394D01*
X142287594Y-52773750D01*
X142287595Y-52773750D01*
X142476884Y-52773750D01*
X142476886Y-52773750D01*
X142662043Y-52734394D01*
X142834970Y-52657401D01*
X142944357Y-52577926D01*
X143010160Y-52554448D01*
X143078214Y-52570273D01*
X143090111Y-52577918D01*
X143199506Y-52657398D01*
X143199510Y-52657401D01*
X143372432Y-52734392D01*
X143372437Y-52734394D01*
X143557594Y-52773750D01*
X143557595Y-52773750D01*
X143746884Y-52773750D01*
X143746886Y-52773750D01*
X143932043Y-52734394D01*
X144104970Y-52657401D01*
X144258111Y-52546138D01*
X144384773Y-52405466D01*
X144479419Y-52241534D01*
X144537914Y-52061506D01*
X144557700Y-51873250D01*
X144537914Y-51684994D01*
X144479419Y-51504966D01*
X144384773Y-51341034D01*
X144258111Y-51200362D01*
X144246672Y-51192051D01*
X144104974Y-51089101D01*
X144104969Y-51089098D01*
X143932047Y-51012107D01*
X143932042Y-51012105D01*
X143786241Y-50981115D01*
X143746886Y-50972750D01*
X143557594Y-50972750D01*
X143525137Y-50979648D01*
X143372437Y-51012105D01*
X143372432Y-51012107D01*
X143199510Y-51089098D01*
X143199505Y-51089101D01*
X143090125Y-51168571D01*
X143024319Y-51192051D01*
X142956265Y-51176225D01*
X142944355Y-51168571D01*
X142834974Y-51089101D01*
X142834969Y-51089098D01*
X142662047Y-51012107D01*
X142662042Y-51012105D01*
X142516240Y-50981115D01*
X142476886Y-50972750D01*
X142287594Y-50972750D01*
X142255137Y-50979648D01*
X142102437Y-51012105D01*
X142102432Y-51012107D01*
X141929510Y-51089098D01*
X141929505Y-51089101D01*
X141820125Y-51168571D01*
X141754319Y-51192051D01*
X141686265Y-51176225D01*
X141674355Y-51168571D01*
X141564974Y-51089101D01*
X141564969Y-51089098D01*
X141392047Y-51012107D01*
X141392042Y-51012105D01*
X141246241Y-50981115D01*
X141206886Y-50972750D01*
X141017594Y-50972750D01*
X140985137Y-50979648D01*
X140832437Y-51012105D01*
X140832432Y-51012107D01*
X140659510Y-51089098D01*
X140659505Y-51089101D01*
X140550125Y-51168571D01*
X140484319Y-51192051D01*
X140416265Y-51176225D01*
X140404355Y-51168571D01*
X140294974Y-51089101D01*
X140294969Y-51089098D01*
X140122047Y-51012107D01*
X140122042Y-51012105D01*
X139976240Y-50981115D01*
X139936886Y-50972750D01*
X139747594Y-50972750D01*
X139715137Y-50979648D01*
X139562437Y-51012105D01*
X139562432Y-51012107D01*
X139389510Y-51089098D01*
X139389505Y-51089101D01*
X139280125Y-51168571D01*
X139214319Y-51192051D01*
X139146265Y-51176225D01*
X139134355Y-51168571D01*
X139024974Y-51089101D01*
X139024969Y-51089098D01*
X138852047Y-51012107D01*
X138852042Y-51012105D01*
X138706240Y-50981115D01*
X138666886Y-50972750D01*
X138477594Y-50972750D01*
X138445137Y-50979648D01*
X138292437Y-51012105D01*
X138292432Y-51012107D01*
X138119510Y-51089098D01*
X138119505Y-51089101D01*
X137966369Y-51200361D01*
X137839706Y-51341035D01*
X137745061Y-51504965D01*
X137745058Y-51504972D01*
X137706686Y-51623071D01*
X137686566Y-51684994D01*
X137666780Y-51873250D01*
X125118659Y-51873250D01*
X125313004Y-51623071D01*
X126022643Y-50773941D01*
X126762138Y-49950681D01*
X127530545Y-49154339D01*
X128003215Y-48698250D01*
X136396780Y-48698250D01*
X136416566Y-48886506D01*
X136416567Y-48886509D01*
X136475058Y-49066527D01*
X136475061Y-49066534D01*
X136569707Y-49230466D01*
X136667240Y-49338787D01*
X136696369Y-49371138D01*
X136849505Y-49482398D01*
X136849510Y-49482401D01*
X137022432Y-49559392D01*
X137022437Y-49559394D01*
X137207594Y-49598750D01*
X137207595Y-49598750D01*
X137396884Y-49598750D01*
X137396886Y-49598750D01*
X137582043Y-49559394D01*
X137754970Y-49482401D01*
X137864357Y-49402926D01*
X137930160Y-49379448D01*
X137998214Y-49395273D01*
X138010111Y-49402918D01*
X138119506Y-49482398D01*
X138119510Y-49482401D01*
X138292432Y-49559392D01*
X138292437Y-49559394D01*
X138477594Y-49598750D01*
X138477595Y-49598750D01*
X138666884Y-49598750D01*
X138666886Y-49598750D01*
X138852043Y-49559394D01*
X139024970Y-49482401D01*
X139134357Y-49402926D01*
X139200160Y-49379448D01*
X139268214Y-49395273D01*
X139280111Y-49402918D01*
X139389506Y-49482398D01*
X139389510Y-49482401D01*
X139562432Y-49559392D01*
X139562437Y-49559394D01*
X139747594Y-49598750D01*
X139747595Y-49598750D01*
X139936884Y-49598750D01*
X139936886Y-49598750D01*
X140122043Y-49559394D01*
X140294970Y-49482401D01*
X140404357Y-49402926D01*
X140470160Y-49379448D01*
X140538214Y-49395273D01*
X140550111Y-49402918D01*
X140659506Y-49482398D01*
X140659510Y-49482401D01*
X140832432Y-49559392D01*
X140832437Y-49559394D01*
X141017594Y-49598750D01*
X141017595Y-49598750D01*
X141206884Y-49598750D01*
X141206886Y-49598750D01*
X141392043Y-49559394D01*
X141564970Y-49482401D01*
X141674357Y-49402926D01*
X141740160Y-49379448D01*
X141808214Y-49395273D01*
X141820111Y-49402918D01*
X141929506Y-49482398D01*
X141929510Y-49482401D01*
X142102432Y-49559392D01*
X142102437Y-49559394D01*
X142287594Y-49598750D01*
X142287595Y-49598750D01*
X142476884Y-49598750D01*
X142476886Y-49598750D01*
X142662043Y-49559394D01*
X142834970Y-49482401D01*
X142944357Y-49402926D01*
X143010160Y-49379448D01*
X143078214Y-49395273D01*
X143090111Y-49402918D01*
X143199506Y-49482398D01*
X143199510Y-49482401D01*
X143372432Y-49559392D01*
X143372437Y-49559394D01*
X143557594Y-49598750D01*
X143557595Y-49598750D01*
X143746884Y-49598750D01*
X143746886Y-49598750D01*
X143932043Y-49559394D01*
X144104970Y-49482401D01*
X144214357Y-49402926D01*
X144280160Y-49379448D01*
X144348214Y-49395273D01*
X144360111Y-49402918D01*
X144469506Y-49482398D01*
X144469510Y-49482401D01*
X144642432Y-49559392D01*
X144642437Y-49559394D01*
X144827594Y-49598750D01*
X144827595Y-49598750D01*
X145016884Y-49598750D01*
X145016886Y-49598750D01*
X145202043Y-49559394D01*
X145374970Y-49482401D01*
X145528111Y-49371138D01*
X145654773Y-49230466D01*
X145749419Y-49066534D01*
X145807914Y-48886506D01*
X145827700Y-48698250D01*
X145807914Y-48509994D01*
X145749419Y-48329966D01*
X145654773Y-48166034D01*
X145528111Y-48025362D01*
X145516672Y-48017051D01*
X145374974Y-47914101D01*
X145374969Y-47914098D01*
X145202047Y-47837107D01*
X145202042Y-47837105D01*
X145056241Y-47806115D01*
X145016886Y-47797750D01*
X144827594Y-47797750D01*
X144795137Y-47804648D01*
X144642437Y-47837105D01*
X144642432Y-47837107D01*
X144469510Y-47914098D01*
X144469505Y-47914101D01*
X144360125Y-47993571D01*
X144294319Y-48017051D01*
X144226265Y-48001225D01*
X144214355Y-47993571D01*
X144104974Y-47914101D01*
X144104969Y-47914098D01*
X143932047Y-47837107D01*
X143932042Y-47837105D01*
X143786241Y-47806115D01*
X143746886Y-47797750D01*
X143557594Y-47797750D01*
X143525137Y-47804648D01*
X143372437Y-47837105D01*
X143372432Y-47837107D01*
X143199510Y-47914098D01*
X143199505Y-47914101D01*
X143090125Y-47993571D01*
X143024319Y-48017051D01*
X142956265Y-48001225D01*
X142944355Y-47993571D01*
X142834974Y-47914101D01*
X142834969Y-47914098D01*
X142662047Y-47837107D01*
X142662042Y-47837105D01*
X142516241Y-47806115D01*
X142476886Y-47797750D01*
X142287594Y-47797750D01*
X142255137Y-47804648D01*
X142102437Y-47837105D01*
X142102432Y-47837107D01*
X141929510Y-47914098D01*
X141929505Y-47914101D01*
X141820125Y-47993571D01*
X141754319Y-48017051D01*
X141686265Y-48001225D01*
X141674355Y-47993571D01*
X141564974Y-47914101D01*
X141564969Y-47914098D01*
X141392047Y-47837107D01*
X141392042Y-47837105D01*
X141246241Y-47806115D01*
X141206886Y-47797750D01*
X141017594Y-47797750D01*
X140985137Y-47804648D01*
X140832437Y-47837105D01*
X140832432Y-47837107D01*
X140659510Y-47914098D01*
X140659505Y-47914101D01*
X140550125Y-47993571D01*
X140484319Y-48017051D01*
X140416265Y-48001225D01*
X140404355Y-47993571D01*
X140294974Y-47914101D01*
X140294969Y-47914098D01*
X140122047Y-47837107D01*
X140122042Y-47837105D01*
X139976241Y-47806115D01*
X139936886Y-47797750D01*
X139747594Y-47797750D01*
X139715137Y-47804648D01*
X139562437Y-47837105D01*
X139562432Y-47837107D01*
X139389510Y-47914098D01*
X139389505Y-47914101D01*
X139280125Y-47993571D01*
X139214319Y-48017051D01*
X139146265Y-48001225D01*
X139134355Y-47993571D01*
X139024974Y-47914101D01*
X139024969Y-47914098D01*
X138852047Y-47837107D01*
X138852042Y-47837105D01*
X138706240Y-47806115D01*
X138666886Y-47797750D01*
X138477594Y-47797750D01*
X138445137Y-47804648D01*
X138292437Y-47837105D01*
X138292432Y-47837107D01*
X138119510Y-47914098D01*
X138119505Y-47914101D01*
X138010125Y-47993571D01*
X137944319Y-48017051D01*
X137876265Y-48001225D01*
X137864355Y-47993571D01*
X137754974Y-47914101D01*
X137754969Y-47914098D01*
X137582047Y-47837107D01*
X137582042Y-47837105D01*
X137436241Y-47806115D01*
X137396886Y-47797750D01*
X137240190Y-47797750D01*
X137185945Y-47781821D01*
X137153438Y-47807399D01*
X137133104Y-47813583D01*
X137022437Y-47837105D01*
X137022432Y-47837107D01*
X136849510Y-47914098D01*
X136849505Y-47914101D01*
X136696369Y-48025361D01*
X136569706Y-48166035D01*
X136475061Y-48329965D01*
X136475058Y-48329972D01*
X136456876Y-48385932D01*
X136416566Y-48509994D01*
X136396780Y-48698250D01*
X128003215Y-48698250D01*
X128326887Y-48385932D01*
X129150147Y-47646437D01*
X129999277Y-46936798D01*
X130873194Y-46257918D01*
X131770785Y-45610663D01*
X132453526Y-45154469D01*
X132520203Y-45133592D01*
X132587583Y-45152077D01*
X132628821Y-45193901D01*
X132830371Y-45530728D01*
X132830375Y-45530734D01*
X133085782Y-45878826D01*
X133232214Y-46043515D01*
X133372665Y-46201476D01*
X133578835Y-46393632D01*
X133688510Y-46495852D01*
X134030504Y-46759336D01*
X134030511Y-46759341D01*
X134030514Y-46759343D01*
X134395699Y-46989658D01*
X134780846Y-47184764D01*
X135170420Y-47338162D01*
X135182576Y-47342949D01*
X135317113Y-47381830D01*
X135597343Y-47462817D01*
X135597347Y-47462817D01*
X135597347Y-47462818D01*
X136021512Y-47543320D01*
X136021513Y-47543320D01*
X136021518Y-47543321D01*
X136451367Y-47583750D01*
X136451369Y-47583750D01*
X136775120Y-47583750D01*
X136830700Y-47581141D01*
X137098512Y-47568575D01*
X137098519Y-47568573D01*
X137101417Y-47568438D01*
X137101490Y-47570009D01*
X137163095Y-47581866D01*
X137205255Y-47554773D01*
X137222805Y-47550975D01*
X137525981Y-47508044D01*
X137525984Y-47508043D01*
X137525993Y-47508042D01*
X137945928Y-47407745D01*
X138354626Y-47268566D01*
X138748495Y-47091727D01*
X139124074Y-46878782D01*
X139478062Y-46631603D01*
X139807348Y-46352363D01*
X140109039Y-46043515D01*
X140380484Y-45707773D01*
X140619296Y-45348087D01*
X140654783Y-45281929D01*
X140823370Y-44967634D01*
X140823371Y-44967629D01*
X140823377Y-44967620D01*
X140990935Y-44569713D01*
X141077308Y-44295147D01*
X141120493Y-44157872D01*
X141120493Y-44157869D01*
X141120495Y-44157865D01*
X141210920Y-43735695D01*
X141261415Y-43306911D01*
X141271536Y-42875284D01*
X141241195Y-42444605D01*
X141170657Y-42018660D01*
X141060544Y-41601192D01*
X140985335Y-41396220D01*
X140980722Y-41326503D01*
X141014533Y-41265359D01*
X141068936Y-41233925D01*
X141784124Y-41037724D01*
X142861084Y-40783232D01*
X143946442Y-40567341D01*
X145038813Y-40390326D01*
X145881009Y-40284543D01*
X145949979Y-40295719D01*
X146001957Y-40342409D01*
X146020442Y-40409789D01*
X145999564Y-40476467D01*
X145984145Y-40495255D01*
X145963807Y-40515593D01*
X145963788Y-40515614D01*
X145692049Y-40842855D01*
X145692042Y-40842865D01*
X145451637Y-41193813D01*
X145451633Y-41193819D01*
X145244647Y-41565430D01*
X145244633Y-41565458D01*
X145072823Y-41954570D01*
X145072816Y-41954588D01*
X144937634Y-42357921D01*
X144840243Y-42772001D01*
X144840241Y-42772009D01*
X144781473Y-43193306D01*
X144781472Y-43193316D01*
X144761826Y-43618250D01*
X144781472Y-44043184D01*
X144781472Y-44043190D01*
X144781473Y-44043193D01*
X144840241Y-44464490D01*
X144840243Y-44464498D01*
X144937634Y-44878578D01*
X145072816Y-45281911D01*
X145072823Y-45281929D01*
X145244633Y-45671041D01*
X145244638Y-45671051D01*
X145244642Y-45671060D01*
X145244646Y-45671068D01*
X145244647Y-45671069D01*
X145451633Y-46042680D01*
X145451636Y-46042684D01*
X145451638Y-46042688D01*
X145692040Y-46393632D01*
X145692042Y-46393634D01*
X145692049Y-46393644D01*
X145936885Y-46688487D01*
X145963798Y-46720897D01*
X146264593Y-47021692D01*
X146264604Y-47021701D01*
X146591845Y-47293440D01*
X146591851Y-47293444D01*
X146591858Y-47293450D01*
X146942802Y-47533852D01*
X146942808Y-47533855D01*
X146942809Y-47533856D01*
X146980362Y-47554773D01*
X147314430Y-47740848D01*
X147314447Y-47740855D01*
X147314448Y-47740856D01*
X147703560Y-47912666D01*
X147703578Y-47912673D01*
X147835051Y-47956737D01*
X148106909Y-48047855D01*
X148520997Y-48145248D01*
X148942306Y-48204018D01*
X149367240Y-48223664D01*
X149792174Y-48204018D01*
X150213483Y-48145248D01*
X150627571Y-48047855D01*
X151030907Y-47912671D01*
X151030913Y-47912668D01*
X151030919Y-47912666D01*
X151202048Y-47837105D01*
X151420050Y-47740848D01*
X151791678Y-47533852D01*
X152142622Y-47293450D01*
X152469887Y-47021692D01*
X152770682Y-46720897D01*
X153042440Y-46393632D01*
X153282842Y-46042688D01*
X153489838Y-45671060D01*
X153661661Y-45281917D01*
X153796845Y-44878581D01*
X153894238Y-44464493D01*
X153953008Y-44043184D01*
X153972654Y-43618250D01*
X153953008Y-43193316D01*
X153894238Y-42772007D01*
X153796845Y-42357919D01*
X153705727Y-42086061D01*
X153661663Y-41954588D01*
X153661656Y-41954570D01*
X153489846Y-41565458D01*
X153489845Y-41565457D01*
X153489838Y-41565440D01*
X153282842Y-41193812D01*
X153042440Y-40842868D01*
X153042434Y-40842861D01*
X153042430Y-40842855D01*
X152770691Y-40515614D01*
X152770682Y-40515603D01*
X152726415Y-40471336D01*
X152692930Y-40410013D01*
X152697914Y-40340321D01*
X152739786Y-40284388D01*
X152805250Y-40259971D01*
X152829544Y-40260621D01*
G37*
%TD.AperFunction*%
%TD*%
%TA.AperFunction,Conductor*%
%TO.N,Shunt_1*%
G36*
X146895704Y-79197935D02*
G01*
X146930240Y-79231127D01*
X147058741Y-79414646D01*
X147058746Y-79414652D01*
X147225837Y-79581743D01*
X147225843Y-79581748D01*
X147411398Y-79711675D01*
X147455023Y-79766252D01*
X147462217Y-79835750D01*
X147430694Y-79898105D01*
X147411398Y-79914825D01*
X147225837Y-80044755D01*
X147058745Y-80211847D01*
X146923205Y-80405419D01*
X146923204Y-80405421D01*
X146823338Y-80619585D01*
X146823334Y-80619594D01*
X146762178Y-80847836D01*
X146762176Y-80847846D01*
X146741581Y-81083249D01*
X146741581Y-81083250D01*
X146762176Y-81318653D01*
X146762178Y-81318663D01*
X146823334Y-81546905D01*
X146823336Y-81546909D01*
X146823337Y-81546913D01*
X146855304Y-81615466D01*
X146923205Y-81761080D01*
X146923207Y-81761084D01*
X147002184Y-81873874D01*
X147058741Y-81954646D01*
X147058746Y-81954652D01*
X147225837Y-82121743D01*
X147225843Y-82121748D01*
X147411398Y-82251675D01*
X147455023Y-82306252D01*
X147462217Y-82375750D01*
X147430694Y-82438105D01*
X147411398Y-82454825D01*
X147225837Y-82584755D01*
X147058745Y-82751847D01*
X146923205Y-82945419D01*
X146923204Y-82945421D01*
X146823338Y-83159585D01*
X146823334Y-83159594D01*
X146762178Y-83387836D01*
X146762176Y-83387846D01*
X146741581Y-83623249D01*
X146741581Y-83623250D01*
X146762176Y-83858653D01*
X146762178Y-83858663D01*
X146823334Y-84086905D01*
X146823336Y-84086909D01*
X146823337Y-84086913D01*
X146827240Y-84095282D01*
X146923205Y-84301080D01*
X146923207Y-84301084D01*
X146965185Y-84361034D01*
X147058741Y-84494646D01*
X147058746Y-84494652D01*
X147225837Y-84661743D01*
X147225843Y-84661748D01*
X147411398Y-84791675D01*
X147455023Y-84846252D01*
X147462217Y-84915750D01*
X147430694Y-84978105D01*
X147411398Y-84994825D01*
X147225837Y-85124755D01*
X147058745Y-85291847D01*
X146923205Y-85485419D01*
X146923204Y-85485421D01*
X146823338Y-85699585D01*
X146823334Y-85699594D01*
X146762178Y-85927836D01*
X146762176Y-85927846D01*
X146741581Y-86163249D01*
X146741581Y-86163250D01*
X146762176Y-86398653D01*
X146762178Y-86398663D01*
X146823334Y-86626905D01*
X146823336Y-86626909D01*
X146823337Y-86626913D01*
X146827240Y-86635282D01*
X146923205Y-86841080D01*
X146923207Y-86841084D01*
X146997652Y-86947401D01*
X147058741Y-87034646D01*
X147058746Y-87034652D01*
X147225837Y-87201743D01*
X147225843Y-87201748D01*
X147411398Y-87331675D01*
X147455023Y-87386252D01*
X147462217Y-87455750D01*
X147430694Y-87518105D01*
X147411398Y-87534825D01*
X147225837Y-87664755D01*
X147058745Y-87831847D01*
X146923205Y-88025419D01*
X146923204Y-88025421D01*
X146823338Y-88239585D01*
X146823334Y-88239594D01*
X146762178Y-88467836D01*
X146762176Y-88467846D01*
X146741581Y-88703249D01*
X146741581Y-88703250D01*
X146762176Y-88938653D01*
X146762178Y-88938663D01*
X146823334Y-89166905D01*
X146823336Y-89166909D01*
X146823337Y-89166913D01*
X146923204Y-89381079D01*
X146923205Y-89381080D01*
X146923207Y-89381084D01*
X147058741Y-89574645D01*
X147058746Y-89574652D01*
X147225837Y-89741743D01*
X147225843Y-89741748D01*
X147411398Y-89871675D01*
X147455023Y-89926252D01*
X147462217Y-89995750D01*
X147430694Y-90058105D01*
X147411398Y-90074825D01*
X147225837Y-90204755D01*
X147058745Y-90371847D01*
X146923205Y-90565419D01*
X146923204Y-90565421D01*
X146823338Y-90779585D01*
X146823334Y-90779594D01*
X146762178Y-91007836D01*
X146762176Y-91007846D01*
X146741581Y-91243249D01*
X146741581Y-91243250D01*
X146762176Y-91478653D01*
X146762178Y-91478663D01*
X146823334Y-91706905D01*
X146823336Y-91706909D01*
X146823337Y-91706913D01*
X146850183Y-91764484D01*
X146923205Y-91921080D01*
X146923207Y-91921084D01*
X147025033Y-92066506D01*
X147058745Y-92114651D01*
X147225839Y-92281745D01*
X147322624Y-92349514D01*
X147419405Y-92417282D01*
X147419407Y-92417283D01*
X147419410Y-92417285D01*
X147633577Y-92517153D01*
X147861832Y-92578313D01*
X148050158Y-92594789D01*
X148097239Y-92598909D01*
X148097240Y-92598909D01*
X148097241Y-92598909D01*
X148136474Y-92595476D01*
X148332648Y-92578313D01*
X148560903Y-92517153D01*
X148775070Y-92417285D01*
X148968641Y-92281745D01*
X149135735Y-92114651D01*
X149271275Y-91921080D01*
X149291247Y-91878250D01*
X157351780Y-91878250D01*
X157371566Y-92066506D01*
X157371567Y-92066509D01*
X157430058Y-92246527D01*
X157430061Y-92246534D01*
X157524707Y-92410466D01*
X157622240Y-92518787D01*
X157651369Y-92551138D01*
X157804505Y-92662398D01*
X157804510Y-92662401D01*
X157977432Y-92739392D01*
X157977437Y-92739394D01*
X158162594Y-92778750D01*
X158162595Y-92778750D01*
X158351884Y-92778750D01*
X158351886Y-92778750D01*
X158537043Y-92739394D01*
X158709970Y-92662401D01*
X158819358Y-92582926D01*
X158885159Y-92559448D01*
X158953213Y-92575273D01*
X158965124Y-92582928D01*
X159074505Y-92662398D01*
X159074510Y-92662401D01*
X159247432Y-92739392D01*
X159247437Y-92739394D01*
X159432594Y-92778750D01*
X159432595Y-92778750D01*
X159621884Y-92778750D01*
X159621886Y-92778750D01*
X159807043Y-92739394D01*
X159979970Y-92662401D01*
X160089357Y-92582926D01*
X160155160Y-92559448D01*
X160223214Y-92575273D01*
X160235111Y-92582918D01*
X160344506Y-92662398D01*
X160344510Y-92662401D01*
X160517432Y-92739392D01*
X160517437Y-92739394D01*
X160702594Y-92778750D01*
X160702595Y-92778750D01*
X160891884Y-92778750D01*
X160891886Y-92778750D01*
X161077043Y-92739394D01*
X161249970Y-92662401D01*
X161359357Y-92582926D01*
X161425160Y-92559448D01*
X161493214Y-92575273D01*
X161505111Y-92582918D01*
X161614506Y-92662398D01*
X161614510Y-92662401D01*
X161787432Y-92739392D01*
X161787437Y-92739394D01*
X161972594Y-92778750D01*
X161972595Y-92778750D01*
X162161884Y-92778750D01*
X162161886Y-92778750D01*
X162347043Y-92739394D01*
X162519970Y-92662401D01*
X162629357Y-92582926D01*
X162695160Y-92559448D01*
X162763214Y-92575273D01*
X162775111Y-92582918D01*
X162884506Y-92662398D01*
X162884510Y-92662401D01*
X163043506Y-92733192D01*
X163096743Y-92778442D01*
X163117064Y-92845292D01*
X163111001Y-92884788D01*
X163086567Y-92959989D01*
X163086566Y-92959991D01*
X163086566Y-92959994D01*
X163066780Y-93148250D01*
X163086566Y-93336506D01*
X163086567Y-93336509D01*
X163111001Y-93411710D01*
X163112996Y-93481551D01*
X163076915Y-93541384D01*
X163043507Y-93563307D01*
X162884507Y-93634100D01*
X162884505Y-93634101D01*
X162731369Y-93745361D01*
X162604706Y-93886035D01*
X162510061Y-94049965D01*
X162510058Y-94049972D01*
X162476001Y-94154790D01*
X162451566Y-94229994D01*
X162431780Y-94418250D01*
X162451566Y-94606506D01*
X162451567Y-94606509D01*
X162476001Y-94681710D01*
X162477996Y-94751551D01*
X162441915Y-94811384D01*
X162408507Y-94833307D01*
X162249507Y-94904100D01*
X162249505Y-94904101D01*
X162096369Y-95015361D01*
X161969706Y-95156035D01*
X161875061Y-95319965D01*
X161875058Y-95319972D01*
X161816567Y-95499990D01*
X161816566Y-95499994D01*
X161796780Y-95688250D01*
X161816566Y-95876506D01*
X161816567Y-95876509D01*
X161875058Y-96056527D01*
X161875061Y-96056534D01*
X161969707Y-96220466D01*
X162028139Y-96285361D01*
X162096369Y-96361138D01*
X162249505Y-96472398D01*
X162249510Y-96472401D01*
X162408506Y-96543192D01*
X162461743Y-96588442D01*
X162482064Y-96655292D01*
X162476001Y-96694788D01*
X162451567Y-96769989D01*
X162451567Y-96769990D01*
X162451566Y-96769994D01*
X162431780Y-96958250D01*
X162451566Y-97146506D01*
X162451567Y-97146509D01*
X162510058Y-97326527D01*
X162510061Y-97326534D01*
X162604707Y-97490466D01*
X162621434Y-97509043D01*
X162622545Y-97510277D01*
X162652775Y-97573268D01*
X162644150Y-97642604D01*
X162622548Y-97676218D01*
X162604708Y-97696032D01*
X162604704Y-97696037D01*
X162510061Y-97859965D01*
X162510058Y-97859972D01*
X162451567Y-98039990D01*
X162451566Y-98039994D01*
X162431780Y-98228250D01*
X162451566Y-98416506D01*
X162451567Y-98416509D01*
X162510058Y-98596527D01*
X162510061Y-98596534D01*
X162604707Y-98760466D01*
X162702240Y-98868787D01*
X162731369Y-98901138D01*
X162884505Y-99012398D01*
X162884510Y-99012401D01*
X163057432Y-99089392D01*
X163057437Y-99089394D01*
X163242594Y-99128750D01*
X163242595Y-99128750D01*
X163431884Y-99128750D01*
X163431886Y-99128750D01*
X163617043Y-99089394D01*
X163789970Y-99012401D01*
X163899357Y-98932926D01*
X163965160Y-98909448D01*
X164033214Y-98925273D01*
X164045111Y-98932918D01*
X164154506Y-99012398D01*
X164154510Y-99012401D01*
X164327432Y-99089392D01*
X164327437Y-99089394D01*
X164512594Y-99128750D01*
X164512595Y-99128750D01*
X164701884Y-99128750D01*
X164701886Y-99128750D01*
X164887043Y-99089394D01*
X165059970Y-99012401D01*
X165213111Y-98901138D01*
X165339773Y-98760466D01*
X165434419Y-98596534D01*
X165492914Y-98416506D01*
X165512700Y-98228250D01*
X165492914Y-98039994D01*
X165434419Y-97859966D01*
X165339773Y-97696034D01*
X165321931Y-97676218D01*
X165291703Y-97613230D01*
X165300328Y-97543895D01*
X165321933Y-97510278D01*
X165339773Y-97490466D01*
X165434419Y-97326534D01*
X165492914Y-97146506D01*
X165512700Y-96958250D01*
X165492914Y-96769994D01*
X165434419Y-96589966D01*
X165339773Y-96426034D01*
X165213111Y-96285362D01*
X165213110Y-96285361D01*
X165059974Y-96174101D01*
X165059972Y-96174100D01*
X164900972Y-96103307D01*
X164847736Y-96058056D01*
X164827415Y-95991207D01*
X164833477Y-95951714D01*
X164857914Y-95876506D01*
X164877700Y-95688250D01*
X164857914Y-95499994D01*
X164833477Y-95424788D01*
X164831483Y-95354948D01*
X164867563Y-95295115D01*
X164900973Y-95273192D01*
X164932756Y-95259041D01*
X165059970Y-95202401D01*
X165213111Y-95091138D01*
X165339773Y-94950466D01*
X165434419Y-94786534D01*
X165492914Y-94606506D01*
X165512700Y-94418250D01*
X165492914Y-94229994D01*
X165468477Y-94154788D01*
X165466483Y-94084948D01*
X165502563Y-94025115D01*
X165535973Y-94003192D01*
X165600750Y-93974351D01*
X165694970Y-93932401D01*
X165848111Y-93821138D01*
X165974773Y-93680466D01*
X166069419Y-93516534D01*
X166127914Y-93336506D01*
X166147700Y-93148250D01*
X166127914Y-92959994D01*
X166103477Y-92884788D01*
X166101483Y-92814948D01*
X166137563Y-92755115D01*
X166170973Y-92733192D01*
X166202756Y-92719041D01*
X166329970Y-92662401D01*
X166483111Y-92551138D01*
X166609773Y-92410466D01*
X166704419Y-92246534D01*
X166762914Y-92066506D01*
X166782700Y-91878250D01*
X166762914Y-91689994D01*
X166704419Y-91509966D01*
X166609773Y-91346034D01*
X166483111Y-91205362D01*
X166471672Y-91197051D01*
X166329974Y-91094101D01*
X166329969Y-91094098D01*
X166157047Y-91017107D01*
X166157042Y-91017105D01*
X166011240Y-90986115D01*
X165971886Y-90977750D01*
X165782594Y-90977750D01*
X165750137Y-90984648D01*
X165597437Y-91017105D01*
X165597432Y-91017107D01*
X165424510Y-91094098D01*
X165424505Y-91094101D01*
X165315125Y-91173571D01*
X165249319Y-91197051D01*
X165181265Y-91181225D01*
X165169355Y-91173571D01*
X165059974Y-91094101D01*
X165059969Y-91094098D01*
X164887047Y-91017107D01*
X164887042Y-91017105D01*
X164741241Y-90986115D01*
X164701886Y-90977750D01*
X164512594Y-90977750D01*
X164480137Y-90984648D01*
X164327437Y-91017105D01*
X164327432Y-91017107D01*
X164154510Y-91094098D01*
X164154505Y-91094101D01*
X164045125Y-91173571D01*
X163979319Y-91197051D01*
X163911265Y-91181225D01*
X163899355Y-91173571D01*
X163789974Y-91094101D01*
X163789969Y-91094098D01*
X163617047Y-91017107D01*
X163617042Y-91017105D01*
X163471241Y-90986115D01*
X163431886Y-90977750D01*
X163242594Y-90977750D01*
X163210137Y-90984648D01*
X163057437Y-91017105D01*
X163057432Y-91017107D01*
X162884510Y-91094098D01*
X162884505Y-91094101D01*
X162775125Y-91173571D01*
X162709319Y-91197051D01*
X162641265Y-91181225D01*
X162629355Y-91173571D01*
X162519974Y-91094101D01*
X162519969Y-91094098D01*
X162347047Y-91017107D01*
X162347042Y-91017105D01*
X162201240Y-90986115D01*
X162161886Y-90977750D01*
X161972594Y-90977750D01*
X161940137Y-90984648D01*
X161787437Y-91017105D01*
X161787432Y-91017107D01*
X161614510Y-91094098D01*
X161614505Y-91094101D01*
X161505125Y-91173571D01*
X161439319Y-91197051D01*
X161371265Y-91181225D01*
X161359355Y-91173571D01*
X161249974Y-91094101D01*
X161249969Y-91094098D01*
X161077047Y-91017107D01*
X161077042Y-91017105D01*
X160931241Y-90986115D01*
X160891886Y-90977750D01*
X160702594Y-90977750D01*
X160670137Y-90984648D01*
X160517437Y-91017105D01*
X160517432Y-91017107D01*
X160344511Y-91094098D01*
X160235124Y-91173572D01*
X160169317Y-91197051D01*
X160101263Y-91181225D01*
X160089363Y-91173578D01*
X159979970Y-91094099D01*
X159979969Y-91094098D01*
X159807047Y-91017107D01*
X159807042Y-91017105D01*
X159661241Y-90986115D01*
X159621886Y-90977750D01*
X159432594Y-90977750D01*
X159400137Y-90984648D01*
X159247437Y-91017105D01*
X159247432Y-91017107D01*
X159074510Y-91094098D01*
X159074505Y-91094101D01*
X158965125Y-91173571D01*
X158899319Y-91197051D01*
X158831265Y-91181225D01*
X158819355Y-91173571D01*
X158709974Y-91094101D01*
X158709969Y-91094098D01*
X158537047Y-91017107D01*
X158537042Y-91017105D01*
X158391241Y-90986115D01*
X158351886Y-90977750D01*
X158162594Y-90977750D01*
X158130137Y-90984648D01*
X157977437Y-91017105D01*
X157977432Y-91017107D01*
X157804510Y-91094098D01*
X157804505Y-91094101D01*
X157651369Y-91205361D01*
X157524706Y-91346035D01*
X157430061Y-91509965D01*
X157430058Y-91509972D01*
X157373528Y-91683955D01*
X157371566Y-91689994D01*
X157351780Y-91878250D01*
X149291247Y-91878250D01*
X149371143Y-91706913D01*
X149432303Y-91478658D01*
X149452899Y-91243250D01*
X149452414Y-91237712D01*
X149439850Y-91094101D01*
X149432303Y-91007842D01*
X149371143Y-90779587D01*
X149271275Y-90565421D01*
X149135735Y-90371849D01*
X149135734Y-90371847D01*
X148968642Y-90204756D01*
X148968636Y-90204751D01*
X148783082Y-90074825D01*
X148739457Y-90020248D01*
X148732263Y-89950750D01*
X148763786Y-89888395D01*
X148783082Y-89871675D01*
X148805266Y-89856141D01*
X148968641Y-89741745D01*
X149135735Y-89574651D01*
X149271275Y-89381080D01*
X149371143Y-89166913D01*
X149432303Y-88938658D01*
X149452899Y-88703250D01*
X149432303Y-88467842D01*
X149385866Y-88294535D01*
X149371145Y-88239594D01*
X149371144Y-88239593D01*
X149371143Y-88239587D01*
X149271275Y-88025421D01*
X149135735Y-87831849D01*
X149135734Y-87831847D01*
X148968642Y-87664756D01*
X148968636Y-87664751D01*
X148783082Y-87534825D01*
X148739457Y-87480248D01*
X148732263Y-87410750D01*
X148763786Y-87348395D01*
X148783082Y-87331675D01*
X148841884Y-87290501D01*
X148968641Y-87201745D01*
X149135735Y-87034651D01*
X149265664Y-86849092D01*
X149320242Y-86805467D01*
X149389740Y-86798273D01*
X149452095Y-86829796D01*
X149468815Y-86849092D01*
X149598740Y-87034645D01*
X149598745Y-87034651D01*
X149765839Y-87201745D01*
X149862624Y-87269514D01*
X149959405Y-87337282D01*
X149959407Y-87337283D01*
X149959410Y-87337285D01*
X150173577Y-87437153D01*
X150401832Y-87498313D01*
X150590158Y-87514789D01*
X150637239Y-87518909D01*
X150637240Y-87518909D01*
X150637241Y-87518909D01*
X150676474Y-87515476D01*
X150872648Y-87498313D01*
X151100903Y-87437153D01*
X151315070Y-87337285D01*
X151508641Y-87201745D01*
X151675735Y-87034651D01*
X151811275Y-86841080D01*
X151911143Y-86626913D01*
X151972303Y-86398658D01*
X151992899Y-86163250D01*
X151972303Y-85927842D01*
X151911143Y-85699587D01*
X151811275Y-85485421D01*
X151769295Y-85425466D01*
X151675734Y-85291847D01*
X151508642Y-85124756D01*
X151508636Y-85124751D01*
X151323082Y-84994825D01*
X151279457Y-84940248D01*
X151272263Y-84870750D01*
X151303786Y-84808395D01*
X151323082Y-84791675D01*
X151446875Y-84704994D01*
X151508641Y-84661745D01*
X151675735Y-84494651D01*
X151811275Y-84301080D01*
X151911143Y-84086913D01*
X151972303Y-83858658D01*
X151992899Y-83623250D01*
X151972303Y-83387842D01*
X151911143Y-83159587D01*
X151811275Y-82945421D01*
X151769295Y-82885466D01*
X151675734Y-82751847D01*
X151508642Y-82584756D01*
X151508636Y-82584751D01*
X151323082Y-82454825D01*
X151279457Y-82400248D01*
X151272263Y-82330750D01*
X151303786Y-82268395D01*
X151323082Y-82251675D01*
X151446875Y-82164994D01*
X151508641Y-82121745D01*
X151675735Y-81954651D01*
X151811275Y-81761080D01*
X151911143Y-81546913D01*
X151972303Y-81318658D01*
X151992899Y-81083250D01*
X151972303Y-80847842D01*
X151911143Y-80619587D01*
X151811275Y-80405421D01*
X151769295Y-80345466D01*
X151675734Y-80211847D01*
X151508642Y-80044756D01*
X151508636Y-80044751D01*
X151323082Y-79914825D01*
X151279457Y-79860248D01*
X151272263Y-79790750D01*
X151303786Y-79728395D01*
X151323082Y-79711675D01*
X151492487Y-79593056D01*
X151508641Y-79581745D01*
X151675735Y-79414651D01*
X151804240Y-79231126D01*
X151858817Y-79187502D01*
X151905815Y-79178250D01*
X155593240Y-79178250D01*
X155660279Y-79197935D01*
X155706034Y-79250739D01*
X155717240Y-79302250D01*
X155717240Y-89973250D01*
X173766383Y-89973250D01*
X173833422Y-89992935D01*
X173879177Y-90045739D01*
X173889121Y-90114897D01*
X173863165Y-90174769D01*
X173306467Y-90869804D01*
X172606736Y-91683955D01*
X171879234Y-92473389D01*
X171124835Y-93237160D01*
X170344441Y-93974351D01*
X169539926Y-94683253D01*
X169441315Y-94767154D01*
X169374004Y-94824423D01*
X169374000Y-94824426D01*
X169374001Y-94824426D01*
X169065197Y-95128175D01*
X169065198Y-95128175D01*
X168779096Y-95453395D01*
X168779095Y-95453396D01*
X168779093Y-95453399D01*
X168517177Y-95798400D01*
X168517174Y-95798405D01*
X168517174Y-95798404D01*
X168280816Y-96161378D01*
X168280812Y-96161383D01*
X168280812Y-96161385D01*
X168071228Y-96540464D01*
X167889517Y-96933666D01*
X167736623Y-97338943D01*
X167708777Y-97432737D01*
X167613345Y-97754178D01*
X167613346Y-97754178D01*
X167613343Y-97754188D01*
X167533157Y-98118848D01*
X167520316Y-98177245D01*
X167458029Y-98605894D01*
X167426805Y-99037924D01*
X167426813Y-99254501D01*
X167426813Y-108415610D01*
X167407128Y-108482649D01*
X167357587Y-108526856D01*
X167097386Y-108654972D01*
X166984120Y-108710741D01*
X166535075Y-108974897D01*
X166535075Y-108974896D01*
X166106852Y-109271623D01*
X166106850Y-109271625D01*
X165992975Y-109363745D01*
X165701807Y-109599287D01*
X165355277Y-109924972D01*
X165322177Y-109956081D01*
X165224630Y-110062446D01*
X165077557Y-110222812D01*
X165017738Y-110258914D01*
X164947896Y-110256945D01*
X164890206Y-110217529D01*
X164862984Y-110153181D01*
X164862873Y-110152179D01*
X164857914Y-110104994D01*
X164799419Y-109924966D01*
X164704773Y-109761034D01*
X164578111Y-109620362D01*
X164549104Y-109599287D01*
X164424974Y-109509101D01*
X164424969Y-109509098D01*
X164252047Y-109432107D01*
X164252042Y-109432105D01*
X164106240Y-109401115D01*
X164066886Y-109392750D01*
X163877594Y-109392750D01*
X163845137Y-109399648D01*
X163692437Y-109432105D01*
X163692432Y-109432107D01*
X163519510Y-109509098D01*
X163519505Y-109509101D01*
X163366369Y-109620361D01*
X163239706Y-109761035D01*
X163145061Y-109924965D01*
X163145058Y-109924972D01*
X163086567Y-110104990D01*
X163086566Y-110104994D01*
X163066780Y-110293250D01*
X163086566Y-110481506D01*
X163086567Y-110481509D01*
X163145058Y-110661527D01*
X163145061Y-110661534D01*
X163239707Y-110825466D01*
X163366368Y-110966138D01*
X163366369Y-110966138D01*
X163519505Y-111077398D01*
X163519510Y-111077401D01*
X163692432Y-111154392D01*
X163692437Y-111154394D01*
X163877594Y-111193750D01*
X163877595Y-111193750D01*
X164066884Y-111193750D01*
X164066886Y-111193750D01*
X164116562Y-111183191D01*
X164186228Y-111188507D01*
X164241962Y-111230644D01*
X164266067Y-111296224D01*
X164250890Y-111364425D01*
X164249995Y-111366016D01*
X164148103Y-111544173D01*
X164097235Y-111633113D01*
X164097234Y-111633113D01*
X164097234Y-111633114D01*
X163872828Y-112103288D01*
X163683904Y-112588808D01*
X163683903Y-112588812D01*
X163683902Y-112588812D01*
X163531500Y-113087001D01*
X163531501Y-113087000D01*
X163416458Y-113595120D01*
X163339410Y-114110368D01*
X163339410Y-114110369D01*
X163300779Y-114629923D01*
X163300779Y-115150898D01*
X163339410Y-115670453D01*
X163382622Y-115959422D01*
X163416459Y-116185701D01*
X163475747Y-116447568D01*
X163531501Y-116693821D01*
X163531500Y-116693820D01*
X163683902Y-117192010D01*
X163848804Y-117615792D01*
X163872829Y-117677533D01*
X164097234Y-118147707D01*
X164355886Y-118599948D01*
X164355888Y-118599951D01*
X164355887Y-118599950D01*
X164647364Y-119031773D01*
X164708644Y-119109446D01*
X164734714Y-119174270D01*
X164721599Y-119242897D01*
X164673462Y-119293540D01*
X164611294Y-119310250D01*
X158061149Y-119310250D01*
X157994110Y-119290565D01*
X157948355Y-119237761D01*
X157937319Y-119192739D01*
X157936054Y-119168603D01*
X157933342Y-119116846D01*
X157875945Y-118754456D01*
X157780982Y-118400051D01*
X157649495Y-118057514D01*
X157482922Y-117730598D01*
X157482919Y-117730593D01*
X157283092Y-117422885D01*
X157214560Y-117338255D01*
X159291597Y-117338255D01*
X159312130Y-117586062D01*
X159312132Y-117586074D01*
X159373176Y-117827131D01*
X159473066Y-118054856D01*
X159609073Y-118263032D01*
X159609076Y-118263035D01*
X159777496Y-118445988D01*
X159973731Y-118598724D01*
X160192430Y-118717078D01*
X160427626Y-118797821D01*
X160672905Y-118838750D01*
X160921575Y-118838750D01*
X161166854Y-118797821D01*
X161402050Y-118717078D01*
X161620749Y-118598724D01*
X161816984Y-118445988D01*
X161985404Y-118263035D01*
X162121413Y-118054857D01*
X162221303Y-117827131D01*
X162282348Y-117586071D01*
X162286126Y-117540477D01*
X162302883Y-117338255D01*
X162302883Y-117338244D01*
X162282349Y-117090437D01*
X162282347Y-117090425D01*
X162221303Y-116849368D01*
X162121413Y-116621643D01*
X161985406Y-116413467D01*
X161963797Y-116389994D01*
X161816984Y-116230512D01*
X161620749Y-116077776D01*
X161620747Y-116077775D01*
X161620746Y-116077774D01*
X161402051Y-115959422D01*
X161402042Y-115959419D01*
X161166856Y-115878679D01*
X160921575Y-115837750D01*
X160672905Y-115837750D01*
X160427623Y-115878679D01*
X160192437Y-115959419D01*
X160192428Y-115959422D01*
X159973733Y-116077774D01*
X159777497Y-116230511D01*
X159609073Y-116413467D01*
X159473066Y-116621643D01*
X159373176Y-116849368D01*
X159312132Y-117090425D01*
X159312130Y-117090437D01*
X159291597Y-117338244D01*
X159291597Y-117338255D01*
X157214560Y-117338255D01*
X157052192Y-117137748D01*
X157052189Y-117137744D01*
X156792746Y-116878301D01*
X156564934Y-116693822D01*
X156507604Y-116647397D01*
X156199896Y-116447570D01*
X155872979Y-116280996D01*
X155530446Y-116149510D01*
X155529976Y-116149384D01*
X155176034Y-116054545D01*
X155176030Y-116054544D01*
X155176029Y-116054544D01*
X154813645Y-115997148D01*
X154447241Y-115977946D01*
X154447239Y-115977946D01*
X154080834Y-115997148D01*
X153718451Y-116054544D01*
X153718449Y-116054544D01*
X153364033Y-116149510D01*
X153021500Y-116280996D01*
X152694583Y-116447570D01*
X152386875Y-116647397D01*
X152101738Y-116878297D01*
X152101730Y-116878304D01*
X151842294Y-117137740D01*
X151842287Y-117137748D01*
X151611387Y-117422885D01*
X151411560Y-117730593D01*
X151244986Y-118057510D01*
X151113500Y-118400043D01*
X151018534Y-118754459D01*
X151018534Y-118754461D01*
X150961138Y-119116844D01*
X150957161Y-119192739D01*
X150933995Y-119258657D01*
X150878869Y-119301585D01*
X150833331Y-119310250D01*
X134242624Y-119310250D01*
X134175585Y-119290565D01*
X134129830Y-119237761D01*
X134119886Y-119168603D01*
X134146085Y-119108429D01*
X134173645Y-119074240D01*
X134466989Y-118650105D01*
X134728443Y-118205608D01*
X134728443Y-118205609D01*
X134956609Y-117743131D01*
X135120643Y-117338250D01*
X135150251Y-117265170D01*
X135308328Y-116774302D01*
X135308329Y-116774302D01*
X135429991Y-116273168D01*
X135514584Y-115764455D01*
X135561652Y-115250907D01*
X135561652Y-115250906D01*
X135570941Y-114735297D01*
X135542401Y-114220388D01*
X135476186Y-113708961D01*
X135372655Y-113203777D01*
X135339641Y-113087000D01*
X135232359Y-112707525D01*
X135056058Y-112222902D01*
X135003734Y-112106451D01*
X134844703Y-111752511D01*
X134844703Y-111752512D01*
X134635739Y-111366043D01*
X134599424Y-111298879D01*
X134599423Y-111298877D01*
X134321551Y-110864458D01*
X134293351Y-110826775D01*
X134068617Y-110526465D01*
X134012566Y-110451565D01*
X133751996Y-110151960D01*
X133674148Y-110062449D01*
X133308110Y-109699190D01*
X132916423Y-109363745D01*
X132916422Y-109363744D01*
X132916421Y-109363743D01*
X132501196Y-109057921D01*
X132501190Y-109057917D01*
X132501187Y-109057915D01*
X132446072Y-109023250D01*
X138936780Y-109023250D01*
X138956566Y-109211506D01*
X138956567Y-109211509D01*
X139015058Y-109391527D01*
X139015061Y-109391534D01*
X139109707Y-109555466D01*
X139149164Y-109599287D01*
X139236369Y-109696138D01*
X139389505Y-109807398D01*
X139389510Y-109807401D01*
X139562432Y-109884392D01*
X139562437Y-109884394D01*
X139747594Y-109923750D01*
X139747595Y-109923750D01*
X139936884Y-109923750D01*
X139936886Y-109923750D01*
X140122043Y-109884394D01*
X140294970Y-109807401D01*
X140448111Y-109696138D01*
X140574773Y-109555466D01*
X140669419Y-109391534D01*
X140727914Y-109211506D01*
X140747700Y-109023250D01*
X142746780Y-109023250D01*
X142766566Y-109211506D01*
X142766567Y-109211509D01*
X142825058Y-109391527D01*
X142825061Y-109391534D01*
X142919707Y-109555466D01*
X142959164Y-109599287D01*
X143046369Y-109696138D01*
X143199505Y-109807398D01*
X143199510Y-109807401D01*
X143372432Y-109884392D01*
X143372437Y-109884394D01*
X143557594Y-109923750D01*
X143557595Y-109923750D01*
X143746884Y-109923750D01*
X143746886Y-109923750D01*
X143932043Y-109884394D01*
X144104970Y-109807401D01*
X144258111Y-109696138D01*
X144384773Y-109555466D01*
X144479419Y-109391534D01*
X144537914Y-109211506D01*
X144557700Y-109023250D01*
X144537914Y-108834994D01*
X144479419Y-108654966D01*
X144384773Y-108491034D01*
X144258111Y-108350362D01*
X144258110Y-108350361D01*
X144104974Y-108239101D01*
X144104969Y-108239098D01*
X143932047Y-108162107D01*
X143932042Y-108162105D01*
X143786240Y-108131115D01*
X143746886Y-108122750D01*
X143557594Y-108122750D01*
X143525137Y-108129648D01*
X143372437Y-108162105D01*
X143372432Y-108162107D01*
X143199510Y-108239098D01*
X143199505Y-108239101D01*
X143046369Y-108350361D01*
X142919706Y-108491035D01*
X142825061Y-108654965D01*
X142825058Y-108654972D01*
X142783342Y-108783363D01*
X142766566Y-108834994D01*
X142746780Y-109023250D01*
X140747700Y-109023250D01*
X140727914Y-108834994D01*
X140669419Y-108654966D01*
X140574773Y-108491034D01*
X140448111Y-108350362D01*
X140448110Y-108350361D01*
X140294974Y-108239101D01*
X140294969Y-108239098D01*
X140122047Y-108162107D01*
X140122042Y-108162105D01*
X139976240Y-108131115D01*
X139936886Y-108122750D01*
X139747594Y-108122750D01*
X139715137Y-108129648D01*
X139562437Y-108162105D01*
X139562432Y-108162107D01*
X139389510Y-108239098D01*
X139389505Y-108239101D01*
X139236369Y-108350361D01*
X139109706Y-108491035D01*
X139015061Y-108654965D01*
X139015058Y-108654972D01*
X138973342Y-108783363D01*
X138956566Y-108834994D01*
X138936780Y-109023250D01*
X132446072Y-109023250D01*
X132146755Y-108834994D01*
X132064665Y-108783363D01*
X131927866Y-108710738D01*
X131656215Y-108566522D01*
X131606232Y-108517700D01*
X131590359Y-108456999D01*
X131590359Y-99391222D01*
X131590421Y-99205750D01*
X138936780Y-99205750D01*
X138956566Y-99394006D01*
X138956567Y-99394009D01*
X139015058Y-99574027D01*
X139015061Y-99574034D01*
X139109707Y-99737966D01*
X139225294Y-99866338D01*
X139236369Y-99878638D01*
X139389505Y-99989898D01*
X139389510Y-99989901D01*
X139562432Y-100066892D01*
X139562437Y-100066894D01*
X139747594Y-100106250D01*
X139747595Y-100106250D01*
X139936884Y-100106250D01*
X139936886Y-100106250D01*
X140122043Y-100066894D01*
X140294970Y-99989901D01*
X140448111Y-99878638D01*
X140574773Y-99737966D01*
X140669419Y-99574034D01*
X140727914Y-99394006D01*
X140747700Y-99205750D01*
X140746407Y-99193450D01*
X142797580Y-99193450D01*
X142817366Y-99381706D01*
X142817367Y-99381709D01*
X142875858Y-99561727D01*
X142875861Y-99561734D01*
X142970507Y-99725666D01*
X143097168Y-99866337D01*
X143097169Y-99866338D01*
X143250305Y-99977598D01*
X143250310Y-99977601D01*
X143423232Y-100054592D01*
X143423237Y-100054594D01*
X143608394Y-100093950D01*
X143608395Y-100093950D01*
X143797684Y-100093950D01*
X143797686Y-100093950D01*
X143982843Y-100054594D01*
X144155770Y-99977601D01*
X144308911Y-99866338D01*
X144435573Y-99725666D01*
X144530219Y-99561734D01*
X144588714Y-99381706D01*
X144608500Y-99193450D01*
X144588714Y-99005194D01*
X144530219Y-98825166D01*
X144435573Y-98661234D01*
X144308911Y-98520562D01*
X144308910Y-98520561D01*
X144155774Y-98409301D01*
X144155769Y-98409298D01*
X143982847Y-98332307D01*
X143982842Y-98332305D01*
X143837040Y-98301315D01*
X143797686Y-98292950D01*
X143608394Y-98292950D01*
X143575937Y-98299848D01*
X143423237Y-98332305D01*
X143423232Y-98332307D01*
X143250310Y-98409298D01*
X143250305Y-98409301D01*
X143097169Y-98520561D01*
X142970506Y-98661235D01*
X142875861Y-98825165D01*
X142875858Y-98825172D01*
X142817367Y-99005190D01*
X142817366Y-99005194D01*
X142797580Y-99193450D01*
X140746407Y-99193450D01*
X140727914Y-99017494D01*
X140669419Y-98837466D01*
X140574773Y-98673534D01*
X140448111Y-98532862D01*
X140448110Y-98532861D01*
X140294974Y-98421601D01*
X140294969Y-98421598D01*
X140122047Y-98344607D01*
X140122042Y-98344605D01*
X139976240Y-98313615D01*
X139936886Y-98305250D01*
X139747594Y-98305250D01*
X139715137Y-98312148D01*
X139562437Y-98344605D01*
X139562432Y-98344607D01*
X139389510Y-98421598D01*
X139389505Y-98421601D01*
X139236369Y-98532861D01*
X139109706Y-98673535D01*
X139015061Y-98837465D01*
X139015058Y-98837472D01*
X138958221Y-99012401D01*
X138956566Y-99017494D01*
X138936780Y-99205750D01*
X131590421Y-99205750D01*
X131590443Y-99140078D01*
X131586787Y-99089394D01*
X131573809Y-98909448D01*
X131559126Y-98705872D01*
X131559125Y-98705872D01*
X131552631Y-98661234D01*
X131496458Y-98275087D01*
X131402767Y-97849964D01*
X131278545Y-97432740D01*
X131243043Y-97338942D01*
X131124448Y-97025610D01*
X131124448Y-97025611D01*
X131124445Y-97025603D01*
X130941275Y-96630690D01*
X130729995Y-96250074D01*
X130680306Y-96174101D01*
X130491720Y-95885757D01*
X130227685Y-95539634D01*
X130227685Y-95539633D01*
X129939295Y-95213544D01*
X129814120Y-95091138D01*
X129628050Y-94909183D01*
X129578960Y-94867677D01*
X129576237Y-94865232D01*
X129575695Y-94864715D01*
X129575690Y-94864710D01*
X129538472Y-94833307D01*
X129460030Y-94767121D01*
X129276252Y-94606506D01*
X128647890Y-94057340D01*
X127860879Y-93319680D01*
X127100008Y-92555086D01*
X126366198Y-91764484D01*
X125660339Y-90948830D01*
X125036474Y-90175080D01*
X125009720Y-90110538D01*
X125022107Y-90041775D01*
X125069704Y-89990625D01*
X125133006Y-89973250D01*
X143017240Y-89973250D01*
X143017240Y-79302250D01*
X143036925Y-79235211D01*
X143089729Y-79189456D01*
X143141240Y-79178250D01*
X146828665Y-79178250D01*
X146895704Y-79197935D01*
G37*
%TD.AperFunction*%
%TD*%
M02*
