%TF.GenerationSoftware,KiCad,Pcbnew,7.0.1*%
%TF.CreationDate,2024-07-26T16:33:55+03:00*%
%TF.ProjectId,_______ _____,21383b3e-3230-44f2-903f-3b3042302e6b,rev?*%
%TF.SameCoordinates,Original*%
%TF.FileFunction,Copper,L4,Inr*%
%TF.FilePolarity,Positive*%
%FSLAX46Y46*%
G04 Gerber Fmt 4.6, Leading zero omitted, Abs format (unit mm)*
G04 Created by KiCad (PCBNEW 7.0.1) date 2024-07-26 16:33:55*
%MOMM*%
%LPD*%
G01*
G04 APERTURE LIST*
%TA.AperFunction,ComponentPad*%
%ADD10C,5.000000*%
%TD*%
%TA.AperFunction,ComponentPad*%
%ADD11C,8.200000*%
%TD*%
%TA.AperFunction,ComponentPad*%
%ADD12C,6.000000*%
%TD*%
%TA.AperFunction,ComponentPad*%
%ADD13R,1.350000X1.350000*%
%TD*%
%TA.AperFunction,ComponentPad*%
%ADD14O,1.350000X1.350000*%
%TD*%
%TA.AperFunction,ComponentPad*%
%ADD15C,2.000000*%
%TD*%
%TA.AperFunction,ViaPad*%
%ADD16C,0.800000*%
%TD*%
%TA.AperFunction,Conductor*%
%ADD17C,0.250000*%
%TD*%
G04 APERTURE END LIST*
D10*
%TO.N,Earth_Protective*%
%TO.C,J8*%
X132222240Y-124898250D03*
%TD*%
D11*
%TO.N,C*%
%TO.C,J4*%
X127142240Y-58223250D03*
%TD*%
%TO.N,A*%
%TO.C,J1*%
X171592240Y-58223250D03*
%TD*%
D10*
%TO.N,Earth_Protective*%
%TO.C,J2*%
X167147240Y-124898250D03*
%TD*%
D12*
%TO.N,Shunt_1*%
%TO.C,J6*%
X144287240Y-119483250D03*
%TD*%
D13*
%TO.N,+3.3V*%
%TO.C,J7*%
X150367240Y-70686250D03*
D14*
%TO.N,~{OS}_MCU*%
X148367240Y-70686250D03*
%TO.N,G3*%
X150367240Y-72686250D03*
%TO.N,SCL_MCU*%
X148367240Y-72686250D03*
%TO.N,B*%
X150367240Y-74686250D03*
%TO.N,SDA_MCU*%
X148367240Y-74686250D03*
%TO.N,G2*%
X150367240Y-76686250D03*
%TO.N,G4*%
X148367240Y-76686250D03*
%TO.N,GND*%
X150367240Y-78686250D03*
X148367240Y-78686250D03*
%TO.N,G1*%
X150367240Y-80686250D03*
%TO.N,G6*%
X148367240Y-80686250D03*
%TO.N,A*%
X150367240Y-82686250D03*
%TO.N,C*%
X148367240Y-82686250D03*
%TO.N,GND*%
X150367240Y-84686250D03*
%TO.N,G5*%
X148367240Y-84686250D03*
%TO.N,Shunt_1*%
X150367240Y-86686250D03*
%TO.N,GND*%
X148367240Y-86686250D03*
%TO.N,Shunt_1*%
X150367240Y-88686250D03*
%TO.N,Shunt_2*%
X148367240Y-88686250D03*
%TD*%
D11*
%TO.N,B*%
%TO.C,J3*%
X149367240Y-43618250D03*
%TD*%
D15*
%TO.N,Earth_Protective*%
%TO.C,C44*%
X160797240Y-124838250D03*
%TO.N,Net-(J5-Pin_1)*%
X160797240Y-117338250D03*
%TD*%
D12*
%TO.N,Net-(J5-Pin_1)*%
%TO.C,J5*%
X154447240Y-119483250D03*
%TD*%
D15*
%TO.N,Shunt_1*%
%TO.C,C45*%
X137937240Y-117338250D03*
%TO.N,Earth_Protective*%
X137937240Y-124838250D03*
%TD*%
D16*
%TO.N,Shunt_2*%
X143510000Y-78105000D03*
X143510000Y-79375000D03*
X144145000Y-77470000D03*
X144145000Y-78740000D03*
X144145000Y-80010000D03*
X154940000Y-80010000D03*
%TO.N,G1*%
X158892240Y-77273250D03*
%TO.N,A*%
X176672240Y-69653250D03*
X158892240Y-79813250D03*
X170322240Y-65843250D03*
X173497240Y-67113250D03*
X158892240Y-81083250D03*
X173497240Y-70923250D03*
X158892240Y-82353250D03*
X173497240Y-65843250D03*
X170322240Y-70923250D03*
X173497240Y-69653250D03*
X170322240Y-68383250D03*
X173497240Y-68383250D03*
X170322240Y-72193250D03*
X176672240Y-64573250D03*
X170322240Y-64573250D03*
X176672240Y-68383250D03*
X176672240Y-67113250D03*
X158892240Y-78543250D03*
X158892240Y-86163250D03*
X176672240Y-70923250D03*
X158892240Y-84893250D03*
X176672240Y-72193250D03*
X176672240Y-65843250D03*
X158892240Y-83623250D03*
X170322240Y-69653250D03*
X170322240Y-67113250D03*
%TO.N,G2*%
X162702240Y-63938250D03*
%TO.N,GND*%
X144922240Y-62033250D03*
X162702240Y-95688250D03*
X163830000Y-72828250D03*
X162702240Y-65208250D03*
X163972240Y-93148250D03*
X176926240Y-82988250D03*
X135397240Y-66478250D03*
X162702240Y-70288250D03*
X159527240Y-91878250D03*
X135397240Y-65208250D03*
X164607240Y-94418250D03*
X160797240Y-91878250D03*
X164607240Y-91878250D03*
X124348240Y-75368250D03*
X163337240Y-94418250D03*
X146192240Y-62033250D03*
X124094240Y-81464250D03*
X147970240Y-57287750D03*
X164607240Y-98228250D03*
X139842240Y-109023250D03*
X165242240Y-93148250D03*
X158257240Y-91878250D03*
X163337240Y-96958250D03*
X135397240Y-69018250D03*
X177942240Y-75114250D03*
X162702240Y-69018250D03*
X139842240Y-99205750D03*
X135397240Y-67748250D03*
X135397240Y-70288250D03*
X142382240Y-62033250D03*
X143703040Y-99193450D03*
X135397240Y-63938250D03*
X141112240Y-62033250D03*
X163972240Y-110293250D03*
X143652240Y-109023250D03*
X162067240Y-91878250D03*
X162702240Y-66478250D03*
X143652240Y-62033250D03*
X163337240Y-98228250D03*
X164607240Y-96958250D03*
X135397240Y-71558250D03*
X138572240Y-62033250D03*
X163337240Y-91878250D03*
X163830000Y-71558250D03*
X163972240Y-95688250D03*
X162702240Y-67748250D03*
X139842240Y-62033250D03*
%TO.N,G3*%
X152415240Y-62668250D03*
%TO.N,B*%
X138572240Y-51873250D03*
X143652240Y-55048250D03*
X142382240Y-51873250D03*
X141112240Y-48698250D03*
X139842240Y-48698250D03*
X137302240Y-55048250D03*
X137302240Y-48698250D03*
X139842240Y-51873250D03*
X143652240Y-48698250D03*
X157622240Y-62668250D03*
X139842240Y-55048250D03*
X153812240Y-62668250D03*
X155082240Y-62668250D03*
X143652240Y-51873250D03*
X142382240Y-48698250D03*
X161432240Y-62668250D03*
X138572240Y-55048250D03*
X141112240Y-55048250D03*
X142382240Y-55048250D03*
X158892240Y-62668250D03*
X138572240Y-48698250D03*
X141112240Y-51873250D03*
X144922240Y-55048250D03*
X160162240Y-62668250D03*
X144922240Y-48698250D03*
X156352240Y-62668250D03*
%TO.N,G4*%
X137302240Y-62033250D03*
%TO.N,G5*%
X139842240Y-86163250D03*
%TO.N,C*%
X139842240Y-82353250D03*
X128412240Y-69653250D03*
X139842240Y-84893250D03*
X128412240Y-68383250D03*
X128412240Y-67113250D03*
X125237240Y-69653250D03*
X125237240Y-67113250D03*
X122062240Y-68383250D03*
X122062240Y-67113250D03*
X139842240Y-79813250D03*
X122062240Y-70923250D03*
X128412240Y-64573250D03*
X122062240Y-64573250D03*
X122062240Y-65843250D03*
X128412240Y-65843250D03*
X128412240Y-70923250D03*
X125237240Y-68383250D03*
X139842240Y-77273250D03*
X125237240Y-70923250D03*
X122062240Y-72193250D03*
X128412240Y-72193250D03*
X125237240Y-65843250D03*
X139842240Y-78543250D03*
X139842240Y-81083250D03*
X139842240Y-83623250D03*
X122062240Y-69653250D03*
%TO.N,G6*%
X135397240Y-72828250D03*
%TO.N,Shunt_1*%
X134762240Y-97593250D03*
X143652240Y-105213250D03*
X136032240Y-105213250D03*
X165877240Y-106483250D03*
X143652240Y-103943250D03*
X134762240Y-95053250D03*
X147462240Y-97593250D03*
X139842240Y-105213250D03*
X134762240Y-96323250D03*
X147462240Y-103943250D03*
X144287240Y-86442750D03*
X158750000Y-93726000D03*
X134762240Y-98863250D03*
X147462240Y-105213250D03*
X136398000Y-90678000D03*
X147320000Y-93726000D03*
X154940000Y-93726000D03*
X139842240Y-103943250D03*
X143510000Y-93726000D03*
X151130000Y-93726000D03*
X133350000Y-90805000D03*
%TO.N,Shunt_2*%
X153812240Y-69018250D03*
X157368240Y-51873250D03*
X126507240Y-85528250D03*
X154432000Y-70358000D03*
X151384000Y-91948000D03*
X169052240Y-81718250D03*
X153558240Y-55048250D03*
X126507240Y-79178250D03*
X172227240Y-77908250D03*
X159908240Y-51873250D03*
X158638240Y-55048250D03*
X165877240Y-77908250D03*
X157368240Y-48698250D03*
X129682240Y-81718250D03*
X169052240Y-84258250D03*
X154447240Y-67748250D03*
X155082240Y-66478250D03*
X126507240Y-77908250D03*
X172227240Y-79178250D03*
X132857240Y-77908250D03*
X143652240Y-65208250D03*
X129682240Y-79178250D03*
X165877240Y-84258250D03*
X172227240Y-84258250D03*
X126507240Y-82988250D03*
X156098240Y-55048250D03*
X151384000Y-90170000D03*
X132857240Y-85528250D03*
X150114000Y-90170000D03*
X169052240Y-82988250D03*
X154828240Y-51873250D03*
X132857240Y-81718250D03*
X159908240Y-55048250D03*
X129682240Y-84258250D03*
X154828240Y-48698250D03*
X156098240Y-51873250D03*
X159908240Y-48698250D03*
X172227240Y-82988250D03*
X165877240Y-79178250D03*
X153558240Y-48698250D03*
X126507240Y-84258250D03*
X155082240Y-69018250D03*
X129682240Y-82988250D03*
X132857240Y-82988250D03*
X152146000Y-91186000D03*
X165877240Y-81718250D03*
X161178240Y-55048250D03*
X158638240Y-51873250D03*
X143652240Y-70923250D03*
X155717240Y-67748250D03*
X153812240Y-66478250D03*
X144287240Y-66478250D03*
X165877240Y-85528250D03*
X149606000Y-91186000D03*
X154828240Y-55048250D03*
X155717240Y-65208250D03*
X144922240Y-65208250D03*
X126507240Y-81718250D03*
X154447240Y-65208250D03*
X161178240Y-48698250D03*
X172227240Y-85528250D03*
X165877240Y-80448250D03*
X150876000Y-91186000D03*
X132857240Y-79178250D03*
X158638240Y-48698250D03*
X132857240Y-84258250D03*
X129682240Y-80448250D03*
X150114000Y-91948000D03*
X169052240Y-80448250D03*
X139446000Y-90678000D03*
X165877240Y-82988250D03*
X169052240Y-79178250D03*
X156098240Y-48698250D03*
X126507240Y-80448250D03*
X145557240Y-66478250D03*
X144922240Y-72193250D03*
X172227240Y-80448250D03*
X148844000Y-91948000D03*
X172227240Y-81718250D03*
X132857240Y-80448250D03*
X157368240Y-55048250D03*
%TO.N,+3.3V*%
X120792240Y-75368250D03*
X150764240Y-61605750D03*
X174384056Y-75115342D03*
X148224240Y-66050750D03*
%TO.N,SDA_MCU*%
X153921356Y-75694733D03*
X121300240Y-79940250D03*
X142025166Y-74658101D03*
X175148240Y-79940250D03*
X150764240Y-60081750D03*
%TO.N,SCL_MCU*%
X176159941Y-79935951D03*
X149748240Y-60081750D03*
X154616364Y-74976424D03*
X141978295Y-75673650D03*
X122316240Y-79940250D03*
%TO.N,~{OS}_MCU*%
X148732240Y-60081750D03*
X141994489Y-76934952D03*
X177180240Y-79940250D03*
X123332240Y-79940250D03*
X155448000Y-74422000D03*
%TD*%
D17*
%TO.N,SCL_MCU*%
X141990895Y-75686250D02*
X141978295Y-75673650D01*
X154646356Y-75995038D02*
X154221661Y-76419733D01*
X154646356Y-75394428D02*
X154646356Y-75995038D01*
X150938178Y-71686250D02*
X154646356Y-75394428D01*
X154221661Y-76419733D02*
X153621051Y-76419733D01*
X149367240Y-71686250D02*
X150938178Y-71686250D01*
X153621051Y-76419733D02*
X152887568Y-75686250D01*
X152887568Y-75686250D02*
X141990895Y-75686250D01*
%TO.N,SDA_MCU*%
X142493065Y-75126000D02*
X147927490Y-75126000D01*
X142025166Y-74658101D02*
X142493065Y-75126000D01*
X148367240Y-74686250D02*
X149367240Y-73686250D01*
X149367240Y-73686250D02*
X151912873Y-73686250D01*
X151912873Y-73686250D02*
X153921356Y-75694733D01*
%TO.N,SCL_MCU*%
X154478424Y-74976424D02*
X151188250Y-71686250D01*
X149367240Y-71686250D02*
X148367240Y-72686250D01*
X151188250Y-71686250D02*
X149367240Y-71686250D01*
X154616364Y-74976424D02*
X154478424Y-74976424D01*
%TO.N,~{OS}_MCU*%
X148367240Y-69717160D02*
X148844000Y-69240400D01*
X148367240Y-70686250D02*
X148367240Y-69717160D01*
X148367240Y-70686250D02*
X148367240Y-69754240D01*
X148844000Y-69240400D02*
X150921390Y-69240400D01*
X153181990Y-72409990D02*
X155194000Y-74422000D01*
X150921390Y-69240400D02*
X153181990Y-71501000D01*
X153181990Y-71501000D02*
X153181990Y-72409990D01*
X155194000Y-74422000D02*
X155448000Y-74422000D01*
%TD*%
%TA.AperFunction,Conductor*%
%TO.N,Shunt_2*%
G36*
X153860043Y-40390056D02*
G01*
X153864325Y-40390671D01*
X154952392Y-40566989D01*
X154956722Y-40567770D01*
X156037776Y-40782805D01*
X156042043Y-40783733D01*
X157114734Y-41037216D01*
X157118970Y-41038297D01*
X157677846Y-41191617D01*
X157736955Y-41227968D01*
X157767280Y-41290384D01*
X157759321Y-41359319D01*
X157743545Y-41396784D01*
X157613986Y-41808629D01*
X157523559Y-42230808D01*
X157473064Y-42659587D01*
X157462944Y-43091221D01*
X157493283Y-43521888D01*
X157563824Y-43947844D01*
X157673934Y-44365303D01*
X157748936Y-44569711D01*
X157822659Y-44770631D01*
X157911061Y-44955783D01*
X158008683Y-45160247D01*
X158230374Y-45530732D01*
X158485782Y-45878826D01*
X158772663Y-46201474D01*
X159088503Y-46495846D01*
X159338545Y-46688487D01*
X159430514Y-46759343D01*
X159795699Y-46989658D01*
X160180846Y-47184764D01*
X160582571Y-47342947D01*
X160997343Y-47462817D01*
X161421518Y-47543321D01*
X161751435Y-47574351D01*
X161851365Y-47583750D01*
X161851367Y-47583750D01*
X162175111Y-47583750D01*
X162175117Y-47583750D01*
X162498512Y-47568575D01*
X162925993Y-47508042D01*
X163345928Y-47407745D01*
X163754626Y-47268566D01*
X164148495Y-47091727D01*
X164328518Y-46989658D01*
X164524075Y-46878782D01*
X164750183Y-46720897D01*
X164878062Y-46631603D01*
X165207348Y-46352363D01*
X165509039Y-46043515D01*
X165780484Y-45707773D01*
X166019296Y-45348087D01*
X166144150Y-45115321D01*
X166191525Y-45066491D01*
X166257538Y-45050006D01*
X166322310Y-45070835D01*
X166456122Y-45160246D01*
X167128368Y-45609426D01*
X167131997Y-45611945D01*
X167730483Y-46043515D01*
X168026028Y-46256633D01*
X168029571Y-46259286D01*
X168899997Y-46935454D01*
X168903415Y-46938209D01*
X169087110Y-47091727D01*
X169749136Y-47644999D01*
X169752481Y-47647897D01*
X170572490Y-48384471D01*
X170575717Y-48387476D01*
X171368891Y-49152826D01*
X171371971Y-49155906D01*
X172137309Y-49949067D01*
X172140326Y-49952307D01*
X172876900Y-50772316D01*
X172879798Y-50775661D01*
X173586577Y-51621368D01*
X173589355Y-51624815D01*
X174265511Y-52495226D01*
X174268164Y-52498769D01*
X174912847Y-53392793D01*
X174915371Y-53396429D01*
X175527714Y-54312865D01*
X175530107Y-54316589D01*
X176109347Y-55254292D01*
X176111606Y-55258099D01*
X176657008Y-56215879D01*
X176659130Y-56219764D01*
X177170014Y-57196429D01*
X177171995Y-57200387D01*
X177647684Y-58194642D01*
X177649523Y-58198669D01*
X178089423Y-59209274D01*
X178091117Y-59213364D01*
X178494662Y-60239015D01*
X178496209Y-60243162D01*
X178862893Y-61282576D01*
X178864291Y-61286776D01*
X179193642Y-62338616D01*
X179194889Y-62342863D01*
X179486493Y-63405801D01*
X179487587Y-63410090D01*
X179741057Y-64482724D01*
X179741987Y-64486998D01*
X179775648Y-64656222D01*
X179783959Y-64698003D01*
X179786341Y-64722490D01*
X179755706Y-77575694D01*
X179752577Y-77603076D01*
X179544016Y-78513861D01*
X179542986Y-78518030D01*
X179268362Y-79551439D01*
X179267187Y-79555569D01*
X178956965Y-80578791D01*
X178955648Y-80582879D01*
X178610178Y-81594753D01*
X178608721Y-81598792D01*
X178228409Y-82598135D01*
X178226812Y-82602121D01*
X178065368Y-82985821D01*
X178025602Y-83036834D01*
X177965558Y-83060882D01*
X177901573Y-83051422D01*
X177851056Y-83011029D01*
X177827752Y-82950694D01*
X177811914Y-82799994D01*
X177764677Y-82654614D01*
X177753419Y-82619965D01*
X177658773Y-82456033D01*
X177532110Y-82315360D01*
X177378970Y-82204098D01*
X177206042Y-82127105D01*
X177020888Y-82087750D01*
X177020886Y-82087750D01*
X176831594Y-82087750D01*
X176831592Y-82087750D01*
X176646437Y-82127105D01*
X176473509Y-82204098D01*
X176320369Y-82315360D01*
X176193706Y-82456033D01*
X176099060Y-82619965D01*
X176040566Y-82799992D01*
X176029501Y-82905276D01*
X176020780Y-82988250D01*
X176028414Y-83060882D01*
X176040566Y-83176507D01*
X176099060Y-83356534D01*
X176193706Y-83520466D01*
X176320369Y-83661139D01*
X176473509Y-83772401D01*
X176646437Y-83849394D01*
X176831592Y-83888750D01*
X176831594Y-83888750D01*
X177020886Y-83888750D01*
X177020888Y-83888750D01*
X177144323Y-83862512D01*
X177206043Y-83849394D01*
X177378970Y-83772401D01*
X177450841Y-83720184D01*
X177517518Y-83671741D01*
X177577787Y-83648702D01*
X177641473Y-83659064D01*
X177691331Y-83700020D01*
X177713861Y-83760482D01*
X177702964Y-83824078D01*
X177361861Y-84562172D01*
X177359993Y-84566038D01*
X176878088Y-85520552D01*
X176876086Y-85524351D01*
X176361444Y-86461564D01*
X176359312Y-86465292D01*
X175812529Y-87384120D01*
X175810270Y-87387772D01*
X175231971Y-88287160D01*
X175229586Y-88290731D01*
X174620510Y-89169531D01*
X174618003Y-89173017D01*
X173978877Y-90030184D01*
X173976251Y-90033582D01*
X173307815Y-90868119D01*
X173305073Y-90871424D01*
X172608125Y-91682337D01*
X172605270Y-91685544D01*
X171932092Y-92416031D01*
X171890687Y-92445569D01*
X171840907Y-92456000D01*
X165861751Y-92456000D01*
X165823433Y-92449931D01*
X165788867Y-92432319D01*
X165750578Y-92404500D01*
X165694967Y-92364096D01*
X165535973Y-92293307D01*
X165488695Y-92256370D01*
X165464293Y-92201560D01*
X165468477Y-92141712D01*
X165492914Y-92066506D01*
X165512700Y-91878250D01*
X165492914Y-91689994D01*
X165434419Y-91509966D01*
X165434419Y-91509965D01*
X165339773Y-91346033D01*
X165213110Y-91205360D01*
X165059970Y-91094098D01*
X164887042Y-91017105D01*
X164701888Y-90977750D01*
X164701886Y-90977750D01*
X164512594Y-90977750D01*
X164512592Y-90977750D01*
X164327437Y-91017105D01*
X164154509Y-91094098D01*
X164045125Y-91173571D01*
X163998021Y-91194543D01*
X163946459Y-91194543D01*
X163899355Y-91173571D01*
X163789970Y-91094098D01*
X163617042Y-91017105D01*
X163431888Y-90977750D01*
X163431886Y-90977750D01*
X163242594Y-90977750D01*
X163242592Y-90977750D01*
X163057437Y-91017105D01*
X162884509Y-91094098D01*
X162775125Y-91173571D01*
X162728021Y-91194543D01*
X162676459Y-91194543D01*
X162629355Y-91173571D01*
X162519970Y-91094098D01*
X162347042Y-91017105D01*
X162161888Y-90977750D01*
X162161886Y-90977750D01*
X161972594Y-90977750D01*
X161972592Y-90977750D01*
X161787437Y-91017105D01*
X161614509Y-91094098D01*
X161505125Y-91173571D01*
X161458021Y-91194543D01*
X161406459Y-91194543D01*
X161359355Y-91173571D01*
X161249970Y-91094098D01*
X161077042Y-91017105D01*
X160891888Y-90977750D01*
X160891886Y-90977750D01*
X160702594Y-90977750D01*
X160702592Y-90977750D01*
X160517437Y-91017105D01*
X160344509Y-91094098D01*
X160235125Y-91173571D01*
X160188021Y-91194543D01*
X160136459Y-91194543D01*
X160089355Y-91173571D01*
X159979970Y-91094098D01*
X159807042Y-91017105D01*
X159621888Y-90977750D01*
X159621886Y-90977750D01*
X159432594Y-90977750D01*
X159432592Y-90977750D01*
X159247437Y-91017105D01*
X159074509Y-91094098D01*
X158965125Y-91173571D01*
X158918021Y-91194543D01*
X158866459Y-91194543D01*
X158819355Y-91173571D01*
X158709970Y-91094098D01*
X158537042Y-91017105D01*
X158351888Y-90977750D01*
X158351886Y-90977750D01*
X158162594Y-90977750D01*
X158162592Y-90977750D01*
X157977437Y-91017105D01*
X157804509Y-91094098D01*
X157651369Y-91205360D01*
X157524706Y-91346033D01*
X157430060Y-91509965D01*
X157371566Y-91689992D01*
X157351780Y-91878250D01*
X157371566Y-92066507D01*
X157430059Y-92246531D01*
X157430061Y-92246534D01*
X157443609Y-92270000D01*
X157460222Y-92331999D01*
X157443609Y-92394000D01*
X157398222Y-92439387D01*
X157336222Y-92456000D01*
X152146000Y-92456000D01*
X146558000Y-92456000D01*
X143465087Y-92462399D01*
X127099751Y-92496257D01*
X127050034Y-92485966D01*
X127008609Y-92456613D01*
X126367669Y-91766069D01*
X126364789Y-91762856D01*
X126281095Y-91666144D01*
X126145940Y-91509965D01*
X125661750Y-90950460D01*
X125658984Y-90947149D01*
X125544370Y-90804999D01*
X132444540Y-90804999D01*
X132464326Y-90993257D01*
X132522820Y-91173284D01*
X132617466Y-91337216D01*
X132744129Y-91477889D01*
X132897269Y-91589151D01*
X133070197Y-91666144D01*
X133255352Y-91705500D01*
X133255354Y-91705500D01*
X133444646Y-91705500D01*
X133444648Y-91705500D01*
X133568084Y-91679262D01*
X133629803Y-91666144D01*
X133802730Y-91589151D01*
X133871559Y-91539144D01*
X133955870Y-91477889D01*
X134082533Y-91337216D01*
X134177179Y-91173284D01*
X134218444Y-91046284D01*
X134235674Y-90993256D01*
X134255460Y-90805000D01*
X134242112Y-90678000D01*
X135492540Y-90678000D01*
X135512326Y-90866257D01*
X135570820Y-91046284D01*
X135665466Y-91210216D01*
X135792129Y-91350889D01*
X135945269Y-91462151D01*
X136118197Y-91539144D01*
X136303352Y-91578500D01*
X136303354Y-91578500D01*
X136492646Y-91578500D01*
X136492648Y-91578500D01*
X136616084Y-91552262D01*
X136677803Y-91539144D01*
X136850730Y-91462151D01*
X137003871Y-91350888D01*
X137130533Y-91210216D01*
X137225179Y-91046284D01*
X137283674Y-90866256D01*
X137303460Y-90678000D01*
X137283674Y-90489744D01*
X137225179Y-90309716D01*
X137225179Y-90309715D01*
X137130533Y-90145783D01*
X137003870Y-90005110D01*
X136850730Y-89893848D01*
X136677802Y-89816855D01*
X136492648Y-89777500D01*
X136492646Y-89777500D01*
X136303354Y-89777500D01*
X136303352Y-89777500D01*
X136118197Y-89816855D01*
X135945269Y-89893848D01*
X135792129Y-90005110D01*
X135665466Y-90145783D01*
X135570820Y-90309715D01*
X135512326Y-90489742D01*
X135492540Y-90678000D01*
X134242112Y-90678000D01*
X134235674Y-90616744D01*
X134177179Y-90436716D01*
X134177179Y-90436715D01*
X134082533Y-90272783D01*
X133955870Y-90132110D01*
X133802730Y-90020848D01*
X133629802Y-89943855D01*
X133444648Y-89904500D01*
X133444646Y-89904500D01*
X133255354Y-89904500D01*
X133255352Y-89904500D01*
X133070197Y-89943855D01*
X132897269Y-90020848D01*
X132744129Y-90132110D01*
X132617466Y-90272783D01*
X132522820Y-90436715D01*
X132464326Y-90616742D01*
X132444540Y-90804999D01*
X125544370Y-90804999D01*
X125012852Y-90145783D01*
X124984620Y-90110768D01*
X124981979Y-90107372D01*
X124917050Y-90020848D01*
X124337166Y-89248094D01*
X124334636Y-89244599D01*
X123945253Y-88686250D01*
X123720049Y-88363323D01*
X123717654Y-88359757D01*
X123673003Y-88290731D01*
X123134139Y-87457691D01*
X123131859Y-87454028D01*
X122874691Y-87024394D01*
X122580058Y-86532169D01*
X122577935Y-86528479D01*
X122376236Y-86163250D01*
X138936780Y-86163250D01*
X138956566Y-86351507D01*
X139015060Y-86531534D01*
X139109706Y-86695466D01*
X139236369Y-86836139D01*
X139389509Y-86947401D01*
X139562437Y-87024394D01*
X139747592Y-87063750D01*
X139747594Y-87063750D01*
X139936886Y-87063750D01*
X139936888Y-87063750D01*
X140060323Y-87037512D01*
X140122043Y-87024394D01*
X140294970Y-86947401D01*
X140448111Y-86836138D01*
X140574773Y-86695466D01*
X140669419Y-86531534D01*
X140698267Y-86442750D01*
X143381780Y-86442750D01*
X143401566Y-86631007D01*
X143460060Y-86811034D01*
X143554706Y-86974966D01*
X143681369Y-87115639D01*
X143834509Y-87226901D01*
X144007437Y-87303894D01*
X144192592Y-87343250D01*
X144192594Y-87343250D01*
X144381886Y-87343250D01*
X144381888Y-87343250D01*
X144525910Y-87312637D01*
X144567043Y-87303894D01*
X144739970Y-87226901D01*
X144893111Y-87115638D01*
X145019773Y-86974966D01*
X145114419Y-86811034D01*
X145172914Y-86631006D01*
X145192700Y-86442750D01*
X145172914Y-86254494D01*
X145114419Y-86074466D01*
X145114419Y-86074465D01*
X145019773Y-85910533D01*
X144893110Y-85769860D01*
X144739970Y-85658598D01*
X144567042Y-85581605D01*
X144381888Y-85542250D01*
X144381886Y-85542250D01*
X144192594Y-85542250D01*
X144192592Y-85542250D01*
X144007437Y-85581605D01*
X143834509Y-85658598D01*
X143681369Y-85769860D01*
X143554706Y-85910533D01*
X143460060Y-86074465D01*
X143401566Y-86254492D01*
X143381780Y-86442750D01*
X140698267Y-86442750D01*
X140727914Y-86351506D01*
X140747700Y-86163250D01*
X140727914Y-85974994D01*
X140669419Y-85794966D01*
X140669419Y-85794965D01*
X140574775Y-85631037D01*
X140574774Y-85631036D01*
X140574773Y-85631034D01*
X140556933Y-85611221D01*
X140528767Y-85558249D01*
X140528767Y-85498251D01*
X140556933Y-85445278D01*
X140574773Y-85425466D01*
X140669419Y-85261534D01*
X140727914Y-85081506D01*
X140747700Y-84893250D01*
X140727914Y-84704994D01*
X140669419Y-84524966D01*
X140669419Y-84524965D01*
X140574773Y-84361033D01*
X140556934Y-84341221D01*
X140528767Y-84288247D01*
X140528768Y-84228250D01*
X140556934Y-84175277D01*
X140574773Y-84155466D01*
X140669419Y-83991534D01*
X140727914Y-83811506D01*
X140747700Y-83623250D01*
X140727914Y-83434994D01*
X140669419Y-83254966D01*
X140669419Y-83254965D01*
X140574775Y-83091037D01*
X140574774Y-83091036D01*
X140574773Y-83091034D01*
X140556933Y-83071221D01*
X140528767Y-83018249D01*
X140528767Y-82958251D01*
X140556933Y-82905278D01*
X140574773Y-82885466D01*
X140669419Y-82721534D01*
X140727914Y-82541506D01*
X140747700Y-82353250D01*
X140727914Y-82164994D01*
X140669419Y-81984966D01*
X140669419Y-81984965D01*
X140574773Y-81821033D01*
X140556934Y-81801221D01*
X140528767Y-81748247D01*
X140528768Y-81688250D01*
X140556934Y-81635277D01*
X140574773Y-81615466D01*
X140669419Y-81451534D01*
X140727914Y-81271506D01*
X140747700Y-81083250D01*
X140727914Y-80894994D01*
X140697501Y-80801394D01*
X140669419Y-80714965D01*
X140574775Y-80551037D01*
X140574774Y-80551036D01*
X140574773Y-80551034D01*
X140556933Y-80531221D01*
X140528767Y-80478249D01*
X140528767Y-80418251D01*
X140556933Y-80365278D01*
X140574773Y-80345466D01*
X140669419Y-80181534D01*
X140727914Y-80001506D01*
X140747700Y-79813250D01*
X140727914Y-79624994D01*
X140697572Y-79531613D01*
X140669419Y-79444965D01*
X140574773Y-79281033D01*
X140556934Y-79261221D01*
X140528767Y-79208247D01*
X140528768Y-79148250D01*
X140556934Y-79095277D01*
X140574773Y-79075466D01*
X140669419Y-78911534D01*
X140727914Y-78731506D01*
X140747700Y-78543250D01*
X140727914Y-78354994D01*
X140669419Y-78174966D01*
X140669419Y-78174965D01*
X140574773Y-78011033D01*
X140556934Y-77991221D01*
X140528767Y-77938246D01*
X140528768Y-77878248D01*
X140556936Y-77825275D01*
X140574773Y-77805466D01*
X140669419Y-77641534D01*
X140727914Y-77461506D01*
X140747700Y-77273250D01*
X140727914Y-77084994D01*
X140688083Y-76962407D01*
X140669419Y-76904965D01*
X140574773Y-76741033D01*
X140448110Y-76600360D01*
X140294970Y-76489098D01*
X140122042Y-76412105D01*
X139936888Y-76372750D01*
X139936886Y-76372750D01*
X139747594Y-76372750D01*
X139747592Y-76372750D01*
X139562437Y-76412105D01*
X139389509Y-76489098D01*
X139236369Y-76600360D01*
X139109706Y-76741033D01*
X139015060Y-76904965D01*
X138956566Y-77084992D01*
X138936780Y-77273250D01*
X138956566Y-77461507D01*
X139015060Y-77641534D01*
X139109706Y-77805466D01*
X139127545Y-77825278D01*
X139155712Y-77878252D01*
X139155712Y-77938248D01*
X139127545Y-77991222D01*
X139109706Y-78011033D01*
X139015060Y-78174965D01*
X138956566Y-78354992D01*
X138936780Y-78543250D01*
X138956566Y-78731507D01*
X139015060Y-78911534D01*
X139109706Y-79075465D01*
X139127544Y-79095276D01*
X139155711Y-79148249D01*
X139155712Y-79208245D01*
X139127547Y-79261219D01*
X139109706Y-79281033D01*
X139015060Y-79444965D01*
X138956566Y-79624992D01*
X138936780Y-79813250D01*
X138956566Y-80001507D01*
X139015060Y-80181534D01*
X139109706Y-80345466D01*
X139127545Y-80365278D01*
X139155712Y-80418252D01*
X139155712Y-80478248D01*
X139127545Y-80531222D01*
X139109706Y-80551033D01*
X139015060Y-80714965D01*
X138956566Y-80894992D01*
X138956565Y-80894994D01*
X138956566Y-80894994D01*
X138936780Y-81083250D01*
X138939876Y-81112707D01*
X138956566Y-81271507D01*
X139015060Y-81451534D01*
X139109706Y-81615465D01*
X139127544Y-81635276D01*
X139155711Y-81688249D01*
X139155712Y-81748245D01*
X139127547Y-81801219D01*
X139109706Y-81821033D01*
X139015060Y-81984965D01*
X138956566Y-82164992D01*
X138936780Y-82353249D01*
X138956566Y-82541507D01*
X139015060Y-82721534D01*
X139109706Y-82885466D01*
X139127545Y-82905278D01*
X139155712Y-82958252D01*
X139155712Y-83018248D01*
X139127545Y-83071222D01*
X139109706Y-83091033D01*
X139015060Y-83254965D01*
X138956566Y-83434992D01*
X138936780Y-83623250D01*
X138956566Y-83811507D01*
X139015060Y-83991534D01*
X139109706Y-84155465D01*
X139127544Y-84175276D01*
X139155711Y-84228249D01*
X139155712Y-84288245D01*
X139127547Y-84341219D01*
X139109706Y-84361033D01*
X139015060Y-84524965D01*
X138956566Y-84704992D01*
X138936780Y-84893249D01*
X138956566Y-85081507D01*
X139015060Y-85261534D01*
X139109706Y-85425466D01*
X139127545Y-85445278D01*
X139155712Y-85498252D01*
X139155712Y-85558248D01*
X139127545Y-85611222D01*
X139109706Y-85631033D01*
X139015060Y-85794965D01*
X138956566Y-85974992D01*
X138936780Y-86163250D01*
X122376236Y-86163250D01*
X122058540Y-85587979D01*
X122056525Y-85584176D01*
X122055220Y-85581605D01*
X121570173Y-84626191D01*
X121568293Y-84622322D01*
X121541255Y-84564134D01*
X121228445Y-83890928D01*
X121115575Y-83648018D01*
X121113825Y-83644074D01*
X120695280Y-82654614D01*
X120693668Y-82650612D01*
X120497235Y-82137139D01*
X120309784Y-81647147D01*
X120308317Y-81643100D01*
X120298833Y-81615465D01*
X119959587Y-80626915D01*
X119958258Y-80622810D01*
X119905066Y-80448250D01*
X119750266Y-79940249D01*
X120394780Y-79940249D01*
X120414566Y-80128507D01*
X120473060Y-80308534D01*
X120567706Y-80472466D01*
X120694369Y-80613139D01*
X120847509Y-80724401D01*
X121020437Y-80801394D01*
X121205592Y-80840750D01*
X121205594Y-80840750D01*
X121394886Y-80840750D01*
X121394888Y-80840750D01*
X121580040Y-80801395D01*
X121580041Y-80801394D01*
X121580043Y-80801394D01*
X121752970Y-80724401D01*
X121752975Y-80724396D01*
X121757802Y-80722248D01*
X121808239Y-80711527D01*
X121858675Y-80722248D01*
X121863508Y-80724400D01*
X121863510Y-80724401D01*
X121959408Y-80767098D01*
X122036437Y-80801394D01*
X122221592Y-80840750D01*
X122221594Y-80840750D01*
X122410886Y-80840750D01*
X122410888Y-80840750D01*
X122596040Y-80801395D01*
X122596041Y-80801394D01*
X122596043Y-80801394D01*
X122768970Y-80724401D01*
X122768975Y-80724396D01*
X122773802Y-80722248D01*
X122824239Y-80711527D01*
X122874675Y-80722248D01*
X122879508Y-80724400D01*
X122879510Y-80724401D01*
X122975408Y-80767098D01*
X123052437Y-80801394D01*
X123228141Y-80838741D01*
X123280395Y-80863665D01*
X123315640Y-80909595D01*
X123326190Y-80966521D01*
X123309747Y-81022031D01*
X123267060Y-81095965D01*
X123208566Y-81275992D01*
X123188780Y-81464250D01*
X123208566Y-81652507D01*
X123267060Y-81832534D01*
X123361706Y-81996466D01*
X123488369Y-82137139D01*
X123641509Y-82248401D01*
X123814437Y-82325394D01*
X123999592Y-82364750D01*
X123999594Y-82364750D01*
X124188886Y-82364750D01*
X124188888Y-82364750D01*
X124312324Y-82338512D01*
X124374043Y-82325394D01*
X124546970Y-82248401D01*
X124607948Y-82204098D01*
X124700110Y-82137139D01*
X124826773Y-81996466D01*
X124921419Y-81832534D01*
X124939175Y-81777886D01*
X124979914Y-81652506D01*
X124999700Y-81464250D01*
X124979914Y-81275994D01*
X124921419Y-81095966D01*
X124921419Y-81095965D01*
X124826773Y-80932033D01*
X124700110Y-80791360D01*
X124546970Y-80680098D01*
X124374042Y-80603105D01*
X124198339Y-80565758D01*
X124146084Y-80540834D01*
X124110840Y-80494903D01*
X124100290Y-80437978D01*
X124116732Y-80382470D01*
X124159419Y-80308534D01*
X124217914Y-80128506D01*
X124237700Y-79940250D01*
X124217914Y-79751994D01*
X124184890Y-79650357D01*
X124159419Y-79571965D01*
X124064773Y-79408033D01*
X123938110Y-79267360D01*
X123784970Y-79156098D01*
X123612042Y-79079105D01*
X123426888Y-79039750D01*
X123426886Y-79039750D01*
X123237594Y-79039750D01*
X123237592Y-79039750D01*
X123052441Y-79079104D01*
X122874676Y-79158251D01*
X122824240Y-79168971D01*
X122773804Y-79158251D01*
X122632361Y-79095276D01*
X122596043Y-79079106D01*
X122596042Y-79079105D01*
X122596038Y-79079104D01*
X122410888Y-79039750D01*
X122410886Y-79039750D01*
X122221594Y-79039750D01*
X122221592Y-79039750D01*
X122036441Y-79079104D01*
X121858676Y-79158251D01*
X121808240Y-79168971D01*
X121757804Y-79158251D01*
X121616361Y-79095276D01*
X121580043Y-79079106D01*
X121580042Y-79079105D01*
X121580038Y-79079104D01*
X121394888Y-79039750D01*
X121394886Y-79039750D01*
X121205594Y-79039750D01*
X121205592Y-79039750D01*
X121020437Y-79079105D01*
X120847509Y-79156098D01*
X120694369Y-79267360D01*
X120567706Y-79408033D01*
X120473060Y-79571965D01*
X120414566Y-79751992D01*
X120394780Y-79940249D01*
X119750266Y-79940249D01*
X119645091Y-79595100D01*
X119643913Y-79590976D01*
X119634457Y-79555569D01*
X119366685Y-78552967D01*
X119365665Y-78548866D01*
X119124703Y-77501777D01*
X119123824Y-77497629D01*
X118919448Y-76442842D01*
X118918705Y-76438614D01*
X118917408Y-76430402D01*
X118888756Y-76248927D01*
X118887240Y-76229590D01*
X118887240Y-75368250D01*
X119886780Y-75368250D01*
X119906566Y-75556507D01*
X119965060Y-75736534D01*
X120059706Y-75900466D01*
X120186369Y-76041139D01*
X120339509Y-76152401D01*
X120512437Y-76229394D01*
X120697592Y-76268750D01*
X120697594Y-76268750D01*
X120886886Y-76268750D01*
X120886888Y-76268750D01*
X121067686Y-76230320D01*
X121072043Y-76229394D01*
X121244970Y-76152401D01*
X121286778Y-76122026D01*
X121398110Y-76041139D01*
X121524773Y-75900466D01*
X121619419Y-75736534D01*
X121639851Y-75673650D01*
X121677914Y-75556506D01*
X121697700Y-75368250D01*
X123442780Y-75368250D01*
X123462566Y-75556507D01*
X123521060Y-75736534D01*
X123615706Y-75900466D01*
X123742369Y-76041139D01*
X123895509Y-76152401D01*
X124068437Y-76229394D01*
X124253592Y-76268750D01*
X124253594Y-76268750D01*
X124442886Y-76268750D01*
X124442888Y-76268750D01*
X124623686Y-76230320D01*
X124628043Y-76229394D01*
X124800970Y-76152401D01*
X124842778Y-76122026D01*
X124954110Y-76041139D01*
X125080773Y-75900466D01*
X125175419Y-75736534D01*
X125195851Y-75673650D01*
X125195851Y-75673649D01*
X141072835Y-75673649D01*
X141092621Y-75861907D01*
X141151115Y-76041934D01*
X141245759Y-76205863D01*
X141245762Y-76205866D01*
X141267123Y-76229590D01*
X141267781Y-76230320D01*
X141295947Y-76283293D01*
X141295948Y-76343289D01*
X141267784Y-76396262D01*
X141261956Y-76402735D01*
X141167309Y-76566667D01*
X141108815Y-76746694D01*
X141089029Y-76934952D01*
X141108815Y-77123209D01*
X141167309Y-77303236D01*
X141261955Y-77467168D01*
X141388618Y-77607841D01*
X141541758Y-77719103D01*
X141714686Y-77796096D01*
X141899841Y-77835452D01*
X141899843Y-77835452D01*
X142089135Y-77835452D01*
X142089137Y-77835452D01*
X142230214Y-77805465D01*
X142274292Y-77796096D01*
X142447219Y-77719103D01*
X142447218Y-77719103D01*
X142600359Y-77607841D01*
X142604650Y-77603076D01*
X142727022Y-77467168D01*
X142821668Y-77303236D01*
X142880163Y-77123208D01*
X142899949Y-76934952D01*
X142880163Y-76746696D01*
X142821668Y-76566668D01*
X142821668Y-76566667D01*
X142781879Y-76497750D01*
X142765266Y-76435750D01*
X142781879Y-76373750D01*
X142827266Y-76328363D01*
X142889266Y-76311750D01*
X147087437Y-76311750D01*
X147142709Y-76324750D01*
X147186391Y-76361023D01*
X147209326Y-76412965D01*
X147207251Y-76457829D01*
X147207865Y-76457886D01*
X147186704Y-76686250D01*
X147206804Y-76903175D01*
X147266421Y-77112707D01*
X147363527Y-77307721D01*
X147494813Y-77481573D01*
X147618812Y-77594612D01*
X147654540Y-77652314D01*
X147654541Y-77720183D01*
X147618813Y-77777886D01*
X147494811Y-77890929D01*
X147363527Y-78064778D01*
X147266421Y-78259792D01*
X147206804Y-78469324D01*
X147186704Y-78686249D01*
X147206804Y-78903175D01*
X147266421Y-79112707D01*
X147363527Y-79307721D01*
X147494813Y-79481573D01*
X147618812Y-79594612D01*
X147654540Y-79652314D01*
X147654541Y-79720183D01*
X147618813Y-79777886D01*
X147494811Y-79890929D01*
X147363527Y-80064778D01*
X147266421Y-80259792D01*
X147206804Y-80469324D01*
X147186704Y-80686249D01*
X147206804Y-80903175D01*
X147266421Y-81112707D01*
X147363527Y-81307721D01*
X147494813Y-81481573D01*
X147618812Y-81594612D01*
X147654540Y-81652314D01*
X147654541Y-81720183D01*
X147618813Y-81777886D01*
X147494811Y-81890929D01*
X147363527Y-82064778D01*
X147266421Y-82259792D01*
X147206804Y-82469324D01*
X147186704Y-82686249D01*
X147206804Y-82903175D01*
X147266421Y-83112707D01*
X147363527Y-83307721D01*
X147494813Y-83481573D01*
X147618812Y-83594613D01*
X147654540Y-83652316D01*
X147654540Y-83720184D01*
X147618812Y-83777887D01*
X147494813Y-83890926D01*
X147363527Y-84064778D01*
X147266421Y-84259792D01*
X147206804Y-84469324D01*
X147186704Y-84686249D01*
X147206804Y-84903175D01*
X147266421Y-85112707D01*
X147363527Y-85307721D01*
X147494813Y-85481573D01*
X147618812Y-85594612D01*
X147654540Y-85652314D01*
X147654541Y-85720183D01*
X147618813Y-85777886D01*
X147494811Y-85890929D01*
X147363527Y-86064778D01*
X147266421Y-86259792D01*
X147206804Y-86469324D01*
X147186704Y-86686249D01*
X147206804Y-86903175D01*
X147266421Y-87112707D01*
X147363527Y-87307721D01*
X147494813Y-87481573D01*
X147618813Y-87594613D01*
X147655808Y-87628338D01*
X147694534Y-87652316D01*
X147841031Y-87743023D01*
X148025231Y-87814382D01*
X148044171Y-87821720D01*
X148258314Y-87861750D01*
X148476164Y-87861750D01*
X148476166Y-87861750D01*
X148690309Y-87821720D01*
X148825736Y-87769254D01*
X148893448Y-87743023D01*
X148893450Y-87743022D01*
X149078672Y-87628338D01*
X149239667Y-87481572D01*
X149268285Y-87443674D01*
X149311968Y-87407400D01*
X149367240Y-87394400D01*
X149422512Y-87407400D01*
X149466195Y-87443675D01*
X149494812Y-87481572D01*
X149618812Y-87594613D01*
X149654540Y-87652316D01*
X149654540Y-87720184D01*
X149618812Y-87777887D01*
X149494813Y-87890926D01*
X149363527Y-88064778D01*
X149266421Y-88259792D01*
X149206804Y-88469324D01*
X149186704Y-88686250D01*
X149206804Y-88903175D01*
X149266421Y-89112707D01*
X149363527Y-89307721D01*
X149494813Y-89481573D01*
X149642733Y-89616419D01*
X149655808Y-89628338D01*
X149748419Y-89685680D01*
X149841031Y-89743023D01*
X150025231Y-89814382D01*
X150044171Y-89821720D01*
X150258314Y-89861750D01*
X150476164Y-89861750D01*
X150476166Y-89861750D01*
X150690309Y-89821720D01*
X150825736Y-89769254D01*
X150893448Y-89743023D01*
X150893450Y-89743022D01*
X151078672Y-89628338D01*
X151239667Y-89481572D01*
X151370952Y-89307722D01*
X151468057Y-89112709D01*
X151468058Y-89112707D01*
X151527675Y-88903175D01*
X151530817Y-88869258D01*
X151547776Y-88686250D01*
X151527675Y-88469327D01*
X151527675Y-88469324D01*
X151468058Y-88259792D01*
X151370952Y-88064778D01*
X151239666Y-87890926D01*
X151115667Y-87777887D01*
X151079939Y-87720184D01*
X151079939Y-87652316D01*
X151115667Y-87594613D01*
X151239666Y-87481573D01*
X151268285Y-87443675D01*
X151370952Y-87307722D01*
X151468057Y-87112709D01*
X151493185Y-87024394D01*
X151527675Y-86903175D01*
X151530589Y-86871717D01*
X151547776Y-86686250D01*
X151527675Y-86469327D01*
X151527675Y-86469324D01*
X151468058Y-86259792D01*
X151419986Y-86163250D01*
X157986780Y-86163250D01*
X158006566Y-86351507D01*
X158065060Y-86531534D01*
X158159706Y-86695466D01*
X158286369Y-86836139D01*
X158439509Y-86947401D01*
X158612437Y-87024394D01*
X158797592Y-87063750D01*
X158797594Y-87063750D01*
X158986886Y-87063750D01*
X158986888Y-87063750D01*
X159110323Y-87037512D01*
X159172043Y-87024394D01*
X159344970Y-86947401D01*
X159498111Y-86836138D01*
X159624773Y-86695466D01*
X159719419Y-86531534D01*
X159777914Y-86351506D01*
X159797700Y-86163250D01*
X159777914Y-85974994D01*
X159719419Y-85794966D01*
X159719419Y-85794965D01*
X159624775Y-85631037D01*
X159624774Y-85631036D01*
X159624773Y-85631034D01*
X159606933Y-85611221D01*
X159578767Y-85558249D01*
X159578767Y-85498251D01*
X159606933Y-85445278D01*
X159624773Y-85425466D01*
X159719419Y-85261534D01*
X159777914Y-85081506D01*
X159797700Y-84893250D01*
X159777914Y-84704994D01*
X159719419Y-84524966D01*
X159719419Y-84524965D01*
X159624773Y-84361033D01*
X159606934Y-84341221D01*
X159578767Y-84288247D01*
X159578768Y-84228250D01*
X159606934Y-84175277D01*
X159624773Y-84155466D01*
X159719419Y-83991534D01*
X159777914Y-83811506D01*
X159797700Y-83623250D01*
X159777914Y-83434994D01*
X159719419Y-83254966D01*
X159719419Y-83254965D01*
X159624775Y-83091037D01*
X159624774Y-83091036D01*
X159624773Y-83091034D01*
X159606933Y-83071221D01*
X159578767Y-83018249D01*
X159578767Y-82958251D01*
X159606933Y-82905278D01*
X159624773Y-82885466D01*
X159719419Y-82721534D01*
X159777914Y-82541506D01*
X159797700Y-82353250D01*
X159777914Y-82164994D01*
X159719419Y-81984966D01*
X159719419Y-81984965D01*
X159624773Y-81821033D01*
X159606934Y-81801221D01*
X159578767Y-81748247D01*
X159578768Y-81688250D01*
X159606934Y-81635277D01*
X159624773Y-81615466D01*
X159719419Y-81451534D01*
X159777914Y-81271506D01*
X159797700Y-81083250D01*
X159777914Y-80894994D01*
X159747501Y-80801394D01*
X159719419Y-80714965D01*
X159624775Y-80551037D01*
X159624774Y-80551036D01*
X159624773Y-80551034D01*
X159606933Y-80531221D01*
X159578767Y-80478249D01*
X159578767Y-80418251D01*
X159606933Y-80365278D01*
X159624773Y-80345466D01*
X159719419Y-80181534D01*
X159777914Y-80001506D01*
X159784352Y-79940250D01*
X174242780Y-79940250D01*
X174262566Y-80128507D01*
X174321060Y-80308534D01*
X174415706Y-80472466D01*
X174542369Y-80613139D01*
X174695509Y-80724401D01*
X174868437Y-80801394D01*
X175053592Y-80840750D01*
X175053594Y-80840750D01*
X175242886Y-80840750D01*
X175242888Y-80840750D01*
X175376409Y-80812369D01*
X175428043Y-80801394D01*
X175600970Y-80724401D01*
X175600971Y-80724399D01*
X175608482Y-80721056D01*
X175658918Y-80710335D01*
X175709353Y-80721055D01*
X175867257Y-80791360D01*
X175880138Y-80797095D01*
X176065293Y-80836451D01*
X176065295Y-80836451D01*
X176254587Y-80836451D01*
X176254589Y-80836451D01*
X176378025Y-80810213D01*
X176439744Y-80797095D01*
X176612671Y-80720102D01*
X176612671Y-80720101D01*
X176614827Y-80719142D01*
X176665263Y-80708421D01*
X176715699Y-80719142D01*
X176727508Y-80724400D01*
X176727510Y-80724401D01*
X176823408Y-80767098D01*
X176900437Y-80801394D01*
X177085592Y-80840750D01*
X177085594Y-80840750D01*
X177274886Y-80840750D01*
X177274888Y-80840750D01*
X177408409Y-80812369D01*
X177460043Y-80801394D01*
X177632970Y-80724401D01*
X177689050Y-80683657D01*
X177786110Y-80613139D01*
X177912773Y-80472466D01*
X178007419Y-80308534D01*
X178023256Y-80259792D01*
X178065914Y-80128506D01*
X178085700Y-79940250D01*
X178065914Y-79751994D01*
X178032890Y-79650357D01*
X178007419Y-79571965D01*
X177912773Y-79408033D01*
X177786110Y-79267360D01*
X177632970Y-79156098D01*
X177460042Y-79079105D01*
X177274888Y-79039750D01*
X177274886Y-79039750D01*
X177085594Y-79039750D01*
X177085592Y-79039750D01*
X176900439Y-79079104D01*
X176725353Y-79157058D01*
X176674918Y-79167778D01*
X176624483Y-79157058D01*
X176439741Y-79074805D01*
X176254589Y-79035451D01*
X176254587Y-79035451D01*
X176065295Y-79035451D01*
X176065293Y-79035451D01*
X175880138Y-79074806D01*
X175699699Y-79155144D01*
X175649263Y-79165865D01*
X175598827Y-79155144D01*
X175428042Y-79079105D01*
X175242888Y-79039750D01*
X175242886Y-79039750D01*
X175053594Y-79039750D01*
X175053592Y-79039750D01*
X174868437Y-79079105D01*
X174695509Y-79156098D01*
X174542369Y-79267360D01*
X174415706Y-79408033D01*
X174321060Y-79571965D01*
X174262566Y-79751992D01*
X174242780Y-79940250D01*
X159784352Y-79940250D01*
X159797700Y-79813250D01*
X159777914Y-79624994D01*
X159747572Y-79531613D01*
X159719419Y-79444965D01*
X159624773Y-79281033D01*
X159606934Y-79261221D01*
X159578767Y-79208247D01*
X159578768Y-79148250D01*
X159606934Y-79095277D01*
X159624773Y-79075466D01*
X159719419Y-78911534D01*
X159777914Y-78731506D01*
X159797700Y-78543250D01*
X159777914Y-78354994D01*
X159719419Y-78174966D01*
X159719419Y-78174965D01*
X159624773Y-78011033D01*
X159606934Y-77991221D01*
X159578767Y-77938246D01*
X159578768Y-77878248D01*
X159606936Y-77825275D01*
X159624773Y-77805466D01*
X159719419Y-77641534D01*
X159777914Y-77461506D01*
X159797700Y-77273250D01*
X159777914Y-77084994D01*
X159738083Y-76962407D01*
X159719419Y-76904965D01*
X159624773Y-76741033D01*
X159498110Y-76600360D01*
X159344970Y-76489098D01*
X159172042Y-76412105D01*
X158986888Y-76372750D01*
X158986886Y-76372750D01*
X158797594Y-76372750D01*
X158797592Y-76372750D01*
X158612437Y-76412105D01*
X158439509Y-76489098D01*
X158286369Y-76600360D01*
X158159706Y-76741033D01*
X158065060Y-76904965D01*
X158006566Y-77084992D01*
X157986780Y-77273250D01*
X158006566Y-77461507D01*
X158065060Y-77641534D01*
X158159706Y-77805466D01*
X158177545Y-77825278D01*
X158205712Y-77878252D01*
X158205712Y-77938248D01*
X158177545Y-77991222D01*
X158159706Y-78011033D01*
X158065060Y-78174965D01*
X158006566Y-78354992D01*
X158006565Y-78354994D01*
X158006566Y-78354994D01*
X157986780Y-78543250D01*
X157987806Y-78553010D01*
X158006566Y-78731507D01*
X158065060Y-78911534D01*
X158159706Y-79075465D01*
X158177544Y-79095276D01*
X158205711Y-79148249D01*
X158205712Y-79208245D01*
X158177547Y-79261219D01*
X158159706Y-79281033D01*
X158065060Y-79444965D01*
X158006566Y-79624992D01*
X157986780Y-79813250D01*
X158006566Y-80001507D01*
X158065060Y-80181534D01*
X158159706Y-80345466D01*
X158177545Y-80365278D01*
X158205712Y-80418252D01*
X158205712Y-80478248D01*
X158177545Y-80531222D01*
X158159706Y-80551033D01*
X158065060Y-80714965D01*
X158006566Y-80894992D01*
X158006565Y-80894994D01*
X158006566Y-80894994D01*
X157986780Y-81083250D01*
X157989876Y-81112707D01*
X158006566Y-81271507D01*
X158065060Y-81451534D01*
X158159706Y-81615465D01*
X158177544Y-81635276D01*
X158205711Y-81688249D01*
X158205712Y-81748245D01*
X158177547Y-81801219D01*
X158159706Y-81821033D01*
X158065060Y-81984965D01*
X158006566Y-82164992D01*
X157986780Y-82353249D01*
X158006566Y-82541507D01*
X158065060Y-82721534D01*
X158159706Y-82885466D01*
X158177545Y-82905278D01*
X158205712Y-82958252D01*
X158205712Y-83018248D01*
X158177545Y-83071222D01*
X158159706Y-83091033D01*
X158065060Y-83254965D01*
X158006566Y-83434992D01*
X157986780Y-83623250D01*
X158006566Y-83811507D01*
X158065060Y-83991534D01*
X158159706Y-84155465D01*
X158177544Y-84175276D01*
X158205711Y-84228249D01*
X158205712Y-84288245D01*
X158177547Y-84341219D01*
X158159706Y-84361033D01*
X158065060Y-84524965D01*
X158006566Y-84704992D01*
X157986780Y-84893250D01*
X158006566Y-85081507D01*
X158065060Y-85261534D01*
X158159706Y-85425466D01*
X158177545Y-85445278D01*
X158205712Y-85498252D01*
X158205712Y-85558248D01*
X158177545Y-85611222D01*
X158159706Y-85631033D01*
X158065060Y-85794965D01*
X158006566Y-85974992D01*
X157986780Y-86163250D01*
X151419986Y-86163250D01*
X151370952Y-86064778D01*
X151239666Y-85890926D01*
X151115667Y-85777886D01*
X151079938Y-85720183D01*
X151079939Y-85652314D01*
X151115664Y-85594614D01*
X151239667Y-85481572D01*
X151370952Y-85307722D01*
X151468057Y-85112709D01*
X151476935Y-85081506D01*
X151527675Y-84903175D01*
X151530589Y-84871717D01*
X151547776Y-84686250D01*
X151527675Y-84469327D01*
X151527675Y-84469324D01*
X151468058Y-84259792D01*
X151370952Y-84064778D01*
X151239666Y-83890926D01*
X151115667Y-83777887D01*
X151079939Y-83720184D01*
X151079939Y-83652316D01*
X151115667Y-83594613D01*
X151239666Y-83481573D01*
X151274842Y-83434992D01*
X151370952Y-83307722D01*
X151468057Y-83112709D01*
X151468058Y-83112707D01*
X151527675Y-82903175D01*
X151544506Y-82721534D01*
X151547776Y-82686250D01*
X151527675Y-82469327D01*
X151527675Y-82469324D01*
X151468058Y-82259792D01*
X151370952Y-82064778D01*
X151239666Y-81890926D01*
X151115667Y-81777887D01*
X151079939Y-81720184D01*
X151079939Y-81652316D01*
X151115667Y-81594613D01*
X151239666Y-81481573D01*
X151252748Y-81464250D01*
X151370952Y-81307722D01*
X151468057Y-81112709D01*
X151472821Y-81095966D01*
X151527675Y-80903175D01*
X151533459Y-80840750D01*
X151547776Y-80686250D01*
X151527675Y-80469327D01*
X151527675Y-80469324D01*
X151468058Y-80259792D01*
X151370952Y-80064778D01*
X151239666Y-79890926D01*
X151115667Y-79777887D01*
X151079939Y-79720184D01*
X151079939Y-79652316D01*
X151115667Y-79594613D01*
X151239666Y-79481573D01*
X151295200Y-79408034D01*
X151370952Y-79307722D01*
X151468057Y-79112709D01*
X151468058Y-79112707D01*
X151527675Y-78903175D01*
X151530589Y-78871717D01*
X151547776Y-78686250D01*
X151527675Y-78469327D01*
X151527675Y-78469324D01*
X151468058Y-78259792D01*
X151370952Y-78064778D01*
X151239666Y-77890926D01*
X151115667Y-77777886D01*
X151079938Y-77720183D01*
X151079939Y-77652314D01*
X151115664Y-77594614D01*
X151239667Y-77481572D01*
X151370952Y-77307722D01*
X151468057Y-77112709D01*
X151475943Y-77084994D01*
X151527675Y-76903175D01*
X151536909Y-76803520D01*
X151547776Y-76686250D01*
X151527675Y-76469327D01*
X151526615Y-76457886D01*
X151527228Y-76457829D01*
X151525154Y-76412965D01*
X151548089Y-76361023D01*
X151591771Y-76324750D01*
X151647043Y-76311750D01*
X152577116Y-76311750D01*
X152624569Y-76321189D01*
X152664797Y-76348069D01*
X153120248Y-76803520D01*
X153133149Y-76819622D01*
X153135263Y-76821607D01*
X153135265Y-76821610D01*
X153182612Y-76866072D01*
X153184291Y-76867649D01*
X153187087Y-76870359D01*
X153206581Y-76889853D01*
X153209755Y-76892315D01*
X153218619Y-76899886D01*
X153250469Y-76929795D01*
X153260965Y-76935565D01*
X153268025Y-76939447D01*
X153284282Y-76950125D01*
X153300115Y-76962407D01*
X153316236Y-76969382D01*
X153340207Y-76979756D01*
X153350694Y-76984893D01*
X153388959Y-77005930D01*
X153408367Y-77010913D01*
X153426761Y-77017211D01*
X153445156Y-77025171D01*
X153488305Y-77032004D01*
X153499731Y-77034371D01*
X153515273Y-77038362D01*
X153542031Y-77045233D01*
X153542032Y-77045233D01*
X153562067Y-77045233D01*
X153581464Y-77046759D01*
X153601247Y-77049893D01*
X153644725Y-77045783D01*
X153656395Y-77045233D01*
X154138917Y-77045233D01*
X154159423Y-77047497D01*
X154162326Y-77047405D01*
X154162328Y-77047406D01*
X154229533Y-77045294D01*
X154233429Y-77045233D01*
X154261010Y-77045233D01*
X154261011Y-77045233D01*
X154264980Y-77044731D01*
X154276626Y-77043813D01*
X154320288Y-77042442D01*
X154339520Y-77036853D01*
X154358579Y-77032907D01*
X154365752Y-77032001D01*
X154378453Y-77030397D01*
X154419068Y-77014315D01*
X154430105Y-77010536D01*
X154472051Y-76998351D01*
X154489290Y-76988155D01*
X154506763Y-76979595D01*
X154525393Y-76972219D01*
X154560725Y-76946547D01*
X154570491Y-76940133D01*
X154579252Y-76934952D01*
X154608081Y-76917903D01*
X154622246Y-76903737D01*
X154637034Y-76891106D01*
X154653248Y-76879327D01*
X154681099Y-76845659D01*
X154688940Y-76837042D01*
X155030142Y-76495840D01*
X155046237Y-76482948D01*
X155048229Y-76480826D01*
X155048233Y-76480824D01*
X155094304Y-76431761D01*
X155096922Y-76429061D01*
X155116476Y-76409509D01*
X155118937Y-76406336D01*
X155126512Y-76397465D01*
X155156418Y-76365620D01*
X155166073Y-76348056D01*
X155176750Y-76331802D01*
X155189029Y-76315974D01*
X155206374Y-76275890D01*
X155211516Y-76265394D01*
X155232553Y-76227130D01*
X155237535Y-76207722D01*
X155243837Y-76189318D01*
X155251793Y-76170934D01*
X155258625Y-76127790D01*
X155260989Y-76116376D01*
X155271856Y-76074057D01*
X155271856Y-76054022D01*
X155273383Y-76034623D01*
X155273424Y-76034359D01*
X155276516Y-76014842D01*
X155272406Y-75971363D01*
X155271856Y-75959694D01*
X155271856Y-75641802D01*
X155280092Y-75597364D01*
X155303706Y-75558830D01*
X155348897Y-75508640D01*
X155420569Y-75384500D01*
X155465956Y-75339113D01*
X155527956Y-75322500D01*
X155542648Y-75322500D01*
X155666084Y-75296262D01*
X155727803Y-75283144D01*
X155900730Y-75206151D01*
X156010968Y-75126059D01*
X156025719Y-75115342D01*
X173478596Y-75115342D01*
X173498382Y-75303599D01*
X173556876Y-75483626D01*
X173651522Y-75647558D01*
X173778185Y-75788231D01*
X173931325Y-75899493D01*
X174104253Y-75976486D01*
X174289408Y-76015842D01*
X174289410Y-76015842D01*
X174478702Y-76015842D01*
X174478704Y-76015842D01*
X174602140Y-75989604D01*
X174663859Y-75976486D01*
X174836786Y-75899493D01*
X174989927Y-75788230D01*
X175116589Y-75647558D01*
X175211235Y-75483626D01*
X175269730Y-75303598D01*
X175289516Y-75115342D01*
X175289401Y-75114250D01*
X177036780Y-75114250D01*
X177056566Y-75302507D01*
X177115060Y-75482534D01*
X177209706Y-75646466D01*
X177336369Y-75787139D01*
X177489509Y-75898401D01*
X177662437Y-75975394D01*
X177847592Y-76014750D01*
X177847594Y-76014750D01*
X178036886Y-76014750D01*
X178036888Y-76014750D01*
X178160323Y-75988512D01*
X178222043Y-75975394D01*
X178394970Y-75898401D01*
X178548111Y-75787138D01*
X178674773Y-75646466D01*
X178769419Y-75482534D01*
X178827914Y-75302506D01*
X178847700Y-75114250D01*
X178827914Y-74925994D01*
X178769774Y-74747058D01*
X178769419Y-74745965D01*
X178674773Y-74582033D01*
X178548110Y-74441360D01*
X178394970Y-74330098D01*
X178222042Y-74253105D01*
X178036888Y-74213750D01*
X178036886Y-74213750D01*
X177847594Y-74213750D01*
X177847592Y-74213750D01*
X177662437Y-74253105D01*
X177489509Y-74330098D01*
X177336369Y-74441360D01*
X177209706Y-74582033D01*
X177115060Y-74745965D01*
X177056566Y-74925992D01*
X177036780Y-75114250D01*
X175289401Y-75114250D01*
X175269730Y-74927086D01*
X175211235Y-74747058D01*
X175211235Y-74747057D01*
X175116589Y-74583125D01*
X174989926Y-74442452D01*
X174836786Y-74331190D01*
X174663858Y-74254197D01*
X174478704Y-74214842D01*
X174478702Y-74214842D01*
X174289410Y-74214842D01*
X174289408Y-74214842D01*
X174104253Y-74254197D01*
X173931325Y-74331190D01*
X173778185Y-74442452D01*
X173651522Y-74583125D01*
X173556876Y-74747057D01*
X173498382Y-74927084D01*
X173478596Y-75115342D01*
X156025719Y-75115342D01*
X156053870Y-75094889D01*
X156180533Y-74954216D01*
X156275179Y-74790284D01*
X156318128Y-74658101D01*
X156333674Y-74610256D01*
X156353460Y-74422000D01*
X156333674Y-74233744D01*
X156298628Y-74125884D01*
X156275179Y-74053715D01*
X156180533Y-73889783D01*
X156053870Y-73749110D01*
X155900730Y-73637848D01*
X155727802Y-73560855D01*
X155542648Y-73521500D01*
X155542646Y-73521500D01*
X155353354Y-73521500D01*
X155274666Y-73538224D01*
X155213668Y-73535827D01*
X155161206Y-73504615D01*
X153843809Y-72187218D01*
X153816929Y-72146990D01*
X153807490Y-72099537D01*
X153807490Y-71583740D01*
X153809753Y-71563236D01*
X153809596Y-71558250D01*
X153807551Y-71493144D01*
X153807490Y-71489250D01*
X153807490Y-71461657D01*
X153807490Y-71461650D01*
X153806985Y-71457653D01*
X153806070Y-71446023D01*
X153804699Y-71402373D01*
X153799110Y-71383140D01*
X153795164Y-71364082D01*
X153792654Y-71344208D01*
X153778208Y-71307722D01*
X153776575Y-71303597D01*
X153772794Y-71292552D01*
X153760609Y-71250613D01*
X153760608Y-71250612D01*
X153760608Y-71250610D01*
X153750407Y-71233361D01*
X153741850Y-71215895D01*
X153734476Y-71197268D01*
X153708803Y-71161932D01*
X153702392Y-71152172D01*
X153680159Y-71114578D01*
X153665996Y-71100415D01*
X153653359Y-71085620D01*
X153641585Y-71069414D01*
X153641584Y-71069413D01*
X153607925Y-71041568D01*
X153599295Y-71033714D01*
X151422192Y-68856611D01*
X151409296Y-68840513D01*
X151358165Y-68792498D01*
X151355368Y-68789787D01*
X151335860Y-68770279D01*
X151332680Y-68767812D01*
X151323814Y-68760239D01*
X151291972Y-68730338D01*
X151274414Y-68720685D01*
X151258154Y-68710004D01*
X151242326Y-68697727D01*
X151202241Y-68680380D01*
X151191751Y-68675241D01*
X151153481Y-68654202D01*
X151134081Y-68649221D01*
X151115674Y-68642919D01*
X151097287Y-68634962D01*
X151054148Y-68628129D01*
X151042714Y-68625761D01*
X151000409Y-68614900D01*
X150980374Y-68614900D01*
X150960976Y-68613373D01*
X150953552Y-68612197D01*
X150941195Y-68610240D01*
X150941194Y-68610240D01*
X150914874Y-68612728D01*
X150897715Y-68614350D01*
X150886046Y-68614900D01*
X148926740Y-68614900D01*
X148906236Y-68612636D01*
X148836144Y-68614839D01*
X148832250Y-68614900D01*
X148804648Y-68614900D01*
X148800653Y-68615404D01*
X148789029Y-68616318D01*
X148745368Y-68617690D01*
X148726129Y-68623280D01*
X148707080Y-68627225D01*
X148687208Y-68629735D01*
X148646593Y-68645815D01*
X148635549Y-68649596D01*
X148593611Y-68661782D01*
X148576364Y-68671981D01*
X148558900Y-68680536D01*
X148540267Y-68687914D01*
X148504926Y-68713589D01*
X148495168Y-68719999D01*
X148457579Y-68742229D01*
X148443410Y-68756398D01*
X148428622Y-68769028D01*
X148412413Y-68780805D01*
X148384572Y-68814458D01*
X148376711Y-68823096D01*
X147983448Y-69216359D01*
X147967350Y-69229256D01*
X147919336Y-69280385D01*
X147916631Y-69283177D01*
X147897114Y-69302694D01*
X147894655Y-69305865D01*
X147887082Y-69314732D01*
X147857175Y-69346580D01*
X147847525Y-69364134D01*
X147836849Y-69380388D01*
X147824566Y-69396223D01*
X147807215Y-69436318D01*
X147802078Y-69446804D01*
X147781042Y-69485067D01*
X147776061Y-69504469D01*
X147769760Y-69522871D01*
X147761801Y-69541262D01*
X147754968Y-69584402D01*
X147752600Y-69595834D01*
X147738025Y-69652608D01*
X147717835Y-69695213D01*
X147683200Y-69727201D01*
X147655805Y-69744163D01*
X147494813Y-69890926D01*
X147363527Y-70064778D01*
X147266421Y-70259792D01*
X147206804Y-70469324D01*
X147186704Y-70686249D01*
X147206804Y-70903175D01*
X147266421Y-71112707D01*
X147363527Y-71307721D01*
X147494813Y-71481573D01*
X147618812Y-71594613D01*
X147654540Y-71652316D01*
X147654540Y-71720184D01*
X147618812Y-71777887D01*
X147494813Y-71890926D01*
X147363527Y-72064778D01*
X147266421Y-72259792D01*
X147206804Y-72469324D01*
X147186704Y-72686249D01*
X147206804Y-72903175D01*
X147266421Y-73112707D01*
X147363527Y-73307721D01*
X147494813Y-73481573D01*
X147618812Y-73594613D01*
X147654540Y-73652316D01*
X147654540Y-73720184D01*
X147618812Y-73777887D01*
X147494813Y-73890926D01*
X147363527Y-74064778D01*
X147266421Y-74259792D01*
X147223561Y-74410434D01*
X147198461Y-74457177D01*
X147156122Y-74489150D01*
X147104295Y-74500500D01*
X143010891Y-74500500D01*
X142960455Y-74489780D01*
X142918741Y-74459472D01*
X142892961Y-74414820D01*
X142865788Y-74331190D01*
X142852345Y-74289816D01*
X142757699Y-74125884D01*
X142631036Y-73985211D01*
X142477896Y-73873949D01*
X142304968Y-73796956D01*
X142119814Y-73757601D01*
X142119812Y-73757601D01*
X141930520Y-73757601D01*
X141930518Y-73757601D01*
X141745363Y-73796956D01*
X141572435Y-73873949D01*
X141419295Y-73985211D01*
X141292632Y-74125884D01*
X141197986Y-74289816D01*
X141139492Y-74469843D01*
X141119706Y-74658101D01*
X141139492Y-74846358D01*
X141197986Y-75026385D01*
X141219290Y-75063284D01*
X141235903Y-75125284D01*
X141219290Y-75187284D01*
X141151115Y-75305365D01*
X141092621Y-75485392D01*
X141072835Y-75673649D01*
X125195851Y-75673649D01*
X125233914Y-75556506D01*
X125253700Y-75368250D01*
X125233914Y-75179994D01*
X125175419Y-74999966D01*
X125175419Y-74999965D01*
X125080773Y-74836033D01*
X124954110Y-74695360D01*
X124800970Y-74584098D01*
X124628042Y-74507105D01*
X124442888Y-74467750D01*
X124442886Y-74467750D01*
X124253594Y-74467750D01*
X124253592Y-74467750D01*
X124068437Y-74507105D01*
X123895509Y-74584098D01*
X123742369Y-74695360D01*
X123615706Y-74836033D01*
X123521060Y-74999965D01*
X123462566Y-75179992D01*
X123442780Y-75368250D01*
X121697700Y-75368250D01*
X121677914Y-75179994D01*
X121619419Y-74999966D01*
X121619419Y-74999965D01*
X121524773Y-74836033D01*
X121398110Y-74695360D01*
X121244970Y-74584098D01*
X121072042Y-74507105D01*
X120886888Y-74467750D01*
X120886886Y-74467750D01*
X120697594Y-74467750D01*
X120697592Y-74467750D01*
X120512437Y-74507105D01*
X120339509Y-74584098D01*
X120186369Y-74695360D01*
X120059706Y-74836033D01*
X119965060Y-74999965D01*
X119906566Y-75179992D01*
X119886780Y-75368250D01*
X118887240Y-75368250D01*
X118887240Y-72193249D01*
X121156780Y-72193249D01*
X121176566Y-72381507D01*
X121235060Y-72561534D01*
X121329706Y-72725466D01*
X121456369Y-72866139D01*
X121609509Y-72977401D01*
X121782437Y-73054394D01*
X121967592Y-73093750D01*
X121967594Y-73093750D01*
X122156886Y-73093750D01*
X122156888Y-73093750D01*
X122280324Y-73067512D01*
X122342043Y-73054394D01*
X122514970Y-72977401D01*
X122617134Y-72903175D01*
X122668110Y-72866139D01*
X122702227Y-72828249D01*
X122794773Y-72725466D01*
X122889419Y-72561534D01*
X122947914Y-72381506D01*
X122967700Y-72193250D01*
X127506780Y-72193250D01*
X127526566Y-72381507D01*
X127585060Y-72561534D01*
X127679706Y-72725466D01*
X127806369Y-72866139D01*
X127959509Y-72977401D01*
X128132437Y-73054394D01*
X128317592Y-73093750D01*
X128317594Y-73093750D01*
X128506886Y-73093750D01*
X128506888Y-73093750D01*
X128630324Y-73067512D01*
X128692043Y-73054394D01*
X128864970Y-72977401D01*
X128967134Y-72903175D01*
X129018110Y-72866139D01*
X129052227Y-72828249D01*
X134491780Y-72828249D01*
X134511566Y-73016507D01*
X134570060Y-73196534D01*
X134664706Y-73360466D01*
X134791369Y-73501139D01*
X134944509Y-73612401D01*
X135117437Y-73689394D01*
X135302592Y-73728750D01*
X135302594Y-73728750D01*
X135491886Y-73728750D01*
X135491888Y-73728750D01*
X135615324Y-73702512D01*
X135677043Y-73689394D01*
X135849970Y-73612401D01*
X135952065Y-73538225D01*
X136003110Y-73501139D01*
X136129773Y-73360466D01*
X136224419Y-73196534D01*
X136224419Y-73196533D01*
X136282914Y-73016506D01*
X136302700Y-72828250D01*
X136282914Y-72639994D01*
X136224419Y-72459966D01*
X136224419Y-72459965D01*
X136129775Y-72296037D01*
X136129774Y-72296036D01*
X136129773Y-72296034D01*
X136111933Y-72276221D01*
X136083767Y-72223249D01*
X136083767Y-72163251D01*
X136111933Y-72110278D01*
X136129773Y-72090466D01*
X136224419Y-71926534D01*
X136282914Y-71746506D01*
X136302700Y-71558250D01*
X136282914Y-71369994D01*
X136244124Y-71250610D01*
X136224419Y-71189965D01*
X136129775Y-71026037D01*
X136129774Y-71026036D01*
X136129773Y-71026034D01*
X136111933Y-71006221D01*
X136083767Y-70953249D01*
X136083767Y-70893251D01*
X136111933Y-70840278D01*
X136129773Y-70820466D01*
X136224419Y-70656534D01*
X136282914Y-70476506D01*
X136302700Y-70288250D01*
X136282914Y-70099994D01*
X136224419Y-69919966D01*
X136224419Y-69919965D01*
X136129775Y-69756037D01*
X136129774Y-69756036D01*
X136129773Y-69756034D01*
X136111933Y-69736221D01*
X136083767Y-69683249D01*
X136083767Y-69623251D01*
X136111933Y-69570278D01*
X136129773Y-69550466D01*
X136224419Y-69386534D01*
X136282914Y-69206506D01*
X136302700Y-69018250D01*
X136282914Y-68829994D01*
X136245870Y-68715985D01*
X136224419Y-68649965D01*
X136129773Y-68486033D01*
X136111934Y-68466221D01*
X136083767Y-68413247D01*
X136083768Y-68353250D01*
X136111934Y-68300277D01*
X136129773Y-68280466D01*
X136224419Y-68116534D01*
X136282914Y-67936506D01*
X136302700Y-67748250D01*
X136282914Y-67559994D01*
X136224419Y-67379966D01*
X136224419Y-67379965D01*
X136129773Y-67216033D01*
X136111934Y-67196221D01*
X136083767Y-67143246D01*
X136083768Y-67083248D01*
X136111936Y-67030275D01*
X136129773Y-67010466D01*
X136224419Y-66846534D01*
X136282914Y-66666506D01*
X136302700Y-66478250D01*
X136282914Y-66289994D01*
X136224419Y-66109966D01*
X136224419Y-66109965D01*
X136190231Y-66050749D01*
X147318780Y-66050749D01*
X147338566Y-66239007D01*
X147397060Y-66419034D01*
X147491706Y-66582966D01*
X147618369Y-66723639D01*
X147771509Y-66834901D01*
X147944437Y-66911894D01*
X148129592Y-66951250D01*
X148129594Y-66951250D01*
X148318886Y-66951250D01*
X148318888Y-66951250D01*
X148483676Y-66916223D01*
X148504043Y-66911894D01*
X148676970Y-66834901D01*
X148676969Y-66834901D01*
X148830110Y-66723639D01*
X148956773Y-66582966D01*
X149051419Y-66419034D01*
X149065576Y-66375462D01*
X149109914Y-66239006D01*
X149129700Y-66050750D01*
X149109914Y-65862494D01*
X149076701Y-65760276D01*
X149051419Y-65682465D01*
X148956773Y-65518533D01*
X148830110Y-65377860D01*
X148676970Y-65266598D01*
X148504042Y-65189605D01*
X148318888Y-65150250D01*
X148318886Y-65150250D01*
X148129594Y-65150250D01*
X148129592Y-65150250D01*
X147944437Y-65189605D01*
X147771509Y-65266598D01*
X147618369Y-65377860D01*
X147491706Y-65518533D01*
X147397060Y-65682465D01*
X147338566Y-65862492D01*
X147318780Y-66050749D01*
X136190231Y-66050749D01*
X136129773Y-65946033D01*
X136111934Y-65926221D01*
X136083767Y-65873247D01*
X136083768Y-65813250D01*
X136111934Y-65760277D01*
X136129773Y-65740466D01*
X136224419Y-65576534D01*
X136282914Y-65396506D01*
X136302700Y-65208250D01*
X136282914Y-65019994D01*
X136224419Y-64839966D01*
X136224419Y-64839965D01*
X136129775Y-64676037D01*
X136129774Y-64676036D01*
X136129773Y-64676034D01*
X136111933Y-64656221D01*
X136083767Y-64603249D01*
X136083767Y-64543251D01*
X136111933Y-64490278D01*
X136129773Y-64470466D01*
X136224419Y-64306534D01*
X136282914Y-64126506D01*
X136302700Y-63938250D01*
X136282914Y-63749994D01*
X136243706Y-63629325D01*
X136224419Y-63569965D01*
X136129773Y-63406033D01*
X136003110Y-63265360D01*
X135849970Y-63154098D01*
X135677042Y-63077105D01*
X135491888Y-63037750D01*
X135491886Y-63037750D01*
X135302594Y-63037750D01*
X135302592Y-63037750D01*
X135117437Y-63077105D01*
X134944509Y-63154098D01*
X134791369Y-63265360D01*
X134664706Y-63406033D01*
X134570060Y-63569965D01*
X134511566Y-63749992D01*
X134491780Y-63938249D01*
X134511566Y-64126507D01*
X134570060Y-64306534D01*
X134664706Y-64470466D01*
X134682545Y-64490278D01*
X134710712Y-64543252D01*
X134710712Y-64603248D01*
X134682545Y-64656222D01*
X134664706Y-64676033D01*
X134570060Y-64839965D01*
X134511566Y-65019992D01*
X134491780Y-65208249D01*
X134491780Y-65208250D01*
X134497913Y-65266599D01*
X134511566Y-65396507D01*
X134570060Y-65576534D01*
X134664706Y-65740466D01*
X134682545Y-65760278D01*
X134710712Y-65813252D01*
X134710712Y-65873248D01*
X134682545Y-65926222D01*
X134664706Y-65946033D01*
X134570060Y-66109965D01*
X134511566Y-66289992D01*
X134491780Y-66478250D01*
X134511566Y-66666507D01*
X134570060Y-66846534D01*
X134664706Y-67010466D01*
X134682545Y-67030278D01*
X134710712Y-67083252D01*
X134710712Y-67143248D01*
X134682545Y-67196222D01*
X134664706Y-67216033D01*
X134570060Y-67379965D01*
X134511566Y-67559992D01*
X134491780Y-67748249D01*
X134511566Y-67936507D01*
X134570060Y-68116534D01*
X134664706Y-68280465D01*
X134682544Y-68300276D01*
X134710711Y-68353249D01*
X134710712Y-68413245D01*
X134682547Y-68466219D01*
X134664706Y-68486033D01*
X134570060Y-68649965D01*
X134511566Y-68829992D01*
X134491780Y-69018250D01*
X134511566Y-69206507D01*
X134570060Y-69386534D01*
X134664706Y-69550466D01*
X134682545Y-69570278D01*
X134710712Y-69623252D01*
X134710712Y-69683248D01*
X134682545Y-69736222D01*
X134664706Y-69756033D01*
X134570060Y-69919965D01*
X134511566Y-70099992D01*
X134491780Y-70288250D01*
X134511566Y-70476507D01*
X134570060Y-70656534D01*
X134664706Y-70820466D01*
X134682545Y-70840278D01*
X134710712Y-70893252D01*
X134710712Y-70953248D01*
X134682545Y-71006222D01*
X134664706Y-71026033D01*
X134570060Y-71189965D01*
X134511566Y-71369992D01*
X134491780Y-71558250D01*
X134511566Y-71746507D01*
X134570060Y-71926534D01*
X134664706Y-72090466D01*
X134682545Y-72110278D01*
X134710712Y-72163252D01*
X134710712Y-72223248D01*
X134682545Y-72276222D01*
X134664706Y-72296033D01*
X134570060Y-72459965D01*
X134511566Y-72639992D01*
X134491780Y-72828249D01*
X129052227Y-72828249D01*
X129144773Y-72725466D01*
X129239419Y-72561534D01*
X129297914Y-72381506D01*
X129317700Y-72193250D01*
X129297914Y-72004994D01*
X129267572Y-71911613D01*
X129239419Y-71824965D01*
X129144773Y-71661033D01*
X129126934Y-71641221D01*
X129098767Y-71588246D01*
X129098768Y-71528248D01*
X129126936Y-71475275D01*
X129144773Y-71455466D01*
X129239419Y-71291534D01*
X129297914Y-71111506D01*
X129317700Y-70923250D01*
X129297914Y-70734994D01*
X129239419Y-70554966D01*
X129239419Y-70554965D01*
X129144775Y-70391037D01*
X129144774Y-70391036D01*
X129144773Y-70391034D01*
X129126933Y-70371221D01*
X129098767Y-70318249D01*
X129098767Y-70258251D01*
X129126933Y-70205278D01*
X129144773Y-70185466D01*
X129239419Y-70021534D01*
X129297914Y-69841506D01*
X129317700Y-69653250D01*
X129297914Y-69464994D01*
X129239419Y-69284966D01*
X129239419Y-69284965D01*
X129144775Y-69121037D01*
X129144774Y-69121036D01*
X129144773Y-69121034D01*
X129126933Y-69101221D01*
X129098767Y-69048249D01*
X129098767Y-68988251D01*
X129126933Y-68935278D01*
X129144773Y-68915466D01*
X129239419Y-68751534D01*
X129297914Y-68571506D01*
X129317700Y-68383250D01*
X129297914Y-68194994D01*
X129239419Y-68014966D01*
X129239419Y-68014965D01*
X129144775Y-67851037D01*
X129144774Y-67851036D01*
X129144773Y-67851034D01*
X129126933Y-67831221D01*
X129098767Y-67778249D01*
X129098767Y-67718251D01*
X129126933Y-67665278D01*
X129144773Y-67645466D01*
X129239419Y-67481534D01*
X129297914Y-67301506D01*
X129317700Y-67113250D01*
X129297914Y-66924994D01*
X129239419Y-66744966D01*
X129239419Y-66744965D01*
X129144775Y-66581037D01*
X129144774Y-66581036D01*
X129144773Y-66581034D01*
X129126933Y-66561221D01*
X129098767Y-66508249D01*
X129098767Y-66448251D01*
X129126933Y-66395278D01*
X129144773Y-66375466D01*
X129239419Y-66211534D01*
X129297914Y-66031506D01*
X129317700Y-65843250D01*
X129297914Y-65654994D01*
X129239419Y-65474966D01*
X129239419Y-65474965D01*
X129144773Y-65311033D01*
X129126934Y-65291221D01*
X129098767Y-65238247D01*
X129098768Y-65178250D01*
X129126934Y-65125277D01*
X129144773Y-65105466D01*
X129239419Y-64941534D01*
X129297914Y-64761506D01*
X129317700Y-64573250D01*
X129297914Y-64384994D01*
X129239419Y-64204966D01*
X129239419Y-64204965D01*
X129144773Y-64041033D01*
X129018110Y-63900360D01*
X128864970Y-63789098D01*
X128692042Y-63712105D01*
X128506888Y-63672750D01*
X128506886Y-63672750D01*
X128317594Y-63672750D01*
X128317592Y-63672750D01*
X128132437Y-63712105D01*
X127959509Y-63789098D01*
X127806369Y-63900360D01*
X127679706Y-64041033D01*
X127585060Y-64204965D01*
X127526566Y-64384992D01*
X127506780Y-64573249D01*
X127526566Y-64761507D01*
X127585060Y-64941534D01*
X127679706Y-65105465D01*
X127697544Y-65125276D01*
X127725711Y-65178249D01*
X127725712Y-65238245D01*
X127697547Y-65291219D01*
X127679706Y-65311033D01*
X127585060Y-65474965D01*
X127526566Y-65654992D01*
X127506780Y-65843249D01*
X127526566Y-66031507D01*
X127585060Y-66211534D01*
X127679706Y-66375466D01*
X127697545Y-66395278D01*
X127725712Y-66448252D01*
X127725712Y-66508248D01*
X127697545Y-66561222D01*
X127679706Y-66581033D01*
X127585060Y-66744965D01*
X127526566Y-66924992D01*
X127506780Y-67113249D01*
X127526566Y-67301507D01*
X127585060Y-67481534D01*
X127679706Y-67645466D01*
X127697545Y-67665278D01*
X127725712Y-67718252D01*
X127725712Y-67778248D01*
X127697545Y-67831222D01*
X127679706Y-67851033D01*
X127585060Y-68014965D01*
X127526566Y-68194992D01*
X127506780Y-68383250D01*
X127526566Y-68571507D01*
X127585060Y-68751534D01*
X127679706Y-68915466D01*
X127697545Y-68935278D01*
X127725712Y-68988252D01*
X127725712Y-69048248D01*
X127697545Y-69101222D01*
X127679706Y-69121033D01*
X127585060Y-69284965D01*
X127526566Y-69464992D01*
X127506780Y-69653250D01*
X127526566Y-69841507D01*
X127585060Y-70021534D01*
X127679706Y-70185466D01*
X127697545Y-70205278D01*
X127725712Y-70258252D01*
X127725712Y-70318248D01*
X127697545Y-70371222D01*
X127679706Y-70391033D01*
X127585060Y-70554965D01*
X127526566Y-70734992D01*
X127506780Y-70923250D01*
X127526566Y-71111507D01*
X127585060Y-71291534D01*
X127679706Y-71455466D01*
X127697545Y-71475278D01*
X127725712Y-71528252D01*
X127725712Y-71588248D01*
X127697545Y-71641222D01*
X127679706Y-71661033D01*
X127585060Y-71824965D01*
X127526566Y-72004992D01*
X127506780Y-72193250D01*
X122967700Y-72193250D01*
X122947914Y-72004994D01*
X122917572Y-71911613D01*
X122889419Y-71824965D01*
X122794773Y-71661033D01*
X122776934Y-71641221D01*
X122748767Y-71588246D01*
X122748768Y-71528248D01*
X122776936Y-71475275D01*
X122794773Y-71455466D01*
X122889419Y-71291534D01*
X122947914Y-71111506D01*
X122967700Y-70923250D01*
X124331780Y-70923250D01*
X124351566Y-71111507D01*
X124410060Y-71291534D01*
X124504706Y-71455466D01*
X124631369Y-71596139D01*
X124784509Y-71707401D01*
X124957437Y-71784394D01*
X125142592Y-71823750D01*
X125142594Y-71823750D01*
X125331886Y-71823750D01*
X125331888Y-71823750D01*
X125455323Y-71797512D01*
X125517043Y-71784394D01*
X125689970Y-71707401D01*
X125781058Y-71641222D01*
X125843110Y-71596139D01*
X125877227Y-71558249D01*
X125969773Y-71455466D01*
X126064419Y-71291534D01*
X126122914Y-71111506D01*
X126142700Y-70923250D01*
X126122914Y-70734994D01*
X126064419Y-70554966D01*
X126064419Y-70554965D01*
X125969775Y-70391037D01*
X125969774Y-70391036D01*
X125969773Y-70391034D01*
X125951933Y-70371221D01*
X125923767Y-70318249D01*
X125923767Y-70258251D01*
X125951933Y-70205278D01*
X125969773Y-70185466D01*
X126064419Y-70021534D01*
X126122914Y-69841506D01*
X126142700Y-69653250D01*
X126122914Y-69464994D01*
X126064419Y-69284966D01*
X126064419Y-69284965D01*
X125969775Y-69121037D01*
X125969774Y-69121036D01*
X125969773Y-69121034D01*
X125951933Y-69101221D01*
X125923767Y-69048249D01*
X125923767Y-68988251D01*
X125951933Y-68935278D01*
X125969773Y-68915466D01*
X126064419Y-68751534D01*
X126122914Y-68571506D01*
X126142700Y-68383250D01*
X126122914Y-68194994D01*
X126064419Y-68014966D01*
X126064419Y-68014965D01*
X125969775Y-67851037D01*
X125969774Y-67851036D01*
X125969773Y-67851034D01*
X125951933Y-67831221D01*
X125923767Y-67778249D01*
X125923767Y-67718251D01*
X125951933Y-67665278D01*
X125969773Y-67645466D01*
X126064419Y-67481534D01*
X126122914Y-67301506D01*
X126142700Y-67113250D01*
X126122914Y-66924994D01*
X126064419Y-66744966D01*
X126064419Y-66744965D01*
X125969775Y-66581037D01*
X125969774Y-66581036D01*
X125969773Y-66581034D01*
X125951933Y-66561221D01*
X125923767Y-66508249D01*
X125923767Y-66448251D01*
X125951933Y-66395278D01*
X125969773Y-66375466D01*
X126064419Y-66211534D01*
X126122914Y-66031506D01*
X126142700Y-65843250D01*
X126122914Y-65654994D01*
X126064419Y-65474966D01*
X126064419Y-65474965D01*
X125969773Y-65311033D01*
X125843110Y-65170360D01*
X125689970Y-65059098D01*
X125517042Y-64982105D01*
X125331888Y-64942750D01*
X125331886Y-64942750D01*
X125142594Y-64942750D01*
X125142592Y-64942750D01*
X124957437Y-64982105D01*
X124784509Y-65059098D01*
X124631369Y-65170360D01*
X124504706Y-65311033D01*
X124410060Y-65474965D01*
X124351566Y-65654992D01*
X124331780Y-65843249D01*
X124351566Y-66031507D01*
X124410060Y-66211534D01*
X124504706Y-66375466D01*
X124522545Y-66395278D01*
X124550712Y-66448252D01*
X124550712Y-66508248D01*
X124522545Y-66561222D01*
X124504706Y-66581033D01*
X124410060Y-66744965D01*
X124351566Y-66924992D01*
X124331780Y-67113249D01*
X124351566Y-67301507D01*
X124410060Y-67481534D01*
X124504706Y-67645466D01*
X124522545Y-67665278D01*
X124550712Y-67718252D01*
X124550712Y-67778248D01*
X124522545Y-67831222D01*
X124504706Y-67851033D01*
X124410060Y-68014965D01*
X124351566Y-68194992D01*
X124331780Y-68383250D01*
X124351566Y-68571507D01*
X124410060Y-68751534D01*
X124504706Y-68915466D01*
X124522545Y-68935278D01*
X124550712Y-68988252D01*
X124550712Y-69048248D01*
X124522545Y-69101222D01*
X124504706Y-69121033D01*
X124410060Y-69284965D01*
X124351566Y-69464992D01*
X124331780Y-69653250D01*
X124351566Y-69841507D01*
X124410060Y-70021534D01*
X124504706Y-70185466D01*
X124522545Y-70205278D01*
X124550712Y-70258252D01*
X124550712Y-70318248D01*
X124522545Y-70371222D01*
X124504706Y-70391033D01*
X124410060Y-70554965D01*
X124351566Y-70734992D01*
X124331780Y-70923250D01*
X122967700Y-70923250D01*
X122947914Y-70734994D01*
X122889419Y-70554966D01*
X122889419Y-70554965D01*
X122794775Y-70391037D01*
X122794774Y-70391036D01*
X122794773Y-70391034D01*
X122776933Y-70371221D01*
X122748767Y-70318249D01*
X122748767Y-70258251D01*
X122776933Y-70205278D01*
X122794773Y-70185466D01*
X122889419Y-70021534D01*
X122947914Y-69841506D01*
X122967700Y-69653250D01*
X122947914Y-69464994D01*
X122889419Y-69284966D01*
X122889419Y-69284965D01*
X122794775Y-69121037D01*
X122794774Y-69121036D01*
X122794773Y-69121034D01*
X122776933Y-69101221D01*
X122748767Y-69048249D01*
X122748767Y-68988251D01*
X122776933Y-68935278D01*
X122794773Y-68915466D01*
X122889419Y-68751534D01*
X122947914Y-68571506D01*
X122967700Y-68383250D01*
X122947914Y-68194994D01*
X122889419Y-68014966D01*
X122889419Y-68014965D01*
X122794775Y-67851037D01*
X122794774Y-67851036D01*
X122794773Y-67851034D01*
X122776933Y-67831221D01*
X122748767Y-67778249D01*
X122748767Y-67718251D01*
X122776933Y-67665278D01*
X122794773Y-67645466D01*
X122889419Y-67481534D01*
X122947914Y-67301506D01*
X122967700Y-67113250D01*
X122947914Y-66924994D01*
X122889419Y-66744966D01*
X122889419Y-66744965D01*
X122794775Y-66581037D01*
X122794774Y-66581036D01*
X122794773Y-66581034D01*
X122776933Y-66561221D01*
X122748767Y-66508249D01*
X122748767Y-66448251D01*
X122776933Y-66395278D01*
X122794773Y-66375466D01*
X122889419Y-66211534D01*
X122947914Y-66031506D01*
X122967700Y-65843250D01*
X122947914Y-65654994D01*
X122889419Y-65474966D01*
X122889419Y-65474965D01*
X122794773Y-65311033D01*
X122776934Y-65291221D01*
X122748767Y-65238247D01*
X122748768Y-65178250D01*
X122776934Y-65125277D01*
X122794773Y-65105466D01*
X122889419Y-64941534D01*
X122947914Y-64761506D01*
X122967700Y-64573250D01*
X122947914Y-64384994D01*
X122889419Y-64204966D01*
X122889419Y-64204965D01*
X122794773Y-64041033D01*
X122668110Y-63900360D01*
X122514970Y-63789098D01*
X122342042Y-63712105D01*
X122156888Y-63672750D01*
X122156886Y-63672750D01*
X121967594Y-63672750D01*
X121967592Y-63672750D01*
X121782437Y-63712105D01*
X121609509Y-63789098D01*
X121456369Y-63900360D01*
X121329706Y-64041033D01*
X121235060Y-64204965D01*
X121176566Y-64384992D01*
X121156780Y-64573250D01*
X121176566Y-64761507D01*
X121235060Y-64941534D01*
X121329706Y-65105465D01*
X121347544Y-65125276D01*
X121375711Y-65178249D01*
X121375712Y-65238245D01*
X121347547Y-65291219D01*
X121329706Y-65311033D01*
X121235060Y-65474965D01*
X121176566Y-65654992D01*
X121156780Y-65843249D01*
X121176566Y-66031507D01*
X121235060Y-66211534D01*
X121329706Y-66375466D01*
X121347545Y-66395278D01*
X121375712Y-66448252D01*
X121375712Y-66508248D01*
X121347545Y-66561222D01*
X121329706Y-66581033D01*
X121235060Y-66744965D01*
X121176566Y-66924992D01*
X121156780Y-67113249D01*
X121176566Y-67301507D01*
X121235060Y-67481534D01*
X121329706Y-67645466D01*
X121347545Y-67665278D01*
X121375712Y-67718252D01*
X121375712Y-67778248D01*
X121347545Y-67831222D01*
X121329706Y-67851033D01*
X121235060Y-68014965D01*
X121176566Y-68194992D01*
X121156780Y-68383250D01*
X121176566Y-68571507D01*
X121235060Y-68751534D01*
X121329706Y-68915466D01*
X121347545Y-68935278D01*
X121375712Y-68988252D01*
X121375712Y-69048248D01*
X121347545Y-69101222D01*
X121329706Y-69121033D01*
X121235060Y-69284965D01*
X121176566Y-69464992D01*
X121156780Y-69653250D01*
X121176566Y-69841507D01*
X121235060Y-70021534D01*
X121329706Y-70185466D01*
X121347545Y-70205278D01*
X121375712Y-70258252D01*
X121375712Y-70318248D01*
X121347545Y-70371222D01*
X121329706Y-70391033D01*
X121235060Y-70554965D01*
X121176566Y-70734992D01*
X121156780Y-70923250D01*
X121176566Y-71111507D01*
X121235060Y-71291534D01*
X121329706Y-71455466D01*
X121347545Y-71475278D01*
X121375712Y-71528252D01*
X121375712Y-71588248D01*
X121347545Y-71641222D01*
X121329706Y-71661033D01*
X121235060Y-71824965D01*
X121176566Y-72004992D01*
X121156780Y-72193249D01*
X118887240Y-72193249D01*
X118887240Y-65927690D01*
X118888837Y-65907855D01*
X118912751Y-65760278D01*
X118943197Y-65572395D01*
X118943979Y-65568062D01*
X118962497Y-65474966D01*
X119159013Y-64487009D01*
X119159937Y-64482765D01*
X119413426Y-63410050D01*
X119414499Y-63405841D01*
X119706118Y-62342847D01*
X119707361Y-62338616D01*
X120036722Y-61286744D01*
X120038098Y-61282609D01*
X120404809Y-60243119D01*
X120406325Y-60239057D01*
X120809892Y-59213349D01*
X120811580Y-59209274D01*
X121240782Y-58223249D01*
X122536826Y-58223249D01*
X122556472Y-58648187D01*
X122615242Y-59069496D01*
X122712633Y-59483577D01*
X122847817Y-59886913D01*
X123019644Y-60276065D01*
X123116545Y-60450034D01*
X123226638Y-60647688D01*
X123299901Y-60754639D01*
X123467043Y-60998637D01*
X123738797Y-61325897D01*
X124039592Y-61626692D01*
X124366852Y-61898446D01*
X124366858Y-61898450D01*
X124717802Y-62138852D01*
X124717806Y-62138854D01*
X125089424Y-62345845D01*
X125089426Y-62345846D01*
X125089430Y-62345848D01*
X125478573Y-62517671D01*
X125478576Y-62517672D01*
X125881912Y-62652856D01*
X126154453Y-62716957D01*
X126295997Y-62750248D01*
X126717306Y-62809018D01*
X127142240Y-62828664D01*
X127567174Y-62809018D01*
X127988483Y-62750248D01*
X128402571Y-62652855D01*
X128805907Y-62517671D01*
X129195050Y-62345848D01*
X129566678Y-62138852D01*
X129720838Y-62033250D01*
X136396780Y-62033250D01*
X136416566Y-62221507D01*
X136475060Y-62401534D01*
X136569706Y-62565466D01*
X136696369Y-62706139D01*
X136849509Y-62817401D01*
X137022437Y-62894394D01*
X137207592Y-62933750D01*
X137207594Y-62933750D01*
X137396886Y-62933750D01*
X137396888Y-62933750D01*
X137520323Y-62907512D01*
X137582043Y-62894394D01*
X137754970Y-62817401D01*
X137847399Y-62750248D01*
X137864355Y-62737929D01*
X137911459Y-62716957D01*
X137963021Y-62716957D01*
X138010125Y-62737929D01*
X138119509Y-62817401D01*
X138292437Y-62894394D01*
X138477592Y-62933750D01*
X138477594Y-62933750D01*
X138666886Y-62933750D01*
X138666888Y-62933750D01*
X138790323Y-62907512D01*
X138852043Y-62894394D01*
X139024970Y-62817401D01*
X139117399Y-62750248D01*
X139134355Y-62737929D01*
X139181459Y-62716957D01*
X139233021Y-62716957D01*
X139280125Y-62737929D01*
X139389509Y-62817401D01*
X139562437Y-62894394D01*
X139747592Y-62933750D01*
X139747594Y-62933750D01*
X139936886Y-62933750D01*
X139936888Y-62933750D01*
X140060323Y-62907512D01*
X140122043Y-62894394D01*
X140294970Y-62817401D01*
X140387399Y-62750248D01*
X140404355Y-62737929D01*
X140451459Y-62716957D01*
X140503021Y-62716957D01*
X140550125Y-62737929D01*
X140659509Y-62817401D01*
X140832437Y-62894394D01*
X141017592Y-62933750D01*
X141017594Y-62933750D01*
X141206886Y-62933750D01*
X141206888Y-62933750D01*
X141330323Y-62907512D01*
X141392043Y-62894394D01*
X141564970Y-62817401D01*
X141657399Y-62750248D01*
X141674355Y-62737929D01*
X141721459Y-62716957D01*
X141773021Y-62716957D01*
X141820125Y-62737929D01*
X141929509Y-62817401D01*
X142102437Y-62894394D01*
X142287592Y-62933750D01*
X142287594Y-62933750D01*
X142476886Y-62933750D01*
X142476888Y-62933750D01*
X142600323Y-62907512D01*
X142662043Y-62894394D01*
X142834970Y-62817401D01*
X142927399Y-62750248D01*
X142944355Y-62737929D01*
X142991459Y-62716957D01*
X143043021Y-62716957D01*
X143090125Y-62737929D01*
X143199509Y-62817401D01*
X143372437Y-62894394D01*
X143557592Y-62933750D01*
X143557594Y-62933750D01*
X143746886Y-62933750D01*
X143746888Y-62933750D01*
X143870323Y-62907512D01*
X143932043Y-62894394D01*
X144104970Y-62817401D01*
X144197399Y-62750248D01*
X144214355Y-62737929D01*
X144261459Y-62716957D01*
X144313021Y-62716957D01*
X144360125Y-62737929D01*
X144469509Y-62817401D01*
X144642437Y-62894394D01*
X144827592Y-62933750D01*
X144827594Y-62933750D01*
X145016886Y-62933750D01*
X145016888Y-62933750D01*
X145140323Y-62907512D01*
X145202043Y-62894394D01*
X145374970Y-62817401D01*
X145467399Y-62750248D01*
X145484355Y-62737929D01*
X145531459Y-62716957D01*
X145583021Y-62716957D01*
X145630125Y-62737929D01*
X145739509Y-62817401D01*
X145912437Y-62894394D01*
X146097592Y-62933750D01*
X146097594Y-62933750D01*
X146286886Y-62933750D01*
X146286888Y-62933750D01*
X146410323Y-62907512D01*
X146472043Y-62894394D01*
X146644970Y-62817401D01*
X146737400Y-62750247D01*
X146798110Y-62706139D01*
X146924773Y-62565466D01*
X147019419Y-62401534D01*
X147030911Y-62366165D01*
X147077914Y-62221506D01*
X147097700Y-62033250D01*
X147077914Y-61844994D01*
X147019419Y-61664966D01*
X147019419Y-61664965D01*
X146924773Y-61501033D01*
X146798110Y-61360360D01*
X146644970Y-61249098D01*
X146472042Y-61172105D01*
X146286888Y-61132750D01*
X146286886Y-61132750D01*
X146097594Y-61132750D01*
X146097592Y-61132750D01*
X145912437Y-61172105D01*
X145739509Y-61249098D01*
X145630125Y-61328571D01*
X145583021Y-61349543D01*
X145531459Y-61349543D01*
X145484355Y-61328571D01*
X145374970Y-61249098D01*
X145202042Y-61172105D01*
X145016888Y-61132750D01*
X145016886Y-61132750D01*
X144827594Y-61132750D01*
X144827592Y-61132750D01*
X144642437Y-61172105D01*
X144469509Y-61249098D01*
X144360125Y-61328571D01*
X144313021Y-61349543D01*
X144261459Y-61349543D01*
X144214355Y-61328571D01*
X144104970Y-61249098D01*
X143932042Y-61172105D01*
X143746888Y-61132750D01*
X143746886Y-61132750D01*
X143557594Y-61132750D01*
X143557592Y-61132750D01*
X143372437Y-61172105D01*
X143199509Y-61249098D01*
X143090125Y-61328571D01*
X143043021Y-61349543D01*
X142991459Y-61349543D01*
X142944355Y-61328571D01*
X142834970Y-61249098D01*
X142662042Y-61172105D01*
X142476888Y-61132750D01*
X142476886Y-61132750D01*
X142287594Y-61132750D01*
X142287592Y-61132750D01*
X142102437Y-61172105D01*
X141929509Y-61249098D01*
X141820125Y-61328571D01*
X141773021Y-61349543D01*
X141721459Y-61349543D01*
X141674355Y-61328571D01*
X141564970Y-61249098D01*
X141392042Y-61172105D01*
X141206888Y-61132750D01*
X141206886Y-61132750D01*
X141017594Y-61132750D01*
X141017592Y-61132750D01*
X140832437Y-61172105D01*
X140659509Y-61249098D01*
X140550125Y-61328571D01*
X140503021Y-61349543D01*
X140451459Y-61349543D01*
X140404355Y-61328571D01*
X140294970Y-61249098D01*
X140122042Y-61172105D01*
X139936888Y-61132750D01*
X139936886Y-61132750D01*
X139747594Y-61132750D01*
X139747592Y-61132750D01*
X139562437Y-61172105D01*
X139389509Y-61249098D01*
X139280125Y-61328571D01*
X139233021Y-61349543D01*
X139181459Y-61349543D01*
X139134355Y-61328571D01*
X139024970Y-61249098D01*
X138852042Y-61172105D01*
X138666888Y-61132750D01*
X138666886Y-61132750D01*
X138477594Y-61132750D01*
X138477592Y-61132750D01*
X138292437Y-61172105D01*
X138119509Y-61249098D01*
X138010125Y-61328571D01*
X137963021Y-61349543D01*
X137911459Y-61349543D01*
X137864355Y-61328571D01*
X137754970Y-61249098D01*
X137582042Y-61172105D01*
X137396888Y-61132750D01*
X137396886Y-61132750D01*
X137207594Y-61132750D01*
X137207592Y-61132750D01*
X137022437Y-61172105D01*
X136849509Y-61249098D01*
X136696369Y-61360360D01*
X136569706Y-61501033D01*
X136475060Y-61664965D01*
X136416566Y-61844992D01*
X136396780Y-62033250D01*
X129720838Y-62033250D01*
X129917622Y-61898450D01*
X129934906Y-61884098D01*
X130244887Y-61626692D01*
X130545682Y-61325897D01*
X130817436Y-60998637D01*
X130817436Y-60998635D01*
X130817440Y-60998632D01*
X131057842Y-60647688D01*
X131264838Y-60276060D01*
X131350634Y-60081750D01*
X147826780Y-60081750D01*
X147846566Y-60270007D01*
X147905060Y-60450034D01*
X147999706Y-60613966D01*
X148126369Y-60754639D01*
X148279509Y-60865901D01*
X148452437Y-60942894D01*
X148637592Y-60982250D01*
X148637594Y-60982250D01*
X148826886Y-60982250D01*
X148826888Y-60982250D01*
X148950323Y-60956012D01*
X149012043Y-60942894D01*
X149123995Y-60893048D01*
X149189804Y-60863749D01*
X149240240Y-60853028D01*
X149290676Y-60863749D01*
X149468437Y-60942894D01*
X149653592Y-60982250D01*
X149653594Y-60982250D01*
X149842882Y-60982250D01*
X149842886Y-60982250D01*
X149845769Y-60981637D01*
X149902385Y-60982820D01*
X149952574Y-61009056D01*
X149985863Y-61054871D01*
X149995308Y-61110709D01*
X149978941Y-61164925D01*
X149937060Y-61237466D01*
X149878566Y-61417492D01*
X149858780Y-61605750D01*
X149878566Y-61794007D01*
X149937060Y-61974034D01*
X150031706Y-62137966D01*
X150158369Y-62278639D01*
X150311509Y-62389901D01*
X150484437Y-62466894D01*
X150669592Y-62506250D01*
X150669594Y-62506250D01*
X150858886Y-62506250D01*
X150858888Y-62506250D01*
X150982431Y-62479990D01*
X151044043Y-62466894D01*
X151216970Y-62389901D01*
X151355735Y-62289082D01*
X151413078Y-62266379D01*
X151474267Y-62274109D01*
X151524163Y-62310360D01*
X151550423Y-62366165D01*
X151546551Y-62427718D01*
X151529566Y-62479990D01*
X151509780Y-62668250D01*
X151529566Y-62856507D01*
X151588060Y-63036534D01*
X151682706Y-63200466D01*
X151809369Y-63341139D01*
X151962509Y-63452401D01*
X152135437Y-63529394D01*
X152320592Y-63568750D01*
X152320594Y-63568750D01*
X152509886Y-63568750D01*
X152509888Y-63568750D01*
X152674234Y-63533817D01*
X152695043Y-63529394D01*
X152867970Y-63452401D01*
X153021111Y-63341138D01*
X153021589Y-63340606D01*
X153023402Y-63339473D01*
X153031655Y-63333478D01*
X153032074Y-63334054D01*
X153079560Y-63304382D01*
X153147920Y-63304382D01*
X153195405Y-63334054D01*
X153195825Y-63333478D01*
X153204077Y-63339473D01*
X153205891Y-63340607D01*
X153206371Y-63341140D01*
X153359509Y-63452401D01*
X153532437Y-63529394D01*
X153717592Y-63568750D01*
X153717594Y-63568750D01*
X153906886Y-63568750D01*
X153906888Y-63568750D01*
X154071234Y-63533817D01*
X154092043Y-63529394D01*
X154264970Y-63452401D01*
X154264969Y-63452401D01*
X154374355Y-63372929D01*
X154421459Y-63351957D01*
X154473021Y-63351957D01*
X154520125Y-63372929D01*
X154629509Y-63452401D01*
X154802437Y-63529394D01*
X154987592Y-63568750D01*
X154987594Y-63568750D01*
X155176886Y-63568750D01*
X155176888Y-63568750D01*
X155341234Y-63533817D01*
X155362043Y-63529394D01*
X155534970Y-63452401D01*
X155534969Y-63452401D01*
X155644355Y-63372929D01*
X155691459Y-63351957D01*
X155743021Y-63351957D01*
X155790125Y-63372929D01*
X155899509Y-63452401D01*
X156072437Y-63529394D01*
X156257592Y-63568750D01*
X156257594Y-63568750D01*
X156446886Y-63568750D01*
X156446888Y-63568750D01*
X156611234Y-63533817D01*
X156632043Y-63529394D01*
X156804970Y-63452401D01*
X156804969Y-63452401D01*
X156914355Y-63372929D01*
X156961459Y-63351957D01*
X157013021Y-63351957D01*
X157060125Y-63372929D01*
X157169509Y-63452401D01*
X157342437Y-63529394D01*
X157527592Y-63568750D01*
X157527594Y-63568750D01*
X157716886Y-63568750D01*
X157716888Y-63568750D01*
X157881234Y-63533817D01*
X157902043Y-63529394D01*
X158074970Y-63452401D01*
X158074969Y-63452401D01*
X158184355Y-63372929D01*
X158231459Y-63351957D01*
X158283021Y-63351957D01*
X158330125Y-63372929D01*
X158439509Y-63452401D01*
X158612437Y-63529394D01*
X158797592Y-63568750D01*
X158797594Y-63568750D01*
X158986886Y-63568750D01*
X158986888Y-63568750D01*
X159151234Y-63533817D01*
X159172043Y-63529394D01*
X159344970Y-63452401D01*
X159344969Y-63452401D01*
X159454355Y-63372929D01*
X159501459Y-63351957D01*
X159553021Y-63351957D01*
X159600125Y-63372929D01*
X159709509Y-63452401D01*
X159882437Y-63529394D01*
X160067592Y-63568750D01*
X160067594Y-63568750D01*
X160256886Y-63568750D01*
X160256888Y-63568750D01*
X160421234Y-63533817D01*
X160442043Y-63529394D01*
X160614970Y-63452401D01*
X160614969Y-63452401D01*
X160724355Y-63372929D01*
X160771459Y-63351957D01*
X160823021Y-63351957D01*
X160870125Y-63372929D01*
X160979509Y-63452401D01*
X161152437Y-63529394D01*
X161337592Y-63568750D01*
X161337594Y-63568750D01*
X161526886Y-63568750D01*
X161526888Y-63568750D01*
X161691234Y-63533817D01*
X161755333Y-63537176D01*
X161809165Y-63572134D01*
X161838305Y-63629325D01*
X161834946Y-63693424D01*
X161816566Y-63749990D01*
X161796780Y-63938249D01*
X161816566Y-64126507D01*
X161875060Y-64306534D01*
X161969706Y-64470466D01*
X161987545Y-64490278D01*
X162015712Y-64543252D01*
X162015712Y-64603248D01*
X161987545Y-64656222D01*
X161969706Y-64676033D01*
X161875060Y-64839965D01*
X161816566Y-65019992D01*
X161796780Y-65208249D01*
X161796780Y-65208250D01*
X161802913Y-65266599D01*
X161816566Y-65396507D01*
X161875060Y-65576534D01*
X161969706Y-65740466D01*
X161987545Y-65760278D01*
X162015712Y-65813252D01*
X162015712Y-65873248D01*
X161987545Y-65926222D01*
X161969706Y-65946033D01*
X161875060Y-66109965D01*
X161816566Y-66289992D01*
X161796780Y-66478250D01*
X161816566Y-66666507D01*
X161875060Y-66846534D01*
X161969706Y-67010466D01*
X161987545Y-67030278D01*
X162015712Y-67083252D01*
X162015712Y-67143248D01*
X161987545Y-67196222D01*
X161969706Y-67216033D01*
X161875060Y-67379965D01*
X161816566Y-67559992D01*
X161796780Y-67748250D01*
X161816566Y-67936507D01*
X161875060Y-68116534D01*
X161969706Y-68280465D01*
X161987544Y-68300276D01*
X162015711Y-68353249D01*
X162015712Y-68413245D01*
X161987547Y-68466219D01*
X161969706Y-68486033D01*
X161875060Y-68649965D01*
X161816566Y-68829992D01*
X161796780Y-69018249D01*
X161816566Y-69206507D01*
X161875060Y-69386534D01*
X161969706Y-69550466D01*
X161987545Y-69570278D01*
X162015712Y-69623252D01*
X162015712Y-69683248D01*
X161987545Y-69736222D01*
X161969706Y-69756033D01*
X161875060Y-69919965D01*
X161816566Y-70099992D01*
X161796780Y-70288249D01*
X161816566Y-70476507D01*
X161875060Y-70656534D01*
X161969706Y-70820466D01*
X162096369Y-70961139D01*
X162249509Y-71072401D01*
X162422437Y-71149394D01*
X162607592Y-71188750D01*
X162607594Y-71188750D01*
X162796885Y-71188750D01*
X162796886Y-71188750D01*
X162808439Y-71186294D01*
X162872537Y-71189651D01*
X162926371Y-71224608D01*
X162955513Y-71281799D01*
X162952155Y-71345899D01*
X162944326Y-71369993D01*
X162924540Y-71558250D01*
X162944326Y-71746507D01*
X163002820Y-71926534D01*
X163097466Y-72090466D01*
X163115305Y-72110278D01*
X163143472Y-72163252D01*
X163143472Y-72223248D01*
X163115305Y-72276222D01*
X163097466Y-72296033D01*
X163002820Y-72459965D01*
X162944326Y-72639992D01*
X162924540Y-72828249D01*
X162944326Y-73016507D01*
X163002820Y-73196534D01*
X163097466Y-73360466D01*
X163224129Y-73501139D01*
X163377269Y-73612401D01*
X163550197Y-73689394D01*
X163735352Y-73728750D01*
X163735354Y-73728750D01*
X163924646Y-73728750D01*
X163924648Y-73728750D01*
X164048084Y-73702512D01*
X164109803Y-73689394D01*
X164282730Y-73612401D01*
X164384825Y-73538225D01*
X164435870Y-73501139D01*
X164562533Y-73360466D01*
X164657179Y-73196534D01*
X164657179Y-73196533D01*
X164715674Y-73016506D01*
X164735460Y-72828250D01*
X164715674Y-72639994D01*
X164657179Y-72459966D01*
X164657179Y-72459965D01*
X164562535Y-72296037D01*
X164562534Y-72296036D01*
X164562533Y-72296034D01*
X164544693Y-72276221D01*
X164516527Y-72223249D01*
X164516527Y-72193250D01*
X169416780Y-72193250D01*
X169436566Y-72381507D01*
X169495060Y-72561534D01*
X169589706Y-72725466D01*
X169716369Y-72866139D01*
X169869509Y-72977401D01*
X170042437Y-73054394D01*
X170227592Y-73093750D01*
X170227594Y-73093750D01*
X170416886Y-73093750D01*
X170416888Y-73093750D01*
X170540324Y-73067512D01*
X170602043Y-73054394D01*
X170774970Y-72977401D01*
X170877134Y-72903175D01*
X170928110Y-72866139D01*
X170962227Y-72828249D01*
X171054773Y-72725466D01*
X171149419Y-72561534D01*
X171207914Y-72381506D01*
X171227700Y-72193250D01*
X175766780Y-72193250D01*
X175786566Y-72381507D01*
X175845060Y-72561534D01*
X175939706Y-72725466D01*
X176066369Y-72866139D01*
X176219509Y-72977401D01*
X176392437Y-73054394D01*
X176577592Y-73093750D01*
X176577594Y-73093750D01*
X176766886Y-73093750D01*
X176766888Y-73093750D01*
X176890324Y-73067512D01*
X176952043Y-73054394D01*
X177124970Y-72977401D01*
X177227134Y-72903175D01*
X177278110Y-72866139D01*
X177312227Y-72828249D01*
X177404773Y-72725466D01*
X177499419Y-72561534D01*
X177557914Y-72381506D01*
X177577700Y-72193250D01*
X177557914Y-72004994D01*
X177527572Y-71911613D01*
X177499419Y-71824965D01*
X177404773Y-71661033D01*
X177386934Y-71641221D01*
X177358767Y-71588246D01*
X177358768Y-71528248D01*
X177386936Y-71475275D01*
X177404773Y-71455466D01*
X177499419Y-71291534D01*
X177557914Y-71111506D01*
X177577700Y-70923250D01*
X177557914Y-70734994D01*
X177499419Y-70554966D01*
X177499419Y-70554965D01*
X177404775Y-70391037D01*
X177404774Y-70391036D01*
X177404773Y-70391034D01*
X177386933Y-70371221D01*
X177358767Y-70318249D01*
X177358767Y-70258251D01*
X177386933Y-70205278D01*
X177404773Y-70185466D01*
X177499419Y-70021534D01*
X177557914Y-69841506D01*
X177577700Y-69653250D01*
X177557914Y-69464994D01*
X177499419Y-69284966D01*
X177499419Y-69284965D01*
X177404775Y-69121037D01*
X177404774Y-69121036D01*
X177404773Y-69121034D01*
X177386933Y-69101221D01*
X177358767Y-69048249D01*
X177358767Y-68988251D01*
X177386933Y-68935278D01*
X177404773Y-68915466D01*
X177499419Y-68751534D01*
X177557914Y-68571506D01*
X177577700Y-68383250D01*
X177557914Y-68194994D01*
X177499419Y-68014966D01*
X177499419Y-68014965D01*
X177404775Y-67851037D01*
X177404774Y-67851036D01*
X177404773Y-67851034D01*
X177386933Y-67831221D01*
X177358767Y-67778249D01*
X177358767Y-67718251D01*
X177386933Y-67665278D01*
X177404773Y-67645466D01*
X177499419Y-67481534D01*
X177557914Y-67301506D01*
X177577700Y-67113250D01*
X177557914Y-66924994D01*
X177499419Y-66744966D01*
X177499419Y-66744965D01*
X177404775Y-66581037D01*
X177404774Y-66581036D01*
X177404773Y-66581034D01*
X177386933Y-66561221D01*
X177358767Y-66508249D01*
X177358767Y-66448251D01*
X177386933Y-66395278D01*
X177404773Y-66375466D01*
X177499419Y-66211534D01*
X177557914Y-66031506D01*
X177577700Y-65843250D01*
X177557914Y-65654994D01*
X177499419Y-65474966D01*
X177499419Y-65474965D01*
X177404773Y-65311033D01*
X177386934Y-65291221D01*
X177358767Y-65238247D01*
X177358768Y-65178250D01*
X177386934Y-65125277D01*
X177404773Y-65105466D01*
X177499419Y-64941534D01*
X177557914Y-64761506D01*
X177577700Y-64573250D01*
X177557914Y-64384994D01*
X177499419Y-64204966D01*
X177499419Y-64204965D01*
X177404773Y-64041033D01*
X177278110Y-63900360D01*
X177124970Y-63789098D01*
X176952042Y-63712105D01*
X176766888Y-63672750D01*
X176766886Y-63672750D01*
X176577594Y-63672750D01*
X176577592Y-63672750D01*
X176392437Y-63712105D01*
X176219509Y-63789098D01*
X176066369Y-63900360D01*
X175939706Y-64041033D01*
X175845060Y-64204965D01*
X175786566Y-64384992D01*
X175766780Y-64573249D01*
X175786566Y-64761507D01*
X175845060Y-64941534D01*
X175939706Y-65105465D01*
X175957544Y-65125276D01*
X175985711Y-65178249D01*
X175985712Y-65238245D01*
X175957547Y-65291219D01*
X175939706Y-65311033D01*
X175845060Y-65474965D01*
X175786566Y-65654992D01*
X175766780Y-65843249D01*
X175786566Y-66031507D01*
X175845060Y-66211534D01*
X175939706Y-66375466D01*
X175957545Y-66395278D01*
X175985712Y-66448252D01*
X175985712Y-66508248D01*
X175957545Y-66561222D01*
X175939706Y-66581033D01*
X175845060Y-66744965D01*
X175786566Y-66924992D01*
X175766780Y-67113250D01*
X175786566Y-67301507D01*
X175845060Y-67481534D01*
X175939706Y-67645466D01*
X175957545Y-67665278D01*
X175985712Y-67718252D01*
X175985712Y-67778248D01*
X175957545Y-67831222D01*
X175939706Y-67851033D01*
X175845060Y-68014965D01*
X175786566Y-68194992D01*
X175766780Y-68383250D01*
X175786566Y-68571507D01*
X175845060Y-68751534D01*
X175939706Y-68915466D01*
X175957545Y-68935278D01*
X175985712Y-68988252D01*
X175985712Y-69048248D01*
X175957545Y-69101222D01*
X175939706Y-69121033D01*
X175845060Y-69284965D01*
X175786566Y-69464992D01*
X175766780Y-69653249D01*
X175786566Y-69841507D01*
X175845060Y-70021534D01*
X175939706Y-70185466D01*
X175957545Y-70205278D01*
X175985712Y-70258252D01*
X175985712Y-70318248D01*
X175957545Y-70371222D01*
X175939706Y-70391033D01*
X175845060Y-70554965D01*
X175786566Y-70734992D01*
X175766780Y-70923250D01*
X175786566Y-71111507D01*
X175845060Y-71291534D01*
X175939706Y-71455466D01*
X175957545Y-71475278D01*
X175985712Y-71528252D01*
X175985712Y-71588248D01*
X175957545Y-71641222D01*
X175939706Y-71661033D01*
X175845060Y-71824965D01*
X175786566Y-72004992D01*
X175766780Y-72193250D01*
X171227700Y-72193250D01*
X171207914Y-72004994D01*
X171177572Y-71911613D01*
X171149419Y-71824965D01*
X171054773Y-71661033D01*
X171036934Y-71641221D01*
X171008767Y-71588246D01*
X171008768Y-71528248D01*
X171036936Y-71475275D01*
X171054773Y-71455466D01*
X171149419Y-71291534D01*
X171207914Y-71111506D01*
X171227700Y-70923250D01*
X172591780Y-70923250D01*
X172611566Y-71111507D01*
X172670060Y-71291534D01*
X172764706Y-71455466D01*
X172891369Y-71596139D01*
X173044509Y-71707401D01*
X173217437Y-71784394D01*
X173402592Y-71823750D01*
X173402594Y-71823750D01*
X173591886Y-71823750D01*
X173591888Y-71823750D01*
X173715323Y-71797512D01*
X173777043Y-71784394D01*
X173949970Y-71707401D01*
X174041058Y-71641222D01*
X174103110Y-71596139D01*
X174137227Y-71558249D01*
X174229773Y-71455466D01*
X174324419Y-71291534D01*
X174382914Y-71111506D01*
X174402700Y-70923250D01*
X174382914Y-70734994D01*
X174324419Y-70554966D01*
X174324419Y-70554965D01*
X174229775Y-70391037D01*
X174229774Y-70391036D01*
X174229773Y-70391034D01*
X174211933Y-70371221D01*
X174183767Y-70318249D01*
X174183767Y-70258251D01*
X174211933Y-70205278D01*
X174229773Y-70185466D01*
X174324419Y-70021534D01*
X174382914Y-69841506D01*
X174402700Y-69653250D01*
X174382914Y-69464994D01*
X174324419Y-69284966D01*
X174324419Y-69284965D01*
X174229775Y-69121037D01*
X174229774Y-69121036D01*
X174229773Y-69121034D01*
X174211933Y-69101221D01*
X174183767Y-69048249D01*
X174183767Y-68988251D01*
X174211933Y-68935278D01*
X174229773Y-68915466D01*
X174324419Y-68751534D01*
X174382914Y-68571506D01*
X174402700Y-68383250D01*
X174382914Y-68194994D01*
X174324419Y-68014966D01*
X174324419Y-68014965D01*
X174229775Y-67851037D01*
X174229774Y-67851036D01*
X174229773Y-67851034D01*
X174211933Y-67831221D01*
X174183767Y-67778249D01*
X174183767Y-67718251D01*
X174211933Y-67665278D01*
X174229773Y-67645466D01*
X174324419Y-67481534D01*
X174382914Y-67301506D01*
X174402700Y-67113250D01*
X174382914Y-66924994D01*
X174324419Y-66744966D01*
X174324419Y-66744965D01*
X174229775Y-66581037D01*
X174229774Y-66581036D01*
X174229773Y-66581034D01*
X174211933Y-66561221D01*
X174183767Y-66508249D01*
X174183767Y-66448251D01*
X174211933Y-66395278D01*
X174229773Y-66375466D01*
X174324419Y-66211534D01*
X174382914Y-66031506D01*
X174402700Y-65843250D01*
X174382914Y-65654994D01*
X174324419Y-65474966D01*
X174324419Y-65474965D01*
X174229773Y-65311033D01*
X174103110Y-65170360D01*
X173949970Y-65059098D01*
X173777042Y-64982105D01*
X173591888Y-64942750D01*
X173591886Y-64942750D01*
X173402594Y-64942750D01*
X173402592Y-64942750D01*
X173217437Y-64982105D01*
X173044509Y-65059098D01*
X172891369Y-65170360D01*
X172764706Y-65311033D01*
X172670060Y-65474965D01*
X172611566Y-65654992D01*
X172591780Y-65843249D01*
X172611566Y-66031507D01*
X172670060Y-66211534D01*
X172764706Y-66375466D01*
X172782545Y-66395278D01*
X172810712Y-66448252D01*
X172810712Y-66508248D01*
X172782545Y-66561222D01*
X172764706Y-66581033D01*
X172670060Y-66744965D01*
X172611566Y-66924992D01*
X172591780Y-67113250D01*
X172611566Y-67301507D01*
X172670060Y-67481534D01*
X172764706Y-67645466D01*
X172782545Y-67665278D01*
X172810712Y-67718252D01*
X172810712Y-67778248D01*
X172782545Y-67831222D01*
X172764706Y-67851033D01*
X172670060Y-68014965D01*
X172611566Y-68194992D01*
X172591780Y-68383250D01*
X172611566Y-68571507D01*
X172670060Y-68751534D01*
X172764706Y-68915466D01*
X172782545Y-68935278D01*
X172810712Y-68988252D01*
X172810712Y-69048248D01*
X172782545Y-69101222D01*
X172764706Y-69121033D01*
X172670060Y-69284965D01*
X172611566Y-69464992D01*
X172591780Y-69653249D01*
X172611566Y-69841507D01*
X172670060Y-70021534D01*
X172764706Y-70185466D01*
X172782545Y-70205278D01*
X172810712Y-70258252D01*
X172810712Y-70318248D01*
X172782545Y-70371222D01*
X172764706Y-70391033D01*
X172670060Y-70554965D01*
X172611566Y-70734992D01*
X172591780Y-70923250D01*
X171227700Y-70923250D01*
X171207914Y-70734994D01*
X171149419Y-70554966D01*
X171149419Y-70554965D01*
X171054775Y-70391037D01*
X171054774Y-70391036D01*
X171054773Y-70391034D01*
X171036933Y-70371221D01*
X171008767Y-70318249D01*
X171008767Y-70258251D01*
X171036933Y-70205278D01*
X171054773Y-70185466D01*
X171149419Y-70021534D01*
X171207914Y-69841506D01*
X171227700Y-69653250D01*
X171207914Y-69464994D01*
X171149419Y-69284966D01*
X171149419Y-69284965D01*
X171054775Y-69121037D01*
X171054774Y-69121036D01*
X171054773Y-69121034D01*
X171036933Y-69101221D01*
X171008767Y-69048249D01*
X171008767Y-68988251D01*
X171036933Y-68935278D01*
X171054773Y-68915466D01*
X171149419Y-68751534D01*
X171207914Y-68571506D01*
X171227700Y-68383250D01*
X171207914Y-68194994D01*
X171149419Y-68014966D01*
X171149419Y-68014965D01*
X171054775Y-67851037D01*
X171054774Y-67851036D01*
X171054773Y-67851034D01*
X171036933Y-67831221D01*
X171008767Y-67778249D01*
X171008767Y-67718251D01*
X171036933Y-67665278D01*
X171054773Y-67645466D01*
X171149419Y-67481534D01*
X171207914Y-67301506D01*
X171227700Y-67113250D01*
X171207914Y-66924994D01*
X171149419Y-66744966D01*
X171149419Y-66744965D01*
X171054775Y-66581037D01*
X171054774Y-66581036D01*
X171054773Y-66581034D01*
X171036933Y-66561221D01*
X171008767Y-66508249D01*
X171008767Y-66448251D01*
X171036933Y-66395278D01*
X171054773Y-66375466D01*
X171149419Y-66211534D01*
X171207914Y-66031506D01*
X171227700Y-65843250D01*
X171207914Y-65654994D01*
X171149419Y-65474966D01*
X171149419Y-65474965D01*
X171054773Y-65311033D01*
X171036934Y-65291221D01*
X171008767Y-65238247D01*
X171008768Y-65178250D01*
X171036934Y-65125277D01*
X171054773Y-65105466D01*
X171149419Y-64941534D01*
X171207914Y-64761506D01*
X171227700Y-64573250D01*
X171207914Y-64384994D01*
X171149419Y-64204966D01*
X171149419Y-64204965D01*
X171054773Y-64041033D01*
X170928110Y-63900360D01*
X170774970Y-63789098D01*
X170602042Y-63712105D01*
X170416888Y-63672750D01*
X170416886Y-63672750D01*
X170227594Y-63672750D01*
X170227592Y-63672750D01*
X170042437Y-63712105D01*
X169869509Y-63789098D01*
X169716369Y-63900360D01*
X169589706Y-64041033D01*
X169495060Y-64204965D01*
X169436566Y-64384992D01*
X169416780Y-64573249D01*
X169436566Y-64761507D01*
X169495060Y-64941534D01*
X169589706Y-65105465D01*
X169607544Y-65125276D01*
X169635711Y-65178249D01*
X169635712Y-65238245D01*
X169607547Y-65291219D01*
X169589706Y-65311033D01*
X169495060Y-65474965D01*
X169436566Y-65654992D01*
X169416780Y-65843249D01*
X169436566Y-66031507D01*
X169495060Y-66211534D01*
X169589706Y-66375466D01*
X169607545Y-66395278D01*
X169635712Y-66448252D01*
X169635712Y-66508248D01*
X169607545Y-66561222D01*
X169589706Y-66581033D01*
X169495060Y-66744965D01*
X169436566Y-66924992D01*
X169416780Y-67113250D01*
X169436566Y-67301507D01*
X169495060Y-67481534D01*
X169589706Y-67645466D01*
X169607545Y-67665278D01*
X169635712Y-67718252D01*
X169635712Y-67778248D01*
X169607545Y-67831222D01*
X169589706Y-67851033D01*
X169495060Y-68014965D01*
X169436566Y-68194992D01*
X169416780Y-68383250D01*
X169436566Y-68571507D01*
X169495060Y-68751534D01*
X169589706Y-68915466D01*
X169607545Y-68935278D01*
X169635712Y-68988252D01*
X169635712Y-69048248D01*
X169607545Y-69101222D01*
X169589706Y-69121033D01*
X169495060Y-69284965D01*
X169436566Y-69464992D01*
X169416780Y-69653249D01*
X169436566Y-69841507D01*
X169495060Y-70021534D01*
X169589706Y-70185466D01*
X169607545Y-70205278D01*
X169635712Y-70258252D01*
X169635712Y-70318248D01*
X169607545Y-70371222D01*
X169589706Y-70391033D01*
X169495060Y-70554965D01*
X169436566Y-70734992D01*
X169416780Y-70923250D01*
X169436566Y-71111507D01*
X169495060Y-71291534D01*
X169589706Y-71455466D01*
X169607545Y-71475278D01*
X169635712Y-71528252D01*
X169635712Y-71588248D01*
X169607545Y-71641222D01*
X169589706Y-71661033D01*
X169495060Y-71824965D01*
X169436566Y-72004992D01*
X169416780Y-72193250D01*
X164516527Y-72193250D01*
X164516527Y-72163251D01*
X164544693Y-72110278D01*
X164562533Y-72090466D01*
X164657179Y-71926534D01*
X164715674Y-71746506D01*
X164735460Y-71558250D01*
X164715674Y-71369994D01*
X164676884Y-71250610D01*
X164657179Y-71189965D01*
X164562533Y-71026033D01*
X164435870Y-70885360D01*
X164282730Y-70774098D01*
X164109802Y-70697105D01*
X163924648Y-70657750D01*
X163924646Y-70657750D01*
X163735354Y-70657750D01*
X163735353Y-70657750D01*
X163723791Y-70660207D01*
X163659693Y-70656844D01*
X163605863Y-70621884D01*
X163576725Y-70564692D01*
X163580085Y-70500598D01*
X163587914Y-70476506D01*
X163607700Y-70288250D01*
X163587914Y-70099994D01*
X163529419Y-69919966D01*
X163529419Y-69919965D01*
X163434775Y-69756037D01*
X163434774Y-69756036D01*
X163434773Y-69756034D01*
X163416933Y-69736221D01*
X163388767Y-69683249D01*
X163388767Y-69623251D01*
X163416933Y-69570278D01*
X163434773Y-69550466D01*
X163529419Y-69386534D01*
X163587914Y-69206506D01*
X163607700Y-69018250D01*
X163587914Y-68829994D01*
X163550870Y-68715985D01*
X163529419Y-68649965D01*
X163434773Y-68486033D01*
X163416934Y-68466221D01*
X163388767Y-68413247D01*
X163388768Y-68353250D01*
X163416934Y-68300277D01*
X163434773Y-68280466D01*
X163529419Y-68116534D01*
X163587914Y-67936506D01*
X163607700Y-67748250D01*
X163587914Y-67559994D01*
X163529419Y-67379966D01*
X163529419Y-67379965D01*
X163434773Y-67216033D01*
X163416934Y-67196221D01*
X163388767Y-67143246D01*
X163388768Y-67083248D01*
X163416936Y-67030275D01*
X163434773Y-67010466D01*
X163529419Y-66846534D01*
X163587914Y-66666506D01*
X163607700Y-66478250D01*
X163587914Y-66289994D01*
X163529419Y-66109966D01*
X163529419Y-66109965D01*
X163434773Y-65946033D01*
X163416934Y-65926221D01*
X163388767Y-65873247D01*
X163388768Y-65813250D01*
X163416934Y-65760277D01*
X163434773Y-65740466D01*
X163529419Y-65576534D01*
X163587914Y-65396506D01*
X163607700Y-65208250D01*
X163587914Y-65019994D01*
X163529419Y-64839966D01*
X163529419Y-64839965D01*
X163434775Y-64676037D01*
X163434774Y-64676036D01*
X163434773Y-64676034D01*
X163416933Y-64656221D01*
X163388767Y-64603249D01*
X163388767Y-64543251D01*
X163416933Y-64490278D01*
X163434773Y-64470466D01*
X163529419Y-64306534D01*
X163587914Y-64126506D01*
X163607700Y-63938250D01*
X163587914Y-63749994D01*
X163548706Y-63629325D01*
X163529419Y-63569965D01*
X163434773Y-63406033D01*
X163308110Y-63265360D01*
X163154970Y-63154098D01*
X162982042Y-63077105D01*
X162796888Y-63037750D01*
X162796886Y-63037750D01*
X162607594Y-63037750D01*
X162607591Y-63037750D01*
X162443244Y-63072682D01*
X162379145Y-63069323D01*
X162325313Y-63034364D01*
X162296174Y-62977172D01*
X162299532Y-62913077D01*
X162317914Y-62856506D01*
X162337700Y-62668250D01*
X162317914Y-62479994D01*
X162287572Y-62386613D01*
X162259419Y-62299965D01*
X162164773Y-62136033D01*
X162038110Y-61995360D01*
X161884970Y-61884098D01*
X161712042Y-61807105D01*
X161526888Y-61767750D01*
X161526886Y-61767750D01*
X161337594Y-61767750D01*
X161337592Y-61767750D01*
X161152437Y-61807105D01*
X160979509Y-61884098D01*
X160870125Y-61963571D01*
X160823021Y-61984543D01*
X160771459Y-61984543D01*
X160724355Y-61963571D01*
X160614970Y-61884098D01*
X160442042Y-61807105D01*
X160256888Y-61767750D01*
X160256886Y-61767750D01*
X160067594Y-61767750D01*
X160067592Y-61767750D01*
X159882437Y-61807105D01*
X159709509Y-61884098D01*
X159600125Y-61963571D01*
X159553021Y-61984543D01*
X159501459Y-61984543D01*
X159454355Y-61963571D01*
X159344970Y-61884098D01*
X159172042Y-61807105D01*
X158986888Y-61767750D01*
X158986886Y-61767750D01*
X158797594Y-61767750D01*
X158797592Y-61767750D01*
X158612437Y-61807105D01*
X158439509Y-61884098D01*
X158330125Y-61963571D01*
X158283021Y-61984543D01*
X158231459Y-61984543D01*
X158184355Y-61963571D01*
X158074970Y-61884098D01*
X157902042Y-61807105D01*
X157716888Y-61767750D01*
X157716886Y-61767750D01*
X157527594Y-61767750D01*
X157527592Y-61767750D01*
X157342437Y-61807105D01*
X157169509Y-61884098D01*
X157060125Y-61963571D01*
X157013021Y-61984543D01*
X156961459Y-61984543D01*
X156914355Y-61963571D01*
X156804970Y-61884098D01*
X156632042Y-61807105D01*
X156446888Y-61767750D01*
X156446886Y-61767750D01*
X156257594Y-61767750D01*
X156257592Y-61767750D01*
X156072437Y-61807105D01*
X155899509Y-61884098D01*
X155790125Y-61963571D01*
X155743021Y-61984543D01*
X155691459Y-61984543D01*
X155644355Y-61963571D01*
X155534970Y-61884098D01*
X155362042Y-61807105D01*
X155176888Y-61767750D01*
X155176886Y-61767750D01*
X154987594Y-61767750D01*
X154987592Y-61767750D01*
X154802437Y-61807105D01*
X154629509Y-61884098D01*
X154520125Y-61963571D01*
X154473021Y-61984543D01*
X154421459Y-61984543D01*
X154374355Y-61963571D01*
X154264970Y-61884098D01*
X154092042Y-61807105D01*
X153906888Y-61767750D01*
X153906886Y-61767750D01*
X153717594Y-61767750D01*
X153717592Y-61767750D01*
X153532437Y-61807105D01*
X153359509Y-61884098D01*
X153206367Y-61995362D01*
X153205887Y-61995896D01*
X153204072Y-61997029D01*
X153195825Y-62003022D01*
X153195405Y-62002445D01*
X153147918Y-62032118D01*
X153079562Y-62032118D01*
X153032074Y-62002445D01*
X153031655Y-62003022D01*
X153023407Y-61997029D01*
X153021593Y-61995896D01*
X153021112Y-61995362D01*
X152867970Y-61884098D01*
X152695042Y-61807105D01*
X152509888Y-61767750D01*
X152509886Y-61767750D01*
X152320594Y-61767750D01*
X152320592Y-61767750D01*
X152135437Y-61807105D01*
X151962512Y-61884096D01*
X151823744Y-61984917D01*
X151766399Y-62007620D01*
X151705211Y-61999890D01*
X151655315Y-61963638D01*
X151629055Y-61907832D01*
X151632927Y-61846284D01*
X151649914Y-61794006D01*
X151669700Y-61605750D01*
X151649914Y-61417494D01*
X151595199Y-61249099D01*
X151591419Y-61237465D01*
X151496775Y-61073536D01*
X151479969Y-61054871D01*
X151370111Y-60932862D01*
X151370107Y-60932859D01*
X151364582Y-60926723D01*
X151336415Y-60873749D01*
X151336415Y-60813751D01*
X151364582Y-60760777D01*
X151370107Y-60754640D01*
X151370111Y-60754638D01*
X151496773Y-60613966D01*
X151591419Y-60450034D01*
X151649914Y-60270006D01*
X151669700Y-60081750D01*
X151649914Y-59893494D01*
X151591419Y-59713466D01*
X151591419Y-59713465D01*
X151496773Y-59549533D01*
X151370110Y-59408860D01*
X151216970Y-59297598D01*
X151044042Y-59220605D01*
X150858888Y-59181250D01*
X150858886Y-59181250D01*
X150669594Y-59181250D01*
X150669592Y-59181250D01*
X150484441Y-59220604D01*
X150306676Y-59299751D01*
X150256240Y-59310471D01*
X150205804Y-59299751D01*
X150110445Y-59257294D01*
X150028043Y-59220606D01*
X150028042Y-59220605D01*
X150028038Y-59220604D01*
X149842888Y-59181250D01*
X149842886Y-59181250D01*
X149653594Y-59181250D01*
X149653592Y-59181250D01*
X149468441Y-59220604D01*
X149290676Y-59299751D01*
X149240240Y-59310471D01*
X149189804Y-59299751D01*
X149094445Y-59257294D01*
X149012043Y-59220606D01*
X149012042Y-59220605D01*
X149012038Y-59220604D01*
X148826888Y-59181250D01*
X148826886Y-59181250D01*
X148637594Y-59181250D01*
X148637592Y-59181250D01*
X148452437Y-59220605D01*
X148279509Y-59297598D01*
X148126369Y-59408860D01*
X147999706Y-59549533D01*
X147905060Y-59713465D01*
X147846566Y-59893492D01*
X147826780Y-60081750D01*
X131350634Y-60081750D01*
X131436661Y-59886917D01*
X131571845Y-59483581D01*
X131669238Y-59069493D01*
X131728008Y-58648184D01*
X131747654Y-58223250D01*
X166986826Y-58223250D01*
X167006472Y-58648187D01*
X167065242Y-59069496D01*
X167162633Y-59483577D01*
X167297817Y-59886913D01*
X167469644Y-60276065D01*
X167566545Y-60450034D01*
X167676638Y-60647688D01*
X167749901Y-60754639D01*
X167917043Y-60998637D01*
X168188797Y-61325897D01*
X168489592Y-61626692D01*
X168816852Y-61898446D01*
X168816858Y-61898450D01*
X169167802Y-62138852D01*
X169167806Y-62138854D01*
X169539424Y-62345845D01*
X169539426Y-62345846D01*
X169539430Y-62345848D01*
X169928573Y-62517671D01*
X169928576Y-62517672D01*
X170331912Y-62652856D01*
X170604453Y-62716957D01*
X170745997Y-62750248D01*
X171167306Y-62809018D01*
X171592240Y-62828664D01*
X172017174Y-62809018D01*
X172438483Y-62750248D01*
X172852571Y-62652855D01*
X173255907Y-62517671D01*
X173645050Y-62345848D01*
X174016678Y-62138852D01*
X174367622Y-61898450D01*
X174384906Y-61884098D01*
X174694887Y-61626692D01*
X174995682Y-61325897D01*
X175267436Y-60998637D01*
X175267436Y-60998635D01*
X175267440Y-60998632D01*
X175507842Y-60647688D01*
X175714838Y-60276060D01*
X175886661Y-59886917D01*
X176021845Y-59483581D01*
X176119238Y-59069493D01*
X176178008Y-58648184D01*
X176197654Y-58223250D01*
X176178008Y-57798316D01*
X176119238Y-57377007D01*
X176021845Y-56962919D01*
X175886661Y-56559583D01*
X175714838Y-56170440D01*
X175507842Y-55798812D01*
X175267440Y-55447868D01*
X175267436Y-55447862D01*
X174995682Y-55120602D01*
X174694887Y-54819807D01*
X174367627Y-54548053D01*
X174192150Y-54427849D01*
X174016678Y-54307648D01*
X173938493Y-54264099D01*
X173645055Y-54100654D01*
X173255903Y-53928827D01*
X172852567Y-53793643D01*
X172438486Y-53696252D01*
X172017177Y-53637482D01*
X171592240Y-53617836D01*
X171167302Y-53637482D01*
X170745993Y-53696252D01*
X170331912Y-53793643D01*
X169928576Y-53928827D01*
X169539424Y-54100654D01*
X169167806Y-54307645D01*
X168816852Y-54548053D01*
X168489592Y-54819807D01*
X168188797Y-55120602D01*
X167917043Y-55447862D01*
X167676635Y-55798816D01*
X167469644Y-56170434D01*
X167297817Y-56559586D01*
X167162633Y-56962922D01*
X167065242Y-57377003D01*
X167006472Y-57798312D01*
X166986826Y-58223250D01*
X131747654Y-58223250D01*
X131728008Y-57798316D01*
X131669238Y-57377007D01*
X131648245Y-57287749D01*
X147064780Y-57287749D01*
X147084566Y-57476007D01*
X147143060Y-57656034D01*
X147237706Y-57819966D01*
X147364369Y-57960639D01*
X147517509Y-58071901D01*
X147690437Y-58148894D01*
X147875592Y-58188250D01*
X147875594Y-58188250D01*
X148064886Y-58188250D01*
X148064888Y-58188250D01*
X148188323Y-58162012D01*
X148250043Y-58148894D01*
X148422970Y-58071901D01*
X148576111Y-57960638D01*
X148702773Y-57819966D01*
X148797419Y-57656034D01*
X148855914Y-57476006D01*
X148875700Y-57287750D01*
X148855914Y-57099494D01*
X148797419Y-56919466D01*
X148797419Y-56919465D01*
X148702773Y-56755533D01*
X148576110Y-56614860D01*
X148422970Y-56503598D01*
X148250042Y-56426605D01*
X148064888Y-56387250D01*
X148064886Y-56387250D01*
X147875594Y-56387250D01*
X147875592Y-56387250D01*
X147690437Y-56426605D01*
X147517509Y-56503598D01*
X147364369Y-56614860D01*
X147237706Y-56755533D01*
X147143060Y-56919465D01*
X147084566Y-57099492D01*
X147064780Y-57287749D01*
X131648245Y-57287749D01*
X131571845Y-56962919D01*
X131436661Y-56559583D01*
X131264838Y-56170440D01*
X131057842Y-55798812D01*
X130817440Y-55447868D01*
X130817436Y-55447862D01*
X130545682Y-55120602D01*
X130473329Y-55048249D01*
X136396780Y-55048249D01*
X136416566Y-55236507D01*
X136475060Y-55416534D01*
X136569706Y-55580466D01*
X136696369Y-55721139D01*
X136849509Y-55832401D01*
X137022437Y-55909394D01*
X137207592Y-55948750D01*
X137207594Y-55948750D01*
X137396886Y-55948750D01*
X137396888Y-55948750D01*
X137520324Y-55922512D01*
X137582043Y-55909394D01*
X137754970Y-55832401D01*
X137801196Y-55798816D01*
X137864355Y-55752929D01*
X137911459Y-55731957D01*
X137963021Y-55731957D01*
X138010125Y-55752929D01*
X138119509Y-55832401D01*
X138292437Y-55909394D01*
X138477592Y-55948750D01*
X138477594Y-55948750D01*
X138666886Y-55948750D01*
X138666888Y-55948750D01*
X138790324Y-55922512D01*
X138852043Y-55909394D01*
X139024970Y-55832401D01*
X139071196Y-55798816D01*
X139134355Y-55752929D01*
X139181459Y-55731957D01*
X139233021Y-55731957D01*
X139280125Y-55752929D01*
X139389509Y-55832401D01*
X139562437Y-55909394D01*
X139747592Y-55948750D01*
X139747594Y-55948750D01*
X139936886Y-55948750D01*
X139936888Y-55948750D01*
X140060324Y-55922512D01*
X140122043Y-55909394D01*
X140294970Y-55832401D01*
X140341196Y-55798816D01*
X140404355Y-55752929D01*
X140451459Y-55731957D01*
X140503021Y-55731957D01*
X140550125Y-55752929D01*
X140659509Y-55832401D01*
X140832437Y-55909394D01*
X141017592Y-55948750D01*
X141017594Y-55948750D01*
X141206886Y-55948750D01*
X141206888Y-55948750D01*
X141330324Y-55922512D01*
X141392043Y-55909394D01*
X141564970Y-55832401D01*
X141611196Y-55798816D01*
X141674355Y-55752929D01*
X141721459Y-55731957D01*
X141773021Y-55731957D01*
X141820125Y-55752929D01*
X141929509Y-55832401D01*
X142102437Y-55909394D01*
X142287592Y-55948750D01*
X142287594Y-55948750D01*
X142476886Y-55948750D01*
X142476888Y-55948750D01*
X142600324Y-55922512D01*
X142662043Y-55909394D01*
X142834970Y-55832401D01*
X142881196Y-55798816D01*
X142944355Y-55752929D01*
X142991459Y-55731957D01*
X143043021Y-55731957D01*
X143090125Y-55752929D01*
X143199509Y-55832401D01*
X143372437Y-55909394D01*
X143557592Y-55948750D01*
X143557594Y-55948750D01*
X143746886Y-55948750D01*
X143746888Y-55948750D01*
X143870324Y-55922512D01*
X143932043Y-55909394D01*
X144104970Y-55832401D01*
X144151196Y-55798816D01*
X144214355Y-55752929D01*
X144261459Y-55731957D01*
X144313021Y-55731957D01*
X144360125Y-55752929D01*
X144469509Y-55832401D01*
X144642437Y-55909394D01*
X144827592Y-55948750D01*
X144827594Y-55948750D01*
X145016886Y-55948750D01*
X145016888Y-55948750D01*
X145140324Y-55922512D01*
X145202043Y-55909394D01*
X145374970Y-55832401D01*
X145421196Y-55798816D01*
X145528110Y-55721139D01*
X145654773Y-55580466D01*
X145749419Y-55416534D01*
X145749419Y-55416533D01*
X145807914Y-55236506D01*
X145827700Y-55048250D01*
X145807914Y-54859994D01*
X145749419Y-54679966D01*
X145749419Y-54679965D01*
X145654773Y-54516033D01*
X145528110Y-54375360D01*
X145374970Y-54264098D01*
X145202042Y-54187105D01*
X145016888Y-54147750D01*
X145016886Y-54147750D01*
X144827594Y-54147750D01*
X144827592Y-54147750D01*
X144642437Y-54187105D01*
X144469509Y-54264098D01*
X144360125Y-54343571D01*
X144313021Y-54364543D01*
X144261459Y-54364543D01*
X144214355Y-54343571D01*
X144104970Y-54264098D01*
X143932042Y-54187105D01*
X143746888Y-54147750D01*
X143746886Y-54147750D01*
X143557594Y-54147750D01*
X143557592Y-54147750D01*
X143372437Y-54187105D01*
X143199509Y-54264098D01*
X143090125Y-54343571D01*
X143043021Y-54364543D01*
X142991459Y-54364543D01*
X142944355Y-54343571D01*
X142834970Y-54264098D01*
X142662042Y-54187105D01*
X142476888Y-54147750D01*
X142476886Y-54147750D01*
X142287594Y-54147750D01*
X142287592Y-54147750D01*
X142102437Y-54187105D01*
X141929509Y-54264098D01*
X141820125Y-54343571D01*
X141773021Y-54364543D01*
X141721459Y-54364543D01*
X141674355Y-54343571D01*
X141564970Y-54264098D01*
X141392042Y-54187105D01*
X141206888Y-54147750D01*
X141206886Y-54147750D01*
X141017594Y-54147750D01*
X141017592Y-54147750D01*
X140832437Y-54187105D01*
X140659509Y-54264098D01*
X140550125Y-54343571D01*
X140503021Y-54364543D01*
X140451459Y-54364543D01*
X140404355Y-54343571D01*
X140294970Y-54264098D01*
X140122042Y-54187105D01*
X139936888Y-54147750D01*
X139936886Y-54147750D01*
X139747594Y-54147750D01*
X139747592Y-54147750D01*
X139562437Y-54187105D01*
X139389509Y-54264098D01*
X139280125Y-54343571D01*
X139233021Y-54364543D01*
X139181459Y-54364543D01*
X139134355Y-54343571D01*
X139024970Y-54264098D01*
X138852042Y-54187105D01*
X138666888Y-54147750D01*
X138666886Y-54147750D01*
X138477594Y-54147750D01*
X138477592Y-54147750D01*
X138292437Y-54187105D01*
X138119509Y-54264098D01*
X138010125Y-54343571D01*
X137963021Y-54364543D01*
X137911459Y-54364543D01*
X137864355Y-54343571D01*
X137754970Y-54264098D01*
X137582042Y-54187105D01*
X137396888Y-54147750D01*
X137396886Y-54147750D01*
X137207594Y-54147750D01*
X137207592Y-54147750D01*
X137022437Y-54187105D01*
X136849509Y-54264098D01*
X136696369Y-54375360D01*
X136569706Y-54516033D01*
X136475060Y-54679965D01*
X136416566Y-54859992D01*
X136396780Y-55048249D01*
X130473329Y-55048249D01*
X130244887Y-54819807D01*
X129917627Y-54548053D01*
X129742150Y-54427849D01*
X129566678Y-54307648D01*
X129488493Y-54264099D01*
X129195055Y-54100654D01*
X128805903Y-53928827D01*
X128402567Y-53793643D01*
X127988486Y-53696252D01*
X127567177Y-53637482D01*
X127142240Y-53617836D01*
X126717302Y-53637482D01*
X126295993Y-53696252D01*
X125881912Y-53793643D01*
X125478576Y-53928827D01*
X125089424Y-54100654D01*
X124717806Y-54307645D01*
X124366852Y-54548053D01*
X124039592Y-54819807D01*
X123738797Y-55120602D01*
X123467043Y-55447862D01*
X123226635Y-55798816D01*
X123019644Y-56170434D01*
X122847817Y-56559586D01*
X122712633Y-56962922D01*
X122615242Y-57377003D01*
X122556472Y-57798312D01*
X122536826Y-58223249D01*
X121240782Y-58223249D01*
X121251500Y-58198625D01*
X121253298Y-58194686D01*
X121729022Y-57200357D01*
X121730973Y-57196459D01*
X122241885Y-56219740D01*
X122243981Y-56215904D01*
X122789427Y-55258047D01*
X122791625Y-55254343D01*
X123370915Y-54316559D01*
X123373269Y-54312895D01*
X123985655Y-53396395D01*
X123988133Y-53392826D01*
X124632858Y-52498743D01*
X124635471Y-52495253D01*
X125118658Y-51873250D01*
X137666780Y-51873250D01*
X137686566Y-52061507D01*
X137745060Y-52241534D01*
X137839706Y-52405466D01*
X137966369Y-52546139D01*
X138119509Y-52657401D01*
X138292437Y-52734394D01*
X138477592Y-52773750D01*
X138477594Y-52773750D01*
X138666886Y-52773750D01*
X138666888Y-52773750D01*
X138790324Y-52747512D01*
X138852043Y-52734394D01*
X139024970Y-52657401D01*
X139024970Y-52657400D01*
X139134355Y-52577929D01*
X139181459Y-52556957D01*
X139233021Y-52556957D01*
X139280125Y-52577929D01*
X139389509Y-52657401D01*
X139562437Y-52734394D01*
X139747592Y-52773750D01*
X139747594Y-52773750D01*
X139936886Y-52773750D01*
X139936888Y-52773750D01*
X140060324Y-52747512D01*
X140122043Y-52734394D01*
X140294970Y-52657401D01*
X140294970Y-52657400D01*
X140404355Y-52577929D01*
X140451459Y-52556957D01*
X140503021Y-52556957D01*
X140550125Y-52577929D01*
X140659509Y-52657401D01*
X140832437Y-52734394D01*
X141017592Y-52773750D01*
X141017594Y-52773750D01*
X141206886Y-52773750D01*
X141206888Y-52773750D01*
X141330324Y-52747512D01*
X141392043Y-52734394D01*
X141564970Y-52657401D01*
X141564970Y-52657400D01*
X141674355Y-52577929D01*
X141721459Y-52556957D01*
X141773021Y-52556957D01*
X141820125Y-52577929D01*
X141929509Y-52657401D01*
X142102437Y-52734394D01*
X142287592Y-52773750D01*
X142287594Y-52773750D01*
X142476886Y-52773750D01*
X142476888Y-52773750D01*
X142600324Y-52747512D01*
X142662043Y-52734394D01*
X142834970Y-52657401D01*
X142834970Y-52657400D01*
X142944355Y-52577929D01*
X142991459Y-52556957D01*
X143043021Y-52556957D01*
X143090125Y-52577929D01*
X143199509Y-52657401D01*
X143372437Y-52734394D01*
X143557592Y-52773750D01*
X143557594Y-52773750D01*
X143746886Y-52773750D01*
X143746888Y-52773750D01*
X143870324Y-52747512D01*
X143932043Y-52734394D01*
X144104970Y-52657401D01*
X144104969Y-52657401D01*
X144258110Y-52546139D01*
X144303953Y-52495226D01*
X144384773Y-52405466D01*
X144479419Y-52241534D01*
X144537914Y-52061506D01*
X144557700Y-51873250D01*
X144537914Y-51684994D01*
X144479419Y-51504966D01*
X144479419Y-51504965D01*
X144384773Y-51341033D01*
X144258110Y-51200360D01*
X144104970Y-51089098D01*
X143932042Y-51012105D01*
X143746888Y-50972750D01*
X143746886Y-50972750D01*
X143557594Y-50972750D01*
X143557592Y-50972750D01*
X143372437Y-51012105D01*
X143199509Y-51089098D01*
X143090125Y-51168571D01*
X143043021Y-51189543D01*
X142991459Y-51189543D01*
X142944355Y-51168571D01*
X142834970Y-51089098D01*
X142662042Y-51012105D01*
X142476888Y-50972750D01*
X142476886Y-50972750D01*
X142287594Y-50972750D01*
X142287592Y-50972750D01*
X142102437Y-51012105D01*
X141929509Y-51089098D01*
X141820125Y-51168571D01*
X141773021Y-51189543D01*
X141721459Y-51189543D01*
X141674355Y-51168571D01*
X141564970Y-51089098D01*
X141392042Y-51012105D01*
X141206888Y-50972750D01*
X141206886Y-50972750D01*
X141017594Y-50972750D01*
X141017592Y-50972750D01*
X140832437Y-51012105D01*
X140659509Y-51089098D01*
X140550125Y-51168571D01*
X140503021Y-51189543D01*
X140451459Y-51189543D01*
X140404355Y-51168571D01*
X140294970Y-51089098D01*
X140122042Y-51012105D01*
X139936888Y-50972750D01*
X139936886Y-50972750D01*
X139747594Y-50972750D01*
X139747592Y-50972750D01*
X139562437Y-51012105D01*
X139389509Y-51089098D01*
X139280125Y-51168571D01*
X139233021Y-51189543D01*
X139181459Y-51189543D01*
X139134355Y-51168571D01*
X139024970Y-51089098D01*
X138852042Y-51012105D01*
X138666888Y-50972750D01*
X138666886Y-50972750D01*
X138477594Y-50972750D01*
X138477592Y-50972750D01*
X138292437Y-51012105D01*
X138119509Y-51089098D01*
X137966369Y-51200360D01*
X137839706Y-51341033D01*
X137745060Y-51504965D01*
X137686566Y-51684992D01*
X137666780Y-51873250D01*
X125118658Y-51873250D01*
X125311681Y-51624773D01*
X125314392Y-51621409D01*
X126021220Y-50775642D01*
X126024103Y-50772316D01*
X126760677Y-49952307D01*
X126763655Y-49949107D01*
X127529059Y-49155878D01*
X127532084Y-49152853D01*
X128003214Y-48698249D01*
X136396780Y-48698249D01*
X136416566Y-48886507D01*
X136475060Y-49066534D01*
X136569706Y-49230466D01*
X136696369Y-49371139D01*
X136849509Y-49482401D01*
X137022437Y-49559394D01*
X137207592Y-49598750D01*
X137207594Y-49598750D01*
X137396886Y-49598750D01*
X137396888Y-49598750D01*
X137520323Y-49572512D01*
X137582043Y-49559394D01*
X137754970Y-49482401D01*
X137824182Y-49432116D01*
X137864355Y-49402929D01*
X137911459Y-49381957D01*
X137963021Y-49381957D01*
X138010125Y-49402929D01*
X138119509Y-49482401D01*
X138292437Y-49559394D01*
X138477592Y-49598750D01*
X138477594Y-49598750D01*
X138666886Y-49598750D01*
X138666888Y-49598750D01*
X138790323Y-49572512D01*
X138852043Y-49559394D01*
X139024970Y-49482401D01*
X139094182Y-49432116D01*
X139134355Y-49402929D01*
X139181459Y-49381957D01*
X139233021Y-49381957D01*
X139280125Y-49402929D01*
X139389509Y-49482401D01*
X139562437Y-49559394D01*
X139747592Y-49598750D01*
X139747594Y-49598750D01*
X139936886Y-49598750D01*
X139936888Y-49598750D01*
X140060323Y-49572512D01*
X140122043Y-49559394D01*
X140294970Y-49482401D01*
X140364182Y-49432116D01*
X140404355Y-49402929D01*
X140451459Y-49381957D01*
X140503021Y-49381957D01*
X140550125Y-49402929D01*
X140659509Y-49482401D01*
X140832437Y-49559394D01*
X141017592Y-49598750D01*
X141017594Y-49598750D01*
X141206886Y-49598750D01*
X141206888Y-49598750D01*
X141330323Y-49572512D01*
X141392043Y-49559394D01*
X141564970Y-49482401D01*
X141634182Y-49432116D01*
X141674355Y-49402929D01*
X141721459Y-49381957D01*
X141773021Y-49381957D01*
X141820125Y-49402929D01*
X141929509Y-49482401D01*
X142102437Y-49559394D01*
X142287592Y-49598750D01*
X142287594Y-49598750D01*
X142476886Y-49598750D01*
X142476888Y-49598750D01*
X142600323Y-49572512D01*
X142662043Y-49559394D01*
X142834970Y-49482401D01*
X142904182Y-49432116D01*
X142944355Y-49402929D01*
X142991459Y-49381957D01*
X143043021Y-49381957D01*
X143090125Y-49402929D01*
X143199509Y-49482401D01*
X143372437Y-49559394D01*
X143557592Y-49598750D01*
X143557594Y-49598750D01*
X143746886Y-49598750D01*
X143746888Y-49598750D01*
X143870323Y-49572512D01*
X143932043Y-49559394D01*
X144104970Y-49482401D01*
X144174182Y-49432116D01*
X144214355Y-49402929D01*
X144261459Y-49381957D01*
X144313021Y-49381957D01*
X144360125Y-49402929D01*
X144469509Y-49482401D01*
X144642437Y-49559394D01*
X144827592Y-49598750D01*
X144827594Y-49598750D01*
X145016886Y-49598750D01*
X145016888Y-49598750D01*
X145140323Y-49572512D01*
X145202043Y-49559394D01*
X145374970Y-49482401D01*
X145444182Y-49432116D01*
X145528110Y-49371139D01*
X145654773Y-49230466D01*
X145749419Y-49066534D01*
X145749419Y-49066533D01*
X145807914Y-48886506D01*
X145827700Y-48698250D01*
X145807914Y-48509994D01*
X145749419Y-48329966D01*
X145749419Y-48329965D01*
X145654773Y-48166033D01*
X145528110Y-48025360D01*
X145374970Y-47914098D01*
X145202042Y-47837105D01*
X145016888Y-47797750D01*
X145016886Y-47797750D01*
X144827594Y-47797750D01*
X144827592Y-47797750D01*
X144642437Y-47837105D01*
X144469509Y-47914098D01*
X144360125Y-47993571D01*
X144313021Y-48014543D01*
X144261459Y-48014543D01*
X144214355Y-47993571D01*
X144104970Y-47914098D01*
X143932042Y-47837105D01*
X143746888Y-47797750D01*
X143746886Y-47797750D01*
X143557594Y-47797750D01*
X143557592Y-47797750D01*
X143372437Y-47837105D01*
X143199509Y-47914098D01*
X143090125Y-47993571D01*
X143043021Y-48014543D01*
X142991459Y-48014543D01*
X142944355Y-47993571D01*
X142834970Y-47914098D01*
X142662042Y-47837105D01*
X142476888Y-47797750D01*
X142476886Y-47797750D01*
X142287594Y-47797750D01*
X142287592Y-47797750D01*
X142102437Y-47837105D01*
X141929509Y-47914098D01*
X141820125Y-47993571D01*
X141773021Y-48014543D01*
X141721459Y-48014543D01*
X141674355Y-47993571D01*
X141564970Y-47914098D01*
X141392042Y-47837105D01*
X141206888Y-47797750D01*
X141206886Y-47797750D01*
X141017594Y-47797750D01*
X141017592Y-47797750D01*
X140832437Y-47837105D01*
X140659509Y-47914098D01*
X140550125Y-47993571D01*
X140503021Y-48014543D01*
X140451459Y-48014543D01*
X140404355Y-47993571D01*
X140294970Y-47914098D01*
X140122042Y-47837105D01*
X139936888Y-47797750D01*
X139936886Y-47797750D01*
X139747594Y-47797750D01*
X139747592Y-47797750D01*
X139562437Y-47837105D01*
X139389509Y-47914098D01*
X139280125Y-47993571D01*
X139233021Y-48014543D01*
X139181459Y-48014543D01*
X139134355Y-47993571D01*
X139024970Y-47914098D01*
X138852042Y-47837105D01*
X138666888Y-47797750D01*
X138666886Y-47797750D01*
X138477594Y-47797750D01*
X138477592Y-47797750D01*
X138292437Y-47837105D01*
X138119509Y-47914098D01*
X138010125Y-47993571D01*
X137963021Y-48014543D01*
X137911459Y-48014543D01*
X137864355Y-47993571D01*
X137754970Y-47914098D01*
X137582042Y-47837105D01*
X137396888Y-47797750D01*
X137396886Y-47797750D01*
X137240188Y-47797750D01*
X137189123Y-47784706D01*
X137187737Y-47786663D01*
X137133072Y-47813589D01*
X137022437Y-47837105D01*
X136849509Y-47914098D01*
X136696369Y-48025360D01*
X136569706Y-48166033D01*
X136475060Y-48329965D01*
X136416566Y-48509992D01*
X136396780Y-48698249D01*
X128003214Y-48698249D01*
X128325313Y-48387449D01*
X128328513Y-48384471D01*
X128389194Y-48329965D01*
X128937880Y-47837106D01*
X129148522Y-47647897D01*
X129151848Y-47645014D01*
X129997615Y-46938186D01*
X130000979Y-46935475D01*
X130871459Y-46259265D01*
X130874949Y-46256652D01*
X131769032Y-45611927D01*
X131772601Y-45609449D01*
X132453526Y-45154469D01*
X132516362Y-45133720D01*
X132580923Y-45148242D01*
X132628821Y-45193901D01*
X132830374Y-45530732D01*
X133085782Y-45878826D01*
X133372663Y-46201474D01*
X133688503Y-46495846D01*
X133938545Y-46688487D01*
X134030514Y-46759343D01*
X134395699Y-46989658D01*
X134780846Y-47184764D01*
X135182571Y-47342947D01*
X135597343Y-47462817D01*
X136021518Y-47543321D01*
X136351435Y-47574351D01*
X136451365Y-47583750D01*
X136451367Y-47583750D01*
X136775111Y-47583750D01*
X136775117Y-47583750D01*
X137098512Y-47568575D01*
X137098520Y-47568573D01*
X137101479Y-47568435D01*
X137161011Y-47580587D01*
X137166054Y-47574351D01*
X137222802Y-47550975D01*
X137276854Y-47543321D01*
X137525993Y-47508042D01*
X137945928Y-47407745D01*
X138354626Y-47268566D01*
X138748495Y-47091727D01*
X138928518Y-46989658D01*
X139124075Y-46878782D01*
X139350183Y-46720897D01*
X139478062Y-46631603D01*
X139807348Y-46352363D01*
X140109039Y-46043515D01*
X140380484Y-45707773D01*
X140619296Y-45348087D01*
X140823377Y-44967620D01*
X140990935Y-44569713D01*
X141120495Y-44157865D01*
X141210920Y-43735695D01*
X141261415Y-43306911D01*
X141271536Y-42875284D01*
X141256340Y-42659587D01*
X141241196Y-42444611D01*
X141205789Y-42230808D01*
X141170657Y-42018660D01*
X141060544Y-41601192D01*
X140985333Y-41396217D01*
X140980214Y-41328884D01*
X141011140Y-41268850D01*
X141068938Y-41233925D01*
X141782046Y-41038293D01*
X141786256Y-41037220D01*
X142858971Y-40783731D01*
X142863215Y-40782807D01*
X143944291Y-40567768D01*
X143948601Y-40566991D01*
X145036686Y-40390670D01*
X145040952Y-40390057D01*
X145881009Y-40284543D01*
X145941450Y-40292025D01*
X145991039Y-40327381D01*
X146017813Y-40382082D01*
X146015314Y-40442933D01*
X145984145Y-40495255D01*
X145963798Y-40515602D01*
X145692043Y-40842862D01*
X145451635Y-41193816D01*
X145244644Y-41565434D01*
X145072817Y-41954586D01*
X144937633Y-42357922D01*
X144840242Y-42772003D01*
X144781472Y-43193312D01*
X144761826Y-43618249D01*
X144781472Y-44043187D01*
X144840242Y-44464496D01*
X144937633Y-44878577D01*
X145072817Y-45281913D01*
X145244644Y-45671065D01*
X145451635Y-46042683D01*
X145692043Y-46393637D01*
X145963797Y-46720897D01*
X146264592Y-47021692D01*
X146591852Y-47293446D01*
X146591858Y-47293450D01*
X146942802Y-47533852D01*
X147021470Y-47577670D01*
X147314424Y-47740845D01*
X147314426Y-47740846D01*
X147314430Y-47740848D01*
X147703573Y-47912671D01*
X147703576Y-47912672D01*
X148106912Y-48047856D01*
X148451663Y-48128940D01*
X148520997Y-48145248D01*
X148942306Y-48204018D01*
X149367240Y-48223664D01*
X149792174Y-48204018D01*
X150213483Y-48145248D01*
X150627571Y-48047855D01*
X151030907Y-47912671D01*
X151420050Y-47740848D01*
X151791678Y-47533852D01*
X152142622Y-47293450D01*
X152469887Y-47021692D01*
X152770682Y-46720897D01*
X153042440Y-46393632D01*
X153282842Y-46042688D01*
X153489838Y-45671060D01*
X153661661Y-45281917D01*
X153796845Y-44878581D01*
X153894238Y-44464493D01*
X153953008Y-44043184D01*
X153972654Y-43618250D01*
X153953008Y-43193316D01*
X153894238Y-42772007D01*
X153817235Y-42444611D01*
X153796846Y-42357922D01*
X153661662Y-41954586D01*
X153657561Y-41945298D01*
X153489838Y-41565440D01*
X153282842Y-41193812D01*
X153042440Y-40842868D01*
X153042436Y-40842862D01*
X152770682Y-40515602D01*
X152726416Y-40471336D01*
X152695245Y-40419014D01*
X152692746Y-40358163D01*
X152719520Y-40303461D01*
X152769109Y-40268104D01*
X152829547Y-40260622D01*
X153860043Y-40390056D01*
G37*
%TD.AperFunction*%
%TD*%
%TA.AperFunction,Conductor*%
%TO.N,Shunt_1*%
G36*
X163013345Y-93162765D02*
G01*
X163057931Y-93202910D01*
X163078450Y-93259286D01*
X163086566Y-93336506D01*
X163086567Y-93336509D01*
X163111001Y-93411711D01*
X163115186Y-93471561D01*
X163090784Y-93526370D01*
X163043506Y-93563307D01*
X162884509Y-93634098D01*
X162731369Y-93745360D01*
X162604706Y-93886033D01*
X162510060Y-94049965D01*
X162451566Y-94229992D01*
X162431780Y-94418250D01*
X162451566Y-94606509D01*
X162476001Y-94681711D01*
X162480186Y-94741561D01*
X162455784Y-94796370D01*
X162408506Y-94833307D01*
X162249509Y-94904098D01*
X162096369Y-95015360D01*
X161969706Y-95156033D01*
X161875060Y-95319965D01*
X161816566Y-95499992D01*
X161796780Y-95688249D01*
X161816566Y-95876507D01*
X161875060Y-96056534D01*
X161969706Y-96220466D01*
X162096369Y-96361139D01*
X162249505Y-96472399D01*
X162303202Y-96496306D01*
X162408507Y-96543192D01*
X162455783Y-96580129D01*
X162480186Y-96634938D01*
X162476001Y-96694788D01*
X162451566Y-96769990D01*
X162431780Y-96958250D01*
X162451566Y-97146507D01*
X162510060Y-97326534D01*
X162604706Y-97490465D01*
X162622544Y-97510276D01*
X162650711Y-97563249D01*
X162650712Y-97623245D01*
X162622547Y-97676219D01*
X162604706Y-97696033D01*
X162510060Y-97859965D01*
X162451566Y-98039992D01*
X162431780Y-98228249D01*
X162451566Y-98416507D01*
X162510060Y-98596534D01*
X162604706Y-98760466D01*
X162731369Y-98901139D01*
X162884509Y-99012401D01*
X163057437Y-99089394D01*
X163242592Y-99128750D01*
X163242594Y-99128750D01*
X163431886Y-99128750D01*
X163431888Y-99128750D01*
X163555324Y-99102512D01*
X163617043Y-99089394D01*
X163686433Y-99058498D01*
X163789967Y-99012403D01*
X163789970Y-99012401D01*
X163899356Y-98932927D01*
X163946457Y-98911957D01*
X163998020Y-98911957D01*
X164045124Y-98932929D01*
X164154509Y-99012401D01*
X164327437Y-99089394D01*
X164512592Y-99128750D01*
X164512594Y-99128750D01*
X164701886Y-99128750D01*
X164701888Y-99128750D01*
X164825324Y-99102512D01*
X164887043Y-99089394D01*
X165059970Y-99012401D01*
X165069892Y-99005192D01*
X165213110Y-98901139D01*
X165339773Y-98760466D01*
X165434419Y-98596534D01*
X165459104Y-98520562D01*
X165492914Y-98416506D01*
X165512700Y-98228250D01*
X165492914Y-98039994D01*
X165434419Y-97859966D01*
X165434419Y-97859965D01*
X165339773Y-97696033D01*
X165321934Y-97676221D01*
X165293767Y-97623247D01*
X165293768Y-97563250D01*
X165321934Y-97510277D01*
X165339773Y-97490466D01*
X165434419Y-97326534D01*
X165492914Y-97146506D01*
X165512700Y-96958250D01*
X165492914Y-96769994D01*
X165449222Y-96635524D01*
X165434419Y-96589965D01*
X165339773Y-96426033D01*
X165213110Y-96285360D01*
X165059970Y-96174098D01*
X164900973Y-96103307D01*
X164853695Y-96066370D01*
X164829293Y-96011560D01*
X164833477Y-95951712D01*
X164857914Y-95876506D01*
X164877700Y-95688250D01*
X164857914Y-95499994D01*
X164833477Y-95424787D01*
X164829293Y-95364939D01*
X164853696Y-95310129D01*
X164900972Y-95273192D01*
X165059970Y-95202401D01*
X165059970Y-95202400D01*
X165059972Y-95202400D01*
X165213110Y-95091139D01*
X165339773Y-94950466D01*
X165434419Y-94786534D01*
X165467709Y-94684078D01*
X165492914Y-94606506D01*
X165512700Y-94418250D01*
X165492914Y-94229994D01*
X165468477Y-94154787D01*
X165464293Y-94094939D01*
X165488696Y-94040129D01*
X165535972Y-94003192D01*
X165694970Y-93932401D01*
X165694970Y-93932400D01*
X165694972Y-93932400D01*
X165848110Y-93821139D01*
X165974773Y-93680466D01*
X166069419Y-93516534D01*
X166103478Y-93411711D01*
X166127914Y-93336506D01*
X166136029Y-93259286D01*
X166156549Y-93202910D01*
X166201135Y-93162765D01*
X166259350Y-93148250D01*
X170907114Y-93148250D01*
X170964037Y-93162087D01*
X171008255Y-93200511D01*
X171029901Y-93254946D01*
X171024142Y-93313243D01*
X170992265Y-93362390D01*
X170876697Y-93471561D01*
X170345986Y-93972891D01*
X170342813Y-93975785D01*
X169540755Y-94682523D01*
X169539130Y-94683930D01*
X169374012Y-94824415D01*
X169065198Y-95128175D01*
X168779089Y-95453403D01*
X168517175Y-95798403D01*
X168280818Y-96161374D01*
X168280811Y-96161385D01*
X168280812Y-96161385D01*
X168108859Y-96472401D01*
X168071227Y-96540466D01*
X167889513Y-96933674D01*
X167736624Y-97338936D01*
X167613343Y-97754185D01*
X167520315Y-98177245D01*
X167458028Y-98605898D01*
X167426805Y-99037921D01*
X167426813Y-99254502D01*
X167426813Y-108415611D01*
X167408094Y-108481124D01*
X167357589Y-108526855D01*
X167097401Y-108654965D01*
X166984122Y-108710740D01*
X166535065Y-108974902D01*
X166106852Y-109271623D01*
X165701804Y-109599289D01*
X165322179Y-109956078D01*
X165077557Y-110222812D01*
X165030972Y-110254623D01*
X164975115Y-110262506D01*
X164921546Y-110244829D01*
X164881351Y-110205250D01*
X164862850Y-110151964D01*
X164857914Y-110104994D01*
X164799419Y-109924966D01*
X164799419Y-109924965D01*
X164704773Y-109761033D01*
X164578110Y-109620360D01*
X164424970Y-109509098D01*
X164252042Y-109432105D01*
X164066888Y-109392750D01*
X164066886Y-109392750D01*
X163877594Y-109392750D01*
X163877592Y-109392750D01*
X163692437Y-109432105D01*
X163519509Y-109509098D01*
X163366369Y-109620360D01*
X163239706Y-109761033D01*
X163145060Y-109924965D01*
X163086566Y-110104992D01*
X163066780Y-110293250D01*
X163086566Y-110481507D01*
X163145060Y-110661534D01*
X163239706Y-110825466D01*
X163366369Y-110966139D01*
X163519509Y-111077401D01*
X163692437Y-111154394D01*
X163877592Y-111193750D01*
X163877594Y-111193750D01*
X164066885Y-111193750D01*
X164066886Y-111193750D01*
X164116562Y-111183191D01*
X164173079Y-111184351D01*
X164223211Y-111210481D01*
X164256534Y-111256149D01*
X164266121Y-111311863D01*
X164249980Y-111366043D01*
X164097231Y-111633119D01*
X163872831Y-112103280D01*
X163683904Y-112588807D01*
X163531500Y-113087001D01*
X163416458Y-113595114D01*
X163339410Y-114110374D01*
X163300779Y-114629925D01*
X163300779Y-115150896D01*
X163339411Y-115670461D01*
X163416456Y-116185693D01*
X163525538Y-116667484D01*
X163531501Y-116693822D01*
X163683904Y-117192014D01*
X163865567Y-117658871D01*
X163872832Y-117677540D01*
X164097231Y-118147701D01*
X164097234Y-118147707D01*
X164355886Y-118599948D01*
X164647358Y-119031764D01*
X164693823Y-119090659D01*
X164708645Y-119109446D01*
X164734568Y-119172850D01*
X164722873Y-119240344D01*
X164677129Y-119291330D01*
X164611294Y-119310250D01*
X158562124Y-119310250D01*
X158501889Y-119294637D01*
X158456823Y-119251730D01*
X158438273Y-119192334D01*
X158436307Y-119152320D01*
X158433278Y-119090659D01*
X158375604Y-118701850D01*
X158280097Y-118320566D01*
X158266802Y-118283410D01*
X158147681Y-117950486D01*
X158147680Y-117950484D01*
X158147678Y-117950478D01*
X157979621Y-117595153D01*
X157979620Y-117595151D01*
X157979618Y-117595147D01*
X157825639Y-117338249D01*
X159291596Y-117338249D01*
X159312131Y-117586066D01*
X159312131Y-117586069D01*
X159312132Y-117586071D01*
X159373177Y-117827131D01*
X159412458Y-117916683D01*
X159473065Y-118054854D01*
X159473067Y-118054857D01*
X159609076Y-118263035D01*
X159777496Y-118445988D01*
X159777499Y-118445990D01*
X159973725Y-118598720D01*
X159973727Y-118598721D01*
X159973731Y-118598724D01*
X160192430Y-118717078D01*
X160427626Y-118797821D01*
X160672905Y-118838750D01*
X160921575Y-118838750D01*
X161166854Y-118797821D01*
X161402050Y-118717078D01*
X161620749Y-118598724D01*
X161816984Y-118445988D01*
X161985404Y-118263035D01*
X162121413Y-118054857D01*
X162221303Y-117827131D01*
X162282348Y-117586071D01*
X162302883Y-117338250D01*
X162282348Y-117090429D01*
X162221303Y-116849369D01*
X162121413Y-116621643D01*
X161985404Y-116413465D01*
X161816984Y-116230512D01*
X161709507Y-116146859D01*
X161620754Y-116077779D01*
X161620750Y-116077776D01*
X161620749Y-116077776D01*
X161402050Y-115959422D01*
X161402046Y-115959420D01*
X161402045Y-115959420D01*
X161166855Y-115878679D01*
X160921575Y-115837750D01*
X160672905Y-115837750D01*
X160427624Y-115878679D01*
X160192434Y-115959420D01*
X159973725Y-116077779D01*
X159777499Y-116230509D01*
X159777496Y-116230511D01*
X159777496Y-116230512D01*
X159667804Y-116349669D01*
X159609077Y-116413464D01*
X159473065Y-116621645D01*
X159406105Y-116774300D01*
X159373177Y-116849369D01*
X159341239Y-116975488D01*
X159312131Y-117090433D01*
X159291596Y-117338249D01*
X157825639Y-117338249D01*
X157777549Y-117258015D01*
X157646683Y-117081563D01*
X157543398Y-116942299D01*
X157543396Y-116942297D01*
X157543394Y-116942294D01*
X157279432Y-116651057D01*
X156988195Y-116387095D01*
X156672474Y-116152940D01*
X156335342Y-115950871D01*
X156096168Y-115837750D01*
X155980012Y-115782812D01*
X155980009Y-115782811D01*
X155980003Y-115782808D01*
X155609929Y-115650394D01*
X155228641Y-115554886D01*
X154839833Y-115497212D01*
X154447240Y-115477924D01*
X154054646Y-115497212D01*
X153665838Y-115554886D01*
X153284550Y-115650394D01*
X152914476Y-115782808D01*
X152559137Y-115950871D01*
X152222005Y-116152940D01*
X151906284Y-116387095D01*
X151615047Y-116651057D01*
X151351085Y-116942294D01*
X151116930Y-117258015D01*
X150914861Y-117595147D01*
X150746798Y-117950486D01*
X150614384Y-118320560D01*
X150518876Y-118701848D01*
X150461202Y-119090657D01*
X150456207Y-119192334D01*
X150437657Y-119251730D01*
X150392591Y-119294637D01*
X150332356Y-119310250D01*
X134242624Y-119310250D01*
X134176514Y-119291157D01*
X134130763Y-119239757D01*
X134119459Y-119171880D01*
X134146085Y-119108428D01*
X134160409Y-119090659D01*
X134173645Y-119074240D01*
X134466989Y-118650105D01*
X134728446Y-118205603D01*
X134956610Y-117743128D01*
X135150251Y-117265170D01*
X135308329Y-116774300D01*
X135429992Y-116273161D01*
X135429991Y-116273161D01*
X135429994Y-116273153D01*
X135511531Y-115782812D01*
X135514584Y-115764452D01*
X135561652Y-115250909D01*
X135570941Y-114735297D01*
X135565100Y-114629925D01*
X135542401Y-114220395D01*
X135542401Y-114220392D01*
X135476187Y-113708966D01*
X135372653Y-113203770D01*
X135278141Y-112869465D01*
X135232361Y-112707531D01*
X135208872Y-112642964D01*
X135056058Y-112222902D01*
X134844701Y-111752509D01*
X134805911Y-111680769D01*
X134599429Y-111298888D01*
X134599428Y-111298886D01*
X134599424Y-111298879D01*
X134321547Y-110864452D01*
X134012568Y-110451568D01*
X133997593Y-110434350D01*
X133903520Y-110326183D01*
X133674148Y-110062449D01*
X133308110Y-109699190D01*
X133308103Y-109699183D01*
X132916423Y-109363744D01*
X132644492Y-109163462D01*
X132501196Y-109057921D01*
X132446071Y-109023250D01*
X138936780Y-109023250D01*
X138956566Y-109211507D01*
X139015060Y-109391534D01*
X139109706Y-109555466D01*
X139236369Y-109696139D01*
X139389509Y-109807401D01*
X139562437Y-109884394D01*
X139747592Y-109923750D01*
X139747594Y-109923750D01*
X139936886Y-109923750D01*
X139936888Y-109923750D01*
X140060323Y-109897512D01*
X140122043Y-109884394D01*
X140294970Y-109807401D01*
X140358790Y-109761033D01*
X140448110Y-109696139D01*
X140574773Y-109555466D01*
X140669419Y-109391534D01*
X140678448Y-109363745D01*
X140727914Y-109211506D01*
X140747700Y-109023250D01*
X142746780Y-109023250D01*
X142766566Y-109211507D01*
X142825060Y-109391534D01*
X142919706Y-109555466D01*
X143046369Y-109696139D01*
X143199509Y-109807401D01*
X143372437Y-109884394D01*
X143557592Y-109923750D01*
X143557594Y-109923750D01*
X143746886Y-109923750D01*
X143746888Y-109923750D01*
X143870323Y-109897512D01*
X143932043Y-109884394D01*
X144104970Y-109807401D01*
X144168790Y-109761033D01*
X144258110Y-109696139D01*
X144384773Y-109555466D01*
X144479419Y-109391534D01*
X144488448Y-109363745D01*
X144537914Y-109211506D01*
X144557700Y-109023250D01*
X144537914Y-108834994D01*
X144479419Y-108654966D01*
X144479419Y-108654965D01*
X144384773Y-108491033D01*
X144258110Y-108350360D01*
X144104970Y-108239098D01*
X143932042Y-108162105D01*
X143746888Y-108122750D01*
X143746886Y-108122750D01*
X143557594Y-108122750D01*
X143557592Y-108122750D01*
X143372437Y-108162105D01*
X143199509Y-108239098D01*
X143046369Y-108350360D01*
X142919706Y-108491033D01*
X142825060Y-108654965D01*
X142766566Y-108834992D01*
X142746780Y-109023250D01*
X140747700Y-109023250D01*
X140727914Y-108834994D01*
X140669419Y-108654966D01*
X140669419Y-108654965D01*
X140574773Y-108491033D01*
X140448110Y-108350360D01*
X140294970Y-108239098D01*
X140122042Y-108162105D01*
X139936888Y-108122750D01*
X139936886Y-108122750D01*
X139747594Y-108122750D01*
X139747592Y-108122750D01*
X139562437Y-108162105D01*
X139389509Y-108239098D01*
X139236369Y-108350360D01*
X139109706Y-108491033D01*
X139015060Y-108654965D01*
X138956566Y-108834992D01*
X138936780Y-109023250D01*
X132446071Y-109023250D01*
X132146752Y-108834992D01*
X132064664Y-108783362D01*
X131656215Y-108566522D01*
X131608091Y-108520898D01*
X131590359Y-108456999D01*
X131590359Y-99391054D01*
X131590370Y-99357736D01*
X131590421Y-99205750D01*
X138936780Y-99205750D01*
X138956566Y-99394007D01*
X139015060Y-99574034D01*
X139109706Y-99737966D01*
X139236369Y-99878639D01*
X139389509Y-99989901D01*
X139562437Y-100066894D01*
X139747592Y-100106250D01*
X139747594Y-100106250D01*
X139936886Y-100106250D01*
X139936888Y-100106250D01*
X140060323Y-100080012D01*
X140122043Y-100066894D01*
X140294970Y-99989901D01*
X140448111Y-99878638D01*
X140574773Y-99737966D01*
X140669419Y-99574034D01*
X140727914Y-99394006D01*
X140747700Y-99205750D01*
X140746407Y-99193450D01*
X142797580Y-99193450D01*
X142817366Y-99381707D01*
X142875860Y-99561734D01*
X142970506Y-99725666D01*
X143097169Y-99866339D01*
X143250309Y-99977601D01*
X143423237Y-100054594D01*
X143608392Y-100093950D01*
X143608394Y-100093950D01*
X143797686Y-100093950D01*
X143797688Y-100093950D01*
X143921124Y-100067712D01*
X143982843Y-100054594D01*
X144155770Y-99977601D01*
X144291980Y-99878639D01*
X144308910Y-99866339D01*
X144435573Y-99725666D01*
X144530219Y-99561734D01*
X144584717Y-99394006D01*
X144588714Y-99381706D01*
X144608500Y-99193450D01*
X144588714Y-99005194D01*
X144554904Y-98901138D01*
X144530219Y-98825165D01*
X144435573Y-98661233D01*
X144308910Y-98520560D01*
X144155770Y-98409298D01*
X143982842Y-98332305D01*
X143797688Y-98292950D01*
X143797686Y-98292950D01*
X143608394Y-98292950D01*
X143608392Y-98292950D01*
X143423237Y-98332305D01*
X143250309Y-98409298D01*
X143097169Y-98520560D01*
X142970506Y-98661233D01*
X142875860Y-98825165D01*
X142817366Y-99005192D01*
X142797580Y-99193450D01*
X140746407Y-99193450D01*
X140727914Y-99017494D01*
X140669419Y-98837466D01*
X140669419Y-98837465D01*
X140574773Y-98673533D01*
X140448110Y-98532860D01*
X140294970Y-98421598D01*
X140122042Y-98344605D01*
X139936888Y-98305250D01*
X139936886Y-98305250D01*
X139747594Y-98305250D01*
X139747592Y-98305250D01*
X139562437Y-98344605D01*
X139389509Y-98421598D01*
X139236369Y-98532860D01*
X139109706Y-98673533D01*
X139015060Y-98837465D01*
X138956566Y-99017492D01*
X138936780Y-99205750D01*
X131590421Y-99205750D01*
X131590443Y-99140074D01*
X131559126Y-98705877D01*
X131496458Y-98275087D01*
X131444647Y-98039994D01*
X131402767Y-97849961D01*
X131278547Y-97432746D01*
X131124444Y-97025601D01*
X131005887Y-96769994D01*
X130941275Y-96630690D01*
X130729995Y-96250074D01*
X130491716Y-95885752D01*
X130491715Y-95885751D01*
X130491712Y-95885746D01*
X130227688Y-95539637D01*
X129939293Y-95213541D01*
X129628052Y-94909184D01*
X129582243Y-94870452D01*
X129580308Y-94868607D01*
X129575692Y-94864712D01*
X129575690Y-94864710D01*
X129460780Y-94767754D01*
X129459292Y-94766476D01*
X128845441Y-94229992D01*
X128649522Y-94058766D01*
X128646323Y-94055871D01*
X127906801Y-93362722D01*
X127874700Y-93313608D01*
X127868773Y-93255233D01*
X127890347Y-93200669D01*
X127934591Y-93162132D01*
X127991600Y-93148250D01*
X162955130Y-93148250D01*
X163013345Y-93162765D01*
G37*
%TD.AperFunction*%
%TD*%
M02*
