%TF.GenerationSoftware,KiCad,Pcbnew,7.0.1*%
%TF.CreationDate,2024-07-26T16:33:55+03:00*%
%TF.ProjectId,_______ _____,21383b3e-3230-44f2-903f-3b3042302e6b,rev?*%
%TF.SameCoordinates,Original*%
%TF.FileFunction,Legend,Bot*%
%TF.FilePolarity,Positive*%
%FSLAX46Y46*%
G04 Gerber Fmt 4.6, Leading zero omitted, Abs format (unit mm)*
G04 Created by KiCad (PCBNEW 7.0.1) date 2024-07-26 16:33:55*
%MOMM*%
%LPD*%
G01*
G04 APERTURE LIST*
%ADD10C,0.150000*%
%ADD11C,0.120000*%
G04 APERTURE END LIST*
D10*
%TO.C,C6*%
X143946144Y-94792917D02*
X143984240Y-94754821D01*
X143984240Y-94754821D02*
X144022335Y-94640536D01*
X144022335Y-94640536D02*
X144022335Y-94564345D01*
X144022335Y-94564345D02*
X143984240Y-94450059D01*
X143984240Y-94450059D02*
X143908049Y-94373869D01*
X143908049Y-94373869D02*
X143831859Y-94335774D01*
X143831859Y-94335774D02*
X143679478Y-94297678D01*
X143679478Y-94297678D02*
X143565192Y-94297678D01*
X143565192Y-94297678D02*
X143412811Y-94335774D01*
X143412811Y-94335774D02*
X143336620Y-94373869D01*
X143336620Y-94373869D02*
X143260430Y-94450059D01*
X143260430Y-94450059D02*
X143222335Y-94564345D01*
X143222335Y-94564345D02*
X143222335Y-94640536D01*
X143222335Y-94640536D02*
X143260430Y-94754821D01*
X143260430Y-94754821D02*
X143298525Y-94792917D01*
X143222335Y-95478631D02*
X143222335Y-95326250D01*
X143222335Y-95326250D02*
X143260430Y-95250059D01*
X143260430Y-95250059D02*
X143298525Y-95211964D01*
X143298525Y-95211964D02*
X143412811Y-95135774D01*
X143412811Y-95135774D02*
X143565192Y-95097678D01*
X143565192Y-95097678D02*
X143869954Y-95097678D01*
X143869954Y-95097678D02*
X143946144Y-95135774D01*
X143946144Y-95135774D02*
X143984240Y-95173869D01*
X143984240Y-95173869D02*
X144022335Y-95250059D01*
X144022335Y-95250059D02*
X144022335Y-95402440D01*
X144022335Y-95402440D02*
X143984240Y-95478631D01*
X143984240Y-95478631D02*
X143946144Y-95516726D01*
X143946144Y-95516726D02*
X143869954Y-95554821D01*
X143869954Y-95554821D02*
X143679478Y-95554821D01*
X143679478Y-95554821D02*
X143603287Y-95516726D01*
X143603287Y-95516726D02*
X143565192Y-95478631D01*
X143565192Y-95478631D02*
X143527097Y-95402440D01*
X143527097Y-95402440D02*
X143527097Y-95250059D01*
X143527097Y-95250059D02*
X143565192Y-95173869D01*
X143565192Y-95173869D02*
X143603287Y-95135774D01*
X143603287Y-95135774D02*
X143679478Y-95097678D01*
%TO.C,C4*%
X151566144Y-100634917D02*
X151604240Y-100596821D01*
X151604240Y-100596821D02*
X151642335Y-100482536D01*
X151642335Y-100482536D02*
X151642335Y-100406345D01*
X151642335Y-100406345D02*
X151604240Y-100292059D01*
X151604240Y-100292059D02*
X151528049Y-100215869D01*
X151528049Y-100215869D02*
X151451859Y-100177774D01*
X151451859Y-100177774D02*
X151299478Y-100139678D01*
X151299478Y-100139678D02*
X151185192Y-100139678D01*
X151185192Y-100139678D02*
X151032811Y-100177774D01*
X151032811Y-100177774D02*
X150956620Y-100215869D01*
X150956620Y-100215869D02*
X150880430Y-100292059D01*
X150880430Y-100292059D02*
X150842335Y-100406345D01*
X150842335Y-100406345D02*
X150842335Y-100482536D01*
X150842335Y-100482536D02*
X150880430Y-100596821D01*
X150880430Y-100596821D02*
X150918525Y-100634917D01*
X151109001Y-101320631D02*
X151642335Y-101320631D01*
X150804240Y-101130155D02*
X151375668Y-100939678D01*
X151375668Y-100939678D02*
X151375668Y-101434917D01*
%TO.C,C39*%
X162996144Y-105841964D02*
X163034240Y-105803868D01*
X163034240Y-105803868D02*
X163072335Y-105689583D01*
X163072335Y-105689583D02*
X163072335Y-105613392D01*
X163072335Y-105613392D02*
X163034240Y-105499106D01*
X163034240Y-105499106D02*
X162958049Y-105422916D01*
X162958049Y-105422916D02*
X162881859Y-105384821D01*
X162881859Y-105384821D02*
X162729478Y-105346725D01*
X162729478Y-105346725D02*
X162615192Y-105346725D01*
X162615192Y-105346725D02*
X162462811Y-105384821D01*
X162462811Y-105384821D02*
X162386620Y-105422916D01*
X162386620Y-105422916D02*
X162310430Y-105499106D01*
X162310430Y-105499106D02*
X162272335Y-105613392D01*
X162272335Y-105613392D02*
X162272335Y-105689583D01*
X162272335Y-105689583D02*
X162310430Y-105803868D01*
X162310430Y-105803868D02*
X162348525Y-105841964D01*
X162272335Y-106108630D02*
X162272335Y-106603868D01*
X162272335Y-106603868D02*
X162577097Y-106337202D01*
X162577097Y-106337202D02*
X162577097Y-106451487D01*
X162577097Y-106451487D02*
X162615192Y-106527678D01*
X162615192Y-106527678D02*
X162653287Y-106565773D01*
X162653287Y-106565773D02*
X162729478Y-106603868D01*
X162729478Y-106603868D02*
X162919954Y-106603868D01*
X162919954Y-106603868D02*
X162996144Y-106565773D01*
X162996144Y-106565773D02*
X163034240Y-106527678D01*
X163034240Y-106527678D02*
X163072335Y-106451487D01*
X163072335Y-106451487D02*
X163072335Y-106222916D01*
X163072335Y-106222916D02*
X163034240Y-106146725D01*
X163034240Y-106146725D02*
X162996144Y-106108630D01*
X163072335Y-106984821D02*
X163072335Y-107137202D01*
X163072335Y-107137202D02*
X163034240Y-107213392D01*
X163034240Y-107213392D02*
X162996144Y-107251488D01*
X162996144Y-107251488D02*
X162881859Y-107327678D01*
X162881859Y-107327678D02*
X162729478Y-107365773D01*
X162729478Y-107365773D02*
X162424716Y-107365773D01*
X162424716Y-107365773D02*
X162348525Y-107327678D01*
X162348525Y-107327678D02*
X162310430Y-107289583D01*
X162310430Y-107289583D02*
X162272335Y-107213392D01*
X162272335Y-107213392D02*
X162272335Y-107061011D01*
X162272335Y-107061011D02*
X162310430Y-106984821D01*
X162310430Y-106984821D02*
X162348525Y-106946726D01*
X162348525Y-106946726D02*
X162424716Y-106908630D01*
X162424716Y-106908630D02*
X162615192Y-106908630D01*
X162615192Y-106908630D02*
X162691382Y-106946726D01*
X162691382Y-106946726D02*
X162729478Y-106984821D01*
X162729478Y-106984821D02*
X162767573Y-107061011D01*
X162767573Y-107061011D02*
X162767573Y-107213392D01*
X162767573Y-107213392D02*
X162729478Y-107289583D01*
X162729478Y-107289583D02*
X162691382Y-107327678D01*
X162691382Y-107327678D02*
X162615192Y-107365773D01*
%TO.C,C9*%
X147756144Y-100634917D02*
X147794240Y-100596821D01*
X147794240Y-100596821D02*
X147832335Y-100482536D01*
X147832335Y-100482536D02*
X147832335Y-100406345D01*
X147832335Y-100406345D02*
X147794240Y-100292059D01*
X147794240Y-100292059D02*
X147718049Y-100215869D01*
X147718049Y-100215869D02*
X147641859Y-100177774D01*
X147641859Y-100177774D02*
X147489478Y-100139678D01*
X147489478Y-100139678D02*
X147375192Y-100139678D01*
X147375192Y-100139678D02*
X147222811Y-100177774D01*
X147222811Y-100177774D02*
X147146620Y-100215869D01*
X147146620Y-100215869D02*
X147070430Y-100292059D01*
X147070430Y-100292059D02*
X147032335Y-100406345D01*
X147032335Y-100406345D02*
X147032335Y-100482536D01*
X147032335Y-100482536D02*
X147070430Y-100596821D01*
X147070430Y-100596821D02*
X147108525Y-100634917D01*
X147832335Y-101015869D02*
X147832335Y-101168250D01*
X147832335Y-101168250D02*
X147794240Y-101244440D01*
X147794240Y-101244440D02*
X147756144Y-101282536D01*
X147756144Y-101282536D02*
X147641859Y-101358726D01*
X147641859Y-101358726D02*
X147489478Y-101396821D01*
X147489478Y-101396821D02*
X147184716Y-101396821D01*
X147184716Y-101396821D02*
X147108525Y-101358726D01*
X147108525Y-101358726D02*
X147070430Y-101320631D01*
X147070430Y-101320631D02*
X147032335Y-101244440D01*
X147032335Y-101244440D02*
X147032335Y-101092059D01*
X147032335Y-101092059D02*
X147070430Y-101015869D01*
X147070430Y-101015869D02*
X147108525Y-100977774D01*
X147108525Y-100977774D02*
X147184716Y-100939678D01*
X147184716Y-100939678D02*
X147375192Y-100939678D01*
X147375192Y-100939678D02*
X147451382Y-100977774D01*
X147451382Y-100977774D02*
X147489478Y-101015869D01*
X147489478Y-101015869D02*
X147527573Y-101092059D01*
X147527573Y-101092059D02*
X147527573Y-101244440D01*
X147527573Y-101244440D02*
X147489478Y-101320631D01*
X147489478Y-101320631D02*
X147451382Y-101358726D01*
X147451382Y-101358726D02*
X147375192Y-101396821D01*
%TO.C,C21*%
X151566144Y-94411964D02*
X151604240Y-94373868D01*
X151604240Y-94373868D02*
X151642335Y-94259583D01*
X151642335Y-94259583D02*
X151642335Y-94183392D01*
X151642335Y-94183392D02*
X151604240Y-94069106D01*
X151604240Y-94069106D02*
X151528049Y-93992916D01*
X151528049Y-93992916D02*
X151451859Y-93954821D01*
X151451859Y-93954821D02*
X151299478Y-93916725D01*
X151299478Y-93916725D02*
X151185192Y-93916725D01*
X151185192Y-93916725D02*
X151032811Y-93954821D01*
X151032811Y-93954821D02*
X150956620Y-93992916D01*
X150956620Y-93992916D02*
X150880430Y-94069106D01*
X150880430Y-94069106D02*
X150842335Y-94183392D01*
X150842335Y-94183392D02*
X150842335Y-94259583D01*
X150842335Y-94259583D02*
X150880430Y-94373868D01*
X150880430Y-94373868D02*
X150918525Y-94411964D01*
X150918525Y-94716725D02*
X150880430Y-94754821D01*
X150880430Y-94754821D02*
X150842335Y-94831011D01*
X150842335Y-94831011D02*
X150842335Y-95021487D01*
X150842335Y-95021487D02*
X150880430Y-95097678D01*
X150880430Y-95097678D02*
X150918525Y-95135773D01*
X150918525Y-95135773D02*
X150994716Y-95173868D01*
X150994716Y-95173868D02*
X151070906Y-95173868D01*
X151070906Y-95173868D02*
X151185192Y-95135773D01*
X151185192Y-95135773D02*
X151642335Y-94678630D01*
X151642335Y-94678630D02*
X151642335Y-95173868D01*
X151642335Y-95935773D02*
X151642335Y-95478630D01*
X151642335Y-95707202D02*
X150842335Y-95707202D01*
X150842335Y-95707202D02*
X150956620Y-95631011D01*
X150956620Y-95631011D02*
X151032811Y-95554821D01*
X151032811Y-95554821D02*
X151070906Y-95478630D01*
%TO.C,C28*%
X136072144Y-100253964D02*
X136110240Y-100215868D01*
X136110240Y-100215868D02*
X136148335Y-100101583D01*
X136148335Y-100101583D02*
X136148335Y-100025392D01*
X136148335Y-100025392D02*
X136110240Y-99911106D01*
X136110240Y-99911106D02*
X136034049Y-99834916D01*
X136034049Y-99834916D02*
X135957859Y-99796821D01*
X135957859Y-99796821D02*
X135805478Y-99758725D01*
X135805478Y-99758725D02*
X135691192Y-99758725D01*
X135691192Y-99758725D02*
X135538811Y-99796821D01*
X135538811Y-99796821D02*
X135462620Y-99834916D01*
X135462620Y-99834916D02*
X135386430Y-99911106D01*
X135386430Y-99911106D02*
X135348335Y-100025392D01*
X135348335Y-100025392D02*
X135348335Y-100101583D01*
X135348335Y-100101583D02*
X135386430Y-100215868D01*
X135386430Y-100215868D02*
X135424525Y-100253964D01*
X135424525Y-100558725D02*
X135386430Y-100596821D01*
X135386430Y-100596821D02*
X135348335Y-100673011D01*
X135348335Y-100673011D02*
X135348335Y-100863487D01*
X135348335Y-100863487D02*
X135386430Y-100939678D01*
X135386430Y-100939678D02*
X135424525Y-100977773D01*
X135424525Y-100977773D02*
X135500716Y-101015868D01*
X135500716Y-101015868D02*
X135576906Y-101015868D01*
X135576906Y-101015868D02*
X135691192Y-100977773D01*
X135691192Y-100977773D02*
X136148335Y-100520630D01*
X136148335Y-100520630D02*
X136148335Y-101015868D01*
X135691192Y-101473011D02*
X135653097Y-101396821D01*
X135653097Y-101396821D02*
X135615001Y-101358726D01*
X135615001Y-101358726D02*
X135538811Y-101320630D01*
X135538811Y-101320630D02*
X135500716Y-101320630D01*
X135500716Y-101320630D02*
X135424525Y-101358726D01*
X135424525Y-101358726D02*
X135386430Y-101396821D01*
X135386430Y-101396821D02*
X135348335Y-101473011D01*
X135348335Y-101473011D02*
X135348335Y-101625392D01*
X135348335Y-101625392D02*
X135386430Y-101701583D01*
X135386430Y-101701583D02*
X135424525Y-101739678D01*
X135424525Y-101739678D02*
X135500716Y-101777773D01*
X135500716Y-101777773D02*
X135538811Y-101777773D01*
X135538811Y-101777773D02*
X135615001Y-101739678D01*
X135615001Y-101739678D02*
X135653097Y-101701583D01*
X135653097Y-101701583D02*
X135691192Y-101625392D01*
X135691192Y-101625392D02*
X135691192Y-101473011D01*
X135691192Y-101473011D02*
X135729287Y-101396821D01*
X135729287Y-101396821D02*
X135767382Y-101358726D01*
X135767382Y-101358726D02*
X135843573Y-101320630D01*
X135843573Y-101320630D02*
X135995954Y-101320630D01*
X135995954Y-101320630D02*
X136072144Y-101358726D01*
X136072144Y-101358726D02*
X136110240Y-101396821D01*
X136110240Y-101396821D02*
X136148335Y-101473011D01*
X136148335Y-101473011D02*
X136148335Y-101625392D01*
X136148335Y-101625392D02*
X136110240Y-101701583D01*
X136110240Y-101701583D02*
X136072144Y-101739678D01*
X136072144Y-101739678D02*
X135995954Y-101777773D01*
X135995954Y-101777773D02*
X135843573Y-101777773D01*
X135843573Y-101777773D02*
X135767382Y-101739678D01*
X135767382Y-101739678D02*
X135729287Y-101701583D01*
X135729287Y-101701583D02*
X135691192Y-101625392D01*
%TO.C,C24*%
X136326144Y-105841964D02*
X136364240Y-105803868D01*
X136364240Y-105803868D02*
X136402335Y-105689583D01*
X136402335Y-105689583D02*
X136402335Y-105613392D01*
X136402335Y-105613392D02*
X136364240Y-105499106D01*
X136364240Y-105499106D02*
X136288049Y-105422916D01*
X136288049Y-105422916D02*
X136211859Y-105384821D01*
X136211859Y-105384821D02*
X136059478Y-105346725D01*
X136059478Y-105346725D02*
X135945192Y-105346725D01*
X135945192Y-105346725D02*
X135792811Y-105384821D01*
X135792811Y-105384821D02*
X135716620Y-105422916D01*
X135716620Y-105422916D02*
X135640430Y-105499106D01*
X135640430Y-105499106D02*
X135602335Y-105613392D01*
X135602335Y-105613392D02*
X135602335Y-105689583D01*
X135602335Y-105689583D02*
X135640430Y-105803868D01*
X135640430Y-105803868D02*
X135678525Y-105841964D01*
X135678525Y-106146725D02*
X135640430Y-106184821D01*
X135640430Y-106184821D02*
X135602335Y-106261011D01*
X135602335Y-106261011D02*
X135602335Y-106451487D01*
X135602335Y-106451487D02*
X135640430Y-106527678D01*
X135640430Y-106527678D02*
X135678525Y-106565773D01*
X135678525Y-106565773D02*
X135754716Y-106603868D01*
X135754716Y-106603868D02*
X135830906Y-106603868D01*
X135830906Y-106603868D02*
X135945192Y-106565773D01*
X135945192Y-106565773D02*
X136402335Y-106108630D01*
X136402335Y-106108630D02*
X136402335Y-106603868D01*
X135869001Y-107289583D02*
X136402335Y-107289583D01*
X135564240Y-107099107D02*
X136135668Y-106908630D01*
X136135668Y-106908630D02*
X136135668Y-107403869D01*
%TO.C,C19*%
X157503097Y-115359630D02*
X157550716Y-115407250D01*
X157550716Y-115407250D02*
X157693573Y-115454869D01*
X157693573Y-115454869D02*
X157788811Y-115454869D01*
X157788811Y-115454869D02*
X157931668Y-115407250D01*
X157931668Y-115407250D02*
X158026906Y-115312011D01*
X158026906Y-115312011D02*
X158074525Y-115216773D01*
X158074525Y-115216773D02*
X158122144Y-115026297D01*
X158122144Y-115026297D02*
X158122144Y-114883440D01*
X158122144Y-114883440D02*
X158074525Y-114692964D01*
X158074525Y-114692964D02*
X158026906Y-114597726D01*
X158026906Y-114597726D02*
X157931668Y-114502488D01*
X157931668Y-114502488D02*
X157788811Y-114454869D01*
X157788811Y-114454869D02*
X157693573Y-114454869D01*
X157693573Y-114454869D02*
X157550716Y-114502488D01*
X157550716Y-114502488D02*
X157503097Y-114550107D01*
X156550716Y-115454869D02*
X157122144Y-115454869D01*
X156836430Y-115454869D02*
X156836430Y-114454869D01*
X156836430Y-114454869D02*
X156931668Y-114597726D01*
X156931668Y-114597726D02*
X157026906Y-114692964D01*
X157026906Y-114692964D02*
X157122144Y-114740583D01*
X156074525Y-115454869D02*
X155884049Y-115454869D01*
X155884049Y-115454869D02*
X155788811Y-115407250D01*
X155788811Y-115407250D02*
X155741192Y-115359630D01*
X155741192Y-115359630D02*
X155645954Y-115216773D01*
X155645954Y-115216773D02*
X155598335Y-115026297D01*
X155598335Y-115026297D02*
X155598335Y-114645345D01*
X155598335Y-114645345D02*
X155645954Y-114550107D01*
X155645954Y-114550107D02*
X155693573Y-114502488D01*
X155693573Y-114502488D02*
X155788811Y-114454869D01*
X155788811Y-114454869D02*
X155979287Y-114454869D01*
X155979287Y-114454869D02*
X156074525Y-114502488D01*
X156074525Y-114502488D02*
X156122144Y-114550107D01*
X156122144Y-114550107D02*
X156169763Y-114645345D01*
X156169763Y-114645345D02*
X156169763Y-114883440D01*
X156169763Y-114883440D02*
X156122144Y-114978678D01*
X156122144Y-114978678D02*
X156074525Y-115026297D01*
X156074525Y-115026297D02*
X155979287Y-115073916D01*
X155979287Y-115073916D02*
X155788811Y-115073916D01*
X155788811Y-115073916D02*
X155693573Y-115026297D01*
X155693573Y-115026297D02*
X155645954Y-114978678D01*
X155645954Y-114978678D02*
X155598335Y-114883440D01*
%TO.C,C12*%
X132262144Y-105841964D02*
X132300240Y-105803868D01*
X132300240Y-105803868D02*
X132338335Y-105689583D01*
X132338335Y-105689583D02*
X132338335Y-105613392D01*
X132338335Y-105613392D02*
X132300240Y-105499106D01*
X132300240Y-105499106D02*
X132224049Y-105422916D01*
X132224049Y-105422916D02*
X132147859Y-105384821D01*
X132147859Y-105384821D02*
X131995478Y-105346725D01*
X131995478Y-105346725D02*
X131881192Y-105346725D01*
X131881192Y-105346725D02*
X131728811Y-105384821D01*
X131728811Y-105384821D02*
X131652620Y-105422916D01*
X131652620Y-105422916D02*
X131576430Y-105499106D01*
X131576430Y-105499106D02*
X131538335Y-105613392D01*
X131538335Y-105613392D02*
X131538335Y-105689583D01*
X131538335Y-105689583D02*
X131576430Y-105803868D01*
X131576430Y-105803868D02*
X131614525Y-105841964D01*
X132338335Y-106603868D02*
X132338335Y-106146725D01*
X132338335Y-106375297D02*
X131538335Y-106375297D01*
X131538335Y-106375297D02*
X131652620Y-106299106D01*
X131652620Y-106299106D02*
X131728811Y-106222916D01*
X131728811Y-106222916D02*
X131766906Y-106146725D01*
X131614525Y-106908630D02*
X131576430Y-106946726D01*
X131576430Y-106946726D02*
X131538335Y-107022916D01*
X131538335Y-107022916D02*
X131538335Y-107213392D01*
X131538335Y-107213392D02*
X131576430Y-107289583D01*
X131576430Y-107289583D02*
X131614525Y-107327678D01*
X131614525Y-107327678D02*
X131690716Y-107365773D01*
X131690716Y-107365773D02*
X131766906Y-107365773D01*
X131766906Y-107365773D02*
X131881192Y-107327678D01*
X131881192Y-107327678D02*
X132338335Y-106870535D01*
X132338335Y-106870535D02*
X132338335Y-107365773D01*
%TO.C,C27*%
X138580097Y-115359630D02*
X138627716Y-115407250D01*
X138627716Y-115407250D02*
X138770573Y-115454869D01*
X138770573Y-115454869D02*
X138865811Y-115454869D01*
X138865811Y-115454869D02*
X139008668Y-115407250D01*
X139008668Y-115407250D02*
X139103906Y-115312011D01*
X139103906Y-115312011D02*
X139151525Y-115216773D01*
X139151525Y-115216773D02*
X139199144Y-115026297D01*
X139199144Y-115026297D02*
X139199144Y-114883440D01*
X139199144Y-114883440D02*
X139151525Y-114692964D01*
X139151525Y-114692964D02*
X139103906Y-114597726D01*
X139103906Y-114597726D02*
X139008668Y-114502488D01*
X139008668Y-114502488D02*
X138865811Y-114454869D01*
X138865811Y-114454869D02*
X138770573Y-114454869D01*
X138770573Y-114454869D02*
X138627716Y-114502488D01*
X138627716Y-114502488D02*
X138580097Y-114550107D01*
X138199144Y-114550107D02*
X138151525Y-114502488D01*
X138151525Y-114502488D02*
X138056287Y-114454869D01*
X138056287Y-114454869D02*
X137818192Y-114454869D01*
X137818192Y-114454869D02*
X137722954Y-114502488D01*
X137722954Y-114502488D02*
X137675335Y-114550107D01*
X137675335Y-114550107D02*
X137627716Y-114645345D01*
X137627716Y-114645345D02*
X137627716Y-114740583D01*
X137627716Y-114740583D02*
X137675335Y-114883440D01*
X137675335Y-114883440D02*
X138246763Y-115454869D01*
X138246763Y-115454869D02*
X137627716Y-115454869D01*
X137294382Y-114454869D02*
X136627716Y-114454869D01*
X136627716Y-114454869D02*
X137056287Y-115454869D01*
%TO.C,C42*%
X155376144Y-94411964D02*
X155414240Y-94373868D01*
X155414240Y-94373868D02*
X155452335Y-94259583D01*
X155452335Y-94259583D02*
X155452335Y-94183392D01*
X155452335Y-94183392D02*
X155414240Y-94069106D01*
X155414240Y-94069106D02*
X155338049Y-93992916D01*
X155338049Y-93992916D02*
X155261859Y-93954821D01*
X155261859Y-93954821D02*
X155109478Y-93916725D01*
X155109478Y-93916725D02*
X154995192Y-93916725D01*
X154995192Y-93916725D02*
X154842811Y-93954821D01*
X154842811Y-93954821D02*
X154766620Y-93992916D01*
X154766620Y-93992916D02*
X154690430Y-94069106D01*
X154690430Y-94069106D02*
X154652335Y-94183392D01*
X154652335Y-94183392D02*
X154652335Y-94259583D01*
X154652335Y-94259583D02*
X154690430Y-94373868D01*
X154690430Y-94373868D02*
X154728525Y-94411964D01*
X154919001Y-95097678D02*
X155452335Y-95097678D01*
X154614240Y-94907202D02*
X155185668Y-94716725D01*
X155185668Y-94716725D02*
X155185668Y-95211964D01*
X154728525Y-95478630D02*
X154690430Y-95516726D01*
X154690430Y-95516726D02*
X154652335Y-95592916D01*
X154652335Y-95592916D02*
X154652335Y-95783392D01*
X154652335Y-95783392D02*
X154690430Y-95859583D01*
X154690430Y-95859583D02*
X154728525Y-95897678D01*
X154728525Y-95897678D02*
X154804716Y-95935773D01*
X154804716Y-95935773D02*
X154880906Y-95935773D01*
X154880906Y-95935773D02*
X154995192Y-95897678D01*
X154995192Y-95897678D02*
X155452335Y-95440535D01*
X155452335Y-95440535D02*
X155452335Y-95935773D01*
%TO.C,C32*%
X159186144Y-105841964D02*
X159224240Y-105803868D01*
X159224240Y-105803868D02*
X159262335Y-105689583D01*
X159262335Y-105689583D02*
X159262335Y-105613392D01*
X159262335Y-105613392D02*
X159224240Y-105499106D01*
X159224240Y-105499106D02*
X159148049Y-105422916D01*
X159148049Y-105422916D02*
X159071859Y-105384821D01*
X159071859Y-105384821D02*
X158919478Y-105346725D01*
X158919478Y-105346725D02*
X158805192Y-105346725D01*
X158805192Y-105346725D02*
X158652811Y-105384821D01*
X158652811Y-105384821D02*
X158576620Y-105422916D01*
X158576620Y-105422916D02*
X158500430Y-105499106D01*
X158500430Y-105499106D02*
X158462335Y-105613392D01*
X158462335Y-105613392D02*
X158462335Y-105689583D01*
X158462335Y-105689583D02*
X158500430Y-105803868D01*
X158500430Y-105803868D02*
X158538525Y-105841964D01*
X158462335Y-106108630D02*
X158462335Y-106603868D01*
X158462335Y-106603868D02*
X158767097Y-106337202D01*
X158767097Y-106337202D02*
X158767097Y-106451487D01*
X158767097Y-106451487D02*
X158805192Y-106527678D01*
X158805192Y-106527678D02*
X158843287Y-106565773D01*
X158843287Y-106565773D02*
X158919478Y-106603868D01*
X158919478Y-106603868D02*
X159109954Y-106603868D01*
X159109954Y-106603868D02*
X159186144Y-106565773D01*
X159186144Y-106565773D02*
X159224240Y-106527678D01*
X159224240Y-106527678D02*
X159262335Y-106451487D01*
X159262335Y-106451487D02*
X159262335Y-106222916D01*
X159262335Y-106222916D02*
X159224240Y-106146725D01*
X159224240Y-106146725D02*
X159186144Y-106108630D01*
X158538525Y-106908630D02*
X158500430Y-106946726D01*
X158500430Y-106946726D02*
X158462335Y-107022916D01*
X158462335Y-107022916D02*
X158462335Y-107213392D01*
X158462335Y-107213392D02*
X158500430Y-107289583D01*
X158500430Y-107289583D02*
X158538525Y-107327678D01*
X158538525Y-107327678D02*
X158614716Y-107365773D01*
X158614716Y-107365773D02*
X158690906Y-107365773D01*
X158690906Y-107365773D02*
X158805192Y-107327678D01*
X158805192Y-107327678D02*
X159262335Y-106870535D01*
X159262335Y-106870535D02*
X159262335Y-107365773D01*
%TO.C,C41*%
X155376144Y-105841964D02*
X155414240Y-105803868D01*
X155414240Y-105803868D02*
X155452335Y-105689583D01*
X155452335Y-105689583D02*
X155452335Y-105613392D01*
X155452335Y-105613392D02*
X155414240Y-105499106D01*
X155414240Y-105499106D02*
X155338049Y-105422916D01*
X155338049Y-105422916D02*
X155261859Y-105384821D01*
X155261859Y-105384821D02*
X155109478Y-105346725D01*
X155109478Y-105346725D02*
X154995192Y-105346725D01*
X154995192Y-105346725D02*
X154842811Y-105384821D01*
X154842811Y-105384821D02*
X154766620Y-105422916D01*
X154766620Y-105422916D02*
X154690430Y-105499106D01*
X154690430Y-105499106D02*
X154652335Y-105613392D01*
X154652335Y-105613392D02*
X154652335Y-105689583D01*
X154652335Y-105689583D02*
X154690430Y-105803868D01*
X154690430Y-105803868D02*
X154728525Y-105841964D01*
X154919001Y-106527678D02*
X155452335Y-106527678D01*
X154614240Y-106337202D02*
X155185668Y-106146725D01*
X155185668Y-106146725D02*
X155185668Y-106641964D01*
X155452335Y-107365773D02*
X155452335Y-106908630D01*
X155452335Y-107137202D02*
X154652335Y-107137202D01*
X154652335Y-107137202D02*
X154766620Y-107061011D01*
X154766620Y-107061011D02*
X154842811Y-106984821D01*
X154842811Y-106984821D02*
X154880906Y-106908630D01*
%TO.C,C34*%
X157227620Y-88695392D02*
X157275240Y-88647773D01*
X157275240Y-88647773D02*
X157322859Y-88504916D01*
X157322859Y-88504916D02*
X157322859Y-88409678D01*
X157322859Y-88409678D02*
X157275240Y-88266821D01*
X157275240Y-88266821D02*
X157180001Y-88171583D01*
X157180001Y-88171583D02*
X157084763Y-88123964D01*
X157084763Y-88123964D02*
X156894287Y-88076345D01*
X156894287Y-88076345D02*
X156751430Y-88076345D01*
X156751430Y-88076345D02*
X156560954Y-88123964D01*
X156560954Y-88123964D02*
X156465716Y-88171583D01*
X156465716Y-88171583D02*
X156370478Y-88266821D01*
X156370478Y-88266821D02*
X156322859Y-88409678D01*
X156322859Y-88409678D02*
X156322859Y-88504916D01*
X156322859Y-88504916D02*
X156370478Y-88647773D01*
X156370478Y-88647773D02*
X156418097Y-88695392D01*
X156322859Y-89028726D02*
X156322859Y-89647773D01*
X156322859Y-89647773D02*
X156703811Y-89314440D01*
X156703811Y-89314440D02*
X156703811Y-89457297D01*
X156703811Y-89457297D02*
X156751430Y-89552535D01*
X156751430Y-89552535D02*
X156799049Y-89600154D01*
X156799049Y-89600154D02*
X156894287Y-89647773D01*
X156894287Y-89647773D02*
X157132382Y-89647773D01*
X157132382Y-89647773D02*
X157227620Y-89600154D01*
X157227620Y-89600154D02*
X157275240Y-89552535D01*
X157275240Y-89552535D02*
X157322859Y-89457297D01*
X157322859Y-89457297D02*
X157322859Y-89171583D01*
X157322859Y-89171583D02*
X157275240Y-89076345D01*
X157275240Y-89076345D02*
X157227620Y-89028726D01*
X156656192Y-90504916D02*
X157322859Y-90504916D01*
X156275240Y-90266821D02*
X156989525Y-90028726D01*
X156989525Y-90028726D02*
X156989525Y-90647773D01*
%TO.C,C15*%
X161440097Y-115359630D02*
X161487716Y-115407250D01*
X161487716Y-115407250D02*
X161630573Y-115454869D01*
X161630573Y-115454869D02*
X161725811Y-115454869D01*
X161725811Y-115454869D02*
X161868668Y-115407250D01*
X161868668Y-115407250D02*
X161963906Y-115312011D01*
X161963906Y-115312011D02*
X162011525Y-115216773D01*
X162011525Y-115216773D02*
X162059144Y-115026297D01*
X162059144Y-115026297D02*
X162059144Y-114883440D01*
X162059144Y-114883440D02*
X162011525Y-114692964D01*
X162011525Y-114692964D02*
X161963906Y-114597726D01*
X161963906Y-114597726D02*
X161868668Y-114502488D01*
X161868668Y-114502488D02*
X161725811Y-114454869D01*
X161725811Y-114454869D02*
X161630573Y-114454869D01*
X161630573Y-114454869D02*
X161487716Y-114502488D01*
X161487716Y-114502488D02*
X161440097Y-114550107D01*
X160487716Y-115454869D02*
X161059144Y-115454869D01*
X160773430Y-115454869D02*
X160773430Y-114454869D01*
X160773430Y-114454869D02*
X160868668Y-114597726D01*
X160868668Y-114597726D02*
X160963906Y-114692964D01*
X160963906Y-114692964D02*
X161059144Y-114740583D01*
X159582954Y-114454869D02*
X160059144Y-114454869D01*
X160059144Y-114454869D02*
X160106763Y-114931059D01*
X160106763Y-114931059D02*
X160059144Y-114883440D01*
X160059144Y-114883440D02*
X159963906Y-114835821D01*
X159963906Y-114835821D02*
X159725811Y-114835821D01*
X159725811Y-114835821D02*
X159630573Y-114883440D01*
X159630573Y-114883440D02*
X159582954Y-114931059D01*
X159582954Y-114931059D02*
X159535335Y-115026297D01*
X159535335Y-115026297D02*
X159535335Y-115264392D01*
X159535335Y-115264392D02*
X159582954Y-115359630D01*
X159582954Y-115359630D02*
X159630573Y-115407250D01*
X159630573Y-115407250D02*
X159725811Y-115454869D01*
X159725811Y-115454869D02*
X159963906Y-115454869D01*
X159963906Y-115454869D02*
X160059144Y-115407250D01*
X160059144Y-115407250D02*
X160106763Y-115359630D01*
%TO.C,C23*%
X159186144Y-100253964D02*
X159224240Y-100215868D01*
X159224240Y-100215868D02*
X159262335Y-100101583D01*
X159262335Y-100101583D02*
X159262335Y-100025392D01*
X159262335Y-100025392D02*
X159224240Y-99911106D01*
X159224240Y-99911106D02*
X159148049Y-99834916D01*
X159148049Y-99834916D02*
X159071859Y-99796821D01*
X159071859Y-99796821D02*
X158919478Y-99758725D01*
X158919478Y-99758725D02*
X158805192Y-99758725D01*
X158805192Y-99758725D02*
X158652811Y-99796821D01*
X158652811Y-99796821D02*
X158576620Y-99834916D01*
X158576620Y-99834916D02*
X158500430Y-99911106D01*
X158500430Y-99911106D02*
X158462335Y-100025392D01*
X158462335Y-100025392D02*
X158462335Y-100101583D01*
X158462335Y-100101583D02*
X158500430Y-100215868D01*
X158500430Y-100215868D02*
X158538525Y-100253964D01*
X158538525Y-100558725D02*
X158500430Y-100596821D01*
X158500430Y-100596821D02*
X158462335Y-100673011D01*
X158462335Y-100673011D02*
X158462335Y-100863487D01*
X158462335Y-100863487D02*
X158500430Y-100939678D01*
X158500430Y-100939678D02*
X158538525Y-100977773D01*
X158538525Y-100977773D02*
X158614716Y-101015868D01*
X158614716Y-101015868D02*
X158690906Y-101015868D01*
X158690906Y-101015868D02*
X158805192Y-100977773D01*
X158805192Y-100977773D02*
X159262335Y-100520630D01*
X159262335Y-100520630D02*
X159262335Y-101015868D01*
X158462335Y-101282535D02*
X158462335Y-101777773D01*
X158462335Y-101777773D02*
X158767097Y-101511107D01*
X158767097Y-101511107D02*
X158767097Y-101625392D01*
X158767097Y-101625392D02*
X158805192Y-101701583D01*
X158805192Y-101701583D02*
X158843287Y-101739678D01*
X158843287Y-101739678D02*
X158919478Y-101777773D01*
X158919478Y-101777773D02*
X159109954Y-101777773D01*
X159109954Y-101777773D02*
X159186144Y-101739678D01*
X159186144Y-101739678D02*
X159224240Y-101701583D01*
X159224240Y-101701583D02*
X159262335Y-101625392D01*
X159262335Y-101625392D02*
X159262335Y-101396821D01*
X159262335Y-101396821D02*
X159224240Y-101320630D01*
X159224240Y-101320630D02*
X159186144Y-101282535D01*
%TO.C,C13*%
X142241620Y-88695392D02*
X142289240Y-88647773D01*
X142289240Y-88647773D02*
X142336859Y-88504916D01*
X142336859Y-88504916D02*
X142336859Y-88409678D01*
X142336859Y-88409678D02*
X142289240Y-88266821D01*
X142289240Y-88266821D02*
X142194001Y-88171583D01*
X142194001Y-88171583D02*
X142098763Y-88123964D01*
X142098763Y-88123964D02*
X141908287Y-88076345D01*
X141908287Y-88076345D02*
X141765430Y-88076345D01*
X141765430Y-88076345D02*
X141574954Y-88123964D01*
X141574954Y-88123964D02*
X141479716Y-88171583D01*
X141479716Y-88171583D02*
X141384478Y-88266821D01*
X141384478Y-88266821D02*
X141336859Y-88409678D01*
X141336859Y-88409678D02*
X141336859Y-88504916D01*
X141336859Y-88504916D02*
X141384478Y-88647773D01*
X141384478Y-88647773D02*
X141432097Y-88695392D01*
X142336859Y-89647773D02*
X142336859Y-89076345D01*
X142336859Y-89362059D02*
X141336859Y-89362059D01*
X141336859Y-89362059D02*
X141479716Y-89266821D01*
X141479716Y-89266821D02*
X141574954Y-89171583D01*
X141574954Y-89171583D02*
X141622573Y-89076345D01*
X141336859Y-89981107D02*
X141336859Y-90600154D01*
X141336859Y-90600154D02*
X141717811Y-90266821D01*
X141717811Y-90266821D02*
X141717811Y-90409678D01*
X141717811Y-90409678D02*
X141765430Y-90504916D01*
X141765430Y-90504916D02*
X141813049Y-90552535D01*
X141813049Y-90552535D02*
X141908287Y-90600154D01*
X141908287Y-90600154D02*
X142146382Y-90600154D01*
X142146382Y-90600154D02*
X142241620Y-90552535D01*
X142241620Y-90552535D02*
X142289240Y-90504916D01*
X142289240Y-90504916D02*
X142336859Y-90409678D01*
X142336859Y-90409678D02*
X142336859Y-90123964D01*
X142336859Y-90123964D02*
X142289240Y-90028726D01*
X142289240Y-90028726D02*
X142241620Y-89981107D01*
%TO.C,C40*%
X146200097Y-115359630D02*
X146247716Y-115407250D01*
X146247716Y-115407250D02*
X146390573Y-115454869D01*
X146390573Y-115454869D02*
X146485811Y-115454869D01*
X146485811Y-115454869D02*
X146628668Y-115407250D01*
X146628668Y-115407250D02*
X146723906Y-115312011D01*
X146723906Y-115312011D02*
X146771525Y-115216773D01*
X146771525Y-115216773D02*
X146819144Y-115026297D01*
X146819144Y-115026297D02*
X146819144Y-114883440D01*
X146819144Y-114883440D02*
X146771525Y-114692964D01*
X146771525Y-114692964D02*
X146723906Y-114597726D01*
X146723906Y-114597726D02*
X146628668Y-114502488D01*
X146628668Y-114502488D02*
X146485811Y-114454869D01*
X146485811Y-114454869D02*
X146390573Y-114454869D01*
X146390573Y-114454869D02*
X146247716Y-114502488D01*
X146247716Y-114502488D02*
X146200097Y-114550107D01*
X145342954Y-114788202D02*
X145342954Y-115454869D01*
X145581049Y-114407250D02*
X145819144Y-115121535D01*
X145819144Y-115121535D02*
X145200097Y-115121535D01*
X144628668Y-114454869D02*
X144533430Y-114454869D01*
X144533430Y-114454869D02*
X144438192Y-114502488D01*
X144438192Y-114502488D02*
X144390573Y-114550107D01*
X144390573Y-114550107D02*
X144342954Y-114645345D01*
X144342954Y-114645345D02*
X144295335Y-114835821D01*
X144295335Y-114835821D02*
X144295335Y-115073916D01*
X144295335Y-115073916D02*
X144342954Y-115264392D01*
X144342954Y-115264392D02*
X144390573Y-115359630D01*
X144390573Y-115359630D02*
X144438192Y-115407250D01*
X144438192Y-115407250D02*
X144533430Y-115454869D01*
X144533430Y-115454869D02*
X144628668Y-115454869D01*
X144628668Y-115454869D02*
X144723906Y-115407250D01*
X144723906Y-115407250D02*
X144771525Y-115359630D01*
X144771525Y-115359630D02*
X144819144Y-115264392D01*
X144819144Y-115264392D02*
X144866763Y-115073916D01*
X144866763Y-115073916D02*
X144866763Y-114835821D01*
X144866763Y-114835821D02*
X144819144Y-114645345D01*
X144819144Y-114645345D02*
X144771525Y-114550107D01*
X144771525Y-114550107D02*
X144723906Y-114502488D01*
X144723906Y-114502488D02*
X144628668Y-114454869D01*
%TO.C,C33*%
X149883097Y-115359630D02*
X149930716Y-115407250D01*
X149930716Y-115407250D02*
X150073573Y-115454869D01*
X150073573Y-115454869D02*
X150168811Y-115454869D01*
X150168811Y-115454869D02*
X150311668Y-115407250D01*
X150311668Y-115407250D02*
X150406906Y-115312011D01*
X150406906Y-115312011D02*
X150454525Y-115216773D01*
X150454525Y-115216773D02*
X150502144Y-115026297D01*
X150502144Y-115026297D02*
X150502144Y-114883440D01*
X150502144Y-114883440D02*
X150454525Y-114692964D01*
X150454525Y-114692964D02*
X150406906Y-114597726D01*
X150406906Y-114597726D02*
X150311668Y-114502488D01*
X150311668Y-114502488D02*
X150168811Y-114454869D01*
X150168811Y-114454869D02*
X150073573Y-114454869D01*
X150073573Y-114454869D02*
X149930716Y-114502488D01*
X149930716Y-114502488D02*
X149883097Y-114550107D01*
X149549763Y-114454869D02*
X148930716Y-114454869D01*
X148930716Y-114454869D02*
X149264049Y-114835821D01*
X149264049Y-114835821D02*
X149121192Y-114835821D01*
X149121192Y-114835821D02*
X149025954Y-114883440D01*
X149025954Y-114883440D02*
X148978335Y-114931059D01*
X148978335Y-114931059D02*
X148930716Y-115026297D01*
X148930716Y-115026297D02*
X148930716Y-115264392D01*
X148930716Y-115264392D02*
X148978335Y-115359630D01*
X148978335Y-115359630D02*
X149025954Y-115407250D01*
X149025954Y-115407250D02*
X149121192Y-115454869D01*
X149121192Y-115454869D02*
X149406906Y-115454869D01*
X149406906Y-115454869D02*
X149502144Y-115407250D01*
X149502144Y-115407250D02*
X149549763Y-115359630D01*
X148597382Y-114454869D02*
X147978335Y-114454869D01*
X147978335Y-114454869D02*
X148311668Y-114835821D01*
X148311668Y-114835821D02*
X148168811Y-114835821D01*
X148168811Y-114835821D02*
X148073573Y-114883440D01*
X148073573Y-114883440D02*
X148025954Y-114931059D01*
X148025954Y-114931059D02*
X147978335Y-115026297D01*
X147978335Y-115026297D02*
X147978335Y-115264392D01*
X147978335Y-115264392D02*
X148025954Y-115359630D01*
X148025954Y-115359630D02*
X148073573Y-115407250D01*
X148073573Y-115407250D02*
X148168811Y-115454869D01*
X148168811Y-115454869D02*
X148454525Y-115454869D01*
X148454525Y-115454869D02*
X148549763Y-115407250D01*
X148549763Y-115407250D02*
X148597382Y-115359630D01*
%TO.C,C18*%
X143946144Y-105841964D02*
X143984240Y-105803868D01*
X143984240Y-105803868D02*
X144022335Y-105689583D01*
X144022335Y-105689583D02*
X144022335Y-105613392D01*
X144022335Y-105613392D02*
X143984240Y-105499106D01*
X143984240Y-105499106D02*
X143908049Y-105422916D01*
X143908049Y-105422916D02*
X143831859Y-105384821D01*
X143831859Y-105384821D02*
X143679478Y-105346725D01*
X143679478Y-105346725D02*
X143565192Y-105346725D01*
X143565192Y-105346725D02*
X143412811Y-105384821D01*
X143412811Y-105384821D02*
X143336620Y-105422916D01*
X143336620Y-105422916D02*
X143260430Y-105499106D01*
X143260430Y-105499106D02*
X143222335Y-105613392D01*
X143222335Y-105613392D02*
X143222335Y-105689583D01*
X143222335Y-105689583D02*
X143260430Y-105803868D01*
X143260430Y-105803868D02*
X143298525Y-105841964D01*
X144022335Y-106603868D02*
X144022335Y-106146725D01*
X144022335Y-106375297D02*
X143222335Y-106375297D01*
X143222335Y-106375297D02*
X143336620Y-106299106D01*
X143336620Y-106299106D02*
X143412811Y-106222916D01*
X143412811Y-106222916D02*
X143450906Y-106146725D01*
X143565192Y-107061011D02*
X143527097Y-106984821D01*
X143527097Y-106984821D02*
X143489001Y-106946726D01*
X143489001Y-106946726D02*
X143412811Y-106908630D01*
X143412811Y-106908630D02*
X143374716Y-106908630D01*
X143374716Y-106908630D02*
X143298525Y-106946726D01*
X143298525Y-106946726D02*
X143260430Y-106984821D01*
X143260430Y-106984821D02*
X143222335Y-107061011D01*
X143222335Y-107061011D02*
X143222335Y-107213392D01*
X143222335Y-107213392D02*
X143260430Y-107289583D01*
X143260430Y-107289583D02*
X143298525Y-107327678D01*
X143298525Y-107327678D02*
X143374716Y-107365773D01*
X143374716Y-107365773D02*
X143412811Y-107365773D01*
X143412811Y-107365773D02*
X143489001Y-107327678D01*
X143489001Y-107327678D02*
X143527097Y-107289583D01*
X143527097Y-107289583D02*
X143565192Y-107213392D01*
X143565192Y-107213392D02*
X143565192Y-107061011D01*
X143565192Y-107061011D02*
X143603287Y-106984821D01*
X143603287Y-106984821D02*
X143641382Y-106946726D01*
X143641382Y-106946726D02*
X143717573Y-106908630D01*
X143717573Y-106908630D02*
X143869954Y-106908630D01*
X143869954Y-106908630D02*
X143946144Y-106946726D01*
X143946144Y-106946726D02*
X143984240Y-106984821D01*
X143984240Y-106984821D02*
X144022335Y-107061011D01*
X144022335Y-107061011D02*
X144022335Y-107213392D01*
X144022335Y-107213392D02*
X143984240Y-107289583D01*
X143984240Y-107289583D02*
X143946144Y-107327678D01*
X143946144Y-107327678D02*
X143869954Y-107365773D01*
X143869954Y-107365773D02*
X143717573Y-107365773D01*
X143717573Y-107365773D02*
X143641382Y-107327678D01*
X143641382Y-107327678D02*
X143603287Y-107289583D01*
X143603287Y-107289583D02*
X143565192Y-107213392D01*
%TO.C,C38*%
X144930097Y-80473130D02*
X144977716Y-80520750D01*
X144977716Y-80520750D02*
X145120573Y-80568369D01*
X145120573Y-80568369D02*
X145215811Y-80568369D01*
X145215811Y-80568369D02*
X145358668Y-80520750D01*
X145358668Y-80520750D02*
X145453906Y-80425511D01*
X145453906Y-80425511D02*
X145501525Y-80330273D01*
X145501525Y-80330273D02*
X145549144Y-80139797D01*
X145549144Y-80139797D02*
X145549144Y-79996940D01*
X145549144Y-79996940D02*
X145501525Y-79806464D01*
X145501525Y-79806464D02*
X145453906Y-79711226D01*
X145453906Y-79711226D02*
X145358668Y-79615988D01*
X145358668Y-79615988D02*
X145215811Y-79568369D01*
X145215811Y-79568369D02*
X145120573Y-79568369D01*
X145120573Y-79568369D02*
X144977716Y-79615988D01*
X144977716Y-79615988D02*
X144930097Y-79663607D01*
X144596763Y-79568369D02*
X143977716Y-79568369D01*
X143977716Y-79568369D02*
X144311049Y-79949321D01*
X144311049Y-79949321D02*
X144168192Y-79949321D01*
X144168192Y-79949321D02*
X144072954Y-79996940D01*
X144072954Y-79996940D02*
X144025335Y-80044559D01*
X144025335Y-80044559D02*
X143977716Y-80139797D01*
X143977716Y-80139797D02*
X143977716Y-80377892D01*
X143977716Y-80377892D02*
X144025335Y-80473130D01*
X144025335Y-80473130D02*
X144072954Y-80520750D01*
X144072954Y-80520750D02*
X144168192Y-80568369D01*
X144168192Y-80568369D02*
X144453906Y-80568369D01*
X144453906Y-80568369D02*
X144549144Y-80520750D01*
X144549144Y-80520750D02*
X144596763Y-80473130D01*
X143406287Y-79996940D02*
X143501525Y-79949321D01*
X143501525Y-79949321D02*
X143549144Y-79901702D01*
X143549144Y-79901702D02*
X143596763Y-79806464D01*
X143596763Y-79806464D02*
X143596763Y-79758845D01*
X143596763Y-79758845D02*
X143549144Y-79663607D01*
X143549144Y-79663607D02*
X143501525Y-79615988D01*
X143501525Y-79615988D02*
X143406287Y-79568369D01*
X143406287Y-79568369D02*
X143215811Y-79568369D01*
X143215811Y-79568369D02*
X143120573Y-79615988D01*
X143120573Y-79615988D02*
X143072954Y-79663607D01*
X143072954Y-79663607D02*
X143025335Y-79758845D01*
X143025335Y-79758845D02*
X143025335Y-79806464D01*
X143025335Y-79806464D02*
X143072954Y-79901702D01*
X143072954Y-79901702D02*
X143120573Y-79949321D01*
X143120573Y-79949321D02*
X143215811Y-79996940D01*
X143215811Y-79996940D02*
X143406287Y-79996940D01*
X143406287Y-79996940D02*
X143501525Y-80044559D01*
X143501525Y-80044559D02*
X143549144Y-80092178D01*
X143549144Y-80092178D02*
X143596763Y-80187416D01*
X143596763Y-80187416D02*
X143596763Y-80377892D01*
X143596763Y-80377892D02*
X143549144Y-80473130D01*
X143549144Y-80473130D02*
X143501525Y-80520750D01*
X143501525Y-80520750D02*
X143406287Y-80568369D01*
X143406287Y-80568369D02*
X143215811Y-80568369D01*
X143215811Y-80568369D02*
X143120573Y-80520750D01*
X143120573Y-80520750D02*
X143072954Y-80473130D01*
X143072954Y-80473130D02*
X143025335Y-80377892D01*
X143025335Y-80377892D02*
X143025335Y-80187416D01*
X143025335Y-80187416D02*
X143072954Y-80092178D01*
X143072954Y-80092178D02*
X143120573Y-80044559D01*
X143120573Y-80044559D02*
X143215811Y-79996940D01*
%TO.C,C8*%
X147756144Y-94792917D02*
X147794240Y-94754821D01*
X147794240Y-94754821D02*
X147832335Y-94640536D01*
X147832335Y-94640536D02*
X147832335Y-94564345D01*
X147832335Y-94564345D02*
X147794240Y-94450059D01*
X147794240Y-94450059D02*
X147718049Y-94373869D01*
X147718049Y-94373869D02*
X147641859Y-94335774D01*
X147641859Y-94335774D02*
X147489478Y-94297678D01*
X147489478Y-94297678D02*
X147375192Y-94297678D01*
X147375192Y-94297678D02*
X147222811Y-94335774D01*
X147222811Y-94335774D02*
X147146620Y-94373869D01*
X147146620Y-94373869D02*
X147070430Y-94450059D01*
X147070430Y-94450059D02*
X147032335Y-94564345D01*
X147032335Y-94564345D02*
X147032335Y-94640536D01*
X147032335Y-94640536D02*
X147070430Y-94754821D01*
X147070430Y-94754821D02*
X147108525Y-94792917D01*
X147375192Y-95250059D02*
X147337097Y-95173869D01*
X147337097Y-95173869D02*
X147299001Y-95135774D01*
X147299001Y-95135774D02*
X147222811Y-95097678D01*
X147222811Y-95097678D02*
X147184716Y-95097678D01*
X147184716Y-95097678D02*
X147108525Y-95135774D01*
X147108525Y-95135774D02*
X147070430Y-95173869D01*
X147070430Y-95173869D02*
X147032335Y-95250059D01*
X147032335Y-95250059D02*
X147032335Y-95402440D01*
X147032335Y-95402440D02*
X147070430Y-95478631D01*
X147070430Y-95478631D02*
X147108525Y-95516726D01*
X147108525Y-95516726D02*
X147184716Y-95554821D01*
X147184716Y-95554821D02*
X147222811Y-95554821D01*
X147222811Y-95554821D02*
X147299001Y-95516726D01*
X147299001Y-95516726D02*
X147337097Y-95478631D01*
X147337097Y-95478631D02*
X147375192Y-95402440D01*
X147375192Y-95402440D02*
X147375192Y-95250059D01*
X147375192Y-95250059D02*
X147413287Y-95173869D01*
X147413287Y-95173869D02*
X147451382Y-95135774D01*
X147451382Y-95135774D02*
X147527573Y-95097678D01*
X147527573Y-95097678D02*
X147679954Y-95097678D01*
X147679954Y-95097678D02*
X147756144Y-95135774D01*
X147756144Y-95135774D02*
X147794240Y-95173869D01*
X147794240Y-95173869D02*
X147832335Y-95250059D01*
X147832335Y-95250059D02*
X147832335Y-95402440D01*
X147832335Y-95402440D02*
X147794240Y-95478631D01*
X147794240Y-95478631D02*
X147756144Y-95516726D01*
X147756144Y-95516726D02*
X147679954Y-95554821D01*
X147679954Y-95554821D02*
X147527573Y-95554821D01*
X147527573Y-95554821D02*
X147451382Y-95516726D01*
X147451382Y-95516726D02*
X147413287Y-95478631D01*
X147413287Y-95478631D02*
X147375192Y-95402440D01*
%TO.C,C16*%
X140136144Y-100253964D02*
X140174240Y-100215868D01*
X140174240Y-100215868D02*
X140212335Y-100101583D01*
X140212335Y-100101583D02*
X140212335Y-100025392D01*
X140212335Y-100025392D02*
X140174240Y-99911106D01*
X140174240Y-99911106D02*
X140098049Y-99834916D01*
X140098049Y-99834916D02*
X140021859Y-99796821D01*
X140021859Y-99796821D02*
X139869478Y-99758725D01*
X139869478Y-99758725D02*
X139755192Y-99758725D01*
X139755192Y-99758725D02*
X139602811Y-99796821D01*
X139602811Y-99796821D02*
X139526620Y-99834916D01*
X139526620Y-99834916D02*
X139450430Y-99911106D01*
X139450430Y-99911106D02*
X139412335Y-100025392D01*
X139412335Y-100025392D02*
X139412335Y-100101583D01*
X139412335Y-100101583D02*
X139450430Y-100215868D01*
X139450430Y-100215868D02*
X139488525Y-100253964D01*
X140212335Y-101015868D02*
X140212335Y-100558725D01*
X140212335Y-100787297D02*
X139412335Y-100787297D01*
X139412335Y-100787297D02*
X139526620Y-100711106D01*
X139526620Y-100711106D02*
X139602811Y-100634916D01*
X139602811Y-100634916D02*
X139640906Y-100558725D01*
X139412335Y-101701583D02*
X139412335Y-101549202D01*
X139412335Y-101549202D02*
X139450430Y-101473011D01*
X139450430Y-101473011D02*
X139488525Y-101434916D01*
X139488525Y-101434916D02*
X139602811Y-101358726D01*
X139602811Y-101358726D02*
X139755192Y-101320630D01*
X139755192Y-101320630D02*
X140059954Y-101320630D01*
X140059954Y-101320630D02*
X140136144Y-101358726D01*
X140136144Y-101358726D02*
X140174240Y-101396821D01*
X140174240Y-101396821D02*
X140212335Y-101473011D01*
X140212335Y-101473011D02*
X140212335Y-101625392D01*
X140212335Y-101625392D02*
X140174240Y-101701583D01*
X140174240Y-101701583D02*
X140136144Y-101739678D01*
X140136144Y-101739678D02*
X140059954Y-101777773D01*
X140059954Y-101777773D02*
X139869478Y-101777773D01*
X139869478Y-101777773D02*
X139793287Y-101739678D01*
X139793287Y-101739678D02*
X139755192Y-101701583D01*
X139755192Y-101701583D02*
X139717097Y-101625392D01*
X139717097Y-101625392D02*
X139717097Y-101473011D01*
X139717097Y-101473011D02*
X139755192Y-101396821D01*
X139755192Y-101396821D02*
X139793287Y-101358726D01*
X139793287Y-101358726D02*
X139869478Y-101320630D01*
%TO.C,C37*%
X151566144Y-105841964D02*
X151604240Y-105803868D01*
X151604240Y-105803868D02*
X151642335Y-105689583D01*
X151642335Y-105689583D02*
X151642335Y-105613392D01*
X151642335Y-105613392D02*
X151604240Y-105499106D01*
X151604240Y-105499106D02*
X151528049Y-105422916D01*
X151528049Y-105422916D02*
X151451859Y-105384821D01*
X151451859Y-105384821D02*
X151299478Y-105346725D01*
X151299478Y-105346725D02*
X151185192Y-105346725D01*
X151185192Y-105346725D02*
X151032811Y-105384821D01*
X151032811Y-105384821D02*
X150956620Y-105422916D01*
X150956620Y-105422916D02*
X150880430Y-105499106D01*
X150880430Y-105499106D02*
X150842335Y-105613392D01*
X150842335Y-105613392D02*
X150842335Y-105689583D01*
X150842335Y-105689583D02*
X150880430Y-105803868D01*
X150880430Y-105803868D02*
X150918525Y-105841964D01*
X150842335Y-106108630D02*
X150842335Y-106603868D01*
X150842335Y-106603868D02*
X151147097Y-106337202D01*
X151147097Y-106337202D02*
X151147097Y-106451487D01*
X151147097Y-106451487D02*
X151185192Y-106527678D01*
X151185192Y-106527678D02*
X151223287Y-106565773D01*
X151223287Y-106565773D02*
X151299478Y-106603868D01*
X151299478Y-106603868D02*
X151489954Y-106603868D01*
X151489954Y-106603868D02*
X151566144Y-106565773D01*
X151566144Y-106565773D02*
X151604240Y-106527678D01*
X151604240Y-106527678D02*
X151642335Y-106451487D01*
X151642335Y-106451487D02*
X151642335Y-106222916D01*
X151642335Y-106222916D02*
X151604240Y-106146725D01*
X151604240Y-106146725D02*
X151566144Y-106108630D01*
X150842335Y-106870535D02*
X150842335Y-107403869D01*
X150842335Y-107403869D02*
X151642335Y-107061011D01*
%TO.C,C43*%
X147756144Y-105841964D02*
X147794240Y-105803868D01*
X147794240Y-105803868D02*
X147832335Y-105689583D01*
X147832335Y-105689583D02*
X147832335Y-105613392D01*
X147832335Y-105613392D02*
X147794240Y-105499106D01*
X147794240Y-105499106D02*
X147718049Y-105422916D01*
X147718049Y-105422916D02*
X147641859Y-105384821D01*
X147641859Y-105384821D02*
X147489478Y-105346725D01*
X147489478Y-105346725D02*
X147375192Y-105346725D01*
X147375192Y-105346725D02*
X147222811Y-105384821D01*
X147222811Y-105384821D02*
X147146620Y-105422916D01*
X147146620Y-105422916D02*
X147070430Y-105499106D01*
X147070430Y-105499106D02*
X147032335Y-105613392D01*
X147032335Y-105613392D02*
X147032335Y-105689583D01*
X147032335Y-105689583D02*
X147070430Y-105803868D01*
X147070430Y-105803868D02*
X147108525Y-105841964D01*
X147299001Y-106527678D02*
X147832335Y-106527678D01*
X146994240Y-106337202D02*
X147565668Y-106146725D01*
X147565668Y-106146725D02*
X147565668Y-106641964D01*
X147032335Y-106870535D02*
X147032335Y-107365773D01*
X147032335Y-107365773D02*
X147337097Y-107099107D01*
X147337097Y-107099107D02*
X147337097Y-107213392D01*
X147337097Y-107213392D02*
X147375192Y-107289583D01*
X147375192Y-107289583D02*
X147413287Y-107327678D01*
X147413287Y-107327678D02*
X147489478Y-107365773D01*
X147489478Y-107365773D02*
X147679954Y-107365773D01*
X147679954Y-107365773D02*
X147756144Y-107327678D01*
X147756144Y-107327678D02*
X147794240Y-107289583D01*
X147794240Y-107289583D02*
X147832335Y-107213392D01*
X147832335Y-107213392D02*
X147832335Y-106984821D01*
X147832335Y-106984821D02*
X147794240Y-106908630D01*
X147794240Y-106908630D02*
X147756144Y-106870535D01*
%TO.C,C35*%
X143946144Y-100253964D02*
X143984240Y-100215868D01*
X143984240Y-100215868D02*
X144022335Y-100101583D01*
X144022335Y-100101583D02*
X144022335Y-100025392D01*
X144022335Y-100025392D02*
X143984240Y-99911106D01*
X143984240Y-99911106D02*
X143908049Y-99834916D01*
X143908049Y-99834916D02*
X143831859Y-99796821D01*
X143831859Y-99796821D02*
X143679478Y-99758725D01*
X143679478Y-99758725D02*
X143565192Y-99758725D01*
X143565192Y-99758725D02*
X143412811Y-99796821D01*
X143412811Y-99796821D02*
X143336620Y-99834916D01*
X143336620Y-99834916D02*
X143260430Y-99911106D01*
X143260430Y-99911106D02*
X143222335Y-100025392D01*
X143222335Y-100025392D02*
X143222335Y-100101583D01*
X143222335Y-100101583D02*
X143260430Y-100215868D01*
X143260430Y-100215868D02*
X143298525Y-100253964D01*
X143222335Y-100520630D02*
X143222335Y-101015868D01*
X143222335Y-101015868D02*
X143527097Y-100749202D01*
X143527097Y-100749202D02*
X143527097Y-100863487D01*
X143527097Y-100863487D02*
X143565192Y-100939678D01*
X143565192Y-100939678D02*
X143603287Y-100977773D01*
X143603287Y-100977773D02*
X143679478Y-101015868D01*
X143679478Y-101015868D02*
X143869954Y-101015868D01*
X143869954Y-101015868D02*
X143946144Y-100977773D01*
X143946144Y-100977773D02*
X143984240Y-100939678D01*
X143984240Y-100939678D02*
X144022335Y-100863487D01*
X144022335Y-100863487D02*
X144022335Y-100634916D01*
X144022335Y-100634916D02*
X143984240Y-100558725D01*
X143984240Y-100558725D02*
X143946144Y-100520630D01*
X143222335Y-101739678D02*
X143222335Y-101358726D01*
X143222335Y-101358726D02*
X143603287Y-101320630D01*
X143603287Y-101320630D02*
X143565192Y-101358726D01*
X143565192Y-101358726D02*
X143527097Y-101434916D01*
X143527097Y-101434916D02*
X143527097Y-101625392D01*
X143527097Y-101625392D02*
X143565192Y-101701583D01*
X143565192Y-101701583D02*
X143603287Y-101739678D01*
X143603287Y-101739678D02*
X143679478Y-101777773D01*
X143679478Y-101777773D02*
X143869954Y-101777773D01*
X143869954Y-101777773D02*
X143946144Y-101739678D01*
X143946144Y-101739678D02*
X143984240Y-101701583D01*
X143984240Y-101701583D02*
X144022335Y-101625392D01*
X144022335Y-101625392D02*
X144022335Y-101434916D01*
X144022335Y-101434916D02*
X143984240Y-101358726D01*
X143984240Y-101358726D02*
X143946144Y-101320630D01*
%TO.C,C20*%
X159186144Y-94411964D02*
X159224240Y-94373868D01*
X159224240Y-94373868D02*
X159262335Y-94259583D01*
X159262335Y-94259583D02*
X159262335Y-94183392D01*
X159262335Y-94183392D02*
X159224240Y-94069106D01*
X159224240Y-94069106D02*
X159148049Y-93992916D01*
X159148049Y-93992916D02*
X159071859Y-93954821D01*
X159071859Y-93954821D02*
X158919478Y-93916725D01*
X158919478Y-93916725D02*
X158805192Y-93916725D01*
X158805192Y-93916725D02*
X158652811Y-93954821D01*
X158652811Y-93954821D02*
X158576620Y-93992916D01*
X158576620Y-93992916D02*
X158500430Y-94069106D01*
X158500430Y-94069106D02*
X158462335Y-94183392D01*
X158462335Y-94183392D02*
X158462335Y-94259583D01*
X158462335Y-94259583D02*
X158500430Y-94373868D01*
X158500430Y-94373868D02*
X158538525Y-94411964D01*
X158538525Y-94716725D02*
X158500430Y-94754821D01*
X158500430Y-94754821D02*
X158462335Y-94831011D01*
X158462335Y-94831011D02*
X158462335Y-95021487D01*
X158462335Y-95021487D02*
X158500430Y-95097678D01*
X158500430Y-95097678D02*
X158538525Y-95135773D01*
X158538525Y-95135773D02*
X158614716Y-95173868D01*
X158614716Y-95173868D02*
X158690906Y-95173868D01*
X158690906Y-95173868D02*
X158805192Y-95135773D01*
X158805192Y-95135773D02*
X159262335Y-94678630D01*
X159262335Y-94678630D02*
X159262335Y-95173868D01*
X158462335Y-95669107D02*
X158462335Y-95745297D01*
X158462335Y-95745297D02*
X158500430Y-95821488D01*
X158500430Y-95821488D02*
X158538525Y-95859583D01*
X158538525Y-95859583D02*
X158614716Y-95897678D01*
X158614716Y-95897678D02*
X158767097Y-95935773D01*
X158767097Y-95935773D02*
X158957573Y-95935773D01*
X158957573Y-95935773D02*
X159109954Y-95897678D01*
X159109954Y-95897678D02*
X159186144Y-95859583D01*
X159186144Y-95859583D02*
X159224240Y-95821488D01*
X159224240Y-95821488D02*
X159262335Y-95745297D01*
X159262335Y-95745297D02*
X159262335Y-95669107D01*
X159262335Y-95669107D02*
X159224240Y-95592916D01*
X159224240Y-95592916D02*
X159186144Y-95554821D01*
X159186144Y-95554821D02*
X159109954Y-95516726D01*
X159109954Y-95516726D02*
X158957573Y-95478630D01*
X158957573Y-95478630D02*
X158767097Y-95478630D01*
X158767097Y-95478630D02*
X158614716Y-95516726D01*
X158614716Y-95516726D02*
X158538525Y-95554821D01*
X158538525Y-95554821D02*
X158500430Y-95592916D01*
X158500430Y-95592916D02*
X158462335Y-95669107D01*
%TO.C,C2*%
X140136144Y-94792917D02*
X140174240Y-94754821D01*
X140174240Y-94754821D02*
X140212335Y-94640536D01*
X140212335Y-94640536D02*
X140212335Y-94564345D01*
X140212335Y-94564345D02*
X140174240Y-94450059D01*
X140174240Y-94450059D02*
X140098049Y-94373869D01*
X140098049Y-94373869D02*
X140021859Y-94335774D01*
X140021859Y-94335774D02*
X139869478Y-94297678D01*
X139869478Y-94297678D02*
X139755192Y-94297678D01*
X139755192Y-94297678D02*
X139602811Y-94335774D01*
X139602811Y-94335774D02*
X139526620Y-94373869D01*
X139526620Y-94373869D02*
X139450430Y-94450059D01*
X139450430Y-94450059D02*
X139412335Y-94564345D01*
X139412335Y-94564345D02*
X139412335Y-94640536D01*
X139412335Y-94640536D02*
X139450430Y-94754821D01*
X139450430Y-94754821D02*
X139488525Y-94792917D01*
X139488525Y-95097678D02*
X139450430Y-95135774D01*
X139450430Y-95135774D02*
X139412335Y-95211964D01*
X139412335Y-95211964D02*
X139412335Y-95402440D01*
X139412335Y-95402440D02*
X139450430Y-95478631D01*
X139450430Y-95478631D02*
X139488525Y-95516726D01*
X139488525Y-95516726D02*
X139564716Y-95554821D01*
X139564716Y-95554821D02*
X139640906Y-95554821D01*
X139640906Y-95554821D02*
X139755192Y-95516726D01*
X139755192Y-95516726D02*
X140212335Y-95059583D01*
X140212335Y-95059583D02*
X140212335Y-95554821D01*
%TO.C,C22*%
X136072144Y-94665964D02*
X136110240Y-94627868D01*
X136110240Y-94627868D02*
X136148335Y-94513583D01*
X136148335Y-94513583D02*
X136148335Y-94437392D01*
X136148335Y-94437392D02*
X136110240Y-94323106D01*
X136110240Y-94323106D02*
X136034049Y-94246916D01*
X136034049Y-94246916D02*
X135957859Y-94208821D01*
X135957859Y-94208821D02*
X135805478Y-94170725D01*
X135805478Y-94170725D02*
X135691192Y-94170725D01*
X135691192Y-94170725D02*
X135538811Y-94208821D01*
X135538811Y-94208821D02*
X135462620Y-94246916D01*
X135462620Y-94246916D02*
X135386430Y-94323106D01*
X135386430Y-94323106D02*
X135348335Y-94437392D01*
X135348335Y-94437392D02*
X135348335Y-94513583D01*
X135348335Y-94513583D02*
X135386430Y-94627868D01*
X135386430Y-94627868D02*
X135424525Y-94665964D01*
X135424525Y-94970725D02*
X135386430Y-95008821D01*
X135386430Y-95008821D02*
X135348335Y-95085011D01*
X135348335Y-95085011D02*
X135348335Y-95275487D01*
X135348335Y-95275487D02*
X135386430Y-95351678D01*
X135386430Y-95351678D02*
X135424525Y-95389773D01*
X135424525Y-95389773D02*
X135500716Y-95427868D01*
X135500716Y-95427868D02*
X135576906Y-95427868D01*
X135576906Y-95427868D02*
X135691192Y-95389773D01*
X135691192Y-95389773D02*
X136148335Y-94932630D01*
X136148335Y-94932630D02*
X136148335Y-95427868D01*
X135424525Y-95732630D02*
X135386430Y-95770726D01*
X135386430Y-95770726D02*
X135348335Y-95846916D01*
X135348335Y-95846916D02*
X135348335Y-96037392D01*
X135348335Y-96037392D02*
X135386430Y-96113583D01*
X135386430Y-96113583D02*
X135424525Y-96151678D01*
X135424525Y-96151678D02*
X135500716Y-96189773D01*
X135500716Y-96189773D02*
X135576906Y-96189773D01*
X135576906Y-96189773D02*
X135691192Y-96151678D01*
X135691192Y-96151678D02*
X136148335Y-95694535D01*
X136148335Y-95694535D02*
X136148335Y-96189773D01*
%TO.C,C7*%
X141913906Y-115359630D02*
X141961525Y-115407250D01*
X141961525Y-115407250D02*
X142104382Y-115454869D01*
X142104382Y-115454869D02*
X142199620Y-115454869D01*
X142199620Y-115454869D02*
X142342477Y-115407250D01*
X142342477Y-115407250D02*
X142437715Y-115312011D01*
X142437715Y-115312011D02*
X142485334Y-115216773D01*
X142485334Y-115216773D02*
X142532953Y-115026297D01*
X142532953Y-115026297D02*
X142532953Y-114883440D01*
X142532953Y-114883440D02*
X142485334Y-114692964D01*
X142485334Y-114692964D02*
X142437715Y-114597726D01*
X142437715Y-114597726D02*
X142342477Y-114502488D01*
X142342477Y-114502488D02*
X142199620Y-114454869D01*
X142199620Y-114454869D02*
X142104382Y-114454869D01*
X142104382Y-114454869D02*
X141961525Y-114502488D01*
X141961525Y-114502488D02*
X141913906Y-114550107D01*
X141580572Y-114454869D02*
X140913906Y-114454869D01*
X140913906Y-114454869D02*
X141342477Y-115454869D01*
%TO.C,C1*%
X155376144Y-100634917D02*
X155414240Y-100596821D01*
X155414240Y-100596821D02*
X155452335Y-100482536D01*
X155452335Y-100482536D02*
X155452335Y-100406345D01*
X155452335Y-100406345D02*
X155414240Y-100292059D01*
X155414240Y-100292059D02*
X155338049Y-100215869D01*
X155338049Y-100215869D02*
X155261859Y-100177774D01*
X155261859Y-100177774D02*
X155109478Y-100139678D01*
X155109478Y-100139678D02*
X154995192Y-100139678D01*
X154995192Y-100139678D02*
X154842811Y-100177774D01*
X154842811Y-100177774D02*
X154766620Y-100215869D01*
X154766620Y-100215869D02*
X154690430Y-100292059D01*
X154690430Y-100292059D02*
X154652335Y-100406345D01*
X154652335Y-100406345D02*
X154652335Y-100482536D01*
X154652335Y-100482536D02*
X154690430Y-100596821D01*
X154690430Y-100596821D02*
X154728525Y-100634917D01*
X155452335Y-101396821D02*
X155452335Y-100939678D01*
X155452335Y-101168250D02*
X154652335Y-101168250D01*
X154652335Y-101168250D02*
X154766620Y-101092059D01*
X154766620Y-101092059D02*
X154842811Y-101015869D01*
X154842811Y-101015869D02*
X154880906Y-100939678D01*
%TO.C,C36*%
X155090097Y-80473130D02*
X155137716Y-80520750D01*
X155137716Y-80520750D02*
X155280573Y-80568369D01*
X155280573Y-80568369D02*
X155375811Y-80568369D01*
X155375811Y-80568369D02*
X155518668Y-80520750D01*
X155518668Y-80520750D02*
X155613906Y-80425511D01*
X155613906Y-80425511D02*
X155661525Y-80330273D01*
X155661525Y-80330273D02*
X155709144Y-80139797D01*
X155709144Y-80139797D02*
X155709144Y-79996940D01*
X155709144Y-79996940D02*
X155661525Y-79806464D01*
X155661525Y-79806464D02*
X155613906Y-79711226D01*
X155613906Y-79711226D02*
X155518668Y-79615988D01*
X155518668Y-79615988D02*
X155375811Y-79568369D01*
X155375811Y-79568369D02*
X155280573Y-79568369D01*
X155280573Y-79568369D02*
X155137716Y-79615988D01*
X155137716Y-79615988D02*
X155090097Y-79663607D01*
X154756763Y-79568369D02*
X154137716Y-79568369D01*
X154137716Y-79568369D02*
X154471049Y-79949321D01*
X154471049Y-79949321D02*
X154328192Y-79949321D01*
X154328192Y-79949321D02*
X154232954Y-79996940D01*
X154232954Y-79996940D02*
X154185335Y-80044559D01*
X154185335Y-80044559D02*
X154137716Y-80139797D01*
X154137716Y-80139797D02*
X154137716Y-80377892D01*
X154137716Y-80377892D02*
X154185335Y-80473130D01*
X154185335Y-80473130D02*
X154232954Y-80520750D01*
X154232954Y-80520750D02*
X154328192Y-80568369D01*
X154328192Y-80568369D02*
X154613906Y-80568369D01*
X154613906Y-80568369D02*
X154709144Y-80520750D01*
X154709144Y-80520750D02*
X154756763Y-80473130D01*
X153280573Y-79568369D02*
X153471049Y-79568369D01*
X153471049Y-79568369D02*
X153566287Y-79615988D01*
X153566287Y-79615988D02*
X153613906Y-79663607D01*
X153613906Y-79663607D02*
X153709144Y-79806464D01*
X153709144Y-79806464D02*
X153756763Y-79996940D01*
X153756763Y-79996940D02*
X153756763Y-80377892D01*
X153756763Y-80377892D02*
X153709144Y-80473130D01*
X153709144Y-80473130D02*
X153661525Y-80520750D01*
X153661525Y-80520750D02*
X153566287Y-80568369D01*
X153566287Y-80568369D02*
X153375811Y-80568369D01*
X153375811Y-80568369D02*
X153280573Y-80520750D01*
X153280573Y-80520750D02*
X153232954Y-80473130D01*
X153232954Y-80473130D02*
X153185335Y-80377892D01*
X153185335Y-80377892D02*
X153185335Y-80139797D01*
X153185335Y-80139797D02*
X153232954Y-80044559D01*
X153232954Y-80044559D02*
X153280573Y-79996940D01*
X153280573Y-79996940D02*
X153375811Y-79949321D01*
X153375811Y-79949321D02*
X153566287Y-79949321D01*
X153566287Y-79949321D02*
X153661525Y-79996940D01*
X153661525Y-79996940D02*
X153709144Y-80044559D01*
X153709144Y-80044559D02*
X153756763Y-80139797D01*
%TO.C,C31*%
X153820097Y-115359630D02*
X153867716Y-115407250D01*
X153867716Y-115407250D02*
X154010573Y-115454869D01*
X154010573Y-115454869D02*
X154105811Y-115454869D01*
X154105811Y-115454869D02*
X154248668Y-115407250D01*
X154248668Y-115407250D02*
X154343906Y-115312011D01*
X154343906Y-115312011D02*
X154391525Y-115216773D01*
X154391525Y-115216773D02*
X154439144Y-115026297D01*
X154439144Y-115026297D02*
X154439144Y-114883440D01*
X154439144Y-114883440D02*
X154391525Y-114692964D01*
X154391525Y-114692964D02*
X154343906Y-114597726D01*
X154343906Y-114597726D02*
X154248668Y-114502488D01*
X154248668Y-114502488D02*
X154105811Y-114454869D01*
X154105811Y-114454869D02*
X154010573Y-114454869D01*
X154010573Y-114454869D02*
X153867716Y-114502488D01*
X153867716Y-114502488D02*
X153820097Y-114550107D01*
X153486763Y-114454869D02*
X152867716Y-114454869D01*
X152867716Y-114454869D02*
X153201049Y-114835821D01*
X153201049Y-114835821D02*
X153058192Y-114835821D01*
X153058192Y-114835821D02*
X152962954Y-114883440D01*
X152962954Y-114883440D02*
X152915335Y-114931059D01*
X152915335Y-114931059D02*
X152867716Y-115026297D01*
X152867716Y-115026297D02*
X152867716Y-115264392D01*
X152867716Y-115264392D02*
X152915335Y-115359630D01*
X152915335Y-115359630D02*
X152962954Y-115407250D01*
X152962954Y-115407250D02*
X153058192Y-115454869D01*
X153058192Y-115454869D02*
X153343906Y-115454869D01*
X153343906Y-115454869D02*
X153439144Y-115407250D01*
X153439144Y-115407250D02*
X153486763Y-115359630D01*
X151915335Y-115454869D02*
X152486763Y-115454869D01*
X152201049Y-115454869D02*
X152201049Y-114454869D01*
X152201049Y-114454869D02*
X152296287Y-114597726D01*
X152296287Y-114597726D02*
X152391525Y-114692964D01*
X152391525Y-114692964D02*
X152486763Y-114740583D01*
%TO.C,C30*%
X140136144Y-105841964D02*
X140174240Y-105803868D01*
X140174240Y-105803868D02*
X140212335Y-105689583D01*
X140212335Y-105689583D02*
X140212335Y-105613392D01*
X140212335Y-105613392D02*
X140174240Y-105499106D01*
X140174240Y-105499106D02*
X140098049Y-105422916D01*
X140098049Y-105422916D02*
X140021859Y-105384821D01*
X140021859Y-105384821D02*
X139869478Y-105346725D01*
X139869478Y-105346725D02*
X139755192Y-105346725D01*
X139755192Y-105346725D02*
X139602811Y-105384821D01*
X139602811Y-105384821D02*
X139526620Y-105422916D01*
X139526620Y-105422916D02*
X139450430Y-105499106D01*
X139450430Y-105499106D02*
X139412335Y-105613392D01*
X139412335Y-105613392D02*
X139412335Y-105689583D01*
X139412335Y-105689583D02*
X139450430Y-105803868D01*
X139450430Y-105803868D02*
X139488525Y-105841964D01*
X139412335Y-106108630D02*
X139412335Y-106603868D01*
X139412335Y-106603868D02*
X139717097Y-106337202D01*
X139717097Y-106337202D02*
X139717097Y-106451487D01*
X139717097Y-106451487D02*
X139755192Y-106527678D01*
X139755192Y-106527678D02*
X139793287Y-106565773D01*
X139793287Y-106565773D02*
X139869478Y-106603868D01*
X139869478Y-106603868D02*
X140059954Y-106603868D01*
X140059954Y-106603868D02*
X140136144Y-106565773D01*
X140136144Y-106565773D02*
X140174240Y-106527678D01*
X140174240Y-106527678D02*
X140212335Y-106451487D01*
X140212335Y-106451487D02*
X140212335Y-106222916D01*
X140212335Y-106222916D02*
X140174240Y-106146725D01*
X140174240Y-106146725D02*
X140136144Y-106108630D01*
X139412335Y-107099107D02*
X139412335Y-107175297D01*
X139412335Y-107175297D02*
X139450430Y-107251488D01*
X139450430Y-107251488D02*
X139488525Y-107289583D01*
X139488525Y-107289583D02*
X139564716Y-107327678D01*
X139564716Y-107327678D02*
X139717097Y-107365773D01*
X139717097Y-107365773D02*
X139907573Y-107365773D01*
X139907573Y-107365773D02*
X140059954Y-107327678D01*
X140059954Y-107327678D02*
X140136144Y-107289583D01*
X140136144Y-107289583D02*
X140174240Y-107251488D01*
X140174240Y-107251488D02*
X140212335Y-107175297D01*
X140212335Y-107175297D02*
X140212335Y-107099107D01*
X140212335Y-107099107D02*
X140174240Y-107022916D01*
X140174240Y-107022916D02*
X140136144Y-106984821D01*
X140136144Y-106984821D02*
X140059954Y-106946726D01*
X140059954Y-106946726D02*
X139907573Y-106908630D01*
X139907573Y-106908630D02*
X139717097Y-106908630D01*
X139717097Y-106908630D02*
X139564716Y-106946726D01*
X139564716Y-106946726D02*
X139488525Y-106984821D01*
X139488525Y-106984821D02*
X139450430Y-107022916D01*
X139450430Y-107022916D02*
X139412335Y-107099107D01*
D11*
%TO.C,C6*%
X146917240Y-94341998D02*
X146917240Y-95764502D01*
X144197240Y-94341998D02*
X144197240Y-95764502D01*
%TO.C,C4*%
X151817240Y-101479502D02*
X151817240Y-100056998D01*
X154537240Y-101479502D02*
X154537240Y-100056998D01*
%TO.C,C39*%
X165967240Y-105771998D02*
X165967240Y-107194502D01*
X163247240Y-105771998D02*
X163247240Y-107194502D01*
%TO.C,C9*%
X148007240Y-101479502D02*
X148007240Y-100056998D01*
X150727240Y-101479502D02*
X150727240Y-100056998D01*
%TO.C,C21*%
X154537240Y-94341998D02*
X154537240Y-95764502D01*
X151817240Y-94341998D02*
X151817240Y-95764502D01*
%TO.C,C28*%
X136577240Y-101479502D02*
X136577240Y-100056998D01*
X139297240Y-101479502D02*
X139297240Y-100056998D01*
%TO.C,C24*%
X139297240Y-105771998D02*
X139297240Y-107194502D01*
X136577240Y-105771998D02*
X136577240Y-107194502D01*
%TO.C,C19*%
X155627240Y-112567002D02*
X155627240Y-111144498D01*
X158347240Y-112567002D02*
X158347240Y-111144498D01*
%TO.C,C12*%
X135487240Y-105771998D02*
X135487240Y-107194502D01*
X132767240Y-105771998D02*
X132767240Y-107194502D01*
%TO.C,C27*%
X136577240Y-112517002D02*
X136577240Y-111094498D01*
X139297240Y-112517002D02*
X139297240Y-111094498D01*
%TO.C,C42*%
X158347240Y-94341998D02*
X158347240Y-95764502D01*
X155627240Y-94341998D02*
X155627240Y-95764502D01*
%TO.C,C32*%
X162157240Y-105771998D02*
X162157240Y-107194502D01*
X159437240Y-105771998D02*
X159437240Y-107194502D01*
%TO.C,C41*%
X158347240Y-105771998D02*
X158347240Y-107194502D01*
X155627240Y-105771998D02*
X155627240Y-107194502D01*
%TO.C,C34*%
X155807240Y-88626998D02*
X155807240Y-90049502D01*
X153087240Y-88626998D02*
X153087240Y-90049502D01*
%TO.C,C15*%
X159437240Y-112517002D02*
X159437240Y-111094498D01*
X162157240Y-112517002D02*
X162157240Y-111094498D01*
%TO.C,C23*%
X159437240Y-101479502D02*
X159437240Y-100056998D01*
X162157240Y-101479502D02*
X162157240Y-100056998D01*
%TO.C,C13*%
X145647240Y-88626998D02*
X145647240Y-90049502D01*
X142927240Y-88626998D02*
X142927240Y-90049502D01*
%TO.C,C40*%
X144197240Y-112517002D02*
X144197240Y-111094498D01*
X146917240Y-112517002D02*
X146917240Y-111094498D01*
%TO.C,C33*%
X148007240Y-112567002D02*
X148007240Y-111144498D01*
X150727240Y-112567002D02*
X150727240Y-111144498D01*
%TO.C,C18*%
X146917240Y-105771998D02*
X146917240Y-107194502D01*
X144197240Y-105771998D02*
X144197240Y-107194502D01*
%TO.C,C38*%
X142927240Y-84334502D02*
X142927240Y-82911998D01*
X145647240Y-84334502D02*
X145647240Y-82911998D01*
%TO.C,C8*%
X150727240Y-94341998D02*
X150727240Y-95764502D01*
X148007240Y-94341998D02*
X148007240Y-95764502D01*
%TO.C,C16*%
X140387240Y-101479502D02*
X140387240Y-100056998D01*
X143107240Y-101479502D02*
X143107240Y-100056998D01*
%TO.C,C37*%
X154537240Y-105771998D02*
X154537240Y-107194502D01*
X151817240Y-105771998D02*
X151817240Y-107194502D01*
%TO.C,C43*%
X150727240Y-105771998D02*
X150727240Y-107194502D01*
X148007240Y-105771998D02*
X148007240Y-107194502D01*
%TO.C,C35*%
X144197240Y-101479502D02*
X144197240Y-100056998D01*
X146917240Y-101479502D02*
X146917240Y-100056998D01*
%TO.C,C20*%
X162157240Y-94341998D02*
X162157240Y-95764502D01*
X159437240Y-94341998D02*
X159437240Y-95764502D01*
%TO.C,C2*%
X143107240Y-94341998D02*
X143107240Y-95764502D01*
X140387240Y-94341998D02*
X140387240Y-95764502D01*
%TO.C,C22*%
X139297240Y-94341998D02*
X139297240Y-95764502D01*
X136577240Y-94341998D02*
X136577240Y-95764502D01*
%TO.C,C7*%
X140387240Y-112517002D02*
X140387240Y-111094498D01*
X143107240Y-112517002D02*
X143107240Y-111094498D01*
%TO.C,C1*%
X155627240Y-101529502D02*
X155627240Y-100106998D01*
X158347240Y-101529502D02*
X158347240Y-100106998D01*
%TO.C,C36*%
X153087240Y-84334502D02*
X153087240Y-82911998D01*
X155807240Y-84334502D02*
X155807240Y-82911998D01*
%TO.C,C31*%
X151817240Y-112567002D02*
X151817240Y-111144498D01*
X154537240Y-112567002D02*
X154537240Y-111144498D01*
%TO.C,C30*%
X143107240Y-105771998D02*
X143107240Y-107194502D01*
X140387240Y-105771998D02*
X140387240Y-107194502D01*
%TD*%
M02*
