%TF.GenerationSoftware,KiCad,Pcbnew,7.0.1*%
%TF.CreationDate,2024-07-26T16:33:55+03:00*%
%TF.ProjectId,_______ _____,21383b3e-3230-44f2-903f-3b3042302e6b,rev?*%
%TF.SameCoordinates,Original*%
%TF.FileFunction,Legend,Top*%
%TF.FilePolarity,Positive*%
%FSLAX46Y46*%
G04 Gerber Fmt 4.6, Leading zero omitted, Abs format (unit mm)*
G04 Created by KiCad (PCBNEW 7.0.1) date 2024-07-26 16:33:55*
%MOMM*%
%LPD*%
G01*
G04 APERTURE LIST*
%ADD10C,0.150000*%
%ADD11C,0.300000*%
%ADD12C,0.120000*%
%ADD13C,0.200000*%
G04 APERTURE END LIST*
D10*
%TO.C,C14*%
X144915954Y-98014154D02*
X144877858Y-98052250D01*
X144877858Y-98052250D02*
X144763573Y-98090345D01*
X144763573Y-98090345D02*
X144687382Y-98090345D01*
X144687382Y-98090345D02*
X144573096Y-98052250D01*
X144573096Y-98052250D02*
X144496906Y-97976059D01*
X144496906Y-97976059D02*
X144458811Y-97899869D01*
X144458811Y-97899869D02*
X144420715Y-97747488D01*
X144420715Y-97747488D02*
X144420715Y-97633202D01*
X144420715Y-97633202D02*
X144458811Y-97480821D01*
X144458811Y-97480821D02*
X144496906Y-97404630D01*
X144496906Y-97404630D02*
X144573096Y-97328440D01*
X144573096Y-97328440D02*
X144687382Y-97290345D01*
X144687382Y-97290345D02*
X144763573Y-97290345D01*
X144763573Y-97290345D02*
X144877858Y-97328440D01*
X144877858Y-97328440D02*
X144915954Y-97366535D01*
X145677858Y-98090345D02*
X145220715Y-98090345D01*
X145449287Y-98090345D02*
X145449287Y-97290345D01*
X145449287Y-97290345D02*
X145373096Y-97404630D01*
X145373096Y-97404630D02*
X145296906Y-97480821D01*
X145296906Y-97480821D02*
X145220715Y-97518916D01*
X146363573Y-97557011D02*
X146363573Y-98090345D01*
X146173097Y-97252250D02*
X145982620Y-97823678D01*
X145982620Y-97823678D02*
X146477859Y-97823678D01*
%TO.C,J8*%
X131888906Y-121058869D02*
X131888906Y-121773154D01*
X131888906Y-121773154D02*
X131841287Y-121916011D01*
X131841287Y-121916011D02*
X131746049Y-122011250D01*
X131746049Y-122011250D02*
X131603192Y-122058869D01*
X131603192Y-122058869D02*
X131507954Y-122058869D01*
X132507954Y-121487440D02*
X132412716Y-121439821D01*
X132412716Y-121439821D02*
X132365097Y-121392202D01*
X132365097Y-121392202D02*
X132317478Y-121296964D01*
X132317478Y-121296964D02*
X132317478Y-121249345D01*
X132317478Y-121249345D02*
X132365097Y-121154107D01*
X132365097Y-121154107D02*
X132412716Y-121106488D01*
X132412716Y-121106488D02*
X132507954Y-121058869D01*
X132507954Y-121058869D02*
X132698430Y-121058869D01*
X132698430Y-121058869D02*
X132793668Y-121106488D01*
X132793668Y-121106488D02*
X132841287Y-121154107D01*
X132841287Y-121154107D02*
X132888906Y-121249345D01*
X132888906Y-121249345D02*
X132888906Y-121296964D01*
X132888906Y-121296964D02*
X132841287Y-121392202D01*
X132841287Y-121392202D02*
X132793668Y-121439821D01*
X132793668Y-121439821D02*
X132698430Y-121487440D01*
X132698430Y-121487440D02*
X132507954Y-121487440D01*
X132507954Y-121487440D02*
X132412716Y-121535059D01*
X132412716Y-121535059D02*
X132365097Y-121582678D01*
X132365097Y-121582678D02*
X132317478Y-121677916D01*
X132317478Y-121677916D02*
X132317478Y-121868392D01*
X132317478Y-121868392D02*
X132365097Y-121963630D01*
X132365097Y-121963630D02*
X132412716Y-122011250D01*
X132412716Y-122011250D02*
X132507954Y-122058869D01*
X132507954Y-122058869D02*
X132698430Y-122058869D01*
X132698430Y-122058869D02*
X132793668Y-122011250D01*
X132793668Y-122011250D02*
X132841287Y-121963630D01*
X132841287Y-121963630D02*
X132888906Y-121868392D01*
X132888906Y-121868392D02*
X132888906Y-121677916D01*
X132888906Y-121677916D02*
X132841287Y-121582678D01*
X132841287Y-121582678D02*
X132793668Y-121535059D01*
X132793668Y-121535059D02*
X132698430Y-121487440D01*
%TO.C,J4*%
X126808906Y-52478869D02*
X126808906Y-53193154D01*
X126808906Y-53193154D02*
X126761287Y-53336011D01*
X126761287Y-53336011D02*
X126666049Y-53431250D01*
X126666049Y-53431250D02*
X126523192Y-53478869D01*
X126523192Y-53478869D02*
X126427954Y-53478869D01*
X127713668Y-52812202D02*
X127713668Y-53478869D01*
X127475573Y-52431250D02*
X127237478Y-53145535D01*
X127237478Y-53145535D02*
X127856525Y-53145535D01*
D11*
X133603287Y-58958011D02*
X133508049Y-59053250D01*
X133508049Y-59053250D02*
X133222335Y-59148488D01*
X133222335Y-59148488D02*
X133031859Y-59148488D01*
X133031859Y-59148488D02*
X132746144Y-59053250D01*
X132746144Y-59053250D02*
X132555668Y-58862773D01*
X132555668Y-58862773D02*
X132460430Y-58672297D01*
X132460430Y-58672297D02*
X132365192Y-58291345D01*
X132365192Y-58291345D02*
X132365192Y-58005630D01*
X132365192Y-58005630D02*
X132460430Y-57624678D01*
X132460430Y-57624678D02*
X132555668Y-57434202D01*
X132555668Y-57434202D02*
X132746144Y-57243726D01*
X132746144Y-57243726D02*
X133031859Y-57148488D01*
X133031859Y-57148488D02*
X133222335Y-57148488D01*
X133222335Y-57148488D02*
X133508049Y-57243726D01*
X133508049Y-57243726D02*
X133603287Y-57338964D01*
D10*
%TO.C,J1*%
X171258906Y-52548619D02*
X171258906Y-53262904D01*
X171258906Y-53262904D02*
X171211287Y-53405761D01*
X171211287Y-53405761D02*
X171116049Y-53501000D01*
X171116049Y-53501000D02*
X170973192Y-53548619D01*
X170973192Y-53548619D02*
X170877954Y-53548619D01*
X172258906Y-53548619D02*
X171687478Y-53548619D01*
X171973192Y-53548619D02*
X171973192Y-52548619D01*
X171973192Y-52548619D02*
X171877954Y-52691476D01*
X171877954Y-52691476D02*
X171782716Y-52786714D01*
X171782716Y-52786714D02*
X171687478Y-52834333D01*
D11*
X165274049Y-58577059D02*
X166226430Y-58577059D01*
X165083573Y-59148488D02*
X165750239Y-57148488D01*
X165750239Y-57148488D02*
X166416906Y-59148488D01*
D10*
%TO.C,J2*%
X166813906Y-121058869D02*
X166813906Y-121773154D01*
X166813906Y-121773154D02*
X166766287Y-121916011D01*
X166766287Y-121916011D02*
X166671049Y-122011250D01*
X166671049Y-122011250D02*
X166528192Y-122058869D01*
X166528192Y-122058869D02*
X166432954Y-122058869D01*
X167242478Y-121154107D02*
X167290097Y-121106488D01*
X167290097Y-121106488D02*
X167385335Y-121058869D01*
X167385335Y-121058869D02*
X167623430Y-121058869D01*
X167623430Y-121058869D02*
X167718668Y-121106488D01*
X167718668Y-121106488D02*
X167766287Y-121154107D01*
X167766287Y-121154107D02*
X167813906Y-121249345D01*
X167813906Y-121249345D02*
X167813906Y-121344583D01*
X167813906Y-121344583D02*
X167766287Y-121487440D01*
X167766287Y-121487440D02*
X167194859Y-122058869D01*
X167194859Y-122058869D02*
X167813906Y-122058869D01*
%TO.C,C26*%
X145041382Y-115613630D02*
X144993763Y-115661250D01*
X144993763Y-115661250D02*
X144850906Y-115708869D01*
X144850906Y-115708869D02*
X144755668Y-115708869D01*
X144755668Y-115708869D02*
X144612811Y-115661250D01*
X144612811Y-115661250D02*
X144517573Y-115566011D01*
X144517573Y-115566011D02*
X144469954Y-115470773D01*
X144469954Y-115470773D02*
X144422335Y-115280297D01*
X144422335Y-115280297D02*
X144422335Y-115137440D01*
X144422335Y-115137440D02*
X144469954Y-114946964D01*
X144469954Y-114946964D02*
X144517573Y-114851726D01*
X144517573Y-114851726D02*
X144612811Y-114756488D01*
X144612811Y-114756488D02*
X144755668Y-114708869D01*
X144755668Y-114708869D02*
X144850906Y-114708869D01*
X144850906Y-114708869D02*
X144993763Y-114756488D01*
X144993763Y-114756488D02*
X145041382Y-114804107D01*
X145422335Y-114804107D02*
X145469954Y-114756488D01*
X145469954Y-114756488D02*
X145565192Y-114708869D01*
X145565192Y-114708869D02*
X145803287Y-114708869D01*
X145803287Y-114708869D02*
X145898525Y-114756488D01*
X145898525Y-114756488D02*
X145946144Y-114804107D01*
X145946144Y-114804107D02*
X145993763Y-114899345D01*
X145993763Y-114899345D02*
X145993763Y-114994583D01*
X145993763Y-114994583D02*
X145946144Y-115137440D01*
X145946144Y-115137440D02*
X145374716Y-115708869D01*
X145374716Y-115708869D02*
X145993763Y-115708869D01*
X146850906Y-114708869D02*
X146660430Y-114708869D01*
X146660430Y-114708869D02*
X146565192Y-114756488D01*
X146565192Y-114756488D02*
X146517573Y-114804107D01*
X146517573Y-114804107D02*
X146422335Y-114946964D01*
X146422335Y-114946964D02*
X146374716Y-115137440D01*
X146374716Y-115137440D02*
X146374716Y-115518392D01*
X146374716Y-115518392D02*
X146422335Y-115613630D01*
X146422335Y-115613630D02*
X146469954Y-115661250D01*
X146469954Y-115661250D02*
X146565192Y-115708869D01*
X146565192Y-115708869D02*
X146755668Y-115708869D01*
X146755668Y-115708869D02*
X146850906Y-115661250D01*
X146850906Y-115661250D02*
X146898525Y-115613630D01*
X146898525Y-115613630D02*
X146946144Y-115518392D01*
X146946144Y-115518392D02*
X146946144Y-115280297D01*
X146946144Y-115280297D02*
X146898525Y-115185059D01*
X146898525Y-115185059D02*
X146850906Y-115137440D01*
X146850906Y-115137440D02*
X146755668Y-115089821D01*
X146755668Y-115089821D02*
X146565192Y-115089821D01*
X146565192Y-115089821D02*
X146469954Y-115137440D01*
X146469954Y-115137440D02*
X146422335Y-115185059D01*
X146422335Y-115185059D02*
X146374716Y-115280297D01*
%TO.C,Q6*%
X118919001Y-68941107D02*
X118823763Y-68893488D01*
X118823763Y-68893488D02*
X118728525Y-68798250D01*
X118728525Y-68798250D02*
X118585668Y-68655392D01*
X118585668Y-68655392D02*
X118490430Y-68607773D01*
X118490430Y-68607773D02*
X118395192Y-68607773D01*
X118442811Y-68845869D02*
X118347573Y-68798250D01*
X118347573Y-68798250D02*
X118252335Y-68703011D01*
X118252335Y-68703011D02*
X118204716Y-68512535D01*
X118204716Y-68512535D02*
X118204716Y-68179202D01*
X118204716Y-68179202D02*
X118252335Y-67988726D01*
X118252335Y-67988726D02*
X118347573Y-67893488D01*
X118347573Y-67893488D02*
X118442811Y-67845869D01*
X118442811Y-67845869D02*
X118633287Y-67845869D01*
X118633287Y-67845869D02*
X118728525Y-67893488D01*
X118728525Y-67893488D02*
X118823763Y-67988726D01*
X118823763Y-67988726D02*
X118871382Y-68179202D01*
X118871382Y-68179202D02*
X118871382Y-68512535D01*
X118871382Y-68512535D02*
X118823763Y-68703011D01*
X118823763Y-68703011D02*
X118728525Y-68798250D01*
X118728525Y-68798250D02*
X118633287Y-68845869D01*
X118633287Y-68845869D02*
X118442811Y-68845869D01*
X119728525Y-67845869D02*
X119538049Y-67845869D01*
X119538049Y-67845869D02*
X119442811Y-67893488D01*
X119442811Y-67893488D02*
X119395192Y-67941107D01*
X119395192Y-67941107D02*
X119299954Y-68083964D01*
X119299954Y-68083964D02*
X119252335Y-68274440D01*
X119252335Y-68274440D02*
X119252335Y-68655392D01*
X119252335Y-68655392D02*
X119299954Y-68750630D01*
X119299954Y-68750630D02*
X119347573Y-68798250D01*
X119347573Y-68798250D02*
X119442811Y-68845869D01*
X119442811Y-68845869D02*
X119633287Y-68845869D01*
X119633287Y-68845869D02*
X119728525Y-68798250D01*
X119728525Y-68798250D02*
X119776144Y-68750630D01*
X119776144Y-68750630D02*
X119823763Y-68655392D01*
X119823763Y-68655392D02*
X119823763Y-68417297D01*
X119823763Y-68417297D02*
X119776144Y-68322059D01*
X119776144Y-68322059D02*
X119728525Y-68274440D01*
X119728525Y-68274440D02*
X119633287Y-68226821D01*
X119633287Y-68226821D02*
X119442811Y-68226821D01*
X119442811Y-68226821D02*
X119347573Y-68274440D01*
X119347573Y-68274440D02*
X119299954Y-68322059D01*
X119299954Y-68322059D02*
X119252335Y-68417297D01*
%TO.C,C47*%
X151772382Y-65321630D02*
X151724763Y-65369250D01*
X151724763Y-65369250D02*
X151581906Y-65416869D01*
X151581906Y-65416869D02*
X151486668Y-65416869D01*
X151486668Y-65416869D02*
X151343811Y-65369250D01*
X151343811Y-65369250D02*
X151248573Y-65274011D01*
X151248573Y-65274011D02*
X151200954Y-65178773D01*
X151200954Y-65178773D02*
X151153335Y-64988297D01*
X151153335Y-64988297D02*
X151153335Y-64845440D01*
X151153335Y-64845440D02*
X151200954Y-64654964D01*
X151200954Y-64654964D02*
X151248573Y-64559726D01*
X151248573Y-64559726D02*
X151343811Y-64464488D01*
X151343811Y-64464488D02*
X151486668Y-64416869D01*
X151486668Y-64416869D02*
X151581906Y-64416869D01*
X151581906Y-64416869D02*
X151724763Y-64464488D01*
X151724763Y-64464488D02*
X151772382Y-64512107D01*
X152629525Y-64750202D02*
X152629525Y-65416869D01*
X152391430Y-64369250D02*
X152153335Y-65083535D01*
X152153335Y-65083535D02*
X152772382Y-65083535D01*
X153058097Y-64416869D02*
X153724763Y-64416869D01*
X153724763Y-64416869D02*
X153296192Y-65416869D01*
%TO.C,C25*%
X141231382Y-115613630D02*
X141183763Y-115661250D01*
X141183763Y-115661250D02*
X141040906Y-115708869D01*
X141040906Y-115708869D02*
X140945668Y-115708869D01*
X140945668Y-115708869D02*
X140802811Y-115661250D01*
X140802811Y-115661250D02*
X140707573Y-115566011D01*
X140707573Y-115566011D02*
X140659954Y-115470773D01*
X140659954Y-115470773D02*
X140612335Y-115280297D01*
X140612335Y-115280297D02*
X140612335Y-115137440D01*
X140612335Y-115137440D02*
X140659954Y-114946964D01*
X140659954Y-114946964D02*
X140707573Y-114851726D01*
X140707573Y-114851726D02*
X140802811Y-114756488D01*
X140802811Y-114756488D02*
X140945668Y-114708869D01*
X140945668Y-114708869D02*
X141040906Y-114708869D01*
X141040906Y-114708869D02*
X141183763Y-114756488D01*
X141183763Y-114756488D02*
X141231382Y-114804107D01*
X141612335Y-114804107D02*
X141659954Y-114756488D01*
X141659954Y-114756488D02*
X141755192Y-114708869D01*
X141755192Y-114708869D02*
X141993287Y-114708869D01*
X141993287Y-114708869D02*
X142088525Y-114756488D01*
X142088525Y-114756488D02*
X142136144Y-114804107D01*
X142136144Y-114804107D02*
X142183763Y-114899345D01*
X142183763Y-114899345D02*
X142183763Y-114994583D01*
X142183763Y-114994583D02*
X142136144Y-115137440D01*
X142136144Y-115137440D02*
X141564716Y-115708869D01*
X141564716Y-115708869D02*
X142183763Y-115708869D01*
X143088525Y-114708869D02*
X142612335Y-114708869D01*
X142612335Y-114708869D02*
X142564716Y-115185059D01*
X142564716Y-115185059D02*
X142612335Y-115137440D01*
X142612335Y-115137440D02*
X142707573Y-115089821D01*
X142707573Y-115089821D02*
X142945668Y-115089821D01*
X142945668Y-115089821D02*
X143040906Y-115137440D01*
X143040906Y-115137440D02*
X143088525Y-115185059D01*
X143088525Y-115185059D02*
X143136144Y-115280297D01*
X143136144Y-115280297D02*
X143136144Y-115518392D01*
X143136144Y-115518392D02*
X143088525Y-115613630D01*
X143088525Y-115613630D02*
X143040906Y-115661250D01*
X143040906Y-115661250D02*
X142945668Y-115708869D01*
X142945668Y-115708869D02*
X142707573Y-115708869D01*
X142707573Y-115708869D02*
X142612335Y-115661250D01*
X142612335Y-115661250D02*
X142564716Y-115613630D01*
%TO.C,J6*%
X146620906Y-121820869D02*
X146620906Y-122535154D01*
X146620906Y-122535154D02*
X146573287Y-122678011D01*
X146573287Y-122678011D02*
X146478049Y-122773250D01*
X146478049Y-122773250D02*
X146335192Y-122820869D01*
X146335192Y-122820869D02*
X146239954Y-122820869D01*
X147525668Y-121820869D02*
X147335192Y-121820869D01*
X147335192Y-121820869D02*
X147239954Y-121868488D01*
X147239954Y-121868488D02*
X147192335Y-121916107D01*
X147192335Y-121916107D02*
X147097097Y-122058964D01*
X147097097Y-122058964D02*
X147049478Y-122249440D01*
X147049478Y-122249440D02*
X147049478Y-122630392D01*
X147049478Y-122630392D02*
X147097097Y-122725630D01*
X147097097Y-122725630D02*
X147144716Y-122773250D01*
X147144716Y-122773250D02*
X147239954Y-122820869D01*
X147239954Y-122820869D02*
X147430430Y-122820869D01*
X147430430Y-122820869D02*
X147525668Y-122773250D01*
X147525668Y-122773250D02*
X147573287Y-122725630D01*
X147573287Y-122725630D02*
X147620906Y-122630392D01*
X147620906Y-122630392D02*
X147620906Y-122392297D01*
X147620906Y-122392297D02*
X147573287Y-122297059D01*
X147573287Y-122297059D02*
X147525668Y-122249440D01*
X147525668Y-122249440D02*
X147430430Y-122201821D01*
X147430430Y-122201821D02*
X147239954Y-122201821D01*
X147239954Y-122201821D02*
X147144716Y-122249440D01*
X147144716Y-122249440D02*
X147097097Y-122297059D01*
X147097097Y-122297059D02*
X147049478Y-122392297D01*
D11*
X142128526Y-125361488D02*
X142128526Y-123361488D01*
X143080907Y-125361488D02*
X143080907Y-123361488D01*
X143080907Y-123361488D02*
X144223764Y-125361488D01*
X144223764Y-125361488D02*
X144223764Y-123361488D01*
X145176145Y-124599583D02*
X146699955Y-124599583D01*
X145938050Y-125361488D02*
X145938050Y-123837678D01*
D10*
%TO.C,Q7*%
X157019001Y-98278107D02*
X156923763Y-98230488D01*
X156923763Y-98230488D02*
X156828525Y-98135250D01*
X156828525Y-98135250D02*
X156685668Y-97992392D01*
X156685668Y-97992392D02*
X156590430Y-97944773D01*
X156590430Y-97944773D02*
X156495192Y-97944773D01*
X156542811Y-98182869D02*
X156447573Y-98135250D01*
X156447573Y-98135250D02*
X156352335Y-98040011D01*
X156352335Y-98040011D02*
X156304716Y-97849535D01*
X156304716Y-97849535D02*
X156304716Y-97516202D01*
X156304716Y-97516202D02*
X156352335Y-97325726D01*
X156352335Y-97325726D02*
X156447573Y-97230488D01*
X156447573Y-97230488D02*
X156542811Y-97182869D01*
X156542811Y-97182869D02*
X156733287Y-97182869D01*
X156733287Y-97182869D02*
X156828525Y-97230488D01*
X156828525Y-97230488D02*
X156923763Y-97325726D01*
X156923763Y-97325726D02*
X156971382Y-97516202D01*
X156971382Y-97516202D02*
X156971382Y-97849535D01*
X156971382Y-97849535D02*
X156923763Y-98040011D01*
X156923763Y-98040011D02*
X156828525Y-98135250D01*
X156828525Y-98135250D02*
X156733287Y-98182869D01*
X156733287Y-98182869D02*
X156542811Y-98182869D01*
X157304716Y-97182869D02*
X157971382Y-97182869D01*
X157971382Y-97182869D02*
X157542811Y-98182869D01*
%TO.C,D2*%
X178347145Y-79894869D02*
X178347145Y-78894869D01*
X178347145Y-78894869D02*
X178585240Y-78894869D01*
X178585240Y-78894869D02*
X178728097Y-78942488D01*
X178728097Y-78942488D02*
X178823335Y-79037726D01*
X178823335Y-79037726D02*
X178870954Y-79132964D01*
X178870954Y-79132964D02*
X178918573Y-79323440D01*
X178918573Y-79323440D02*
X178918573Y-79466297D01*
X178918573Y-79466297D02*
X178870954Y-79656773D01*
X178870954Y-79656773D02*
X178823335Y-79752011D01*
X178823335Y-79752011D02*
X178728097Y-79847250D01*
X178728097Y-79847250D02*
X178585240Y-79894869D01*
X178585240Y-79894869D02*
X178347145Y-79894869D01*
X179299526Y-78990107D02*
X179347145Y-78942488D01*
X179347145Y-78942488D02*
X179442383Y-78894869D01*
X179442383Y-78894869D02*
X179680478Y-78894869D01*
X179680478Y-78894869D02*
X179775716Y-78942488D01*
X179775716Y-78942488D02*
X179823335Y-78990107D01*
X179823335Y-78990107D02*
X179870954Y-79085345D01*
X179870954Y-79085345D02*
X179870954Y-79180583D01*
X179870954Y-79180583D02*
X179823335Y-79323440D01*
X179823335Y-79323440D02*
X179251907Y-79894869D01*
X179251907Y-79894869D02*
X179870954Y-79894869D01*
%TO.C,C3*%
X137803907Y-98014154D02*
X137765811Y-98052250D01*
X137765811Y-98052250D02*
X137651526Y-98090345D01*
X137651526Y-98090345D02*
X137575335Y-98090345D01*
X137575335Y-98090345D02*
X137461049Y-98052250D01*
X137461049Y-98052250D02*
X137384859Y-97976059D01*
X137384859Y-97976059D02*
X137346764Y-97899869D01*
X137346764Y-97899869D02*
X137308668Y-97747488D01*
X137308668Y-97747488D02*
X137308668Y-97633202D01*
X137308668Y-97633202D02*
X137346764Y-97480821D01*
X137346764Y-97480821D02*
X137384859Y-97404630D01*
X137384859Y-97404630D02*
X137461049Y-97328440D01*
X137461049Y-97328440D02*
X137575335Y-97290345D01*
X137575335Y-97290345D02*
X137651526Y-97290345D01*
X137651526Y-97290345D02*
X137765811Y-97328440D01*
X137765811Y-97328440D02*
X137803907Y-97366535D01*
X138070573Y-97290345D02*
X138565811Y-97290345D01*
X138565811Y-97290345D02*
X138299145Y-97595107D01*
X138299145Y-97595107D02*
X138413430Y-97595107D01*
X138413430Y-97595107D02*
X138489621Y-97633202D01*
X138489621Y-97633202D02*
X138527716Y-97671297D01*
X138527716Y-97671297D02*
X138565811Y-97747488D01*
X138565811Y-97747488D02*
X138565811Y-97937964D01*
X138565811Y-97937964D02*
X138527716Y-98014154D01*
X138527716Y-98014154D02*
X138489621Y-98052250D01*
X138489621Y-98052250D02*
X138413430Y-98090345D01*
X138413430Y-98090345D02*
X138184859Y-98090345D01*
X138184859Y-98090345D02*
X138108668Y-98052250D01*
X138108668Y-98052250D02*
X138070573Y-98014154D01*
%TO.C,J7*%
X149033906Y-67648869D02*
X149033906Y-68363154D01*
X149033906Y-68363154D02*
X148986287Y-68506011D01*
X148986287Y-68506011D02*
X148891049Y-68601250D01*
X148891049Y-68601250D02*
X148748192Y-68648869D01*
X148748192Y-68648869D02*
X148652954Y-68648869D01*
X149414859Y-67648869D02*
X150081525Y-67648869D01*
X150081525Y-67648869D02*
X149652954Y-68648869D01*
%TO.C,J3*%
X149033906Y-38000869D02*
X149033906Y-38715154D01*
X149033906Y-38715154D02*
X148986287Y-38858011D01*
X148986287Y-38858011D02*
X148891049Y-38953250D01*
X148891049Y-38953250D02*
X148748192Y-39000869D01*
X148748192Y-39000869D02*
X148652954Y-39000869D01*
X149414859Y-38000869D02*
X150033906Y-38000869D01*
X150033906Y-38000869D02*
X149700573Y-38381821D01*
X149700573Y-38381821D02*
X149843430Y-38381821D01*
X149843430Y-38381821D02*
X149938668Y-38429440D01*
X149938668Y-38429440D02*
X149986287Y-38477059D01*
X149986287Y-38477059D02*
X150033906Y-38572297D01*
X150033906Y-38572297D02*
X150033906Y-38810392D01*
X150033906Y-38810392D02*
X149986287Y-38905630D01*
X149986287Y-38905630D02*
X149938668Y-38953250D01*
X149938668Y-38953250D02*
X149843430Y-39000869D01*
X149843430Y-39000869D02*
X149557716Y-39000869D01*
X149557716Y-39000869D02*
X149462478Y-38953250D01*
X149462478Y-38953250D02*
X149414859Y-38905630D01*
D11*
X149510097Y-49845869D02*
X149795811Y-49941107D01*
X149795811Y-49941107D02*
X149891049Y-50036345D01*
X149891049Y-50036345D02*
X149986287Y-50226821D01*
X149986287Y-50226821D02*
X149986287Y-50512535D01*
X149986287Y-50512535D02*
X149891049Y-50703011D01*
X149891049Y-50703011D02*
X149795811Y-50798250D01*
X149795811Y-50798250D02*
X149605335Y-50893488D01*
X149605335Y-50893488D02*
X148843430Y-50893488D01*
X148843430Y-50893488D02*
X148843430Y-48893488D01*
X148843430Y-48893488D02*
X149510097Y-48893488D01*
X149510097Y-48893488D02*
X149700573Y-48988726D01*
X149700573Y-48988726D02*
X149795811Y-49083964D01*
X149795811Y-49083964D02*
X149891049Y-49274440D01*
X149891049Y-49274440D02*
X149891049Y-49464916D01*
X149891049Y-49464916D02*
X149795811Y-49655392D01*
X149795811Y-49655392D02*
X149700573Y-49750630D01*
X149700573Y-49750630D02*
X149510097Y-49845869D01*
X149510097Y-49845869D02*
X148843430Y-49845869D01*
D10*
%TO.C,Q3*%
X130857001Y-89388107D02*
X130761763Y-89340488D01*
X130761763Y-89340488D02*
X130666525Y-89245250D01*
X130666525Y-89245250D02*
X130523668Y-89102392D01*
X130523668Y-89102392D02*
X130428430Y-89054773D01*
X130428430Y-89054773D02*
X130333192Y-89054773D01*
X130380811Y-89292869D02*
X130285573Y-89245250D01*
X130285573Y-89245250D02*
X130190335Y-89150011D01*
X130190335Y-89150011D02*
X130142716Y-88959535D01*
X130142716Y-88959535D02*
X130142716Y-88626202D01*
X130142716Y-88626202D02*
X130190335Y-88435726D01*
X130190335Y-88435726D02*
X130285573Y-88340488D01*
X130285573Y-88340488D02*
X130380811Y-88292869D01*
X130380811Y-88292869D02*
X130571287Y-88292869D01*
X130571287Y-88292869D02*
X130666525Y-88340488D01*
X130666525Y-88340488D02*
X130761763Y-88435726D01*
X130761763Y-88435726D02*
X130809382Y-88626202D01*
X130809382Y-88626202D02*
X130809382Y-88959535D01*
X130809382Y-88959535D02*
X130761763Y-89150011D01*
X130761763Y-89150011D02*
X130666525Y-89245250D01*
X130666525Y-89245250D02*
X130571287Y-89292869D01*
X130571287Y-89292869D02*
X130380811Y-89292869D01*
X131142716Y-88292869D02*
X131761763Y-88292869D01*
X131761763Y-88292869D02*
X131428430Y-88673821D01*
X131428430Y-88673821D02*
X131571287Y-88673821D01*
X131571287Y-88673821D02*
X131666525Y-88721440D01*
X131666525Y-88721440D02*
X131714144Y-88769059D01*
X131714144Y-88769059D02*
X131761763Y-88864297D01*
X131761763Y-88864297D02*
X131761763Y-89102392D01*
X131761763Y-89102392D02*
X131714144Y-89197630D01*
X131714144Y-89197630D02*
X131666525Y-89245250D01*
X131666525Y-89245250D02*
X131571287Y-89292869D01*
X131571287Y-89292869D02*
X131285573Y-89292869D01*
X131285573Y-89292869D02*
X131190335Y-89245250D01*
X131190335Y-89245250D02*
X131142716Y-89197630D01*
%TO.C,C53*%
X139565142Y-70217380D02*
X139517523Y-70265000D01*
X139517523Y-70265000D02*
X139374666Y-70312619D01*
X139374666Y-70312619D02*
X139279428Y-70312619D01*
X139279428Y-70312619D02*
X139136571Y-70265000D01*
X139136571Y-70265000D02*
X139041333Y-70169761D01*
X139041333Y-70169761D02*
X138993714Y-70074523D01*
X138993714Y-70074523D02*
X138946095Y-69884047D01*
X138946095Y-69884047D02*
X138946095Y-69741190D01*
X138946095Y-69741190D02*
X138993714Y-69550714D01*
X138993714Y-69550714D02*
X139041333Y-69455476D01*
X139041333Y-69455476D02*
X139136571Y-69360238D01*
X139136571Y-69360238D02*
X139279428Y-69312619D01*
X139279428Y-69312619D02*
X139374666Y-69312619D01*
X139374666Y-69312619D02*
X139517523Y-69360238D01*
X139517523Y-69360238D02*
X139565142Y-69407857D01*
X140469904Y-69312619D02*
X139993714Y-69312619D01*
X139993714Y-69312619D02*
X139946095Y-69788809D01*
X139946095Y-69788809D02*
X139993714Y-69741190D01*
X139993714Y-69741190D02*
X140088952Y-69693571D01*
X140088952Y-69693571D02*
X140327047Y-69693571D01*
X140327047Y-69693571D02*
X140422285Y-69741190D01*
X140422285Y-69741190D02*
X140469904Y-69788809D01*
X140469904Y-69788809D02*
X140517523Y-69884047D01*
X140517523Y-69884047D02*
X140517523Y-70122142D01*
X140517523Y-70122142D02*
X140469904Y-70217380D01*
X140469904Y-70217380D02*
X140422285Y-70265000D01*
X140422285Y-70265000D02*
X140327047Y-70312619D01*
X140327047Y-70312619D02*
X140088952Y-70312619D01*
X140088952Y-70312619D02*
X139993714Y-70265000D01*
X139993714Y-70265000D02*
X139946095Y-70217380D01*
X140850857Y-69312619D02*
X141469904Y-69312619D01*
X141469904Y-69312619D02*
X141136571Y-69693571D01*
X141136571Y-69693571D02*
X141279428Y-69693571D01*
X141279428Y-69693571D02*
X141374666Y-69741190D01*
X141374666Y-69741190D02*
X141422285Y-69788809D01*
X141422285Y-69788809D02*
X141469904Y-69884047D01*
X141469904Y-69884047D02*
X141469904Y-70122142D01*
X141469904Y-70122142D02*
X141422285Y-70217380D01*
X141422285Y-70217380D02*
X141374666Y-70265000D01*
X141374666Y-70265000D02*
X141279428Y-70312619D01*
X141279428Y-70312619D02*
X140993714Y-70312619D01*
X140993714Y-70312619D02*
X140898476Y-70265000D01*
X140898476Y-70265000D02*
X140850857Y-70217380D01*
%TO.C,C54*%
X161917142Y-70217380D02*
X161869523Y-70265000D01*
X161869523Y-70265000D02*
X161726666Y-70312619D01*
X161726666Y-70312619D02*
X161631428Y-70312619D01*
X161631428Y-70312619D02*
X161488571Y-70265000D01*
X161488571Y-70265000D02*
X161393333Y-70169761D01*
X161393333Y-70169761D02*
X161345714Y-70074523D01*
X161345714Y-70074523D02*
X161298095Y-69884047D01*
X161298095Y-69884047D02*
X161298095Y-69741190D01*
X161298095Y-69741190D02*
X161345714Y-69550714D01*
X161345714Y-69550714D02*
X161393333Y-69455476D01*
X161393333Y-69455476D02*
X161488571Y-69360238D01*
X161488571Y-69360238D02*
X161631428Y-69312619D01*
X161631428Y-69312619D02*
X161726666Y-69312619D01*
X161726666Y-69312619D02*
X161869523Y-69360238D01*
X161869523Y-69360238D02*
X161917142Y-69407857D01*
X162821904Y-69312619D02*
X162345714Y-69312619D01*
X162345714Y-69312619D02*
X162298095Y-69788809D01*
X162298095Y-69788809D02*
X162345714Y-69741190D01*
X162345714Y-69741190D02*
X162440952Y-69693571D01*
X162440952Y-69693571D02*
X162679047Y-69693571D01*
X162679047Y-69693571D02*
X162774285Y-69741190D01*
X162774285Y-69741190D02*
X162821904Y-69788809D01*
X162821904Y-69788809D02*
X162869523Y-69884047D01*
X162869523Y-69884047D02*
X162869523Y-70122142D01*
X162869523Y-70122142D02*
X162821904Y-70217380D01*
X162821904Y-70217380D02*
X162774285Y-70265000D01*
X162774285Y-70265000D02*
X162679047Y-70312619D01*
X162679047Y-70312619D02*
X162440952Y-70312619D01*
X162440952Y-70312619D02*
X162345714Y-70265000D01*
X162345714Y-70265000D02*
X162298095Y-70217380D01*
X163726666Y-69645952D02*
X163726666Y-70312619D01*
X163488571Y-69265000D02*
X163250476Y-69979285D01*
X163250476Y-69979285D02*
X163869523Y-69979285D01*
%TO.C,C44*%
X160281382Y-127297630D02*
X160233763Y-127345250D01*
X160233763Y-127345250D02*
X160090906Y-127392869D01*
X160090906Y-127392869D02*
X159995668Y-127392869D01*
X159995668Y-127392869D02*
X159852811Y-127345250D01*
X159852811Y-127345250D02*
X159757573Y-127250011D01*
X159757573Y-127250011D02*
X159709954Y-127154773D01*
X159709954Y-127154773D02*
X159662335Y-126964297D01*
X159662335Y-126964297D02*
X159662335Y-126821440D01*
X159662335Y-126821440D02*
X159709954Y-126630964D01*
X159709954Y-126630964D02*
X159757573Y-126535726D01*
X159757573Y-126535726D02*
X159852811Y-126440488D01*
X159852811Y-126440488D02*
X159995668Y-126392869D01*
X159995668Y-126392869D02*
X160090906Y-126392869D01*
X160090906Y-126392869D02*
X160233763Y-126440488D01*
X160233763Y-126440488D02*
X160281382Y-126488107D01*
X161138525Y-126726202D02*
X161138525Y-127392869D01*
X160900430Y-126345250D02*
X160662335Y-127059535D01*
X160662335Y-127059535D02*
X161281382Y-127059535D01*
X162090906Y-126726202D02*
X162090906Y-127392869D01*
X161852811Y-126345250D02*
X161614716Y-127059535D01*
X161614716Y-127059535D02*
X162233763Y-127059535D01*
%TO.C,D3*%
X145565905Y-63962619D02*
X145565905Y-62962619D01*
X145565905Y-62962619D02*
X145804000Y-62962619D01*
X145804000Y-62962619D02*
X145946857Y-63010238D01*
X145946857Y-63010238D02*
X146042095Y-63105476D01*
X146042095Y-63105476D02*
X146089714Y-63200714D01*
X146089714Y-63200714D02*
X146137333Y-63391190D01*
X146137333Y-63391190D02*
X146137333Y-63534047D01*
X146137333Y-63534047D02*
X146089714Y-63724523D01*
X146089714Y-63724523D02*
X146042095Y-63819761D01*
X146042095Y-63819761D02*
X145946857Y-63915000D01*
X145946857Y-63915000D02*
X145804000Y-63962619D01*
X145804000Y-63962619D02*
X145565905Y-63962619D01*
X146470667Y-62962619D02*
X147089714Y-62962619D01*
X147089714Y-62962619D02*
X146756381Y-63343571D01*
X146756381Y-63343571D02*
X146899238Y-63343571D01*
X146899238Y-63343571D02*
X146994476Y-63391190D01*
X146994476Y-63391190D02*
X147042095Y-63438809D01*
X147042095Y-63438809D02*
X147089714Y-63534047D01*
X147089714Y-63534047D02*
X147089714Y-63772142D01*
X147089714Y-63772142D02*
X147042095Y-63867380D01*
X147042095Y-63867380D02*
X146994476Y-63915000D01*
X146994476Y-63915000D02*
X146899238Y-63962619D01*
X146899238Y-63962619D02*
X146613524Y-63962619D01*
X146613524Y-63962619D02*
X146518286Y-63915000D01*
X146518286Y-63915000D02*
X146470667Y-63867380D01*
%TO.C,C29*%
X141232954Y-104110154D02*
X141194858Y-104148250D01*
X141194858Y-104148250D02*
X141080573Y-104186345D01*
X141080573Y-104186345D02*
X141004382Y-104186345D01*
X141004382Y-104186345D02*
X140890096Y-104148250D01*
X140890096Y-104148250D02*
X140813906Y-104072059D01*
X140813906Y-104072059D02*
X140775811Y-103995869D01*
X140775811Y-103995869D02*
X140737715Y-103843488D01*
X140737715Y-103843488D02*
X140737715Y-103729202D01*
X140737715Y-103729202D02*
X140775811Y-103576821D01*
X140775811Y-103576821D02*
X140813906Y-103500630D01*
X140813906Y-103500630D02*
X140890096Y-103424440D01*
X140890096Y-103424440D02*
X141004382Y-103386345D01*
X141004382Y-103386345D02*
X141080573Y-103386345D01*
X141080573Y-103386345D02*
X141194858Y-103424440D01*
X141194858Y-103424440D02*
X141232954Y-103462535D01*
X141537715Y-103462535D02*
X141575811Y-103424440D01*
X141575811Y-103424440D02*
X141652001Y-103386345D01*
X141652001Y-103386345D02*
X141842477Y-103386345D01*
X141842477Y-103386345D02*
X141918668Y-103424440D01*
X141918668Y-103424440D02*
X141956763Y-103462535D01*
X141956763Y-103462535D02*
X141994858Y-103538726D01*
X141994858Y-103538726D02*
X141994858Y-103614916D01*
X141994858Y-103614916D02*
X141956763Y-103729202D01*
X141956763Y-103729202D02*
X141499620Y-104186345D01*
X141499620Y-104186345D02*
X141994858Y-104186345D01*
X142375811Y-104186345D02*
X142528192Y-104186345D01*
X142528192Y-104186345D02*
X142604382Y-104148250D01*
X142604382Y-104148250D02*
X142642478Y-104110154D01*
X142642478Y-104110154D02*
X142718668Y-103995869D01*
X142718668Y-103995869D02*
X142756763Y-103843488D01*
X142756763Y-103843488D02*
X142756763Y-103538726D01*
X142756763Y-103538726D02*
X142718668Y-103462535D01*
X142718668Y-103462535D02*
X142680573Y-103424440D01*
X142680573Y-103424440D02*
X142604382Y-103386345D01*
X142604382Y-103386345D02*
X142452001Y-103386345D01*
X142452001Y-103386345D02*
X142375811Y-103424440D01*
X142375811Y-103424440D02*
X142337716Y-103462535D01*
X142337716Y-103462535D02*
X142299620Y-103538726D01*
X142299620Y-103538726D02*
X142299620Y-103729202D01*
X142299620Y-103729202D02*
X142337716Y-103805392D01*
X142337716Y-103805392D02*
X142375811Y-103843488D01*
X142375811Y-103843488D02*
X142452001Y-103881583D01*
X142452001Y-103881583D02*
X142604382Y-103881583D01*
X142604382Y-103881583D02*
X142680573Y-103843488D01*
X142680573Y-103843488D02*
X142718668Y-103805392D01*
X142718668Y-103805392D02*
X142756763Y-103729202D01*
%TO.C,C48*%
X118752382Y-75735630D02*
X118704763Y-75783250D01*
X118704763Y-75783250D02*
X118561906Y-75830869D01*
X118561906Y-75830869D02*
X118466668Y-75830869D01*
X118466668Y-75830869D02*
X118323811Y-75783250D01*
X118323811Y-75783250D02*
X118228573Y-75688011D01*
X118228573Y-75688011D02*
X118180954Y-75592773D01*
X118180954Y-75592773D02*
X118133335Y-75402297D01*
X118133335Y-75402297D02*
X118133335Y-75259440D01*
X118133335Y-75259440D02*
X118180954Y-75068964D01*
X118180954Y-75068964D02*
X118228573Y-74973726D01*
X118228573Y-74973726D02*
X118323811Y-74878488D01*
X118323811Y-74878488D02*
X118466668Y-74830869D01*
X118466668Y-74830869D02*
X118561906Y-74830869D01*
X118561906Y-74830869D02*
X118704763Y-74878488D01*
X118704763Y-74878488D02*
X118752382Y-74926107D01*
X119609525Y-75164202D02*
X119609525Y-75830869D01*
X119371430Y-74783250D02*
X119133335Y-75497535D01*
X119133335Y-75497535D02*
X119752382Y-75497535D01*
X120276192Y-75259440D02*
X120180954Y-75211821D01*
X120180954Y-75211821D02*
X120133335Y-75164202D01*
X120133335Y-75164202D02*
X120085716Y-75068964D01*
X120085716Y-75068964D02*
X120085716Y-75021345D01*
X120085716Y-75021345D02*
X120133335Y-74926107D01*
X120133335Y-74926107D02*
X120180954Y-74878488D01*
X120180954Y-74878488D02*
X120276192Y-74830869D01*
X120276192Y-74830869D02*
X120466668Y-74830869D01*
X120466668Y-74830869D02*
X120561906Y-74878488D01*
X120561906Y-74878488D02*
X120609525Y-74926107D01*
X120609525Y-74926107D02*
X120657144Y-75021345D01*
X120657144Y-75021345D02*
X120657144Y-75068964D01*
X120657144Y-75068964D02*
X120609525Y-75164202D01*
X120609525Y-75164202D02*
X120561906Y-75211821D01*
X120561906Y-75211821D02*
X120466668Y-75259440D01*
X120466668Y-75259440D02*
X120276192Y-75259440D01*
X120276192Y-75259440D02*
X120180954Y-75307059D01*
X120180954Y-75307059D02*
X120133335Y-75354678D01*
X120133335Y-75354678D02*
X120085716Y-75449916D01*
X120085716Y-75449916D02*
X120085716Y-75640392D01*
X120085716Y-75640392D02*
X120133335Y-75735630D01*
X120133335Y-75735630D02*
X120180954Y-75783250D01*
X120180954Y-75783250D02*
X120276192Y-75830869D01*
X120276192Y-75830869D02*
X120466668Y-75830869D01*
X120466668Y-75830869D02*
X120561906Y-75783250D01*
X120561906Y-75783250D02*
X120609525Y-75735630D01*
X120609525Y-75735630D02*
X120657144Y-75640392D01*
X120657144Y-75640392D02*
X120657144Y-75449916D01*
X120657144Y-75449916D02*
X120609525Y-75354678D01*
X120609525Y-75354678D02*
X120561906Y-75307059D01*
X120561906Y-75307059D02*
X120466668Y-75259440D01*
%TO.C,J5*%
X150938906Y-121820869D02*
X150938906Y-122535154D01*
X150938906Y-122535154D02*
X150891287Y-122678011D01*
X150891287Y-122678011D02*
X150796049Y-122773250D01*
X150796049Y-122773250D02*
X150653192Y-122820869D01*
X150653192Y-122820869D02*
X150557954Y-122820869D01*
X151891287Y-121820869D02*
X151415097Y-121820869D01*
X151415097Y-121820869D02*
X151367478Y-122297059D01*
X151367478Y-122297059D02*
X151415097Y-122249440D01*
X151415097Y-122249440D02*
X151510335Y-122201821D01*
X151510335Y-122201821D02*
X151748430Y-122201821D01*
X151748430Y-122201821D02*
X151843668Y-122249440D01*
X151843668Y-122249440D02*
X151891287Y-122297059D01*
X151891287Y-122297059D02*
X151938906Y-122392297D01*
X151938906Y-122392297D02*
X151938906Y-122630392D01*
X151938906Y-122630392D02*
X151891287Y-122725630D01*
X151891287Y-122725630D02*
X151843668Y-122773250D01*
X151843668Y-122773250D02*
X151748430Y-122820869D01*
X151748430Y-122820869D02*
X151510335Y-122820869D01*
X151510335Y-122820869D02*
X151415097Y-122773250D01*
X151415097Y-122773250D02*
X151367478Y-122725630D01*
D11*
X153050526Y-125361488D02*
X153050526Y-123361488D01*
X154002907Y-125361488D02*
X154002907Y-123361488D01*
X154002907Y-123361488D02*
X155145764Y-125361488D01*
X155145764Y-125361488D02*
X155145764Y-123361488D01*
X156098145Y-124599583D02*
X157621955Y-124599583D01*
D10*
%TO.C,C5*%
X137897573Y-115613630D02*
X137849954Y-115661250D01*
X137849954Y-115661250D02*
X137707097Y-115708869D01*
X137707097Y-115708869D02*
X137611859Y-115708869D01*
X137611859Y-115708869D02*
X137469002Y-115661250D01*
X137469002Y-115661250D02*
X137373764Y-115566011D01*
X137373764Y-115566011D02*
X137326145Y-115470773D01*
X137326145Y-115470773D02*
X137278526Y-115280297D01*
X137278526Y-115280297D02*
X137278526Y-115137440D01*
X137278526Y-115137440D02*
X137326145Y-114946964D01*
X137326145Y-114946964D02*
X137373764Y-114851726D01*
X137373764Y-114851726D02*
X137469002Y-114756488D01*
X137469002Y-114756488D02*
X137611859Y-114708869D01*
X137611859Y-114708869D02*
X137707097Y-114708869D01*
X137707097Y-114708869D02*
X137849954Y-114756488D01*
X137849954Y-114756488D02*
X137897573Y-114804107D01*
X138802335Y-114708869D02*
X138326145Y-114708869D01*
X138326145Y-114708869D02*
X138278526Y-115185059D01*
X138278526Y-115185059D02*
X138326145Y-115137440D01*
X138326145Y-115137440D02*
X138421383Y-115089821D01*
X138421383Y-115089821D02*
X138659478Y-115089821D01*
X138659478Y-115089821D02*
X138754716Y-115137440D01*
X138754716Y-115137440D02*
X138802335Y-115185059D01*
X138802335Y-115185059D02*
X138849954Y-115280297D01*
X138849954Y-115280297D02*
X138849954Y-115518392D01*
X138849954Y-115518392D02*
X138802335Y-115613630D01*
X138802335Y-115613630D02*
X138754716Y-115661250D01*
X138754716Y-115661250D02*
X138659478Y-115708869D01*
X138659478Y-115708869D02*
X138421383Y-115708869D01*
X138421383Y-115708869D02*
X138326145Y-115661250D01*
X138326145Y-115661250D02*
X138278526Y-115613630D01*
%TO.C,R1*%
X142977573Y-93102869D02*
X142644240Y-92626678D01*
X142406145Y-93102869D02*
X142406145Y-92102869D01*
X142406145Y-92102869D02*
X142787097Y-92102869D01*
X142787097Y-92102869D02*
X142882335Y-92150488D01*
X142882335Y-92150488D02*
X142929954Y-92198107D01*
X142929954Y-92198107D02*
X142977573Y-92293345D01*
X142977573Y-92293345D02*
X142977573Y-92436202D01*
X142977573Y-92436202D02*
X142929954Y-92531440D01*
X142929954Y-92531440D02*
X142882335Y-92579059D01*
X142882335Y-92579059D02*
X142787097Y-92626678D01*
X142787097Y-92626678D02*
X142406145Y-92626678D01*
X143929954Y-93102869D02*
X143358526Y-93102869D01*
X143644240Y-93102869D02*
X143644240Y-92102869D01*
X143644240Y-92102869D02*
X143549002Y-92245726D01*
X143549002Y-92245726D02*
X143453764Y-92340964D01*
X143453764Y-92340964D02*
X143358526Y-92388583D01*
%TO.C,Q5*%
X142541001Y-46462107D02*
X142445763Y-46414488D01*
X142445763Y-46414488D02*
X142350525Y-46319250D01*
X142350525Y-46319250D02*
X142207668Y-46176392D01*
X142207668Y-46176392D02*
X142112430Y-46128773D01*
X142112430Y-46128773D02*
X142017192Y-46128773D01*
X142064811Y-46366869D02*
X141969573Y-46319250D01*
X141969573Y-46319250D02*
X141874335Y-46224011D01*
X141874335Y-46224011D02*
X141826716Y-46033535D01*
X141826716Y-46033535D02*
X141826716Y-45700202D01*
X141826716Y-45700202D02*
X141874335Y-45509726D01*
X141874335Y-45509726D02*
X141969573Y-45414488D01*
X141969573Y-45414488D02*
X142064811Y-45366869D01*
X142064811Y-45366869D02*
X142255287Y-45366869D01*
X142255287Y-45366869D02*
X142350525Y-45414488D01*
X142350525Y-45414488D02*
X142445763Y-45509726D01*
X142445763Y-45509726D02*
X142493382Y-45700202D01*
X142493382Y-45700202D02*
X142493382Y-46033535D01*
X142493382Y-46033535D02*
X142445763Y-46224011D01*
X142445763Y-46224011D02*
X142350525Y-46319250D01*
X142350525Y-46319250D02*
X142255287Y-46366869D01*
X142255287Y-46366869D02*
X142064811Y-46366869D01*
X143398144Y-45366869D02*
X142921954Y-45366869D01*
X142921954Y-45366869D02*
X142874335Y-45843059D01*
X142874335Y-45843059D02*
X142921954Y-45795440D01*
X142921954Y-45795440D02*
X143017192Y-45747821D01*
X143017192Y-45747821D02*
X143255287Y-45747821D01*
X143255287Y-45747821D02*
X143350525Y-45795440D01*
X143350525Y-45795440D02*
X143398144Y-45843059D01*
X143398144Y-45843059D02*
X143445763Y-45938297D01*
X143445763Y-45938297D02*
X143445763Y-46176392D01*
X143445763Y-46176392D02*
X143398144Y-46271630D01*
X143398144Y-46271630D02*
X143350525Y-46319250D01*
X143350525Y-46319250D02*
X143255287Y-46366869D01*
X143255287Y-46366869D02*
X143017192Y-46366869D01*
X143017192Y-46366869D02*
X142921954Y-46319250D01*
X142921954Y-46319250D02*
X142874335Y-46271630D01*
%TO.C,C51*%
X148582142Y-53707380D02*
X148534523Y-53755000D01*
X148534523Y-53755000D02*
X148391666Y-53802619D01*
X148391666Y-53802619D02*
X148296428Y-53802619D01*
X148296428Y-53802619D02*
X148153571Y-53755000D01*
X148153571Y-53755000D02*
X148058333Y-53659761D01*
X148058333Y-53659761D02*
X148010714Y-53564523D01*
X148010714Y-53564523D02*
X147963095Y-53374047D01*
X147963095Y-53374047D02*
X147963095Y-53231190D01*
X147963095Y-53231190D02*
X148010714Y-53040714D01*
X148010714Y-53040714D02*
X148058333Y-52945476D01*
X148058333Y-52945476D02*
X148153571Y-52850238D01*
X148153571Y-52850238D02*
X148296428Y-52802619D01*
X148296428Y-52802619D02*
X148391666Y-52802619D01*
X148391666Y-52802619D02*
X148534523Y-52850238D01*
X148534523Y-52850238D02*
X148582142Y-52897857D01*
X149486904Y-52802619D02*
X149010714Y-52802619D01*
X149010714Y-52802619D02*
X148963095Y-53278809D01*
X148963095Y-53278809D02*
X149010714Y-53231190D01*
X149010714Y-53231190D02*
X149105952Y-53183571D01*
X149105952Y-53183571D02*
X149344047Y-53183571D01*
X149344047Y-53183571D02*
X149439285Y-53231190D01*
X149439285Y-53231190D02*
X149486904Y-53278809D01*
X149486904Y-53278809D02*
X149534523Y-53374047D01*
X149534523Y-53374047D02*
X149534523Y-53612142D01*
X149534523Y-53612142D02*
X149486904Y-53707380D01*
X149486904Y-53707380D02*
X149439285Y-53755000D01*
X149439285Y-53755000D02*
X149344047Y-53802619D01*
X149344047Y-53802619D02*
X149105952Y-53802619D01*
X149105952Y-53802619D02*
X149010714Y-53755000D01*
X149010714Y-53755000D02*
X148963095Y-53707380D01*
X150486904Y-53802619D02*
X149915476Y-53802619D01*
X150201190Y-53802619D02*
X150201190Y-52802619D01*
X150201190Y-52802619D02*
X150105952Y-52945476D01*
X150105952Y-52945476D02*
X150010714Y-53040714D01*
X150010714Y-53040714D02*
X149915476Y-53088333D01*
%TO.C,Q4*%
X179625001Y-68941107D02*
X179529763Y-68893488D01*
X179529763Y-68893488D02*
X179434525Y-68798250D01*
X179434525Y-68798250D02*
X179291668Y-68655392D01*
X179291668Y-68655392D02*
X179196430Y-68607773D01*
X179196430Y-68607773D02*
X179101192Y-68607773D01*
X179148811Y-68845869D02*
X179053573Y-68798250D01*
X179053573Y-68798250D02*
X178958335Y-68703011D01*
X178958335Y-68703011D02*
X178910716Y-68512535D01*
X178910716Y-68512535D02*
X178910716Y-68179202D01*
X178910716Y-68179202D02*
X178958335Y-67988726D01*
X178958335Y-67988726D02*
X179053573Y-67893488D01*
X179053573Y-67893488D02*
X179148811Y-67845869D01*
X179148811Y-67845869D02*
X179339287Y-67845869D01*
X179339287Y-67845869D02*
X179434525Y-67893488D01*
X179434525Y-67893488D02*
X179529763Y-67988726D01*
X179529763Y-67988726D02*
X179577382Y-68179202D01*
X179577382Y-68179202D02*
X179577382Y-68512535D01*
X179577382Y-68512535D02*
X179529763Y-68703011D01*
X179529763Y-68703011D02*
X179434525Y-68798250D01*
X179434525Y-68798250D02*
X179339287Y-68845869D01*
X179339287Y-68845869D02*
X179148811Y-68845869D01*
X180434525Y-68179202D02*
X180434525Y-68845869D01*
X180196430Y-67798250D02*
X179958335Y-68512535D01*
X179958335Y-68512535D02*
X180577382Y-68512535D01*
%TO.C,D1*%
X166974859Y-102141344D02*
X165974859Y-102141344D01*
X165974859Y-102141344D02*
X165974859Y-101903249D01*
X165974859Y-101903249D02*
X166022478Y-101760392D01*
X166022478Y-101760392D02*
X166117716Y-101665154D01*
X166117716Y-101665154D02*
X166212954Y-101617535D01*
X166212954Y-101617535D02*
X166403430Y-101569916D01*
X166403430Y-101569916D02*
X166546287Y-101569916D01*
X166546287Y-101569916D02*
X166736763Y-101617535D01*
X166736763Y-101617535D02*
X166832001Y-101665154D01*
X166832001Y-101665154D02*
X166927240Y-101760392D01*
X166927240Y-101760392D02*
X166974859Y-101903249D01*
X166974859Y-101903249D02*
X166974859Y-102141344D01*
X166974859Y-100617535D02*
X166974859Y-101188963D01*
X166974859Y-100903249D02*
X165974859Y-100903249D01*
X165974859Y-100903249D02*
X166117716Y-100998487D01*
X166117716Y-100998487D02*
X166212954Y-101093725D01*
X166212954Y-101093725D02*
X166260573Y-101188963D01*
%TO.C,C50*%
X148709142Y-56247380D02*
X148661523Y-56295000D01*
X148661523Y-56295000D02*
X148518666Y-56342619D01*
X148518666Y-56342619D02*
X148423428Y-56342619D01*
X148423428Y-56342619D02*
X148280571Y-56295000D01*
X148280571Y-56295000D02*
X148185333Y-56199761D01*
X148185333Y-56199761D02*
X148137714Y-56104523D01*
X148137714Y-56104523D02*
X148090095Y-55914047D01*
X148090095Y-55914047D02*
X148090095Y-55771190D01*
X148090095Y-55771190D02*
X148137714Y-55580714D01*
X148137714Y-55580714D02*
X148185333Y-55485476D01*
X148185333Y-55485476D02*
X148280571Y-55390238D01*
X148280571Y-55390238D02*
X148423428Y-55342619D01*
X148423428Y-55342619D02*
X148518666Y-55342619D01*
X148518666Y-55342619D02*
X148661523Y-55390238D01*
X148661523Y-55390238D02*
X148709142Y-55437857D01*
X149613904Y-55342619D02*
X149137714Y-55342619D01*
X149137714Y-55342619D02*
X149090095Y-55818809D01*
X149090095Y-55818809D02*
X149137714Y-55771190D01*
X149137714Y-55771190D02*
X149232952Y-55723571D01*
X149232952Y-55723571D02*
X149471047Y-55723571D01*
X149471047Y-55723571D02*
X149566285Y-55771190D01*
X149566285Y-55771190D02*
X149613904Y-55818809D01*
X149613904Y-55818809D02*
X149661523Y-55914047D01*
X149661523Y-55914047D02*
X149661523Y-56152142D01*
X149661523Y-56152142D02*
X149613904Y-56247380D01*
X149613904Y-56247380D02*
X149566285Y-56295000D01*
X149566285Y-56295000D02*
X149471047Y-56342619D01*
X149471047Y-56342619D02*
X149232952Y-56342619D01*
X149232952Y-56342619D02*
X149137714Y-56295000D01*
X149137714Y-56295000D02*
X149090095Y-56247380D01*
X150280571Y-55342619D02*
X150375809Y-55342619D01*
X150375809Y-55342619D02*
X150471047Y-55390238D01*
X150471047Y-55390238D02*
X150518666Y-55437857D01*
X150518666Y-55437857D02*
X150566285Y-55533095D01*
X150566285Y-55533095D02*
X150613904Y-55723571D01*
X150613904Y-55723571D02*
X150613904Y-55961666D01*
X150613904Y-55961666D02*
X150566285Y-56152142D01*
X150566285Y-56152142D02*
X150518666Y-56247380D01*
X150518666Y-56247380D02*
X150471047Y-56295000D01*
X150471047Y-56295000D02*
X150375809Y-56342619D01*
X150375809Y-56342619D02*
X150280571Y-56342619D01*
X150280571Y-56342619D02*
X150185333Y-56295000D01*
X150185333Y-56295000D02*
X150137714Y-56247380D01*
X150137714Y-56247380D02*
X150090095Y-56152142D01*
X150090095Y-56152142D02*
X150042476Y-55961666D01*
X150042476Y-55961666D02*
X150042476Y-55723571D01*
X150042476Y-55723571D02*
X150090095Y-55533095D01*
X150090095Y-55533095D02*
X150137714Y-55437857D01*
X150137714Y-55437857D02*
X150185333Y-55390238D01*
X150185333Y-55390238D02*
X150280571Y-55342619D01*
%TO.C,C10*%
X145169954Y-104110154D02*
X145131858Y-104148250D01*
X145131858Y-104148250D02*
X145017573Y-104186345D01*
X145017573Y-104186345D02*
X144941382Y-104186345D01*
X144941382Y-104186345D02*
X144827096Y-104148250D01*
X144827096Y-104148250D02*
X144750906Y-104072059D01*
X144750906Y-104072059D02*
X144712811Y-103995869D01*
X144712811Y-103995869D02*
X144674715Y-103843488D01*
X144674715Y-103843488D02*
X144674715Y-103729202D01*
X144674715Y-103729202D02*
X144712811Y-103576821D01*
X144712811Y-103576821D02*
X144750906Y-103500630D01*
X144750906Y-103500630D02*
X144827096Y-103424440D01*
X144827096Y-103424440D02*
X144941382Y-103386345D01*
X144941382Y-103386345D02*
X145017573Y-103386345D01*
X145017573Y-103386345D02*
X145131858Y-103424440D01*
X145131858Y-103424440D02*
X145169954Y-103462535D01*
X145931858Y-104186345D02*
X145474715Y-104186345D01*
X145703287Y-104186345D02*
X145703287Y-103386345D01*
X145703287Y-103386345D02*
X145627096Y-103500630D01*
X145627096Y-103500630D02*
X145550906Y-103576821D01*
X145550906Y-103576821D02*
X145474715Y-103614916D01*
X146427097Y-103386345D02*
X146503287Y-103386345D01*
X146503287Y-103386345D02*
X146579478Y-103424440D01*
X146579478Y-103424440D02*
X146617573Y-103462535D01*
X146617573Y-103462535D02*
X146655668Y-103538726D01*
X146655668Y-103538726D02*
X146693763Y-103691107D01*
X146693763Y-103691107D02*
X146693763Y-103881583D01*
X146693763Y-103881583D02*
X146655668Y-104033964D01*
X146655668Y-104033964D02*
X146617573Y-104110154D01*
X146617573Y-104110154D02*
X146579478Y-104148250D01*
X146579478Y-104148250D02*
X146503287Y-104186345D01*
X146503287Y-104186345D02*
X146427097Y-104186345D01*
X146427097Y-104186345D02*
X146350906Y-104148250D01*
X146350906Y-104148250D02*
X146312811Y-104110154D01*
X146312811Y-104110154D02*
X146274716Y-104033964D01*
X146274716Y-104033964D02*
X146236620Y-103881583D01*
X146236620Y-103881583D02*
X146236620Y-103691107D01*
X146236620Y-103691107D02*
X146274716Y-103538726D01*
X146274716Y-103538726D02*
X146312811Y-103462535D01*
X146312811Y-103462535D02*
X146350906Y-103424440D01*
X146350906Y-103424440D02*
X146427097Y-103386345D01*
%TO.C,C45*%
X137421382Y-127297630D02*
X137373763Y-127345250D01*
X137373763Y-127345250D02*
X137230906Y-127392869D01*
X137230906Y-127392869D02*
X137135668Y-127392869D01*
X137135668Y-127392869D02*
X136992811Y-127345250D01*
X136992811Y-127345250D02*
X136897573Y-127250011D01*
X136897573Y-127250011D02*
X136849954Y-127154773D01*
X136849954Y-127154773D02*
X136802335Y-126964297D01*
X136802335Y-126964297D02*
X136802335Y-126821440D01*
X136802335Y-126821440D02*
X136849954Y-126630964D01*
X136849954Y-126630964D02*
X136897573Y-126535726D01*
X136897573Y-126535726D02*
X136992811Y-126440488D01*
X136992811Y-126440488D02*
X137135668Y-126392869D01*
X137135668Y-126392869D02*
X137230906Y-126392869D01*
X137230906Y-126392869D02*
X137373763Y-126440488D01*
X137373763Y-126440488D02*
X137421382Y-126488107D01*
X138278525Y-126726202D02*
X138278525Y-127392869D01*
X138040430Y-126345250D02*
X137802335Y-127059535D01*
X137802335Y-127059535D02*
X138421382Y-127059535D01*
X139278525Y-126392869D02*
X138802335Y-126392869D01*
X138802335Y-126392869D02*
X138754716Y-126869059D01*
X138754716Y-126869059D02*
X138802335Y-126821440D01*
X138802335Y-126821440D02*
X138897573Y-126773821D01*
X138897573Y-126773821D02*
X139135668Y-126773821D01*
X139135668Y-126773821D02*
X139230906Y-126821440D01*
X139230906Y-126821440D02*
X139278525Y-126869059D01*
X139278525Y-126869059D02*
X139326144Y-126964297D01*
X139326144Y-126964297D02*
X139326144Y-127202392D01*
X139326144Y-127202392D02*
X139278525Y-127297630D01*
X139278525Y-127297630D02*
X139230906Y-127345250D01*
X139230906Y-127345250D02*
X139135668Y-127392869D01*
X139135668Y-127392869D02*
X138897573Y-127392869D01*
X138897573Y-127392869D02*
X138802335Y-127345250D01*
X138802335Y-127345250D02*
X138754716Y-127297630D01*
%TO.C,C52*%
X136517142Y-70217380D02*
X136469523Y-70265000D01*
X136469523Y-70265000D02*
X136326666Y-70312619D01*
X136326666Y-70312619D02*
X136231428Y-70312619D01*
X136231428Y-70312619D02*
X136088571Y-70265000D01*
X136088571Y-70265000D02*
X135993333Y-70169761D01*
X135993333Y-70169761D02*
X135945714Y-70074523D01*
X135945714Y-70074523D02*
X135898095Y-69884047D01*
X135898095Y-69884047D02*
X135898095Y-69741190D01*
X135898095Y-69741190D02*
X135945714Y-69550714D01*
X135945714Y-69550714D02*
X135993333Y-69455476D01*
X135993333Y-69455476D02*
X136088571Y-69360238D01*
X136088571Y-69360238D02*
X136231428Y-69312619D01*
X136231428Y-69312619D02*
X136326666Y-69312619D01*
X136326666Y-69312619D02*
X136469523Y-69360238D01*
X136469523Y-69360238D02*
X136517142Y-69407857D01*
X137421904Y-69312619D02*
X136945714Y-69312619D01*
X136945714Y-69312619D02*
X136898095Y-69788809D01*
X136898095Y-69788809D02*
X136945714Y-69741190D01*
X136945714Y-69741190D02*
X137040952Y-69693571D01*
X137040952Y-69693571D02*
X137279047Y-69693571D01*
X137279047Y-69693571D02*
X137374285Y-69741190D01*
X137374285Y-69741190D02*
X137421904Y-69788809D01*
X137421904Y-69788809D02*
X137469523Y-69884047D01*
X137469523Y-69884047D02*
X137469523Y-70122142D01*
X137469523Y-70122142D02*
X137421904Y-70217380D01*
X137421904Y-70217380D02*
X137374285Y-70265000D01*
X137374285Y-70265000D02*
X137279047Y-70312619D01*
X137279047Y-70312619D02*
X137040952Y-70312619D01*
X137040952Y-70312619D02*
X136945714Y-70265000D01*
X136945714Y-70265000D02*
X136898095Y-70217380D01*
X137850476Y-69407857D02*
X137898095Y-69360238D01*
X137898095Y-69360238D02*
X137993333Y-69312619D01*
X137993333Y-69312619D02*
X138231428Y-69312619D01*
X138231428Y-69312619D02*
X138326666Y-69360238D01*
X138326666Y-69360238D02*
X138374285Y-69407857D01*
X138374285Y-69407857D02*
X138421904Y-69503095D01*
X138421904Y-69503095D02*
X138421904Y-69598333D01*
X138421904Y-69598333D02*
X138374285Y-69741190D01*
X138374285Y-69741190D02*
X137802857Y-70312619D01*
X137802857Y-70312619D02*
X138421904Y-70312619D01*
%TO.C,C17*%
X137295954Y-104110154D02*
X137257858Y-104148250D01*
X137257858Y-104148250D02*
X137143573Y-104186345D01*
X137143573Y-104186345D02*
X137067382Y-104186345D01*
X137067382Y-104186345D02*
X136953096Y-104148250D01*
X136953096Y-104148250D02*
X136876906Y-104072059D01*
X136876906Y-104072059D02*
X136838811Y-103995869D01*
X136838811Y-103995869D02*
X136800715Y-103843488D01*
X136800715Y-103843488D02*
X136800715Y-103729202D01*
X136800715Y-103729202D02*
X136838811Y-103576821D01*
X136838811Y-103576821D02*
X136876906Y-103500630D01*
X136876906Y-103500630D02*
X136953096Y-103424440D01*
X136953096Y-103424440D02*
X137067382Y-103386345D01*
X137067382Y-103386345D02*
X137143573Y-103386345D01*
X137143573Y-103386345D02*
X137257858Y-103424440D01*
X137257858Y-103424440D02*
X137295954Y-103462535D01*
X138057858Y-104186345D02*
X137600715Y-104186345D01*
X137829287Y-104186345D02*
X137829287Y-103386345D01*
X137829287Y-103386345D02*
X137753096Y-103500630D01*
X137753096Y-103500630D02*
X137676906Y-103576821D01*
X137676906Y-103576821D02*
X137600715Y-103614916D01*
X138324525Y-103386345D02*
X138857859Y-103386345D01*
X138857859Y-103386345D02*
X138515001Y-104186345D01*
%TO.C,C46*%
X179077382Y-75735630D02*
X179029763Y-75783250D01*
X179029763Y-75783250D02*
X178886906Y-75830869D01*
X178886906Y-75830869D02*
X178791668Y-75830869D01*
X178791668Y-75830869D02*
X178648811Y-75783250D01*
X178648811Y-75783250D02*
X178553573Y-75688011D01*
X178553573Y-75688011D02*
X178505954Y-75592773D01*
X178505954Y-75592773D02*
X178458335Y-75402297D01*
X178458335Y-75402297D02*
X178458335Y-75259440D01*
X178458335Y-75259440D02*
X178505954Y-75068964D01*
X178505954Y-75068964D02*
X178553573Y-74973726D01*
X178553573Y-74973726D02*
X178648811Y-74878488D01*
X178648811Y-74878488D02*
X178791668Y-74830869D01*
X178791668Y-74830869D02*
X178886906Y-74830869D01*
X178886906Y-74830869D02*
X179029763Y-74878488D01*
X179029763Y-74878488D02*
X179077382Y-74926107D01*
X179934525Y-75164202D02*
X179934525Y-75830869D01*
X179696430Y-74783250D02*
X179458335Y-75497535D01*
X179458335Y-75497535D02*
X180077382Y-75497535D01*
X180886906Y-74830869D02*
X180696430Y-74830869D01*
X180696430Y-74830869D02*
X180601192Y-74878488D01*
X180601192Y-74878488D02*
X180553573Y-74926107D01*
X180553573Y-74926107D02*
X180458335Y-75068964D01*
X180458335Y-75068964D02*
X180410716Y-75259440D01*
X180410716Y-75259440D02*
X180410716Y-75640392D01*
X180410716Y-75640392D02*
X180458335Y-75735630D01*
X180458335Y-75735630D02*
X180505954Y-75783250D01*
X180505954Y-75783250D02*
X180601192Y-75830869D01*
X180601192Y-75830869D02*
X180791668Y-75830869D01*
X180791668Y-75830869D02*
X180886906Y-75783250D01*
X180886906Y-75783250D02*
X180934525Y-75735630D01*
X180934525Y-75735630D02*
X180982144Y-75640392D01*
X180982144Y-75640392D02*
X180982144Y-75402297D01*
X180982144Y-75402297D02*
X180934525Y-75307059D01*
X180934525Y-75307059D02*
X180886906Y-75259440D01*
X180886906Y-75259440D02*
X180791668Y-75211821D01*
X180791668Y-75211821D02*
X180601192Y-75211821D01*
X180601192Y-75211821D02*
X180505954Y-75259440D01*
X180505954Y-75259440D02*
X180458335Y-75307059D01*
X180458335Y-75307059D02*
X180410716Y-75402297D01*
%TO.C,R2*%
X166974859Y-106014916D02*
X166498668Y-106348249D01*
X166974859Y-106586344D02*
X165974859Y-106586344D01*
X165974859Y-106586344D02*
X165974859Y-106205392D01*
X165974859Y-106205392D02*
X166022478Y-106110154D01*
X166022478Y-106110154D02*
X166070097Y-106062535D01*
X166070097Y-106062535D02*
X166165335Y-106014916D01*
X166165335Y-106014916D02*
X166308192Y-106014916D01*
X166308192Y-106014916D02*
X166403430Y-106062535D01*
X166403430Y-106062535D02*
X166451049Y-106110154D01*
X166451049Y-106110154D02*
X166498668Y-106205392D01*
X166498668Y-106205392D02*
X166498668Y-106586344D01*
X166070097Y-105633963D02*
X166022478Y-105586344D01*
X166022478Y-105586344D02*
X165974859Y-105491106D01*
X165974859Y-105491106D02*
X165974859Y-105253011D01*
X165974859Y-105253011D02*
X166022478Y-105157773D01*
X166022478Y-105157773D02*
X166070097Y-105110154D01*
X166070097Y-105110154D02*
X166165335Y-105062535D01*
X166165335Y-105062535D02*
X166260573Y-105062535D01*
X166260573Y-105062535D02*
X166403430Y-105110154D01*
X166403430Y-105110154D02*
X166974859Y-105681582D01*
X166974859Y-105681582D02*
X166974859Y-105062535D01*
%TO.C,Q2*%
X155749001Y-46462107D02*
X155653763Y-46414488D01*
X155653763Y-46414488D02*
X155558525Y-46319250D01*
X155558525Y-46319250D02*
X155415668Y-46176392D01*
X155415668Y-46176392D02*
X155320430Y-46128773D01*
X155320430Y-46128773D02*
X155225192Y-46128773D01*
X155272811Y-46366869D02*
X155177573Y-46319250D01*
X155177573Y-46319250D02*
X155082335Y-46224011D01*
X155082335Y-46224011D02*
X155034716Y-46033535D01*
X155034716Y-46033535D02*
X155034716Y-45700202D01*
X155034716Y-45700202D02*
X155082335Y-45509726D01*
X155082335Y-45509726D02*
X155177573Y-45414488D01*
X155177573Y-45414488D02*
X155272811Y-45366869D01*
X155272811Y-45366869D02*
X155463287Y-45366869D01*
X155463287Y-45366869D02*
X155558525Y-45414488D01*
X155558525Y-45414488D02*
X155653763Y-45509726D01*
X155653763Y-45509726D02*
X155701382Y-45700202D01*
X155701382Y-45700202D02*
X155701382Y-46033535D01*
X155701382Y-46033535D02*
X155653763Y-46224011D01*
X155653763Y-46224011D02*
X155558525Y-46319250D01*
X155558525Y-46319250D02*
X155463287Y-46366869D01*
X155463287Y-46366869D02*
X155272811Y-46366869D01*
X156082335Y-45462107D02*
X156129954Y-45414488D01*
X156129954Y-45414488D02*
X156225192Y-45366869D01*
X156225192Y-45366869D02*
X156463287Y-45366869D01*
X156463287Y-45366869D02*
X156558525Y-45414488D01*
X156558525Y-45414488D02*
X156606144Y-45462107D01*
X156606144Y-45462107D02*
X156653763Y-45557345D01*
X156653763Y-45557345D02*
X156653763Y-45652583D01*
X156653763Y-45652583D02*
X156606144Y-45795440D01*
X156606144Y-45795440D02*
X156034716Y-46366869D01*
X156034716Y-46366869D02*
X156653763Y-46366869D01*
%TO.C,Q1*%
X167687001Y-89515107D02*
X167591763Y-89467488D01*
X167591763Y-89467488D02*
X167496525Y-89372250D01*
X167496525Y-89372250D02*
X167353668Y-89229392D01*
X167353668Y-89229392D02*
X167258430Y-89181773D01*
X167258430Y-89181773D02*
X167163192Y-89181773D01*
X167210811Y-89419869D02*
X167115573Y-89372250D01*
X167115573Y-89372250D02*
X167020335Y-89277011D01*
X167020335Y-89277011D02*
X166972716Y-89086535D01*
X166972716Y-89086535D02*
X166972716Y-88753202D01*
X166972716Y-88753202D02*
X167020335Y-88562726D01*
X167020335Y-88562726D02*
X167115573Y-88467488D01*
X167115573Y-88467488D02*
X167210811Y-88419869D01*
X167210811Y-88419869D02*
X167401287Y-88419869D01*
X167401287Y-88419869D02*
X167496525Y-88467488D01*
X167496525Y-88467488D02*
X167591763Y-88562726D01*
X167591763Y-88562726D02*
X167639382Y-88753202D01*
X167639382Y-88753202D02*
X167639382Y-89086535D01*
X167639382Y-89086535D02*
X167591763Y-89277011D01*
X167591763Y-89277011D02*
X167496525Y-89372250D01*
X167496525Y-89372250D02*
X167401287Y-89419869D01*
X167401287Y-89419869D02*
X167210811Y-89419869D01*
X168591763Y-89419869D02*
X168020335Y-89419869D01*
X168306049Y-89419869D02*
X168306049Y-88419869D01*
X168306049Y-88419869D02*
X168210811Y-88562726D01*
X168210811Y-88562726D02*
X168115573Y-88657964D01*
X168115573Y-88657964D02*
X168020335Y-88705583D01*
%TO.C,C11*%
X141359954Y-98014154D02*
X141321858Y-98052250D01*
X141321858Y-98052250D02*
X141207573Y-98090345D01*
X141207573Y-98090345D02*
X141131382Y-98090345D01*
X141131382Y-98090345D02*
X141017096Y-98052250D01*
X141017096Y-98052250D02*
X140940906Y-97976059D01*
X140940906Y-97976059D02*
X140902811Y-97899869D01*
X140902811Y-97899869D02*
X140864715Y-97747488D01*
X140864715Y-97747488D02*
X140864715Y-97633202D01*
X140864715Y-97633202D02*
X140902811Y-97480821D01*
X140902811Y-97480821D02*
X140940906Y-97404630D01*
X140940906Y-97404630D02*
X141017096Y-97328440D01*
X141017096Y-97328440D02*
X141131382Y-97290345D01*
X141131382Y-97290345D02*
X141207573Y-97290345D01*
X141207573Y-97290345D02*
X141321858Y-97328440D01*
X141321858Y-97328440D02*
X141359954Y-97366535D01*
X142121858Y-98090345D02*
X141664715Y-98090345D01*
X141893287Y-98090345D02*
X141893287Y-97290345D01*
X141893287Y-97290345D02*
X141817096Y-97404630D01*
X141817096Y-97404630D02*
X141740906Y-97480821D01*
X141740906Y-97480821D02*
X141664715Y-97518916D01*
X142883763Y-98090345D02*
X142426620Y-98090345D01*
X142655192Y-98090345D02*
X142655192Y-97290345D01*
X142655192Y-97290345D02*
X142579001Y-97404630D01*
X142579001Y-97404630D02*
X142502811Y-97480821D01*
X142502811Y-97480821D02*
X142426620Y-97518916D01*
%TO.C,C49*%
X158615142Y-70217380D02*
X158567523Y-70265000D01*
X158567523Y-70265000D02*
X158424666Y-70312619D01*
X158424666Y-70312619D02*
X158329428Y-70312619D01*
X158329428Y-70312619D02*
X158186571Y-70265000D01*
X158186571Y-70265000D02*
X158091333Y-70169761D01*
X158091333Y-70169761D02*
X158043714Y-70074523D01*
X158043714Y-70074523D02*
X157996095Y-69884047D01*
X157996095Y-69884047D02*
X157996095Y-69741190D01*
X157996095Y-69741190D02*
X158043714Y-69550714D01*
X158043714Y-69550714D02*
X158091333Y-69455476D01*
X158091333Y-69455476D02*
X158186571Y-69360238D01*
X158186571Y-69360238D02*
X158329428Y-69312619D01*
X158329428Y-69312619D02*
X158424666Y-69312619D01*
X158424666Y-69312619D02*
X158567523Y-69360238D01*
X158567523Y-69360238D02*
X158615142Y-69407857D01*
X159472285Y-69645952D02*
X159472285Y-70312619D01*
X159234190Y-69265000D02*
X158996095Y-69979285D01*
X158996095Y-69979285D02*
X159615142Y-69979285D01*
X160043714Y-70312619D02*
X160234190Y-70312619D01*
X160234190Y-70312619D02*
X160329428Y-70265000D01*
X160329428Y-70265000D02*
X160377047Y-70217380D01*
X160377047Y-70217380D02*
X160472285Y-70074523D01*
X160472285Y-70074523D02*
X160519904Y-69884047D01*
X160519904Y-69884047D02*
X160519904Y-69503095D01*
X160519904Y-69503095D02*
X160472285Y-69407857D01*
X160472285Y-69407857D02*
X160424666Y-69360238D01*
X160424666Y-69360238D02*
X160329428Y-69312619D01*
X160329428Y-69312619D02*
X160138952Y-69312619D01*
X160138952Y-69312619D02*
X160043714Y-69360238D01*
X160043714Y-69360238D02*
X159996095Y-69407857D01*
X159996095Y-69407857D02*
X159948476Y-69503095D01*
X159948476Y-69503095D02*
X159948476Y-69741190D01*
X159948476Y-69741190D02*
X159996095Y-69836428D01*
X159996095Y-69836428D02*
X160043714Y-69884047D01*
X160043714Y-69884047D02*
X160138952Y-69931666D01*
X160138952Y-69931666D02*
X160329428Y-69931666D01*
X160329428Y-69931666D02*
X160424666Y-69884047D01*
X160424666Y-69884047D02*
X160472285Y-69836428D01*
X160472285Y-69836428D02*
X160519904Y-69741190D01*
%TO.C,D4*%
X119165145Y-79894869D02*
X119165145Y-78894869D01*
X119165145Y-78894869D02*
X119403240Y-78894869D01*
X119403240Y-78894869D02*
X119546097Y-78942488D01*
X119546097Y-78942488D02*
X119641335Y-79037726D01*
X119641335Y-79037726D02*
X119688954Y-79132964D01*
X119688954Y-79132964D02*
X119736573Y-79323440D01*
X119736573Y-79323440D02*
X119736573Y-79466297D01*
X119736573Y-79466297D02*
X119688954Y-79656773D01*
X119688954Y-79656773D02*
X119641335Y-79752011D01*
X119641335Y-79752011D02*
X119546097Y-79847250D01*
X119546097Y-79847250D02*
X119403240Y-79894869D01*
X119403240Y-79894869D02*
X119165145Y-79894869D01*
X120593716Y-79228202D02*
X120593716Y-79894869D01*
X120355621Y-78847250D02*
X120117526Y-79561535D01*
X120117526Y-79561535D02*
X120736573Y-79561535D01*
D12*
%TO.C,C14*%
X144197240Y-101479502D02*
X144197240Y-100056998D01*
X146917240Y-101479502D02*
X146917240Y-100056998D01*
%TO.C,C26*%
X144197240Y-112567002D02*
X144197240Y-111144498D01*
X146917240Y-112567002D02*
X146917240Y-111144498D01*
D13*
%TO.C,Q6*%
X130107240Y-73333250D02*
X130782240Y-73333250D01*
X130782240Y-73333250D02*
X130782240Y-63433250D01*
X134807240Y-72583250D02*
X134807240Y-72583250D01*
X134807240Y-72583250D02*
X134907240Y-72583250D01*
X134907240Y-72583250D02*
X134907240Y-72583250D01*
X130782240Y-63433250D02*
X130107240Y-63433250D01*
X134907240Y-72583250D02*
G75*
G03*
X134807240Y-72583250I-50000J0D01*
G01*
X134807240Y-72583250D02*
G75*
G03*
X134907240Y-72583250I50000J0D01*
G01*
D12*
%TO.C,C47*%
X149093973Y-64397750D02*
X149386507Y-64397750D01*
X149093973Y-65417750D02*
X149386507Y-65417750D01*
%TO.C,C25*%
X140387240Y-112567002D02*
X140387240Y-111144498D01*
X143107240Y-112567002D02*
X143107240Y-111144498D01*
D13*
%TO.C,Q7*%
X161937240Y-104153250D02*
X161937240Y-103478250D01*
X161937240Y-103478250D02*
X152037240Y-103478250D01*
X161187240Y-99453250D02*
X161187240Y-99453250D01*
X161187240Y-99453250D02*
X161187240Y-99353250D01*
X161187240Y-99353250D02*
X161187240Y-99353250D01*
X152037240Y-103478250D02*
X152037240Y-104153250D01*
X161187240Y-99353250D02*
G75*
G03*
X161187240Y-99453250I0J-50000D01*
G01*
X161187240Y-99453250D02*
G75*
G03*
X161187240Y-99353250I0J50000D01*
G01*
D12*
%TO.C,D2*%
X174595240Y-79432250D02*
X174595240Y-82357250D01*
X174595240Y-79432250D02*
X174595240Y-77932250D01*
X177815240Y-79432250D02*
X177815240Y-80932250D01*
X177815240Y-79432250D02*
X177815240Y-77932250D01*
%TO.C,C3*%
X136577240Y-101479502D02*
X136577240Y-100056998D01*
X139297240Y-101479502D02*
X139297240Y-100056998D01*
%TO.C,J7*%
X147307240Y-69626250D02*
X147307240Y-89746250D01*
X147307240Y-69626250D02*
X149367240Y-69626250D01*
X147307240Y-89746250D02*
X151427240Y-89746250D01*
X149367240Y-69626250D02*
X149367240Y-71686250D01*
X149367240Y-71686250D02*
X151427240Y-71686250D01*
X150367240Y-69626250D02*
X151427240Y-69626250D01*
X151427240Y-69626250D02*
X151427240Y-70686250D01*
X151427240Y-71686250D02*
X151427240Y-89746250D01*
D13*
%TO.C,Q3*%
X134552240Y-86668250D02*
X135227240Y-86668250D01*
X135227240Y-86668250D02*
X135227240Y-76768250D01*
X139252240Y-85918250D02*
X139252240Y-85918250D01*
X139252240Y-85918250D02*
X139352240Y-85918250D01*
X139352240Y-85918250D02*
X139352240Y-85918250D01*
X135227240Y-76768250D02*
X134552240Y-76768250D01*
X139352240Y-85918250D02*
G75*
G03*
X139252240Y-85918250I-50000J0D01*
G01*
X139252240Y-85918250D02*
G75*
G03*
X139352240Y-85918250I50000J0D01*
G01*
D12*
%TO.C,C53*%
X140610000Y-72313748D02*
X140610000Y-73736252D01*
X138790000Y-72313748D02*
X138790000Y-73736252D01*
%TO.C,C54*%
X163470000Y-72313748D02*
X163470000Y-73736252D01*
X161650000Y-72313748D02*
X161650000Y-73736252D01*
%TO.C,C44*%
X158177240Y-124958250D02*
X159541240Y-124958250D01*
X158177240Y-124958250D02*
X158177240Y-117218250D01*
X162053240Y-124958250D02*
X163417240Y-124958250D01*
X163417240Y-124958250D02*
X163417240Y-117218250D01*
X158177240Y-117218250D02*
X159541240Y-117218250D01*
X162053240Y-117218250D02*
X163417240Y-117218250D01*
%TO.C,D3*%
X150850240Y-60763250D02*
X150850240Y-57838250D01*
X150850240Y-60763250D02*
X150850240Y-62263250D01*
X147630240Y-60763250D02*
X147630240Y-59263250D01*
X147630240Y-60763250D02*
X147630240Y-62263250D01*
%TO.C,C29*%
X143107240Y-105771998D02*
X143107240Y-107194502D01*
X140387240Y-105771998D02*
X140387240Y-107194502D01*
%TO.C,C48*%
X122423973Y-74858250D02*
X122716507Y-74858250D01*
X122423973Y-75878250D02*
X122716507Y-75878250D01*
%TO.C,C5*%
X136577240Y-112567002D02*
X136577240Y-111144498D01*
X139297240Y-112567002D02*
X139297240Y-111144498D01*
%TO.C,R1*%
X135760176Y-90803250D02*
X140114304Y-90803250D01*
X135760176Y-94223250D02*
X140114304Y-94223250D01*
D13*
%TO.C,Q5*%
X136162240Y-56743250D02*
X136162240Y-57418250D01*
X136162240Y-57418250D02*
X146062240Y-57418250D01*
X136912240Y-61443250D02*
X136912240Y-61443250D01*
X136912240Y-61443250D02*
X136912240Y-61543250D01*
X136912240Y-61543250D02*
X136912240Y-61543250D01*
X146062240Y-57418250D02*
X146062240Y-56743250D01*
X136912240Y-61543250D02*
G75*
G03*
X136912240Y-61443250I0J50000D01*
G01*
X136912240Y-61443250D02*
G75*
G03*
X136912240Y-61543250I0J-50000D01*
G01*
D12*
%TO.C,C51*%
X148513748Y-52430000D02*
X149936252Y-52430000D01*
X148513748Y-54250000D02*
X149936252Y-54250000D01*
D13*
%TO.C,Q4*%
X168622240Y-63433250D02*
X167947240Y-63433250D01*
X167947240Y-63433250D02*
X167947240Y-73333250D01*
X163922240Y-64183250D02*
X163922240Y-64183250D01*
X163922240Y-64183250D02*
X163822240Y-64183250D01*
X163822240Y-64183250D02*
X163822240Y-64183250D01*
X167947240Y-73333250D02*
X168622240Y-73333250D01*
X163822240Y-64183250D02*
G75*
G03*
X163922240Y-64183250I50000J0D01*
G01*
X163922240Y-64183250D02*
G75*
G03*
X163822240Y-64183250I-50000J0D01*
G01*
D12*
%TO.C,D1*%
X163607240Y-103508250D02*
X165607240Y-103508250D01*
X163607240Y-103508250D02*
X163607240Y-99498250D01*
X165607240Y-103508250D02*
X165607240Y-99498250D01*
%TO.C,C50*%
X149936252Y-54970000D02*
X148513748Y-54970000D01*
X149936252Y-56790000D02*
X148513748Y-56790000D01*
%TO.C,C10*%
X146917240Y-105771998D02*
X146917240Y-107194502D01*
X144197240Y-105771998D02*
X144197240Y-107194502D01*
%TO.C,C45*%
X140557240Y-117218250D02*
X139193240Y-117218250D01*
X140557240Y-117218250D02*
X140557240Y-124958250D01*
X136681240Y-117218250D02*
X135317240Y-117218250D01*
X135317240Y-117218250D02*
X135317240Y-124958250D01*
X140557240Y-124958250D02*
X139193240Y-124958250D01*
X136681240Y-124958250D02*
X135317240Y-124958250D01*
%TO.C,C52*%
X138070000Y-72313748D02*
X138070000Y-73736252D01*
X136250000Y-72313748D02*
X136250000Y-73736252D01*
%TO.C,C17*%
X139297240Y-105771998D02*
X139297240Y-107194502D01*
X136577240Y-105771998D02*
X136577240Y-107194502D01*
%TO.C,C46*%
X176017973Y-74858250D02*
X176310507Y-74858250D01*
X176017973Y-75878250D02*
X176310507Y-75878250D01*
%TO.C,R2*%
X165342240Y-105621186D02*
X165342240Y-106075314D01*
X163872240Y-105621186D02*
X163872240Y-106075314D01*
D13*
%TO.C,Q2*%
X152418240Y-56762250D02*
X152418240Y-57437250D01*
X152418240Y-57437250D02*
X162318240Y-57437250D01*
X153168240Y-61462250D02*
X153168240Y-61462250D01*
X153168240Y-61462250D02*
X153168240Y-61562250D01*
X153168240Y-61562250D02*
X153168240Y-61562250D01*
X162318240Y-57437250D02*
X162318240Y-56762250D01*
X153168240Y-61562250D02*
G75*
G03*
X153168240Y-61462250I0J50000D01*
G01*
X153168240Y-61462250D02*
G75*
G03*
X153168240Y-61562250I0J-50000D01*
G01*
%TO.C,Q1*%
X164182240Y-76768250D02*
X163507240Y-76768250D01*
X163507240Y-76768250D02*
X163507240Y-86668250D01*
X159482240Y-77518250D02*
X159482240Y-77518250D01*
X159482240Y-77518250D02*
X159382240Y-77518250D01*
X159382240Y-77518250D02*
X159382240Y-77518250D01*
X163507240Y-86668250D02*
X164182240Y-86668250D01*
X159382240Y-77518250D02*
G75*
G03*
X159482240Y-77518250I50000J0D01*
G01*
X159482240Y-77518250D02*
G75*
G03*
X159382240Y-77518250I-50000J0D01*
G01*
D12*
%TO.C,C11*%
X140514240Y-101479502D02*
X140514240Y-100056998D01*
X143234240Y-101479502D02*
X143234240Y-100056998D01*
%TO.C,C49*%
X159110000Y-73736252D02*
X159110000Y-72313748D01*
X160930000Y-73736252D02*
X160930000Y-72313748D01*
%TO.C,D4*%
X120960240Y-79432250D02*
X120960240Y-82357250D01*
X120960240Y-79432250D02*
X120960240Y-77932250D01*
X124180240Y-79432250D02*
X124180240Y-80932250D01*
X124180240Y-79432250D02*
X124180240Y-77932250D01*
%TD*%
M02*
