%TF.GenerationSoftware,KiCad,Pcbnew,7.0.1*%
%TF.CreationDate,2024-07-26T16:33:55+03:00*%
%TF.ProjectId,_______ _____,21383b3e-3230-44f2-903f-3b3042302e6b,rev?*%
%TF.SameCoordinates,Original*%
%TF.FileFunction,Copper,L3,Inr*%
%TF.FilePolarity,Positive*%
%FSLAX46Y46*%
G04 Gerber Fmt 4.6, Leading zero omitted, Abs format (unit mm)*
G04 Created by KiCad (PCBNEW 7.0.1) date 2024-07-26 16:33:55*
%MOMM*%
%LPD*%
G01*
G04 APERTURE LIST*
%TA.AperFunction,ComponentPad*%
%ADD10C,5.000000*%
%TD*%
%TA.AperFunction,ComponentPad*%
%ADD11C,8.200000*%
%TD*%
%TA.AperFunction,ComponentPad*%
%ADD12C,6.000000*%
%TD*%
%TA.AperFunction,ComponentPad*%
%ADD13R,1.350000X1.350000*%
%TD*%
%TA.AperFunction,ComponentPad*%
%ADD14O,1.350000X1.350000*%
%TD*%
%TA.AperFunction,ComponentPad*%
%ADD15C,2.000000*%
%TD*%
%TA.AperFunction,ViaPad*%
%ADD16C,0.800000*%
%TD*%
%TA.AperFunction,Conductor*%
%ADD17C,1.000000*%
%TD*%
%TA.AperFunction,Conductor*%
%ADD18C,0.250000*%
%TD*%
%TA.AperFunction,Conductor*%
%ADD19C,0.500000*%
%TD*%
G04 APERTURE END LIST*
D10*
%TO.N,Earth_Protective*%
%TO.C,J8*%
X132222240Y-124898250D03*
%TD*%
D11*
%TO.N,C*%
%TO.C,J4*%
X127142240Y-58223250D03*
%TD*%
%TO.N,A*%
%TO.C,J1*%
X171592240Y-58223250D03*
%TD*%
D10*
%TO.N,Earth_Protective*%
%TO.C,J2*%
X167147240Y-124898250D03*
%TD*%
D12*
%TO.N,Shunt_1*%
%TO.C,J6*%
X144287240Y-119483250D03*
%TD*%
D13*
%TO.N,+3.3V*%
%TO.C,J7*%
X150367240Y-70686250D03*
D14*
%TO.N,~{OS}_MCU*%
X148367240Y-70686250D03*
%TO.N,G3*%
X150367240Y-72686250D03*
%TO.N,SCL_MCU*%
X148367240Y-72686250D03*
%TO.N,B*%
X150367240Y-74686250D03*
%TO.N,SDA_MCU*%
X148367240Y-74686250D03*
%TO.N,G2*%
X150367240Y-76686250D03*
%TO.N,G4*%
X148367240Y-76686250D03*
%TO.N,GND*%
X150367240Y-78686250D03*
X148367240Y-78686250D03*
%TO.N,G1*%
X150367240Y-80686250D03*
%TO.N,G6*%
X148367240Y-80686250D03*
%TO.N,A*%
X150367240Y-82686250D03*
%TO.N,C*%
X148367240Y-82686250D03*
%TO.N,GND*%
X150367240Y-84686250D03*
%TO.N,G5*%
X148367240Y-84686250D03*
%TO.N,Shunt_1*%
X150367240Y-86686250D03*
%TO.N,GND*%
X148367240Y-86686250D03*
%TO.N,Shunt_1*%
X150367240Y-88686250D03*
%TO.N,Shunt_2*%
X148367240Y-88686250D03*
%TD*%
D11*
%TO.N,B*%
%TO.C,J3*%
X149367240Y-43618250D03*
%TD*%
D15*
%TO.N,Earth_Protective*%
%TO.C,C44*%
X160797240Y-124838250D03*
%TO.N,Net-(J5-Pin_1)*%
X160797240Y-117338250D03*
%TD*%
D12*
%TO.N,Net-(J5-Pin_1)*%
%TO.C,J5*%
X154447240Y-119483250D03*
%TD*%
D15*
%TO.N,Shunt_1*%
%TO.C,C45*%
X137937240Y-117338250D03*
%TO.N,Earth_Protective*%
X137937240Y-124838250D03*
%TD*%
D16*
%TO.N,Shunt_2*%
X143510000Y-78105000D03*
X143510000Y-79375000D03*
X144145000Y-77470000D03*
X144145000Y-78740000D03*
X144145000Y-80010000D03*
X154940000Y-80010000D03*
%TO.N,G1*%
X158892240Y-77273250D03*
%TO.N,A*%
X176672240Y-69653250D03*
X158892240Y-79813250D03*
X170322240Y-65843250D03*
X173497240Y-67113250D03*
X158892240Y-81083250D03*
X173497240Y-70923250D03*
X158892240Y-82353250D03*
X173497240Y-65843250D03*
X170322240Y-70923250D03*
X173497240Y-69653250D03*
X170322240Y-68383250D03*
X173497240Y-68383250D03*
X170322240Y-72193250D03*
X176672240Y-64573250D03*
X170322240Y-64573250D03*
X176672240Y-68383250D03*
X176672240Y-67113250D03*
X158892240Y-78543250D03*
X158892240Y-86163250D03*
X176672240Y-70923250D03*
X158892240Y-84893250D03*
X176672240Y-72193250D03*
X176672240Y-65843250D03*
X158892240Y-83623250D03*
X170322240Y-69653250D03*
X170322240Y-67113250D03*
%TO.N,G2*%
X162702240Y-63938250D03*
%TO.N,GND*%
X144922240Y-62033250D03*
X162702240Y-95688250D03*
X163830000Y-72828250D03*
X162702240Y-65208250D03*
X163972240Y-93148250D03*
X176926240Y-82988250D03*
X135397240Y-66478250D03*
X162702240Y-70288250D03*
X159527240Y-91878250D03*
X135397240Y-65208250D03*
X164607240Y-94418250D03*
X160797240Y-91878250D03*
X164607240Y-91878250D03*
X124348240Y-75368250D03*
X163337240Y-94418250D03*
X146192240Y-62033250D03*
X124094240Y-81464250D03*
X147970240Y-57287750D03*
X164607240Y-98228250D03*
X139842240Y-109023250D03*
X165242240Y-93148250D03*
X158257240Y-91878250D03*
X163337240Y-96958250D03*
X135397240Y-69018250D03*
X177942240Y-75114250D03*
X162702240Y-69018250D03*
X139842240Y-99205750D03*
X135397240Y-67748250D03*
X135397240Y-70288250D03*
X142382240Y-62033250D03*
X143703040Y-99193450D03*
X135397240Y-63938250D03*
X141112240Y-62033250D03*
X163972240Y-110293250D03*
X143652240Y-109023250D03*
X162067240Y-91878250D03*
X162702240Y-66478250D03*
X143652240Y-62033250D03*
X163337240Y-98228250D03*
X164607240Y-96958250D03*
X135397240Y-71558250D03*
X138572240Y-62033250D03*
X163337240Y-91878250D03*
X163830000Y-71558250D03*
X163972240Y-95688250D03*
X162702240Y-67748250D03*
X139842240Y-62033250D03*
%TO.N,G3*%
X152415240Y-62668250D03*
%TO.N,B*%
X138572240Y-51873250D03*
X143652240Y-55048250D03*
X142382240Y-51873250D03*
X141112240Y-48698250D03*
X139842240Y-48698250D03*
X137302240Y-55048250D03*
X137302240Y-48698250D03*
X139842240Y-51873250D03*
X143652240Y-48698250D03*
X157622240Y-62668250D03*
X139842240Y-55048250D03*
X153812240Y-62668250D03*
X155082240Y-62668250D03*
X143652240Y-51873250D03*
X142382240Y-48698250D03*
X161432240Y-62668250D03*
X138572240Y-55048250D03*
X141112240Y-55048250D03*
X142382240Y-55048250D03*
X158892240Y-62668250D03*
X138572240Y-48698250D03*
X141112240Y-51873250D03*
X144922240Y-55048250D03*
X160162240Y-62668250D03*
X144922240Y-48698250D03*
X156352240Y-62668250D03*
%TO.N,G4*%
X137302240Y-62033250D03*
%TO.N,G5*%
X139842240Y-86163250D03*
%TO.N,C*%
X139842240Y-82353250D03*
X128412240Y-69653250D03*
X139842240Y-84893250D03*
X128412240Y-68383250D03*
X128412240Y-67113250D03*
X125237240Y-69653250D03*
X125237240Y-67113250D03*
X122062240Y-68383250D03*
X122062240Y-67113250D03*
X139842240Y-79813250D03*
X122062240Y-70923250D03*
X128412240Y-64573250D03*
X122062240Y-64573250D03*
X122062240Y-65843250D03*
X128412240Y-65843250D03*
X128412240Y-70923250D03*
X125237240Y-68383250D03*
X139842240Y-77273250D03*
X125237240Y-70923250D03*
X122062240Y-72193250D03*
X128412240Y-72193250D03*
X125237240Y-65843250D03*
X139842240Y-78543250D03*
X139842240Y-81083250D03*
X139842240Y-83623250D03*
X122062240Y-69653250D03*
%TO.N,G6*%
X135397240Y-72828250D03*
%TO.N,Shunt_1*%
X134762240Y-97593250D03*
X143652240Y-105213250D03*
X136032240Y-105213250D03*
X165877240Y-106483250D03*
X143652240Y-103943250D03*
X134762240Y-95053250D03*
X147462240Y-97593250D03*
X139842240Y-105213250D03*
X134762240Y-96323250D03*
X147462240Y-103943250D03*
X144287240Y-86442750D03*
X158750000Y-93726000D03*
X134762240Y-98863250D03*
X147462240Y-105213250D03*
X136398000Y-90678000D03*
X147320000Y-93726000D03*
X154940000Y-93726000D03*
X139842240Y-103943250D03*
X143510000Y-93726000D03*
X151130000Y-93726000D03*
X133350000Y-90805000D03*
%TO.N,Shunt_2*%
X153812240Y-69018250D03*
X157368240Y-51873250D03*
X126507240Y-85528250D03*
X154432000Y-70358000D03*
X151384000Y-91948000D03*
X169052240Y-81718250D03*
X153558240Y-55048250D03*
X126507240Y-79178250D03*
X172227240Y-77908250D03*
X159908240Y-51873250D03*
X158638240Y-55048250D03*
X165877240Y-77908250D03*
X157368240Y-48698250D03*
X129682240Y-81718250D03*
X169052240Y-84258250D03*
X154447240Y-67748250D03*
X155082240Y-66478250D03*
X126507240Y-77908250D03*
X172227240Y-79178250D03*
X132857240Y-77908250D03*
X143652240Y-65208250D03*
X129682240Y-79178250D03*
X165877240Y-84258250D03*
X172227240Y-84258250D03*
X126507240Y-82988250D03*
X156098240Y-55048250D03*
X151384000Y-90170000D03*
X132857240Y-85528250D03*
X150114000Y-90170000D03*
X169052240Y-82988250D03*
X154828240Y-51873250D03*
X132857240Y-81718250D03*
X159908240Y-55048250D03*
X129682240Y-84258250D03*
X154828240Y-48698250D03*
X156098240Y-51873250D03*
X159908240Y-48698250D03*
X172227240Y-82988250D03*
X165877240Y-79178250D03*
X153558240Y-48698250D03*
X126507240Y-84258250D03*
X155082240Y-69018250D03*
X129682240Y-82988250D03*
X132857240Y-82988250D03*
X152146000Y-91186000D03*
X165877240Y-81718250D03*
X161178240Y-55048250D03*
X158638240Y-51873250D03*
X143652240Y-70923250D03*
X155717240Y-67748250D03*
X153812240Y-66478250D03*
X144287240Y-66478250D03*
X165877240Y-85528250D03*
X149606000Y-91186000D03*
X154828240Y-55048250D03*
X155717240Y-65208250D03*
X144922240Y-65208250D03*
X126507240Y-81718250D03*
X154447240Y-65208250D03*
X161178240Y-48698250D03*
X172227240Y-85528250D03*
X165877240Y-80448250D03*
X150876000Y-91186000D03*
X132857240Y-79178250D03*
X158638240Y-48698250D03*
X132857240Y-84258250D03*
X129682240Y-80448250D03*
X150114000Y-91948000D03*
X169052240Y-80448250D03*
X139446000Y-90678000D03*
X165877240Y-82988250D03*
X169052240Y-79178250D03*
X156098240Y-48698250D03*
X126507240Y-80448250D03*
X145557240Y-66478250D03*
X144922240Y-72193250D03*
X172227240Y-80448250D03*
X148844000Y-91948000D03*
X172227240Y-81718250D03*
X132857240Y-80448250D03*
X157368240Y-55048250D03*
%TO.N,+3.3V*%
X120792240Y-75368250D03*
X150764240Y-61605750D03*
X174384056Y-75115342D03*
X148224240Y-66050750D03*
%TO.N,SDA_MCU*%
X153921356Y-75694733D03*
X121300240Y-79940250D03*
X142025166Y-74658101D03*
X175148240Y-79940250D03*
X150764240Y-60081750D03*
%TO.N,SCL_MCU*%
X176159941Y-79935951D03*
X149748240Y-60081750D03*
X154616364Y-74976424D03*
X141978295Y-75673650D03*
X122316240Y-79940250D03*
%TO.N,~{OS}_MCU*%
X148732240Y-60081750D03*
X141994489Y-76934952D03*
X177180240Y-79940250D03*
X123332240Y-79940250D03*
X155448000Y-74422000D03*
%TD*%
D17*
%TO.N,Shunt_1*%
X154940000Y-89535000D02*
X154940000Y-93726000D01*
X150367240Y-86686250D02*
X152091250Y-86686250D01*
X152091250Y-86686250D02*
X154940000Y-89535000D01*
D18*
%TO.N,~{OS}_MCU*%
X127707490Y-75565000D02*
X123332240Y-79940250D01*
X139803409Y-75565000D02*
X127707490Y-75565000D01*
X140528409Y-76290000D02*
X139803409Y-75565000D01*
X141994489Y-76934952D02*
X141349537Y-76290000D01*
X141349537Y-76290000D02*
X140528409Y-76290000D01*
%TO.N,SCL_MCU*%
X127259185Y-74988000D02*
X122316240Y-79930945D01*
X139862805Y-74988000D02*
X127259185Y-74988000D01*
X141978295Y-75673650D02*
X140548455Y-75673650D01*
X122316240Y-79930945D02*
X122316240Y-79940250D01*
X140548455Y-75673650D02*
X139862805Y-74988000D01*
%TO.N,SDA_MCU*%
X121300240Y-79930945D02*
X121300240Y-79940250D01*
X126693185Y-74538000D02*
X121300240Y-79930945D01*
X140169302Y-74658101D02*
X140049201Y-74538000D01*
X142025166Y-74658101D02*
X140169302Y-74658101D01*
X140049201Y-74538000D02*
X126693185Y-74538000D01*
D19*
%TO.N,G6*%
X145415000Y-76835000D02*
X141408250Y-72828250D01*
X141408250Y-72828250D02*
X135397240Y-72828250D01*
X145415000Y-79375000D02*
X145415000Y-76835000D01*
X148367240Y-80686250D02*
X146726250Y-80686250D01*
X146726250Y-80686250D02*
X145415000Y-79375000D01*
%TO.N,+3.3V*%
X151130000Y-67563240D02*
X151130000Y-64770760D01*
X150367240Y-68326000D02*
X151130000Y-67563240D01*
X151130000Y-64770760D02*
X150367240Y-64008000D01*
%TO.N,G1*%
X153780240Y-77273250D02*
X150367240Y-80686250D01*
X158892240Y-77273250D02*
X153780240Y-77273250D01*
%TO.N,A*%
X158892240Y-78543250D02*
X154510240Y-78543250D01*
X154510240Y-78543250D02*
X150367240Y-82686250D01*
%TO.N,G2*%
X162702240Y-63938250D02*
X155717240Y-70923250D01*
X155717240Y-70923250D02*
X155717240Y-71336250D01*
X155717240Y-71336250D02*
X150367240Y-76686250D01*
%TO.N,G3*%
X152034240Y-71384160D02*
X150732150Y-72686250D01*
X152415240Y-62668250D02*
X152034240Y-63049250D01*
X150732150Y-72686250D02*
X150367240Y-72686250D01*
X152034240Y-63049250D02*
X152034240Y-71384160D01*
%TO.N,B*%
X152796240Y-63684250D02*
X152796240Y-72257250D01*
X152796240Y-72257250D02*
X150367240Y-74686250D01*
X153812240Y-62668250D02*
X152796240Y-63684250D01*
%TO.N,G4*%
X137302240Y-62033250D02*
X137302240Y-66436240D01*
X147552250Y-76686250D02*
X148367240Y-76686250D01*
X137302240Y-66436240D02*
X147552250Y-76686250D01*
%TO.N,G5*%
X139842240Y-86163250D02*
X140864690Y-85140800D01*
X147912690Y-85140800D02*
X148367240Y-84686250D01*
X140864690Y-85140800D02*
X147912690Y-85140800D01*
%TO.N,C*%
X140509090Y-84226400D02*
X146827090Y-84226400D01*
X146827090Y-84226400D02*
X148367240Y-82686250D01*
X139842240Y-84893250D02*
X140509090Y-84226400D01*
D17*
%TO.N,Shunt_1*%
X143002000Y-89154000D02*
X144287240Y-87868760D01*
D18*
X137123000Y-91403000D02*
X136398000Y-90678000D01*
X150367240Y-88686250D02*
X147650490Y-91403000D01*
X147650490Y-91403000D02*
X137123000Y-91403000D01*
D17*
X133350000Y-91243250D02*
X135439250Y-89154000D01*
X135439250Y-89154000D02*
X143002000Y-89154000D01*
X144287240Y-87868760D02*
X144287240Y-86442750D01*
D18*
%TO.N,Shunt_2*%
X146375490Y-90678000D02*
X146812000Y-90241490D01*
X139446000Y-90678000D02*
X146375490Y-90678000D01*
X146883490Y-90170000D02*
X148367240Y-88686250D01*
D19*
%TO.N,+3.3V*%
X150367240Y-68193750D02*
X148224240Y-66050750D01*
X152413408Y-61468000D02*
X150367240Y-63514168D01*
X129491000Y-73963000D02*
X122197490Y-73963000D01*
X150367240Y-63514168D02*
X150367240Y-64008000D01*
X150367240Y-62002750D02*
X150764240Y-61605750D01*
X162560000Y-61468000D02*
X152413408Y-61468000D01*
X174384056Y-75115342D02*
X173623714Y-74355000D01*
X164338000Y-68453000D02*
X164338000Y-63246000D01*
X164338000Y-63246000D02*
X162560000Y-61468000D01*
X122197490Y-73963000D02*
X120792240Y-75368250D01*
X135382000Y-60706000D02*
X132080000Y-64008000D01*
X147574000Y-60706000D02*
X135382000Y-60706000D01*
X170240000Y-74355000D02*
X164338000Y-68453000D01*
X150241000Y-63373000D02*
X147574000Y-60706000D01*
X173623714Y-74355000D02*
X170240000Y-74355000D01*
X150367240Y-70686250D02*
X150367240Y-68326000D01*
X132080000Y-71374000D02*
X129491000Y-73963000D01*
X132080000Y-64008000D02*
X132080000Y-71374000D01*
X150367240Y-64008000D02*
X150367240Y-62002750D01*
X150367240Y-68326000D02*
X150367240Y-68193750D01*
D18*
%TO.N,SDA_MCU*%
X153921356Y-75694733D02*
X154172623Y-75946000D01*
X154172623Y-75946000D02*
X171450000Y-75946000D01*
X175148240Y-79644240D02*
X175148240Y-79940250D01*
X171450000Y-75946000D02*
X175148240Y-79644240D01*
%TO.N,SCL_MCU*%
X154616364Y-74976424D02*
X155077940Y-75438000D01*
X171814647Y-75438000D02*
X176159941Y-79783294D01*
X155077940Y-75438000D02*
X171814647Y-75438000D01*
X176159941Y-79783294D02*
X176159941Y-79935951D01*
%TO.N,~{OS}_MCU*%
X177180240Y-79930945D02*
X172179295Y-74930000D01*
X177180240Y-79940250D02*
X177180240Y-79930945D01*
X172179295Y-74930000D02*
X155956000Y-74930000D01*
X155956000Y-74930000D02*
X155448000Y-74422000D01*
%TD*%
%TA.AperFunction,Conductor*%
%TO.N,Shunt_1*%
G36*
X148528000Y-92726613D02*
G01*
X148573387Y-92772000D01*
X148590000Y-92834000D01*
X148590000Y-119256000D01*
X148573387Y-119318000D01*
X148528000Y-119363387D01*
X148466000Y-119380000D01*
X147904303Y-119380000D01*
X147844187Y-119364453D01*
X147799145Y-119321710D01*
X147780473Y-119262489D01*
X147772843Y-119116895D01*
X147715456Y-118754566D01*
X147620505Y-118400204D01*
X147489037Y-118057718D01*
X147322486Y-117730844D01*
X147122687Y-117423181D01*
X146933941Y-117190101D01*
X144744042Y-119380000D01*
X143830436Y-119380000D01*
X141640537Y-117190101D01*
X141451792Y-117423181D01*
X141251993Y-117730844D01*
X141085442Y-118057718D01*
X140953974Y-118400204D01*
X140859023Y-118754566D01*
X140801636Y-119116895D01*
X140794007Y-119262489D01*
X140775335Y-119321710D01*
X140730293Y-119364453D01*
X140670177Y-119380000D01*
X134186396Y-119380000D01*
X134120286Y-119360907D01*
X134074534Y-119309507D01*
X134063232Y-119241629D01*
X134089858Y-119178177D01*
X134100620Y-119164827D01*
X134173645Y-119074240D01*
X134466989Y-118650105D01*
X134518895Y-118561860D01*
X137067182Y-118561860D01*
X137114006Y-118598305D01*
X137332633Y-118716618D01*
X137567746Y-118797333D01*
X137812947Y-118838250D01*
X138061533Y-118838250D01*
X138306733Y-118797333D01*
X138541846Y-118716618D01*
X138760473Y-118598303D01*
X138807296Y-118561859D01*
X137937240Y-117691803D01*
X137067182Y-118561859D01*
X137067182Y-118561860D01*
X134518895Y-118561860D01*
X134728446Y-118205603D01*
X134956610Y-117743128D01*
X135120644Y-117338249D01*
X136432098Y-117338249D01*
X136452626Y-117585982D01*
X136513653Y-117826971D01*
X136613508Y-118054620D01*
X136713803Y-118208132D01*
X136713804Y-118208132D01*
X137583687Y-117338251D01*
X138290793Y-117338251D01*
X139160674Y-118208132D01*
X139260970Y-118054619D01*
X139360826Y-117826971D01*
X139421853Y-117585982D01*
X139442381Y-117338249D01*
X139421853Y-117090517D01*
X139360826Y-116849528D01*
X139355132Y-116836547D01*
X141994091Y-116836547D01*
X144287240Y-119129696D01*
X144287241Y-119129696D01*
X146580388Y-116836547D01*
X146347308Y-116647802D01*
X146039646Y-116448003D01*
X145712771Y-116281452D01*
X145370285Y-116149984D01*
X145015923Y-116055033D01*
X144653594Y-115997647D01*
X144287240Y-115978447D01*
X143920885Y-115997647D01*
X143558556Y-116055033D01*
X143204194Y-116149984D01*
X142861708Y-116281452D01*
X142534834Y-116448003D01*
X142227171Y-116647802D01*
X141994091Y-116836547D01*
X139355132Y-116836547D01*
X139260970Y-116621880D01*
X139160674Y-116468366D01*
X138290793Y-117338250D01*
X138290793Y-117338251D01*
X137583687Y-117338251D01*
X137583687Y-117338250D01*
X136713804Y-116468366D01*
X136613506Y-116621884D01*
X136513653Y-116849528D01*
X136452626Y-117090517D01*
X136432098Y-117338249D01*
X135120644Y-117338249D01*
X135150251Y-117265170D01*
X135308329Y-116774300D01*
X135429992Y-116273161D01*
X135429991Y-116273161D01*
X135429994Y-116273153D01*
X135456352Y-116114640D01*
X137067182Y-116114640D01*
X137937240Y-116984697D01*
X137937241Y-116984697D01*
X138807297Y-116114640D01*
X138807296Y-116114638D01*
X138760475Y-116078197D01*
X138541846Y-115959881D01*
X138306733Y-115879166D01*
X138061533Y-115838250D01*
X137812947Y-115838250D01*
X137567746Y-115879166D01*
X137332633Y-115959881D01*
X137114004Y-116078196D01*
X137067182Y-116114638D01*
X137067182Y-116114640D01*
X135456352Y-116114640D01*
X135514584Y-115764451D01*
X135521988Y-115683671D01*
X135561652Y-115250909D01*
X135570941Y-114735297D01*
X135542401Y-114220392D01*
X135476187Y-113708966D01*
X135372653Y-113203770D01*
X135274746Y-112857455D01*
X135232361Y-112707531D01*
X135185464Y-112578619D01*
X135056058Y-112222902D01*
X134844701Y-111752509D01*
X134831727Y-111728515D01*
X134599429Y-111298888D01*
X134599428Y-111298886D01*
X134599424Y-111298879D01*
X134321547Y-110864452D01*
X134012568Y-110451568D01*
X133674148Y-110062449D01*
X133308110Y-109699190D01*
X133308103Y-109699183D01*
X132916423Y-109363744D01*
X132623719Y-109148162D01*
X132501196Y-109057921D01*
X132446070Y-109023249D01*
X139236557Y-109023249D01*
X139257196Y-109180012D01*
X139317703Y-109326090D01*
X139413957Y-109451532D01*
X139539399Y-109547786D01*
X139685478Y-109608294D01*
X139842240Y-109628932D01*
X139999002Y-109608294D01*
X140145081Y-109547786D01*
X140270522Y-109451532D01*
X140366776Y-109326091D01*
X140427284Y-109180012D01*
X140447922Y-109023250D01*
X140447922Y-109023249D01*
X143046557Y-109023249D01*
X143067196Y-109180012D01*
X143127703Y-109326090D01*
X143223957Y-109451532D01*
X143349399Y-109547786D01*
X143495478Y-109608294D01*
X143652240Y-109628932D01*
X143809002Y-109608294D01*
X143955081Y-109547786D01*
X144080522Y-109451532D01*
X144176776Y-109326091D01*
X144237284Y-109180012D01*
X144257922Y-109023250D01*
X144237284Y-108866488D01*
X144176776Y-108720409D01*
X144169724Y-108711219D01*
X144080522Y-108594967D01*
X143955080Y-108498713D01*
X143809002Y-108438206D01*
X143652240Y-108417567D01*
X143495477Y-108438206D01*
X143349399Y-108498713D01*
X143223957Y-108594967D01*
X143127703Y-108720409D01*
X143067196Y-108866487D01*
X143046557Y-109023249D01*
X140447922Y-109023249D01*
X140427284Y-108866488D01*
X140366776Y-108720409D01*
X140359724Y-108711219D01*
X140270522Y-108594967D01*
X140145080Y-108498713D01*
X139999002Y-108438206D01*
X139842240Y-108417567D01*
X139685477Y-108438206D01*
X139539399Y-108498713D01*
X139413957Y-108594967D01*
X139317703Y-108720409D01*
X139257196Y-108866487D01*
X139236557Y-109023249D01*
X132446070Y-109023249D01*
X132196827Y-108866487D01*
X132064664Y-108783362D01*
X131656215Y-108566522D01*
X131608091Y-108520898D01*
X131590359Y-108456999D01*
X131590359Y-99391054D01*
X131590370Y-99357736D01*
X131590421Y-99205750D01*
X139236557Y-99205750D01*
X139257196Y-99362512D01*
X139317703Y-99508590D01*
X139413957Y-99634032D01*
X139523369Y-99717986D01*
X139539399Y-99730286D01*
X139685478Y-99790794D01*
X139842240Y-99811432D01*
X139999002Y-99790794D01*
X140145081Y-99730286D01*
X140270522Y-99634032D01*
X140366776Y-99508591D01*
X140427284Y-99362512D01*
X140447922Y-99205750D01*
X140446303Y-99193449D01*
X143097357Y-99193449D01*
X143117996Y-99350212D01*
X143178503Y-99496290D01*
X143274757Y-99621732D01*
X143400198Y-99717985D01*
X143400199Y-99717986D01*
X143546278Y-99778494D01*
X143703040Y-99799132D01*
X143859802Y-99778494D01*
X144005881Y-99717986D01*
X144131322Y-99621732D01*
X144227576Y-99496291D01*
X144288084Y-99350212D01*
X144308722Y-99193450D01*
X144288084Y-99036688D01*
X144227576Y-98890609D01*
X144200150Y-98854867D01*
X144131322Y-98765167D01*
X144005880Y-98668913D01*
X143859802Y-98608406D01*
X143703040Y-98587767D01*
X143546277Y-98608406D01*
X143400199Y-98668913D01*
X143274757Y-98765167D01*
X143178503Y-98890609D01*
X143117996Y-99036687D01*
X143097357Y-99193449D01*
X140446303Y-99193449D01*
X140427284Y-99048988D01*
X140366776Y-98902909D01*
X140329912Y-98854867D01*
X140270522Y-98777467D01*
X140145080Y-98681213D01*
X139999002Y-98620706D01*
X139842240Y-98600067D01*
X139685477Y-98620706D01*
X139539399Y-98681213D01*
X139413957Y-98777467D01*
X139317703Y-98902909D01*
X139257196Y-99048987D01*
X139236557Y-99205750D01*
X131590421Y-99205750D01*
X131590443Y-99140074D01*
X131559126Y-98705877D01*
X131496458Y-98275087D01*
X131458981Y-98105037D01*
X131402767Y-97849961D01*
X131278547Y-97432746D01*
X131267868Y-97404533D01*
X131124445Y-97025603D01*
X130941275Y-96630690D01*
X130729995Y-96250074D01*
X130491716Y-95885752D01*
X130491715Y-95885751D01*
X130491712Y-95885746D01*
X130227688Y-95539637D01*
X129939293Y-95213541D01*
X129628052Y-94909184D01*
X129582243Y-94870452D01*
X129580308Y-94868607D01*
X129575692Y-94864712D01*
X129575690Y-94864710D01*
X129460780Y-94767754D01*
X129459292Y-94766476D01*
X128728302Y-94127617D01*
X128649522Y-94058766D01*
X128646323Y-94055871D01*
X127862449Y-93321151D01*
X127859353Y-93318146D01*
X127464605Y-92921467D01*
X127434494Y-92872088D01*
X127430055Y-92814423D01*
X127452253Y-92761017D01*
X127496259Y-92723488D01*
X127552500Y-92710000D01*
X148466000Y-92710000D01*
X148528000Y-92726613D01*
G37*
%TD.AperFunction*%
%TD*%
%TA.AperFunction,Conductor*%
%TO.N,GND*%
G36*
X154177500Y-92726613D02*
G01*
X154222887Y-92772000D01*
X154239500Y-92834000D01*
X154239500Y-93768371D01*
X154254860Y-93894872D01*
X154315182Y-94053930D01*
X154411815Y-94193927D01*
X154411816Y-94193928D01*
X154411817Y-94193929D01*
X154539148Y-94306734D01*
X154689775Y-94385790D01*
X154854944Y-94426500D01*
X155025055Y-94426500D01*
X155025056Y-94426500D01*
X155190225Y-94385790D01*
X155340852Y-94306734D01*
X155468183Y-94193929D01*
X155564818Y-94053930D01*
X155625140Y-93894872D01*
X155640500Y-93768372D01*
X155640500Y-93725999D01*
X158144317Y-93725999D01*
X158164956Y-93882762D01*
X158225463Y-94028840D01*
X158321717Y-94154282D01*
X158373387Y-94193929D01*
X158447159Y-94250536D01*
X158593238Y-94311044D01*
X158750000Y-94331682D01*
X158906762Y-94311044D01*
X159052841Y-94250536D01*
X159178282Y-94154282D01*
X159274536Y-94028841D01*
X159335044Y-93882762D01*
X159355682Y-93726000D01*
X159335044Y-93569238D01*
X159274536Y-93423159D01*
X159274535Y-93423158D01*
X159178282Y-93297717D01*
X159052840Y-93201463D01*
X158906762Y-93140956D01*
X158750000Y-93120317D01*
X158593237Y-93140956D01*
X158447159Y-93201463D01*
X158321717Y-93297717D01*
X158225463Y-93423159D01*
X158164956Y-93569237D01*
X158144317Y-93725999D01*
X155640500Y-93725999D01*
X155640500Y-92834000D01*
X155657113Y-92772000D01*
X155702500Y-92726613D01*
X155764500Y-92710000D01*
X171348758Y-92710000D01*
X171404916Y-92723446D01*
X171448896Y-92760867D01*
X171471159Y-92814149D01*
X171466877Y-92871735D01*
X171436979Y-92921138D01*
X171126353Y-93235622D01*
X171123283Y-93238625D01*
X170345986Y-93972891D01*
X170342813Y-93975785D01*
X169540755Y-94682523D01*
X169539130Y-94683930D01*
X169374012Y-94824415D01*
X169065198Y-95128175D01*
X168779089Y-95453403D01*
X168517175Y-95798403D01*
X168280818Y-96161374D01*
X168071227Y-96540466D01*
X167889513Y-96933674D01*
X167736624Y-97338936D01*
X167613343Y-97754185D01*
X167520315Y-98177245D01*
X167458028Y-98605898D01*
X167426805Y-99037921D01*
X167426813Y-99254502D01*
X167426813Y-108415611D01*
X167408094Y-108481124D01*
X167357589Y-108526855D01*
X166988988Y-108708343D01*
X166984122Y-108710740D01*
X166535065Y-108974902D01*
X166106852Y-109271623D01*
X165701804Y-109599289D01*
X165322180Y-109956077D01*
X165022151Y-110283228D01*
X164970047Y-110340042D01*
X164647358Y-110749057D01*
X164468230Y-111014436D01*
X164355884Y-111180876D01*
X164097231Y-111633119D01*
X163872831Y-112103280D01*
X163683904Y-112588807D01*
X163531500Y-113087001D01*
X163416458Y-113595114D01*
X163339410Y-114110374D01*
X163300779Y-114629925D01*
X163300779Y-115150896D01*
X163339411Y-115670461D01*
X163416456Y-116185693D01*
X163493508Y-116526014D01*
X163531501Y-116693822D01*
X163683904Y-117192014D01*
X163848804Y-117615792D01*
X163872832Y-117677540D01*
X164097231Y-118147701D01*
X164097234Y-118147707D01*
X164355886Y-118599948D01*
X164647358Y-119031764D01*
X164647362Y-119031769D01*
X164647364Y-119031772D01*
X164763673Y-119179196D01*
X164789597Y-119242600D01*
X164777902Y-119310094D01*
X164732158Y-119361080D01*
X164666323Y-119380000D01*
X158565551Y-119380000D01*
X158505316Y-119364387D01*
X158460250Y-119321481D01*
X158441700Y-119262085D01*
X158439643Y-119220225D01*
X158433278Y-119090659D01*
X158375604Y-118701850D01*
X158280097Y-118320566D01*
X158266802Y-118283410D01*
X158147681Y-117950486D01*
X158147680Y-117950484D01*
X158147678Y-117950478D01*
X157979621Y-117595153D01*
X157979620Y-117595151D01*
X157979618Y-117595147D01*
X157825640Y-117338250D01*
X159591597Y-117338250D01*
X159612125Y-117559787D01*
X159673009Y-117773776D01*
X159772181Y-117972938D01*
X159906259Y-118150487D01*
X160070677Y-118300374D01*
X160259835Y-118417495D01*
X160259837Y-118417495D01*
X160259839Y-118417497D01*
X160467300Y-118497868D01*
X160685997Y-118538750D01*
X160908481Y-118538750D01*
X160908483Y-118538750D01*
X161127180Y-118497868D01*
X161334641Y-118417497D01*
X161523802Y-118300374D01*
X161688221Y-118150486D01*
X161822298Y-117972939D01*
X161921469Y-117773778D01*
X161982355Y-117559786D01*
X162002883Y-117338250D01*
X161982355Y-117116714D01*
X161932730Y-116942299D01*
X161921470Y-116902723D01*
X161822298Y-116703561D01*
X161688220Y-116526012D01*
X161523802Y-116376125D01*
X161334644Y-116259004D01*
X161273414Y-116235283D01*
X161127180Y-116178632D01*
X160908483Y-116137750D01*
X160685997Y-116137750D01*
X160467299Y-116178632D01*
X160467300Y-116178632D01*
X160259835Y-116259004D01*
X160070677Y-116376125D01*
X159906259Y-116526012D01*
X159772181Y-116703561D01*
X159673009Y-116902723D01*
X159612125Y-117116712D01*
X159591597Y-117338250D01*
X157825640Y-117338250D01*
X157777549Y-117258015D01*
X157672753Y-117116714D01*
X157543398Y-116942299D01*
X157543396Y-116942297D01*
X157543394Y-116942294D01*
X157279432Y-116651057D01*
X156988195Y-116387095D01*
X156672474Y-116152940D01*
X156335342Y-115950871D01*
X156126762Y-115852220D01*
X155980012Y-115782812D01*
X155980009Y-115782811D01*
X155980003Y-115782808D01*
X155609929Y-115650394D01*
X155228641Y-115554886D01*
X154839833Y-115497212D01*
X154447240Y-115477924D01*
X154054646Y-115497212D01*
X153665838Y-115554886D01*
X153284550Y-115650394D01*
X152914476Y-115782808D01*
X152559137Y-115950871D01*
X152222005Y-116152940D01*
X151906284Y-116387095D01*
X151615047Y-116651057D01*
X151351085Y-116942294D01*
X151116930Y-117258015D01*
X150914861Y-117595147D01*
X150746798Y-117950486D01*
X150614384Y-118320560D01*
X150518876Y-118701848D01*
X150461202Y-119090656D01*
X150452780Y-119262085D01*
X150434230Y-119321481D01*
X150389164Y-119364387D01*
X150328929Y-119380000D01*
X149476000Y-119380000D01*
X149414000Y-119363387D01*
X149368613Y-119318000D01*
X149352000Y-119256000D01*
X149352000Y-106483249D01*
X165271557Y-106483249D01*
X165292196Y-106640012D01*
X165352703Y-106786090D01*
X165448957Y-106911532D01*
X165574398Y-107007785D01*
X165574399Y-107007786D01*
X165720478Y-107068294D01*
X165877240Y-107088932D01*
X166034002Y-107068294D01*
X166180081Y-107007786D01*
X166305522Y-106911532D01*
X166401776Y-106786091D01*
X166462284Y-106640012D01*
X166482922Y-106483250D01*
X166462284Y-106326488D01*
X166401776Y-106180409D01*
X166401775Y-106180408D01*
X166305522Y-106054967D01*
X166180080Y-105958713D01*
X166034002Y-105898206D01*
X165877240Y-105877567D01*
X165720477Y-105898206D01*
X165574399Y-105958713D01*
X165448957Y-106054967D01*
X165352703Y-106180409D01*
X165292196Y-106326487D01*
X165271557Y-106483249D01*
X149352000Y-106483249D01*
X149352000Y-93725999D01*
X150524317Y-93725999D01*
X150544956Y-93882762D01*
X150605463Y-94028840D01*
X150701717Y-94154282D01*
X150753387Y-94193929D01*
X150827159Y-94250536D01*
X150973238Y-94311044D01*
X151130000Y-94331682D01*
X151286762Y-94311044D01*
X151432841Y-94250536D01*
X151558282Y-94154282D01*
X151654536Y-94028841D01*
X151715044Y-93882762D01*
X151735682Y-93726000D01*
X151715044Y-93569238D01*
X151654536Y-93423159D01*
X151654535Y-93423158D01*
X151558282Y-93297717D01*
X151432840Y-93201463D01*
X151286762Y-93140956D01*
X151130000Y-93120317D01*
X150973237Y-93140956D01*
X150827159Y-93201463D01*
X150701717Y-93297717D01*
X150605463Y-93423159D01*
X150544956Y-93569237D01*
X150524317Y-93725999D01*
X149352000Y-93725999D01*
X149352000Y-92834000D01*
X149368613Y-92772000D01*
X149414000Y-92726613D01*
X149476000Y-92710000D01*
X154115500Y-92710000D01*
X154177500Y-92726613D01*
G37*
%TD.AperFunction*%
%TD*%
%TA.AperFunction,Conductor*%
%TO.N,B*%
G36*
X150554759Y-40094508D02*
G01*
X150559131Y-40094665D01*
X151659825Y-40153663D01*
X151664144Y-40153972D01*
X152761999Y-40252217D01*
X152766377Y-40252687D01*
X153860043Y-40390056D01*
X153864325Y-40390671D01*
X154952392Y-40566989D01*
X154956722Y-40567770D01*
X156037776Y-40782805D01*
X156042043Y-40783733D01*
X157114734Y-41037216D01*
X157118970Y-41038297D01*
X157677846Y-41191617D01*
X157736955Y-41227968D01*
X157767280Y-41290384D01*
X157759321Y-41359319D01*
X157743545Y-41396784D01*
X157613986Y-41808629D01*
X157523559Y-42230808D01*
X157473064Y-42659587D01*
X157462944Y-43091221D01*
X157493283Y-43521888D01*
X157563824Y-43947844D01*
X157673934Y-44365303D01*
X157822658Y-44770628D01*
X158008683Y-45160247D01*
X158230374Y-45530732D01*
X158485782Y-45878826D01*
X158772663Y-46201474D01*
X159088503Y-46495846D01*
X159338545Y-46688487D01*
X159430514Y-46759343D01*
X159795699Y-46989658D01*
X160180846Y-47184764D01*
X160582571Y-47342947D01*
X160997343Y-47462817D01*
X161421518Y-47543321D01*
X161751772Y-47574382D01*
X161851365Y-47583750D01*
X161851367Y-47583750D01*
X162175111Y-47583750D01*
X162175117Y-47583750D01*
X162498512Y-47568575D01*
X162925993Y-47508042D01*
X163345928Y-47407745D01*
X163754626Y-47268566D01*
X164148495Y-47091727D01*
X164328518Y-46989658D01*
X164524075Y-46878782D01*
X164701068Y-46755192D01*
X164878062Y-46631603D01*
X165207348Y-46352363D01*
X165509039Y-46043515D01*
X165780484Y-45707773D01*
X166019296Y-45348087D01*
X166144150Y-45115321D01*
X166191525Y-45066491D01*
X166257538Y-45050006D01*
X166322310Y-45070835D01*
X166456122Y-45160246D01*
X167128368Y-45609426D01*
X167131997Y-45611945D01*
X167502098Y-45878826D01*
X168026028Y-46256633D01*
X168029571Y-46259286D01*
X168899997Y-46935454D01*
X168903415Y-46938209D01*
X168964979Y-46989659D01*
X169749136Y-47644999D01*
X169752481Y-47647897D01*
X170572490Y-48384471D01*
X170575717Y-48387476D01*
X171368891Y-49152826D01*
X171371971Y-49155906D01*
X172137309Y-49949067D01*
X172140326Y-49952306D01*
X172533429Y-50389937D01*
X172560644Y-50439568D01*
X172562967Y-50496122D01*
X172539914Y-50547817D01*
X172496288Y-50583881D01*
X172441180Y-50596800D01*
X162712400Y-50596800D01*
X162712400Y-59312000D01*
X162695787Y-59374000D01*
X162650400Y-59419387D01*
X162588400Y-59436000D01*
X136166400Y-59436000D01*
X136104400Y-59419387D01*
X136059013Y-59374000D01*
X136042400Y-59312000D01*
X136042400Y-57287750D01*
X147364557Y-57287750D01*
X147385196Y-57444512D01*
X147445703Y-57590590D01*
X147541957Y-57716032D01*
X147667398Y-57812285D01*
X147667399Y-57812286D01*
X147813478Y-57872794D01*
X147949601Y-57890714D01*
X147970239Y-57893432D01*
X147970239Y-57893431D01*
X147970240Y-57893432D01*
X148127002Y-57872794D01*
X148273081Y-57812286D01*
X148398522Y-57716032D01*
X148494776Y-57590591D01*
X148555284Y-57444512D01*
X148575922Y-57287750D01*
X148555284Y-57130988D01*
X148494776Y-56984909D01*
X148398522Y-56859467D01*
X148273080Y-56763213D01*
X148127002Y-56702706D01*
X147970240Y-56682067D01*
X147813477Y-56702706D01*
X147667399Y-56763213D01*
X147541957Y-56859467D01*
X147445703Y-56984909D01*
X147385196Y-57130987D01*
X147364557Y-57287750D01*
X136042400Y-57287750D01*
X136042400Y-55048249D01*
X152952557Y-55048249D01*
X152973196Y-55205012D01*
X153033703Y-55351090D01*
X153129957Y-55476532D01*
X153255398Y-55572785D01*
X153255399Y-55572786D01*
X153401478Y-55633294D01*
X153558240Y-55653932D01*
X153715002Y-55633294D01*
X153861081Y-55572786D01*
X153986522Y-55476532D01*
X154082776Y-55351091D01*
X154082775Y-55351091D01*
X154092714Y-55338140D01*
X154094358Y-55339401D01*
X154112707Y-55314146D01*
X154164292Y-55287861D01*
X154222188Y-55287861D01*
X154273773Y-55314146D01*
X154292121Y-55339401D01*
X154293766Y-55338140D01*
X154399957Y-55476532D01*
X154525398Y-55572785D01*
X154525399Y-55572786D01*
X154671478Y-55633294D01*
X154828240Y-55653932D01*
X154985002Y-55633294D01*
X155131081Y-55572786D01*
X155256522Y-55476532D01*
X155352776Y-55351091D01*
X155352775Y-55351091D01*
X155362714Y-55338140D01*
X155364358Y-55339401D01*
X155382707Y-55314146D01*
X155434292Y-55287861D01*
X155492188Y-55287861D01*
X155543773Y-55314146D01*
X155562121Y-55339401D01*
X155563766Y-55338140D01*
X155669957Y-55476532D01*
X155795398Y-55572785D01*
X155795399Y-55572786D01*
X155941478Y-55633294D01*
X156098240Y-55653932D01*
X156255002Y-55633294D01*
X156401081Y-55572786D01*
X156526522Y-55476532D01*
X156622776Y-55351091D01*
X156622775Y-55351091D01*
X156632714Y-55338140D01*
X156634358Y-55339401D01*
X156652707Y-55314146D01*
X156704292Y-55287861D01*
X156762188Y-55287861D01*
X156813773Y-55314146D01*
X156832121Y-55339401D01*
X156833766Y-55338140D01*
X156939957Y-55476532D01*
X157065398Y-55572785D01*
X157065399Y-55572786D01*
X157211478Y-55633294D01*
X157368240Y-55653932D01*
X157525002Y-55633294D01*
X157671081Y-55572786D01*
X157796522Y-55476532D01*
X157892776Y-55351091D01*
X157892775Y-55351091D01*
X157902714Y-55338140D01*
X157904358Y-55339401D01*
X157922707Y-55314146D01*
X157974292Y-55287861D01*
X158032188Y-55287861D01*
X158083773Y-55314146D01*
X158102121Y-55339401D01*
X158103766Y-55338140D01*
X158209957Y-55476532D01*
X158335398Y-55572785D01*
X158335399Y-55572786D01*
X158481478Y-55633294D01*
X158638240Y-55653932D01*
X158795002Y-55633294D01*
X158941081Y-55572786D01*
X159066522Y-55476532D01*
X159162776Y-55351091D01*
X159162775Y-55351091D01*
X159172714Y-55338140D01*
X159174358Y-55339401D01*
X159192707Y-55314146D01*
X159244292Y-55287861D01*
X159302188Y-55287861D01*
X159353773Y-55314146D01*
X159372121Y-55339401D01*
X159373766Y-55338140D01*
X159479957Y-55476532D01*
X159605398Y-55572785D01*
X159605399Y-55572786D01*
X159751478Y-55633294D01*
X159908240Y-55653932D01*
X160065002Y-55633294D01*
X160211081Y-55572786D01*
X160336522Y-55476532D01*
X160432776Y-55351091D01*
X160432775Y-55351091D01*
X160442714Y-55338140D01*
X160444358Y-55339401D01*
X160462707Y-55314146D01*
X160514292Y-55287861D01*
X160572188Y-55287861D01*
X160623773Y-55314146D01*
X160642121Y-55339401D01*
X160643766Y-55338140D01*
X160749957Y-55476532D01*
X160875398Y-55572785D01*
X160875399Y-55572786D01*
X161021478Y-55633294D01*
X161178240Y-55653932D01*
X161335002Y-55633294D01*
X161481081Y-55572786D01*
X161606522Y-55476532D01*
X161702776Y-55351091D01*
X161763284Y-55205012D01*
X161783922Y-55048250D01*
X161763284Y-54891488D01*
X161702776Y-54745409D01*
X161606522Y-54619967D01*
X161481080Y-54523713D01*
X161335002Y-54463206D01*
X161178240Y-54442567D01*
X161021477Y-54463206D01*
X160875399Y-54523713D01*
X160749957Y-54619967D01*
X160643766Y-54758360D01*
X160642121Y-54757097D01*
X160623769Y-54782356D01*
X160572186Y-54808638D01*
X160514294Y-54808638D01*
X160462711Y-54782356D01*
X160444358Y-54757097D01*
X160442714Y-54758360D01*
X160336522Y-54619967D01*
X160211080Y-54523713D01*
X160065002Y-54463206D01*
X159908240Y-54442567D01*
X159751477Y-54463206D01*
X159605399Y-54523713D01*
X159479957Y-54619967D01*
X159373766Y-54758360D01*
X159372121Y-54757097D01*
X159353769Y-54782356D01*
X159302186Y-54808638D01*
X159244294Y-54808638D01*
X159192711Y-54782356D01*
X159174358Y-54757097D01*
X159172714Y-54758360D01*
X159066522Y-54619967D01*
X158941080Y-54523713D01*
X158795002Y-54463206D01*
X158638240Y-54442567D01*
X158481477Y-54463206D01*
X158335399Y-54523713D01*
X158209957Y-54619967D01*
X158103766Y-54758360D01*
X158102121Y-54757097D01*
X158083769Y-54782356D01*
X158032186Y-54808638D01*
X157974294Y-54808638D01*
X157922711Y-54782356D01*
X157904358Y-54757097D01*
X157902714Y-54758360D01*
X157796522Y-54619967D01*
X157671080Y-54523713D01*
X157525002Y-54463206D01*
X157368240Y-54442567D01*
X157211477Y-54463206D01*
X157065399Y-54523713D01*
X156939957Y-54619967D01*
X156833766Y-54758360D01*
X156832121Y-54757097D01*
X156813769Y-54782356D01*
X156762186Y-54808638D01*
X156704294Y-54808638D01*
X156652711Y-54782356D01*
X156634358Y-54757097D01*
X156632714Y-54758360D01*
X156526522Y-54619967D01*
X156401080Y-54523713D01*
X156255002Y-54463206D01*
X156098240Y-54442567D01*
X155941477Y-54463206D01*
X155795399Y-54523713D01*
X155669957Y-54619967D01*
X155563766Y-54758360D01*
X155562121Y-54757097D01*
X155543769Y-54782356D01*
X155492186Y-54808638D01*
X155434294Y-54808638D01*
X155382711Y-54782356D01*
X155364358Y-54757097D01*
X155362714Y-54758360D01*
X155256522Y-54619967D01*
X155131080Y-54523713D01*
X154985002Y-54463206D01*
X154828240Y-54442567D01*
X154671477Y-54463206D01*
X154525399Y-54523713D01*
X154399957Y-54619967D01*
X154293766Y-54758360D01*
X154292121Y-54757097D01*
X154273769Y-54782356D01*
X154222186Y-54808638D01*
X154164294Y-54808638D01*
X154112711Y-54782356D01*
X154094358Y-54757097D01*
X154092714Y-54758360D01*
X153986522Y-54619967D01*
X153861080Y-54523713D01*
X153715002Y-54463206D01*
X153558240Y-54442567D01*
X153401477Y-54463206D01*
X153255399Y-54523713D01*
X153129957Y-54619967D01*
X153033703Y-54745409D01*
X152973196Y-54891487D01*
X152952557Y-55048249D01*
X136042400Y-55048249D01*
X136042400Y-51873249D01*
X154222557Y-51873249D01*
X154243196Y-52030012D01*
X154303703Y-52176090D01*
X154399957Y-52301532D01*
X154525398Y-52397785D01*
X154525399Y-52397786D01*
X154671478Y-52458294D01*
X154828240Y-52478932D01*
X154985002Y-52458294D01*
X155131081Y-52397786D01*
X155256522Y-52301532D01*
X155352776Y-52176091D01*
X155352775Y-52176091D01*
X155362714Y-52163140D01*
X155364358Y-52164401D01*
X155382707Y-52139146D01*
X155434292Y-52112861D01*
X155492188Y-52112861D01*
X155543773Y-52139146D01*
X155562121Y-52164401D01*
X155563766Y-52163140D01*
X155669957Y-52301532D01*
X155795398Y-52397785D01*
X155795399Y-52397786D01*
X155941478Y-52458294D01*
X156098240Y-52478932D01*
X156255002Y-52458294D01*
X156401081Y-52397786D01*
X156526522Y-52301532D01*
X156622776Y-52176091D01*
X156622775Y-52176091D01*
X156632714Y-52163140D01*
X156634358Y-52164401D01*
X156652707Y-52139146D01*
X156704292Y-52112861D01*
X156762188Y-52112861D01*
X156813773Y-52139146D01*
X156832121Y-52164401D01*
X156833766Y-52163140D01*
X156939957Y-52301532D01*
X157065398Y-52397785D01*
X157065399Y-52397786D01*
X157211478Y-52458294D01*
X157368240Y-52478932D01*
X157525002Y-52458294D01*
X157671081Y-52397786D01*
X157796522Y-52301532D01*
X157892776Y-52176091D01*
X157892775Y-52176091D01*
X157902714Y-52163140D01*
X157904358Y-52164401D01*
X157922707Y-52139146D01*
X157974292Y-52112861D01*
X158032188Y-52112861D01*
X158083773Y-52139146D01*
X158102121Y-52164401D01*
X158103766Y-52163140D01*
X158209957Y-52301532D01*
X158335398Y-52397785D01*
X158335399Y-52397786D01*
X158481478Y-52458294D01*
X158638240Y-52478932D01*
X158795002Y-52458294D01*
X158941081Y-52397786D01*
X159066522Y-52301532D01*
X159162776Y-52176091D01*
X159162775Y-52176091D01*
X159172714Y-52163140D01*
X159174358Y-52164401D01*
X159192707Y-52139146D01*
X159244292Y-52112861D01*
X159302188Y-52112861D01*
X159353773Y-52139146D01*
X159372121Y-52164401D01*
X159373766Y-52163140D01*
X159479957Y-52301532D01*
X159605398Y-52397785D01*
X159605399Y-52397786D01*
X159751478Y-52458294D01*
X159908240Y-52478932D01*
X160065002Y-52458294D01*
X160211081Y-52397786D01*
X160336522Y-52301532D01*
X160432776Y-52176091D01*
X160493284Y-52030012D01*
X160513922Y-51873250D01*
X160493284Y-51716488D01*
X160432776Y-51570409D01*
X160432775Y-51570408D01*
X160336522Y-51444967D01*
X160211080Y-51348713D01*
X160065002Y-51288206D01*
X159908240Y-51267567D01*
X159751477Y-51288206D01*
X159605399Y-51348713D01*
X159479957Y-51444967D01*
X159373766Y-51583360D01*
X159372121Y-51582097D01*
X159353769Y-51607356D01*
X159302186Y-51633638D01*
X159244294Y-51633638D01*
X159192711Y-51607356D01*
X159174358Y-51582097D01*
X159172714Y-51583360D01*
X159066522Y-51444967D01*
X158941080Y-51348713D01*
X158795002Y-51288206D01*
X158638240Y-51267567D01*
X158481477Y-51288206D01*
X158335399Y-51348713D01*
X158209957Y-51444967D01*
X158103766Y-51583360D01*
X158102121Y-51582097D01*
X158083769Y-51607356D01*
X158032186Y-51633638D01*
X157974294Y-51633638D01*
X157922711Y-51607356D01*
X157904358Y-51582097D01*
X157902714Y-51583360D01*
X157796522Y-51444967D01*
X157671080Y-51348713D01*
X157525002Y-51288206D01*
X157368240Y-51267567D01*
X157211477Y-51288206D01*
X157065399Y-51348713D01*
X156939957Y-51444967D01*
X156833766Y-51583360D01*
X156832121Y-51582097D01*
X156813769Y-51607356D01*
X156762186Y-51633638D01*
X156704294Y-51633638D01*
X156652711Y-51607356D01*
X156634358Y-51582097D01*
X156632714Y-51583360D01*
X156526522Y-51444967D01*
X156401080Y-51348713D01*
X156255002Y-51288206D01*
X156098240Y-51267567D01*
X155941477Y-51288206D01*
X155795399Y-51348713D01*
X155669957Y-51444967D01*
X155563766Y-51583360D01*
X155562121Y-51582097D01*
X155543769Y-51607356D01*
X155492186Y-51633638D01*
X155434294Y-51633638D01*
X155382711Y-51607356D01*
X155364358Y-51582097D01*
X155362714Y-51583360D01*
X155256522Y-51444967D01*
X155131080Y-51348713D01*
X154985002Y-51288206D01*
X154828240Y-51267567D01*
X154671477Y-51288206D01*
X154525399Y-51348713D01*
X154399957Y-51444967D01*
X154303703Y-51570409D01*
X154243196Y-51716487D01*
X154222557Y-51873249D01*
X136042400Y-51873249D01*
X136042400Y-50596800D01*
X126459824Y-50596800D01*
X126404716Y-50583881D01*
X126361090Y-50547817D01*
X126338037Y-50496122D01*
X126340360Y-50439568D01*
X126367575Y-50389938D01*
X126760677Y-49952307D01*
X126763655Y-49949107D01*
X127529059Y-49155878D01*
X127532084Y-49152853D01*
X128003214Y-48698249D01*
X152952557Y-48698249D01*
X152973196Y-48855012D01*
X153033703Y-49001090D01*
X153129957Y-49126532D01*
X153255398Y-49222785D01*
X153255399Y-49222786D01*
X153401478Y-49283294D01*
X153558240Y-49303932D01*
X153715002Y-49283294D01*
X153861081Y-49222786D01*
X153986522Y-49126532D01*
X154082776Y-49001091D01*
X154082775Y-49001091D01*
X154092714Y-48988140D01*
X154094358Y-48989401D01*
X154112707Y-48964146D01*
X154164292Y-48937861D01*
X154222188Y-48937861D01*
X154273773Y-48964146D01*
X154292121Y-48989401D01*
X154293766Y-48988140D01*
X154399957Y-49126532D01*
X154525398Y-49222785D01*
X154525399Y-49222786D01*
X154671478Y-49283294D01*
X154828240Y-49303932D01*
X154985002Y-49283294D01*
X155131081Y-49222786D01*
X155256522Y-49126532D01*
X155352776Y-49001091D01*
X155352775Y-49001091D01*
X155362714Y-48988140D01*
X155364358Y-48989401D01*
X155382707Y-48964146D01*
X155434292Y-48937861D01*
X155492188Y-48937861D01*
X155543773Y-48964146D01*
X155562121Y-48989401D01*
X155563766Y-48988140D01*
X155669957Y-49126532D01*
X155795398Y-49222785D01*
X155795399Y-49222786D01*
X155941478Y-49283294D01*
X156098240Y-49303932D01*
X156255002Y-49283294D01*
X156401081Y-49222786D01*
X156526522Y-49126532D01*
X156622776Y-49001091D01*
X156622775Y-49001091D01*
X156632714Y-48988140D01*
X156634358Y-48989401D01*
X156652707Y-48964146D01*
X156704292Y-48937861D01*
X156762188Y-48937861D01*
X156813773Y-48964146D01*
X156832121Y-48989401D01*
X156833766Y-48988140D01*
X156939957Y-49126532D01*
X157065398Y-49222785D01*
X157065399Y-49222786D01*
X157211478Y-49283294D01*
X157368240Y-49303932D01*
X157525002Y-49283294D01*
X157671081Y-49222786D01*
X157796522Y-49126532D01*
X157892776Y-49001091D01*
X157892775Y-49001091D01*
X157902714Y-48988140D01*
X157904358Y-48989401D01*
X157922707Y-48964146D01*
X157974292Y-48937861D01*
X158032188Y-48937861D01*
X158083773Y-48964146D01*
X158102121Y-48989401D01*
X158103766Y-48988140D01*
X158209957Y-49126532D01*
X158335398Y-49222785D01*
X158335399Y-49222786D01*
X158481478Y-49283294D01*
X158638240Y-49303932D01*
X158795002Y-49283294D01*
X158941081Y-49222786D01*
X159066522Y-49126532D01*
X159162776Y-49001091D01*
X159162775Y-49001091D01*
X159172714Y-48988140D01*
X159174358Y-48989401D01*
X159192707Y-48964146D01*
X159244292Y-48937861D01*
X159302188Y-48937861D01*
X159353773Y-48964146D01*
X159372121Y-48989401D01*
X159373766Y-48988140D01*
X159479957Y-49126532D01*
X159605398Y-49222785D01*
X159605399Y-49222786D01*
X159751478Y-49283294D01*
X159908240Y-49303932D01*
X160065002Y-49283294D01*
X160211081Y-49222786D01*
X160336522Y-49126532D01*
X160432776Y-49001091D01*
X160432775Y-49001091D01*
X160442714Y-48988140D01*
X160444358Y-48989401D01*
X160462707Y-48964146D01*
X160514292Y-48937861D01*
X160572188Y-48937861D01*
X160623773Y-48964146D01*
X160642121Y-48989401D01*
X160643766Y-48988140D01*
X160749957Y-49126532D01*
X160875398Y-49222785D01*
X160875399Y-49222786D01*
X161021478Y-49283294D01*
X161178240Y-49303932D01*
X161335002Y-49283294D01*
X161481081Y-49222786D01*
X161606522Y-49126532D01*
X161702776Y-49001091D01*
X161763284Y-48855012D01*
X161783922Y-48698250D01*
X161763284Y-48541488D01*
X161702776Y-48395409D01*
X161694383Y-48384471D01*
X161606522Y-48269967D01*
X161481080Y-48173713D01*
X161335002Y-48113206D01*
X161178240Y-48092567D01*
X161021477Y-48113206D01*
X160875399Y-48173713D01*
X160749957Y-48269967D01*
X160643766Y-48408360D01*
X160642121Y-48407097D01*
X160623769Y-48432356D01*
X160572186Y-48458638D01*
X160514294Y-48458638D01*
X160462711Y-48432356D01*
X160444358Y-48407097D01*
X160442714Y-48408360D01*
X160336522Y-48269967D01*
X160211080Y-48173713D01*
X160065002Y-48113206D01*
X159908240Y-48092567D01*
X159751477Y-48113206D01*
X159605399Y-48173713D01*
X159479957Y-48269967D01*
X159373766Y-48408360D01*
X159372121Y-48407097D01*
X159353769Y-48432356D01*
X159302186Y-48458638D01*
X159244294Y-48458638D01*
X159192711Y-48432356D01*
X159174358Y-48407097D01*
X159172714Y-48408360D01*
X159066522Y-48269967D01*
X158941080Y-48173713D01*
X158795002Y-48113206D01*
X158638240Y-48092567D01*
X158481477Y-48113206D01*
X158335399Y-48173713D01*
X158209957Y-48269967D01*
X158103766Y-48408360D01*
X158102121Y-48407097D01*
X158083769Y-48432356D01*
X158032186Y-48458638D01*
X157974294Y-48458638D01*
X157922711Y-48432356D01*
X157904358Y-48407097D01*
X157902714Y-48408360D01*
X157796522Y-48269967D01*
X157671080Y-48173713D01*
X157525002Y-48113206D01*
X157368240Y-48092567D01*
X157211477Y-48113206D01*
X157065399Y-48173713D01*
X156939957Y-48269967D01*
X156833766Y-48408360D01*
X156832121Y-48407097D01*
X156813769Y-48432356D01*
X156762186Y-48458638D01*
X156704294Y-48458638D01*
X156652711Y-48432356D01*
X156634358Y-48407097D01*
X156632714Y-48408360D01*
X156526522Y-48269967D01*
X156401080Y-48173713D01*
X156255002Y-48113206D01*
X156098240Y-48092567D01*
X155941477Y-48113206D01*
X155795399Y-48173713D01*
X155669957Y-48269967D01*
X155563766Y-48408360D01*
X155562121Y-48407097D01*
X155543769Y-48432356D01*
X155492186Y-48458638D01*
X155434294Y-48458638D01*
X155382711Y-48432356D01*
X155364358Y-48407097D01*
X155362714Y-48408360D01*
X155256522Y-48269967D01*
X155131080Y-48173713D01*
X154985002Y-48113206D01*
X154828240Y-48092567D01*
X154671477Y-48113206D01*
X154525399Y-48173713D01*
X154399957Y-48269967D01*
X154293766Y-48408360D01*
X154292121Y-48407097D01*
X154273769Y-48432356D01*
X154222186Y-48458638D01*
X154164294Y-48458638D01*
X154112711Y-48432356D01*
X154094358Y-48407097D01*
X154092714Y-48408360D01*
X153986522Y-48269967D01*
X153861080Y-48173713D01*
X153715002Y-48113206D01*
X153558240Y-48092567D01*
X153401477Y-48113206D01*
X153255399Y-48173713D01*
X153129957Y-48269967D01*
X153033703Y-48395409D01*
X152973196Y-48541487D01*
X152952557Y-48698249D01*
X128003214Y-48698249D01*
X128325313Y-48387449D01*
X128328513Y-48384471D01*
X128455987Y-48269968D01*
X129148522Y-47647897D01*
X129151848Y-47645014D01*
X129997615Y-46938186D01*
X130000979Y-46935475D01*
X130871459Y-46259265D01*
X130874949Y-46256652D01*
X131769032Y-45611927D01*
X131772601Y-45609449D01*
X132453526Y-45154469D01*
X132516362Y-45133720D01*
X132580923Y-45148242D01*
X132628821Y-45193901D01*
X132830374Y-45530732D01*
X133085782Y-45878826D01*
X133372663Y-46201474D01*
X133688503Y-46495846D01*
X133938545Y-46688487D01*
X134030514Y-46759343D01*
X134395699Y-46989658D01*
X134780846Y-47184764D01*
X135182571Y-47342947D01*
X135597343Y-47462817D01*
X136021518Y-47543321D01*
X136351772Y-47574382D01*
X136451365Y-47583750D01*
X136451367Y-47583750D01*
X136775111Y-47583750D01*
X136775117Y-47583750D01*
X137098512Y-47568575D01*
X137525993Y-47508042D01*
X137945928Y-47407745D01*
X138354626Y-47268566D01*
X138748495Y-47091727D01*
X138928518Y-46989658D01*
X139124075Y-46878782D01*
X139301068Y-46755192D01*
X139478062Y-46631603D01*
X139807348Y-46352363D01*
X140109039Y-46043515D01*
X140380484Y-45707773D01*
X140619296Y-45348087D01*
X140823377Y-44967620D01*
X140990935Y-44569713D01*
X141120495Y-44157865D01*
X141210920Y-43735695D01*
X141261415Y-43306911D01*
X141271536Y-42875284D01*
X141256340Y-42659587D01*
X141241196Y-42444611D01*
X141205789Y-42230808D01*
X141170657Y-42018660D01*
X141060544Y-41601192D01*
X140985333Y-41396217D01*
X140980214Y-41328884D01*
X141011140Y-41268850D01*
X141068938Y-41233925D01*
X141782046Y-41038293D01*
X141786256Y-41037220D01*
X142858971Y-40783731D01*
X142863215Y-40782807D01*
X143944291Y-40567768D01*
X143948601Y-40566991D01*
X145036686Y-40390670D01*
X145040952Y-40390057D01*
X146134632Y-40252687D01*
X146138998Y-40252217D01*
X147236863Y-40153972D01*
X147241174Y-40153663D01*
X148341874Y-40094664D01*
X148346242Y-40094508D01*
X149448317Y-40074835D01*
X149452687Y-40074835D01*
X150554759Y-40094508D01*
G37*
%TD.AperFunction*%
%TD*%
%TA.AperFunction,Conductor*%
%TO.N,C*%
G36*
X135320000Y-51223013D02*
G01*
X135365387Y-51268400D01*
X135382000Y-51330400D01*
X135382000Y-59333838D01*
X135372561Y-59381291D01*
X135345681Y-59421519D01*
X131216400Y-63550799D01*
X131216400Y-70916238D01*
X131206961Y-70963691D01*
X131180081Y-71003919D01*
X129373119Y-72810881D01*
X129332891Y-72837761D01*
X129285438Y-72847200D01*
X118996000Y-72847200D01*
X118934000Y-72830587D01*
X118888613Y-72785200D01*
X118872000Y-72723200D01*
X118872000Y-66021737D01*
X118873597Y-66001902D01*
X118943193Y-65572418D01*
X118943979Y-65568062D01*
X119159013Y-64487009D01*
X119159937Y-64482765D01*
X119413426Y-63410050D01*
X119414499Y-63405841D01*
X119706118Y-62342847D01*
X119707361Y-62338616D01*
X119852062Y-61876488D01*
X120036722Y-61286744D01*
X120038098Y-61282609D01*
X120404809Y-60243119D01*
X120406325Y-60239057D01*
X120809892Y-59213349D01*
X120811580Y-59209274D01*
X120980199Y-58821897D01*
X121251500Y-58198625D01*
X121253298Y-58194686D01*
X121729022Y-57200357D01*
X121730973Y-57196459D01*
X122241885Y-56219740D01*
X122243981Y-56215904D01*
X122789427Y-55258047D01*
X122791625Y-55254343D01*
X123370915Y-54316559D01*
X123373269Y-54312895D01*
X123985655Y-53396395D01*
X123988133Y-53392826D01*
X124632858Y-52498743D01*
X124635471Y-52495253D01*
X125311681Y-51624773D01*
X125314392Y-51621409D01*
X125624052Y-51250881D01*
X125666681Y-51218070D01*
X125719197Y-51206400D01*
X135258000Y-51206400D01*
X135320000Y-51223013D01*
G37*
%TD.AperFunction*%
%TD*%
%TA.AperFunction,Conductor*%
%TO.N,A*%
G36*
X173276777Y-51268870D02*
G01*
X173319408Y-51301683D01*
X173586577Y-51621368D01*
X173589355Y-51624815D01*
X174265511Y-52495226D01*
X174268164Y-52498769D01*
X174912847Y-53392793D01*
X174915371Y-53396429D01*
X175527714Y-54312865D01*
X175530107Y-54316589D01*
X176078905Y-55205012D01*
X176109347Y-55254292D01*
X176111606Y-55258099D01*
X176657008Y-56215879D01*
X176659130Y-56219764D01*
X177170014Y-57196429D01*
X177171995Y-57200387D01*
X177647684Y-58194642D01*
X177649523Y-58198669D01*
X178089423Y-59209274D01*
X178091117Y-59213364D01*
X178494662Y-60239015D01*
X178496209Y-60243162D01*
X178862893Y-61282576D01*
X178864291Y-61286776D01*
X179193642Y-62338616D01*
X179194889Y-62342863D01*
X179486493Y-63405801D01*
X179487587Y-63410090D01*
X179741057Y-64482725D01*
X179741998Y-64487051D01*
X179880417Y-65182930D01*
X179882800Y-65207121D01*
X179882800Y-72520000D01*
X179866187Y-72582000D01*
X179820800Y-72627387D01*
X179758800Y-72644000D01*
X169926562Y-72644000D01*
X169879109Y-72634561D01*
X169838881Y-72607681D01*
X165237919Y-68006719D01*
X165211039Y-67966491D01*
X165201600Y-67919038D01*
X165201600Y-62636401D01*
X165201599Y-62636399D01*
X163409119Y-60843919D01*
X163382239Y-60803691D01*
X163372800Y-60756238D01*
X163372800Y-51381200D01*
X163389413Y-51319200D01*
X163434800Y-51273813D01*
X163496800Y-51257200D01*
X173224261Y-51257200D01*
X173276777Y-51268870D01*
G37*
%TD.AperFunction*%
%TD*%
M02*
