%TF.GenerationSoftware,KiCad,Pcbnew,7.0.6*%
%TF.CreationDate,2023-12-21T21:59:25+03:00*%
%TF.ProjectId,_______ _____,21383b3e-3230-44f2-903f-3b3042302e6b,rev?*%
%TF.SameCoordinates,Original*%
%TF.FileFunction,Copper,L5,Inr*%
%TF.FilePolarity,Positive*%
%FSLAX46Y46*%
G04 Gerber Fmt 4.6, Leading zero omitted, Abs format (unit mm)*
G04 Created by KiCad (PCBNEW 7.0.6) date 2023-12-21 21:59:25*
%MOMM*%
%LPD*%
G01*
G04 APERTURE LIST*
%TA.AperFunction,ComponentPad*%
%ADD10C,5.000000*%
%TD*%
%TA.AperFunction,ComponentPad*%
%ADD11C,8.200000*%
%TD*%
%TA.AperFunction,ComponentPad*%
%ADD12C,6.000000*%
%TD*%
%TA.AperFunction,ComponentPad*%
%ADD13R,1.700000X1.700000*%
%TD*%
%TA.AperFunction,ComponentPad*%
%ADD14O,1.700000X1.700000*%
%TD*%
%TA.AperFunction,ComponentPad*%
%ADD15C,2.000000*%
%TD*%
%TA.AperFunction,ViaPad*%
%ADD16C,0.800000*%
%TD*%
%TA.AperFunction,Conductor*%
%ADD17C,0.250000*%
%TD*%
G04 APERTURE END LIST*
D10*
%TO.N,Earth_Protective*%
%TO.C,J8*%
X132222240Y-124898250D03*
%TD*%
%TO.N,Earth_Protective*%
%TO.C,J2*%
X167147240Y-124898250D03*
%TD*%
D11*
%TO.N,C*%
%TO.C,J4*%
X127142240Y-58223250D03*
%TD*%
%TO.N,A*%
%TO.C,J1*%
X171592240Y-58223250D03*
%TD*%
D12*
%TO.N,Shunt_1*%
%TO.C,J6*%
X144287240Y-119483250D03*
%TD*%
D13*
%TO.N,+3.3V*%
%TO.C,J7*%
X150637240Y-68383250D03*
D14*
%TO.N,~{OS}_MCU*%
X148097240Y-68383250D03*
%TO.N,G3*%
X150637240Y-70923250D03*
%TO.N,SCL_MCU*%
X148097240Y-70923250D03*
%TO.N,B*%
X150637240Y-73463250D03*
%TO.N,SDA_MCU*%
X148097240Y-73463250D03*
%TO.N,G2*%
X150637240Y-76003250D03*
%TO.N,G4*%
X148097240Y-76003250D03*
%TO.N,GND*%
X150637240Y-78543250D03*
X148097240Y-78543250D03*
%TO.N,G1*%
X150637240Y-81083250D03*
%TO.N,G6*%
X148097240Y-81083250D03*
%TO.N,A*%
X150637240Y-83623250D03*
%TO.N,C*%
X148097240Y-83623250D03*
%TO.N,GND*%
X150637240Y-86163250D03*
%TO.N,G5*%
X148097240Y-86163250D03*
%TO.N,Shunt_1*%
X150637240Y-88703250D03*
%TO.N,GND*%
X148097240Y-88703250D03*
%TO.N,Shunt_1*%
X150637240Y-91243250D03*
%TO.N,Shunt_2*%
X148097240Y-91243250D03*
%TD*%
D11*
%TO.N,B*%
%TO.C,J3*%
X149367240Y-43618250D03*
%TD*%
D15*
%TO.N,Earth_Protective*%
%TO.C,C44*%
X160797240Y-124838250D03*
%TO.N,Net-(J5-Pin_1)*%
X160797240Y-117338250D03*
%TD*%
D12*
%TO.N,Net-(J5-Pin_1)*%
%TO.C,J5*%
X154447240Y-119483250D03*
%TD*%
D15*
%TO.N,Shunt_1*%
%TO.C,C45*%
X137937240Y-117338250D03*
%TO.N,Earth_Protective*%
X137937240Y-124838250D03*
%TD*%
D16*
%TO.N,SDA_MCU*%
X175148240Y-79940250D03*
%TO.N,G1*%
X158892240Y-77273250D03*
%TO.N,A*%
X176672240Y-69653250D03*
X158892240Y-79813250D03*
X170322240Y-65843250D03*
X173497240Y-67113250D03*
X158892240Y-81083250D03*
X173497240Y-70923250D03*
X158892240Y-82353250D03*
X173497240Y-65843250D03*
X170322240Y-70923250D03*
X173497240Y-69653250D03*
X170322240Y-68383250D03*
X173497240Y-68383250D03*
X170322240Y-72193250D03*
X176672240Y-64573250D03*
X170322240Y-64573250D03*
X176672240Y-68383250D03*
X176672240Y-67113250D03*
X158892240Y-78543250D03*
X158892240Y-86163250D03*
X176672240Y-70923250D03*
X158892240Y-84893250D03*
X176672240Y-72193250D03*
X176672240Y-65843250D03*
X158892240Y-83623250D03*
X170322240Y-69653250D03*
X170322240Y-67113250D03*
%TO.N,G2*%
X162702240Y-63938250D03*
%TO.N,GND*%
X144922240Y-62033250D03*
X162702240Y-95688250D03*
X162702240Y-72828250D03*
X162702240Y-65208250D03*
X163972240Y-93148250D03*
X176926240Y-82988250D03*
X135397240Y-66478250D03*
X162702240Y-70288250D03*
X159527240Y-91878250D03*
X135397240Y-65208250D03*
X164607240Y-94418250D03*
X160797240Y-91878250D03*
X164607240Y-91878250D03*
X124348240Y-75368250D03*
X163337240Y-94418250D03*
X146192240Y-62033250D03*
X124094240Y-81464250D03*
X147970240Y-57287750D03*
X164607240Y-98228250D03*
X139842240Y-109023250D03*
X165242240Y-93148250D03*
X158257240Y-91878250D03*
X163337240Y-96958250D03*
X135397240Y-69018250D03*
X177942240Y-75114250D03*
X165877240Y-91878250D03*
X162702240Y-69018250D03*
X139842240Y-99205750D03*
X135397240Y-67748250D03*
X135397240Y-70288250D03*
X142382240Y-62033250D03*
X143703040Y-99193450D03*
X135397240Y-63938250D03*
X141112240Y-62033250D03*
X163972240Y-110293250D03*
X143652240Y-109023250D03*
X162067240Y-91878250D03*
X162702240Y-66478250D03*
X143652240Y-62033250D03*
X163337240Y-98228250D03*
X164607240Y-96958250D03*
X135397240Y-71558250D03*
X138572240Y-62033250D03*
X163337240Y-91878250D03*
X162702240Y-71558250D03*
X163972240Y-95688250D03*
X162702240Y-67748250D03*
X139842240Y-62033250D03*
%TO.N,G3*%
X152415240Y-62668250D03*
%TO.N,B*%
X138572240Y-51873250D03*
X143652240Y-55048250D03*
X142382240Y-51873250D03*
X141112240Y-48698250D03*
X139842240Y-48698250D03*
X137302240Y-55048250D03*
X137302240Y-48698250D03*
X139842240Y-51873250D03*
X143652240Y-48698250D03*
X157622240Y-62668250D03*
X139842240Y-55048250D03*
X153812240Y-62668250D03*
X155082240Y-62668250D03*
X143652240Y-51873250D03*
X142382240Y-48698250D03*
X161432240Y-62668250D03*
X138572240Y-55048250D03*
X141112240Y-55048250D03*
X142382240Y-55048250D03*
X158892240Y-62668250D03*
X138572240Y-48698250D03*
X141112240Y-51873250D03*
X144922240Y-55048250D03*
X160162240Y-62668250D03*
X144922240Y-48698250D03*
X156352240Y-62668250D03*
%TO.N,G4*%
X137302240Y-62033250D03*
%TO.N,G5*%
X139842240Y-86163250D03*
%TO.N,C*%
X139842240Y-82353250D03*
X128412240Y-69653250D03*
X139842240Y-84893250D03*
X128412240Y-68383250D03*
X128412240Y-67113250D03*
X125237240Y-69653250D03*
X125237240Y-67113250D03*
X122062240Y-68383250D03*
X122062240Y-67113250D03*
X139842240Y-79813250D03*
X122062240Y-70923250D03*
X128412240Y-64573250D03*
X122062240Y-64573250D03*
X122062240Y-65843250D03*
X128412240Y-65843250D03*
X128412240Y-70923250D03*
X125237240Y-68383250D03*
X139842240Y-77273250D03*
X125237240Y-70923250D03*
X122062240Y-72193250D03*
X128412240Y-72193250D03*
X125237240Y-65843250D03*
X139842240Y-78543250D03*
X139842240Y-81083250D03*
X139842240Y-83623250D03*
X122062240Y-69653250D03*
%TO.N,G6*%
X135397240Y-72828250D03*
%TO.N,Shunt_1*%
X134762240Y-97593250D03*
X143652240Y-105213250D03*
X136032240Y-105213250D03*
X165877240Y-106483250D03*
X143652240Y-103943250D03*
X134762240Y-95053250D03*
X147462240Y-97593250D03*
X139842240Y-105213250D03*
X134762240Y-96323250D03*
X147462240Y-103943250D03*
X144287240Y-86442750D03*
X134762240Y-98863250D03*
X154447240Y-86163250D03*
X147462240Y-105213250D03*
X136667240Y-91243250D03*
X139842240Y-103943250D03*
X132857240Y-91243250D03*
%TO.N,Shunt_2*%
X144922240Y-77273250D03*
X153812240Y-69018250D03*
X157368240Y-51873250D03*
X126507240Y-85528250D03*
X169052240Y-81718250D03*
X153558240Y-55048250D03*
X126507240Y-79178250D03*
X172227240Y-77908250D03*
X159908240Y-51873250D03*
X158638240Y-55048250D03*
X165877240Y-77908250D03*
X143652240Y-76003250D03*
X157368240Y-48698250D03*
X129682240Y-81718250D03*
X169052240Y-84258250D03*
X154447240Y-67748250D03*
X155082240Y-66478250D03*
X126507240Y-77908250D03*
X172227240Y-79178250D03*
X132857240Y-77908250D03*
X143652240Y-65208250D03*
X129682240Y-79178250D03*
X165877240Y-84258250D03*
X172227240Y-84258250D03*
X126507240Y-82988250D03*
X156098240Y-55048250D03*
X132857240Y-85528250D03*
X169052240Y-82988250D03*
X154828240Y-51873250D03*
X132857240Y-81718250D03*
X159908240Y-55048250D03*
X129682240Y-84258250D03*
X154828240Y-48698250D03*
X156098240Y-51873250D03*
X159908240Y-48698250D03*
X172227240Y-82988250D03*
X165877240Y-79178250D03*
X153558240Y-48698250D03*
X126507240Y-84258250D03*
X155082240Y-69018250D03*
X129682240Y-82988250D03*
X132857240Y-82988250D03*
X165877240Y-81718250D03*
X161178240Y-55048250D03*
X158638240Y-51873250D03*
X143652240Y-70923250D03*
X155717240Y-67748250D03*
X153812240Y-66478250D03*
X144287240Y-66478250D03*
X165877240Y-85528250D03*
X154828240Y-55048250D03*
X155717240Y-65208250D03*
X144922240Y-65208250D03*
X126507240Y-81718250D03*
X154447240Y-65208250D03*
X161178240Y-48698250D03*
X172227240Y-85528250D03*
X165877240Y-80448250D03*
X132857240Y-79178250D03*
X158638240Y-48698250D03*
X132857240Y-84258250D03*
X129682240Y-80448250D03*
X169052240Y-80448250D03*
X165877240Y-82988250D03*
X169052240Y-79178250D03*
X156098240Y-48698250D03*
X126507240Y-80448250D03*
X145557240Y-66478250D03*
X144922240Y-72193250D03*
X172227240Y-80448250D03*
X172227240Y-81718250D03*
X132857240Y-80448250D03*
X157368240Y-55048250D03*
%TO.N,+3.3V*%
X120792240Y-75368250D03*
X150764240Y-61605750D03*
X174384056Y-75115342D03*
X148224240Y-66050750D03*
%TO.N,SDA_MCU*%
X121300240Y-79940250D03*
X150764240Y-60081750D03*
%TO.N,SCL_MCU*%
X176159941Y-79935951D03*
X149748240Y-60081750D03*
X122316240Y-79940250D03*
%TO.N,~{OS}_MCU*%
X148732240Y-60081750D03*
X177180240Y-79940250D03*
X123332240Y-79940250D03*
%TD*%
D17*
%TO.N,SDA_MCU*%
X121300240Y-79930945D02*
X126624935Y-74606250D01*
X146954240Y-74606250D02*
X148097240Y-73463250D01*
X126624935Y-74606250D02*
X146954240Y-74606250D01*
X121300240Y-79940250D02*
X121300240Y-79930945D01*
%TD*%
%TA.AperFunction,Conductor*%
%TO.N,C*%
G36*
X135340279Y-51257935D02*
G01*
X135386034Y-51310739D01*
X135397240Y-51362250D01*
X135397240Y-62917219D01*
X135377555Y-62984258D01*
X135324751Y-63030013D01*
X135299021Y-63038509D01*
X135117437Y-63077105D01*
X135117432Y-63077107D01*
X134944510Y-63154098D01*
X134944505Y-63154101D01*
X134791369Y-63265361D01*
X134664706Y-63406035D01*
X134570061Y-63569965D01*
X134570058Y-63569972D01*
X134528352Y-63698332D01*
X134511566Y-63749994D01*
X134491780Y-63938250D01*
X134511566Y-64126506D01*
X134511567Y-64126509D01*
X134570058Y-64306527D01*
X134570061Y-64306534D01*
X134664707Y-64470466D01*
X134675046Y-64481949D01*
X134682547Y-64490280D01*
X134712775Y-64553272D01*
X134704149Y-64622607D01*
X134682547Y-64656220D01*
X134664706Y-64676035D01*
X134570061Y-64839965D01*
X134570058Y-64839972D01*
X134511754Y-65019415D01*
X134511566Y-65019994D01*
X134491780Y-65208250D01*
X134511566Y-65396506D01*
X134511567Y-65396509D01*
X134570058Y-65576527D01*
X134570061Y-65576534D01*
X134664707Y-65740466D01*
X134675046Y-65751949D01*
X134682547Y-65760280D01*
X134712775Y-65823272D01*
X134704149Y-65892607D01*
X134682547Y-65926220D01*
X134664706Y-65946035D01*
X134570061Y-66109965D01*
X134570058Y-66109972D01*
X134513447Y-66284205D01*
X134511566Y-66289994D01*
X134491780Y-66478250D01*
X134511566Y-66666506D01*
X134511567Y-66666509D01*
X134570058Y-66846527D01*
X134570061Y-66846534D01*
X134664707Y-67010466D01*
X134675046Y-67021949D01*
X134682547Y-67030280D01*
X134712775Y-67093272D01*
X134704149Y-67162607D01*
X134682547Y-67196220D01*
X134664706Y-67216035D01*
X134570061Y-67379965D01*
X134570058Y-67379972D01*
X134511567Y-67559990D01*
X134511566Y-67559994D01*
X134491780Y-67748250D01*
X134511566Y-67936506D01*
X134511567Y-67936509D01*
X134570058Y-68116527D01*
X134570061Y-68116534D01*
X134664707Y-68280466D01*
X134675046Y-68291949D01*
X134682547Y-68300280D01*
X134712775Y-68363272D01*
X134704149Y-68432607D01*
X134682547Y-68466220D01*
X134664706Y-68486035D01*
X134570061Y-68649965D01*
X134570058Y-68649972D01*
X134513947Y-68822665D01*
X134511566Y-68829994D01*
X134491780Y-69018250D01*
X134511566Y-69206506D01*
X134511567Y-69206509D01*
X134570058Y-69386527D01*
X134570061Y-69386534D01*
X134664707Y-69550466D01*
X134668073Y-69554204D01*
X134682547Y-69570280D01*
X134712775Y-69633272D01*
X134704149Y-69702607D01*
X134682547Y-69736220D01*
X134664706Y-69756035D01*
X134570061Y-69919965D01*
X134570058Y-69919972D01*
X134511567Y-70099990D01*
X134511566Y-70099994D01*
X134491780Y-70288250D01*
X134511566Y-70476506D01*
X134511567Y-70476509D01*
X134570058Y-70656527D01*
X134570061Y-70656534D01*
X134664707Y-70820466D01*
X134675046Y-70831949D01*
X134682547Y-70840280D01*
X134712775Y-70903272D01*
X134704149Y-70972607D01*
X134682547Y-71006220D01*
X134664706Y-71026035D01*
X134570061Y-71189965D01*
X134570058Y-71189972D01*
X134511567Y-71369990D01*
X134511566Y-71369994D01*
X134491780Y-71558250D01*
X134511566Y-71746506D01*
X134511567Y-71746509D01*
X134570058Y-71926527D01*
X134570061Y-71926534D01*
X134664707Y-72090466D01*
X134668073Y-72094204D01*
X134682547Y-72110280D01*
X134712775Y-72173272D01*
X134704149Y-72242607D01*
X134682547Y-72276220D01*
X134664706Y-72296035D01*
X134570061Y-72459965D01*
X134570058Y-72459972D01*
X134511567Y-72639990D01*
X134511566Y-72639994D01*
X134491780Y-72828250D01*
X134511566Y-73016506D01*
X134511567Y-73016509D01*
X134570058Y-73196527D01*
X134570061Y-73196534D01*
X134664707Y-73360466D01*
X134759676Y-73465939D01*
X134791369Y-73501138D01*
X134944505Y-73612398D01*
X134944510Y-73612401D01*
X135117432Y-73689392D01*
X135117437Y-73689394D01*
X135302594Y-73728750D01*
X135302595Y-73728750D01*
X135491884Y-73728750D01*
X135491886Y-73728750D01*
X135677043Y-73689394D01*
X135849970Y-73612401D01*
X136003111Y-73501138D01*
X136129773Y-73360466D01*
X136224419Y-73196534D01*
X136282914Y-73016506D01*
X136302700Y-72828250D01*
X136282914Y-72639994D01*
X136224419Y-72459966D01*
X136129773Y-72296034D01*
X136111933Y-72276221D01*
X136081704Y-72213231D01*
X136090329Y-72143896D01*
X136111934Y-72110278D01*
X136119019Y-72102409D01*
X136129773Y-72090466D01*
X136224419Y-71926534D01*
X136282914Y-71746506D01*
X136302700Y-71558250D01*
X136282914Y-71369994D01*
X136224419Y-71189966D01*
X136129773Y-71026034D01*
X136111933Y-71006221D01*
X136081704Y-70943231D01*
X136090329Y-70873896D01*
X136111934Y-70840278D01*
X136129773Y-70820466D01*
X136224419Y-70656534D01*
X136282914Y-70476506D01*
X136302700Y-70288250D01*
X136282914Y-70099994D01*
X136224419Y-69919966D01*
X136129773Y-69756034D01*
X136111933Y-69736221D01*
X136081704Y-69673231D01*
X136090329Y-69603896D01*
X136111934Y-69570278D01*
X136129773Y-69550466D01*
X136224419Y-69386534D01*
X136282914Y-69206506D01*
X136302700Y-69018250D01*
X136282914Y-68829994D01*
X136224419Y-68649966D01*
X136129773Y-68486034D01*
X136111933Y-68466221D01*
X136081704Y-68403231D01*
X136090329Y-68333896D01*
X136111934Y-68300278D01*
X136129773Y-68280466D01*
X136224419Y-68116534D01*
X136282914Y-67936506D01*
X136302700Y-67748250D01*
X136282914Y-67559994D01*
X136224419Y-67379966D01*
X136129773Y-67216034D01*
X136111933Y-67196221D01*
X136081704Y-67133231D01*
X136090329Y-67063896D01*
X136111934Y-67030278D01*
X136129773Y-67010466D01*
X136224419Y-66846534D01*
X136282914Y-66666506D01*
X136302700Y-66478250D01*
X136282914Y-66289994D01*
X136224419Y-66109966D01*
X136129773Y-65946034D01*
X136111933Y-65926221D01*
X136081704Y-65863231D01*
X136090329Y-65793896D01*
X136111934Y-65760278D01*
X136116155Y-65755590D01*
X136129773Y-65740466D01*
X136224419Y-65576534D01*
X136282914Y-65396506D01*
X136302700Y-65208250D01*
X136282914Y-65019994D01*
X136224419Y-64839966D01*
X136129773Y-64676034D01*
X136111933Y-64656221D01*
X136081704Y-64593231D01*
X136090329Y-64523896D01*
X136111934Y-64490278D01*
X136116796Y-64484878D01*
X136129773Y-64470466D01*
X136224419Y-64306534D01*
X136282914Y-64126506D01*
X136291029Y-64049286D01*
X136317613Y-63984674D01*
X136374911Y-63944689D01*
X136414350Y-63938250D01*
X138448240Y-63938250D01*
X138515279Y-63957935D01*
X138561034Y-64010739D01*
X138572240Y-64062250D01*
X138572240Y-73856750D01*
X138552555Y-73923789D01*
X138499751Y-73969544D01*
X138448240Y-73980750D01*
X126707678Y-73980750D01*
X126692057Y-73979025D01*
X126692031Y-73979311D01*
X126684269Y-73978577D01*
X126684268Y-73978577D01*
X126615121Y-73980750D01*
X126585584Y-73980750D01*
X126578701Y-73981619D01*
X126572884Y-73982076D01*
X126526308Y-73983540D01*
X126507064Y-73989131D01*
X126488014Y-73993075D01*
X126468146Y-73995584D01*
X126424819Y-74012738D01*
X126419293Y-74014629D01*
X126374549Y-74027629D01*
X126374545Y-74027631D01*
X126357301Y-74037829D01*
X126339840Y-74046383D01*
X126321209Y-74053760D01*
X126321197Y-74053767D01*
X126283505Y-74081152D01*
X126278622Y-74084359D01*
X126238515Y-74108079D01*
X126224349Y-74122245D01*
X126209559Y-74134877D01*
X126193349Y-74146654D01*
X126193346Y-74146657D01*
X126163645Y-74182559D01*
X126159712Y-74186881D01*
X125352354Y-74994239D01*
X125291031Y-75027724D01*
X125221339Y-75022740D01*
X125165406Y-74980868D01*
X125157286Y-74968558D01*
X125080774Y-74836035D01*
X124954110Y-74695361D01*
X124800974Y-74584101D01*
X124800969Y-74584098D01*
X124628047Y-74507107D01*
X124628042Y-74507105D01*
X124482240Y-74476115D01*
X124442886Y-74467750D01*
X124253594Y-74467750D01*
X124221137Y-74474648D01*
X124068437Y-74507105D01*
X124068432Y-74507107D01*
X123895510Y-74584098D01*
X123895505Y-74584101D01*
X123742369Y-74695361D01*
X123615706Y-74836035D01*
X123521061Y-74999965D01*
X123521058Y-74999972D01*
X123462567Y-75179990D01*
X123462566Y-75179994D01*
X123442780Y-75368250D01*
X123462566Y-75556506D01*
X123462567Y-75556509D01*
X123521058Y-75736527D01*
X123521061Y-75736534D01*
X123615707Y-75900466D01*
X123742368Y-76041138D01*
X123742369Y-76041138D01*
X123892948Y-76150540D01*
X123895510Y-76152401D01*
X123937359Y-76171033D01*
X123990593Y-76216282D01*
X124010914Y-76283131D01*
X123991869Y-76350355D01*
X123974601Y-76371992D01*
X121343163Y-79003431D01*
X121281840Y-79036916D01*
X121255482Y-79039750D01*
X121205594Y-79039750D01*
X121173137Y-79046648D01*
X121020437Y-79079105D01*
X121020432Y-79079107D01*
X120847510Y-79156098D01*
X120847505Y-79156101D01*
X120694369Y-79267361D01*
X120567706Y-79408035D01*
X120473061Y-79571965D01*
X120473058Y-79571972D01*
X120421622Y-79730278D01*
X120414566Y-79751994D01*
X120394780Y-79940250D01*
X120414566Y-80128506D01*
X120414567Y-80128509D01*
X120473058Y-80308527D01*
X120473061Y-80308534D01*
X120567707Y-80472466D01*
X120685335Y-80603105D01*
X120694369Y-80613138D01*
X120847505Y-80724398D01*
X120847510Y-80724401D01*
X121020432Y-80801392D01*
X121020437Y-80801394D01*
X121205594Y-80840750D01*
X121205595Y-80840750D01*
X121394884Y-80840750D01*
X121394886Y-80840750D01*
X121580043Y-80801394D01*
X121752970Y-80724401D01*
X121752974Y-80724398D01*
X121757803Y-80722248D01*
X121827053Y-80712962D01*
X121858677Y-80722248D01*
X121863505Y-80724398D01*
X121863510Y-80724401D01*
X122036437Y-80801394D01*
X122221594Y-80840750D01*
X122221595Y-80840750D01*
X122410884Y-80840750D01*
X122410886Y-80840750D01*
X122596043Y-80801394D01*
X122768970Y-80724401D01*
X122768974Y-80724398D01*
X122773803Y-80722248D01*
X122843053Y-80712962D01*
X122874677Y-80722248D01*
X122879505Y-80724397D01*
X122879510Y-80724401D01*
X123052437Y-80801394D01*
X123228141Y-80838740D01*
X123289622Y-80871932D01*
X123323399Y-80933095D01*
X123318747Y-81002809D01*
X123309748Y-81022029D01*
X123267060Y-81095967D01*
X123267058Y-81095972D01*
X123208567Y-81275990D01*
X123208566Y-81275994D01*
X123188780Y-81464250D01*
X123208566Y-81652506D01*
X123208567Y-81652509D01*
X123267058Y-81832527D01*
X123267061Y-81832534D01*
X123361707Y-81996466D01*
X123459735Y-82105337D01*
X123488369Y-82137138D01*
X123641505Y-82248398D01*
X123641510Y-82248401D01*
X123814432Y-82325392D01*
X123814437Y-82325394D01*
X123999594Y-82364750D01*
X123999595Y-82364750D01*
X124188884Y-82364750D01*
X124188886Y-82364750D01*
X124374043Y-82325394D01*
X124546970Y-82248401D01*
X124700111Y-82137138D01*
X124826773Y-81996466D01*
X124921419Y-81832534D01*
X124979914Y-81652506D01*
X124999700Y-81464250D01*
X124979914Y-81275994D01*
X124921419Y-81095966D01*
X124826773Y-80932034D01*
X124700111Y-80791362D01*
X124691780Y-80785309D01*
X124546974Y-80680101D01*
X124546969Y-80680098D01*
X124374047Y-80603107D01*
X124374042Y-80603105D01*
X124198338Y-80565759D01*
X124136856Y-80532567D01*
X124103080Y-80471404D01*
X124107732Y-80401689D01*
X124116729Y-80382475D01*
X124159419Y-80308534D01*
X124217914Y-80128506D01*
X124237700Y-79940250D01*
X124217914Y-79751994D01*
X124159419Y-79571966D01*
X124064773Y-79408034D01*
X123938111Y-79267362D01*
X123938110Y-79267361D01*
X123784974Y-79156101D01*
X123784969Y-79156098D01*
X123612047Y-79079107D01*
X123612042Y-79079105D01*
X123466240Y-79048115D01*
X123426886Y-79039750D01*
X123375386Y-79039750D01*
X123308347Y-79020065D01*
X123262592Y-78967261D01*
X123252648Y-78898103D01*
X123281673Y-78834547D01*
X123287705Y-78828069D01*
X123996643Y-78119132D01*
X126847706Y-75268069D01*
X126909030Y-75234584D01*
X126935388Y-75231750D01*
X138448240Y-75231750D01*
X138515279Y-75251435D01*
X138561034Y-75304239D01*
X138572240Y-75355750D01*
X138572240Y-115796113D01*
X138552555Y-115863152D01*
X138499751Y-115908907D01*
X138430593Y-115918851D01*
X138407977Y-115913394D01*
X138306856Y-115878679D01*
X138061575Y-115837750D01*
X137812905Y-115837750D01*
X137567623Y-115878679D01*
X137332437Y-115959419D01*
X137332428Y-115959422D01*
X137113733Y-116077774D01*
X136917497Y-116230511D01*
X136749073Y-116413467D01*
X136613066Y-116621643D01*
X136513176Y-116849368D01*
X136452132Y-117090425D01*
X136452130Y-117090437D01*
X136431597Y-117338244D01*
X136431597Y-117338255D01*
X136452130Y-117586062D01*
X136452132Y-117586074D01*
X136513176Y-117827131D01*
X136613066Y-118054856D01*
X136749073Y-118263032D01*
X136750810Y-118264919D01*
X136917496Y-118445988D01*
X137113731Y-118598724D01*
X137332430Y-118717078D01*
X137567626Y-118797821D01*
X137812905Y-118838750D01*
X138061575Y-118838750D01*
X138306854Y-118797821D01*
X138314955Y-118795040D01*
X138407978Y-118763104D01*
X138477775Y-118759955D01*
X138538196Y-118795040D01*
X138570057Y-118857223D01*
X138572240Y-118880386D01*
X138572240Y-119186250D01*
X138552555Y-119253289D01*
X138499751Y-119299044D01*
X138448240Y-119310250D01*
X134242624Y-119310250D01*
X134175585Y-119290565D01*
X134129830Y-119237761D01*
X134119886Y-119168603D01*
X134146085Y-119108429D01*
X134173645Y-119074240D01*
X134466989Y-118650105D01*
X134728443Y-118205608D01*
X134728443Y-118205609D01*
X134956609Y-117743131D01*
X135120643Y-117338250D01*
X135150251Y-117265170D01*
X135308328Y-116774302D01*
X135308329Y-116774302D01*
X135429991Y-116273168D01*
X135514584Y-115764455D01*
X135561652Y-115250907D01*
X135561652Y-115250906D01*
X135570941Y-114735297D01*
X135542401Y-114220388D01*
X135476186Y-113708961D01*
X135372655Y-113203777D01*
X135269774Y-112839870D01*
X135232359Y-112707525D01*
X135056058Y-112222902D01*
X134996821Y-112091064D01*
X134844703Y-111752511D01*
X134844703Y-111752512D01*
X134599423Y-111298877D01*
X134321551Y-110864458D01*
X134293351Y-110826775D01*
X134012568Y-110451568D01*
X134012566Y-110451565D01*
X133674145Y-110062446D01*
X133308113Y-109699193D01*
X133308112Y-109699192D01*
X132916421Y-109363743D01*
X132501196Y-109057921D01*
X132501190Y-109057917D01*
X132501187Y-109057915D01*
X132314775Y-108940671D01*
X132064665Y-108783363D01*
X131950558Y-108722785D01*
X131656215Y-108566522D01*
X131606232Y-108517700D01*
X131590359Y-108456999D01*
X131590359Y-105213250D01*
X135126780Y-105213250D01*
X135146566Y-105401506D01*
X135146567Y-105401509D01*
X135205058Y-105581527D01*
X135205061Y-105581534D01*
X135299707Y-105745466D01*
X135318741Y-105766605D01*
X135426369Y-105886138D01*
X135579505Y-105997398D01*
X135579510Y-105997401D01*
X135752432Y-106074392D01*
X135752437Y-106074394D01*
X135937594Y-106113750D01*
X135937595Y-106113750D01*
X136126884Y-106113750D01*
X136126886Y-106113750D01*
X136312043Y-106074394D01*
X136484970Y-105997401D01*
X136638111Y-105886138D01*
X136764773Y-105745466D01*
X136859419Y-105581534D01*
X136917914Y-105401506D01*
X136937700Y-105213250D01*
X136917914Y-105024994D01*
X136859419Y-104844966D01*
X136764773Y-104681034D01*
X136638111Y-104540362D01*
X136631872Y-104535829D01*
X136484974Y-104429101D01*
X136484969Y-104429098D01*
X136312047Y-104352107D01*
X136312042Y-104352105D01*
X136166240Y-104321115D01*
X136126886Y-104312750D01*
X135937594Y-104312750D01*
X135905137Y-104319648D01*
X135752437Y-104352105D01*
X135752432Y-104352107D01*
X135579510Y-104429098D01*
X135579505Y-104429101D01*
X135426369Y-104540361D01*
X135299706Y-104681035D01*
X135205061Y-104844965D01*
X135205058Y-104844972D01*
X135146567Y-105024990D01*
X135146566Y-105024994D01*
X135126780Y-105213250D01*
X131590359Y-105213250D01*
X131590359Y-99391222D01*
X131590443Y-99140078D01*
X131588336Y-99110871D01*
X131570476Y-98863250D01*
X133856780Y-98863250D01*
X133876566Y-99051506D01*
X133876567Y-99051509D01*
X133935058Y-99231527D01*
X133935061Y-99231534D01*
X134029707Y-99395466D01*
X134113571Y-99488606D01*
X134156369Y-99536138D01*
X134309505Y-99647398D01*
X134309510Y-99647401D01*
X134482432Y-99724392D01*
X134482437Y-99724394D01*
X134667594Y-99763750D01*
X134667595Y-99763750D01*
X134856884Y-99763750D01*
X134856886Y-99763750D01*
X135042043Y-99724394D01*
X135214970Y-99647401D01*
X135368111Y-99536138D01*
X135494773Y-99395466D01*
X135589419Y-99231534D01*
X135647914Y-99051506D01*
X135667700Y-98863250D01*
X135647914Y-98674994D01*
X135589419Y-98494966D01*
X135494773Y-98331034D01*
X135476933Y-98311221D01*
X135446704Y-98248231D01*
X135455329Y-98178896D01*
X135476934Y-98145278D01*
X135494773Y-98125466D01*
X135589419Y-97961534D01*
X135647914Y-97781506D01*
X135667700Y-97593250D01*
X135647914Y-97404994D01*
X135589419Y-97224966D01*
X135494773Y-97061034D01*
X135476933Y-97041221D01*
X135446704Y-96978231D01*
X135455329Y-96908896D01*
X135476934Y-96875278D01*
X135494773Y-96855466D01*
X135589419Y-96691534D01*
X135647914Y-96511506D01*
X135667700Y-96323250D01*
X135647914Y-96134994D01*
X135589419Y-95954966D01*
X135494773Y-95791034D01*
X135476933Y-95771221D01*
X135446704Y-95708231D01*
X135455329Y-95638896D01*
X135476934Y-95605278D01*
X135494773Y-95585466D01*
X135589419Y-95421534D01*
X135647914Y-95241506D01*
X135667700Y-95053250D01*
X135647914Y-94864994D01*
X135589419Y-94684966D01*
X135494773Y-94521034D01*
X135368111Y-94380362D01*
X135368110Y-94380361D01*
X135214974Y-94269101D01*
X135214969Y-94269098D01*
X135042047Y-94192107D01*
X135042042Y-94192105D01*
X134896241Y-94161115D01*
X134856886Y-94152750D01*
X134667594Y-94152750D01*
X134635137Y-94159648D01*
X134482437Y-94192105D01*
X134482432Y-94192107D01*
X134309510Y-94269098D01*
X134309505Y-94269101D01*
X134156369Y-94380361D01*
X134029706Y-94521035D01*
X133935061Y-94684965D01*
X133935058Y-94684972D01*
X133876658Y-94864710D01*
X133876566Y-94864994D01*
X133856780Y-95053250D01*
X133876566Y-95241506D01*
X133876567Y-95241509D01*
X133935058Y-95421527D01*
X133935061Y-95421534D01*
X134029707Y-95585466D01*
X134040046Y-95596949D01*
X134047547Y-95605280D01*
X134077775Y-95668272D01*
X134069149Y-95737607D01*
X134047547Y-95771220D01*
X134029706Y-95791035D01*
X133935061Y-95954965D01*
X133935058Y-95954972D01*
X133876567Y-96134990D01*
X133876566Y-96134994D01*
X133856780Y-96323250D01*
X133876566Y-96511506D01*
X133876567Y-96511509D01*
X133935058Y-96691527D01*
X133935061Y-96691534D01*
X134029707Y-96855466D01*
X134040046Y-96866949D01*
X134047547Y-96875280D01*
X134077775Y-96938272D01*
X134069149Y-97007607D01*
X134047547Y-97041220D01*
X134029706Y-97061035D01*
X133935061Y-97224965D01*
X133935058Y-97224972D01*
X133891252Y-97359794D01*
X133876566Y-97404994D01*
X133856780Y-97593250D01*
X133876566Y-97781506D01*
X133876567Y-97781509D01*
X133935058Y-97961527D01*
X133935061Y-97961534D01*
X134029707Y-98125466D01*
X134040046Y-98136949D01*
X134047547Y-98145280D01*
X134077775Y-98208272D01*
X134069149Y-98277607D01*
X134047547Y-98311220D01*
X134029706Y-98331035D01*
X133935061Y-98494965D01*
X133935058Y-98494972D01*
X133904847Y-98587954D01*
X133876566Y-98674994D01*
X133856780Y-98863250D01*
X131570476Y-98863250D01*
X131559126Y-98705877D01*
X131559126Y-98705872D01*
X131559125Y-98705872D01*
X131496824Y-98277607D01*
X131496458Y-98275087D01*
X131490539Y-98248231D01*
X131402769Y-97849973D01*
X131402768Y-97849972D01*
X131402767Y-97849964D01*
X131278545Y-97432740D01*
X131278154Y-97431706D01*
X131124448Y-97025610D01*
X131124448Y-97025611D01*
X131124445Y-97025603D01*
X130941275Y-96630690D01*
X130729995Y-96250074D01*
X130654726Y-96134990D01*
X130491720Y-95885757D01*
X130277761Y-95605278D01*
X130227687Y-95539636D01*
X130227685Y-95539633D01*
X129939295Y-95213544D01*
X129939294Y-95213543D01*
X129628050Y-94909183D01*
X129578960Y-94867677D01*
X129576237Y-94865232D01*
X129575695Y-94864715D01*
X129575690Y-94864710D01*
X129575682Y-94864703D01*
X129460030Y-94767121D01*
X129178455Y-94521035D01*
X128647890Y-94057340D01*
X127860879Y-93319680D01*
X127100008Y-92555086D01*
X126366198Y-91764484D01*
X125915127Y-91243250D01*
X131951780Y-91243250D01*
X131971566Y-91431506D01*
X131971567Y-91431509D01*
X132030058Y-91611527D01*
X132030061Y-91611534D01*
X132124707Y-91775466D01*
X132142900Y-91795671D01*
X132251369Y-91916138D01*
X132404505Y-92027398D01*
X132404510Y-92027401D01*
X132577432Y-92104392D01*
X132577437Y-92104394D01*
X132762594Y-92143750D01*
X132762595Y-92143750D01*
X132951884Y-92143750D01*
X132951886Y-92143750D01*
X133137043Y-92104394D01*
X133309970Y-92027401D01*
X133463111Y-91916138D01*
X133589773Y-91775466D01*
X133684419Y-91611534D01*
X133742914Y-91431506D01*
X133762700Y-91243250D01*
X135761780Y-91243250D01*
X135781566Y-91431506D01*
X135781567Y-91431509D01*
X135840058Y-91611527D01*
X135840061Y-91611534D01*
X135934707Y-91775466D01*
X135952900Y-91795671D01*
X136061369Y-91916138D01*
X136214505Y-92027398D01*
X136214510Y-92027401D01*
X136387432Y-92104392D01*
X136387437Y-92104394D01*
X136572594Y-92143750D01*
X136572595Y-92143750D01*
X136761884Y-92143750D01*
X136761886Y-92143750D01*
X136947043Y-92104394D01*
X137119970Y-92027401D01*
X137273111Y-91916138D01*
X137399773Y-91775466D01*
X137494419Y-91611534D01*
X137552914Y-91431506D01*
X137572700Y-91243250D01*
X137552914Y-91054994D01*
X137494419Y-90874966D01*
X137399773Y-90711034D01*
X137273111Y-90570362D01*
X137273110Y-90570361D01*
X137119974Y-90459101D01*
X137119969Y-90459098D01*
X136947047Y-90382107D01*
X136947042Y-90382105D01*
X136801241Y-90351115D01*
X136761886Y-90342750D01*
X136572594Y-90342750D01*
X136540137Y-90349648D01*
X136387437Y-90382105D01*
X136387432Y-90382107D01*
X136214510Y-90459098D01*
X136214505Y-90459101D01*
X136061369Y-90570361D01*
X135934706Y-90711035D01*
X135840061Y-90874965D01*
X135840058Y-90874972D01*
X135781567Y-91054990D01*
X135781566Y-91054994D01*
X135761780Y-91243250D01*
X133762700Y-91243250D01*
X133742914Y-91054994D01*
X133684419Y-90874966D01*
X133589773Y-90711034D01*
X133463111Y-90570362D01*
X133463110Y-90570361D01*
X133309974Y-90459101D01*
X133309969Y-90459098D01*
X133137047Y-90382107D01*
X133137042Y-90382105D01*
X132991240Y-90351115D01*
X132951886Y-90342750D01*
X132762594Y-90342750D01*
X132730137Y-90349648D01*
X132577437Y-90382105D01*
X132577432Y-90382107D01*
X132404510Y-90459098D01*
X132404505Y-90459101D01*
X132251369Y-90570361D01*
X132124706Y-90711035D01*
X132030061Y-90874965D01*
X132030058Y-90874972D01*
X131971567Y-91054990D01*
X131971566Y-91054994D01*
X131951780Y-91243250D01*
X125915127Y-91243250D01*
X125660339Y-90948830D01*
X124983285Y-90109112D01*
X124335855Y-89246347D01*
X123718833Y-88361579D01*
X123132968Y-87455881D01*
X122578967Y-86530347D01*
X122057502Y-85586100D01*
X122028133Y-85528250D01*
X125601780Y-85528250D01*
X125621566Y-85716506D01*
X125621567Y-85716509D01*
X125680058Y-85896527D01*
X125680061Y-85896534D01*
X125774707Y-86060466D01*
X125901368Y-86201138D01*
X125901369Y-86201138D01*
X126054505Y-86312398D01*
X126054510Y-86312401D01*
X126227432Y-86389392D01*
X126227437Y-86389394D01*
X126412594Y-86428750D01*
X126412595Y-86428750D01*
X126601884Y-86428750D01*
X126601886Y-86428750D01*
X126787043Y-86389394D01*
X126959970Y-86312401D01*
X127113111Y-86201138D01*
X127239773Y-86060466D01*
X127334419Y-85896534D01*
X127392914Y-85716506D01*
X127412700Y-85528250D01*
X131951780Y-85528250D01*
X131971566Y-85716506D01*
X131971567Y-85716509D01*
X132030058Y-85896527D01*
X132030061Y-85896534D01*
X132124707Y-86060466D01*
X132251368Y-86201138D01*
X132251369Y-86201138D01*
X132404505Y-86312398D01*
X132404510Y-86312401D01*
X132577432Y-86389392D01*
X132577437Y-86389394D01*
X132762594Y-86428750D01*
X132762595Y-86428750D01*
X132951884Y-86428750D01*
X132951886Y-86428750D01*
X133137043Y-86389394D01*
X133309970Y-86312401D01*
X133463111Y-86201138D01*
X133589773Y-86060466D01*
X133684419Y-85896534D01*
X133742914Y-85716506D01*
X133762700Y-85528250D01*
X133742914Y-85339994D01*
X133684419Y-85159966D01*
X133589773Y-84996034D01*
X133571933Y-84976221D01*
X133541704Y-84913231D01*
X133550329Y-84843896D01*
X133571934Y-84810278D01*
X133589773Y-84790466D01*
X133684419Y-84626534D01*
X133742914Y-84446506D01*
X133762700Y-84258250D01*
X133742914Y-84069994D01*
X133684419Y-83889966D01*
X133589773Y-83726034D01*
X133571933Y-83706221D01*
X133541704Y-83643231D01*
X133550329Y-83573896D01*
X133571934Y-83540278D01*
X133589773Y-83520466D01*
X133684419Y-83356534D01*
X133742914Y-83176506D01*
X133762700Y-82988250D01*
X133742914Y-82799994D01*
X133684419Y-82619966D01*
X133589773Y-82456034D01*
X133571933Y-82436221D01*
X133541704Y-82373231D01*
X133550329Y-82303896D01*
X133571934Y-82270278D01*
X133571935Y-82270277D01*
X133589773Y-82250466D01*
X133684419Y-82086534D01*
X133742914Y-81906506D01*
X133762700Y-81718250D01*
X133742914Y-81529994D01*
X133684419Y-81349966D01*
X133589773Y-81186034D01*
X133571933Y-81166221D01*
X133541704Y-81103231D01*
X133550329Y-81033896D01*
X133571934Y-81000278D01*
X133571935Y-81000277D01*
X133589773Y-80980466D01*
X133684419Y-80816534D01*
X133742914Y-80636506D01*
X133762700Y-80448250D01*
X133742914Y-80259994D01*
X133684419Y-80079966D01*
X133589773Y-79916034D01*
X133571933Y-79896221D01*
X133541704Y-79833231D01*
X133550329Y-79763896D01*
X133571934Y-79730278D01*
X133589773Y-79710466D01*
X133684419Y-79546534D01*
X133742914Y-79366506D01*
X133762700Y-79178250D01*
X133742914Y-78989994D01*
X133684419Y-78809966D01*
X133589773Y-78646034D01*
X133571933Y-78626221D01*
X133541704Y-78563231D01*
X133550329Y-78493896D01*
X133571934Y-78460278D01*
X133589773Y-78440466D01*
X133684419Y-78276534D01*
X133742914Y-78096506D01*
X133762700Y-77908250D01*
X133742914Y-77719994D01*
X133684419Y-77539966D01*
X133589773Y-77376034D01*
X133463111Y-77235362D01*
X133463110Y-77235361D01*
X133309974Y-77124101D01*
X133309969Y-77124098D01*
X133137047Y-77047107D01*
X133137042Y-77047105D01*
X132991240Y-77016115D01*
X132951886Y-77007750D01*
X132762594Y-77007750D01*
X132730137Y-77014648D01*
X132577437Y-77047105D01*
X132577432Y-77047107D01*
X132404510Y-77124098D01*
X132404505Y-77124101D01*
X132251369Y-77235361D01*
X132124706Y-77376035D01*
X132030061Y-77539965D01*
X132030058Y-77539972D01*
X131971567Y-77719990D01*
X131971566Y-77719994D01*
X131951780Y-77908250D01*
X131971566Y-78096506D01*
X131971567Y-78096509D01*
X132030058Y-78276527D01*
X132030061Y-78276534D01*
X132124707Y-78440466D01*
X132135046Y-78451949D01*
X132142547Y-78460280D01*
X132172775Y-78523272D01*
X132164149Y-78592607D01*
X132142547Y-78626220D01*
X132124706Y-78646035D01*
X132030061Y-78809965D01*
X132030058Y-78809972D01*
X131971567Y-78989990D01*
X131971566Y-78989994D01*
X131951780Y-79178250D01*
X131971566Y-79366506D01*
X131971567Y-79366509D01*
X132030058Y-79546527D01*
X132030061Y-79546534D01*
X132124707Y-79710466D01*
X132128073Y-79714204D01*
X132142547Y-79730280D01*
X132172775Y-79793272D01*
X132164149Y-79862607D01*
X132142547Y-79896220D01*
X132124706Y-79916035D01*
X132030061Y-80079965D01*
X132030058Y-80079972D01*
X131971567Y-80259990D01*
X131971566Y-80259994D01*
X131951780Y-80448250D01*
X131971566Y-80636506D01*
X131971567Y-80636509D01*
X132030058Y-80816527D01*
X132030061Y-80816534D01*
X132124707Y-80980466D01*
X132135046Y-80991949D01*
X132142547Y-81000280D01*
X132172775Y-81063272D01*
X132164149Y-81132607D01*
X132142547Y-81166220D01*
X132124706Y-81186035D01*
X132030061Y-81349965D01*
X132030058Y-81349972D01*
X131971567Y-81529990D01*
X131971566Y-81529994D01*
X131951780Y-81718250D01*
X131971566Y-81906506D01*
X131971567Y-81906509D01*
X132030058Y-82086527D01*
X132030061Y-82086534D01*
X132124707Y-82250466D01*
X132128073Y-82254204D01*
X132142545Y-82270277D01*
X132172775Y-82333268D01*
X132164150Y-82402604D01*
X132142548Y-82436218D01*
X132124706Y-82456034D01*
X132030061Y-82619965D01*
X132030058Y-82619972D01*
X131971567Y-82799990D01*
X131971566Y-82799994D01*
X131951780Y-82988250D01*
X131971566Y-83176506D01*
X131971567Y-83176509D01*
X132030058Y-83356527D01*
X132030061Y-83356534D01*
X132124707Y-83520466D01*
X132135046Y-83531949D01*
X132142547Y-83540280D01*
X132172775Y-83603272D01*
X132164149Y-83672607D01*
X132142547Y-83706220D01*
X132124706Y-83726035D01*
X132030061Y-83889965D01*
X132030058Y-83889972D01*
X131971567Y-84069990D01*
X131971566Y-84069994D01*
X131951780Y-84258250D01*
X131971566Y-84446506D01*
X131971567Y-84446509D01*
X132030058Y-84626527D01*
X132030061Y-84626534D01*
X132124707Y-84790466D01*
X132128073Y-84794204D01*
X132142547Y-84810280D01*
X132172775Y-84873272D01*
X132164149Y-84942607D01*
X132142547Y-84976220D01*
X132124706Y-84996035D01*
X132030061Y-85159965D01*
X132030058Y-85159972D01*
X131971567Y-85339990D01*
X131971566Y-85339994D01*
X131951780Y-85528250D01*
X127412700Y-85528250D01*
X127392914Y-85339994D01*
X127334419Y-85159966D01*
X127239773Y-84996034D01*
X127221933Y-84976221D01*
X127191704Y-84913231D01*
X127200329Y-84843896D01*
X127221934Y-84810278D01*
X127239773Y-84790466D01*
X127334419Y-84626534D01*
X127392914Y-84446506D01*
X127412700Y-84258250D01*
X128776780Y-84258250D01*
X128796566Y-84446506D01*
X128796567Y-84446509D01*
X128855058Y-84626527D01*
X128855061Y-84626534D01*
X128949707Y-84790466D01*
X129068860Y-84922798D01*
X129076369Y-84931138D01*
X129229505Y-85042398D01*
X129229510Y-85042401D01*
X129402432Y-85119392D01*
X129402437Y-85119394D01*
X129587594Y-85158750D01*
X129587595Y-85158750D01*
X129776884Y-85158750D01*
X129776886Y-85158750D01*
X129962043Y-85119394D01*
X130134970Y-85042401D01*
X130288111Y-84931138D01*
X130414773Y-84790466D01*
X130509419Y-84626534D01*
X130567914Y-84446506D01*
X130587700Y-84258250D01*
X130567914Y-84069994D01*
X130509419Y-83889966D01*
X130414773Y-83726034D01*
X130396933Y-83706221D01*
X130366704Y-83643231D01*
X130375329Y-83573896D01*
X130396934Y-83540278D01*
X130414773Y-83520466D01*
X130509419Y-83356534D01*
X130567914Y-83176506D01*
X130587700Y-82988250D01*
X130567914Y-82799994D01*
X130509419Y-82619966D01*
X130414773Y-82456034D01*
X130396933Y-82436221D01*
X130366704Y-82373231D01*
X130375329Y-82303896D01*
X130396934Y-82270278D01*
X130396935Y-82270277D01*
X130414773Y-82250466D01*
X130509419Y-82086534D01*
X130567914Y-81906506D01*
X130587700Y-81718250D01*
X130567914Y-81529994D01*
X130509419Y-81349966D01*
X130414773Y-81186034D01*
X130396933Y-81166221D01*
X130366704Y-81103231D01*
X130375329Y-81033896D01*
X130396934Y-81000278D01*
X130396935Y-81000277D01*
X130414773Y-80980466D01*
X130509419Y-80816534D01*
X130567914Y-80636506D01*
X130587700Y-80448250D01*
X130567914Y-80259994D01*
X130509419Y-80079966D01*
X130414773Y-79916034D01*
X130396933Y-79896221D01*
X130366704Y-79833231D01*
X130375329Y-79763896D01*
X130396934Y-79730278D01*
X130414773Y-79710466D01*
X130509419Y-79546534D01*
X130567914Y-79366506D01*
X130587700Y-79178250D01*
X130567914Y-78989994D01*
X130509419Y-78809966D01*
X130414773Y-78646034D01*
X130288111Y-78505362D01*
X130288110Y-78505361D01*
X130134974Y-78394101D01*
X130134969Y-78394098D01*
X129962047Y-78317107D01*
X129962042Y-78317105D01*
X129816241Y-78286115D01*
X129776886Y-78277750D01*
X129587594Y-78277750D01*
X129555137Y-78284648D01*
X129402437Y-78317105D01*
X129402432Y-78317107D01*
X129229510Y-78394098D01*
X129229505Y-78394101D01*
X129076369Y-78505361D01*
X128949706Y-78646035D01*
X128855061Y-78809965D01*
X128855058Y-78809972D01*
X128796567Y-78989990D01*
X128796566Y-78989994D01*
X128776780Y-79178250D01*
X128796566Y-79366506D01*
X128796567Y-79366509D01*
X128855058Y-79546527D01*
X128855061Y-79546534D01*
X128949707Y-79710466D01*
X128953073Y-79714204D01*
X128967547Y-79730280D01*
X128997775Y-79793272D01*
X128989149Y-79862607D01*
X128967547Y-79896220D01*
X128949706Y-79916035D01*
X128855061Y-80079965D01*
X128855058Y-80079972D01*
X128796567Y-80259990D01*
X128796566Y-80259994D01*
X128776780Y-80448250D01*
X128796566Y-80636506D01*
X128796567Y-80636509D01*
X128855058Y-80816527D01*
X128855061Y-80816534D01*
X128949707Y-80980466D01*
X128967545Y-81000277D01*
X128997775Y-81063268D01*
X128989150Y-81132604D01*
X128967548Y-81166218D01*
X128949706Y-81186034D01*
X128855061Y-81349965D01*
X128855058Y-81349972D01*
X128796567Y-81529990D01*
X128796566Y-81529994D01*
X128776780Y-81718250D01*
X128796566Y-81906506D01*
X128796567Y-81906509D01*
X128855058Y-82086527D01*
X128855061Y-82086534D01*
X128949707Y-82250466D01*
X128953073Y-82254204D01*
X128967547Y-82270280D01*
X128997775Y-82333272D01*
X128989149Y-82402607D01*
X128967547Y-82436220D01*
X128949706Y-82456035D01*
X128855061Y-82619965D01*
X128855058Y-82619972D01*
X128796567Y-82799990D01*
X128796566Y-82799994D01*
X128776780Y-82988250D01*
X128796566Y-83176506D01*
X128796567Y-83176509D01*
X128855058Y-83356527D01*
X128855061Y-83356534D01*
X128949707Y-83520466D01*
X128960046Y-83531949D01*
X128967547Y-83540280D01*
X128997775Y-83603272D01*
X128989149Y-83672607D01*
X128967547Y-83706220D01*
X128949706Y-83726035D01*
X128855061Y-83889965D01*
X128855058Y-83889972D01*
X128796567Y-84069990D01*
X128796566Y-84069994D01*
X128776780Y-84258250D01*
X127412700Y-84258250D01*
X127392914Y-84069994D01*
X127334419Y-83889966D01*
X127239773Y-83726034D01*
X127221933Y-83706221D01*
X127191704Y-83643231D01*
X127200329Y-83573896D01*
X127221934Y-83540278D01*
X127239773Y-83520466D01*
X127334419Y-83356534D01*
X127392914Y-83176506D01*
X127412700Y-82988250D01*
X127392914Y-82799994D01*
X127334419Y-82619966D01*
X127239773Y-82456034D01*
X127221933Y-82436221D01*
X127191704Y-82373231D01*
X127200329Y-82303896D01*
X127221934Y-82270278D01*
X127221935Y-82270277D01*
X127239773Y-82250466D01*
X127334419Y-82086534D01*
X127392914Y-81906506D01*
X127412700Y-81718250D01*
X127392914Y-81529994D01*
X127334419Y-81349966D01*
X127239773Y-81186034D01*
X127221933Y-81166221D01*
X127191704Y-81103231D01*
X127200329Y-81033896D01*
X127221934Y-81000278D01*
X127221935Y-81000277D01*
X127239773Y-80980466D01*
X127334419Y-80816534D01*
X127392914Y-80636506D01*
X127412700Y-80448250D01*
X127392914Y-80259994D01*
X127334419Y-80079966D01*
X127239773Y-79916034D01*
X127221933Y-79896221D01*
X127191704Y-79833231D01*
X127200329Y-79763896D01*
X127221934Y-79730278D01*
X127239773Y-79710466D01*
X127334419Y-79546534D01*
X127392914Y-79366506D01*
X127412700Y-79178250D01*
X127392914Y-78989994D01*
X127334419Y-78809966D01*
X127239773Y-78646034D01*
X127221933Y-78626221D01*
X127191704Y-78563231D01*
X127200329Y-78493896D01*
X127221934Y-78460278D01*
X127239773Y-78440466D01*
X127334419Y-78276534D01*
X127392914Y-78096506D01*
X127412700Y-77908250D01*
X127392914Y-77719994D01*
X127334419Y-77539966D01*
X127239773Y-77376034D01*
X127113111Y-77235362D01*
X127113110Y-77235361D01*
X126959974Y-77124101D01*
X126959969Y-77124098D01*
X126787047Y-77047107D01*
X126787042Y-77047105D01*
X126641241Y-77016115D01*
X126601886Y-77007750D01*
X126412594Y-77007750D01*
X126380137Y-77014648D01*
X126227437Y-77047105D01*
X126227432Y-77047107D01*
X126054510Y-77124098D01*
X126054505Y-77124101D01*
X125901369Y-77235361D01*
X125774706Y-77376035D01*
X125680061Y-77539965D01*
X125680058Y-77539972D01*
X125621567Y-77719990D01*
X125621566Y-77719994D01*
X125601780Y-77908250D01*
X125621566Y-78096506D01*
X125621567Y-78096509D01*
X125680058Y-78276527D01*
X125680061Y-78276534D01*
X125774707Y-78440466D01*
X125785046Y-78451949D01*
X125792547Y-78460280D01*
X125822775Y-78523272D01*
X125814149Y-78592607D01*
X125792547Y-78626220D01*
X125774706Y-78646035D01*
X125680061Y-78809965D01*
X125680058Y-78809972D01*
X125621567Y-78989990D01*
X125621566Y-78989994D01*
X125601780Y-79178250D01*
X125621566Y-79366506D01*
X125621567Y-79366509D01*
X125680058Y-79546527D01*
X125680061Y-79546534D01*
X125774707Y-79710466D01*
X125778073Y-79714204D01*
X125792547Y-79730280D01*
X125822775Y-79793272D01*
X125814149Y-79862607D01*
X125792547Y-79896220D01*
X125774706Y-79916035D01*
X125680061Y-80079965D01*
X125680058Y-80079972D01*
X125621567Y-80259990D01*
X125621566Y-80259994D01*
X125601780Y-80448250D01*
X125621566Y-80636506D01*
X125621567Y-80636509D01*
X125680058Y-80816527D01*
X125680061Y-80816534D01*
X125774707Y-80980466D01*
X125785046Y-80991949D01*
X125792547Y-81000280D01*
X125822775Y-81063272D01*
X125814149Y-81132607D01*
X125792547Y-81166220D01*
X125774706Y-81186035D01*
X125680061Y-81349965D01*
X125680058Y-81349972D01*
X125621567Y-81529990D01*
X125621566Y-81529994D01*
X125601780Y-81718250D01*
X125621566Y-81906506D01*
X125621567Y-81906509D01*
X125680058Y-82086527D01*
X125680061Y-82086534D01*
X125774707Y-82250466D01*
X125778073Y-82254204D01*
X125792545Y-82270277D01*
X125822775Y-82333268D01*
X125814150Y-82402604D01*
X125792548Y-82436218D01*
X125774706Y-82456034D01*
X125680061Y-82619965D01*
X125680058Y-82619972D01*
X125621567Y-82799990D01*
X125621566Y-82799994D01*
X125601780Y-82988250D01*
X125621566Y-83176506D01*
X125621567Y-83176509D01*
X125680058Y-83356527D01*
X125680061Y-83356534D01*
X125774707Y-83520466D01*
X125785046Y-83531949D01*
X125792547Y-83540280D01*
X125822775Y-83603272D01*
X125814149Y-83672607D01*
X125792547Y-83706220D01*
X125774706Y-83726035D01*
X125680061Y-83889965D01*
X125680058Y-83889972D01*
X125621567Y-84069990D01*
X125621566Y-84069994D01*
X125601780Y-84258250D01*
X125621566Y-84446506D01*
X125621567Y-84446509D01*
X125680058Y-84626527D01*
X125680061Y-84626534D01*
X125774707Y-84790466D01*
X125778073Y-84794204D01*
X125792547Y-84810280D01*
X125822775Y-84873272D01*
X125814149Y-84942607D01*
X125792547Y-84976220D01*
X125774706Y-84996035D01*
X125680061Y-85159965D01*
X125680058Y-85159972D01*
X125621567Y-85339990D01*
X125621566Y-85339994D01*
X125601780Y-85528250D01*
X122028133Y-85528250D01*
X121569204Y-84624282D01*
X121114664Y-83646058D01*
X120694433Y-82652612D01*
X120309020Y-81645148D01*
X119958890Y-80624884D01*
X119644469Y-79593056D01*
X119366137Y-78550914D01*
X119124230Y-77499720D01*
X118919042Y-76440746D01*
X118916929Y-76427363D01*
X118888757Y-76248927D01*
X118887240Y-76229589D01*
X118887240Y-75368250D01*
X119886780Y-75368250D01*
X119906566Y-75556506D01*
X119906567Y-75556509D01*
X119965058Y-75736527D01*
X119965061Y-75736534D01*
X120059707Y-75900466D01*
X120186368Y-76041138D01*
X120186369Y-76041138D01*
X120339505Y-76152398D01*
X120339510Y-76152401D01*
X120512432Y-76229392D01*
X120512437Y-76229394D01*
X120697594Y-76268750D01*
X120697595Y-76268750D01*
X120886884Y-76268750D01*
X120886886Y-76268750D01*
X121072043Y-76229394D01*
X121244970Y-76152401D01*
X121398111Y-76041138D01*
X121524773Y-75900466D01*
X121619419Y-75736534D01*
X121677914Y-75556506D01*
X121697700Y-75368250D01*
X121677914Y-75179994D01*
X121619419Y-74999966D01*
X121524773Y-74836034D01*
X121398111Y-74695362D01*
X121398110Y-74695361D01*
X121244974Y-74584101D01*
X121244969Y-74584098D01*
X121072047Y-74507107D01*
X121072042Y-74507105D01*
X120926241Y-74476115D01*
X120886886Y-74467750D01*
X120697594Y-74467750D01*
X120665137Y-74474648D01*
X120512437Y-74507105D01*
X120512432Y-74507107D01*
X120339510Y-74584098D01*
X120339505Y-74584101D01*
X120186369Y-74695361D01*
X120059706Y-74836035D01*
X119965061Y-74999965D01*
X119965058Y-74999972D01*
X119906567Y-75179990D01*
X119906566Y-75179994D01*
X119886780Y-75368250D01*
X118887240Y-75368250D01*
X118887240Y-65927689D01*
X118888837Y-65907854D01*
X118902413Y-65824079D01*
X118943547Y-65570236D01*
X119159438Y-64484878D01*
X119413930Y-63407918D01*
X119706700Y-62340728D01*
X120037373Y-61284667D01*
X120405529Y-60241081D01*
X120810698Y-59211301D01*
X121252365Y-58196638D01*
X121729966Y-57198386D01*
X122242892Y-56217817D01*
X122790491Y-55256180D01*
X123372063Y-54314701D01*
X123986869Y-53394579D01*
X124634124Y-52496988D01*
X124811813Y-52268250D01*
X125313004Y-51623072D01*
X125574027Y-51310739D01*
X125597433Y-51282732D01*
X125655527Y-51243915D01*
X125692580Y-51238250D01*
X135273240Y-51238250D01*
X135340279Y-51257935D01*
G37*
%TD.AperFunction*%
%TD*%
%TA.AperFunction,Conductor*%
%TO.N,A*%
G36*
X173275463Y-51257935D02*
G01*
X173303568Y-51282729D01*
X173385860Y-51381197D01*
X173588000Y-51623072D01*
X173636103Y-51684994D01*
X174266880Y-52496988D01*
X174914135Y-53394579D01*
X175528941Y-54314701D01*
X176110513Y-55256180D01*
X176658112Y-56217817D01*
X177171038Y-57198386D01*
X177648639Y-58196638D01*
X178090306Y-59211301D01*
X178495475Y-60241081D01*
X178863631Y-61284667D01*
X179194304Y-62340728D01*
X179487074Y-63407918D01*
X179741566Y-64484878D01*
X179812197Y-64839966D01*
X179844857Y-65004156D01*
X179847240Y-65028347D01*
X179847240Y-77125336D01*
X179844997Y-77148813D01*
X179783157Y-77469537D01*
X179543531Y-78515981D01*
X179267815Y-79553500D01*
X178956341Y-80580850D01*
X178609480Y-81596799D01*
X178227651Y-82600129D01*
X178065368Y-82985820D01*
X178021224Y-83039979D01*
X177954808Y-83061674D01*
X177887206Y-83044017D01*
X177839881Y-82992616D01*
X177827752Y-82950691D01*
X177811914Y-82799994D01*
X177753419Y-82619966D01*
X177658773Y-82456034D01*
X177532111Y-82315362D01*
X177470057Y-82270277D01*
X177378974Y-82204101D01*
X177378969Y-82204098D01*
X177206047Y-82127107D01*
X177206042Y-82127105D01*
X177060240Y-82096115D01*
X177020886Y-82087750D01*
X176831594Y-82087750D01*
X176799137Y-82094648D01*
X176646437Y-82127105D01*
X176646432Y-82127107D01*
X176473510Y-82204098D01*
X176473505Y-82204101D01*
X176320369Y-82315361D01*
X176193706Y-82456035D01*
X176099061Y-82619965D01*
X176099058Y-82619972D01*
X176040567Y-82799990D01*
X176040566Y-82799994D01*
X176020780Y-82988250D01*
X176040566Y-83176506D01*
X176040567Y-83176509D01*
X176099058Y-83356527D01*
X176099061Y-83356534D01*
X176193707Y-83520466D01*
X176304245Y-83643230D01*
X176320369Y-83661138D01*
X176473505Y-83772398D01*
X176473510Y-83772401D01*
X176646432Y-83849392D01*
X176646437Y-83849394D01*
X176831594Y-83888750D01*
X176831595Y-83888750D01*
X177020884Y-83888750D01*
X177020886Y-83888750D01*
X177206043Y-83849394D01*
X177378970Y-83772401D01*
X177517520Y-83671738D01*
X177583324Y-83648260D01*
X177651378Y-83664085D01*
X177700073Y-83714191D01*
X177713948Y-83782669D01*
X177702964Y-83824077D01*
X177360955Y-84564134D01*
X176877129Y-85522453D01*
X176360411Y-86463446D01*
X175811421Y-87385983D01*
X175230816Y-88288957D01*
X174619294Y-89171287D01*
X173977588Y-90031913D01*
X173306467Y-90869804D01*
X172606736Y-91683955D01*
X171879234Y-92473389D01*
X171124835Y-93237160D01*
X170344441Y-93974351D01*
X169539926Y-94683253D01*
X169418545Y-94786527D01*
X169374004Y-94824423D01*
X169374000Y-94824426D01*
X169374001Y-94824426D01*
X169065197Y-95128175D01*
X169065198Y-95128175D01*
X168779096Y-95453395D01*
X168779095Y-95453396D01*
X168779093Y-95453399D01*
X168517177Y-95798400D01*
X168517174Y-95798405D01*
X168517174Y-95798404D01*
X168280816Y-96161378D01*
X168280812Y-96161383D01*
X168280812Y-96161385D01*
X168071228Y-96540464D01*
X167889517Y-96933666D01*
X167736623Y-97338943D01*
X167700204Y-97461611D01*
X167613345Y-97754178D01*
X167613346Y-97754178D01*
X167613343Y-97754188D01*
X167533157Y-98118848D01*
X167520316Y-98177245D01*
X167458029Y-98605894D01*
X167426805Y-99037924D01*
X167426813Y-99254501D01*
X167426813Y-108415610D01*
X167407128Y-108482649D01*
X167357587Y-108526856D01*
X166984126Y-108710738D01*
X166984120Y-108710741D01*
X166535075Y-108974897D01*
X166535075Y-108974896D01*
X166106852Y-109271623D01*
X166106850Y-109271625D01*
X165957120Y-109392750D01*
X165701807Y-109599287D01*
X165355277Y-109924972D01*
X165322177Y-109956081D01*
X165217167Y-110070582D01*
X165077557Y-110222812D01*
X165017738Y-110258914D01*
X164947896Y-110256945D01*
X164890206Y-110217529D01*
X164862984Y-110153181D01*
X164862873Y-110152179D01*
X164857914Y-110104994D01*
X164799419Y-109924966D01*
X164704773Y-109761034D01*
X164578111Y-109620362D01*
X164549104Y-109599287D01*
X164424974Y-109509101D01*
X164424969Y-109509098D01*
X164252047Y-109432107D01*
X164252042Y-109432105D01*
X164106240Y-109401115D01*
X164066886Y-109392750D01*
X163877594Y-109392750D01*
X163845137Y-109399648D01*
X163692437Y-109432105D01*
X163692432Y-109432107D01*
X163519510Y-109509098D01*
X163519505Y-109509101D01*
X163366369Y-109620361D01*
X163239706Y-109761035D01*
X163145061Y-109924965D01*
X163145058Y-109924972D01*
X163086567Y-110104990D01*
X163086566Y-110104994D01*
X163066780Y-110293250D01*
X163086566Y-110481506D01*
X163086567Y-110481509D01*
X163145058Y-110661527D01*
X163145061Y-110661534D01*
X163239707Y-110825466D01*
X163366368Y-110966138D01*
X163366369Y-110966138D01*
X163519505Y-111077398D01*
X163519510Y-111077401D01*
X163692432Y-111154392D01*
X163692437Y-111154394D01*
X163877594Y-111193750D01*
X163877595Y-111193750D01*
X164066884Y-111193750D01*
X164066886Y-111193750D01*
X164116562Y-111183191D01*
X164186228Y-111188507D01*
X164241962Y-111230644D01*
X164266067Y-111296224D01*
X164250890Y-111364425D01*
X164249995Y-111366016D01*
X164148103Y-111544173D01*
X164097235Y-111633113D01*
X164097234Y-111633113D01*
X164097234Y-111633114D01*
X163872828Y-112103288D01*
X163683904Y-112588808D01*
X163683903Y-112588812D01*
X163683902Y-112588812D01*
X163531500Y-113087001D01*
X163531501Y-113087000D01*
X163416458Y-113595120D01*
X163339410Y-114110368D01*
X163339410Y-114110369D01*
X163300779Y-114629923D01*
X163300779Y-115150898D01*
X163339410Y-115670453D01*
X163382622Y-115959422D01*
X163416459Y-116185701D01*
X163453582Y-116349669D01*
X163531501Y-116693821D01*
X163531500Y-116693820D01*
X163683902Y-117192010D01*
X163848804Y-117615792D01*
X163872829Y-117677533D01*
X164097234Y-118147707D01*
X164355886Y-118599948D01*
X164355888Y-118599951D01*
X164355887Y-118599950D01*
X164647364Y-119031773D01*
X164708644Y-119109446D01*
X164734714Y-119174270D01*
X164721599Y-119242897D01*
X164673462Y-119293540D01*
X164611294Y-119310250D01*
X160286240Y-119310250D01*
X160219201Y-119290565D01*
X160173446Y-119237761D01*
X160162240Y-119186250D01*
X160162240Y-118880386D01*
X160181925Y-118813347D01*
X160234729Y-118767592D01*
X160303887Y-118757648D01*
X160326496Y-118763103D01*
X160395151Y-118786672D01*
X160427625Y-118797821D01*
X160672905Y-118838750D01*
X160921575Y-118838750D01*
X161166854Y-118797821D01*
X161402050Y-118717078D01*
X161620749Y-118598724D01*
X161816984Y-118445988D01*
X161985404Y-118263035D01*
X162121413Y-118054857D01*
X162221303Y-117827131D01*
X162282348Y-117586071D01*
X162284653Y-117558253D01*
X162302883Y-117338255D01*
X162302883Y-117338244D01*
X162282349Y-117090437D01*
X162282347Y-117090425D01*
X162221303Y-116849368D01*
X162121413Y-116621643D01*
X161985406Y-116413467D01*
X161963797Y-116389994D01*
X161816984Y-116230512D01*
X161620749Y-116077776D01*
X161620747Y-116077775D01*
X161620746Y-116077774D01*
X161402051Y-115959422D01*
X161402042Y-115959419D01*
X161166856Y-115878679D01*
X160921575Y-115837750D01*
X160672905Y-115837750D01*
X160427623Y-115878679D01*
X160326503Y-115913394D01*
X160256704Y-115916544D01*
X160196283Y-115881458D01*
X160164422Y-115819275D01*
X160162240Y-115796113D01*
X160162240Y-106483250D01*
X164971780Y-106483250D01*
X164991566Y-106671506D01*
X164991567Y-106671509D01*
X165050058Y-106851527D01*
X165050061Y-106851534D01*
X165144707Y-107015466D01*
X165271369Y-107156138D01*
X165424505Y-107267398D01*
X165424510Y-107267401D01*
X165597432Y-107344392D01*
X165597437Y-107344394D01*
X165782594Y-107383750D01*
X165782595Y-107383750D01*
X165971884Y-107383750D01*
X165971886Y-107383750D01*
X166157043Y-107344394D01*
X166329970Y-107267401D01*
X166483111Y-107156138D01*
X166609773Y-107015466D01*
X166704419Y-106851534D01*
X166762914Y-106671506D01*
X166782700Y-106483250D01*
X166762914Y-106294994D01*
X166704419Y-106114966D01*
X166609773Y-105951034D01*
X166483111Y-105810362D01*
X166483110Y-105810361D01*
X166329974Y-105699101D01*
X166329969Y-105699098D01*
X166157047Y-105622107D01*
X166157042Y-105622105D01*
X166011240Y-105591115D01*
X165971886Y-105582750D01*
X165782594Y-105582750D01*
X165750137Y-105589648D01*
X165597437Y-105622105D01*
X165597432Y-105622107D01*
X165424510Y-105699098D01*
X165424505Y-105699101D01*
X165271369Y-105810361D01*
X165144706Y-105951035D01*
X165050061Y-106114965D01*
X165050058Y-106114972D01*
X164991567Y-106294990D01*
X164991566Y-106294994D01*
X164971780Y-106483250D01*
X160162240Y-106483250D01*
X160162240Y-92771941D01*
X160181925Y-92704902D01*
X160234729Y-92659147D01*
X160303887Y-92649203D01*
X160338014Y-92661015D01*
X160338574Y-92659758D01*
X160517432Y-92739392D01*
X160517437Y-92739394D01*
X160702594Y-92778750D01*
X160702595Y-92778750D01*
X160891884Y-92778750D01*
X160891886Y-92778750D01*
X161077043Y-92739394D01*
X161249970Y-92662401D01*
X161359357Y-92582926D01*
X161425160Y-92559448D01*
X161493214Y-92575273D01*
X161505111Y-92582918D01*
X161610031Y-92659147D01*
X161614510Y-92662401D01*
X161787432Y-92739392D01*
X161787437Y-92739394D01*
X161972594Y-92778750D01*
X161972595Y-92778750D01*
X162161884Y-92778750D01*
X162161886Y-92778750D01*
X162347043Y-92739394D01*
X162519970Y-92662401D01*
X162629357Y-92582926D01*
X162695160Y-92559448D01*
X162763214Y-92575273D01*
X162775111Y-92582918D01*
X162880031Y-92659147D01*
X162884510Y-92662401D01*
X163043506Y-92733192D01*
X163096743Y-92778442D01*
X163117064Y-92845292D01*
X163111001Y-92884788D01*
X163086567Y-92959989D01*
X163086566Y-92959991D01*
X163086566Y-92959994D01*
X163066780Y-93148250D01*
X163086566Y-93336506D01*
X163086567Y-93336509D01*
X163111001Y-93411710D01*
X163112996Y-93481551D01*
X163076915Y-93541384D01*
X163043507Y-93563307D01*
X162884507Y-93634100D01*
X162884505Y-93634101D01*
X162731369Y-93745361D01*
X162604706Y-93886035D01*
X162510061Y-94049965D01*
X162510058Y-94049972D01*
X162476001Y-94154790D01*
X162451566Y-94229994D01*
X162431780Y-94418250D01*
X162451566Y-94606506D01*
X162451567Y-94606509D01*
X162476001Y-94681710D01*
X162477996Y-94751551D01*
X162441915Y-94811384D01*
X162408507Y-94833307D01*
X162249507Y-94904100D01*
X162249505Y-94904101D01*
X162096369Y-95015361D01*
X161969706Y-95156035D01*
X161875061Y-95319965D01*
X161875058Y-95319972D01*
X161816567Y-95499990D01*
X161816566Y-95499994D01*
X161796780Y-95688250D01*
X161816566Y-95876506D01*
X161816567Y-95876509D01*
X161875058Y-96056527D01*
X161875061Y-96056534D01*
X161969707Y-96220466D01*
X162028139Y-96285361D01*
X162096369Y-96361138D01*
X162249505Y-96472398D01*
X162249510Y-96472401D01*
X162408506Y-96543192D01*
X162461743Y-96588442D01*
X162482064Y-96655292D01*
X162476001Y-96694788D01*
X162451567Y-96769989D01*
X162451567Y-96769990D01*
X162451566Y-96769994D01*
X162431780Y-96958250D01*
X162451566Y-97146506D01*
X162451567Y-97146509D01*
X162510058Y-97326527D01*
X162510061Y-97326534D01*
X162604707Y-97490466D01*
X162621434Y-97509043D01*
X162622545Y-97510277D01*
X162652775Y-97573268D01*
X162644150Y-97642604D01*
X162622548Y-97676218D01*
X162604708Y-97696032D01*
X162604704Y-97696037D01*
X162510061Y-97859965D01*
X162510058Y-97859972D01*
X162451567Y-98039990D01*
X162451566Y-98039994D01*
X162431780Y-98228250D01*
X162451566Y-98416506D01*
X162451567Y-98416509D01*
X162510058Y-98596527D01*
X162510061Y-98596534D01*
X162604707Y-98760466D01*
X162702240Y-98868787D01*
X162731369Y-98901138D01*
X162884505Y-99012398D01*
X162884510Y-99012401D01*
X163057432Y-99089392D01*
X163057437Y-99089394D01*
X163242594Y-99128750D01*
X163242595Y-99128750D01*
X163431884Y-99128750D01*
X163431886Y-99128750D01*
X163617043Y-99089394D01*
X163789970Y-99012401D01*
X163899357Y-98932926D01*
X163965160Y-98909448D01*
X164033214Y-98925273D01*
X164045111Y-98932918D01*
X164154506Y-99012398D01*
X164154510Y-99012401D01*
X164327432Y-99089392D01*
X164327437Y-99089394D01*
X164512594Y-99128750D01*
X164512595Y-99128750D01*
X164701884Y-99128750D01*
X164701886Y-99128750D01*
X164887043Y-99089394D01*
X165059970Y-99012401D01*
X165213111Y-98901138D01*
X165339773Y-98760466D01*
X165434419Y-98596534D01*
X165492914Y-98416506D01*
X165512700Y-98228250D01*
X165492914Y-98039994D01*
X165434419Y-97859966D01*
X165339773Y-97696034D01*
X165321931Y-97676218D01*
X165291703Y-97613230D01*
X165300328Y-97543895D01*
X165321933Y-97510278D01*
X165339773Y-97490466D01*
X165434419Y-97326534D01*
X165492914Y-97146506D01*
X165512700Y-96958250D01*
X165492914Y-96769994D01*
X165434419Y-96589966D01*
X165339773Y-96426034D01*
X165213111Y-96285362D01*
X165213110Y-96285361D01*
X165059974Y-96174101D01*
X165059972Y-96174100D01*
X164900972Y-96103307D01*
X164847736Y-96058056D01*
X164827415Y-95991207D01*
X164833477Y-95951714D01*
X164857914Y-95876506D01*
X164877700Y-95688250D01*
X164857914Y-95499994D01*
X164833477Y-95424788D01*
X164831483Y-95354948D01*
X164867563Y-95295115D01*
X164900973Y-95273192D01*
X164932756Y-95259041D01*
X165059970Y-95202401D01*
X165213111Y-95091138D01*
X165339773Y-94950466D01*
X165434419Y-94786534D01*
X165492914Y-94606506D01*
X165512700Y-94418250D01*
X165492914Y-94229994D01*
X165468477Y-94154788D01*
X165466483Y-94084948D01*
X165502563Y-94025115D01*
X165535973Y-94003192D01*
X165600750Y-93974351D01*
X165694970Y-93932401D01*
X165848111Y-93821138D01*
X165974773Y-93680466D01*
X166069419Y-93516534D01*
X166127914Y-93336506D01*
X166147700Y-93148250D01*
X166127914Y-92959994D01*
X166103477Y-92884788D01*
X166101483Y-92814948D01*
X166137563Y-92755115D01*
X166170973Y-92733192D01*
X166234512Y-92704902D01*
X166329970Y-92662401D01*
X166483111Y-92551138D01*
X166609773Y-92410466D01*
X166704419Y-92246534D01*
X166762914Y-92066506D01*
X166782700Y-91878250D01*
X166762914Y-91689994D01*
X166704419Y-91509966D01*
X166609773Y-91346034D01*
X166483111Y-91205362D01*
X166471672Y-91197051D01*
X166329974Y-91094101D01*
X166329969Y-91094098D01*
X166157047Y-91017107D01*
X166157042Y-91017105D01*
X166003915Y-90984558D01*
X165971886Y-90977750D01*
X165782594Y-90977750D01*
X165750565Y-90984558D01*
X165597437Y-91017105D01*
X165597432Y-91017107D01*
X165424510Y-91094098D01*
X165424505Y-91094101D01*
X165315125Y-91173571D01*
X165249319Y-91197051D01*
X165181265Y-91181225D01*
X165169355Y-91173571D01*
X165059974Y-91094101D01*
X165059969Y-91094098D01*
X164887047Y-91017107D01*
X164887042Y-91017105D01*
X164733915Y-90984558D01*
X164701886Y-90977750D01*
X164512594Y-90977750D01*
X164480565Y-90984558D01*
X164327437Y-91017105D01*
X164327432Y-91017107D01*
X164154510Y-91094098D01*
X164154505Y-91094101D01*
X164045125Y-91173571D01*
X163979319Y-91197051D01*
X163911265Y-91181225D01*
X163899355Y-91173571D01*
X163789974Y-91094101D01*
X163789969Y-91094098D01*
X163617047Y-91017107D01*
X163617042Y-91017105D01*
X163463915Y-90984558D01*
X163431886Y-90977750D01*
X163242594Y-90977750D01*
X163210565Y-90984558D01*
X163057437Y-91017105D01*
X163057432Y-91017107D01*
X162884510Y-91094098D01*
X162884505Y-91094101D01*
X162775125Y-91173571D01*
X162709319Y-91197051D01*
X162641265Y-91181225D01*
X162629355Y-91173571D01*
X162519974Y-91094101D01*
X162519969Y-91094098D01*
X162347047Y-91017107D01*
X162347042Y-91017105D01*
X162193915Y-90984558D01*
X162161886Y-90977750D01*
X161972594Y-90977750D01*
X161940565Y-90984558D01*
X161787437Y-91017105D01*
X161787432Y-91017107D01*
X161614510Y-91094098D01*
X161614505Y-91094101D01*
X161505125Y-91173571D01*
X161439319Y-91197051D01*
X161371265Y-91181225D01*
X161359355Y-91173571D01*
X161249974Y-91094101D01*
X161249969Y-91094098D01*
X161077047Y-91017107D01*
X161077042Y-91017105D01*
X160923915Y-90984558D01*
X160891886Y-90977750D01*
X160702594Y-90977750D01*
X160670565Y-90984558D01*
X160517437Y-91017105D01*
X160517432Y-91017107D01*
X160338574Y-91096742D01*
X160337591Y-91094536D01*
X160280300Y-91108416D01*
X160214281Y-91085542D01*
X160171108Y-91030607D01*
X160162240Y-90984558D01*
X160162240Y-85528250D01*
X164971780Y-85528250D01*
X164991566Y-85716506D01*
X164991567Y-85716509D01*
X165050058Y-85896527D01*
X165050061Y-85896534D01*
X165144707Y-86060466D01*
X165271368Y-86201137D01*
X165271369Y-86201138D01*
X165424505Y-86312398D01*
X165424510Y-86312401D01*
X165597432Y-86389392D01*
X165597437Y-86389394D01*
X165782594Y-86428750D01*
X165782595Y-86428750D01*
X165971884Y-86428750D01*
X165971886Y-86428750D01*
X166157043Y-86389394D01*
X166329970Y-86312401D01*
X166483111Y-86201138D01*
X166609773Y-86060466D01*
X166704419Y-85896534D01*
X166762914Y-85716506D01*
X166782700Y-85528250D01*
X171321780Y-85528250D01*
X171341566Y-85716506D01*
X171341567Y-85716509D01*
X171400058Y-85896527D01*
X171400061Y-85896534D01*
X171494707Y-86060466D01*
X171621368Y-86201137D01*
X171621369Y-86201138D01*
X171774505Y-86312398D01*
X171774510Y-86312401D01*
X171947432Y-86389392D01*
X171947437Y-86389394D01*
X172132594Y-86428750D01*
X172132595Y-86428750D01*
X172321884Y-86428750D01*
X172321886Y-86428750D01*
X172507043Y-86389394D01*
X172679970Y-86312401D01*
X172833111Y-86201138D01*
X172959773Y-86060466D01*
X173054419Y-85896534D01*
X173112914Y-85716506D01*
X173132700Y-85528250D01*
X173112914Y-85339994D01*
X173054419Y-85159966D01*
X172959773Y-84996034D01*
X172941931Y-84976218D01*
X172911703Y-84913230D01*
X172920328Y-84843895D01*
X172941933Y-84810278D01*
X172959773Y-84790466D01*
X173054419Y-84626534D01*
X173112914Y-84446506D01*
X173132700Y-84258250D01*
X173112914Y-84069994D01*
X173054419Y-83889966D01*
X172959773Y-83726034D01*
X172941931Y-83706218D01*
X172911703Y-83643230D01*
X172920328Y-83573895D01*
X172941933Y-83540278D01*
X172959773Y-83520466D01*
X173054419Y-83356534D01*
X173112914Y-83176506D01*
X173132700Y-82988250D01*
X173112914Y-82799994D01*
X173054419Y-82619966D01*
X172959773Y-82456034D01*
X172941931Y-82436218D01*
X172911703Y-82373230D01*
X172920328Y-82303895D01*
X172941933Y-82270278D01*
X172959773Y-82250466D01*
X173054419Y-82086534D01*
X173112914Y-81906506D01*
X173132700Y-81718250D01*
X173112914Y-81529994D01*
X173054419Y-81349966D01*
X172959773Y-81186034D01*
X172941931Y-81166218D01*
X172911703Y-81103230D01*
X172920328Y-81033895D01*
X172941933Y-81000278D01*
X172959773Y-80980466D01*
X173054419Y-80816534D01*
X173112914Y-80636506D01*
X173132700Y-80448250D01*
X173112914Y-80259994D01*
X173054419Y-80079966D01*
X172973754Y-79940250D01*
X174242780Y-79940250D01*
X174262566Y-80128506D01*
X174262567Y-80128509D01*
X174321058Y-80308527D01*
X174321061Y-80308534D01*
X174415707Y-80472466D01*
X174513297Y-80580850D01*
X174542369Y-80613138D01*
X174695505Y-80724398D01*
X174695510Y-80724401D01*
X174868432Y-80801392D01*
X174868437Y-80801394D01*
X175053594Y-80840750D01*
X175053595Y-80840750D01*
X175242884Y-80840750D01*
X175242886Y-80840750D01*
X175428043Y-80801394D01*
X175505072Y-80767098D01*
X175606907Y-80721758D01*
X175607964Y-80724134D01*
X175664583Y-80710384D01*
X175709150Y-80720966D01*
X175880133Y-80797093D01*
X175880138Y-80797095D01*
X176065295Y-80836451D01*
X176065296Y-80836451D01*
X176254585Y-80836451D01*
X176254587Y-80836451D01*
X176439744Y-80797095D01*
X176612671Y-80720102D01*
X176612673Y-80720100D01*
X176615585Y-80718804D01*
X176684834Y-80709519D01*
X176721315Y-80722338D01*
X176721574Y-80721758D01*
X176900432Y-80801392D01*
X176900437Y-80801394D01*
X177085594Y-80840750D01*
X177085595Y-80840750D01*
X177274884Y-80840750D01*
X177274886Y-80840750D01*
X177460043Y-80801394D01*
X177632970Y-80724401D01*
X177786111Y-80613138D01*
X177912773Y-80472466D01*
X178007419Y-80308534D01*
X178065914Y-80128506D01*
X178085700Y-79940250D01*
X178065914Y-79751994D01*
X178007419Y-79571966D01*
X177912773Y-79408034D01*
X177786111Y-79267362D01*
X177786110Y-79267361D01*
X177632974Y-79156101D01*
X177632969Y-79156098D01*
X177460047Y-79079107D01*
X177460042Y-79079105D01*
X177314240Y-79048115D01*
X177274886Y-79039750D01*
X177085594Y-79039750D01*
X177053137Y-79046648D01*
X176900437Y-79079105D01*
X176900432Y-79079107D01*
X176724595Y-79157396D01*
X176655345Y-79166681D01*
X176618865Y-79153863D01*
X176618607Y-79154443D01*
X176439748Y-79074808D01*
X176439743Y-79074806D01*
X176274812Y-79039750D01*
X176254587Y-79035451D01*
X176065295Y-79035451D01*
X176045070Y-79039750D01*
X175880138Y-79074806D01*
X175880133Y-79074808D01*
X175701275Y-79154443D01*
X175700222Y-79152079D01*
X175643518Y-79165813D01*
X175599030Y-79155235D01*
X175428047Y-79079107D01*
X175428042Y-79079105D01*
X175282240Y-79048115D01*
X175242886Y-79039750D01*
X175053594Y-79039750D01*
X175021137Y-79046648D01*
X174868437Y-79079105D01*
X174868432Y-79079107D01*
X174695510Y-79156098D01*
X174695505Y-79156101D01*
X174542369Y-79267361D01*
X174415706Y-79408035D01*
X174321061Y-79571965D01*
X174321058Y-79571972D01*
X174269622Y-79730277D01*
X174262566Y-79751994D01*
X174242780Y-79940250D01*
X172973754Y-79940250D01*
X172959773Y-79916034D01*
X172941931Y-79896218D01*
X172911703Y-79833230D01*
X172920328Y-79763895D01*
X172941933Y-79730278D01*
X172959773Y-79710466D01*
X173054419Y-79546534D01*
X173112914Y-79366506D01*
X173132700Y-79178250D01*
X173112914Y-78989994D01*
X173054419Y-78809966D01*
X172959773Y-78646034D01*
X172941931Y-78626218D01*
X172911703Y-78563230D01*
X172920328Y-78493895D01*
X172941933Y-78460278D01*
X172959773Y-78440466D01*
X173054419Y-78276534D01*
X173112914Y-78096506D01*
X173132700Y-77908250D01*
X173112914Y-77719994D01*
X173054419Y-77539966D01*
X172959773Y-77376034D01*
X172833111Y-77235362D01*
X172833110Y-77235361D01*
X172679974Y-77124101D01*
X172679969Y-77124098D01*
X172507047Y-77047107D01*
X172507042Y-77047105D01*
X172361241Y-77016115D01*
X172321886Y-77007750D01*
X172132594Y-77007750D01*
X172100137Y-77014648D01*
X171947437Y-77047105D01*
X171947432Y-77047107D01*
X171774510Y-77124098D01*
X171774505Y-77124101D01*
X171621369Y-77235361D01*
X171494706Y-77376035D01*
X171400061Y-77539965D01*
X171400058Y-77539972D01*
X171367059Y-77641534D01*
X171341566Y-77719994D01*
X171321780Y-77908250D01*
X171341566Y-78096506D01*
X171341567Y-78096509D01*
X171400058Y-78276527D01*
X171400061Y-78276534D01*
X171494707Y-78440466D01*
X171511434Y-78459043D01*
X171512545Y-78460277D01*
X171542775Y-78523268D01*
X171534150Y-78592604D01*
X171512548Y-78626218D01*
X171494708Y-78646032D01*
X171494704Y-78646037D01*
X171400061Y-78809965D01*
X171400058Y-78809972D01*
X171341567Y-78989990D01*
X171341566Y-78989994D01*
X171321780Y-79178250D01*
X171341566Y-79366506D01*
X171341567Y-79366509D01*
X171400058Y-79546527D01*
X171400061Y-79546534D01*
X171494707Y-79710466D01*
X171511434Y-79729043D01*
X171512545Y-79730277D01*
X171542775Y-79793268D01*
X171534150Y-79862604D01*
X171512548Y-79896218D01*
X171494708Y-79916032D01*
X171494704Y-79916037D01*
X171400061Y-80079965D01*
X171400058Y-80079972D01*
X171341567Y-80259990D01*
X171341566Y-80259994D01*
X171321780Y-80448250D01*
X171341566Y-80636506D01*
X171341567Y-80636509D01*
X171400058Y-80816527D01*
X171400061Y-80816534D01*
X171494707Y-80980466D01*
X171511434Y-80999043D01*
X171512545Y-81000277D01*
X171542775Y-81063268D01*
X171534150Y-81132604D01*
X171512548Y-81166218D01*
X171494708Y-81186032D01*
X171494704Y-81186037D01*
X171400061Y-81349965D01*
X171400058Y-81349972D01*
X171341567Y-81529990D01*
X171341566Y-81529994D01*
X171321780Y-81718250D01*
X171341566Y-81906506D01*
X171341567Y-81906509D01*
X171400058Y-82086527D01*
X171400061Y-82086534D01*
X171494707Y-82250466D01*
X171511434Y-82269043D01*
X171512545Y-82270277D01*
X171542775Y-82333268D01*
X171534150Y-82402604D01*
X171512548Y-82436218D01*
X171494708Y-82456032D01*
X171494704Y-82456037D01*
X171400061Y-82619965D01*
X171400058Y-82619972D01*
X171341567Y-82799990D01*
X171341566Y-82799994D01*
X171321780Y-82988250D01*
X171341566Y-83176506D01*
X171341567Y-83176509D01*
X171400058Y-83356527D01*
X171400061Y-83356534D01*
X171494707Y-83520466D01*
X171511434Y-83539043D01*
X171512545Y-83540277D01*
X171542775Y-83603268D01*
X171534150Y-83672604D01*
X171512548Y-83706218D01*
X171494708Y-83726032D01*
X171494704Y-83726037D01*
X171400061Y-83889965D01*
X171400058Y-83889972D01*
X171347092Y-84052986D01*
X171341566Y-84069994D01*
X171321780Y-84258250D01*
X171341566Y-84446506D01*
X171341567Y-84446509D01*
X171400058Y-84626527D01*
X171400061Y-84626534D01*
X171494707Y-84790466D01*
X171511434Y-84809043D01*
X171512545Y-84810277D01*
X171542775Y-84873268D01*
X171534150Y-84942604D01*
X171512548Y-84976218D01*
X171494708Y-84996032D01*
X171494704Y-84996037D01*
X171400061Y-85159965D01*
X171400058Y-85159972D01*
X171341567Y-85339990D01*
X171341566Y-85339994D01*
X171321780Y-85528250D01*
X166782700Y-85528250D01*
X166762914Y-85339994D01*
X166704419Y-85159966D01*
X166609773Y-84996034D01*
X166591931Y-84976218D01*
X166561703Y-84913230D01*
X166570328Y-84843895D01*
X166591933Y-84810278D01*
X166609773Y-84790466D01*
X166704419Y-84626534D01*
X166762914Y-84446506D01*
X166782700Y-84258250D01*
X168146780Y-84258250D01*
X168166566Y-84446506D01*
X168166567Y-84446509D01*
X168225058Y-84626527D01*
X168225061Y-84626534D01*
X168319707Y-84790466D01*
X168430245Y-84913230D01*
X168446369Y-84931138D01*
X168599505Y-85042398D01*
X168599510Y-85042401D01*
X168772432Y-85119392D01*
X168772437Y-85119394D01*
X168957594Y-85158750D01*
X168957595Y-85158750D01*
X169146884Y-85158750D01*
X169146886Y-85158750D01*
X169332043Y-85119394D01*
X169504970Y-85042401D01*
X169658111Y-84931138D01*
X169784773Y-84790466D01*
X169879419Y-84626534D01*
X169937914Y-84446506D01*
X169957700Y-84258250D01*
X169937914Y-84069994D01*
X169879419Y-83889966D01*
X169784773Y-83726034D01*
X169766931Y-83706218D01*
X169736703Y-83643230D01*
X169745328Y-83573895D01*
X169766933Y-83540278D01*
X169784773Y-83520466D01*
X169879419Y-83356534D01*
X169937914Y-83176506D01*
X169957700Y-82988250D01*
X169937914Y-82799994D01*
X169879419Y-82619966D01*
X169784773Y-82456034D01*
X169766931Y-82436218D01*
X169736703Y-82373230D01*
X169745328Y-82303895D01*
X169766933Y-82270278D01*
X169784773Y-82250466D01*
X169879419Y-82086534D01*
X169937914Y-81906506D01*
X169957700Y-81718250D01*
X169937914Y-81529994D01*
X169879419Y-81349966D01*
X169784773Y-81186034D01*
X169766931Y-81166218D01*
X169736703Y-81103230D01*
X169745328Y-81033895D01*
X169766933Y-81000278D01*
X169784773Y-80980466D01*
X169879419Y-80816534D01*
X169937914Y-80636506D01*
X169957700Y-80448250D01*
X169937914Y-80259994D01*
X169879419Y-80079966D01*
X169784773Y-79916034D01*
X169766931Y-79896218D01*
X169736703Y-79833230D01*
X169745328Y-79763895D01*
X169766933Y-79730278D01*
X169784773Y-79710466D01*
X169879419Y-79546534D01*
X169937914Y-79366506D01*
X169957700Y-79178250D01*
X169937914Y-78989994D01*
X169879419Y-78809966D01*
X169784773Y-78646034D01*
X169658111Y-78505362D01*
X169596057Y-78460277D01*
X169504974Y-78394101D01*
X169504969Y-78394098D01*
X169332047Y-78317107D01*
X169332042Y-78317105D01*
X169186241Y-78286115D01*
X169146886Y-78277750D01*
X168957594Y-78277750D01*
X168925137Y-78284648D01*
X168772437Y-78317105D01*
X168772432Y-78317107D01*
X168599510Y-78394098D01*
X168599505Y-78394101D01*
X168446369Y-78505361D01*
X168319706Y-78646035D01*
X168225061Y-78809965D01*
X168225058Y-78809972D01*
X168166567Y-78989990D01*
X168166566Y-78989994D01*
X168146780Y-79178250D01*
X168166566Y-79366506D01*
X168166567Y-79366509D01*
X168225058Y-79546527D01*
X168225061Y-79546534D01*
X168319707Y-79710466D01*
X168336434Y-79729043D01*
X168337545Y-79730277D01*
X168367775Y-79793268D01*
X168359150Y-79862604D01*
X168337548Y-79896218D01*
X168319708Y-79916032D01*
X168319704Y-79916037D01*
X168225061Y-80079965D01*
X168225058Y-80079972D01*
X168166567Y-80259990D01*
X168166566Y-80259994D01*
X168146780Y-80448250D01*
X168166566Y-80636506D01*
X168166567Y-80636509D01*
X168225058Y-80816527D01*
X168225061Y-80816534D01*
X168319707Y-80980466D01*
X168336434Y-80999043D01*
X168337545Y-81000277D01*
X168367775Y-81063268D01*
X168359150Y-81132604D01*
X168337548Y-81166218D01*
X168319708Y-81186032D01*
X168319704Y-81186037D01*
X168225061Y-81349965D01*
X168225058Y-81349972D01*
X168166567Y-81529990D01*
X168166566Y-81529994D01*
X168146780Y-81718250D01*
X168166566Y-81906506D01*
X168166567Y-81906509D01*
X168225058Y-82086527D01*
X168225061Y-82086534D01*
X168319707Y-82250466D01*
X168336434Y-82269043D01*
X168337545Y-82270277D01*
X168367775Y-82333268D01*
X168359150Y-82402604D01*
X168337548Y-82436218D01*
X168319708Y-82456032D01*
X168319704Y-82456037D01*
X168225061Y-82619965D01*
X168225058Y-82619972D01*
X168166567Y-82799990D01*
X168166566Y-82799994D01*
X168146780Y-82988250D01*
X168166566Y-83176506D01*
X168166567Y-83176509D01*
X168225058Y-83356527D01*
X168225061Y-83356534D01*
X168319707Y-83520466D01*
X168336434Y-83539043D01*
X168337545Y-83540277D01*
X168367775Y-83603268D01*
X168359150Y-83672604D01*
X168337548Y-83706218D01*
X168319708Y-83726032D01*
X168319704Y-83726037D01*
X168225061Y-83889965D01*
X168225058Y-83889972D01*
X168172092Y-84052986D01*
X168166566Y-84069994D01*
X168146780Y-84258250D01*
X166782700Y-84258250D01*
X166762914Y-84069994D01*
X166704419Y-83889966D01*
X166609773Y-83726034D01*
X166591931Y-83706218D01*
X166561703Y-83643230D01*
X166570328Y-83573895D01*
X166591933Y-83540278D01*
X166609773Y-83520466D01*
X166704419Y-83356534D01*
X166762914Y-83176506D01*
X166782700Y-82988250D01*
X166762914Y-82799994D01*
X166704419Y-82619966D01*
X166609773Y-82456034D01*
X166591931Y-82436218D01*
X166561703Y-82373230D01*
X166570328Y-82303895D01*
X166591933Y-82270278D01*
X166609773Y-82250466D01*
X166704419Y-82086534D01*
X166762914Y-81906506D01*
X166782700Y-81718250D01*
X166762914Y-81529994D01*
X166704419Y-81349966D01*
X166609773Y-81186034D01*
X166591931Y-81166218D01*
X166561703Y-81103230D01*
X166570328Y-81033895D01*
X166591933Y-81000278D01*
X166609773Y-80980466D01*
X166704419Y-80816534D01*
X166762914Y-80636506D01*
X166782700Y-80448250D01*
X166762914Y-80259994D01*
X166704419Y-80079966D01*
X166609773Y-79916034D01*
X166591931Y-79896218D01*
X166561703Y-79833230D01*
X166570328Y-79763895D01*
X166591933Y-79730278D01*
X166609773Y-79710466D01*
X166704419Y-79546534D01*
X166762914Y-79366506D01*
X166782700Y-79178250D01*
X166762914Y-78989994D01*
X166704419Y-78809966D01*
X166609773Y-78646034D01*
X166591931Y-78626218D01*
X166561703Y-78563230D01*
X166570328Y-78493895D01*
X166591933Y-78460278D01*
X166609773Y-78440466D01*
X166704419Y-78276534D01*
X166762914Y-78096506D01*
X166782700Y-77908250D01*
X166762914Y-77719994D01*
X166704419Y-77539966D01*
X166609773Y-77376034D01*
X166483111Y-77235362D01*
X166483110Y-77235361D01*
X166329974Y-77124101D01*
X166329969Y-77124098D01*
X166157047Y-77047107D01*
X166157042Y-77047105D01*
X166011240Y-77016115D01*
X165971886Y-77007750D01*
X165782594Y-77007750D01*
X165750137Y-77014648D01*
X165597437Y-77047105D01*
X165597432Y-77047107D01*
X165424510Y-77124098D01*
X165424505Y-77124101D01*
X165271369Y-77235361D01*
X165144706Y-77376035D01*
X165050061Y-77539965D01*
X165050058Y-77539972D01*
X165017059Y-77641534D01*
X164991566Y-77719994D01*
X164971780Y-77908250D01*
X164991566Y-78096506D01*
X164991567Y-78096509D01*
X165050058Y-78276527D01*
X165050061Y-78276534D01*
X165144707Y-78440466D01*
X165161434Y-78459043D01*
X165162545Y-78460277D01*
X165192775Y-78523268D01*
X165184150Y-78592604D01*
X165162548Y-78626218D01*
X165144708Y-78646032D01*
X165144704Y-78646037D01*
X165050061Y-78809965D01*
X165050058Y-78809972D01*
X164991567Y-78989990D01*
X164991566Y-78989994D01*
X164971780Y-79178250D01*
X164991566Y-79366506D01*
X164991567Y-79366509D01*
X165050058Y-79546527D01*
X165050061Y-79546534D01*
X165144707Y-79710466D01*
X165161434Y-79729043D01*
X165162545Y-79730277D01*
X165192775Y-79793268D01*
X165184150Y-79862604D01*
X165162548Y-79896218D01*
X165144708Y-79916032D01*
X165144704Y-79916037D01*
X165050061Y-80079965D01*
X165050058Y-80079972D01*
X164991567Y-80259990D01*
X164991566Y-80259994D01*
X164971780Y-80448250D01*
X164991566Y-80636506D01*
X164991567Y-80636509D01*
X165050058Y-80816527D01*
X165050061Y-80816534D01*
X165144707Y-80980466D01*
X165161434Y-80999043D01*
X165162545Y-81000277D01*
X165192775Y-81063268D01*
X165184150Y-81132604D01*
X165162548Y-81166218D01*
X165144708Y-81186032D01*
X165144704Y-81186037D01*
X165050061Y-81349965D01*
X165050058Y-81349972D01*
X164991567Y-81529990D01*
X164991566Y-81529994D01*
X164971780Y-81718250D01*
X164991566Y-81906506D01*
X164991567Y-81906509D01*
X165050058Y-82086527D01*
X165050061Y-82086534D01*
X165144707Y-82250466D01*
X165161434Y-82269043D01*
X165162545Y-82270277D01*
X165192775Y-82333268D01*
X165184150Y-82402604D01*
X165162548Y-82436218D01*
X165144708Y-82456032D01*
X165144704Y-82456037D01*
X165050061Y-82619965D01*
X165050058Y-82619972D01*
X164991567Y-82799990D01*
X164991566Y-82799994D01*
X164971780Y-82988250D01*
X164991566Y-83176506D01*
X164991567Y-83176509D01*
X165050058Y-83356527D01*
X165050061Y-83356534D01*
X165144707Y-83520466D01*
X165161434Y-83539043D01*
X165162545Y-83540277D01*
X165192775Y-83603268D01*
X165184150Y-83672604D01*
X165162548Y-83706218D01*
X165144708Y-83726032D01*
X165144704Y-83726037D01*
X165050061Y-83889965D01*
X165050058Y-83889972D01*
X164997092Y-84052986D01*
X164991566Y-84069994D01*
X164971780Y-84258250D01*
X164991566Y-84446506D01*
X164991567Y-84446509D01*
X165050058Y-84626527D01*
X165050061Y-84626534D01*
X165144707Y-84790466D01*
X165161434Y-84809043D01*
X165162545Y-84810277D01*
X165192775Y-84873268D01*
X165184150Y-84942604D01*
X165162548Y-84976218D01*
X165144708Y-84996032D01*
X165144704Y-84996037D01*
X165050061Y-85159965D01*
X165050058Y-85159972D01*
X164991567Y-85339990D01*
X164991566Y-85339994D01*
X164971780Y-85528250D01*
X160162240Y-85528250D01*
X160162240Y-75115342D01*
X173478596Y-75115342D01*
X173498382Y-75303598D01*
X173498383Y-75303601D01*
X173556874Y-75483619D01*
X173556877Y-75483626D01*
X173651523Y-75647558D01*
X173777202Y-75787138D01*
X173778185Y-75788230D01*
X173931321Y-75899490D01*
X173931326Y-75899493D01*
X174104248Y-75976484D01*
X174104253Y-75976486D01*
X174289410Y-76015842D01*
X174289411Y-76015842D01*
X174478700Y-76015842D01*
X174478702Y-76015842D01*
X174663859Y-75976486D01*
X174836786Y-75899493D01*
X174989927Y-75788230D01*
X175116589Y-75647558D01*
X175211235Y-75483626D01*
X175269730Y-75303598D01*
X175289516Y-75115342D01*
X175289401Y-75114250D01*
X177036780Y-75114250D01*
X177056566Y-75302506D01*
X177056567Y-75302509D01*
X177115058Y-75482527D01*
X177115061Y-75482534D01*
X177209707Y-75646466D01*
X177336368Y-75787137D01*
X177336369Y-75787138D01*
X177489505Y-75898398D01*
X177489510Y-75898401D01*
X177662432Y-75975392D01*
X177662437Y-75975394D01*
X177847594Y-76014750D01*
X177847595Y-76014750D01*
X178036884Y-76014750D01*
X178036886Y-76014750D01*
X178222043Y-75975394D01*
X178394970Y-75898401D01*
X178548111Y-75787138D01*
X178674773Y-75646466D01*
X178769419Y-75482534D01*
X178827914Y-75302506D01*
X178847700Y-75114250D01*
X178827914Y-74925994D01*
X178769774Y-74747058D01*
X178769421Y-74745972D01*
X178769420Y-74745971D01*
X178769419Y-74745966D01*
X178674773Y-74582034D01*
X178548111Y-74441362D01*
X178548110Y-74441361D01*
X178394974Y-74330101D01*
X178394969Y-74330098D01*
X178222047Y-74253107D01*
X178222042Y-74253105D01*
X178042023Y-74214842D01*
X178036886Y-74213750D01*
X177847594Y-74213750D01*
X177842457Y-74214842D01*
X177662437Y-74253105D01*
X177662432Y-74253107D01*
X177489510Y-74330098D01*
X177489505Y-74330101D01*
X177336369Y-74441361D01*
X177209706Y-74582035D01*
X177115061Y-74745965D01*
X177115058Y-74745972D01*
X177056567Y-74925990D01*
X177056566Y-74925994D01*
X177036780Y-75114250D01*
X175289401Y-75114250D01*
X175269730Y-74927086D01*
X175211235Y-74747058D01*
X175116589Y-74583126D01*
X174989927Y-74442454D01*
X174988423Y-74441361D01*
X174836790Y-74331193D01*
X174836785Y-74331190D01*
X174663863Y-74254199D01*
X174663858Y-74254197D01*
X174518056Y-74223207D01*
X174478702Y-74214842D01*
X174289410Y-74214842D01*
X174256953Y-74221740D01*
X174104253Y-74254197D01*
X174104248Y-74254199D01*
X173931326Y-74331190D01*
X173931321Y-74331193D01*
X173778185Y-74442453D01*
X173651522Y-74583127D01*
X173556877Y-74747057D01*
X173556874Y-74747064D01*
X173498738Y-74925990D01*
X173498382Y-74927086D01*
X173478596Y-75115342D01*
X160162240Y-75115342D01*
X160162240Y-64062250D01*
X160181925Y-63995211D01*
X160234729Y-63949456D01*
X160286240Y-63938250D01*
X161685130Y-63938250D01*
X161752169Y-63957935D01*
X161797924Y-64010739D01*
X161808449Y-64049285D01*
X161816566Y-64126506D01*
X161816567Y-64126509D01*
X161875058Y-64306527D01*
X161875061Y-64306534D01*
X161969707Y-64470466D01*
X161980046Y-64481949D01*
X161987547Y-64490280D01*
X162017775Y-64553272D01*
X162009149Y-64622607D01*
X161987547Y-64656220D01*
X161969706Y-64676035D01*
X161875061Y-64839965D01*
X161875058Y-64839972D01*
X161821712Y-65004156D01*
X161816566Y-65019994D01*
X161796780Y-65208250D01*
X161816566Y-65396506D01*
X161816567Y-65396509D01*
X161875058Y-65576527D01*
X161875061Y-65576534D01*
X161969707Y-65740466D01*
X161987543Y-65760275D01*
X161987545Y-65760277D01*
X162017775Y-65823268D01*
X162009150Y-65892604D01*
X161987548Y-65926218D01*
X161969706Y-65946034D01*
X161875061Y-66109965D01*
X161875058Y-66109972D01*
X161816567Y-66289990D01*
X161816566Y-66289994D01*
X161796780Y-66478250D01*
X161816566Y-66666506D01*
X161816567Y-66666509D01*
X161875058Y-66846527D01*
X161875061Y-66846534D01*
X161969707Y-67010466D01*
X161980046Y-67021949D01*
X161987547Y-67030280D01*
X162017775Y-67093272D01*
X162009149Y-67162607D01*
X161987547Y-67196220D01*
X161969706Y-67216035D01*
X161875061Y-67379965D01*
X161875058Y-67379972D01*
X161816567Y-67559990D01*
X161816566Y-67559994D01*
X161796780Y-67748250D01*
X161816566Y-67936506D01*
X161816567Y-67936509D01*
X161875058Y-68116527D01*
X161875061Y-68116534D01*
X161969707Y-68280466D01*
X161980046Y-68291949D01*
X161987547Y-68300280D01*
X162017775Y-68363272D01*
X162009149Y-68432607D01*
X161987547Y-68466220D01*
X161969706Y-68486035D01*
X161875061Y-68649965D01*
X161875058Y-68649972D01*
X161816567Y-68829990D01*
X161816566Y-68829994D01*
X161796780Y-69018250D01*
X161816566Y-69206506D01*
X161816567Y-69206509D01*
X161875058Y-69386527D01*
X161875061Y-69386534D01*
X161969707Y-69550466D01*
X161980046Y-69561949D01*
X161987547Y-69570280D01*
X162017775Y-69633272D01*
X162009149Y-69702607D01*
X161987547Y-69736220D01*
X161969706Y-69756035D01*
X161875061Y-69919965D01*
X161875058Y-69919972D01*
X161816567Y-70099990D01*
X161816566Y-70099994D01*
X161796780Y-70288250D01*
X161816566Y-70476506D01*
X161816567Y-70476509D01*
X161875058Y-70656527D01*
X161875061Y-70656534D01*
X161969707Y-70820466D01*
X161980046Y-70831949D01*
X161987547Y-70840280D01*
X162017775Y-70903272D01*
X162009149Y-70972607D01*
X161987547Y-71006220D01*
X161969706Y-71026035D01*
X161875061Y-71189965D01*
X161875058Y-71189972D01*
X161816567Y-71369990D01*
X161816566Y-71369994D01*
X161796780Y-71558250D01*
X161816566Y-71746506D01*
X161816567Y-71746509D01*
X161875058Y-71926527D01*
X161875061Y-71926534D01*
X161969707Y-72090466D01*
X161980046Y-72101949D01*
X161987547Y-72110280D01*
X162017775Y-72173272D01*
X162009149Y-72242607D01*
X161987547Y-72276220D01*
X161969706Y-72296035D01*
X161875061Y-72459965D01*
X161875058Y-72459972D01*
X161823316Y-72619220D01*
X161816566Y-72639994D01*
X161796780Y-72828250D01*
X161816566Y-73016506D01*
X161816567Y-73016509D01*
X161875058Y-73196527D01*
X161875061Y-73196534D01*
X161969707Y-73360466D01*
X162064676Y-73465939D01*
X162096369Y-73501138D01*
X162249505Y-73612398D01*
X162249510Y-73612401D01*
X162422432Y-73689392D01*
X162422437Y-73689394D01*
X162607594Y-73728750D01*
X162607595Y-73728750D01*
X162796884Y-73728750D01*
X162796886Y-73728750D01*
X162982043Y-73689394D01*
X163154970Y-73612401D01*
X163308111Y-73501138D01*
X163434773Y-73360466D01*
X163529419Y-73196534D01*
X163587914Y-73016506D01*
X163607700Y-72828250D01*
X163587914Y-72639994D01*
X163529419Y-72459966D01*
X163434773Y-72296034D01*
X163416933Y-72276221D01*
X163386704Y-72213231D01*
X163395329Y-72143896D01*
X163416934Y-72110278D01*
X163424019Y-72102409D01*
X163434773Y-72090466D01*
X163529419Y-71926534D01*
X163587914Y-71746506D01*
X163607700Y-71558250D01*
X163587914Y-71369994D01*
X163529419Y-71189966D01*
X163434773Y-71026034D01*
X163416933Y-71006220D01*
X163386704Y-70943228D01*
X163395330Y-70873892D01*
X163416934Y-70840277D01*
X163434773Y-70820466D01*
X163529419Y-70656534D01*
X163587914Y-70476506D01*
X163607700Y-70288250D01*
X163587914Y-70099994D01*
X163529419Y-69919966D01*
X163434773Y-69756034D01*
X163416933Y-69736220D01*
X163386704Y-69673228D01*
X163395330Y-69603892D01*
X163416934Y-69570277D01*
X163434773Y-69550466D01*
X163529419Y-69386534D01*
X163587914Y-69206506D01*
X163607700Y-69018250D01*
X163587914Y-68829994D01*
X163529419Y-68649966D01*
X163434773Y-68486034D01*
X163416933Y-68466220D01*
X163386704Y-68403228D01*
X163395330Y-68333892D01*
X163416934Y-68300277D01*
X163434773Y-68280466D01*
X163529419Y-68116534D01*
X163587914Y-67936506D01*
X163607700Y-67748250D01*
X163587914Y-67559994D01*
X163529419Y-67379966D01*
X163434773Y-67216034D01*
X163416933Y-67196220D01*
X163386704Y-67133228D01*
X163395330Y-67063892D01*
X163416934Y-67030277D01*
X163434773Y-67010466D01*
X163529419Y-66846534D01*
X163587914Y-66666506D01*
X163607700Y-66478250D01*
X163587914Y-66289994D01*
X163529419Y-66109966D01*
X163434773Y-65946034D01*
X163416933Y-65926220D01*
X163386704Y-65863228D01*
X163395330Y-65793892D01*
X163416934Y-65760277D01*
X163434773Y-65740466D01*
X163529419Y-65576534D01*
X163587914Y-65396506D01*
X163607700Y-65208250D01*
X163587914Y-65019994D01*
X163529419Y-64839966D01*
X163434773Y-64676034D01*
X163416933Y-64656220D01*
X163386704Y-64593228D01*
X163395330Y-64523892D01*
X163416934Y-64490277D01*
X163434773Y-64470466D01*
X163529419Y-64306534D01*
X163587914Y-64126506D01*
X163607700Y-63938250D01*
X163587914Y-63749994D01*
X163529419Y-63569966D01*
X163434773Y-63406034D01*
X163434769Y-63406028D01*
X163369090Y-63333084D01*
X163338860Y-63270092D01*
X163337240Y-63250112D01*
X163337240Y-51362250D01*
X163356925Y-51295211D01*
X163409729Y-51249456D01*
X163461240Y-51238250D01*
X173208424Y-51238250D01*
X173275463Y-51257935D01*
G37*
%TD.AperFunction*%
%TD*%
%TA.AperFunction,Conductor*%
%TO.N,B*%
G36*
X150556947Y-40094548D02*
G01*
X151661981Y-40153779D01*
X152764197Y-40252414D01*
X153862191Y-40390326D01*
X154954562Y-40567341D01*
X156039920Y-40783232D01*
X157116880Y-41037724D01*
X157677848Y-41191618D01*
X157737289Y-41228337D01*
X157767443Y-41291364D01*
X157759322Y-41359320D01*
X157743540Y-41396799D01*
X157613986Y-41808627D01*
X157523559Y-42230807D01*
X157473064Y-42659589D01*
X157473064Y-42659591D01*
X157462944Y-43091216D01*
X157462944Y-43091227D01*
X157493284Y-43521889D01*
X157563824Y-43947846D01*
X157673933Y-44365300D01*
X157673935Y-44365307D01*
X157748937Y-44569713D01*
X157822659Y-44770631D01*
X157956137Y-45050191D01*
X158008682Y-45160244D01*
X158008685Y-45160250D01*
X158230371Y-45530728D01*
X158230375Y-45530734D01*
X158485782Y-45878826D01*
X158632214Y-46043515D01*
X158772665Y-46201476D01*
X159088501Y-46495844D01*
X159088510Y-46495852D01*
X159430504Y-46759336D01*
X159430511Y-46759341D01*
X159430514Y-46759343D01*
X159795699Y-46989658D01*
X160180846Y-47184764D01*
X160570420Y-47338162D01*
X160582576Y-47342949D01*
X160717113Y-47381830D01*
X160997343Y-47462817D01*
X160997347Y-47462817D01*
X160997347Y-47462818D01*
X161421512Y-47543320D01*
X161421513Y-47543320D01*
X161421518Y-47543321D01*
X161851367Y-47583750D01*
X161851369Y-47583750D01*
X162175120Y-47583750D01*
X162202356Y-47582471D01*
X162498512Y-47568575D01*
X162780669Y-47528620D01*
X162925981Y-47508044D01*
X162925984Y-47508043D01*
X162925993Y-47508042D01*
X163345928Y-47407745D01*
X163754626Y-47268566D01*
X164148495Y-47091727D01*
X164524074Y-46878782D01*
X164878062Y-46631603D01*
X165207348Y-46352363D01*
X165509039Y-46043515D01*
X165780484Y-45707773D01*
X166019296Y-45348087D01*
X166144150Y-45115321D01*
X166193182Y-45065552D01*
X166261343Y-45050191D01*
X166322311Y-45070836D01*
X167130219Y-45610663D01*
X168027810Y-46257918D01*
X168901727Y-46936798D01*
X169750857Y-47646437D01*
X170574117Y-48385932D01*
X171370459Y-49154339D01*
X172138866Y-49950681D01*
X172539223Y-50396388D01*
X172569377Y-50459415D01*
X172560670Y-50528740D01*
X172515865Y-50582352D01*
X172449187Y-50603230D01*
X172446974Y-50603250D01*
X162702240Y-50603250D01*
X162702240Y-62917219D01*
X162682555Y-62984258D01*
X162629751Y-63030013D01*
X162604021Y-63038509D01*
X162422437Y-63077105D01*
X162422432Y-63077107D01*
X162249510Y-63154098D01*
X162249505Y-63154101D01*
X162096375Y-63265356D01*
X162091545Y-63269706D01*
X162089942Y-63267926D01*
X162039697Y-63298874D01*
X162007046Y-63303250D01*
X159527240Y-63303250D01*
X159527240Y-76379558D01*
X159507555Y-76446597D01*
X159454751Y-76492352D01*
X159385593Y-76502296D01*
X159351463Y-76490489D01*
X159350906Y-76491742D01*
X159172047Y-76412107D01*
X159172042Y-76412105D01*
X159018915Y-76379558D01*
X158986886Y-76372750D01*
X158797594Y-76372750D01*
X158765565Y-76379558D01*
X158612437Y-76412105D01*
X158612432Y-76412107D01*
X158439510Y-76489098D01*
X158439505Y-76489101D01*
X158286369Y-76600361D01*
X158159706Y-76741035D01*
X158065061Y-76904965D01*
X158065058Y-76904972D01*
X158006567Y-77084990D01*
X158006566Y-77084994D01*
X157986780Y-77273250D01*
X158006566Y-77461506D01*
X158006567Y-77461509D01*
X158065058Y-77641527D01*
X158065061Y-77641534D01*
X158159707Y-77805466D01*
X158177545Y-77825277D01*
X158207775Y-77888268D01*
X158199150Y-77957604D01*
X158177548Y-77991218D01*
X158159706Y-78011034D01*
X158065061Y-78174965D01*
X158065058Y-78174972D01*
X158006567Y-78354990D01*
X158006566Y-78354994D01*
X157986780Y-78543250D01*
X158006566Y-78731506D01*
X158006567Y-78731509D01*
X158065058Y-78911527D01*
X158065061Y-78911534D01*
X158159707Y-79075466D01*
X158170046Y-79086949D01*
X158177547Y-79095280D01*
X158207775Y-79158272D01*
X158199149Y-79227607D01*
X158177547Y-79261220D01*
X158159706Y-79281035D01*
X158065061Y-79444965D01*
X158065058Y-79444972D01*
X158016943Y-79593056D01*
X158006566Y-79624994D01*
X157986780Y-79813250D01*
X158006566Y-80001506D01*
X158006567Y-80001509D01*
X158065058Y-80181527D01*
X158065061Y-80181534D01*
X158159707Y-80345466D01*
X158170046Y-80356949D01*
X158177547Y-80365280D01*
X158207775Y-80428272D01*
X158199149Y-80497607D01*
X158177547Y-80531220D01*
X158159706Y-80551035D01*
X158065061Y-80714965D01*
X158065058Y-80714972D01*
X158021885Y-80847846D01*
X158006566Y-80894994D01*
X157986780Y-81083250D01*
X158006566Y-81271506D01*
X158006567Y-81271509D01*
X158065058Y-81451527D01*
X158065061Y-81451534D01*
X158159707Y-81615466D01*
X158170046Y-81626949D01*
X158177547Y-81635280D01*
X158207775Y-81698272D01*
X158199149Y-81767607D01*
X158177547Y-81801220D01*
X158159706Y-81821035D01*
X158065061Y-81984965D01*
X158065058Y-81984972D01*
X158015617Y-82137138D01*
X158006566Y-82164994D01*
X157986780Y-82353250D01*
X158006566Y-82541506D01*
X158006567Y-82541509D01*
X158065058Y-82721527D01*
X158065061Y-82721534D01*
X158159707Y-82885466D01*
X158170046Y-82896949D01*
X158177547Y-82905280D01*
X158207775Y-82968272D01*
X158199149Y-83037607D01*
X158177547Y-83071220D01*
X158159706Y-83091035D01*
X158065061Y-83254965D01*
X158065058Y-83254972D01*
X158021885Y-83387846D01*
X158006566Y-83434994D01*
X157986780Y-83623250D01*
X158006566Y-83811506D01*
X158006567Y-83811509D01*
X158065058Y-83991527D01*
X158065061Y-83991534D01*
X158159707Y-84155466D01*
X158176434Y-84174043D01*
X158177545Y-84175277D01*
X158207775Y-84238268D01*
X158199150Y-84307604D01*
X158177548Y-84341218D01*
X158159708Y-84361032D01*
X158159704Y-84361037D01*
X158065061Y-84524965D01*
X158065058Y-84524972D01*
X158006567Y-84704990D01*
X158006566Y-84704994D01*
X157986780Y-84893250D01*
X158006566Y-85081506D01*
X158006567Y-85081509D01*
X158065058Y-85261527D01*
X158065061Y-85261534D01*
X158159707Y-85425466D01*
X158176434Y-85444043D01*
X158177545Y-85445277D01*
X158207775Y-85508268D01*
X158199150Y-85577604D01*
X158177548Y-85611218D01*
X158159708Y-85631032D01*
X158159704Y-85631037D01*
X158065061Y-85794965D01*
X158065058Y-85794972D01*
X158021885Y-85927846D01*
X158006566Y-85974994D01*
X157986780Y-86163250D01*
X158006566Y-86351506D01*
X158006567Y-86351509D01*
X158065058Y-86531527D01*
X158065061Y-86531534D01*
X158159707Y-86695466D01*
X158252275Y-86798273D01*
X158286369Y-86836138D01*
X158439505Y-86947398D01*
X158439510Y-86947401D01*
X158612432Y-87024392D01*
X158612437Y-87024394D01*
X158797594Y-87063750D01*
X158797595Y-87063750D01*
X158986884Y-87063750D01*
X158986886Y-87063750D01*
X159172043Y-87024394D01*
X159344970Y-86947401D01*
X159344970Y-86947400D01*
X159350906Y-86944758D01*
X159351891Y-86946971D01*
X159409131Y-86933081D01*
X159475160Y-86955928D01*
X159518354Y-87010846D01*
X159527240Y-87056941D01*
X159527240Y-90857219D01*
X159507555Y-90924258D01*
X159454751Y-90970013D01*
X159429021Y-90978509D01*
X159247437Y-91017105D01*
X159247432Y-91017107D01*
X159074510Y-91094098D01*
X159074505Y-91094101D01*
X158965125Y-91173571D01*
X158899319Y-91197051D01*
X158831265Y-91181225D01*
X158819355Y-91173571D01*
X158709974Y-91094101D01*
X158709969Y-91094098D01*
X158537047Y-91017107D01*
X158537042Y-91017105D01*
X158383915Y-90984558D01*
X158351886Y-90977750D01*
X158162594Y-90977750D01*
X158130565Y-90984558D01*
X157977437Y-91017105D01*
X157977432Y-91017107D01*
X157804510Y-91094098D01*
X157804505Y-91094101D01*
X157651369Y-91205361D01*
X157524706Y-91346035D01*
X157430061Y-91509965D01*
X157430058Y-91509972D01*
X157397059Y-91611534D01*
X157371566Y-91689994D01*
X157351780Y-91878250D01*
X157371566Y-92066506D01*
X157371567Y-92066509D01*
X157430058Y-92246527D01*
X157430061Y-92246534D01*
X157524707Y-92410466D01*
X157622240Y-92518787D01*
X157651369Y-92551138D01*
X157804505Y-92662398D01*
X157804510Y-92662401D01*
X157977432Y-92739392D01*
X157977437Y-92739394D01*
X158162594Y-92778750D01*
X158162595Y-92778750D01*
X158351884Y-92778750D01*
X158351886Y-92778750D01*
X158537043Y-92739394D01*
X158709970Y-92662401D01*
X158819358Y-92582926D01*
X158885159Y-92559448D01*
X158953213Y-92575273D01*
X158965124Y-92582928D01*
X159074505Y-92662398D01*
X159074510Y-92662401D01*
X159247432Y-92739392D01*
X159247433Y-92739392D01*
X159247437Y-92739394D01*
X159429021Y-92777990D01*
X159490502Y-92811182D01*
X159524279Y-92872345D01*
X159527240Y-92899280D01*
X159527240Y-116501807D01*
X159507555Y-116568846D01*
X159507049Y-116569627D01*
X159473068Y-116621639D01*
X159373176Y-116849368D01*
X159312132Y-117090425D01*
X159312130Y-117090437D01*
X159291597Y-117338244D01*
X159291597Y-117338255D01*
X159312130Y-117586062D01*
X159312132Y-117586074D01*
X159373176Y-117827131D01*
X159473066Y-118054856D01*
X159507049Y-118106871D01*
X159527237Y-118173760D01*
X159527240Y-118174692D01*
X159527240Y-119186250D01*
X159507555Y-119253289D01*
X159454751Y-119299044D01*
X159403240Y-119310250D01*
X158061149Y-119310250D01*
X157994110Y-119290565D01*
X157948355Y-119237761D01*
X157937319Y-119192739D01*
X157936979Y-119186250D01*
X157933342Y-119116846D01*
X157875945Y-118754456D01*
X157780982Y-118400051D01*
X157649495Y-118057514D01*
X157482922Y-117730598D01*
X157482919Y-117730593D01*
X157283092Y-117422885D01*
X157052192Y-117137748D01*
X157052189Y-117137744D01*
X156792746Y-116878301D01*
X156532409Y-116667484D01*
X156507604Y-116647397D01*
X156199896Y-116447570D01*
X155872979Y-116280996D01*
X155530446Y-116149510D01*
X155529976Y-116149384D01*
X155176034Y-116054545D01*
X155176030Y-116054544D01*
X155176029Y-116054544D01*
X154813645Y-115997148D01*
X154447241Y-115977946D01*
X154447239Y-115977946D01*
X154080834Y-115997148D01*
X153718451Y-116054544D01*
X153718449Y-116054544D01*
X153364033Y-116149510D01*
X153021500Y-116280996D01*
X152694583Y-116447570D01*
X152386875Y-116647397D01*
X152101738Y-116878297D01*
X152101730Y-116878304D01*
X151842294Y-117137740D01*
X151842287Y-117137748D01*
X151611387Y-117422885D01*
X151411560Y-117730593D01*
X151244986Y-118057510D01*
X151113500Y-118400043D01*
X151018534Y-118754459D01*
X151018534Y-118754461D01*
X150961138Y-119116844D01*
X150957161Y-119192739D01*
X150933995Y-119258657D01*
X150878869Y-119301585D01*
X150833331Y-119310250D01*
X147901149Y-119310250D01*
X147834110Y-119290565D01*
X147788355Y-119237761D01*
X147777319Y-119192739D01*
X147776979Y-119186250D01*
X147773342Y-119116846D01*
X147715945Y-118754456D01*
X147620982Y-118400051D01*
X147489495Y-118057514D01*
X147322922Y-117730598D01*
X147322919Y-117730593D01*
X147123092Y-117422885D01*
X146892192Y-117137748D01*
X146892189Y-117137744D01*
X146632746Y-116878301D01*
X146372409Y-116667484D01*
X146347604Y-116647397D01*
X146039896Y-116447570D01*
X145712979Y-116280996D01*
X145370446Y-116149510D01*
X145369976Y-116149384D01*
X145016034Y-116054545D01*
X145016030Y-116054544D01*
X145016029Y-116054544D01*
X144653645Y-115997148D01*
X144287241Y-115977946D01*
X144287239Y-115977946D01*
X143920834Y-115997148D01*
X143558451Y-116054544D01*
X143558449Y-116054544D01*
X143204033Y-116149510D01*
X142861500Y-116280996D01*
X142534583Y-116447570D01*
X142226875Y-116647397D01*
X141941738Y-116878297D01*
X141941730Y-116878304D01*
X141682294Y-117137740D01*
X141682287Y-117137748D01*
X141451387Y-117422885D01*
X141251560Y-117730593D01*
X141084986Y-118057510D01*
X140953500Y-118400043D01*
X140858534Y-118754459D01*
X140858534Y-118754461D01*
X140801138Y-119116844D01*
X140797161Y-119192739D01*
X140773995Y-119258657D01*
X140718869Y-119301585D01*
X140673331Y-119310250D01*
X139331240Y-119310250D01*
X139264201Y-119290565D01*
X139218446Y-119237761D01*
X139207240Y-119186250D01*
X139207240Y-118174692D01*
X139226925Y-118107653D01*
X139227431Y-118106871D01*
X139242925Y-118083155D01*
X139261413Y-118054857D01*
X139361303Y-117827131D01*
X139422348Y-117586071D01*
X139426126Y-117540477D01*
X139442883Y-117338255D01*
X139442883Y-117338244D01*
X139422349Y-117090437D01*
X139422347Y-117090425D01*
X139361303Y-116849368D01*
X139276547Y-116656145D01*
X139261413Y-116621643D01*
X139261412Y-116621641D01*
X139261411Y-116621639D01*
X139227431Y-116569627D01*
X139207243Y-116502738D01*
X139207240Y-116501807D01*
X139207240Y-109916941D01*
X139226925Y-109849902D01*
X139279729Y-109804147D01*
X139348887Y-109794203D01*
X139383014Y-109806015D01*
X139383574Y-109804758D01*
X139562432Y-109884392D01*
X139562437Y-109884394D01*
X139747594Y-109923750D01*
X139747595Y-109923750D01*
X139936884Y-109923750D01*
X139936886Y-109923750D01*
X140122043Y-109884394D01*
X140294970Y-109807401D01*
X140448111Y-109696138D01*
X140574773Y-109555466D01*
X140669419Y-109391534D01*
X140727914Y-109211506D01*
X140747700Y-109023250D01*
X142746780Y-109023250D01*
X142766566Y-109211506D01*
X142766567Y-109211509D01*
X142825058Y-109391527D01*
X142825061Y-109391534D01*
X142919707Y-109555466D01*
X143046368Y-109696138D01*
X143046369Y-109696138D01*
X143199505Y-109807398D01*
X143199510Y-109807401D01*
X143372432Y-109884392D01*
X143372437Y-109884394D01*
X143557594Y-109923750D01*
X143557595Y-109923750D01*
X143746884Y-109923750D01*
X143746886Y-109923750D01*
X143932043Y-109884394D01*
X144104970Y-109807401D01*
X144258111Y-109696138D01*
X144384773Y-109555466D01*
X144479419Y-109391534D01*
X144537914Y-109211506D01*
X144557700Y-109023250D01*
X144537914Y-108834994D01*
X144479419Y-108654966D01*
X144384773Y-108491034D01*
X144258111Y-108350362D01*
X144258110Y-108350361D01*
X144104974Y-108239101D01*
X144104969Y-108239098D01*
X143932047Y-108162107D01*
X143932042Y-108162105D01*
X143778915Y-108129558D01*
X143746886Y-108122750D01*
X143557594Y-108122750D01*
X143525565Y-108129558D01*
X143372437Y-108162105D01*
X143372432Y-108162107D01*
X143199510Y-108239098D01*
X143199505Y-108239101D01*
X143046369Y-108350361D01*
X142919706Y-108491035D01*
X142825061Y-108654965D01*
X142825058Y-108654972D01*
X142783342Y-108783363D01*
X142766566Y-108834994D01*
X142746780Y-109023250D01*
X140747700Y-109023250D01*
X140727914Y-108834994D01*
X140669419Y-108654966D01*
X140574773Y-108491034D01*
X140448111Y-108350362D01*
X140448110Y-108350361D01*
X140294974Y-108239101D01*
X140294969Y-108239098D01*
X140122047Y-108162107D01*
X140122042Y-108162105D01*
X139968915Y-108129558D01*
X139936886Y-108122750D01*
X139747594Y-108122750D01*
X139715565Y-108129558D01*
X139562437Y-108162105D01*
X139562432Y-108162107D01*
X139383574Y-108241742D01*
X139382591Y-108239536D01*
X139325300Y-108253416D01*
X139259281Y-108230542D01*
X139216108Y-108175607D01*
X139207240Y-108129558D01*
X139207240Y-106106941D01*
X139226925Y-106039902D01*
X139279729Y-105994147D01*
X139348887Y-105984203D01*
X139383014Y-105996015D01*
X139383574Y-105994758D01*
X139562432Y-106074392D01*
X139562437Y-106074394D01*
X139747594Y-106113750D01*
X139747595Y-106113750D01*
X139936884Y-106113750D01*
X139936886Y-106113750D01*
X140122043Y-106074394D01*
X140294970Y-105997401D01*
X140448111Y-105886138D01*
X140574773Y-105745466D01*
X140669419Y-105581534D01*
X140727914Y-105401506D01*
X140747700Y-105213250D01*
X142746780Y-105213250D01*
X142766566Y-105401506D01*
X142766567Y-105401509D01*
X142825058Y-105581527D01*
X142825061Y-105581534D01*
X142919707Y-105745466D01*
X143046368Y-105886137D01*
X143046369Y-105886138D01*
X143199505Y-105997398D01*
X143199510Y-105997401D01*
X143372432Y-106074392D01*
X143372437Y-106074394D01*
X143557594Y-106113750D01*
X143557595Y-106113750D01*
X143746884Y-106113750D01*
X143746886Y-106113750D01*
X143932043Y-106074394D01*
X144104970Y-105997401D01*
X144258111Y-105886138D01*
X144384773Y-105745466D01*
X144479419Y-105581534D01*
X144537914Y-105401506D01*
X144557700Y-105213250D01*
X146556780Y-105213250D01*
X146576566Y-105401506D01*
X146576567Y-105401509D01*
X146635058Y-105581527D01*
X146635061Y-105581534D01*
X146729707Y-105745466D01*
X146856369Y-105886137D01*
X146856369Y-105886138D01*
X147009505Y-105997398D01*
X147009510Y-105997401D01*
X147182432Y-106074392D01*
X147182437Y-106074394D01*
X147367594Y-106113750D01*
X147367595Y-106113750D01*
X147556884Y-106113750D01*
X147556886Y-106113750D01*
X147742043Y-106074394D01*
X147914970Y-105997401D01*
X148068111Y-105886138D01*
X148194773Y-105745466D01*
X148289419Y-105581534D01*
X148347914Y-105401506D01*
X148367700Y-105213250D01*
X148347914Y-105024994D01*
X148289419Y-104844966D01*
X148194773Y-104681034D01*
X148176931Y-104661218D01*
X148146703Y-104598230D01*
X148155328Y-104528895D01*
X148176933Y-104495278D01*
X148194773Y-104475466D01*
X148289419Y-104311534D01*
X148347914Y-104131506D01*
X148367700Y-103943250D01*
X148347914Y-103754994D01*
X148289419Y-103574966D01*
X148194773Y-103411034D01*
X148068111Y-103270362D01*
X148068110Y-103270361D01*
X147914974Y-103159101D01*
X147914969Y-103159098D01*
X147742047Y-103082107D01*
X147742042Y-103082105D01*
X147588915Y-103049558D01*
X147556886Y-103042750D01*
X147367594Y-103042750D01*
X147335565Y-103049558D01*
X147182437Y-103082105D01*
X147182432Y-103082107D01*
X147009510Y-103159098D01*
X147009505Y-103159101D01*
X146856369Y-103270361D01*
X146729706Y-103411035D01*
X146635061Y-103574965D01*
X146635058Y-103574972D01*
X146576567Y-103754990D01*
X146576566Y-103754994D01*
X146556780Y-103943250D01*
X146576566Y-104131506D01*
X146576567Y-104131509D01*
X146635058Y-104311527D01*
X146635061Y-104311534D01*
X146729707Y-104475466D01*
X146746434Y-104494043D01*
X146747545Y-104495277D01*
X146777775Y-104558268D01*
X146769150Y-104627604D01*
X146747548Y-104661218D01*
X146729708Y-104681032D01*
X146729704Y-104681037D01*
X146635061Y-104844965D01*
X146635058Y-104844972D01*
X146576567Y-105024990D01*
X146576566Y-105024994D01*
X146556780Y-105213250D01*
X144557700Y-105213250D01*
X144537914Y-105024994D01*
X144479419Y-104844966D01*
X144384773Y-104681034D01*
X144366931Y-104661218D01*
X144336703Y-104598230D01*
X144345328Y-104528895D01*
X144366933Y-104495278D01*
X144384773Y-104475466D01*
X144479419Y-104311534D01*
X144537914Y-104131506D01*
X144557700Y-103943250D01*
X144537914Y-103754994D01*
X144479419Y-103574966D01*
X144384773Y-103411034D01*
X144258111Y-103270362D01*
X144258110Y-103270361D01*
X144104974Y-103159101D01*
X144104969Y-103159098D01*
X143932047Y-103082107D01*
X143932042Y-103082105D01*
X143778915Y-103049558D01*
X143746886Y-103042750D01*
X143557594Y-103042750D01*
X143525565Y-103049558D01*
X143372437Y-103082105D01*
X143372432Y-103082107D01*
X143199510Y-103159098D01*
X143199505Y-103159101D01*
X143046369Y-103270361D01*
X142919706Y-103411035D01*
X142825061Y-103574965D01*
X142825058Y-103574972D01*
X142766567Y-103754990D01*
X142766566Y-103754994D01*
X142746780Y-103943250D01*
X142766566Y-104131506D01*
X142766567Y-104131509D01*
X142825058Y-104311527D01*
X142825061Y-104311534D01*
X142919707Y-104475466D01*
X142936434Y-104494043D01*
X142937545Y-104495277D01*
X142967775Y-104558268D01*
X142959150Y-104627604D01*
X142937548Y-104661218D01*
X142919708Y-104681032D01*
X142919704Y-104681037D01*
X142825061Y-104844965D01*
X142825058Y-104844972D01*
X142766567Y-105024990D01*
X142766566Y-105024994D01*
X142746780Y-105213250D01*
X140747700Y-105213250D01*
X140727914Y-105024994D01*
X140669419Y-104844966D01*
X140574773Y-104681034D01*
X140556931Y-104661218D01*
X140526703Y-104598230D01*
X140535328Y-104528895D01*
X140556933Y-104495278D01*
X140574773Y-104475466D01*
X140669419Y-104311534D01*
X140727914Y-104131506D01*
X140747700Y-103943250D01*
X140727914Y-103754994D01*
X140669419Y-103574966D01*
X140574773Y-103411034D01*
X140448111Y-103270362D01*
X140448110Y-103270361D01*
X140294974Y-103159101D01*
X140294969Y-103159098D01*
X140122047Y-103082107D01*
X140122042Y-103082105D01*
X139968915Y-103049558D01*
X139936886Y-103042750D01*
X139747594Y-103042750D01*
X139715565Y-103049558D01*
X139562437Y-103082105D01*
X139562432Y-103082107D01*
X139383574Y-103161742D01*
X139382591Y-103159536D01*
X139325300Y-103173416D01*
X139259281Y-103150542D01*
X139216108Y-103095607D01*
X139207240Y-103049558D01*
X139207240Y-100099441D01*
X139226925Y-100032402D01*
X139279729Y-99986647D01*
X139348887Y-99976703D01*
X139383014Y-99988515D01*
X139383574Y-99987258D01*
X139562432Y-100066892D01*
X139562437Y-100066894D01*
X139747594Y-100106250D01*
X139747595Y-100106250D01*
X139936884Y-100106250D01*
X139936886Y-100106250D01*
X140122043Y-100066894D01*
X140294970Y-99989901D01*
X140448111Y-99878638D01*
X140574773Y-99737966D01*
X140669419Y-99574034D01*
X140727914Y-99394006D01*
X140747700Y-99205750D01*
X140746407Y-99193450D01*
X142797580Y-99193450D01*
X142817366Y-99381706D01*
X142817367Y-99381709D01*
X142875858Y-99561727D01*
X142875861Y-99561734D01*
X142970507Y-99725666D01*
X143097168Y-99866337D01*
X143097169Y-99866338D01*
X143250305Y-99977598D01*
X143250310Y-99977601D01*
X143423232Y-100054592D01*
X143423237Y-100054594D01*
X143608394Y-100093950D01*
X143608395Y-100093950D01*
X143797684Y-100093950D01*
X143797686Y-100093950D01*
X143982843Y-100054594D01*
X144155770Y-99977601D01*
X144308911Y-99866338D01*
X144435573Y-99725666D01*
X144530219Y-99561734D01*
X144588714Y-99381706D01*
X144608500Y-99193450D01*
X144588714Y-99005194D01*
X144530219Y-98825166D01*
X144435573Y-98661234D01*
X144308911Y-98520562D01*
X144308910Y-98520561D01*
X144155774Y-98409301D01*
X144155769Y-98409298D01*
X143982847Y-98332307D01*
X143982842Y-98332305D01*
X143837040Y-98301315D01*
X143797686Y-98292950D01*
X143608394Y-98292950D01*
X143575937Y-98299848D01*
X143423237Y-98332305D01*
X143423232Y-98332307D01*
X143250310Y-98409298D01*
X143250305Y-98409301D01*
X143097169Y-98520561D01*
X142970506Y-98661235D01*
X142875861Y-98825165D01*
X142875858Y-98825172D01*
X142817367Y-99005190D01*
X142817366Y-99005194D01*
X142797580Y-99193450D01*
X140746407Y-99193450D01*
X140727914Y-99017494D01*
X140669419Y-98837466D01*
X140574773Y-98673534D01*
X140448111Y-98532862D01*
X140448110Y-98532861D01*
X140294974Y-98421601D01*
X140294969Y-98421598D01*
X140122047Y-98344607D01*
X140122042Y-98344605D01*
X139968915Y-98312058D01*
X139936886Y-98305250D01*
X139747594Y-98305250D01*
X139715565Y-98312058D01*
X139562437Y-98344605D01*
X139562432Y-98344607D01*
X139383574Y-98424242D01*
X139382591Y-98422036D01*
X139325300Y-98435916D01*
X139259281Y-98413042D01*
X139216108Y-98358107D01*
X139207240Y-98312058D01*
X139207240Y-97593250D01*
X146556780Y-97593250D01*
X146576566Y-97781506D01*
X146576567Y-97781509D01*
X146635058Y-97961527D01*
X146635061Y-97961534D01*
X146729707Y-98125466D01*
X146856369Y-98266137D01*
X146856369Y-98266138D01*
X147009505Y-98377398D01*
X147009510Y-98377401D01*
X147182432Y-98454392D01*
X147182437Y-98454394D01*
X147367594Y-98493750D01*
X147367595Y-98493750D01*
X147556884Y-98493750D01*
X147556886Y-98493750D01*
X147742043Y-98454394D01*
X147914970Y-98377401D01*
X148068111Y-98266138D01*
X148194773Y-98125466D01*
X148289419Y-97961534D01*
X148347914Y-97781506D01*
X148367700Y-97593250D01*
X148347914Y-97404994D01*
X148289419Y-97224966D01*
X148194773Y-97061034D01*
X148068111Y-96920362D01*
X148068110Y-96920361D01*
X147914974Y-96809101D01*
X147914969Y-96809098D01*
X147742047Y-96732107D01*
X147742042Y-96732105D01*
X147596240Y-96701115D01*
X147556886Y-96692750D01*
X147367594Y-96692750D01*
X147335137Y-96699648D01*
X147182437Y-96732105D01*
X147182432Y-96732107D01*
X147009510Y-96809098D01*
X147009505Y-96809101D01*
X146856369Y-96920361D01*
X146729706Y-97061035D01*
X146635061Y-97224965D01*
X146635058Y-97224972D01*
X146576567Y-97404990D01*
X146576566Y-97404994D01*
X146556780Y-97593250D01*
X139207240Y-97593250D01*
X139207240Y-87056941D01*
X139226925Y-86989902D01*
X139279729Y-86944147D01*
X139348887Y-86934203D01*
X139383014Y-86946015D01*
X139383574Y-86944758D01*
X139562432Y-87024392D01*
X139562437Y-87024394D01*
X139747594Y-87063750D01*
X139747595Y-87063750D01*
X139936884Y-87063750D01*
X139936886Y-87063750D01*
X140122043Y-87024394D01*
X140294970Y-86947401D01*
X140448111Y-86836138D01*
X140574773Y-86695466D01*
X140669419Y-86531534D01*
X140698267Y-86442750D01*
X143381780Y-86442750D01*
X143401566Y-86631006D01*
X143401567Y-86631009D01*
X143460058Y-86811027D01*
X143460061Y-86811034D01*
X143554707Y-86974966D01*
X143608448Y-87034651D01*
X143681369Y-87115638D01*
X143834505Y-87226898D01*
X143834510Y-87226901D01*
X144007432Y-87303892D01*
X144007437Y-87303894D01*
X144192594Y-87343250D01*
X144192595Y-87343250D01*
X144381884Y-87343250D01*
X144381886Y-87343250D01*
X144567043Y-87303894D01*
X144739970Y-87226901D01*
X144893111Y-87115638D01*
X145019773Y-86974966D01*
X145114419Y-86811034D01*
X145172914Y-86631006D01*
X145192700Y-86442750D01*
X145172914Y-86254494D01*
X145114419Y-86074466D01*
X145019773Y-85910534D01*
X144893111Y-85769862D01*
X144893110Y-85769861D01*
X144739974Y-85658601D01*
X144739969Y-85658598D01*
X144567047Y-85581607D01*
X144567042Y-85581605D01*
X144421240Y-85550615D01*
X144381886Y-85542250D01*
X144192594Y-85542250D01*
X144160137Y-85549148D01*
X144007437Y-85581605D01*
X144007432Y-85581607D01*
X143834510Y-85658598D01*
X143834505Y-85658601D01*
X143681369Y-85769861D01*
X143554706Y-85910535D01*
X143460061Y-86074465D01*
X143460058Y-86074472D01*
X143404169Y-86246483D01*
X143401566Y-86254494D01*
X143381780Y-86442750D01*
X140698267Y-86442750D01*
X140727914Y-86351506D01*
X140747700Y-86163250D01*
X140727914Y-85974994D01*
X140669419Y-85794966D01*
X140574773Y-85631034D01*
X140556933Y-85611221D01*
X140526704Y-85548231D01*
X140535329Y-85478896D01*
X140556934Y-85445278D01*
X140556935Y-85445277D01*
X140574773Y-85425466D01*
X140669419Y-85261534D01*
X140727914Y-85081506D01*
X140747700Y-84893250D01*
X140727914Y-84704994D01*
X140669419Y-84524966D01*
X140574773Y-84361034D01*
X140556933Y-84341221D01*
X140526704Y-84278231D01*
X140535329Y-84208896D01*
X140556934Y-84175278D01*
X140556935Y-84175277D01*
X140574773Y-84155466D01*
X140669419Y-83991534D01*
X140727914Y-83811506D01*
X140747700Y-83623250D01*
X140727914Y-83434994D01*
X140669419Y-83254966D01*
X140574773Y-83091034D01*
X140556933Y-83071221D01*
X140526704Y-83008231D01*
X140535329Y-82938896D01*
X140556934Y-82905278D01*
X140574773Y-82885466D01*
X140669419Y-82721534D01*
X140727914Y-82541506D01*
X140747700Y-82353250D01*
X140727914Y-82164994D01*
X140669419Y-81984966D01*
X140574773Y-81821034D01*
X140556933Y-81801221D01*
X140526704Y-81738231D01*
X140535329Y-81668896D01*
X140556934Y-81635278D01*
X140574773Y-81615466D01*
X140669419Y-81451534D01*
X140727914Y-81271506D01*
X140747700Y-81083250D01*
X140727914Y-80894994D01*
X140669419Y-80714966D01*
X140574773Y-80551034D01*
X140556933Y-80531221D01*
X140526704Y-80468231D01*
X140535329Y-80398896D01*
X140556934Y-80365278D01*
X140574773Y-80345466D01*
X140669419Y-80181534D01*
X140727914Y-80001506D01*
X140747700Y-79813250D01*
X140727914Y-79624994D01*
X140669419Y-79444966D01*
X140574773Y-79281034D01*
X140556933Y-79261221D01*
X140526704Y-79198231D01*
X140535329Y-79128896D01*
X140556934Y-79095278D01*
X140574773Y-79075466D01*
X140669419Y-78911534D01*
X140727914Y-78731506D01*
X140747700Y-78543250D01*
X140727914Y-78354994D01*
X140669419Y-78174966D01*
X140574773Y-78011034D01*
X140556933Y-77991221D01*
X140526704Y-77928231D01*
X140535329Y-77858896D01*
X140556934Y-77825278D01*
X140556935Y-77825277D01*
X140574773Y-77805466D01*
X140669419Y-77641534D01*
X140727914Y-77461506D01*
X140747700Y-77273250D01*
X140727914Y-77084994D01*
X140669419Y-76904966D01*
X140574773Y-76741034D01*
X140448111Y-76600362D01*
X140448110Y-76600361D01*
X140294974Y-76489101D01*
X140294969Y-76489098D01*
X140122047Y-76412107D01*
X140122042Y-76412105D01*
X139968915Y-76379558D01*
X139936886Y-76372750D01*
X139747594Y-76372750D01*
X139715565Y-76379558D01*
X139562437Y-76412105D01*
X139562432Y-76412107D01*
X139383574Y-76491742D01*
X139382591Y-76489536D01*
X139325300Y-76503416D01*
X139259281Y-76480542D01*
X139216108Y-76425607D01*
X139207240Y-76379558D01*
X139207240Y-75355750D01*
X139226925Y-75288711D01*
X139279729Y-75242956D01*
X139331240Y-75231750D01*
X142856651Y-75231750D01*
X142923690Y-75251435D01*
X142969445Y-75304239D01*
X142979389Y-75373397D01*
X142950364Y-75436953D01*
X142948801Y-75438722D01*
X142919706Y-75471035D01*
X142825061Y-75634965D01*
X142825058Y-75634972D01*
X142781885Y-75767846D01*
X142766566Y-75814994D01*
X142746780Y-76003250D01*
X142766566Y-76191506D01*
X142766567Y-76191509D01*
X142825058Y-76371527D01*
X142825061Y-76371534D01*
X142919707Y-76535466D01*
X142978139Y-76600361D01*
X143046369Y-76676138D01*
X143199505Y-76787398D01*
X143199510Y-76787401D01*
X143372432Y-76864392D01*
X143372437Y-76864394D01*
X143557594Y-76903750D01*
X143557595Y-76903750D01*
X143746884Y-76903750D01*
X143746886Y-76903750D01*
X143911234Y-76868817D01*
X143980901Y-76874133D01*
X144036635Y-76916270D01*
X144060740Y-76981850D01*
X144054946Y-77028424D01*
X144036567Y-77084989D01*
X144036567Y-77084990D01*
X144036566Y-77084994D01*
X144016780Y-77273250D01*
X144036566Y-77461506D01*
X144036567Y-77461509D01*
X144095058Y-77641527D01*
X144095061Y-77641534D01*
X144189707Y-77805466D01*
X144316369Y-77946137D01*
X144316369Y-77946138D01*
X144469505Y-78057398D01*
X144469510Y-78057401D01*
X144642432Y-78134392D01*
X144642437Y-78134394D01*
X144827594Y-78173750D01*
X144827595Y-78173750D01*
X145016884Y-78173750D01*
X145016886Y-78173750D01*
X145202043Y-78134394D01*
X145374970Y-78057401D01*
X145528111Y-77946138D01*
X145654773Y-77805466D01*
X145749419Y-77641534D01*
X145807914Y-77461506D01*
X145827700Y-77273250D01*
X145807914Y-77084994D01*
X145749419Y-76904966D01*
X145654773Y-76741034D01*
X145528111Y-76600362D01*
X145528110Y-76600361D01*
X145374974Y-76489101D01*
X145374969Y-76489098D01*
X145202047Y-76412107D01*
X145202042Y-76412105D01*
X145048915Y-76379558D01*
X145016886Y-76372750D01*
X144827594Y-76372750D01*
X144713388Y-76397024D01*
X144663244Y-76407683D01*
X144593577Y-76402366D01*
X144537844Y-76360228D01*
X144513739Y-76294648D01*
X144519534Y-76248072D01*
X144537914Y-76191506D01*
X144557700Y-76003250D01*
X144537914Y-75814994D01*
X144479419Y-75634966D01*
X144384773Y-75471034D01*
X144355678Y-75438721D01*
X144325449Y-75375731D01*
X144334074Y-75306396D01*
X144378816Y-75252730D01*
X144445468Y-75231772D01*
X144447829Y-75231750D01*
X146772243Y-75231750D01*
X146839282Y-75251435D01*
X146885037Y-75304239D01*
X146894981Y-75373397D01*
X146884625Y-75408155D01*
X146823338Y-75539585D01*
X146823334Y-75539594D01*
X146762178Y-75767836D01*
X146762176Y-75767846D01*
X146741581Y-76003249D01*
X146741581Y-76003250D01*
X146762176Y-76238653D01*
X146762178Y-76238663D01*
X146823334Y-76466905D01*
X146823336Y-76466909D01*
X146823337Y-76466913D01*
X146903244Y-76638273D01*
X146923205Y-76681080D01*
X146923207Y-76681084D01*
X146997652Y-76787401D01*
X147058741Y-76874646D01*
X147058746Y-76874652D01*
X147225837Y-77041743D01*
X147225843Y-77041748D01*
X147411398Y-77171675D01*
X147455023Y-77226252D01*
X147462217Y-77295750D01*
X147430694Y-77358105D01*
X147411398Y-77374825D01*
X147225837Y-77504755D01*
X147058745Y-77671847D01*
X146923205Y-77865419D01*
X146923204Y-77865421D01*
X146823338Y-78079585D01*
X146823334Y-78079594D01*
X146762178Y-78307836D01*
X146762176Y-78307846D01*
X146741581Y-78543249D01*
X146741581Y-78543250D01*
X146762176Y-78778653D01*
X146762178Y-78778663D01*
X146823334Y-79006905D01*
X146823336Y-79006909D01*
X146823337Y-79006913D01*
X146880219Y-79128896D01*
X146923205Y-79221080D01*
X146923207Y-79221084D01*
X147003954Y-79336402D01*
X147058741Y-79414646D01*
X147058746Y-79414652D01*
X147225837Y-79581743D01*
X147225843Y-79581748D01*
X147411398Y-79711675D01*
X147455023Y-79766252D01*
X147462217Y-79835750D01*
X147430694Y-79898105D01*
X147411398Y-79914825D01*
X147225837Y-80044755D01*
X147058745Y-80211847D01*
X146923205Y-80405419D01*
X146923204Y-80405421D01*
X146823338Y-80619585D01*
X146823334Y-80619594D01*
X146762178Y-80847836D01*
X146762176Y-80847846D01*
X146741581Y-81083249D01*
X146741581Y-81083250D01*
X146762176Y-81318653D01*
X146762178Y-81318663D01*
X146823334Y-81546905D01*
X146823336Y-81546909D01*
X146823337Y-81546913D01*
X146869145Y-81645148D01*
X146923205Y-81761080D01*
X146923207Y-81761084D01*
X147002184Y-81873874D01*
X147058741Y-81954646D01*
X147058746Y-81954652D01*
X147225837Y-82121743D01*
X147225843Y-82121748D01*
X147411398Y-82251675D01*
X147455023Y-82306252D01*
X147462217Y-82375750D01*
X147430694Y-82438105D01*
X147411398Y-82454825D01*
X147225837Y-82584755D01*
X147058745Y-82751847D01*
X146923205Y-82945419D01*
X146923204Y-82945421D01*
X146823338Y-83159585D01*
X146823334Y-83159594D01*
X146762178Y-83387836D01*
X146762176Y-83387846D01*
X146741581Y-83623249D01*
X146741581Y-83623250D01*
X146762176Y-83858653D01*
X146762178Y-83858663D01*
X146823334Y-84086905D01*
X146823336Y-84086909D01*
X146823337Y-84086913D01*
X146880219Y-84208896D01*
X146923205Y-84301080D01*
X146923207Y-84301084D01*
X146965187Y-84361037D01*
X147058741Y-84494646D01*
X147058746Y-84494652D01*
X147225837Y-84661743D01*
X147225843Y-84661748D01*
X147411398Y-84791675D01*
X147455023Y-84846252D01*
X147462217Y-84915750D01*
X147430694Y-84978105D01*
X147411398Y-84994825D01*
X147225837Y-85124755D01*
X147058745Y-85291847D01*
X146923205Y-85485419D01*
X146923204Y-85485421D01*
X146823338Y-85699585D01*
X146823334Y-85699594D01*
X146762178Y-85927836D01*
X146762176Y-85927846D01*
X146741581Y-86163249D01*
X146741581Y-86163250D01*
X146762176Y-86398653D01*
X146762178Y-86398663D01*
X146823334Y-86626905D01*
X146823336Y-86626909D01*
X146823337Y-86626913D01*
X146827240Y-86635282D01*
X146923205Y-86841080D01*
X146923207Y-86841084D01*
X147016952Y-86974964D01*
X147058741Y-87034646D01*
X147058746Y-87034652D01*
X147225837Y-87201743D01*
X147225843Y-87201748D01*
X147411398Y-87331675D01*
X147455023Y-87386252D01*
X147462217Y-87455750D01*
X147430694Y-87518105D01*
X147411398Y-87534825D01*
X147225837Y-87664755D01*
X147058745Y-87831847D01*
X146923205Y-88025419D01*
X146923204Y-88025421D01*
X146823338Y-88239585D01*
X146823334Y-88239594D01*
X146762178Y-88467836D01*
X146762176Y-88467846D01*
X146741581Y-88703249D01*
X146741581Y-88703250D01*
X146762176Y-88938653D01*
X146762178Y-88938663D01*
X146823334Y-89166905D01*
X146823336Y-89166909D01*
X146823337Y-89166913D01*
X146903244Y-89338273D01*
X146923205Y-89381080D01*
X146923207Y-89381084D01*
X147031521Y-89535771D01*
X147058741Y-89574646D01*
X147058746Y-89574652D01*
X147225837Y-89741743D01*
X147225843Y-89741748D01*
X147411398Y-89871675D01*
X147455023Y-89926252D01*
X147462217Y-89995750D01*
X147430694Y-90058105D01*
X147411398Y-90074825D01*
X147225837Y-90204755D01*
X147058745Y-90371847D01*
X146923205Y-90565419D01*
X146923204Y-90565421D01*
X146823338Y-90779585D01*
X146823334Y-90779594D01*
X146762178Y-91007836D01*
X146762176Y-91007846D01*
X146741581Y-91243249D01*
X146741581Y-91243250D01*
X146762176Y-91478653D01*
X146762178Y-91478663D01*
X146823334Y-91706905D01*
X146823336Y-91706909D01*
X146823337Y-91706913D01*
X146827240Y-91715282D01*
X146923205Y-91921080D01*
X146923207Y-91921084D01*
X146997652Y-92027401D01*
X147058745Y-92114651D01*
X147225839Y-92281745D01*
X147322624Y-92349514D01*
X147419405Y-92417282D01*
X147419407Y-92417283D01*
X147419410Y-92417285D01*
X147633577Y-92517153D01*
X147861832Y-92578313D01*
X148050158Y-92594789D01*
X148097239Y-92598909D01*
X148097240Y-92598909D01*
X148097241Y-92598909D01*
X148136474Y-92595476D01*
X148332648Y-92578313D01*
X148560903Y-92517153D01*
X148775070Y-92417285D01*
X148968641Y-92281745D01*
X149135735Y-92114651D01*
X149265664Y-91929092D01*
X149320242Y-91885467D01*
X149389740Y-91878273D01*
X149452095Y-91909796D01*
X149468815Y-91929092D01*
X149598740Y-92114645D01*
X149598745Y-92114651D01*
X149765839Y-92281745D01*
X149862624Y-92349514D01*
X149959405Y-92417282D01*
X149959407Y-92417283D01*
X149959410Y-92417285D01*
X150173577Y-92517153D01*
X150401832Y-92578313D01*
X150590158Y-92594789D01*
X150637239Y-92598909D01*
X150637240Y-92598909D01*
X150637241Y-92598909D01*
X150676474Y-92595476D01*
X150872648Y-92578313D01*
X151100903Y-92517153D01*
X151315070Y-92417285D01*
X151508641Y-92281745D01*
X151675735Y-92114651D01*
X151811275Y-91921080D01*
X151911143Y-91706913D01*
X151972303Y-91478658D01*
X151992899Y-91243250D01*
X151992414Y-91237712D01*
X151979850Y-91094101D01*
X151972303Y-91007842D01*
X151911143Y-90779587D01*
X151811275Y-90565421D01*
X151675735Y-90371849D01*
X151675734Y-90371847D01*
X151508642Y-90204756D01*
X151508636Y-90204751D01*
X151323082Y-90074825D01*
X151279457Y-90020248D01*
X151272263Y-89950750D01*
X151303786Y-89888395D01*
X151323082Y-89871675D01*
X151345266Y-89856141D01*
X151508641Y-89741745D01*
X151675735Y-89574651D01*
X151811275Y-89381080D01*
X151911143Y-89166913D01*
X151972303Y-88938658D01*
X151992899Y-88703250D01*
X151972303Y-88467842D01*
X151911143Y-88239587D01*
X151811275Y-88025421D01*
X151675735Y-87831849D01*
X151675734Y-87831847D01*
X151508642Y-87664756D01*
X151508636Y-87664751D01*
X151323082Y-87534825D01*
X151279457Y-87480248D01*
X151272263Y-87410750D01*
X151303786Y-87348395D01*
X151323082Y-87331675D01*
X151381884Y-87290501D01*
X151508641Y-87201745D01*
X151675735Y-87034651D01*
X151811275Y-86841080D01*
X151911143Y-86626913D01*
X151972303Y-86398658D01*
X151992899Y-86163250D01*
X153541780Y-86163250D01*
X153561566Y-86351506D01*
X153561567Y-86351509D01*
X153620058Y-86531527D01*
X153620061Y-86531534D01*
X153714707Y-86695466D01*
X153807275Y-86798273D01*
X153841369Y-86836138D01*
X153994505Y-86947398D01*
X153994510Y-86947401D01*
X154167432Y-87024392D01*
X154167437Y-87024394D01*
X154352594Y-87063750D01*
X154352595Y-87063750D01*
X154541884Y-87063750D01*
X154541886Y-87063750D01*
X154727043Y-87024394D01*
X154899970Y-86947401D01*
X155053111Y-86836138D01*
X155179773Y-86695466D01*
X155274419Y-86531534D01*
X155332914Y-86351506D01*
X155352700Y-86163250D01*
X155332914Y-85974994D01*
X155274419Y-85794966D01*
X155179773Y-85631034D01*
X155053111Y-85490362D01*
X155053110Y-85490361D01*
X154899974Y-85379101D01*
X154899969Y-85379098D01*
X154727047Y-85302107D01*
X154727042Y-85302105D01*
X154581240Y-85271115D01*
X154541886Y-85262750D01*
X154352594Y-85262750D01*
X154320137Y-85269648D01*
X154167437Y-85302105D01*
X154167432Y-85302107D01*
X153994510Y-85379098D01*
X153994505Y-85379101D01*
X153841369Y-85490361D01*
X153714706Y-85631035D01*
X153620061Y-85794965D01*
X153620058Y-85794972D01*
X153576885Y-85927846D01*
X153561566Y-85974994D01*
X153541780Y-86163250D01*
X151992899Y-86163250D01*
X151972303Y-85927842D01*
X151911143Y-85699587D01*
X151811275Y-85485421D01*
X151806707Y-85478896D01*
X151675734Y-85291847D01*
X151508642Y-85124756D01*
X151508636Y-85124751D01*
X151323082Y-84994825D01*
X151279457Y-84940248D01*
X151272263Y-84870750D01*
X151303786Y-84808395D01*
X151323082Y-84791675D01*
X151446875Y-84704994D01*
X151508641Y-84661745D01*
X151675735Y-84494651D01*
X151811275Y-84301080D01*
X151911143Y-84086913D01*
X151972303Y-83858658D01*
X151992899Y-83623250D01*
X151972303Y-83387842D01*
X151911143Y-83159587D01*
X151811275Y-82945421D01*
X151806707Y-82938896D01*
X151675734Y-82751847D01*
X151508642Y-82584756D01*
X151508636Y-82584751D01*
X151323082Y-82454825D01*
X151279457Y-82400248D01*
X151272263Y-82330750D01*
X151303786Y-82268395D01*
X151323082Y-82251675D01*
X151446875Y-82164994D01*
X151508641Y-82121745D01*
X151675735Y-81954651D01*
X151811275Y-81761080D01*
X151911143Y-81546913D01*
X151972303Y-81318658D01*
X151992899Y-81083250D01*
X151972303Y-80847842D01*
X151911143Y-80619587D01*
X151811275Y-80405421D01*
X151806707Y-80398896D01*
X151675734Y-80211847D01*
X151508642Y-80044756D01*
X151508636Y-80044751D01*
X151323082Y-79914825D01*
X151279457Y-79860248D01*
X151272263Y-79790750D01*
X151303786Y-79728395D01*
X151323082Y-79711675D01*
X151446875Y-79624994D01*
X151508641Y-79581745D01*
X151675735Y-79414651D01*
X151811275Y-79221080D01*
X151911143Y-79006913D01*
X151972303Y-78778658D01*
X151992899Y-78543250D01*
X151972303Y-78307842D01*
X151911143Y-78079587D01*
X151811275Y-77865421D01*
X151806707Y-77858896D01*
X151675734Y-77671847D01*
X151508642Y-77504756D01*
X151508636Y-77504751D01*
X151323082Y-77374825D01*
X151279457Y-77320248D01*
X151272263Y-77250750D01*
X151303786Y-77188395D01*
X151323082Y-77171675D01*
X151446875Y-77084994D01*
X151508641Y-77041745D01*
X151675735Y-76874651D01*
X151811275Y-76681080D01*
X151911143Y-76466913D01*
X151972303Y-76238658D01*
X151992899Y-76003250D01*
X151972303Y-75767842D01*
X151911143Y-75539587D01*
X151811275Y-75325421D01*
X151796444Y-75304239D01*
X151675734Y-75131847D01*
X151508642Y-74964756D01*
X151508635Y-74964751D01*
X151315074Y-74829217D01*
X151315070Y-74829215D01*
X151210060Y-74780248D01*
X151100903Y-74729347D01*
X151100899Y-74729346D01*
X151100895Y-74729344D01*
X150872653Y-74668188D01*
X150872643Y-74668186D01*
X150637241Y-74647591D01*
X150637239Y-74647591D01*
X150401836Y-74668186D01*
X150401826Y-74668188D01*
X150173584Y-74729344D01*
X150173575Y-74729348D01*
X149959411Y-74829214D01*
X149959409Y-74829215D01*
X149765837Y-74964755D01*
X149598748Y-75131844D01*
X149468814Y-75317410D01*
X149414237Y-75361034D01*
X149344738Y-75368227D01*
X149282384Y-75336705D01*
X149265669Y-75317414D01*
X149135735Y-75131849D01*
X149135733Y-75131846D01*
X148968642Y-74964756D01*
X148968636Y-74964751D01*
X148783082Y-74834825D01*
X148739457Y-74780248D01*
X148732263Y-74710750D01*
X148763786Y-74648395D01*
X148783082Y-74631675D01*
X148851027Y-74584099D01*
X148968641Y-74501745D01*
X149135735Y-74334651D01*
X149271275Y-74141080D01*
X149371143Y-73926913D01*
X149432303Y-73698658D01*
X149452899Y-73463250D01*
X149432303Y-73227842D01*
X149371143Y-72999587D01*
X149271275Y-72785421D01*
X149229295Y-72725466D01*
X149135734Y-72591847D01*
X148968642Y-72424756D01*
X148968636Y-72424751D01*
X148783082Y-72294825D01*
X148739457Y-72240248D01*
X148732263Y-72170750D01*
X148763786Y-72108395D01*
X148783082Y-72091675D01*
X148906875Y-72004994D01*
X148968641Y-71961745D01*
X149135735Y-71794651D01*
X149250131Y-71631276D01*
X149265665Y-71609092D01*
X149320242Y-71565467D01*
X149389740Y-71558273D01*
X149452095Y-71589796D01*
X149468815Y-71609092D01*
X149598740Y-71794645D01*
X149598745Y-71794651D01*
X149765839Y-71961745D01*
X149827598Y-72004989D01*
X149959405Y-72097282D01*
X149959407Y-72097283D01*
X149959410Y-72097285D01*
X150173577Y-72197153D01*
X150401832Y-72258313D01*
X150590158Y-72274789D01*
X150637239Y-72278909D01*
X150637240Y-72278909D01*
X150637241Y-72278909D01*
X150676474Y-72275476D01*
X150872648Y-72258313D01*
X151100903Y-72197153D01*
X151315070Y-72097285D01*
X151508641Y-71961745D01*
X151675735Y-71794651D01*
X151811275Y-71601080D01*
X151911143Y-71386913D01*
X151972303Y-71158658D01*
X151992899Y-70923250D01*
X151972303Y-70687842D01*
X151911143Y-70459587D01*
X151811275Y-70245421D01*
X151769294Y-70185466D01*
X151675736Y-70051850D01*
X151645420Y-70021534D01*
X151553807Y-69929921D01*
X151520324Y-69868601D01*
X151525308Y-69798909D01*
X151567179Y-69742975D01*
X151598155Y-69726060D01*
X151729571Y-69677046D01*
X151844786Y-69590796D01*
X151931036Y-69475581D01*
X151981331Y-69340733D01*
X151987740Y-69281123D01*
X151987740Y-69018250D01*
X152906780Y-69018250D01*
X152926566Y-69206506D01*
X152926567Y-69206509D01*
X152985058Y-69386527D01*
X152985061Y-69386534D01*
X153079707Y-69550466D01*
X153193681Y-69677047D01*
X153206369Y-69691138D01*
X153359505Y-69802398D01*
X153359510Y-69802401D01*
X153532432Y-69879392D01*
X153532437Y-69879394D01*
X153717594Y-69918750D01*
X153717595Y-69918750D01*
X153906884Y-69918750D01*
X153906886Y-69918750D01*
X154092043Y-69879394D01*
X154264970Y-69802401D01*
X154374357Y-69722926D01*
X154440160Y-69699448D01*
X154508214Y-69715273D01*
X154520111Y-69722918D01*
X154624704Y-69798909D01*
X154629510Y-69802401D01*
X154802432Y-69879392D01*
X154802437Y-69879394D01*
X154987594Y-69918750D01*
X154987595Y-69918750D01*
X155176884Y-69918750D01*
X155176886Y-69918750D01*
X155362043Y-69879394D01*
X155534970Y-69802401D01*
X155688111Y-69691138D01*
X155814773Y-69550466D01*
X155909419Y-69386534D01*
X155967914Y-69206506D01*
X155987700Y-69018250D01*
X155967914Y-68829994D01*
X155943477Y-68754788D01*
X155941483Y-68684948D01*
X155977563Y-68625115D01*
X156010973Y-68603192D01*
X156042756Y-68589041D01*
X156169970Y-68532401D01*
X156323111Y-68421138D01*
X156449773Y-68280466D01*
X156544419Y-68116534D01*
X156602914Y-67936506D01*
X156622700Y-67748250D01*
X156602914Y-67559994D01*
X156544419Y-67379966D01*
X156449773Y-67216034D01*
X156323111Y-67075362D01*
X156320949Y-67073791D01*
X156169974Y-66964101D01*
X156169972Y-66964100D01*
X156010972Y-66893307D01*
X155957736Y-66848056D01*
X155937415Y-66781207D01*
X155943477Y-66741714D01*
X155967914Y-66666506D01*
X155987700Y-66478250D01*
X155967914Y-66289994D01*
X155943477Y-66214788D01*
X155941483Y-66144948D01*
X155977563Y-66085115D01*
X156010973Y-66063192D01*
X156042756Y-66049041D01*
X156169970Y-65992401D01*
X156323111Y-65881138D01*
X156449773Y-65740466D01*
X156544419Y-65576534D01*
X156602914Y-65396506D01*
X156622700Y-65208250D01*
X156602914Y-65019994D01*
X156544419Y-64839966D01*
X156449773Y-64676034D01*
X156323111Y-64535362D01*
X156311672Y-64527051D01*
X156169974Y-64424101D01*
X156169969Y-64424098D01*
X155997047Y-64347107D01*
X155997042Y-64347105D01*
X155851240Y-64316115D01*
X155811886Y-64307750D01*
X155622594Y-64307750D01*
X155590137Y-64314648D01*
X155437437Y-64347105D01*
X155437432Y-64347107D01*
X155264510Y-64424098D01*
X155264505Y-64424101D01*
X155155125Y-64503571D01*
X155089319Y-64527051D01*
X155021265Y-64511225D01*
X155009355Y-64503571D01*
X154899974Y-64424101D01*
X154899969Y-64424098D01*
X154727047Y-64347107D01*
X154727042Y-64347105D01*
X154581240Y-64316115D01*
X154541886Y-64307750D01*
X154352594Y-64307750D01*
X154320137Y-64314648D01*
X154167437Y-64347105D01*
X154167432Y-64347107D01*
X153994510Y-64424098D01*
X153994505Y-64424101D01*
X153841369Y-64535361D01*
X153714706Y-64676035D01*
X153620061Y-64839965D01*
X153620058Y-64839972D01*
X153561567Y-65019990D01*
X153561566Y-65019994D01*
X153557456Y-65059099D01*
X153543740Y-65189606D01*
X153541780Y-65208250D01*
X153561566Y-65396506D01*
X153561567Y-65396509D01*
X153586001Y-65471710D01*
X153587996Y-65541551D01*
X153551915Y-65601384D01*
X153518507Y-65623307D01*
X153359507Y-65694100D01*
X153359505Y-65694101D01*
X153206369Y-65805361D01*
X153079706Y-65946035D01*
X152985061Y-66109965D01*
X152985058Y-66109972D01*
X152926567Y-66289990D01*
X152926566Y-66289994D01*
X152906780Y-66478250D01*
X152926566Y-66666506D01*
X152926567Y-66666509D01*
X152985058Y-66846527D01*
X152985061Y-66846534D01*
X153079707Y-67010466D01*
X153177240Y-67118787D01*
X153206369Y-67151138D01*
X153359505Y-67262398D01*
X153359510Y-67262401D01*
X153518506Y-67333192D01*
X153571743Y-67378442D01*
X153592064Y-67445292D01*
X153586001Y-67484788D01*
X153561567Y-67559989D01*
X153561567Y-67559990D01*
X153561566Y-67559994D01*
X153541780Y-67748250D01*
X153561566Y-67936506D01*
X153561567Y-67936509D01*
X153586001Y-68011710D01*
X153587996Y-68081551D01*
X153551915Y-68141384D01*
X153518507Y-68163307D01*
X153359507Y-68234100D01*
X153359505Y-68234101D01*
X153206369Y-68345361D01*
X153079706Y-68486035D01*
X152985061Y-68649965D01*
X152985058Y-68649972D01*
X152952059Y-68751534D01*
X152926566Y-68829994D01*
X152906780Y-69018250D01*
X151987740Y-69018250D01*
X151987739Y-67485378D01*
X151981331Y-67425767D01*
X151980050Y-67422333D01*
X151931037Y-67290921D01*
X151931033Y-67290914D01*
X151844787Y-67175705D01*
X151844784Y-67175702D01*
X151729575Y-67089456D01*
X151729568Y-67089452D01*
X151594722Y-67039158D01*
X151594723Y-67039158D01*
X151535123Y-67032751D01*
X151535121Y-67032750D01*
X151535113Y-67032750D01*
X151535104Y-67032750D01*
X149739369Y-67032750D01*
X149739363Y-67032751D01*
X149679756Y-67039158D01*
X149544911Y-67089452D01*
X149544904Y-67089456D01*
X149429695Y-67175702D01*
X149429692Y-67175705D01*
X149343446Y-67290914D01*
X149343443Y-67290919D01*
X149294429Y-67422333D01*
X149252557Y-67478266D01*
X149187093Y-67502683D01*
X149118820Y-67487831D01*
X149090566Y-67466680D01*
X148968642Y-67344756D01*
X148968635Y-67344751D01*
X148960984Y-67339394D01*
X148891758Y-67290921D01*
X148775074Y-67209217D01*
X148775070Y-67209215D01*
X148563114Y-67110378D01*
X148510675Y-67064206D01*
X148491523Y-66997012D01*
X148511739Y-66930131D01*
X148564902Y-66884797D01*
X148676970Y-66834901D01*
X148830111Y-66723638D01*
X148956773Y-66582966D01*
X149051419Y-66419034D01*
X149109914Y-66239006D01*
X149129700Y-66050750D01*
X149109914Y-65862494D01*
X149051419Y-65682466D01*
X148956773Y-65518534D01*
X148830111Y-65377862D01*
X148830110Y-65377861D01*
X148676974Y-65266601D01*
X148676969Y-65266598D01*
X148504047Y-65189607D01*
X148504042Y-65189605D01*
X148358240Y-65158615D01*
X148318886Y-65150250D01*
X148129594Y-65150250D01*
X148097137Y-65157148D01*
X147944437Y-65189605D01*
X147944432Y-65189607D01*
X147771510Y-65266598D01*
X147771505Y-65266601D01*
X147618369Y-65377861D01*
X147491706Y-65518535D01*
X147397061Y-65682465D01*
X147397058Y-65682472D01*
X147338567Y-65862490D01*
X147338566Y-65862494D01*
X147318780Y-66050750D01*
X147338566Y-66239006D01*
X147338567Y-66239009D01*
X147397058Y-66419027D01*
X147397061Y-66419034D01*
X147491707Y-66582966D01*
X147566927Y-66666506D01*
X147618369Y-66723638D01*
X147647724Y-66744966D01*
X147771510Y-66834901D01*
X147784620Y-66840738D01*
X147837855Y-66885989D01*
X147858175Y-66952838D01*
X147839128Y-67020062D01*
X147786761Y-67066316D01*
X147766274Y-67073791D01*
X147633584Y-67109344D01*
X147633575Y-67109348D01*
X147419411Y-67209214D01*
X147419409Y-67209215D01*
X147225837Y-67344755D01*
X147058745Y-67511847D01*
X146923205Y-67705419D01*
X146923204Y-67705421D01*
X146823338Y-67919585D01*
X146823334Y-67919594D01*
X146762178Y-68147836D01*
X146762176Y-68147846D01*
X146741581Y-68383249D01*
X146741581Y-68383250D01*
X146762176Y-68618653D01*
X146762178Y-68618663D01*
X146823334Y-68846905D01*
X146823336Y-68846909D01*
X146823337Y-68846913D01*
X146855304Y-68915466D01*
X146923205Y-69061080D01*
X146923207Y-69061084D01*
X147058741Y-69254645D01*
X147058746Y-69254652D01*
X147225837Y-69421743D01*
X147225843Y-69421748D01*
X147411398Y-69551675D01*
X147455023Y-69606252D01*
X147462217Y-69675750D01*
X147430694Y-69738105D01*
X147411398Y-69754825D01*
X147225837Y-69884755D01*
X147058745Y-70051847D01*
X146923205Y-70245419D01*
X146923204Y-70245421D01*
X146823338Y-70459585D01*
X146823334Y-70459594D01*
X146762178Y-70687836D01*
X146762176Y-70687846D01*
X146741581Y-70923249D01*
X146741581Y-70923250D01*
X146762176Y-71158653D01*
X146762178Y-71158663D01*
X146823334Y-71386905D01*
X146823336Y-71386909D01*
X146823337Y-71386913D01*
X146903233Y-71558250D01*
X146923205Y-71601080D01*
X146923207Y-71601084D01*
X146997652Y-71707401D01*
X147058741Y-71794646D01*
X147058746Y-71794652D01*
X147225837Y-71961743D01*
X147225843Y-71961748D01*
X147411398Y-72091675D01*
X147455023Y-72146252D01*
X147462217Y-72215750D01*
X147430694Y-72278105D01*
X147411398Y-72294825D01*
X147225837Y-72424755D01*
X147058745Y-72591847D01*
X146923205Y-72785419D01*
X146923204Y-72785421D01*
X146823338Y-72999585D01*
X146823334Y-72999594D01*
X146762178Y-73227836D01*
X146762176Y-73227846D01*
X146741581Y-73463249D01*
X146741581Y-73463250D01*
X146762177Y-73698658D01*
X146789095Y-73799122D01*
X146787432Y-73868972D01*
X146757005Y-73918892D01*
X146731471Y-73944428D01*
X146670149Y-73977915D01*
X146643786Y-73980750D01*
X139331240Y-73980750D01*
X139264201Y-73961065D01*
X139218446Y-73908261D01*
X139207240Y-73856750D01*
X139207240Y-70923250D01*
X142746780Y-70923250D01*
X142766566Y-71111506D01*
X142766567Y-71111509D01*
X142825058Y-71291527D01*
X142825061Y-71291534D01*
X142919707Y-71455466D01*
X143012275Y-71558273D01*
X143046369Y-71596138D01*
X143199505Y-71707398D01*
X143199510Y-71707401D01*
X143372432Y-71784392D01*
X143372437Y-71784394D01*
X143557594Y-71823750D01*
X143557595Y-71823750D01*
X143746884Y-71823750D01*
X143746886Y-71823750D01*
X143911234Y-71788817D01*
X143980901Y-71794133D01*
X144036635Y-71836270D01*
X144060740Y-71901850D01*
X144054946Y-71948424D01*
X144036567Y-72004989D01*
X144036567Y-72004990D01*
X144036566Y-72004994D01*
X144016780Y-72193250D01*
X144036566Y-72381506D01*
X144036567Y-72381509D01*
X144095058Y-72561527D01*
X144095061Y-72561534D01*
X144189707Y-72725466D01*
X144316369Y-72866137D01*
X144316369Y-72866138D01*
X144469505Y-72977398D01*
X144469510Y-72977401D01*
X144642432Y-73054392D01*
X144642437Y-73054394D01*
X144827594Y-73093750D01*
X144827595Y-73093750D01*
X145016884Y-73093750D01*
X145016886Y-73093750D01*
X145202043Y-73054394D01*
X145374970Y-72977401D01*
X145528111Y-72866138D01*
X145654773Y-72725466D01*
X145749419Y-72561534D01*
X145807914Y-72381506D01*
X145827700Y-72193250D01*
X145807914Y-72004994D01*
X145749419Y-71824966D01*
X145654773Y-71661034D01*
X145528111Y-71520362D01*
X145528110Y-71520361D01*
X145374974Y-71409101D01*
X145374969Y-71409098D01*
X145202047Y-71332107D01*
X145202042Y-71332105D01*
X145056241Y-71301115D01*
X145016886Y-71292750D01*
X144827594Y-71292750D01*
X144713388Y-71317024D01*
X144663244Y-71327683D01*
X144593577Y-71322366D01*
X144537844Y-71280228D01*
X144513739Y-71214648D01*
X144519534Y-71168072D01*
X144537914Y-71111506D01*
X144557700Y-70923250D01*
X144537914Y-70734994D01*
X144479419Y-70554966D01*
X144384773Y-70391034D01*
X144258111Y-70250362D01*
X144258110Y-70250361D01*
X144104974Y-70139101D01*
X144104969Y-70139098D01*
X143932047Y-70062107D01*
X143932042Y-70062105D01*
X143786240Y-70031115D01*
X143746886Y-70022750D01*
X143557594Y-70022750D01*
X143525137Y-70029648D01*
X143372437Y-70062105D01*
X143372432Y-70062107D01*
X143199510Y-70139098D01*
X143199505Y-70139101D01*
X143046369Y-70250361D01*
X142919706Y-70391035D01*
X142825061Y-70554965D01*
X142825058Y-70554972D01*
X142781885Y-70687846D01*
X142766566Y-70734994D01*
X142746780Y-70923250D01*
X139207240Y-70923250D01*
X139207240Y-65208250D01*
X142746780Y-65208250D01*
X142766566Y-65396506D01*
X142766567Y-65396509D01*
X142825058Y-65576527D01*
X142825061Y-65576534D01*
X142919707Y-65740466D01*
X143029578Y-65862490D01*
X143046369Y-65881138D01*
X143199505Y-65992398D01*
X143199510Y-65992401D01*
X143358506Y-66063192D01*
X143411743Y-66108442D01*
X143432064Y-66175292D01*
X143426001Y-66214788D01*
X143401567Y-66289989D01*
X143401567Y-66289990D01*
X143401566Y-66289994D01*
X143381780Y-66478250D01*
X143401566Y-66666506D01*
X143401567Y-66666509D01*
X143460058Y-66846527D01*
X143460061Y-66846534D01*
X143554707Y-67010466D01*
X143652240Y-67118787D01*
X143681369Y-67151138D01*
X143834505Y-67262398D01*
X143834510Y-67262401D01*
X144007432Y-67339392D01*
X144007437Y-67339394D01*
X144192594Y-67378750D01*
X144192595Y-67378750D01*
X144381884Y-67378750D01*
X144381886Y-67378750D01*
X144567043Y-67339394D01*
X144739970Y-67262401D01*
X144849357Y-67182926D01*
X144915160Y-67159448D01*
X144983214Y-67175273D01*
X144995111Y-67182918D01*
X145104506Y-67262398D01*
X145104510Y-67262401D01*
X145277432Y-67339392D01*
X145277437Y-67339394D01*
X145462594Y-67378750D01*
X145462595Y-67378750D01*
X145651884Y-67378750D01*
X145651886Y-67378750D01*
X145837043Y-67339394D01*
X146009970Y-67262401D01*
X146163111Y-67151138D01*
X146289773Y-67010466D01*
X146384419Y-66846534D01*
X146442914Y-66666506D01*
X146462700Y-66478250D01*
X146442914Y-66289994D01*
X146384419Y-66109966D01*
X146289773Y-65946034D01*
X146163111Y-65805362D01*
X146163110Y-65805361D01*
X146009974Y-65694101D01*
X146009972Y-65694100D01*
X145850972Y-65623307D01*
X145797736Y-65578056D01*
X145777415Y-65511207D01*
X145783477Y-65471714D01*
X145807914Y-65396506D01*
X145827700Y-65208250D01*
X145807914Y-65019994D01*
X145749419Y-64839966D01*
X145654773Y-64676034D01*
X145528111Y-64535362D01*
X145516672Y-64527051D01*
X145374974Y-64424101D01*
X145374969Y-64424098D01*
X145202047Y-64347107D01*
X145202042Y-64347105D01*
X145056241Y-64316115D01*
X145016886Y-64307750D01*
X144827594Y-64307750D01*
X144795137Y-64314648D01*
X144642437Y-64347105D01*
X144642432Y-64347107D01*
X144469510Y-64424098D01*
X144469505Y-64424101D01*
X144360125Y-64503571D01*
X144294319Y-64527051D01*
X144226265Y-64511225D01*
X144214355Y-64503571D01*
X144104974Y-64424101D01*
X144104969Y-64424098D01*
X143932047Y-64347107D01*
X143932042Y-64347105D01*
X143786240Y-64316115D01*
X143746886Y-64307750D01*
X143557594Y-64307750D01*
X143525137Y-64314648D01*
X143372437Y-64347105D01*
X143372432Y-64347107D01*
X143199510Y-64424098D01*
X143199505Y-64424101D01*
X143046369Y-64535361D01*
X142919706Y-64676035D01*
X142825061Y-64839965D01*
X142825058Y-64839972D01*
X142766567Y-65019990D01*
X142766566Y-65019994D01*
X142762456Y-65059099D01*
X142748740Y-65189606D01*
X142746780Y-65208250D01*
X139207240Y-65208250D01*
X139207240Y-63303250D01*
X136156240Y-63303250D01*
X136089201Y-63283565D01*
X136043446Y-63230761D01*
X136032240Y-63179250D01*
X136032240Y-62033250D01*
X136396780Y-62033250D01*
X136416566Y-62221506D01*
X136416567Y-62221509D01*
X136475058Y-62401527D01*
X136475061Y-62401534D01*
X136569707Y-62565466D01*
X136667240Y-62673787D01*
X136696369Y-62706138D01*
X136849505Y-62817398D01*
X136849510Y-62817401D01*
X137022432Y-62894392D01*
X137022437Y-62894394D01*
X137207594Y-62933750D01*
X137207595Y-62933750D01*
X137396884Y-62933750D01*
X137396886Y-62933750D01*
X137582043Y-62894394D01*
X137754970Y-62817401D01*
X137864357Y-62737926D01*
X137930160Y-62714448D01*
X137998214Y-62730273D01*
X138010111Y-62737918D01*
X138107972Y-62809018D01*
X138119510Y-62817401D01*
X138292432Y-62894392D01*
X138292437Y-62894394D01*
X138477594Y-62933750D01*
X138477595Y-62933750D01*
X138666884Y-62933750D01*
X138666886Y-62933750D01*
X138852043Y-62894394D01*
X139024970Y-62817401D01*
X139134357Y-62737926D01*
X139200160Y-62714448D01*
X139268214Y-62730273D01*
X139280111Y-62737918D01*
X139377972Y-62809018D01*
X139389510Y-62817401D01*
X139562432Y-62894392D01*
X139562437Y-62894394D01*
X139747594Y-62933750D01*
X139747595Y-62933750D01*
X139936884Y-62933750D01*
X139936886Y-62933750D01*
X140122043Y-62894394D01*
X140294970Y-62817401D01*
X140404357Y-62737926D01*
X140470160Y-62714448D01*
X140538214Y-62730273D01*
X140550111Y-62737918D01*
X140647972Y-62809018D01*
X140659510Y-62817401D01*
X140832432Y-62894392D01*
X140832437Y-62894394D01*
X141017594Y-62933750D01*
X141017595Y-62933750D01*
X141206884Y-62933750D01*
X141206886Y-62933750D01*
X141392043Y-62894394D01*
X141564970Y-62817401D01*
X141674357Y-62737926D01*
X141740160Y-62714448D01*
X141808214Y-62730273D01*
X141820111Y-62737918D01*
X141917972Y-62809018D01*
X141929510Y-62817401D01*
X142102432Y-62894392D01*
X142102437Y-62894394D01*
X142287594Y-62933750D01*
X142287595Y-62933750D01*
X142476884Y-62933750D01*
X142476886Y-62933750D01*
X142662043Y-62894394D01*
X142834970Y-62817401D01*
X142944357Y-62737926D01*
X143010160Y-62714448D01*
X143078214Y-62730273D01*
X143090111Y-62737918D01*
X143187972Y-62809018D01*
X143199510Y-62817401D01*
X143372432Y-62894392D01*
X143372437Y-62894394D01*
X143557594Y-62933750D01*
X143557595Y-62933750D01*
X143746884Y-62933750D01*
X143746886Y-62933750D01*
X143932043Y-62894394D01*
X144104970Y-62817401D01*
X144214357Y-62737926D01*
X144280160Y-62714448D01*
X144348214Y-62730273D01*
X144360111Y-62737918D01*
X144457972Y-62809018D01*
X144469510Y-62817401D01*
X144642432Y-62894392D01*
X144642437Y-62894394D01*
X144827594Y-62933750D01*
X144827595Y-62933750D01*
X145016884Y-62933750D01*
X145016886Y-62933750D01*
X145202043Y-62894394D01*
X145374970Y-62817401D01*
X145484357Y-62737926D01*
X145550160Y-62714448D01*
X145618214Y-62730273D01*
X145630111Y-62737918D01*
X145727972Y-62809018D01*
X145739510Y-62817401D01*
X145912432Y-62894392D01*
X145912437Y-62894394D01*
X146097594Y-62933750D01*
X146097595Y-62933750D01*
X146286884Y-62933750D01*
X146286886Y-62933750D01*
X146472043Y-62894394D01*
X146644970Y-62817401D01*
X146798111Y-62706138D01*
X146924773Y-62565466D01*
X147019419Y-62401534D01*
X147077914Y-62221506D01*
X147097700Y-62033250D01*
X147077914Y-61844994D01*
X147019419Y-61664966D01*
X146924773Y-61501034D01*
X146798111Y-61360362D01*
X146786672Y-61352051D01*
X146644974Y-61249101D01*
X146644969Y-61249098D01*
X146472047Y-61172107D01*
X146472042Y-61172105D01*
X146326240Y-61141115D01*
X146286886Y-61132750D01*
X146097594Y-61132750D01*
X146065137Y-61139648D01*
X145912437Y-61172105D01*
X145912432Y-61172107D01*
X145739510Y-61249098D01*
X145739505Y-61249101D01*
X145630125Y-61328571D01*
X145564319Y-61352051D01*
X145496265Y-61336225D01*
X145484355Y-61328571D01*
X145374974Y-61249101D01*
X145374969Y-61249098D01*
X145202047Y-61172107D01*
X145202042Y-61172105D01*
X145056241Y-61141115D01*
X145016886Y-61132750D01*
X144827594Y-61132750D01*
X144795137Y-61139648D01*
X144642437Y-61172105D01*
X144642432Y-61172107D01*
X144469510Y-61249098D01*
X144469505Y-61249101D01*
X144360125Y-61328571D01*
X144294319Y-61352051D01*
X144226265Y-61336225D01*
X144214355Y-61328571D01*
X144104974Y-61249101D01*
X144104969Y-61249098D01*
X143932047Y-61172107D01*
X143932042Y-61172105D01*
X143786241Y-61141115D01*
X143746886Y-61132750D01*
X143557594Y-61132750D01*
X143525137Y-61139648D01*
X143372437Y-61172105D01*
X143372432Y-61172107D01*
X143199510Y-61249098D01*
X143199505Y-61249101D01*
X143090125Y-61328571D01*
X143024319Y-61352051D01*
X142956265Y-61336225D01*
X142944355Y-61328571D01*
X142834974Y-61249101D01*
X142834969Y-61249098D01*
X142662047Y-61172107D01*
X142662042Y-61172105D01*
X142516240Y-61141115D01*
X142476886Y-61132750D01*
X142287594Y-61132750D01*
X142255137Y-61139648D01*
X142102437Y-61172105D01*
X142102432Y-61172107D01*
X141929510Y-61249098D01*
X141929505Y-61249101D01*
X141820125Y-61328571D01*
X141754319Y-61352051D01*
X141686265Y-61336225D01*
X141674355Y-61328571D01*
X141564974Y-61249101D01*
X141564969Y-61249098D01*
X141392047Y-61172107D01*
X141392042Y-61172105D01*
X141246241Y-61141115D01*
X141206886Y-61132750D01*
X141017594Y-61132750D01*
X140985137Y-61139648D01*
X140832437Y-61172105D01*
X140832432Y-61172107D01*
X140659510Y-61249098D01*
X140659505Y-61249101D01*
X140550125Y-61328571D01*
X140484319Y-61352051D01*
X140416265Y-61336225D01*
X140404355Y-61328571D01*
X140294974Y-61249101D01*
X140294969Y-61249098D01*
X140122047Y-61172107D01*
X140122042Y-61172105D01*
X139976240Y-61141115D01*
X139936886Y-61132750D01*
X139747594Y-61132750D01*
X139715137Y-61139648D01*
X139562437Y-61172105D01*
X139562432Y-61172107D01*
X139389510Y-61249098D01*
X139389505Y-61249101D01*
X139280125Y-61328571D01*
X139214319Y-61352051D01*
X139146265Y-61336225D01*
X139134355Y-61328571D01*
X139024974Y-61249101D01*
X139024969Y-61249098D01*
X138852047Y-61172107D01*
X138852042Y-61172105D01*
X138706240Y-61141115D01*
X138666886Y-61132750D01*
X138477594Y-61132750D01*
X138445137Y-61139648D01*
X138292437Y-61172105D01*
X138292432Y-61172107D01*
X138119510Y-61249098D01*
X138119505Y-61249101D01*
X138010125Y-61328571D01*
X137944319Y-61352051D01*
X137876265Y-61336225D01*
X137864355Y-61328571D01*
X137754974Y-61249101D01*
X137754969Y-61249098D01*
X137582047Y-61172107D01*
X137582042Y-61172105D01*
X137436240Y-61141115D01*
X137396886Y-61132750D01*
X137207594Y-61132750D01*
X137175137Y-61139648D01*
X137022437Y-61172105D01*
X137022432Y-61172107D01*
X136849510Y-61249098D01*
X136849505Y-61249101D01*
X136696369Y-61360361D01*
X136569706Y-61501035D01*
X136475061Y-61664965D01*
X136475058Y-61664972D01*
X136428876Y-61807107D01*
X136416566Y-61844994D01*
X136396780Y-62033250D01*
X136032240Y-62033250D01*
X136032240Y-60081750D01*
X147826780Y-60081750D01*
X147846566Y-60270006D01*
X147846567Y-60270009D01*
X147905058Y-60450027D01*
X147905061Y-60450034D01*
X147999707Y-60613966D01*
X148030071Y-60647688D01*
X148126369Y-60754638D01*
X148279505Y-60865898D01*
X148279510Y-60865901D01*
X148452432Y-60942892D01*
X148452437Y-60942894D01*
X148637594Y-60982250D01*
X148637595Y-60982250D01*
X148826884Y-60982250D01*
X148826886Y-60982250D01*
X149012043Y-60942894D01*
X149184970Y-60865901D01*
X149184974Y-60865898D01*
X149189803Y-60863748D01*
X149259053Y-60854462D01*
X149290677Y-60863748D01*
X149295505Y-60865898D01*
X149295510Y-60865901D01*
X149468437Y-60942894D01*
X149653594Y-60982250D01*
X149653595Y-60982250D01*
X149842881Y-60982250D01*
X149842886Y-60982250D01*
X149845763Y-60981638D01*
X149847467Y-60981768D01*
X149849343Y-60981571D01*
X149849379Y-60981913D01*
X149915427Y-60986946D01*
X149971165Y-61029076D01*
X149995278Y-61094653D01*
X149980109Y-61162857D01*
X149978942Y-61164923D01*
X149937062Y-61237463D01*
X149937058Y-61237472D01*
X149897129Y-61360362D01*
X149878566Y-61417494D01*
X149858780Y-61605750D01*
X149878566Y-61794006D01*
X149878567Y-61794009D01*
X149937058Y-61974027D01*
X149937061Y-61974034D01*
X150031707Y-62137966D01*
X150106927Y-62221506D01*
X150158369Y-62278638D01*
X150311505Y-62389898D01*
X150311510Y-62389901D01*
X150484432Y-62466892D01*
X150484437Y-62466894D01*
X150669594Y-62506250D01*
X150669595Y-62506250D01*
X150858884Y-62506250D01*
X150858886Y-62506250D01*
X151044043Y-62466894D01*
X151216970Y-62389901D01*
X151355737Y-62289080D01*
X151421540Y-62265602D01*
X151489594Y-62281427D01*
X151538289Y-62331533D01*
X151552165Y-62400011D01*
X151546551Y-62427717D01*
X151529567Y-62479989D01*
X151529567Y-62479990D01*
X151529566Y-62479994D01*
X151509780Y-62668250D01*
X151529566Y-62856506D01*
X151529567Y-62856509D01*
X151588058Y-63036527D01*
X151588061Y-63036534D01*
X151682707Y-63200466D01*
X151809368Y-63341138D01*
X151809369Y-63341138D01*
X151962505Y-63452398D01*
X151962510Y-63452401D01*
X152135432Y-63529392D01*
X152135437Y-63529394D01*
X152320594Y-63568750D01*
X152320595Y-63568750D01*
X152509884Y-63568750D01*
X152509886Y-63568750D01*
X152695043Y-63529394D01*
X152867970Y-63452401D01*
X153021111Y-63341138D01*
X153147773Y-63200466D01*
X153242419Y-63036534D01*
X153300914Y-62856506D01*
X153320700Y-62668250D01*
X153300914Y-62479994D01*
X153242419Y-62299966D01*
X153147773Y-62136034D01*
X153021111Y-61995362D01*
X153006735Y-61984917D01*
X152867974Y-61884101D01*
X152867969Y-61884098D01*
X152695047Y-61807107D01*
X152695042Y-61807105D01*
X152549241Y-61776115D01*
X152509886Y-61767750D01*
X152320594Y-61767750D01*
X152288137Y-61774648D01*
X152135437Y-61807105D01*
X152135432Y-61807107D01*
X151962510Y-61884098D01*
X151962505Y-61884101D01*
X151823744Y-61984917D01*
X151757938Y-62008397D01*
X151689884Y-61992571D01*
X151641189Y-61942465D01*
X151627314Y-61873987D01*
X151632925Y-61846290D01*
X151649914Y-61794006D01*
X151669700Y-61605750D01*
X151649914Y-61417494D01*
X151591419Y-61237466D01*
X151496773Y-61073534D01*
X151370111Y-60932862D01*
X151370110Y-60932861D01*
X151365762Y-60928032D01*
X151367612Y-60926366D01*
X151336837Y-60876417D01*
X151338165Y-60806560D01*
X151367451Y-60760989D01*
X151365762Y-60759468D01*
X151370111Y-60754638D01*
X151496773Y-60613966D01*
X151591419Y-60450034D01*
X151649914Y-60270006D01*
X151669700Y-60081750D01*
X151649914Y-59893494D01*
X151591419Y-59713466D01*
X151496773Y-59549534D01*
X151370111Y-59408862D01*
X151370110Y-59408861D01*
X151216974Y-59297601D01*
X151216969Y-59297598D01*
X151044047Y-59220607D01*
X151044042Y-59220605D01*
X150898240Y-59189615D01*
X150858886Y-59181250D01*
X150669594Y-59181250D01*
X150637137Y-59188148D01*
X150484437Y-59220605D01*
X150484432Y-59220607D01*
X150306676Y-59299751D01*
X150237426Y-59309036D01*
X150205804Y-59299751D01*
X150028047Y-59220607D01*
X150028042Y-59220605D01*
X149882240Y-59189615D01*
X149842886Y-59181250D01*
X149653594Y-59181250D01*
X149621137Y-59188148D01*
X149468437Y-59220605D01*
X149468432Y-59220607D01*
X149290676Y-59299751D01*
X149221426Y-59309036D01*
X149189804Y-59299751D01*
X149012047Y-59220607D01*
X149012042Y-59220605D01*
X148866240Y-59189615D01*
X148826886Y-59181250D01*
X148637594Y-59181250D01*
X148605137Y-59188148D01*
X148452437Y-59220605D01*
X148452432Y-59220607D01*
X148279510Y-59297598D01*
X148279505Y-59297601D01*
X148126369Y-59408861D01*
X147999706Y-59549535D01*
X147905061Y-59713465D01*
X147905058Y-59713472D01*
X147848703Y-59886917D01*
X147846566Y-59893494D01*
X147826780Y-60081750D01*
X136032240Y-60081750D01*
X136032240Y-57287750D01*
X147064780Y-57287750D01*
X147084566Y-57476006D01*
X147084567Y-57476009D01*
X147143058Y-57656027D01*
X147143061Y-57656034D01*
X147237707Y-57819966D01*
X147364369Y-57960638D01*
X147517505Y-58071898D01*
X147517510Y-58071901D01*
X147690432Y-58148892D01*
X147690437Y-58148894D01*
X147875594Y-58188250D01*
X147875595Y-58188250D01*
X148064884Y-58188250D01*
X148064886Y-58188250D01*
X148250043Y-58148894D01*
X148422970Y-58071901D01*
X148576111Y-57960638D01*
X148702773Y-57819966D01*
X148797419Y-57656034D01*
X148855914Y-57476006D01*
X148875700Y-57287750D01*
X148855914Y-57099494D01*
X148797419Y-56919466D01*
X148702773Y-56755534D01*
X148576111Y-56614862D01*
X148500026Y-56559583D01*
X148422974Y-56503601D01*
X148422969Y-56503598D01*
X148250047Y-56426607D01*
X148250042Y-56426605D01*
X148104241Y-56395615D01*
X148064886Y-56387250D01*
X147875594Y-56387250D01*
X147843137Y-56394148D01*
X147690437Y-56426605D01*
X147690432Y-56426607D01*
X147517510Y-56503598D01*
X147517505Y-56503601D01*
X147364369Y-56614861D01*
X147237706Y-56755535D01*
X147143061Y-56919465D01*
X147143058Y-56919472D01*
X147084567Y-57099490D01*
X147084566Y-57099494D01*
X147064780Y-57287750D01*
X136032240Y-57287750D01*
X136032240Y-55048250D01*
X152652780Y-55048250D01*
X152672566Y-55236506D01*
X152672567Y-55236509D01*
X152731058Y-55416527D01*
X152731061Y-55416534D01*
X152825707Y-55580466D01*
X152923240Y-55688787D01*
X152952369Y-55721138D01*
X153105505Y-55832398D01*
X153105510Y-55832401D01*
X153278432Y-55909392D01*
X153278437Y-55909394D01*
X153463594Y-55948750D01*
X153463595Y-55948750D01*
X153652884Y-55948750D01*
X153652886Y-55948750D01*
X153838043Y-55909394D01*
X154010970Y-55832401D01*
X154120357Y-55752926D01*
X154186160Y-55729448D01*
X154254214Y-55745273D01*
X154266111Y-55752918D01*
X154329279Y-55798812D01*
X154375510Y-55832401D01*
X154548432Y-55909392D01*
X154548437Y-55909394D01*
X154733594Y-55948750D01*
X154733595Y-55948750D01*
X154922884Y-55948750D01*
X154922886Y-55948750D01*
X155108043Y-55909394D01*
X155280970Y-55832401D01*
X155390357Y-55752926D01*
X155456160Y-55729448D01*
X155524214Y-55745273D01*
X155536111Y-55752918D01*
X155599279Y-55798812D01*
X155645510Y-55832401D01*
X155818432Y-55909392D01*
X155818437Y-55909394D01*
X156003594Y-55948750D01*
X156003595Y-55948750D01*
X156192884Y-55948750D01*
X156192886Y-55948750D01*
X156378043Y-55909394D01*
X156550970Y-55832401D01*
X156660357Y-55752926D01*
X156726160Y-55729448D01*
X156794214Y-55745273D01*
X156806111Y-55752918D01*
X156869279Y-55798812D01*
X156915510Y-55832401D01*
X157088432Y-55909392D01*
X157088437Y-55909394D01*
X157273594Y-55948750D01*
X157273595Y-55948750D01*
X157462884Y-55948750D01*
X157462886Y-55948750D01*
X157648043Y-55909394D01*
X157820970Y-55832401D01*
X157930357Y-55752926D01*
X157996160Y-55729448D01*
X158064214Y-55745273D01*
X158076111Y-55752918D01*
X158139279Y-55798812D01*
X158185510Y-55832401D01*
X158358432Y-55909392D01*
X158358437Y-55909394D01*
X158543594Y-55948750D01*
X158543595Y-55948750D01*
X158732884Y-55948750D01*
X158732886Y-55948750D01*
X158918043Y-55909394D01*
X159090970Y-55832401D01*
X159200357Y-55752926D01*
X159266160Y-55729448D01*
X159334214Y-55745273D01*
X159346111Y-55752918D01*
X159409279Y-55798812D01*
X159455510Y-55832401D01*
X159628432Y-55909392D01*
X159628437Y-55909394D01*
X159813594Y-55948750D01*
X159813595Y-55948750D01*
X160002884Y-55948750D01*
X160002886Y-55948750D01*
X160188043Y-55909394D01*
X160360970Y-55832401D01*
X160470357Y-55752926D01*
X160536160Y-55729448D01*
X160604214Y-55745273D01*
X160616111Y-55752918D01*
X160679279Y-55798812D01*
X160725510Y-55832401D01*
X160898432Y-55909392D01*
X160898437Y-55909394D01*
X161083594Y-55948750D01*
X161083595Y-55948750D01*
X161272884Y-55948750D01*
X161272886Y-55948750D01*
X161458043Y-55909394D01*
X161630970Y-55832401D01*
X161784111Y-55721138D01*
X161910773Y-55580466D01*
X162005419Y-55416534D01*
X162063914Y-55236506D01*
X162083700Y-55048250D01*
X162063914Y-54859994D01*
X162005419Y-54679966D01*
X161910773Y-54516034D01*
X161784111Y-54375362D01*
X161772672Y-54367051D01*
X161630974Y-54264101D01*
X161630969Y-54264098D01*
X161458047Y-54187107D01*
X161458042Y-54187105D01*
X161312241Y-54156115D01*
X161272886Y-54147750D01*
X161083594Y-54147750D01*
X161051137Y-54154648D01*
X160898437Y-54187105D01*
X160898432Y-54187107D01*
X160725510Y-54264098D01*
X160725505Y-54264101D01*
X160616125Y-54343571D01*
X160550319Y-54367051D01*
X160482265Y-54351225D01*
X160470355Y-54343571D01*
X160360974Y-54264101D01*
X160360969Y-54264098D01*
X160188047Y-54187107D01*
X160188042Y-54187105D01*
X160042241Y-54156115D01*
X160002886Y-54147750D01*
X159813594Y-54147750D01*
X159781137Y-54154648D01*
X159628437Y-54187105D01*
X159628432Y-54187107D01*
X159455510Y-54264098D01*
X159455505Y-54264101D01*
X159346125Y-54343571D01*
X159280319Y-54367051D01*
X159212265Y-54351225D01*
X159200355Y-54343571D01*
X159090974Y-54264101D01*
X159090969Y-54264098D01*
X158918047Y-54187107D01*
X158918042Y-54187105D01*
X158772240Y-54156115D01*
X158732886Y-54147750D01*
X158543594Y-54147750D01*
X158511137Y-54154648D01*
X158358437Y-54187105D01*
X158358432Y-54187107D01*
X158185510Y-54264098D01*
X158185505Y-54264101D01*
X158076125Y-54343571D01*
X158010319Y-54367051D01*
X157942265Y-54351225D01*
X157930355Y-54343571D01*
X157820974Y-54264101D01*
X157820969Y-54264098D01*
X157648047Y-54187107D01*
X157648042Y-54187105D01*
X157502241Y-54156115D01*
X157462886Y-54147750D01*
X157273594Y-54147750D01*
X157241137Y-54154648D01*
X157088437Y-54187105D01*
X157088432Y-54187107D01*
X156915510Y-54264098D01*
X156915505Y-54264101D01*
X156806125Y-54343571D01*
X156740319Y-54367051D01*
X156672265Y-54351225D01*
X156660355Y-54343571D01*
X156550974Y-54264101D01*
X156550969Y-54264098D01*
X156378047Y-54187107D01*
X156378042Y-54187105D01*
X156232240Y-54156115D01*
X156192886Y-54147750D01*
X156003594Y-54147750D01*
X155971137Y-54154648D01*
X155818437Y-54187105D01*
X155818432Y-54187107D01*
X155645510Y-54264098D01*
X155645505Y-54264101D01*
X155536125Y-54343571D01*
X155470319Y-54367051D01*
X155402265Y-54351225D01*
X155390355Y-54343571D01*
X155280974Y-54264101D01*
X155280969Y-54264098D01*
X155108047Y-54187107D01*
X155108042Y-54187105D01*
X154962240Y-54156115D01*
X154922886Y-54147750D01*
X154733594Y-54147750D01*
X154701137Y-54154648D01*
X154548437Y-54187105D01*
X154548432Y-54187107D01*
X154375510Y-54264098D01*
X154375505Y-54264101D01*
X154266125Y-54343571D01*
X154200319Y-54367051D01*
X154132265Y-54351225D01*
X154120355Y-54343571D01*
X154010974Y-54264101D01*
X154010969Y-54264098D01*
X153838047Y-54187107D01*
X153838042Y-54187105D01*
X153692241Y-54156115D01*
X153652886Y-54147750D01*
X153463594Y-54147750D01*
X153431137Y-54154648D01*
X153278437Y-54187105D01*
X153278432Y-54187107D01*
X153105510Y-54264098D01*
X153105505Y-54264101D01*
X152952369Y-54375361D01*
X152825706Y-54516035D01*
X152731061Y-54679965D01*
X152731058Y-54679972D01*
X152685623Y-54819808D01*
X152672566Y-54859994D01*
X152652780Y-55048250D01*
X136032240Y-55048250D01*
X136032240Y-51873250D01*
X153922780Y-51873250D01*
X153942566Y-52061506D01*
X153942567Y-52061509D01*
X154001058Y-52241527D01*
X154001061Y-52241534D01*
X154095707Y-52405466D01*
X154178114Y-52496988D01*
X154222369Y-52546138D01*
X154375505Y-52657398D01*
X154375510Y-52657401D01*
X154548432Y-52734392D01*
X154548437Y-52734394D01*
X154733594Y-52773750D01*
X154733595Y-52773750D01*
X154922884Y-52773750D01*
X154922886Y-52773750D01*
X155108043Y-52734394D01*
X155280970Y-52657401D01*
X155390357Y-52577926D01*
X155456160Y-52554448D01*
X155524214Y-52570273D01*
X155536111Y-52577918D01*
X155645506Y-52657398D01*
X155645510Y-52657401D01*
X155818432Y-52734392D01*
X155818437Y-52734394D01*
X156003594Y-52773750D01*
X156003595Y-52773750D01*
X156192884Y-52773750D01*
X156192886Y-52773750D01*
X156378043Y-52734394D01*
X156550970Y-52657401D01*
X156660357Y-52577926D01*
X156726160Y-52554448D01*
X156794214Y-52570273D01*
X156806111Y-52577918D01*
X156915506Y-52657398D01*
X156915510Y-52657401D01*
X157088432Y-52734392D01*
X157088437Y-52734394D01*
X157273594Y-52773750D01*
X157273595Y-52773750D01*
X157462884Y-52773750D01*
X157462886Y-52773750D01*
X157648043Y-52734394D01*
X157820970Y-52657401D01*
X157930357Y-52577926D01*
X157996160Y-52554448D01*
X158064214Y-52570273D01*
X158076111Y-52577918D01*
X158185506Y-52657398D01*
X158185510Y-52657401D01*
X158358432Y-52734392D01*
X158358437Y-52734394D01*
X158543594Y-52773750D01*
X158543595Y-52773750D01*
X158732884Y-52773750D01*
X158732886Y-52773750D01*
X158918043Y-52734394D01*
X159090970Y-52657401D01*
X159200357Y-52577926D01*
X159266160Y-52554448D01*
X159334214Y-52570273D01*
X159346111Y-52577918D01*
X159455506Y-52657398D01*
X159455510Y-52657401D01*
X159628432Y-52734392D01*
X159628437Y-52734394D01*
X159813594Y-52773750D01*
X159813595Y-52773750D01*
X160002884Y-52773750D01*
X160002886Y-52773750D01*
X160188043Y-52734394D01*
X160360970Y-52657401D01*
X160514111Y-52546138D01*
X160640773Y-52405466D01*
X160735419Y-52241534D01*
X160793914Y-52061506D01*
X160813700Y-51873250D01*
X160793914Y-51684994D01*
X160735419Y-51504966D01*
X160640773Y-51341034D01*
X160514111Y-51200362D01*
X160502672Y-51192051D01*
X160360974Y-51089101D01*
X160360969Y-51089098D01*
X160188047Y-51012107D01*
X160188042Y-51012105D01*
X160042241Y-50981115D01*
X160002886Y-50972750D01*
X159813594Y-50972750D01*
X159781137Y-50979648D01*
X159628437Y-51012105D01*
X159628432Y-51012107D01*
X159455510Y-51089098D01*
X159455505Y-51089101D01*
X159346125Y-51168571D01*
X159280319Y-51192051D01*
X159212265Y-51176225D01*
X159200355Y-51168571D01*
X159090974Y-51089101D01*
X159090969Y-51089098D01*
X158918047Y-51012107D01*
X158918042Y-51012105D01*
X158772240Y-50981115D01*
X158732886Y-50972750D01*
X158543594Y-50972750D01*
X158511137Y-50979648D01*
X158358437Y-51012105D01*
X158358432Y-51012107D01*
X158185510Y-51089098D01*
X158185505Y-51089101D01*
X158076125Y-51168571D01*
X158010319Y-51192051D01*
X157942265Y-51176225D01*
X157930355Y-51168571D01*
X157820974Y-51089101D01*
X157820969Y-51089098D01*
X157648047Y-51012107D01*
X157648042Y-51012105D01*
X157502241Y-50981115D01*
X157462886Y-50972750D01*
X157273594Y-50972750D01*
X157241137Y-50979648D01*
X157088437Y-51012105D01*
X157088432Y-51012107D01*
X156915510Y-51089098D01*
X156915505Y-51089101D01*
X156806125Y-51168571D01*
X156740319Y-51192051D01*
X156672265Y-51176225D01*
X156660355Y-51168571D01*
X156550974Y-51089101D01*
X156550969Y-51089098D01*
X156378047Y-51012107D01*
X156378042Y-51012105D01*
X156232240Y-50981115D01*
X156192886Y-50972750D01*
X156003594Y-50972750D01*
X155971137Y-50979648D01*
X155818437Y-51012105D01*
X155818432Y-51012107D01*
X155645510Y-51089098D01*
X155645505Y-51089101D01*
X155536125Y-51168571D01*
X155470319Y-51192051D01*
X155402265Y-51176225D01*
X155390355Y-51168571D01*
X155280974Y-51089101D01*
X155280969Y-51089098D01*
X155108047Y-51012107D01*
X155108042Y-51012105D01*
X154962240Y-50981115D01*
X154922886Y-50972750D01*
X154733594Y-50972750D01*
X154701137Y-50979648D01*
X154548437Y-51012105D01*
X154548432Y-51012107D01*
X154375510Y-51089098D01*
X154375505Y-51089101D01*
X154222369Y-51200361D01*
X154095706Y-51341035D01*
X154001061Y-51504965D01*
X154001058Y-51504972D01*
X153962686Y-51623071D01*
X153942566Y-51684994D01*
X153922780Y-51873250D01*
X136032240Y-51873250D01*
X136032240Y-50603250D01*
X126454030Y-50603250D01*
X126386991Y-50583565D01*
X126341236Y-50530761D01*
X126331292Y-50461603D01*
X126360317Y-50398047D01*
X126361781Y-50396388D01*
X126762138Y-49950681D01*
X127530545Y-49154339D01*
X128003215Y-48698250D01*
X152652780Y-48698250D01*
X152672566Y-48886506D01*
X152672567Y-48886509D01*
X152731058Y-49066527D01*
X152731061Y-49066534D01*
X152825707Y-49230466D01*
X152923240Y-49338787D01*
X152952369Y-49371138D01*
X153105505Y-49482398D01*
X153105510Y-49482401D01*
X153278432Y-49559392D01*
X153278437Y-49559394D01*
X153463594Y-49598750D01*
X153463595Y-49598750D01*
X153652884Y-49598750D01*
X153652886Y-49598750D01*
X153838043Y-49559394D01*
X154010970Y-49482401D01*
X154120357Y-49402926D01*
X154186160Y-49379448D01*
X154254214Y-49395273D01*
X154266111Y-49402918D01*
X154375506Y-49482398D01*
X154375510Y-49482401D01*
X154548432Y-49559392D01*
X154548437Y-49559394D01*
X154733594Y-49598750D01*
X154733595Y-49598750D01*
X154922884Y-49598750D01*
X154922886Y-49598750D01*
X155108043Y-49559394D01*
X155280970Y-49482401D01*
X155390357Y-49402926D01*
X155456160Y-49379448D01*
X155524214Y-49395273D01*
X155536111Y-49402918D01*
X155645506Y-49482398D01*
X155645510Y-49482401D01*
X155818432Y-49559392D01*
X155818437Y-49559394D01*
X156003594Y-49598750D01*
X156003595Y-49598750D01*
X156192884Y-49598750D01*
X156192886Y-49598750D01*
X156378043Y-49559394D01*
X156550970Y-49482401D01*
X156660357Y-49402926D01*
X156726160Y-49379448D01*
X156794214Y-49395273D01*
X156806111Y-49402918D01*
X156915506Y-49482398D01*
X156915510Y-49482401D01*
X157088432Y-49559392D01*
X157088437Y-49559394D01*
X157273594Y-49598750D01*
X157273595Y-49598750D01*
X157462884Y-49598750D01*
X157462886Y-49598750D01*
X157648043Y-49559394D01*
X157820970Y-49482401D01*
X157930357Y-49402926D01*
X157996160Y-49379448D01*
X158064214Y-49395273D01*
X158076111Y-49402918D01*
X158185506Y-49482398D01*
X158185510Y-49482401D01*
X158358432Y-49559392D01*
X158358437Y-49559394D01*
X158543594Y-49598750D01*
X158543595Y-49598750D01*
X158732884Y-49598750D01*
X158732886Y-49598750D01*
X158918043Y-49559394D01*
X159090970Y-49482401D01*
X159200357Y-49402926D01*
X159266160Y-49379448D01*
X159334214Y-49395273D01*
X159346111Y-49402918D01*
X159455506Y-49482398D01*
X159455510Y-49482401D01*
X159628432Y-49559392D01*
X159628437Y-49559394D01*
X159813594Y-49598750D01*
X159813595Y-49598750D01*
X160002884Y-49598750D01*
X160002886Y-49598750D01*
X160188043Y-49559394D01*
X160360970Y-49482401D01*
X160470357Y-49402926D01*
X160536160Y-49379448D01*
X160604214Y-49395273D01*
X160616111Y-49402918D01*
X160725506Y-49482398D01*
X160725510Y-49482401D01*
X160898432Y-49559392D01*
X160898437Y-49559394D01*
X161083594Y-49598750D01*
X161083595Y-49598750D01*
X161272884Y-49598750D01*
X161272886Y-49598750D01*
X161458043Y-49559394D01*
X161630970Y-49482401D01*
X161784111Y-49371138D01*
X161910773Y-49230466D01*
X162005419Y-49066534D01*
X162063914Y-48886506D01*
X162083700Y-48698250D01*
X162063914Y-48509994D01*
X162005419Y-48329966D01*
X161910773Y-48166034D01*
X161784111Y-48025362D01*
X161772672Y-48017051D01*
X161630974Y-47914101D01*
X161630969Y-47914098D01*
X161458047Y-47837107D01*
X161458042Y-47837105D01*
X161312241Y-47806115D01*
X161272886Y-47797750D01*
X161083594Y-47797750D01*
X161051137Y-47804648D01*
X160898437Y-47837105D01*
X160898432Y-47837107D01*
X160725510Y-47914098D01*
X160725505Y-47914101D01*
X160616125Y-47993571D01*
X160550319Y-48017051D01*
X160482265Y-48001225D01*
X160470355Y-47993571D01*
X160360974Y-47914101D01*
X160360969Y-47914098D01*
X160188047Y-47837107D01*
X160188042Y-47837105D01*
X160042240Y-47806115D01*
X160002886Y-47797750D01*
X159813594Y-47797750D01*
X159781137Y-47804648D01*
X159628437Y-47837105D01*
X159628432Y-47837107D01*
X159455510Y-47914098D01*
X159455505Y-47914101D01*
X159346125Y-47993571D01*
X159280319Y-48017051D01*
X159212265Y-48001225D01*
X159200355Y-47993571D01*
X159090974Y-47914101D01*
X159090969Y-47914098D01*
X158918047Y-47837107D01*
X158918042Y-47837105D01*
X158772240Y-47806115D01*
X158732886Y-47797750D01*
X158543594Y-47797750D01*
X158511137Y-47804648D01*
X158358437Y-47837105D01*
X158358432Y-47837107D01*
X158185510Y-47914098D01*
X158185505Y-47914101D01*
X158076125Y-47993571D01*
X158010319Y-48017051D01*
X157942265Y-48001225D01*
X157930355Y-47993571D01*
X157820974Y-47914101D01*
X157820969Y-47914098D01*
X157648047Y-47837107D01*
X157648042Y-47837105D01*
X157502241Y-47806115D01*
X157462886Y-47797750D01*
X157273594Y-47797750D01*
X157241137Y-47804648D01*
X157088437Y-47837105D01*
X157088432Y-47837107D01*
X156915510Y-47914098D01*
X156915505Y-47914101D01*
X156806125Y-47993571D01*
X156740319Y-48017051D01*
X156672265Y-48001225D01*
X156660355Y-47993571D01*
X156550974Y-47914101D01*
X156550969Y-47914098D01*
X156378047Y-47837107D01*
X156378042Y-47837105D01*
X156232241Y-47806115D01*
X156192886Y-47797750D01*
X156003594Y-47797750D01*
X155971137Y-47804648D01*
X155818437Y-47837105D01*
X155818432Y-47837107D01*
X155645510Y-47914098D01*
X155645505Y-47914101D01*
X155536125Y-47993571D01*
X155470319Y-48017051D01*
X155402265Y-48001225D01*
X155390355Y-47993571D01*
X155280974Y-47914101D01*
X155280969Y-47914098D01*
X155108047Y-47837107D01*
X155108042Y-47837105D01*
X154962240Y-47806115D01*
X154922886Y-47797750D01*
X154733594Y-47797750D01*
X154701137Y-47804648D01*
X154548437Y-47837105D01*
X154548432Y-47837107D01*
X154375510Y-47914098D01*
X154375505Y-47914101D01*
X154266125Y-47993571D01*
X154200319Y-48017051D01*
X154132265Y-48001225D01*
X154120355Y-47993571D01*
X154010974Y-47914101D01*
X154010969Y-47914098D01*
X153838047Y-47837107D01*
X153838042Y-47837105D01*
X153692240Y-47806115D01*
X153652886Y-47797750D01*
X153463594Y-47797750D01*
X153431137Y-47804648D01*
X153278437Y-47837105D01*
X153278432Y-47837107D01*
X153105510Y-47914098D01*
X153105505Y-47914101D01*
X152952369Y-48025361D01*
X152825706Y-48166035D01*
X152731061Y-48329965D01*
X152731058Y-48329972D01*
X152712876Y-48385932D01*
X152672566Y-48509994D01*
X152652780Y-48698250D01*
X128003215Y-48698250D01*
X128326887Y-48385932D01*
X129150147Y-47646437D01*
X129999277Y-46936798D01*
X130873194Y-46257918D01*
X131770785Y-45610663D01*
X132163768Y-45348080D01*
X132453526Y-45154469D01*
X132520203Y-45133592D01*
X132587583Y-45152077D01*
X132628821Y-45193901D01*
X132830371Y-45530728D01*
X132830375Y-45530734D01*
X133085782Y-45878826D01*
X133232214Y-46043515D01*
X133372665Y-46201476D01*
X133688501Y-46495844D01*
X133688510Y-46495852D01*
X134030504Y-46759336D01*
X134030511Y-46759341D01*
X134030514Y-46759343D01*
X134395699Y-46989658D01*
X134780846Y-47184764D01*
X135170420Y-47338162D01*
X135182576Y-47342949D01*
X135317113Y-47381830D01*
X135597343Y-47462817D01*
X135597347Y-47462817D01*
X135597347Y-47462818D01*
X136021512Y-47543320D01*
X136021513Y-47543320D01*
X136021518Y-47543321D01*
X136451367Y-47583750D01*
X136451369Y-47583750D01*
X136775120Y-47583750D01*
X136802356Y-47582471D01*
X137098512Y-47568575D01*
X137380669Y-47528620D01*
X137525981Y-47508044D01*
X137525984Y-47508043D01*
X137525993Y-47508042D01*
X137945928Y-47407745D01*
X138354626Y-47268566D01*
X138748495Y-47091727D01*
X139124074Y-46878782D01*
X139478062Y-46631603D01*
X139807348Y-46352363D01*
X140109039Y-46043515D01*
X140380484Y-45707773D01*
X140619296Y-45348087D01*
X140720051Y-45160250D01*
X140823370Y-44967634D01*
X140823371Y-44967629D01*
X140823377Y-44967620D01*
X140990935Y-44569713D01*
X141077308Y-44295147D01*
X141120493Y-44157872D01*
X141120493Y-44157869D01*
X141120495Y-44157865D01*
X141210920Y-43735695D01*
X141261415Y-43306911D01*
X141271536Y-42875284D01*
X141241195Y-42444605D01*
X141170657Y-42018660D01*
X141060544Y-41601192D01*
X140985335Y-41396220D01*
X140980722Y-41326503D01*
X141014533Y-41265359D01*
X141068936Y-41233925D01*
X141784124Y-41037724D01*
X142861084Y-40783232D01*
X143946442Y-40567341D01*
X145038813Y-40390326D01*
X146136807Y-40252414D01*
X147239023Y-40153779D01*
X148344057Y-40094548D01*
X149450502Y-40074796D01*
X150556947Y-40094548D01*
G37*
%TD.AperFunction*%
%TD*%
M02*
