%TF.GenerationSoftware,KiCad,Pcbnew,7.0.6*%
%TF.CreationDate,2023-12-21T21:59:25+03:00*%
%TF.ProjectId,_______ _____,21383b3e-3230-44f2-903f-3b3042302e6b,rev?*%
%TF.SameCoordinates,Original*%
%TF.FileFunction,Soldermask,Top*%
%TF.FilePolarity,Negative*%
%FSLAX46Y46*%
G04 Gerber Fmt 4.6, Leading zero omitted, Abs format (unit mm)*
G04 Created by KiCad (PCBNEW 7.0.6) date 2023-12-21 21:59:25*
%MOMM*%
%LPD*%
G01*
G04 APERTURE LIST*
G04 Aperture macros list*
%AMRoundRect*
0 Rectangle with rounded corners*
0 $1 Rounding radius*
0 $2 $3 $4 $5 $6 $7 $8 $9 X,Y pos of 4 corners*
0 Add a 4 corners polygon primitive as box body*
4,1,4,$2,$3,$4,$5,$6,$7,$8,$9,$2,$3,0*
0 Add four circle primitives for the rounded corners*
1,1,$1+$1,$2,$3*
1,1,$1+$1,$4,$5*
1,1,$1+$1,$6,$7*
1,1,$1+$1,$8,$9*
0 Add four rect primitives between the rounded corners*
20,1,$1+$1,$2,$3,$4,$5,0*
20,1,$1+$1,$4,$5,$6,$7,0*
20,1,$1+$1,$6,$7,$8,$9,0*
20,1,$1+$1,$8,$9,$2,$3,0*%
G04 Aperture macros list end*
%ADD10R,2.800000X0.900000*%
%ADD11R,1.550000X10.100000*%
%ADD12R,2.750000X8.700000*%
%ADD13R,3.700000X9.700000*%
%ADD14R,0.900000X2.800000*%
%ADD15R,10.100000X1.550000*%
%ADD16R,8.700000X2.750000*%
%ADD17R,9.700000X3.700000*%
%ADD18C,5.000000*%
%ADD19RoundRect,0.250000X1.100000X-0.412500X1.100000X0.412500X-1.100000X0.412500X-1.100000X-0.412500X0*%
%ADD20C,8.200000*%
%ADD21RoundRect,0.237500X-0.300000X-0.237500X0.300000X-0.237500X0.300000X0.237500X-0.300000X0.237500X0*%
%ADD22C,6.000000*%
%ADD23RoundRect,0.100000X0.100000X-0.712500X0.100000X0.712500X-0.100000X0.712500X-0.100000X-0.712500X0*%
%ADD24R,1.700000X1.700000*%
%ADD25O,1.700000X1.700000*%
%ADD26C,2.000000*%
%ADD27RoundRect,0.100000X-0.100000X0.712500X-0.100000X-0.712500X0.100000X-0.712500X0.100000X0.712500X0*%
%ADD28RoundRect,0.250000X-1.100000X0.412500X-1.100000X-0.412500X1.100000X-0.412500X1.100000X0.412500X0*%
%ADD29RoundRect,0.249999X-0.450001X-1.425001X0.450001X-1.425001X0.450001X1.425001X-0.450001X1.425001X0*%
%ADD30C,3.200000*%
%ADD31RoundRect,0.225000X0.375000X-0.225000X0.375000X0.225000X-0.375000X0.225000X-0.375000X-0.225000X0*%
%ADD32RoundRect,0.250000X-0.450000X0.350000X-0.450000X-0.350000X0.450000X-0.350000X0.450000X0.350000X0*%
G04 APERTURE END LIST*
D10*
%TO.C,Q6*%
X132852240Y-72583250D03*
X132852240Y-71383250D03*
X132852240Y-70183250D03*
X132852240Y-68983250D03*
X132852240Y-67783250D03*
X132852240Y-66583250D03*
X132852240Y-65383250D03*
X132852240Y-64183250D03*
D11*
X122002240Y-68383250D03*
D12*
X124152240Y-68383250D03*
D13*
X127377240Y-68383250D03*
%TD*%
D14*
%TO.C,Q5*%
X136912240Y-59488250D03*
X138112240Y-59488250D03*
X139312240Y-59488250D03*
X140512240Y-59488250D03*
X141712240Y-59488250D03*
X142912240Y-59488250D03*
X144112240Y-59488250D03*
X145312240Y-59488250D03*
D15*
X141112240Y-48638250D03*
D16*
X141112240Y-50788250D03*
D17*
X141112240Y-54013250D03*
%TD*%
D14*
%TO.C,Q2*%
X153168240Y-59507250D03*
X154368240Y-59507250D03*
X155568240Y-59507250D03*
X156768240Y-59507250D03*
X157968240Y-59507250D03*
X159168240Y-59507250D03*
X160368240Y-59507250D03*
X161568240Y-59507250D03*
D15*
X157368240Y-48657250D03*
D16*
X157368240Y-50807250D03*
D17*
X157368240Y-54032250D03*
%TD*%
D10*
%TO.C,Q4*%
X165877240Y-64183250D03*
X165877240Y-65383250D03*
X165877240Y-66583250D03*
X165877240Y-67783250D03*
X165877240Y-68983250D03*
X165877240Y-70183250D03*
X165877240Y-71383250D03*
X165877240Y-72583250D03*
D11*
X176727240Y-68383250D03*
D12*
X174577240Y-68383250D03*
D13*
X171352240Y-68383250D03*
%TD*%
D10*
%TO.C,Q1*%
X161437240Y-77518250D03*
X161437240Y-78718250D03*
X161437240Y-79918250D03*
X161437240Y-81118250D03*
X161437240Y-82318250D03*
X161437240Y-83518250D03*
X161437240Y-84718250D03*
X161437240Y-85918250D03*
D11*
X172287240Y-81718250D03*
D12*
X170137240Y-81718250D03*
D13*
X166912240Y-81718250D03*
%TD*%
D14*
%TO.C,Q7*%
X161187240Y-101408250D03*
X159987240Y-101408250D03*
X158787240Y-101408250D03*
X157587240Y-101408250D03*
X156387240Y-101408250D03*
X155187240Y-101408250D03*
X153987240Y-101408250D03*
X152787240Y-101408250D03*
D15*
X156987240Y-112258250D03*
D16*
X156987240Y-110108250D03*
D17*
X156987240Y-106883250D03*
%TD*%
D10*
%TO.C,Q3*%
X137297240Y-85918250D03*
X137297240Y-84718250D03*
X137297240Y-83518250D03*
X137297240Y-82318250D03*
X137297240Y-81118250D03*
X137297240Y-79918250D03*
X137297240Y-78718250D03*
X137297240Y-77518250D03*
D11*
X126447240Y-81718250D03*
D12*
X128597240Y-81718250D03*
D13*
X131822240Y-81718250D03*
%TD*%
D18*
%TO.C,J8*%
X132222240Y-124898250D03*
%TD*%
%TO.C,J2*%
X167147240Y-124898250D03*
%TD*%
D19*
%TO.C,C14*%
X145557240Y-102330750D03*
X145557240Y-99205750D03*
%TD*%
D20*
%TO.C,J4*%
X127142240Y-58223250D03*
%TD*%
%TO.C,J1*%
X171592240Y-58223250D03*
%TD*%
D19*
%TO.C,C26*%
X145557240Y-113418250D03*
X145557240Y-110293250D03*
%TD*%
D21*
%TO.C,C47*%
X148377740Y-64907750D03*
X150102740Y-64907750D03*
%TD*%
D19*
%TO.C,C25*%
X141747240Y-113418250D03*
X141747240Y-110293250D03*
%TD*%
D22*
%TO.C,J6*%
X144287240Y-119483250D03*
%TD*%
D23*
%TO.C,D2*%
X175230240Y-81544750D03*
X175880240Y-81544750D03*
X176530240Y-81544750D03*
X177180240Y-81544750D03*
X177180240Y-77319750D03*
X176530240Y-77319750D03*
X175880240Y-77319750D03*
X175230240Y-77319750D03*
%TD*%
D19*
%TO.C,C3*%
X137937240Y-102330750D03*
X137937240Y-99205750D03*
%TD*%
D24*
%TO.C,J7*%
X150637240Y-68383250D03*
D25*
X148097240Y-68383250D03*
X150637240Y-70923250D03*
X148097240Y-70923250D03*
X150637240Y-73463250D03*
X148097240Y-73463250D03*
X150637240Y-76003250D03*
X148097240Y-76003250D03*
X150637240Y-78543250D03*
X148097240Y-78543250D03*
X150637240Y-81083250D03*
X148097240Y-81083250D03*
X150637240Y-83623250D03*
X148097240Y-83623250D03*
X150637240Y-86163250D03*
X148097240Y-86163250D03*
X150637240Y-88703250D03*
X148097240Y-88703250D03*
X150637240Y-91243250D03*
X148097240Y-91243250D03*
%TD*%
D20*
%TO.C,J3*%
X149367240Y-43618250D03*
%TD*%
D26*
%TO.C,C44*%
X160797240Y-124838250D03*
X160797240Y-117338250D03*
%TD*%
D27*
%TO.C,D3*%
X150215240Y-58650750D03*
X149565240Y-58650750D03*
X148915240Y-58650750D03*
X148265240Y-58650750D03*
X148265240Y-62875750D03*
X148915240Y-62875750D03*
X149565240Y-62875750D03*
X150215240Y-62875750D03*
%TD*%
D28*
%TO.C,C29*%
X141747240Y-104920750D03*
X141747240Y-108045750D03*
%TD*%
D21*
%TO.C,C48*%
X121707740Y-75368250D03*
X123432740Y-75368250D03*
%TD*%
D22*
%TO.C,J5*%
X154447240Y-119483250D03*
%TD*%
D19*
%TO.C,C5*%
X137937240Y-113418250D03*
X137937240Y-110293250D03*
%TD*%
D29*
%TO.C,R1*%
X134887240Y-92513250D03*
X140987240Y-92513250D03*
%TD*%
D30*
%TO.C,H1*%
X162067240Y-42983250D03*
%TD*%
D31*
%TO.C,D1*%
X164607240Y-102798250D03*
X164607240Y-99498250D03*
%TD*%
D28*
%TO.C,C10*%
X145557240Y-104920750D03*
X145557240Y-108045750D03*
%TD*%
D26*
%TO.C,C45*%
X137937240Y-117338250D03*
X137937240Y-124838250D03*
%TD*%
D28*
%TO.C,C17*%
X137937240Y-104920750D03*
X137937240Y-108045750D03*
%TD*%
D21*
%TO.C,C46*%
X175301740Y-75368250D03*
X177026740Y-75368250D03*
%TD*%
D32*
%TO.C,R2*%
X164607240Y-104848250D03*
X164607240Y-106848250D03*
%TD*%
D30*
%TO.C,H2*%
X136667240Y-42983250D03*
%TD*%
D19*
%TO.C,C11*%
X141874240Y-102330750D03*
X141874240Y-99205750D03*
%TD*%
D23*
%TO.C,D4*%
X121595240Y-81544750D03*
X122245240Y-81544750D03*
X122895240Y-81544750D03*
X123545240Y-81544750D03*
X123545240Y-77319750D03*
X122895240Y-77319750D03*
X122245240Y-77319750D03*
X121595240Y-77319750D03*
%TD*%
M02*
