M48
; DRILL file {KiCad 7.0.6} date Thu Dec 21 21:59:27 2023
; FORMAT={-:-/ absolute / metric / decimal}
; #@! TF.CreationDate,2023-12-21T21:59:27+03:00
; #@! TF.GenerationSoftware,Kicad,Pcbnew,7.0.6
; #@! TF.FileFunction,Plated,1,6,PTH
FMAT,2
METRIC
; #@! TA.AperFunction,Plated,PTH,ViaDrill
T1C0.400
; #@! TA.AperFunction,Plated,PTH,ComponentDrill
T2C1.000
; #@! TA.AperFunction,Plated,PTH,ComponentDrill
T3C1.200
; #@! TA.AperFunction,Plated,PTH,ComponentDrill
T4C3.000
; #@! TA.AperFunction,Plated,PTH,ComponentDrill
T5C3.200
%
G90
G05
T1
X120.792Y-75.368
X121.3Y-79.94
X122.062Y-64.573
X122.062Y-65.843
X122.062Y-67.113
X122.062Y-68.383
X122.062Y-69.653
X122.062Y-70.923
X122.062Y-72.193
X122.316Y-79.94
X123.332Y-79.94
X124.094Y-81.464
X124.348Y-75.368
X125.237Y-65.843
X125.237Y-67.113
X125.237Y-68.383
X125.237Y-69.653
X125.237Y-70.923
X126.507Y-77.908
X126.507Y-79.178
X126.507Y-80.448
X126.507Y-81.718
X126.507Y-82.988
X126.507Y-84.258
X126.507Y-85.528
X128.412Y-64.573
X128.412Y-65.843
X128.412Y-67.113
X128.412Y-68.383
X128.412Y-69.653
X128.412Y-70.923
X128.412Y-72.193
X129.682Y-79.178
X129.682Y-80.448
X129.682Y-81.718
X129.682Y-82.988
X129.682Y-84.258
X132.857Y-77.908
X132.857Y-79.178
X132.857Y-80.448
X132.857Y-81.718
X132.857Y-82.988
X132.857Y-84.258
X132.857Y-85.528
X132.857Y-91.243
X134.762Y-95.053
X134.762Y-96.323
X134.762Y-97.593
X134.762Y-98.863
X135.397Y-63.938
X135.397Y-65.208
X135.397Y-66.478
X135.397Y-67.748
X135.397Y-69.018
X135.397Y-70.288
X135.397Y-71.558
X135.397Y-72.828
X136.032Y-105.213
X136.667Y-91.243
X137.302Y-48.698
X137.302Y-55.048
X137.302Y-62.033
X138.572Y-48.698
X138.572Y-51.873
X138.572Y-55.048
X138.572Y-62.033
X139.842Y-48.698
X139.842Y-51.873
X139.842Y-55.048
X139.842Y-62.033
X139.842Y-77.273
X139.842Y-78.543
X139.842Y-79.813
X139.842Y-81.083
X139.842Y-82.353
X139.842Y-83.623
X139.842Y-84.893
X139.842Y-86.163
X139.842Y-99.206
X139.842Y-103.943
X139.842Y-105.213
X139.842Y-109.023
X141.112Y-48.698
X141.112Y-51.873
X141.112Y-55.048
X141.112Y-62.033
X142.382Y-48.698
X142.382Y-51.873
X142.382Y-55.048
X142.382Y-62.033
X143.652Y-48.698
X143.652Y-51.873
X143.652Y-55.048
X143.652Y-62.033
X143.652Y-65.208
X143.652Y-70.923
X143.652Y-76.003
X143.652Y-103.943
X143.652Y-105.213
X143.652Y-109.023
X143.703Y-99.193
X144.287Y-66.478
X144.287Y-86.443
X144.922Y-48.698
X144.922Y-55.048
X144.922Y-62.033
X144.922Y-65.208
X144.922Y-72.193
X144.922Y-77.273
X145.557Y-66.478
X146.192Y-62.033
X147.462Y-97.593
X147.462Y-103.943
X147.462Y-105.213
X147.97Y-57.288
X148.224Y-66.051
X148.732Y-60.082
X149.748Y-60.082
X150.764Y-60.082
X150.764Y-61.606
X152.415Y-62.668
X153.558Y-48.698
X153.558Y-55.048
X153.812Y-62.668
X153.812Y-66.478
X153.812Y-69.018
X154.447Y-65.208
X154.447Y-67.748
X154.447Y-86.163
X154.828Y-48.698
X154.828Y-51.873
X154.828Y-55.048
X155.082Y-62.668
X155.082Y-66.478
X155.082Y-69.018
X155.717Y-65.208
X155.717Y-67.748
X156.098Y-48.698
X156.098Y-51.873
X156.098Y-55.048
X156.352Y-62.668
X157.368Y-48.698
X157.368Y-51.873
X157.368Y-55.048
X157.622Y-62.668
X158.257Y-91.878
X158.638Y-48.698
X158.638Y-51.873
X158.638Y-55.048
X158.892Y-62.668
X158.892Y-77.273
X158.892Y-78.543
X158.892Y-79.813
X158.892Y-81.083
X158.892Y-82.353
X158.892Y-83.623
X158.892Y-84.893
X158.892Y-86.163
X159.527Y-91.878
X159.908Y-48.698
X159.908Y-51.873
X159.908Y-55.048
X160.162Y-62.668
X160.797Y-91.878
X161.178Y-48.698
X161.178Y-55.048
X161.432Y-62.668
X162.067Y-91.878
X162.702Y-63.938
X162.702Y-65.208
X162.702Y-66.478
X162.702Y-67.748
X162.702Y-69.018
X162.702Y-70.288
X162.702Y-71.558
X162.702Y-72.828
X162.702Y-95.688
X163.337Y-91.878
X163.337Y-94.418
X163.337Y-96.958
X163.337Y-98.228
X163.972Y-93.148
X163.972Y-95.688
X163.972Y-110.293
X164.607Y-91.878
X164.607Y-94.418
X164.607Y-96.958
X164.607Y-98.228
X165.242Y-93.148
X165.877Y-77.908
X165.877Y-79.178
X165.877Y-80.448
X165.877Y-81.718
X165.877Y-82.988
X165.877Y-84.258
X165.877Y-85.528
X165.877Y-91.878
X165.877Y-106.483
X169.052Y-79.178
X169.052Y-80.448
X169.052Y-81.718
X169.052Y-82.988
X169.052Y-84.258
X170.322Y-64.573
X170.322Y-65.843
X170.322Y-67.113
X170.322Y-68.383
X170.322Y-69.653
X170.322Y-70.923
X170.322Y-72.193
X172.227Y-77.908
X172.227Y-79.178
X172.227Y-80.448
X172.227Y-81.718
X172.227Y-82.988
X172.227Y-84.258
X172.227Y-85.528
X173.497Y-65.843
X173.497Y-67.113
X173.497Y-68.383
X173.497Y-69.653
X173.497Y-70.923
X174.384Y-75.115
X175.148Y-79.94
X176.16Y-79.936
X176.672Y-64.573
X176.672Y-65.843
X176.672Y-67.113
X176.672Y-68.383
X176.672Y-69.653
X176.672Y-70.923
X176.672Y-72.193
X176.926Y-82.988
X177.18Y-79.94
X177.942Y-75.114
T2
X137.937Y-117.338
X137.937Y-124.838
X148.097Y-68.383
X148.097Y-70.923
X148.097Y-73.463
X148.097Y-76.003
X148.097Y-78.543
X148.097Y-81.083
X148.097Y-83.623
X148.097Y-86.163
X148.097Y-88.703
X148.097Y-91.243
X150.637Y-68.383
X150.637Y-70.923
X150.637Y-73.463
X150.637Y-76.003
X150.637Y-78.543
X150.637Y-81.083
X150.637Y-83.623
X150.637Y-86.163
X150.637Y-88.703
X150.637Y-91.243
X160.797Y-117.338
X160.797Y-124.838
T3
X127.142Y-58.223
X149.367Y-43.618
X171.592Y-58.223
T4
X144.287Y-119.483
X154.447Y-119.483
T5
X132.222Y-124.898
X167.147Y-124.898
T0
M30
