ISO-10303-21;
HEADER;
FILE_DESCRIPTION (( 'STEP AP214' ),
    '1' );
FILE_NAME ('Шпилька М4.STEP',
    '2024-12-02T18:12:03',
    ( '' ),
    ( '' ),
    'SwSTEP 2.0',
    'SolidWorks 2023',
    '' );
FILE_SCHEMA (( 'AUTOMOTIVE_DESIGN' ));
ENDSEC;

DATA;
#1 = DIRECTION ( 'NONE',  ( 0.000000000000000000, 0.000000000000000000, 1.000000000000000000 ) ) ;
#2 = ADVANCED_FACE ( 'NONE', ( #31 ), #40, .T. ) ;
#3 = DIRECTION ( 'NONE',  ( 1.000000000000000000, 0.000000000000000000, 0.000000000000000000 ) ) ;
#4 = EDGE_LOOP ( 'NONE', ( #249, #231, #23, #221 ) ) ;
#5 = DIRECTION ( 'NONE',  ( 1.000000000000000000, 0.000000000000000000, 0.000000000000000000 ) ) ;
#6 = CIRCLE ( 'NONE', #32, 0.3250000000001307399 ) ;
#7 = DIRECTION ( 'NONE',  ( 0.000000000000000000, 0.000000000000000000, 1.000000000000000000 ) ) ;
#8 = LINE ( 'NONE', #184, #273 ) ;
#9 = AXIS2_PLACEMENT_3D ( 'NONE', #173, #1, #265 ) ;
#10 = DIRECTION ( 'NONE',  ( 0.000000000000000000, -1.224646799147351975E-16, -1.000000000000000000 ) ) ;
#11 = EDGE_CURVE ( 'NONE', #54, #206, #79, .T. ) ;
#12 =( NAMED_UNIT ( * ) SI_UNIT ( $, .STERADIAN. ) SOLID_ANGLE_UNIT ( ) );
#13 = DIRECTION ( 'NONE',  ( 0.000000000000000000, 0.000000000000000000, -1.000000000000000000 ) ) ;
#14 = SURFACE_SIDE_STYLE ('',( #64 ) ) ;
#15 = VECTOR ( 'NONE', #121, 1000.000000000000000 ) ;
#16 = ADVANCED_FACE ( 'NONE', ( #235 ), #216, .T. ) ;
#17 = AXIS2_PLACEMENT_3D ( 'NONE', #276, #163, #258 ) ;
#18 = AXIS2_PLACEMENT_3D ( 'NONE', #189, #38, #124 ) ;
#19 =( NAMED_UNIT ( * ) SI_UNIT ( $, .STERADIAN. ) SOLID_ANGLE_UNIT ( ) );
#20 = ORIENTED_EDGE ( 'NONE', *, *, #35, .T. ) ;
#21 = EDGE_CURVE ( 'NONE', #223, #117, #103, .T. ) ;
#22 = FACE_OUTER_BOUND ( 'NONE', #4, .T. ) ;
#23 = ORIENTED_EDGE ( 'NONE', *, *, #21, .T. ) ;
#24 = AXIS2_PLACEMENT_3D ( 'NONE', #143, #168, #237 ) ;
#25 = CARTESIAN_POINT ( 'NONE',  ( 2810.711317244714792, 1352.707003472935867, 0.000000000000000000 ) ) ;
#26 = CARTESIAN_POINT ( 'NONE',  ( 2810.386317244714974, 1352.707003472935867, 0.000000000000000000 ) ) ;
#27 = VERTEX_POINT ( 'NONE', #201 ) ;
#28 = DIRECTION ( 'NONE',  ( 1.000000000000000000, 0.000000000000000000, 0.000000000000000000 ) ) ;
#29 = VERTEX_POINT ( 'NONE', #244 ) ;
#30 = FACE_OUTER_BOUND ( 'NONE', #241, .T. ) ;
#31 = FACE_OUTER_BOUND ( 'NONE', #44, .T. ) ;
#32 = AXIS2_PLACEMENT_3D ( 'NONE', #277, #115, #58 ) ;
#33 = DIRECTION ( 'NONE',  ( 1.000000000000000000, 0.000000000000000000, 0.000000000000000000 ) ) ;
#34 = CARTESIAN_POINT ( 'NONE',  ( 2813.461317244714792, 1352.707003472935867, 0.6999999999999999556 ) ) ;
#35 = EDGE_CURVE ( 'NONE', #52, #27, #45, .T. ) ;
#36 = DIRECTION ( 'NONE',  ( 1.000000000000000000, 0.000000000000000000, 0.000000000000000000 ) ) ;
#37 = STYLED_ITEM ( 'NONE', ( #197 ), #71 ) ;
#38 = DIRECTION ( 'NONE',  ( 0.000000000000000000, 0.000000000000000000, 1.000000000000000000 ) ) ;
#39 = DIRECTION ( 'NONE',  ( 1.000000000000000000, 0.000000000000000000, 0.000000000000000000 ) ) ;
#40 = CYLINDRICAL_SURFACE ( 'NONE', #108, 0.3250000000001307399 ) ;
#41 = ADVANCED_FACE ( 'NONE', ( #22 ), #217, .T. ) ;
#42 = LINE ( 'NONE', #89, #283 ) ;
#43 = CARTESIAN_POINT ( 'NONE',  ( 2810.711317244714792, 1352.707003472935867, 0.6999999999999999556 ) ) ;
#44 = EDGE_LOOP ( 'NONE', ( #175, #257, #80, #264 ) ) ;
#45 = LINE ( 'NONE', #148, #61 ) ;
#46 = UNCERTAINTY_MEASURE_WITH_UNIT (LENGTH_MEASURE( 1.000000000000000082E-05 ), #145, 'distance_accuracy_value', 'NONE');
#47 = AXIS2_PLACEMENT_3D ( 'NONE', #99, #270, #120 ) ;
#48 = EDGE_LOOP ( 'NONE', ( #180, #158 ) ) ;
#49 = CARTESIAN_POINT ( 'NONE',  ( 2810.711317244714792, 1352.707003472935867, -0.5500000000000000444 ) ) ;
#50 = VECTOR ( 'NONE', #65, 1000.000000000000000 ) ;
#51 = CARTESIAN_POINT ( 'NONE',  ( 2810.711317244714792, 1352.707003472935867, 10.69999999999999929 ) ) ;
#52 = VERTEX_POINT ( 'NONE', #105 ) ;
#53 = FACE_OUTER_BOUND ( 'NONE', #146, .T. ) ;
#54 = VERTEX_POINT ( 'NONE', #242 ) ;
#55 = DIRECTION ( 'NONE',  ( 1.000000000000000000, 0.000000000000000000, 0.000000000000000000 ) ) ;
#56 = ORIENTED_EDGE ( 'NONE', *, *, #279, .F. ) ;
#57 =( GEOMETRIC_REPRESENTATION_CONTEXT ( 3 ) GLOBAL_UNCERTAINTY_ASSIGNED_CONTEXT ( ( #46 ) ) GLOBAL_UNIT_ASSIGNED_CONTEXT ( ( #145, #263, #12 ) ) REPRESENTATION_CONTEXT ( 'NONE', 'WORKASPACE' ) );
#58 = DIRECTION ( 'NONE',  ( 1.000000000000000000, 0.000000000000000000, 0.000000000000000000 ) ) ;
#59 = EDGE_CURVE ( 'NONE', #117, #226, #183, .T. ) ;
#60 = CARTESIAN_POINT ( 'NONE',  ( 2812.711317244714792, 1352.707003472935867, 1.399999999999999911 ) ) ;
#61 = VECTOR ( 'NONE', #176, 1000.000000000000000 ) ;
#62 = AXIS2_PLACEMENT_3D ( 'NONE', #214, #167, #39 ) ;
#63 = EDGE_CURVE ( 'NONE', #29, #171, #42, .T. ) ;
#64 = SURFACE_STYLE_FILL_AREA ( #179 ) ;
#65 = DIRECTION ( 'NONE',  ( 0.000000000000000000, 1.224646799147351975E-16, 1.000000000000000000 ) ) ;
#66 = FACE_OUTER_BOUND ( 'NONE', #136, .T. ) ;
#67 = ORIENTED_EDGE ( 'NONE', *, *, #82, .F. ) ;
#68 = ORIENTED_EDGE ( 'NONE', *, *, #215, .F. ) ;
#69 = PLANE ( 'NONE',  #195 ) ;
#70 = VERTEX_POINT ( 'NONE', #222 ) ;
#71 = MANIFOLD_SOLID_BREP ( 'Шпилька М4.dwg<1>', #159 ) ;
#72 = PLANE ( 'NONE',  #95 ) ;
#73 = VECTOR ( 'NONE', #243, 1000.000000000000000 ) ;
#74 = EDGE_CURVE ( 'NONE', #223, #70, #130, .T. ) ;
#75 = DIRECTION ( 'NONE',  ( 0.000000000000000000, 1.224646799147351975E-16, 1.000000000000000000 ) ) ;
#76 = CIRCLE ( 'NONE', #240, 1.999999999999779732 ) ;
#77 = ORIENTED_EDGE ( 'NONE', *, *, #35, .F. ) ;
#78 = FACE_OUTER_BOUND ( 'NONE', #253, .T. ) ;
#79 = CIRCLE ( 'NONE', #18, 0.3250000000001307399 ) ;
#80 = ORIENTED_EDGE ( 'NONE', *, *, #82, .T. ) ;
#81 = FACE_BOUND ( 'NONE', #48, .T. ) ;
#82 = EDGE_CURVE ( 'NONE', #174, #54, #88, .T. ) ;
#83 = CARTESIAN_POINT ( 'NONE',  ( 2810.386317244714974, 1352.707003472935867, -0.5500000000000000444 ) ) ;
#84 = AXIS2_PLACEMENT_3D ( 'NONE', #274, #7, #3 ) ;
#85 = ADVANCED_FACE ( 'NONE', ( #66 ), #69, .T. ) ;
#86 = SURFACE_STYLE_USAGE ( .BOTH. , #14 ) ;
#87 = ORIENTED_EDGE ( 'NONE', *, *, #215, .T. ) ;
#88 = LINE ( 'NONE', #269, #50 ) ;
#89 = CARTESIAN_POINT ( 'NONE',  ( 2812.711317244714792, 1352.707003472935867, 10.69999999999999929 ) ) ;
#90 = EDGE_CURVE ( 'NONE', #262, #206, #181, .T. ) ;
#91 = EDGE_LOOP ( 'NONE', ( #200, #187, #225, #107 ) ) ;
#92 = PLANE ( 'NONE',  #84 ) ;
#93 = COLOUR_RGB ( '',0.7921568627450980005, 0.8196078431372548767, 0.9333333333333333481 ) ;
#94 = CYLINDRICAL_SURFACE ( 'NONE', #207, 0.3250000000001307399 ) ;
#95 = AXIS2_PLACEMENT_3D ( 'NONE', #122, #212, #33 ) ;
#96 = CARTESIAN_POINT ( 'NONE',  ( 2811.036317244715065, 1352.707003472935867, -0.5500000000000000444 ) ) ;
#97 = CARTESIAN_POINT ( 'NONE',  ( 2810.711317244714792, 1352.707003472935867, -0.5500000000000000444 ) ) ;
#98 = PRODUCT_DEFINITION_FORMATION_WITH_SPECIFIED_SOURCE ( 'ANY', '', #177, .NOT_KNOWN. ) ;
#99 = CARTESIAN_POINT ( 'NONE',  ( 2810.711317244714792, 1352.707003472935867, 10.69999999999999929 ) ) ;
#100 = APPLICATION_CONTEXT ( 'automotive_design' ) ;
#101 = APPLICATION_PROTOCOL_DEFINITION ( 'draft international standard', 'automotive_design', 1998, #100 ) ;
#102 = EDGE_CURVE ( 'NONE', #262, #174, #238, .T. ) ;
#103 = LINE ( 'NONE', #34, #15 ) ;
#104 = AXIS2_PLACEMENT_3D ( 'NONE', #127, #219, #205 ) ;
#105 = CARTESIAN_POINT ( 'NONE',  ( 2808.711317244715246, 1352.707003472935867, 20.00000000000000000 ) ) ;
#106 = CIRCLE ( 'NONE', #245, 1.999999999999779732 ) ;
#107 = ORIENTED_EDGE ( 'NONE', *, *, #21, .F. ) ;
#108 = AXIS2_PLACEMENT_3D ( 'NONE', #211, #239, #278 ) ;
#109 = DIRECTION ( 'NONE',  ( 0.000000000000000000, 0.000000000000000000, -1.000000000000000000 ) ) ;
#110 = DIRECTION ( 'NONE',  ( 0.000000000000000000, 0.000000000000000000, -1.000000000000000000 ) ) ;
#111 = ORIENTED_EDGE ( 'NONE', *, *, #284, .T. ) ;
#112 = DIRECTION ( 'NONE',  ( 1.000000000000000000, 0.000000000000000000, 0.000000000000000000 ) ) ;
#113 = EDGE_CURVE ( 'NONE', #171, #27, #271, .T. ) ;
#114 = ORIENTED_EDGE ( 'NONE', *, *, #113, .F. ) ;
#115 = DIRECTION ( 'NONE',  ( 0.000000000000000000, 0.000000000000000000, 1.000000000000000000 ) ) ;
#116 = DIRECTION ( 'NONE',  ( 1.000000000000000000, 0.000000000000000000, 0.000000000000000000 ) ) ;
#117 = VERTEX_POINT ( 'NONE', #233 ) ;
#118 = DIRECTION ( 'NONE',  ( -1.000000000000000000, 0.000000000000000000, 0.000000000000000000 ) ) ;
#119 = AXIS2_PLACEMENT_3D ( 'NONE', #97, #10, #28 ) ;
#120 = DIRECTION ( 'NONE',  ( 1.000000000000000000, 0.000000000000000000, 0.000000000000000000 ) ) ;
#121 = DIRECTION ( 'NONE',  ( 0.000000000000000000, 0.000000000000000000, -1.000000000000000000 ) ) ;
#122 = CARTESIAN_POINT ( 'NONE',  ( 2810.711317244714792, 1352.707003472935867, 1.399999999999999911 ) ) ;
#123 = AXIS2_PLACEMENT_3D ( 'NONE', #43, #224, #199 ) ;
#124 = DIRECTION ( 'NONE',  ( 1.000000000000000000, 0.000000000000000000, 0.000000000000000000 ) ) ;
#125 = PRODUCT_CONTEXT ( 'NONE', #100, 'mechanical' ) ;
#126 = AXIS2_PLACEMENT_3D ( 'NONE', #25, #110, #246 ) ;
#127 = CARTESIAN_POINT ( 'NONE',  ( 2810.711317244714792, 1352.707003472935867, -0.5500000000000000444 ) ) ;
#128 = AXIS2_PLACEMENT_3D ( 'NONE', #156, #190, #118 ) ;
#129 =( LENGTH_UNIT ( ) NAMED_UNIT ( * ) SI_UNIT ( .MILLI., .METRE. ) );
#130 = CIRCLE ( 'NONE', #9, 2.749999999999808153 ) ;
#131 = DIRECTION ( 'NONE',  ( 0.000000000000000000, -1.224646799147351975E-16, -1.000000000000000000 ) ) ;
#132 = ORIENTED_EDGE ( 'NONE', *, *, #63, .T. ) ;
#133 = CYLINDRICAL_SURFACE ( 'NONE', #47, 1.999999999999779732 ) ;
#134 = ORIENTED_EDGE ( 'NONE', *, *, #152, .T. ) ;
#135 = DIRECTION ( 'NONE',  ( 0.000000000000000000, 0.000000000000000000, 1.000000000000000000 ) ) ;
#136 = EDGE_LOOP ( 'NONE', ( #134, #275 ) ) ;
#137 = FACE_OUTER_BOUND ( 'NONE', #178, .T. ) ;
#138 = CYLINDRICAL_SURFACE ( 'NONE', #192, 1.999999999999779732 ) ;
#139 = CARTESIAN_POINT ( 'NONE',  ( 2810.711317244714792, 1352.707003472935867, 1.399999999999999911 ) ) ;
#140 = ORIENTED_EDGE ( 'NONE', *, *, #74, .T. ) ;
#141 = PRODUCT_RELATED_PRODUCT_CATEGORY ( 'part', '', ( #177 ) ) ;
#142 = CIRCLE ( 'NONE', #17, 2.749999999999808153 ) ;
#143 = CARTESIAN_POINT ( 'NONE',  ( 0.000000000000000000, 0.000000000000000000, 0.000000000000000000 ) ) ;
#144 = APPLICATION_CONTEXT ( 'automotive_design' ) ;
#145 =( LENGTH_UNIT ( ) NAMED_UNIT ( * ) SI_UNIT ( .MILLI., .METRE. ) );
#146 = EDGE_LOOP ( 'NONE', ( #165, #202, #169, #67 ) ) ;
#147 = APPLICATION_PROTOCOL_DEFINITION ( 'draft international standard', 'automotive_design', 1998, #144 ) ;
#148 = CARTESIAN_POINT ( 'NONE',  ( 2808.711317244715246, 1352.707003472935867, 10.69999999999999929 ) ) ;
#149 = ADVANCED_FACE ( 'NONE', ( #160, #230 ), #72, .T. ) ;
#150 = CARTESIAN_POINT ( 'NONE',  ( 2810.386317244714974, 1352.707003472935867, -0.2750000000000000222 ) ) ;
#151 = CIRCLE ( 'NONE', #280, 1.999999999999779732 ) ;
#152 = EDGE_CURVE ( 'NONE', #174, #262, #261, .T. ) ;
#153 = ORIENTED_EDGE ( 'NONE', *, *, #228, .T. ) ;
#154 = EDGE_LOOP ( 'NONE', ( #140, #111 ) ) ;
#155 = MECHANICAL_DESIGN_GEOMETRIC_PRESENTATION_REPRESENTATION (  '', ( #37 ), #250 ) ;
#156 = CARTESIAN_POINT ( 'NONE',  ( 2810.711317244714792, 1352.707003472935867, 0.000000000000000000 ) ) ;
#157 = DIRECTION ( 'NONE',  ( 0.000000000000000000, 0.000000000000000000, -1.000000000000000000 ) ) ;
#158 = ORIENTED_EDGE ( 'NONE', *, *, #251, .T. ) ;
#159 = CLOSED_SHELL ( 'NONE', ( #166, #16, #213, #172, #194, #209, #41, #149, #85, #2 ) ) ;
#160 = FACE_BOUND ( 'NONE', #204, .T. ) ;
#161 = PRODUCT_DEFINITION ( 'UNKNOWN', '', #98, #191 ) ;
#162 = ORIENTED_EDGE ( 'NONE', *, *, #113, .T. ) ;
#163 = DIRECTION ( 'NONE',  ( 0.000000000000000000, 0.000000000000000000, -1.000000000000000000 ) ) ;
#164 = CARTESIAN_POINT ( 'NONE',  ( 2810.711317244714792, 1352.707003472935867, 20.00000000000000000 ) ) ;
#165 = ORIENTED_EDGE ( 'NONE', *, *, #102, .F. ) ;
#166 = ADVANCED_FACE ( 'NONE', ( #53 ), #94, .T. ) ;
#167 = DIRECTION ( 'NONE',  ( 0.000000000000000000, 0.000000000000000000, 1.000000000000000000 ) ) ;
#168 = DIRECTION ( 'NONE',  ( 0.000000000000000000, 0.000000000000000000, 1.000000000000000000 ) ) ;
#169 = ORIENTED_EDGE ( 'NONE', *, *, #11, .F. ) ;
#170 = AXIS2_PLACEMENT_3D ( 'NONE', #193, #13, #282 ) ;
#171 = VERTEX_POINT ( 'NONE', #60 ) ;
#172 = ADVANCED_FACE ( 'NONE', ( #252 ), #92, .T. ) ;
#173 = CARTESIAN_POINT ( 'NONE',  ( 2810.711317244714792, 1352.707003472935867, 1.399999999999999911 ) ) ;
#174 = VERTEX_POINT ( 'NONE', #96 ) ;
#175 = ORIENTED_EDGE ( 'NONE', *, *, #90, .F. ) ;
#176 = DIRECTION ( 'NONE',  ( 0.000000000000000000, 0.000000000000000000, -1.000000000000000000 ) ) ;
#177 = PRODUCT ( '\X2\0428043f0438043b044c043a0430\X0\ \X2\041c\X0\4', '\X2\0428043f0438043b044c043a0430\X0\ \X2\041c\X0\4', '', ( #125 ) ) ;
#178 = EDGE_LOOP ( 'NONE', ( #68, #20, #114, #255 ) ) ;
#179 = FILL_AREA_STYLE ('',( #248 ) ) ;
#180 = ORIENTED_EDGE ( 'NONE', *, *, #11, .T. ) ;
#181 = LINE ( 'NONE', #150, #73 ) ;
#182 = ORIENTED_EDGE ( 'NONE', *, *, #266, .T. ) ;
#183 = CIRCLE ( 'NONE', #126, 2.749999999999808153 ) ;
#184 = CARTESIAN_POINT ( 'NONE',  ( 2807.961317244715246, 1352.707003472935867, 0.6999999999999999556 ) ) ;
#185 = CIRCLE ( 'NONE', #62, 2.749999999999808153 ) ;
#186 = CARTESIAN_POINT ( 'NONE',  ( 2810.711317244714792, 1352.707003472935867, -0.2750000000000000222 ) ) ;
#187 = ORIENTED_EDGE ( 'NONE', *, *, #260, .T. ) ;
#188 = CARTESIAN_POINT ( 'NONE',  ( 2807.961317244715246, 1352.707003472935867, 0.000000000000000000 ) ) ;
#189 = CARTESIAN_POINT ( 'NONE',  ( 2810.711317244714792, 1352.707003472935867, 0.000000000000000000 ) ) ;
#190 = DIRECTION ( 'NONE',  ( 0.000000000000000000, 0.000000000000000000, -1.000000000000000000 ) ) ;
#191 = PRODUCT_DEFINITION_CONTEXT ( 'detailed design', #144, 'design' ) ;
#192 = AXIS2_PLACEMENT_3D ( 'NONE', #51, #157, #5 ) ;
#193 = CARTESIAN_POINT ( 'NONE',  ( 2810.711317244714792, 1352.707003472935867, 0.6999999999999999556 ) ) ;
#194 = ADVANCED_FACE ( 'NONE', ( #30 ), #138, .T. ) ;
#195 = AXIS2_PLACEMENT_3D ( 'NONE', #49, #131, #112 ) ;
#196 = PRODUCT_DEFINITION_SHAPE ( 'NONE', 'NONE',  #161 ) ;
#197 = PRESENTATION_STYLE_ASSIGNMENT (( #86 ) ) ;
#198 = UNCERTAINTY_MEASURE_WITH_UNIT (LENGTH_MEASURE( 1.000000000000000082E-05 ), #129, 'distance_accuracy_value', 'NONE');
#199 = DIRECTION ( 'NONE',  ( 1.000000000000000000, 0.000000000000000000, 0.000000000000000000 ) ) ;
#200 = ORIENTED_EDGE ( 'NONE', *, *, #284, .F. ) ;
#201 = CARTESIAN_POINT ( 'NONE',  ( 2808.711317244715246, 1352.707003472935867, 1.399999999999999911 ) ) ;
#202 = ORIENTED_EDGE ( 'NONE', *, *, #90, .T. ) ;
#203 = DIRECTION ( 'NONE',  ( 1.000000000000000000, 0.000000000000000000, 0.000000000000000000 ) ) ;
#204 = EDGE_LOOP ( 'NONE', ( #162, #247 ) ) ;
#205 = DIRECTION ( 'NONE',  ( 1.000000000000000000, 0.000000000000000000, 0.000000000000000000 ) ) ;
#206 = VERTEX_POINT ( 'NONE', #26 ) ;
#207 = AXIS2_PLACEMENT_3D ( 'NONE', #186, #75, #203 ) ;
#208 = DIRECTION ( 'NONE',  ( 0.000000000000000000, 0.000000000000000000, 1.000000000000000000 ) ) ;
#209 = ADVANCED_FACE ( 'NONE', ( #78, #81 ), #256, .T. ) ;
#210 = CARTESIAN_POINT ( 'NONE',  ( 2813.461317244714792, 1352.707003472935867, 1.399999999999999911 ) ) ;
#211 = CARTESIAN_POINT ( 'NONE',  ( 2810.711317244714792, 1352.707003472935867, -0.2750000000000000222 ) ) ;
#212 = DIRECTION ( 'NONE',  ( 0.000000000000000000, 0.000000000000000000, 1.000000000000000000 ) ) ;
#213 = ADVANCED_FACE ( 'NONE', ( #137 ), #133, .T. ) ;
#214 = CARTESIAN_POINT ( 'NONE',  ( 2810.711317244714792, 1352.707003472935867, 1.399999999999999911 ) ) ;
#215 = EDGE_CURVE ( 'NONE', #52, #29, #151, .T. ) ;
#216 = CYLINDRICAL_SURFACE ( 'NONE', #170, 2.749999999999808153 ) ;
#217 = CYLINDRICAL_SURFACE ( 'NONE', #123, 2.749999999999808153 ) ;
#218 = PRESENTATION_LAYER_ASSIGNMENT (  '', '', ( #37 ) ) ;
#219 = DIRECTION ( 'NONE',  ( 0.000000000000000000, -1.224646799147351975E-16, -1.000000000000000000 ) ) ;
#220 = AXIS2_PLACEMENT_3D ( 'NONE', #232, #272, #116 ) ;
#221 = ORIENTED_EDGE ( 'NONE', *, *, #228, .F. ) ;
#222 = CARTESIAN_POINT ( 'NONE',  ( 2807.961317244715246, 1352.707003472935867, 1.399999999999999911 ) ) ;
#223 = VERTEX_POINT ( 'NONE', #210 ) ;
#224 = DIRECTION ( 'NONE',  ( 0.000000000000000000, 0.000000000000000000, -1.000000000000000000 ) ) ;
#225 = ORIENTED_EDGE ( 'NONE', *, *, #59, .F. ) ;
#226 = VERTEX_POINT ( 'NONE', #188 ) ;
#227 = CARTESIAN_POINT ( 'NONE',  ( 2810.711317244714792, 1352.707003472935867, 20.00000000000000000 ) ) ;
#228 = EDGE_CURVE ( 'NONE', #226, #117, #142, .T. ) ;
#229 = EDGE_LOOP ( 'NONE', ( #182, #87 ) ) ;
#230 = FACE_OUTER_BOUND ( 'NONE', #154, .T. ) ;
#231 = ORIENTED_EDGE ( 'NONE', *, *, #74, .F. ) ;
#232 = CARTESIAN_POINT ( 'NONE',  ( 2810.711317244714792, 1352.707003472935867, 1.399999999999999911 ) ) ;
#233 = CARTESIAN_POINT ( 'NONE',  ( 2813.461317244714792, 1352.707003472935867, 0.000000000000000000 ) ) ;
#234 = ADVANCED_BREP_SHAPE_REPRESENTATION ( '\X2\0428043f0438043b044c043a0430\X0\ \X2\041c\X0\4', ( #71, #24 ), #57 ) ;
#235 = FACE_OUTER_BOUND ( 'NONE', #91, .T. ) ;
#236 = DIRECTION ( 'NONE',  ( 0.000000000000000000, 0.000000000000000000, -1.000000000000000000 ) ) ;
#237 = DIRECTION ( 'NONE',  ( 1.000000000000000000, 0.000000000000000000, 0.000000000000000000 ) ) ;
#238 = CIRCLE ( 'NONE', #104, 0.3250000000001307399 ) ;
#239 = DIRECTION ( 'NONE',  ( 0.000000000000000000, 1.224646799147351975E-16, 1.000000000000000000 ) ) ;
#240 = AXIS2_PLACEMENT_3D ( 'NONE', #139, #236, #36 ) ;
#241 = EDGE_LOOP ( 'NONE', ( #77, #285, #132, #56 ) ) ;
#242 = CARTESIAN_POINT ( 'NONE',  ( 2811.036317244715065, 1352.707003472935867, 0.000000000000000000 ) ) ;
#243 = DIRECTION ( 'NONE',  ( 0.000000000000000000, 1.224646799147351975E-16, 1.000000000000000000 ) ) ;
#244 = CARTESIAN_POINT ( 'NONE',  ( 2812.711317244714792, 1352.707003472935867, 20.00000000000000000 ) ) ;
#245 = AXIS2_PLACEMENT_3D ( 'NONE', #164, #135, #259 ) ;
#246 = DIRECTION ( 'NONE',  ( 1.000000000000000000, 0.000000000000000000, 0.000000000000000000 ) ) ;
#247 = ORIENTED_EDGE ( 'NONE', *, *, #279, .T. ) ;
#248 = FILL_AREA_STYLE_COLOUR ( '', #93 ) ;
#249 = ORIENTED_EDGE ( 'NONE', *, *, #260, .F. ) ;
#250 =( GEOMETRIC_REPRESENTATION_CONTEXT ( 3 ) GLOBAL_UNCERTAINTY_ASSIGNED_CONTEXT ( ( #198 ) ) GLOBAL_UNIT_ASSIGNED_CONTEXT ( ( #129, #267, #19 ) ) REPRESENTATION_CONTEXT ( 'NONE', 'WORKASPACE' ) );
#251 = EDGE_CURVE ( 'NONE', #206, #54, #6, .T. ) ;
#252 = FACE_OUTER_BOUND ( 'NONE', #229, .T. ) ;
#253 = EDGE_LOOP ( 'NONE', ( #268, #153 ) ) ;
#254 = DIRECTION ( 'NONE',  ( 0.000000000000000000, 0.000000000000000000, -1.000000000000000000 ) ) ;
#255 = ORIENTED_EDGE ( 'NONE', *, *, #63, .F. ) ;
#256 = PLANE ( 'NONE',  #128 ) ;
#257 = ORIENTED_EDGE ( 'NONE', *, *, #152, .F. ) ;
#258 = DIRECTION ( 'NONE',  ( 1.000000000000000000, 0.000000000000000000, 0.000000000000000000 ) ) ;
#259 = DIRECTION ( 'NONE',  ( 1.000000000000000000, 0.000000000000000000, 0.000000000000000000 ) ) ;
#260 = EDGE_CURVE ( 'NONE', #70, #226, #8, .T. ) ;
#261 = CIRCLE ( 'NONE', #119, 0.3250000000001307399 ) ;
#262 = VERTEX_POINT ( 'NONE', #83 ) ;
#263 =( NAMED_UNIT ( * ) PLANE_ANGLE_UNIT ( ) SI_UNIT ( $, .RADIAN. ) );
#264 = ORIENTED_EDGE ( 'NONE', *, *, #251, .F. ) ;
#265 = DIRECTION ( 'NONE',  ( 1.000000000000000000, 0.000000000000000000, 0.000000000000000000 ) ) ;
#266 = EDGE_CURVE ( 'NONE', #29, #52, #106, .T. ) ;
#267 =( NAMED_UNIT ( * ) PLANE_ANGLE_UNIT ( ) SI_UNIT ( $, .RADIAN. ) );
#268 = ORIENTED_EDGE ( 'NONE', *, *, #59, .T. ) ;
#269 = CARTESIAN_POINT ( 'NONE',  ( 2811.036317244715065, 1352.707003472935867, -0.2750000000000000222 ) ) ;
#270 = DIRECTION ( 'NONE',  ( 0.000000000000000000, 0.000000000000000000, -1.000000000000000000 ) ) ;
#271 = CIRCLE ( 'NONE', #220, 1.999999999999779732 ) ;
#272 = DIRECTION ( 'NONE',  ( 0.000000000000000000, 0.000000000000000000, -1.000000000000000000 ) ) ;
#273 = VECTOR ( 'NONE', #254, 1000.000000000000000 ) ;
#274 = CARTESIAN_POINT ( 'NONE',  ( 2810.711317244714792, 1352.707003472935867, 20.00000000000000000 ) ) ;
#275 = ORIENTED_EDGE ( 'NONE', *, *, #102, .T. ) ;
#276 = CARTESIAN_POINT ( 'NONE',  ( 2810.711317244714792, 1352.707003472935867, 0.000000000000000000 ) ) ;
#277 = CARTESIAN_POINT ( 'NONE',  ( 2810.711317244714792, 1352.707003472935867, 0.000000000000000000 ) ) ;
#278 = DIRECTION ( 'NONE',  ( 1.000000000000000000, 0.000000000000000000, 0.000000000000000000 ) ) ;
#279 = EDGE_CURVE ( 'NONE', #27, #171, #76, .T. ) ;
#280 = AXIS2_PLACEMENT_3D ( 'NONE', #227, #208, #55 ) ;
#281 = SHAPE_DEFINITION_REPRESENTATION ( #196, #234 ) ;
#282 = DIRECTION ( 'NONE',  ( 1.000000000000000000, 0.000000000000000000, 0.000000000000000000 ) ) ;
#283 = VECTOR ( 'NONE', #109, 1000.000000000000000 ) ;
#284 = EDGE_CURVE ( 'NONE', #70, #223, #185, .T. ) ;
#285 = ORIENTED_EDGE ( 'NONE', *, *, #266, .F. ) ;
ENDSEC;
END-ISO-10303-21;
