ISO-10303-21;
HEADER;
FILE_DESCRIPTION (( 'STEP AP214' ),
    '1' );
FILE_NAME ('Шпилька М4(1).STEP',
    '2024-12-11T09:10:48',
    ( '' ),
    ( '' ),
    'SwSTEP 2.0',
    'SolidWorks 2023',
    '' );
FILE_SCHEMA (( 'AUTOMOTIVE_DESIGN' ));
ENDSEC;

DATA;
#1 = DIRECTION ( 'NONE',  ( -1.224646799147351975E-16, -0.000000000000000000, -1.000000000000000000 ) ) ;
#2 = PRODUCT_CONTEXT ( 'NONE', #237, 'mechanical' ) ;
#3 = CARTESIAN_POINT ( 'NONE',  ( 0.000000000000000000, 1.999999999999779732, 20.00000000000000000 ) ) ;
#4 = CIRCLE ( 'NONE', #268, 2.749999999999809930 ) ;
#5 = AXIS2_PLACEMENT_3D ( 'NONE', #261, #52, #134 ) ;
#6 = ADVANCED_BREP_SHAPE_REPRESENTATION ( '\X2\0428043f0438043b044c043a0430\X0\ \X2\041c\X0\4(1)', ( #144, #5 ), #121 ) ;
#7 = ADVANCED_FACE ( 'NONE', ( #187 ), #116, .T. ) ;
#8 = AXIS2_PLACEMENT_3D ( 'NONE', #17, #20, #43 ) ;
#9 = DIRECTION ( 'NONE',  ( 0.000000000000000000, 0.000000000000000000, 1.000000000000000000 ) ) ;
#10 = FACE_OUTER_BOUND ( 'NONE', #145, .T. ) ;
#11 = EDGE_CURVE ( 'NONE', #258, #132, #31, .T. ) ;
#12 = ORIENTED_EDGE ( 'NONE', *, *, #225, .T. ) ;
#13 = UNCERTAINTY_MEASURE_WITH_UNIT (LENGTH_MEASURE( 1.000000000000000082E-05 ), #282, 'distance_accuracy_value', 'NONE');
#14 = AXIS2_PLACEMENT_3D ( 'NONE', #102, #191, #278 ) ;
#15 = CARTESIAN_POINT ( 'NONE',  ( 0.000000000000000000, 0.000000000000000000, -0.5500000000000000444 ) ) ;
#16 = ORIENTED_EDGE ( 'NONE', *, *, #19, .F. ) ;
#17 = CARTESIAN_POINT ( 'NONE',  ( 0.000000000000000000, 0.000000000000000000, 20.00000000000000000 ) ) ;
#18 = VERTEX_POINT ( 'NONE', #284 ) ;
#19 = EDGE_CURVE ( 'NONE', #18, #210, #107, .T. ) ;
#20 = DIRECTION ( 'NONE',  ( 0.000000000000000000, 0.000000000000000000, 1.000000000000000000 ) ) ;
#21 = ORIENTED_EDGE ( 'NONE', *, *, #167, .T. ) ;
#22 = EDGE_LOOP ( 'NONE', ( #260, #146 ) ) ;
#23 =( LENGTH_UNIT ( ) NAMED_UNIT ( * ) SI_UNIT ( .MILLI., .METRE. ) );
#24 = SURFACE_STYLE_FILL_AREA ( #104 ) ;
#25 = CARTESIAN_POINT ( 'NONE',  ( 0.000000000000000000, 0.3249999999996866507, 0.000000000000000000 ) ) ;
#26 = DIRECTION ( 'NONE',  ( 0.000000000000000000, 0.000000000000000000, -1.000000000000000000 ) ) ;
#27 = PLANE ( 'NONE',  #228 ) ;
#28 = FACE_OUTER_BOUND ( 'NONE', #133, .T. ) ;
#29 = FACE_OUTER_BOUND ( 'NONE', #190, .T. ) ;
#30 = ADVANCED_FACE ( 'NONE', ( #100 ), #99, .T. ) ;
#31 = CIRCLE ( 'NONE', #39, 2.749999999999809930 ) ;
#32 = AXIS2_PLACEMENT_3D ( 'NONE', #171, #148, #75 ) ;
#33 = DIRECTION ( 'NONE',  ( 0.000000000000000000, 0.000000000000000000, 1.000000000000000000 ) ) ;
#34 = EDGE_CURVE ( 'NONE', #210, #256, #243, .T. ) ;
#35 = CARTESIAN_POINT ( 'NONE',  ( 0.000000000000000000, -0.3250000000001307399, 0.000000000000000000 ) ) ;
#36 = EDGE_LOOP ( 'NONE', ( #232, #192, #91, #68 ) ) ;
#37 = DIRECTION ( 'NONE',  ( 0.000000000000000000, 0.000000000000000000, 1.000000000000000000 ) ) ;
#38 = VERTEX_POINT ( 'NONE', #3 ) ;
#39 = AXIS2_PLACEMENT_3D ( 'NONE', #180, #158, #160 ) ;
#40 = CARTESIAN_POINT ( 'NONE',  ( 0.000000000000000000, -0.3250000000001307399, -0.5500000000000000444 ) ) ;
#41 = EDGE_LOOP ( 'NONE', ( #280, #279, #108, #129 ) ) ;
#42 = EDGE_CURVE ( 'NONE', #210, #18, #193, .T. ) ;
#43 = DIRECTION ( 'NONE',  ( 0.000000000000000000, -1.000000000000000000, 0.000000000000000000 ) ) ;
#44 = EDGE_LOOP ( 'NONE', ( #16, #64, #130, #97 ) ) ;
#45 = CARTESIAN_POINT ( 'NONE',  ( 0.000000000000000000, 0.000000000000000000, -0.2750000000000000222 ) ) ;
#46 = ORIENTED_EDGE ( 'NONE', *, *, #259, .F. ) ;
#47 = SURFACE_STYLE_USAGE ( .BOTH. , #117 ) ;
#48 = CIRCLE ( 'NONE', #142, 1.999999999999780176 ) ;
#49 = DIRECTION ( 'NONE',  ( 0.000000000000000000, -1.000000000000000000, 0.000000000000000000 ) ) ;
#50 = FILL_AREA_STYLE_COLOUR ( '', #89 ) ;
#51 = EDGE_CURVE ( 'NONE', #38, #254, #161, .T. ) ;
#52 = DIRECTION ( 'NONE',  ( 0.000000000000000000, 0.000000000000000000, 1.000000000000000000 ) ) ;
#53 = PLANE ( 'NONE',  #143 ) ;
#54 = APPLICATION_PROTOCOL_DEFINITION ( 'draft international standard', 'automotive_design', 1998, #156 ) ;
#55 = DIRECTION ( 'NONE',  ( 0.000000000000000000, -1.000000000000000000, 0.000000000000000000 ) ) ;
#56 = DIRECTION ( 'NONE',  ( 0.000000000000000000, 0.000000000000000000, 1.000000000000000000 ) ) ;
#57 = VECTOR ( 'NONE', #170, 1000.000000000000000 ) ;
#58 = PRODUCT_DEFINITION ( 'UNKNOWN', '', #150, #153 ) ;
#59 = CARTESIAN_POINT ( 'NONE',  ( 0.000000000000000000, -2.000000000000223821, 20.00000000000000000 ) ) ;
#60 = ORIENTED_EDGE ( 'NONE', *, *, #185, .F. ) ;
#61 = CARTESIAN_POINT ( 'NONE',  ( 0.000000000000000000, -2.000000000000223821, 1.399999999999999911 ) ) ;
#62 = ADVANCED_FACE ( 'NONE', ( #223 ), #53, .T. ) ;
#63 = FACE_OUTER_BOUND ( 'NONE', #113, .T. ) ;
#64 = ORIENTED_EDGE ( 'NONE', *, *, #73, .T. ) ;
#65 = CIRCLE ( 'NONE', #267, 1.999999999999780176 ) ;
#66 = AXIS2_PLACEMENT_3D ( 'NONE', #45, #110, #172 ) ;
#67 = CARTESIAN_POINT ( 'NONE',  ( 0.000000000000000000, -2.750000000000252243, 0.6999999999999999556 ) ) ;
#68 = ORIENTED_EDGE ( 'NONE', *, *, #249, .F. ) ;
#69 = DIRECTION ( 'NONE',  ( -1.224646799147351975E-16, 0.000000000000000000, -1.000000000000000000 ) ) ;
#70 = ORIENTED_EDGE ( 'NONE', *, *, #183, .T. ) ;
#71 = DIRECTION ( 'NONE',  ( 0.000000000000000000, 0.000000000000000000, -1.000000000000000000 ) ) ;
#72 = DIRECTION ( 'NONE',  ( 0.000000000000000000, 0.000000000000000000, 1.000000000000000000 ) ) ;
#73 = EDGE_CURVE ( 'NONE', #18, #111, #80, .T. ) ;
#74 = AXIS2_PLACEMENT_3D ( 'NONE', #241, #72, #227 ) ;
#75 = DIRECTION ( 'NONE',  ( 0.000000000000000000, -1.000000000000000000, 0.000000000000000000 ) ) ;
#76 = UNCERTAINTY_MEASURE_WITH_UNIT (LENGTH_MEASURE( 1.000000000000000082E-05 ), #23, 'distance_accuracy_value', 'NONE');
#77 = PLANE ( 'NONE',  #149 ) ;
#78 = PRODUCT ( '\X2\0428043f0438043b044c043a0430\X0\ \X2\041c\X0\4(1)', '\X2\0428043f0438043b044c043a0430\X0\ \X2\041c\X0\4(1)', '', ( #2 ) ) ;
#79 = EDGE_CURVE ( 'NONE', #152, #154, #206, .T. ) ;
#80 = LINE ( 'NONE', #141, #105 ) ;
#81 = LINE ( 'NONE', #204, #109 ) ;
#82 =( NAMED_UNIT ( * ) PLANE_ANGLE_UNIT ( ) SI_UNIT ( $, .RADIAN. ) );
#83 = CARTESIAN_POINT ( 'NONE',  ( 0.000000000000000000, 0.000000000000000000, -0.5500000000000000444 ) ) ;
#84 = CLOSED_SHELL ( 'NONE', ( #247, #234, #164, #213, #125, #7, #62, #159, #263, #30 ) ) ;
#85 = DIRECTION ( 'NONE',  ( 0.000000000000000000, 0.000000000000000000, -1.000000000000000000 ) ) ;
#86 = VECTOR ( 'NONE', #262, 1000.000000000000000 ) ;
#87 = AXIS2_PLACEMENT_3D ( 'NONE', #253, #214, #275 ) ;
#88 = CARTESIAN_POINT ( 'NONE',  ( 0.000000000000000000, 0.000000000000000000, 20.00000000000000000 ) ) ;
#89 = COLOUR_RGB ( '',0.7921568627450980005, 0.8196078431372548767, 0.9333333333333333481 ) ;
#90 = EDGE_LOOP ( 'NONE', ( #194, #60, #277, #176 ) ) ;
#91 = ORIENTED_EDGE ( 'NONE', *, *, #11, .F. ) ;
#92 = DIRECTION ( 'NONE',  ( -1.000000000000000000, 0.000000000000000000, 1.224646799147351975E-16 ) ) ;
#93 = ORIENTED_EDGE ( 'NONE', *, *, #201, .F. ) ;
#94 = CIRCLE ( 'NONE', #166, 1.999999999999780176 ) ;
#95 = CYLINDRICAL_SURFACE ( 'NONE', #251, 2.749999999999809930 ) ;
#96 = EDGE_LOOP ( 'NONE', ( #177, #131 ) ) ;
#97 = ORIENTED_EDGE ( 'NONE', *, *, #34, .F. ) ;
#98 = DIRECTION ( 'NONE',  ( 0.000000000000000000, 0.000000000000000000, -1.000000000000000000 ) ) ;
#99 = CYLINDRICAL_SURFACE ( 'NONE', #285, 0.3250000000001310174 ) ;
#100 = FACE_OUTER_BOUND ( 'NONE', #44, .T. ) ;
#101 = CARTESIAN_POINT ( 'NONE',  ( 0.000000000000000000, -2.750000000000252243, 1.399999999999999911 ) ) ;
#102 = CARTESIAN_POINT ( 'NONE',  ( 0.000000000000000000, 0.000000000000000000, 0.000000000000000000 ) ) ;
#103 = CARTESIAN_POINT ( 'NONE',  ( 0.000000000000000000, 0.000000000000000000, 1.399999999999999911 ) ) ;
#104 = FILL_AREA_STYLE ('',( #50 ) ) ;
#105 = VECTOR ( 'NONE', #135, 1000.000000000000000 ) ;
#106 = VECTOR ( 'NONE', #238, 1000.000000000000000 ) ;
#107 = CIRCLE ( 'NONE', #165, 0.3250000000001310174 ) ;
#108 = ORIENTED_EDGE ( 'NONE', *, *, #249, .T. ) ;
#109 = VECTOR ( 'NONE', #269, 1000.000000000000000 ) ;
#110 = DIRECTION ( 'NONE',  ( 1.224646799147351975E-16, 0.000000000000000000, 1.000000000000000000 ) ) ;
#111 = VERTEX_POINT ( 'NONE', #25 ) ;
#112 = ORIENTED_EDGE ( 'NONE', *, *, #34, .T. ) ;
#113 = EDGE_LOOP ( 'NONE', ( #231, #239, #112, #46 ) ) ;
#114 = AXIS2_PLACEMENT_3D ( 'NONE', #122, #85, #205 ) ;
#115 = EDGE_CURVE ( 'NONE', #254, #188, #94, .T. ) ;
#116 = CYLINDRICAL_SURFACE ( 'NONE', #32, 1.999999999999780176 ) ;
#117 = SURFACE_SIDE_STYLE ('',( #24 ) ) ;
#118 = CARTESIAN_POINT ( 'NONE',  ( 0.000000000000000000, 0.000000000000000000, 1.399999999999999911 ) ) ;
#119 = DIRECTION ( 'NONE',  ( 0.000000000000000000, 0.000000000000000000, -1.000000000000000000 ) ) ;
#120 = DIRECTION ( 'NONE',  ( -1.000000000000000000, 0.000000000000000000, 0.000000000000000000 ) ) ;
#121 =( GEOMETRIC_REPRESENTATION_CONTEXT ( 3 ) GLOBAL_UNCERTAINTY_ASSIGNED_CONTEXT ( ( #76 ) ) GLOBAL_UNIT_ASSIGNED_CONTEXT ( ( #23, #82, #283 ) ) REPRESENTATION_CONTEXT ( 'NONE', 'WORKASPACE' ) );
#122 = CARTESIAN_POINT ( 'NONE',  ( 0.000000000000000000, 0.000000000000000000, 10.69999999999999929 ) ) ;
#123 = DIRECTION ( 'NONE',  ( 0.000000000000000000, -1.000000000000000000, 0.000000000000000000 ) ) ;
#124 = DIRECTION ( 'NONE',  ( 0.000000000000000000, -1.000000000000000000, 0.000000000000000000 ) ) ;
#125 = ADVANCED_FACE ( 'NONE', ( #244, #29 ), #77, .T. ) ;
#126 = EDGE_CURVE ( 'NONE', #256, #111, #236, .T. ) ;
#127 =( GEOMETRIC_REPRESENTATION_CONTEXT ( 3 ) GLOBAL_UNCERTAINTY_ASSIGNED_CONTEXT ( ( #13 ) ) GLOBAL_UNIT_ASSIGNED_CONTEXT ( ( #282, #184, #195 ) ) REPRESENTATION_CONTEXT ( 'NONE', 'WORKASPACE' ) );
#128 = FACE_OUTER_BOUND ( 'NONE', #36, .T. ) ;
#129 = ORIENTED_EDGE ( 'NONE', *, *, #167, .F. ) ;
#130 = ORIENTED_EDGE ( 'NONE', *, *, #126, .F. ) ;
#131 = ORIENTED_EDGE ( 'NONE', *, *, #259, .T. ) ;
#132 = VERTEX_POINT ( 'NONE', #155 ) ;
#133 = EDGE_LOOP ( 'NONE', ( #252, #212, #218, #93 ) ) ;
#134 = DIRECTION ( 'NONE',  ( 0.000000000000000000, -1.000000000000000000, 0.000000000000000000 ) ) ;
#135 = DIRECTION ( 'NONE',  ( 1.224646799147351975E-16, 0.000000000000000000, 1.000000000000000000 ) ) ;
#136 = DIRECTION ( 'NONE',  ( 0.000000000000000000, -1.000000000000000000, 0.000000000000000000 ) ) ;
#137 = CARTESIAN_POINT ( 'NONE',  ( 0.000000000000000000, 0.000000000000000000, 20.00000000000000000 ) ) ;
#138 = CARTESIAN_POINT ( 'NONE',  ( 0.000000000000000000, 2.749999999999808153, 1.399999999999999911 ) ) ;
#139 = STYLED_ITEM ( 'NONE', ( #233 ), #144 ) ;
#140 = CIRCLE ( 'NONE', #8, 1.999999999999780176 ) ;
#141 = CARTESIAN_POINT ( 'NONE',  ( 0.000000000000000000, 0.3249999999996866507, -0.2750000000000000222 ) ) ;
#142 = AXIS2_PLACEMENT_3D ( 'NONE', #88, #9, #219 ) ;
#143 = AXIS2_PLACEMENT_3D ( 'NONE', #137, #264, #136 ) ;
#144 = MANIFOLD_SOLID_BREP ( 'NONE', #84 ) ;
#145 = EDGE_LOOP ( 'NONE', ( #217, #273 ) ) ;
#146 = ORIENTED_EDGE ( 'NONE', *, *, #79, .T. ) ;
#147 = CYLINDRICAL_SURFACE ( 'NONE', #66, 0.3250000000001310174 ) ;
#148 = DIRECTION ( 'NONE',  ( 0.000000000000000000, 0.000000000000000000, -1.000000000000000000 ) ) ;
#149 = AXIS2_PLACEMENT_3D ( 'NONE', #224, #26, #120 ) ;
#150 = PRODUCT_DEFINITION_FORMATION_WITH_SPECIFIED_SOURCE ( 'ANY', '', #78, .NOT_KNOWN. ) ;
#151 = LINE ( 'NONE', #67, #106 ) ;
#152 = VERTEX_POINT ( 'NONE', #138 ) ;
#153 = PRODUCT_DEFINITION_CONTEXT ( 'detailed design', #156, 'design' ) ;
#154 = VERTEX_POINT ( 'NONE', #101 ) ;
#155 = CARTESIAN_POINT ( 'NONE',  ( 0.000000000000000000, 2.749999999999808153, 0.000000000000000000 ) ) ;
#156 = APPLICATION_CONTEXT ( 'automotive_design' ) ;
#157 = AXIS2_PLACEMENT_3D ( 'NONE', #15, #69, #92 ) ;
#158 = DIRECTION ( 'NONE',  ( 0.000000000000000000, 0.000000000000000000, -1.000000000000000000 ) ) ;
#159 = ADVANCED_FACE ( 'NONE', ( #28 ), #203, .T. ) ;
#160 = DIRECTION ( 'NONE',  ( 0.000000000000000000, -1.000000000000000000, 0.000000000000000000 ) ) ;
#161 = LINE ( 'NONE', #265, #220 ) ;
#162 = PRODUCT_DEFINITION_SHAPE ( 'NONE', 'NONE',  #58 ) ;
#163 = DIRECTION ( 'NONE',  ( 0.000000000000000000, -1.000000000000000000, 0.000000000000000000 ) ) ;
#164 = ADVANCED_FACE ( 'NONE', ( #189, #271 ), #27, .T. ) ;
#165 = AXIS2_PLACEMENT_3D ( 'NONE', #281, #181, #55 ) ;
#166 = AXIS2_PLACEMENT_3D ( 'NONE', #222, #119, #199 ) ;
#167 = EDGE_CURVE ( 'NONE', #132, #258, #4, .T. ) ;
#168 = CYLINDRICAL_SURFACE ( 'NONE', #87, 2.749999999999809930 ) ;
#169 = ORIENTED_EDGE ( 'NONE', *, *, #115, .T. ) ;
#170 = DIRECTION ( 'NONE',  ( 0.000000000000000000, 0.000000000000000000, -1.000000000000000000 ) ) ;
#171 = CARTESIAN_POINT ( 'NONE',  ( 0.000000000000000000, 0.000000000000000000, 10.69999999999999929 ) ) ;
#172 = DIRECTION ( 'NONE',  ( 0.000000000000000000, -1.000000000000000000, 0.000000000000000000 ) ) ;
#173 = EDGE_LOOP ( 'NONE', ( #240, #12 ) ) ;
#174 = CARTESIAN_POINT ( 'NONE',  ( 0.000000000000000000, 0.000000000000000000, 0.000000000000000000 ) ) ;
#175 = CARTESIAN_POINT ( 'NONE',  ( 0.000000000000000000, 1.999999999999779732, 1.399999999999999911 ) ) ;
#176 = ORIENTED_EDGE ( 'NONE', *, *, #115, .F. ) ;
#177 = ORIENTED_EDGE ( 'NONE', *, *, #126, .T. ) ;
#178 = CARTESIAN_POINT ( 'NONE',  ( 0.000000000000000000, -0.3250000000001307399, -0.2750000000000000222 ) ) ;
#179 = DIRECTION ( 'NONE',  ( 0.000000000000000000, 0.000000000000000000, -1.000000000000000000 ) ) ;
#180 = CARTESIAN_POINT ( 'NONE',  ( 0.000000000000000000, 0.000000000000000000, 0.000000000000000000 ) ) ;
#181 = DIRECTION ( 'NONE',  ( -1.224646799147351975E-16, -0.000000000000000000, -1.000000000000000000 ) ) ;
#182 = CARTESIAN_POINT ( 'NONE',  ( 0.000000000000000000, 2.749999999999808153, 0.6999999999999999556 ) ) ;
#183 = EDGE_CURVE ( 'NONE', #188, #254, #65, .T. ) ;
#184 =( NAMED_UNIT ( * ) PLANE_ANGLE_UNIT ( ) SI_UNIT ( $, .RADIAN. ) );
#185 = EDGE_CURVE ( 'NONE', #215, #38, #48, .T. ) ;
#186 = FACE_OUTER_BOUND ( 'NONE', #41, .T. ) ;
#187 = FACE_OUTER_BOUND ( 'NONE', #90, .T. ) ;
#188 = VERTEX_POINT ( 'NONE', #61 ) ;
#189 = FACE_BOUND ( 'NONE', #276, .T. ) ;
#190 = EDGE_LOOP ( 'NONE', ( #235, #21 ) ) ;
#191 = DIRECTION ( 'NONE',  ( 0.000000000000000000, 0.000000000000000000, 1.000000000000000000 ) ) ;
#192 = ORIENTED_EDGE ( 'NONE', *, *, #207, .T. ) ;
#193 = CIRCLE ( 'NONE', #255, 0.3250000000001310174 ) ;
#194 = ORIENTED_EDGE ( 'NONE', *, *, #51, .F. ) ;
#195 =( NAMED_UNIT ( * ) SI_UNIT ( $, .STERADIAN. ) SOLID_ANGLE_UNIT ( ) );
#196 = DIRECTION ( 'NONE',  ( 1.224646799147351975E-16, 0.000000000000000000, 1.000000000000000000 ) ) ;
#197 = CARTESIAN_POINT ( 'NONE',  ( 0.000000000000000000, 0.000000000000000000, -0.2750000000000000222 ) ) ;
#198 = APPLICATION_PROTOCOL_DEFINITION ( 'draft international standard', 'automotive_design', 1998, #237 ) ;
#199 = DIRECTION ( 'NONE',  ( 0.000000000000000000, -1.000000000000000000, 0.000000000000000000 ) ) ;
#200 = DIRECTION ( 'NONE',  ( 0.000000000000000000, 0.000000000000000000, -1.000000000000000000 ) ) ;
#201 = EDGE_CURVE ( 'NONE', #215, #188, #81, .T. ) ;
#202 = SHAPE_DEFINITION_REPRESENTATION ( #162, #6 ) ;
#203 = CYLINDRICAL_SURFACE ( 'NONE', #114, 1.999999999999780176 ) ;
#204 = CARTESIAN_POINT ( 'NONE',  ( 0.000000000000000000, -2.000000000000223821, 10.69999999999999929 ) ) ;
#205 = DIRECTION ( 'NONE',  ( 0.000000000000000000, -1.000000000000000000, 0.000000000000000000 ) ) ;
#206 = CIRCLE ( 'NONE', #74, 2.749999999999809930 ) ;
#207 = EDGE_CURVE ( 'NONE', #152, #132, #209, .T. ) ;
#208 = DIRECTION ( 'NONE',  ( 0.000000000000000000, -1.000000000000000000, 0.000000000000000000 ) ) ;
#209 = LINE ( 'NONE', #182, #57 ) ;
#210 = VERTEX_POINT ( 'NONE', #40 ) ;
#211 = PLANE ( 'NONE',  #157 ) ;
#212 = ORIENTED_EDGE ( 'NONE', *, *, #51, .T. ) ;
#213 = ADVANCED_FACE ( 'NONE', ( #186 ), #168, .T. ) ;
#214 = DIRECTION ( 'NONE',  ( 0.000000000000000000, 0.000000000000000000, -1.000000000000000000 ) ) ;
#215 = VERTEX_POINT ( 'NONE', #59 ) ;
#216 = CARTESIAN_POINT ( 'NONE',  ( 0.000000000000000000, -2.750000000000252243, 0.000000000000000000 ) ) ;
#217 = ORIENTED_EDGE ( 'NONE', *, *, #42, .T. ) ;
#218 = ORIENTED_EDGE ( 'NONE', *, *, #183, .F. ) ;
#219 = DIRECTION ( 'NONE',  ( 0.000000000000000000, -1.000000000000000000, 0.000000000000000000 ) ) ;
#220 = VECTOR ( 'NONE', #179, 1000.000000000000000 ) ;
#221 = EDGE_CURVE ( 'NONE', #154, #152, #248, .T. ) ;
#222 = CARTESIAN_POINT ( 'NONE',  ( 0.000000000000000000, 0.000000000000000000, 1.399999999999999911 ) ) ;
#223 = FACE_OUTER_BOUND ( 'NONE', #173, .T. ) ;
#224 = CARTESIAN_POINT ( 'NONE',  ( 0.000000000000000000, 0.000000000000000000, 0.000000000000000000 ) ) ;
#225 = EDGE_CURVE ( 'NONE', #38, #215, #140, .T. ) ;
#226 = AXIS2_PLACEMENT_3D ( 'NONE', #230, #37, #270 ) ;
#227 = DIRECTION ( 'NONE',  ( 0.000000000000000000, -1.000000000000000000, 0.000000000000000000 ) ) ;
#228 = AXIS2_PLACEMENT_3D ( 'NONE', #118, #33, #208 ) ;
#229 = PRESENTATION_LAYER_ASSIGNMENT (  '', '', ( #139 ) ) ;
#230 = CARTESIAN_POINT ( 'NONE',  ( 0.000000000000000000, 0.000000000000000000, 1.399999999999999911 ) ) ;
#231 = ORIENTED_EDGE ( 'NONE', *, *, #73, .F. ) ;
#232 = ORIENTED_EDGE ( 'NONE', *, *, #79, .F. ) ;
#233 = PRESENTATION_STYLE_ASSIGNMENT (( #47 ) ) ;
#234 = ADVANCED_FACE ( 'NONE', ( #10 ), #211, .T. ) ;
#235 = ORIENTED_EDGE ( 'NONE', *, *, #11, .T. ) ;
#236 = CIRCLE ( 'NONE', #250, 0.3250000000001310174 ) ;
#237 = APPLICATION_CONTEXT ( 'automotive_design' ) ;
#238 = DIRECTION ( 'NONE',  ( 0.000000000000000000, 0.000000000000000000, -1.000000000000000000 ) ) ;
#239 = ORIENTED_EDGE ( 'NONE', *, *, #42, .F. ) ;
#240 = ORIENTED_EDGE ( 'NONE', *, *, #185, .T. ) ;
#241 = CARTESIAN_POINT ( 'NONE',  ( 0.000000000000000000, 0.000000000000000000, 1.399999999999999911 ) ) ;
#242 = CIRCLE ( 'NONE', #14, 0.3250000000001310174 ) ;
#243 = LINE ( 'NONE', #178, #86 ) ;
#244 = FACE_BOUND ( 'NONE', #96, .T. ) ;
#245 = CARTESIAN_POINT ( 'NONE',  ( 0.000000000000000000, 0.000000000000000000, 0.000000000000000000 ) ) ;
#246 = MECHANICAL_DESIGN_GEOMETRIC_PRESENTATION_REPRESENTATION (  '', ( #139 ), #127 ) ;
#247 = ADVANCED_FACE ( 'NONE', ( #63 ), #147, .T. ) ;
#248 = CIRCLE ( 'NONE', #226, 2.749999999999809930 ) ;
#249 = EDGE_CURVE ( 'NONE', #154, #258, #151, .T. ) ;
#250 = AXIS2_PLACEMENT_3D ( 'NONE', #245, #56, #123 ) ;
#251 = AXIS2_PLACEMENT_3D ( 'NONE', #257, #71, #49 ) ;
#252 = ORIENTED_EDGE ( 'NONE', *, *, #225, .F. ) ;
#253 = CARTESIAN_POINT ( 'NONE',  ( 0.000000000000000000, 0.000000000000000000, 0.6999999999999999556 ) ) ;
#254 = VERTEX_POINT ( 'NONE', #175 ) ;
#255 = AXIS2_PLACEMENT_3D ( 'NONE', #83, #1, #163 ) ;
#256 = VERTEX_POINT ( 'NONE', #35 ) ;
#257 = CARTESIAN_POINT ( 'NONE',  ( 0.000000000000000000, 0.000000000000000000, 0.6999999999999999556 ) ) ;
#258 = VERTEX_POINT ( 'NONE', #216 ) ;
#259 = EDGE_CURVE ( 'NONE', #111, #256, #242, .T. ) ;
#260 = ORIENTED_EDGE ( 'NONE', *, *, #221, .T. ) ;
#261 = CARTESIAN_POINT ( 'NONE',  ( -1.352707003472935821, 2.810711317244714902, 0.000000000000000000 ) ) ;
#262 = DIRECTION ( 'NONE',  ( 1.224646799147351975E-16, 0.000000000000000000, 1.000000000000000000 ) ) ;
#263 = ADVANCED_FACE ( 'NONE', ( #128 ), #95, .T. ) ;
#264 = DIRECTION ( 'NONE',  ( 0.000000000000000000, 0.000000000000000000, 1.000000000000000000 ) ) ;
#265 = CARTESIAN_POINT ( 'NONE',  ( 0.000000000000000000, 1.999999999999779732, 10.69999999999999929 ) ) ;
#266 = DIRECTION ( 'NONE',  ( 0.000000000000000000, -1.000000000000000000, 0.000000000000000000 ) ) ;
#267 = AXIS2_PLACEMENT_3D ( 'NONE', #103, #200, #124 ) ;
#268 = AXIS2_PLACEMENT_3D ( 'NONE', #174, #98, #272 ) ;
#269 = DIRECTION ( 'NONE',  ( 0.000000000000000000, 0.000000000000000000, -1.000000000000000000 ) ) ;
#270 = DIRECTION ( 'NONE',  ( 0.000000000000000000, -1.000000000000000000, 0.000000000000000000 ) ) ;
#271 = FACE_OUTER_BOUND ( 'NONE', #22, .T. ) ;
#272 = DIRECTION ( 'NONE',  ( 0.000000000000000000, -1.000000000000000000, 0.000000000000000000 ) ) ;
#273 = ORIENTED_EDGE ( 'NONE', *, *, #19, .T. ) ;
#274 = PRODUCT_RELATED_PRODUCT_CATEGORY ( 'part', '', ( #78 ) ) ;
#275 = DIRECTION ( 'NONE',  ( 0.000000000000000000, -1.000000000000000000, 0.000000000000000000 ) ) ;
#276 = EDGE_LOOP ( 'NONE', ( #70, #169 ) ) ;
#277 = ORIENTED_EDGE ( 'NONE', *, *, #201, .T. ) ;
#278 = DIRECTION ( 'NONE',  ( 0.000000000000000000, -1.000000000000000000, 0.000000000000000000 ) ) ;
#279 = ORIENTED_EDGE ( 'NONE', *, *, #221, .F. ) ;
#280 = ORIENTED_EDGE ( 'NONE', *, *, #207, .F. ) ;
#281 = CARTESIAN_POINT ( 'NONE',  ( 0.000000000000000000, 0.000000000000000000, -0.5500000000000000444 ) ) ;
#282 =( LENGTH_UNIT ( ) NAMED_UNIT ( * ) SI_UNIT ( .MILLI., .METRE. ) );
#283 =( NAMED_UNIT ( * ) SI_UNIT ( $, .STERADIAN. ) SOLID_ANGLE_UNIT ( ) );
#284 = CARTESIAN_POINT ( 'NONE',  ( 0.000000000000000000, 0.3249999999996866507, -0.5500000000000000444 ) ) ;
#285 = AXIS2_PLACEMENT_3D ( 'NONE', #197, #196, #266 ) ;
ENDSEC;
END-ISO-10303-21;
