M48
; DRILL file {KiCad 8.0.5-8.0.5-0~ubuntu24.04.1} date 2024-12-11T12:23:00+0300
; FORMAT={-:-/ absolute / metric / decimal}
; #@! TF.CreationDate,2024-12-11T12:23:00+03:00
; #@! TF.GenerationSoftware,Kicad,Pcbnew,8.0.5-8.0.5-0~ubuntu24.04.1
; #@! TF.FileFunction,Plated,1,6,PTH
FMAT,2
METRIC
; #@! TA.AperFunction,Plated,PTH,ViaDrill
T1C0.400
; #@! TA.AperFunction,Plated,PTH,ComponentDrill
T2C1.000
; #@! TA.AperFunction,Plated,PTH,ComponentDrill
T3C1.200
; #@! TA.AperFunction,Plated,PTH,ComponentDrill
T4C3.200
; #@! TA.AperFunction,Plated,PTH,ComponentDrill
T5C4.000
%
G90
G05
T1
X120.142Y-69.088
X120.142Y-70.358
X120.142Y-71.628
X120.142Y-72.898
X120.142Y-74.168
X120.142Y-75.438
X120.142Y-76.708
X123.952Y-80.01
X123.952Y-81.026
X123.952Y-82.042
X123.952Y-83.058
X123.952Y-84.074
X123.952Y-85.09
X123.952Y-86.106
X124.968Y-81.534
X124.968Y-82.55
X124.968Y-83.566
X124.968Y-84.582
X124.968Y-85.598
X125.984Y-77.724
X125.984Y-78.994
X125.984Y-80.01
X125.984Y-81.026
X125.984Y-82.042
X125.984Y-83.058
X125.984Y-84.074
X125.984Y-85.09
X125.984Y-86.106
X126.238Y-75.946
X127.381Y-65.786
X127.381Y-67.056
X127.381Y-68.326
X127.381Y-69.596
X127.381Y-70.866
X127.381Y-72.136
X127.381Y-73.406
X129.794Y-75.946
X130.556Y-67.056
X130.556Y-68.326
X130.556Y-69.596
X130.556Y-70.866
X130.556Y-72.136
X132.715Y-77.978
X132.715Y-79.248
X132.715Y-80.518
X132.715Y-81.788
X132.715Y-83.058
X132.715Y-84.328
X132.715Y-85.598
X133.604Y-90.17
X133.604Y-91.186
X133.604Y-92.202
X133.604Y-93.218
X133.604Y-94.234
X133.604Y-95.25
X133.604Y-96.266
X133.604Y-97.282
X133.604Y-98.298
X133.604Y-99.314
X133.604Y-100.33
X133.604Y-101.346
X133.604Y-102.362
X133.604Y-103.378
X133.604Y-104.394
X133.604Y-105.41
X133.604Y-106.426
X133.604Y-107.442
X133.604Y-108.458
X133.604Y-109.474
X133.604Y-110.49
X133.731Y-65.786
X133.731Y-67.056
X133.731Y-68.326
X133.731Y-69.596
X133.731Y-70.866
X133.731Y-72.136
X133.731Y-73.406
X134.112Y-89.154
X134.62Y-90.17
X135.128Y-89.154
X135.636Y-90.17
X135.89Y-79.248
X135.89Y-80.518
X135.89Y-81.788
X135.89Y-83.058
X135.89Y-84.328
X136.144Y-89.154
X136.4Y-75.526
X136.652Y-90.17
X137.16Y-89.154
X137.4Y-58.7
X138.176Y-89.154
X139.065Y-62.611
X139.065Y-77.978
X139.065Y-79.248
X139.065Y-80.518
X139.065Y-81.788
X139.065Y-83.058
X139.065Y-84.328
X139.065Y-85.598
X139.192Y-89.154
X139.446Y-49.911
X139.446Y-56.261
X139.446Y-91.186
X139.446Y-92.202
X139.446Y-94.234
X139.446Y-96.266
X139.446Y-98.298
X139.446Y-100.33
X139.446Y-102.362
X139.446Y-104.394
X139.446Y-106.426
X139.446Y-108.458
X139.446Y-110.49
X139.446Y-112.522
X139.446Y-114.554
X139.954Y-73.787
X140.208Y-89.154
X140.716Y-49.911
X140.716Y-53.086
X140.716Y-56.261
X141.0Y-70.1
X141.224Y-89.154
X141.6Y-71.0
X141.605Y-65.659
X141.605Y-67.437
X141.605Y-69.215
X141.732Y-88.138
X141.986Y-49.911
X141.986Y-53.086
X141.986Y-56.261
X142.24Y-64.77
X142.24Y-66.548
X142.24Y-68.326
X142.24Y-70.104
X142.24Y-72.009
X142.24Y-89.154
X142.748Y-88.138
X142.748Y-90.17
X142.875Y-65.659
X142.875Y-67.437
X142.875Y-69.215
X142.875Y-70.993
X143.256Y-49.911
X143.256Y-53.086
X143.256Y-56.261
X143.256Y-82.55
X143.256Y-89.154
X143.51Y-64.77
X143.51Y-66.548
X143.51Y-68.326
X143.51Y-70.104
X143.764Y-81.534
X143.764Y-88.138
X143.764Y-90.17
X144.145Y-65.659
X144.145Y-67.437
X144.145Y-69.215
X144.145Y-70.993
X144.145Y-72.771
X144.272Y-80.518
X144.272Y-82.55
X144.272Y-89.154
X144.526Y-49.911
X144.526Y-53.086
X144.526Y-56.261
X144.78Y-64.77
X144.78Y-66.548
X144.78Y-68.326
X144.78Y-70.104
X144.78Y-71.882
X144.78Y-79.502
X144.78Y-81.534
X144.78Y-88.138
X144.78Y-90.17
X145.034Y-91.186
X145.034Y-92.202
X145.034Y-94.234
X145.034Y-96.266
X145.034Y-98.298
X145.034Y-100.33
X145.034Y-102.362
X145.034Y-104.394
X145.034Y-106.426
X145.034Y-108.458
X145.034Y-110.49
X145.034Y-112.522
X145.034Y-114.554
X145.288Y-80.518
X145.288Y-82.55
X145.288Y-89.154
X145.415Y-65.659
X145.415Y-67.437
X145.415Y-69.215
X145.415Y-70.993
X145.415Y-72.771
X145.796Y-49.911
X145.796Y-53.086
X145.796Y-56.261
X145.796Y-79.502
X145.796Y-81.534
X145.796Y-88.138
X145.796Y-90.17
X146.304Y-80.518
X146.304Y-82.55
X146.304Y-89.154
X146.812Y-77.47
X146.812Y-79.502
X146.812Y-81.534
X147.066Y-49.911
X147.066Y-56.261
X147.32Y-78.486
X147.32Y-80.518
X147.32Y-82.55
X147.828Y-77.47
X147.828Y-79.502
X147.828Y-81.534
X148.336Y-72.263
X148.336Y-74.422
X148.336Y-78.486
X148.336Y-80.518
X148.336Y-82.55
X148.844Y-77.47
X148.844Y-79.502
X148.844Y-81.534
X148.971Y-71.247
X148.971Y-73.406
X149.352Y-78.486
X149.352Y-80.518
X149.352Y-82.55
X149.606Y-50.292
X149.606Y-53.848
X149.606Y-72.263
X149.606Y-74.422
X149.86Y-77.47
X149.86Y-79.502
X149.86Y-81.534
X150.241Y-71.247
X150.241Y-73.406
X150.368Y-78.486
X150.368Y-80.518
X150.368Y-82.55
X150.876Y-72.263
X150.876Y-74.422
X150.876Y-77.47
X150.876Y-79.502
X150.876Y-81.534
X150.876Y-91.186
X150.876Y-92.202
X150.876Y-93.218
X150.876Y-94.234
X150.876Y-95.25
X150.876Y-96.266
X150.876Y-97.282
X150.876Y-98.298
X150.876Y-99.314
X150.876Y-100.33
X150.876Y-101.346
X150.876Y-102.362
X150.876Y-103.378
X150.876Y-104.394
X150.876Y-105.41
X150.876Y-106.426
X150.876Y-107.442
X150.876Y-108.458
X150.876Y-109.474
X150.876Y-110.49
X150.876Y-111.506
X150.876Y-112.522
X150.876Y-113.538
X150.876Y-114.554
X151.384Y-78.486
X151.384Y-80.518
X151.384Y-82.55
X151.511Y-71.247
X151.511Y-73.406
X151.892Y-48.26
X151.892Y-77.47
X151.892Y-79.502
X151.892Y-81.534
X152.146Y-54.864
X152.146Y-61.214
X152.146Y-72.263
X152.146Y-74.422
X152.4Y-47.498
X152.4Y-78.486
X152.4Y-80.518
X152.4Y-82.55
X152.908Y-46.736
X152.908Y-48.26
X152.908Y-77.47
X152.908Y-79.502
X152.908Y-81.534
X152.908Y-98.298
X152.908Y-100.33
X153.416Y-47.498
X153.416Y-54.864
X153.416Y-58.039
X153.416Y-61.214
X153.416Y-80.518
X153.416Y-82.55
X153.416Y-99.314
X153.924Y-46.736
X153.924Y-48.26
X153.924Y-79.502
X153.924Y-81.534
X153.924Y-98.298
X153.924Y-100.33
X154.432Y-47.498
X154.432Y-80.518
X154.432Y-82.55
X154.432Y-99.314
X154.55Y-67.437
X154.559Y-65.659
X154.559Y-69.215
X154.559Y-70.993
X154.559Y-72.771
X154.686Y-54.864
X154.686Y-58.039
X154.686Y-61.214
X154.94Y-46.736
X154.94Y-48.26
X154.94Y-79.502
X154.94Y-81.534
X154.94Y-98.298
X154.94Y-100.33
X155.194Y-64.77
X155.194Y-66.548
X155.194Y-68.326
X155.194Y-70.104
X155.194Y-71.882
X155.448Y-47.498
X155.448Y-80.518
X155.448Y-82.55
X155.448Y-99.314
X155.82Y-67.437
X155.829Y-65.659
X155.829Y-69.215
X155.829Y-70.993
X155.829Y-72.771
X155.956Y-46.736
X155.956Y-48.26
X155.956Y-54.864
X155.956Y-58.039
X155.956Y-61.214
X155.956Y-79.502
X155.956Y-81.534
X155.956Y-98.298
X155.956Y-100.33
X156.464Y-47.498
X156.464Y-64.77
X156.464Y-66.548
X156.464Y-68.326
X156.464Y-70.104
X156.464Y-71.882
X156.464Y-80.518
X156.464Y-82.55
X156.464Y-99.314
X156.972Y-46.736
X156.972Y-48.26
X156.972Y-81.534
X156.972Y-98.298
X156.972Y-100.33
X157.09Y-67.437
X157.099Y-65.659
X157.099Y-69.215
X157.099Y-70.993
X157.099Y-72.771
X157.226Y-54.864
X157.226Y-58.039
X157.226Y-61.214
X157.48Y-47.498
X157.48Y-82.55
X157.48Y-99.314
X157.734Y-64.77
X157.734Y-66.548
X157.734Y-68.326
X157.734Y-70.104
X157.734Y-71.882
X157.988Y-46.736
X157.988Y-48.26
X157.988Y-98.298
X157.988Y-100.33
X158.369Y-72.771
X158.496Y-47.498
X158.496Y-54.864
X158.496Y-58.039
X158.496Y-61.214
X158.496Y-99.314
X159.004Y-48.26
X159.004Y-98.298
X159.004Y-100.33
X159.131Y-65.532
X159.512Y-99.314
X159.766Y-54.864
X159.766Y-61.214
X160.02Y-98.298
X160.02Y-100.33
X160.401Y-78.232
X160.401Y-79.502
X160.401Y-80.772
X160.401Y-82.042
X160.401Y-83.312
X160.401Y-84.582
X160.401Y-85.852
X160.528Y-99.314
X161.036Y-50.546
X161.036Y-90.932
X162.941Y-63.881
X163.576Y-79.502
X163.576Y-80.772
X163.576Y-82.042
X163.576Y-83.312
X163.576Y-84.582
X164.592Y-108.966
X165.481Y-65.786
X165.481Y-67.056
X165.481Y-68.326
X165.481Y-69.596
X165.481Y-70.866
X165.481Y-72.136
X165.481Y-73.406
X166.751Y-78.232
X166.751Y-79.502
X166.751Y-80.772
X166.751Y-82.042
X166.751Y-83.312
X166.751Y-84.582
X166.751Y-85.852
X168.656Y-67.056
X168.656Y-68.326
X168.656Y-69.596
X168.656Y-70.866
X168.656Y-72.136
X169.418Y-76.109
X171.831Y-65.786
X171.831Y-67.056
X171.831Y-68.326
X171.831Y-69.596
X171.831Y-70.866
X171.831Y-72.136
X171.831Y-73.406
X173.017Y-76.026
X173.228Y-77.724
X173.228Y-78.74
X173.228Y-79.756
X173.228Y-80.772
X173.228Y-81.788
X173.228Y-82.804
X173.228Y-83.82
X173.228Y-84.836
X173.228Y-86.106
X174.244Y-78.232
X174.244Y-79.248
X174.244Y-80.264
X174.244Y-81.28
X174.244Y-82.296
X174.244Y-83.312
X175.26Y-78.74
X175.26Y-79.756
X175.26Y-80.772
X175.26Y-81.788
X176.276Y-80.264
X176.276Y-81.28
X178.816Y-66.548
X178.816Y-67.818
X178.816Y-69.088
X178.816Y-70.358
X178.816Y-71.628
X178.816Y-72.898
X179.048Y-75.276
X180.086Y-77.724
X180.34Y-75.184
T2
X137.937Y-117.338
X137.937Y-124.838
X160.797Y-117.338
X160.797Y-124.838
T3
X127.142Y-58.223
X149.367Y-42.983
X171.592Y-58.223
T4
X132.222Y-124.898
X167.147Y-124.898
T5
X144.287Y-119.483
X154.447Y-119.483
M30
