M48
; DRILL file {KiCad 8.0.3-8.0.3-0~ubuntu23.10.1} date 2024-10-02T12:23:54+0300
; FORMAT={-:-/ absolute / inch / decimal}
; #@! TF.CreationDate,2024-10-02T12:23:54+03:00
; #@! TF.GenerationSoftware,Kicad,Pcbnew,8.0.3-8.0.3-0~ubuntu23.10.1
; #@! TF.FileFunction,Plated,1,6,PTH
FMAT,2
INCH
; #@! TA.AperFunction,Plated,PTH,ViaDrill
T1C0.0157
; #@! TA.AperFunction,Plated,PTH,ComponentDrill
T2C0.0394
; #@! TA.AperFunction,Plated,PTH,ComponentDrill
T3C0.0472
; #@! TA.AperFunction,Plated,PTH,ComponentDrill
T4C0.1260
; #@! TA.AperFunction,Plated,PTH,ComponentDrill
T5C0.1575
%
G90
G05
T1
X4.73Y-2.72
X4.73Y-2.77
X4.73Y-2.82
X4.73Y-2.87
X4.73Y-2.92
X4.73Y-2.97
X4.73Y-3.02
X4.88Y-3.15
X4.88Y-3.19
X4.88Y-3.23
X4.88Y-3.27
X4.88Y-3.31
X4.88Y-3.35
X4.88Y-3.39
X4.92Y-3.21
X4.92Y-3.25
X4.92Y-3.29
X4.92Y-3.33
X4.92Y-3.37
X4.96Y-3.06
X4.96Y-3.11
X4.96Y-3.15
X4.96Y-3.19
X4.96Y-3.23
X4.96Y-3.27
X4.96Y-3.31
X4.96Y-3.35
X4.96Y-3.39
X4.97Y-2.99
X5.015Y-2.59
X5.015Y-2.64
X5.015Y-2.69
X5.015Y-2.74
X5.015Y-2.79
X5.015Y-2.84
X5.015Y-2.89
X5.11Y-2.99
X5.14Y-2.64
X5.14Y-2.69
X5.14Y-2.74
X5.14Y-2.79
X5.14Y-2.84
X5.225Y-3.07
X5.225Y-3.12
X5.225Y-3.17
X5.225Y-3.22
X5.225Y-3.27
X5.225Y-3.32
X5.225Y-3.37
X5.26Y-3.55
X5.26Y-3.59
X5.26Y-3.63
X5.26Y-3.67
X5.26Y-3.71
X5.26Y-3.75
X5.26Y-3.79
X5.26Y-3.83
X5.26Y-3.87
X5.26Y-3.91
X5.26Y-3.95
X5.26Y-3.99
X5.26Y-4.03
X5.26Y-4.07
X5.26Y-4.11
X5.26Y-4.15
X5.26Y-4.19
X5.26Y-4.23
X5.26Y-4.27
X5.26Y-4.31
X5.26Y-4.35
X5.265Y-2.59
X5.265Y-2.64
X5.265Y-2.69
X5.265Y-2.74
X5.265Y-2.79
X5.265Y-2.84
X5.265Y-2.89
X5.28Y-3.51
X5.3Y-3.55
X5.32Y-3.51
X5.34Y-3.55
X5.35Y-3.12
X5.35Y-3.17
X5.35Y-3.22
X5.35Y-3.27
X5.35Y-3.32
X5.36Y-3.51
X5.3701Y-2.9735
X5.38Y-3.55
X5.4Y-3.51
X5.4094Y-2.311
X5.44Y-3.51
X5.475Y-2.465
X5.475Y-3.07
X5.475Y-3.12
X5.475Y-3.17
X5.475Y-3.22
X5.475Y-3.27
X5.475Y-3.32
X5.475Y-3.37
X5.48Y-3.51
X5.49Y-1.965
X5.49Y-2.215
X5.49Y-3.59
X5.49Y-3.63
X5.49Y-3.71
X5.49Y-3.79
X5.49Y-3.87
X5.49Y-3.95
X5.49Y-4.03
X5.49Y-4.11
X5.49Y-4.19
X5.49Y-4.27
X5.49Y-4.35
X5.49Y-4.43
X5.49Y-4.51
X5.51Y-2.905
X5.52Y-3.51
X5.54Y-1.965
X5.54Y-2.09
X5.54Y-2.215
X5.5512Y-2.7598
X5.56Y-3.51
X5.5748Y-2.7953
X5.575Y-2.585
X5.575Y-2.655
X5.575Y-2.725
X5.58Y-3.47
X5.59Y-1.965
X5.59Y-2.09
X5.59Y-2.215
X5.6Y-2.55
X5.6Y-2.62
X5.6Y-2.69
X5.6Y-2.76
X5.6Y-2.835
X5.6Y-3.51
X5.62Y-3.47
X5.62Y-3.55
X5.625Y-2.585
X5.625Y-2.655
X5.625Y-2.725
X5.625Y-2.795
X5.64Y-1.965
X5.64Y-2.09
X5.64Y-2.215
X5.64Y-3.25
X5.64Y-3.51
X5.65Y-2.55
X5.65Y-2.62
X5.65Y-2.69
X5.65Y-2.76
X5.66Y-3.21
X5.66Y-3.47
X5.66Y-3.55
X5.675Y-2.585
X5.675Y-2.655
X5.675Y-2.725
X5.675Y-2.795
X5.675Y-2.865
X5.68Y-3.17
X5.68Y-3.25
X5.68Y-3.51
X5.69Y-1.965
X5.69Y-2.09
X5.69Y-2.215
X5.7Y-2.55
X5.7Y-2.62
X5.7Y-2.69
X5.7Y-2.76
X5.7Y-2.83
X5.7Y-3.13
X5.7Y-3.21
X5.7Y-3.47
X5.7Y-3.55
X5.71Y-3.59
X5.71Y-3.63
X5.71Y-3.71
X5.71Y-3.79
X5.71Y-3.87
X5.71Y-3.95
X5.71Y-4.03
X5.71Y-4.11
X5.71Y-4.19
X5.71Y-4.27
X5.71Y-4.35
X5.71Y-4.43
X5.71Y-4.51
X5.72Y-3.17
X5.72Y-3.25
X5.72Y-3.51
X5.725Y-2.585
X5.725Y-2.655
X5.725Y-2.725
X5.725Y-2.795
X5.725Y-2.865
X5.74Y-1.965
X5.74Y-2.09
X5.74Y-2.215
X5.74Y-3.13
X5.74Y-3.21
X5.74Y-3.47
X5.74Y-3.55
X5.76Y-3.17
X5.76Y-3.25
X5.76Y-3.51
X5.78Y-3.05
X5.78Y-3.13
X5.78Y-3.21
X5.79Y-1.965
X5.79Y-2.215
X5.8Y-3.09
X5.8Y-3.17
X5.8Y-3.25
X5.82Y-3.05
X5.82Y-3.13
X5.82Y-3.21
X5.84Y-2.845
X5.84Y-2.93
X5.84Y-3.09
X5.84Y-3.17
X5.84Y-3.25
X5.86Y-3.05
X5.86Y-3.13
X5.86Y-3.21
X5.865Y-2.805
X5.865Y-2.89
X5.88Y-3.09
X5.88Y-3.17
X5.88Y-3.25
X5.89Y-1.98
X5.89Y-2.12
X5.89Y-2.845
X5.89Y-2.93
X5.9Y-3.05
X5.9Y-3.13
X5.9Y-3.21
X5.915Y-2.805
X5.915Y-2.89
X5.92Y-3.09
X5.92Y-3.17
X5.92Y-3.25
X5.94Y-2.845
X5.94Y-2.93
X5.94Y-3.05
X5.94Y-3.13
X5.94Y-3.21
X5.94Y-3.59
X5.94Y-3.63
X5.94Y-3.67
X5.94Y-3.71
X5.94Y-3.75
X5.94Y-3.79
X5.94Y-3.83
X5.94Y-3.87
X5.94Y-3.91
X5.94Y-3.95
X5.94Y-3.99
X5.94Y-4.03
X5.94Y-4.07
X5.94Y-4.11
X5.94Y-4.15
X5.94Y-4.19
X5.94Y-4.23
X5.94Y-4.27
X5.94Y-4.31
X5.94Y-4.35
X5.94Y-4.39
X5.94Y-4.43
X5.94Y-4.47
X5.94Y-4.51
X5.96Y-3.09
X5.96Y-3.17
X5.96Y-3.25
X5.965Y-2.805
X5.965Y-2.89
X5.98Y-1.9
X5.98Y-3.05
X5.98Y-3.13
X5.98Y-3.21
X5.99Y-2.16
X5.99Y-2.41
X5.99Y-2.845
X5.99Y-2.93
X6.0Y-1.87
X6.0Y-3.09
X6.0Y-3.17
X6.0Y-3.25
X6.02Y-1.84
X6.02Y-1.9
X6.02Y-3.05
X6.02Y-3.13
X6.02Y-3.21
X6.02Y-3.87
X6.02Y-3.95
X6.04Y-1.87
X6.04Y-2.16
X6.04Y-2.285
X6.04Y-2.41
X6.04Y-3.17
X6.04Y-3.25
X6.04Y-3.91
X6.06Y-1.84
X6.06Y-1.9
X6.06Y-3.13
X6.06Y-3.21
X6.06Y-3.87
X6.06Y-3.95
X6.08Y-1.87
X6.08Y-3.17
X6.08Y-3.25
X6.08Y-3.91
X6.0846Y-2.655
X6.085Y-2.585
X6.085Y-2.725
X6.085Y-2.795
X6.085Y-2.865
X6.09Y-2.16
X6.09Y-2.285
X6.09Y-2.41
X6.1Y-1.84
X6.1Y-1.9
X6.1Y-3.13
X6.1Y-3.21
X6.1Y-3.87
X6.1Y-3.95
X6.11Y-2.55
X6.11Y-2.62
X6.11Y-2.69
X6.11Y-2.76
X6.11Y-2.83
X6.12Y-1.87
X6.12Y-3.17
X6.12Y-3.25
X6.12Y-3.91
X6.1346Y-2.655
X6.135Y-2.585
X6.135Y-2.725
X6.135Y-2.795
X6.135Y-2.865
X6.14Y-1.84
X6.14Y-1.9
X6.14Y-2.16
X6.14Y-2.285
X6.14Y-2.41
X6.14Y-3.13
X6.14Y-3.21
X6.14Y-3.87
X6.14Y-3.95
X6.16Y-1.87
X6.16Y-2.55
X6.16Y-2.62
X6.16Y-2.69
X6.16Y-2.76
X6.16Y-2.83
X6.16Y-3.17
X6.16Y-3.25
X6.16Y-3.91
X6.18Y-1.84
X6.18Y-1.9
X6.18Y-3.21
X6.18Y-3.87
X6.18Y-3.95
X6.1846Y-2.655
X6.185Y-2.585
X6.185Y-2.725
X6.185Y-2.795
X6.185Y-2.865
X6.19Y-2.16
X6.19Y-2.285
X6.19Y-2.41
X6.2Y-1.87
X6.2Y-3.25
X6.2Y-3.91
X6.21Y-2.55
X6.21Y-2.62
X6.21Y-2.69
X6.21Y-2.76
X6.21Y-2.83
X6.22Y-1.84
X6.22Y-1.9
X6.22Y-3.87
X6.22Y-3.95
X6.235Y-2.865
X6.24Y-1.87
X6.24Y-2.16
X6.24Y-2.285
X6.24Y-2.41
X6.24Y-3.91
X6.26Y-1.9
X6.26Y-3.87
X6.26Y-3.95
X6.265Y-2.58
X6.28Y-3.91
X6.29Y-2.16
X6.29Y-2.41
X6.3Y-3.87
X6.3Y-3.95
X6.315Y-3.08
X6.315Y-3.13
X6.315Y-3.18
X6.315Y-3.23
X6.315Y-3.28
X6.315Y-3.33
X6.315Y-3.38
X6.32Y-3.91
X6.34Y-1.99
X6.34Y-3.58
X6.415Y-2.515
X6.44Y-3.13
X6.44Y-3.18
X6.44Y-3.23
X6.44Y-3.28
X6.44Y-3.33
X6.48Y-4.29
X6.515Y-2.59
X6.515Y-2.64
X6.515Y-2.69
X6.515Y-2.74
X6.515Y-2.79
X6.515Y-2.84
X6.515Y-2.89
X6.565Y-3.08
X6.565Y-3.13
X6.565Y-3.18
X6.565Y-3.23
X6.565Y-3.28
X6.565Y-3.33
X6.565Y-3.38
X6.64Y-2.64
X6.64Y-2.69
X6.64Y-2.74
X6.64Y-2.79
X6.64Y-2.84
X6.67Y-2.9964
X6.765Y-2.59
X6.765Y-2.64
X6.765Y-2.69
X6.765Y-2.74
X6.765Y-2.79
X6.765Y-2.84
X6.765Y-2.89
X6.8117Y-2.9931
X6.82Y-3.06
X6.82Y-3.1
X6.82Y-3.14
X6.82Y-3.18
X6.82Y-3.22
X6.82Y-3.26
X6.82Y-3.3
X6.82Y-3.34
X6.82Y-3.39
X6.86Y-3.08
X6.86Y-3.12
X6.86Y-3.16
X6.86Y-3.2
X6.86Y-3.24
X6.86Y-3.28
X6.9Y-3.1
X6.9Y-3.14
X6.9Y-3.18
X6.9Y-3.22
X6.94Y-3.16
X6.94Y-3.2
X7.04Y-2.62
X7.04Y-2.67
X7.04Y-2.72
X7.04Y-2.77
X7.04Y-2.82
X7.04Y-2.87
X7.0491Y-2.9636
X7.09Y-3.06
X7.1Y-2.96
T2
X5.4306Y-4.6196
X5.4306Y-4.9149
X6.3306Y-4.6196
X6.3306Y-4.9149
T3
X5.0056Y-2.2923
X5.8806Y-1.7173
X6.7556Y-2.2923
T4
X5.2056Y-4.9173
X6.5806Y-4.9173
T5
X5.6806Y-4.7041
X6.0806Y-4.7041
M30
