%TF.GenerationSoftware,KiCad,Pcbnew,8.0.5-8.0.5-0~ubuntu24.04.1*%
%TF.CreationDate,2024-12-11T12:22:47+03:00*%
%TF.ProjectId,_______ _____,21383b3e-3230-44f2-903f-3b3042302e6b,rev?*%
%TF.SameCoordinates,Original*%
%TF.FileFunction,Legend,Bot*%
%TF.FilePolarity,Positive*%
%FSLAX46Y46*%
G04 Gerber Fmt 4.6, Leading zero omitted, Abs format (unit mm)*
G04 Created by KiCad (PCBNEW 8.0.5-8.0.5-0~ubuntu24.04.1) date 2024-12-11 12:22:47*
%MOMM*%
%LPD*%
G01*
G04 APERTURE LIST*
%ADD10C,0.150000*%
%ADD11C,0.120000*%
%TA.AperFunction,Profile*%
%ADD12C,0.200000*%
%TD*%
G04 APERTURE END LIST*
D10*
X142538832Y-104807104D02*
X142576928Y-104845200D01*
X142576928Y-104845200D02*
X142691213Y-104883295D01*
X142691213Y-104883295D02*
X142767404Y-104883295D01*
X142767404Y-104883295D02*
X142881690Y-104845200D01*
X142881690Y-104845200D02*
X142957880Y-104769009D01*
X142957880Y-104769009D02*
X142995975Y-104692819D01*
X142995975Y-104692819D02*
X143034071Y-104540438D01*
X143034071Y-104540438D02*
X143034071Y-104426152D01*
X143034071Y-104426152D02*
X142995975Y-104273771D01*
X142995975Y-104273771D02*
X142957880Y-104197580D01*
X142957880Y-104197580D02*
X142881690Y-104121390D01*
X142881690Y-104121390D02*
X142767404Y-104083295D01*
X142767404Y-104083295D02*
X142691213Y-104083295D01*
X142691213Y-104083295D02*
X142576928Y-104121390D01*
X142576928Y-104121390D02*
X142538832Y-104159485D01*
X141853118Y-104083295D02*
X142005499Y-104083295D01*
X142005499Y-104083295D02*
X142081690Y-104121390D01*
X142081690Y-104121390D02*
X142119785Y-104159485D01*
X142119785Y-104159485D02*
X142195975Y-104273771D01*
X142195975Y-104273771D02*
X142234071Y-104426152D01*
X142234071Y-104426152D02*
X142234071Y-104730914D01*
X142234071Y-104730914D02*
X142195975Y-104807104D01*
X142195975Y-104807104D02*
X142157880Y-104845200D01*
X142157880Y-104845200D02*
X142081690Y-104883295D01*
X142081690Y-104883295D02*
X141929309Y-104883295D01*
X141929309Y-104883295D02*
X141853118Y-104845200D01*
X141853118Y-104845200D02*
X141815023Y-104807104D01*
X141815023Y-104807104D02*
X141776928Y-104730914D01*
X141776928Y-104730914D02*
X141776928Y-104540438D01*
X141776928Y-104540438D02*
X141815023Y-104464247D01*
X141815023Y-104464247D02*
X141853118Y-104426152D01*
X141853118Y-104426152D02*
X141929309Y-104388057D01*
X141929309Y-104388057D02*
X142081690Y-104388057D01*
X142081690Y-104388057D02*
X142157880Y-104426152D01*
X142157880Y-104426152D02*
X142195975Y-104464247D01*
X142195975Y-104464247D02*
X142234071Y-104540438D01*
X148557785Y-100997104D02*
X148595881Y-101035200D01*
X148595881Y-101035200D02*
X148710166Y-101073295D01*
X148710166Y-101073295D02*
X148786357Y-101073295D01*
X148786357Y-101073295D02*
X148900643Y-101035200D01*
X148900643Y-101035200D02*
X148976833Y-100959009D01*
X148976833Y-100959009D02*
X149014928Y-100882819D01*
X149014928Y-100882819D02*
X149053024Y-100730438D01*
X149053024Y-100730438D02*
X149053024Y-100616152D01*
X149053024Y-100616152D02*
X149014928Y-100463771D01*
X149014928Y-100463771D02*
X148976833Y-100387580D01*
X148976833Y-100387580D02*
X148900643Y-100311390D01*
X148900643Y-100311390D02*
X148786357Y-100273295D01*
X148786357Y-100273295D02*
X148710166Y-100273295D01*
X148710166Y-100273295D02*
X148595881Y-100311390D01*
X148595881Y-100311390D02*
X148557785Y-100349485D01*
X148253024Y-100349485D02*
X148214928Y-100311390D01*
X148214928Y-100311390D02*
X148138738Y-100273295D01*
X148138738Y-100273295D02*
X147948262Y-100273295D01*
X147948262Y-100273295D02*
X147872071Y-100311390D01*
X147872071Y-100311390D02*
X147833976Y-100349485D01*
X147833976Y-100349485D02*
X147795881Y-100425676D01*
X147795881Y-100425676D02*
X147795881Y-100501866D01*
X147795881Y-100501866D02*
X147833976Y-100616152D01*
X147833976Y-100616152D02*
X148291119Y-101073295D01*
X148291119Y-101073295D02*
X147795881Y-101073295D01*
X147338738Y-100616152D02*
X147414928Y-100578057D01*
X147414928Y-100578057D02*
X147453023Y-100539961D01*
X147453023Y-100539961D02*
X147491119Y-100463771D01*
X147491119Y-100463771D02*
X147491119Y-100425676D01*
X147491119Y-100425676D02*
X147453023Y-100349485D01*
X147453023Y-100349485D02*
X147414928Y-100311390D01*
X147414928Y-100311390D02*
X147338738Y-100273295D01*
X147338738Y-100273295D02*
X147186357Y-100273295D01*
X147186357Y-100273295D02*
X147110166Y-100311390D01*
X147110166Y-100311390D02*
X147072071Y-100349485D01*
X147072071Y-100349485D02*
X147033976Y-100425676D01*
X147033976Y-100425676D02*
X147033976Y-100463771D01*
X147033976Y-100463771D02*
X147072071Y-100539961D01*
X147072071Y-100539961D02*
X147110166Y-100578057D01*
X147110166Y-100578057D02*
X147186357Y-100616152D01*
X147186357Y-100616152D02*
X147338738Y-100616152D01*
X147338738Y-100616152D02*
X147414928Y-100654247D01*
X147414928Y-100654247D02*
X147453023Y-100692342D01*
X147453023Y-100692342D02*
X147491119Y-100768533D01*
X147491119Y-100768533D02*
X147491119Y-100920914D01*
X147491119Y-100920914D02*
X147453023Y-100997104D01*
X147453023Y-100997104D02*
X147414928Y-101035200D01*
X147414928Y-101035200D02*
X147338738Y-101073295D01*
X147338738Y-101073295D02*
X147186357Y-101073295D01*
X147186357Y-101073295D02*
X147110166Y-101035200D01*
X147110166Y-101035200D02*
X147072071Y-100997104D01*
X147072071Y-100997104D02*
X147033976Y-100920914D01*
X147033976Y-100920914D02*
X147033976Y-100768533D01*
X147033976Y-100768533D02*
X147072071Y-100692342D01*
X147072071Y-100692342D02*
X147110166Y-100654247D01*
X147110166Y-100654247D02*
X147186357Y-100616152D01*
X137039285Y-101505104D02*
X137077381Y-101543200D01*
X137077381Y-101543200D02*
X137191666Y-101581295D01*
X137191666Y-101581295D02*
X137267857Y-101581295D01*
X137267857Y-101581295D02*
X137382143Y-101543200D01*
X137382143Y-101543200D02*
X137458333Y-101467009D01*
X137458333Y-101467009D02*
X137496428Y-101390819D01*
X137496428Y-101390819D02*
X137534524Y-101238438D01*
X137534524Y-101238438D02*
X137534524Y-101124152D01*
X137534524Y-101124152D02*
X137496428Y-100971771D01*
X137496428Y-100971771D02*
X137458333Y-100895580D01*
X137458333Y-100895580D02*
X137382143Y-100819390D01*
X137382143Y-100819390D02*
X137267857Y-100781295D01*
X137267857Y-100781295D02*
X137191666Y-100781295D01*
X137191666Y-100781295D02*
X137077381Y-100819390D01*
X137077381Y-100819390D02*
X137039285Y-100857485D01*
X136734524Y-100857485D02*
X136696428Y-100819390D01*
X136696428Y-100819390D02*
X136620238Y-100781295D01*
X136620238Y-100781295D02*
X136429762Y-100781295D01*
X136429762Y-100781295D02*
X136353571Y-100819390D01*
X136353571Y-100819390D02*
X136315476Y-100857485D01*
X136315476Y-100857485D02*
X136277381Y-100933676D01*
X136277381Y-100933676D02*
X136277381Y-101009866D01*
X136277381Y-101009866D02*
X136315476Y-101124152D01*
X136315476Y-101124152D02*
X136772619Y-101581295D01*
X136772619Y-101581295D02*
X136277381Y-101581295D01*
X135591666Y-101047961D02*
X135591666Y-101581295D01*
X135782142Y-100743200D02*
X135972619Y-101314628D01*
X135972619Y-101314628D02*
X135477380Y-101314628D01*
X145305080Y-94988142D02*
X145352700Y-94940523D01*
X145352700Y-94940523D02*
X145400319Y-94797666D01*
X145400319Y-94797666D02*
X145400319Y-94702428D01*
X145400319Y-94702428D02*
X145352700Y-94559571D01*
X145352700Y-94559571D02*
X145257461Y-94464333D01*
X145257461Y-94464333D02*
X145162223Y-94416714D01*
X145162223Y-94416714D02*
X144971747Y-94369095D01*
X144971747Y-94369095D02*
X144828890Y-94369095D01*
X144828890Y-94369095D02*
X144638414Y-94416714D01*
X144638414Y-94416714D02*
X144543176Y-94464333D01*
X144543176Y-94464333D02*
X144447938Y-94559571D01*
X144447938Y-94559571D02*
X144400319Y-94702428D01*
X144400319Y-94702428D02*
X144400319Y-94797666D01*
X144400319Y-94797666D02*
X144447938Y-94940523D01*
X144447938Y-94940523D02*
X144495557Y-94988142D01*
X145400319Y-95940523D02*
X145400319Y-95369095D01*
X145400319Y-95654809D02*
X144400319Y-95654809D01*
X144400319Y-95654809D02*
X144543176Y-95559571D01*
X144543176Y-95559571D02*
X144638414Y-95464333D01*
X144638414Y-95464333D02*
X144686033Y-95369095D01*
X145400319Y-96416714D02*
X145400319Y-96607190D01*
X145400319Y-96607190D02*
X145352700Y-96702428D01*
X145352700Y-96702428D02*
X145305080Y-96750047D01*
X145305080Y-96750047D02*
X145162223Y-96845285D01*
X145162223Y-96845285D02*
X144971747Y-96892904D01*
X144971747Y-96892904D02*
X144590795Y-96892904D01*
X144590795Y-96892904D02*
X144495557Y-96845285D01*
X144495557Y-96845285D02*
X144447938Y-96797666D01*
X144447938Y-96797666D02*
X144400319Y-96702428D01*
X144400319Y-96702428D02*
X144400319Y-96511952D01*
X144400319Y-96511952D02*
X144447938Y-96416714D01*
X144447938Y-96416714D02*
X144495557Y-96369095D01*
X144495557Y-96369095D02*
X144590795Y-96321476D01*
X144590795Y-96321476D02*
X144828890Y-96321476D01*
X144828890Y-96321476D02*
X144924128Y-96369095D01*
X144924128Y-96369095D02*
X144971747Y-96416714D01*
X144971747Y-96416714D02*
X145019366Y-96511952D01*
X145019366Y-96511952D02*
X145019366Y-96702428D01*
X145019366Y-96702428D02*
X144971747Y-96797666D01*
X144971747Y-96797666D02*
X144924128Y-96845285D01*
X144924128Y-96845285D02*
X144828890Y-96892904D01*
X137039285Y-105315104D02*
X137077381Y-105353200D01*
X137077381Y-105353200D02*
X137191666Y-105391295D01*
X137191666Y-105391295D02*
X137267857Y-105391295D01*
X137267857Y-105391295D02*
X137382143Y-105353200D01*
X137382143Y-105353200D02*
X137458333Y-105277009D01*
X137458333Y-105277009D02*
X137496428Y-105200819D01*
X137496428Y-105200819D02*
X137534524Y-105048438D01*
X137534524Y-105048438D02*
X137534524Y-104934152D01*
X137534524Y-104934152D02*
X137496428Y-104781771D01*
X137496428Y-104781771D02*
X137458333Y-104705580D01*
X137458333Y-104705580D02*
X137382143Y-104629390D01*
X137382143Y-104629390D02*
X137267857Y-104591295D01*
X137267857Y-104591295D02*
X137191666Y-104591295D01*
X137191666Y-104591295D02*
X137077381Y-104629390D01*
X137077381Y-104629390D02*
X137039285Y-104667485D01*
X136277381Y-105391295D02*
X136734524Y-105391295D01*
X136505952Y-105391295D02*
X136505952Y-104591295D01*
X136505952Y-104591295D02*
X136582143Y-104705580D01*
X136582143Y-104705580D02*
X136658333Y-104781771D01*
X136658333Y-104781771D02*
X136734524Y-104819866D01*
X135972619Y-104667485D02*
X135934523Y-104629390D01*
X135934523Y-104629390D02*
X135858333Y-104591295D01*
X135858333Y-104591295D02*
X135667857Y-104591295D01*
X135667857Y-104591295D02*
X135591666Y-104629390D01*
X135591666Y-104629390D02*
X135553571Y-104667485D01*
X135553571Y-104667485D02*
X135515476Y-104743676D01*
X135515476Y-104743676D02*
X135515476Y-104819866D01*
X135515476Y-104819866D02*
X135553571Y-104934152D01*
X135553571Y-104934152D02*
X136010714Y-105391295D01*
X136010714Y-105391295D02*
X135515476Y-105391295D01*
X142881285Y-90583104D02*
X142919381Y-90621200D01*
X142919381Y-90621200D02*
X143033666Y-90659295D01*
X143033666Y-90659295D02*
X143109857Y-90659295D01*
X143109857Y-90659295D02*
X143224143Y-90621200D01*
X143224143Y-90621200D02*
X143300333Y-90545009D01*
X143300333Y-90545009D02*
X143338428Y-90468819D01*
X143338428Y-90468819D02*
X143376524Y-90316438D01*
X143376524Y-90316438D02*
X143376524Y-90202152D01*
X143376524Y-90202152D02*
X143338428Y-90049771D01*
X143338428Y-90049771D02*
X143300333Y-89973580D01*
X143300333Y-89973580D02*
X143224143Y-89897390D01*
X143224143Y-89897390D02*
X143109857Y-89859295D01*
X143109857Y-89859295D02*
X143033666Y-89859295D01*
X143033666Y-89859295D02*
X142919381Y-89897390D01*
X142919381Y-89897390D02*
X142881285Y-89935485D01*
X142614619Y-89859295D02*
X142119381Y-89859295D01*
X142119381Y-89859295D02*
X142386047Y-90164057D01*
X142386047Y-90164057D02*
X142271762Y-90164057D01*
X142271762Y-90164057D02*
X142195571Y-90202152D01*
X142195571Y-90202152D02*
X142157476Y-90240247D01*
X142157476Y-90240247D02*
X142119381Y-90316438D01*
X142119381Y-90316438D02*
X142119381Y-90506914D01*
X142119381Y-90506914D02*
X142157476Y-90583104D01*
X142157476Y-90583104D02*
X142195571Y-90621200D01*
X142195571Y-90621200D02*
X142271762Y-90659295D01*
X142271762Y-90659295D02*
X142500333Y-90659295D01*
X142500333Y-90659295D02*
X142576524Y-90621200D01*
X142576524Y-90621200D02*
X142614619Y-90583104D01*
X141814619Y-89935485D02*
X141776523Y-89897390D01*
X141776523Y-89897390D02*
X141700333Y-89859295D01*
X141700333Y-89859295D02*
X141509857Y-89859295D01*
X141509857Y-89859295D02*
X141433666Y-89897390D01*
X141433666Y-89897390D02*
X141395571Y-89935485D01*
X141395571Y-89935485D02*
X141357476Y-90011676D01*
X141357476Y-90011676D02*
X141357476Y-90087866D01*
X141357476Y-90087866D02*
X141395571Y-90202152D01*
X141395571Y-90202152D02*
X141852714Y-90659295D01*
X141852714Y-90659295D02*
X141357476Y-90659295D01*
X148469285Y-112173104D02*
X148507381Y-112211200D01*
X148507381Y-112211200D02*
X148621666Y-112249295D01*
X148621666Y-112249295D02*
X148697857Y-112249295D01*
X148697857Y-112249295D02*
X148812143Y-112211200D01*
X148812143Y-112211200D02*
X148888333Y-112135009D01*
X148888333Y-112135009D02*
X148926428Y-112058819D01*
X148926428Y-112058819D02*
X148964524Y-111906438D01*
X148964524Y-111906438D02*
X148964524Y-111792152D01*
X148964524Y-111792152D02*
X148926428Y-111639771D01*
X148926428Y-111639771D02*
X148888333Y-111563580D01*
X148888333Y-111563580D02*
X148812143Y-111487390D01*
X148812143Y-111487390D02*
X148697857Y-111449295D01*
X148697857Y-111449295D02*
X148621666Y-111449295D01*
X148621666Y-111449295D02*
X148507381Y-111487390D01*
X148507381Y-111487390D02*
X148469285Y-111525485D01*
X147783571Y-111715961D02*
X147783571Y-112249295D01*
X147974047Y-111411200D02*
X148164524Y-111982628D01*
X148164524Y-111982628D02*
X147669285Y-111982628D01*
X146945476Y-112249295D02*
X147402619Y-112249295D01*
X147174047Y-112249295D02*
X147174047Y-111449295D01*
X147174047Y-111449295D02*
X147250238Y-111563580D01*
X147250238Y-111563580D02*
X147326428Y-111639771D01*
X147326428Y-111639771D02*
X147402619Y-111677866D01*
X145990080Y-113498333D02*
X146037700Y-113450714D01*
X146037700Y-113450714D02*
X146085319Y-113307857D01*
X146085319Y-113307857D02*
X146085319Y-113212619D01*
X146085319Y-113212619D02*
X146037700Y-113069762D01*
X146037700Y-113069762D02*
X145942461Y-112974524D01*
X145942461Y-112974524D02*
X145847223Y-112926905D01*
X145847223Y-112926905D02*
X145656747Y-112879286D01*
X145656747Y-112879286D02*
X145513890Y-112879286D01*
X145513890Y-112879286D02*
X145323414Y-112926905D01*
X145323414Y-112926905D02*
X145228176Y-112974524D01*
X145228176Y-112974524D02*
X145132938Y-113069762D01*
X145132938Y-113069762D02*
X145085319Y-113212619D01*
X145085319Y-113212619D02*
X145085319Y-113307857D01*
X145085319Y-113307857D02*
X145132938Y-113450714D01*
X145132938Y-113450714D02*
X145180557Y-113498333D01*
X145085319Y-114403095D02*
X145085319Y-113926905D01*
X145085319Y-113926905D02*
X145561509Y-113879286D01*
X145561509Y-113879286D02*
X145513890Y-113926905D01*
X145513890Y-113926905D02*
X145466271Y-114022143D01*
X145466271Y-114022143D02*
X145466271Y-114260238D01*
X145466271Y-114260238D02*
X145513890Y-114355476D01*
X145513890Y-114355476D02*
X145561509Y-114403095D01*
X145561509Y-114403095D02*
X145656747Y-114450714D01*
X145656747Y-114450714D02*
X145894842Y-114450714D01*
X145894842Y-114450714D02*
X145990080Y-114403095D01*
X145990080Y-114403095D02*
X146037700Y-114355476D01*
X146037700Y-114355476D02*
X146085319Y-114260238D01*
X146085319Y-114260238D02*
X146085319Y-114022143D01*
X146085319Y-114022143D02*
X146037700Y-113926905D01*
X146037700Y-113926905D02*
X145990080Y-113879286D01*
X145255080Y-91559142D02*
X145302700Y-91511523D01*
X145302700Y-91511523D02*
X145350319Y-91368666D01*
X145350319Y-91368666D02*
X145350319Y-91273428D01*
X145350319Y-91273428D02*
X145302700Y-91130571D01*
X145302700Y-91130571D02*
X145207461Y-91035333D01*
X145207461Y-91035333D02*
X145112223Y-90987714D01*
X145112223Y-90987714D02*
X144921747Y-90940095D01*
X144921747Y-90940095D02*
X144778890Y-90940095D01*
X144778890Y-90940095D02*
X144588414Y-90987714D01*
X144588414Y-90987714D02*
X144493176Y-91035333D01*
X144493176Y-91035333D02*
X144397938Y-91130571D01*
X144397938Y-91130571D02*
X144350319Y-91273428D01*
X144350319Y-91273428D02*
X144350319Y-91368666D01*
X144350319Y-91368666D02*
X144397938Y-91511523D01*
X144397938Y-91511523D02*
X144445557Y-91559142D01*
X145350319Y-92511523D02*
X145350319Y-91940095D01*
X145350319Y-92225809D02*
X144350319Y-92225809D01*
X144350319Y-92225809D02*
X144493176Y-92130571D01*
X144493176Y-92130571D02*
X144588414Y-92035333D01*
X144588414Y-92035333D02*
X144636033Y-91940095D01*
X144350319Y-93416285D02*
X144350319Y-92940095D01*
X144350319Y-92940095D02*
X144826509Y-92892476D01*
X144826509Y-92892476D02*
X144778890Y-92940095D01*
X144778890Y-92940095D02*
X144731271Y-93035333D01*
X144731271Y-93035333D02*
X144731271Y-93273428D01*
X144731271Y-93273428D02*
X144778890Y-93368666D01*
X144778890Y-93368666D02*
X144826509Y-93416285D01*
X144826509Y-93416285D02*
X144921747Y-93463904D01*
X144921747Y-93463904D02*
X145159842Y-93463904D01*
X145159842Y-93463904D02*
X145255080Y-93416285D01*
X145255080Y-93416285D02*
X145302700Y-93368666D01*
X145302700Y-93368666D02*
X145350319Y-93273428D01*
X145350319Y-93273428D02*
X145350319Y-93035333D01*
X145350319Y-93035333D02*
X145302700Y-92940095D01*
X145302700Y-92940095D02*
X145255080Y-92892476D01*
X137166285Y-90583104D02*
X137204381Y-90621200D01*
X137204381Y-90621200D02*
X137318666Y-90659295D01*
X137318666Y-90659295D02*
X137394857Y-90659295D01*
X137394857Y-90659295D02*
X137509143Y-90621200D01*
X137509143Y-90621200D02*
X137585333Y-90545009D01*
X137585333Y-90545009D02*
X137623428Y-90468819D01*
X137623428Y-90468819D02*
X137661524Y-90316438D01*
X137661524Y-90316438D02*
X137661524Y-90202152D01*
X137661524Y-90202152D02*
X137623428Y-90049771D01*
X137623428Y-90049771D02*
X137585333Y-89973580D01*
X137585333Y-89973580D02*
X137509143Y-89897390D01*
X137509143Y-89897390D02*
X137394857Y-89859295D01*
X137394857Y-89859295D02*
X137318666Y-89859295D01*
X137318666Y-89859295D02*
X137204381Y-89897390D01*
X137204381Y-89897390D02*
X137166285Y-89935485D01*
X136861524Y-89935485D02*
X136823428Y-89897390D01*
X136823428Y-89897390D02*
X136747238Y-89859295D01*
X136747238Y-89859295D02*
X136556762Y-89859295D01*
X136556762Y-89859295D02*
X136480571Y-89897390D01*
X136480571Y-89897390D02*
X136442476Y-89935485D01*
X136442476Y-89935485D02*
X136404381Y-90011676D01*
X136404381Y-90011676D02*
X136404381Y-90087866D01*
X136404381Y-90087866D02*
X136442476Y-90202152D01*
X136442476Y-90202152D02*
X136899619Y-90659295D01*
X136899619Y-90659295D02*
X136404381Y-90659295D01*
X136137714Y-89859295D02*
X135642476Y-89859295D01*
X135642476Y-89859295D02*
X135909142Y-90164057D01*
X135909142Y-90164057D02*
X135794857Y-90164057D01*
X135794857Y-90164057D02*
X135718666Y-90202152D01*
X135718666Y-90202152D02*
X135680571Y-90240247D01*
X135680571Y-90240247D02*
X135642476Y-90316438D01*
X135642476Y-90316438D02*
X135642476Y-90506914D01*
X135642476Y-90506914D02*
X135680571Y-90583104D01*
X135680571Y-90583104D02*
X135718666Y-90621200D01*
X135718666Y-90621200D02*
X135794857Y-90659295D01*
X135794857Y-90659295D02*
X136023428Y-90659295D01*
X136023428Y-90659295D02*
X136099619Y-90621200D01*
X136099619Y-90621200D02*
X136137714Y-90583104D01*
X145255080Y-112895142D02*
X145302700Y-112847523D01*
X145302700Y-112847523D02*
X145350319Y-112704666D01*
X145350319Y-112704666D02*
X145350319Y-112609428D01*
X145350319Y-112609428D02*
X145302700Y-112466571D01*
X145302700Y-112466571D02*
X145207461Y-112371333D01*
X145207461Y-112371333D02*
X145112223Y-112323714D01*
X145112223Y-112323714D02*
X144921747Y-112276095D01*
X144921747Y-112276095D02*
X144778890Y-112276095D01*
X144778890Y-112276095D02*
X144588414Y-112323714D01*
X144588414Y-112323714D02*
X144493176Y-112371333D01*
X144493176Y-112371333D02*
X144397938Y-112466571D01*
X144397938Y-112466571D02*
X144350319Y-112609428D01*
X144350319Y-112609428D02*
X144350319Y-112704666D01*
X144350319Y-112704666D02*
X144397938Y-112847523D01*
X144397938Y-112847523D02*
X144445557Y-112895142D01*
X144683652Y-113752285D02*
X145350319Y-113752285D01*
X144302700Y-113514190D02*
X145016985Y-113276095D01*
X145016985Y-113276095D02*
X145016985Y-113895142D01*
X144350319Y-114466571D02*
X144350319Y-114561809D01*
X144350319Y-114561809D02*
X144397938Y-114657047D01*
X144397938Y-114657047D02*
X144445557Y-114704666D01*
X144445557Y-114704666D02*
X144540795Y-114752285D01*
X144540795Y-114752285D02*
X144731271Y-114799904D01*
X144731271Y-114799904D02*
X144969366Y-114799904D01*
X144969366Y-114799904D02*
X145159842Y-114752285D01*
X145159842Y-114752285D02*
X145255080Y-114704666D01*
X145255080Y-114704666D02*
X145302700Y-114657047D01*
X145302700Y-114657047D02*
X145350319Y-114561809D01*
X145350319Y-114561809D02*
X145350319Y-114466571D01*
X145350319Y-114466571D02*
X145302700Y-114371333D01*
X145302700Y-114371333D02*
X145255080Y-114323714D01*
X145255080Y-114323714D02*
X145159842Y-114276095D01*
X145159842Y-114276095D02*
X144969366Y-114228476D01*
X144969366Y-114228476D02*
X144731271Y-114228476D01*
X144731271Y-114228476D02*
X144540795Y-114276095D01*
X144540795Y-114276095D02*
X144445557Y-114323714D01*
X144445557Y-114323714D02*
X144397938Y-114371333D01*
X144397938Y-114371333D02*
X144350319Y-114466571D01*
X145305080Y-98544142D02*
X145352700Y-98496523D01*
X145352700Y-98496523D02*
X145400319Y-98353666D01*
X145400319Y-98353666D02*
X145400319Y-98258428D01*
X145400319Y-98258428D02*
X145352700Y-98115571D01*
X145352700Y-98115571D02*
X145257461Y-98020333D01*
X145257461Y-98020333D02*
X145162223Y-97972714D01*
X145162223Y-97972714D02*
X144971747Y-97925095D01*
X144971747Y-97925095D02*
X144828890Y-97925095D01*
X144828890Y-97925095D02*
X144638414Y-97972714D01*
X144638414Y-97972714D02*
X144543176Y-98020333D01*
X144543176Y-98020333D02*
X144447938Y-98115571D01*
X144447938Y-98115571D02*
X144400319Y-98258428D01*
X144400319Y-98258428D02*
X144400319Y-98353666D01*
X144400319Y-98353666D02*
X144447938Y-98496523D01*
X144447938Y-98496523D02*
X144495557Y-98544142D01*
X144400319Y-98877476D02*
X144400319Y-99496523D01*
X144400319Y-99496523D02*
X144781271Y-99163190D01*
X144781271Y-99163190D02*
X144781271Y-99306047D01*
X144781271Y-99306047D02*
X144828890Y-99401285D01*
X144828890Y-99401285D02*
X144876509Y-99448904D01*
X144876509Y-99448904D02*
X144971747Y-99496523D01*
X144971747Y-99496523D02*
X145209842Y-99496523D01*
X145209842Y-99496523D02*
X145305080Y-99448904D01*
X145305080Y-99448904D02*
X145352700Y-99401285D01*
X145352700Y-99401285D02*
X145400319Y-99306047D01*
X145400319Y-99306047D02*
X145400319Y-99020333D01*
X145400319Y-99020333D02*
X145352700Y-98925095D01*
X145352700Y-98925095D02*
X145305080Y-98877476D01*
X144400319Y-99829857D02*
X144400319Y-100448904D01*
X144400319Y-100448904D02*
X144781271Y-100115571D01*
X144781271Y-100115571D02*
X144781271Y-100258428D01*
X144781271Y-100258428D02*
X144828890Y-100353666D01*
X144828890Y-100353666D02*
X144876509Y-100401285D01*
X144876509Y-100401285D02*
X144971747Y-100448904D01*
X144971747Y-100448904D02*
X145209842Y-100448904D01*
X145209842Y-100448904D02*
X145305080Y-100401285D01*
X145305080Y-100401285D02*
X145352700Y-100353666D01*
X145352700Y-100353666D02*
X145400319Y-100258428D01*
X145400319Y-100258428D02*
X145400319Y-99972714D01*
X145400319Y-99972714D02*
X145352700Y-99877476D01*
X145352700Y-99877476D02*
X145305080Y-99829857D01*
X137039285Y-115729104D02*
X137077381Y-115767200D01*
X137077381Y-115767200D02*
X137191666Y-115805295D01*
X137191666Y-115805295D02*
X137267857Y-115805295D01*
X137267857Y-115805295D02*
X137382143Y-115767200D01*
X137382143Y-115767200D02*
X137458333Y-115691009D01*
X137458333Y-115691009D02*
X137496428Y-115614819D01*
X137496428Y-115614819D02*
X137534524Y-115462438D01*
X137534524Y-115462438D02*
X137534524Y-115348152D01*
X137534524Y-115348152D02*
X137496428Y-115195771D01*
X137496428Y-115195771D02*
X137458333Y-115119580D01*
X137458333Y-115119580D02*
X137382143Y-115043390D01*
X137382143Y-115043390D02*
X137267857Y-115005295D01*
X137267857Y-115005295D02*
X137191666Y-115005295D01*
X137191666Y-115005295D02*
X137077381Y-115043390D01*
X137077381Y-115043390D02*
X137039285Y-115081485D01*
X136277381Y-115805295D02*
X136734524Y-115805295D01*
X136505952Y-115805295D02*
X136505952Y-115005295D01*
X136505952Y-115005295D02*
X136582143Y-115119580D01*
X136582143Y-115119580D02*
X136658333Y-115195771D01*
X136658333Y-115195771D02*
X136734524Y-115233866D01*
X135820238Y-115348152D02*
X135896428Y-115310057D01*
X135896428Y-115310057D02*
X135934523Y-115271961D01*
X135934523Y-115271961D02*
X135972619Y-115195771D01*
X135972619Y-115195771D02*
X135972619Y-115157676D01*
X135972619Y-115157676D02*
X135934523Y-115081485D01*
X135934523Y-115081485D02*
X135896428Y-115043390D01*
X135896428Y-115043390D02*
X135820238Y-115005295D01*
X135820238Y-115005295D02*
X135667857Y-115005295D01*
X135667857Y-115005295D02*
X135591666Y-115043390D01*
X135591666Y-115043390D02*
X135553571Y-115081485D01*
X135553571Y-115081485D02*
X135515476Y-115157676D01*
X135515476Y-115157676D02*
X135515476Y-115195771D01*
X135515476Y-115195771D02*
X135553571Y-115271961D01*
X135553571Y-115271961D02*
X135591666Y-115310057D01*
X135591666Y-115310057D02*
X135667857Y-115348152D01*
X135667857Y-115348152D02*
X135820238Y-115348152D01*
X135820238Y-115348152D02*
X135896428Y-115386247D01*
X135896428Y-115386247D02*
X135934523Y-115424342D01*
X135934523Y-115424342D02*
X135972619Y-115500533D01*
X135972619Y-115500533D02*
X135972619Y-115652914D01*
X135972619Y-115652914D02*
X135934523Y-115729104D01*
X135934523Y-115729104D02*
X135896428Y-115767200D01*
X135896428Y-115767200D02*
X135820238Y-115805295D01*
X135820238Y-115805295D02*
X135667857Y-115805295D01*
X135667857Y-115805295D02*
X135591666Y-115767200D01*
X135591666Y-115767200D02*
X135553571Y-115729104D01*
X135553571Y-115729104D02*
X135515476Y-115652914D01*
X135515476Y-115652914D02*
X135515476Y-115500533D01*
X135515476Y-115500533D02*
X135553571Y-115424342D01*
X135553571Y-115424342D02*
X135591666Y-115386247D01*
X135591666Y-115386247D02*
X135667857Y-115348152D01*
X142754285Y-101505104D02*
X142792381Y-101543200D01*
X142792381Y-101543200D02*
X142906666Y-101581295D01*
X142906666Y-101581295D02*
X142982857Y-101581295D01*
X142982857Y-101581295D02*
X143097143Y-101543200D01*
X143097143Y-101543200D02*
X143173333Y-101467009D01*
X143173333Y-101467009D02*
X143211428Y-101390819D01*
X143211428Y-101390819D02*
X143249524Y-101238438D01*
X143249524Y-101238438D02*
X143249524Y-101124152D01*
X143249524Y-101124152D02*
X143211428Y-100971771D01*
X143211428Y-100971771D02*
X143173333Y-100895580D01*
X143173333Y-100895580D02*
X143097143Y-100819390D01*
X143097143Y-100819390D02*
X142982857Y-100781295D01*
X142982857Y-100781295D02*
X142906666Y-100781295D01*
X142906666Y-100781295D02*
X142792381Y-100819390D01*
X142792381Y-100819390D02*
X142754285Y-100857485D01*
X141992381Y-101581295D02*
X142449524Y-101581295D01*
X142220952Y-101581295D02*
X142220952Y-100781295D01*
X142220952Y-100781295D02*
X142297143Y-100895580D01*
X142297143Y-100895580D02*
X142373333Y-100971771D01*
X142373333Y-100971771D02*
X142449524Y-101009866D01*
X141306666Y-100781295D02*
X141459047Y-100781295D01*
X141459047Y-100781295D02*
X141535238Y-100819390D01*
X141535238Y-100819390D02*
X141573333Y-100857485D01*
X141573333Y-100857485D02*
X141649523Y-100971771D01*
X141649523Y-100971771D02*
X141687619Y-101124152D01*
X141687619Y-101124152D02*
X141687619Y-101428914D01*
X141687619Y-101428914D02*
X141649523Y-101505104D01*
X141649523Y-101505104D02*
X141611428Y-101543200D01*
X141611428Y-101543200D02*
X141535238Y-101581295D01*
X141535238Y-101581295D02*
X141382857Y-101581295D01*
X141382857Y-101581295D02*
X141306666Y-101543200D01*
X141306666Y-101543200D02*
X141268571Y-101505104D01*
X141268571Y-101505104D02*
X141230476Y-101428914D01*
X141230476Y-101428914D02*
X141230476Y-101238438D01*
X141230476Y-101238438D02*
X141268571Y-101162247D01*
X141268571Y-101162247D02*
X141306666Y-101124152D01*
X141306666Y-101124152D02*
X141382857Y-101086057D01*
X141382857Y-101086057D02*
X141535238Y-101086057D01*
X141535238Y-101086057D02*
X141611428Y-101124152D01*
X141611428Y-101124152D02*
X141649523Y-101162247D01*
X141649523Y-101162247D02*
X141687619Y-101238438D01*
X148469285Y-108617104D02*
X148507381Y-108655200D01*
X148507381Y-108655200D02*
X148621666Y-108693295D01*
X148621666Y-108693295D02*
X148697857Y-108693295D01*
X148697857Y-108693295D02*
X148812143Y-108655200D01*
X148812143Y-108655200D02*
X148888333Y-108579009D01*
X148888333Y-108579009D02*
X148926428Y-108502819D01*
X148926428Y-108502819D02*
X148964524Y-108350438D01*
X148964524Y-108350438D02*
X148964524Y-108236152D01*
X148964524Y-108236152D02*
X148926428Y-108083771D01*
X148926428Y-108083771D02*
X148888333Y-108007580D01*
X148888333Y-108007580D02*
X148812143Y-107931390D01*
X148812143Y-107931390D02*
X148697857Y-107893295D01*
X148697857Y-107893295D02*
X148621666Y-107893295D01*
X148621666Y-107893295D02*
X148507381Y-107931390D01*
X148507381Y-107931390D02*
X148469285Y-107969485D01*
X148202619Y-107893295D02*
X147707381Y-107893295D01*
X147707381Y-107893295D02*
X147974047Y-108198057D01*
X147974047Y-108198057D02*
X147859762Y-108198057D01*
X147859762Y-108198057D02*
X147783571Y-108236152D01*
X147783571Y-108236152D02*
X147745476Y-108274247D01*
X147745476Y-108274247D02*
X147707381Y-108350438D01*
X147707381Y-108350438D02*
X147707381Y-108540914D01*
X147707381Y-108540914D02*
X147745476Y-108617104D01*
X147745476Y-108617104D02*
X147783571Y-108655200D01*
X147783571Y-108655200D02*
X147859762Y-108693295D01*
X147859762Y-108693295D02*
X148088333Y-108693295D01*
X148088333Y-108693295D02*
X148164524Y-108655200D01*
X148164524Y-108655200D02*
X148202619Y-108617104D01*
X147440714Y-107893295D02*
X146907380Y-107893295D01*
X146907380Y-107893295D02*
X147250238Y-108693295D01*
X142754285Y-105061104D02*
X142792381Y-105099200D01*
X142792381Y-105099200D02*
X142906666Y-105137295D01*
X142906666Y-105137295D02*
X142982857Y-105137295D01*
X142982857Y-105137295D02*
X143097143Y-105099200D01*
X143097143Y-105099200D02*
X143173333Y-105023009D01*
X143173333Y-105023009D02*
X143211428Y-104946819D01*
X143211428Y-104946819D02*
X143249524Y-104794438D01*
X143249524Y-104794438D02*
X143249524Y-104680152D01*
X143249524Y-104680152D02*
X143211428Y-104527771D01*
X143211428Y-104527771D02*
X143173333Y-104451580D01*
X143173333Y-104451580D02*
X143097143Y-104375390D01*
X143097143Y-104375390D02*
X142982857Y-104337295D01*
X142982857Y-104337295D02*
X142906666Y-104337295D01*
X142906666Y-104337295D02*
X142792381Y-104375390D01*
X142792381Y-104375390D02*
X142754285Y-104413485D01*
X142487619Y-104337295D02*
X141992381Y-104337295D01*
X141992381Y-104337295D02*
X142259047Y-104642057D01*
X142259047Y-104642057D02*
X142144762Y-104642057D01*
X142144762Y-104642057D02*
X142068571Y-104680152D01*
X142068571Y-104680152D02*
X142030476Y-104718247D01*
X142030476Y-104718247D02*
X141992381Y-104794438D01*
X141992381Y-104794438D02*
X141992381Y-104984914D01*
X141992381Y-104984914D02*
X142030476Y-105061104D01*
X142030476Y-105061104D02*
X142068571Y-105099200D01*
X142068571Y-105099200D02*
X142144762Y-105137295D01*
X142144762Y-105137295D02*
X142373333Y-105137295D01*
X142373333Y-105137295D02*
X142449524Y-105099200D01*
X142449524Y-105099200D02*
X142487619Y-105061104D01*
X141268571Y-104337295D02*
X141649523Y-104337295D01*
X141649523Y-104337295D02*
X141687619Y-104718247D01*
X141687619Y-104718247D02*
X141649523Y-104680152D01*
X141649523Y-104680152D02*
X141573333Y-104642057D01*
X141573333Y-104642057D02*
X141382857Y-104642057D01*
X141382857Y-104642057D02*
X141306666Y-104680152D01*
X141306666Y-104680152D02*
X141268571Y-104718247D01*
X141268571Y-104718247D02*
X141230476Y-104794438D01*
X141230476Y-104794438D02*
X141230476Y-104984914D01*
X141230476Y-104984914D02*
X141268571Y-105061104D01*
X141268571Y-105061104D02*
X141306666Y-105099200D01*
X141306666Y-105099200D02*
X141382857Y-105137295D01*
X141382857Y-105137295D02*
X141573333Y-105137295D01*
X141573333Y-105137295D02*
X141649523Y-105099200D01*
X141649523Y-105099200D02*
X141687619Y-105061104D01*
X137039285Y-112173104D02*
X137077381Y-112211200D01*
X137077381Y-112211200D02*
X137191666Y-112249295D01*
X137191666Y-112249295D02*
X137267857Y-112249295D01*
X137267857Y-112249295D02*
X137382143Y-112211200D01*
X137382143Y-112211200D02*
X137458333Y-112135009D01*
X137458333Y-112135009D02*
X137496428Y-112058819D01*
X137496428Y-112058819D02*
X137534524Y-111906438D01*
X137534524Y-111906438D02*
X137534524Y-111792152D01*
X137534524Y-111792152D02*
X137496428Y-111639771D01*
X137496428Y-111639771D02*
X137458333Y-111563580D01*
X137458333Y-111563580D02*
X137382143Y-111487390D01*
X137382143Y-111487390D02*
X137267857Y-111449295D01*
X137267857Y-111449295D02*
X137191666Y-111449295D01*
X137191666Y-111449295D02*
X137077381Y-111487390D01*
X137077381Y-111487390D02*
X137039285Y-111525485D01*
X136734524Y-111525485D02*
X136696428Y-111487390D01*
X136696428Y-111487390D02*
X136620238Y-111449295D01*
X136620238Y-111449295D02*
X136429762Y-111449295D01*
X136429762Y-111449295D02*
X136353571Y-111487390D01*
X136353571Y-111487390D02*
X136315476Y-111525485D01*
X136315476Y-111525485D02*
X136277381Y-111601676D01*
X136277381Y-111601676D02*
X136277381Y-111677866D01*
X136277381Y-111677866D02*
X136315476Y-111792152D01*
X136315476Y-111792152D02*
X136772619Y-112249295D01*
X136772619Y-112249295D02*
X136277381Y-112249295D01*
X135782142Y-111449295D02*
X135705952Y-111449295D01*
X135705952Y-111449295D02*
X135629761Y-111487390D01*
X135629761Y-111487390D02*
X135591666Y-111525485D01*
X135591666Y-111525485D02*
X135553571Y-111601676D01*
X135553571Y-111601676D02*
X135515476Y-111754057D01*
X135515476Y-111754057D02*
X135515476Y-111944533D01*
X135515476Y-111944533D02*
X135553571Y-112096914D01*
X135553571Y-112096914D02*
X135591666Y-112173104D01*
X135591666Y-112173104D02*
X135629761Y-112211200D01*
X135629761Y-112211200D02*
X135705952Y-112249295D01*
X135705952Y-112249295D02*
X135782142Y-112249295D01*
X135782142Y-112249295D02*
X135858333Y-112211200D01*
X135858333Y-112211200D02*
X135896428Y-112173104D01*
X135896428Y-112173104D02*
X135934523Y-112096914D01*
X135934523Y-112096914D02*
X135972619Y-111944533D01*
X135972619Y-111944533D02*
X135972619Y-111754057D01*
X135972619Y-111754057D02*
X135934523Y-111601676D01*
X135934523Y-111601676D02*
X135896428Y-111525485D01*
X135896428Y-111525485D02*
X135858333Y-111487390D01*
X135858333Y-111487390D02*
X135782142Y-111449295D01*
X142538832Y-108363104D02*
X142576928Y-108401200D01*
X142576928Y-108401200D02*
X142691213Y-108439295D01*
X142691213Y-108439295D02*
X142767404Y-108439295D01*
X142767404Y-108439295D02*
X142881690Y-108401200D01*
X142881690Y-108401200D02*
X142957880Y-108325009D01*
X142957880Y-108325009D02*
X142995975Y-108248819D01*
X142995975Y-108248819D02*
X143034071Y-108096438D01*
X143034071Y-108096438D02*
X143034071Y-107982152D01*
X143034071Y-107982152D02*
X142995975Y-107829771D01*
X142995975Y-107829771D02*
X142957880Y-107753580D01*
X142957880Y-107753580D02*
X142881690Y-107677390D01*
X142881690Y-107677390D02*
X142767404Y-107639295D01*
X142767404Y-107639295D02*
X142691213Y-107639295D01*
X142691213Y-107639295D02*
X142576928Y-107677390D01*
X142576928Y-107677390D02*
X142538832Y-107715485D01*
X142234071Y-107715485D02*
X142195975Y-107677390D01*
X142195975Y-107677390D02*
X142119785Y-107639295D01*
X142119785Y-107639295D02*
X141929309Y-107639295D01*
X141929309Y-107639295D02*
X141853118Y-107677390D01*
X141853118Y-107677390D02*
X141815023Y-107715485D01*
X141815023Y-107715485D02*
X141776928Y-107791676D01*
X141776928Y-107791676D02*
X141776928Y-107867866D01*
X141776928Y-107867866D02*
X141815023Y-107982152D01*
X141815023Y-107982152D02*
X142272166Y-108439295D01*
X142272166Y-108439295D02*
X141776928Y-108439295D01*
X137293285Y-108871104D02*
X137331381Y-108909200D01*
X137331381Y-108909200D02*
X137445666Y-108947295D01*
X137445666Y-108947295D02*
X137521857Y-108947295D01*
X137521857Y-108947295D02*
X137636143Y-108909200D01*
X137636143Y-108909200D02*
X137712333Y-108833009D01*
X137712333Y-108833009D02*
X137750428Y-108756819D01*
X137750428Y-108756819D02*
X137788524Y-108604438D01*
X137788524Y-108604438D02*
X137788524Y-108490152D01*
X137788524Y-108490152D02*
X137750428Y-108337771D01*
X137750428Y-108337771D02*
X137712333Y-108261580D01*
X137712333Y-108261580D02*
X137636143Y-108185390D01*
X137636143Y-108185390D02*
X137521857Y-108147295D01*
X137521857Y-108147295D02*
X137445666Y-108147295D01*
X137445666Y-108147295D02*
X137331381Y-108185390D01*
X137331381Y-108185390D02*
X137293285Y-108223485D01*
X136988524Y-108223485D02*
X136950428Y-108185390D01*
X136950428Y-108185390D02*
X136874238Y-108147295D01*
X136874238Y-108147295D02*
X136683762Y-108147295D01*
X136683762Y-108147295D02*
X136607571Y-108185390D01*
X136607571Y-108185390D02*
X136569476Y-108223485D01*
X136569476Y-108223485D02*
X136531381Y-108299676D01*
X136531381Y-108299676D02*
X136531381Y-108375866D01*
X136531381Y-108375866D02*
X136569476Y-108490152D01*
X136569476Y-108490152D02*
X137026619Y-108947295D01*
X137026619Y-108947295D02*
X136531381Y-108947295D01*
X136226619Y-108223485D02*
X136188523Y-108185390D01*
X136188523Y-108185390D02*
X136112333Y-108147295D01*
X136112333Y-108147295D02*
X135921857Y-108147295D01*
X135921857Y-108147295D02*
X135845666Y-108185390D01*
X135845666Y-108185390D02*
X135807571Y-108223485D01*
X135807571Y-108223485D02*
X135769476Y-108299676D01*
X135769476Y-108299676D02*
X135769476Y-108375866D01*
X135769476Y-108375866D02*
X135807571Y-108490152D01*
X135807571Y-108490152D02*
X136264714Y-108947295D01*
X136264714Y-108947295D02*
X135769476Y-108947295D01*
X133825080Y-95591333D02*
X133872700Y-95543714D01*
X133872700Y-95543714D02*
X133920319Y-95400857D01*
X133920319Y-95400857D02*
X133920319Y-95305619D01*
X133920319Y-95305619D02*
X133872700Y-95162762D01*
X133872700Y-95162762D02*
X133777461Y-95067524D01*
X133777461Y-95067524D02*
X133682223Y-95019905D01*
X133682223Y-95019905D02*
X133491747Y-94972286D01*
X133491747Y-94972286D02*
X133348890Y-94972286D01*
X133348890Y-94972286D02*
X133158414Y-95019905D01*
X133158414Y-95019905D02*
X133063176Y-95067524D01*
X133063176Y-95067524D02*
X132967938Y-95162762D01*
X132967938Y-95162762D02*
X132920319Y-95305619D01*
X132920319Y-95305619D02*
X132920319Y-95400857D01*
X132920319Y-95400857D02*
X132967938Y-95543714D01*
X132967938Y-95543714D02*
X133015557Y-95591333D01*
X132920319Y-95924667D02*
X132920319Y-96591333D01*
X132920319Y-96591333D02*
X133920319Y-96162762D01*
X145736080Y-95115142D02*
X145783700Y-95067523D01*
X145783700Y-95067523D02*
X145831319Y-94924666D01*
X145831319Y-94924666D02*
X145831319Y-94829428D01*
X145831319Y-94829428D02*
X145783700Y-94686571D01*
X145783700Y-94686571D02*
X145688461Y-94591333D01*
X145688461Y-94591333D02*
X145593223Y-94543714D01*
X145593223Y-94543714D02*
X145402747Y-94496095D01*
X145402747Y-94496095D02*
X145259890Y-94496095D01*
X145259890Y-94496095D02*
X145069414Y-94543714D01*
X145069414Y-94543714D02*
X144974176Y-94591333D01*
X144974176Y-94591333D02*
X144878938Y-94686571D01*
X144878938Y-94686571D02*
X144831319Y-94829428D01*
X144831319Y-94829428D02*
X144831319Y-94924666D01*
X144831319Y-94924666D02*
X144878938Y-95067523D01*
X144878938Y-95067523D02*
X144926557Y-95115142D01*
X144831319Y-95448476D02*
X144831319Y-96067523D01*
X144831319Y-96067523D02*
X145212271Y-95734190D01*
X145212271Y-95734190D02*
X145212271Y-95877047D01*
X145212271Y-95877047D02*
X145259890Y-95972285D01*
X145259890Y-95972285D02*
X145307509Y-96019904D01*
X145307509Y-96019904D02*
X145402747Y-96067523D01*
X145402747Y-96067523D02*
X145640842Y-96067523D01*
X145640842Y-96067523D02*
X145736080Y-96019904D01*
X145736080Y-96019904D02*
X145783700Y-95972285D01*
X145783700Y-95972285D02*
X145831319Y-95877047D01*
X145831319Y-95877047D02*
X145831319Y-95591333D01*
X145831319Y-95591333D02*
X145783700Y-95496095D01*
X145783700Y-95496095D02*
X145736080Y-95448476D01*
X145831319Y-97019904D02*
X145831319Y-96448476D01*
X145831319Y-96734190D02*
X144831319Y-96734190D01*
X144831319Y-96734190D02*
X144974176Y-96638952D01*
X144974176Y-96638952D02*
X145069414Y-96543714D01*
X145069414Y-96543714D02*
X145117033Y-96448476D01*
D11*
%TO.C,C6*%
X142989752Y-105066000D02*
X141567248Y-105066000D01*
X142989752Y-107786000D02*
X141567248Y-107786000D01*
%TO.C,C28*%
X147332248Y-101510000D02*
X148754752Y-101510000D01*
X147332248Y-104230000D02*
X148754752Y-104230000D01*
%TO.C,C24*%
X135940748Y-97954000D02*
X137363252Y-97954000D01*
X135940748Y-100674000D02*
X137363252Y-100674000D01*
%TO.C,C19*%
X147370748Y-94398000D02*
X148793252Y-94398000D01*
X147370748Y-97118000D02*
X148793252Y-97118000D01*
%TO.C,C12*%
X135940748Y-101510000D02*
X137363252Y-101510000D01*
X135940748Y-104230000D02*
X137363252Y-104230000D01*
%TO.C,C32*%
X142951252Y-90842000D02*
X141528748Y-90842000D01*
X142951252Y-93562000D02*
X141528748Y-93562000D01*
%TO.C,C41*%
X147370748Y-108622000D02*
X148793252Y-108622000D01*
X147370748Y-111342000D02*
X148793252Y-111342000D01*
%TO.C,C5*%
X142951252Y-112178000D02*
X141528748Y-112178000D01*
X142951252Y-114898000D02*
X141528748Y-114898000D01*
%TO.C,C15*%
X147370748Y-90842000D02*
X148793252Y-90842000D01*
X147370748Y-93562000D02*
X148793252Y-93562000D01*
%TO.C,C23*%
X135940748Y-90842000D02*
X137363252Y-90842000D01*
X135940748Y-93562000D02*
X137363252Y-93562000D01*
%TO.C,C40*%
X147370748Y-112178000D02*
X148793252Y-112178000D01*
X147370748Y-114898000D02*
X148793252Y-114898000D01*
%TO.C,C33*%
X147370748Y-97954000D02*
X148793252Y-97954000D01*
X147370748Y-100674000D02*
X148793252Y-100674000D01*
%TO.C,C18*%
X137363252Y-112178000D02*
X135940748Y-112178000D01*
X137363252Y-114898000D02*
X135940748Y-114898000D01*
%TO.C,C16*%
X142951252Y-97954000D02*
X141528748Y-97954000D01*
X142951252Y-100674000D02*
X141528748Y-100674000D01*
%TO.C,C37*%
X147370748Y-105066000D02*
X148793252Y-105066000D01*
X147370748Y-107786000D02*
X148793252Y-107786000D01*
%TO.C,C35*%
X142951252Y-101510000D02*
X141528748Y-101510000D01*
X142951252Y-104230000D02*
X141528748Y-104230000D01*
%TO.C,C20*%
X135940748Y-108622000D02*
X137363252Y-108622000D01*
X135940748Y-111342000D02*
X137363252Y-111342000D01*
%TO.C,C2*%
X142989752Y-108622000D02*
X141567248Y-108622000D01*
X142989752Y-111342000D02*
X141567248Y-111342000D01*
%TO.C,C22*%
X135940748Y-105066000D02*
X137363252Y-105066000D01*
X135940748Y-107786000D02*
X137363252Y-107786000D01*
%TO.C,C7*%
X135940748Y-94398000D02*
X137363252Y-94398000D01*
X135940748Y-97118000D02*
X137363252Y-97118000D01*
%TO.C,C31*%
X142951252Y-94398000D02*
X141528748Y-94398000D01*
X142951252Y-97118000D02*
X141528748Y-97118000D01*
%TD*%
D12*
X130427757Y-128026624D02*
X144978705Y-128023605D01*
X144978705Y-128023605D02*
G75*
G02*
X153922430Y-128024806I4471795J-502995D01*
G01*
X169927313Y-119389472D02*
G75*
G02*
X169927312Y-110391348I389847J4499062D01*
G01*
X169927757Y-126526753D02*
G75*
G02*
X168427757Y-128026757I-1499957J-47D01*
G01*
X169927313Y-119389472D02*
X169927757Y-126526753D01*
X182950502Y-71074296D02*
G75*
G02*
X171159380Y-96588505I-33500002J-4D01*
G01*
X127847610Y-96678301D02*
G75*
G02*
X129089871Y-99356597I-2262610J-2676699D01*
G01*
X128927757Y-126526624D02*
X128927757Y-119373965D01*
X129089859Y-110375970D02*
G75*
G02*
X128927757Y-119373965I-546639J-4490610D01*
G01*
X130427757Y-128026624D02*
G75*
G02*
X128927676Y-126526624I-57J1500024D01*
G01*
X169927313Y-99254504D02*
G75*
G02*
X171159366Y-96588488I3500487J4D01*
G01*
X169927313Y-99254504D02*
X169927313Y-110391357D01*
X129089859Y-99356597D02*
X129089859Y-110375970D01*
X127847610Y-96678301D02*
G75*
G02*
X115950504Y-71074296I21602890J25604001D01*
G01*
X115950502Y-71074296D02*
G75*
G02*
X182950502Y-71074296I33500000J0D01*
G01*
X153922434Y-128024806D02*
X168427757Y-128026753D01*
M02*
