%TF.GenerationSoftware,KiCad,Pcbnew,8.0.5-8.0.5-0~ubuntu24.04.1*%
%TF.CreationDate,2024-12-11T12:22:47+03:00*%
%TF.ProjectId,_______ _____,21383b3e-3230-44f2-903f-3b3042302e6b,rev?*%
%TF.SameCoordinates,Original*%
%TF.FileFunction,Paste,Bot*%
%TF.FilePolarity,Positive*%
%FSLAX46Y46*%
G04 Gerber Fmt 4.6, Leading zero omitted, Abs format (unit mm)*
G04 Created by KiCad (PCBNEW 8.0.5-8.0.5-0~ubuntu24.04.1) date 2024-12-11 12:22:47*
%MOMM*%
%LPD*%
G01*
G04 APERTURE LIST*
G04 Aperture macros list*
%AMRoundRect*
0 Rectangle with rounded corners*
0 $1 Rounding radius*
0 $2 $3 $4 $5 $6 $7 $8 $9 X,Y pos of 4 corners*
0 Add a 4 corners polygon primitive as box body*
4,1,4,$2,$3,$4,$5,$6,$7,$8,$9,$2,$3,0*
0 Add four circle primitives for the rounded corners*
1,1,$1+$1,$2,$3*
1,1,$1+$1,$4,$5*
1,1,$1+$1,$6,$7*
1,1,$1+$1,$8,$9*
0 Add four rect primitives between the rounded corners*
20,1,$1+$1,$2,$3,$4,$5,0*
20,1,$1+$1,$4,$5,$6,$7,0*
20,1,$1+$1,$6,$7,$8,$9,0*
20,1,$1+$1,$8,$9,$2,$3,0*%
G04 Aperture macros list end*
%ADD10RoundRect,0.250000X0.412500X1.100000X-0.412500X1.100000X-0.412500X-1.100000X0.412500X-1.100000X0*%
%ADD11RoundRect,0.250000X-0.412500X-1.100000X0.412500X-1.100000X0.412500X1.100000X-0.412500X1.100000X0*%
%TA.AperFunction,Profile*%
%ADD12C,0.200000*%
%TD*%
G04 APERTURE END LIST*
D10*
%TO.C,C6*%
X143841000Y-106426000D03*
X140716000Y-106426000D03*
%TD*%
D11*
%TO.C,C28*%
X146481000Y-102870000D03*
X149606000Y-102870000D03*
%TD*%
%TO.C,C24*%
X135089500Y-99314000D03*
X138214500Y-99314000D03*
%TD*%
%TO.C,C19*%
X146519500Y-95758000D03*
X149644500Y-95758000D03*
%TD*%
%TO.C,C12*%
X135089500Y-102870000D03*
X138214500Y-102870000D03*
%TD*%
D10*
%TO.C,C32*%
X143802500Y-92202000D03*
X140677500Y-92202000D03*
%TD*%
D11*
%TO.C,C41*%
X146519500Y-109982000D03*
X149644500Y-109982000D03*
%TD*%
D10*
%TO.C,C5*%
X143802500Y-113538000D03*
X140677500Y-113538000D03*
%TD*%
D11*
%TO.C,C15*%
X146519500Y-92202000D03*
X149644500Y-92202000D03*
%TD*%
%TO.C,C23*%
X135089500Y-92202000D03*
X138214500Y-92202000D03*
%TD*%
%TO.C,C40*%
X146519500Y-113538000D03*
X149644500Y-113538000D03*
%TD*%
%TO.C,C33*%
X146519500Y-99314000D03*
X149644500Y-99314000D03*
%TD*%
%TO.C,C18*%
X135089500Y-113538000D03*
X138214500Y-113538000D03*
%TD*%
D10*
%TO.C,C16*%
X143802500Y-99314000D03*
X140677500Y-99314000D03*
%TD*%
D11*
%TO.C,C37*%
X146519500Y-106426000D03*
X149644500Y-106426000D03*
%TD*%
D10*
%TO.C,C35*%
X143802500Y-102870000D03*
X140677500Y-102870000D03*
%TD*%
D11*
%TO.C,C20*%
X135089500Y-109982000D03*
X138214500Y-109982000D03*
%TD*%
D10*
%TO.C,C2*%
X143841000Y-109982000D03*
X140716000Y-109982000D03*
%TD*%
D11*
%TO.C,C22*%
X135089500Y-106426000D03*
X138214500Y-106426000D03*
%TD*%
%TO.C,C7*%
X135089500Y-95758000D03*
X138214500Y-95758000D03*
%TD*%
D10*
%TO.C,C31*%
X143802500Y-95758000D03*
X140677500Y-95758000D03*
%TD*%
D12*
X130427757Y-128026624D02*
X144978705Y-128023605D01*
X144978705Y-128023605D02*
G75*
G02*
X153922430Y-128024806I4471795J-502995D01*
G01*
X169927313Y-119389472D02*
G75*
G02*
X169927312Y-110391348I389847J4499062D01*
G01*
X169927757Y-126526753D02*
G75*
G02*
X168427757Y-128026757I-1499957J-47D01*
G01*
X169927313Y-119389472D02*
X169927757Y-126526753D01*
X182950502Y-71074296D02*
G75*
G02*
X171159380Y-96588505I-33500002J-4D01*
G01*
X127847610Y-96678301D02*
G75*
G02*
X129089871Y-99356597I-2262610J-2676699D01*
G01*
X128927757Y-126526624D02*
X128927757Y-119373965D01*
X129089859Y-110375970D02*
G75*
G02*
X128927757Y-119373965I-546639J-4490610D01*
G01*
X130427757Y-128026624D02*
G75*
G02*
X128927676Y-126526624I-57J1500024D01*
G01*
X169927313Y-99254504D02*
G75*
G02*
X171159366Y-96588488I3500487J4D01*
G01*
X169927313Y-99254504D02*
X169927313Y-110391357D01*
X129089859Y-99356597D02*
X129089859Y-110375970D01*
X127847610Y-96678301D02*
G75*
G02*
X115950504Y-71074296I21602890J25604001D01*
G01*
X115950502Y-71074296D02*
G75*
G02*
X182950502Y-71074296I33500000J0D01*
G01*
X153922434Y-128024806D02*
X168427757Y-128026753D01*
M02*
