%TF.GenerationSoftware,KiCad,Pcbnew,8.0.3-8.0.3-0~ubuntu23.10.1*%
%TF.CreationDate,2024-10-02T12:23:49+03:00*%
%TF.ProjectId,_______ _____,21383b3e-3230-44f2-903f-3b3042302e6b,rev?*%
%TF.SameCoordinates,Original*%
%TF.FileFunction,Legend,Top*%
%TF.FilePolarity,Positive*%
%FSLAX46Y46*%
G04 Gerber Fmt 4.6, Leading zero omitted, Abs format (unit mm)*
G04 Created by KiCad (PCBNEW 8.0.3-8.0.3-0~ubuntu23.10.1) date 2024-10-02 12:23:49*
%MOMM*%
%LPD*%
G01*
G04 APERTURE LIST*
%ADD10C,0.150000*%
%ADD11C,0.300000*%
%ADD12C,0.120000*%
%ADD13C,0.200000*%
G04 APERTURE END LIST*
D10*
X133671080Y-110624857D02*
X133718700Y-110672476D01*
X133718700Y-110672476D02*
X133766319Y-110815333D01*
X133766319Y-110815333D02*
X133766319Y-110910571D01*
X133766319Y-110910571D02*
X133718700Y-111053428D01*
X133718700Y-111053428D02*
X133623461Y-111148666D01*
X133623461Y-111148666D02*
X133528223Y-111196285D01*
X133528223Y-111196285D02*
X133337747Y-111243904D01*
X133337747Y-111243904D02*
X133194890Y-111243904D01*
X133194890Y-111243904D02*
X133004414Y-111196285D01*
X133004414Y-111196285D02*
X132909176Y-111148666D01*
X132909176Y-111148666D02*
X132813938Y-111053428D01*
X132813938Y-111053428D02*
X132766319Y-110910571D01*
X132766319Y-110910571D02*
X132766319Y-110815333D01*
X132766319Y-110815333D02*
X132813938Y-110672476D01*
X132813938Y-110672476D02*
X132861557Y-110624857D01*
X133766319Y-109672476D02*
X133766319Y-110243904D01*
X133766319Y-109958190D02*
X132766319Y-109958190D01*
X132766319Y-109958190D02*
X132909176Y-110053428D01*
X132909176Y-110053428D02*
X133004414Y-110148666D01*
X133004414Y-110148666D02*
X133052033Y-110243904D01*
X133099652Y-108815333D02*
X133766319Y-108815333D01*
X132718700Y-109053428D02*
X133432985Y-109291523D01*
X133432985Y-109291523D02*
X133432985Y-108672476D01*
X124025819Y-78906666D02*
X123549628Y-79239999D01*
X124025819Y-79478094D02*
X123025819Y-79478094D01*
X123025819Y-79478094D02*
X123025819Y-79097142D01*
X123025819Y-79097142D02*
X123073438Y-79001904D01*
X123073438Y-79001904D02*
X123121057Y-78954285D01*
X123121057Y-78954285D02*
X123216295Y-78906666D01*
X123216295Y-78906666D02*
X123359152Y-78906666D01*
X123359152Y-78906666D02*
X123454390Y-78954285D01*
X123454390Y-78954285D02*
X123502009Y-79001904D01*
X123502009Y-79001904D02*
X123549628Y-79097142D01*
X123549628Y-79097142D02*
X123549628Y-79478094D01*
X123025819Y-78001904D02*
X123025819Y-78478094D01*
X123025819Y-78478094D02*
X123502009Y-78525713D01*
X123502009Y-78525713D02*
X123454390Y-78478094D01*
X123454390Y-78478094D02*
X123406771Y-78382856D01*
X123406771Y-78382856D02*
X123406771Y-78144761D01*
X123406771Y-78144761D02*
X123454390Y-78049523D01*
X123454390Y-78049523D02*
X123502009Y-78001904D01*
X123502009Y-78001904D02*
X123597247Y-77954285D01*
X123597247Y-77954285D02*
X123835342Y-77954285D01*
X123835342Y-77954285D02*
X123930580Y-78001904D01*
X123930580Y-78001904D02*
X123978200Y-78049523D01*
X123978200Y-78049523D02*
X124025819Y-78144761D01*
X124025819Y-78144761D02*
X124025819Y-78382856D01*
X124025819Y-78382856D02*
X123978200Y-78478094D01*
X123978200Y-78478094D02*
X123930580Y-78525713D01*
X142073333Y-90148580D02*
X142025714Y-90196200D01*
X142025714Y-90196200D02*
X141882857Y-90243819D01*
X141882857Y-90243819D02*
X141787619Y-90243819D01*
X141787619Y-90243819D02*
X141644762Y-90196200D01*
X141644762Y-90196200D02*
X141549524Y-90100961D01*
X141549524Y-90100961D02*
X141501905Y-90005723D01*
X141501905Y-90005723D02*
X141454286Y-89815247D01*
X141454286Y-89815247D02*
X141454286Y-89672390D01*
X141454286Y-89672390D02*
X141501905Y-89481914D01*
X141501905Y-89481914D02*
X141549524Y-89386676D01*
X141549524Y-89386676D02*
X141644762Y-89291438D01*
X141644762Y-89291438D02*
X141787619Y-89243819D01*
X141787619Y-89243819D02*
X141882857Y-89243819D01*
X141882857Y-89243819D02*
X142025714Y-89291438D01*
X142025714Y-89291438D02*
X142073333Y-89339057D01*
X142930476Y-89577152D02*
X142930476Y-90243819D01*
X142692381Y-89196200D02*
X142454286Y-89910485D01*
X142454286Y-89910485D02*
X143073333Y-89910485D01*
X164425333Y-118945819D02*
X164092000Y-118469628D01*
X163853905Y-118945819D02*
X163853905Y-117945819D01*
X163853905Y-117945819D02*
X164234857Y-117945819D01*
X164234857Y-117945819D02*
X164330095Y-117993438D01*
X164330095Y-117993438D02*
X164377714Y-118041057D01*
X164377714Y-118041057D02*
X164425333Y-118136295D01*
X164425333Y-118136295D02*
X164425333Y-118279152D01*
X164425333Y-118279152D02*
X164377714Y-118374390D01*
X164377714Y-118374390D02*
X164330095Y-118422009D01*
X164330095Y-118422009D02*
X164234857Y-118469628D01*
X164234857Y-118469628D02*
X163853905Y-118469628D01*
X164901524Y-118945819D02*
X165092000Y-118945819D01*
X165092000Y-118945819D02*
X165187238Y-118898200D01*
X165187238Y-118898200D02*
X165234857Y-118850580D01*
X165234857Y-118850580D02*
X165330095Y-118707723D01*
X165330095Y-118707723D02*
X165377714Y-118517247D01*
X165377714Y-118517247D02*
X165377714Y-118136295D01*
X165377714Y-118136295D02*
X165330095Y-118041057D01*
X165330095Y-118041057D02*
X165282476Y-117993438D01*
X165282476Y-117993438D02*
X165187238Y-117945819D01*
X165187238Y-117945819D02*
X164996762Y-117945819D01*
X164996762Y-117945819D02*
X164901524Y-117993438D01*
X164901524Y-117993438D02*
X164853905Y-118041057D01*
X164853905Y-118041057D02*
X164806286Y-118136295D01*
X164806286Y-118136295D02*
X164806286Y-118374390D01*
X164806286Y-118374390D02*
X164853905Y-118469628D01*
X164853905Y-118469628D02*
X164901524Y-118517247D01*
X164901524Y-118517247D02*
X164996762Y-118564866D01*
X164996762Y-118564866D02*
X165187238Y-118564866D01*
X165187238Y-118564866D02*
X165282476Y-118517247D01*
X165282476Y-118517247D02*
X165330095Y-118469628D01*
X165330095Y-118469628D02*
X165377714Y-118374390D01*
X136424819Y-60766666D02*
X135948628Y-61099999D01*
X136424819Y-61338094D02*
X135424819Y-61338094D01*
X135424819Y-61338094D02*
X135424819Y-60957142D01*
X135424819Y-60957142D02*
X135472438Y-60861904D01*
X135472438Y-60861904D02*
X135520057Y-60814285D01*
X135520057Y-60814285D02*
X135615295Y-60766666D01*
X135615295Y-60766666D02*
X135758152Y-60766666D01*
X135758152Y-60766666D02*
X135853390Y-60814285D01*
X135853390Y-60814285D02*
X135901009Y-60861904D01*
X135901009Y-60861904D02*
X135948628Y-60957142D01*
X135948628Y-60957142D02*
X135948628Y-61338094D01*
X135424819Y-60433332D02*
X135424819Y-59766666D01*
X135424819Y-59766666D02*
X136424819Y-60195237D01*
D11*
X133603287Y-58942411D02*
X133508049Y-59037650D01*
X133508049Y-59037650D02*
X133222335Y-59132888D01*
X133222335Y-59132888D02*
X133031859Y-59132888D01*
X133031859Y-59132888D02*
X132746144Y-59037650D01*
X132746144Y-59037650D02*
X132555668Y-58847173D01*
X132555668Y-58847173D02*
X132460430Y-58656697D01*
X132460430Y-58656697D02*
X132365192Y-58275745D01*
X132365192Y-58275745D02*
X132365192Y-57990030D01*
X132365192Y-57990030D02*
X132460430Y-57609078D01*
X132460430Y-57609078D02*
X132555668Y-57418602D01*
X132555668Y-57418602D02*
X132746144Y-57228126D01*
X132746144Y-57228126D02*
X133031859Y-57132888D01*
X133031859Y-57132888D02*
X133222335Y-57132888D01*
X133222335Y-57132888D02*
X133508049Y-57228126D01*
X133508049Y-57228126D02*
X133603287Y-57323364D01*
X165274049Y-58561459D02*
X166226430Y-58561459D01*
X165083573Y-59132888D02*
X165750239Y-57132888D01*
X165750239Y-57132888D02*
X166416906Y-59132888D01*
D10*
X139805580Y-103512857D02*
X139853200Y-103560476D01*
X139853200Y-103560476D02*
X139900819Y-103703333D01*
X139900819Y-103703333D02*
X139900819Y-103798571D01*
X139900819Y-103798571D02*
X139853200Y-103941428D01*
X139853200Y-103941428D02*
X139757961Y-104036666D01*
X139757961Y-104036666D02*
X139662723Y-104084285D01*
X139662723Y-104084285D02*
X139472247Y-104131904D01*
X139472247Y-104131904D02*
X139329390Y-104131904D01*
X139329390Y-104131904D02*
X139138914Y-104084285D01*
X139138914Y-104084285D02*
X139043676Y-104036666D01*
X139043676Y-104036666D02*
X138948438Y-103941428D01*
X138948438Y-103941428D02*
X138900819Y-103798571D01*
X138900819Y-103798571D02*
X138900819Y-103703333D01*
X138900819Y-103703333D02*
X138948438Y-103560476D01*
X138948438Y-103560476D02*
X138996057Y-103512857D01*
X138900819Y-103179523D02*
X138900819Y-102560476D01*
X138900819Y-102560476D02*
X139281771Y-102893809D01*
X139281771Y-102893809D02*
X139281771Y-102750952D01*
X139281771Y-102750952D02*
X139329390Y-102655714D01*
X139329390Y-102655714D02*
X139377009Y-102608095D01*
X139377009Y-102608095D02*
X139472247Y-102560476D01*
X139472247Y-102560476D02*
X139710342Y-102560476D01*
X139710342Y-102560476D02*
X139805580Y-102608095D01*
X139805580Y-102608095D02*
X139853200Y-102655714D01*
X139853200Y-102655714D02*
X139900819Y-102750952D01*
X139900819Y-102750952D02*
X139900819Y-103036666D01*
X139900819Y-103036666D02*
X139853200Y-103131904D01*
X139853200Y-103131904D02*
X139805580Y-103179523D01*
X139900819Y-102084285D02*
X139900819Y-101893809D01*
X139900819Y-101893809D02*
X139853200Y-101798571D01*
X139853200Y-101798571D02*
X139805580Y-101750952D01*
X139805580Y-101750952D02*
X139662723Y-101655714D01*
X139662723Y-101655714D02*
X139472247Y-101608095D01*
X139472247Y-101608095D02*
X139091295Y-101608095D01*
X139091295Y-101608095D02*
X138996057Y-101655714D01*
X138996057Y-101655714D02*
X138948438Y-101703333D01*
X138948438Y-101703333D02*
X138900819Y-101798571D01*
X138900819Y-101798571D02*
X138900819Y-101989047D01*
X138900819Y-101989047D02*
X138948438Y-102084285D01*
X138948438Y-102084285D02*
X138996057Y-102131904D01*
X138996057Y-102131904D02*
X139091295Y-102179523D01*
X139091295Y-102179523D02*
X139329390Y-102179523D01*
X139329390Y-102179523D02*
X139424628Y-102131904D01*
X139424628Y-102131904D02*
X139472247Y-102084285D01*
X139472247Y-102084285D02*
X139519866Y-101989047D01*
X139519866Y-101989047D02*
X139519866Y-101798571D01*
X139519866Y-101798571D02*
X139472247Y-101703333D01*
X139472247Y-101703333D02*
X139424628Y-101655714D01*
X139424628Y-101655714D02*
X139329390Y-101608095D01*
X176476819Y-85764666D02*
X176000628Y-86097999D01*
X176476819Y-86336094D02*
X175476819Y-86336094D01*
X175476819Y-86336094D02*
X175476819Y-85955142D01*
X175476819Y-85955142D02*
X175524438Y-85859904D01*
X175524438Y-85859904D02*
X175572057Y-85812285D01*
X175572057Y-85812285D02*
X175667295Y-85764666D01*
X175667295Y-85764666D02*
X175810152Y-85764666D01*
X175810152Y-85764666D02*
X175905390Y-85812285D01*
X175905390Y-85812285D02*
X175953009Y-85859904D01*
X175953009Y-85859904D02*
X176000628Y-85955142D01*
X176000628Y-85955142D02*
X176000628Y-86336094D01*
X175476819Y-85431332D02*
X175476819Y-84812285D01*
X175476819Y-84812285D02*
X175857771Y-85145618D01*
X175857771Y-85145618D02*
X175857771Y-85002761D01*
X175857771Y-85002761D02*
X175905390Y-84907523D01*
X175905390Y-84907523D02*
X175953009Y-84859904D01*
X175953009Y-84859904D02*
X176048247Y-84812285D01*
X176048247Y-84812285D02*
X176286342Y-84812285D01*
X176286342Y-84812285D02*
X176381580Y-84859904D01*
X176381580Y-84859904D02*
X176429200Y-84907523D01*
X176429200Y-84907523D02*
X176476819Y-85002761D01*
X176476819Y-85002761D02*
X176476819Y-85288475D01*
X176476819Y-85288475D02*
X176429200Y-85383713D01*
X176429200Y-85383713D02*
X176381580Y-85431332D01*
X147439142Y-116310580D02*
X147391523Y-116358200D01*
X147391523Y-116358200D02*
X147248666Y-116405819D01*
X147248666Y-116405819D02*
X147153428Y-116405819D01*
X147153428Y-116405819D02*
X147010571Y-116358200D01*
X147010571Y-116358200D02*
X146915333Y-116262961D01*
X146915333Y-116262961D02*
X146867714Y-116167723D01*
X146867714Y-116167723D02*
X146820095Y-115977247D01*
X146820095Y-115977247D02*
X146820095Y-115834390D01*
X146820095Y-115834390D02*
X146867714Y-115643914D01*
X146867714Y-115643914D02*
X146915333Y-115548676D01*
X146915333Y-115548676D02*
X147010571Y-115453438D01*
X147010571Y-115453438D02*
X147153428Y-115405819D01*
X147153428Y-115405819D02*
X147248666Y-115405819D01*
X147248666Y-115405819D02*
X147391523Y-115453438D01*
X147391523Y-115453438D02*
X147439142Y-115501057D01*
X147820095Y-115501057D02*
X147867714Y-115453438D01*
X147867714Y-115453438D02*
X147962952Y-115405819D01*
X147962952Y-115405819D02*
X148201047Y-115405819D01*
X148201047Y-115405819D02*
X148296285Y-115453438D01*
X148296285Y-115453438D02*
X148343904Y-115501057D01*
X148343904Y-115501057D02*
X148391523Y-115596295D01*
X148391523Y-115596295D02*
X148391523Y-115691533D01*
X148391523Y-115691533D02*
X148343904Y-115834390D01*
X148343904Y-115834390D02*
X147772476Y-116405819D01*
X147772476Y-116405819D02*
X148391523Y-116405819D01*
X149248666Y-115405819D02*
X149058190Y-115405819D01*
X149058190Y-115405819D02*
X148962952Y-115453438D01*
X148962952Y-115453438D02*
X148915333Y-115501057D01*
X148915333Y-115501057D02*
X148820095Y-115643914D01*
X148820095Y-115643914D02*
X148772476Y-115834390D01*
X148772476Y-115834390D02*
X148772476Y-116215342D01*
X148772476Y-116215342D02*
X148820095Y-116310580D01*
X148820095Y-116310580D02*
X148867714Y-116358200D01*
X148867714Y-116358200D02*
X148962952Y-116405819D01*
X148962952Y-116405819D02*
X149153428Y-116405819D01*
X149153428Y-116405819D02*
X149248666Y-116358200D01*
X149248666Y-116358200D02*
X149296285Y-116310580D01*
X149296285Y-116310580D02*
X149343904Y-116215342D01*
X149343904Y-116215342D02*
X149343904Y-115977247D01*
X149343904Y-115977247D02*
X149296285Y-115882009D01*
X149296285Y-115882009D02*
X149248666Y-115834390D01*
X149248666Y-115834390D02*
X149153428Y-115786771D01*
X149153428Y-115786771D02*
X148962952Y-115786771D01*
X148962952Y-115786771D02*
X148867714Y-115834390D01*
X148867714Y-115834390D02*
X148820095Y-115882009D01*
X148820095Y-115882009D02*
X148772476Y-115977247D01*
X147915333Y-90148580D02*
X147867714Y-90196200D01*
X147867714Y-90196200D02*
X147724857Y-90243819D01*
X147724857Y-90243819D02*
X147629619Y-90243819D01*
X147629619Y-90243819D02*
X147486762Y-90196200D01*
X147486762Y-90196200D02*
X147391524Y-90100961D01*
X147391524Y-90100961D02*
X147343905Y-90005723D01*
X147343905Y-90005723D02*
X147296286Y-89815247D01*
X147296286Y-89815247D02*
X147296286Y-89672390D01*
X147296286Y-89672390D02*
X147343905Y-89481914D01*
X147343905Y-89481914D02*
X147391524Y-89386676D01*
X147391524Y-89386676D02*
X147486762Y-89291438D01*
X147486762Y-89291438D02*
X147629619Y-89243819D01*
X147629619Y-89243819D02*
X147724857Y-89243819D01*
X147724857Y-89243819D02*
X147867714Y-89291438D01*
X147867714Y-89291438D02*
X147915333Y-89339057D01*
X148391524Y-90243819D02*
X148582000Y-90243819D01*
X148582000Y-90243819D02*
X148677238Y-90196200D01*
X148677238Y-90196200D02*
X148724857Y-90148580D01*
X148724857Y-90148580D02*
X148820095Y-90005723D01*
X148820095Y-90005723D02*
X148867714Y-89815247D01*
X148867714Y-89815247D02*
X148867714Y-89434295D01*
X148867714Y-89434295D02*
X148820095Y-89339057D01*
X148820095Y-89339057D02*
X148772476Y-89291438D01*
X148772476Y-89291438D02*
X148677238Y-89243819D01*
X148677238Y-89243819D02*
X148486762Y-89243819D01*
X148486762Y-89243819D02*
X148391524Y-89291438D01*
X148391524Y-89291438D02*
X148343905Y-89339057D01*
X148343905Y-89339057D02*
X148296286Y-89434295D01*
X148296286Y-89434295D02*
X148296286Y-89672390D01*
X148296286Y-89672390D02*
X148343905Y-89767628D01*
X148343905Y-89767628D02*
X148391524Y-89815247D01*
X148391524Y-89815247D02*
X148486762Y-89862866D01*
X148486762Y-89862866D02*
X148677238Y-89862866D01*
X148677238Y-89862866D02*
X148772476Y-89815247D01*
X148772476Y-89815247D02*
X148820095Y-89767628D01*
X148820095Y-89767628D02*
X148867714Y-89672390D01*
X125264057Y-69691238D02*
X125216438Y-69786476D01*
X125216438Y-69786476D02*
X125121200Y-69881714D01*
X125121200Y-69881714D02*
X124978342Y-70024571D01*
X124978342Y-70024571D02*
X124930723Y-70119809D01*
X124930723Y-70119809D02*
X124930723Y-70215047D01*
X125168819Y-70167428D02*
X125121200Y-70262666D01*
X125121200Y-70262666D02*
X125025961Y-70357904D01*
X125025961Y-70357904D02*
X124835485Y-70405523D01*
X124835485Y-70405523D02*
X124502152Y-70405523D01*
X124502152Y-70405523D02*
X124311676Y-70357904D01*
X124311676Y-70357904D02*
X124216438Y-70262666D01*
X124216438Y-70262666D02*
X124168819Y-70167428D01*
X124168819Y-70167428D02*
X124168819Y-69976952D01*
X124168819Y-69976952D02*
X124216438Y-69881714D01*
X124216438Y-69881714D02*
X124311676Y-69786476D01*
X124311676Y-69786476D02*
X124502152Y-69738857D01*
X124502152Y-69738857D02*
X124835485Y-69738857D01*
X124835485Y-69738857D02*
X125025961Y-69786476D01*
X125025961Y-69786476D02*
X125121200Y-69881714D01*
X125121200Y-69881714D02*
X125168819Y-69976952D01*
X125168819Y-69976952D02*
X125168819Y-70167428D01*
X124168819Y-68881714D02*
X124168819Y-69072190D01*
X124168819Y-69072190D02*
X124216438Y-69167428D01*
X124216438Y-69167428D02*
X124264057Y-69215047D01*
X124264057Y-69215047D02*
X124406914Y-69310285D01*
X124406914Y-69310285D02*
X124597390Y-69357904D01*
X124597390Y-69357904D02*
X124978342Y-69357904D01*
X124978342Y-69357904D02*
X125073580Y-69310285D01*
X125073580Y-69310285D02*
X125121200Y-69262666D01*
X125121200Y-69262666D02*
X125168819Y-69167428D01*
X125168819Y-69167428D02*
X125168819Y-68976952D01*
X125168819Y-68976952D02*
X125121200Y-68881714D01*
X125121200Y-68881714D02*
X125073580Y-68834095D01*
X125073580Y-68834095D02*
X124978342Y-68786476D01*
X124978342Y-68786476D02*
X124740247Y-68786476D01*
X124740247Y-68786476D02*
X124645009Y-68834095D01*
X124645009Y-68834095D02*
X124597390Y-68881714D01*
X124597390Y-68881714D02*
X124549771Y-68976952D01*
X124549771Y-68976952D02*
X124549771Y-69167428D01*
X124549771Y-69167428D02*
X124597390Y-69262666D01*
X124597390Y-69262666D02*
X124645009Y-69310285D01*
X124645009Y-69310285D02*
X124740247Y-69357904D01*
X144885580Y-72524857D02*
X144933200Y-72572476D01*
X144933200Y-72572476D02*
X144980819Y-72715333D01*
X144980819Y-72715333D02*
X144980819Y-72810571D01*
X144980819Y-72810571D02*
X144933200Y-72953428D01*
X144933200Y-72953428D02*
X144837961Y-73048666D01*
X144837961Y-73048666D02*
X144742723Y-73096285D01*
X144742723Y-73096285D02*
X144552247Y-73143904D01*
X144552247Y-73143904D02*
X144409390Y-73143904D01*
X144409390Y-73143904D02*
X144218914Y-73096285D01*
X144218914Y-73096285D02*
X144123676Y-73048666D01*
X144123676Y-73048666D02*
X144028438Y-72953428D01*
X144028438Y-72953428D02*
X143980819Y-72810571D01*
X143980819Y-72810571D02*
X143980819Y-72715333D01*
X143980819Y-72715333D02*
X144028438Y-72572476D01*
X144028438Y-72572476D02*
X144076057Y-72524857D01*
X143980819Y-71620095D02*
X143980819Y-72096285D01*
X143980819Y-72096285D02*
X144457009Y-72143904D01*
X144457009Y-72143904D02*
X144409390Y-72096285D01*
X144409390Y-72096285D02*
X144361771Y-72001047D01*
X144361771Y-72001047D02*
X144361771Y-71762952D01*
X144361771Y-71762952D02*
X144409390Y-71667714D01*
X144409390Y-71667714D02*
X144457009Y-71620095D01*
X144457009Y-71620095D02*
X144552247Y-71572476D01*
X144552247Y-71572476D02*
X144790342Y-71572476D01*
X144790342Y-71572476D02*
X144885580Y-71620095D01*
X144885580Y-71620095D02*
X144933200Y-71667714D01*
X144933200Y-71667714D02*
X144980819Y-71762952D01*
X144980819Y-71762952D02*
X144980819Y-72001047D01*
X144980819Y-72001047D02*
X144933200Y-72096285D01*
X144933200Y-72096285D02*
X144885580Y-72143904D01*
X143980819Y-70953428D02*
X143980819Y-70858190D01*
X143980819Y-70858190D02*
X144028438Y-70762952D01*
X144028438Y-70762952D02*
X144076057Y-70715333D01*
X144076057Y-70715333D02*
X144171295Y-70667714D01*
X144171295Y-70667714D02*
X144361771Y-70620095D01*
X144361771Y-70620095D02*
X144599866Y-70620095D01*
X144599866Y-70620095D02*
X144790342Y-70667714D01*
X144790342Y-70667714D02*
X144885580Y-70715333D01*
X144885580Y-70715333D02*
X144933200Y-70762952D01*
X144933200Y-70762952D02*
X144980819Y-70858190D01*
X144980819Y-70858190D02*
X144980819Y-70953428D01*
X144980819Y-70953428D02*
X144933200Y-71048666D01*
X144933200Y-71048666D02*
X144885580Y-71096285D01*
X144885580Y-71096285D02*
X144790342Y-71143904D01*
X144790342Y-71143904D02*
X144599866Y-71191523D01*
X144599866Y-71191523D02*
X144361771Y-71191523D01*
X144361771Y-71191523D02*
X144171295Y-71143904D01*
X144171295Y-71143904D02*
X144076057Y-71096285D01*
X144076057Y-71096285D02*
X144028438Y-71048666D01*
X144028438Y-71048666D02*
X143980819Y-70953428D01*
X151616580Y-110624857D02*
X151664200Y-110672476D01*
X151664200Y-110672476D02*
X151711819Y-110815333D01*
X151711819Y-110815333D02*
X151711819Y-110910571D01*
X151711819Y-110910571D02*
X151664200Y-111053428D01*
X151664200Y-111053428D02*
X151568961Y-111148666D01*
X151568961Y-111148666D02*
X151473723Y-111196285D01*
X151473723Y-111196285D02*
X151283247Y-111243904D01*
X151283247Y-111243904D02*
X151140390Y-111243904D01*
X151140390Y-111243904D02*
X150949914Y-111196285D01*
X150949914Y-111196285D02*
X150854676Y-111148666D01*
X150854676Y-111148666D02*
X150759438Y-111053428D01*
X150759438Y-111053428D02*
X150711819Y-110910571D01*
X150711819Y-110910571D02*
X150711819Y-110815333D01*
X150711819Y-110815333D02*
X150759438Y-110672476D01*
X150759438Y-110672476D02*
X150807057Y-110624857D01*
X150807057Y-110243904D02*
X150759438Y-110196285D01*
X150759438Y-110196285D02*
X150711819Y-110101047D01*
X150711819Y-110101047D02*
X150711819Y-109862952D01*
X150711819Y-109862952D02*
X150759438Y-109767714D01*
X150759438Y-109767714D02*
X150807057Y-109720095D01*
X150807057Y-109720095D02*
X150902295Y-109672476D01*
X150902295Y-109672476D02*
X150997533Y-109672476D01*
X150997533Y-109672476D02*
X151140390Y-109720095D01*
X151140390Y-109720095D02*
X151711819Y-110291523D01*
X151711819Y-110291523D02*
X151711819Y-109672476D01*
X150711819Y-108767714D02*
X150711819Y-109243904D01*
X150711819Y-109243904D02*
X151188009Y-109291523D01*
X151188009Y-109291523D02*
X151140390Y-109243904D01*
X151140390Y-109243904D02*
X151092771Y-109148666D01*
X151092771Y-109148666D02*
X151092771Y-108910571D01*
X151092771Y-108910571D02*
X151140390Y-108815333D01*
X151140390Y-108815333D02*
X151188009Y-108767714D01*
X151188009Y-108767714D02*
X151283247Y-108720095D01*
X151283247Y-108720095D02*
X151521342Y-108720095D01*
X151521342Y-108720095D02*
X151616580Y-108767714D01*
X151616580Y-108767714D02*
X151664200Y-108815333D01*
X151664200Y-108815333D02*
X151711819Y-108910571D01*
X151711819Y-108910571D02*
X151711819Y-109148666D01*
X151711819Y-109148666D02*
X151664200Y-109243904D01*
X151664200Y-109243904D02*
X151616580Y-109291523D01*
X146620906Y-121813069D02*
X146620906Y-122527354D01*
X146620906Y-122527354D02*
X146573287Y-122670211D01*
X146573287Y-122670211D02*
X146478049Y-122765450D01*
X146478049Y-122765450D02*
X146335192Y-122813069D01*
X146335192Y-122813069D02*
X146239954Y-122813069D01*
X147525668Y-121813069D02*
X147335192Y-121813069D01*
X147335192Y-121813069D02*
X147239954Y-121860688D01*
X147239954Y-121860688D02*
X147192335Y-121908307D01*
X147192335Y-121908307D02*
X147097097Y-122051164D01*
X147097097Y-122051164D02*
X147049478Y-122241640D01*
X147049478Y-122241640D02*
X147049478Y-122622592D01*
X147049478Y-122622592D02*
X147097097Y-122717830D01*
X147097097Y-122717830D02*
X147144716Y-122765450D01*
X147144716Y-122765450D02*
X147239954Y-122813069D01*
X147239954Y-122813069D02*
X147430430Y-122813069D01*
X147430430Y-122813069D02*
X147525668Y-122765450D01*
X147525668Y-122765450D02*
X147573287Y-122717830D01*
X147573287Y-122717830D02*
X147620906Y-122622592D01*
X147620906Y-122622592D02*
X147620906Y-122384497D01*
X147620906Y-122384497D02*
X147573287Y-122289259D01*
X147573287Y-122289259D02*
X147525668Y-122241640D01*
X147525668Y-122241640D02*
X147430430Y-122194021D01*
X147430430Y-122194021D02*
X147239954Y-122194021D01*
X147239954Y-122194021D02*
X147144716Y-122241640D01*
X147144716Y-122241640D02*
X147097097Y-122289259D01*
X147097097Y-122289259D02*
X147049478Y-122384497D01*
D11*
X142128526Y-125345888D02*
X142128526Y-123345888D01*
X143080907Y-125345888D02*
X143080907Y-123345888D01*
X143080907Y-123345888D02*
X144223764Y-125345888D01*
X144223764Y-125345888D02*
X144223764Y-123345888D01*
X145176145Y-124583983D02*
X146699955Y-124583983D01*
X145938050Y-125345888D02*
X145938050Y-123822078D01*
D10*
X151543104Y-99828285D02*
X151581200Y-99866381D01*
X151581200Y-99866381D02*
X151619295Y-99980666D01*
X151619295Y-99980666D02*
X151619295Y-100056857D01*
X151619295Y-100056857D02*
X151581200Y-100171143D01*
X151581200Y-100171143D02*
X151505009Y-100247333D01*
X151505009Y-100247333D02*
X151428819Y-100285428D01*
X151428819Y-100285428D02*
X151276438Y-100323524D01*
X151276438Y-100323524D02*
X151162152Y-100323524D01*
X151162152Y-100323524D02*
X151009771Y-100285428D01*
X151009771Y-100285428D02*
X150933580Y-100247333D01*
X150933580Y-100247333D02*
X150857390Y-100171143D01*
X150857390Y-100171143D02*
X150819295Y-100056857D01*
X150819295Y-100056857D02*
X150819295Y-99980666D01*
X150819295Y-99980666D02*
X150857390Y-99866381D01*
X150857390Y-99866381D02*
X150895485Y-99828285D01*
X150895485Y-99523524D02*
X150857390Y-99485428D01*
X150857390Y-99485428D02*
X150819295Y-99409238D01*
X150819295Y-99409238D02*
X150819295Y-99218762D01*
X150819295Y-99218762D02*
X150857390Y-99142571D01*
X150857390Y-99142571D02*
X150895485Y-99104476D01*
X150895485Y-99104476D02*
X150971676Y-99066381D01*
X150971676Y-99066381D02*
X151047866Y-99066381D01*
X151047866Y-99066381D02*
X151162152Y-99104476D01*
X151162152Y-99104476D02*
X151619295Y-99561619D01*
X151619295Y-99561619D02*
X151619295Y-99066381D01*
X151619295Y-98304476D02*
X151619295Y-98761619D01*
X151619295Y-98533047D02*
X150819295Y-98533047D01*
X150819295Y-98533047D02*
X150933580Y-98609238D01*
X150933580Y-98609238D02*
X151009771Y-98685428D01*
X151009771Y-98685428D02*
X151047866Y-98761619D01*
X157585580Y-72524857D02*
X157633200Y-72572476D01*
X157633200Y-72572476D02*
X157680819Y-72715333D01*
X157680819Y-72715333D02*
X157680819Y-72810571D01*
X157680819Y-72810571D02*
X157633200Y-72953428D01*
X157633200Y-72953428D02*
X157537961Y-73048666D01*
X157537961Y-73048666D02*
X157442723Y-73096285D01*
X157442723Y-73096285D02*
X157252247Y-73143904D01*
X157252247Y-73143904D02*
X157109390Y-73143904D01*
X157109390Y-73143904D02*
X156918914Y-73096285D01*
X156918914Y-73096285D02*
X156823676Y-73048666D01*
X156823676Y-73048666D02*
X156728438Y-72953428D01*
X156728438Y-72953428D02*
X156680819Y-72810571D01*
X156680819Y-72810571D02*
X156680819Y-72715333D01*
X156680819Y-72715333D02*
X156728438Y-72572476D01*
X156728438Y-72572476D02*
X156776057Y-72524857D01*
X156680819Y-71620095D02*
X156680819Y-72096285D01*
X156680819Y-72096285D02*
X157157009Y-72143904D01*
X157157009Y-72143904D02*
X157109390Y-72096285D01*
X157109390Y-72096285D02*
X157061771Y-72001047D01*
X157061771Y-72001047D02*
X157061771Y-71762952D01*
X157061771Y-71762952D02*
X157109390Y-71667714D01*
X157109390Y-71667714D02*
X157157009Y-71620095D01*
X157157009Y-71620095D02*
X157252247Y-71572476D01*
X157252247Y-71572476D02*
X157490342Y-71572476D01*
X157490342Y-71572476D02*
X157585580Y-71620095D01*
X157585580Y-71620095D02*
X157633200Y-71667714D01*
X157633200Y-71667714D02*
X157680819Y-71762952D01*
X157680819Y-71762952D02*
X157680819Y-72001047D01*
X157680819Y-72001047D02*
X157633200Y-72096285D01*
X157633200Y-72096285D02*
X157585580Y-72143904D01*
X157680819Y-70620095D02*
X157680819Y-71191523D01*
X157680819Y-70905809D02*
X156680819Y-70905809D01*
X156680819Y-70905809D02*
X156823676Y-71001047D01*
X156823676Y-71001047D02*
X156918914Y-71096285D01*
X156918914Y-71096285D02*
X156966533Y-71191523D01*
X123174286Y-75400819D02*
X123745714Y-75400819D01*
X123460000Y-76400819D02*
X123460000Y-75400819D01*
X124079048Y-76400819D02*
X124079048Y-75400819D01*
X124079048Y-75877009D02*
X124650476Y-75877009D01*
X124650476Y-76400819D02*
X124650476Y-75400819D01*
X125031429Y-75400819D02*
X125650476Y-75400819D01*
X125650476Y-75400819D02*
X125317143Y-75781771D01*
X125317143Y-75781771D02*
X125460000Y-75781771D01*
X125460000Y-75781771D02*
X125555238Y-75829390D01*
X125555238Y-75829390D02*
X125602857Y-75877009D01*
X125602857Y-75877009D02*
X125650476Y-75972247D01*
X125650476Y-75972247D02*
X125650476Y-76210342D01*
X125650476Y-76210342D02*
X125602857Y-76305580D01*
X125602857Y-76305580D02*
X125555238Y-76353200D01*
X125555238Y-76353200D02*
X125460000Y-76400819D01*
X125460000Y-76400819D02*
X125174286Y-76400819D01*
X125174286Y-76400819D02*
X125079048Y-76353200D01*
X125079048Y-76353200D02*
X125031429Y-76305580D01*
X156876761Y-116374057D02*
X156781523Y-116326438D01*
X156781523Y-116326438D02*
X156686285Y-116231200D01*
X156686285Y-116231200D02*
X156543428Y-116088342D01*
X156543428Y-116088342D02*
X156448190Y-116040723D01*
X156448190Y-116040723D02*
X156352952Y-116040723D01*
X156400571Y-116278819D02*
X156305333Y-116231200D01*
X156305333Y-116231200D02*
X156210095Y-116135961D01*
X156210095Y-116135961D02*
X156162476Y-115945485D01*
X156162476Y-115945485D02*
X156162476Y-115612152D01*
X156162476Y-115612152D02*
X156210095Y-115421676D01*
X156210095Y-115421676D02*
X156305333Y-115326438D01*
X156305333Y-115326438D02*
X156400571Y-115278819D01*
X156400571Y-115278819D02*
X156591047Y-115278819D01*
X156591047Y-115278819D02*
X156686285Y-115326438D01*
X156686285Y-115326438D02*
X156781523Y-115421676D01*
X156781523Y-115421676D02*
X156829142Y-115612152D01*
X156829142Y-115612152D02*
X156829142Y-115945485D01*
X156829142Y-115945485D02*
X156781523Y-116135961D01*
X156781523Y-116135961D02*
X156686285Y-116231200D01*
X156686285Y-116231200D02*
X156591047Y-116278819D01*
X156591047Y-116278819D02*
X156400571Y-116278819D01*
X157162476Y-115278819D02*
X157829142Y-115278819D01*
X157829142Y-115278819D02*
X157400571Y-116278819D01*
X142073333Y-116310580D02*
X142025714Y-116358200D01*
X142025714Y-116358200D02*
X141882857Y-116405819D01*
X141882857Y-116405819D02*
X141787619Y-116405819D01*
X141787619Y-116405819D02*
X141644762Y-116358200D01*
X141644762Y-116358200D02*
X141549524Y-116262961D01*
X141549524Y-116262961D02*
X141501905Y-116167723D01*
X141501905Y-116167723D02*
X141454286Y-115977247D01*
X141454286Y-115977247D02*
X141454286Y-115834390D01*
X141454286Y-115834390D02*
X141501905Y-115643914D01*
X141501905Y-115643914D02*
X141549524Y-115548676D01*
X141549524Y-115548676D02*
X141644762Y-115453438D01*
X141644762Y-115453438D02*
X141787619Y-115405819D01*
X141787619Y-115405819D02*
X141882857Y-115405819D01*
X141882857Y-115405819D02*
X142025714Y-115453438D01*
X142025714Y-115453438D02*
X142073333Y-115501057D01*
X142406667Y-115405819D02*
X143025714Y-115405819D01*
X143025714Y-115405819D02*
X142692381Y-115786771D01*
X142692381Y-115786771D02*
X142835238Y-115786771D01*
X142835238Y-115786771D02*
X142930476Y-115834390D01*
X142930476Y-115834390D02*
X142978095Y-115882009D01*
X142978095Y-115882009D02*
X143025714Y-115977247D01*
X143025714Y-115977247D02*
X143025714Y-116215342D01*
X143025714Y-116215342D02*
X142978095Y-116310580D01*
X142978095Y-116310580D02*
X142930476Y-116358200D01*
X142930476Y-116358200D02*
X142835238Y-116405819D01*
X142835238Y-116405819D02*
X142549524Y-116405819D01*
X142549524Y-116405819D02*
X142454286Y-116358200D01*
X142454286Y-116358200D02*
X142406667Y-116310580D01*
D11*
X149748857Y-48884019D02*
X150034571Y-48979257D01*
X150034571Y-48979257D02*
X150129809Y-49074495D01*
X150129809Y-49074495D02*
X150225047Y-49264971D01*
X150225047Y-49264971D02*
X150225047Y-49550685D01*
X150225047Y-49550685D02*
X150129809Y-49741161D01*
X150129809Y-49741161D02*
X150034571Y-49836400D01*
X150034571Y-49836400D02*
X149844095Y-49931638D01*
X149844095Y-49931638D02*
X149082190Y-49931638D01*
X149082190Y-49931638D02*
X149082190Y-47931638D01*
X149082190Y-47931638D02*
X149748857Y-47931638D01*
X149748857Y-47931638D02*
X149939333Y-48026876D01*
X149939333Y-48026876D02*
X150034571Y-48122114D01*
X150034571Y-48122114D02*
X150129809Y-48312590D01*
X150129809Y-48312590D02*
X150129809Y-48503066D01*
X150129809Y-48503066D02*
X150034571Y-48693542D01*
X150034571Y-48693542D02*
X149939333Y-48788780D01*
X149939333Y-48788780D02*
X149748857Y-48884019D01*
X149748857Y-48884019D02*
X149082190Y-48884019D01*
D10*
X155513819Y-91519333D02*
X156228104Y-91519333D01*
X156228104Y-91519333D02*
X156370961Y-91566952D01*
X156370961Y-91566952D02*
X156466200Y-91662190D01*
X156466200Y-91662190D02*
X156513819Y-91805047D01*
X156513819Y-91805047D02*
X156513819Y-91900285D01*
X155513819Y-91138380D02*
X155513819Y-90471714D01*
X155513819Y-90471714D02*
X156513819Y-90900285D01*
X142028057Y-82137238D02*
X141980438Y-82232476D01*
X141980438Y-82232476D02*
X141885200Y-82327714D01*
X141885200Y-82327714D02*
X141742342Y-82470571D01*
X141742342Y-82470571D02*
X141694723Y-82565809D01*
X141694723Y-82565809D02*
X141694723Y-82661047D01*
X141932819Y-82613428D02*
X141885200Y-82708666D01*
X141885200Y-82708666D02*
X141789961Y-82803904D01*
X141789961Y-82803904D02*
X141599485Y-82851523D01*
X141599485Y-82851523D02*
X141266152Y-82851523D01*
X141266152Y-82851523D02*
X141075676Y-82803904D01*
X141075676Y-82803904D02*
X140980438Y-82708666D01*
X140980438Y-82708666D02*
X140932819Y-82613428D01*
X140932819Y-82613428D02*
X140932819Y-82422952D01*
X140932819Y-82422952D02*
X140980438Y-82327714D01*
X140980438Y-82327714D02*
X141075676Y-82232476D01*
X141075676Y-82232476D02*
X141266152Y-82184857D01*
X141266152Y-82184857D02*
X141599485Y-82184857D01*
X141599485Y-82184857D02*
X141789961Y-82232476D01*
X141789961Y-82232476D02*
X141885200Y-82327714D01*
X141885200Y-82327714D02*
X141932819Y-82422952D01*
X141932819Y-82422952D02*
X141932819Y-82613428D01*
X140932819Y-81851523D02*
X140932819Y-81232476D01*
X140932819Y-81232476D02*
X141313771Y-81565809D01*
X141313771Y-81565809D02*
X141313771Y-81422952D01*
X141313771Y-81422952D02*
X141361390Y-81327714D01*
X141361390Y-81327714D02*
X141409009Y-81280095D01*
X141409009Y-81280095D02*
X141504247Y-81232476D01*
X141504247Y-81232476D02*
X141742342Y-81232476D01*
X141742342Y-81232476D02*
X141837580Y-81280095D01*
X141837580Y-81280095D02*
X141885200Y-81327714D01*
X141885200Y-81327714D02*
X141932819Y-81422952D01*
X141932819Y-81422952D02*
X141932819Y-81708666D01*
X141932819Y-81708666D02*
X141885200Y-81803904D01*
X141885200Y-81803904D02*
X141837580Y-81851523D01*
X139805580Y-96400857D02*
X139853200Y-96448476D01*
X139853200Y-96448476D02*
X139900819Y-96591333D01*
X139900819Y-96591333D02*
X139900819Y-96686571D01*
X139900819Y-96686571D02*
X139853200Y-96829428D01*
X139853200Y-96829428D02*
X139757961Y-96924666D01*
X139757961Y-96924666D02*
X139662723Y-96972285D01*
X139662723Y-96972285D02*
X139472247Y-97019904D01*
X139472247Y-97019904D02*
X139329390Y-97019904D01*
X139329390Y-97019904D02*
X139138914Y-96972285D01*
X139138914Y-96972285D02*
X139043676Y-96924666D01*
X139043676Y-96924666D02*
X138948438Y-96829428D01*
X138948438Y-96829428D02*
X138900819Y-96686571D01*
X138900819Y-96686571D02*
X138900819Y-96591333D01*
X138900819Y-96591333D02*
X138948438Y-96448476D01*
X138948438Y-96448476D02*
X138996057Y-96400857D01*
X138996057Y-96019904D02*
X138948438Y-95972285D01*
X138948438Y-95972285D02*
X138900819Y-95877047D01*
X138900819Y-95877047D02*
X138900819Y-95638952D01*
X138900819Y-95638952D02*
X138948438Y-95543714D01*
X138948438Y-95543714D02*
X138996057Y-95496095D01*
X138996057Y-95496095D02*
X139091295Y-95448476D01*
X139091295Y-95448476D02*
X139186533Y-95448476D01*
X139186533Y-95448476D02*
X139329390Y-95496095D01*
X139329390Y-95496095D02*
X139900819Y-96067523D01*
X139900819Y-96067523D02*
X139900819Y-95448476D01*
X138900819Y-95115142D02*
X138900819Y-94448476D01*
X138900819Y-94448476D02*
X139900819Y-94877047D01*
X142345580Y-72524857D02*
X142393200Y-72572476D01*
X142393200Y-72572476D02*
X142440819Y-72715333D01*
X142440819Y-72715333D02*
X142440819Y-72810571D01*
X142440819Y-72810571D02*
X142393200Y-72953428D01*
X142393200Y-72953428D02*
X142297961Y-73048666D01*
X142297961Y-73048666D02*
X142202723Y-73096285D01*
X142202723Y-73096285D02*
X142012247Y-73143904D01*
X142012247Y-73143904D02*
X141869390Y-73143904D01*
X141869390Y-73143904D02*
X141678914Y-73096285D01*
X141678914Y-73096285D02*
X141583676Y-73048666D01*
X141583676Y-73048666D02*
X141488438Y-72953428D01*
X141488438Y-72953428D02*
X141440819Y-72810571D01*
X141440819Y-72810571D02*
X141440819Y-72715333D01*
X141440819Y-72715333D02*
X141488438Y-72572476D01*
X141488438Y-72572476D02*
X141536057Y-72524857D01*
X141774152Y-71667714D02*
X142440819Y-71667714D01*
X141393200Y-71905809D02*
X142107485Y-72143904D01*
X142107485Y-72143904D02*
X142107485Y-71524857D01*
X141440819Y-71239142D02*
X141440819Y-70572476D01*
X141440819Y-70572476D02*
X142440819Y-71001047D01*
X149060819Y-56403713D02*
X149060819Y-55832285D01*
X150060819Y-56117999D02*
X149060819Y-56117999D01*
X150060819Y-55498951D02*
X149060819Y-55498951D01*
X149537009Y-55498951D02*
X149537009Y-54927523D01*
X150060819Y-54927523D02*
X149060819Y-54927523D01*
X150060819Y-53927523D02*
X150060819Y-54498951D01*
X150060819Y-54213237D02*
X149060819Y-54213237D01*
X149060819Y-54213237D02*
X149203676Y-54308475D01*
X149203676Y-54308475D02*
X149298914Y-54403713D01*
X149298914Y-54403713D02*
X149346533Y-54498951D01*
X133836580Y-96400857D02*
X133884200Y-96448476D01*
X133884200Y-96448476D02*
X133931819Y-96591333D01*
X133931819Y-96591333D02*
X133931819Y-96686571D01*
X133931819Y-96686571D02*
X133884200Y-96829428D01*
X133884200Y-96829428D02*
X133788961Y-96924666D01*
X133788961Y-96924666D02*
X133693723Y-96972285D01*
X133693723Y-96972285D02*
X133503247Y-97019904D01*
X133503247Y-97019904D02*
X133360390Y-97019904D01*
X133360390Y-97019904D02*
X133169914Y-96972285D01*
X133169914Y-96972285D02*
X133074676Y-96924666D01*
X133074676Y-96924666D02*
X132979438Y-96829428D01*
X132979438Y-96829428D02*
X132931819Y-96686571D01*
X132931819Y-96686571D02*
X132931819Y-96591333D01*
X132931819Y-96591333D02*
X132979438Y-96448476D01*
X132979438Y-96448476D02*
X133027057Y-96400857D01*
X133265152Y-95543714D02*
X133931819Y-95543714D01*
X132884200Y-95781809D02*
X133598485Y-96019904D01*
X133598485Y-96019904D02*
X133598485Y-95400857D01*
X133027057Y-95067523D02*
X132979438Y-95019904D01*
X132979438Y-95019904D02*
X132931819Y-94924666D01*
X132931819Y-94924666D02*
X132931819Y-94686571D01*
X132931819Y-94686571D02*
X132979438Y-94591333D01*
X132979438Y-94591333D02*
X133027057Y-94543714D01*
X133027057Y-94543714D02*
X133122295Y-94496095D01*
X133122295Y-94496095D02*
X133217533Y-94496095D01*
X133217533Y-94496095D02*
X133360390Y-94543714D01*
X133360390Y-94543714D02*
X133931819Y-95115142D01*
X133931819Y-95115142D02*
X133931819Y-94496095D01*
X160281382Y-127289830D02*
X160233763Y-127337450D01*
X160233763Y-127337450D02*
X160090906Y-127385069D01*
X160090906Y-127385069D02*
X159995668Y-127385069D01*
X159995668Y-127385069D02*
X159852811Y-127337450D01*
X159852811Y-127337450D02*
X159757573Y-127242211D01*
X159757573Y-127242211D02*
X159709954Y-127146973D01*
X159709954Y-127146973D02*
X159662335Y-126956497D01*
X159662335Y-126956497D02*
X159662335Y-126813640D01*
X159662335Y-126813640D02*
X159709954Y-126623164D01*
X159709954Y-126623164D02*
X159757573Y-126527926D01*
X159757573Y-126527926D02*
X159852811Y-126432688D01*
X159852811Y-126432688D02*
X159995668Y-126385069D01*
X159995668Y-126385069D02*
X160090906Y-126385069D01*
X160090906Y-126385069D02*
X160233763Y-126432688D01*
X160233763Y-126432688D02*
X160281382Y-126480307D01*
X161138525Y-126718402D02*
X161138525Y-127385069D01*
X160900430Y-126337450D02*
X160662335Y-127051735D01*
X160662335Y-127051735D02*
X161281382Y-127051735D01*
X162090906Y-126718402D02*
X162090906Y-127385069D01*
X161852811Y-126337450D02*
X161614716Y-127051735D01*
X161614716Y-127051735D02*
X162233763Y-127051735D01*
X153027142Y-64875580D02*
X152979523Y-64923200D01*
X152979523Y-64923200D02*
X152836666Y-64970819D01*
X152836666Y-64970819D02*
X152741428Y-64970819D01*
X152741428Y-64970819D02*
X152598571Y-64923200D01*
X152598571Y-64923200D02*
X152503333Y-64827961D01*
X152503333Y-64827961D02*
X152455714Y-64732723D01*
X152455714Y-64732723D02*
X152408095Y-64542247D01*
X152408095Y-64542247D02*
X152408095Y-64399390D01*
X152408095Y-64399390D02*
X152455714Y-64208914D01*
X152455714Y-64208914D02*
X152503333Y-64113676D01*
X152503333Y-64113676D02*
X152598571Y-64018438D01*
X152598571Y-64018438D02*
X152741428Y-63970819D01*
X152741428Y-63970819D02*
X152836666Y-63970819D01*
X152836666Y-63970819D02*
X152979523Y-64018438D01*
X152979523Y-64018438D02*
X153027142Y-64066057D01*
X153884285Y-64304152D02*
X153884285Y-64970819D01*
X153646190Y-63923200D02*
X153408095Y-64637485D01*
X153408095Y-64637485D02*
X154027142Y-64637485D01*
X154836666Y-63970819D02*
X154646190Y-63970819D01*
X154646190Y-63970819D02*
X154550952Y-64018438D01*
X154550952Y-64018438D02*
X154503333Y-64066057D01*
X154503333Y-64066057D02*
X154408095Y-64208914D01*
X154408095Y-64208914D02*
X154360476Y-64399390D01*
X154360476Y-64399390D02*
X154360476Y-64780342D01*
X154360476Y-64780342D02*
X154408095Y-64875580D01*
X154408095Y-64875580D02*
X154455714Y-64923200D01*
X154455714Y-64923200D02*
X154550952Y-64970819D01*
X154550952Y-64970819D02*
X154741428Y-64970819D01*
X154741428Y-64970819D02*
X154836666Y-64923200D01*
X154836666Y-64923200D02*
X154884285Y-64875580D01*
X154884285Y-64875580D02*
X154931904Y-64780342D01*
X154931904Y-64780342D02*
X154931904Y-64542247D01*
X154931904Y-64542247D02*
X154884285Y-64447009D01*
X154884285Y-64447009D02*
X154836666Y-64399390D01*
X154836666Y-64399390D02*
X154741428Y-64351771D01*
X154741428Y-64351771D02*
X154550952Y-64351771D01*
X154550952Y-64351771D02*
X154455714Y-64399390D01*
X154455714Y-64399390D02*
X154408095Y-64447009D01*
X154408095Y-64447009D02*
X154360476Y-64542247D01*
X135882142Y-116183580D02*
X135834523Y-116231200D01*
X135834523Y-116231200D02*
X135691666Y-116278819D01*
X135691666Y-116278819D02*
X135596428Y-116278819D01*
X135596428Y-116278819D02*
X135453571Y-116231200D01*
X135453571Y-116231200D02*
X135358333Y-116135961D01*
X135358333Y-116135961D02*
X135310714Y-116040723D01*
X135310714Y-116040723D02*
X135263095Y-115850247D01*
X135263095Y-115850247D02*
X135263095Y-115707390D01*
X135263095Y-115707390D02*
X135310714Y-115516914D01*
X135310714Y-115516914D02*
X135358333Y-115421676D01*
X135358333Y-115421676D02*
X135453571Y-115326438D01*
X135453571Y-115326438D02*
X135596428Y-115278819D01*
X135596428Y-115278819D02*
X135691666Y-115278819D01*
X135691666Y-115278819D02*
X135834523Y-115326438D01*
X135834523Y-115326438D02*
X135882142Y-115374057D01*
X136263095Y-115374057D02*
X136310714Y-115326438D01*
X136310714Y-115326438D02*
X136405952Y-115278819D01*
X136405952Y-115278819D02*
X136644047Y-115278819D01*
X136644047Y-115278819D02*
X136739285Y-115326438D01*
X136739285Y-115326438D02*
X136786904Y-115374057D01*
X136786904Y-115374057D02*
X136834523Y-115469295D01*
X136834523Y-115469295D02*
X136834523Y-115564533D01*
X136834523Y-115564533D02*
X136786904Y-115707390D01*
X136786904Y-115707390D02*
X136215476Y-116278819D01*
X136215476Y-116278819D02*
X136834523Y-116278819D01*
X137310714Y-116278819D02*
X137501190Y-116278819D01*
X137501190Y-116278819D02*
X137596428Y-116231200D01*
X137596428Y-116231200D02*
X137644047Y-116183580D01*
X137644047Y-116183580D02*
X137739285Y-116040723D01*
X137739285Y-116040723D02*
X137786904Y-115850247D01*
X137786904Y-115850247D02*
X137786904Y-115469295D01*
X137786904Y-115469295D02*
X137739285Y-115374057D01*
X137739285Y-115374057D02*
X137691666Y-115326438D01*
X137691666Y-115326438D02*
X137596428Y-115278819D01*
X137596428Y-115278819D02*
X137405952Y-115278819D01*
X137405952Y-115278819D02*
X137310714Y-115326438D01*
X137310714Y-115326438D02*
X137263095Y-115374057D01*
X137263095Y-115374057D02*
X137215476Y-115469295D01*
X137215476Y-115469295D02*
X137215476Y-115707390D01*
X137215476Y-115707390D02*
X137263095Y-115802628D01*
X137263095Y-115802628D02*
X137310714Y-115850247D01*
X137310714Y-115850247D02*
X137405952Y-115897866D01*
X137405952Y-115897866D02*
X137596428Y-115897866D01*
X137596428Y-115897866D02*
X137691666Y-115850247D01*
X137691666Y-115850247D02*
X137739285Y-115802628D01*
X137739285Y-115802628D02*
X137786904Y-115707390D01*
X132961142Y-118945819D02*
X132627809Y-118469628D01*
X132389714Y-118945819D02*
X132389714Y-117945819D01*
X132389714Y-117945819D02*
X132770666Y-117945819D01*
X132770666Y-117945819D02*
X132865904Y-117993438D01*
X132865904Y-117993438D02*
X132913523Y-118041057D01*
X132913523Y-118041057D02*
X132961142Y-118136295D01*
X132961142Y-118136295D02*
X132961142Y-118279152D01*
X132961142Y-118279152D02*
X132913523Y-118374390D01*
X132913523Y-118374390D02*
X132865904Y-118422009D01*
X132865904Y-118422009D02*
X132770666Y-118469628D01*
X132770666Y-118469628D02*
X132389714Y-118469628D01*
X133913523Y-118945819D02*
X133342095Y-118945819D01*
X133627809Y-118945819D02*
X133627809Y-117945819D01*
X133627809Y-117945819D02*
X133532571Y-118088676D01*
X133532571Y-118088676D02*
X133437333Y-118183914D01*
X133437333Y-118183914D02*
X133342095Y-118231533D01*
X134532571Y-117945819D02*
X134627809Y-117945819D01*
X134627809Y-117945819D02*
X134723047Y-117993438D01*
X134723047Y-117993438D02*
X134770666Y-118041057D01*
X134770666Y-118041057D02*
X134818285Y-118136295D01*
X134818285Y-118136295D02*
X134865904Y-118326771D01*
X134865904Y-118326771D02*
X134865904Y-118564866D01*
X134865904Y-118564866D02*
X134818285Y-118755342D01*
X134818285Y-118755342D02*
X134770666Y-118850580D01*
X134770666Y-118850580D02*
X134723047Y-118898200D01*
X134723047Y-118898200D02*
X134627809Y-118945819D01*
X134627809Y-118945819D02*
X134532571Y-118945819D01*
X134532571Y-118945819D02*
X134437333Y-118898200D01*
X134437333Y-118898200D02*
X134389714Y-118850580D01*
X134389714Y-118850580D02*
X134342095Y-118755342D01*
X134342095Y-118755342D02*
X134294476Y-118564866D01*
X134294476Y-118564866D02*
X134294476Y-118326771D01*
X134294476Y-118326771D02*
X134342095Y-118136295D01*
X134342095Y-118136295D02*
X134389714Y-118041057D01*
X134389714Y-118041057D02*
X134437333Y-117993438D01*
X134437333Y-117993438D02*
X134532571Y-117945819D01*
X150938906Y-121813069D02*
X150938906Y-122527354D01*
X150938906Y-122527354D02*
X150891287Y-122670211D01*
X150891287Y-122670211D02*
X150796049Y-122765450D01*
X150796049Y-122765450D02*
X150653192Y-122813069D01*
X150653192Y-122813069D02*
X150557954Y-122813069D01*
X151891287Y-121813069D02*
X151415097Y-121813069D01*
X151415097Y-121813069D02*
X151367478Y-122289259D01*
X151367478Y-122289259D02*
X151415097Y-122241640D01*
X151415097Y-122241640D02*
X151510335Y-122194021D01*
X151510335Y-122194021D02*
X151748430Y-122194021D01*
X151748430Y-122194021D02*
X151843668Y-122241640D01*
X151843668Y-122241640D02*
X151891287Y-122289259D01*
X151891287Y-122289259D02*
X151938906Y-122384497D01*
X151938906Y-122384497D02*
X151938906Y-122622592D01*
X151938906Y-122622592D02*
X151891287Y-122717830D01*
X151891287Y-122717830D02*
X151843668Y-122765450D01*
X151843668Y-122765450D02*
X151748430Y-122813069D01*
X151748430Y-122813069D02*
X151510335Y-122813069D01*
X151510335Y-122813069D02*
X151415097Y-122765450D01*
X151415097Y-122765450D02*
X151367478Y-122717830D01*
D11*
X153050526Y-125345888D02*
X153050526Y-123345888D01*
X154002907Y-125345888D02*
X154002907Y-123345888D01*
X154002907Y-123345888D02*
X155145764Y-125345888D01*
X155145764Y-125345888D02*
X155145764Y-123345888D01*
X156098145Y-124583983D02*
X157621955Y-124583983D01*
D10*
X139805580Y-107068857D02*
X139853200Y-107116476D01*
X139853200Y-107116476D02*
X139900819Y-107259333D01*
X139900819Y-107259333D02*
X139900819Y-107354571D01*
X139900819Y-107354571D02*
X139853200Y-107497428D01*
X139853200Y-107497428D02*
X139757961Y-107592666D01*
X139757961Y-107592666D02*
X139662723Y-107640285D01*
X139662723Y-107640285D02*
X139472247Y-107687904D01*
X139472247Y-107687904D02*
X139329390Y-107687904D01*
X139329390Y-107687904D02*
X139138914Y-107640285D01*
X139138914Y-107640285D02*
X139043676Y-107592666D01*
X139043676Y-107592666D02*
X138948438Y-107497428D01*
X138948438Y-107497428D02*
X138900819Y-107354571D01*
X138900819Y-107354571D02*
X138900819Y-107259333D01*
X138900819Y-107259333D02*
X138948438Y-107116476D01*
X138948438Y-107116476D02*
X138996057Y-107068857D01*
X138900819Y-106735523D02*
X138900819Y-106116476D01*
X138900819Y-106116476D02*
X139281771Y-106449809D01*
X139281771Y-106449809D02*
X139281771Y-106306952D01*
X139281771Y-106306952D02*
X139329390Y-106211714D01*
X139329390Y-106211714D02*
X139377009Y-106164095D01*
X139377009Y-106164095D02*
X139472247Y-106116476D01*
X139472247Y-106116476D02*
X139710342Y-106116476D01*
X139710342Y-106116476D02*
X139805580Y-106164095D01*
X139805580Y-106164095D02*
X139853200Y-106211714D01*
X139853200Y-106211714D02*
X139900819Y-106306952D01*
X139900819Y-106306952D02*
X139900819Y-106592666D01*
X139900819Y-106592666D02*
X139853200Y-106687904D01*
X139853200Y-106687904D02*
X139805580Y-106735523D01*
X139234152Y-105259333D02*
X139900819Y-105259333D01*
X138853200Y-105497428D02*
X139567485Y-105735523D01*
X139567485Y-105735523D02*
X139567485Y-105116476D01*
X164792819Y-50712666D02*
X164316628Y-51045999D01*
X164792819Y-51284094D02*
X163792819Y-51284094D01*
X163792819Y-51284094D02*
X163792819Y-50903142D01*
X163792819Y-50903142D02*
X163840438Y-50807904D01*
X163840438Y-50807904D02*
X163888057Y-50760285D01*
X163888057Y-50760285D02*
X163983295Y-50712666D01*
X163983295Y-50712666D02*
X164126152Y-50712666D01*
X164126152Y-50712666D02*
X164221390Y-50760285D01*
X164221390Y-50760285D02*
X164269009Y-50807904D01*
X164269009Y-50807904D02*
X164316628Y-50903142D01*
X164316628Y-50903142D02*
X164316628Y-51284094D01*
X164126152Y-49855523D02*
X164792819Y-49855523D01*
X163745200Y-50093618D02*
X164459485Y-50331713D01*
X164459485Y-50331713D02*
X164459485Y-49712666D01*
X178086476Y-63565819D02*
X178086476Y-64280104D01*
X178086476Y-64280104D02*
X178038857Y-64422961D01*
X178038857Y-64422961D02*
X177943619Y-64518200D01*
X177943619Y-64518200D02*
X177800762Y-64565819D01*
X177800762Y-64565819D02*
X177705524Y-64565819D01*
X179086476Y-64565819D02*
X178515048Y-64565819D01*
X178800762Y-64565819D02*
X178800762Y-63565819D01*
X178800762Y-63565819D02*
X178705524Y-63708676D01*
X178705524Y-63708676D02*
X178610286Y-63803914D01*
X178610286Y-63803914D02*
X178515048Y-63851533D01*
X179419810Y-63565819D02*
X180086476Y-63565819D01*
X180086476Y-63565819D02*
X179657905Y-64565819D01*
X154251819Y-85764666D02*
X153775628Y-86097999D01*
X154251819Y-86336094D02*
X153251819Y-86336094D01*
X153251819Y-86336094D02*
X153251819Y-85955142D01*
X153251819Y-85955142D02*
X153299438Y-85859904D01*
X153299438Y-85859904D02*
X153347057Y-85812285D01*
X153347057Y-85812285D02*
X153442295Y-85764666D01*
X153442295Y-85764666D02*
X153585152Y-85764666D01*
X153585152Y-85764666D02*
X153680390Y-85812285D01*
X153680390Y-85812285D02*
X153728009Y-85859904D01*
X153728009Y-85859904D02*
X153775628Y-85955142D01*
X153775628Y-85955142D02*
X153775628Y-86336094D01*
X154251819Y-84812285D02*
X154251819Y-85383713D01*
X154251819Y-85097999D02*
X153251819Y-85097999D01*
X153251819Y-85097999D02*
X153394676Y-85193237D01*
X153394676Y-85193237D02*
X153489914Y-85288475D01*
X153489914Y-85288475D02*
X153537533Y-85383713D01*
X133836580Y-99956857D02*
X133884200Y-100004476D01*
X133884200Y-100004476D02*
X133931819Y-100147333D01*
X133931819Y-100147333D02*
X133931819Y-100242571D01*
X133931819Y-100242571D02*
X133884200Y-100385428D01*
X133884200Y-100385428D02*
X133788961Y-100480666D01*
X133788961Y-100480666D02*
X133693723Y-100528285D01*
X133693723Y-100528285D02*
X133503247Y-100575904D01*
X133503247Y-100575904D02*
X133360390Y-100575904D01*
X133360390Y-100575904D02*
X133169914Y-100528285D01*
X133169914Y-100528285D02*
X133074676Y-100480666D01*
X133074676Y-100480666D02*
X132979438Y-100385428D01*
X132979438Y-100385428D02*
X132931819Y-100242571D01*
X132931819Y-100242571D02*
X132931819Y-100147333D01*
X132931819Y-100147333D02*
X132979438Y-100004476D01*
X132979438Y-100004476D02*
X133027057Y-99956857D01*
X133931819Y-99004476D02*
X133931819Y-99575904D01*
X133931819Y-99290190D02*
X132931819Y-99290190D01*
X132931819Y-99290190D02*
X133074676Y-99385428D01*
X133074676Y-99385428D02*
X133169914Y-99480666D01*
X133169914Y-99480666D02*
X133217533Y-99575904D01*
X132931819Y-98671142D02*
X132931819Y-98052095D01*
X132931819Y-98052095D02*
X133312771Y-98385428D01*
X133312771Y-98385428D02*
X133312771Y-98242571D01*
X133312771Y-98242571D02*
X133360390Y-98147333D01*
X133360390Y-98147333D02*
X133408009Y-98099714D01*
X133408009Y-98099714D02*
X133503247Y-98052095D01*
X133503247Y-98052095D02*
X133741342Y-98052095D01*
X133741342Y-98052095D02*
X133836580Y-98099714D01*
X133836580Y-98099714D02*
X133884200Y-98147333D01*
X133884200Y-98147333D02*
X133931819Y-98242571D01*
X133931819Y-98242571D02*
X133931819Y-98528285D01*
X133931819Y-98528285D02*
X133884200Y-98623523D01*
X133884200Y-98623523D02*
X133836580Y-98671142D01*
X134961333Y-75892819D02*
X134628000Y-75416628D01*
X134389905Y-75892819D02*
X134389905Y-74892819D01*
X134389905Y-74892819D02*
X134770857Y-74892819D01*
X134770857Y-74892819D02*
X134866095Y-74940438D01*
X134866095Y-74940438D02*
X134913714Y-74988057D01*
X134913714Y-74988057D02*
X134961333Y-75083295D01*
X134961333Y-75083295D02*
X134961333Y-75226152D01*
X134961333Y-75226152D02*
X134913714Y-75321390D01*
X134913714Y-75321390D02*
X134866095Y-75369009D01*
X134866095Y-75369009D02*
X134770857Y-75416628D01*
X134770857Y-75416628D02*
X134389905Y-75416628D01*
X135532762Y-75321390D02*
X135437524Y-75273771D01*
X135437524Y-75273771D02*
X135389905Y-75226152D01*
X135389905Y-75226152D02*
X135342286Y-75130914D01*
X135342286Y-75130914D02*
X135342286Y-75083295D01*
X135342286Y-75083295D02*
X135389905Y-74988057D01*
X135389905Y-74988057D02*
X135437524Y-74940438D01*
X135437524Y-74940438D02*
X135532762Y-74892819D01*
X135532762Y-74892819D02*
X135723238Y-74892819D01*
X135723238Y-74892819D02*
X135818476Y-74940438D01*
X135818476Y-74940438D02*
X135866095Y-74988057D01*
X135866095Y-74988057D02*
X135913714Y-75083295D01*
X135913714Y-75083295D02*
X135913714Y-75130914D01*
X135913714Y-75130914D02*
X135866095Y-75226152D01*
X135866095Y-75226152D02*
X135818476Y-75273771D01*
X135818476Y-75273771D02*
X135723238Y-75321390D01*
X135723238Y-75321390D02*
X135532762Y-75321390D01*
X135532762Y-75321390D02*
X135437524Y-75369009D01*
X135437524Y-75369009D02*
X135389905Y-75416628D01*
X135389905Y-75416628D02*
X135342286Y-75511866D01*
X135342286Y-75511866D02*
X135342286Y-75702342D01*
X135342286Y-75702342D02*
X135389905Y-75797580D01*
X135389905Y-75797580D02*
X135437524Y-75845200D01*
X135437524Y-75845200D02*
X135532762Y-75892819D01*
X135532762Y-75892819D02*
X135723238Y-75892819D01*
X135723238Y-75892819D02*
X135818476Y-75845200D01*
X135818476Y-75845200D02*
X135866095Y-75797580D01*
X135866095Y-75797580D02*
X135913714Y-75702342D01*
X135913714Y-75702342D02*
X135913714Y-75511866D01*
X135913714Y-75511866D02*
X135866095Y-75416628D01*
X135866095Y-75416628D02*
X135818476Y-75369009D01*
X135818476Y-75369009D02*
X135723238Y-75321390D01*
X143160761Y-47736057D02*
X143065523Y-47688438D01*
X143065523Y-47688438D02*
X142970285Y-47593200D01*
X142970285Y-47593200D02*
X142827428Y-47450342D01*
X142827428Y-47450342D02*
X142732190Y-47402723D01*
X142732190Y-47402723D02*
X142636952Y-47402723D01*
X142684571Y-47640819D02*
X142589333Y-47593200D01*
X142589333Y-47593200D02*
X142494095Y-47497961D01*
X142494095Y-47497961D02*
X142446476Y-47307485D01*
X142446476Y-47307485D02*
X142446476Y-46974152D01*
X142446476Y-46974152D02*
X142494095Y-46783676D01*
X142494095Y-46783676D02*
X142589333Y-46688438D01*
X142589333Y-46688438D02*
X142684571Y-46640819D01*
X142684571Y-46640819D02*
X142875047Y-46640819D01*
X142875047Y-46640819D02*
X142970285Y-46688438D01*
X142970285Y-46688438D02*
X143065523Y-46783676D01*
X143065523Y-46783676D02*
X143113142Y-46974152D01*
X143113142Y-46974152D02*
X143113142Y-47307485D01*
X143113142Y-47307485D02*
X143065523Y-47497961D01*
X143065523Y-47497961D02*
X142970285Y-47593200D01*
X142970285Y-47593200D02*
X142875047Y-47640819D01*
X142875047Y-47640819D02*
X142684571Y-47640819D01*
X144017904Y-46640819D02*
X143541714Y-46640819D01*
X143541714Y-46640819D02*
X143494095Y-47117009D01*
X143494095Y-47117009D02*
X143541714Y-47069390D01*
X143541714Y-47069390D02*
X143636952Y-47021771D01*
X143636952Y-47021771D02*
X143875047Y-47021771D01*
X143875047Y-47021771D02*
X143970285Y-47069390D01*
X143970285Y-47069390D02*
X144017904Y-47117009D01*
X144017904Y-47117009D02*
X144065523Y-47212247D01*
X144065523Y-47212247D02*
X144065523Y-47450342D01*
X144065523Y-47450342D02*
X144017904Y-47545580D01*
X144017904Y-47545580D02*
X143970285Y-47593200D01*
X143970285Y-47593200D02*
X143875047Y-47640819D01*
X143875047Y-47640819D02*
X143636952Y-47640819D01*
X143636952Y-47640819D02*
X143541714Y-47593200D01*
X143541714Y-47593200D02*
X143494095Y-47545580D01*
X158202333Y-64335819D02*
X157869000Y-63859628D01*
X157630905Y-64335819D02*
X157630905Y-63335819D01*
X157630905Y-63335819D02*
X158011857Y-63335819D01*
X158011857Y-63335819D02*
X158107095Y-63383438D01*
X158107095Y-63383438D02*
X158154714Y-63431057D01*
X158154714Y-63431057D02*
X158202333Y-63526295D01*
X158202333Y-63526295D02*
X158202333Y-63669152D01*
X158202333Y-63669152D02*
X158154714Y-63764390D01*
X158154714Y-63764390D02*
X158107095Y-63812009D01*
X158107095Y-63812009D02*
X158011857Y-63859628D01*
X158011857Y-63859628D02*
X157630905Y-63859628D01*
X159059476Y-63335819D02*
X158869000Y-63335819D01*
X158869000Y-63335819D02*
X158773762Y-63383438D01*
X158773762Y-63383438D02*
X158726143Y-63431057D01*
X158726143Y-63431057D02*
X158630905Y-63573914D01*
X158630905Y-63573914D02*
X158583286Y-63764390D01*
X158583286Y-63764390D02*
X158583286Y-64145342D01*
X158583286Y-64145342D02*
X158630905Y-64240580D01*
X158630905Y-64240580D02*
X158678524Y-64288200D01*
X158678524Y-64288200D02*
X158773762Y-64335819D01*
X158773762Y-64335819D02*
X158964238Y-64335819D01*
X158964238Y-64335819D02*
X159059476Y-64288200D01*
X159059476Y-64288200D02*
X159107095Y-64240580D01*
X159107095Y-64240580D02*
X159154714Y-64145342D01*
X159154714Y-64145342D02*
X159154714Y-63907247D01*
X159154714Y-63907247D02*
X159107095Y-63812009D01*
X159107095Y-63812009D02*
X159059476Y-63764390D01*
X159059476Y-63764390D02*
X158964238Y-63716771D01*
X158964238Y-63716771D02*
X158773762Y-63716771D01*
X158773762Y-63716771D02*
X158678524Y-63764390D01*
X158678524Y-63764390D02*
X158630905Y-63812009D01*
X158630905Y-63812009D02*
X158583286Y-63907247D01*
X139805580Y-99956857D02*
X139853200Y-100004476D01*
X139853200Y-100004476D02*
X139900819Y-100147333D01*
X139900819Y-100147333D02*
X139900819Y-100242571D01*
X139900819Y-100242571D02*
X139853200Y-100385428D01*
X139853200Y-100385428D02*
X139757961Y-100480666D01*
X139757961Y-100480666D02*
X139662723Y-100528285D01*
X139662723Y-100528285D02*
X139472247Y-100575904D01*
X139472247Y-100575904D02*
X139329390Y-100575904D01*
X139329390Y-100575904D02*
X139138914Y-100528285D01*
X139138914Y-100528285D02*
X139043676Y-100480666D01*
X139043676Y-100480666D02*
X138948438Y-100385428D01*
X138948438Y-100385428D02*
X138900819Y-100242571D01*
X138900819Y-100242571D02*
X138900819Y-100147333D01*
X138900819Y-100147333D02*
X138948438Y-100004476D01*
X138948438Y-100004476D02*
X138996057Y-99956857D01*
X138900819Y-99623523D02*
X138900819Y-99004476D01*
X138900819Y-99004476D02*
X139281771Y-99337809D01*
X139281771Y-99337809D02*
X139281771Y-99194952D01*
X139281771Y-99194952D02*
X139329390Y-99099714D01*
X139329390Y-99099714D02*
X139377009Y-99052095D01*
X139377009Y-99052095D02*
X139472247Y-99004476D01*
X139472247Y-99004476D02*
X139710342Y-99004476D01*
X139710342Y-99004476D02*
X139805580Y-99052095D01*
X139805580Y-99052095D02*
X139853200Y-99099714D01*
X139853200Y-99099714D02*
X139900819Y-99194952D01*
X139900819Y-99194952D02*
X139900819Y-99480666D01*
X139900819Y-99480666D02*
X139853200Y-99575904D01*
X139853200Y-99575904D02*
X139805580Y-99623523D01*
X139329390Y-98433047D02*
X139281771Y-98528285D01*
X139281771Y-98528285D02*
X139234152Y-98575904D01*
X139234152Y-98575904D02*
X139138914Y-98623523D01*
X139138914Y-98623523D02*
X139091295Y-98623523D01*
X139091295Y-98623523D02*
X138996057Y-98575904D01*
X138996057Y-98575904D02*
X138948438Y-98528285D01*
X138948438Y-98528285D02*
X138900819Y-98433047D01*
X138900819Y-98433047D02*
X138900819Y-98242571D01*
X138900819Y-98242571D02*
X138948438Y-98147333D01*
X138948438Y-98147333D02*
X138996057Y-98099714D01*
X138996057Y-98099714D02*
X139091295Y-98052095D01*
X139091295Y-98052095D02*
X139138914Y-98052095D01*
X139138914Y-98052095D02*
X139234152Y-98099714D01*
X139234152Y-98099714D02*
X139281771Y-98147333D01*
X139281771Y-98147333D02*
X139329390Y-98242571D01*
X139329390Y-98242571D02*
X139329390Y-98433047D01*
X139329390Y-98433047D02*
X139377009Y-98528285D01*
X139377009Y-98528285D02*
X139424628Y-98575904D01*
X139424628Y-98575904D02*
X139519866Y-98623523D01*
X139519866Y-98623523D02*
X139710342Y-98623523D01*
X139710342Y-98623523D02*
X139805580Y-98575904D01*
X139805580Y-98575904D02*
X139853200Y-98528285D01*
X139853200Y-98528285D02*
X139900819Y-98433047D01*
X139900819Y-98433047D02*
X139900819Y-98242571D01*
X139900819Y-98242571D02*
X139853200Y-98147333D01*
X139853200Y-98147333D02*
X139805580Y-98099714D01*
X139805580Y-98099714D02*
X139710342Y-98052095D01*
X139710342Y-98052095D02*
X139519866Y-98052095D01*
X139519866Y-98052095D02*
X139424628Y-98099714D01*
X139424628Y-98099714D02*
X139377009Y-98147333D01*
X139377009Y-98147333D02*
X139329390Y-98242571D01*
X153027142Y-67415580D02*
X152979523Y-67463200D01*
X152979523Y-67463200D02*
X152836666Y-67510819D01*
X152836666Y-67510819D02*
X152741428Y-67510819D01*
X152741428Y-67510819D02*
X152598571Y-67463200D01*
X152598571Y-67463200D02*
X152503333Y-67367961D01*
X152503333Y-67367961D02*
X152455714Y-67272723D01*
X152455714Y-67272723D02*
X152408095Y-67082247D01*
X152408095Y-67082247D02*
X152408095Y-66939390D01*
X152408095Y-66939390D02*
X152455714Y-66748914D01*
X152455714Y-66748914D02*
X152503333Y-66653676D01*
X152503333Y-66653676D02*
X152598571Y-66558438D01*
X152598571Y-66558438D02*
X152741428Y-66510819D01*
X152741428Y-66510819D02*
X152836666Y-66510819D01*
X152836666Y-66510819D02*
X152979523Y-66558438D01*
X152979523Y-66558438D02*
X153027142Y-66606057D01*
X153884285Y-66844152D02*
X153884285Y-67510819D01*
X153646190Y-66463200D02*
X153408095Y-67177485D01*
X153408095Y-67177485D02*
X154027142Y-67177485D01*
X154455714Y-67510819D02*
X154646190Y-67510819D01*
X154646190Y-67510819D02*
X154741428Y-67463200D01*
X154741428Y-67463200D02*
X154789047Y-67415580D01*
X154789047Y-67415580D02*
X154884285Y-67272723D01*
X154884285Y-67272723D02*
X154931904Y-67082247D01*
X154931904Y-67082247D02*
X154931904Y-66701295D01*
X154931904Y-66701295D02*
X154884285Y-66606057D01*
X154884285Y-66606057D02*
X154836666Y-66558438D01*
X154836666Y-66558438D02*
X154741428Y-66510819D01*
X154741428Y-66510819D02*
X154550952Y-66510819D01*
X154550952Y-66510819D02*
X154455714Y-66558438D01*
X154455714Y-66558438D02*
X154408095Y-66606057D01*
X154408095Y-66606057D02*
X154360476Y-66701295D01*
X154360476Y-66701295D02*
X154360476Y-66939390D01*
X154360476Y-66939390D02*
X154408095Y-67034628D01*
X154408095Y-67034628D02*
X154455714Y-67082247D01*
X154455714Y-67082247D02*
X154550952Y-67129866D01*
X154550952Y-67129866D02*
X154741428Y-67129866D01*
X154741428Y-67129866D02*
X154836666Y-67082247D01*
X154836666Y-67082247D02*
X154884285Y-67034628D01*
X154884285Y-67034628D02*
X154931904Y-66939390D01*
X151616580Y-95924666D02*
X151664200Y-95972285D01*
X151664200Y-95972285D02*
X151711819Y-96115142D01*
X151711819Y-96115142D02*
X151711819Y-96210380D01*
X151711819Y-96210380D02*
X151664200Y-96353237D01*
X151664200Y-96353237D02*
X151568961Y-96448475D01*
X151568961Y-96448475D02*
X151473723Y-96496094D01*
X151473723Y-96496094D02*
X151283247Y-96543713D01*
X151283247Y-96543713D02*
X151140390Y-96543713D01*
X151140390Y-96543713D02*
X150949914Y-96496094D01*
X150949914Y-96496094D02*
X150854676Y-96448475D01*
X150854676Y-96448475D02*
X150759438Y-96353237D01*
X150759438Y-96353237D02*
X150711819Y-96210380D01*
X150711819Y-96210380D02*
X150711819Y-96115142D01*
X150711819Y-96115142D02*
X150759438Y-95972285D01*
X150759438Y-95972285D02*
X150807057Y-95924666D01*
X151140390Y-95353237D02*
X151092771Y-95448475D01*
X151092771Y-95448475D02*
X151045152Y-95496094D01*
X151045152Y-95496094D02*
X150949914Y-95543713D01*
X150949914Y-95543713D02*
X150902295Y-95543713D01*
X150902295Y-95543713D02*
X150807057Y-95496094D01*
X150807057Y-95496094D02*
X150759438Y-95448475D01*
X150759438Y-95448475D02*
X150711819Y-95353237D01*
X150711819Y-95353237D02*
X150711819Y-95162761D01*
X150711819Y-95162761D02*
X150759438Y-95067523D01*
X150759438Y-95067523D02*
X150807057Y-95019904D01*
X150807057Y-95019904D02*
X150902295Y-94972285D01*
X150902295Y-94972285D02*
X150949914Y-94972285D01*
X150949914Y-94972285D02*
X151045152Y-95019904D01*
X151045152Y-95019904D02*
X151092771Y-95067523D01*
X151092771Y-95067523D02*
X151140390Y-95162761D01*
X151140390Y-95162761D02*
X151140390Y-95353237D01*
X151140390Y-95353237D02*
X151188009Y-95448475D01*
X151188009Y-95448475D02*
X151235628Y-95496094D01*
X151235628Y-95496094D02*
X151330866Y-95543713D01*
X151330866Y-95543713D02*
X151521342Y-95543713D01*
X151521342Y-95543713D02*
X151616580Y-95496094D01*
X151616580Y-95496094D02*
X151664200Y-95448475D01*
X151664200Y-95448475D02*
X151711819Y-95353237D01*
X151711819Y-95353237D02*
X151711819Y-95162761D01*
X151711819Y-95162761D02*
X151664200Y-95067523D01*
X151664200Y-95067523D02*
X151616580Y-95019904D01*
X151616580Y-95019904D02*
X151521342Y-94972285D01*
X151521342Y-94972285D02*
X151330866Y-94972285D01*
X151330866Y-94972285D02*
X151235628Y-95019904D01*
X151235628Y-95019904D02*
X151188009Y-95067523D01*
X151188009Y-95067523D02*
X151140390Y-95162761D01*
X174667057Y-69691238D02*
X174619438Y-69786476D01*
X174619438Y-69786476D02*
X174524200Y-69881714D01*
X174524200Y-69881714D02*
X174381342Y-70024571D01*
X174381342Y-70024571D02*
X174333723Y-70119809D01*
X174333723Y-70119809D02*
X174333723Y-70215047D01*
X174571819Y-70167428D02*
X174524200Y-70262666D01*
X174524200Y-70262666D02*
X174428961Y-70357904D01*
X174428961Y-70357904D02*
X174238485Y-70405523D01*
X174238485Y-70405523D02*
X173905152Y-70405523D01*
X173905152Y-70405523D02*
X173714676Y-70357904D01*
X173714676Y-70357904D02*
X173619438Y-70262666D01*
X173619438Y-70262666D02*
X173571819Y-70167428D01*
X173571819Y-70167428D02*
X173571819Y-69976952D01*
X173571819Y-69976952D02*
X173619438Y-69881714D01*
X173619438Y-69881714D02*
X173714676Y-69786476D01*
X173714676Y-69786476D02*
X173905152Y-69738857D01*
X173905152Y-69738857D02*
X174238485Y-69738857D01*
X174238485Y-69738857D02*
X174428961Y-69786476D01*
X174428961Y-69786476D02*
X174524200Y-69881714D01*
X174524200Y-69881714D02*
X174571819Y-69976952D01*
X174571819Y-69976952D02*
X174571819Y-70167428D01*
X173905152Y-68881714D02*
X174571819Y-68881714D01*
X173524200Y-69119809D02*
X174238485Y-69357904D01*
X174238485Y-69357904D02*
X174238485Y-68738857D01*
X166967059Y-103220094D02*
X165967059Y-103220094D01*
X165967059Y-103220094D02*
X165967059Y-102981999D01*
X165967059Y-102981999D02*
X166014678Y-102839142D01*
X166014678Y-102839142D02*
X166109916Y-102743904D01*
X166109916Y-102743904D02*
X166205154Y-102696285D01*
X166205154Y-102696285D02*
X166395630Y-102648666D01*
X166395630Y-102648666D02*
X166538487Y-102648666D01*
X166538487Y-102648666D02*
X166728963Y-102696285D01*
X166728963Y-102696285D02*
X166824201Y-102743904D01*
X166824201Y-102743904D02*
X166919440Y-102839142D01*
X166919440Y-102839142D02*
X166967059Y-102981999D01*
X166967059Y-102981999D02*
X166967059Y-103220094D01*
X166967059Y-101696285D02*
X166967059Y-102267713D01*
X166967059Y-101981999D02*
X165967059Y-101981999D01*
X165967059Y-101981999D02*
X166109916Y-102077237D01*
X166109916Y-102077237D02*
X166205154Y-102172475D01*
X166205154Y-102172475D02*
X166252773Y-102267713D01*
X151616580Y-107068857D02*
X151664200Y-107116476D01*
X151664200Y-107116476D02*
X151711819Y-107259333D01*
X151711819Y-107259333D02*
X151711819Y-107354571D01*
X151711819Y-107354571D02*
X151664200Y-107497428D01*
X151664200Y-107497428D02*
X151568961Y-107592666D01*
X151568961Y-107592666D02*
X151473723Y-107640285D01*
X151473723Y-107640285D02*
X151283247Y-107687904D01*
X151283247Y-107687904D02*
X151140390Y-107687904D01*
X151140390Y-107687904D02*
X150949914Y-107640285D01*
X150949914Y-107640285D02*
X150854676Y-107592666D01*
X150854676Y-107592666D02*
X150759438Y-107497428D01*
X150759438Y-107497428D02*
X150711819Y-107354571D01*
X150711819Y-107354571D02*
X150711819Y-107259333D01*
X150711819Y-107259333D02*
X150759438Y-107116476D01*
X150759438Y-107116476D02*
X150807057Y-107068857D01*
X151711819Y-106116476D02*
X151711819Y-106687904D01*
X151711819Y-106402190D02*
X150711819Y-106402190D01*
X150711819Y-106402190D02*
X150854676Y-106497428D01*
X150854676Y-106497428D02*
X150949914Y-106592666D01*
X150949914Y-106592666D02*
X150997533Y-106687904D01*
X150711819Y-105497428D02*
X150711819Y-105402190D01*
X150711819Y-105402190D02*
X150759438Y-105306952D01*
X150759438Y-105306952D02*
X150807057Y-105259333D01*
X150807057Y-105259333D02*
X150902295Y-105211714D01*
X150902295Y-105211714D02*
X151092771Y-105164095D01*
X151092771Y-105164095D02*
X151330866Y-105164095D01*
X151330866Y-105164095D02*
X151521342Y-105211714D01*
X151521342Y-105211714D02*
X151616580Y-105259333D01*
X151616580Y-105259333D02*
X151664200Y-105306952D01*
X151664200Y-105306952D02*
X151711819Y-105402190D01*
X151711819Y-105402190D02*
X151711819Y-105497428D01*
X151711819Y-105497428D02*
X151664200Y-105592666D01*
X151664200Y-105592666D02*
X151616580Y-105640285D01*
X151616580Y-105640285D02*
X151521342Y-105687904D01*
X151521342Y-105687904D02*
X151330866Y-105735523D01*
X151330866Y-105735523D02*
X151092771Y-105735523D01*
X151092771Y-105735523D02*
X150902295Y-105687904D01*
X150902295Y-105687904D02*
X150807057Y-105640285D01*
X150807057Y-105640285D02*
X150759438Y-105592666D01*
X150759438Y-105592666D02*
X150711819Y-105497428D01*
X166354286Y-75400819D02*
X166925714Y-75400819D01*
X166640000Y-76400819D02*
X166640000Y-75400819D01*
X167259048Y-76400819D02*
X167259048Y-75400819D01*
X167259048Y-75877009D02*
X167830476Y-75877009D01*
X167830476Y-76400819D02*
X167830476Y-75400819D01*
X168259048Y-75496057D02*
X168306667Y-75448438D01*
X168306667Y-75448438D02*
X168401905Y-75400819D01*
X168401905Y-75400819D02*
X168640000Y-75400819D01*
X168640000Y-75400819D02*
X168735238Y-75448438D01*
X168735238Y-75448438D02*
X168782857Y-75496057D01*
X168782857Y-75496057D02*
X168830476Y-75591295D01*
X168830476Y-75591295D02*
X168830476Y-75686533D01*
X168830476Y-75686533D02*
X168782857Y-75829390D01*
X168782857Y-75829390D02*
X168211429Y-76400819D01*
X168211429Y-76400819D02*
X168830476Y-76400819D01*
X119332476Y-63565819D02*
X119332476Y-64280104D01*
X119332476Y-64280104D02*
X119284857Y-64422961D01*
X119284857Y-64422961D02*
X119189619Y-64518200D01*
X119189619Y-64518200D02*
X119046762Y-64565819D01*
X119046762Y-64565819D02*
X118951524Y-64565819D01*
X120332476Y-64565819D02*
X119761048Y-64565819D01*
X120046762Y-64565819D02*
X120046762Y-63565819D01*
X120046762Y-63565819D02*
X119951524Y-63708676D01*
X119951524Y-63708676D02*
X119856286Y-63803914D01*
X119856286Y-63803914D02*
X119761048Y-63851533D01*
X120903905Y-63994390D02*
X120808667Y-63946771D01*
X120808667Y-63946771D02*
X120761048Y-63899152D01*
X120761048Y-63899152D02*
X120713429Y-63803914D01*
X120713429Y-63803914D02*
X120713429Y-63756295D01*
X120713429Y-63756295D02*
X120761048Y-63661057D01*
X120761048Y-63661057D02*
X120808667Y-63613438D01*
X120808667Y-63613438D02*
X120903905Y-63565819D01*
X120903905Y-63565819D02*
X121094381Y-63565819D01*
X121094381Y-63565819D02*
X121189619Y-63613438D01*
X121189619Y-63613438D02*
X121237238Y-63661057D01*
X121237238Y-63661057D02*
X121284857Y-63756295D01*
X121284857Y-63756295D02*
X121284857Y-63803914D01*
X121284857Y-63803914D02*
X121237238Y-63899152D01*
X121237238Y-63899152D02*
X121189619Y-63946771D01*
X121189619Y-63946771D02*
X121094381Y-63994390D01*
X121094381Y-63994390D02*
X120903905Y-63994390D01*
X120903905Y-63994390D02*
X120808667Y-64042009D01*
X120808667Y-64042009D02*
X120761048Y-64089628D01*
X120761048Y-64089628D02*
X120713429Y-64184866D01*
X120713429Y-64184866D02*
X120713429Y-64375342D01*
X120713429Y-64375342D02*
X120761048Y-64470580D01*
X120761048Y-64470580D02*
X120808667Y-64518200D01*
X120808667Y-64518200D02*
X120903905Y-64565819D01*
X120903905Y-64565819D02*
X121094381Y-64565819D01*
X121094381Y-64565819D02*
X121189619Y-64518200D01*
X121189619Y-64518200D02*
X121237238Y-64470580D01*
X121237238Y-64470580D02*
X121284857Y-64375342D01*
X121284857Y-64375342D02*
X121284857Y-64184866D01*
X121284857Y-64184866D02*
X121237238Y-64089628D01*
X121237238Y-64089628D02*
X121189619Y-64042009D01*
X121189619Y-64042009D02*
X121094381Y-63994390D01*
X137421382Y-127289830D02*
X137373763Y-127337450D01*
X137373763Y-127337450D02*
X137230906Y-127385069D01*
X137230906Y-127385069D02*
X137135668Y-127385069D01*
X137135668Y-127385069D02*
X136992811Y-127337450D01*
X136992811Y-127337450D02*
X136897573Y-127242211D01*
X136897573Y-127242211D02*
X136849954Y-127146973D01*
X136849954Y-127146973D02*
X136802335Y-126956497D01*
X136802335Y-126956497D02*
X136802335Y-126813640D01*
X136802335Y-126813640D02*
X136849954Y-126623164D01*
X136849954Y-126623164D02*
X136897573Y-126527926D01*
X136897573Y-126527926D02*
X136992811Y-126432688D01*
X136992811Y-126432688D02*
X137135668Y-126385069D01*
X137135668Y-126385069D02*
X137230906Y-126385069D01*
X137230906Y-126385069D02*
X137373763Y-126432688D01*
X137373763Y-126432688D02*
X137421382Y-126480307D01*
X138278525Y-126718402D02*
X138278525Y-127385069D01*
X138040430Y-126337450D02*
X137802335Y-127051735D01*
X137802335Y-127051735D02*
X138421382Y-127051735D01*
X139278525Y-126385069D02*
X138802335Y-126385069D01*
X138802335Y-126385069D02*
X138754716Y-126861259D01*
X138754716Y-126861259D02*
X138802335Y-126813640D01*
X138802335Y-126813640D02*
X138897573Y-126766021D01*
X138897573Y-126766021D02*
X139135668Y-126766021D01*
X139135668Y-126766021D02*
X139230906Y-126813640D01*
X139230906Y-126813640D02*
X139278525Y-126861259D01*
X139278525Y-126861259D02*
X139326144Y-126956497D01*
X139326144Y-126956497D02*
X139326144Y-127194592D01*
X139326144Y-127194592D02*
X139278525Y-127289830D01*
X139278525Y-127289830D02*
X139230906Y-127337450D01*
X139230906Y-127337450D02*
X139135668Y-127385069D01*
X139135668Y-127385069D02*
X138897573Y-127385069D01*
X138897573Y-127385069D02*
X138802335Y-127337450D01*
X138802335Y-127337450D02*
X138754716Y-127289830D01*
X133798080Y-103512857D02*
X133845700Y-103560476D01*
X133845700Y-103560476D02*
X133893319Y-103703333D01*
X133893319Y-103703333D02*
X133893319Y-103798571D01*
X133893319Y-103798571D02*
X133845700Y-103941428D01*
X133845700Y-103941428D02*
X133750461Y-104036666D01*
X133750461Y-104036666D02*
X133655223Y-104084285D01*
X133655223Y-104084285D02*
X133464747Y-104131904D01*
X133464747Y-104131904D02*
X133321890Y-104131904D01*
X133321890Y-104131904D02*
X133131414Y-104084285D01*
X133131414Y-104084285D02*
X133036176Y-104036666D01*
X133036176Y-104036666D02*
X132940938Y-103941428D01*
X132940938Y-103941428D02*
X132893319Y-103798571D01*
X132893319Y-103798571D02*
X132893319Y-103703333D01*
X132893319Y-103703333D02*
X132940938Y-103560476D01*
X132940938Y-103560476D02*
X132988557Y-103512857D01*
X133893319Y-102560476D02*
X133893319Y-103131904D01*
X133893319Y-102846190D02*
X132893319Y-102846190D01*
X132893319Y-102846190D02*
X133036176Y-102941428D01*
X133036176Y-102941428D02*
X133131414Y-103036666D01*
X133131414Y-103036666D02*
X133179033Y-103131904D01*
X132893319Y-102227142D02*
X132893319Y-101560476D01*
X132893319Y-101560476D02*
X133893319Y-101989047D01*
X166967059Y-107093666D02*
X166490868Y-107426999D01*
X166967059Y-107665094D02*
X165967059Y-107665094D01*
X165967059Y-107665094D02*
X165967059Y-107284142D01*
X165967059Y-107284142D02*
X166014678Y-107188904D01*
X166014678Y-107188904D02*
X166062297Y-107141285D01*
X166062297Y-107141285D02*
X166157535Y-107093666D01*
X166157535Y-107093666D02*
X166300392Y-107093666D01*
X166300392Y-107093666D02*
X166395630Y-107141285D01*
X166395630Y-107141285D02*
X166443249Y-107188904D01*
X166443249Y-107188904D02*
X166490868Y-107284142D01*
X166490868Y-107284142D02*
X166490868Y-107665094D01*
X166062297Y-106712713D02*
X166014678Y-106665094D01*
X166014678Y-106665094D02*
X165967059Y-106569856D01*
X165967059Y-106569856D02*
X165967059Y-106331761D01*
X165967059Y-106331761D02*
X166014678Y-106236523D01*
X166014678Y-106236523D02*
X166062297Y-106188904D01*
X166062297Y-106188904D02*
X166157535Y-106141285D01*
X166157535Y-106141285D02*
X166252773Y-106141285D01*
X166252773Y-106141285D02*
X166395630Y-106188904D01*
X166395630Y-106188904D02*
X166967059Y-106760332D01*
X166967059Y-106760332D02*
X166967059Y-106141285D01*
X136485333Y-90148580D02*
X136437714Y-90196200D01*
X136437714Y-90196200D02*
X136294857Y-90243819D01*
X136294857Y-90243819D02*
X136199619Y-90243819D01*
X136199619Y-90243819D02*
X136056762Y-90196200D01*
X136056762Y-90196200D02*
X135961524Y-90100961D01*
X135961524Y-90100961D02*
X135913905Y-90005723D01*
X135913905Y-90005723D02*
X135866286Y-89815247D01*
X135866286Y-89815247D02*
X135866286Y-89672390D01*
X135866286Y-89672390D02*
X135913905Y-89481914D01*
X135913905Y-89481914D02*
X135961524Y-89386676D01*
X135961524Y-89386676D02*
X136056762Y-89291438D01*
X136056762Y-89291438D02*
X136199619Y-89243819D01*
X136199619Y-89243819D02*
X136294857Y-89243819D01*
X136294857Y-89243819D02*
X136437714Y-89291438D01*
X136437714Y-89291438D02*
X136485333Y-89339057D01*
X137437714Y-90243819D02*
X136866286Y-90243819D01*
X137152000Y-90243819D02*
X137152000Y-89243819D01*
X137152000Y-89243819D02*
X137056762Y-89386676D01*
X137056762Y-89386676D02*
X136961524Y-89481914D01*
X136961524Y-89481914D02*
X136866286Y-89529533D01*
X162972761Y-57446057D02*
X162877523Y-57398438D01*
X162877523Y-57398438D02*
X162782285Y-57303200D01*
X162782285Y-57303200D02*
X162639428Y-57160342D01*
X162639428Y-57160342D02*
X162544190Y-57112723D01*
X162544190Y-57112723D02*
X162448952Y-57112723D01*
X162496571Y-57350819D02*
X162401333Y-57303200D01*
X162401333Y-57303200D02*
X162306095Y-57207961D01*
X162306095Y-57207961D02*
X162258476Y-57017485D01*
X162258476Y-57017485D02*
X162258476Y-56684152D01*
X162258476Y-56684152D02*
X162306095Y-56493676D01*
X162306095Y-56493676D02*
X162401333Y-56398438D01*
X162401333Y-56398438D02*
X162496571Y-56350819D01*
X162496571Y-56350819D02*
X162687047Y-56350819D01*
X162687047Y-56350819D02*
X162782285Y-56398438D01*
X162782285Y-56398438D02*
X162877523Y-56493676D01*
X162877523Y-56493676D02*
X162925142Y-56684152D01*
X162925142Y-56684152D02*
X162925142Y-57017485D01*
X162925142Y-57017485D02*
X162877523Y-57207961D01*
X162877523Y-57207961D02*
X162782285Y-57303200D01*
X162782285Y-57303200D02*
X162687047Y-57350819D01*
X162687047Y-57350819D02*
X162496571Y-57350819D01*
X163306095Y-56446057D02*
X163353714Y-56398438D01*
X163353714Y-56398438D02*
X163448952Y-56350819D01*
X163448952Y-56350819D02*
X163687047Y-56350819D01*
X163687047Y-56350819D02*
X163782285Y-56398438D01*
X163782285Y-56398438D02*
X163829904Y-56446057D01*
X163829904Y-56446057D02*
X163877523Y-56541295D01*
X163877523Y-56541295D02*
X163877523Y-56636533D01*
X163877523Y-56636533D02*
X163829904Y-56779390D01*
X163829904Y-56779390D02*
X163258476Y-57350819D01*
X163258476Y-57350819D02*
X163877523Y-57350819D01*
X139805580Y-110624857D02*
X139853200Y-110672476D01*
X139853200Y-110672476D02*
X139900819Y-110815333D01*
X139900819Y-110815333D02*
X139900819Y-110910571D01*
X139900819Y-110910571D02*
X139853200Y-111053428D01*
X139853200Y-111053428D02*
X139757961Y-111148666D01*
X139757961Y-111148666D02*
X139662723Y-111196285D01*
X139662723Y-111196285D02*
X139472247Y-111243904D01*
X139472247Y-111243904D02*
X139329390Y-111243904D01*
X139329390Y-111243904D02*
X139138914Y-111196285D01*
X139138914Y-111196285D02*
X139043676Y-111148666D01*
X139043676Y-111148666D02*
X138948438Y-111053428D01*
X138948438Y-111053428D02*
X138900819Y-110910571D01*
X138900819Y-110910571D02*
X138900819Y-110815333D01*
X138900819Y-110815333D02*
X138948438Y-110672476D01*
X138948438Y-110672476D02*
X138996057Y-110624857D01*
X138900819Y-110291523D02*
X138900819Y-109672476D01*
X138900819Y-109672476D02*
X139281771Y-110005809D01*
X139281771Y-110005809D02*
X139281771Y-109862952D01*
X139281771Y-109862952D02*
X139329390Y-109767714D01*
X139329390Y-109767714D02*
X139377009Y-109720095D01*
X139377009Y-109720095D02*
X139472247Y-109672476D01*
X139472247Y-109672476D02*
X139710342Y-109672476D01*
X139710342Y-109672476D02*
X139805580Y-109720095D01*
X139805580Y-109720095D02*
X139853200Y-109767714D01*
X139853200Y-109767714D02*
X139900819Y-109862952D01*
X139900819Y-109862952D02*
X139900819Y-110148666D01*
X139900819Y-110148666D02*
X139853200Y-110243904D01*
X139853200Y-110243904D02*
X139805580Y-110291523D01*
X138900819Y-108815333D02*
X138900819Y-109005809D01*
X138900819Y-109005809D02*
X138948438Y-109101047D01*
X138948438Y-109101047D02*
X138996057Y-109148666D01*
X138996057Y-109148666D02*
X139138914Y-109243904D01*
X139138914Y-109243904D02*
X139329390Y-109291523D01*
X139329390Y-109291523D02*
X139710342Y-109291523D01*
X139710342Y-109291523D02*
X139805580Y-109243904D01*
X139805580Y-109243904D02*
X139853200Y-109196285D01*
X139853200Y-109196285D02*
X139900819Y-109101047D01*
X139900819Y-109101047D02*
X139900819Y-108910571D01*
X139900819Y-108910571D02*
X139853200Y-108815333D01*
X139853200Y-108815333D02*
X139805580Y-108767714D01*
X139805580Y-108767714D02*
X139710342Y-108720095D01*
X139710342Y-108720095D02*
X139472247Y-108720095D01*
X139472247Y-108720095D02*
X139377009Y-108767714D01*
X139377009Y-108767714D02*
X139329390Y-108815333D01*
X139329390Y-108815333D02*
X139281771Y-108910571D01*
X139281771Y-108910571D02*
X139281771Y-109101047D01*
X139281771Y-109101047D02*
X139329390Y-109196285D01*
X139329390Y-109196285D02*
X139377009Y-109243904D01*
X139377009Y-109243904D02*
X139472247Y-109291523D01*
X158665057Y-82137238D02*
X158617438Y-82232476D01*
X158617438Y-82232476D02*
X158522200Y-82327714D01*
X158522200Y-82327714D02*
X158379342Y-82470571D01*
X158379342Y-82470571D02*
X158331723Y-82565809D01*
X158331723Y-82565809D02*
X158331723Y-82661047D01*
X158569819Y-82613428D02*
X158522200Y-82708666D01*
X158522200Y-82708666D02*
X158426961Y-82803904D01*
X158426961Y-82803904D02*
X158236485Y-82851523D01*
X158236485Y-82851523D02*
X157903152Y-82851523D01*
X157903152Y-82851523D02*
X157712676Y-82803904D01*
X157712676Y-82803904D02*
X157617438Y-82708666D01*
X157617438Y-82708666D02*
X157569819Y-82613428D01*
X157569819Y-82613428D02*
X157569819Y-82422952D01*
X157569819Y-82422952D02*
X157617438Y-82327714D01*
X157617438Y-82327714D02*
X157712676Y-82232476D01*
X157712676Y-82232476D02*
X157903152Y-82184857D01*
X157903152Y-82184857D02*
X158236485Y-82184857D01*
X158236485Y-82184857D02*
X158426961Y-82232476D01*
X158426961Y-82232476D02*
X158522200Y-82327714D01*
X158522200Y-82327714D02*
X158569819Y-82422952D01*
X158569819Y-82422952D02*
X158569819Y-82613428D01*
X158569819Y-81232476D02*
X158569819Y-81803904D01*
X158569819Y-81518190D02*
X157569819Y-81518190D01*
X157569819Y-81518190D02*
X157712676Y-81613428D01*
X157712676Y-81613428D02*
X157807914Y-81708666D01*
X157807914Y-81708666D02*
X157855533Y-81803904D01*
X155045580Y-72524857D02*
X155093200Y-72572476D01*
X155093200Y-72572476D02*
X155140819Y-72715333D01*
X155140819Y-72715333D02*
X155140819Y-72810571D01*
X155140819Y-72810571D02*
X155093200Y-72953428D01*
X155093200Y-72953428D02*
X154997961Y-73048666D01*
X154997961Y-73048666D02*
X154902723Y-73096285D01*
X154902723Y-73096285D02*
X154712247Y-73143904D01*
X154712247Y-73143904D02*
X154569390Y-73143904D01*
X154569390Y-73143904D02*
X154378914Y-73096285D01*
X154378914Y-73096285D02*
X154283676Y-73048666D01*
X154283676Y-73048666D02*
X154188438Y-72953428D01*
X154188438Y-72953428D02*
X154140819Y-72810571D01*
X154140819Y-72810571D02*
X154140819Y-72715333D01*
X154140819Y-72715333D02*
X154188438Y-72572476D01*
X154188438Y-72572476D02*
X154236057Y-72524857D01*
X154474152Y-71667714D02*
X155140819Y-71667714D01*
X154093200Y-71905809D02*
X154807485Y-72143904D01*
X154807485Y-72143904D02*
X154807485Y-71524857D01*
X154569390Y-71001047D02*
X154521771Y-71096285D01*
X154521771Y-71096285D02*
X154474152Y-71143904D01*
X154474152Y-71143904D02*
X154378914Y-71191523D01*
X154378914Y-71191523D02*
X154331295Y-71191523D01*
X154331295Y-71191523D02*
X154236057Y-71143904D01*
X154236057Y-71143904D02*
X154188438Y-71096285D01*
X154188438Y-71096285D02*
X154140819Y-71001047D01*
X154140819Y-71001047D02*
X154140819Y-70810571D01*
X154140819Y-70810571D02*
X154188438Y-70715333D01*
X154188438Y-70715333D02*
X154236057Y-70667714D01*
X154236057Y-70667714D02*
X154331295Y-70620095D01*
X154331295Y-70620095D02*
X154378914Y-70620095D01*
X154378914Y-70620095D02*
X154474152Y-70667714D01*
X154474152Y-70667714D02*
X154521771Y-70715333D01*
X154521771Y-70715333D02*
X154569390Y-70810571D01*
X154569390Y-70810571D02*
X154569390Y-71001047D01*
X154569390Y-71001047D02*
X154617009Y-71096285D01*
X154617009Y-71096285D02*
X154664628Y-71143904D01*
X154664628Y-71143904D02*
X154759866Y-71191523D01*
X154759866Y-71191523D02*
X154950342Y-71191523D01*
X154950342Y-71191523D02*
X155045580Y-71143904D01*
X155045580Y-71143904D02*
X155093200Y-71096285D01*
X155093200Y-71096285D02*
X155140819Y-71001047D01*
X155140819Y-71001047D02*
X155140819Y-70810571D01*
X155140819Y-70810571D02*
X155093200Y-70715333D01*
X155093200Y-70715333D02*
X155045580Y-70667714D01*
X155045580Y-70667714D02*
X154950342Y-70620095D01*
X154950342Y-70620095D02*
X154759866Y-70620095D01*
X154759866Y-70620095D02*
X154664628Y-70667714D01*
X154664628Y-70667714D02*
X154617009Y-70715333D01*
X154617009Y-70715333D02*
X154569390Y-70810571D01*
X151616580Y-103512857D02*
X151664200Y-103560476D01*
X151664200Y-103560476D02*
X151711819Y-103703333D01*
X151711819Y-103703333D02*
X151711819Y-103798571D01*
X151711819Y-103798571D02*
X151664200Y-103941428D01*
X151664200Y-103941428D02*
X151568961Y-104036666D01*
X151568961Y-104036666D02*
X151473723Y-104084285D01*
X151473723Y-104084285D02*
X151283247Y-104131904D01*
X151283247Y-104131904D02*
X151140390Y-104131904D01*
X151140390Y-104131904D02*
X150949914Y-104084285D01*
X150949914Y-104084285D02*
X150854676Y-104036666D01*
X150854676Y-104036666D02*
X150759438Y-103941428D01*
X150759438Y-103941428D02*
X150711819Y-103798571D01*
X150711819Y-103798571D02*
X150711819Y-103703333D01*
X150711819Y-103703333D02*
X150759438Y-103560476D01*
X150759438Y-103560476D02*
X150807057Y-103512857D01*
X150711819Y-103179523D02*
X150711819Y-102560476D01*
X150711819Y-102560476D02*
X151092771Y-102893809D01*
X151092771Y-102893809D02*
X151092771Y-102750952D01*
X151092771Y-102750952D02*
X151140390Y-102655714D01*
X151140390Y-102655714D02*
X151188009Y-102608095D01*
X151188009Y-102608095D02*
X151283247Y-102560476D01*
X151283247Y-102560476D02*
X151521342Y-102560476D01*
X151521342Y-102560476D02*
X151616580Y-102608095D01*
X151616580Y-102608095D02*
X151664200Y-102655714D01*
X151664200Y-102655714D02*
X151711819Y-102750952D01*
X151711819Y-102750952D02*
X151711819Y-103036666D01*
X151711819Y-103036666D02*
X151664200Y-103131904D01*
X151664200Y-103131904D02*
X151616580Y-103179523D01*
X150711819Y-101941428D02*
X150711819Y-101846190D01*
X150711819Y-101846190D02*
X150759438Y-101750952D01*
X150759438Y-101750952D02*
X150807057Y-101703333D01*
X150807057Y-101703333D02*
X150902295Y-101655714D01*
X150902295Y-101655714D02*
X151092771Y-101608095D01*
X151092771Y-101608095D02*
X151330866Y-101608095D01*
X151330866Y-101608095D02*
X151521342Y-101655714D01*
X151521342Y-101655714D02*
X151616580Y-101703333D01*
X151616580Y-101703333D02*
X151664200Y-101750952D01*
X151664200Y-101750952D02*
X151711819Y-101846190D01*
X151711819Y-101846190D02*
X151711819Y-101941428D01*
X151711819Y-101941428D02*
X151664200Y-102036666D01*
X151664200Y-102036666D02*
X151616580Y-102084285D01*
X151616580Y-102084285D02*
X151521342Y-102131904D01*
X151521342Y-102131904D02*
X151330866Y-102179523D01*
X151330866Y-102179523D02*
X151092771Y-102179523D01*
X151092771Y-102179523D02*
X150902295Y-102131904D01*
X150902295Y-102131904D02*
X150807057Y-102084285D01*
X150807057Y-102084285D02*
X150759438Y-102036666D01*
X150759438Y-102036666D02*
X150711819Y-101941428D01*
X133671080Y-107068857D02*
X133718700Y-107116476D01*
X133718700Y-107116476D02*
X133766319Y-107259333D01*
X133766319Y-107259333D02*
X133766319Y-107354571D01*
X133766319Y-107354571D02*
X133718700Y-107497428D01*
X133718700Y-107497428D02*
X133623461Y-107592666D01*
X133623461Y-107592666D02*
X133528223Y-107640285D01*
X133528223Y-107640285D02*
X133337747Y-107687904D01*
X133337747Y-107687904D02*
X133194890Y-107687904D01*
X133194890Y-107687904D02*
X133004414Y-107640285D01*
X133004414Y-107640285D02*
X132909176Y-107592666D01*
X132909176Y-107592666D02*
X132813938Y-107497428D01*
X132813938Y-107497428D02*
X132766319Y-107354571D01*
X132766319Y-107354571D02*
X132766319Y-107259333D01*
X132766319Y-107259333D02*
X132813938Y-107116476D01*
X132813938Y-107116476D02*
X132861557Y-107068857D01*
X133766319Y-106116476D02*
X133766319Y-106687904D01*
X133766319Y-106402190D02*
X132766319Y-106402190D01*
X132766319Y-106402190D02*
X132909176Y-106497428D01*
X132909176Y-106497428D02*
X133004414Y-106592666D01*
X133004414Y-106592666D02*
X133052033Y-106687904D01*
X133766319Y-105164095D02*
X133766319Y-105735523D01*
X133766319Y-105449809D02*
X132766319Y-105449809D01*
X132766319Y-105449809D02*
X132909176Y-105545047D01*
X132909176Y-105545047D02*
X133004414Y-105640285D01*
X133004414Y-105640285D02*
X133052033Y-105735523D01*
D12*
%TO.C,C14*%
X135940748Y-108622000D02*
X137363252Y-108622000D01*
X135940748Y-111342000D02*
X137363252Y-111342000D01*
%TO.C,R5*%
X124477500Y-78495276D02*
X124477500Y-79004724D01*
X125522500Y-78495276D02*
X125522500Y-79004724D01*
%TO.C,C4*%
X141528748Y-90842000D02*
X142951252Y-90842000D01*
X141528748Y-93562000D02*
X142951252Y-93562000D01*
%TO.C,R9*%
X163857000Y-120803936D02*
X163857000Y-121258064D01*
X165327000Y-120803936D02*
X165327000Y-121258064D01*
%TO.C,R7*%
X136877500Y-60854724D02*
X136877500Y-60345276D01*
X137922500Y-60854724D02*
X137922500Y-60345276D01*
%TO.C,C39*%
X142912752Y-101510000D02*
X141490248Y-101510000D01*
X142912752Y-104230000D02*
X141490248Y-104230000D01*
%TO.C,R3*%
X173975500Y-85852724D02*
X173975500Y-85343276D01*
X175020500Y-85852724D02*
X175020500Y-85343276D01*
%TO.C,C26*%
X147332248Y-112178000D02*
X148754752Y-112178000D01*
X147332248Y-114898000D02*
X148754752Y-114898000D01*
%TO.C,C9*%
X148793252Y-90842000D02*
X147370748Y-90842000D01*
X148793252Y-93562000D02*
X147370748Y-93562000D01*
D13*
%TO.C,Q6*%
X135463500Y-74546000D02*
X136138500Y-74546000D01*
X136138500Y-64646000D02*
X135463500Y-64646000D01*
X136138500Y-74546000D02*
X136138500Y-64646000D01*
X140163500Y-73796000D02*
X140163500Y-73796000D01*
X140163500Y-73796000D02*
X140263500Y-73796000D01*
X140263500Y-73796000D02*
X140263500Y-73796000D01*
X140163500Y-73796000D02*
G75*
G02*
X140263500Y-73796000I50000J0D01*
G01*
X140263500Y-73796000D02*
G75*
G02*
X140163500Y-73796000I-50000J0D01*
G01*
D12*
%TO.C,C50*%
X143616000Y-76657252D02*
X143616000Y-75234748D01*
X145436000Y-76657252D02*
X145436000Y-75234748D01*
%TO.C,C25*%
X147332248Y-108622000D02*
X148754752Y-108622000D01*
X147332248Y-111342000D02*
X148754752Y-111342000D01*
%TO.C,C21*%
X148793252Y-97954000D02*
X147370748Y-97954000D01*
X148793252Y-100674000D02*
X147370748Y-100674000D01*
%TO.C,C51*%
X156316000Y-76657252D02*
X156316000Y-75234748D01*
X158136000Y-76657252D02*
X158136000Y-75234748D01*
%TO.C,TH3*%
X127761276Y-75423500D02*
X128270724Y-75423500D01*
X127761276Y-76468500D02*
X128270724Y-76468500D01*
D13*
%TO.C,Q7*%
X152037240Y-104686000D02*
X152037240Y-105361000D01*
X161187240Y-100561000D02*
X161187240Y-100561000D01*
X161187240Y-100661000D02*
X161187240Y-100561000D01*
X161187240Y-100661000D02*
X161187240Y-100661000D01*
X161937240Y-104686000D02*
X152037240Y-104686000D01*
X161937240Y-105361000D02*
X161937240Y-104686000D01*
X161187240Y-100561000D02*
G75*
G02*
X161187240Y-100661000I0J-50000D01*
G01*
X161187240Y-100661000D02*
G75*
G02*
X161187240Y-100561000I0J50000D01*
G01*
D12*
%TO.C,C3*%
X142912752Y-112178000D02*
X141490248Y-112178000D01*
X142912752Y-114898000D02*
X141490248Y-114898000D01*
%TO.C,J7*%
X157499000Y-90226000D02*
X157784000Y-90226000D01*
X157499000Y-92146000D02*
X157499000Y-90226000D01*
X157499000Y-92146000D02*
X159054000Y-92146000D01*
X157784000Y-90226000D02*
X157784000Y-88996000D01*
X158954000Y-90226000D02*
X160324000Y-90226000D01*
X160224000Y-92146000D02*
X161594000Y-92146000D01*
X161494000Y-90226000D02*
X162864000Y-90226000D01*
X162764000Y-92146000D02*
X164134000Y-92146000D01*
X164034000Y-90226000D02*
X165404000Y-90226000D01*
X165304000Y-92146000D02*
X166674000Y-92146000D01*
X166574000Y-90226000D02*
X167944000Y-90226000D01*
X167844000Y-92146000D02*
X169214000Y-92146000D01*
X169114000Y-90226000D02*
X170669000Y-90226000D01*
X170384000Y-92146000D02*
X170669000Y-92146000D01*
X170669000Y-92146000D02*
X170669000Y-90226000D01*
D13*
%TO.C,Q3*%
X125928500Y-77842000D02*
X125928500Y-77842000D01*
X126028500Y-77842000D02*
X125928500Y-77842000D01*
X126028500Y-77842000D02*
X126028500Y-77842000D01*
X130053500Y-77092000D02*
X130053500Y-86992000D01*
X130053500Y-86992000D02*
X130728500Y-86992000D01*
X130728500Y-77092000D02*
X130053500Y-77092000D01*
X125928500Y-77842000D02*
G75*
G02*
X126028500Y-77842000I50000J0D01*
G01*
X126028500Y-77842000D02*
G75*
G02*
X125928500Y-77842000I-50000J0D01*
G01*
D12*
%TO.C,C27*%
X141528748Y-94398000D02*
X142951252Y-94398000D01*
X141528748Y-97118000D02*
X142951252Y-97118000D01*
%TO.C,C47*%
X141076000Y-76657252D02*
X141076000Y-75234748D01*
X142896000Y-76657252D02*
X142896000Y-75234748D01*
%TO.C,TH1*%
X149083500Y-52324724D02*
X149083500Y-51815276D01*
X150128500Y-52324724D02*
X150128500Y-51815276D01*
%TO.C,C42*%
X137363252Y-94398000D02*
X135940748Y-94398000D01*
X137363252Y-97118000D02*
X135940748Y-97118000D01*
%TO.C,C44*%
X158177240Y-117218250D02*
X159541240Y-117218250D01*
X158177240Y-124958250D02*
X158177240Y-117218250D01*
X158177240Y-124958250D02*
X159541240Y-124958250D01*
X162053240Y-117218250D02*
X163417240Y-117218250D01*
X162053240Y-124958250D02*
X163417240Y-124958250D01*
X163417240Y-124958250D02*
X163417240Y-117218250D01*
%TO.C,C46*%
X150317252Y-63606000D02*
X148894748Y-63606000D01*
X150317252Y-65426000D02*
X148894748Y-65426000D01*
%TO.C,C29*%
X135902248Y-112178000D02*
X137324752Y-112178000D01*
X135902248Y-114898000D02*
X137324752Y-114898000D01*
%TO.C,R10*%
X133377000Y-121258064D02*
X133377000Y-120803936D01*
X134847000Y-121258064D02*
X134847000Y-120803936D01*
%TO.C,C34*%
X142912752Y-105066000D02*
X141490248Y-105066000D01*
X142912752Y-107786000D02*
X141490248Y-107786000D01*
%TO.C,R4*%
X162418500Y-50800724D02*
X162418500Y-50291276D01*
X163463500Y-50800724D02*
X163463500Y-50291276D01*
%TO.C,J17*%
X177936000Y-65551000D02*
X177936000Y-67106000D01*
X177936000Y-65551000D02*
X179856000Y-65551000D01*
X177936000Y-68276000D02*
X177936000Y-69646000D01*
X177936000Y-70816000D02*
X177936000Y-72186000D01*
X177936000Y-73356000D02*
X177936000Y-74726000D01*
X177936000Y-75896000D02*
X177936000Y-77266000D01*
X177936000Y-78436000D02*
X177936000Y-78721000D01*
X177936000Y-78721000D02*
X179856000Y-78721000D01*
X179856000Y-65551000D02*
X179856000Y-65836000D01*
X179856000Y-65836000D02*
X181086000Y-65836000D01*
X179856000Y-67006000D02*
X179856000Y-68376000D01*
X179856000Y-69546000D02*
X179856000Y-70916000D01*
X179856000Y-72086000D02*
X179856000Y-73456000D01*
X179856000Y-74626000D02*
X179856000Y-75996000D01*
X179856000Y-77166000D02*
X179856000Y-78721000D01*
%TO.C,R1*%
X146920936Y-83888000D02*
X151275064Y-83888000D01*
X146920936Y-87308000D02*
X151275064Y-87308000D01*
%TO.C,C13*%
X137311752Y-97915500D02*
X135889248Y-97915500D01*
X137311752Y-100635500D02*
X135889248Y-100635500D01*
%TO.C,R8*%
X138454724Y-74977500D02*
X137945276Y-74977500D01*
X138454724Y-76022500D02*
X137945276Y-76022500D01*
D13*
%TO.C,Q5*%
X138306000Y-58025000D02*
X138306000Y-58700000D01*
X138306000Y-58700000D02*
X148206000Y-58700000D01*
X139056000Y-62725000D02*
X139056000Y-62725000D01*
X139056000Y-62725000D02*
X139056000Y-62825000D01*
X139056000Y-62825000D02*
X139056000Y-62825000D01*
X148206000Y-58700000D02*
X148206000Y-58025000D01*
X139056000Y-62725000D02*
G75*
G02*
X139056000Y-62825000I0J-50000D01*
G01*
X139056000Y-62825000D02*
G75*
G02*
X139056000Y-62725000I0J50000D01*
G01*
D12*
%TO.C,R6*%
X160908276Y-63358500D02*
X161417724Y-63358500D01*
X160908276Y-64403500D02*
X161417724Y-64403500D01*
%TO.C,C38*%
X141528748Y-97954000D02*
X142951252Y-97954000D01*
X141528748Y-100674000D02*
X142951252Y-100674000D01*
%TO.C,C49*%
X150317252Y-66146000D02*
X148894748Y-66146000D01*
X150317252Y-67966000D02*
X148894748Y-67966000D01*
%TO.C,C8*%
X148793252Y-94398000D02*
X147370748Y-94398000D01*
X148793252Y-97118000D02*
X147370748Y-97118000D01*
D13*
%TO.C,Q4*%
X158981000Y-65488000D02*
X158981000Y-65488000D01*
X159081000Y-65488000D02*
X158981000Y-65488000D01*
X159081000Y-65488000D02*
X159081000Y-65488000D01*
X163106000Y-64738000D02*
X163106000Y-74638000D01*
X163106000Y-74638000D02*
X163781000Y-74638000D01*
X163781000Y-64738000D02*
X163106000Y-64738000D01*
X158981000Y-65488000D02*
G75*
G02*
X159081000Y-65488000I50000J0D01*
G01*
X159081000Y-65488000D02*
G75*
G02*
X158981000Y-65488000I-50000J0D01*
G01*
D12*
%TO.C,D1*%
X163607240Y-104587000D02*
X163607240Y-100577000D01*
X163607240Y-104587000D02*
X165607240Y-104587000D01*
X165607240Y-104587000D02*
X165607240Y-100577000D01*
%TO.C,C10*%
X147332248Y-105066000D02*
X148754752Y-105066000D01*
X147332248Y-107786000D02*
X148754752Y-107786000D01*
%TO.C,TH2*%
X171450724Y-75423500D02*
X170941276Y-75423500D01*
X171450724Y-76468500D02*
X170941276Y-76468500D01*
%TO.C,J18*%
X119182000Y-65551000D02*
X119182000Y-67106000D01*
X119182000Y-65551000D02*
X121102000Y-65551000D01*
X119182000Y-68276000D02*
X119182000Y-69646000D01*
X119182000Y-70816000D02*
X119182000Y-72186000D01*
X119182000Y-73356000D02*
X119182000Y-74726000D01*
X119182000Y-75896000D02*
X119182000Y-77266000D01*
X119182000Y-78436000D02*
X119182000Y-78721000D01*
X119182000Y-78721000D02*
X121102000Y-78721000D01*
X121102000Y-65551000D02*
X121102000Y-65836000D01*
X121102000Y-65836000D02*
X122332000Y-65836000D01*
X121102000Y-67006000D02*
X121102000Y-68376000D01*
X121102000Y-69546000D02*
X121102000Y-70916000D01*
X121102000Y-72086000D02*
X121102000Y-73456000D01*
X121102000Y-74626000D02*
X121102000Y-75996000D01*
X121102000Y-77166000D02*
X121102000Y-78721000D01*
%TO.C,C45*%
X135317240Y-117218250D02*
X135317240Y-124958250D01*
X136681240Y-117218250D02*
X135317240Y-117218250D01*
X136681240Y-124958250D02*
X135317240Y-124958250D01*
X140557240Y-117218250D02*
X139193240Y-117218250D01*
X140557240Y-117218250D02*
X140557240Y-124958250D01*
X140557240Y-124958250D02*
X139193240Y-124958250D01*
%TO.C,C17*%
X135940748Y-101510000D02*
X137363252Y-101510000D01*
X135940748Y-104230000D02*
X137363252Y-104230000D01*
%TO.C,R2*%
X163872240Y-106699936D02*
X163872240Y-107154064D01*
X165342240Y-106699936D02*
X165342240Y-107154064D01*
%TO.C,C1*%
X137363252Y-90842000D02*
X135940748Y-90842000D01*
X137363252Y-93562000D02*
X135940748Y-93562000D01*
D13*
%TO.C,Q2*%
X151006000Y-52583500D02*
X151006000Y-53258500D01*
X160156000Y-48458500D02*
X160156000Y-48458500D01*
X160156000Y-48558500D02*
X160156000Y-48458500D01*
X160156000Y-48558500D02*
X160156000Y-48558500D01*
X160906000Y-52583500D02*
X151006000Y-52583500D01*
X160906000Y-53258500D02*
X160906000Y-52583500D01*
X160156000Y-48458500D02*
G75*
G02*
X160156000Y-48558500I0J-50000D01*
G01*
X160156000Y-48558500D02*
G75*
G02*
X160156000Y-48458500I0J50000D01*
G01*
D12*
%TO.C,C36*%
X142912752Y-108622000D02*
X141490248Y-108622000D01*
X142912752Y-111342000D02*
X141490248Y-111342000D01*
D13*
%TO.C,Q1*%
X168446000Y-86992000D02*
X169121000Y-86992000D01*
X169121000Y-77092000D02*
X168446000Y-77092000D01*
X169121000Y-86992000D02*
X169121000Y-77092000D01*
X173146000Y-86242000D02*
X173146000Y-86242000D01*
X173146000Y-86242000D02*
X173246000Y-86242000D01*
X173246000Y-86242000D02*
X173246000Y-86242000D01*
X173146000Y-86242000D02*
G75*
G02*
X173246000Y-86242000I50000J0D01*
G01*
X173246000Y-86242000D02*
G75*
G02*
X173146000Y-86242000I-50000J0D01*
G01*
D12*
%TO.C,C48*%
X153776000Y-76657252D02*
X153776000Y-75234748D01*
X155596000Y-76657252D02*
X155596000Y-75234748D01*
%TO.C,C30*%
X147332248Y-101510000D02*
X148754752Y-101510000D01*
X147332248Y-104230000D02*
X148754752Y-104230000D01*
%TO.C,C11*%
X135940748Y-105066000D02*
X137363252Y-105066000D01*
X135940748Y-107786000D02*
X137363252Y-107786000D01*
%TD*%
M02*
