%TF.GenerationSoftware,KiCad,Pcbnew,8.0.3-8.0.3-0~ubuntu23.10.1*%
%TF.CreationDate,2024-10-02T12:23:49+03:00*%
%TF.ProjectId,_______ _____,21383b3e-3230-44f2-903f-3b3042302e6b,rev?*%
%TF.SameCoordinates,Original*%
%TF.FileFunction,Copper,L4,Inr*%
%TF.FilePolarity,Positive*%
%FSLAX46Y46*%
G04 Gerber Fmt 4.6, Leading zero omitted, Abs format (unit mm)*
G04 Created by KiCad (PCBNEW 8.0.3-8.0.3-0~ubuntu23.10.1) date 2024-10-02 12:23:49*
%MOMM*%
%LPD*%
G01*
G04 APERTURE LIST*
%TA.AperFunction,ComponentPad*%
%ADD10C,5.000000*%
%TD*%
%TA.AperFunction,ComponentPad*%
%ADD11C,8.200000*%
%TD*%
%TA.AperFunction,ComponentPad*%
%ADD12C,6.000000*%
%TD*%
%TA.AperFunction,ComponentPad*%
%ADD13C,2.000000*%
%TD*%
%TA.AperFunction,ViaPad*%
%ADD14C,0.800000*%
%TD*%
G04 APERTURE END LIST*
D10*
%TO.N,Earth_Protective*%
%TO.C,J8*%
X132222240Y-124898250D03*
%TD*%
D11*
%TO.N,C*%
%TO.C,J4*%
X127142240Y-58223250D03*
%TD*%
%TO.N,A*%
%TO.C,J1*%
X171592240Y-58223250D03*
%TD*%
D10*
%TO.N,Earth_Protective*%
%TO.C,J2*%
X167147240Y-124898250D03*
%TD*%
D12*
%TO.N,Shunt+*%
%TO.C,J6*%
X144287240Y-119483250D03*
%TD*%
D11*
%TO.N,B*%
%TO.C,J3*%
X149367240Y-43618250D03*
%TD*%
D13*
%TO.N,Earth_Protective*%
%TO.C,C44*%
X160797240Y-124838250D03*
%TO.N,Net-(J5-Pin_1)*%
X160797240Y-117338250D03*
%TD*%
D12*
%TO.N,Net-(J5-Pin_1)*%
%TO.C,J5*%
X154447240Y-119483250D03*
%TD*%
D13*
%TO.N,Shunt+*%
%TO.C,C45*%
X137937240Y-117338250D03*
%TO.N,Earth_Protective*%
X137937240Y-124838250D03*
%TD*%
D14*
%TO.N,G1*%
X180086000Y-77724000D03*
X173228000Y-86106000D03*
%TO.N,A*%
X173228000Y-78740000D03*
X171831000Y-70866000D03*
X174244000Y-79248000D03*
X174244000Y-78232000D03*
X174244000Y-80264000D03*
X173228000Y-81788000D03*
X173228000Y-84836000D03*
X175260000Y-81788000D03*
X165481000Y-67056000D03*
X168656000Y-68326000D03*
X174244000Y-82296000D03*
X168656000Y-72136000D03*
X176276000Y-80264000D03*
X168656000Y-67056000D03*
X165481000Y-72136000D03*
X168656000Y-70866000D03*
X165481000Y-69596000D03*
X168656000Y-69596000D03*
X175260000Y-80772000D03*
X165481000Y-73406000D03*
X173228000Y-80772000D03*
X171831000Y-65786000D03*
X165481000Y-65786000D03*
X174244000Y-81280000D03*
X175260000Y-78740000D03*
X171831000Y-69596000D03*
X171831000Y-68326000D03*
X176276000Y-81280000D03*
X174244000Y-83312000D03*
X171831000Y-72136000D03*
X171831000Y-73406000D03*
X173228000Y-79756000D03*
X175260000Y-79756000D03*
X171831000Y-67056000D03*
X173228000Y-82804000D03*
X173228000Y-83820000D03*
X165481000Y-70866000D03*
X165481000Y-68326000D03*
X173228000Y-77724000D03*
%TO.N,G2*%
X159131000Y-65532000D03*
X178816000Y-71628000D03*
%TO.N,G3*%
X178816000Y-69088000D03*
X161036000Y-50546000D03*
%TO.N,B*%
X140716000Y-53086000D03*
X157988000Y-48260000D03*
X157988000Y-46736000D03*
X145796000Y-56261000D03*
X153924000Y-46736000D03*
X144526000Y-53086000D03*
X143256000Y-49911000D03*
X141986000Y-49911000D03*
X139446000Y-56261000D03*
X139446000Y-49911000D03*
X141986000Y-53086000D03*
X145796000Y-49911000D03*
X157480000Y-47498000D03*
X141986000Y-56261000D03*
X151892000Y-48260000D03*
X155956000Y-48260000D03*
X154940000Y-48260000D03*
X145796000Y-53086000D03*
X144526000Y-49911000D03*
X158496000Y-47498000D03*
X154432000Y-47498000D03*
X152400000Y-47498000D03*
X152908000Y-46736000D03*
X153416000Y-47498000D03*
X140716000Y-56261000D03*
X152908000Y-48260000D03*
X156972000Y-48260000D03*
X156464000Y-47498000D03*
X143256000Y-56261000D03*
X144526000Y-56261000D03*
X156972000Y-46736000D03*
X159004000Y-48260000D03*
X155448000Y-47498000D03*
X140716000Y-49911000D03*
X143256000Y-53086000D03*
X178816000Y-70358000D03*
X155956000Y-46736000D03*
X147066000Y-56261000D03*
X153924000Y-48260000D03*
X147066000Y-49911000D03*
X154940000Y-46736000D03*
%TO.N,G4*%
X120142000Y-69088000D03*
X139065000Y-62611000D03*
%TO.N,G5*%
X120142000Y-76708000D03*
X125984000Y-77724000D03*
%TO.N,C*%
X133731000Y-70866000D03*
X124968000Y-85598000D03*
X133731000Y-69596000D03*
X125984000Y-83058000D03*
X125984000Y-78994000D03*
X133731000Y-68326000D03*
X123952000Y-80010000D03*
X130556000Y-70866000D03*
X125984000Y-85090000D03*
X130556000Y-68326000D03*
X125984000Y-82042000D03*
X123952000Y-81026000D03*
X123952000Y-86106000D03*
X127381000Y-69596000D03*
X124968000Y-84582000D03*
X127381000Y-68326000D03*
X123952000Y-85090000D03*
X125984000Y-84074000D03*
X127381000Y-72136000D03*
X133731000Y-65786000D03*
X124968000Y-82550000D03*
X127381000Y-65786000D03*
X127381000Y-67056000D03*
X123952000Y-84074000D03*
X123952000Y-83058000D03*
X124968000Y-81534000D03*
X133731000Y-67056000D03*
X133731000Y-72136000D03*
X130556000Y-69596000D03*
X130556000Y-72136000D03*
X124968000Y-83566000D03*
X123952000Y-82042000D03*
X127381000Y-73406000D03*
X133731000Y-73406000D03*
X125984000Y-86106000D03*
X130556000Y-67056000D03*
X125984000Y-80010000D03*
X125984000Y-81026000D03*
X127381000Y-70866000D03*
%TO.N,G6*%
X139954000Y-73787000D03*
X120142000Y-71628000D03*
%TO.N,Shunt+*%
X133604000Y-105410000D03*
X139192000Y-89154000D03*
X142748000Y-90170000D03*
X137160000Y-89154000D03*
X145034000Y-110490000D03*
X135636000Y-90170000D03*
X133604000Y-94234000D03*
X145034000Y-108458000D03*
X145034000Y-112522000D03*
X143764000Y-90170000D03*
X133604000Y-107442000D03*
X143256000Y-89154000D03*
X133604000Y-98298000D03*
X133604000Y-102362000D03*
X133604000Y-93218000D03*
X133604000Y-96266000D03*
X144780000Y-88138000D03*
X133604000Y-91186000D03*
X144272000Y-89154000D03*
X133604000Y-106426000D03*
X145034000Y-100330000D03*
X145034000Y-96266000D03*
X138176000Y-89154000D03*
X140208000Y-89154000D03*
X133604000Y-101346000D03*
X145288000Y-89154000D03*
X145034000Y-92202000D03*
X146304000Y-89154000D03*
X133604000Y-109474000D03*
X133604000Y-108458000D03*
X134112000Y-89154000D03*
X133604000Y-104394000D03*
X145034000Y-114554000D03*
X145034000Y-106426000D03*
X133604000Y-95250000D03*
X145034000Y-91186000D03*
X134620000Y-90170000D03*
X144780000Y-90170000D03*
X136652000Y-90170000D03*
X145034000Y-98298000D03*
X135128000Y-89154000D03*
X133604000Y-99314000D03*
X133604000Y-97282000D03*
X145034000Y-104394000D03*
X142748000Y-88138000D03*
X161036000Y-90932000D03*
X133604000Y-92202000D03*
X164592000Y-108966000D03*
X145034000Y-102362000D03*
X142240000Y-89154000D03*
X145034000Y-94234000D03*
X133604000Y-90170000D03*
X133604000Y-110490000D03*
X145796000Y-88138000D03*
X141224000Y-89154000D03*
X133604000Y-103378000D03*
X141732000Y-88138000D03*
X145796000Y-90170000D03*
X136144000Y-89154000D03*
X133604000Y-100330000D03*
X143764000Y-88138000D03*
%TO.N,Shunt-*%
X149860000Y-79502000D03*
X150876000Y-77470000D03*
X156464000Y-82550000D03*
X155956000Y-58039000D03*
X132715000Y-85598000D03*
X163576000Y-82042000D03*
X152146000Y-61214000D03*
X148844000Y-77470000D03*
X132715000Y-79248000D03*
X154432000Y-80518000D03*
X166751000Y-78232000D03*
X155956000Y-79502000D03*
X152908000Y-77470000D03*
X158496000Y-58039000D03*
X157226000Y-61214000D03*
X149352000Y-82550000D03*
X151384000Y-82550000D03*
X153416000Y-80518000D03*
X160401000Y-78232000D03*
X150876000Y-72263000D03*
X155956000Y-54864000D03*
X148336000Y-78486000D03*
X135890000Y-81788000D03*
X152908000Y-79502000D03*
X163576000Y-84582000D03*
X146812000Y-77470000D03*
X149606000Y-72263000D03*
X151384000Y-80518000D03*
X132715000Y-77978000D03*
X150368000Y-78486000D03*
X166751000Y-79502000D03*
X143256000Y-82550000D03*
X139065000Y-77978000D03*
X135890000Y-79248000D03*
X160401000Y-84582000D03*
X166751000Y-84582000D03*
X132715000Y-83058000D03*
X151892000Y-79502000D03*
X148336000Y-74422000D03*
X154686000Y-61214000D03*
X139065000Y-85598000D03*
X144780000Y-81534000D03*
X152400000Y-80518000D03*
X149352000Y-80518000D03*
X163576000Y-83312000D03*
X151384000Y-78486000D03*
X149606000Y-74422000D03*
X149352000Y-78486000D03*
X145288000Y-82550000D03*
X153416000Y-58039000D03*
X151892000Y-77470000D03*
X155956000Y-81534000D03*
X153924000Y-79502000D03*
X146812000Y-81534000D03*
X139065000Y-81788000D03*
X158496000Y-61214000D03*
X154432000Y-82550000D03*
X135890000Y-84328000D03*
X153416000Y-54864000D03*
X154686000Y-58039000D03*
X158496000Y-54864000D03*
X166751000Y-83312000D03*
X160401000Y-79502000D03*
X151511000Y-73406000D03*
X157480000Y-82550000D03*
X152146000Y-54864000D03*
X146812000Y-79502000D03*
X152908000Y-81534000D03*
X132715000Y-84328000D03*
X156464000Y-80518000D03*
X150368000Y-80518000D03*
X149860000Y-81534000D03*
X150876000Y-79502000D03*
X135890000Y-83058000D03*
X139065000Y-83058000D03*
X150876000Y-81534000D03*
X154940000Y-81534000D03*
X160401000Y-82042000D03*
X159766000Y-61214000D03*
X147320000Y-78486000D03*
X157226000Y-58039000D03*
X144272000Y-82550000D03*
X154940000Y-79502000D03*
X160401000Y-85852000D03*
X148336000Y-72263000D03*
X143764000Y-81534000D03*
X150368000Y-82550000D03*
X146304000Y-80518000D03*
X147320000Y-80518000D03*
X153416000Y-61214000D03*
X151892000Y-81534000D03*
X152400000Y-82550000D03*
X148844000Y-79502000D03*
X144780000Y-79502000D03*
X145796000Y-81534000D03*
X132715000Y-81788000D03*
X155448000Y-80518000D03*
X159766000Y-54864000D03*
X166751000Y-85852000D03*
X148336000Y-80518000D03*
X160401000Y-80772000D03*
X147828000Y-77470000D03*
X150241000Y-71247000D03*
X153416000Y-82550000D03*
X145288000Y-80518000D03*
X146304000Y-82550000D03*
X148336000Y-82550000D03*
X139065000Y-79248000D03*
X157226000Y-54864000D03*
X148844000Y-81534000D03*
X139065000Y-84328000D03*
X135890000Y-80518000D03*
X152146000Y-72263000D03*
X148971000Y-71247000D03*
X150876000Y-74422000D03*
X152400000Y-78486000D03*
X147828000Y-79502000D03*
X163576000Y-80772000D03*
X160401000Y-83312000D03*
X145796000Y-79502000D03*
X148971000Y-73406000D03*
X163576000Y-79502000D03*
X154686000Y-54864000D03*
X152146000Y-74422000D03*
X132715000Y-80518000D03*
X149860000Y-77470000D03*
X153924000Y-81534000D03*
X151511000Y-71247000D03*
X144272000Y-80518000D03*
X155448000Y-82550000D03*
X147320000Y-82550000D03*
X156972000Y-81534000D03*
X166751000Y-80772000D03*
X166751000Y-82042000D03*
X150241000Y-73406000D03*
X139065000Y-80518000D03*
X155956000Y-61214000D03*
X147828000Y-81534000D03*
%TO.N,GND*%
X143510000Y-68326000D03*
X154549626Y-67437000D03*
X150876000Y-95250000D03*
X150876000Y-100330000D03*
X153416000Y-99314000D03*
X145415000Y-69215000D03*
X156464000Y-64770000D03*
X157988000Y-98298000D03*
X120142000Y-72898000D03*
X142240000Y-72009000D03*
X145415000Y-72771000D03*
X144145000Y-65659000D03*
X155194000Y-64770000D03*
X136400000Y-75526000D03*
X139446000Y-108458000D03*
X144780000Y-66548000D03*
X143510000Y-70104000D03*
X145415000Y-70993000D03*
X157099000Y-70993000D03*
X141000000Y-70100000D03*
X157099000Y-65659000D03*
X144780000Y-64770000D03*
X142875000Y-69215000D03*
X153924000Y-98298000D03*
X156972000Y-98298000D03*
X142240000Y-68326000D03*
X142875000Y-70993000D03*
X157734000Y-71882000D03*
X157734000Y-70104000D03*
X156464000Y-99314000D03*
X150876000Y-112522000D03*
X155956000Y-100330000D03*
X150876000Y-99314000D03*
X150876000Y-101346000D03*
X155829000Y-70993000D03*
X141605000Y-65659000D03*
X154940000Y-100330000D03*
X157734000Y-64770000D03*
X145415000Y-65659000D03*
X150876000Y-109474000D03*
X141605000Y-69215000D03*
X157988000Y-100330000D03*
X150876000Y-96266000D03*
X178816000Y-72898000D03*
X150876000Y-102362000D03*
X150876000Y-97282000D03*
X160528000Y-99314000D03*
X150876000Y-106426000D03*
X144780000Y-71882000D03*
X162941000Y-63881000D03*
X155448000Y-99314000D03*
X156464000Y-68326000D03*
X139446000Y-92202000D03*
X157734000Y-66548000D03*
X155194000Y-68326000D03*
X154940000Y-98298000D03*
X150876000Y-91186000D03*
X154559000Y-65659000D03*
X154559000Y-70993000D03*
X157089626Y-67437000D03*
X160020000Y-98298000D03*
X139446000Y-106426000D03*
X157099000Y-72771000D03*
X150876000Y-107442000D03*
X157099000Y-69215000D03*
X160020000Y-100330000D03*
X157734000Y-68326000D03*
X150876000Y-93218000D03*
X155194000Y-70104000D03*
X150876000Y-98298000D03*
X153924000Y-100330000D03*
X155819626Y-67437000D03*
X156464000Y-71882000D03*
X141600000Y-71000000D03*
X142875000Y-67437000D03*
X144780000Y-68326000D03*
X137400000Y-58700000D03*
X157480000Y-99314000D03*
X142875000Y-65659000D03*
X155829000Y-65659000D03*
X144145000Y-67437000D03*
X142240000Y-70104000D03*
X150876000Y-92202000D03*
X120142000Y-70358000D03*
X158496000Y-99314000D03*
X152908000Y-98298000D03*
X139446000Y-110490000D03*
X159004000Y-100330000D03*
X139446000Y-96266000D03*
X155194000Y-66548000D03*
X159512000Y-99314000D03*
X145415000Y-67437000D03*
X154559000Y-69215000D03*
X156972000Y-100330000D03*
X156464000Y-66548000D03*
X152908000Y-100330000D03*
X154432000Y-99314000D03*
X155829000Y-72771000D03*
X141605000Y-67437000D03*
X139446000Y-91186000D03*
X156464000Y-70104000D03*
X143510000Y-64770000D03*
X142240000Y-66548000D03*
X159004000Y-98298000D03*
X158369000Y-72771000D03*
X150876000Y-103378000D03*
X155829000Y-69215000D03*
X154559000Y-72771000D03*
X150876000Y-114554000D03*
X144145000Y-70993000D03*
X150876000Y-104394000D03*
X139446000Y-112522000D03*
X155956000Y-98298000D03*
X143510000Y-66548000D03*
X139446000Y-100330000D03*
X150876000Y-105410000D03*
X144145000Y-69215000D03*
X142240000Y-64770000D03*
X150876000Y-110490000D03*
X150876000Y-111506000D03*
X139446000Y-104394000D03*
X150876000Y-94234000D03*
X150876000Y-108458000D03*
X139446000Y-98298000D03*
X139446000Y-94234000D03*
X155194000Y-71882000D03*
X144145000Y-72771000D03*
X144780000Y-70104000D03*
X139446000Y-102362000D03*
X139446000Y-114554000D03*
X150876000Y-113538000D03*
%TO.N,NTC_A-*%
X169418000Y-76109000D03*
X179047669Y-75275979D03*
%TO.N,NTC_A+*%
X173016864Y-76025979D03*
X180340000Y-75184000D03*
%TO.N,NTC_B-*%
X149606000Y-50292000D03*
X178816000Y-66548000D03*
%TO.N,NTC_B+*%
X149606000Y-53848000D03*
X178816000Y-67818000D03*
%TO.N,NTC_C+*%
X126238000Y-75946000D03*
X120142000Y-74168000D03*
%TO.N,NTC_C-*%
X129794000Y-75946000D03*
X120142000Y-75438000D03*
%TD*%
%TA.AperFunction,Conductor*%
%TO.N,B*%
G36*
X150013606Y-38579711D02*
G01*
X151130592Y-38618288D01*
X151134810Y-38618506D01*
X152249846Y-38695618D01*
X152254088Y-38695985D01*
X153365809Y-38811538D01*
X153369954Y-38812041D01*
X154477074Y-38965905D01*
X154481207Y-38966553D01*
X155582286Y-39158526D01*
X155586459Y-39159328D01*
X156676250Y-39388350D01*
X156680213Y-39389183D01*
X156684387Y-39390135D01*
X157769581Y-39657611D01*
X157773686Y-39658698D01*
X158407922Y-39838458D01*
X158459965Y-39853209D01*
X158519096Y-39890429D01*
X158548718Y-39953708D01*
X158539426Y-40022957D01*
X158521142Y-40052215D01*
X158413945Y-40179969D01*
X158183525Y-40509041D01*
X158183516Y-40509056D01*
X157982662Y-40856945D01*
X157982654Y-40856960D01*
X157812887Y-41221028D01*
X157675481Y-41598545D01*
X157571513Y-41986563D01*
X157571510Y-41986576D01*
X157501752Y-42382189D01*
X157466740Y-42782383D01*
X157466740Y-43184116D01*
X157501752Y-43584310D01*
X157571510Y-43979923D01*
X157571513Y-43979936D01*
X157675481Y-44367954D01*
X157675484Y-44367964D01*
X157675485Y-44367965D01*
X157812883Y-44745462D01*
X157812886Y-44745469D01*
X157812887Y-44745471D01*
X157982654Y-45109539D01*
X157982662Y-45109554D01*
X158183516Y-45457443D01*
X158183525Y-45457458D01*
X158413945Y-45786531D01*
X158610902Y-46021255D01*
X158672164Y-46094264D01*
X158956226Y-46378326D01*
X159065595Y-46470097D01*
X159263958Y-46636544D01*
X159263964Y-46636548D01*
X159263965Y-46636549D01*
X159593038Y-46866969D01*
X159919098Y-47055219D01*
X159940935Y-47067827D01*
X159940950Y-47067835D01*
X160057646Y-47122251D01*
X160305028Y-47237607D01*
X160682525Y-47375005D01*
X160682531Y-47375006D01*
X160682535Y-47375008D01*
X160788203Y-47403321D01*
X161070561Y-47478979D01*
X161466182Y-47548738D01*
X161866376Y-47583749D01*
X161866377Y-47583750D01*
X161866378Y-47583750D01*
X162268103Y-47583750D01*
X162268103Y-47583749D01*
X162668298Y-47548738D01*
X163063919Y-47478979D01*
X163451955Y-47375005D01*
X163829452Y-47237607D01*
X164193538Y-47067831D01*
X164541442Y-46866969D01*
X164870515Y-46636549D01*
X165178254Y-46378326D01*
X165462316Y-46094264D01*
X165720539Y-45786525D01*
X165950959Y-45457452D01*
X166151821Y-45109548D01*
X166321597Y-44745462D01*
X166458995Y-44367965D01*
X166562969Y-43979929D01*
X166615451Y-43682289D01*
X166646478Y-43619687D01*
X166706425Y-43583796D01*
X166776259Y-43586013D01*
X166802623Y-43598259D01*
X166976305Y-43705311D01*
X166979898Y-43707612D01*
X167204209Y-43856792D01*
X167910564Y-44326563D01*
X167914047Y-44328967D01*
X168701790Y-44893027D01*
X168822770Y-44979654D01*
X168826207Y-44982206D01*
X169711909Y-45663856D01*
X169715256Y-45666525D01*
X170576921Y-46378354D01*
X170580173Y-46381137D01*
X171416716Y-47122251D01*
X171419871Y-47125144D01*
X172230376Y-47894727D01*
X172233429Y-47897728D01*
X173016872Y-48694812D01*
X173019819Y-48697916D01*
X173775272Y-49521555D01*
X173778111Y-49524759D01*
X174504705Y-50374006D01*
X174507431Y-50377306D01*
X175204272Y-51251117D01*
X175206883Y-51254510D01*
X175873140Y-52151841D01*
X175875632Y-52155321D01*
X176510532Y-53075133D01*
X176512902Y-53078697D01*
X176558007Y-53149124D01*
X176577587Y-53216194D01*
X176557797Y-53283203D01*
X176504922Y-53328875D01*
X176453587Y-53340000D01*
X173085396Y-53340000D01*
X173048108Y-53334261D01*
X172913609Y-53291853D01*
X172478772Y-53195452D01*
X172478763Y-53195451D01*
X172037199Y-53137317D01*
X171592240Y-53117891D01*
X171147280Y-53137317D01*
X170705716Y-53195451D01*
X170705707Y-53195452D01*
X170270870Y-53291853D01*
X170136372Y-53334261D01*
X170099084Y-53340000D01*
X161544000Y-53340000D01*
X149930391Y-53340000D01*
X149908841Y-53323464D01*
X149832525Y-53291853D01*
X149762762Y-53262956D01*
X149762760Y-53262955D01*
X149606001Y-53242318D01*
X149605999Y-53242318D01*
X149449239Y-53262955D01*
X149449237Y-53262956D01*
X149303160Y-53323463D01*
X149281609Y-53340000D01*
X137541000Y-53340000D01*
X136541000Y-53340000D01*
X136540997Y-53340000D01*
X128635396Y-53340000D01*
X128598108Y-53334261D01*
X128463609Y-53291853D01*
X128028772Y-53195452D01*
X128028763Y-53195451D01*
X127587199Y-53137317D01*
X127142240Y-53117891D01*
X126697280Y-53137317D01*
X126255716Y-53195451D01*
X126255707Y-53195452D01*
X125820870Y-53291853D01*
X125686372Y-53334261D01*
X125649084Y-53340000D01*
X122447417Y-53340000D01*
X122380378Y-53320315D01*
X122334623Y-53267511D01*
X122324679Y-53198353D01*
X122342995Y-53149127D01*
X122388138Y-53078639D01*
X122390442Y-53075175D01*
X123025386Y-52155300D01*
X123027847Y-52151862D01*
X123694147Y-51254474D01*
X123696703Y-51251152D01*
X124393584Y-50377290D01*
X124396298Y-50374006D01*
X124466462Y-50291998D01*
X149000318Y-50291998D01*
X149000318Y-50292001D01*
X149020955Y-50448760D01*
X149020956Y-50448762D01*
X149061232Y-50545998D01*
X149081464Y-50594841D01*
X149177718Y-50720282D01*
X149303159Y-50816536D01*
X149449238Y-50877044D01*
X149524353Y-50886933D01*
X149605999Y-50897682D01*
X149606000Y-50897682D01*
X149606001Y-50897682D01*
X149687647Y-50886933D01*
X149762762Y-50877044D01*
X149908841Y-50816536D01*
X150034282Y-50720282D01*
X150130536Y-50594841D01*
X150150767Y-50545998D01*
X160430318Y-50545998D01*
X160430318Y-50546001D01*
X160450955Y-50702760D01*
X160450956Y-50702762D01*
X160511464Y-50848841D01*
X160607718Y-50974282D01*
X160733159Y-51070536D01*
X160879238Y-51131044D01*
X160957619Y-51141363D01*
X161035999Y-51151682D01*
X161036000Y-51151682D01*
X161036001Y-51151682D01*
X161088254Y-51144802D01*
X161192762Y-51131044D01*
X161338841Y-51070536D01*
X161464282Y-50974282D01*
X161560536Y-50848841D01*
X161621044Y-50702762D01*
X161641682Y-50546000D01*
X161621044Y-50389238D01*
X161560536Y-50243159D01*
X161464282Y-50117718D01*
X161338841Y-50021464D01*
X161260852Y-49989160D01*
X161192762Y-49960956D01*
X161192760Y-49960955D01*
X161036001Y-49940318D01*
X161035999Y-49940318D01*
X160879239Y-49960955D01*
X160879237Y-49960956D01*
X160733160Y-50021463D01*
X160607718Y-50117718D01*
X160511463Y-50243160D01*
X160450956Y-50389237D01*
X160450955Y-50389239D01*
X160430318Y-50545998D01*
X150150767Y-50545998D01*
X150191044Y-50448762D01*
X150211682Y-50292000D01*
X150191044Y-50135238D01*
X150130536Y-49989159D01*
X150034282Y-49863718D01*
X149908841Y-49767464D01*
X149762762Y-49706956D01*
X149762760Y-49706955D01*
X149606001Y-49686318D01*
X149605999Y-49686318D01*
X149449239Y-49706955D01*
X149449237Y-49706956D01*
X149303160Y-49767463D01*
X149177718Y-49863718D01*
X149081463Y-49989160D01*
X149020956Y-50135237D01*
X149020955Y-50135239D01*
X149000318Y-50291998D01*
X124466462Y-50291998D01*
X125122911Y-49524736D01*
X125125711Y-49521577D01*
X125881210Y-48697888D01*
X125884104Y-48694839D01*
X126667608Y-47897693D01*
X126670592Y-47894760D01*
X127481139Y-47125137D01*
X127484287Y-47122251D01*
X127545710Y-47067835D01*
X128320859Y-46381111D01*
X128324053Y-46378378D01*
X129185761Y-45666513D01*
X129189078Y-45663868D01*
X130074825Y-44982183D01*
X130078202Y-44979676D01*
X130986983Y-44328948D01*
X130990412Y-44326581D01*
X131921138Y-43707590D01*
X131924660Y-43705334D01*
X131948175Y-43690840D01*
X132015574Y-43672423D01*
X132082230Y-43693367D01*
X132126982Y-43747024D01*
X132135353Y-43774868D01*
X132171510Y-43979923D01*
X132171513Y-43979936D01*
X132275481Y-44367954D01*
X132275484Y-44367964D01*
X132275485Y-44367965D01*
X132412883Y-44745462D01*
X132412886Y-44745469D01*
X132412887Y-44745471D01*
X132582654Y-45109539D01*
X132582662Y-45109554D01*
X132783516Y-45457443D01*
X132783525Y-45457458D01*
X133013945Y-45786531D01*
X133210902Y-46021255D01*
X133272164Y-46094264D01*
X133556226Y-46378326D01*
X133665595Y-46470097D01*
X133863958Y-46636544D01*
X133863964Y-46636548D01*
X133863965Y-46636549D01*
X134193038Y-46866969D01*
X134519098Y-47055219D01*
X134540935Y-47067827D01*
X134540950Y-47067835D01*
X134657646Y-47122251D01*
X134905028Y-47237607D01*
X135282525Y-47375005D01*
X135282531Y-47375006D01*
X135282535Y-47375008D01*
X135388203Y-47403321D01*
X135670561Y-47478979D01*
X136066182Y-47548738D01*
X136466376Y-47583749D01*
X136466377Y-47583750D01*
X136466378Y-47583750D01*
X136868103Y-47583750D01*
X136868103Y-47583749D01*
X137268298Y-47548738D01*
X137663919Y-47478979D01*
X138051955Y-47375005D01*
X138429452Y-47237607D01*
X138793538Y-47067831D01*
X139141442Y-46866969D01*
X139470515Y-46636549D01*
X139778254Y-46378326D01*
X140062316Y-46094264D01*
X140320539Y-45786525D01*
X140550959Y-45457452D01*
X140751821Y-45109548D01*
X140921597Y-44745462D01*
X141058995Y-44367965D01*
X141162969Y-43979929D01*
X141232728Y-43584308D01*
X141267740Y-43184112D01*
X141267740Y-42782388D01*
X141232728Y-42382192D01*
X141162969Y-41986571D01*
X141058995Y-41598535D01*
X140921597Y-41221038D01*
X140774038Y-40904597D01*
X140751825Y-40856960D01*
X140751817Y-40856945D01*
X140739209Y-40835108D01*
X140550959Y-40509048D01*
X140320539Y-40179975D01*
X140320534Y-40179969D01*
X140245331Y-40090344D01*
X140217319Y-40026336D01*
X140228358Y-39957344D01*
X140274946Y-39905273D01*
X140306502Y-39891340D01*
X141127332Y-39658694D01*
X141131407Y-39657615D01*
X142216629Y-39390132D01*
X142220778Y-39389185D01*
X143314555Y-39159325D01*
X143318706Y-39158528D01*
X144419805Y-38966551D01*
X144423920Y-38965906D01*
X145531056Y-38812040D01*
X145535187Y-38811539D01*
X146646920Y-38695984D01*
X146651152Y-38695618D01*
X147766196Y-38618506D01*
X147770408Y-38618288D01*
X148887397Y-38579711D01*
X148891677Y-38579638D01*
X150009327Y-38579638D01*
X150013606Y-38579711D01*
G37*
%TD.AperFunction*%
%TD*%
%TA.AperFunction,Conductor*%
%TO.N,C*%
G36*
X135785061Y-54102597D02*
G01*
X135961941Y-54120018D01*
X135985769Y-54124757D01*
X136150001Y-54174576D01*
X136172453Y-54183877D01*
X136323798Y-54264772D01*
X136344010Y-54278277D01*
X136476666Y-54387145D01*
X136493854Y-54404333D01*
X136602722Y-54536989D01*
X136616227Y-54557201D01*
X136697121Y-54708543D01*
X136706424Y-54731001D01*
X136756240Y-54895224D01*
X136760982Y-54919065D01*
X136778403Y-55095938D01*
X136779000Y-55108092D01*
X136779000Y-62484000D01*
X129413000Y-62484000D01*
X129413000Y-75311000D01*
X129413000Y-75481437D01*
X129365718Y-75517718D01*
X129269463Y-75643160D01*
X129208956Y-75789237D01*
X129208955Y-75789239D01*
X129188318Y-75945998D01*
X129188318Y-75946001D01*
X129208955Y-76102760D01*
X129208956Y-76102762D01*
X129269464Y-76248841D01*
X129365718Y-76374282D01*
X129413000Y-76410562D01*
X129413000Y-86232999D01*
X129413000Y-86233000D01*
X129395459Y-86388678D01*
X129389280Y-86415749D01*
X129342153Y-86550429D01*
X129330106Y-86575446D01*
X129254187Y-86696271D01*
X129236874Y-86717980D01*
X129135980Y-86818874D01*
X129114271Y-86836187D01*
X128993446Y-86912106D01*
X128968429Y-86924153D01*
X128833749Y-86971280D01*
X128806678Y-86977459D01*
X128657923Y-86994220D01*
X128644039Y-86995000D01*
X121194089Y-86995000D01*
X121127050Y-86975315D01*
X121086395Y-86932465D01*
X120960132Y-86711237D01*
X120958136Y-86707600D01*
X120722916Y-86261428D01*
X120452944Y-85749338D01*
X120451108Y-85745710D01*
X119978264Y-84771096D01*
X119976537Y-84767382D01*
X119536550Y-83777469D01*
X119534929Y-83773650D01*
X119128335Y-82769651D01*
X119126842Y-82765780D01*
X118960713Y-82312536D01*
X118754033Y-81748656D01*
X118752703Y-81744831D01*
X118414135Y-80715826D01*
X118412912Y-80711889D01*
X118323672Y-80406621D01*
X118108958Y-79672135D01*
X118107868Y-79668157D01*
X118040346Y-79404762D01*
X117838878Y-78618856D01*
X117837919Y-78614836D01*
X117831034Y-78583682D01*
X117641059Y-77723998D01*
X125378318Y-77723998D01*
X125378318Y-77724001D01*
X125398955Y-77880760D01*
X125398956Y-77880762D01*
X125459464Y-78026841D01*
X125555718Y-78152282D01*
X125681159Y-78248536D01*
X125827238Y-78309044D01*
X125905619Y-78319363D01*
X125983999Y-78329682D01*
X125984000Y-78329682D01*
X125984001Y-78329682D01*
X126036254Y-78322802D01*
X126140762Y-78309044D01*
X126286841Y-78248536D01*
X126412282Y-78152282D01*
X126508536Y-78026841D01*
X126569044Y-77880762D01*
X126589682Y-77724000D01*
X126569044Y-77567238D01*
X126508536Y-77421159D01*
X126412282Y-77295718D01*
X126286841Y-77199464D01*
X126140762Y-77138956D01*
X126140760Y-77138955D01*
X125984001Y-77118318D01*
X125983999Y-77118318D01*
X125827239Y-77138955D01*
X125827237Y-77138956D01*
X125681160Y-77199463D01*
X125555718Y-77295718D01*
X125459463Y-77421160D01*
X125398956Y-77567237D01*
X125398955Y-77567239D01*
X125378318Y-77723998D01*
X117641059Y-77723998D01*
X117604180Y-77557113D01*
X117603355Y-77553058D01*
X117555455Y-77295718D01*
X117405133Y-76488118D01*
X117404445Y-76484043D01*
X117392477Y-76405159D01*
X117241956Y-75413040D01*
X117241413Y-75409010D01*
X117114834Y-74333093D01*
X117114427Y-74329043D01*
X117023917Y-73249558D01*
X117023646Y-73245516D01*
X116969299Y-72163573D01*
X116969161Y-72159449D01*
X116969097Y-72155610D01*
X116951038Y-71076268D01*
X116951038Y-71072153D01*
X116970330Y-69954659D01*
X116970478Y-69950393D01*
X116971269Y-69935144D01*
X117015176Y-69087998D01*
X119536318Y-69087998D01*
X119536318Y-69088001D01*
X119556955Y-69244760D01*
X119556956Y-69244762D01*
X119617464Y-69390841D01*
X119713718Y-69516282D01*
X119839159Y-69612536D01*
X119839166Y-69612541D01*
X119844487Y-69615613D01*
X119892703Y-69666179D01*
X119905927Y-69734786D01*
X119879959Y-69799651D01*
X119844487Y-69830387D01*
X119839166Y-69833458D01*
X119713718Y-69929718D01*
X119617463Y-70055160D01*
X119556956Y-70201237D01*
X119556955Y-70201239D01*
X119536318Y-70357998D01*
X119536318Y-70358001D01*
X119556955Y-70514760D01*
X119556956Y-70514762D01*
X119617464Y-70660841D01*
X119713718Y-70786282D01*
X119839159Y-70882536D01*
X119839166Y-70882541D01*
X119844487Y-70885613D01*
X119892703Y-70936179D01*
X119905927Y-71004786D01*
X119879959Y-71069651D01*
X119844487Y-71100387D01*
X119839166Y-71103458D01*
X119713718Y-71199718D01*
X119617463Y-71325160D01*
X119556956Y-71471237D01*
X119556955Y-71471239D01*
X119536318Y-71627998D01*
X119536318Y-71628001D01*
X119556955Y-71784760D01*
X119556956Y-71784762D01*
X119597232Y-71881998D01*
X119617464Y-71930841D01*
X119713718Y-72056282D01*
X119839159Y-72152536D01*
X119839166Y-72152541D01*
X119844487Y-72155613D01*
X119892703Y-72206179D01*
X119905927Y-72274786D01*
X119879959Y-72339651D01*
X119844487Y-72370387D01*
X119839166Y-72373458D01*
X119713718Y-72469718D01*
X119617463Y-72595160D01*
X119556956Y-72741237D01*
X119556955Y-72741239D01*
X119536318Y-72897998D01*
X119536318Y-72898001D01*
X119556955Y-73054760D01*
X119556956Y-73054762D01*
X119617464Y-73200841D01*
X119713718Y-73326282D01*
X119839159Y-73422536D01*
X119839166Y-73422541D01*
X119844487Y-73425613D01*
X119892703Y-73476179D01*
X119905927Y-73544786D01*
X119879959Y-73609651D01*
X119844487Y-73640387D01*
X119839166Y-73643458D01*
X119713718Y-73739718D01*
X119617463Y-73865160D01*
X119556956Y-74011237D01*
X119556955Y-74011239D01*
X119536318Y-74167998D01*
X119536318Y-74168001D01*
X119556955Y-74324760D01*
X119556956Y-74324762D01*
X119617464Y-74470841D01*
X119713718Y-74596282D01*
X119839159Y-74692536D01*
X119839166Y-74692541D01*
X119844487Y-74695613D01*
X119892703Y-74746179D01*
X119905927Y-74814786D01*
X119879959Y-74879651D01*
X119844487Y-74910387D01*
X119839166Y-74913458D01*
X119713718Y-75009718D01*
X119617463Y-75135160D01*
X119556956Y-75281237D01*
X119556955Y-75281239D01*
X119536318Y-75437998D01*
X119536318Y-75438001D01*
X119556955Y-75594760D01*
X119556956Y-75594762D01*
X119617464Y-75740841D01*
X119713718Y-75866282D01*
X119839159Y-75962536D01*
X119839166Y-75962541D01*
X119844487Y-75965613D01*
X119892703Y-76016179D01*
X119905927Y-76084786D01*
X119879959Y-76149651D01*
X119844487Y-76180387D01*
X119839166Y-76183458D01*
X119713718Y-76279718D01*
X119617463Y-76405160D01*
X119556956Y-76551237D01*
X119556955Y-76551239D01*
X119536318Y-76707998D01*
X119536318Y-76708001D01*
X119556955Y-76864760D01*
X119556956Y-76864762D01*
X119617464Y-77010841D01*
X119713718Y-77136282D01*
X119839159Y-77232536D01*
X119985238Y-77293044D01*
X120063619Y-77303363D01*
X120141999Y-77313682D01*
X120142000Y-77313682D01*
X120142001Y-77313682D01*
X120194254Y-77306802D01*
X120298762Y-77293044D01*
X120444841Y-77232536D01*
X120570282Y-77136282D01*
X120666536Y-77010841D01*
X120727044Y-76864762D01*
X120747682Y-76708000D01*
X120727044Y-76551238D01*
X120666536Y-76405159D01*
X120570282Y-76279718D01*
X120444841Y-76183464D01*
X120444834Y-76183461D01*
X120439515Y-76180390D01*
X120391298Y-76129825D01*
X120378072Y-76061218D01*
X120404037Y-75996352D01*
X120439515Y-75965610D01*
X120444828Y-75962541D01*
X120444841Y-75962536D01*
X120466394Y-75945998D01*
X125632318Y-75945998D01*
X125632318Y-75946001D01*
X125652955Y-76102760D01*
X125652956Y-76102762D01*
X125713464Y-76248841D01*
X125809718Y-76374282D01*
X125935159Y-76470536D01*
X126081238Y-76531044D01*
X126159619Y-76541363D01*
X126237999Y-76551682D01*
X126238000Y-76551682D01*
X126238001Y-76551682D01*
X126290254Y-76544802D01*
X126394762Y-76531044D01*
X126540841Y-76470536D01*
X126666282Y-76374282D01*
X126762536Y-76248841D01*
X126823044Y-76102762D01*
X126843682Y-75946000D01*
X126823044Y-75789238D01*
X126762536Y-75643159D01*
X126666282Y-75517718D01*
X126540841Y-75421464D01*
X126510675Y-75408969D01*
X126394762Y-75360956D01*
X126394760Y-75360955D01*
X126238001Y-75340318D01*
X126237999Y-75340318D01*
X126081239Y-75360955D01*
X126081237Y-75360956D01*
X125935160Y-75421463D01*
X125809718Y-75517718D01*
X125713463Y-75643160D01*
X125652956Y-75789237D01*
X125652955Y-75789239D01*
X125632318Y-75945998D01*
X120466394Y-75945998D01*
X120570282Y-75866282D01*
X120666536Y-75740841D01*
X120727044Y-75594762D01*
X120747682Y-75438000D01*
X120744401Y-75413081D01*
X120727044Y-75281239D01*
X120727044Y-75281238D01*
X120666536Y-75135159D01*
X120570282Y-75009718D01*
X120444841Y-74913464D01*
X120444834Y-74913461D01*
X120439515Y-74910390D01*
X120391298Y-74859825D01*
X120378072Y-74791218D01*
X120404037Y-74726352D01*
X120439515Y-74695610D01*
X120444828Y-74692541D01*
X120444841Y-74692536D01*
X120570282Y-74596282D01*
X120666536Y-74470841D01*
X120727044Y-74324762D01*
X120747682Y-74168000D01*
X120727044Y-74011238D01*
X120666536Y-73865159D01*
X120570282Y-73739718D01*
X120444841Y-73643464D01*
X120444834Y-73643461D01*
X120439515Y-73640390D01*
X120391298Y-73589825D01*
X120378072Y-73521218D01*
X120404037Y-73456352D01*
X120439515Y-73425610D01*
X120444828Y-73422541D01*
X120444841Y-73422536D01*
X120570282Y-73326282D01*
X120666536Y-73200841D01*
X120727044Y-73054762D01*
X120747682Y-72898000D01*
X120727044Y-72741238D01*
X120666536Y-72595159D01*
X120570282Y-72469718D01*
X120444841Y-72373464D01*
X120444834Y-72373461D01*
X120439515Y-72370390D01*
X120391298Y-72319825D01*
X120378072Y-72251218D01*
X120404037Y-72186352D01*
X120439515Y-72155610D01*
X120444828Y-72152541D01*
X120444841Y-72152536D01*
X120570282Y-72056282D01*
X120666536Y-71930841D01*
X120727044Y-71784762D01*
X120747682Y-71628000D01*
X120735697Y-71536968D01*
X120727044Y-71471239D01*
X120727044Y-71471238D01*
X120666536Y-71325159D01*
X120570282Y-71199718D01*
X120444841Y-71103464D01*
X120444834Y-71103461D01*
X120439515Y-71100390D01*
X120391298Y-71049825D01*
X120378072Y-70981218D01*
X120404037Y-70916352D01*
X120439515Y-70885610D01*
X120444828Y-70882541D01*
X120444841Y-70882536D01*
X120570282Y-70786282D01*
X120666536Y-70660841D01*
X120727044Y-70514762D01*
X120747682Y-70358000D01*
X120727044Y-70201238D01*
X120666536Y-70055159D01*
X120570282Y-69929718D01*
X120444841Y-69833464D01*
X120444834Y-69833461D01*
X120439515Y-69830390D01*
X120391298Y-69779825D01*
X120378072Y-69711218D01*
X120404037Y-69646352D01*
X120439515Y-69615610D01*
X120444828Y-69612541D01*
X120444841Y-69612536D01*
X120570282Y-69516282D01*
X120666536Y-69390841D01*
X120727044Y-69244762D01*
X120744538Y-69111883D01*
X120747682Y-69088001D01*
X120747682Y-69087998D01*
X120727044Y-68931239D01*
X120727044Y-68931238D01*
X120666536Y-68785159D01*
X120570282Y-68659718D01*
X120444841Y-68563464D01*
X120298762Y-68502956D01*
X120298760Y-68502955D01*
X120142001Y-68482318D01*
X120141999Y-68482318D01*
X119985239Y-68502955D01*
X119985237Y-68502956D01*
X119839160Y-68563463D01*
X119713718Y-68659718D01*
X119617463Y-68785160D01*
X119556956Y-68931237D01*
X119556955Y-68931239D01*
X119536318Y-69087998D01*
X117015176Y-69087998D01*
X117028329Y-68834227D01*
X117028625Y-68829966D01*
X117030802Y-68804813D01*
X117124964Y-67716515D01*
X117125406Y-67712262D01*
X117146309Y-67540111D01*
X117260127Y-66602726D01*
X117260708Y-66598549D01*
X117433652Y-65494287D01*
X117434384Y-65490093D01*
X117434471Y-65489645D01*
X117645324Y-64392547D01*
X117646201Y-64388374D01*
X117894907Y-63298719D01*
X117895914Y-63294631D01*
X118182108Y-62214118D01*
X118183243Y-62210117D01*
X118506531Y-61140223D01*
X118507836Y-61136159D01*
X118867881Y-60078002D01*
X118869291Y-60074081D01*
X119265647Y-59028977D01*
X119267198Y-59025091D01*
X119699382Y-57994309D01*
X119701096Y-57990413D01*
X119711537Y-57967739D01*
X120168590Y-56975187D01*
X120170392Y-56971445D01*
X120672677Y-55972907D01*
X120674631Y-55969183D01*
X121211078Y-54988583D01*
X121213165Y-54984922D01*
X121223721Y-54967116D01*
X121402935Y-54664796D01*
X121700537Y-54162768D01*
X121751655Y-54115138D01*
X121807203Y-54102000D01*
X135772907Y-54102000D01*
X135785061Y-54102597D01*
G37*
%TD.AperFunction*%
%TD*%
%TA.AperFunction,Conductor*%
%TO.N,A*%
G36*
X177160840Y-54121685D02*
G01*
X177200468Y-54162768D01*
X177246026Y-54239621D01*
X177648793Y-54919056D01*
X177687839Y-54984922D01*
X177689949Y-54988626D01*
X177730748Y-55063205D01*
X178226354Y-55969150D01*
X178228343Y-55972940D01*
X178730583Y-56971388D01*
X178732440Y-56975245D01*
X179199907Y-57990413D01*
X179201630Y-57994331D01*
X179633786Y-59025046D01*
X179635373Y-59029022D01*
X180031692Y-60074028D01*
X180033141Y-60078056D01*
X180393167Y-61136159D01*
X180394475Y-61140235D01*
X180717743Y-62210058D01*
X180718909Y-62214171D01*
X180732629Y-62265968D01*
X181005080Y-63294597D01*
X181006104Y-63298753D01*
X181254802Y-64388374D01*
X181255682Y-64392563D01*
X181466619Y-65490093D01*
X181467355Y-65494311D01*
X181640290Y-66598515D01*
X181640879Y-66602755D01*
X181775597Y-67712262D01*
X181776039Y-67716519D01*
X181872378Y-68829966D01*
X181872674Y-68834237D01*
X181930525Y-69950393D01*
X181930673Y-69954671D01*
X181949965Y-71072201D01*
X181949966Y-71076405D01*
X181932018Y-72154289D01*
X181931880Y-72158416D01*
X181878055Y-73235092D01*
X181877781Y-73239212D01*
X181788133Y-74313569D01*
X181787721Y-74317678D01*
X181662354Y-75388441D01*
X181661805Y-75392533D01*
X181500865Y-76458484D01*
X181500181Y-76462556D01*
X181303836Y-77522581D01*
X181303017Y-77526628D01*
X181071481Y-78579557D01*
X181070527Y-78583574D01*
X180804073Y-79628175D01*
X180802986Y-79632159D01*
X180501897Y-80667326D01*
X180500678Y-80671271D01*
X180165287Y-81695846D01*
X180163937Y-81699748D01*
X179794625Y-82712573D01*
X179793146Y-82716428D01*
X179390324Y-83716384D01*
X179388718Y-83720188D01*
X178952813Y-84706205D01*
X178951081Y-84709953D01*
X178617704Y-85400886D01*
X178570842Y-85452710D01*
X178506024Y-85471000D01*
X169799000Y-85471000D01*
X169799000Y-77723998D01*
X179480318Y-77723998D01*
X179480318Y-77724001D01*
X179500955Y-77880760D01*
X179500956Y-77880762D01*
X179561464Y-78026841D01*
X179657718Y-78152282D01*
X179783159Y-78248536D01*
X179929238Y-78309044D01*
X180007619Y-78319363D01*
X180085999Y-78329682D01*
X180086000Y-78329682D01*
X180086001Y-78329682D01*
X180138254Y-78322802D01*
X180242762Y-78309044D01*
X180388841Y-78248536D01*
X180514282Y-78152282D01*
X180610536Y-78026841D01*
X180671044Y-77880762D01*
X180691682Y-77724000D01*
X180671044Y-77567238D01*
X180610536Y-77421159D01*
X180514282Y-77295718D01*
X180388841Y-77199464D01*
X180242762Y-77138956D01*
X180242760Y-77138955D01*
X180086001Y-77118318D01*
X180085999Y-77118318D01*
X179929239Y-77138955D01*
X179929237Y-77138956D01*
X179783160Y-77199463D01*
X179657718Y-77295718D01*
X179561463Y-77421160D01*
X179500956Y-77567237D01*
X179500955Y-77567239D01*
X179480318Y-77723998D01*
X169799000Y-77723998D01*
X169799000Y-76573562D01*
X169846282Y-76537282D01*
X169942536Y-76411841D01*
X170003044Y-76265762D01*
X170023682Y-76109000D01*
X170012752Y-76025977D01*
X172411182Y-76025977D01*
X172411182Y-76025980D01*
X172431819Y-76182739D01*
X172431820Y-76182741D01*
X172492328Y-76328820D01*
X172588582Y-76454261D01*
X172714023Y-76550515D01*
X172860102Y-76611023D01*
X172938483Y-76621342D01*
X173016863Y-76631661D01*
X173016864Y-76631661D01*
X173016865Y-76631661D01*
X173069118Y-76624781D01*
X173173626Y-76611023D01*
X173319705Y-76550515D01*
X173445146Y-76454261D01*
X173541400Y-76328820D01*
X173601908Y-76182741D01*
X173622546Y-76025979D01*
X173601908Y-75869217D01*
X173541400Y-75723138D01*
X173445146Y-75597697D01*
X173319705Y-75501443D01*
X173212953Y-75457225D01*
X173173626Y-75440935D01*
X173173624Y-75440934D01*
X173016865Y-75420297D01*
X173016863Y-75420297D01*
X172860103Y-75440934D01*
X172860101Y-75440935D01*
X172714024Y-75501442D01*
X172588582Y-75597697D01*
X172492327Y-75723139D01*
X172431820Y-75869216D01*
X172431819Y-75869218D01*
X172411182Y-76025977D01*
X170012752Y-76025977D01*
X170003044Y-75952238D01*
X169942536Y-75806159D01*
X169846282Y-75680718D01*
X169799000Y-75644437D01*
X169799000Y-75311000D01*
X169799000Y-75275977D01*
X178441987Y-75275977D01*
X178441987Y-75275980D01*
X178462624Y-75432739D01*
X178462625Y-75432741D01*
X178500407Y-75523956D01*
X178523133Y-75578820D01*
X178619387Y-75704261D01*
X178744828Y-75800515D01*
X178890907Y-75861023D01*
X178953147Y-75869217D01*
X179047668Y-75881661D01*
X179047669Y-75881661D01*
X179047670Y-75881661D01*
X179142183Y-75869218D01*
X179204431Y-75861023D01*
X179350510Y-75800515D01*
X179475951Y-75704261D01*
X179572205Y-75578820D01*
X179600036Y-75511627D01*
X179643876Y-75457225D01*
X179710170Y-75435160D01*
X179777870Y-75452439D01*
X179812973Y-75483594D01*
X179815463Y-75486839D01*
X179815464Y-75486841D01*
X179911718Y-75612282D01*
X180037159Y-75708536D01*
X180183238Y-75769044D01*
X180261619Y-75779363D01*
X180339999Y-75789682D01*
X180340000Y-75789682D01*
X180340001Y-75789682D01*
X180392254Y-75782802D01*
X180496762Y-75769044D01*
X180642841Y-75708536D01*
X180768282Y-75612282D01*
X180864536Y-75486841D01*
X180925044Y-75340762D01*
X180945682Y-75184000D01*
X180925044Y-75027238D01*
X180864536Y-74881159D01*
X180768282Y-74755718D01*
X180642841Y-74659464D01*
X180496762Y-74598956D01*
X180496760Y-74598955D01*
X180340001Y-74578318D01*
X180339999Y-74578318D01*
X180183239Y-74598955D01*
X180183237Y-74598956D01*
X180037160Y-74659463D01*
X179911718Y-74755718D01*
X179815464Y-74881159D01*
X179787632Y-74948351D01*
X179743790Y-75002754D01*
X179677496Y-75024818D01*
X179609797Y-75007538D01*
X179574695Y-74976383D01*
X179475952Y-74847698D01*
X179356081Y-74755718D01*
X179350510Y-74751443D01*
X179204431Y-74690935D01*
X179204429Y-74690934D01*
X179047670Y-74670297D01*
X179047668Y-74670297D01*
X178890908Y-74690934D01*
X178890906Y-74690935D01*
X178744829Y-74751442D01*
X178619387Y-74847697D01*
X178523132Y-74973139D01*
X178462625Y-75119216D01*
X178462624Y-75119218D01*
X178441987Y-75275977D01*
X169799000Y-75275977D01*
X169799000Y-66547998D01*
X178210318Y-66547998D01*
X178210318Y-66548001D01*
X178230955Y-66704760D01*
X178230956Y-66704762D01*
X178289858Y-66846965D01*
X178291464Y-66850841D01*
X178387718Y-66976282D01*
X178513159Y-67072536D01*
X178513166Y-67072541D01*
X178518487Y-67075613D01*
X178566703Y-67126179D01*
X178579927Y-67194786D01*
X178553959Y-67259651D01*
X178518487Y-67290387D01*
X178513166Y-67293458D01*
X178387718Y-67389718D01*
X178291463Y-67515160D01*
X178230956Y-67661237D01*
X178230955Y-67661239D01*
X178210318Y-67817998D01*
X178210318Y-67818001D01*
X178230955Y-67974760D01*
X178230956Y-67974762D01*
X178291464Y-68120841D01*
X178387718Y-68246282D01*
X178513159Y-68342536D01*
X178513166Y-68342541D01*
X178518487Y-68345613D01*
X178566703Y-68396179D01*
X178579927Y-68464786D01*
X178553959Y-68529651D01*
X178518487Y-68560387D01*
X178513166Y-68563458D01*
X178387718Y-68659718D01*
X178291463Y-68785160D01*
X178230956Y-68931237D01*
X178230955Y-68931239D01*
X178210318Y-69087998D01*
X178210318Y-69088001D01*
X178230955Y-69244760D01*
X178230956Y-69244762D01*
X178291464Y-69390841D01*
X178387718Y-69516282D01*
X178513159Y-69612536D01*
X178513166Y-69612541D01*
X178518487Y-69615613D01*
X178566703Y-69666179D01*
X178579927Y-69734786D01*
X178553959Y-69799651D01*
X178518487Y-69830387D01*
X178513166Y-69833458D01*
X178387718Y-69929718D01*
X178291463Y-70055160D01*
X178230956Y-70201237D01*
X178230955Y-70201239D01*
X178210318Y-70357998D01*
X178210318Y-70358001D01*
X178230955Y-70514760D01*
X178230956Y-70514762D01*
X178291464Y-70660841D01*
X178387718Y-70786282D01*
X178513159Y-70882536D01*
X178513166Y-70882541D01*
X178518487Y-70885613D01*
X178566703Y-70936179D01*
X178579927Y-71004786D01*
X178553959Y-71069651D01*
X178518487Y-71100387D01*
X178513166Y-71103458D01*
X178387718Y-71199718D01*
X178291463Y-71325160D01*
X178230956Y-71471237D01*
X178230955Y-71471239D01*
X178210318Y-71627998D01*
X178210318Y-71628001D01*
X178230955Y-71784760D01*
X178230956Y-71784762D01*
X178271232Y-71881998D01*
X178291464Y-71930841D01*
X178387718Y-72056282D01*
X178513159Y-72152536D01*
X178513166Y-72152541D01*
X178518487Y-72155613D01*
X178566703Y-72206179D01*
X178579927Y-72274786D01*
X178553959Y-72339651D01*
X178518487Y-72370387D01*
X178513166Y-72373458D01*
X178387718Y-72469718D01*
X178291463Y-72595160D01*
X178230956Y-72741237D01*
X178230955Y-72741239D01*
X178210318Y-72897998D01*
X178210318Y-72898001D01*
X178230955Y-73054760D01*
X178230956Y-73054762D01*
X178291464Y-73200841D01*
X178387718Y-73326282D01*
X178513159Y-73422536D01*
X178659238Y-73483044D01*
X178737619Y-73493363D01*
X178815999Y-73503682D01*
X178816000Y-73503682D01*
X178816001Y-73503682D01*
X178868254Y-73496802D01*
X178972762Y-73483044D01*
X179118841Y-73422536D01*
X179244282Y-73326282D01*
X179340536Y-73200841D01*
X179401044Y-73054762D01*
X179421682Y-72898000D01*
X179401044Y-72741238D01*
X179340536Y-72595159D01*
X179244282Y-72469718D01*
X179118841Y-72373464D01*
X179118834Y-72373461D01*
X179113515Y-72370390D01*
X179065298Y-72319825D01*
X179052072Y-72251218D01*
X179078037Y-72186352D01*
X179113515Y-72155610D01*
X179118828Y-72152541D01*
X179118841Y-72152536D01*
X179244282Y-72056282D01*
X179340536Y-71930841D01*
X179401044Y-71784762D01*
X179418761Y-71650189D01*
X179421682Y-71628001D01*
X179421682Y-71627998D01*
X179401044Y-71471239D01*
X179401044Y-71471238D01*
X179340536Y-71325159D01*
X179244282Y-71199718D01*
X179118841Y-71103464D01*
X179118834Y-71103461D01*
X179113515Y-71100390D01*
X179065298Y-71049825D01*
X179052072Y-70981218D01*
X179078037Y-70916352D01*
X179113515Y-70885610D01*
X179118828Y-70882541D01*
X179118841Y-70882536D01*
X179244282Y-70786282D01*
X179340536Y-70660841D01*
X179401044Y-70514762D01*
X179421682Y-70358000D01*
X179401044Y-70201238D01*
X179340536Y-70055159D01*
X179244282Y-69929718D01*
X179118841Y-69833464D01*
X179118834Y-69833461D01*
X179113515Y-69830390D01*
X179065298Y-69779825D01*
X179052072Y-69711218D01*
X179078037Y-69646352D01*
X179113515Y-69615610D01*
X179118828Y-69612541D01*
X179118841Y-69612536D01*
X179244282Y-69516282D01*
X179340536Y-69390841D01*
X179401044Y-69244762D01*
X179418538Y-69111883D01*
X179421682Y-69088001D01*
X179421682Y-69087998D01*
X179401044Y-68931239D01*
X179401044Y-68931238D01*
X179340536Y-68785159D01*
X179244282Y-68659718D01*
X179118841Y-68563464D01*
X179118834Y-68563461D01*
X179113515Y-68560390D01*
X179065298Y-68509825D01*
X179052072Y-68441218D01*
X179078037Y-68376352D01*
X179113515Y-68345610D01*
X179118828Y-68342541D01*
X179118841Y-68342536D01*
X179244282Y-68246282D01*
X179340536Y-68120841D01*
X179401044Y-67974762D01*
X179419921Y-67831375D01*
X179421682Y-67818001D01*
X179421682Y-67817998D01*
X179403658Y-67681092D01*
X179401044Y-67661238D01*
X179340536Y-67515159D01*
X179244282Y-67389718D01*
X179118841Y-67293464D01*
X179118834Y-67293461D01*
X179113515Y-67290390D01*
X179065298Y-67239825D01*
X179052072Y-67171218D01*
X179078037Y-67106352D01*
X179113515Y-67075610D01*
X179118828Y-67072541D01*
X179118841Y-67072536D01*
X179244282Y-66976282D01*
X179340536Y-66850841D01*
X179401044Y-66704762D01*
X179421682Y-66548000D01*
X179412072Y-66475008D01*
X179401044Y-66391239D01*
X179401044Y-66391238D01*
X179340536Y-66245159D01*
X179244282Y-66119718D01*
X179118841Y-66023464D01*
X179116697Y-66022576D01*
X178972762Y-65962956D01*
X178972760Y-65962955D01*
X178816001Y-65942318D01*
X178815999Y-65942318D01*
X178659239Y-65962955D01*
X178659237Y-65962956D01*
X178513160Y-66023463D01*
X178387718Y-66119718D01*
X178291463Y-66245160D01*
X178230956Y-66391237D01*
X178230955Y-66391239D01*
X178210318Y-66547998D01*
X169799000Y-66547998D01*
X169799000Y-62484000D01*
X162433000Y-62484000D01*
X162433000Y-55108092D01*
X162433597Y-55095938D01*
X162442014Y-55010479D01*
X162451018Y-54919056D01*
X162455757Y-54895232D01*
X162505577Y-54730994D01*
X162514875Y-54708549D01*
X162595775Y-54557195D01*
X162609272Y-54536995D01*
X162718149Y-54404328D01*
X162735328Y-54387149D01*
X162867995Y-54278272D01*
X162888195Y-54264775D01*
X163039549Y-54183875D01*
X163061994Y-54174577D01*
X163226232Y-54124757D01*
X163250056Y-54120018D01*
X163426939Y-54102597D01*
X163439093Y-54102000D01*
X177093801Y-54102000D01*
X177160840Y-54121685D01*
G37*
%TD.AperFunction*%
%TD*%
%TA.AperFunction,Conductor*%
%TO.N,GND*%
G36*
X141084612Y-88157685D02*
G01*
X141130367Y-88210489D01*
X141140512Y-88245814D01*
X141146956Y-88294761D01*
X141146957Y-88294765D01*
X141188693Y-88395526D01*
X141196162Y-88464995D01*
X141164886Y-88527474D01*
X141104797Y-88563126D01*
X141090320Y-88565917D01*
X141067238Y-88568956D01*
X141067237Y-88568956D01*
X140921157Y-88629464D01*
X140791486Y-88728965D01*
X140726317Y-88754159D01*
X140657872Y-88740121D01*
X140640514Y-88728965D01*
X140510842Y-88629464D01*
X140364762Y-88568956D01*
X140364760Y-88568955D01*
X140208001Y-88548318D01*
X140207999Y-88548318D01*
X140051239Y-88568955D01*
X140051237Y-88568956D01*
X139905157Y-88629464D01*
X139775486Y-88728965D01*
X139710317Y-88754159D01*
X139641872Y-88740121D01*
X139624514Y-88728965D01*
X139494842Y-88629464D01*
X139348762Y-88568956D01*
X139348760Y-88568955D01*
X139192001Y-88548318D01*
X139191999Y-88548318D01*
X139035239Y-88568955D01*
X139035237Y-88568956D01*
X138889157Y-88629464D01*
X138759486Y-88728965D01*
X138694317Y-88754159D01*
X138625872Y-88740121D01*
X138608514Y-88728965D01*
X138478842Y-88629464D01*
X138332762Y-88568956D01*
X138332760Y-88568955D01*
X138176001Y-88548318D01*
X138175999Y-88548318D01*
X138019239Y-88568955D01*
X138019237Y-88568956D01*
X137873157Y-88629464D01*
X137743486Y-88728965D01*
X137678317Y-88754159D01*
X137609872Y-88740121D01*
X137592514Y-88728965D01*
X137462842Y-88629464D01*
X137316762Y-88568956D01*
X137316760Y-88568955D01*
X137160001Y-88548318D01*
X137159999Y-88548318D01*
X137003239Y-88568955D01*
X137003237Y-88568956D01*
X136857157Y-88629464D01*
X136727486Y-88728965D01*
X136662317Y-88754159D01*
X136593872Y-88740121D01*
X136576514Y-88728965D01*
X136446842Y-88629464D01*
X136300762Y-88568956D01*
X136300760Y-88568955D01*
X136144001Y-88548318D01*
X136143999Y-88548318D01*
X135987239Y-88568955D01*
X135987237Y-88568956D01*
X135841157Y-88629464D01*
X135711486Y-88728965D01*
X135646317Y-88754159D01*
X135577872Y-88740121D01*
X135560514Y-88728965D01*
X135430842Y-88629464D01*
X135284762Y-88568956D01*
X135284760Y-88568955D01*
X135128001Y-88548318D01*
X135127999Y-88548318D01*
X134971239Y-88568955D01*
X134971237Y-88568956D01*
X134825157Y-88629464D01*
X134695486Y-88728965D01*
X134630317Y-88754159D01*
X134561872Y-88740121D01*
X134544514Y-88728965D01*
X134414842Y-88629464D01*
X134268762Y-88568956D01*
X134268760Y-88568955D01*
X134112001Y-88548318D01*
X134111999Y-88548318D01*
X133955239Y-88568955D01*
X133955237Y-88568956D01*
X133809160Y-88629463D01*
X133683718Y-88725718D01*
X133587463Y-88851160D01*
X133526956Y-88997237D01*
X133526955Y-88997239D01*
X133506318Y-89153998D01*
X133506318Y-89154001D01*
X133526955Y-89310760D01*
X133526957Y-89310765D01*
X133568693Y-89411526D01*
X133576162Y-89480995D01*
X133544886Y-89543474D01*
X133484797Y-89579126D01*
X133470320Y-89581917D01*
X133447238Y-89584956D01*
X133447237Y-89584956D01*
X133301160Y-89645463D01*
X133175718Y-89741718D01*
X133079463Y-89867160D01*
X133018956Y-90013237D01*
X133018955Y-90013239D01*
X132998318Y-90169998D01*
X132998318Y-90170001D01*
X133018955Y-90326760D01*
X133018956Y-90326762D01*
X133079464Y-90472842D01*
X133178965Y-90602514D01*
X133204159Y-90667683D01*
X133190121Y-90736128D01*
X133178965Y-90753486D01*
X133079464Y-90883157D01*
X133018956Y-91029237D01*
X133018955Y-91029239D01*
X132998318Y-91185998D01*
X132998318Y-91186001D01*
X133018955Y-91342760D01*
X133018956Y-91342762D01*
X133079464Y-91488842D01*
X133178965Y-91618514D01*
X133204159Y-91683683D01*
X133190121Y-91752128D01*
X133178965Y-91769486D01*
X133079464Y-91899157D01*
X133018956Y-92045237D01*
X133018955Y-92045239D01*
X132998318Y-92201998D01*
X132998318Y-92202001D01*
X133018955Y-92358760D01*
X133018956Y-92358762D01*
X133079464Y-92504842D01*
X133178965Y-92634514D01*
X133204159Y-92699683D01*
X133190121Y-92768128D01*
X133178965Y-92785486D01*
X133079464Y-92915157D01*
X133018956Y-93061237D01*
X133018955Y-93061239D01*
X132998318Y-93217998D01*
X132998318Y-93218001D01*
X133018955Y-93374760D01*
X133018956Y-93374762D01*
X133079464Y-93520842D01*
X133178965Y-93650514D01*
X133204159Y-93715683D01*
X133190121Y-93784128D01*
X133178965Y-93801486D01*
X133079464Y-93931157D01*
X133018956Y-94077237D01*
X133018955Y-94077239D01*
X132998318Y-94233998D01*
X132998318Y-94234001D01*
X133018955Y-94390760D01*
X133018956Y-94390762D01*
X133079464Y-94536842D01*
X133178965Y-94666514D01*
X133204159Y-94731683D01*
X133190121Y-94800128D01*
X133178965Y-94817486D01*
X133079464Y-94947157D01*
X133018956Y-95093237D01*
X133018955Y-95093239D01*
X132998318Y-95249998D01*
X132998318Y-95250001D01*
X133018955Y-95406760D01*
X133018956Y-95406762D01*
X133079464Y-95552842D01*
X133178965Y-95682514D01*
X133204159Y-95747683D01*
X133190121Y-95816128D01*
X133178965Y-95833486D01*
X133079464Y-95963157D01*
X133018956Y-96109237D01*
X133018955Y-96109239D01*
X132998318Y-96265998D01*
X132998318Y-96266001D01*
X133018955Y-96422760D01*
X133018956Y-96422762D01*
X133079464Y-96568842D01*
X133178965Y-96698514D01*
X133204159Y-96763683D01*
X133190121Y-96832128D01*
X133178965Y-96849486D01*
X133079464Y-96979157D01*
X133018956Y-97125237D01*
X133018955Y-97125239D01*
X132998318Y-97281998D01*
X132998318Y-97282001D01*
X133018955Y-97438760D01*
X133018956Y-97438762D01*
X133079464Y-97584842D01*
X133178965Y-97714514D01*
X133204159Y-97779683D01*
X133190121Y-97848128D01*
X133178965Y-97865486D01*
X133079464Y-97995157D01*
X133018956Y-98141237D01*
X133018955Y-98141239D01*
X132998318Y-98297998D01*
X132998318Y-98298001D01*
X133018955Y-98454760D01*
X133018956Y-98454762D01*
X133079464Y-98600842D01*
X133178965Y-98730514D01*
X133204159Y-98795683D01*
X133190121Y-98864128D01*
X133178965Y-98881486D01*
X133079464Y-99011157D01*
X133018956Y-99157237D01*
X133018955Y-99157239D01*
X132998318Y-99313998D01*
X132998318Y-99314001D01*
X133018955Y-99470760D01*
X133018956Y-99470762D01*
X133079464Y-99616842D01*
X133178965Y-99746514D01*
X133204159Y-99811683D01*
X133190121Y-99880128D01*
X133178965Y-99897486D01*
X133079464Y-100027157D01*
X133018956Y-100173237D01*
X133018955Y-100173239D01*
X132998318Y-100329998D01*
X132998318Y-100330001D01*
X133018955Y-100486760D01*
X133018956Y-100486762D01*
X133079464Y-100632842D01*
X133178965Y-100762514D01*
X133204159Y-100827683D01*
X133190121Y-100896128D01*
X133178965Y-100913486D01*
X133079464Y-101043157D01*
X133018956Y-101189237D01*
X133018955Y-101189239D01*
X132998318Y-101345998D01*
X132998318Y-101346001D01*
X133018955Y-101502760D01*
X133018956Y-101502762D01*
X133079464Y-101648842D01*
X133178965Y-101778514D01*
X133204159Y-101843683D01*
X133190121Y-101912128D01*
X133178965Y-101929486D01*
X133079464Y-102059157D01*
X133018956Y-102205237D01*
X133018955Y-102205239D01*
X132998318Y-102361998D01*
X132998318Y-102362001D01*
X133018955Y-102518760D01*
X133018956Y-102518762D01*
X133079464Y-102664842D01*
X133178965Y-102794514D01*
X133204159Y-102859683D01*
X133190121Y-102928128D01*
X133178965Y-102945486D01*
X133079464Y-103075157D01*
X133018956Y-103221237D01*
X133018955Y-103221239D01*
X132998318Y-103377998D01*
X132998318Y-103378001D01*
X133018955Y-103534760D01*
X133018956Y-103534762D01*
X133079464Y-103680842D01*
X133178965Y-103810514D01*
X133204159Y-103875683D01*
X133190121Y-103944128D01*
X133178965Y-103961486D01*
X133079464Y-104091157D01*
X133018956Y-104237237D01*
X133018955Y-104237239D01*
X132998318Y-104393998D01*
X132998318Y-104394001D01*
X133018955Y-104550760D01*
X133018956Y-104550762D01*
X133079464Y-104696842D01*
X133178965Y-104826514D01*
X133204159Y-104891683D01*
X133190121Y-104960128D01*
X133178965Y-104977486D01*
X133079464Y-105107157D01*
X133018956Y-105253237D01*
X133018955Y-105253239D01*
X132998318Y-105409998D01*
X132998318Y-105410001D01*
X133018955Y-105566760D01*
X133018956Y-105566762D01*
X133079464Y-105712842D01*
X133178965Y-105842514D01*
X133204159Y-105907683D01*
X133190121Y-105976128D01*
X133178965Y-105993486D01*
X133079464Y-106123157D01*
X133018956Y-106269237D01*
X133018955Y-106269239D01*
X132998318Y-106425998D01*
X132998318Y-106426001D01*
X133018955Y-106582760D01*
X133018956Y-106582762D01*
X133079464Y-106728842D01*
X133178965Y-106858514D01*
X133204159Y-106923683D01*
X133190121Y-106992128D01*
X133178965Y-107009486D01*
X133079464Y-107139157D01*
X133018956Y-107285237D01*
X133018955Y-107285239D01*
X132998318Y-107441998D01*
X132998318Y-107442001D01*
X133018955Y-107598760D01*
X133018956Y-107598762D01*
X133079464Y-107744842D01*
X133178965Y-107874514D01*
X133204159Y-107939683D01*
X133190121Y-108008128D01*
X133178965Y-108025486D01*
X133079464Y-108155157D01*
X133018956Y-108301237D01*
X133018955Y-108301239D01*
X132998318Y-108457998D01*
X132998318Y-108458001D01*
X133018955Y-108614760D01*
X133018956Y-108614762D01*
X133079464Y-108760842D01*
X133178965Y-108890514D01*
X133204159Y-108955683D01*
X133190121Y-109024128D01*
X133178965Y-109041486D01*
X133079464Y-109171157D01*
X133018956Y-109317237D01*
X133018955Y-109317239D01*
X132998318Y-109473998D01*
X132998318Y-109474001D01*
X133018955Y-109630760D01*
X133018956Y-109630762D01*
X133079464Y-109776842D01*
X133178965Y-109906514D01*
X133204159Y-109971683D01*
X133190121Y-110040128D01*
X133178965Y-110057486D01*
X133079464Y-110187157D01*
X133018956Y-110333237D01*
X133018955Y-110333239D01*
X132998318Y-110489998D01*
X132998318Y-110490001D01*
X133018955Y-110646760D01*
X133018956Y-110646762D01*
X133079464Y-110792841D01*
X133175718Y-110918282D01*
X133301159Y-111014536D01*
X133447238Y-111075044D01*
X133519732Y-111084588D01*
X133603999Y-111095682D01*
X133604000Y-111095682D01*
X133604001Y-111095682D01*
X133656254Y-111088802D01*
X133760762Y-111075044D01*
X133906841Y-111014536D01*
X134032282Y-110918282D01*
X134128536Y-110792841D01*
X134189044Y-110646762D01*
X134209682Y-110490000D01*
X134209682Y-110489998D01*
X144428318Y-110489998D01*
X144428318Y-110490001D01*
X144448955Y-110646760D01*
X144448956Y-110646762D01*
X144509464Y-110792841D01*
X144605718Y-110918282D01*
X144731159Y-111014536D01*
X144877238Y-111075044D01*
X144949732Y-111084588D01*
X145033999Y-111095682D01*
X145034000Y-111095682D01*
X145034001Y-111095682D01*
X145086254Y-111088802D01*
X145190762Y-111075044D01*
X145336841Y-111014536D01*
X145462282Y-110918282D01*
X145558536Y-110792841D01*
X145619044Y-110646762D01*
X145639682Y-110490000D01*
X145634968Y-110454197D01*
X145619044Y-110333239D01*
X145619044Y-110333238D01*
X145558536Y-110187159D01*
X145462282Y-110061718D01*
X145336841Y-109965464D01*
X145190762Y-109904956D01*
X145190760Y-109904955D01*
X145034001Y-109884318D01*
X145033999Y-109884318D01*
X144877239Y-109904955D01*
X144877237Y-109904956D01*
X144731160Y-109965463D01*
X144605718Y-110061718D01*
X144509463Y-110187160D01*
X144448956Y-110333237D01*
X144448955Y-110333239D01*
X144428318Y-110489998D01*
X134209682Y-110489998D01*
X134204968Y-110454197D01*
X134189044Y-110333239D01*
X134189044Y-110333238D01*
X134128536Y-110187159D01*
X134032282Y-110061718D01*
X134032278Y-110061715D01*
X134029034Y-110057487D01*
X134003840Y-109992318D01*
X134017878Y-109923873D01*
X134029034Y-109906513D01*
X134032278Y-109902284D01*
X134032282Y-109902282D01*
X134128536Y-109776841D01*
X134189044Y-109630762D01*
X134209682Y-109474000D01*
X134189044Y-109317238D01*
X134128536Y-109171159D01*
X134032282Y-109045718D01*
X134032278Y-109045715D01*
X134029034Y-109041487D01*
X134003840Y-108976318D01*
X134017878Y-108907873D01*
X134029034Y-108890513D01*
X134032278Y-108886284D01*
X134032282Y-108886282D01*
X134128536Y-108760841D01*
X134189044Y-108614762D01*
X134209682Y-108458000D01*
X134209682Y-108457998D01*
X144428318Y-108457998D01*
X144428318Y-108458001D01*
X144448955Y-108614760D01*
X144448956Y-108614762D01*
X144509464Y-108760841D01*
X144605718Y-108886282D01*
X144731159Y-108982536D01*
X144877238Y-109043044D01*
X144955619Y-109053363D01*
X145033999Y-109063682D01*
X145034000Y-109063682D01*
X145034001Y-109063682D01*
X145086254Y-109056802D01*
X145190762Y-109043044D01*
X145336841Y-108982536D01*
X145358394Y-108965998D01*
X163986318Y-108965998D01*
X163986318Y-108966001D01*
X164006955Y-109122760D01*
X164006956Y-109122762D01*
X164067464Y-109268841D01*
X164163718Y-109394282D01*
X164289159Y-109490536D01*
X164435238Y-109551044D01*
X164513619Y-109561363D01*
X164591999Y-109571682D01*
X164592000Y-109571682D01*
X164592001Y-109571682D01*
X164655425Y-109563332D01*
X164748762Y-109551044D01*
X164894841Y-109490536D01*
X165020282Y-109394282D01*
X165116536Y-109268841D01*
X165177044Y-109122762D01*
X165197682Y-108966000D01*
X165190029Y-108907873D01*
X165177044Y-108809239D01*
X165177044Y-108809238D01*
X165116536Y-108663159D01*
X165020282Y-108537718D01*
X164894841Y-108441464D01*
X164748762Y-108380956D01*
X164748760Y-108380955D01*
X164592001Y-108360318D01*
X164591999Y-108360318D01*
X164435239Y-108380955D01*
X164435237Y-108380956D01*
X164289160Y-108441463D01*
X164163718Y-108537718D01*
X164067463Y-108663160D01*
X164006956Y-108809237D01*
X164006955Y-108809239D01*
X163986318Y-108965998D01*
X145358394Y-108965998D01*
X145462282Y-108886282D01*
X145558536Y-108760841D01*
X145619044Y-108614762D01*
X145639682Y-108458000D01*
X145619044Y-108301238D01*
X145558536Y-108155159D01*
X145462282Y-108029718D01*
X145336841Y-107933464D01*
X145190762Y-107872956D01*
X145190760Y-107872955D01*
X145034001Y-107852318D01*
X145033999Y-107852318D01*
X144877239Y-107872955D01*
X144877237Y-107872956D01*
X144731160Y-107933463D01*
X144605718Y-108029718D01*
X144509463Y-108155160D01*
X144448956Y-108301237D01*
X144448955Y-108301239D01*
X144428318Y-108457998D01*
X134209682Y-108457998D01*
X134189044Y-108301238D01*
X134128536Y-108155159D01*
X134032282Y-108029718D01*
X134032278Y-108029715D01*
X134029034Y-108025487D01*
X134003840Y-107960318D01*
X134017878Y-107891873D01*
X134029034Y-107874513D01*
X134032278Y-107870284D01*
X134032282Y-107870282D01*
X134128536Y-107744841D01*
X134189044Y-107598762D01*
X134209682Y-107442000D01*
X134189044Y-107285238D01*
X134128536Y-107139159D01*
X134032282Y-107013718D01*
X134032278Y-107013715D01*
X134029034Y-107009487D01*
X134003840Y-106944318D01*
X134017878Y-106875873D01*
X134029034Y-106858513D01*
X134032278Y-106854284D01*
X134032282Y-106854282D01*
X134128536Y-106728841D01*
X134189044Y-106582762D01*
X134209682Y-106426000D01*
X134209682Y-106425998D01*
X144428318Y-106425998D01*
X144428318Y-106426001D01*
X144448955Y-106582760D01*
X144448956Y-106582762D01*
X144509464Y-106728841D01*
X144605718Y-106854282D01*
X144731159Y-106950536D01*
X144877238Y-107011044D01*
X144955619Y-107021363D01*
X145033999Y-107031682D01*
X145034000Y-107031682D01*
X145034001Y-107031682D01*
X145086254Y-107024802D01*
X145190762Y-107011044D01*
X145336841Y-106950536D01*
X145462282Y-106854282D01*
X145558536Y-106728841D01*
X145619044Y-106582762D01*
X145639682Y-106426000D01*
X145619044Y-106269238D01*
X145558536Y-106123159D01*
X145462282Y-105997718D01*
X145336841Y-105901464D01*
X145190762Y-105840956D01*
X145190760Y-105840955D01*
X145034001Y-105820318D01*
X145033999Y-105820318D01*
X144877239Y-105840955D01*
X144877237Y-105840956D01*
X144731160Y-105901463D01*
X144605718Y-105997718D01*
X144509463Y-106123160D01*
X144448956Y-106269237D01*
X144448955Y-106269239D01*
X144428318Y-106425998D01*
X134209682Y-106425998D01*
X134189044Y-106269238D01*
X134128536Y-106123159D01*
X134032282Y-105997718D01*
X134032278Y-105997715D01*
X134029034Y-105993487D01*
X134003840Y-105928318D01*
X134017878Y-105859873D01*
X134029034Y-105842513D01*
X134032278Y-105838284D01*
X134032282Y-105838282D01*
X134128536Y-105712841D01*
X134189044Y-105566762D01*
X134209682Y-105410000D01*
X134189044Y-105253238D01*
X134128536Y-105107159D01*
X134032282Y-104981718D01*
X134032278Y-104981715D01*
X134029034Y-104977487D01*
X134003840Y-104912318D01*
X134017878Y-104843873D01*
X134029034Y-104826513D01*
X134032278Y-104822284D01*
X134032282Y-104822282D01*
X134128536Y-104696841D01*
X134189044Y-104550762D01*
X134209682Y-104394000D01*
X134209682Y-104393998D01*
X144428318Y-104393998D01*
X144428318Y-104394001D01*
X144448955Y-104550760D01*
X144448956Y-104550762D01*
X144509464Y-104696841D01*
X144605718Y-104822282D01*
X144731159Y-104918536D01*
X144877238Y-104979044D01*
X144955619Y-104989363D01*
X145033999Y-104999682D01*
X145034000Y-104999682D01*
X145034001Y-104999682D01*
X145086254Y-104992802D01*
X145190762Y-104979044D01*
X145336841Y-104918536D01*
X145462282Y-104822282D01*
X145558536Y-104696841D01*
X145619044Y-104550762D01*
X145639682Y-104394000D01*
X145619044Y-104237238D01*
X145558536Y-104091159D01*
X145462282Y-103965718D01*
X145336841Y-103869464D01*
X145190762Y-103808956D01*
X145190760Y-103808955D01*
X145034001Y-103788318D01*
X145033999Y-103788318D01*
X144877239Y-103808955D01*
X144877237Y-103808956D01*
X144731160Y-103869463D01*
X144605718Y-103965718D01*
X144509463Y-104091160D01*
X144448956Y-104237237D01*
X144448955Y-104237239D01*
X144428318Y-104393998D01*
X134209682Y-104393998D01*
X134189044Y-104237238D01*
X134128536Y-104091159D01*
X134032282Y-103965718D01*
X134032278Y-103965715D01*
X134029034Y-103961487D01*
X134003840Y-103896318D01*
X134017878Y-103827873D01*
X134029034Y-103810513D01*
X134032278Y-103806284D01*
X134032282Y-103806282D01*
X134128536Y-103680841D01*
X134189044Y-103534762D01*
X134209682Y-103378000D01*
X134189044Y-103221238D01*
X134128536Y-103075159D01*
X134032282Y-102949718D01*
X134032278Y-102949715D01*
X134029034Y-102945487D01*
X134003840Y-102880318D01*
X134017878Y-102811873D01*
X134029034Y-102794513D01*
X134032278Y-102790284D01*
X134032282Y-102790282D01*
X134128536Y-102664841D01*
X134189044Y-102518762D01*
X134209682Y-102362000D01*
X134209682Y-102361998D01*
X144428318Y-102361998D01*
X144428318Y-102362001D01*
X144448955Y-102518760D01*
X144448956Y-102518762D01*
X144509464Y-102664841D01*
X144605718Y-102790282D01*
X144731159Y-102886536D01*
X144877238Y-102947044D01*
X144955619Y-102957363D01*
X145033999Y-102967682D01*
X145034000Y-102967682D01*
X145034001Y-102967682D01*
X145086254Y-102960802D01*
X145190762Y-102947044D01*
X145336841Y-102886536D01*
X145462282Y-102790282D01*
X145558536Y-102664841D01*
X145619044Y-102518762D01*
X145639682Y-102362000D01*
X145619044Y-102205238D01*
X145558536Y-102059159D01*
X145462282Y-101933718D01*
X145336841Y-101837464D01*
X145190762Y-101776956D01*
X145190760Y-101776955D01*
X145034001Y-101756318D01*
X145033999Y-101756318D01*
X144877239Y-101776955D01*
X144877237Y-101776956D01*
X144731160Y-101837463D01*
X144605718Y-101933718D01*
X144509463Y-102059160D01*
X144448956Y-102205237D01*
X144448955Y-102205239D01*
X144428318Y-102361998D01*
X134209682Y-102361998D01*
X134189044Y-102205238D01*
X134128536Y-102059159D01*
X134032282Y-101933718D01*
X134032278Y-101933715D01*
X134029034Y-101929487D01*
X134003840Y-101864318D01*
X134017878Y-101795873D01*
X134029034Y-101778513D01*
X134032278Y-101774284D01*
X134032282Y-101774282D01*
X134128536Y-101648841D01*
X134189044Y-101502762D01*
X134209682Y-101346000D01*
X134189044Y-101189238D01*
X134128536Y-101043159D01*
X134032282Y-100917718D01*
X134032278Y-100917715D01*
X134029034Y-100913487D01*
X134003840Y-100848318D01*
X134017878Y-100779873D01*
X134029034Y-100762513D01*
X134032278Y-100758284D01*
X134032282Y-100758282D01*
X134128536Y-100632841D01*
X134189044Y-100486762D01*
X134209682Y-100330000D01*
X134209682Y-100329998D01*
X144428318Y-100329998D01*
X144428318Y-100330001D01*
X144448955Y-100486760D01*
X144448956Y-100486762D01*
X144509464Y-100632841D01*
X144605718Y-100758282D01*
X144731159Y-100854536D01*
X144877238Y-100915044D01*
X144955619Y-100925363D01*
X145033999Y-100935682D01*
X145034000Y-100935682D01*
X145034001Y-100935682D01*
X145086254Y-100928802D01*
X145190762Y-100915044D01*
X145336841Y-100854536D01*
X145462282Y-100758282D01*
X145558536Y-100632841D01*
X145619044Y-100486762D01*
X145639682Y-100330000D01*
X145619044Y-100173238D01*
X145558536Y-100027159D01*
X145462282Y-99901718D01*
X145336841Y-99805464D01*
X145190762Y-99744956D01*
X145190760Y-99744955D01*
X145034001Y-99724318D01*
X145033999Y-99724318D01*
X144877239Y-99744955D01*
X144877237Y-99744956D01*
X144731160Y-99805463D01*
X144605718Y-99901718D01*
X144509463Y-100027160D01*
X144448956Y-100173237D01*
X144448955Y-100173239D01*
X144428318Y-100329998D01*
X134209682Y-100329998D01*
X134189044Y-100173238D01*
X134128536Y-100027159D01*
X134032282Y-99901718D01*
X134032278Y-99901715D01*
X134029034Y-99897487D01*
X134003840Y-99832318D01*
X134017878Y-99763873D01*
X134029034Y-99746513D01*
X134032278Y-99742284D01*
X134032282Y-99742282D01*
X134128536Y-99616841D01*
X134189044Y-99470762D01*
X134209682Y-99314000D01*
X134189044Y-99157238D01*
X134128536Y-99011159D01*
X134032282Y-98885718D01*
X134032278Y-98885715D01*
X134029034Y-98881487D01*
X134003840Y-98816318D01*
X134017878Y-98747873D01*
X134029034Y-98730513D01*
X134032278Y-98726284D01*
X134032282Y-98726282D01*
X134128536Y-98600841D01*
X134189044Y-98454762D01*
X134209682Y-98298000D01*
X134209682Y-98297998D01*
X144428318Y-98297998D01*
X144428318Y-98298001D01*
X144448955Y-98454760D01*
X144448956Y-98454762D01*
X144490019Y-98553898D01*
X144509464Y-98600841D01*
X144605718Y-98726282D01*
X144731159Y-98822536D01*
X144877238Y-98883044D01*
X144955619Y-98893363D01*
X145033999Y-98903682D01*
X145034000Y-98903682D01*
X145034001Y-98903682D01*
X145086254Y-98896802D01*
X145190762Y-98883044D01*
X145336841Y-98822536D01*
X145462282Y-98726282D01*
X145558536Y-98600841D01*
X145619044Y-98454762D01*
X145639682Y-98298000D01*
X145619044Y-98141238D01*
X145558536Y-97995159D01*
X145462282Y-97869718D01*
X145336841Y-97773464D01*
X145190762Y-97712956D01*
X145190760Y-97712955D01*
X145034001Y-97692318D01*
X145033999Y-97692318D01*
X144877239Y-97712955D01*
X144877237Y-97712956D01*
X144731160Y-97773463D01*
X144605718Y-97869718D01*
X144509463Y-97995160D01*
X144448956Y-98141237D01*
X144448955Y-98141239D01*
X144428318Y-98297998D01*
X134209682Y-98297998D01*
X134189044Y-98141238D01*
X134128536Y-97995159D01*
X134032282Y-97869718D01*
X134032278Y-97869715D01*
X134029034Y-97865487D01*
X134003840Y-97800318D01*
X134017878Y-97731873D01*
X134029034Y-97714513D01*
X134032278Y-97710284D01*
X134032282Y-97710282D01*
X134128536Y-97584841D01*
X134189044Y-97438762D01*
X134209682Y-97282000D01*
X134209614Y-97281487D01*
X134189044Y-97125239D01*
X134189044Y-97125238D01*
X134128536Y-96979159D01*
X134032282Y-96853718D01*
X134032278Y-96853715D01*
X134029034Y-96849487D01*
X134003840Y-96784318D01*
X134017878Y-96715873D01*
X134029034Y-96698513D01*
X134032278Y-96694284D01*
X134032282Y-96694282D01*
X134128536Y-96568841D01*
X134189044Y-96422762D01*
X134209682Y-96266000D01*
X134209682Y-96265998D01*
X144428318Y-96265998D01*
X144428318Y-96266001D01*
X144448955Y-96422760D01*
X144448956Y-96422762D01*
X144509464Y-96568841D01*
X144605718Y-96694282D01*
X144731159Y-96790536D01*
X144877238Y-96851044D01*
X144955619Y-96861363D01*
X145033999Y-96871682D01*
X145034000Y-96871682D01*
X145034001Y-96871682D01*
X145086254Y-96864802D01*
X145190762Y-96851044D01*
X145336841Y-96790536D01*
X145462282Y-96694282D01*
X145558536Y-96568841D01*
X145619044Y-96422762D01*
X145639682Y-96266000D01*
X145634982Y-96230303D01*
X145619044Y-96109239D01*
X145619044Y-96109238D01*
X145558536Y-95963159D01*
X145462282Y-95837718D01*
X145336841Y-95741464D01*
X145190762Y-95680956D01*
X145190760Y-95680955D01*
X145034001Y-95660318D01*
X145033999Y-95660318D01*
X144877239Y-95680955D01*
X144877237Y-95680956D01*
X144731160Y-95741463D01*
X144605718Y-95837718D01*
X144509463Y-95963160D01*
X144448956Y-96109237D01*
X144448955Y-96109239D01*
X144428318Y-96265998D01*
X134209682Y-96265998D01*
X134204982Y-96230303D01*
X134189044Y-96109239D01*
X134189044Y-96109238D01*
X134128536Y-95963159D01*
X134032282Y-95837718D01*
X134032278Y-95837715D01*
X134029034Y-95833487D01*
X134003840Y-95768318D01*
X134017878Y-95699873D01*
X134029034Y-95682513D01*
X134032278Y-95678284D01*
X134032282Y-95678282D01*
X134128536Y-95552841D01*
X134189044Y-95406762D01*
X134209682Y-95250000D01*
X134189044Y-95093238D01*
X134128536Y-94947159D01*
X134032282Y-94821718D01*
X134032278Y-94821715D01*
X134029034Y-94817487D01*
X134003840Y-94752318D01*
X134017878Y-94683873D01*
X134029034Y-94666513D01*
X134032278Y-94662284D01*
X134032282Y-94662282D01*
X134128536Y-94536841D01*
X134189044Y-94390762D01*
X134209682Y-94234000D01*
X134209682Y-94233998D01*
X144428318Y-94233998D01*
X144428318Y-94234001D01*
X144448955Y-94390760D01*
X144448956Y-94390762D01*
X144509464Y-94536841D01*
X144605718Y-94662282D01*
X144731159Y-94758536D01*
X144877238Y-94819044D01*
X144955619Y-94829363D01*
X145033999Y-94839682D01*
X145034000Y-94839682D01*
X145034001Y-94839682D01*
X145086254Y-94832802D01*
X145190762Y-94819044D01*
X145336841Y-94758536D01*
X145462282Y-94662282D01*
X145558536Y-94536841D01*
X145619044Y-94390762D01*
X145639682Y-94234000D01*
X145619044Y-94077238D01*
X145558536Y-93931159D01*
X145462282Y-93805718D01*
X145336841Y-93709464D01*
X145289515Y-93689861D01*
X145190762Y-93648956D01*
X145190760Y-93648955D01*
X145034001Y-93628318D01*
X145033999Y-93628318D01*
X144877239Y-93648955D01*
X144877237Y-93648956D01*
X144731160Y-93709463D01*
X144605718Y-93805718D01*
X144509463Y-93931160D01*
X144448956Y-94077237D01*
X144448955Y-94077239D01*
X144428318Y-94233998D01*
X134209682Y-94233998D01*
X134189044Y-94077238D01*
X134128536Y-93931159D01*
X134032282Y-93805718D01*
X134032278Y-93805715D01*
X134029034Y-93801487D01*
X134003840Y-93736318D01*
X134017878Y-93667873D01*
X134029034Y-93650513D01*
X134032278Y-93646284D01*
X134032282Y-93646282D01*
X134128536Y-93520841D01*
X134189044Y-93374762D01*
X134209682Y-93218000D01*
X134189044Y-93061238D01*
X134128536Y-92915159D01*
X134032282Y-92789718D01*
X134032278Y-92789715D01*
X134029034Y-92785487D01*
X134003840Y-92720318D01*
X134017878Y-92651873D01*
X134029034Y-92634513D01*
X134032278Y-92630284D01*
X134032282Y-92630282D01*
X134128536Y-92504841D01*
X134189044Y-92358762D01*
X134209682Y-92202000D01*
X134189044Y-92045238D01*
X134128536Y-91899159D01*
X134032282Y-91773718D01*
X134032278Y-91773715D01*
X134029034Y-91769487D01*
X134003840Y-91704318D01*
X134017878Y-91635873D01*
X134029034Y-91618513D01*
X134032278Y-91614284D01*
X134032282Y-91614282D01*
X134128536Y-91488841D01*
X134189044Y-91342762D01*
X134209682Y-91186000D01*
X134205692Y-91155696D01*
X134189044Y-91029239D01*
X134189044Y-91029238D01*
X134128536Y-90883159D01*
X134079855Y-90819716D01*
X134054662Y-90754550D01*
X134068700Y-90686105D01*
X134117514Y-90636115D01*
X134185605Y-90620451D01*
X134251356Y-90644087D01*
X134253670Y-90645819D01*
X134317159Y-90694536D01*
X134463238Y-90755044D01*
X134534684Y-90764450D01*
X134619999Y-90775682D01*
X134620000Y-90775682D01*
X134620001Y-90775682D01*
X134684116Y-90767241D01*
X134776762Y-90755044D01*
X134922841Y-90694536D01*
X135048282Y-90598282D01*
X135048284Y-90598278D01*
X135052513Y-90595034D01*
X135117682Y-90569840D01*
X135186127Y-90583878D01*
X135203487Y-90595034D01*
X135207715Y-90598278D01*
X135207718Y-90598282D01*
X135333159Y-90694536D01*
X135479238Y-90755044D01*
X135550684Y-90764450D01*
X135635999Y-90775682D01*
X135636000Y-90775682D01*
X135636001Y-90775682D01*
X135700116Y-90767241D01*
X135792762Y-90755044D01*
X135938841Y-90694536D01*
X136064282Y-90598282D01*
X136064284Y-90598278D01*
X136068513Y-90595034D01*
X136133682Y-90569840D01*
X136202127Y-90583878D01*
X136219487Y-90595034D01*
X136223715Y-90598278D01*
X136223718Y-90598282D01*
X136349159Y-90694536D01*
X136495238Y-90755044D01*
X136566684Y-90764450D01*
X136651999Y-90775682D01*
X136652000Y-90775682D01*
X136652001Y-90775682D01*
X136716116Y-90767241D01*
X136808762Y-90755044D01*
X136954841Y-90694536D01*
X137080282Y-90598282D01*
X137176536Y-90472841D01*
X137237044Y-90326762D01*
X137257682Y-90170000D01*
X137237044Y-90013238D01*
X137195305Y-89912473D01*
X137187837Y-89843004D01*
X137219112Y-89780525D01*
X137279201Y-89744873D01*
X137293676Y-89742083D01*
X137316762Y-89739044D01*
X137462841Y-89678536D01*
X137588282Y-89582282D01*
X137588284Y-89582278D01*
X137592513Y-89579034D01*
X137657682Y-89553840D01*
X137726127Y-89567878D01*
X137743487Y-89579034D01*
X137747715Y-89582278D01*
X137747718Y-89582282D01*
X137873159Y-89678536D01*
X138019238Y-89739044D01*
X138063514Y-89744873D01*
X138175999Y-89759682D01*
X138176000Y-89759682D01*
X138176001Y-89759682D01*
X138249345Y-89750026D01*
X138332762Y-89739044D01*
X138478841Y-89678536D01*
X138604282Y-89582282D01*
X138604284Y-89582278D01*
X138608513Y-89579034D01*
X138673682Y-89553840D01*
X138742127Y-89567878D01*
X138759487Y-89579034D01*
X138763715Y-89582278D01*
X138763718Y-89582282D01*
X138889159Y-89678536D01*
X139035238Y-89739044D01*
X139079514Y-89744873D01*
X139191999Y-89759682D01*
X139192000Y-89759682D01*
X139192001Y-89759682D01*
X139265345Y-89750026D01*
X139348762Y-89739044D01*
X139494841Y-89678536D01*
X139620282Y-89582282D01*
X139620284Y-89582278D01*
X139624513Y-89579034D01*
X139689682Y-89553840D01*
X139758127Y-89567878D01*
X139775487Y-89579034D01*
X139779715Y-89582278D01*
X139779718Y-89582282D01*
X139905159Y-89678536D01*
X140051238Y-89739044D01*
X140095514Y-89744873D01*
X140207999Y-89759682D01*
X140208000Y-89759682D01*
X140208001Y-89759682D01*
X140281345Y-89750026D01*
X140364762Y-89739044D01*
X140510841Y-89678536D01*
X140636282Y-89582282D01*
X140636284Y-89582278D01*
X140640513Y-89579034D01*
X140705682Y-89553840D01*
X140774127Y-89567878D01*
X140791487Y-89579034D01*
X140795715Y-89582278D01*
X140795718Y-89582282D01*
X140921159Y-89678536D01*
X141067238Y-89739044D01*
X141111514Y-89744873D01*
X141223999Y-89759682D01*
X141224000Y-89759682D01*
X141224001Y-89759682D01*
X141297345Y-89750026D01*
X141380762Y-89739044D01*
X141526841Y-89678536D01*
X141652282Y-89582282D01*
X141652284Y-89582278D01*
X141656513Y-89579034D01*
X141721682Y-89553840D01*
X141790127Y-89567878D01*
X141807487Y-89579034D01*
X141811715Y-89582278D01*
X141811718Y-89582282D01*
X141937159Y-89678536D01*
X142083238Y-89739044D01*
X142106316Y-89742082D01*
X142170213Y-89770348D01*
X142208685Y-89828672D01*
X142209517Y-89898537D01*
X142204693Y-89912473D01*
X142162957Y-90013234D01*
X142162955Y-90013239D01*
X142142318Y-90169998D01*
X142142318Y-90170001D01*
X142162955Y-90326760D01*
X142162956Y-90326762D01*
X142196383Y-90407463D01*
X142223464Y-90472841D01*
X142319718Y-90598282D01*
X142445159Y-90694536D01*
X142591238Y-90755044D01*
X142662684Y-90764450D01*
X142747999Y-90775682D01*
X142748000Y-90775682D01*
X142748001Y-90775682D01*
X142812116Y-90767241D01*
X142904762Y-90755044D01*
X143050841Y-90694536D01*
X143176282Y-90598282D01*
X143176284Y-90598278D01*
X143180513Y-90595034D01*
X143245682Y-90569840D01*
X143314127Y-90583878D01*
X143331487Y-90595034D01*
X143335715Y-90598278D01*
X143335718Y-90598282D01*
X143461159Y-90694536D01*
X143607238Y-90755044D01*
X143678684Y-90764450D01*
X143763999Y-90775682D01*
X143764000Y-90775682D01*
X143764001Y-90775682D01*
X143828116Y-90767241D01*
X143920762Y-90755044D01*
X144066841Y-90694536D01*
X144192282Y-90598282D01*
X144192284Y-90598278D01*
X144196513Y-90595034D01*
X144261682Y-90569840D01*
X144330127Y-90583878D01*
X144347487Y-90595034D01*
X144351715Y-90598278D01*
X144351718Y-90598282D01*
X144477159Y-90694536D01*
X144477162Y-90694537D01*
X144477388Y-90694668D01*
X144477541Y-90694829D01*
X144483608Y-90699484D01*
X144482882Y-90700429D01*
X144525607Y-90745232D01*
X144538834Y-90813838D01*
X144513773Y-90877543D01*
X144509464Y-90883158D01*
X144448956Y-91029237D01*
X144448955Y-91029239D01*
X144428318Y-91185998D01*
X144428318Y-91186001D01*
X144448955Y-91342760D01*
X144448956Y-91342762D01*
X144509464Y-91488842D01*
X144608965Y-91618514D01*
X144634159Y-91683683D01*
X144620121Y-91752128D01*
X144608965Y-91769486D01*
X144509464Y-91899157D01*
X144448956Y-92045237D01*
X144448955Y-92045239D01*
X144428318Y-92201998D01*
X144428318Y-92202001D01*
X144448955Y-92358760D01*
X144448956Y-92358762D01*
X144509464Y-92504841D01*
X144605718Y-92630282D01*
X144731159Y-92726536D01*
X144877238Y-92787044D01*
X144955619Y-92797363D01*
X145033999Y-92807682D01*
X145034000Y-92807682D01*
X145034001Y-92807682D01*
X145086254Y-92800802D01*
X145190762Y-92787044D01*
X145336841Y-92726536D01*
X145462282Y-92630282D01*
X145558536Y-92504841D01*
X145619044Y-92358762D01*
X145639682Y-92202000D01*
X145619044Y-92045238D01*
X145558536Y-91899159D01*
X145462282Y-91773718D01*
X145462278Y-91773715D01*
X145459034Y-91769487D01*
X145433840Y-91704318D01*
X145447878Y-91635873D01*
X145459034Y-91618513D01*
X145462278Y-91614284D01*
X145462282Y-91614282D01*
X145558536Y-91488841D01*
X145619044Y-91342762D01*
X145639682Y-91186000D01*
X145635692Y-91155696D01*
X145619044Y-91029239D01*
X145619044Y-91029238D01*
X145579942Y-90934839D01*
X145579637Y-90931998D01*
X160430318Y-90931998D01*
X160430318Y-90932001D01*
X160450955Y-91088760D01*
X160450956Y-91088762D01*
X160491232Y-91185998D01*
X160511464Y-91234841D01*
X160607718Y-91360282D01*
X160733159Y-91456536D01*
X160879238Y-91517044D01*
X160957619Y-91527363D01*
X161035999Y-91537682D01*
X161036000Y-91537682D01*
X161036001Y-91537682D01*
X161088254Y-91530802D01*
X161192762Y-91517044D01*
X161338841Y-91456536D01*
X161464282Y-91360282D01*
X161560536Y-91234841D01*
X161621044Y-91088762D01*
X161641682Y-90932000D01*
X161632910Y-90865373D01*
X161621044Y-90775239D01*
X161621044Y-90775238D01*
X161560536Y-90629159D01*
X161464282Y-90503718D01*
X161338841Y-90407464D01*
X161192762Y-90346956D01*
X161192760Y-90346955D01*
X161036001Y-90326318D01*
X161035999Y-90326318D01*
X160879239Y-90346955D01*
X160879237Y-90346956D01*
X160733160Y-90407463D01*
X160607718Y-90503718D01*
X160511463Y-90629160D01*
X160450956Y-90775237D01*
X160450955Y-90775239D01*
X160430318Y-90931998D01*
X145579637Y-90931998D01*
X145572474Y-90865373D01*
X145603749Y-90802894D01*
X145663837Y-90767241D01*
X145710685Y-90764450D01*
X145796000Y-90775682D01*
X145796001Y-90775682D01*
X145860116Y-90767241D01*
X145952762Y-90755044D01*
X146098841Y-90694536D01*
X146224282Y-90598282D01*
X146320536Y-90472841D01*
X146381044Y-90326762D01*
X146401682Y-90170000D01*
X146381044Y-90013238D01*
X146339305Y-89912473D01*
X146331837Y-89843004D01*
X146363112Y-89780525D01*
X146423201Y-89744873D01*
X146437676Y-89742083D01*
X146460762Y-89739044D01*
X146606841Y-89678536D01*
X146732282Y-89582282D01*
X146828536Y-89456841D01*
X146889044Y-89310762D01*
X146909682Y-89154000D01*
X146889044Y-88997238D01*
X146828536Y-88851159D01*
X146732282Y-88725718D01*
X146606841Y-88629464D01*
X146460762Y-88568956D01*
X146441750Y-88566453D01*
X146437679Y-88565917D01*
X146373783Y-88537649D01*
X146335313Y-88479324D01*
X146334483Y-88409459D01*
X146339306Y-88395526D01*
X146381044Y-88294762D01*
X146387488Y-88245813D01*
X146415755Y-88181918D01*
X146474079Y-88143447D01*
X146510427Y-88138000D01*
X176883591Y-88138000D01*
X176950630Y-88157685D01*
X176996385Y-88210489D01*
X177006329Y-88279647D01*
X176989339Y-88326755D01*
X176906282Y-88462391D01*
X176881068Y-88503567D01*
X176878854Y-88507051D01*
X176285558Y-89407195D01*
X176283228Y-89410605D01*
X175660305Y-90290478D01*
X175657864Y-90293807D01*
X175005994Y-91152449D01*
X175003443Y-91155696D01*
X174323334Y-91992174D01*
X174320676Y-91995334D01*
X173613102Y-92808696D01*
X173610340Y-92811766D01*
X172876084Y-93601114D01*
X172873222Y-93604090D01*
X172113080Y-94368567D01*
X172110120Y-94371446D01*
X171324959Y-95110177D01*
X171321905Y-95112956D01*
X170512707Y-95825028D01*
X170511171Y-95826358D01*
X170505487Y-95831196D01*
X170459947Y-95869964D01*
X170459944Y-95869967D01*
X170436798Y-95889662D01*
X170436674Y-95889776D01*
X170362556Y-95952875D01*
X170362555Y-95952876D01*
X170088537Y-96230303D01*
X169839531Y-96530388D01*
X169617422Y-96850863D01*
X169423844Y-97189363D01*
X169260273Y-97543310D01*
X169260265Y-97543329D01*
X169127913Y-97910097D01*
X169127907Y-97910113D01*
X169027764Y-98286960D01*
X169010716Y-98384427D01*
X168960580Y-98671065D01*
X168931061Y-99011159D01*
X168926862Y-99059540D01*
X168926838Y-99149842D01*
X168926813Y-99150379D01*
X168926813Y-109455836D01*
X168907128Y-109522875D01*
X168854324Y-109568630D01*
X168833656Y-109575939D01*
X168780132Y-109589684D01*
X168724648Y-109603932D01*
X168586661Y-109651786D01*
X168294602Y-109753075D01*
X167878318Y-109937128D01*
X167878305Y-109937135D01*
X167478597Y-110154851D01*
X167478591Y-110154855D01*
X167098172Y-110404760D01*
X167098159Y-110404770D01*
X166739621Y-110685155D01*
X166739602Y-110685172D01*
X166405391Y-110994127D01*
X166405380Y-110994139D01*
X166097750Y-111329576D01*
X166097739Y-111329590D01*
X165854082Y-111643724D01*
X165818768Y-111689252D01*
X165618047Y-111997463D01*
X165570369Y-112070673D01*
X165354241Y-112471240D01*
X165354239Y-112471245D01*
X165171833Y-112888271D01*
X165024400Y-113318904D01*
X164912938Y-113760217D01*
X164912936Y-113760226D01*
X164838211Y-114209185D01*
X164838209Y-114209200D01*
X164838209Y-114209204D01*
X164800717Y-114662826D01*
X164800717Y-115117995D01*
X164838209Y-115571613D01*
X164838211Y-115571635D01*
X164912936Y-116020594D01*
X164912938Y-116020603D01*
X164998174Y-116358078D01*
X165024401Y-116461920D01*
X165171834Y-116892550D01*
X165354238Y-117309572D01*
X165354240Y-117309575D01*
X165354242Y-117309580D01*
X165369711Y-117338250D01*
X165570372Y-117710152D01*
X165818768Y-118091568D01*
X166090458Y-118441841D01*
X166097740Y-118451229D01*
X166097751Y-118451243D01*
X166262396Y-118630770D01*
X166405385Y-118786685D01*
X166405388Y-118786688D01*
X166405392Y-118786692D01*
X166739604Y-119095649D01*
X166739614Y-119095657D01*
X166739619Y-119095662D01*
X166756341Y-119108739D01*
X167098163Y-119376054D01*
X167098173Y-119376061D01*
X167144299Y-119406362D01*
X167189522Y-119459622D01*
X167198772Y-119528876D01*
X167169111Y-119592138D01*
X167109958Y-119629321D01*
X167076217Y-119634000D01*
X158575400Y-119634000D01*
X158508361Y-119614315D01*
X158462606Y-119561511D01*
X158451549Y-119503917D01*
X158452565Y-119483250D01*
X158433278Y-119090659D01*
X158375604Y-118701850D01*
X158280097Y-118320566D01*
X158147678Y-117950478D01*
X157979621Y-117595153D01*
X157969604Y-117578441D01*
X157825639Y-117338249D01*
X159591597Y-117338249D01*
X159591597Y-117338250D01*
X159612124Y-117559785D01*
X159612125Y-117559787D01*
X159673009Y-117773773D01*
X159673015Y-117773788D01*
X159772178Y-117972933D01*
X159772183Y-117972941D01*
X159906260Y-118150488D01*
X160070677Y-118300373D01*
X160070679Y-118300375D01*
X160259835Y-118417495D01*
X160259836Y-118417495D01*
X160259839Y-118417497D01*
X160467300Y-118497868D01*
X160685997Y-118538750D01*
X160685999Y-118538750D01*
X160908481Y-118538750D01*
X160908483Y-118538750D01*
X161127180Y-118497868D01*
X161334641Y-118417497D01*
X161523802Y-118300374D01*
X161688221Y-118150486D01*
X161822298Y-117972939D01*
X161921469Y-117773778D01*
X161982355Y-117559786D01*
X162002883Y-117338250D01*
X161982355Y-117116714D01*
X161921469Y-116902722D01*
X161916404Y-116892550D01*
X161822301Y-116703566D01*
X161822296Y-116703558D01*
X161688219Y-116526011D01*
X161523802Y-116376126D01*
X161523800Y-116376124D01*
X161334644Y-116259004D01*
X161334638Y-116259002D01*
X161127180Y-116178632D01*
X160908483Y-116137750D01*
X160685997Y-116137750D01*
X160467300Y-116178632D01*
X160336104Y-116229457D01*
X160259841Y-116259002D01*
X160259835Y-116259004D01*
X160070679Y-116376124D01*
X160070677Y-116376126D01*
X159906260Y-116526011D01*
X159772183Y-116703558D01*
X159772178Y-116703566D01*
X159673015Y-116902711D01*
X159673009Y-116902726D01*
X159612125Y-117116712D01*
X159612124Y-117116714D01*
X159591597Y-117338249D01*
X157825639Y-117338249D01*
X157777547Y-117258013D01*
X157746825Y-117216589D01*
X157543398Y-116942299D01*
X157543393Y-116942293D01*
X157279432Y-116651057D01*
X156988196Y-116387096D01*
X156949068Y-116358077D01*
X156672479Y-116152944D01*
X156664449Y-116148131D01*
X156335340Y-115950870D01*
X155980012Y-115782812D01*
X155980010Y-115782811D01*
X155609924Y-115650393D01*
X155228646Y-115554887D01*
X155228641Y-115554886D01*
X155228640Y-115554886D01*
X155084496Y-115533504D01*
X154839839Y-115497213D01*
X154839837Y-115497212D01*
X154839831Y-115497212D01*
X154447240Y-115477925D01*
X154054649Y-115497212D01*
X154054643Y-115497212D01*
X154054640Y-115497213D01*
X153665833Y-115554887D01*
X153284555Y-115650393D01*
X152914469Y-115782811D01*
X152914467Y-115782812D01*
X152559139Y-115950870D01*
X152222003Y-116152942D01*
X151906283Y-116387096D01*
X151615047Y-116651057D01*
X151351086Y-116942293D01*
X151116932Y-117258013D01*
X150914860Y-117595149D01*
X150746802Y-117950477D01*
X150746801Y-117950479D01*
X150614383Y-118320565D01*
X150518877Y-118701843D01*
X150468006Y-119044792D01*
X150461202Y-119090659D01*
X150441915Y-119483250D01*
X150442930Y-119503916D01*
X150426560Y-119571838D01*
X150376066Y-119620130D01*
X150319080Y-119634000D01*
X147615476Y-119634000D01*
X147548437Y-119614315D01*
X147502682Y-119561511D01*
X147491671Y-119503046D01*
X147492783Y-119483250D01*
X147472627Y-119124343D01*
X147412413Y-118769950D01*
X147312899Y-118424526D01*
X147175334Y-118092417D01*
X147001451Y-117777798D01*
X146793434Y-117484627D01*
X146553901Y-117216589D01*
X146285863Y-116977056D01*
X146236878Y-116942299D01*
X145992694Y-116769040D01*
X145835382Y-116682097D01*
X145678073Y-116595156D01*
X145345964Y-116457591D01*
X145345960Y-116457589D01*
X145345958Y-116457589D01*
X145000545Y-116358078D01*
X145000536Y-116358076D01*
X144646154Y-116297864D01*
X144646142Y-116297862D01*
X144287240Y-116277707D01*
X143928337Y-116297862D01*
X143928325Y-116297864D01*
X143573943Y-116358076D01*
X143573934Y-116358078D01*
X143228521Y-116457589D01*
X142896408Y-116595155D01*
X142581785Y-116769040D01*
X142288617Y-116977055D01*
X142020579Y-117216589D01*
X141781045Y-117484627D01*
X141573030Y-117777795D01*
X141399145Y-118092418D01*
X141261579Y-118424531D01*
X141162068Y-118769944D01*
X141162066Y-118769953D01*
X141101854Y-119124335D01*
X141101852Y-119124347D01*
X141081697Y-119483249D01*
X141082809Y-119503047D01*
X141066915Y-119571084D01*
X141016759Y-119619728D01*
X140959004Y-119634000D01*
X131760558Y-119634000D01*
X131693519Y-119614315D01*
X131647764Y-119561511D01*
X131637820Y-119492353D01*
X131666845Y-119428797D01*
X131691743Y-119406847D01*
X131737897Y-119376057D01*
X131801753Y-119333458D01*
X132164485Y-119044794D01*
X132501762Y-118726759D01*
X132811212Y-118381588D01*
X133090659Y-118011709D01*
X133338140Y-117619720D01*
X133484420Y-117338249D01*
X136731597Y-117338249D01*
X136731597Y-117338250D01*
X136752124Y-117559785D01*
X136752125Y-117559787D01*
X136813009Y-117773773D01*
X136813015Y-117773788D01*
X136912178Y-117972933D01*
X136912183Y-117972941D01*
X137046260Y-118150488D01*
X137210677Y-118300373D01*
X137210679Y-118300375D01*
X137399835Y-118417495D01*
X137399836Y-118417495D01*
X137399839Y-118417497D01*
X137607300Y-118497868D01*
X137825997Y-118538750D01*
X137825999Y-118538750D01*
X138048481Y-118538750D01*
X138048483Y-118538750D01*
X138267180Y-118497868D01*
X138474641Y-118417497D01*
X138663802Y-118300374D01*
X138828221Y-118150486D01*
X138962298Y-117972939D01*
X139061469Y-117773778D01*
X139122355Y-117559786D01*
X139142883Y-117338250D01*
X139122355Y-117116714D01*
X139061469Y-116902722D01*
X139056404Y-116892550D01*
X138962301Y-116703566D01*
X138962296Y-116703558D01*
X138828219Y-116526011D01*
X138663802Y-116376126D01*
X138663800Y-116376124D01*
X138474644Y-116259004D01*
X138474638Y-116259002D01*
X138267180Y-116178632D01*
X138048483Y-116137750D01*
X137825997Y-116137750D01*
X137607300Y-116178632D01*
X137476104Y-116229457D01*
X137399841Y-116259002D01*
X137399835Y-116259004D01*
X137210679Y-116376124D01*
X137210677Y-116376126D01*
X137046260Y-116526011D01*
X136912183Y-116703558D01*
X136912178Y-116703566D01*
X136813015Y-116902711D01*
X136813009Y-116902726D01*
X136752125Y-117116712D01*
X136752124Y-117116714D01*
X136731597Y-117338249D01*
X133484420Y-117338249D01*
X133551914Y-117208378D01*
X133730480Y-116780574D01*
X133872581Y-116339316D01*
X133977219Y-115887704D01*
X134043658Y-115428915D01*
X134071431Y-114966173D01*
X134061570Y-114553998D01*
X144428318Y-114553998D01*
X144428318Y-114554001D01*
X144448955Y-114710760D01*
X144448956Y-114710762D01*
X144509464Y-114856841D01*
X144605718Y-114982282D01*
X144731159Y-115078536D01*
X144877238Y-115139044D01*
X144955619Y-115149363D01*
X145033999Y-115159682D01*
X145034000Y-115159682D01*
X145034001Y-115159682D01*
X145086254Y-115152802D01*
X145190762Y-115139044D01*
X145336841Y-115078536D01*
X145462282Y-114982282D01*
X145558536Y-114856841D01*
X145619044Y-114710762D01*
X145639682Y-114554000D01*
X145619044Y-114397238D01*
X145558536Y-114251159D01*
X145462282Y-114125718D01*
X145336841Y-114029464D01*
X145266959Y-114000518D01*
X145190762Y-113968956D01*
X145190760Y-113968955D01*
X145034001Y-113948318D01*
X145033999Y-113948318D01*
X144877239Y-113968955D01*
X144877237Y-113968956D01*
X144731160Y-114029463D01*
X144605718Y-114125718D01*
X144509463Y-114251160D01*
X144448956Y-114397237D01*
X144448955Y-114397239D01*
X144428318Y-114553998D01*
X134061570Y-114553998D01*
X134060343Y-114502730D01*
X134048928Y-114397237D01*
X134010475Y-114041866D01*
X134010472Y-114041848D01*
X134010472Y-114041845D01*
X133922169Y-113586758D01*
X133796054Y-113140668D01*
X133633013Y-112706710D01*
X133545319Y-112521998D01*
X144428318Y-112521998D01*
X144428318Y-112522001D01*
X144448955Y-112678760D01*
X144448956Y-112678762D01*
X144509464Y-112824841D01*
X144605718Y-112950282D01*
X144731159Y-113046536D01*
X144877238Y-113107044D01*
X144955619Y-113117363D01*
X145033999Y-113127682D01*
X145034000Y-113127682D01*
X145034001Y-113127682D01*
X145086254Y-113120802D01*
X145190762Y-113107044D01*
X145336841Y-113046536D01*
X145462282Y-112950282D01*
X145558536Y-112824841D01*
X145619044Y-112678762D01*
X145639682Y-112522000D01*
X145619044Y-112365238D01*
X145558536Y-112219159D01*
X145462282Y-112093718D01*
X145336841Y-111997464D01*
X145308213Y-111985606D01*
X145190762Y-111936956D01*
X145190760Y-111936955D01*
X145034001Y-111916318D01*
X145033999Y-111916318D01*
X144877239Y-111936955D01*
X144877237Y-111936956D01*
X144731160Y-111997463D01*
X144605718Y-112093718D01*
X144509463Y-112219160D01*
X144448956Y-112365237D01*
X144448955Y-112365239D01*
X144428318Y-112521998D01*
X133545319Y-112521998D01*
X133434194Y-112287935D01*
X133200993Y-111887286D01*
X133153589Y-111819605D01*
X132935045Y-111507576D01*
X132638240Y-111151496D01*
X132638224Y-111151479D01*
X132312631Y-110821511D01*
X132080910Y-110623064D01*
X131960531Y-110519970D01*
X131960524Y-110519964D01*
X131960508Y-110519952D01*
X131584430Y-110248996D01*
X131584419Y-110248990D01*
X131584417Y-110248988D01*
X131584409Y-110248983D01*
X131265286Y-110057487D01*
X131186911Y-110010456D01*
X130770818Y-109806062D01*
X130567854Y-109726701D01*
X130339080Y-109637247D01*
X130339072Y-109637244D01*
X130339060Y-109637240D01*
X130179035Y-109589684D01*
X130120381Y-109551718D01*
X130091564Y-109488068D01*
X130090359Y-109470822D01*
X130090359Y-99377342D01*
X130090491Y-99161069D01*
X130090490Y-99161040D01*
X130056629Y-98770547D01*
X130056628Y-98770535D01*
X129988981Y-98384427D01*
X129888060Y-98005653D01*
X129884261Y-97995160D01*
X129826668Y-97836072D01*
X129754627Y-97637073D01*
X129664176Y-97442061D01*
X129589698Y-97281487D01*
X129589692Y-97281476D01*
X129589691Y-97281473D01*
X129416099Y-96979160D01*
X129394501Y-96941546D01*
X129394498Y-96941542D01*
X129331490Y-96851043D01*
X129170522Y-96619841D01*
X129170521Y-96619840D01*
X129170517Y-96619834D01*
X128919459Y-96318812D01*
X128919450Y-96318801D01*
X128643209Y-96040725D01*
X128643196Y-96040713D01*
X128568537Y-95977623D01*
X128567375Y-95976546D01*
X128493583Y-95914284D01*
X128492010Y-95912934D01*
X127675132Y-95199976D01*
X127672052Y-95197196D01*
X127122178Y-94683873D01*
X126880225Y-94458003D01*
X126877250Y-94455132D01*
X126812763Y-94390762D01*
X126157132Y-93736318D01*
X126110591Y-93689861D01*
X126107704Y-93686881D01*
X125668399Y-93218000D01*
X125367061Y-92896373D01*
X125364289Y-92893313D01*
X125292856Y-92811766D01*
X124650522Y-92078490D01*
X124647879Y-92075370D01*
X123961763Y-91237118D01*
X123959189Y-91233864D01*
X123686924Y-90877543D01*
X123301500Y-90373128D01*
X123299076Y-90369844D01*
X122670520Y-89487546D01*
X122668174Y-89484133D01*
X122664366Y-89478391D01*
X122069537Y-88581379D01*
X122067307Y-88577890D01*
X121912785Y-88327033D01*
X121894386Y-88259630D01*
X121915348Y-88192979D01*
X121969017Y-88148242D01*
X122018363Y-88138000D01*
X141017573Y-88138000D01*
X141084612Y-88157685D01*
G37*
%TD.AperFunction*%
%TD*%
%TA.AperFunction,Conductor*%
%TO.N,C*%
G36*
X136779000Y-74847431D02*
G01*
X136759315Y-74914470D01*
X136706511Y-74960225D01*
X136637353Y-74970169D01*
X136607548Y-74961992D01*
X136556765Y-74940957D01*
X136556760Y-74940955D01*
X136400001Y-74920318D01*
X136399999Y-74920318D01*
X136243239Y-74940955D01*
X136243237Y-74940956D01*
X136097160Y-75001463D01*
X135971718Y-75097718D01*
X135875463Y-75223160D01*
X135814956Y-75369237D01*
X135814955Y-75369239D01*
X135794318Y-75525998D01*
X135794318Y-75526001D01*
X135814955Y-75682760D01*
X135814956Y-75682762D01*
X135875464Y-75828841D01*
X135971718Y-75954282D01*
X136097159Y-76050536D01*
X136243238Y-76111044D01*
X136321619Y-76121363D01*
X136399999Y-76131682D01*
X136400000Y-76131682D01*
X136400001Y-76131682D01*
X136452254Y-76124802D01*
X136556762Y-76111044D01*
X136593708Y-76095740D01*
X136607548Y-76090008D01*
X136677017Y-76082539D01*
X136739496Y-76113814D01*
X136775148Y-76173903D01*
X136779000Y-76204569D01*
X136779000Y-84464907D01*
X136778403Y-84477061D01*
X136760982Y-84653934D01*
X136756240Y-84677775D01*
X136706424Y-84841998D01*
X136697121Y-84864456D01*
X136616227Y-85015798D01*
X136602722Y-85036010D01*
X136493854Y-85168666D01*
X136476666Y-85185854D01*
X136344010Y-85294722D01*
X136323798Y-85308227D01*
X136172456Y-85389121D01*
X136149998Y-85398424D01*
X135985775Y-85448240D01*
X135961934Y-85452982D01*
X135785061Y-85470403D01*
X135772907Y-85471000D01*
X133395226Y-85471000D01*
X133328187Y-85451315D01*
X133282432Y-85398511D01*
X133280665Y-85394453D01*
X133239536Y-85295160D01*
X133239536Y-85295159D01*
X133143282Y-85169718D01*
X133017841Y-85073464D01*
X133017834Y-85073461D01*
X133012515Y-85070390D01*
X132964298Y-85019825D01*
X132951072Y-84951218D01*
X132977037Y-84886352D01*
X133012515Y-84855610D01*
X133017828Y-84852541D01*
X133017841Y-84852536D01*
X133143282Y-84756282D01*
X133239536Y-84630841D01*
X133300044Y-84484762D01*
X133320682Y-84328000D01*
X133300044Y-84171238D01*
X133239536Y-84025159D01*
X133143282Y-83899718D01*
X133017841Y-83803464D01*
X133017834Y-83803461D01*
X133012515Y-83800390D01*
X132964298Y-83749825D01*
X132951072Y-83681218D01*
X132977037Y-83616352D01*
X133012515Y-83585610D01*
X133017828Y-83582541D01*
X133017841Y-83582536D01*
X133143282Y-83486282D01*
X133239536Y-83360841D01*
X133300044Y-83214762D01*
X133320682Y-83058000D01*
X133300044Y-82901238D01*
X133239536Y-82755159D01*
X133143282Y-82629718D01*
X133017841Y-82533464D01*
X133017834Y-82533461D01*
X133012515Y-82530390D01*
X132964298Y-82479825D01*
X132951072Y-82411218D01*
X132977037Y-82346352D01*
X133012515Y-82315610D01*
X133017828Y-82312541D01*
X133017841Y-82312536D01*
X133143282Y-82216282D01*
X133239536Y-82090841D01*
X133300044Y-81944762D01*
X133320682Y-81788000D01*
X133300044Y-81631238D01*
X133239536Y-81485159D01*
X133143282Y-81359718D01*
X133017841Y-81263464D01*
X133017834Y-81263461D01*
X133012515Y-81260390D01*
X132964298Y-81209825D01*
X132951072Y-81141218D01*
X132977037Y-81076352D01*
X133012515Y-81045610D01*
X133017828Y-81042541D01*
X133017841Y-81042536D01*
X133143282Y-80946282D01*
X133239536Y-80820841D01*
X133300044Y-80674762D01*
X133320682Y-80518000D01*
X133300044Y-80361238D01*
X133239536Y-80215159D01*
X133143282Y-80089718D01*
X133017841Y-79993464D01*
X133017834Y-79993461D01*
X133012515Y-79990390D01*
X132964298Y-79939825D01*
X132951072Y-79871218D01*
X132977037Y-79806352D01*
X133012515Y-79775610D01*
X133017828Y-79772541D01*
X133017841Y-79772536D01*
X133143282Y-79676282D01*
X133239536Y-79550841D01*
X133300044Y-79404762D01*
X133320682Y-79248000D01*
X133320682Y-79247998D01*
X135284318Y-79247998D01*
X135284318Y-79248001D01*
X135304955Y-79404760D01*
X135304956Y-79404762D01*
X135365464Y-79550841D01*
X135461718Y-79676282D01*
X135587159Y-79772536D01*
X135587166Y-79772541D01*
X135592487Y-79775613D01*
X135640703Y-79826179D01*
X135653927Y-79894786D01*
X135627959Y-79959651D01*
X135592487Y-79990387D01*
X135587166Y-79993458D01*
X135461718Y-80089718D01*
X135365463Y-80215160D01*
X135304956Y-80361237D01*
X135304955Y-80361239D01*
X135284318Y-80517998D01*
X135284318Y-80518001D01*
X135304955Y-80674760D01*
X135304956Y-80674762D01*
X135365464Y-80820841D01*
X135461718Y-80946282D01*
X135587159Y-81042536D01*
X135587166Y-81042541D01*
X135592487Y-81045613D01*
X135640703Y-81096179D01*
X135653927Y-81164786D01*
X135627959Y-81229651D01*
X135592487Y-81260387D01*
X135587166Y-81263458D01*
X135461718Y-81359718D01*
X135365463Y-81485160D01*
X135304956Y-81631237D01*
X135304955Y-81631239D01*
X135284318Y-81787998D01*
X135284318Y-81788001D01*
X135304955Y-81944760D01*
X135304956Y-81944762D01*
X135365464Y-82090841D01*
X135461718Y-82216282D01*
X135587159Y-82312536D01*
X135587166Y-82312541D01*
X135592487Y-82315613D01*
X135640703Y-82366179D01*
X135653927Y-82434786D01*
X135627959Y-82499651D01*
X135592487Y-82530387D01*
X135587166Y-82533458D01*
X135461718Y-82629718D01*
X135365463Y-82755160D01*
X135304956Y-82901237D01*
X135304955Y-82901239D01*
X135284318Y-83057998D01*
X135284318Y-83058001D01*
X135304955Y-83214760D01*
X135304956Y-83214762D01*
X135365464Y-83360841D01*
X135461718Y-83486282D01*
X135587159Y-83582536D01*
X135587166Y-83582541D01*
X135592487Y-83585613D01*
X135640703Y-83636179D01*
X135653927Y-83704786D01*
X135627959Y-83769651D01*
X135592487Y-83800387D01*
X135587166Y-83803458D01*
X135461718Y-83899718D01*
X135365463Y-84025160D01*
X135304956Y-84171237D01*
X135304955Y-84171239D01*
X135284318Y-84327998D01*
X135284318Y-84328001D01*
X135304955Y-84484760D01*
X135304956Y-84484762D01*
X135365464Y-84630841D01*
X135461718Y-84756282D01*
X135587159Y-84852536D01*
X135733238Y-84913044D01*
X135811619Y-84923363D01*
X135889999Y-84933682D01*
X135890000Y-84933682D01*
X135890001Y-84933682D01*
X135942254Y-84926802D01*
X136046762Y-84913044D01*
X136192841Y-84852536D01*
X136318282Y-84756282D01*
X136414536Y-84630841D01*
X136475044Y-84484762D01*
X136495682Y-84328000D01*
X136475044Y-84171238D01*
X136414536Y-84025159D01*
X136318282Y-83899718D01*
X136192841Y-83803464D01*
X136192834Y-83803461D01*
X136187515Y-83800390D01*
X136139298Y-83749825D01*
X136126072Y-83681218D01*
X136152037Y-83616352D01*
X136187515Y-83585610D01*
X136192828Y-83582541D01*
X136192841Y-83582536D01*
X136318282Y-83486282D01*
X136414536Y-83360841D01*
X136475044Y-83214762D01*
X136495682Y-83058000D01*
X136475044Y-82901238D01*
X136414536Y-82755159D01*
X136318282Y-82629718D01*
X136192841Y-82533464D01*
X136192834Y-82533461D01*
X136187515Y-82530390D01*
X136139298Y-82479825D01*
X136126072Y-82411218D01*
X136152037Y-82346352D01*
X136187515Y-82315610D01*
X136192828Y-82312541D01*
X136192841Y-82312536D01*
X136318282Y-82216282D01*
X136414536Y-82090841D01*
X136475044Y-81944762D01*
X136495682Y-81788000D01*
X136475044Y-81631238D01*
X136414536Y-81485159D01*
X136318282Y-81359718D01*
X136192841Y-81263464D01*
X136192834Y-81263461D01*
X136187515Y-81260390D01*
X136139298Y-81209825D01*
X136126072Y-81141218D01*
X136152037Y-81076352D01*
X136187515Y-81045610D01*
X136192828Y-81042541D01*
X136192841Y-81042536D01*
X136318282Y-80946282D01*
X136414536Y-80820841D01*
X136475044Y-80674762D01*
X136495682Y-80518000D01*
X136475044Y-80361238D01*
X136414536Y-80215159D01*
X136318282Y-80089718D01*
X136192841Y-79993464D01*
X136192834Y-79993461D01*
X136187515Y-79990390D01*
X136139298Y-79939825D01*
X136126072Y-79871218D01*
X136152037Y-79806352D01*
X136187515Y-79775610D01*
X136192828Y-79772541D01*
X136192841Y-79772536D01*
X136318282Y-79676282D01*
X136414536Y-79550841D01*
X136475044Y-79404762D01*
X136495682Y-79248000D01*
X136475044Y-79091238D01*
X136414536Y-78945159D01*
X136318282Y-78819718D01*
X136192841Y-78723464D01*
X136185412Y-78720387D01*
X136046762Y-78662956D01*
X136046760Y-78662955D01*
X135890001Y-78642318D01*
X135889999Y-78642318D01*
X135733239Y-78662955D01*
X135733237Y-78662956D01*
X135587160Y-78723463D01*
X135461718Y-78819718D01*
X135365463Y-78945160D01*
X135304956Y-79091237D01*
X135304955Y-79091239D01*
X135284318Y-79247998D01*
X133320682Y-79247998D01*
X133300044Y-79091238D01*
X133239536Y-78945159D01*
X133143282Y-78819718D01*
X133017841Y-78723464D01*
X133017834Y-78723461D01*
X133012515Y-78720390D01*
X132964298Y-78669825D01*
X132951072Y-78601218D01*
X132977037Y-78536352D01*
X133012515Y-78505610D01*
X133017828Y-78502541D01*
X133017841Y-78502536D01*
X133143282Y-78406282D01*
X133239536Y-78280841D01*
X133300044Y-78134762D01*
X133320682Y-77978000D01*
X133300044Y-77821238D01*
X133239536Y-77675159D01*
X133143282Y-77549718D01*
X133017841Y-77453464D01*
X132871762Y-77392956D01*
X132871760Y-77392955D01*
X132715001Y-77372318D01*
X132714999Y-77372318D01*
X132558239Y-77392955D01*
X132558237Y-77392956D01*
X132412160Y-77453463D01*
X132286718Y-77549718D01*
X132190463Y-77675160D01*
X132129956Y-77821237D01*
X132129955Y-77821239D01*
X132109318Y-77977998D01*
X132109318Y-77978001D01*
X132129955Y-78134760D01*
X132129956Y-78134762D01*
X132190464Y-78280841D01*
X132286718Y-78406282D01*
X132412159Y-78502536D01*
X132412166Y-78502541D01*
X132417487Y-78505613D01*
X132465703Y-78556179D01*
X132478927Y-78624786D01*
X132452959Y-78689651D01*
X132417487Y-78720387D01*
X132412166Y-78723458D01*
X132286718Y-78819718D01*
X132190463Y-78945160D01*
X132129956Y-79091237D01*
X132129955Y-79091239D01*
X132109318Y-79247998D01*
X132109318Y-79248001D01*
X132129955Y-79404760D01*
X132129956Y-79404762D01*
X132190464Y-79550841D01*
X132286718Y-79676282D01*
X132412159Y-79772536D01*
X132412166Y-79772541D01*
X132417487Y-79775613D01*
X132465703Y-79826179D01*
X132478927Y-79894786D01*
X132452959Y-79959651D01*
X132417487Y-79990387D01*
X132412166Y-79993458D01*
X132286718Y-80089718D01*
X132190463Y-80215160D01*
X132129956Y-80361237D01*
X132129955Y-80361239D01*
X132109318Y-80517998D01*
X132109318Y-80518001D01*
X132129955Y-80674760D01*
X132129956Y-80674762D01*
X132190464Y-80820841D01*
X132286718Y-80946282D01*
X132412159Y-81042536D01*
X132412166Y-81042541D01*
X132417487Y-81045613D01*
X132465703Y-81096179D01*
X132478927Y-81164786D01*
X132452959Y-81229651D01*
X132417487Y-81260387D01*
X132412166Y-81263458D01*
X132286718Y-81359718D01*
X132190463Y-81485160D01*
X132129956Y-81631237D01*
X132129955Y-81631239D01*
X132109318Y-81787998D01*
X132109318Y-81788001D01*
X132129955Y-81944760D01*
X132129956Y-81944762D01*
X132190464Y-82090841D01*
X132286718Y-82216282D01*
X132412159Y-82312536D01*
X132412166Y-82312541D01*
X132417487Y-82315613D01*
X132465703Y-82366179D01*
X132478927Y-82434786D01*
X132452959Y-82499651D01*
X132417487Y-82530387D01*
X132412166Y-82533458D01*
X132286718Y-82629718D01*
X132190463Y-82755160D01*
X132129956Y-82901237D01*
X132129955Y-82901239D01*
X132109318Y-83057998D01*
X132109318Y-83058001D01*
X132129955Y-83214760D01*
X132129956Y-83214762D01*
X132190464Y-83360841D01*
X132286718Y-83486282D01*
X132412159Y-83582536D01*
X132412166Y-83582541D01*
X132417487Y-83585613D01*
X132465703Y-83636179D01*
X132478927Y-83704786D01*
X132452959Y-83769651D01*
X132417487Y-83800387D01*
X132412166Y-83803458D01*
X132286718Y-83899718D01*
X132190463Y-84025160D01*
X132129956Y-84171237D01*
X132129955Y-84171239D01*
X132109318Y-84327998D01*
X132109318Y-84328001D01*
X132129955Y-84484760D01*
X132129956Y-84484762D01*
X132190464Y-84630841D01*
X132286718Y-84756282D01*
X132412159Y-84852536D01*
X132412166Y-84852541D01*
X132417487Y-84855613D01*
X132465703Y-84906179D01*
X132478927Y-84974786D01*
X132452959Y-85039651D01*
X132417487Y-85070387D01*
X132412166Y-85073458D01*
X132286718Y-85169718D01*
X132190463Y-85295160D01*
X132149335Y-85394453D01*
X132105494Y-85448856D01*
X132039200Y-85470921D01*
X132034774Y-85471000D01*
X129413000Y-85471000D01*
X129413000Y-76410562D01*
X129456028Y-76443579D01*
X129491157Y-76470535D01*
X129491158Y-76470535D01*
X129491159Y-76470536D01*
X129637238Y-76531044D01*
X129715619Y-76541363D01*
X129793999Y-76551682D01*
X129794000Y-76551682D01*
X129794001Y-76551682D01*
X129846254Y-76544802D01*
X129950762Y-76531044D01*
X130096841Y-76470536D01*
X130222282Y-76374282D01*
X130318536Y-76248841D01*
X130379044Y-76102762D01*
X130399682Y-75946000D01*
X130379044Y-75789238D01*
X130318536Y-75643159D01*
X130222282Y-75517718D01*
X130096841Y-75421464D01*
X129970756Y-75369238D01*
X129950762Y-75360956D01*
X129950760Y-75360955D01*
X129794001Y-75340318D01*
X129793999Y-75340318D01*
X129637239Y-75360955D01*
X129637237Y-75360956D01*
X129491157Y-75421464D01*
X129413000Y-75481436D01*
X129413000Y-62484000D01*
X136779000Y-62484000D01*
X136779000Y-74847431D01*
G37*
%TD.AperFunction*%
%TD*%
%TA.AperFunction,Conductor*%
%TO.N,A*%
G36*
X169799000Y-75644437D02*
G01*
X169720842Y-75584464D01*
X169574762Y-75523956D01*
X169574760Y-75523955D01*
X169418001Y-75503318D01*
X169417999Y-75503318D01*
X169261239Y-75523955D01*
X169261237Y-75523956D01*
X169115160Y-75584463D01*
X168989718Y-75680718D01*
X168893463Y-75806160D01*
X168832956Y-75952237D01*
X168832955Y-75952239D01*
X168812318Y-76108998D01*
X168812318Y-76109001D01*
X168832955Y-76265760D01*
X168832956Y-76265762D01*
X168859075Y-76328820D01*
X168893464Y-76411841D01*
X168989718Y-76537282D01*
X169115159Y-76633536D01*
X169261238Y-76694044D01*
X169339619Y-76704363D01*
X169417999Y-76714682D01*
X169418000Y-76714682D01*
X169418001Y-76714682D01*
X169470254Y-76707802D01*
X169574762Y-76694044D01*
X169720841Y-76633536D01*
X169799000Y-76573562D01*
X169799000Y-85471000D01*
X167276713Y-85471000D01*
X167209674Y-85451315D01*
X167185461Y-85429039D01*
X167185033Y-85429468D01*
X167179288Y-85423724D01*
X167179284Y-85423721D01*
X167179282Y-85423718D01*
X167053841Y-85327464D01*
X167053834Y-85327461D01*
X167048515Y-85324390D01*
X167000298Y-85273825D01*
X166987072Y-85205218D01*
X167013037Y-85140352D01*
X167048515Y-85109610D01*
X167053828Y-85106541D01*
X167053841Y-85106536D01*
X167179282Y-85010282D01*
X167275536Y-84884841D01*
X167336044Y-84738762D01*
X167356682Y-84582000D01*
X167336044Y-84425238D01*
X167275536Y-84279159D01*
X167179282Y-84153718D01*
X167053841Y-84057464D01*
X167053834Y-84057461D01*
X167048515Y-84054390D01*
X167000298Y-84003825D01*
X166987072Y-83935218D01*
X167013037Y-83870352D01*
X167048515Y-83839610D01*
X167053828Y-83836541D01*
X167053841Y-83836536D01*
X167179282Y-83740282D01*
X167275536Y-83614841D01*
X167336044Y-83468762D01*
X167356682Y-83312000D01*
X167336044Y-83155238D01*
X167275536Y-83009159D01*
X167179282Y-82883718D01*
X167053841Y-82787464D01*
X167053834Y-82787461D01*
X167048515Y-82784390D01*
X167000298Y-82733825D01*
X166987072Y-82665218D01*
X167013037Y-82600352D01*
X167048515Y-82569610D01*
X167053828Y-82566541D01*
X167053841Y-82566536D01*
X167179282Y-82470282D01*
X167275536Y-82344841D01*
X167336044Y-82198762D01*
X167356682Y-82042000D01*
X167336044Y-81885238D01*
X167275536Y-81739159D01*
X167179282Y-81613718D01*
X167053841Y-81517464D01*
X167053834Y-81517461D01*
X167048515Y-81514390D01*
X167000298Y-81463825D01*
X166987072Y-81395218D01*
X167013037Y-81330352D01*
X167048515Y-81299610D01*
X167053828Y-81296541D01*
X167053841Y-81296536D01*
X167179282Y-81200282D01*
X167275536Y-81074841D01*
X167336044Y-80928762D01*
X167356682Y-80772000D01*
X167336044Y-80615238D01*
X167275536Y-80469159D01*
X167179282Y-80343718D01*
X167053841Y-80247464D01*
X167053834Y-80247461D01*
X167048515Y-80244390D01*
X167000298Y-80193825D01*
X166987072Y-80125218D01*
X167013037Y-80060352D01*
X167048515Y-80029610D01*
X167053828Y-80026541D01*
X167053841Y-80026536D01*
X167179282Y-79930282D01*
X167275536Y-79804841D01*
X167336044Y-79658762D01*
X167356682Y-79502000D01*
X167336044Y-79345238D01*
X167275536Y-79199159D01*
X167179282Y-79073718D01*
X167053841Y-78977464D01*
X167053834Y-78977461D01*
X167048515Y-78974390D01*
X167000298Y-78923825D01*
X166987072Y-78855218D01*
X167013037Y-78790352D01*
X167048515Y-78759610D01*
X167053828Y-78756541D01*
X167053841Y-78756536D01*
X167179282Y-78660282D01*
X167275536Y-78534841D01*
X167336044Y-78388762D01*
X167356682Y-78232000D01*
X167336044Y-78075238D01*
X167275536Y-77929159D01*
X167179282Y-77803718D01*
X167053841Y-77707464D01*
X166907762Y-77646956D01*
X166907760Y-77646955D01*
X166751001Y-77626318D01*
X166750999Y-77626318D01*
X166594239Y-77646955D01*
X166594237Y-77646956D01*
X166448160Y-77707463D01*
X166322718Y-77803718D01*
X166226463Y-77929160D01*
X166165956Y-78075237D01*
X166165955Y-78075239D01*
X166145318Y-78231998D01*
X166145318Y-78232001D01*
X166165955Y-78388760D01*
X166165956Y-78388762D01*
X166226464Y-78534841D01*
X166322718Y-78660282D01*
X166448159Y-78756536D01*
X166448166Y-78756541D01*
X166453487Y-78759613D01*
X166501703Y-78810179D01*
X166514927Y-78878786D01*
X166488959Y-78943651D01*
X166453487Y-78974387D01*
X166448166Y-78977458D01*
X166322718Y-79073718D01*
X166226463Y-79199160D01*
X166165956Y-79345237D01*
X166165955Y-79345239D01*
X166145318Y-79501998D01*
X166145318Y-79502001D01*
X166165955Y-79658760D01*
X166165956Y-79658762D01*
X166226464Y-79804841D01*
X166322718Y-79930282D01*
X166448159Y-80026536D01*
X166448166Y-80026541D01*
X166453487Y-80029613D01*
X166501703Y-80080179D01*
X166514927Y-80148786D01*
X166488959Y-80213651D01*
X166453487Y-80244387D01*
X166448166Y-80247458D01*
X166322718Y-80343718D01*
X166226463Y-80469160D01*
X166165956Y-80615237D01*
X166165955Y-80615239D01*
X166145318Y-80771998D01*
X166145318Y-80772001D01*
X166165955Y-80928760D01*
X166165956Y-80928762D01*
X166226464Y-81074841D01*
X166322718Y-81200282D01*
X166448159Y-81296536D01*
X166448166Y-81296541D01*
X166453487Y-81299613D01*
X166501703Y-81350179D01*
X166514927Y-81418786D01*
X166488959Y-81483651D01*
X166453487Y-81514387D01*
X166448166Y-81517458D01*
X166322718Y-81613718D01*
X166226463Y-81739160D01*
X166165956Y-81885237D01*
X166165955Y-81885239D01*
X166145318Y-82041998D01*
X166145318Y-82042001D01*
X166165955Y-82198760D01*
X166165956Y-82198762D01*
X166226464Y-82344841D01*
X166322718Y-82470282D01*
X166448159Y-82566536D01*
X166448166Y-82566541D01*
X166453487Y-82569613D01*
X166501703Y-82620179D01*
X166514927Y-82688786D01*
X166488959Y-82753651D01*
X166453487Y-82784387D01*
X166448166Y-82787458D01*
X166322718Y-82883718D01*
X166226463Y-83009160D01*
X166165956Y-83155237D01*
X166165955Y-83155239D01*
X166145318Y-83311998D01*
X166145318Y-83312001D01*
X166165955Y-83468760D01*
X166165956Y-83468762D01*
X166226464Y-83614841D01*
X166322718Y-83740282D01*
X166448159Y-83836536D01*
X166448166Y-83836541D01*
X166453487Y-83839613D01*
X166501703Y-83890179D01*
X166514927Y-83958786D01*
X166488959Y-84023651D01*
X166453487Y-84054387D01*
X166448166Y-84057458D01*
X166322718Y-84153718D01*
X166226463Y-84279160D01*
X166165956Y-84425237D01*
X166165955Y-84425239D01*
X166145318Y-84581998D01*
X166145318Y-84582001D01*
X166165955Y-84738760D01*
X166165956Y-84738762D01*
X166226464Y-84884841D01*
X166322718Y-85010282D01*
X166448159Y-85106536D01*
X166448166Y-85106541D01*
X166453487Y-85109613D01*
X166501703Y-85160179D01*
X166514927Y-85228786D01*
X166488959Y-85293651D01*
X166453487Y-85324387D01*
X166448166Y-85327458D01*
X166385438Y-85375591D01*
X166322718Y-85423718D01*
X166322716Y-85423719D01*
X166322711Y-85423724D01*
X166316967Y-85429468D01*
X166315757Y-85428258D01*
X166267237Y-85463688D01*
X166225287Y-85471000D01*
X163439093Y-85471000D01*
X163426939Y-85470403D01*
X163250065Y-85452982D01*
X163226224Y-85448240D01*
X163062001Y-85398424D01*
X163039543Y-85389121D01*
X162888201Y-85308227D01*
X162867989Y-85294722D01*
X162735333Y-85185854D01*
X162718145Y-85168666D01*
X162694908Y-85140352D01*
X162609276Y-85036008D01*
X162595772Y-85015798D01*
X162514878Y-84864456D01*
X162505575Y-84841998D01*
X162455757Y-84677769D01*
X162451018Y-84653941D01*
X162433597Y-84477061D01*
X162433000Y-84464907D01*
X162433000Y-79501998D01*
X162970318Y-79501998D01*
X162970318Y-79502001D01*
X162990955Y-79658760D01*
X162990956Y-79658762D01*
X163051464Y-79804841D01*
X163147718Y-79930282D01*
X163273159Y-80026536D01*
X163273166Y-80026541D01*
X163278487Y-80029613D01*
X163326703Y-80080179D01*
X163339927Y-80148786D01*
X163313959Y-80213651D01*
X163278487Y-80244387D01*
X163273166Y-80247458D01*
X163147718Y-80343718D01*
X163051463Y-80469160D01*
X162990956Y-80615237D01*
X162990955Y-80615239D01*
X162970318Y-80771998D01*
X162970318Y-80772001D01*
X162990955Y-80928760D01*
X162990956Y-80928762D01*
X163051464Y-81074841D01*
X163147718Y-81200282D01*
X163273159Y-81296536D01*
X163273166Y-81296541D01*
X163278487Y-81299613D01*
X163326703Y-81350179D01*
X163339927Y-81418786D01*
X163313959Y-81483651D01*
X163278487Y-81514387D01*
X163273166Y-81517458D01*
X163147718Y-81613718D01*
X163051463Y-81739160D01*
X162990956Y-81885237D01*
X162990955Y-81885239D01*
X162970318Y-82041998D01*
X162970318Y-82042001D01*
X162990955Y-82198760D01*
X162990956Y-82198762D01*
X163051464Y-82344841D01*
X163147718Y-82470282D01*
X163273159Y-82566536D01*
X163273166Y-82566541D01*
X163278487Y-82569613D01*
X163326703Y-82620179D01*
X163339927Y-82688786D01*
X163313959Y-82753651D01*
X163278487Y-82784387D01*
X163273166Y-82787458D01*
X163147718Y-82883718D01*
X163051463Y-83009160D01*
X162990956Y-83155237D01*
X162990955Y-83155239D01*
X162970318Y-83311998D01*
X162970318Y-83312001D01*
X162990955Y-83468760D01*
X162990956Y-83468762D01*
X163051464Y-83614841D01*
X163147718Y-83740282D01*
X163273159Y-83836536D01*
X163273166Y-83836541D01*
X163278487Y-83839613D01*
X163326703Y-83890179D01*
X163339927Y-83958786D01*
X163313959Y-84023651D01*
X163278487Y-84054387D01*
X163273166Y-84057458D01*
X163147718Y-84153718D01*
X163051463Y-84279160D01*
X162990956Y-84425237D01*
X162990955Y-84425239D01*
X162970318Y-84581998D01*
X162970318Y-84582001D01*
X162990955Y-84738760D01*
X162990956Y-84738762D01*
X163051464Y-84884841D01*
X163147718Y-85010282D01*
X163273159Y-85106536D01*
X163419238Y-85167044D01*
X163497619Y-85177363D01*
X163575999Y-85187682D01*
X163576000Y-85187682D01*
X163576001Y-85187682D01*
X163628254Y-85180802D01*
X163732762Y-85167044D01*
X163878841Y-85106536D01*
X164004282Y-85010282D01*
X164100536Y-84884841D01*
X164161044Y-84738762D01*
X164181682Y-84582000D01*
X164161044Y-84425238D01*
X164100536Y-84279159D01*
X164004282Y-84153718D01*
X163878841Y-84057464D01*
X163878834Y-84057461D01*
X163873515Y-84054390D01*
X163825298Y-84003825D01*
X163812072Y-83935218D01*
X163838037Y-83870352D01*
X163873515Y-83839610D01*
X163878828Y-83836541D01*
X163878841Y-83836536D01*
X164004282Y-83740282D01*
X164100536Y-83614841D01*
X164161044Y-83468762D01*
X164181682Y-83312000D01*
X164161044Y-83155238D01*
X164100536Y-83009159D01*
X164004282Y-82883718D01*
X163878841Y-82787464D01*
X163878834Y-82787461D01*
X163873515Y-82784390D01*
X163825298Y-82733825D01*
X163812072Y-82665218D01*
X163838037Y-82600352D01*
X163873515Y-82569610D01*
X163878828Y-82566541D01*
X163878841Y-82566536D01*
X164004282Y-82470282D01*
X164100536Y-82344841D01*
X164161044Y-82198762D01*
X164181682Y-82042000D01*
X164161044Y-81885238D01*
X164100536Y-81739159D01*
X164004282Y-81613718D01*
X163878841Y-81517464D01*
X163878834Y-81517461D01*
X163873515Y-81514390D01*
X163825298Y-81463825D01*
X163812072Y-81395218D01*
X163838037Y-81330352D01*
X163873515Y-81299610D01*
X163878828Y-81296541D01*
X163878841Y-81296536D01*
X164004282Y-81200282D01*
X164100536Y-81074841D01*
X164161044Y-80928762D01*
X164181682Y-80772000D01*
X164161044Y-80615238D01*
X164100536Y-80469159D01*
X164004282Y-80343718D01*
X163878841Y-80247464D01*
X163878834Y-80247461D01*
X163873515Y-80244390D01*
X163825298Y-80193825D01*
X163812072Y-80125218D01*
X163838037Y-80060352D01*
X163873515Y-80029610D01*
X163878828Y-80026541D01*
X163878841Y-80026536D01*
X164004282Y-79930282D01*
X164100536Y-79804841D01*
X164161044Y-79658762D01*
X164181682Y-79502000D01*
X164161044Y-79345238D01*
X164100536Y-79199159D01*
X164004282Y-79073718D01*
X163878841Y-78977464D01*
X163871412Y-78974387D01*
X163732762Y-78916956D01*
X163732760Y-78916955D01*
X163576001Y-78896318D01*
X163575999Y-78896318D01*
X163419239Y-78916955D01*
X163419237Y-78916956D01*
X163273160Y-78977463D01*
X163147718Y-79073718D01*
X163051463Y-79199160D01*
X162990956Y-79345237D01*
X162990955Y-79345239D01*
X162970318Y-79501998D01*
X162433000Y-79501998D01*
X162433000Y-64499559D01*
X162452685Y-64432520D01*
X162505489Y-64386765D01*
X162574647Y-64376821D01*
X162632486Y-64401183D01*
X162638159Y-64405536D01*
X162784238Y-64466044D01*
X162862619Y-64476363D01*
X162940999Y-64486682D01*
X162941000Y-64486682D01*
X162941001Y-64486682D01*
X162993254Y-64479802D01*
X163097762Y-64466044D01*
X163243841Y-64405536D01*
X163369282Y-64309282D01*
X163465536Y-64183841D01*
X163526044Y-64037762D01*
X163546682Y-63881000D01*
X163526044Y-63724238D01*
X163465536Y-63578159D01*
X163369282Y-63452718D01*
X163243841Y-63356464D01*
X163097762Y-63295956D01*
X163097760Y-63295955D01*
X162941001Y-63275318D01*
X162940999Y-63275318D01*
X162784239Y-63295955D01*
X162784237Y-63295956D01*
X162638156Y-63356465D01*
X162632482Y-63360819D01*
X162567312Y-63386010D01*
X162498868Y-63371969D01*
X162448880Y-63323153D01*
X162433000Y-63262440D01*
X162433000Y-62484000D01*
X169799000Y-62484000D01*
X169799000Y-75644437D01*
G37*
%TD.AperFunction*%
%TD*%
%TA.AperFunction,Conductor*%
%TO.N,Shunt-*%
G36*
X141319097Y-66694685D02*
G01*
X141364852Y-66747489D01*
X141374796Y-66816647D01*
X141345771Y-66880203D01*
X141308452Y-66907113D01*
X141309196Y-66908401D01*
X141302163Y-66912460D01*
X141176718Y-67008718D01*
X141080463Y-67134160D01*
X141019956Y-67280237D01*
X141019955Y-67280239D01*
X140999318Y-67436998D01*
X140999318Y-67437001D01*
X141019955Y-67593760D01*
X141019956Y-67593762D01*
X141069913Y-67714370D01*
X141080464Y-67739841D01*
X141176718Y-67865282D01*
X141302159Y-67961536D01*
X141448238Y-68022044D01*
X141547545Y-68035117D01*
X141611439Y-68063383D01*
X141649911Y-68121707D01*
X141654297Y-68174241D01*
X141634318Y-68325998D01*
X141634318Y-68326001D01*
X141654297Y-68477758D01*
X141643531Y-68546793D01*
X141597151Y-68599049D01*
X141547544Y-68616882D01*
X141448238Y-68629956D01*
X141448237Y-68629956D01*
X141302160Y-68690463D01*
X141176718Y-68786718D01*
X141080463Y-68912160D01*
X141019956Y-69058237D01*
X141019955Y-69058239D01*
X140999318Y-69214998D01*
X140999318Y-69215001D01*
X141019290Y-69366708D01*
X141008524Y-69435743D01*
X140962144Y-69487999D01*
X140912538Y-69505832D01*
X140843238Y-69514956D01*
X140843237Y-69514956D01*
X140697160Y-69575463D01*
X140571718Y-69671718D01*
X140475463Y-69797160D01*
X140414956Y-69943237D01*
X140414955Y-69943239D01*
X140394318Y-70099998D01*
X140394318Y-70100001D01*
X140414955Y-70256760D01*
X140414956Y-70256762D01*
X140471933Y-70394318D01*
X140475464Y-70402841D01*
X140571718Y-70528282D01*
X140697159Y-70624536D01*
X140843238Y-70685044D01*
X140909863Y-70693815D01*
X140973760Y-70722081D01*
X141012231Y-70780406D01*
X141013207Y-70834810D01*
X141016017Y-70835180D01*
X140994318Y-70999998D01*
X140994318Y-71000001D01*
X141014955Y-71156760D01*
X141014956Y-71156762D01*
X141072564Y-71295841D01*
X141075464Y-71302841D01*
X141171718Y-71428282D01*
X141297159Y-71524536D01*
X141443238Y-71585044D01*
X141514807Y-71594466D01*
X141588742Y-71604200D01*
X141652639Y-71632466D01*
X141691110Y-71690791D01*
X141691941Y-71760656D01*
X141687118Y-71774591D01*
X141654957Y-71852234D01*
X141654955Y-71852239D01*
X141634318Y-72008998D01*
X141634318Y-72009001D01*
X141654955Y-72165760D01*
X141654956Y-72165762D01*
X141688383Y-72246463D01*
X141715464Y-72311841D01*
X141811718Y-72437282D01*
X141937159Y-72533536D01*
X142083238Y-72594044D01*
X142161619Y-72604363D01*
X142239999Y-72614682D01*
X142240000Y-72614682D01*
X142240001Y-72614682D01*
X142292254Y-72607802D01*
X142396762Y-72594044D01*
X142542841Y-72533536D01*
X142668282Y-72437282D01*
X142764536Y-72311841D01*
X142825044Y-72165762D01*
X142845682Y-72009000D01*
X142825044Y-71852238D01*
X142789872Y-71767327D01*
X142782404Y-71697860D01*
X142813679Y-71635380D01*
X142873768Y-71599728D01*
X142888236Y-71596939D01*
X143031762Y-71578044D01*
X143177841Y-71517536D01*
X143303282Y-71421282D01*
X143399536Y-71295841D01*
X143399541Y-71295828D01*
X143402610Y-71290515D01*
X143453175Y-71242298D01*
X143521782Y-71229072D01*
X143586648Y-71255037D01*
X143617390Y-71290515D01*
X143620461Y-71295834D01*
X143620464Y-71295841D01*
X143716718Y-71421282D01*
X143842159Y-71517536D01*
X143988238Y-71578044D01*
X144087545Y-71591117D01*
X144151439Y-71619383D01*
X144189911Y-71677707D01*
X144194297Y-71730241D01*
X144174318Y-71881998D01*
X144174318Y-71882001D01*
X144194297Y-72033758D01*
X144183531Y-72102793D01*
X144137151Y-72155049D01*
X144087544Y-72172882D01*
X143988238Y-72185956D01*
X143988237Y-72185956D01*
X143842160Y-72246463D01*
X143716718Y-72342718D01*
X143620463Y-72468160D01*
X143559956Y-72614237D01*
X143559955Y-72614239D01*
X143539318Y-72770998D01*
X143539318Y-72771001D01*
X143559955Y-72927760D01*
X143559956Y-72927762D01*
X143620464Y-73073841D01*
X143716718Y-73199282D01*
X143842159Y-73295536D01*
X143988238Y-73356044D01*
X144066619Y-73366363D01*
X144144999Y-73376682D01*
X144145000Y-73376682D01*
X144145001Y-73376682D01*
X144197254Y-73369802D01*
X144301762Y-73356044D01*
X144447841Y-73295536D01*
X144573282Y-73199282D01*
X144669536Y-73073841D01*
X144669541Y-73073828D01*
X144672610Y-73068515D01*
X144723175Y-73020298D01*
X144791782Y-73007072D01*
X144856648Y-73033037D01*
X144887390Y-73068515D01*
X144890461Y-73073834D01*
X144890464Y-73073841D01*
X144986718Y-73199282D01*
X145112159Y-73295536D01*
X145258238Y-73356044D01*
X145336619Y-73366363D01*
X145414999Y-73376682D01*
X145415000Y-73376682D01*
X145415001Y-73376682D01*
X145467254Y-73369802D01*
X145571762Y-73356044D01*
X145717841Y-73295536D01*
X145843282Y-73199282D01*
X145939536Y-73073841D01*
X146000044Y-72927762D01*
X146020682Y-72771000D01*
X146000044Y-72614238D01*
X145939536Y-72468159D01*
X145843282Y-72342718D01*
X145717841Y-72246464D01*
X145571762Y-72185956D01*
X145472455Y-72172882D01*
X145408559Y-72144615D01*
X145370088Y-72086291D01*
X145365702Y-72033761D01*
X145385682Y-71882000D01*
X145365702Y-71730239D01*
X145376467Y-71661206D01*
X145422847Y-71608950D01*
X145472454Y-71591118D01*
X145571762Y-71578044D01*
X145717841Y-71517536D01*
X145843282Y-71421282D01*
X145939536Y-71295841D01*
X146000044Y-71149762D01*
X146019760Y-71000001D01*
X146020682Y-70993001D01*
X146020682Y-70992998D01*
X146006923Y-70888492D01*
X146000044Y-70836238D01*
X145939536Y-70690159D01*
X145843282Y-70564718D01*
X145717841Y-70468464D01*
X145571762Y-70407956D01*
X145472455Y-70394882D01*
X145408559Y-70366615D01*
X145370088Y-70308291D01*
X145365702Y-70255761D01*
X145385682Y-70104000D01*
X145365702Y-69952239D01*
X145376467Y-69883206D01*
X145422847Y-69830950D01*
X145472454Y-69813118D01*
X145571762Y-69800044D01*
X145717841Y-69739536D01*
X145843282Y-69643282D01*
X145939536Y-69517841D01*
X146000044Y-69371762D01*
X146020682Y-69215000D01*
X146000044Y-69058238D01*
X145939536Y-68912159D01*
X145843282Y-68786718D01*
X145717841Y-68690464D01*
X145571762Y-68629956D01*
X145472455Y-68616882D01*
X145408559Y-68588615D01*
X145370088Y-68530291D01*
X145365702Y-68477761D01*
X145385682Y-68326000D01*
X145365702Y-68174239D01*
X145376467Y-68105206D01*
X145422847Y-68052950D01*
X145472454Y-68035118D01*
X145571762Y-68022044D01*
X145717841Y-67961536D01*
X145843282Y-67865282D01*
X145939536Y-67739841D01*
X146000044Y-67593762D01*
X146020682Y-67437000D01*
X146000044Y-67280238D01*
X145939536Y-67134159D01*
X145843282Y-67008718D01*
X145717841Y-66912464D01*
X145717836Y-66912460D01*
X145710804Y-66908401D01*
X145711846Y-66906595D01*
X145666087Y-66869721D01*
X145644021Y-66803428D01*
X145661299Y-66735728D01*
X145712436Y-66688117D01*
X145767942Y-66675000D01*
X154196684Y-66675000D01*
X154263723Y-66694685D01*
X154309478Y-66747489D01*
X154319422Y-66816647D01*
X154290397Y-66880203D01*
X154253078Y-66907113D01*
X154253822Y-66908401D01*
X154246789Y-66912460D01*
X154121344Y-67008718D01*
X154025089Y-67134160D01*
X153964582Y-67280237D01*
X153964581Y-67280239D01*
X153943944Y-67436998D01*
X153943944Y-67437001D01*
X153964581Y-67593760D01*
X153964582Y-67593762D01*
X154014539Y-67714370D01*
X154025090Y-67739841D01*
X154121344Y-67865282D01*
X154246785Y-67961536D01*
X154392864Y-68022044D01*
X154501385Y-68036331D01*
X154565279Y-68064596D01*
X154603751Y-68122920D01*
X154608137Y-68175454D01*
X154588318Y-68325998D01*
X154588318Y-68326001D01*
X154608297Y-68477758D01*
X154597531Y-68546793D01*
X154551151Y-68599049D01*
X154501544Y-68616882D01*
X154402238Y-68629956D01*
X154402237Y-68629956D01*
X154256160Y-68690463D01*
X154130718Y-68786718D01*
X154034463Y-68912160D01*
X153973956Y-69058237D01*
X153973955Y-69058239D01*
X153953318Y-69214998D01*
X153953318Y-69215001D01*
X153973955Y-69371760D01*
X153973956Y-69371762D01*
X154034464Y-69517841D01*
X154130718Y-69643282D01*
X154256159Y-69739536D01*
X154402238Y-69800044D01*
X154501545Y-69813117D01*
X154565439Y-69841383D01*
X154603911Y-69899707D01*
X154608297Y-69952241D01*
X154588318Y-70103998D01*
X154588318Y-70104001D01*
X154608297Y-70255758D01*
X154597531Y-70324793D01*
X154551151Y-70377049D01*
X154501544Y-70394882D01*
X154402238Y-70407956D01*
X154402237Y-70407956D01*
X154256160Y-70468463D01*
X154130718Y-70564718D01*
X154034463Y-70690160D01*
X153973956Y-70836237D01*
X153973955Y-70836239D01*
X153953318Y-70992998D01*
X153953318Y-70993001D01*
X153973955Y-71149760D01*
X153973956Y-71149762D01*
X154034464Y-71295841D01*
X154130718Y-71421282D01*
X154256159Y-71517536D01*
X154402238Y-71578044D01*
X154501545Y-71591117D01*
X154565439Y-71619383D01*
X154603911Y-71677707D01*
X154608297Y-71730241D01*
X154588318Y-71881998D01*
X154588318Y-71882001D01*
X154608297Y-72033758D01*
X154597531Y-72102793D01*
X154551151Y-72155049D01*
X154501544Y-72172882D01*
X154402238Y-72185956D01*
X154402237Y-72185956D01*
X154256160Y-72246463D01*
X154130718Y-72342718D01*
X154034463Y-72468160D01*
X153973956Y-72614237D01*
X153973955Y-72614239D01*
X153953318Y-72770998D01*
X153953318Y-72771001D01*
X153973955Y-72927760D01*
X153973956Y-72927762D01*
X154034464Y-73073841D01*
X154130718Y-73199282D01*
X154256159Y-73295536D01*
X154402238Y-73356044D01*
X154480619Y-73366363D01*
X154558999Y-73376682D01*
X154559000Y-73376682D01*
X154559001Y-73376682D01*
X154611254Y-73369802D01*
X154715762Y-73356044D01*
X154861841Y-73295536D01*
X154987282Y-73199282D01*
X155083536Y-73073841D01*
X155083541Y-73073828D01*
X155086610Y-73068515D01*
X155137175Y-73020298D01*
X155205782Y-73007072D01*
X155270648Y-73033037D01*
X155301390Y-73068515D01*
X155304461Y-73073834D01*
X155304464Y-73073841D01*
X155400718Y-73199282D01*
X155526159Y-73295536D01*
X155672238Y-73356044D01*
X155750619Y-73366363D01*
X155828999Y-73376682D01*
X155829000Y-73376682D01*
X155829001Y-73376682D01*
X155881254Y-73369802D01*
X155985762Y-73356044D01*
X156131841Y-73295536D01*
X156257282Y-73199282D01*
X156353536Y-73073841D01*
X156353541Y-73073828D01*
X156356610Y-73068515D01*
X156407175Y-73020298D01*
X156475782Y-73007072D01*
X156540648Y-73033037D01*
X156571390Y-73068515D01*
X156574461Y-73073834D01*
X156574464Y-73073841D01*
X156670718Y-73199282D01*
X156796159Y-73295536D01*
X156942238Y-73356044D01*
X157020619Y-73366363D01*
X157098999Y-73376682D01*
X157099000Y-73376682D01*
X157099001Y-73376682D01*
X157151254Y-73369802D01*
X157255762Y-73356044D01*
X157401841Y-73295536D01*
X157527282Y-73199282D01*
X157623536Y-73073841D01*
X157623541Y-73073828D01*
X157626610Y-73068515D01*
X157677175Y-73020298D01*
X157745782Y-73007072D01*
X157810648Y-73033037D01*
X157841390Y-73068515D01*
X157844461Y-73073834D01*
X157844464Y-73073841D01*
X157940718Y-73199282D01*
X158066159Y-73295536D01*
X158212238Y-73356044D01*
X158290619Y-73366363D01*
X158368999Y-73376682D01*
X158369000Y-73376682D01*
X158369001Y-73376682D01*
X158421254Y-73369802D01*
X158525762Y-73356044D01*
X158671841Y-73295536D01*
X158797282Y-73199282D01*
X158893536Y-73073841D01*
X158954044Y-72927762D01*
X158974682Y-72771000D01*
X158954044Y-72614238D01*
X158893536Y-72468159D01*
X158797282Y-72342718D01*
X158671841Y-72246464D01*
X158525762Y-72185956D01*
X158426455Y-72172882D01*
X158362559Y-72144615D01*
X158324088Y-72086291D01*
X158319702Y-72033761D01*
X158339682Y-71882000D01*
X158319044Y-71725238D01*
X158258536Y-71579159D01*
X158162282Y-71453718D01*
X158036841Y-71357464D01*
X157890762Y-71296956D01*
X157791455Y-71283882D01*
X157727559Y-71255615D01*
X157689088Y-71197291D01*
X157684702Y-71144761D01*
X157704682Y-70993000D01*
X157684702Y-70841239D01*
X157695467Y-70772206D01*
X157741847Y-70719950D01*
X157791454Y-70702118D01*
X157890762Y-70689044D01*
X158036841Y-70628536D01*
X158162282Y-70532282D01*
X158258536Y-70406841D01*
X158319044Y-70260762D01*
X158339682Y-70104000D01*
X158339155Y-70100000D01*
X158319044Y-69947239D01*
X158319044Y-69947238D01*
X158258536Y-69801159D01*
X158162282Y-69675718D01*
X158036841Y-69579464D01*
X157890762Y-69518956D01*
X157791455Y-69505882D01*
X157727559Y-69477615D01*
X157689088Y-69419291D01*
X157684702Y-69366761D01*
X157704682Y-69215000D01*
X157684702Y-69063239D01*
X157695467Y-68994206D01*
X157741847Y-68941950D01*
X157791454Y-68924118D01*
X157890762Y-68911044D01*
X158036841Y-68850536D01*
X158162282Y-68754282D01*
X158258536Y-68628841D01*
X158319044Y-68482762D01*
X158339682Y-68326000D01*
X158319044Y-68169238D01*
X158258536Y-68023159D01*
X158162282Y-67897718D01*
X158036841Y-67801464D01*
X157890762Y-67740956D01*
X157890760Y-67740955D01*
X157782242Y-67726669D01*
X157718345Y-67698402D01*
X157679874Y-67640078D01*
X157675488Y-67587546D01*
X157695308Y-67437000D01*
X157675488Y-67286453D01*
X157686253Y-67217419D01*
X157732633Y-67165163D01*
X157782239Y-67147331D01*
X157890762Y-67133044D01*
X158036841Y-67072536D01*
X158162282Y-66976282D01*
X158258536Y-66850841D01*
X158299665Y-66751547D01*
X158343506Y-66697144D01*
X158409800Y-66675079D01*
X158414226Y-66675000D01*
X160283907Y-66675000D01*
X160296061Y-66675597D01*
X160472941Y-66693018D01*
X160496769Y-66697757D01*
X160661001Y-66747576D01*
X160683453Y-66756877D01*
X160834798Y-66837772D01*
X160855010Y-66851277D01*
X160987666Y-66960145D01*
X161004854Y-66977333D01*
X161113722Y-67109989D01*
X161127227Y-67130201D01*
X161208121Y-67281543D01*
X161217424Y-67304001D01*
X161267240Y-67468224D01*
X161271982Y-67492065D01*
X161289403Y-67668938D01*
X161290000Y-67681092D01*
X161290000Y-85988907D01*
X161289403Y-86001061D01*
X161271982Y-86177934D01*
X161267240Y-86201775D01*
X161217424Y-86365998D01*
X161208121Y-86388456D01*
X161127227Y-86539798D01*
X161113722Y-86560010D01*
X161004854Y-86692666D01*
X160987666Y-86709854D01*
X160855010Y-86818722D01*
X160834798Y-86832227D01*
X160683456Y-86913121D01*
X160660998Y-86922424D01*
X160496775Y-86972240D01*
X160472934Y-86976982D01*
X160296061Y-86994403D01*
X160283907Y-86995000D01*
X138801093Y-86995000D01*
X138788939Y-86994403D01*
X138612065Y-86976982D01*
X138588224Y-86972240D01*
X138424001Y-86922424D01*
X138401543Y-86913121D01*
X138250201Y-86832227D01*
X138229989Y-86818722D01*
X138097333Y-86709854D01*
X138080145Y-86692666D01*
X137971277Y-86560010D01*
X137957772Y-86539798D01*
X137876878Y-86388456D01*
X137867575Y-86365998D01*
X137817757Y-86201769D01*
X137813018Y-86177941D01*
X137795597Y-86001061D01*
X137795000Y-85988907D01*
X137795000Y-73786998D01*
X139348318Y-73786998D01*
X139348318Y-73787001D01*
X139368955Y-73943760D01*
X139368956Y-73943762D01*
X139429464Y-74089841D01*
X139525718Y-74215282D01*
X139651159Y-74311536D01*
X139797238Y-74372044D01*
X139875619Y-74382363D01*
X139953999Y-74392682D01*
X139954000Y-74392682D01*
X139954001Y-74392682D01*
X140006254Y-74385802D01*
X140110762Y-74372044D01*
X140256841Y-74311536D01*
X140382282Y-74215282D01*
X140478536Y-74089841D01*
X140539044Y-73943762D01*
X140559682Y-73787000D01*
X140539044Y-73630238D01*
X140478536Y-73484159D01*
X140382282Y-73358718D01*
X140256841Y-73262464D01*
X140110762Y-73201956D01*
X140110760Y-73201955D01*
X139954001Y-73181318D01*
X139953999Y-73181318D01*
X139797239Y-73201955D01*
X139797237Y-73201956D01*
X139651160Y-73262463D01*
X139525718Y-73358718D01*
X139429463Y-73484160D01*
X139368956Y-73630237D01*
X139368955Y-73630239D01*
X139348318Y-73786998D01*
X137795000Y-73786998D01*
X137795000Y-67681092D01*
X137795597Y-67668938D01*
X137813018Y-67492056D01*
X137817757Y-67468232D01*
X137867577Y-67303994D01*
X137876875Y-67281549D01*
X137957775Y-67130195D01*
X137971272Y-67109995D01*
X138080149Y-66977328D01*
X138097328Y-66960149D01*
X138229995Y-66851272D01*
X138250195Y-66837775D01*
X138401549Y-66756875D01*
X138423994Y-66747577D01*
X138588232Y-66697757D01*
X138612056Y-66693018D01*
X138788939Y-66675597D01*
X138801093Y-66675000D01*
X141252058Y-66675000D01*
X141319097Y-66694685D01*
G37*
%TD.AperFunction*%
%TD*%
%TA.AperFunction,Conductor*%
%TO.N,B*%
G36*
X149177718Y-53419718D02*
G01*
X149081463Y-53545160D01*
X149020956Y-53691237D01*
X149020955Y-53691239D01*
X149000318Y-53847998D01*
X149000318Y-53848001D01*
X149020955Y-54004760D01*
X149020956Y-54004762D01*
X149081464Y-54150841D01*
X149177718Y-54276282D01*
X149303159Y-54372536D01*
X149449238Y-54433044D01*
X149527619Y-54443363D01*
X149605999Y-54453682D01*
X149606000Y-54453682D01*
X149606001Y-54453682D01*
X149658254Y-54446802D01*
X149762762Y-54433044D01*
X149908841Y-54372536D01*
X150034282Y-54276282D01*
X150130536Y-54150841D01*
X150191044Y-54004762D01*
X150211682Y-53848000D01*
X150208204Y-53821585D01*
X150191044Y-53691239D01*
X150191044Y-53691238D01*
X150130536Y-53545159D01*
X150034282Y-53419718D01*
X149930391Y-53340000D01*
X161544000Y-53340000D01*
X161544000Y-54340000D01*
X161544000Y-54340003D01*
X161544000Y-65033907D01*
X161543403Y-65046061D01*
X161525982Y-65222934D01*
X161521240Y-65246775D01*
X161471424Y-65410998D01*
X161462121Y-65433456D01*
X161381227Y-65584798D01*
X161367722Y-65605010D01*
X161258854Y-65737666D01*
X161241666Y-65754854D01*
X161109010Y-65863722D01*
X161088798Y-65877227D01*
X160937456Y-65958121D01*
X160914998Y-65967424D01*
X160750775Y-66017240D01*
X160726934Y-66021982D01*
X160550061Y-66039403D01*
X160537907Y-66040000D01*
X159749559Y-66040000D01*
X159682520Y-66020315D01*
X159636765Y-65967511D01*
X159626821Y-65898353D01*
X159651183Y-65840513D01*
X159655536Y-65834841D01*
X159716044Y-65688762D01*
X159736682Y-65532000D01*
X159716044Y-65375238D01*
X159655536Y-65229159D01*
X159559282Y-65103718D01*
X159433841Y-65007464D01*
X159353754Y-64974291D01*
X159287762Y-64946956D01*
X159287760Y-64946955D01*
X159131001Y-64926318D01*
X159130999Y-64926318D01*
X158974239Y-64946955D01*
X158974237Y-64946956D01*
X158828160Y-65007463D01*
X158702718Y-65103718D01*
X158606463Y-65229160D01*
X158545956Y-65375237D01*
X158545955Y-65375239D01*
X158525318Y-65531998D01*
X158525318Y-65532001D01*
X158545955Y-65688760D01*
X158545956Y-65688762D01*
X158606463Y-65834840D01*
X158606464Y-65834841D01*
X158610816Y-65840513D01*
X158636011Y-65905681D01*
X158621973Y-65974126D01*
X158573160Y-66024117D01*
X158512441Y-66040000D01*
X158098708Y-66040000D01*
X158044776Y-66025547D01*
X158044351Y-66026574D01*
X157890765Y-65962957D01*
X157890763Y-65962956D01*
X157890762Y-65962956D01*
X157791455Y-65949882D01*
X157727559Y-65921615D01*
X157689088Y-65863291D01*
X157684702Y-65810761D01*
X157704682Y-65659000D01*
X157684702Y-65507239D01*
X157695467Y-65438206D01*
X157741847Y-65385950D01*
X157791454Y-65368118D01*
X157890762Y-65355044D01*
X158036841Y-65294536D01*
X158162282Y-65198282D01*
X158258536Y-65072841D01*
X158319044Y-64926762D01*
X158339682Y-64770000D01*
X158319044Y-64613238D01*
X158258536Y-64467159D01*
X158162282Y-64341718D01*
X158036841Y-64245464D01*
X157890762Y-64184956D01*
X157890760Y-64184955D01*
X157734001Y-64164318D01*
X157733999Y-64164318D01*
X157577239Y-64184955D01*
X157577237Y-64184956D01*
X157431160Y-64245463D01*
X157305718Y-64341718D01*
X157209458Y-64467166D01*
X157206387Y-64472487D01*
X157155821Y-64520703D01*
X157087214Y-64533927D01*
X157022349Y-64507959D01*
X156991613Y-64472487D01*
X156988541Y-64467166D01*
X156987680Y-64466044D01*
X156892282Y-64341718D01*
X156766841Y-64245464D01*
X156620762Y-64184956D01*
X156620760Y-64184955D01*
X156464001Y-64164318D01*
X156463999Y-64164318D01*
X156307239Y-64184955D01*
X156307237Y-64184956D01*
X156161160Y-64245463D01*
X156035718Y-64341718D01*
X155939458Y-64467166D01*
X155936387Y-64472487D01*
X155885821Y-64520703D01*
X155817214Y-64533927D01*
X155752349Y-64507959D01*
X155721613Y-64472487D01*
X155718541Y-64467166D01*
X155717680Y-64466044D01*
X155622282Y-64341718D01*
X155496841Y-64245464D01*
X155350762Y-64184956D01*
X155350760Y-64184955D01*
X155194001Y-64164318D01*
X155193999Y-64164318D01*
X155037239Y-64184955D01*
X155037237Y-64184956D01*
X154891160Y-64245463D01*
X154765718Y-64341718D01*
X154669463Y-64467160D01*
X154608956Y-64613237D01*
X154608955Y-64613239D01*
X154588318Y-64769998D01*
X154588318Y-64770001D01*
X154608297Y-64921758D01*
X154597531Y-64990793D01*
X154551151Y-65043049D01*
X154501544Y-65060882D01*
X154402238Y-65073956D01*
X154402237Y-65073956D01*
X154256160Y-65134463D01*
X154130718Y-65230718D01*
X154034463Y-65356160D01*
X153973956Y-65502237D01*
X153973955Y-65502239D01*
X153953318Y-65658998D01*
X153953318Y-65659001D01*
X153973955Y-65815760D01*
X153973956Y-65815762D01*
X153995821Y-65868549D01*
X154003290Y-65938016D01*
X153972015Y-66000495D01*
X153911927Y-66036148D01*
X153881260Y-66040000D01*
X146092740Y-66040000D01*
X146025701Y-66020315D01*
X145979946Y-65967511D01*
X145970002Y-65898353D01*
X145978177Y-65868552D01*
X146000044Y-65815762D01*
X146020682Y-65659000D01*
X146000044Y-65502238D01*
X145939536Y-65356159D01*
X145843282Y-65230718D01*
X145717841Y-65134464D01*
X145571762Y-65073956D01*
X145472455Y-65060882D01*
X145408559Y-65032615D01*
X145370088Y-64974291D01*
X145365702Y-64921761D01*
X145385682Y-64770000D01*
X145365044Y-64613238D01*
X145304536Y-64467159D01*
X145208282Y-64341718D01*
X145082841Y-64245464D01*
X144936762Y-64184956D01*
X144936760Y-64184955D01*
X144780001Y-64164318D01*
X144779999Y-64164318D01*
X144623239Y-64184955D01*
X144623237Y-64184956D01*
X144477160Y-64245463D01*
X144351718Y-64341718D01*
X144255458Y-64467166D01*
X144252387Y-64472487D01*
X144201821Y-64520703D01*
X144133214Y-64533927D01*
X144068349Y-64507959D01*
X144037613Y-64472487D01*
X144034541Y-64467166D01*
X144033680Y-64466044D01*
X143938282Y-64341718D01*
X143812841Y-64245464D01*
X143666762Y-64184956D01*
X143666760Y-64184955D01*
X143510001Y-64164318D01*
X143509999Y-64164318D01*
X143353239Y-64184955D01*
X143353237Y-64184956D01*
X143207160Y-64245463D01*
X143081718Y-64341718D01*
X142985458Y-64467166D01*
X142982387Y-64472487D01*
X142931821Y-64520703D01*
X142863214Y-64533927D01*
X142798349Y-64507959D01*
X142767613Y-64472487D01*
X142764541Y-64467166D01*
X142763680Y-64466044D01*
X142668282Y-64341718D01*
X142542841Y-64245464D01*
X142396762Y-64184956D01*
X142396760Y-64184955D01*
X142240001Y-64164318D01*
X142239999Y-64164318D01*
X142083239Y-64184955D01*
X142083237Y-64184956D01*
X141937160Y-64245463D01*
X141811718Y-64341718D01*
X141715463Y-64467160D01*
X141654956Y-64613237D01*
X141654955Y-64613239D01*
X141634318Y-64769998D01*
X141634318Y-64770001D01*
X141654297Y-64921758D01*
X141643531Y-64990793D01*
X141597151Y-65043049D01*
X141547544Y-65060882D01*
X141448238Y-65073956D01*
X141448237Y-65073956D01*
X141302160Y-65134463D01*
X141176718Y-65230718D01*
X141080463Y-65356160D01*
X141019956Y-65502237D01*
X141019955Y-65502239D01*
X140999318Y-65658998D01*
X140999318Y-65659001D01*
X141019955Y-65815760D01*
X141019956Y-65815762D01*
X141041821Y-65868549D01*
X141049290Y-65938016D01*
X141018015Y-66000495D01*
X140957927Y-66036148D01*
X140927260Y-66040000D01*
X138547093Y-66040000D01*
X138534939Y-66039403D01*
X138358065Y-66021982D01*
X138334224Y-66017240D01*
X138170001Y-65967424D01*
X138147543Y-65958121D01*
X137996201Y-65877227D01*
X137975989Y-65863722D01*
X137843333Y-65754854D01*
X137826145Y-65737666D01*
X137717277Y-65605010D01*
X137703772Y-65584798D01*
X137622877Y-65433453D01*
X137613575Y-65410998D01*
X137602728Y-65375239D01*
X137563757Y-65246769D01*
X137559018Y-65222941D01*
X137541597Y-65046061D01*
X137541000Y-65033907D01*
X137541000Y-62610998D01*
X138459318Y-62610998D01*
X138459318Y-62611001D01*
X138479955Y-62767760D01*
X138479956Y-62767762D01*
X138540464Y-62913841D01*
X138636718Y-63039282D01*
X138762159Y-63135536D01*
X138908238Y-63196044D01*
X138986619Y-63206363D01*
X139064999Y-63216682D01*
X139065000Y-63216682D01*
X139065001Y-63216682D01*
X139117254Y-63209802D01*
X139221762Y-63196044D01*
X139367841Y-63135536D01*
X139493282Y-63039282D01*
X139589536Y-62913841D01*
X139650044Y-62767762D01*
X139670682Y-62611000D01*
X139650044Y-62454238D01*
X139589536Y-62308159D01*
X139493282Y-62182718D01*
X139367841Y-62086464D01*
X139221762Y-62025956D01*
X139221760Y-62025955D01*
X139065001Y-62005318D01*
X139064999Y-62005318D01*
X138908239Y-62025955D01*
X138908237Y-62025956D01*
X138762160Y-62086463D01*
X138636718Y-62182718D01*
X138540463Y-62308160D01*
X138479956Y-62454237D01*
X138479955Y-62454239D01*
X138459318Y-62610998D01*
X137541000Y-62610998D01*
X137541000Y-61213998D01*
X151540318Y-61213998D01*
X151540318Y-61214001D01*
X151560955Y-61370760D01*
X151560956Y-61370762D01*
X151621464Y-61516841D01*
X151717718Y-61642282D01*
X151843159Y-61738536D01*
X151989238Y-61799044D01*
X152067619Y-61809363D01*
X152145999Y-61819682D01*
X152146000Y-61819682D01*
X152146001Y-61819682D01*
X152198254Y-61812802D01*
X152302762Y-61799044D01*
X152448841Y-61738536D01*
X152574282Y-61642282D01*
X152670536Y-61516841D01*
X152670541Y-61516828D01*
X152673610Y-61511515D01*
X152724175Y-61463298D01*
X152792782Y-61450072D01*
X152857648Y-61476037D01*
X152888390Y-61511515D01*
X152891461Y-61516834D01*
X152891464Y-61516841D01*
X152987718Y-61642282D01*
X153113159Y-61738536D01*
X153259238Y-61799044D01*
X153337619Y-61809363D01*
X153415999Y-61819682D01*
X153416000Y-61819682D01*
X153416001Y-61819682D01*
X153468254Y-61812802D01*
X153572762Y-61799044D01*
X153718841Y-61738536D01*
X153844282Y-61642282D01*
X153940536Y-61516841D01*
X153940541Y-61516828D01*
X153943610Y-61511515D01*
X153994175Y-61463298D01*
X154062782Y-61450072D01*
X154127648Y-61476037D01*
X154158390Y-61511515D01*
X154161461Y-61516834D01*
X154161464Y-61516841D01*
X154257718Y-61642282D01*
X154383159Y-61738536D01*
X154529238Y-61799044D01*
X154607619Y-61809363D01*
X154685999Y-61819682D01*
X154686000Y-61819682D01*
X154686001Y-61819682D01*
X154738254Y-61812802D01*
X154842762Y-61799044D01*
X154988841Y-61738536D01*
X155114282Y-61642282D01*
X155210536Y-61516841D01*
X155210541Y-61516828D01*
X155213610Y-61511515D01*
X155264175Y-61463298D01*
X155332782Y-61450072D01*
X155397648Y-61476037D01*
X155428390Y-61511515D01*
X155431461Y-61516834D01*
X155431464Y-61516841D01*
X155527718Y-61642282D01*
X155653159Y-61738536D01*
X155799238Y-61799044D01*
X155877619Y-61809363D01*
X155955999Y-61819682D01*
X155956000Y-61819682D01*
X155956001Y-61819682D01*
X156008254Y-61812802D01*
X156112762Y-61799044D01*
X156258841Y-61738536D01*
X156384282Y-61642282D01*
X156480536Y-61516841D01*
X156480541Y-61516828D01*
X156483610Y-61511515D01*
X156534175Y-61463298D01*
X156602782Y-61450072D01*
X156667648Y-61476037D01*
X156698390Y-61511515D01*
X156701461Y-61516834D01*
X156701464Y-61516841D01*
X156797718Y-61642282D01*
X156923159Y-61738536D01*
X157069238Y-61799044D01*
X157147619Y-61809363D01*
X157225999Y-61819682D01*
X157226000Y-61819682D01*
X157226001Y-61819682D01*
X157278254Y-61812802D01*
X157382762Y-61799044D01*
X157528841Y-61738536D01*
X157654282Y-61642282D01*
X157750536Y-61516841D01*
X157750541Y-61516828D01*
X157753610Y-61511515D01*
X157804175Y-61463298D01*
X157872782Y-61450072D01*
X157937648Y-61476037D01*
X157968390Y-61511515D01*
X157971461Y-61516834D01*
X157971464Y-61516841D01*
X158067718Y-61642282D01*
X158193159Y-61738536D01*
X158339238Y-61799044D01*
X158417619Y-61809363D01*
X158495999Y-61819682D01*
X158496000Y-61819682D01*
X158496001Y-61819682D01*
X158548254Y-61812802D01*
X158652762Y-61799044D01*
X158798841Y-61738536D01*
X158924282Y-61642282D01*
X159020536Y-61516841D01*
X159020541Y-61516828D01*
X159023610Y-61511515D01*
X159074175Y-61463298D01*
X159142782Y-61450072D01*
X159207648Y-61476037D01*
X159238390Y-61511515D01*
X159241461Y-61516834D01*
X159241464Y-61516841D01*
X159337718Y-61642282D01*
X159463159Y-61738536D01*
X159609238Y-61799044D01*
X159687619Y-61809363D01*
X159765999Y-61819682D01*
X159766000Y-61819682D01*
X159766001Y-61819682D01*
X159818254Y-61812802D01*
X159922762Y-61799044D01*
X160068841Y-61738536D01*
X160194282Y-61642282D01*
X160290536Y-61516841D01*
X160351044Y-61370762D01*
X160371682Y-61214000D01*
X160351044Y-61057238D01*
X160290536Y-60911159D01*
X160194282Y-60785718D01*
X160068841Y-60689464D01*
X159922762Y-60628956D01*
X159922760Y-60628955D01*
X159766001Y-60608318D01*
X159765999Y-60608318D01*
X159609239Y-60628955D01*
X159609237Y-60628956D01*
X159463160Y-60689463D01*
X159337718Y-60785718D01*
X159241458Y-60911166D01*
X159238387Y-60916487D01*
X159187821Y-60964703D01*
X159119214Y-60977927D01*
X159054349Y-60951959D01*
X159023613Y-60916487D01*
X159020541Y-60911166D01*
X159020536Y-60911159D01*
X158924282Y-60785718D01*
X158798841Y-60689464D01*
X158652762Y-60628956D01*
X158652760Y-60628955D01*
X158496001Y-60608318D01*
X158495999Y-60608318D01*
X158339239Y-60628955D01*
X158339237Y-60628956D01*
X158193160Y-60689463D01*
X158067718Y-60785718D01*
X157971458Y-60911166D01*
X157968387Y-60916487D01*
X157917821Y-60964703D01*
X157849214Y-60977927D01*
X157784349Y-60951959D01*
X157753613Y-60916487D01*
X157750541Y-60911166D01*
X157750536Y-60911159D01*
X157654282Y-60785718D01*
X157528841Y-60689464D01*
X157382762Y-60628956D01*
X157382760Y-60628955D01*
X157226001Y-60608318D01*
X157225999Y-60608318D01*
X157069239Y-60628955D01*
X157069237Y-60628956D01*
X156923160Y-60689463D01*
X156797718Y-60785718D01*
X156701458Y-60911166D01*
X156698387Y-60916487D01*
X156647821Y-60964703D01*
X156579214Y-60977927D01*
X156514349Y-60951959D01*
X156483613Y-60916487D01*
X156480541Y-60911166D01*
X156480536Y-60911159D01*
X156384282Y-60785718D01*
X156258841Y-60689464D01*
X156112762Y-60628956D01*
X156112760Y-60628955D01*
X155956001Y-60608318D01*
X155955999Y-60608318D01*
X155799239Y-60628955D01*
X155799237Y-60628956D01*
X155653160Y-60689463D01*
X155527718Y-60785718D01*
X155431458Y-60911166D01*
X155428387Y-60916487D01*
X155377821Y-60964703D01*
X155309214Y-60977927D01*
X155244349Y-60951959D01*
X155213613Y-60916487D01*
X155210541Y-60911166D01*
X155210536Y-60911159D01*
X155114282Y-60785718D01*
X154988841Y-60689464D01*
X154842762Y-60628956D01*
X154842760Y-60628955D01*
X154686001Y-60608318D01*
X154685999Y-60608318D01*
X154529239Y-60628955D01*
X154529237Y-60628956D01*
X154383160Y-60689463D01*
X154257718Y-60785718D01*
X154161458Y-60911166D01*
X154158387Y-60916487D01*
X154107821Y-60964703D01*
X154039214Y-60977927D01*
X153974349Y-60951959D01*
X153943613Y-60916487D01*
X153940541Y-60911166D01*
X153940536Y-60911159D01*
X153844282Y-60785718D01*
X153718841Y-60689464D01*
X153572762Y-60628956D01*
X153572760Y-60628955D01*
X153416001Y-60608318D01*
X153415999Y-60608318D01*
X153259239Y-60628955D01*
X153259237Y-60628956D01*
X153113160Y-60689463D01*
X152987718Y-60785718D01*
X152891458Y-60911166D01*
X152888387Y-60916487D01*
X152837821Y-60964703D01*
X152769214Y-60977927D01*
X152704349Y-60951959D01*
X152673613Y-60916487D01*
X152670541Y-60911166D01*
X152670536Y-60911159D01*
X152574282Y-60785718D01*
X152448841Y-60689464D01*
X152302762Y-60628956D01*
X152302760Y-60628955D01*
X152146001Y-60608318D01*
X152145999Y-60608318D01*
X151989239Y-60628955D01*
X151989237Y-60628956D01*
X151843160Y-60689463D01*
X151717718Y-60785718D01*
X151621463Y-60911160D01*
X151560956Y-61057237D01*
X151560955Y-61057239D01*
X151540318Y-61213998D01*
X137541000Y-61213998D01*
X137541000Y-59374426D01*
X137560685Y-59307387D01*
X137613489Y-59261632D01*
X137617520Y-59259876D01*
X137702841Y-59224536D01*
X137828282Y-59128282D01*
X137924536Y-59002841D01*
X137985044Y-58856762D01*
X138005682Y-58700000D01*
X137985044Y-58543238D01*
X137924536Y-58397159D01*
X137828282Y-58271718D01*
X137702841Y-58175464D01*
X137667920Y-58160999D01*
X137617546Y-58140133D01*
X137563143Y-58096291D01*
X137544075Y-58038998D01*
X152810318Y-58038998D01*
X152810318Y-58039001D01*
X152830955Y-58195760D01*
X152830956Y-58195762D01*
X152891464Y-58341841D01*
X152987718Y-58467282D01*
X153113159Y-58563536D01*
X153259238Y-58624044D01*
X153337619Y-58634363D01*
X153415999Y-58644682D01*
X153416000Y-58644682D01*
X153416001Y-58644682D01*
X153468254Y-58637802D01*
X153572762Y-58624044D01*
X153718841Y-58563536D01*
X153844282Y-58467282D01*
X153940536Y-58341841D01*
X153940541Y-58341828D01*
X153943610Y-58336515D01*
X153994175Y-58288298D01*
X154062782Y-58275072D01*
X154127648Y-58301037D01*
X154158390Y-58336515D01*
X154161461Y-58341834D01*
X154161464Y-58341841D01*
X154257718Y-58467282D01*
X154383159Y-58563536D01*
X154529238Y-58624044D01*
X154607619Y-58634363D01*
X154685999Y-58644682D01*
X154686000Y-58644682D01*
X154686001Y-58644682D01*
X154738254Y-58637802D01*
X154842762Y-58624044D01*
X154988841Y-58563536D01*
X155114282Y-58467282D01*
X155210536Y-58341841D01*
X155210541Y-58341828D01*
X155213610Y-58336515D01*
X155264175Y-58288298D01*
X155332782Y-58275072D01*
X155397648Y-58301037D01*
X155428390Y-58336515D01*
X155431461Y-58341834D01*
X155431464Y-58341841D01*
X155527718Y-58467282D01*
X155653159Y-58563536D01*
X155799238Y-58624044D01*
X155877619Y-58634363D01*
X155955999Y-58644682D01*
X155956000Y-58644682D01*
X155956001Y-58644682D01*
X156008254Y-58637802D01*
X156112762Y-58624044D01*
X156258841Y-58563536D01*
X156384282Y-58467282D01*
X156480536Y-58341841D01*
X156480541Y-58341828D01*
X156483610Y-58336515D01*
X156534175Y-58288298D01*
X156602782Y-58275072D01*
X156667648Y-58301037D01*
X156698390Y-58336515D01*
X156701461Y-58341834D01*
X156701464Y-58341841D01*
X156797718Y-58467282D01*
X156923159Y-58563536D01*
X157069238Y-58624044D01*
X157147619Y-58634363D01*
X157225999Y-58644682D01*
X157226000Y-58644682D01*
X157226001Y-58644682D01*
X157278254Y-58637802D01*
X157382762Y-58624044D01*
X157528841Y-58563536D01*
X157654282Y-58467282D01*
X157750536Y-58341841D01*
X157750541Y-58341828D01*
X157753610Y-58336515D01*
X157804175Y-58288298D01*
X157872782Y-58275072D01*
X157937648Y-58301037D01*
X157968390Y-58336515D01*
X157971461Y-58341834D01*
X157971464Y-58341841D01*
X158067718Y-58467282D01*
X158193159Y-58563536D01*
X158339238Y-58624044D01*
X158417619Y-58634363D01*
X158495999Y-58644682D01*
X158496000Y-58644682D01*
X158496001Y-58644682D01*
X158548254Y-58637802D01*
X158652762Y-58624044D01*
X158798841Y-58563536D01*
X158924282Y-58467282D01*
X159020536Y-58341841D01*
X159081044Y-58195762D01*
X159101682Y-58039000D01*
X159081044Y-57882238D01*
X159020536Y-57736159D01*
X158924282Y-57610718D01*
X158798841Y-57514464D01*
X158652762Y-57453956D01*
X158652760Y-57453955D01*
X158496001Y-57433318D01*
X158495999Y-57433318D01*
X158339239Y-57453955D01*
X158339237Y-57453956D01*
X158193160Y-57514463D01*
X158067718Y-57610718D01*
X157971458Y-57736166D01*
X157968387Y-57741487D01*
X157917821Y-57789703D01*
X157849214Y-57802927D01*
X157784349Y-57776959D01*
X157753613Y-57741487D01*
X157750541Y-57736166D01*
X157750536Y-57736159D01*
X157654282Y-57610718D01*
X157528841Y-57514464D01*
X157382762Y-57453956D01*
X157382760Y-57453955D01*
X157226001Y-57433318D01*
X157225999Y-57433318D01*
X157069239Y-57453955D01*
X157069237Y-57453956D01*
X156923160Y-57514463D01*
X156797718Y-57610718D01*
X156701458Y-57736166D01*
X156698387Y-57741487D01*
X156647821Y-57789703D01*
X156579214Y-57802927D01*
X156514349Y-57776959D01*
X156483613Y-57741487D01*
X156480541Y-57736166D01*
X156480536Y-57736159D01*
X156384282Y-57610718D01*
X156258841Y-57514464D01*
X156112762Y-57453956D01*
X156112760Y-57453955D01*
X155956001Y-57433318D01*
X155955999Y-57433318D01*
X155799239Y-57453955D01*
X155799237Y-57453956D01*
X155653160Y-57514463D01*
X155527718Y-57610718D01*
X155431458Y-57736166D01*
X155428387Y-57741487D01*
X155377821Y-57789703D01*
X155309214Y-57802927D01*
X155244349Y-57776959D01*
X155213613Y-57741487D01*
X155210541Y-57736166D01*
X155210536Y-57736159D01*
X155114282Y-57610718D01*
X154988841Y-57514464D01*
X154842762Y-57453956D01*
X154842760Y-57453955D01*
X154686001Y-57433318D01*
X154685999Y-57433318D01*
X154529239Y-57453955D01*
X154529237Y-57453956D01*
X154383160Y-57514463D01*
X154257718Y-57610718D01*
X154161458Y-57736166D01*
X154158387Y-57741487D01*
X154107821Y-57789703D01*
X154039214Y-57802927D01*
X153974349Y-57776959D01*
X153943613Y-57741487D01*
X153940541Y-57736166D01*
X153940536Y-57736159D01*
X153844282Y-57610718D01*
X153718841Y-57514464D01*
X153572762Y-57453956D01*
X153572760Y-57453955D01*
X153416001Y-57433318D01*
X153415999Y-57433318D01*
X153259239Y-57453955D01*
X153259237Y-57453956D01*
X153113160Y-57514463D01*
X152987718Y-57610718D01*
X152891463Y-57736160D01*
X152830956Y-57882237D01*
X152830955Y-57882239D01*
X152810318Y-58038998D01*
X137544075Y-58038998D01*
X137541079Y-58029997D01*
X137541000Y-58025572D01*
X137541000Y-54863998D01*
X151540318Y-54863998D01*
X151540318Y-54864001D01*
X151560955Y-55020760D01*
X151560956Y-55020762D01*
X151621464Y-55166841D01*
X151717718Y-55292282D01*
X151843159Y-55388536D01*
X151989238Y-55449044D01*
X152067619Y-55459363D01*
X152145999Y-55469682D01*
X152146000Y-55469682D01*
X152146001Y-55469682D01*
X152198254Y-55462802D01*
X152302762Y-55449044D01*
X152448841Y-55388536D01*
X152574282Y-55292282D01*
X152670536Y-55166841D01*
X152670541Y-55166828D01*
X152673610Y-55161515D01*
X152724175Y-55113298D01*
X152792782Y-55100072D01*
X152857648Y-55126037D01*
X152888390Y-55161515D01*
X152891461Y-55166834D01*
X152891464Y-55166841D01*
X152987718Y-55292282D01*
X153113159Y-55388536D01*
X153259238Y-55449044D01*
X153337619Y-55459363D01*
X153415999Y-55469682D01*
X153416000Y-55469682D01*
X153416001Y-55469682D01*
X153468254Y-55462802D01*
X153572762Y-55449044D01*
X153718841Y-55388536D01*
X153844282Y-55292282D01*
X153940536Y-55166841D01*
X153940541Y-55166828D01*
X153943610Y-55161515D01*
X153994175Y-55113298D01*
X154062782Y-55100072D01*
X154127648Y-55126037D01*
X154158390Y-55161515D01*
X154161461Y-55166834D01*
X154161464Y-55166841D01*
X154257718Y-55292282D01*
X154383159Y-55388536D01*
X154529238Y-55449044D01*
X154607619Y-55459363D01*
X154685999Y-55469682D01*
X154686000Y-55469682D01*
X154686001Y-55469682D01*
X154738254Y-55462802D01*
X154842762Y-55449044D01*
X154988841Y-55388536D01*
X155114282Y-55292282D01*
X155210536Y-55166841D01*
X155210541Y-55166828D01*
X155213610Y-55161515D01*
X155264175Y-55113298D01*
X155332782Y-55100072D01*
X155397648Y-55126037D01*
X155428390Y-55161515D01*
X155431461Y-55166834D01*
X155431464Y-55166841D01*
X155527718Y-55292282D01*
X155653159Y-55388536D01*
X155799238Y-55449044D01*
X155877619Y-55459363D01*
X155955999Y-55469682D01*
X155956000Y-55469682D01*
X155956001Y-55469682D01*
X156008254Y-55462802D01*
X156112762Y-55449044D01*
X156258841Y-55388536D01*
X156384282Y-55292282D01*
X156480536Y-55166841D01*
X156480541Y-55166828D01*
X156483610Y-55161515D01*
X156534175Y-55113298D01*
X156602782Y-55100072D01*
X156667648Y-55126037D01*
X156698390Y-55161515D01*
X156701461Y-55166834D01*
X156701464Y-55166841D01*
X156797718Y-55292282D01*
X156923159Y-55388536D01*
X157069238Y-55449044D01*
X157147619Y-55459363D01*
X157225999Y-55469682D01*
X157226000Y-55469682D01*
X157226001Y-55469682D01*
X157278254Y-55462802D01*
X157382762Y-55449044D01*
X157528841Y-55388536D01*
X157654282Y-55292282D01*
X157750536Y-55166841D01*
X157750541Y-55166828D01*
X157753610Y-55161515D01*
X157804175Y-55113298D01*
X157872782Y-55100072D01*
X157937648Y-55126037D01*
X157968390Y-55161515D01*
X157971461Y-55166834D01*
X157971464Y-55166841D01*
X158067718Y-55292282D01*
X158193159Y-55388536D01*
X158339238Y-55449044D01*
X158417619Y-55459363D01*
X158495999Y-55469682D01*
X158496000Y-55469682D01*
X158496001Y-55469682D01*
X158548254Y-55462802D01*
X158652762Y-55449044D01*
X158798841Y-55388536D01*
X158924282Y-55292282D01*
X159020536Y-55166841D01*
X159020541Y-55166828D01*
X159023610Y-55161515D01*
X159074175Y-55113298D01*
X159142782Y-55100072D01*
X159207648Y-55126037D01*
X159238390Y-55161515D01*
X159241461Y-55166834D01*
X159241464Y-55166841D01*
X159337718Y-55292282D01*
X159463159Y-55388536D01*
X159609238Y-55449044D01*
X159687619Y-55459363D01*
X159765999Y-55469682D01*
X159766000Y-55469682D01*
X159766001Y-55469682D01*
X159818254Y-55462802D01*
X159922762Y-55449044D01*
X160068841Y-55388536D01*
X160194282Y-55292282D01*
X160290536Y-55166841D01*
X160351044Y-55020762D01*
X160371682Y-54864000D01*
X160351044Y-54707238D01*
X160290536Y-54561159D01*
X160194282Y-54435718D01*
X160068841Y-54339464D01*
X159922762Y-54278956D01*
X159922760Y-54278955D01*
X159766001Y-54258318D01*
X159765999Y-54258318D01*
X159609239Y-54278955D01*
X159609237Y-54278956D01*
X159463160Y-54339463D01*
X159337718Y-54435718D01*
X159241458Y-54561166D01*
X159238387Y-54566487D01*
X159187821Y-54614703D01*
X159119214Y-54627927D01*
X159054349Y-54601959D01*
X159023613Y-54566487D01*
X159020541Y-54561166D01*
X159020536Y-54561159D01*
X158924282Y-54435718D01*
X158798841Y-54339464D01*
X158652762Y-54278956D01*
X158652760Y-54278955D01*
X158496001Y-54258318D01*
X158495999Y-54258318D01*
X158339239Y-54278955D01*
X158339237Y-54278956D01*
X158193160Y-54339463D01*
X158067718Y-54435718D01*
X157971458Y-54561166D01*
X157968387Y-54566487D01*
X157917821Y-54614703D01*
X157849214Y-54627927D01*
X157784349Y-54601959D01*
X157753613Y-54566487D01*
X157750541Y-54561166D01*
X157750536Y-54561159D01*
X157654282Y-54435718D01*
X157528841Y-54339464D01*
X157382762Y-54278956D01*
X157382760Y-54278955D01*
X157226001Y-54258318D01*
X157225999Y-54258318D01*
X157069239Y-54278955D01*
X157069237Y-54278956D01*
X156923160Y-54339463D01*
X156797718Y-54435718D01*
X156701458Y-54561166D01*
X156698387Y-54566487D01*
X156647821Y-54614703D01*
X156579214Y-54627927D01*
X156514349Y-54601959D01*
X156483613Y-54566487D01*
X156480541Y-54561166D01*
X156480536Y-54561159D01*
X156384282Y-54435718D01*
X156258841Y-54339464D01*
X156112762Y-54278956D01*
X156112760Y-54278955D01*
X155956001Y-54258318D01*
X155955999Y-54258318D01*
X155799239Y-54278955D01*
X155799237Y-54278956D01*
X155653160Y-54339463D01*
X155527718Y-54435718D01*
X155431458Y-54561166D01*
X155428387Y-54566487D01*
X155377821Y-54614703D01*
X155309214Y-54627927D01*
X155244349Y-54601959D01*
X155213613Y-54566487D01*
X155210541Y-54561166D01*
X155210536Y-54561159D01*
X155114282Y-54435718D01*
X154988841Y-54339464D01*
X154842762Y-54278956D01*
X154842760Y-54278955D01*
X154686001Y-54258318D01*
X154685999Y-54258318D01*
X154529239Y-54278955D01*
X154529237Y-54278956D01*
X154383160Y-54339463D01*
X154257718Y-54435718D01*
X154161458Y-54561166D01*
X154158387Y-54566487D01*
X154107821Y-54614703D01*
X154039214Y-54627927D01*
X153974349Y-54601959D01*
X153943613Y-54566487D01*
X153940541Y-54561166D01*
X153940536Y-54561159D01*
X153844282Y-54435718D01*
X153718841Y-54339464D01*
X153572762Y-54278956D01*
X153572760Y-54278955D01*
X153416001Y-54258318D01*
X153415999Y-54258318D01*
X153259239Y-54278955D01*
X153259237Y-54278956D01*
X153113160Y-54339463D01*
X152987718Y-54435718D01*
X152891458Y-54561166D01*
X152888387Y-54566487D01*
X152837821Y-54614703D01*
X152769214Y-54627927D01*
X152704349Y-54601959D01*
X152673613Y-54566487D01*
X152670541Y-54561166D01*
X152670536Y-54561159D01*
X152574282Y-54435718D01*
X152448841Y-54339464D01*
X152302762Y-54278956D01*
X152302760Y-54278955D01*
X152146001Y-54258318D01*
X152145999Y-54258318D01*
X151989239Y-54278955D01*
X151989237Y-54278956D01*
X151843160Y-54339463D01*
X151717718Y-54435718D01*
X151621463Y-54561160D01*
X151560956Y-54707237D01*
X151560955Y-54707239D01*
X151540318Y-54863998D01*
X137541000Y-54863998D01*
X137541000Y-54340003D01*
X137541000Y-54340000D01*
X137541000Y-53340000D01*
X149281608Y-53340000D01*
X149177718Y-53419718D01*
G37*
%TD.AperFunction*%
%TD*%
M02*
