%TF.GenerationSoftware,KiCad,Pcbnew,8.0.5-8.0.5-0~ubuntu24.04.1*%
%TF.CreationDate,2024-12-11T12:22:47+03:00*%
%TF.ProjectId,_______ _____,21383b3e-3230-44f2-903f-3b3042302e6b,rev?*%
%TF.SameCoordinates,Original*%
%TF.FileFunction,Soldermask,Top*%
%TF.FilePolarity,Negative*%
%FSLAX46Y46*%
G04 Gerber Fmt 4.6, Leading zero omitted, Abs format (unit mm)*
G04 Created by KiCad (PCBNEW 8.0.5-8.0.5-0~ubuntu24.04.1) date 2024-12-11 12:22:47*
%MOMM*%
%LPD*%
G01*
G04 APERTURE LIST*
G04 Aperture macros list*
%AMRoundRect*
0 Rectangle with rounded corners*
0 $1 Rounding radius*
0 $2 $3 $4 $5 $6 $7 $8 $9 X,Y pos of 4 corners*
0 Add a 4 corners polygon primitive as box body*
4,1,4,$2,$3,$4,$5,$6,$7,$8,$9,$2,$3,0*
0 Add four circle primitives for the rounded corners*
1,1,$1+$1,$2,$3*
1,1,$1+$1,$4,$5*
1,1,$1+$1,$6,$7*
1,1,$1+$1,$8,$9*
0 Add four rect primitives between the rounded corners*
20,1,$1+$1,$2,$3,$4,$5,0*
20,1,$1+$1,$4,$5,$6,$7,0*
20,1,$1+$1,$6,$7,$8,$9,0*
20,1,$1+$1,$8,$9,$2,$3,0*%
G04 Aperture macros list end*
%ADD10RoundRect,0.250000X-0.412500X-1.100000X0.412500X-1.100000X0.412500X1.100000X-0.412500X1.100000X0*%
%ADD11RoundRect,0.237500X-0.237500X0.250000X-0.237500X-0.250000X0.237500X-0.250000X0.237500X0.250000X0*%
%ADD12C,5.000000*%
%ADD13RoundRect,0.250000X0.412500X1.100000X-0.412500X1.100000X-0.412500X-1.100000X0.412500X-1.100000X0*%
%ADD14RoundRect,0.250000X-0.450000X0.350000X-0.450000X-0.350000X0.450000X-0.350000X0.450000X0.350000X0*%
%ADD15RoundRect,0.237500X0.237500X-0.250000X0.237500X0.250000X-0.237500X0.250000X-0.237500X-0.250000X0*%
%ADD16C,8.200000*%
%ADD17R,2.800000X0.900000*%
%ADD18R,1.550000X10.100000*%
%ADD19R,2.750000X8.700000*%
%ADD20R,3.700000X9.700000*%
%ADD21RoundRect,0.250000X0.650000X-0.412500X0.650000X0.412500X-0.650000X0.412500X-0.650000X-0.412500X0*%
%ADD22C,6.000000*%
%ADD23RoundRect,0.237500X-0.250000X-0.237500X0.250000X-0.237500X0.250000X0.237500X-0.250000X0.237500X0*%
%ADD24R,0.900000X2.800000*%
%ADD25R,10.100000X1.550000*%
%ADD26R,8.700000X2.750000*%
%ADD27R,9.700000X3.700000*%
%ADD28R,0.650000X1.800000*%
%ADD29C,2.000000*%
%ADD30RoundRect,0.250000X0.412500X0.650000X-0.412500X0.650000X-0.412500X-0.650000X0.412500X-0.650000X0*%
%ADD31RoundRect,0.250000X0.450000X-0.350000X0.450000X0.350000X-0.450000X0.350000X-0.450000X-0.350000X0*%
%ADD32R,1.800000X0.650000*%
%ADD33RoundRect,0.249999X-0.450001X-1.425001X0.450001X-1.425001X0.450001X1.425001X-0.450001X1.425001X0*%
%ADD34RoundRect,0.237500X0.250000X0.237500X-0.250000X0.237500X-0.250000X-0.237500X0.250000X-0.237500X0*%
%ADD35C,3.200000*%
%ADD36RoundRect,0.225000X0.375000X-0.225000X0.375000X0.225000X-0.375000X0.225000X-0.375000X-0.225000X0*%
%TA.AperFunction,Profile*%
%ADD37C,0.200000*%
%TD*%
G04 APERTURE END LIST*
D10*
%TO.C,C14*%
X135089500Y-109982000D03*
X138214500Y-109982000D03*
%TD*%
D11*
%TO.C,R5*%
X125000000Y-77837500D03*
X125000000Y-79662500D03*
%TD*%
D12*
%TO.C,J8*%
X132222240Y-124898250D03*
%TD*%
D13*
%TO.C,C4*%
X143802500Y-92202000D03*
X140677500Y-92202000D03*
%TD*%
D14*
%TO.C,R9*%
X164592000Y-120031000D03*
X164592000Y-122031000D03*
%TD*%
D15*
%TO.C,R7*%
X137400000Y-61512500D03*
X137400000Y-59687500D03*
%TD*%
D16*
%TO.C,J4*%
X127142240Y-58223250D03*
%TD*%
%TO.C,J1*%
X171592240Y-58223250D03*
%TD*%
D13*
%TO.C,C39*%
X143764000Y-102870000D03*
X140639000Y-102870000D03*
%TD*%
D12*
%TO.C,J2*%
X167147240Y-124898250D03*
%TD*%
D15*
%TO.C,R3*%
X174498000Y-86510500D03*
X174498000Y-84685500D03*
%TD*%
D10*
%TO.C,C26*%
X146481000Y-113538000D03*
X149606000Y-113538000D03*
%TD*%
%TO.C,C9*%
X146519500Y-92202000D03*
X149644500Y-92202000D03*
%TD*%
D17*
%TO.C,Q6*%
X138208500Y-73796000D03*
X138208500Y-72596000D03*
X138208500Y-71396000D03*
X138208500Y-70196000D03*
X138208500Y-68996000D03*
X138208500Y-67796000D03*
X138208500Y-66596000D03*
X138208500Y-65396000D03*
D18*
X127358500Y-69596000D03*
D19*
X129508500Y-69596000D03*
D20*
X132733500Y-69596000D03*
%TD*%
D21*
%TO.C,C50*%
X144526000Y-77508500D03*
X144526000Y-74383500D03*
%TD*%
D10*
%TO.C,C25*%
X146481000Y-109982000D03*
X149606000Y-109982000D03*
%TD*%
D22*
%TO.C,J6*%
X144287240Y-119483250D03*
%TD*%
D10*
%TO.C,C21*%
X146519500Y-99314000D03*
X149644500Y-99314000D03*
%TD*%
D21*
%TO.C,C51*%
X157226000Y-77508500D03*
X157226000Y-74383500D03*
%TD*%
D23*
%TO.C,TH3*%
X127103500Y-75946000D03*
X128928500Y-75946000D03*
%TD*%
D24*
%TO.C,Q7*%
X161187240Y-102616000D03*
X159987240Y-102616000D03*
X158787240Y-102616000D03*
X157587240Y-102616000D03*
X156387240Y-102616000D03*
X155187240Y-102616000D03*
X153987240Y-102616000D03*
X152787240Y-102616000D03*
D25*
X156987240Y-113466000D03*
D26*
X156987240Y-111316000D03*
D27*
X156987240Y-108091000D03*
%TD*%
D13*
%TO.C,C3*%
X143764000Y-113538000D03*
X140639000Y-113538000D03*
%TD*%
D16*
%TO.C,J3*%
X149367240Y-42983250D03*
%TD*%
D28*
%TO.C,J7*%
X158369000Y-89836000D03*
X159639000Y-92536000D03*
X160909000Y-89836000D03*
X162179000Y-92536000D03*
X163449000Y-89836000D03*
X164719000Y-92536000D03*
X165989000Y-89836000D03*
X167259000Y-92536000D03*
X168529000Y-89836000D03*
X169799000Y-92536000D03*
%TD*%
D17*
%TO.C,Q3*%
X127983500Y-77842000D03*
X127983500Y-79042000D03*
X127983500Y-80242000D03*
X127983500Y-81442000D03*
X127983500Y-82642000D03*
X127983500Y-83842000D03*
X127983500Y-85042000D03*
X127983500Y-86242000D03*
D18*
X138833500Y-82042000D03*
D19*
X136683500Y-82042000D03*
D20*
X133458500Y-82042000D03*
%TD*%
D13*
%TO.C,C27*%
X143802500Y-95758000D03*
X140677500Y-95758000D03*
%TD*%
D21*
%TO.C,C47*%
X141986000Y-77508500D03*
X141986000Y-74383500D03*
%TD*%
D15*
%TO.C,TH1*%
X149606000Y-52982500D03*
X149606000Y-51157500D03*
%TD*%
D10*
%TO.C,C42*%
X135089500Y-95758000D03*
X138214500Y-95758000D03*
%TD*%
D29*
%TO.C,C44*%
X160797240Y-124838250D03*
X160797240Y-117338250D03*
%TD*%
D30*
%TO.C,C46*%
X151168500Y-64516000D03*
X148043500Y-64516000D03*
%TD*%
D10*
%TO.C,C29*%
X135051000Y-113538000D03*
X138176000Y-113538000D03*
%TD*%
D31*
%TO.C,R10*%
X134112000Y-122031000D03*
X134112000Y-120031000D03*
%TD*%
D22*
%TO.C,J5*%
X154447240Y-119483250D03*
%TD*%
D13*
%TO.C,C34*%
X143764000Y-106426000D03*
X140639000Y-106426000D03*
%TD*%
D15*
%TO.C,R4*%
X162941000Y-51458500D03*
X162941000Y-49633500D03*
%TD*%
D32*
%TO.C,J17*%
X180246000Y-66421000D03*
X177546000Y-67691000D03*
X180246000Y-68961000D03*
X177546000Y-70231000D03*
X180246000Y-71501000D03*
X177546000Y-72771000D03*
X180246000Y-74041000D03*
X177546000Y-75311000D03*
X180246000Y-76581000D03*
X177546000Y-77851000D03*
%TD*%
D33*
%TO.C,R1*%
X146048000Y-85598000D03*
X152148000Y-85598000D03*
%TD*%
D10*
%TO.C,C13*%
X135038000Y-99275500D03*
X138163000Y-99275500D03*
%TD*%
D34*
%TO.C,R8*%
X139112500Y-75500000D03*
X137287500Y-75500000D03*
%TD*%
D35*
%TO.C,H1*%
X162067240Y-42983250D03*
%TD*%
D24*
%TO.C,Q5*%
X139056000Y-60770000D03*
X140256000Y-60770000D03*
X141456000Y-60770000D03*
X142656000Y-60770000D03*
X143856000Y-60770000D03*
X145056000Y-60770000D03*
X146256000Y-60770000D03*
X147456000Y-60770000D03*
D25*
X143256000Y-49920000D03*
D26*
X143256000Y-52070000D03*
D27*
X143256000Y-55295000D03*
%TD*%
D23*
%TO.C,R6*%
X160250500Y-63881000D03*
X162075500Y-63881000D03*
%TD*%
D13*
%TO.C,C38*%
X143802500Y-99314000D03*
X140677500Y-99314000D03*
%TD*%
D30*
%TO.C,C49*%
X151168500Y-67056000D03*
X148043500Y-67056000D03*
%TD*%
D10*
%TO.C,C8*%
X146519500Y-95758000D03*
X149644500Y-95758000D03*
%TD*%
D17*
%TO.C,Q4*%
X161036000Y-65488000D03*
X161036000Y-66688000D03*
X161036000Y-67888000D03*
X161036000Y-69088000D03*
X161036000Y-70288000D03*
X161036000Y-71488000D03*
X161036000Y-72688000D03*
X161036000Y-73888000D03*
D18*
X171886000Y-69688000D03*
D19*
X169736000Y-69688000D03*
D20*
X166511000Y-69688000D03*
%TD*%
D36*
%TO.C,D1*%
X164607240Y-103877000D03*
X164607240Y-100577000D03*
%TD*%
D10*
%TO.C,C10*%
X146481000Y-106426000D03*
X149606000Y-106426000D03*
%TD*%
D34*
%TO.C,TH2*%
X172108500Y-75946000D03*
X170283500Y-75946000D03*
%TD*%
D32*
%TO.C,J18*%
X121492000Y-66421000D03*
X118792000Y-67691000D03*
X121492000Y-68961000D03*
X118792000Y-70231000D03*
X121492000Y-71501000D03*
X118792000Y-72771000D03*
X121492000Y-74041000D03*
X118792000Y-75311000D03*
X121492000Y-76581000D03*
X118792000Y-77851000D03*
%TD*%
D29*
%TO.C,C45*%
X137937240Y-117338250D03*
X137937240Y-124838250D03*
%TD*%
D10*
%TO.C,C17*%
X135089500Y-102870000D03*
X138214500Y-102870000D03*
%TD*%
D14*
%TO.C,R2*%
X164607240Y-105927000D03*
X164607240Y-107927000D03*
%TD*%
D10*
%TO.C,C1*%
X135089500Y-92202000D03*
X138214500Y-92202000D03*
%TD*%
D24*
%TO.C,Q2*%
X160156000Y-50513500D03*
X158956000Y-50513500D03*
X157756000Y-50513500D03*
X156556000Y-50513500D03*
X155356000Y-50513500D03*
X154156000Y-50513500D03*
X152956000Y-50513500D03*
X151756000Y-50513500D03*
D25*
X155956000Y-61363500D03*
D26*
X155956000Y-59213500D03*
D27*
X155956000Y-55988500D03*
%TD*%
D13*
%TO.C,C36*%
X143764000Y-109982000D03*
X140639000Y-109982000D03*
%TD*%
D35*
%TO.C,H2*%
X136667240Y-42983250D03*
%TD*%
D17*
%TO.C,Q1*%
X171191000Y-86242000D03*
X171191000Y-85042000D03*
X171191000Y-83842000D03*
X171191000Y-82642000D03*
X171191000Y-81442000D03*
X171191000Y-80242000D03*
X171191000Y-79042000D03*
X171191000Y-77842000D03*
D18*
X160341000Y-82042000D03*
D19*
X162491000Y-82042000D03*
D20*
X165716000Y-82042000D03*
%TD*%
D21*
%TO.C,C48*%
X154686000Y-77508500D03*
X154686000Y-74383500D03*
%TD*%
D10*
%TO.C,C30*%
X146481000Y-102870000D03*
X149606000Y-102870000D03*
%TD*%
%TO.C,C11*%
X135089500Y-106426000D03*
X138214500Y-106426000D03*
%TD*%
D37*
X130427757Y-128026624D02*
X144978705Y-128023605D01*
X144978705Y-128023605D02*
G75*
G02*
X153922430Y-128024806I4471795J-502995D01*
G01*
X169927313Y-119389472D02*
G75*
G02*
X169927312Y-110391348I389847J4499062D01*
G01*
X169927757Y-126526753D02*
G75*
G02*
X168427757Y-128026757I-1499957J-47D01*
G01*
X169927313Y-119389472D02*
X169927757Y-126526753D01*
X182950502Y-71074296D02*
G75*
G02*
X171159380Y-96588505I-33500002J-4D01*
G01*
X127847610Y-96678301D02*
G75*
G02*
X129089871Y-99356597I-2262610J-2676699D01*
G01*
X128927757Y-126526624D02*
X128927757Y-119373965D01*
X129089859Y-110375970D02*
G75*
G02*
X128927757Y-119373965I-546639J-4490610D01*
G01*
X130427757Y-128026624D02*
G75*
G02*
X128927676Y-126526624I-57J1500024D01*
G01*
X169927313Y-99254504D02*
G75*
G02*
X171159366Y-96588488I3500487J4D01*
G01*
X169927313Y-99254504D02*
X169927313Y-110391357D01*
X129089859Y-99356597D02*
X129089859Y-110375970D01*
X127847610Y-96678301D02*
G75*
G02*
X115950504Y-71074296I21602890J25604001D01*
G01*
X115950502Y-71074296D02*
G75*
G02*
X182950502Y-71074296I33500000J0D01*
G01*
X153922434Y-128024806D02*
X168427757Y-128026753D01*
M02*
