  0
SECTION
  2
HEADER
  9
$ANGBASE
  50
0.0
  9
$ANGDIR
  70
1
  9
$MEASUREMENT
  70
1
  0
ENDSEC
  0
SECTION
  2
TABLES
  0
TABLE
  2
LTYPE
  70
4
  0
LTYPE
  5
40F
  2
CONTINUOUS
  70
0
  3
Solid line
  72
65
  73
0
  40
0.0
  0
LTYPE
  5
410
  2
DASHDOT
 70
0
  3
Dash Dot ____ _ ____ _
 72
65
 73
4
 40
2.0
 49
1.25
 49
-0.25
 49
0.25
 49
-0.25
  0
LTYPE
  5
411
  2
DASHED
 70
0
  3
Dashed __ __ __ __ __
 72
65
 73
2
 40
0.75
 49
0.5
 49
-0.25
  0
LTYPE
  5
43B
  2
DOTTED
 70
0
  3
Dotted .  .  .  .
 72
65
 73
2
 40
0.2
 49
0.0
 49
-0.2
  0
ENDTAB
  0
TABLE
  2
STYLE
  70
4
  0
STYLE
  2
KICAD
  70
0
  40
0
  41
1
  42
1
  50
0
  71
0
  3
isocp.shx
  0
STYLE
  2
KICADB
  70
0
  40
0
  41
1
  42
1
  50
0
  71
0
  3
isocp.shx
  0
STYLE
  2
KICADI
  70
0
  40
0
  41
1
  42
1
  50
15
  71
0
  3
isocp.shx
  0
STYLE
  2
KICADBI
  70
0
  40
0
  41
1
  42
1
  50
15
  71
0
  3
isocp.shx
  0
ENDTAB
  0
TABLE
  2
LAYER
  70
1
  0
LAYER
  2
BLACK
  70
0
  62
7
  6
CONTINUOUS
  0
ENDTAB
  0
ENDSEC
  0
SECTION
  2
ENTITIES
0
LINE
8
BLACK
6
CONTINUOUS
10
130.428
20
-128.027
11
144.979
21
-128.024
0
ARC
8
BLACK
10
149.451
20
-128.527
40
4.5
50
6.40261
51
173.582
0
ARC
8
BLACK
10
170.317
20
-114.89
40
4.51592
50
-265.048
51
-94.9525
0
ARC
8
BLACK
10
168.428
20
-126.527
40
1.50002
50
-89.9994
51
-0.00011459
0
LINE
8
BLACK
6
CONTINUOUS
10
169.927
20
-119.389
11
169.928
21
-126.527
0
ARC
8
BLACK
10
149.45
20
-71.0743
40
33.5
50
-49.607
51
-1.02619e-05
0
ARC
8
BLACK
10
125.585
20
-99.355
40
3.50481
50
-0.0269247
51
49.7922
0
LINE
8
BLACK
6
CONTINUOUS
10
128.928
20
-126.527
11
128.928
21
-119.374
0
ARC
8
BLACK
10
128.543
20
-114.867
40
4.52376
50
-85.1238
51
83.0596
0
ARC
8
BLACK
10
130.428
20
-126.527
40
1.49997
50
-180.001
51
-89.9994
0
ARC
8
BLACK
10
173.428
20
-99.2545
40
3.50063
50
130.395
51
179.999
0
LINE
8
BLACK
6
CONTINUOUS
10
169.927
20
-99.2545
11
169.927
21
-110.391
0
LINE
8
BLACK
6
CONTINUOUS
10
129.09
20
-99.3566
11
129.09
21
-110.376
0
ARC
8
BLACK
10
149.45
20
-71.0743
40
33.5
50
-180
51
-130.155
0
ARC
8
BLACK
10
149.451
20
-71.0743
40
33.5
50
-0
51
180
0
LINE
8
BLACK
6
CONTINUOUS
10
153.922
20
-128.025
11
168.428
21
-128.027
0
LINE
8
BLACK
6
CONTINUOUS
10
120.592
20
-75.1683
11
120.992
21
-75.5682
0
LINE
8
BLACK
6
CONTINUOUS
10
120.992
20
-75.1683
11
120.592
21
-75.5682
0
LINE
8
BLACK
6
CONTINUOUS
10
121.1
20
-79.7403
11
121.5
21
-80.1402
0
LINE
8
BLACK
6
CONTINUOUS
10
121.5
20
-79.7403
11
121.1
21
-80.1402
0
LINE
8
BLACK
6
CONTINUOUS
10
121.862
20
-64.3732
11
122.262
21
-64.7732
0
LINE
8
BLACK
6
CONTINUOUS
10
122.262
20
-64.3732
11
121.862
21
-64.7732
0
LINE
8
BLACK
6
CONTINUOUS
10
121.862
20
-65.6432
11
122.262
21
-66.0433
0
LINE
8
BLACK
6
CONTINUOUS
10
122.262
20
-65.6432
11
121.862
21
-66.0433
0
LINE
8
BLACK
6
CONTINUOUS
10
121.862
20
-66.9132
11
122.262
21
-67.3132
0
LINE
8
BLACK
6
CONTINUOUS
10
122.262
20
-66.9132
11
121.862
21
-67.3132
0
LINE
8
BLACK
6
CONTINUOUS
10
121.862
20
-68.1833
11
122.262
21
-68.5832
0
LINE
8
BLACK
6
CONTINUOUS
10
122.262
20
-68.1833
11
121.862
21
-68.5832
0
LINE
8
BLACK
6
CONTINUOUS
10
121.862
20
-69.4532
11
122.262
21
-69.8533
0
LINE
8
BLACK
6
CONTINUOUS
10
122.262
20
-69.4532
11
121.862
21
-69.8533
0
LINE
8
BLACK
6
CONTINUOUS
10
121.862
20
-70.7232
11
122.262
21
-71.1232
0
LINE
8
BLACK
6
CONTINUOUS
10
122.262
20
-70.7232
11
121.862
21
-71.1232
0
LINE
8
BLACK
6
CONTINUOUS
10
121.862
20
-71.9933
11
122.262
21
-72.3932
0
LINE
8
BLACK
6
CONTINUOUS
10
122.262
20
-71.9933
11
121.862
21
-72.3932
0
LINE
8
BLACK
6
CONTINUOUS
10
122.116
20
-79.7403
11
122.516
21
-80.1402
0
LINE
8
BLACK
6
CONTINUOUS
10
122.516
20
-79.7403
11
122.116
21
-80.1402
0
LINE
8
BLACK
6
CONTINUOUS
10
123.132
20
-79.7403
11
123.532
21
-80.1402
0
LINE
8
BLACK
6
CONTINUOUS
10
123.532
20
-79.7403
11
123.132
21
-80.1402
0
LINE
8
BLACK
6
CONTINUOUS
10
123.894
20
-81.2642
11
124.294
21
-81.6642
0
LINE
8
BLACK
6
CONTINUOUS
10
124.294
20
-81.2642
11
123.894
21
-81.6642
0
LINE
8
BLACK
6
CONTINUOUS
10
124.148
20
-75.1683
11
124.548
21
-75.5682
0
LINE
8
BLACK
6
CONTINUOUS
10
124.548
20
-75.1683
11
124.148
21
-75.5682
0
LINE
8
BLACK
6
CONTINUOUS
10
125.037
20
-65.6432
11
125.437
21
-66.0433
0
LINE
8
BLACK
6
CONTINUOUS
10
125.437
20
-65.6432
11
125.037
21
-66.0433
0
LINE
8
BLACK
6
CONTINUOUS
10
125.037
20
-66.9132
11
125.437
21
-67.3132
0
LINE
8
BLACK
6
CONTINUOUS
10
125.437
20
-66.9132
11
125.037
21
-67.3132
0
LINE
8
BLACK
6
CONTINUOUS
10
125.037
20
-68.1833
11
125.437
21
-68.5832
0
LINE
8
BLACK
6
CONTINUOUS
10
125.437
20
-68.1833
11
125.037
21
-68.5832
0
LINE
8
BLACK
6
CONTINUOUS
10
125.037
20
-69.4532
11
125.437
21
-69.8533
0
LINE
8
BLACK
6
CONTINUOUS
10
125.437
20
-69.4532
11
125.037
21
-69.8533
0
LINE
8
BLACK
6
CONTINUOUS
10
125.037
20
-70.7232
11
125.437
21
-71.1232
0
LINE
8
BLACK
6
CONTINUOUS
10
125.437
20
-70.7232
11
125.037
21
-71.1232
0
LINE
8
BLACK
6
CONTINUOUS
10
126.307
20
-77.7082
11
126.707
21
-78.1082
0
LINE
8
BLACK
6
CONTINUOUS
10
126.707
20
-77.7082
11
126.307
21
-78.1082
0
LINE
8
BLACK
6
CONTINUOUS
10
126.307
20
-78.9783
11
126.707
21
-79.3782
0
LINE
8
BLACK
6
CONTINUOUS
10
126.707
20
-78.9783
11
126.307
21
-79.3782
0
LINE
8
BLACK
6
CONTINUOUS
10
126.307
20
-80.2482
11
126.707
21
-80.6482
0
LINE
8
BLACK
6
CONTINUOUS
10
126.707
20
-80.2482
11
126.307
21
-80.6482
0
LINE
8
BLACK
6
CONTINUOUS
10
126.307
20
-81.5182
11
126.707
21
-81.9183
0
LINE
8
BLACK
6
CONTINUOUS
10
126.707
20
-81.5182
11
126.307
21
-81.9183
0
LINE
8
BLACK
6
CONTINUOUS
10
126.307
20
-82.7882
11
126.707
21
-83.1882
0
LINE
8
BLACK
6
CONTINUOUS
10
126.707
20
-82.7882
11
126.307
21
-83.1882
0
LINE
8
BLACK
6
CONTINUOUS
10
126.307
20
-84.0583
11
126.707
21
-84.4582
0
LINE
8
BLACK
6
CONTINUOUS
10
126.707
20
-84.0583
11
126.307
21
-84.4582
0
LINE
8
BLACK
6
CONTINUOUS
10
126.307
20
-85.3282
11
126.707
21
-85.7283
0
LINE
8
BLACK
6
CONTINUOUS
10
126.707
20
-85.3282
11
126.307
21
-85.7283
0
LINE
8
BLACK
6
CONTINUOUS
10
128.212
20
-64.3732
11
128.612
21
-64.7732
0
LINE
8
BLACK
6
CONTINUOUS
10
128.612
20
-64.3732
11
128.212
21
-64.7732
0
LINE
8
BLACK
6
CONTINUOUS
10
128.212
20
-65.6432
11
128.612
21
-66.0433
0
LINE
8
BLACK
6
CONTINUOUS
10
128.612
20
-65.6432
11
128.212
21
-66.0433
0
LINE
8
BLACK
6
CONTINUOUS
10
128.212
20
-66.9132
11
128.612
21
-67.3132
0
LINE
8
BLACK
6
CONTINUOUS
10
128.612
20
-66.9132
11
128.212
21
-67.3132
0
LINE
8
BLACK
6
CONTINUOUS
10
128.212
20
-68.1833
11
128.612
21
-68.5832
0
LINE
8
BLACK
6
CONTINUOUS
10
128.612
20
-68.1833
11
128.212
21
-68.5832
0
LINE
8
BLACK
6
CONTINUOUS
10
128.212
20
-69.4532
11
128.612
21
-69.8533
0
LINE
8
BLACK
6
CONTINUOUS
10
128.612
20
-69.4532
11
128.212
21
-69.8533
0
LINE
8
BLACK
6
CONTINUOUS
10
128.212
20
-70.7232
11
128.612
21
-71.1232
0
LINE
8
BLACK
6
CONTINUOUS
10
128.612
20
-70.7232
11
128.212
21
-71.1232
0
LINE
8
BLACK
6
CONTINUOUS
10
128.212
20
-71.9933
11
128.612
21
-72.3932
0
LINE
8
BLACK
6
CONTINUOUS
10
128.612
20
-71.9933
11
128.212
21
-72.3932
0
LINE
8
BLACK
6
CONTINUOUS
10
129.482
20
-78.9783
11
129.882
21
-79.3782
0
LINE
8
BLACK
6
CONTINUOUS
10
129.882
20
-78.9783
11
129.482
21
-79.3782
0
LINE
8
BLACK
6
CONTINUOUS
10
129.482
20
-80.2482
11
129.882
21
-80.6482
0
LINE
8
BLACK
6
CONTINUOUS
10
129.882
20
-80.2482
11
129.482
21
-80.6482
0
LINE
8
BLACK
6
CONTINUOUS
10
129.482
20
-81.5182
11
129.882
21
-81.9183
0
LINE
8
BLACK
6
CONTINUOUS
10
129.882
20
-81.5182
11
129.482
21
-81.9183
0
LINE
8
BLACK
6
CONTINUOUS
10
129.482
20
-82.7882
11
129.882
21
-83.1882
0
LINE
8
BLACK
6
CONTINUOUS
10
129.882
20
-82.7882
11
129.482
21
-83.1882
0
LINE
8
BLACK
6
CONTINUOUS
10
129.482
20
-84.0583
11
129.882
21
-84.4582
0
LINE
8
BLACK
6
CONTINUOUS
10
129.882
20
-84.0583
11
129.482
21
-84.4582
0
LINE
8
BLACK
6
CONTINUOUS
10
132.657
20
-77.7082
11
133.057
21
-78.1082
0
LINE
8
BLACK
6
CONTINUOUS
10
133.057
20
-77.7082
11
132.657
21
-78.1082
0
LINE
8
BLACK
6
CONTINUOUS
10
132.657
20
-78.9783
11
133.057
21
-79.3782
0
LINE
8
BLACK
6
CONTINUOUS
10
133.057
20
-78.9783
11
132.657
21
-79.3782
0
LINE
8
BLACK
6
CONTINUOUS
10
132.657
20
-80.2482
11
133.057
21
-80.6482
0
LINE
8
BLACK
6
CONTINUOUS
10
133.057
20
-80.2482
11
132.657
21
-80.6482
0
LINE
8
BLACK
6
CONTINUOUS
10
132.657
20
-81.5182
11
133.057
21
-81.9183
0
LINE
8
BLACK
6
CONTINUOUS
10
133.057
20
-81.5182
11
132.657
21
-81.9183
0
LINE
8
BLACK
6
CONTINUOUS
10
132.657
20
-82.7882
11
133.057
21
-83.1882
0
LINE
8
BLACK
6
CONTINUOUS
10
133.057
20
-82.7882
11
132.657
21
-83.1882
0
LINE
8
BLACK
6
CONTINUOUS
10
132.657
20
-84.0583
11
133.057
21
-84.4582
0
LINE
8
BLACK
6
CONTINUOUS
10
133.057
20
-84.0583
11
132.657
21
-84.4582
0
LINE
8
BLACK
6
CONTINUOUS
10
132.657
20
-85.3282
11
133.057
21
-85.7283
0
LINE
8
BLACK
6
CONTINUOUS
10
133.057
20
-85.3282
11
132.657
21
-85.7283
0
LINE
8
BLACK
6
CONTINUOUS
10
132.657
20
-91.0433
11
133.057
21
-91.4432
0
LINE
8
BLACK
6
CONTINUOUS
10
133.057
20
-91.0433
11
132.657
21
-91.4432
0
LINE
8
BLACK
6
CONTINUOUS
10
134.562
20
-94.8533
11
134.962
21
-95.2532
0
LINE
8
BLACK
6
CONTINUOUS
10
134.962
20
-94.8533
11
134.562
21
-95.2532
0
LINE
8
BLACK
6
CONTINUOUS
10
134.562
20
-96.1232
11
134.962
21
-96.5232
0
LINE
8
BLACK
6
CONTINUOUS
10
134.962
20
-96.1232
11
134.562
21
-96.5232
0
LINE
8
BLACK
6
CONTINUOUS
10
134.562
20
-97.3932
11
134.962
21
-97.7933
0
LINE
8
BLACK
6
CONTINUOUS
10
134.962
20
-97.3932
11
134.562
21
-97.7933
0
LINE
8
BLACK
6
CONTINUOUS
10
134.562
20
-98.6632
11
134.962
21
-99.0632
0
LINE
8
BLACK
6
CONTINUOUS
10
134.962
20
-98.6632
11
134.562
21
-99.0632
0
LINE
8
BLACK
6
CONTINUOUS
10
135.197
20
-63.7382
11
135.597
21
-64.1382
0
LINE
8
BLACK
6
CONTINUOUS
10
135.597
20
-63.7382
11
135.197
21
-64.1382
0
LINE
8
BLACK
6
CONTINUOUS
10
135.197
20
-65.0083
11
135.597
21
-65.4082
0
LINE
8
BLACK
6
CONTINUOUS
10
135.597
20
-65.0083
11
135.197
21
-65.4082
0
LINE
8
BLACK
6
CONTINUOUS
10
135.197
20
-66.2782
11
135.597
21
-66.6782
0
LINE
8
BLACK
6
CONTINUOUS
10
135.597
20
-66.2782
11
135.197
21
-66.6782
0
LINE
8
BLACK
6
CONTINUOUS
10
135.197
20
-67.5482
11
135.597
21
-67.9483
0
LINE
8
BLACK
6
CONTINUOUS
10
135.597
20
-67.5482
11
135.197
21
-67.9483
0
LINE
8
BLACK
6
CONTINUOUS
10
135.197
20
-68.8182
11
135.597
21
-69.2182
0
LINE
8
BLACK
6
CONTINUOUS
10
135.597
20
-68.8182
11
135.197
21
-69.2182
0
LINE
8
BLACK
6
CONTINUOUS
10
135.197
20
-70.0883
11
135.597
21
-70.4882
0
LINE
8
BLACK
6
CONTINUOUS
10
135.597
20
-70.0883
11
135.197
21
-70.4882
0
LINE
8
BLACK
6
CONTINUOUS
10
135.197
20
-71.3582
11
135.597
21
-71.7582
0
LINE
8
BLACK
6
CONTINUOUS
10
135.597
20
-71.3582
11
135.197
21
-71.7582
0
LINE
8
BLACK
6
CONTINUOUS
10
135.197
20
-72.6282
11
135.597
21
-73.0282
0
LINE
8
BLACK
6
CONTINUOUS
10
135.597
20
-72.6282
11
135.197
21
-73.0282
0
LINE
8
BLACK
6
CONTINUOUS
10
135.832
20
-105.013
11
136.232
21
-105.413
0
LINE
8
BLACK
6
CONTINUOUS
10
136.232
20
-105.013
11
135.832
21
-105.413
0
LINE
8
BLACK
6
CONTINUOUS
10
136.467
20
-91.0433
11
136.867
21
-91.4432
0
LINE
8
BLACK
6
CONTINUOUS
10
136.867
20
-91.0433
11
136.467
21
-91.4432
0
LINE
8
BLACK
6
CONTINUOUS
10
137.102
20
-48.4982
11
137.502
21
-48.8982
0
LINE
8
BLACK
6
CONTINUOUS
10
137.502
20
-48.4982
11
137.102
21
-48.8982
0
LINE
8
BLACK
6
CONTINUOUS
10
137.102
20
-54.8483
11
137.502
21
-55.2482
0
LINE
8
BLACK
6
CONTINUOUS
10
137.502
20
-54.8483
11
137.102
21
-55.2482
0
LINE
8
BLACK
6
CONTINUOUS
10
137.102
20
-61.8332
11
137.502
21
-62.2332
0
LINE
8
BLACK
6
CONTINUOUS
10
137.502
20
-61.8332
11
137.102
21
-62.2332
0
LINE
8
BLACK
6
CONTINUOUS
10
138.372
20
-48.4982
11
138.772
21
-48.8982
0
LINE
8
BLACK
6
CONTINUOUS
10
138.772
20
-48.4982
11
138.372
21
-48.8982
0
LINE
8
BLACK
6
CONTINUOUS
10
138.372
20
-51.6732
11
138.772
21
-52.0732
0
LINE
8
BLACK
6
CONTINUOUS
10
138.772
20
-51.6732
11
138.372
21
-52.0732
0
LINE
8
BLACK
6
CONTINUOUS
10
138.372
20
-54.8483
11
138.772
21
-55.2482
0
LINE
8
BLACK
6
CONTINUOUS
10
138.772
20
-54.8483
11
138.372
21
-55.2482
0
LINE
8
BLACK
6
CONTINUOUS
10
138.372
20
-61.8332
11
138.772
21
-62.2332
0
LINE
8
BLACK
6
CONTINUOUS
10
138.772
20
-61.8332
11
138.372
21
-62.2332
0
LINE
8
BLACK
6
CONTINUOUS
10
139.642
20
-48.4982
11
140.042
21
-48.8982
0
LINE
8
BLACK
6
CONTINUOUS
10
140.042
20
-48.4982
11
139.642
21
-48.8982
0
LINE
8
BLACK
6
CONTINUOUS
10
139.642
20
-51.6732
11
140.042
21
-52.0732
0
LINE
8
BLACK
6
CONTINUOUS
10
140.042
20
-51.6732
11
139.642
21
-52.0732
0
LINE
8
BLACK
6
CONTINUOUS
10
139.642
20
-54.8483
11
140.042
21
-55.2482
0
LINE
8
BLACK
6
CONTINUOUS
10
140.042
20
-54.8483
11
139.642
21
-55.2482
0
LINE
8
BLACK
6
CONTINUOUS
10
139.642
20
-61.8332
11
140.042
21
-62.2332
0
LINE
8
BLACK
6
CONTINUOUS
10
140.042
20
-61.8332
11
139.642
21
-62.2332
0
LINE
8
BLACK
6
CONTINUOUS
10
139.642
20
-77.0733
11
140.042
21
-77.4732
0
LINE
8
BLACK
6
CONTINUOUS
10
140.042
20
-77.0733
11
139.642
21
-77.4732
0
LINE
8
BLACK
6
CONTINUOUS
10
139.642
20
-78.3432
11
140.042
21
-78.7433
0
LINE
8
BLACK
6
CONTINUOUS
10
140.042
20
-78.3432
11
139.642
21
-78.7433
0
LINE
8
BLACK
6
CONTINUOUS
10
139.642
20
-79.6132
11
140.042
21
-80.0132
0
LINE
8
BLACK
6
CONTINUOUS
10
140.042
20
-79.6132
11
139.642
21
-80.0132
0
LINE
8
BLACK
6
CONTINUOUS
10
139.642
20
-80.8832
11
140.042
21
-81.2832
0
LINE
8
BLACK
6
CONTINUOUS
10
140.042
20
-80.8832
11
139.642
21
-81.2832
0
LINE
8
BLACK
6
CONTINUOUS
10
139.642
20
-82.1532
11
140.042
21
-82.5532
0
LINE
8
BLACK
6
CONTINUOUS
10
140.042
20
-82.1532
11
139.642
21
-82.5532
0
LINE
8
BLACK
6
CONTINUOUS
10
139.642
20
-83.4232
11
140.042
21
-83.8233
0
LINE
8
BLACK
6
CONTINUOUS
10
140.042
20
-83.4232
11
139.642
21
-83.8233
0
LINE
8
BLACK
6
CONTINUOUS
10
139.642
20
-84.6932
11
140.042
21
-85.0932
0
LINE
8
BLACK
6
CONTINUOUS
10
140.042
20
-84.6932
11
139.642
21
-85.0932
0
LINE
8
BLACK
6
CONTINUOUS
10
139.642
20
-85.9633
11
140.042
21
-86.3632
0
LINE
8
BLACK
6
CONTINUOUS
10
140.042
20
-85.9633
11
139.642
21
-86.3632
0
LINE
8
BLACK
6
CONTINUOUS
10
139.642
20
-99.0057
11
140.042
21
-99.4057
0
LINE
8
BLACK
6
CONTINUOUS
10
140.042
20
-99.0057
11
139.642
21
-99.4057
0
LINE
8
BLACK
6
CONTINUOUS
10
139.642
20
-103.743
11
140.042
21
-104.143
0
LINE
8
BLACK
6
CONTINUOUS
10
140.042
20
-103.743
11
139.642
21
-104.143
0
LINE
8
BLACK
6
CONTINUOUS
10
139.642
20
-105.013
11
140.042
21
-105.413
0
LINE
8
BLACK
6
CONTINUOUS
10
140.042
20
-105.013
11
139.642
21
-105.413
0
LINE
8
BLACK
6
CONTINUOUS
10
139.642
20
-108.823
11
140.042
21
-109.223
0
LINE
8
BLACK
6
CONTINUOUS
10
140.042
20
-108.823
11
139.642
21
-109.223
0
LINE
8
BLACK
6
CONTINUOUS
10
140.912
20
-48.4982
11
141.312
21
-48.8982
0
LINE
8
BLACK
6
CONTINUOUS
10
141.312
20
-48.4982
11
140.912
21
-48.8982
0
LINE
8
BLACK
6
CONTINUOUS
10
140.912
20
-51.6732
11
141.312
21
-52.0732
0
LINE
8
BLACK
6
CONTINUOUS
10
141.312
20
-51.6732
11
140.912
21
-52.0732
0
LINE
8
BLACK
6
CONTINUOUS
10
140.912
20
-54.8483
11
141.312
21
-55.2482
0
LINE
8
BLACK
6
CONTINUOUS
10
141.312
20
-54.8483
11
140.912
21
-55.2482
0
LINE
8
BLACK
6
CONTINUOUS
10
140.912
20
-61.8332
11
141.312
21
-62.2332
0
LINE
8
BLACK
6
CONTINUOUS
10
141.312
20
-61.8332
11
140.912
21
-62.2332
0
LINE
8
BLACK
6
CONTINUOUS
10
142.182
20
-48.4982
11
142.582
21
-48.8982
0
LINE
8
BLACK
6
CONTINUOUS
10
142.582
20
-48.4982
11
142.182
21
-48.8982
0
LINE
8
BLACK
6
CONTINUOUS
10
142.182
20
-51.6732
11
142.582
21
-52.0732
0
LINE
8
BLACK
6
CONTINUOUS
10
142.582
20
-51.6732
11
142.182
21
-52.0732
0
LINE
8
BLACK
6
CONTINUOUS
10
142.182
20
-54.8483
11
142.582
21
-55.2482
0
LINE
8
BLACK
6
CONTINUOUS
10
142.582
20
-54.8483
11
142.182
21
-55.2482
0
LINE
8
BLACK
6
CONTINUOUS
10
142.182
20
-61.8332
11
142.582
21
-62.2332
0
LINE
8
BLACK
6
CONTINUOUS
10
142.582
20
-61.8332
11
142.182
21
-62.2332
0
LINE
8
BLACK
6
CONTINUOUS
10
143.452
20
-48.4982
11
143.852
21
-48.8982
0
LINE
8
BLACK
6
CONTINUOUS
10
143.852
20
-48.4982
11
143.452
21
-48.8982
0
LINE
8
BLACK
6
CONTINUOUS
10
143.452
20
-51.6732
11
143.852
21
-52.0732
0
LINE
8
BLACK
6
CONTINUOUS
10
143.852
20
-51.6732
11
143.452
21
-52.0732
0
LINE
8
BLACK
6
CONTINUOUS
10
143.452
20
-54.8483
11
143.852
21
-55.2482
0
LINE
8
BLACK
6
CONTINUOUS
10
143.852
20
-54.8483
11
143.452
21
-55.2482
0
LINE
8
BLACK
6
CONTINUOUS
10
143.452
20
-61.8332
11
143.852
21
-62.2332
0
LINE
8
BLACK
6
CONTINUOUS
10
143.852
20
-61.8332
11
143.452
21
-62.2332
0
LINE
8
BLACK
6
CONTINUOUS
10
143.452
20
-65.0083
11
143.852
21
-65.4082
0
LINE
8
BLACK
6
CONTINUOUS
10
143.852
20
-65.0083
11
143.452
21
-65.4082
0
LINE
8
BLACK
6
CONTINUOUS
10
143.452
20
-70.7232
11
143.852
21
-71.1232
0
LINE
8
BLACK
6
CONTINUOUS
10
143.852
20
-70.7232
11
143.452
21
-71.1232
0
LINE
8
BLACK
6
CONTINUOUS
10
143.452
20
-75.8032
11
143.852
21
-76.2032
0
LINE
8
BLACK
6
CONTINUOUS
10
143.852
20
-75.8032
11
143.452
21
-76.2032
0
LINE
8
BLACK
6
CONTINUOUS
10
143.452
20
-103.743
11
143.852
21
-104.143
0
LINE
8
BLACK
6
CONTINUOUS
10
143.852
20
-103.743
11
143.452
21
-104.143
0
LINE
8
BLACK
6
CONTINUOUS
10
143.452
20
-105.013
11
143.852
21
-105.413
0
LINE
8
BLACK
6
CONTINUOUS
10
143.852
20
-105.013
11
143.452
21
-105.413
0
LINE
8
BLACK
6
CONTINUOUS
10
143.452
20
-108.823
11
143.852
21
-109.223
0
LINE
8
BLACK
6
CONTINUOUS
10
143.852
20
-108.823
11
143.452
21
-109.223
0
LINE
8
BLACK
6
CONTINUOUS
10
143.503
20
-98.9934
11
143.903
21
-99.3935
0
LINE
8
BLACK
6
CONTINUOUS
10
143.903
20
-98.9934
11
143.503
21
-99.3935
0
LINE
8
BLACK
6
CONTINUOUS
10
144.087
20
-66.2782
11
144.487
21
-66.6782
0
LINE
8
BLACK
6
CONTINUOUS
10
144.487
20
-66.2782
11
144.087
21
-66.6782
0
LINE
8
BLACK
6
CONTINUOUS
10
144.087
20
-86.2428
11
144.487
21
-86.6427
0
LINE
8
BLACK
6
CONTINUOUS
10
144.487
20
-86.2428
11
144.087
21
-86.6427
0
LINE
8
BLACK
6
CONTINUOUS
10
144.722
20
-48.4982
11
145.122
21
-48.8982
0
LINE
8
BLACK
6
CONTINUOUS
10
145.122
20
-48.4982
11
144.722
21
-48.8982
0
LINE
8
BLACK
6
CONTINUOUS
10
144.722
20
-54.8483
11
145.122
21
-55.2482
0
LINE
8
BLACK
6
CONTINUOUS
10
145.122
20
-54.8483
11
144.722
21
-55.2482
0
LINE
8
BLACK
6
CONTINUOUS
10
144.722
20
-61.8332
11
145.122
21
-62.2332
0
LINE
8
BLACK
6
CONTINUOUS
10
145.122
20
-61.8332
11
144.722
21
-62.2332
0
LINE
8
BLACK
6
CONTINUOUS
10
144.722
20
-65.0083
11
145.122
21
-65.4082
0
LINE
8
BLACK
6
CONTINUOUS
10
145.122
20
-65.0083
11
144.722
21
-65.4082
0
LINE
8
BLACK
6
CONTINUOUS
10
144.722
20
-71.9933
11
145.122
21
-72.3932
0
LINE
8
BLACK
6
CONTINUOUS
10
145.122
20
-71.9933
11
144.722
21
-72.3932
0
LINE
8
BLACK
6
CONTINUOUS
10
144.722
20
-77.0733
11
145.122
21
-77.4732
0
LINE
8
BLACK
6
CONTINUOUS
10
145.122
20
-77.0733
11
144.722
21
-77.4732
0
LINE
8
BLACK
6
CONTINUOUS
10
145.357
20
-66.2782
11
145.757
21
-66.6782
0
LINE
8
BLACK
6
CONTINUOUS
10
145.757
20
-66.2782
11
145.357
21
-66.6782
0
LINE
8
BLACK
6
CONTINUOUS
10
145.992
20
-61.8332
11
146.392
21
-62.2332
0
LINE
8
BLACK
6
CONTINUOUS
10
146.392
20
-61.8332
11
145.992
21
-62.2332
0
LINE
8
BLACK
6
CONTINUOUS
10
147.262
20
-97.3932
11
147.662
21
-97.7933
0
LINE
8
BLACK
6
CONTINUOUS
10
147.662
20
-97.3932
11
147.262
21
-97.7933
0
LINE
8
BLACK
6
CONTINUOUS
10
147.262
20
-103.743
11
147.662
21
-104.143
0
LINE
8
BLACK
6
CONTINUOUS
10
147.662
20
-103.743
11
147.262
21
-104.143
0
LINE
8
BLACK
6
CONTINUOUS
10
147.262
20
-105.013
11
147.662
21
-105.413
0
LINE
8
BLACK
6
CONTINUOUS
10
147.662
20
-105.013
11
147.262
21
-105.413
0
LINE
8
BLACK
6
CONTINUOUS
10
147.77
20
-57.0877
11
148.17
21
-57.4877
0
LINE
8
BLACK
6
CONTINUOUS
10
148.17
20
-57.0877
11
147.77
21
-57.4877
0
LINE
8
BLACK
6
CONTINUOUS
10
148.024
20
-65.8507
11
148.424
21
-66.2507
0
LINE
8
BLACK
6
CONTINUOUS
10
148.424
20
-65.8507
11
148.024
21
-66.2507
0
LINE
8
BLACK
6
CONTINUOUS
10
148.532
20
-59.8817
11
148.932
21
-60.2817
0
LINE
8
BLACK
6
CONTINUOUS
10
148.932
20
-59.8817
11
148.532
21
-60.2817
0
LINE
8
BLACK
6
CONTINUOUS
10
149.548
20
-59.8817
11
149.948
21
-60.2817
0
LINE
8
BLACK
6
CONTINUOUS
10
149.948
20
-59.8817
11
149.548
21
-60.2817
0
LINE
8
BLACK
6
CONTINUOUS
10
150.564
20
-59.8817
11
150.964
21
-60.2817
0
LINE
8
BLACK
6
CONTINUOUS
10
150.964
20
-59.8817
11
150.564
21
-60.2817
0
LINE
8
BLACK
6
CONTINUOUS
10
150.564
20
-61.4057
11
150.964
21
-61.8057
0
LINE
8
BLACK
6
CONTINUOUS
10
150.964
20
-61.4057
11
150.564
21
-61.8057
0
LINE
8
BLACK
6
CONTINUOUS
10
152.215
20
-62.4682
11
152.615
21
-62.8682
0
LINE
8
BLACK
6
CONTINUOUS
10
152.615
20
-62.4682
11
152.215
21
-62.8682
0
LINE
8
BLACK
6
CONTINUOUS
10
153.358
20
-48.4982
11
153.758
21
-48.8982
0
LINE
8
BLACK
6
CONTINUOUS
10
153.758
20
-48.4982
11
153.358
21
-48.8982
0
LINE
8
BLACK
6
CONTINUOUS
10
153.358
20
-54.8483
11
153.758
21
-55.2482
0
LINE
8
BLACK
6
CONTINUOUS
10
153.758
20
-54.8483
11
153.358
21
-55.2482
0
LINE
8
BLACK
6
CONTINUOUS
10
153.612
20
-62.4682
11
154.012
21
-62.8682
0
LINE
8
BLACK
6
CONTINUOUS
10
154.012
20
-62.4682
11
153.612
21
-62.8682
0
LINE
8
BLACK
6
CONTINUOUS
10
153.612
20
-66.2782
11
154.012
21
-66.6782
0
LINE
8
BLACK
6
CONTINUOUS
10
154.012
20
-66.2782
11
153.612
21
-66.6782
0
LINE
8
BLACK
6
CONTINUOUS
10
153.612
20
-68.8182
11
154.012
21
-69.2182
0
LINE
8
BLACK
6
CONTINUOUS
10
154.012
20
-68.8182
11
153.612
21
-69.2182
0
LINE
8
BLACK
6
CONTINUOUS
10
154.247
20
-65.0083
11
154.647
21
-65.4082
0
LINE
8
BLACK
6
CONTINUOUS
10
154.647
20
-65.0083
11
154.247
21
-65.4082
0
LINE
8
BLACK
6
CONTINUOUS
10
154.247
20
-67.5482
11
154.647
21
-67.9483
0
LINE
8
BLACK
6
CONTINUOUS
10
154.647
20
-67.5482
11
154.247
21
-67.9483
0
LINE
8
BLACK
6
CONTINUOUS
10
154.247
20
-85.9633
11
154.647
21
-86.3632
0
LINE
8
BLACK
6
CONTINUOUS
10
154.647
20
-85.9633
11
154.247
21
-86.3632
0
LINE
8
BLACK
6
CONTINUOUS
10
154.628
20
-48.4982
11
155.028
21
-48.8982
0
LINE
8
BLACK
6
CONTINUOUS
10
155.028
20
-48.4982
11
154.628
21
-48.8982
0
LINE
8
BLACK
6
CONTINUOUS
10
154.628
20
-51.6732
11
155.028
21
-52.0732
0
LINE
8
BLACK
6
CONTINUOUS
10
155.028
20
-51.6732
11
154.628
21
-52.0732
0
LINE
8
BLACK
6
CONTINUOUS
10
154.628
20
-54.8483
11
155.028
21
-55.2482
0
LINE
8
BLACK
6
CONTINUOUS
10
155.028
20
-54.8483
11
154.628
21
-55.2482
0
LINE
8
BLACK
6
CONTINUOUS
10
154.882
20
-62.4682
11
155.282
21
-62.8682
0
LINE
8
BLACK
6
CONTINUOUS
10
155.282
20
-62.4682
11
154.882
21
-62.8682
0
LINE
8
BLACK
6
CONTINUOUS
10
154.882
20
-66.2782
11
155.282
21
-66.6782
0
LINE
8
BLACK
6
CONTINUOUS
10
155.282
20
-66.2782
11
154.882
21
-66.6782
0
LINE
8
BLACK
6
CONTINUOUS
10
154.882
20
-68.8182
11
155.282
21
-69.2182
0
LINE
8
BLACK
6
CONTINUOUS
10
155.282
20
-68.8182
11
154.882
21
-69.2182
0
LINE
8
BLACK
6
CONTINUOUS
10
155.517
20
-65.0083
11
155.917
21
-65.4082
0
LINE
8
BLACK
6
CONTINUOUS
10
155.917
20
-65.0083
11
155.517
21
-65.4082
0
LINE
8
BLACK
6
CONTINUOUS
10
155.517
20
-67.5482
11
155.917
21
-67.9483
0
LINE
8
BLACK
6
CONTINUOUS
10
155.917
20
-67.5482
11
155.517
21
-67.9483
0
LINE
8
BLACK
6
CONTINUOUS
10
155.898
20
-48.4982
11
156.298
21
-48.8982
0
LINE
8
BLACK
6
CONTINUOUS
10
156.298
20
-48.4982
11
155.898
21
-48.8982
0
LINE
8
BLACK
6
CONTINUOUS
10
155.898
20
-51.6732
11
156.298
21
-52.0732
0
LINE
8
BLACK
6
CONTINUOUS
10
156.298
20
-51.6732
11
155.898
21
-52.0732
0
LINE
8
BLACK
6
CONTINUOUS
10
155.898
20
-54.8483
11
156.298
21
-55.2482
0
LINE
8
BLACK
6
CONTINUOUS
10
156.298
20
-54.8483
11
155.898
21
-55.2482
0
LINE
8
BLACK
6
CONTINUOUS
10
156.152
20
-62.4682
11
156.552
21
-62.8682
0
LINE
8
BLACK
6
CONTINUOUS
10
156.552
20
-62.4682
11
156.152
21
-62.8682
0
LINE
8
BLACK
6
CONTINUOUS
10
157.168
20
-48.4982
11
157.568
21
-48.8982
0
LINE
8
BLACK
6
CONTINUOUS
10
157.568
20
-48.4982
11
157.168
21
-48.8982
0
LINE
8
BLACK
6
CONTINUOUS
10
157.168
20
-51.6732
11
157.568
21
-52.0732
0
LINE
8
BLACK
6
CONTINUOUS
10
157.568
20
-51.6732
11
157.168
21
-52.0732
0
LINE
8
BLACK
6
CONTINUOUS
10
157.168
20
-54.8483
11
157.568
21
-55.2482
0
LINE
8
BLACK
6
CONTINUOUS
10
157.568
20
-54.8483
11
157.168
21
-55.2482
0
LINE
8
BLACK
6
CONTINUOUS
10
157.422
20
-62.4682
11
157.822
21
-62.8682
0
LINE
8
BLACK
6
CONTINUOUS
10
157.822
20
-62.4682
11
157.422
21
-62.8682
0
LINE
8
BLACK
6
CONTINUOUS
10
158.057
20
-91.6782
11
158.457
21
-92.0782
0
LINE
8
BLACK
6
CONTINUOUS
10
158.457
20
-91.6782
11
158.057
21
-92.0782
0
LINE
8
BLACK
6
CONTINUOUS
10
158.438
20
-48.4982
11
158.838
21
-48.8982
0
LINE
8
BLACK
6
CONTINUOUS
10
158.838
20
-48.4982
11
158.438
21
-48.8982
0
LINE
8
BLACK
6
CONTINUOUS
10
158.438
20
-51.6732
11
158.838
21
-52.0732
0
LINE
8
BLACK
6
CONTINUOUS
10
158.838
20
-51.6732
11
158.438
21
-52.0732
0
LINE
8
BLACK
6
CONTINUOUS
10
158.438
20
-54.8483
11
158.838
21
-55.2482
0
LINE
8
BLACK
6
CONTINUOUS
10
158.838
20
-54.8483
11
158.438
21
-55.2482
0
LINE
8
BLACK
6
CONTINUOUS
10
158.692
20
-62.4682
11
159.092
21
-62.8682
0
LINE
8
BLACK
6
CONTINUOUS
10
159.092
20
-62.4682
11
158.692
21
-62.8682
0
LINE
8
BLACK
6
CONTINUOUS
10
158.692
20
-77.0733
11
159.092
21
-77.4732
0
LINE
8
BLACK
6
CONTINUOUS
10
159.092
20
-77.0733
11
158.692
21
-77.4732
0
LINE
8
BLACK
6
CONTINUOUS
10
158.692
20
-78.3432
11
159.092
21
-78.7433
0
LINE
8
BLACK
6
CONTINUOUS
10
159.092
20
-78.3432
11
158.692
21
-78.7433
0
LINE
8
BLACK
6
CONTINUOUS
10
158.692
20
-79.6132
11
159.092
21
-80.0132
0
LINE
8
BLACK
6
CONTINUOUS
10
159.092
20
-79.6132
11
158.692
21
-80.0132
0
LINE
8
BLACK
6
CONTINUOUS
10
158.692
20
-80.8832
11
159.092
21
-81.2832
0
LINE
8
BLACK
6
CONTINUOUS
10
159.092
20
-80.8832
11
158.692
21
-81.2832
0
LINE
8
BLACK
6
CONTINUOUS
10
158.692
20
-82.1532
11
159.092
21
-82.5532
0
LINE
8
BLACK
6
CONTINUOUS
10
159.092
20
-82.1532
11
158.692
21
-82.5532
0
LINE
8
BLACK
6
CONTINUOUS
10
158.692
20
-83.4232
11
159.092
21
-83.8233
0
LINE
8
BLACK
6
CONTINUOUS
10
159.092
20
-83.4232
11
158.692
21
-83.8233
0
LINE
8
BLACK
6
CONTINUOUS
10
158.692
20
-84.6932
11
159.092
21
-85.0932
0
LINE
8
BLACK
6
CONTINUOUS
10
159.092
20
-84.6932
11
158.692
21
-85.0932
0
LINE
8
BLACK
6
CONTINUOUS
10
158.692
20
-85.9633
11
159.092
21
-86.3632
0
LINE
8
BLACK
6
CONTINUOUS
10
159.092
20
-85.9633
11
158.692
21
-86.3632
0
LINE
8
BLACK
6
CONTINUOUS
10
159.327
20
-91.6782
11
159.727
21
-92.0782
0
LINE
8
BLACK
6
CONTINUOUS
10
159.727
20
-91.6782
11
159.327
21
-92.0782
0
LINE
8
BLACK
6
CONTINUOUS
10
159.708
20
-48.4982
11
160.108
21
-48.8982
0
LINE
8
BLACK
6
CONTINUOUS
10
160.108
20
-48.4982
11
159.708
21
-48.8982
0
LINE
8
BLACK
6
CONTINUOUS
10
159.708
20
-51.6732
11
160.108
21
-52.0732
0
LINE
8
BLACK
6
CONTINUOUS
10
160.108
20
-51.6732
11
159.708
21
-52.0732
0
LINE
8
BLACK
6
CONTINUOUS
10
159.708
20
-54.8483
11
160.108
21
-55.2482
0
LINE
8
BLACK
6
CONTINUOUS
10
160.108
20
-54.8483
11
159.708
21
-55.2482
0
LINE
8
BLACK
6
CONTINUOUS
10
159.962
20
-62.4682
11
160.362
21
-62.8682
0
LINE
8
BLACK
6
CONTINUOUS
10
160.362
20
-62.4682
11
159.962
21
-62.8682
0
LINE
8
BLACK
6
CONTINUOUS
10
160.597
20
-91.6782
11
160.997
21
-92.0782
0
LINE
8
BLACK
6
CONTINUOUS
10
160.997
20
-91.6782
11
160.597
21
-92.0782
0
LINE
8
BLACK
6
CONTINUOUS
10
160.978
20
-48.4982
11
161.378
21
-48.8982
0
LINE
8
BLACK
6
CONTINUOUS
10
161.378
20
-48.4982
11
160.978
21
-48.8982
0
LINE
8
BLACK
6
CONTINUOUS
10
160.978
20
-54.8483
11
161.378
21
-55.2482
0
LINE
8
BLACK
6
CONTINUOUS
10
161.378
20
-54.8483
11
160.978
21
-55.2482
0
LINE
8
BLACK
6
CONTINUOUS
10
161.232
20
-62.4682
11
161.632
21
-62.8682
0
LINE
8
BLACK
6
CONTINUOUS
10
161.632
20
-62.4682
11
161.232
21
-62.8682
0
LINE
8
BLACK
6
CONTINUOUS
10
161.867
20
-91.6782
11
162.267
21
-92.0782
0
LINE
8
BLACK
6
CONTINUOUS
10
162.267
20
-91.6782
11
161.867
21
-92.0782
0
LINE
8
BLACK
6
CONTINUOUS
10
162.502
20
-63.7382
11
162.902
21
-64.1382
0
LINE
8
BLACK
6
CONTINUOUS
10
162.902
20
-63.7382
11
162.502
21
-64.1382
0
LINE
8
BLACK
6
CONTINUOUS
10
162.502
20
-65.0083
11
162.902
21
-65.4082
0
LINE
8
BLACK
6
CONTINUOUS
10
162.902
20
-65.0083
11
162.502
21
-65.4082
0
LINE
8
BLACK
6
CONTINUOUS
10
162.502
20
-66.2782
11
162.902
21
-66.6782
0
LINE
8
BLACK
6
CONTINUOUS
10
162.902
20
-66.2782
11
162.502
21
-66.6782
0
LINE
8
BLACK
6
CONTINUOUS
10
162.502
20
-67.5482
11
162.902
21
-67.9483
0
LINE
8
BLACK
6
CONTINUOUS
10
162.902
20
-67.5482
11
162.502
21
-67.9483
0
LINE
8
BLACK
6
CONTINUOUS
10
162.502
20
-68.8182
11
162.902
21
-69.2182
0
LINE
8
BLACK
6
CONTINUOUS
10
162.902
20
-68.8182
11
162.502
21
-69.2182
0
LINE
8
BLACK
6
CONTINUOUS
10
162.502
20
-70.0883
11
162.902
21
-70.4882
0
LINE
8
BLACK
6
CONTINUOUS
10
162.902
20
-70.0883
11
162.502
21
-70.4882
0
LINE
8
BLACK
6
CONTINUOUS
10
162.502
20
-71.3582
11
162.902
21
-71.7582
0
LINE
8
BLACK
6
CONTINUOUS
10
162.902
20
-71.3582
11
162.502
21
-71.7582
0
LINE
8
BLACK
6
CONTINUOUS
10
162.502
20
-72.6282
11
162.902
21
-73.0282
0
LINE
8
BLACK
6
CONTINUOUS
10
162.902
20
-72.6282
11
162.502
21
-73.0282
0
LINE
8
BLACK
6
CONTINUOUS
10
162.502
20
-95.4882
11
162.902
21
-95.8882
0
LINE
8
BLACK
6
CONTINUOUS
10
162.902
20
-95.4882
11
162.502
21
-95.8882
0
LINE
8
BLACK
6
CONTINUOUS
10
163.137
20
-91.6782
11
163.537
21
-92.0782
0
LINE
8
BLACK
6
CONTINUOUS
10
163.537
20
-91.6782
11
163.137
21
-92.0782
0
LINE
8
BLACK
6
CONTINUOUS
10
163.137
20
-94.2182
11
163.537
21
-94.6182
0
LINE
8
BLACK
6
CONTINUOUS
10
163.537
20
-94.2182
11
163.137
21
-94.6182
0
LINE
8
BLACK
6
CONTINUOUS
10
163.137
20
-96.7582
11
163.537
21
-97.1582
0
LINE
8
BLACK
6
CONTINUOUS
10
163.537
20
-96.7582
11
163.137
21
-97.1582
0
LINE
8
BLACK
6
CONTINUOUS
10
163.137
20
-98.0282
11
163.537
21
-98.4282
0
LINE
8
BLACK
6
CONTINUOUS
10
163.537
20
-98.0282
11
163.137
21
-98.4282
0
LINE
8
BLACK
6
CONTINUOUS
10
163.772
20
-92.9483
11
164.172
21
-93.3482
0
LINE
8
BLACK
6
CONTINUOUS
10
164.172
20
-92.9483
11
163.772
21
-93.3482
0
LINE
8
BLACK
6
CONTINUOUS
10
163.772
20
-95.4882
11
164.172
21
-95.8882
0
LINE
8
BLACK
6
CONTINUOUS
10
164.172
20
-95.4882
11
163.772
21
-95.8882
0
LINE
8
BLACK
6
CONTINUOUS
10
163.772
20
-110.093
11
164.172
21
-110.493
0
LINE
8
BLACK
6
CONTINUOUS
10
164.172
20
-110.093
11
163.772
21
-110.493
0
LINE
8
BLACK
6
CONTINUOUS
10
164.407
20
-91.6782
11
164.807
21
-92.0782
0
LINE
8
BLACK
6
CONTINUOUS
10
164.807
20
-91.6782
11
164.407
21
-92.0782
0
LINE
8
BLACK
6
CONTINUOUS
10
164.407
20
-94.2182
11
164.807
21
-94.6182
0
LINE
8
BLACK
6
CONTINUOUS
10
164.807
20
-94.2182
11
164.407
21
-94.6182
0
LINE
8
BLACK
6
CONTINUOUS
10
164.407
20
-96.7582
11
164.807
21
-97.1582
0
LINE
8
BLACK
6
CONTINUOUS
10
164.807
20
-96.7582
11
164.407
21
-97.1582
0
LINE
8
BLACK
6
CONTINUOUS
10
164.407
20
-98.0282
11
164.807
21
-98.4282
0
LINE
8
BLACK
6
CONTINUOUS
10
164.807
20
-98.0282
11
164.407
21
-98.4282
0
LINE
8
BLACK
6
CONTINUOUS
10
165.042
20
-92.9483
11
165.442
21
-93.3482
0
LINE
8
BLACK
6
CONTINUOUS
10
165.442
20
-92.9483
11
165.042
21
-93.3482
0
LINE
8
BLACK
6
CONTINUOUS
10
165.677
20
-77.7082
11
166.077
21
-78.1082
0
LINE
8
BLACK
6
CONTINUOUS
10
166.077
20
-77.7082
11
165.677
21
-78.1082
0
LINE
8
BLACK
6
CONTINUOUS
10
165.677
20
-78.9783
11
166.077
21
-79.3782
0
LINE
8
BLACK
6
CONTINUOUS
10
166.077
20
-78.9783
11
165.677
21
-79.3782
0
LINE
8
BLACK
6
CONTINUOUS
10
165.677
20
-80.2482
11
166.077
21
-80.6482
0
LINE
8
BLACK
6
CONTINUOUS
10
166.077
20
-80.2482
11
165.677
21
-80.6482
0
LINE
8
BLACK
6
CONTINUOUS
10
165.677
20
-81.5182
11
166.077
21
-81.9183
0
LINE
8
BLACK
6
CONTINUOUS
10
166.077
20
-81.5182
11
165.677
21
-81.9183
0
LINE
8
BLACK
6
CONTINUOUS
10
165.677
20
-82.7882
11
166.077
21
-83.1882
0
LINE
8
BLACK
6
CONTINUOUS
10
166.077
20
-82.7882
11
165.677
21
-83.1882
0
LINE
8
BLACK
6
CONTINUOUS
10
165.677
20
-84.0583
11
166.077
21
-84.4582
0
LINE
8
BLACK
6
CONTINUOUS
10
166.077
20
-84.0583
11
165.677
21
-84.4582
0
LINE
8
BLACK
6
CONTINUOUS
10
165.677
20
-85.3282
11
166.077
21
-85.7283
0
LINE
8
BLACK
6
CONTINUOUS
10
166.077
20
-85.3282
11
165.677
21
-85.7283
0
LINE
8
BLACK
6
CONTINUOUS
10
165.677
20
-91.6782
11
166.077
21
-92.0782
0
LINE
8
BLACK
6
CONTINUOUS
10
166.077
20
-91.6782
11
165.677
21
-92.0782
0
LINE
8
BLACK
6
CONTINUOUS
10
165.677
20
-106.283
11
166.077
21
-106.683
0
LINE
8
BLACK
6
CONTINUOUS
10
166.077
20
-106.283
11
165.677
21
-106.683
0
LINE
8
BLACK
6
CONTINUOUS
10
168.852
20
-78.9783
11
169.252
21
-79.3782
0
LINE
8
BLACK
6
CONTINUOUS
10
169.252
20
-78.9783
11
168.852
21
-79.3782
0
LINE
8
BLACK
6
CONTINUOUS
10
168.852
20
-80.2482
11
169.252
21
-80.6482
0
LINE
8
BLACK
6
CONTINUOUS
10
169.252
20
-80.2482
11
168.852
21
-80.6482
0
LINE
8
BLACK
6
CONTINUOUS
10
168.852
20
-81.5182
11
169.252
21
-81.9183
0
LINE
8
BLACK
6
CONTINUOUS
10
169.252
20
-81.5182
11
168.852
21
-81.9183
0
LINE
8
BLACK
6
CONTINUOUS
10
168.852
20
-82.7882
11
169.252
21
-83.1882
0
LINE
8
BLACK
6
CONTINUOUS
10
169.252
20
-82.7882
11
168.852
21
-83.1882
0
LINE
8
BLACK
6
CONTINUOUS
10
168.852
20
-84.0583
11
169.252
21
-84.4582
0
LINE
8
BLACK
6
CONTINUOUS
10
169.252
20
-84.0583
11
168.852
21
-84.4582
0
LINE
8
BLACK
6
CONTINUOUS
10
170.122
20
-64.3732
11
170.522
21
-64.7732
0
LINE
8
BLACK
6
CONTINUOUS
10
170.522
20
-64.3732
11
170.122
21
-64.7732
0
LINE
8
BLACK
6
CONTINUOUS
10
170.122
20
-65.6432
11
170.522
21
-66.0433
0
LINE
8
BLACK
6
CONTINUOUS
10
170.522
20
-65.6432
11
170.122
21
-66.0433
0
LINE
8
BLACK
6
CONTINUOUS
10
170.122
20
-66.9132
11
170.522
21
-67.3132
0
LINE
8
BLACK
6
CONTINUOUS
10
170.522
20
-66.9132
11
170.122
21
-67.3132
0
LINE
8
BLACK
6
CONTINUOUS
10
170.122
20
-68.1833
11
170.522
21
-68.5832
0
LINE
8
BLACK
6
CONTINUOUS
10
170.522
20
-68.1833
11
170.122
21
-68.5832
0
LINE
8
BLACK
6
CONTINUOUS
10
170.122
20
-69.4532
11
170.522
21
-69.8533
0
LINE
8
BLACK
6
CONTINUOUS
10
170.522
20
-69.4532
11
170.122
21
-69.8533
0
LINE
8
BLACK
6
CONTINUOUS
10
170.122
20
-70.7232
11
170.522
21
-71.1232
0
LINE
8
BLACK
6
CONTINUOUS
10
170.522
20
-70.7232
11
170.122
21
-71.1232
0
LINE
8
BLACK
6
CONTINUOUS
10
170.122
20
-71.9933
11
170.522
21
-72.3932
0
LINE
8
BLACK
6
CONTINUOUS
10
170.522
20
-71.9933
11
170.122
21
-72.3932
0
LINE
8
BLACK
6
CONTINUOUS
10
172.027
20
-77.7082
11
172.427
21
-78.1082
0
LINE
8
BLACK
6
CONTINUOUS
10
172.427
20
-77.7082
11
172.027
21
-78.1082
0
LINE
8
BLACK
6
CONTINUOUS
10
172.027
20
-78.9783
11
172.427
21
-79.3782
0
LINE
8
BLACK
6
CONTINUOUS
10
172.427
20
-78.9783
11
172.027
21
-79.3782
0
LINE
8
BLACK
6
CONTINUOUS
10
172.027
20
-80.2482
11
172.427
21
-80.6482
0
LINE
8
BLACK
6
CONTINUOUS
10
172.427
20
-80.2482
11
172.027
21
-80.6482
0
LINE
8
BLACK
6
CONTINUOUS
10
172.027
20
-81.5182
11
172.427
21
-81.9183
0
LINE
8
BLACK
6
CONTINUOUS
10
172.427
20
-81.5182
11
172.027
21
-81.9183
0
LINE
8
BLACK
6
CONTINUOUS
10
172.027
20
-82.7882
11
172.427
21
-83.1882
0
LINE
8
BLACK
6
CONTINUOUS
10
172.427
20
-82.7882
11
172.027
21
-83.1882
0
LINE
8
BLACK
6
CONTINUOUS
10
172.027
20
-84.0583
11
172.427
21
-84.4582
0
LINE
8
BLACK
6
CONTINUOUS
10
172.427
20
-84.0583
11
172.027
21
-84.4582
0
LINE
8
BLACK
6
CONTINUOUS
10
172.027
20
-85.3282
11
172.427
21
-85.7283
0
LINE
8
BLACK
6
CONTINUOUS
10
172.427
20
-85.3282
11
172.027
21
-85.7283
0
LINE
8
BLACK
6
CONTINUOUS
10
173.297
20
-65.6432
11
173.697
21
-66.0433
0
LINE
8
BLACK
6
CONTINUOUS
10
173.697
20
-65.6432
11
173.297
21
-66.0433
0
LINE
8
BLACK
6
CONTINUOUS
10
173.297
20
-66.9132
11
173.697
21
-67.3132
0
LINE
8
BLACK
6
CONTINUOUS
10
173.697
20
-66.9132
11
173.297
21
-67.3132
0
LINE
8
BLACK
6
CONTINUOUS
10
173.297
20
-68.1833
11
173.697
21
-68.5832
0
LINE
8
BLACK
6
CONTINUOUS
10
173.697
20
-68.1833
11
173.297
21
-68.5832
0
LINE
8
BLACK
6
CONTINUOUS
10
173.297
20
-69.4532
11
173.697
21
-69.8533
0
LINE
8
BLACK
6
CONTINUOUS
10
173.697
20
-69.4532
11
173.297
21
-69.8533
0
LINE
8
BLACK
6
CONTINUOUS
10
173.297
20
-70.7232
11
173.697
21
-71.1232
0
LINE
8
BLACK
6
CONTINUOUS
10
173.697
20
-70.7232
11
173.297
21
-71.1232
0
LINE
8
BLACK
6
CONTINUOUS
10
174.184
20
-74.9153
11
174.584
21
-75.3153
0
LINE
8
BLACK
6
CONTINUOUS
10
174.584
20
-74.9153
11
174.184
21
-75.3153
0
LINE
8
BLACK
6
CONTINUOUS
10
174.948
20
-79.7403
11
175.348
21
-80.1402
0
LINE
8
BLACK
6
CONTINUOUS
10
175.348
20
-79.7403
11
174.948
21
-80.1402
0
LINE
8
BLACK
6
CONTINUOUS
10
175.96
20
-79.736
11
176.36
21
-80.136
0
LINE
8
BLACK
6
CONTINUOUS
10
176.36
20
-79.736
11
175.96
21
-80.136
0
LINE
8
BLACK
6
CONTINUOUS
10
176.472
20
-64.3732
11
176.872
21
-64.7732
0
LINE
8
BLACK
6
CONTINUOUS
10
176.872
20
-64.3732
11
176.472
21
-64.7732
0
LINE
8
BLACK
6
CONTINUOUS
10
176.472
20
-65.6432
11
176.872
21
-66.0433
0
LINE
8
BLACK
6
CONTINUOUS
10
176.872
20
-65.6432
11
176.472
21
-66.0433
0
LINE
8
BLACK
6
CONTINUOUS
10
176.472
20
-66.9132
11
176.872
21
-67.3132
0
LINE
8
BLACK
6
CONTINUOUS
10
176.872
20
-66.9132
11
176.472
21
-67.3132
0
LINE
8
BLACK
6
CONTINUOUS
10
176.472
20
-68.1833
11
176.872
21
-68.5832
0
LINE
8
BLACK
6
CONTINUOUS
10
176.872
20
-68.1833
11
176.472
21
-68.5832
0
LINE
8
BLACK
6
CONTINUOUS
10
176.472
20
-69.4532
11
176.872
21
-69.8533
0
LINE
8
BLACK
6
CONTINUOUS
10
176.872
20
-69.4532
11
176.472
21
-69.8533
0
LINE
8
BLACK
6
CONTINUOUS
10
176.472
20
-70.7232
11
176.872
21
-71.1232
0
LINE
8
BLACK
6
CONTINUOUS
10
176.872
20
-70.7232
11
176.472
21
-71.1232
0
LINE
8
BLACK
6
CONTINUOUS
10
176.472
20
-71.9933
11
176.872
21
-72.3932
0
LINE
8
BLACK
6
CONTINUOUS
10
176.872
20
-71.9933
11
176.472
21
-72.3932
0
LINE
8
BLACK
6
CONTINUOUS
10
176.726
20
-82.7882
11
177.126
21
-83.1882
0
LINE
8
BLACK
6
CONTINUOUS
10
177.126
20
-82.7882
11
176.726
21
-83.1882
0
LINE
8
BLACK
6
CONTINUOUS
10
176.98
20
-79.7403
11
177.38
21
-80.1402
0
LINE
8
BLACK
6
CONTINUOUS
10
177.38
20
-79.7403
11
176.98
21
-80.1402
0
LINE
8
BLACK
6
CONTINUOUS
10
177.742
20
-74.9142
11
178.142
21
-75.3143
0
LINE
8
BLACK
6
CONTINUOUS
10
178.142
20
-74.9142
11
177.742
21
-75.3143
0
CIRCLE
8
BLACK
10
137.937
20
-117.338
40
0.5
0
CIRCLE
8
BLACK
10
137.937
20
-124.838
40
0.5
0
CIRCLE
8
BLACK
10
148.097
20
-68.3833
40
0.5
0
CIRCLE
8
BLACK
10
148.097
20
-70.9232
40
0.5
0
CIRCLE
8
BLACK
10
148.097
20
-73.4633
40
0.5
0
CIRCLE
8
BLACK
10
148.097
20
-76.0032
40
0.5
0
CIRCLE
8
BLACK
10
148.097
20
-78.5433
40
0.5
0
CIRCLE
8
BLACK
10
148.097
20
-81.0832
40
0.5
0
CIRCLE
8
BLACK
10
148.097
20
-83.6232
40
0.5
0
CIRCLE
8
BLACK
10
148.097
20
-86.1632
40
0.5
0
CIRCLE
8
BLACK
10
148.097
20
-88.7032
40
0.5
0
CIRCLE
8
BLACK
10
148.097
20
-91.2432
40
0.5
0
CIRCLE
8
BLACK
10
150.637
20
-68.3833
40
0.5
0
CIRCLE
8
BLACK
10
150.637
20
-70.9232
40
0.5
0
CIRCLE
8
BLACK
10
150.637
20
-73.4633
40
0.5
0
CIRCLE
8
BLACK
10
150.637
20
-76.0032
40
0.5
0
CIRCLE
8
BLACK
10
150.637
20
-78.5433
40
0.5
0
CIRCLE
8
BLACK
10
150.637
20
-81.0832
40
0.5
0
CIRCLE
8
BLACK
10
150.637
20
-83.6232
40
0.5
0
CIRCLE
8
BLACK
10
150.637
20
-86.1632
40
0.5
0
CIRCLE
8
BLACK
10
150.637
20
-88.7032
40
0.5
0
CIRCLE
8
BLACK
10
150.637
20
-91.2432
40
0.5
0
CIRCLE
8
BLACK
10
160.797
20
-117.338
40
0.5
0
CIRCLE
8
BLACK
10
160.797
20
-124.838
40
0.5
0
LINE
8
BLACK
6
CONTINUOUS
10
127.142
20
-57.6232
11
127.142
21
-58.8232
0
LINE
8
BLACK
6
CONTINUOUS
10
126.542
20
-58.2233
11
127.742
21
-58.2233
0
LINE
8
BLACK
6
CONTINUOUS
10
149.367
20
-43.0182
11
149.367
21
-44.2182
0
LINE
8
BLACK
6
CONTINUOUS
10
148.767
20
-43.6182
11
149.967
21
-43.6182
0
LINE
8
BLACK
6
CONTINUOUS
10
171.592
20
-57.6232
11
171.592
21
-58.8232
0
LINE
8
BLACK
6
CONTINUOUS
10
170.992
20
-58.2233
11
172.192
21
-58.2233
0
LINE
8
BLACK
6
CONTINUOUS
10
145.348
20
-120.544
11
145.348
21
-118.423
0
LINE
8
BLACK
6
CONTINUOUS
10
145.348
20
-118.423
11
143.227
21
-118.423
0
LINE
8
BLACK
6
CONTINUOUS
10
143.227
20
-118.423
11
143.227
21
-120.544
0
LINE
8
BLACK
6
CONTINUOUS
10
143.227
20
-120.544
11
145.348
21
-120.544
0
LINE
8
BLACK
6
CONTINUOUS
10
155.508
20
-120.544
11
155.508
21
-118.423
0
LINE
8
BLACK
6
CONTINUOUS
10
155.508
20
-118.423
11
153.387
21
-118.423
0
LINE
8
BLACK
6
CONTINUOUS
10
153.387
20
-118.423
11
153.387
21
-120.544
0
LINE
8
BLACK
6
CONTINUOUS
10
153.387
20
-120.544
11
155.508
21
-120.544
0
LINE
8
BLACK
6
CONTINUOUS
10
132.222
20
-126.498
11
133.822
21
-124.898
0
LINE
8
BLACK
6
CONTINUOUS
10
133.822
20
-124.898
11
132.222
21
-123.298
0
LINE
8
BLACK
6
CONTINUOUS
10
132.222
20
-123.298
11
130.622
21
-124.898
0
LINE
8
BLACK
6
CONTINUOUS
10
130.622
20
-124.898
11
132.222
21
-126.498
0
LINE
8
BLACK
6
CONTINUOUS
10
167.147
20
-126.498
11
168.747
21
-124.898
0
LINE
8
BLACK
6
CONTINUOUS
10
168.747
20
-124.898
11
167.147
21
-123.298
0
LINE
8
BLACK
6
CONTINUOUS
10
167.147
20
-123.298
11
165.547
21
-124.898
0
LINE
8
BLACK
6
CONTINUOUS
10
165.547
20
-124.898
11
167.147
21
-126.498
0
LINE
8
BLACK
6
CONTINUOUS
10
135.067
20
-41.3832
11
138.267
21
-44.5832
0
LINE
8
BLACK
6
CONTINUOUS
10
138.267
20
-41.3832
11
135.067
21
-44.5832
0
CIRCLE
8
BLACK
10
136.667
20
-42.9832
40
1.6
0
LINE
8
BLACK
6
CONTINUOUS
10
160.467
20
-41.3832
11
163.667
21
-44.5832
0
LINE
8
BLACK
6
CONTINUOUS
10
163.667
20
-41.3832
11
160.467
21
-44.5832
0
CIRCLE
8
BLACK
10
162.067
20
-42.9832
40
1.6
0
LINE
8
BLACK
6
CONTINUOUS
10
118.458
20
-131.242
11
118.458
21
-129.242
0
LINE
8
BLACK
6
CONTINUOUS
10
118.458
20
-129.242
11
118.934
21
-129.242
0
LINE
8
BLACK
6
CONTINUOUS
10
118.934
20
-129.242
11
119.22
21
-129.337
0
LINE
8
BLACK
6
CONTINUOUS
10
119.22
20
-129.337
11
119.411
21
-129.527
0
LINE
8
BLACK
6
CONTINUOUS
10
119.411
20
-129.527
11
119.506
21
-129.718
0
LINE
8
BLACK
6
CONTINUOUS
10
119.506
20
-129.718
11
119.601
21
-130.099
0
LINE
8
BLACK
6
CONTINUOUS
10
119.601
20
-130.099
11
119.601
21
-130.384
0
LINE
8
BLACK
6
CONTINUOUS
10
119.601
20
-130.384
11
119.506
21
-130.765
0
LINE
8
BLACK
6
CONTINUOUS
10
119.506
20
-130.765
11
119.411
21
-130.956
0
LINE
8
BLACK
6
CONTINUOUS
10
119.411
20
-130.956
11
119.22
21
-131.146
0
LINE
8
BLACK
6
CONTINUOUS
10
119.22
20
-131.146
11
118.934
21
-131.242
0
LINE
8
BLACK
6
CONTINUOUS
10
118.934
20
-131.242
11
118.458
21
-131.242
0
LINE
8
BLACK
6
CONTINUOUS
10
120.458
20
-131.242
11
120.458
21
-129.908
0
LINE
8
BLACK
6
CONTINUOUS
10
120.458
20
-130.289
11
120.554
21
-130.099
0
LINE
8
BLACK
6
CONTINUOUS
10
120.554
20
-130.099
11
120.649
21
-130.003
0
LINE
8
BLACK
6
CONTINUOUS
10
120.649
20
-130.003
11
120.839
21
-129.908
0
LINE
8
BLACK
6
CONTINUOUS
10
120.839
20
-129.908
11
121.03
21
-129.908
0
LINE
8
BLACK
6
CONTINUOUS
10
121.696
20
-131.242
11
121.696
21
-129.908
0
LINE
8
BLACK
6
CONTINUOUS
10
121.696
20
-129.242
11
121.601
21
-129.337
0
LINE
8
BLACK
6
CONTINUOUS
10
121.601
20
-129.337
11
121.696
21
-129.432
0
LINE
8
BLACK
6
CONTINUOUS
10
121.696
20
-129.432
11
121.792
21
-129.337
0
LINE
8
BLACK
6
CONTINUOUS
10
121.792
20
-129.337
11
121.696
21
-129.242
0
LINE
8
BLACK
6
CONTINUOUS
10
121.696
20
-129.242
11
121.696
21
-129.432
0
LINE
8
BLACK
6
CONTINUOUS
10
122.934
20
-131.242
11
122.744
21
-131.146
0
LINE
8
BLACK
6
CONTINUOUS
10
122.744
20
-131.146
11
122.649
21
-130.956
0
LINE
8
BLACK
6
CONTINUOUS
10
122.649
20
-130.956
11
122.649
21
-129.242
0
LINE
8
BLACK
6
CONTINUOUS
10
123.982
20
-131.242
11
123.792
21
-131.146
0
LINE
8
BLACK
6
CONTINUOUS
10
123.792
20
-131.146
11
123.696
21
-130.956
0
LINE
8
BLACK
6
CONTINUOUS
10
123.696
20
-130.956
11
123.696
21
-129.242
0
LINE
8
BLACK
6
CONTINUOUS
10
126.268
20
-131.242
11
126.268
21
-129.242
0
LINE
8
BLACK
6
CONTINUOUS
10
126.268
20
-129.242
11
126.934
21
-130.67
0
LINE
8
BLACK
6
CONTINUOUS
10
126.934
20
-130.67
11
127.601
21
-129.242
0
LINE
8
BLACK
6
CONTINUOUS
10
127.601
20
-129.242
11
127.601
21
-131.242
0
LINE
8
BLACK
6
CONTINUOUS
10
129.411
20
-131.242
11
129.411
21
-130.194
0
LINE
8
BLACK
6
CONTINUOUS
10
129.411
20
-130.194
11
129.315
21
-130.003
0
LINE
8
BLACK
6
CONTINUOUS
10
129.315
20
-130.003
11
129.125
21
-129.908
0
LINE
8
BLACK
6
CONTINUOUS
10
129.125
20
-129.908
11
128.744
21
-129.908
0
LINE
8
BLACK
6
CONTINUOUS
10
128.744
20
-129.908
11
128.554
21
-130.003
0
LINE
8
BLACK
6
CONTINUOUS
10
129.411
20
-131.146
11
129.22
21
-131.242
0
LINE
8
BLACK
6
CONTINUOUS
10
129.22
20
-131.242
11
128.744
21
-131.242
0
LINE
8
BLACK
6
CONTINUOUS
10
128.744
20
-131.242
11
128.554
21
-131.146
0
LINE
8
BLACK
6
CONTINUOUS
10
128.554
20
-131.146
11
128.458
21
-130.956
0
LINE
8
BLACK
6
CONTINUOUS
10
128.458
20
-130.956
11
128.458
21
-130.765
0
LINE
8
BLACK
6
CONTINUOUS
10
128.458
20
-130.765
11
128.554
21
-130.575
0
LINE
8
BLACK
6
CONTINUOUS
10
128.554
20
-130.575
11
128.744
21
-130.48
0
LINE
8
BLACK
6
CONTINUOUS
10
128.744
20
-130.48
11
129.22
21
-130.48
0
LINE
8
BLACK
6
CONTINUOUS
10
129.22
20
-130.48
11
129.411
21
-130.384
0
LINE
8
BLACK
6
CONTINUOUS
10
130.363
20
-129.908
11
130.363
21
-131.908
0
LINE
8
BLACK
6
CONTINUOUS
10
130.363
20
-130.003
11
130.554
21
-129.908
0
LINE
8
BLACK
6
CONTINUOUS
10
130.554
20
-129.908
11
130.934
21
-129.908
0
LINE
8
BLACK
6
CONTINUOUS
10
130.934
20
-129.908
11
131.125
21
-130.003
0
LINE
8
BLACK
6
CONTINUOUS
10
131.125
20
-130.003
11
131.22
21
-130.099
0
LINE
8
BLACK
6
CONTINUOUS
10
131.22
20
-130.099
11
131.315
21
-130.289
0
LINE
8
BLACK
6
CONTINUOUS
10
131.315
20
-130.289
11
131.315
21
-130.861
0
LINE
8
BLACK
6
CONTINUOUS
10
131.315
20
-130.861
11
131.22
21
-131.051
0
LINE
8
BLACK
6
CONTINUOUS
10
131.22
20
-131.051
11
131.125
21
-131.146
0
LINE
8
BLACK
6
CONTINUOUS
10
131.125
20
-131.146
11
130.934
21
-131.242
0
LINE
8
BLACK
6
CONTINUOUS
10
130.934
20
-131.242
11
130.554
21
-131.242
0
LINE
8
BLACK
6
CONTINUOUS
10
130.554
20
-131.242
11
130.363
21
-131.146
0
LINE
8
BLACK
6
CONTINUOUS
10
132.173
20
-131.051
11
132.268
21
-131.146
0
LINE
8
BLACK
6
CONTINUOUS
10
132.268
20
-131.146
11
132.173
21
-131.242
0
LINE
8
BLACK
6
CONTINUOUS
10
132.173
20
-131.242
11
132.077
21
-131.146
0
LINE
8
BLACK
6
CONTINUOUS
10
132.077
20
-131.146
11
132.173
21
-131.051
0
LINE
8
BLACK
6
CONTINUOUS
10
132.173
20
-131.051
11
132.173
21
-131.242
0
LINE
8
BLACK
6
CONTINUOUS
10
132.173
20
-130.003
11
132.268
21
-130.099
0
LINE
8
BLACK
6
CONTINUOUS
10
132.268
20
-130.099
11
132.173
21
-130.194
0
LINE
8
BLACK
6
CONTINUOUS
10
132.173
20
-130.194
11
132.077
21
-130.099
0
LINE
8
BLACK
6
CONTINUOUS
10
132.077
20
-130.099
11
132.173
21
-130.003
0
LINE
8
BLACK
6
CONTINUOUS
10
132.173
20
-130.003
11
132.173
21
-130.194
0
LINE
8
BLACK
6
CONTINUOUS
10
115.45
20
-134.327
11
115.85
21
-134.727
0
LINE
8
BLACK
6
CONTINUOUS
10
115.85
20
-134.327
11
115.45
21
-134.727
0
LINE
8
BLACK
6
CONTINUOUS
10
118.839
20
-133.442
11
119.03
21
-133.442
0
LINE
8
BLACK
6
CONTINUOUS
10
119.03
20
-133.442
11
119.22
21
-133.537
0
LINE
8
BLACK
6
CONTINUOUS
10
119.22
20
-133.537
11
119.315
21
-133.632
0
LINE
8
BLACK
6
CONTINUOUS
10
119.315
20
-133.632
11
119.411
21
-133.823
0
LINE
8
BLACK
6
CONTINUOUS
10
119.411
20
-133.823
11
119.506
21
-134.203
0
LINE
8
BLACK
6
CONTINUOUS
10
119.506
20
-134.203
11
119.506
21
-134.68
0
LINE
8
BLACK
6
CONTINUOUS
10
119.506
20
-134.68
11
119.411
21
-135.061
0
LINE
8
BLACK
6
CONTINUOUS
10
119.411
20
-135.061
11
119.315
21
-135.251
0
LINE
8
BLACK
6
CONTINUOUS
10
119.315
20
-135.251
11
119.22
21
-135.346
0
LINE
8
BLACK
6
CONTINUOUS
10
119.22
20
-135.346
11
119.03
21
-135.442
0
LINE
8
BLACK
6
CONTINUOUS
10
119.03
20
-135.442
11
118.839
21
-135.442
0
LINE
8
BLACK
6
CONTINUOUS
10
118.839
20
-135.442
11
118.649
21
-135.346
0
LINE
8
BLACK
6
CONTINUOUS
10
118.649
20
-135.346
11
118.554
21
-135.251
0
LINE
8
BLACK
6
CONTINUOUS
10
118.554
20
-135.251
11
118.458
21
-135.061
0
LINE
8
BLACK
6
CONTINUOUS
10
118.458
20
-135.061
11
118.363
21
-134.68
0
LINE
8
BLACK
6
CONTINUOUS
10
118.363
20
-134.68
11
118.363
21
-134.203
0
LINE
8
BLACK
6
CONTINUOUS
10
118.363
20
-134.203
11
118.458
21
-133.823
0
LINE
8
BLACK
6
CONTINUOUS
10
118.458
20
-133.823
11
118.554
21
-133.632
0
LINE
8
BLACK
6
CONTINUOUS
10
118.554
20
-133.632
11
118.649
21
-133.537
0
LINE
8
BLACK
6
CONTINUOUS
10
118.649
20
-133.537
11
118.839
21
-133.442
0
LINE
8
BLACK
6
CONTINUOUS
10
120.363
20
-135.251
11
120.458
21
-135.346
0
LINE
8
BLACK
6
CONTINUOUS
10
120.458
20
-135.346
11
120.363
21
-135.442
0
LINE
8
BLACK
6
CONTINUOUS
10
120.363
20
-135.442
11
120.268
21
-135.346
0
LINE
8
BLACK
6
CONTINUOUS
10
120.268
20
-135.346
11
120.363
21
-135.251
0
LINE
8
BLACK
6
CONTINUOUS
10
120.363
20
-135.251
11
120.363
21
-135.442
0
LINE
8
BLACK
6
CONTINUOUS
10
122.173
20
-134.108
11
122.173
21
-135.442
0
LINE
8
BLACK
6
CONTINUOUS
10
121.696
20
-133.346
11
121.22
21
-134.775
0
LINE
8
BLACK
6
CONTINUOUS
10
121.22
20
-134.775
11
122.458
21
-134.775
0
LINE
8
BLACK
6
CONTINUOUS
10
123.601
20
-133.442
11
123.792
21
-133.442
0
LINE
8
BLACK
6
CONTINUOUS
10
123.792
20
-133.442
11
123.982
21
-133.537
0
LINE
8
BLACK
6
CONTINUOUS
10
123.982
20
-133.537
11
124.077
21
-133.632
0
LINE
8
BLACK
6
CONTINUOUS
10
124.077
20
-133.632
11
124.173
21
-133.823
0
LINE
8
BLACK
6
CONTINUOUS
10
124.173
20
-133.823
11
124.268
21
-134.203
0
LINE
8
BLACK
6
CONTINUOUS
10
124.268
20
-134.203
11
124.268
21
-134.68
0
LINE
8
BLACK
6
CONTINUOUS
10
124.268
20
-134.68
11
124.173
21
-135.061
0
LINE
8
BLACK
6
CONTINUOUS
10
124.173
20
-135.061
11
124.077
21
-135.251
0
LINE
8
BLACK
6
CONTINUOUS
10
124.077
20
-135.251
11
123.982
21
-135.346
0
LINE
8
BLACK
6
CONTINUOUS
10
123.982
20
-135.346
11
123.792
21
-135.442
0
LINE
8
BLACK
6
CONTINUOUS
10
123.792
20
-135.442
11
123.601
21
-135.442
0
LINE
8
BLACK
6
CONTINUOUS
10
123.601
20
-135.442
11
123.411
21
-135.346
0
LINE
8
BLACK
6
CONTINUOUS
10
123.411
20
-135.346
11
123.315
21
-135.251
0
LINE
8
BLACK
6
CONTINUOUS
10
123.315
20
-135.251
11
123.22
21
-135.061
0
LINE
8
BLACK
6
CONTINUOUS
10
123.22
20
-135.061
11
123.125
21
-134.68
0
LINE
8
BLACK
6
CONTINUOUS
10
123.125
20
-134.68
11
123.125
21
-134.203
0
LINE
8
BLACK
6
CONTINUOUS
10
123.125
20
-134.203
11
123.22
21
-133.823
0
LINE
8
BLACK
6
CONTINUOUS
10
123.22
20
-133.823
11
123.315
21
-133.632
0
LINE
8
BLACK
6
CONTINUOUS
10
123.315
20
-133.632
11
123.411
21
-133.537
0
LINE
8
BLACK
6
CONTINUOUS
10
123.411
20
-133.537
11
123.601
21
-133.442
0
LINE
8
BLACK
6
CONTINUOUS
10
125.506
20
-133.442
11
125.696
21
-133.442
0
LINE
8
BLACK
6
CONTINUOUS
10
125.696
20
-133.442
11
125.887
21
-133.537
0
LINE
8
BLACK
6
CONTINUOUS
10
125.887
20
-133.537
11
125.982
21
-133.632
0
LINE
8
BLACK
6
CONTINUOUS
10
125.982
20
-133.632
11
126.077
21
-133.823
0
LINE
8
BLACK
6
CONTINUOUS
10
126.077
20
-133.823
11
126.173
21
-134.203
0
LINE
8
BLACK
6
CONTINUOUS
10
126.173
20
-134.203
11
126.173
21
-134.68
0
LINE
8
BLACK
6
CONTINUOUS
10
126.173
20
-134.68
11
126.077
21
-135.061
0
LINE
8
BLACK
6
CONTINUOUS
10
126.077
20
-135.061
11
125.982
21
-135.251
0
LINE
8
BLACK
6
CONTINUOUS
10
125.982
20
-135.251
11
125.887
21
-135.346
0
LINE
8
BLACK
6
CONTINUOUS
10
125.887
20
-135.346
11
125.696
21
-135.442
0
LINE
8
BLACK
6
CONTINUOUS
10
125.696
20
-135.442
11
125.506
21
-135.442
0
LINE
8
BLACK
6
CONTINUOUS
10
125.506
20
-135.442
11
125.315
21
-135.346
0
LINE
8
BLACK
6
CONTINUOUS
10
125.315
20
-135.346
11
125.22
21
-135.251
0
LINE
8
BLACK
6
CONTINUOUS
10
125.22
20
-135.251
11
125.125
21
-135.061
0
LINE
8
BLACK
6
CONTINUOUS
10
125.125
20
-135.061
11
125.03
21
-134.68
0
LINE
8
BLACK
6
CONTINUOUS
10
125.03
20
-134.68
11
125.03
21
-134.203
0
LINE
8
BLACK
6
CONTINUOUS
10
125.03
20
-134.203
11
125.125
21
-133.823
0
LINE
8
BLACK
6
CONTINUOUS
10
125.125
20
-133.823
11
125.22
21
-133.632
0
LINE
8
BLACK
6
CONTINUOUS
10
125.22
20
-133.632
11
125.315
21
-133.537
0
LINE
8
BLACK
6
CONTINUOUS
10
125.315
20
-133.537
11
125.506
21
-133.442
0
LINE
8
BLACK
6
CONTINUOUS
10
127.03
20
-135.442
11
127.03
21
-134.108
0
LINE
8
BLACK
6
CONTINUOUS
10
127.03
20
-134.299
11
127.125
21
-134.203
0
LINE
8
BLACK
6
CONTINUOUS
10
127.125
20
-134.203
11
127.315
21
-134.108
0
LINE
8
BLACK
6
CONTINUOUS
10
127.315
20
-134.108
11
127.601
21
-134.108
0
LINE
8
BLACK
6
CONTINUOUS
10
127.601
20
-134.108
11
127.792
21
-134.203
0
LINE
8
BLACK
6
CONTINUOUS
10
127.792
20
-134.203
11
127.887
21
-134.394
0
LINE
8
BLACK
6
CONTINUOUS
10
127.887
20
-134.394
11
127.887
21
-135.442
0
LINE
8
BLACK
6
CONTINUOUS
10
127.887
20
-134.394
11
127.982
21
-134.203
0
LINE
8
BLACK
6
CONTINUOUS
10
127.982
20
-134.203
11
128.173
21
-134.108
0
LINE
8
BLACK
6
CONTINUOUS
10
128.173
20
-134.108
11
128.458
21
-134.108
0
LINE
8
BLACK
6
CONTINUOUS
10
128.458
20
-134.108
11
128.649
21
-134.203
0
LINE
8
BLACK
6
CONTINUOUS
10
128.649
20
-134.203
11
128.744
21
-134.394
0
LINE
8
BLACK
6
CONTINUOUS
10
128.744
20
-134.394
11
128.744
21
-135.442
0
LINE
8
BLACK
6
CONTINUOUS
10
129.696
20
-135.442
11
129.696
21
-134.108
0
LINE
8
BLACK
6
CONTINUOUS
10
129.696
20
-134.299
11
129.792
21
-134.203
0
LINE
8
BLACK
6
CONTINUOUS
10
129.792
20
-134.203
11
129.982
21
-134.108
0
LINE
8
BLACK
6
CONTINUOUS
10
129.982
20
-134.108
11
130.268
21
-134.108
0
LINE
8
BLACK
6
CONTINUOUS
10
130.268
20
-134.108
11
130.458
21
-134.203
0
LINE
8
BLACK
6
CONTINUOUS
10
130.458
20
-134.203
11
130.554
21
-134.394
0
LINE
8
BLACK
6
CONTINUOUS
10
130.554
20
-134.394
11
130.554
21
-135.442
0
LINE
8
BLACK
6
CONTINUOUS
10
130.554
20
-134.394
11
130.649
21
-134.203
0
LINE
8
BLACK
6
CONTINUOUS
10
130.649
20
-134.203
11
130.839
21
-134.108
0
LINE
8
BLACK
6
CONTINUOUS
10
130.839
20
-134.108
11
131.125
21
-134.108
0
LINE
8
BLACK
6
CONTINUOUS
10
131.125
20
-134.108
11
131.315
21
-134.203
0
LINE
8
BLACK
6
CONTINUOUS
10
131.315
20
-134.203
11
131.411
21
-134.394
0
LINE
8
BLACK
6
CONTINUOUS
10
131.411
20
-134.394
11
131.411
21
-135.442
0
LINE
8
BLACK
6
CONTINUOUS
10
135.315
20
-133.346
11
133.601
21
-135.918
0
LINE
8
BLACK
6
CONTINUOUS
10
137.887
20
-133.442
11
138.077
21
-133.442
0
LINE
8
BLACK
6
CONTINUOUS
10
138.077
20
-133.442
11
138.268
21
-133.537
0
LINE
8
BLACK
6
CONTINUOUS
10
138.268
20
-133.537
11
138.363
21
-133.632
0
LINE
8
BLACK
6
CONTINUOUS
10
138.363
20
-133.632
11
138.458
21
-133.823
0
LINE
8
BLACK
6
CONTINUOUS
10
138.458
20
-133.823
11
138.554
21
-134.203
0
LINE
8
BLACK
6
CONTINUOUS
10
138.554
20
-134.203
11
138.554
21
-134.68
0
LINE
8
BLACK
6
CONTINUOUS
10
138.554
20
-134.68
11
138.458
21
-135.061
0
LINE
8
BLACK
6
CONTINUOUS
10
138.458
20
-135.061
11
138.363
21
-135.251
0
LINE
8
BLACK
6
CONTINUOUS
10
138.363
20
-135.251
11
138.268
21
-135.346
0
LINE
8
BLACK
6
CONTINUOUS
10
138.268
20
-135.346
11
138.077
21
-135.442
0
LINE
8
BLACK
6
CONTINUOUS
10
138.077
20
-135.442
11
137.887
21
-135.442
0
LINE
8
BLACK
6
CONTINUOUS
10
137.887
20
-135.442
11
137.696
21
-135.346
0
LINE
8
BLACK
6
CONTINUOUS
10
137.696
20
-135.346
11
137.601
21
-135.251
0
LINE
8
BLACK
6
CONTINUOUS
10
137.601
20
-135.251
11
137.506
21
-135.061
0
LINE
8
BLACK
6
CONTINUOUS
10
137.506
20
-135.061
11
137.411
21
-134.68
0
LINE
8
BLACK
6
CONTINUOUS
10
137.411
20
-134.68
11
137.411
21
-134.203
0
LINE
8
BLACK
6
CONTINUOUS
10
137.411
20
-134.203
11
137.506
21
-133.823
0
LINE
8
BLACK
6
CONTINUOUS
10
137.506
20
-133.823
11
137.601
21
-133.632
0
LINE
8
BLACK
6
CONTINUOUS
10
137.601
20
-133.632
11
137.696
21
-133.537
0
LINE
8
BLACK
6
CONTINUOUS
10
137.696
20
-133.537
11
137.887
21
-133.442
0
LINE
8
BLACK
6
CONTINUOUS
10
139.411
20
-135.251
11
139.506
21
-135.346
0
LINE
8
BLACK
6
CONTINUOUS
10
139.506
20
-135.346
11
139.411
21
-135.442
0
LINE
8
BLACK
6
CONTINUOUS
10
139.411
20
-135.442
11
139.315
21
-135.346
0
LINE
8
BLACK
6
CONTINUOUS
10
139.315
20
-135.346
11
139.411
21
-135.251
0
LINE
8
BLACK
6
CONTINUOUS
10
139.411
20
-135.251
11
139.411
21
-135.442
0
LINE
8
BLACK
6
CONTINUOUS
10
140.744
20
-133.442
11
140.934
21
-133.442
0
LINE
8
BLACK
6
CONTINUOUS
10
140.934
20
-133.442
11
141.125
21
-133.537
0
LINE
8
BLACK
6
CONTINUOUS
10
141.125
20
-133.537
11
141.22
21
-133.632
0
LINE
8
BLACK
6
CONTINUOUS
10
141.22
20
-133.632
11
141.315
21
-133.823
0
LINE
8
BLACK
6
CONTINUOUS
10
141.315
20
-133.823
11
141.411
21
-134.203
0
LINE
8
BLACK
6
CONTINUOUS
10
141.411
20
-134.203
11
141.411
21
-134.68
0
LINE
8
BLACK
6
CONTINUOUS
10
141.411
20
-134.68
11
141.315
21
-135.061
0
LINE
8
BLACK
6
CONTINUOUS
10
141.315
20
-135.061
11
141.22
21
-135.251
0
LINE
8
BLACK
6
CONTINUOUS
10
141.22
20
-135.251
11
141.125
21
-135.346
0
LINE
8
BLACK
6
CONTINUOUS
10
141.125
20
-135.346
11
140.934
21
-135.442
0
LINE
8
BLACK
6
CONTINUOUS
10
140.934
20
-135.442
11
140.744
21
-135.442
0
LINE
8
BLACK
6
CONTINUOUS
10
140.744
20
-135.442
11
140.554
21
-135.346
0
LINE
8
BLACK
6
CONTINUOUS
10
140.554
20
-135.346
11
140.458
21
-135.251
0
LINE
8
BLACK
6
CONTINUOUS
10
140.458
20
-135.251
11
140.363
21
-135.061
0
LINE
8
BLACK
6
CONTINUOUS
10
140.363
20
-135.061
11
140.268
21
-134.68
0
LINE
8
BLACK
6
CONTINUOUS
10
140.268
20
-134.68
11
140.268
21
-134.203
0
LINE
8
BLACK
6
CONTINUOUS
10
140.268
20
-134.203
11
140.363
21
-133.823
0
LINE
8
BLACK
6
CONTINUOUS
10
140.363
20
-133.823
11
140.458
21
-133.632
0
LINE
8
BLACK
6
CONTINUOUS
10
140.458
20
-133.632
11
140.554
21
-133.537
0
LINE
8
BLACK
6
CONTINUOUS
10
140.554
20
-133.537
11
140.744
21
-133.442
0
LINE
8
BLACK
6
CONTINUOUS
10
143.315
20
-135.442
11
142.173
21
-135.442
0
LINE
8
BLACK
6
CONTINUOUS
10
142.744
20
-135.442
11
142.744
21
-133.442
0
LINE
8
BLACK
6
CONTINUOUS
10
142.744
20
-133.442
11
142.554
21
-133.727
0
LINE
8
BLACK
6
CONTINUOUS
10
142.554
20
-133.727
11
142.363
21
-133.918
0
LINE
8
BLACK
6
CONTINUOUS
10
142.363
20
-133.918
11
142.173
21
-134.013
0
LINE
8
BLACK
6
CONTINUOUS
10
145.125
20
-133.442
11
144.173
21
-133.442
0
LINE
8
BLACK
6
CONTINUOUS
10
144.173
20
-133.442
11
144.077
21
-134.394
0
LINE
8
BLACK
6
CONTINUOUS
10
144.077
20
-134.394
11
144.173
21
-134.299
0
LINE
8
BLACK
6
CONTINUOUS
10
144.173
20
-134.299
11
144.363
21
-134.203
0
LINE
8
BLACK
6
CONTINUOUS
10
144.363
20
-134.203
11
144.839
21
-134.203
0
LINE
8
BLACK
6
CONTINUOUS
10
144.839
20
-134.203
11
145.03
21
-134.299
0
LINE
8
BLACK
6
CONTINUOUS
10
145.03
20
-134.299
11
145.125
21
-134.394
0
LINE
8
BLACK
6
CONTINUOUS
10
145.125
20
-134.394
11
145.22
21
-134.584
0
LINE
8
BLACK
6
CONTINUOUS
10
145.22
20
-134.584
11
145.22
21
-135.061
0
LINE
8
BLACK
6
CONTINUOUS
10
145.22
20
-135.061
11
145.125
21
-135.251
0
LINE
8
BLACK
6
CONTINUOUS
10
145.125
20
-135.251
11
145.03
21
-135.346
0
LINE
8
BLACK
6
CONTINUOUS
10
145.03
20
-135.346
11
144.839
21
-135.442
0
LINE
8
BLACK
6
CONTINUOUS
10
144.839
20
-135.442
11
144.363
21
-135.442
0
LINE
8
BLACK
6
CONTINUOUS
10
144.363
20
-135.442
11
144.173
21
-135.346
0
LINE
8
BLACK
6
CONTINUOUS
10
144.173
20
-135.346
11
144.077
21
-135.251
0
LINE
8
BLACK
6
CONTINUOUS
10
145.887
20
-133.442
11
147.22
21
-133.442
0
LINE
8
BLACK
6
CONTINUOUS
10
147.22
20
-133.442
11
146.363
21
-135.442
0
LINE
8
BLACK
6
CONTINUOUS
10
147.887
20
-133.442
11
147.887
21
-133.823
0
LINE
8
BLACK
6
CONTINUOUS
10
148.649
20
-133.442
11
148.649
21
-133.823
0
LINE
8
BLACK
6
CONTINUOUS
10
151.601
20
-136.203
11
151.506
21
-136.108
0
LINE
8
BLACK
6
CONTINUOUS
10
151.506
20
-136.108
11
151.315
21
-135.823
0
LINE
8
BLACK
6
CONTINUOUS
10
151.315
20
-135.823
11
151.22
21
-135.632
0
LINE
8
BLACK
6
CONTINUOUS
10
151.22
20
-135.632
11
151.125
21
-135.346
0
LINE
8
BLACK
6
CONTINUOUS
10
151.125
20
-135.346
11
151.03
21
-134.87
0
LINE
8
BLACK
6
CONTINUOUS
10
151.03
20
-134.87
11
151.03
21
-134.489
0
LINE
8
BLACK
6
CONTINUOUS
10
151.03
20
-134.489
11
151.125
21
-134.013
0
LINE
8
BLACK
6
CONTINUOUS
10
151.125
20
-134.013
11
151.22
21
-133.727
0
LINE
8
BLACK
6
CONTINUOUS
10
151.22
20
-133.727
11
151.315
21
-133.537
0
LINE
8
BLACK
6
CONTINUOUS
10
151.315
20
-133.537
11
151.506
21
-133.251
0
LINE
8
BLACK
6
CONTINUOUS
10
151.506
20
-133.251
11
151.601
21
-133.156
0
LINE
8
BLACK
6
CONTINUOUS
10
152.268
20
-133.632
11
152.363
21
-133.537
0
LINE
8
BLACK
6
CONTINUOUS
10
152.363
20
-133.537
11
152.554
21
-133.442
0
LINE
8
BLACK
6
CONTINUOUS
10
152.554
20
-133.442
11
153.03
21
-133.442
0
LINE
8
BLACK
6
CONTINUOUS
10
153.03
20
-133.442
11
153.22
21
-133.537
0
LINE
8
BLACK
6
CONTINUOUS
10
153.22
20
-133.537
11
153.315
21
-133.632
0
LINE
8
BLACK
6
CONTINUOUS
10
153.315
20
-133.632
11
153.411
21
-133.823
0
LINE
8
BLACK
6
CONTINUOUS
10
153.411
20
-133.823
11
153.411
21
-134.013
0
LINE
8
BLACK
6
CONTINUOUS
10
153.411
20
-134.013
11
153.315
21
-134.299
0
LINE
8
BLACK
6
CONTINUOUS
10
153.315
20
-134.299
11
152.173
21
-135.442
0
LINE
8
BLACK
6
CONTINUOUS
10
152.173
20
-135.442
11
153.411
21
-135.442
0
LINE
8
BLACK
6
CONTINUOUS
10
154.077
20
-133.442
11
155.315
21
-133.442
0
LINE
8
BLACK
6
CONTINUOUS
10
155.315
20
-133.442
11
154.649
21
-134.203
0
LINE
8
BLACK
6
CONTINUOUS
10
154.649
20
-134.203
11
154.934
21
-134.203
0
LINE
8
BLACK
6
CONTINUOUS
10
154.934
20
-134.203
11
155.125
21
-134.299
0
LINE
8
BLACK
6
CONTINUOUS
10
155.125
20
-134.299
11
155.22
21
-134.394
0
LINE
8
BLACK
6
CONTINUOUS
10
155.22
20
-134.394
11
155.315
21
-134.584
0
LINE
8
BLACK
6
CONTINUOUS
10
155.315
20
-134.584
11
155.315
21
-135.061
0
LINE
8
BLACK
6
CONTINUOUS
10
155.315
20
-135.061
11
155.22
21
-135.251
0
LINE
8
BLACK
6
CONTINUOUS
10
155.22
20
-135.251
11
155.125
21
-135.346
0
LINE
8
BLACK
6
CONTINUOUS
10
155.125
20
-135.346
11
154.934
21
-135.442
0
LINE
8
BLACK
6
CONTINUOUS
10
154.934
20
-135.442
11
154.363
21
-135.442
0
LINE
8
BLACK
6
CONTINUOUS
10
154.363
20
-135.442
11
154.173
21
-135.346
0
LINE
8
BLACK
6
CONTINUOUS
10
154.173
20
-135.346
11
154.077
21
-135.251
0
LINE
8
BLACK
6
CONTINUOUS
10
157.125
20
-133.442
11
156.173
21
-133.442
0
LINE
8
BLACK
6
CONTINUOUS
10
156.173
20
-133.442
11
156.077
21
-134.394
0
LINE
8
BLACK
6
CONTINUOUS
10
156.077
20
-134.394
11
156.173
21
-134.299
0
LINE
8
BLACK
6
CONTINUOUS
10
156.173
20
-134.299
11
156.363
21
-134.203
0
LINE
8
BLACK
6
CONTINUOUS
10
156.363
20
-134.203
11
156.839
21
-134.203
0
LINE
8
BLACK
6
CONTINUOUS
10
156.839
20
-134.203
11
157.03
21
-134.299
0
LINE
8
BLACK
6
CONTINUOUS
10
157.03
20
-134.299
11
157.125
21
-134.394
0
LINE
8
BLACK
6
CONTINUOUS
10
157.125
20
-134.394
11
157.22
21
-134.584
0
LINE
8
BLACK
6
CONTINUOUS
10
157.22
20
-134.584
11
157.22
21
-135.061
0
LINE
8
BLACK
6
CONTINUOUS
10
157.22
20
-135.061
11
157.125
21
-135.251
0
LINE
8
BLACK
6
CONTINUOUS
10
157.125
20
-135.251
11
157.03
21
-135.346
0
LINE
8
BLACK
6
CONTINUOUS
10
157.03
20
-135.346
11
156.839
21
-135.442
0
LINE
8
BLACK
6
CONTINUOUS
10
156.839
20
-135.442
11
156.363
21
-135.442
0
LINE
8
BLACK
6
CONTINUOUS
10
156.363
20
-135.442
11
156.173
21
-135.346
0
LINE
8
BLACK
6
CONTINUOUS
10
156.173
20
-135.346
11
156.077
21
-135.251
0
LINE
8
BLACK
6
CONTINUOUS
10
159.601
20
-135.442
11
159.601
21
-133.442
0
LINE
8
BLACK
6
CONTINUOUS
10
160.458
20
-135.442
11
160.458
21
-134.394
0
LINE
8
BLACK
6
CONTINUOUS
10
160.458
20
-134.394
11
160.363
21
-134.203
0
LINE
8
BLACK
6
CONTINUOUS
10
160.363
20
-134.203
11
160.173
21
-134.108
0
LINE
8
BLACK
6
CONTINUOUS
10
160.173
20
-134.108
11
159.887
21
-134.108
0
LINE
8
BLACK
6
CONTINUOUS
10
159.887
20
-134.108
11
159.696
21
-134.203
0
LINE
8
BLACK
6
CONTINUOUS
10
159.696
20
-134.203
11
159.601
21
-134.299
0
LINE
8
BLACK
6
CONTINUOUS
10
161.696
20
-135.442
11
161.506
21
-135.346
0
LINE
8
BLACK
6
CONTINUOUS
10
161.506
20
-135.346
11
161.411
21
-135.251
0
LINE
8
BLACK
6
CONTINUOUS
10
161.411
20
-135.251
11
161.315
21
-135.061
0
LINE
8
BLACK
6
CONTINUOUS
10
161.315
20
-135.061
11
161.315
21
-134.489
0
LINE
8
BLACK
6
CONTINUOUS
10
161.315
20
-134.489
11
161.411
21
-134.299
0
LINE
8
BLACK
6
CONTINUOUS
10
161.411
20
-134.299
11
161.506
21
-134.203
0
LINE
8
BLACK
6
CONTINUOUS
10
161.506
20
-134.203
11
161.696
21
-134.108
0
LINE
8
BLACK
6
CONTINUOUS
10
161.696
20
-134.108
11
161.982
21
-134.108
0
LINE
8
BLACK
6
CONTINUOUS
10
161.982
20
-134.108
11
162.173
21
-134.203
0
LINE
8
BLACK
6
CONTINUOUS
10
162.173
20
-134.203
11
162.268
21
-134.299
0
LINE
8
BLACK
6
CONTINUOUS
10
162.268
20
-134.299
11
162.363
21
-134.489
0
LINE
8
BLACK
6
CONTINUOUS
10
162.363
20
-134.489
11
162.363
21
-135.061
0
LINE
8
BLACK
6
CONTINUOUS
10
162.363
20
-135.061
11
162.268
21
-135.251
0
LINE
8
BLACK
6
CONTINUOUS
10
162.268
20
-135.251
11
162.173
21
-135.346
0
LINE
8
BLACK
6
CONTINUOUS
10
162.173
20
-135.346
11
161.982
21
-135.442
0
LINE
8
BLACK
6
CONTINUOUS
10
161.982
20
-135.442
11
161.696
21
-135.442
0
LINE
8
BLACK
6
CONTINUOUS
10
163.506
20
-135.442
11
163.315
21
-135.346
0
LINE
8
BLACK
6
CONTINUOUS
10
163.315
20
-135.346
11
163.22
21
-135.156
0
LINE
8
BLACK
6
CONTINUOUS
10
163.22
20
-135.156
11
163.22
21
-133.442
0
LINE
8
BLACK
6
CONTINUOUS
10
165.03
20
-135.346
11
164.839
21
-135.442
0
LINE
8
BLACK
6
CONTINUOUS
10
164.839
20
-135.442
11
164.458
21
-135.442
0
LINE
8
BLACK
6
CONTINUOUS
10
164.458
20
-135.442
11
164.268
21
-135.346
0
LINE
8
BLACK
6
CONTINUOUS
10
164.268
20
-135.346
11
164.173
21
-135.156
0
LINE
8
BLACK
6
CONTINUOUS
10
164.173
20
-135.156
11
164.173
21
-134.394
0
LINE
8
BLACK
6
CONTINUOUS
10
164.173
20
-134.394
11
164.268
21
-134.203
0
LINE
8
BLACK
6
CONTINUOUS
10
164.268
20
-134.203
11
164.458
21
-134.108
0
LINE
8
BLACK
6
CONTINUOUS
10
164.458
20
-134.108
11
164.839
21
-134.108
0
LINE
8
BLACK
6
CONTINUOUS
10
164.839
20
-134.108
11
165.03
21
-134.203
0
LINE
8
BLACK
6
CONTINUOUS
10
165.03
20
-134.203
11
165.125
21
-134.394
0
LINE
8
BLACK
6
CONTINUOUS
10
165.125
20
-134.394
11
165.125
21
-134.584
0
LINE
8
BLACK
6
CONTINUOUS
10
165.125
20
-134.584
11
164.173
21
-134.775
0
LINE
8
BLACK
6
CONTINUOUS
10
165.887
20
-135.346
11
166.077
21
-135.442
0
LINE
8
BLACK
6
CONTINUOUS
10
166.077
20
-135.442
11
166.458
21
-135.442
0
LINE
8
BLACK
6
CONTINUOUS
10
166.458
20
-135.442
11
166.649
21
-135.346
0
LINE
8
BLACK
6
CONTINUOUS
10
166.649
20
-135.346
11
166.744
21
-135.156
0
LINE
8
BLACK
6
CONTINUOUS
10
166.744
20
-135.156
11
166.744
21
-135.061
0
LINE
8
BLACK
6
CONTINUOUS
10
166.744
20
-135.061
11
166.649
21
-134.87
0
LINE
8
BLACK
6
CONTINUOUS
10
166.649
20
-134.87
11
166.458
21
-134.775
0
LINE
8
BLACK
6
CONTINUOUS
10
166.458
20
-134.775
11
166.173
21
-134.775
0
LINE
8
BLACK
6
CONTINUOUS
10
166.173
20
-134.775
11
165.982
21
-134.68
0
LINE
8
BLACK
6
CONTINUOUS
10
165.982
20
-134.68
11
165.887
21
-134.489
0
LINE
8
BLACK
6
CONTINUOUS
10
165.887
20
-134.489
11
165.887
21
-134.394
0
LINE
8
BLACK
6
CONTINUOUS
10
165.887
20
-134.394
11
165.982
21
-134.203
0
LINE
8
BLACK
6
CONTINUOUS
10
165.982
20
-134.203
11
166.173
21
-134.108
0
LINE
8
BLACK
6
CONTINUOUS
10
166.173
20
-134.108
11
166.458
21
-134.108
0
LINE
8
BLACK
6
CONTINUOUS
10
166.458
20
-134.108
11
166.649
21
-134.203
0
LINE
8
BLACK
6
CONTINUOUS
10
167.411
20
-136.203
11
167.506
21
-136.108
0
LINE
8
BLACK
6
CONTINUOUS
10
167.506
20
-136.108
11
167.696
21
-135.823
0
LINE
8
BLACK
6
CONTINUOUS
10
167.696
20
-135.823
11
167.792
21
-135.632
0
LINE
8
BLACK
6
CONTINUOUS
10
167.792
20
-135.632
11
167.887
21
-135.346
0
LINE
8
BLACK
6
CONTINUOUS
10
167.887
20
-135.346
11
167.982
21
-134.87
0
LINE
8
BLACK
6
CONTINUOUS
10
167.982
20
-134.87
11
167.982
21
-134.489
0
LINE
8
BLACK
6
CONTINUOUS
10
167.982
20
-134.489
11
167.887
21
-134.013
0
LINE
8
BLACK
6
CONTINUOUS
10
167.887
20
-134.013
11
167.792
21
-133.727
0
LINE
8
BLACK
6
CONTINUOUS
10
167.792
20
-133.727
11
167.696
21
-133.537
0
LINE
8
BLACK
6
CONTINUOUS
10
167.696
20
-133.537
11
167.506
21
-133.251
0
LINE
8
BLACK
6
CONTINUOUS
10
167.506
20
-133.251
11
167.411
21
-133.156
0
CIRCLE
8
BLACK
10
115.35
20
-137.167
40
0.5
0
LINE
8
BLACK
6
CONTINUOUS
10
119.506
20
-138.082
11
118.363
21
-138.082
0
LINE
8
BLACK
6
CONTINUOUS
10
118.934
20
-138.082
11
118.934
21
-136.082
0
LINE
8
BLACK
6
CONTINUOUS
10
118.934
20
-136.082
11
118.744
21
-136.367
0
LINE
8
BLACK
6
CONTINUOUS
10
118.744
20
-136.367
11
118.554
21
-136.558
0
LINE
8
BLACK
6
CONTINUOUS
10
118.554
20
-136.558
11
118.363
21
-136.653
0
LINE
8
BLACK
6
CONTINUOUS
10
120.363
20
-137.891
11
120.458
21
-137.986
0
LINE
8
BLACK
6
CONTINUOUS
10
120.458
20
-137.986
11
120.363
21
-138.082
0
LINE
8
BLACK
6
CONTINUOUS
10
120.363
20
-138.082
11
120.268
21
-137.986
0
LINE
8
BLACK
6
CONTINUOUS
10
120.268
20
-137.986
11
120.363
21
-137.891
0
LINE
8
BLACK
6
CONTINUOUS
10
120.363
20
-137.891
11
120.363
21
-138.082
0
LINE
8
BLACK
6
CONTINUOUS
10
121.696
20
-136.082
11
121.887
21
-136.082
0
LINE
8
BLACK
6
CONTINUOUS
10
121.887
20
-136.082
11
122.077
21
-136.177
0
LINE
8
BLACK
6
CONTINUOUS
10
122.077
20
-136.177
11
122.173
21
-136.272
0
LINE
8
BLACK
6
CONTINUOUS
10
122.173
20
-136.272
11
122.268
21
-136.463
0
LINE
8
BLACK
6
CONTINUOUS
10
122.268
20
-136.463
11
122.363
21
-136.843
0
LINE
8
BLACK
6
CONTINUOUS
10
122.363
20
-136.843
11
122.363
21
-137.32
0
LINE
8
BLACK
6
CONTINUOUS
10
122.363
20
-137.32
11
122.268
21
-137.701
0
LINE
8
BLACK
6
CONTINUOUS
10
122.268
20
-137.701
11
122.173
21
-137.891
0
LINE
8
BLACK
6
CONTINUOUS
10
122.173
20
-137.891
11
122.077
21
-137.986
0
LINE
8
BLACK
6
CONTINUOUS
10
122.077
20
-137.986
11
121.887
21
-138.082
0
LINE
8
BLACK
6
CONTINUOUS
10
121.887
20
-138.082
11
121.696
21
-138.082
0
LINE
8
BLACK
6
CONTINUOUS
10
121.696
20
-138.082
11
121.506
21
-137.986
0
LINE
8
BLACK
6
CONTINUOUS
10
121.506
20
-137.986
11
121.411
21
-137.891
0
LINE
8
BLACK
6
CONTINUOUS
10
121.411
20
-137.891
11
121.315
21
-137.701
0
LINE
8
BLACK
6
CONTINUOUS
10
121.315
20
-137.701
11
121.22
21
-137.32
0
LINE
8
BLACK
6
CONTINUOUS
10
121.22
20
-137.32
11
121.22
21
-136.843
0
LINE
8
BLACK
6
CONTINUOUS
10
121.22
20
-136.843
11
121.315
21
-136.463
0
LINE
8
BLACK
6
CONTINUOUS
10
121.315
20
-136.463
11
121.411
21
-136.272
0
LINE
8
BLACK
6
CONTINUOUS
10
121.411
20
-136.272
11
121.506
21
-136.177
0
LINE
8
BLACK
6
CONTINUOUS
10
121.506
20
-136.177
11
121.696
21
-136.082
0
LINE
8
BLACK
6
CONTINUOUS
10
123.601
20
-136.082
11
123.792
21
-136.082
0
LINE
8
BLACK
6
CONTINUOUS
10
123.792
20
-136.082
11
123.982
21
-136.177
0
LINE
8
BLACK
6
CONTINUOUS
10
123.982
20
-136.177
11
124.077
21
-136.272
0
LINE
8
BLACK
6
CONTINUOUS
10
124.077
20
-136.272
11
124.173
21
-136.463
0
LINE
8
BLACK
6
CONTINUOUS
10
124.173
20
-136.463
11
124.268
21
-136.843
0
LINE
8
BLACK
6
CONTINUOUS
10
124.268
20
-136.843
11
124.268
21
-137.32
0
LINE
8
BLACK
6
CONTINUOUS
10
124.268
20
-137.32
11
124.173
21
-137.701
0
LINE
8
BLACK
6
CONTINUOUS
10
124.173
20
-137.701
11
124.077
21
-137.891
0
LINE
8
BLACK
6
CONTINUOUS
10
124.077
20
-137.891
11
123.982
21
-137.986
0
LINE
8
BLACK
6
CONTINUOUS
10
123.982
20
-137.986
11
123.792
21
-138.082
0
LINE
8
BLACK
6
CONTINUOUS
10
123.792
20
-138.082
11
123.601
21
-138.082
0
LINE
8
BLACK
6
CONTINUOUS
10
123.601
20
-138.082
11
123.411
21
-137.986
0
LINE
8
BLACK
6
CONTINUOUS
10
123.411
20
-137.986
11
123.315
21
-137.891
0
LINE
8
BLACK
6
CONTINUOUS
10
123.315
20
-137.891
11
123.22
21
-137.701
0
LINE
8
BLACK
6
CONTINUOUS
10
123.22
20
-137.701
11
123.125
21
-137.32
0
LINE
8
BLACK
6
CONTINUOUS
10
123.125
20
-137.32
11
123.125
21
-136.843
0
LINE
8
BLACK
6
CONTINUOUS
10
123.125
20
-136.843
11
123.22
21
-136.463
0
LINE
8
BLACK
6
CONTINUOUS
10
123.22
20
-136.463
11
123.315
21
-136.272
0
LINE
8
BLACK
6
CONTINUOUS
10
123.315
20
-136.272
11
123.411
21
-136.177
0
LINE
8
BLACK
6
CONTINUOUS
10
123.411
20
-136.177
11
123.601
21
-136.082
0
LINE
8
BLACK
6
CONTINUOUS
10
125.506
20
-136.082
11
125.696
21
-136.082
0
LINE
8
BLACK
6
CONTINUOUS
10
125.696
20
-136.082
11
125.887
21
-136.177
0
LINE
8
BLACK
6
CONTINUOUS
10
125.887
20
-136.177
11
125.982
21
-136.272
0
LINE
8
BLACK
6
CONTINUOUS
10
125.982
20
-136.272
11
126.077
21
-136.463
0
LINE
8
BLACK
6
CONTINUOUS
10
126.077
20
-136.463
11
126.173
21
-136.843
0
LINE
8
BLACK
6
CONTINUOUS
10
126.173
20
-136.843
11
126.173
21
-137.32
0
LINE
8
BLACK
6
CONTINUOUS
10
126.173
20
-137.32
11
126.077
21
-137.701
0
LINE
8
BLACK
6
CONTINUOUS
10
126.077
20
-137.701
11
125.982
21
-137.891
0
LINE
8
BLACK
6
CONTINUOUS
10
125.982
20
-137.891
11
125.887
21
-137.986
0
LINE
8
BLACK
6
CONTINUOUS
10
125.887
20
-137.986
11
125.696
21
-138.082
0
LINE
8
BLACK
6
CONTINUOUS
10
125.696
20
-138.082
11
125.506
21
-138.082
0
LINE
8
BLACK
6
CONTINUOUS
10
125.506
20
-138.082
11
125.315
21
-137.986
0
LINE
8
BLACK
6
CONTINUOUS
10
125.315
20
-137.986
11
125.22
21
-137.891
0
LINE
8
BLACK
6
CONTINUOUS
10
125.22
20
-137.891
11
125.125
21
-137.701
0
LINE
8
BLACK
6
CONTINUOUS
10
125.125
20
-137.701
11
125.03
21
-137.32
0
LINE
8
BLACK
6
CONTINUOUS
10
125.03
20
-137.32
11
125.03
21
-136.843
0
LINE
8
BLACK
6
CONTINUOUS
10
125.03
20
-136.843
11
125.125
21
-136.463
0
LINE
8
BLACK
6
CONTINUOUS
10
125.125
20
-136.463
11
125.22
21
-136.272
0
LINE
8
BLACK
6
CONTINUOUS
10
125.22
20
-136.272
11
125.315
21
-136.177
0
LINE
8
BLACK
6
CONTINUOUS
10
125.315
20
-136.177
11
125.506
21
-136.082
0
LINE
8
BLACK
6
CONTINUOUS
10
127.03
20
-138.082
11
127.03
21
-136.748
0
LINE
8
BLACK
6
CONTINUOUS
10
127.03
20
-136.939
11
127.125
21
-136.843
0
LINE
8
BLACK
6
CONTINUOUS
10
127.125
20
-136.843
11
127.315
21
-136.748
0
LINE
8
BLACK
6
CONTINUOUS
10
127.315
20
-136.748
11
127.601
21
-136.748
0
LINE
8
BLACK
6
CONTINUOUS
10
127.601
20
-136.748
11
127.792
21
-136.843
0
LINE
8
BLACK
6
CONTINUOUS
10
127.792
20
-136.843
11
127.887
21
-137.034
0
LINE
8
BLACK
6
CONTINUOUS
10
127.887
20
-137.034
11
127.887
21
-138.082
0
LINE
8
BLACK
6
CONTINUOUS
10
127.887
20
-137.034
11
127.982
21
-136.843
0
LINE
8
BLACK
6
CONTINUOUS
10
127.982
20
-136.843
11
128.173
21
-136.748
0
LINE
8
BLACK
6
CONTINUOUS
10
128.173
20
-136.748
11
128.458
21
-136.748
0
LINE
8
BLACK
6
CONTINUOUS
10
128.458
20
-136.748
11
128.649
21
-136.843
0
LINE
8
BLACK
6
CONTINUOUS
10
128.649
20
-136.843
11
128.744
21
-137.034
0
LINE
8
BLACK
6
CONTINUOUS
10
128.744
20
-137.034
11
128.744
21
-138.082
0
LINE
8
BLACK
6
CONTINUOUS
10
129.696
20
-138.082
11
129.696
21
-136.748
0
LINE
8
BLACK
6
CONTINUOUS
10
129.696
20
-136.939
11
129.792
21
-136.843
0
LINE
8
BLACK
6
CONTINUOUS
10
129.792
20
-136.843
11
129.982
21
-136.748
0
LINE
8
BLACK
6
CONTINUOUS
10
129.982
20
-136.748
11
130.268
21
-136.748
0
LINE
8
BLACK
6
CONTINUOUS
10
130.268
20
-136.748
11
130.458
21
-136.843
0
LINE
8
BLACK
6
CONTINUOUS
10
130.458
20
-136.843
11
130.554
21
-137.034
0
LINE
8
BLACK
6
CONTINUOUS
10
130.554
20
-137.034
11
130.554
21
-138.082
0
LINE
8
BLACK
6
CONTINUOUS
10
130.554
20
-137.034
11
130.649
21
-136.843
0
LINE
8
BLACK
6
CONTINUOUS
10
130.649
20
-136.843
11
130.839
21
-136.748
0
LINE
8
BLACK
6
CONTINUOUS
10
130.839
20
-136.748
11
131.125
21
-136.748
0
LINE
8
BLACK
6
CONTINUOUS
10
131.125
20
-136.748
11
131.315
21
-136.843
0
LINE
8
BLACK
6
CONTINUOUS
10
131.315
20
-136.843
11
131.411
21
-137.034
0
LINE
8
BLACK
6
CONTINUOUS
10
131.411
20
-137.034
11
131.411
21
-138.082
0
LINE
8
BLACK
6
CONTINUOUS
10
135.315
20
-135.986
11
133.601
21
-138.558
0
LINE
8
BLACK
6
CONTINUOUS
10
137.887
20
-136.082
11
138.077
21
-136.082
0
LINE
8
BLACK
6
CONTINUOUS
10
138.077
20
-136.082
11
138.268
21
-136.177
0
LINE
8
BLACK
6
CONTINUOUS
10
138.268
20
-136.177
11
138.363
21
-136.272
0
LINE
8
BLACK
6
CONTINUOUS
10
138.363
20
-136.272
11
138.458
21
-136.463
0
LINE
8
BLACK
6
CONTINUOUS
10
138.458
20
-136.463
11
138.554
21
-136.843
0
LINE
8
BLACK
6
CONTINUOUS
10
138.554
20
-136.843
11
138.554
21
-137.32
0
LINE
8
BLACK
6
CONTINUOUS
10
138.554
20
-137.32
11
138.458
21
-137.701
0
LINE
8
BLACK
6
CONTINUOUS
10
138.458
20
-137.701
11
138.363
21
-137.891
0
LINE
8
BLACK
6
CONTINUOUS
10
138.363
20
-137.891
11
138.268
21
-137.986
0
LINE
8
BLACK
6
CONTINUOUS
10
138.268
20
-137.986
11
138.077
21
-138.082
0
LINE
8
BLACK
6
CONTINUOUS
10
138.077
20
-138.082
11
137.887
21
-138.082
0
LINE
8
BLACK
6
CONTINUOUS
10
137.887
20
-138.082
11
137.696
21
-137.986
0
LINE
8
BLACK
6
CONTINUOUS
10
137.696
20
-137.986
11
137.601
21
-137.891
0
LINE
8
BLACK
6
CONTINUOUS
10
137.601
20
-137.891
11
137.506
21
-137.701
0
LINE
8
BLACK
6
CONTINUOUS
10
137.506
20
-137.701
11
137.411
21
-137.32
0
LINE
8
BLACK
6
CONTINUOUS
10
137.411
20
-137.32
11
137.411
21
-136.843
0
LINE
8
BLACK
6
CONTINUOUS
10
137.411
20
-136.843
11
137.506
21
-136.463
0
LINE
8
BLACK
6
CONTINUOUS
10
137.506
20
-136.463
11
137.601
21
-136.272
0
LINE
8
BLACK
6
CONTINUOUS
10
137.601
20
-136.272
11
137.696
21
-136.177
0
LINE
8
BLACK
6
CONTINUOUS
10
137.696
20
-136.177
11
137.887
21
-136.082
0
LINE
8
BLACK
6
CONTINUOUS
10
139.411
20
-137.891
11
139.506
21
-137.986
0
LINE
8
BLACK
6
CONTINUOUS
10
139.506
20
-137.986
11
139.411
21
-138.082
0
LINE
8
BLACK
6
CONTINUOUS
10
139.411
20
-138.082
11
139.315
21
-137.986
0
LINE
8
BLACK
6
CONTINUOUS
10
139.315
20
-137.986
11
139.411
21
-137.891
0
LINE
8
BLACK
6
CONTINUOUS
10
139.411
20
-137.891
11
139.411
21
-138.082
0
LINE
8
BLACK
6
CONTINUOUS
10
140.744
20
-136.082
11
140.934
21
-136.082
0
LINE
8
BLACK
6
CONTINUOUS
10
140.934
20
-136.082
11
141.125
21
-136.177
0
LINE
8
BLACK
6
CONTINUOUS
10
141.125
20
-136.177
11
141.22
21
-136.272
0
LINE
8
BLACK
6
CONTINUOUS
10
141.22
20
-136.272
11
141.315
21
-136.463
0
LINE
8
BLACK
6
CONTINUOUS
10
141.315
20
-136.463
11
141.411
21
-136.843
0
LINE
8
BLACK
6
CONTINUOUS
10
141.411
20
-136.843
11
141.411
21
-137.32
0
LINE
8
BLACK
6
CONTINUOUS
10
141.411
20
-137.32
11
141.315
21
-137.701
0
LINE
8
BLACK
6
CONTINUOUS
10
141.315
20
-137.701
11
141.22
21
-137.891
0
LINE
8
BLACK
6
CONTINUOUS
10
141.22
20
-137.891
11
141.125
21
-137.986
0
LINE
8
BLACK
6
CONTINUOUS
10
141.125
20
-137.986
11
140.934
21
-138.082
0
LINE
8
BLACK
6
CONTINUOUS
10
140.934
20
-138.082
11
140.744
21
-138.082
0
LINE
8
BLACK
6
CONTINUOUS
10
140.744
20
-138.082
11
140.554
21
-137.986
0
LINE
8
BLACK
6
CONTINUOUS
10
140.554
20
-137.986
11
140.458
21
-137.891
0
LINE
8
BLACK
6
CONTINUOUS
10
140.458
20
-137.891
11
140.363
21
-137.701
0
LINE
8
BLACK
6
CONTINUOUS
10
140.363
20
-137.701
11
140.268
21
-137.32
0
LINE
8
BLACK
6
CONTINUOUS
10
140.268
20
-137.32
11
140.268
21
-136.843
0
LINE
8
BLACK
6
CONTINUOUS
10
140.268
20
-136.843
11
140.363
21
-136.463
0
LINE
8
BLACK
6
CONTINUOUS
10
140.363
20
-136.463
11
140.458
21
-136.272
0
LINE
8
BLACK
6
CONTINUOUS
10
140.458
20
-136.272
11
140.554
21
-136.177
0
LINE
8
BLACK
6
CONTINUOUS
10
140.554
20
-136.177
11
140.744
21
-136.082
0
LINE
8
BLACK
6
CONTINUOUS
10
142.077
20
-136.082
11
143.315
21
-136.082
0
LINE
8
BLACK
6
CONTINUOUS
10
143.315
20
-136.082
11
142.649
21
-136.843
0
LINE
8
BLACK
6
CONTINUOUS
10
142.649
20
-136.843
11
142.934
21
-136.843
0
LINE
8
BLACK
6
CONTINUOUS
10
142.934
20
-136.843
11
143.125
21
-136.939
0
LINE
8
BLACK
6
CONTINUOUS
10
143.125
20
-136.939
11
143.22
21
-137.034
0
LINE
8
BLACK
6
CONTINUOUS
10
143.22
20
-137.034
11
143.315
21
-137.224
0
LINE
8
BLACK
6
CONTINUOUS
10
143.315
20
-137.224
11
143.315
21
-137.701
0
LINE
8
BLACK
6
CONTINUOUS
10
143.315
20
-137.701
11
143.22
21
-137.891
0
LINE
8
BLACK
6
CONTINUOUS
10
143.22
20
-137.891
11
143.125
21
-137.986
0
LINE
8
BLACK
6
CONTINUOUS
10
143.125
20
-137.986
11
142.934
21
-138.082
0
LINE
8
BLACK
6
CONTINUOUS
10
142.934
20
-138.082
11
142.363
21
-138.082
0
LINE
8
BLACK
6
CONTINUOUS
10
142.363
20
-138.082
11
142.173
21
-137.986
0
LINE
8
BLACK
6
CONTINUOUS
10
142.173
20
-137.986
11
142.077
21
-137.891
0
LINE
8
BLACK
6
CONTINUOUS
10
144.268
20
-138.082
11
144.649
21
-138.082
0
LINE
8
BLACK
6
CONTINUOUS
10
144.649
20
-138.082
11
144.839
21
-137.986
0
LINE
8
BLACK
6
CONTINUOUS
10
144.839
20
-137.986
11
144.934
21
-137.891
0
LINE
8
BLACK
6
CONTINUOUS
10
144.934
20
-137.891
11
145.125
21
-137.605
0
LINE
8
BLACK
6
CONTINUOUS
10
145.125
20
-137.605
11
145.22
21
-137.224
0
LINE
8
BLACK
6
CONTINUOUS
10
145.22
20
-137.224
11
145.22
21
-136.463
0
LINE
8
BLACK
6
CONTINUOUS
10
145.22
20
-136.463
11
145.125
21
-136.272
0
LINE
8
BLACK
6
CONTINUOUS
10
145.125
20
-136.272
11
145.03
21
-136.177
0
LINE
8
BLACK
6
CONTINUOUS
10
145.03
20
-136.177
11
144.839
21
-136.082
0
LINE
8
BLACK
6
CONTINUOUS
10
144.839
20
-136.082
11
144.458
21
-136.082
0
LINE
8
BLACK
6
CONTINUOUS
10
144.458
20
-136.082
11
144.268
21
-136.177
0
LINE
8
BLACK
6
CONTINUOUS
10
144.268
20
-136.177
11
144.173
21
-136.272
0
LINE
8
BLACK
6
CONTINUOUS
10
144.173
20
-136.272
11
144.077
21
-136.463
0
LINE
8
BLACK
6
CONTINUOUS
10
144.077
20
-136.463
11
144.077
21
-136.939
0
LINE
8
BLACK
6
CONTINUOUS
10
144.077
20
-136.939
11
144.173
21
-137.129
0
LINE
8
BLACK
6
CONTINUOUS
10
144.173
20
-137.129
11
144.268
21
-137.224
0
LINE
8
BLACK
6
CONTINUOUS
10
144.268
20
-137.224
11
144.458
21
-137.32
0
LINE
8
BLACK
6
CONTINUOUS
10
144.458
20
-137.32
11
144.839
21
-137.32
0
LINE
8
BLACK
6
CONTINUOUS
10
144.839
20
-137.32
11
145.03
21
-137.224
0
LINE
8
BLACK
6
CONTINUOUS
10
145.03
20
-137.224
11
145.125
21
-137.129
0
LINE
8
BLACK
6
CONTINUOUS
10
145.125
20
-137.129
11
145.22
21
-136.939
0
LINE
8
BLACK
6
CONTINUOUS
10
146.934
20
-136.748
11
146.934
21
-138.082
0
LINE
8
BLACK
6
CONTINUOUS
10
146.458
20
-135.986
11
145.982
21
-137.415
0
LINE
8
BLACK
6
CONTINUOUS
10
145.982
20
-137.415
11
147.22
21
-137.415
0
LINE
8
BLACK
6
CONTINUOUS
10
147.887
20
-136.082
11
147.887
21
-136.463
0
LINE
8
BLACK
6
CONTINUOUS
10
148.649
20
-136.082
11
148.649
21
-136.463
0
LINE
8
BLACK
6
CONTINUOUS
10
151.601
20
-138.843
11
151.506
21
-138.748
0
LINE
8
BLACK
6
CONTINUOUS
10
151.506
20
-138.748
11
151.315
21
-138.463
0
LINE
8
BLACK
6
CONTINUOUS
10
151.315
20
-138.463
11
151.22
21
-138.272
0
LINE
8
BLACK
6
CONTINUOUS
10
151.22
20
-138.272
11
151.125
21
-137.986
0
LINE
8
BLACK
6
CONTINUOUS
10
151.125
20
-137.986
11
151.03
21
-137.51
0
LINE
8
BLACK
6
CONTINUOUS
10
151.03
20
-137.51
11
151.03
21
-137.129
0
LINE
8
BLACK
6
CONTINUOUS
10
151.03
20
-137.129
11
151.125
21
-136.653
0
LINE
8
BLACK
6
CONTINUOUS
10
151.125
20
-136.653
11
151.22
21
-136.367
0
LINE
8
BLACK
6
CONTINUOUS
10
151.22
20
-136.367
11
151.315
21
-136.177
0
LINE
8
BLACK
6
CONTINUOUS
10
151.315
20
-136.177
11
151.506
21
-135.891
0
LINE
8
BLACK
6
CONTINUOUS
10
151.506
20
-135.891
11
151.601
21
-135.796
0
LINE
8
BLACK
6
CONTINUOUS
10
152.268
20
-136.272
11
152.363
21
-136.177
0
LINE
8
BLACK
6
CONTINUOUS
10
152.363
20
-136.177
11
152.554
21
-136.082
0
LINE
8
BLACK
6
CONTINUOUS
10
152.554
20
-136.082
11
153.03
21
-136.082
0
LINE
8
BLACK
6
CONTINUOUS
10
153.03
20
-136.082
11
153.22
21
-136.177
0
LINE
8
BLACK
6
CONTINUOUS
10
153.22
20
-136.177
11
153.315
21
-136.272
0
LINE
8
BLACK
6
CONTINUOUS
10
153.315
20
-136.272
11
153.411
21
-136.463
0
LINE
8
BLACK
6
CONTINUOUS
10
153.411
20
-136.463
11
153.411
21
-136.653
0
LINE
8
BLACK
6
CONTINUOUS
10
153.411
20
-136.653
11
153.315
21
-136.939
0
LINE
8
BLACK
6
CONTINUOUS
10
153.315
20
-136.939
11
152.173
21
-138.082
0
LINE
8
BLACK
6
CONTINUOUS
10
152.173
20
-138.082
11
153.411
21
-138.082
0
LINE
8
BLACK
6
CONTINUOUS
10
155.125
20
-136.748
11
155.125
21
-138.082
0
LINE
8
BLACK
6
CONTINUOUS
10
154.649
20
-135.986
11
154.173
21
-137.415
0
LINE
8
BLACK
6
CONTINUOUS
10
154.173
20
-137.415
11
155.411
21
-137.415
0
LINE
8
BLACK
6
CONTINUOUS
10
157.696
20
-138.082
11
157.696
21
-136.082
0
LINE
8
BLACK
6
CONTINUOUS
10
158.554
20
-138.082
11
158.554
21
-137.034
0
LINE
8
BLACK
6
CONTINUOUS
10
158.554
20
-137.034
11
158.458
21
-136.843
0
LINE
8
BLACK
6
CONTINUOUS
10
158.458
20
-136.843
11
158.268
21
-136.748
0
LINE
8
BLACK
6
CONTINUOUS
10
158.268
20
-136.748
11
157.982
21
-136.748
0
LINE
8
BLACK
6
CONTINUOUS
10
157.982
20
-136.748
11
157.792
21
-136.843
0
LINE
8
BLACK
6
CONTINUOUS
10
157.792
20
-136.843
11
157.696
21
-136.939
0
LINE
8
BLACK
6
CONTINUOUS
10
159.792
20
-138.082
11
159.601
21
-137.986
0
LINE
8
BLACK
6
CONTINUOUS
10
159.601
20
-137.986
11
159.506
21
-137.891
0
LINE
8
BLACK
6
CONTINUOUS
10
159.506
20
-137.891
11
159.411
21
-137.701
0
LINE
8
BLACK
6
CONTINUOUS
10
159.411
20
-137.701
11
159.411
21
-137.129
0
LINE
8
BLACK
6
CONTINUOUS
10
159.411
20
-137.129
11
159.506
21
-136.939
0
LINE
8
BLACK
6
CONTINUOUS
10
159.506
20
-136.939
11
159.601
21
-136.843
0
LINE
8
BLACK
6
CONTINUOUS
10
159.601
20
-136.843
11
159.792
21
-136.748
0
LINE
8
BLACK
6
CONTINUOUS
10
159.792
20
-136.748
11
160.077
21
-136.748
0
LINE
8
BLACK
6
CONTINUOUS
10
160.077
20
-136.748
11
160.268
21
-136.843
0
LINE
8
BLACK
6
CONTINUOUS
10
160.268
20
-136.843
11
160.363
21
-136.939
0
LINE
8
BLACK
6
CONTINUOUS
10
160.363
20
-136.939
11
160.458
21
-137.129
0
LINE
8
BLACK
6
CONTINUOUS
10
160.458
20
-137.129
11
160.458
21
-137.701
0
LINE
8
BLACK
6
CONTINUOUS
10
160.458
20
-137.701
11
160.363
21
-137.891
0
LINE
8
BLACK
6
CONTINUOUS
10
160.363
20
-137.891
11
160.268
21
-137.986
0
LINE
8
BLACK
6
CONTINUOUS
10
160.268
20
-137.986
11
160.077
21
-138.082
0
LINE
8
BLACK
6
CONTINUOUS
10
160.077
20
-138.082
11
159.792
21
-138.082
0
LINE
8
BLACK
6
CONTINUOUS
10
161.601
20
-138.082
11
161.411
21
-137.986
0
LINE
8
BLACK
6
CONTINUOUS
10
161.411
20
-137.986
11
161.315
21
-137.796
0
LINE
8
BLACK
6
CONTINUOUS
10
161.315
20
-137.796
11
161.315
21
-136.082
0
LINE
8
BLACK
6
CONTINUOUS
10
163.125
20
-137.986
11
162.934
21
-138.082
0
LINE
8
BLACK
6
CONTINUOUS
10
162.934
20
-138.082
11
162.554
21
-138.082
0
LINE
8
BLACK
6
CONTINUOUS
10
162.554
20
-138.082
11
162.363
21
-137.986
0
LINE
8
BLACK
6
CONTINUOUS
10
162.363
20
-137.986
11
162.268
21
-137.796
0
LINE
8
BLACK
6
CONTINUOUS
10
162.268
20
-137.796
11
162.268
21
-137.034
0
LINE
8
BLACK
6
CONTINUOUS
10
162.268
20
-137.034
11
162.363
21
-136.843
0
LINE
8
BLACK
6
CONTINUOUS
10
162.363
20
-136.843
11
162.554
21
-136.748
0
LINE
8
BLACK
6
CONTINUOUS
10
162.554
20
-136.748
11
162.934
21
-136.748
0
LINE
8
BLACK
6
CONTINUOUS
10
162.934
20
-136.748
11
163.125
21
-136.843
0
LINE
8
BLACK
6
CONTINUOUS
10
163.125
20
-136.843
11
163.22
21
-137.034
0
LINE
8
BLACK
6
CONTINUOUS
10
163.22
20
-137.034
11
163.22
21
-137.224
0
LINE
8
BLACK
6
CONTINUOUS
10
163.22
20
-137.224
11
162.268
21
-137.415
0
LINE
8
BLACK
6
CONTINUOUS
10
163.982
20
-137.986
11
164.173
21
-138.082
0
LINE
8
BLACK
6
CONTINUOUS
10
164.173
20
-138.082
11
164.554
21
-138.082
0
LINE
8
BLACK
6
CONTINUOUS
10
164.554
20
-138.082
11
164.744
21
-137.986
0
LINE
8
BLACK
6
CONTINUOUS
10
164.744
20
-137.986
11
164.839
21
-137.796
0
LINE
8
BLACK
6
CONTINUOUS
10
164.839
20
-137.796
11
164.839
21
-137.701
0
LINE
8
BLACK
6
CONTINUOUS
10
164.839
20
-137.701
11
164.744
21
-137.51
0
LINE
8
BLACK
6
CONTINUOUS
10
164.744
20
-137.51
11
164.554
21
-137.415
0
LINE
8
BLACK
6
CONTINUOUS
10
164.554
20
-137.415
11
164.268
21
-137.415
0
LINE
8
BLACK
6
CONTINUOUS
10
164.268
20
-137.415
11
164.077
21
-137.32
0
LINE
8
BLACK
6
CONTINUOUS
10
164.077
20
-137.32
11
163.982
21
-137.129
0
LINE
8
BLACK
6
CONTINUOUS
10
163.982
20
-137.129
11
163.982
21
-137.034
0
LINE
8
BLACK
6
CONTINUOUS
10
163.982
20
-137.034
11
164.077
21
-136.843
0
LINE
8
BLACK
6
CONTINUOUS
10
164.077
20
-136.843
11
164.268
21
-136.748
0
LINE
8
BLACK
6
CONTINUOUS
10
164.268
20
-136.748
11
164.554
21
-136.748
0
LINE
8
BLACK
6
CONTINUOUS
10
164.554
20
-136.748
11
164.744
21
-136.843
0
LINE
8
BLACK
6
CONTINUOUS
10
165.506
20
-138.843
11
165.601
21
-138.748
0
LINE
8
BLACK
6
CONTINUOUS
10
165.601
20
-138.748
11
165.792
21
-138.463
0
LINE
8
BLACK
6
CONTINUOUS
10
165.792
20
-138.463
11
165.887
21
-138.272
0
LINE
8
BLACK
6
CONTINUOUS
10
165.887
20
-138.272
11
165.982
21
-137.986
0
LINE
8
BLACK
6
CONTINUOUS
10
165.982
20
-137.986
11
166.077
21
-137.51
0
LINE
8
BLACK
6
CONTINUOUS
10
166.077
20
-137.51
11
166.077
21
-137.129
0
LINE
8
BLACK
6
CONTINUOUS
10
166.077
20
-137.129
11
165.982
21
-136.653
0
LINE
8
BLACK
6
CONTINUOUS
10
165.982
20
-136.653
11
165.887
21
-136.367
0
LINE
8
BLACK
6
CONTINUOUS
10
165.887
20
-136.367
11
165.792
21
-136.177
0
LINE
8
BLACK
6
CONTINUOUS
10
165.792
20
-136.177
11
165.601
21
-135.891
0
LINE
8
BLACK
6
CONTINUOUS
10
165.601
20
-135.891
11
165.506
21
-135.796
0
LINE
8
BLACK
6
CONTINUOUS
10
115.25
20
-139.207
11
115.25
21
-140.407
0
LINE
8
BLACK
6
CONTINUOUS
10
114.65
20
-139.807
11
115.85
21
-139.807
0
LINE
8
BLACK
6
CONTINUOUS
10
119.506
20
-140.722
11
118.363
21
-140.722
0
LINE
8
BLACK
6
CONTINUOUS
10
118.934
20
-140.722
11
118.934
21
-138.722
0
LINE
8
BLACK
6
CONTINUOUS
10
118.934
20
-138.722
11
118.744
21
-139.007
0
LINE
8
BLACK
6
CONTINUOUS
10
118.744
20
-139.007
11
118.554
21
-139.198
0
LINE
8
BLACK
6
CONTINUOUS
10
118.554
20
-139.198
11
118.363
21
-139.293
0
LINE
8
BLACK
6
CONTINUOUS
10
120.363
20
-140.531
11
120.458
21
-140.626
0
LINE
8
BLACK
6
CONTINUOUS
10
120.458
20
-140.626
11
120.363
21
-140.722
0
LINE
8
BLACK
6
CONTINUOUS
10
120.363
20
-140.722
11
120.268
21
-140.626
0
LINE
8
BLACK
6
CONTINUOUS
10
120.268
20
-140.626
11
120.363
21
-140.531
0
LINE
8
BLACK
6
CONTINUOUS
10
120.363
20
-140.531
11
120.363
21
-140.722
0
LINE
8
BLACK
6
CONTINUOUS
10
121.22
20
-138.912
11
121.315
21
-138.817
0
LINE
8
BLACK
6
CONTINUOUS
10
121.315
20
-138.817
11
121.506
21
-138.722
0
LINE
8
BLACK
6
CONTINUOUS
10
121.506
20
-138.722
11
121.982
21
-138.722
0
LINE
8
BLACK
6
CONTINUOUS
10
121.982
20
-138.722
11
122.173
21
-138.817
0
LINE
8
BLACK
6
CONTINUOUS
10
122.173
20
-138.817
11
122.268
21
-138.912
0
LINE
8
BLACK
6
CONTINUOUS
10
122.268
20
-138.912
11
122.363
21
-139.103
0
LINE
8
BLACK
6
CONTINUOUS
10
122.363
20
-139.103
11
122.363
21
-139.293
0
LINE
8
BLACK
6
CONTINUOUS
10
122.363
20
-139.293
11
122.268
21
-139.579
0
LINE
8
BLACK
6
CONTINUOUS
10
122.268
20
-139.579
11
121.125
21
-140.722
0
LINE
8
BLACK
6
CONTINUOUS
10
121.125
20
-140.722
11
122.363
21
-140.722
0
LINE
8
BLACK
6
CONTINUOUS
10
123.601
20
-138.722
11
123.792
21
-138.722
0
LINE
8
BLACK
6
CONTINUOUS
10
123.792
20
-138.722
11
123.982
21
-138.817
0
LINE
8
BLACK
6
CONTINUOUS
10
123.982
20
-138.817
11
124.077
21
-138.912
0
LINE
8
BLACK
6
CONTINUOUS
10
124.077
20
-138.912
11
124.173
21
-139.103
0
LINE
8
BLACK
6
CONTINUOUS
10
124.173
20
-139.103
11
124.268
21
-139.483
0
LINE
8
BLACK
6
CONTINUOUS
10
124.268
20
-139.483
11
124.268
21
-139.96
0
LINE
8
BLACK
6
CONTINUOUS
10
124.268
20
-139.96
11
124.173
21
-140.341
0
LINE
8
BLACK
6
CONTINUOUS
10
124.173
20
-140.341
11
124.077
21
-140.531
0
LINE
8
BLACK
6
CONTINUOUS
10
124.077
20
-140.531
11
123.982
21
-140.626
0
LINE
8
BLACK
6
CONTINUOUS
10
123.982
20
-140.626
11
123.792
21
-140.722
0
LINE
8
BLACK
6
CONTINUOUS
10
123.792
20
-140.722
11
123.601
21
-140.722
0
LINE
8
BLACK
6
CONTINUOUS
10
123.601
20
-140.722
11
123.411
21
-140.626
0
LINE
8
BLACK
6
CONTINUOUS
10
123.411
20
-140.626
11
123.315
21
-140.531
0
LINE
8
BLACK
6
CONTINUOUS
10
123.315
20
-140.531
11
123.22
21
-140.341
0
LINE
8
BLACK
6
CONTINUOUS
10
123.22
20
-140.341
11
123.125
21
-139.96
0
LINE
8
BLACK
6
CONTINUOUS
10
123.125
20
-139.96
11
123.125
21
-139.483
0
LINE
8
BLACK
6
CONTINUOUS
10
123.125
20
-139.483
11
123.22
21
-139.103
0
LINE
8
BLACK
6
CONTINUOUS
10
123.22
20
-139.103
11
123.315
21
-138.912
0
LINE
8
BLACK
6
CONTINUOUS
10
123.315
20
-138.912
11
123.411
21
-138.817
0
LINE
8
BLACK
6
CONTINUOUS
10
123.411
20
-138.817
11
123.601
21
-138.722
0
LINE
8
BLACK
6
CONTINUOUS
10
125.506
20
-138.722
11
125.696
21
-138.722
0
LINE
8
BLACK
6
CONTINUOUS
10
125.696
20
-138.722
11
125.887
21
-138.817
0
LINE
8
BLACK
6
CONTINUOUS
10
125.887
20
-138.817
11
125.982
21
-138.912
0
LINE
8
BLACK
6
CONTINUOUS
10
125.982
20
-138.912
11
126.077
21
-139.103
0
LINE
8
BLACK
6
CONTINUOUS
10
126.077
20
-139.103
11
126.173
21
-139.483
0
LINE
8
BLACK
6
CONTINUOUS
10
126.173
20
-139.483
11
126.173
21
-139.96
0
LINE
8
BLACK
6
CONTINUOUS
10
126.173
20
-139.96
11
126.077
21
-140.341
0
LINE
8
BLACK
6
CONTINUOUS
10
126.077
20
-140.341
11
125.982
21
-140.531
0
LINE
8
BLACK
6
CONTINUOUS
10
125.982
20
-140.531
11
125.887
21
-140.626
0
LINE
8
BLACK
6
CONTINUOUS
10
125.887
20
-140.626
11
125.696
21
-140.722
0
LINE
8
BLACK
6
CONTINUOUS
10
125.696
20
-140.722
11
125.506
21
-140.722
0
LINE
8
BLACK
6
CONTINUOUS
10
125.506
20
-140.722
11
125.315
21
-140.626
0
LINE
8
BLACK
6
CONTINUOUS
10
125.315
20
-140.626
11
125.22
21
-140.531
0
LINE
8
BLACK
6
CONTINUOUS
10
125.22
20
-140.531
11
125.125
21
-140.341
0
LINE
8
BLACK
6
CONTINUOUS
10
125.125
20
-140.341
11
125.03
21
-139.96
0
LINE
8
BLACK
6
CONTINUOUS
10
125.03
20
-139.96
11
125.03
21
-139.483
0
LINE
8
BLACK
6
CONTINUOUS
10
125.03
20
-139.483
11
125.125
21
-139.103
0
LINE
8
BLACK
6
CONTINUOUS
10
125.125
20
-139.103
11
125.22
21
-138.912
0
LINE
8
BLACK
6
CONTINUOUS
10
125.22
20
-138.912
11
125.315
21
-138.817
0
LINE
8
BLACK
6
CONTINUOUS
10
125.315
20
-138.817
11
125.506
21
-138.722
0
LINE
8
BLACK
6
CONTINUOUS
10
127.03
20
-140.722
11
127.03
21
-139.388
0
LINE
8
BLACK
6
CONTINUOUS
10
127.03
20
-139.579
11
127.125
21
-139.483
0
LINE
8
BLACK
6
CONTINUOUS
10
127.125
20
-139.483
11
127.315
21
-139.388
0
LINE
8
BLACK
6
CONTINUOUS
10
127.315
20
-139.388
11
127.601
21
-139.388
0
LINE
8
BLACK
6
CONTINUOUS
10
127.601
20
-139.388
11
127.792
21
-139.483
0
LINE
8
BLACK
6
CONTINUOUS
10
127.792
20
-139.483
11
127.887
21
-139.674
0
LINE
8
BLACK
6
CONTINUOUS
10
127.887
20
-139.674
11
127.887
21
-140.722
0
LINE
8
BLACK
6
CONTINUOUS
10
127.887
20
-139.674
11
127.982
21
-139.483
0
LINE
8
BLACK
6
CONTINUOUS
10
127.982
20
-139.483
11
128.173
21
-139.388
0
LINE
8
BLACK
6
CONTINUOUS
10
128.173
20
-139.388
11
128.458
21
-139.388
0
LINE
8
BLACK
6
CONTINUOUS
10
128.458
20
-139.388
11
128.649
21
-139.483
0
LINE
8
BLACK
6
CONTINUOUS
10
128.649
20
-139.483
11
128.744
21
-139.674
0
LINE
8
BLACK
6
CONTINUOUS
10
128.744
20
-139.674
11
128.744
21
-140.722
0
LINE
8
BLACK
6
CONTINUOUS
10
129.696
20
-140.722
11
129.696
21
-139.388
0
LINE
8
BLACK
6
CONTINUOUS
10
129.696
20
-139.579
11
129.792
21
-139.483
0
LINE
8
BLACK
6
CONTINUOUS
10
129.792
20
-139.483
11
129.982
21
-139.388
0
LINE
8
BLACK
6
CONTINUOUS
10
129.982
20
-139.388
11
130.268
21
-139.388
0
LINE
8
BLACK
6
CONTINUOUS
10
130.268
20
-139.388
11
130.458
21
-139.483
0
LINE
8
BLACK
6
CONTINUOUS
10
130.458
20
-139.483
11
130.554
21
-139.674
0
LINE
8
BLACK
6
CONTINUOUS
10
130.554
20
-139.674
11
130.554
21
-140.722
0
LINE
8
BLACK
6
CONTINUOUS
10
130.554
20
-139.674
11
130.649
21
-139.483
0
LINE
8
BLACK
6
CONTINUOUS
10
130.649
20
-139.483
11
130.839
21
-139.388
0
LINE
8
BLACK
6
CONTINUOUS
10
130.839
20
-139.388
11
131.125
21
-139.388
0
LINE
8
BLACK
6
CONTINUOUS
10
131.125
20
-139.388
11
131.315
21
-139.483
0
LINE
8
BLACK
6
CONTINUOUS
10
131.315
20
-139.483
11
131.411
21
-139.674
0
LINE
8
BLACK
6
CONTINUOUS
10
131.411
20
-139.674
11
131.411
21
-140.722
0
LINE
8
BLACK
6
CONTINUOUS
10
135.315
20
-138.626
11
133.601
21
-141.198
0
LINE
8
BLACK
6
CONTINUOUS
10
137.887
20
-138.722
11
138.077
21
-138.722
0
LINE
8
BLACK
6
CONTINUOUS
10
138.077
20
-138.722
11
138.268
21
-138.817
0
LINE
8
BLACK
6
CONTINUOUS
10
138.268
20
-138.817
11
138.363
21
-138.912
0
LINE
8
BLACK
6
CONTINUOUS
10
138.363
20
-138.912
11
138.458
21
-139.103
0
LINE
8
BLACK
6
CONTINUOUS
10
138.458
20
-139.103
11
138.554
21
-139.483
0
LINE
8
BLACK
6
CONTINUOUS
10
138.554
20
-139.483
11
138.554
21
-139.96
0
LINE
8
BLACK
6
CONTINUOUS
10
138.554
20
-139.96
11
138.458
21
-140.341
0
LINE
8
BLACK
6
CONTINUOUS
10
138.458
20
-140.341
11
138.363
21
-140.531
0
LINE
8
BLACK
6
CONTINUOUS
10
138.363
20
-140.531
11
138.268
21
-140.626
0
LINE
8
BLACK
6
CONTINUOUS
10
138.268
20
-140.626
11
138.077
21
-140.722
0
LINE
8
BLACK
6
CONTINUOUS
10
138.077
20
-140.722
11
137.887
21
-140.722
0
LINE
8
BLACK
6
CONTINUOUS
10
137.887
20
-140.722
11
137.696
21
-140.626
0
LINE
8
BLACK
6
CONTINUOUS
10
137.696
20
-140.626
11
137.601
21
-140.531
0
LINE
8
BLACK
6
CONTINUOUS
10
137.601
20
-140.531
11
137.506
21
-140.341
0
LINE
8
BLACK
6
CONTINUOUS
10
137.506
20
-140.341
11
137.411
21
-139.96
0
LINE
8
BLACK
6
CONTINUOUS
10
137.411
20
-139.96
11
137.411
21
-139.483
0
LINE
8
BLACK
6
CONTINUOUS
10
137.411
20
-139.483
11
137.506
21
-139.103
0
LINE
8
BLACK
6
CONTINUOUS
10
137.506
20
-139.103
11
137.601
21
-138.912
0
LINE
8
BLACK
6
CONTINUOUS
10
137.601
20
-138.912
11
137.696
21
-138.817
0
LINE
8
BLACK
6
CONTINUOUS
10
137.696
20
-138.817
11
137.887
21
-138.722
0
LINE
8
BLACK
6
CONTINUOUS
10
139.411
20
-140.531
11
139.506
21
-140.626
0
LINE
8
BLACK
6
CONTINUOUS
10
139.506
20
-140.626
11
139.411
21
-140.722
0
LINE
8
BLACK
6
CONTINUOUS
10
139.411
20
-140.722
11
139.315
21
-140.626
0
LINE
8
BLACK
6
CONTINUOUS
10
139.315
20
-140.626
11
139.411
21
-140.531
0
LINE
8
BLACK
6
CONTINUOUS
10
139.411
20
-140.531
11
139.411
21
-140.722
0
LINE
8
BLACK
6
CONTINUOUS
10
140.744
20
-138.722
11
140.934
21
-138.722
0
LINE
8
BLACK
6
CONTINUOUS
10
140.934
20
-138.722
11
141.125
21
-138.817
0
LINE
8
BLACK
6
CONTINUOUS
10
141.125
20
-138.817
11
141.22
21
-138.912
0
LINE
8
BLACK
6
CONTINUOUS
10
141.22
20
-138.912
11
141.315
21
-139.103
0
LINE
8
BLACK
6
CONTINUOUS
10
141.315
20
-139.103
11
141.411
21
-139.483
0
LINE
8
BLACK
6
CONTINUOUS
10
141.411
20
-139.483
11
141.411
21
-139.96
0
LINE
8
BLACK
6
CONTINUOUS
10
141.411
20
-139.96
11
141.315
21
-140.341
0
LINE
8
BLACK
6
CONTINUOUS
10
141.315
20
-140.341
11
141.22
21
-140.531
0
LINE
8
BLACK
6
CONTINUOUS
10
141.22
20
-140.531
11
141.125
21
-140.626
0
LINE
8
BLACK
6
CONTINUOUS
10
141.125
20
-140.626
11
140.934
21
-140.722
0
LINE
8
BLACK
6
CONTINUOUS
10
140.934
20
-140.722
11
140.744
21
-140.722
0
LINE
8
BLACK
6
CONTINUOUS
10
140.744
20
-140.722
11
140.554
21
-140.626
0
LINE
8
BLACK
6
CONTINUOUS
10
140.554
20
-140.626
11
140.458
21
-140.531
0
LINE
8
BLACK
6
CONTINUOUS
10
140.458
20
-140.531
11
140.363
21
-140.341
0
LINE
8
BLACK
6
CONTINUOUS
10
140.363
20
-140.341
11
140.268
21
-139.96
0
LINE
8
BLACK
6
CONTINUOUS
10
140.268
20
-139.96
11
140.268
21
-139.483
0
LINE
8
BLACK
6
CONTINUOUS
10
140.268
20
-139.483
11
140.363
21
-139.103
0
LINE
8
BLACK
6
CONTINUOUS
10
140.363
20
-139.103
11
140.458
21
-138.912
0
LINE
8
BLACK
6
CONTINUOUS
10
140.458
20
-138.912
11
140.554
21
-138.817
0
LINE
8
BLACK
6
CONTINUOUS
10
140.554
20
-138.817
11
140.744
21
-138.722
0
LINE
8
BLACK
6
CONTINUOUS
10
143.125
20
-139.388
11
143.125
21
-140.722
0
LINE
8
BLACK
6
CONTINUOUS
10
142.649
20
-138.626
11
142.173
21
-140.055
0
LINE
8
BLACK
6
CONTINUOUS
10
142.173
20
-140.055
11
143.411
21
-140.055
0
LINE
8
BLACK
6
CONTINUOUS
10
143.982
20
-138.722
11
145.315
21
-138.722
0
LINE
8
BLACK
6
CONTINUOUS
10
145.315
20
-138.722
11
144.458
21
-140.722
0
LINE
8
BLACK
6
CONTINUOUS
10
145.982
20
-138.912
11
146.077
21
-138.817
0
LINE
8
BLACK
6
CONTINUOUS
10
146.077
20
-138.817
11
146.268
21
-138.722
0
LINE
8
BLACK
6
CONTINUOUS
10
146.268
20
-138.722
11
146.744
21
-138.722
0
LINE
8
BLACK
6
CONTINUOUS
10
146.744
20
-138.722
11
146.934
21
-138.817
0
LINE
8
BLACK
6
CONTINUOUS
10
146.934
20
-138.817
11
147.03
21
-138.912
0
LINE
8
BLACK
6
CONTINUOUS
10
147.03
20
-138.912
11
147.125
21
-139.103
0
LINE
8
BLACK
6
CONTINUOUS
10
147.125
20
-139.103
11
147.125
21
-139.293
0
LINE
8
BLACK
6
CONTINUOUS
10
147.125
20
-139.293
11
147.03
21
-139.579
0
LINE
8
BLACK
6
CONTINUOUS
10
147.03
20
-139.579
11
145.887
21
-140.722
0
LINE
8
BLACK
6
CONTINUOUS
10
145.887
20
-140.722
11
147.125
21
-140.722
0
LINE
8
BLACK
6
CONTINUOUS
10
147.887
20
-138.722
11
147.887
21
-139.103
0
LINE
8
BLACK
6
CONTINUOUS
10
148.649
20
-138.722
11
148.649
21
-139.103
0
LINE
8
BLACK
6
CONTINUOUS
10
151.601
20
-141.483
11
151.506
21
-141.388
0
LINE
8
BLACK
6
CONTINUOUS
10
151.506
20
-141.388
11
151.315
21
-141.103
0
LINE
8
BLACK
6
CONTINUOUS
10
151.315
20
-141.103
11
151.22
21
-140.912
0
LINE
8
BLACK
6
CONTINUOUS
10
151.22
20
-140.912
11
151.125
21
-140.626
0
LINE
8
BLACK
6
CONTINUOUS
10
151.125
20
-140.626
11
151.03
21
-140.15
0
LINE
8
BLACK
6
CONTINUOUS
10
151.03
20
-140.15
11
151.03
21
-139.769
0
LINE
8
BLACK
6
CONTINUOUS
10
151.03
20
-139.769
11
151.125
21
-139.293
0
LINE
8
BLACK
6
CONTINUOUS
10
151.125
20
-139.293
11
151.22
21
-139.007
0
LINE
8
BLACK
6
CONTINUOUS
10
151.22
20
-139.007
11
151.315
21
-138.817
0
LINE
8
BLACK
6
CONTINUOUS
10
151.315
20
-138.817
11
151.506
21
-138.531
0
LINE
8
BLACK
6
CONTINUOUS
10
151.506
20
-138.531
11
151.601
21
-138.436
0
LINE
8
BLACK
6
CONTINUOUS
10
152.173
20
-138.722
11
153.411
21
-138.722
0
LINE
8
BLACK
6
CONTINUOUS
10
153.411
20
-138.722
11
152.744
21
-139.483
0
LINE
8
BLACK
6
CONTINUOUS
10
152.744
20
-139.483
11
153.03
21
-139.483
0
LINE
8
BLACK
6
CONTINUOUS
10
153.03
20
-139.483
11
153.22
21
-139.579
0
LINE
8
BLACK
6
CONTINUOUS
10
153.22
20
-139.579
11
153.315
21
-139.674
0
LINE
8
BLACK
6
CONTINUOUS
10
153.315
20
-139.674
11
153.411
21
-139.864
0
LINE
8
BLACK
6
CONTINUOUS
10
153.411
20
-139.864
11
153.411
21
-140.341
0
LINE
8
BLACK
6
CONTINUOUS
10
153.411
20
-140.341
11
153.315
21
-140.531
0
LINE
8
BLACK
6
CONTINUOUS
10
153.315
20
-140.531
11
153.22
21
-140.626
0
LINE
8
BLACK
6
CONTINUOUS
10
153.22
20
-140.626
11
153.03
21
-140.722
0
LINE
8
BLACK
6
CONTINUOUS
10
153.03
20
-140.722
11
152.458
21
-140.722
0
LINE
8
BLACK
6
CONTINUOUS
10
152.458
20
-140.722
11
152.268
21
-140.626
0
LINE
8
BLACK
6
CONTINUOUS
10
152.268
20
-140.626
11
152.173
21
-140.531
0
LINE
8
BLACK
6
CONTINUOUS
10
155.792
20
-140.722
11
155.792
21
-138.722
0
LINE
8
BLACK
6
CONTINUOUS
10
156.649
20
-140.722
11
156.649
21
-139.674
0
LINE
8
BLACK
6
CONTINUOUS
10
156.649
20
-139.674
11
156.554
21
-139.483
0
LINE
8
BLACK
6
CONTINUOUS
10
156.554
20
-139.483
11
156.363
21
-139.388
0
LINE
8
BLACK
6
CONTINUOUS
10
156.363
20
-139.388
11
156.077
21
-139.388
0
LINE
8
BLACK
6
CONTINUOUS
10
156.077
20
-139.388
11
155.887
21
-139.483
0
LINE
8
BLACK
6
CONTINUOUS
10
155.887
20
-139.483
11
155.792
21
-139.579
0
LINE
8
BLACK
6
CONTINUOUS
10
157.887
20
-140.722
11
157.696
21
-140.626
0
LINE
8
BLACK
6
CONTINUOUS
10
157.696
20
-140.626
11
157.601
21
-140.531
0
LINE
8
BLACK
6
CONTINUOUS
10
157.601
20
-140.531
11
157.506
21
-140.341
0
LINE
8
BLACK
6
CONTINUOUS
10
157.506
20
-140.341
11
157.506
21
-139.769
0
LINE
8
BLACK
6
CONTINUOUS
10
157.506
20
-139.769
11
157.601
21
-139.579
0
LINE
8
BLACK
6
CONTINUOUS
10
157.601
20
-139.579
11
157.696
21
-139.483
0
LINE
8
BLACK
6
CONTINUOUS
10
157.696
20
-139.483
11
157.887
21
-139.388
0
LINE
8
BLACK
6
CONTINUOUS
10
157.887
20
-139.388
11
158.173
21
-139.388
0
LINE
8
BLACK
6
CONTINUOUS
10
158.173
20
-139.388
11
158.363
21
-139.483
0
LINE
8
BLACK
6
CONTINUOUS
10
158.363
20
-139.483
11
158.458
21
-139.579
0
LINE
8
BLACK
6
CONTINUOUS
10
158.458
20
-139.579
11
158.554
21
-139.769
0
LINE
8
BLACK
6
CONTINUOUS
10
158.554
20
-139.769
11
158.554
21
-140.341
0
LINE
8
BLACK
6
CONTINUOUS
10
158.554
20
-140.341
11
158.458
21
-140.531
0
LINE
8
BLACK
6
CONTINUOUS
10
158.458
20
-140.531
11
158.363
21
-140.626
0
LINE
8
BLACK
6
CONTINUOUS
10
158.363
20
-140.626
11
158.173
21
-140.722
0
LINE
8
BLACK
6
CONTINUOUS
10
158.173
20
-140.722
11
157.887
21
-140.722
0
LINE
8
BLACK
6
CONTINUOUS
10
159.696
20
-140.722
11
159.506
21
-140.626
0
LINE
8
BLACK
6
CONTINUOUS
10
159.506
20
-140.626
11
159.411
21
-140.436
0
LINE
8
BLACK
6
CONTINUOUS
10
159.411
20
-140.436
11
159.411
21
-138.722
0
LINE
8
BLACK
6
CONTINUOUS
10
161.22
20
-140.626
11
161.03
21
-140.722
0
LINE
8
BLACK
6
CONTINUOUS
10
161.03
20
-140.722
11
160.649
21
-140.722
0
LINE
8
BLACK
6
CONTINUOUS
10
160.649
20
-140.722
11
160.458
21
-140.626
0
LINE
8
BLACK
6
CONTINUOUS
10
160.458
20
-140.626
11
160.363
21
-140.436
0
LINE
8
BLACK
6
CONTINUOUS
10
160.363
20
-140.436
11
160.363
21
-139.674
0
LINE
8
BLACK
6
CONTINUOUS
10
160.363
20
-139.674
11
160.458
21
-139.483
0
LINE
8
BLACK
6
CONTINUOUS
10
160.458
20
-139.483
11
160.649
21
-139.388
0
LINE
8
BLACK
6
CONTINUOUS
10
160.649
20
-139.388
11
161.03
21
-139.388
0
LINE
8
BLACK
6
CONTINUOUS
10
161.03
20
-139.388
11
161.22
21
-139.483
0
LINE
8
BLACK
6
CONTINUOUS
10
161.22
20
-139.483
11
161.315
21
-139.674
0
LINE
8
BLACK
6
CONTINUOUS
10
161.315
20
-139.674
11
161.315
21
-139.864
0
LINE
8
BLACK
6
CONTINUOUS
10
161.315
20
-139.864
11
160.363
21
-140.055
0
LINE
8
BLACK
6
CONTINUOUS
10
162.077
20
-140.626
11
162.268
21
-140.722
0
LINE
8
BLACK
6
CONTINUOUS
10
162.268
20
-140.722
11
162.649
21
-140.722
0
LINE
8
BLACK
6
CONTINUOUS
10
162.649
20
-140.722
11
162.839
21
-140.626
0
LINE
8
BLACK
6
CONTINUOUS
10
162.839
20
-140.626
11
162.934
21
-140.436
0
LINE
8
BLACK
6
CONTINUOUS
10
162.934
20
-140.436
11
162.934
21
-140.341
0
LINE
8
BLACK
6
CONTINUOUS
10
162.934
20
-140.341
11
162.839
21
-140.15
0
LINE
8
BLACK
6
CONTINUOUS
10
162.839
20
-140.15
11
162.649
21
-140.055
0
LINE
8
BLACK
6
CONTINUOUS
10
162.649
20
-140.055
11
162.363
21
-140.055
0
LINE
8
BLACK
6
CONTINUOUS
10
162.363
20
-140.055
11
162.173
21
-139.96
0
LINE
8
BLACK
6
CONTINUOUS
10
162.173
20
-139.96
11
162.077
21
-139.769
0
LINE
8
BLACK
6
CONTINUOUS
10
162.077
20
-139.769
11
162.077
21
-139.674
0
LINE
8
BLACK
6
CONTINUOUS
10
162.077
20
-139.674
11
162.173
21
-139.483
0
LINE
8
BLACK
6
CONTINUOUS
10
162.173
20
-139.483
11
162.363
21
-139.388
0
LINE
8
BLACK
6
CONTINUOUS
10
162.363
20
-139.388
11
162.649
21
-139.388
0
LINE
8
BLACK
6
CONTINUOUS
10
162.649
20
-139.388
11
162.839
21
-139.483
0
LINE
8
BLACK
6
CONTINUOUS
10
163.601
20
-141.483
11
163.696
21
-141.388
0
LINE
8
BLACK
6
CONTINUOUS
10
163.696
20
-141.388
11
163.887
21
-141.103
0
LINE
8
BLACK
6
CONTINUOUS
10
163.887
20
-141.103
11
163.982
21
-140.912
0
LINE
8
BLACK
6
CONTINUOUS
10
163.982
20
-140.912
11
164.077
21
-140.626
0
LINE
8
BLACK
6
CONTINUOUS
10
164.077
20
-140.626
11
164.173
21
-140.15
0
LINE
8
BLACK
6
CONTINUOUS
10
164.173
20
-140.15
11
164.173
21
-139.769
0
LINE
8
BLACK
6
CONTINUOUS
10
164.173
20
-139.769
11
164.077
21
-139.293
0
LINE
8
BLACK
6
CONTINUOUS
10
164.077
20
-139.293
11
163.982
21
-139.007
0
LINE
8
BLACK
6
CONTINUOUS
10
163.982
20
-139.007
11
163.887
21
-138.817
0
LINE
8
BLACK
6
CONTINUOUS
10
163.887
20
-138.817
11
163.696
21
-138.531
0
LINE
8
BLACK
6
CONTINUOUS
10
163.696
20
-138.531
11
163.601
21
-138.436
0
LINE
8
BLACK
6
CONTINUOUS
10
115.558
20
-143.154
11
115.558
21
-141.74
0
LINE
8
BLACK
6
CONTINUOUS
10
115.558
20
-141.74
11
114.143
21
-141.74
0
LINE
8
BLACK
6
CONTINUOUS
10
114.143
20
-141.74
11
114.143
21
-143.154
0
LINE
8
BLACK
6
CONTINUOUS
10
114.143
20
-143.154
11
115.558
21
-143.154
0
LINE
8
BLACK
6
CONTINUOUS
10
118.268
20
-141.362
11
119.506
21
-141.362
0
LINE
8
BLACK
6
CONTINUOUS
10
119.506
20
-141.362
11
118.839
21
-142.123
0
LINE
8
BLACK
6
CONTINUOUS
10
118.839
20
-142.123
11
119.125
21
-142.123
0
LINE
8
BLACK
6
CONTINUOUS
10
119.125
20
-142.123
11
119.315
21
-142.219
0
LINE
8
BLACK
6
CONTINUOUS
10
119.315
20
-142.219
11
119.411
21
-142.314
0
LINE
8
BLACK
6
CONTINUOUS
10
119.411
20
-142.314
11
119.506
21
-142.504
0
LINE
8
BLACK
6
CONTINUOUS
10
119.506
20
-142.504
11
119.506
21
-142.981
0
LINE
8
BLACK
6
CONTINUOUS
10
119.506
20
-142.981
11
119.411
21
-143.171
0
LINE
8
BLACK
6
CONTINUOUS
10
119.411
20
-143.171
11
119.315
21
-143.266
0
LINE
8
BLACK
6
CONTINUOUS
10
119.315
20
-143.266
11
119.125
21
-143.362
0
LINE
8
BLACK
6
CONTINUOUS
10
119.125
20
-143.362
11
118.554
21
-143.362
0
LINE
8
BLACK
6
CONTINUOUS
10
118.554
20
-143.362
11
118.363
21
-143.266
0
LINE
8
BLACK
6
CONTINUOUS
10
118.363
20
-143.266
11
118.268
21
-143.171
0
LINE
8
BLACK
6
CONTINUOUS
10
120.363
20
-143.171
11
120.458
21
-143.266
0
LINE
8
BLACK
6
CONTINUOUS
10
120.458
20
-143.266
11
120.363
21
-143.362
0
LINE
8
BLACK
6
CONTINUOUS
10
120.363
20
-143.362
11
120.268
21
-143.266
0
LINE
8
BLACK
6
CONTINUOUS
10
120.268
20
-143.266
11
120.363
21
-143.171
0
LINE
8
BLACK
6
CONTINUOUS
10
120.363
20
-143.171
11
120.363
21
-143.362
0
LINE
8
BLACK
6
CONTINUOUS
10
121.696
20
-141.362
11
121.887
21
-141.362
0
LINE
8
BLACK
6
CONTINUOUS
10
121.887
20
-141.362
11
122.077
21
-141.457
0
LINE
8
BLACK
6
CONTINUOUS
10
122.077
20
-141.457
11
122.173
21
-141.552
0
LINE
8
BLACK
6
CONTINUOUS
10
122.173
20
-141.552
11
122.268
21
-141.743
0
LINE
8
BLACK
6
CONTINUOUS
10
122.268
20
-141.743
11
122.363
21
-142.123
0
LINE
8
BLACK
6
CONTINUOUS
10
122.363
20
-142.123
11
122.363
21
-142.6
0
LINE
8
BLACK
6
CONTINUOUS
10
122.363
20
-142.6
11
122.268
21
-142.981
0
LINE
8
BLACK
6
CONTINUOUS
10
122.268
20
-142.981
11
122.173
21
-143.171
0
LINE
8
BLACK
6
CONTINUOUS
10
122.173
20
-143.171
11
122.077
21
-143.266
0
LINE
8
BLACK
6
CONTINUOUS
10
122.077
20
-143.266
11
121.887
21
-143.362
0
LINE
8
BLACK
6
CONTINUOUS
10
121.887
20
-143.362
11
121.696
21
-143.362
0
LINE
8
BLACK
6
CONTINUOUS
10
121.696
20
-143.362
11
121.506
21
-143.266
0
LINE
8
BLACK
6
CONTINUOUS
10
121.506
20
-143.266
11
121.411
21
-143.171
0
LINE
8
BLACK
6
CONTINUOUS
10
121.411
20
-143.171
11
121.315
21
-142.981
0
LINE
8
BLACK
6
CONTINUOUS
10
121.315
20
-142.981
11
121.22
21
-142.6
0
LINE
8
BLACK
6
CONTINUOUS
10
121.22
20
-142.6
11
121.22
21
-142.123
0
LINE
8
BLACK
6
CONTINUOUS
10
121.22
20
-142.123
11
121.315
21
-141.743
0
LINE
8
BLACK
6
CONTINUOUS
10
121.315
20
-141.743
11
121.411
21
-141.552
0
LINE
8
BLACK
6
CONTINUOUS
10
121.411
20
-141.552
11
121.506
21
-141.457
0
LINE
8
BLACK
6
CONTINUOUS
10
121.506
20
-141.457
11
121.696
21
-141.362
0
LINE
8
BLACK
6
CONTINUOUS
10
123.601
20
-141.362
11
123.792
21
-141.362
0
LINE
8
BLACK
6
CONTINUOUS
10
123.792
20
-141.362
11
123.982
21
-141.457
0
LINE
8
BLACK
6
CONTINUOUS
10
123.982
20
-141.457
11
124.077
21
-141.552
0
LINE
8
BLACK
6
CONTINUOUS
10
124.077
20
-141.552
11
124.173
21
-141.743
0
LINE
8
BLACK
6
CONTINUOUS
10
124.173
20
-141.743
11
124.268
21
-142.123
0
LINE
8
BLACK
6
CONTINUOUS
10
124.268
20
-142.123
11
124.268
21
-142.6
0
LINE
8
BLACK
6
CONTINUOUS
10
124.268
20
-142.6
11
124.173
21
-142.981
0
LINE
8
BLACK
6
CONTINUOUS
10
124.173
20
-142.981
11
124.077
21
-143.171
0
LINE
8
BLACK
6
CONTINUOUS
10
124.077
20
-143.171
11
123.982
21
-143.266
0
LINE
8
BLACK
6
CONTINUOUS
10
123.982
20
-143.266
11
123.792
21
-143.362
0
LINE
8
BLACK
6
CONTINUOUS
10
123.792
20
-143.362
11
123.601
21
-143.362
0
LINE
8
BLACK
6
CONTINUOUS
10
123.601
20
-143.362
11
123.411
21
-143.266
0
LINE
8
BLACK
6
CONTINUOUS
10
123.411
20
-143.266
11
123.315
21
-143.171
0
LINE
8
BLACK
6
CONTINUOUS
10
123.315
20
-143.171
11
123.22
21
-142.981
0
LINE
8
BLACK
6
CONTINUOUS
10
123.22
20
-142.981
11
123.125
21
-142.6
0
LINE
8
BLACK
6
CONTINUOUS
10
123.125
20
-142.6
11
123.125
21
-142.123
0
LINE
8
BLACK
6
CONTINUOUS
10
123.125
20
-142.123
11
123.22
21
-141.743
0
LINE
8
BLACK
6
CONTINUOUS
10
123.22
20
-141.743
11
123.315
21
-141.552
0
LINE
8
BLACK
6
CONTINUOUS
10
123.315
20
-141.552
11
123.411
21
-141.457
0
LINE
8
BLACK
6
CONTINUOUS
10
123.411
20
-141.457
11
123.601
21
-141.362
0
LINE
8
BLACK
6
CONTINUOUS
10
125.506
20
-141.362
11
125.696
21
-141.362
0
LINE
8
BLACK
6
CONTINUOUS
10
125.696
20
-141.362
11
125.887
21
-141.457
0
LINE
8
BLACK
6
CONTINUOUS
10
125.887
20
-141.457
11
125.982
21
-141.552
0
LINE
8
BLACK
6
CONTINUOUS
10
125.982
20
-141.552
11
126.077
21
-141.743
0
LINE
8
BLACK
6
CONTINUOUS
10
126.077
20
-141.743
11
126.173
21
-142.123
0
LINE
8
BLACK
6
CONTINUOUS
10
126.173
20
-142.123
11
126.173
21
-142.6
0
LINE
8
BLACK
6
CONTINUOUS
10
126.173
20
-142.6
11
126.077
21
-142.981
0
LINE
8
BLACK
6
CONTINUOUS
10
126.077
20
-142.981
11
125.982
21
-143.171
0
LINE
8
BLACK
6
CONTINUOUS
10
125.982
20
-143.171
11
125.887
21
-143.266
0
LINE
8
BLACK
6
CONTINUOUS
10
125.887
20
-143.266
11
125.696
21
-143.362
0
LINE
8
BLACK
6
CONTINUOUS
10
125.696
20
-143.362
11
125.506
21
-143.362
0
LINE
8
BLACK
6
CONTINUOUS
10
125.506
20
-143.362
11
125.315
21
-143.266
0
LINE
8
BLACK
6
CONTINUOUS
10
125.315
20
-143.266
11
125.22
21
-143.171
0
LINE
8
BLACK
6
CONTINUOUS
10
125.22
20
-143.171
11
125.125
21
-142.981
0
LINE
8
BLACK
6
CONTINUOUS
10
125.125
20
-142.981
11
125.03
21
-142.6
0
LINE
8
BLACK
6
CONTINUOUS
10
125.03
20
-142.6
11
125.03
21
-142.123
0
LINE
8
BLACK
6
CONTINUOUS
10
125.03
20
-142.123
11
125.125
21
-141.743
0
LINE
8
BLACK
6
CONTINUOUS
10
125.125
20
-141.743
11
125.22
21
-141.552
0
LINE
8
BLACK
6
CONTINUOUS
10
125.22
20
-141.552
11
125.315
21
-141.457
0
LINE
8
BLACK
6
CONTINUOUS
10
125.315
20
-141.457
11
125.506
21
-141.362
0
LINE
8
BLACK
6
CONTINUOUS
10
127.03
20
-143.362
11
127.03
21
-142.028
0
LINE
8
BLACK
6
CONTINUOUS
10
127.03
20
-142.219
11
127.125
21
-142.123
0
LINE
8
BLACK
6
CONTINUOUS
10
127.125
20
-142.123
11
127.315
21
-142.028
0
LINE
8
BLACK
6
CONTINUOUS
10
127.315
20
-142.028
11
127.601
21
-142.028
0
LINE
8
BLACK
6
CONTINUOUS
10
127.601
20
-142.028
11
127.792
21
-142.123
0
LINE
8
BLACK
6
CONTINUOUS
10
127.792
20
-142.123
11
127.887
21
-142.314
0
LINE
8
BLACK
6
CONTINUOUS
10
127.887
20
-142.314
11
127.887
21
-143.362
0
LINE
8
BLACK
6
CONTINUOUS
10
127.887
20
-142.314
11
127.982
21
-142.123
0
LINE
8
BLACK
6
CONTINUOUS
10
127.982
20
-142.123
11
128.173
21
-142.028
0
LINE
8
BLACK
6
CONTINUOUS
10
128.173
20
-142.028
11
128.458
21
-142.028
0
LINE
8
BLACK
6
CONTINUOUS
10
128.458
20
-142.028
11
128.649
21
-142.123
0
LINE
8
BLACK
6
CONTINUOUS
10
128.649
20
-142.123
11
128.744
21
-142.314
0
LINE
8
BLACK
6
CONTINUOUS
10
128.744
20
-142.314
11
128.744
21
-143.362
0
LINE
8
BLACK
6
CONTINUOUS
10
129.696
20
-143.362
11
129.696
21
-142.028
0
LINE
8
BLACK
6
CONTINUOUS
10
129.696
20
-142.219
11
129.792
21
-142.123
0
LINE
8
BLACK
6
CONTINUOUS
10
129.792
20
-142.123
11
129.982
21
-142.028
0
LINE
8
BLACK
6
CONTINUOUS
10
129.982
20
-142.028
11
130.268
21
-142.028
0
LINE
8
BLACK
6
CONTINUOUS
10
130.268
20
-142.028
11
130.458
21
-142.123
0
LINE
8
BLACK
6
CONTINUOUS
10
130.458
20
-142.123
11
130.554
21
-142.314
0
LINE
8
BLACK
6
CONTINUOUS
10
130.554
20
-142.314
11
130.554
21
-143.362
0
LINE
8
BLACK
6
CONTINUOUS
10
130.554
20
-142.314
11
130.649
21
-142.123
0
LINE
8
BLACK
6
CONTINUOUS
10
130.649
20
-142.123
11
130.839
21
-142.028
0
LINE
8
BLACK
6
CONTINUOUS
10
130.839
20
-142.028
11
131.125
21
-142.028
0
LINE
8
BLACK
6
CONTINUOUS
10
131.125
20
-142.028
11
131.315
21
-142.123
0
LINE
8
BLACK
6
CONTINUOUS
10
131.315
20
-142.123
11
131.411
21
-142.314
0
LINE
8
BLACK
6
CONTINUOUS
10
131.411
20
-142.314
11
131.411
21
-143.362
0
LINE
8
BLACK
6
CONTINUOUS
10
135.315
20
-141.266
11
133.601
21
-143.838
0
LINE
8
BLACK
6
CONTINUOUS
10
137.887
20
-141.362
11
138.077
21
-141.362
0
LINE
8
BLACK
6
CONTINUOUS
10
138.077
20
-141.362
11
138.268
21
-141.457
0
LINE
8
BLACK
6
CONTINUOUS
10
138.268
20
-141.457
11
138.363
21
-141.552
0
LINE
8
BLACK
6
CONTINUOUS
10
138.363
20
-141.552
11
138.458
21
-141.743
0
LINE
8
BLACK
6
CONTINUOUS
10
138.458
20
-141.743
11
138.554
21
-142.123
0
LINE
8
BLACK
6
CONTINUOUS
10
138.554
20
-142.123
11
138.554
21
-142.6
0
LINE
8
BLACK
6
CONTINUOUS
10
138.554
20
-142.6
11
138.458
21
-142.981
0
LINE
8
BLACK
6
CONTINUOUS
10
138.458
20
-142.981
11
138.363
21
-143.171
0
LINE
8
BLACK
6
CONTINUOUS
10
138.363
20
-143.171
11
138.268
21
-143.266
0
LINE
8
BLACK
6
CONTINUOUS
10
138.268
20
-143.266
11
138.077
21
-143.362
0
LINE
8
BLACK
6
CONTINUOUS
10
138.077
20
-143.362
11
137.887
21
-143.362
0
LINE
8
BLACK
6
CONTINUOUS
10
137.887
20
-143.362
11
137.696
21
-143.266
0
LINE
8
BLACK
6
CONTINUOUS
10
137.696
20
-143.266
11
137.601
21
-143.171
0
LINE
8
BLACK
6
CONTINUOUS
10
137.601
20
-143.171
11
137.506
21
-142.981
0
LINE
8
BLACK
6
CONTINUOUS
10
137.506
20
-142.981
11
137.411
21
-142.6
0
LINE
8
BLACK
6
CONTINUOUS
10
137.411
20
-142.6
11
137.411
21
-142.123
0
LINE
8
BLACK
6
CONTINUOUS
10
137.411
20
-142.123
11
137.506
21
-141.743
0
LINE
8
BLACK
6
CONTINUOUS
10
137.506
20
-141.743
11
137.601
21
-141.552
0
LINE
8
BLACK
6
CONTINUOUS
10
137.601
20
-141.552
11
137.696
21
-141.457
0
LINE
8
BLACK
6
CONTINUOUS
10
137.696
20
-141.457
11
137.887
21
-141.362
0
LINE
8
BLACK
6
CONTINUOUS
10
139.411
20
-143.171
11
139.506
21
-143.266
0
LINE
8
BLACK
6
CONTINUOUS
10
139.506
20
-143.266
11
139.411
21
-143.362
0
LINE
8
BLACK
6
CONTINUOUS
10
139.411
20
-143.362
11
139.315
21
-143.266
0
LINE
8
BLACK
6
CONTINUOUS
10
139.315
20
-143.266
11
139.411
21
-143.171
0
LINE
8
BLACK
6
CONTINUOUS
10
139.411
20
-143.171
11
139.411
21
-143.362
0
LINE
8
BLACK
6
CONTINUOUS
10
141.411
20
-143.362
11
140.268
21
-143.362
0
LINE
8
BLACK
6
CONTINUOUS
10
140.839
20
-143.362
11
140.839
21
-141.362
0
LINE
8
BLACK
6
CONTINUOUS
10
140.839
20
-141.362
11
140.649
21
-141.647
0
LINE
8
BLACK
6
CONTINUOUS
10
140.649
20
-141.647
11
140.458
21
-141.838
0
LINE
8
BLACK
6
CONTINUOUS
10
140.458
20
-141.838
11
140.268
21
-141.933
0
LINE
8
BLACK
6
CONTINUOUS
10
143.315
20
-143.362
11
142.173
21
-143.362
0
LINE
8
BLACK
6
CONTINUOUS
10
142.744
20
-143.362
11
142.744
21
-141.362
0
LINE
8
BLACK
6
CONTINUOUS
10
142.744
20
-141.362
11
142.554
21
-141.647
0
LINE
8
BLACK
6
CONTINUOUS
10
142.554
20
-141.647
11
142.363
21
-141.838
0
LINE
8
BLACK
6
CONTINUOUS
10
142.363
20
-141.838
11
142.173
21
-141.933
0
LINE
8
BLACK
6
CONTINUOUS
10
144.458
20
-142.219
11
144.268
21
-142.123
0
LINE
8
BLACK
6
CONTINUOUS
10
144.268
20
-142.123
11
144.173
21
-142.028
0
LINE
8
BLACK
6
CONTINUOUS
10
144.173
20
-142.028
11
144.077
21
-141.838
0
LINE
8
BLACK
6
CONTINUOUS
10
144.077
20
-141.838
11
144.077
21
-141.743
0
LINE
8
BLACK
6
CONTINUOUS
10
144.077
20
-141.743
11
144.173
21
-141.552
0
LINE
8
BLACK
6
CONTINUOUS
10
144.173
20
-141.552
11
144.268
21
-141.457
0
LINE
8
BLACK
6
CONTINUOUS
10
144.268
20
-141.457
11
144.458
21
-141.362
0
LINE
8
BLACK
6
CONTINUOUS
10
144.458
20
-141.362
11
144.839
21
-141.362
0
LINE
8
BLACK
6
CONTINUOUS
10
144.839
20
-141.362
11
145.03
21
-141.457
0
LINE
8
BLACK
6
CONTINUOUS
10
145.03
20
-141.457
11
145.125
21
-141.552
0
LINE
8
BLACK
6
CONTINUOUS
10
145.125
20
-141.552
11
145.22
21
-141.743
0
LINE
8
BLACK
6
CONTINUOUS
10
145.22
20
-141.743
11
145.22
21
-141.838
0
LINE
8
BLACK
6
CONTINUOUS
10
145.22
20
-141.838
11
145.125
21
-142.028
0
LINE
8
BLACK
6
CONTINUOUS
10
145.125
20
-142.028
11
145.03
21
-142.123
0
LINE
8
BLACK
6
CONTINUOUS
10
145.03
20
-142.123
11
144.839
21
-142.219
0
LINE
8
BLACK
6
CONTINUOUS
10
144.839
20
-142.219
11
144.458
21
-142.219
0
LINE
8
BLACK
6
CONTINUOUS
10
144.458
20
-142.219
11
144.268
21
-142.314
0
LINE
8
BLACK
6
CONTINUOUS
10
144.268
20
-142.314
11
144.173
21
-142.409
0
LINE
8
BLACK
6
CONTINUOUS
10
144.173
20
-142.409
11
144.077
21
-142.6
0
LINE
8
BLACK
6
CONTINUOUS
10
144.077
20
-142.6
11
144.077
21
-142.981
0
LINE
8
BLACK
6
CONTINUOUS
10
144.077
20
-142.981
11
144.173
21
-143.171
0
LINE
8
BLACK
6
CONTINUOUS
10
144.173
20
-143.171
11
144.268
21
-143.266
0
LINE
8
BLACK
6
CONTINUOUS
10
144.268
20
-143.266
11
144.458
21
-143.362
0
LINE
8
BLACK
6
CONTINUOUS
10
144.458
20
-143.362
11
144.839
21
-143.362
0
LINE
8
BLACK
6
CONTINUOUS
10
144.839
20
-143.362
11
145.03
21
-143.266
0
LINE
8
BLACK
6
CONTINUOUS
10
145.03
20
-143.266
11
145.125
21
-143.171
0
LINE
8
BLACK
6
CONTINUOUS
10
145.125
20
-143.171
11
145.22
21
-142.981
0
LINE
8
BLACK
6
CONTINUOUS
10
145.22
20
-142.981
11
145.22
21
-142.6
0
LINE
8
BLACK
6
CONTINUOUS
10
145.22
20
-142.6
11
145.125
21
-142.409
0
LINE
8
BLACK
6
CONTINUOUS
10
145.125
20
-142.409
11
145.03
21
-142.314
0
LINE
8
BLACK
6
CONTINUOUS
10
145.03
20
-142.314
11
144.839
21
-142.219
0
LINE
8
BLACK
6
CONTINUOUS
10
147.125
20
-143.362
11
145.982
21
-143.362
0
LINE
8
BLACK
6
CONTINUOUS
10
146.554
20
-143.362
11
146.554
21
-141.362
0
LINE
8
BLACK
6
CONTINUOUS
10
146.554
20
-141.362
11
146.363
21
-141.647
0
LINE
8
BLACK
6
CONTINUOUS
10
146.363
20
-141.647
11
146.173
21
-141.838
0
LINE
8
BLACK
6
CONTINUOUS
10
146.173
20
-141.838
11
145.982
21
-141.933
0
LINE
8
BLACK
6
CONTINUOUS
10
147.887
20
-141.362
11
147.887
21
-141.743
0
LINE
8
BLACK
6
CONTINUOUS
10
148.649
20
-141.362
11
148.649
21
-141.743
0
LINE
8
BLACK
6
CONTINUOUS
10
151.601
20
-144.123
11
151.506
21
-144.028
0
LINE
8
BLACK
6
CONTINUOUS
10
151.506
20
-144.028
11
151.315
21
-143.743
0
LINE
8
BLACK
6
CONTINUOUS
10
151.315
20
-143.743
11
151.22
21
-143.552
0
LINE
8
BLACK
6
CONTINUOUS
10
151.22
20
-143.552
11
151.125
21
-143.266
0
LINE
8
BLACK
6
CONTINUOUS
10
151.125
20
-143.266
11
151.03
21
-142.79
0
LINE
8
BLACK
6
CONTINUOUS
10
151.03
20
-142.79
11
151.03
21
-142.409
0
LINE
8
BLACK
6
CONTINUOUS
10
151.03
20
-142.409
11
151.125
21
-141.933
0
LINE
8
BLACK
6
CONTINUOUS
10
151.125
20
-141.933
11
151.22
21
-141.647
0
LINE
8
BLACK
6
CONTINUOUS
10
151.22
20
-141.647
11
151.315
21
-141.457
0
LINE
8
BLACK
6
CONTINUOUS
10
151.315
20
-141.457
11
151.506
21
-141.171
0
LINE
8
BLACK
6
CONTINUOUS
10
151.506
20
-141.171
11
151.601
21
-141.076
0
LINE
8
BLACK
6
CONTINUOUS
10
152.268
20
-141.552
11
152.363
21
-141.457
0
LINE
8
BLACK
6
CONTINUOUS
10
152.363
20
-141.457
11
152.554
21
-141.362
0
LINE
8
BLACK
6
CONTINUOUS
10
152.554
20
-141.362
11
153.03
21
-141.362
0
LINE
8
BLACK
6
CONTINUOUS
10
153.03
20
-141.362
11
153.22
21
-141.457
0
LINE
8
BLACK
6
CONTINUOUS
10
153.22
20
-141.457
11
153.315
21
-141.552
0
LINE
8
BLACK
6
CONTINUOUS
10
153.315
20
-141.552
11
153.411
21
-141.743
0
LINE
8
BLACK
6
CONTINUOUS
10
153.411
20
-141.743
11
153.411
21
-141.933
0
LINE
8
BLACK
6
CONTINUOUS
10
153.411
20
-141.933
11
153.315
21
-142.219
0
LINE
8
BLACK
6
CONTINUOUS
10
153.315
20
-142.219
11
152.173
21
-143.362
0
LINE
8
BLACK
6
CONTINUOUS
10
152.173
20
-143.362
11
153.411
21
-143.362
0
LINE
8
BLACK
6
CONTINUOUS
10
155.792
20
-143.362
11
155.792
21
-141.362
0
LINE
8
BLACK
6
CONTINUOUS
10
156.649
20
-143.362
11
156.649
21
-142.314
0
LINE
8
BLACK
6
CONTINUOUS
10
156.649
20
-142.314
11
156.554
21
-142.123
0
LINE
8
BLACK
6
CONTINUOUS
10
156.554
20
-142.123
11
156.363
21
-142.028
0
LINE
8
BLACK
6
CONTINUOUS
10
156.363
20
-142.028
11
156.077
21
-142.028
0
LINE
8
BLACK
6
CONTINUOUS
10
156.077
20
-142.028
11
155.887
21
-142.123
0
LINE
8
BLACK
6
CONTINUOUS
10
155.887
20
-142.123
11
155.792
21
-142.219
0
LINE
8
BLACK
6
CONTINUOUS
10
157.887
20
-143.362
11
157.696
21
-143.266
0
LINE
8
BLACK
6
CONTINUOUS
10
157.696
20
-143.266
11
157.601
21
-143.171
0
LINE
8
BLACK
6
CONTINUOUS
10
157.601
20
-143.171
11
157.506
21
-142.981
0
LINE
8
BLACK
6
CONTINUOUS
10
157.506
20
-142.981
11
157.506
21
-142.409
0
LINE
8
BLACK
6
CONTINUOUS
10
157.506
20
-142.409
11
157.601
21
-142.219
0
LINE
8
BLACK
6
CONTINUOUS
10
157.601
20
-142.219
11
157.696
21
-142.123
0
LINE
8
BLACK
6
CONTINUOUS
10
157.696
20
-142.123
11
157.887
21
-142.028
0
LINE
8
BLACK
6
CONTINUOUS
10
157.887
20
-142.028
11
158.173
21
-142.028
0
LINE
8
BLACK
6
CONTINUOUS
10
158.173
20
-142.028
11
158.363
21
-142.123
0
LINE
8
BLACK
6
CONTINUOUS
10
158.363
20
-142.123
11
158.458
21
-142.219
0
LINE
8
BLACK
6
CONTINUOUS
10
158.458
20
-142.219
11
158.554
21
-142.409
0
LINE
8
BLACK
6
CONTINUOUS
10
158.554
20
-142.409
11
158.554
21
-142.981
0
LINE
8
BLACK
6
CONTINUOUS
10
158.554
20
-142.981
11
158.458
21
-143.171
0
LINE
8
BLACK
6
CONTINUOUS
10
158.458
20
-143.171
11
158.363
21
-143.266
0
LINE
8
BLACK
6
CONTINUOUS
10
158.363
20
-143.266
11
158.173
21
-143.362
0
LINE
8
BLACK
6
CONTINUOUS
10
158.173
20
-143.362
11
157.887
21
-143.362
0
LINE
8
BLACK
6
CONTINUOUS
10
159.696
20
-143.362
11
159.506
21
-143.266
0
LINE
8
BLACK
6
CONTINUOUS
10
159.506
20
-143.266
11
159.411
21
-143.076
0
LINE
8
BLACK
6
CONTINUOUS
10
159.411
20
-143.076
11
159.411
21
-141.362
0
LINE
8
BLACK
6
CONTINUOUS
10
161.22
20
-143.266
11
161.03
21
-143.362
0
LINE
8
BLACK
6
CONTINUOUS
10
161.03
20
-143.362
11
160.649
21
-143.362
0
LINE
8
BLACK
6
CONTINUOUS
10
160.649
20
-143.362
11
160.458
21
-143.266
0
LINE
8
BLACK
6
CONTINUOUS
10
160.458
20
-143.266
11
160.363
21
-143.076
0
LINE
8
BLACK
6
CONTINUOUS
10
160.363
20
-143.076
11
160.363
21
-142.314
0
LINE
8
BLACK
6
CONTINUOUS
10
160.363
20
-142.314
11
160.458
21
-142.123
0
LINE
8
BLACK
6
CONTINUOUS
10
160.458
20
-142.123
11
160.649
21
-142.028
0
LINE
8
BLACK
6
CONTINUOUS
10
160.649
20
-142.028
11
161.03
21
-142.028
0
LINE
8
BLACK
6
CONTINUOUS
10
161.03
20
-142.028
11
161.22
21
-142.123
0
LINE
8
BLACK
6
CONTINUOUS
10
161.22
20
-142.123
11
161.315
21
-142.314
0
LINE
8
BLACK
6
CONTINUOUS
10
161.315
20
-142.314
11
161.315
21
-142.504
0
LINE
8
BLACK
6
CONTINUOUS
10
161.315
20
-142.504
11
160.363
21
-142.695
0
LINE
8
BLACK
6
CONTINUOUS
10
162.077
20
-143.266
11
162.268
21
-143.362
0
LINE
8
BLACK
6
CONTINUOUS
10
162.268
20
-143.362
11
162.649
21
-143.362
0
LINE
8
BLACK
6
CONTINUOUS
10
162.649
20
-143.362
11
162.839
21
-143.266
0
LINE
8
BLACK
6
CONTINUOUS
10
162.839
20
-143.266
11
162.934
21
-143.076
0
LINE
8
BLACK
6
CONTINUOUS
10
162.934
20
-143.076
11
162.934
21
-142.981
0
LINE
8
BLACK
6
CONTINUOUS
10
162.934
20
-142.981
11
162.839
21
-142.79
0
LINE
8
BLACK
6
CONTINUOUS
10
162.839
20
-142.79
11
162.649
21
-142.695
0
LINE
8
BLACK
6
CONTINUOUS
10
162.649
20
-142.695
11
162.363
21
-142.695
0
LINE
8
BLACK
6
CONTINUOUS
10
162.363
20
-142.695
11
162.173
21
-142.6
0
LINE
8
BLACK
6
CONTINUOUS
10
162.173
20
-142.6
11
162.077
21
-142.409
0
LINE
8
BLACK
6
CONTINUOUS
10
162.077
20
-142.409
11
162.077
21
-142.314
0
LINE
8
BLACK
6
CONTINUOUS
10
162.077
20
-142.314
11
162.173
21
-142.123
0
LINE
8
BLACK
6
CONTINUOUS
10
162.173
20
-142.123
11
162.363
21
-142.028
0
LINE
8
BLACK
6
CONTINUOUS
10
162.363
20
-142.028
11
162.649
21
-142.028
0
LINE
8
BLACK
6
CONTINUOUS
10
162.649
20
-142.028
11
162.839
21
-142.123
0
LINE
8
BLACK
6
CONTINUOUS
10
163.601
20
-144.123
11
163.696
21
-144.028
0
LINE
8
BLACK
6
CONTINUOUS
10
163.696
20
-144.028
11
163.887
21
-143.743
0
LINE
8
BLACK
6
CONTINUOUS
10
163.887
20
-143.743
11
163.982
21
-143.552
0
LINE
8
BLACK
6
CONTINUOUS
10
163.982
20
-143.552
11
164.077
21
-143.266
0
LINE
8
BLACK
6
CONTINUOUS
10
164.077
20
-143.266
11
164.173
21
-142.79
0
LINE
8
BLACK
6
CONTINUOUS
10
164.173
20
-142.79
11
164.173
21
-142.409
0
LINE
8
BLACK
6
CONTINUOUS
10
164.173
20
-142.409
11
164.077
21
-141.933
0
LINE
8
BLACK
6
CONTINUOUS
10
164.077
20
-141.933
11
163.982
21
-141.647
0
LINE
8
BLACK
6
CONTINUOUS
10
163.982
20
-141.647
11
163.887
21
-141.457
0
LINE
8
BLACK
6
CONTINUOUS
10
163.887
20
-141.457
11
163.696
21
-141.171
0
LINE
8
BLACK
6
CONTINUOUS
10
163.696
20
-141.171
11
163.601
21
-141.076
0
LINE
8
BLACK
6
CONTINUOUS
10
114.85
20
-146.647
11
115.85
21
-145.647
0
LINE
8
BLACK
6
CONTINUOUS
10
115.85
20
-145.647
11
114.85
21
-144.647
0
LINE
8
BLACK
6
CONTINUOUS
10
114.85
20
-144.647
11
113.85
21
-145.647
0
LINE
8
BLACK
6
CONTINUOUS
10
113.85
20
-145.647
11
114.85
21
-146.647
0
LINE
8
BLACK
6
CONTINUOUS
10
118.268
20
-144.562
11
119.506
21
-144.562
0
LINE
8
BLACK
6
CONTINUOUS
10
119.506
20
-144.562
11
118.839
21
-145.323
0
LINE
8
BLACK
6
CONTINUOUS
10
118.839
20
-145.323
11
119.125
21
-145.323
0
LINE
8
BLACK
6
CONTINUOUS
10
119.125
20
-145.323
11
119.315
21
-145.419
0
LINE
8
BLACK
6
CONTINUOUS
10
119.315
20
-145.419
11
119.411
21
-145.514
0
LINE
8
BLACK
6
CONTINUOUS
10
119.411
20
-145.514
11
119.506
21
-145.704
0
LINE
8
BLACK
6
CONTINUOUS
10
119.506
20
-145.704
11
119.506
21
-146.181
0
LINE
8
BLACK
6
CONTINUOUS
10
119.506
20
-146.181
11
119.411
21
-146.371
0
LINE
8
BLACK
6
CONTINUOUS
10
119.411
20
-146.371
11
119.315
21
-146.466
0
LINE
8
BLACK
6
CONTINUOUS
10
119.315
20
-146.466
11
119.125
21
-146.562
0
LINE
8
BLACK
6
CONTINUOUS
10
119.125
20
-146.562
11
118.554
21
-146.562
0
LINE
8
BLACK
6
CONTINUOUS
10
118.554
20
-146.562
11
118.363
21
-146.466
0
LINE
8
BLACK
6
CONTINUOUS
10
118.363
20
-146.466
11
118.268
21
-146.371
0
LINE
8
BLACK
6
CONTINUOUS
10
120.363
20
-146.371
11
120.458
21
-146.466
0
LINE
8
BLACK
6
CONTINUOUS
10
120.458
20
-146.466
11
120.363
21
-146.562
0
LINE
8
BLACK
6
CONTINUOUS
10
120.363
20
-146.562
11
120.268
21
-146.466
0
LINE
8
BLACK
6
CONTINUOUS
10
120.268
20
-146.466
11
120.363
21
-146.371
0
LINE
8
BLACK
6
CONTINUOUS
10
120.363
20
-146.371
11
120.363
21
-146.562
0
LINE
8
BLACK
6
CONTINUOUS
10
121.22
20
-144.752
11
121.315
21
-144.657
0
LINE
8
BLACK
6
CONTINUOUS
10
121.315
20
-144.657
11
121.506
21
-144.562
0
LINE
8
BLACK
6
CONTINUOUS
10
121.506
20
-144.562
11
121.982
21
-144.562
0
LINE
8
BLACK
6
CONTINUOUS
10
121.982
20
-144.562
11
122.173
21
-144.657
0
LINE
8
BLACK
6
CONTINUOUS
10
122.173
20
-144.657
11
122.268
21
-144.752
0
LINE
8
BLACK
6
CONTINUOUS
10
122.268
20
-144.752
11
122.363
21
-144.943
0
LINE
8
BLACK
6
CONTINUOUS
10
122.363
20
-144.943
11
122.363
21
-145.133
0
LINE
8
BLACK
6
CONTINUOUS
10
122.363
20
-145.133
11
122.268
21
-145.419
0
LINE
8
BLACK
6
CONTINUOUS
10
122.268
20
-145.419
11
121.125
21
-146.562
0
LINE
8
BLACK
6
CONTINUOUS
10
121.125
20
-146.562
11
122.363
21
-146.562
0
LINE
8
BLACK
6
CONTINUOUS
10
123.601
20
-144.562
11
123.792
21
-144.562
0
LINE
8
BLACK
6
CONTINUOUS
10
123.792
20
-144.562
11
123.982
21
-144.657
0
LINE
8
BLACK
6
CONTINUOUS
10
123.982
20
-144.657
11
124.077
21
-144.752
0
LINE
8
BLACK
6
CONTINUOUS
10
124.077
20
-144.752
11
124.173
21
-144.943
0
LINE
8
BLACK
6
CONTINUOUS
10
124.173
20
-144.943
11
124.268
21
-145.323
0
LINE
8
BLACK
6
CONTINUOUS
10
124.268
20
-145.323
11
124.268
21
-145.8
0
LINE
8
BLACK
6
CONTINUOUS
10
124.268
20
-145.8
11
124.173
21
-146.181
0
LINE
8
BLACK
6
CONTINUOUS
10
124.173
20
-146.181
11
124.077
21
-146.371
0
LINE
8
BLACK
6
CONTINUOUS
10
124.077
20
-146.371
11
123.982
21
-146.466
0
LINE
8
BLACK
6
CONTINUOUS
10
123.982
20
-146.466
11
123.792
21
-146.562
0
LINE
8
BLACK
6
CONTINUOUS
10
123.792
20
-146.562
11
123.601
21
-146.562
0
LINE
8
BLACK
6
CONTINUOUS
10
123.601
20
-146.562
11
123.411
21
-146.466
0
LINE
8
BLACK
6
CONTINUOUS
10
123.411
20
-146.466
11
123.315
21
-146.371
0
LINE
8
BLACK
6
CONTINUOUS
10
123.315
20
-146.371
11
123.22
21
-146.181
0
LINE
8
BLACK
6
CONTINUOUS
10
123.22
20
-146.181
11
123.125
21
-145.8
0
LINE
8
BLACK
6
CONTINUOUS
10
123.125
20
-145.8
11
123.125
21
-145.323
0
LINE
8
BLACK
6
CONTINUOUS
10
123.125
20
-145.323
11
123.22
21
-144.943
0
LINE
8
BLACK
6
CONTINUOUS
10
123.22
20
-144.943
11
123.315
21
-144.752
0
LINE
8
BLACK
6
CONTINUOUS
10
123.315
20
-144.752
11
123.411
21
-144.657
0
LINE
8
BLACK
6
CONTINUOUS
10
123.411
20
-144.657
11
123.601
21
-144.562
0
LINE
8
BLACK
6
CONTINUOUS
10
125.506
20
-144.562
11
125.696
21
-144.562
0
LINE
8
BLACK
6
CONTINUOUS
10
125.696
20
-144.562
11
125.887
21
-144.657
0
LINE
8
BLACK
6
CONTINUOUS
10
125.887
20
-144.657
11
125.982
21
-144.752
0
LINE
8
BLACK
6
CONTINUOUS
10
125.982
20
-144.752
11
126.077
21
-144.943
0
LINE
8
BLACK
6
CONTINUOUS
10
126.077
20
-144.943
11
126.173
21
-145.323
0
LINE
8
BLACK
6
CONTINUOUS
10
126.173
20
-145.323
11
126.173
21
-145.8
0
LINE
8
BLACK
6
CONTINUOUS
10
126.173
20
-145.8
11
126.077
21
-146.181
0
LINE
8
BLACK
6
CONTINUOUS
10
126.077
20
-146.181
11
125.982
21
-146.371
0
LINE
8
BLACK
6
CONTINUOUS
10
125.982
20
-146.371
11
125.887
21
-146.466
0
LINE
8
BLACK
6
CONTINUOUS
10
125.887
20
-146.466
11
125.696
21
-146.562
0
LINE
8
BLACK
6
CONTINUOUS
10
125.696
20
-146.562
11
125.506
21
-146.562
0
LINE
8
BLACK
6
CONTINUOUS
10
125.506
20
-146.562
11
125.315
21
-146.466
0
LINE
8
BLACK
6
CONTINUOUS
10
125.315
20
-146.466
11
125.22
21
-146.371
0
LINE
8
BLACK
6
CONTINUOUS
10
125.22
20
-146.371
11
125.125
21
-146.181
0
LINE
8
BLACK
6
CONTINUOUS
10
125.125
20
-146.181
11
125.03
21
-145.8
0
LINE
8
BLACK
6
CONTINUOUS
10
125.03
20
-145.8
11
125.03
21
-145.323
0
LINE
8
BLACK
6
CONTINUOUS
10
125.03
20
-145.323
11
125.125
21
-144.943
0
LINE
8
BLACK
6
CONTINUOUS
10
125.125
20
-144.943
11
125.22
21
-144.752
0
LINE
8
BLACK
6
CONTINUOUS
10
125.22
20
-144.752
11
125.315
21
-144.657
0
LINE
8
BLACK
6
CONTINUOUS
10
125.315
20
-144.657
11
125.506
21
-144.562
0
LINE
8
BLACK
6
CONTINUOUS
10
127.03
20
-146.562
11
127.03
21
-145.228
0
LINE
8
BLACK
6
CONTINUOUS
10
127.03
20
-145.419
11
127.125
21
-145.323
0
LINE
8
BLACK
6
CONTINUOUS
10
127.125
20
-145.323
11
127.315
21
-145.228
0
LINE
8
BLACK
6
CONTINUOUS
10
127.315
20
-145.228
11
127.601
21
-145.228
0
LINE
8
BLACK
6
CONTINUOUS
10
127.601
20
-145.228
11
127.792
21
-145.323
0
LINE
8
BLACK
6
CONTINUOUS
10
127.792
20
-145.323
11
127.887
21
-145.514
0
LINE
8
BLACK
6
CONTINUOUS
10
127.887
20
-145.514
11
127.887
21
-146.562
0
LINE
8
BLACK
6
CONTINUOUS
10
127.887
20
-145.514
11
127.982
21
-145.323
0
LINE
8
BLACK
6
CONTINUOUS
10
127.982
20
-145.323
11
128.173
21
-145.228
0
LINE
8
BLACK
6
CONTINUOUS
10
128.173
20
-145.228
11
128.458
21
-145.228
0
LINE
8
BLACK
6
CONTINUOUS
10
128.458
20
-145.228
11
128.649
21
-145.323
0
LINE
8
BLACK
6
CONTINUOUS
10
128.649
20
-145.323
11
128.744
21
-145.514
0
LINE
8
BLACK
6
CONTINUOUS
10
128.744
20
-145.514
11
128.744
21
-146.562
0
LINE
8
BLACK
6
CONTINUOUS
10
129.696
20
-146.562
11
129.696
21
-145.228
0
LINE
8
BLACK
6
CONTINUOUS
10
129.696
20
-145.419
11
129.792
21
-145.323
0
LINE
8
BLACK
6
CONTINUOUS
10
129.792
20
-145.323
11
129.982
21
-145.228
0
LINE
8
BLACK
6
CONTINUOUS
10
129.982
20
-145.228
11
130.268
21
-145.228
0
LINE
8
BLACK
6
CONTINUOUS
10
130.268
20
-145.228
11
130.458
21
-145.323
0
LINE
8
BLACK
6
CONTINUOUS
10
130.458
20
-145.323
11
130.554
21
-145.514
0
LINE
8
BLACK
6
CONTINUOUS
10
130.554
20
-145.514
11
130.554
21
-146.562
0
LINE
8
BLACK
6
CONTINUOUS
10
130.554
20
-145.514
11
130.649
21
-145.323
0
LINE
8
BLACK
6
CONTINUOUS
10
130.649
20
-145.323
11
130.839
21
-145.228
0
LINE
8
BLACK
6
CONTINUOUS
10
130.839
20
-145.228
11
131.125
21
-145.228
0
LINE
8
BLACK
6
CONTINUOUS
10
131.125
20
-145.228
11
131.315
21
-145.323
0
LINE
8
BLACK
6
CONTINUOUS
10
131.315
20
-145.323
11
131.411
21
-145.514
0
LINE
8
BLACK
6
CONTINUOUS
10
131.411
20
-145.514
11
131.411
21
-146.562
0
LINE
8
BLACK
6
CONTINUOUS
10
135.315
20
-144.466
11
133.601
21
-147.038
0
LINE
8
BLACK
6
CONTINUOUS
10
137.887
20
-144.562
11
138.077
21
-144.562
0
LINE
8
BLACK
6
CONTINUOUS
10
138.077
20
-144.562
11
138.268
21
-144.657
0
LINE
8
BLACK
6
CONTINUOUS
10
138.268
20
-144.657
11
138.363
21
-144.752
0
LINE
8
BLACK
6
CONTINUOUS
10
138.363
20
-144.752
11
138.458
21
-144.943
0
LINE
8
BLACK
6
CONTINUOUS
10
138.458
20
-144.943
11
138.554
21
-145.323
0
LINE
8
BLACK
6
CONTINUOUS
10
138.554
20
-145.323
11
138.554
21
-145.8
0
LINE
8
BLACK
6
CONTINUOUS
10
138.554
20
-145.8
11
138.458
21
-146.181
0
LINE
8
BLACK
6
CONTINUOUS
10
138.458
20
-146.181
11
138.363
21
-146.371
0
LINE
8
BLACK
6
CONTINUOUS
10
138.363
20
-146.371
11
138.268
21
-146.466
0
LINE
8
BLACK
6
CONTINUOUS
10
138.268
20
-146.466
11
138.077
21
-146.562
0
LINE
8
BLACK
6
CONTINUOUS
10
138.077
20
-146.562
11
137.887
21
-146.562
0
LINE
8
BLACK
6
CONTINUOUS
10
137.887
20
-146.562
11
137.696
21
-146.466
0
LINE
8
BLACK
6
CONTINUOUS
10
137.696
20
-146.466
11
137.601
21
-146.371
0
LINE
8
BLACK
6
CONTINUOUS
10
137.601
20
-146.371
11
137.506
21
-146.181
0
LINE
8
BLACK
6
CONTINUOUS
10
137.506
20
-146.181
11
137.411
21
-145.8
0
LINE
8
BLACK
6
CONTINUOUS
10
137.411
20
-145.8
11
137.411
21
-145.323
0
LINE
8
BLACK
6
CONTINUOUS
10
137.411
20
-145.323
11
137.506
21
-144.943
0
LINE
8
BLACK
6
CONTINUOUS
10
137.506
20
-144.943
11
137.601
21
-144.752
0
LINE
8
BLACK
6
CONTINUOUS
10
137.601
20
-144.752
11
137.696
21
-144.657
0
LINE
8
BLACK
6
CONTINUOUS
10
137.696
20
-144.657
11
137.887
21
-144.562
0
LINE
8
BLACK
6
CONTINUOUS
10
139.411
20
-146.371
11
139.506
21
-146.466
0
LINE
8
BLACK
6
CONTINUOUS
10
139.506
20
-146.466
11
139.411
21
-146.562
0
LINE
8
BLACK
6
CONTINUOUS
10
139.411
20
-146.562
11
139.315
21
-146.466
0
LINE
8
BLACK
6
CONTINUOUS
10
139.315
20
-146.466
11
139.411
21
-146.371
0
LINE
8
BLACK
6
CONTINUOUS
10
139.411
20
-146.371
11
139.411
21
-146.562
0
LINE
8
BLACK
6
CONTINUOUS
10
141.411
20
-146.562
11
140.268
21
-146.562
0
LINE
8
BLACK
6
CONTINUOUS
10
140.839
20
-146.562
11
140.839
21
-144.562
0
LINE
8
BLACK
6
CONTINUOUS
10
140.839
20
-144.562
11
140.649
21
-144.847
0
LINE
8
BLACK
6
CONTINUOUS
10
140.649
20
-144.847
11
140.458
21
-145.038
0
LINE
8
BLACK
6
CONTINUOUS
10
140.458
20
-145.038
11
140.268
21
-145.133
0
LINE
8
BLACK
6
CONTINUOUS
10
142.173
20
-144.752
11
142.268
21
-144.657
0
LINE
8
BLACK
6
CONTINUOUS
10
142.268
20
-144.657
11
142.458
21
-144.562
0
LINE
8
BLACK
6
CONTINUOUS
10
142.458
20
-144.562
11
142.934
21
-144.562
0
LINE
8
BLACK
6
CONTINUOUS
10
142.934
20
-144.562
11
143.125
21
-144.657
0
LINE
8
BLACK
6
CONTINUOUS
10
143.125
20
-144.657
11
143.22
21
-144.752
0
LINE
8
BLACK
6
CONTINUOUS
10
143.22
20
-144.752
11
143.315
21
-144.943
0
LINE
8
BLACK
6
CONTINUOUS
10
143.315
20
-144.943
11
143.315
21
-145.133
0
LINE
8
BLACK
6
CONTINUOUS
10
143.315
20
-145.133
11
143.22
21
-145.419
0
LINE
8
BLACK
6
CONTINUOUS
10
143.22
20
-145.419
11
142.077
21
-146.562
0
LINE
8
BLACK
6
CONTINUOUS
10
142.077
20
-146.562
11
143.315
21
-146.562
0
LINE
8
BLACK
6
CONTINUOUS
10
145.03
20
-144.562
11
144.649
21
-144.562
0
LINE
8
BLACK
6
CONTINUOUS
10
144.649
20
-144.562
11
144.458
21
-144.657
0
LINE
8
BLACK
6
CONTINUOUS
10
144.458
20
-144.657
11
144.363
21
-144.752
0
LINE
8
BLACK
6
CONTINUOUS
10
144.363
20
-144.752
11
144.173
21
-145.038
0
LINE
8
BLACK
6
CONTINUOUS
10
144.173
20
-145.038
11
144.077
21
-145.419
0
LINE
8
BLACK
6
CONTINUOUS
10
144.077
20
-145.419
11
144.077
21
-146.181
0
LINE
8
BLACK
6
CONTINUOUS
10
144.077
20
-146.181
11
144.173
21
-146.371
0
LINE
8
BLACK
6
CONTINUOUS
10
144.173
20
-146.371
11
144.268
21
-146.466
0
LINE
8
BLACK
6
CONTINUOUS
10
144.268
20
-146.466
11
144.458
21
-146.562
0
LINE
8
BLACK
6
CONTINUOUS
10
144.458
20
-146.562
11
144.839
21
-146.562
0
LINE
8
BLACK
6
CONTINUOUS
10
144.839
20
-146.562
11
145.03
21
-146.466
0
LINE
8
BLACK
6
CONTINUOUS
10
145.03
20
-146.466
11
145.125
21
-146.371
0
LINE
8
BLACK
6
CONTINUOUS
10
145.125
20
-146.371
11
145.22
21
-146.181
0
LINE
8
BLACK
6
CONTINUOUS
10
145.22
20
-146.181
11
145.22
21
-145.704
0
LINE
8
BLACK
6
CONTINUOUS
10
145.22
20
-145.704
11
145.125
21
-145.514
0
LINE
8
BLACK
6
CONTINUOUS
10
145.125
20
-145.514
11
145.03
21
-145.419
0
LINE
8
BLACK
6
CONTINUOUS
10
145.03
20
-145.419
11
144.839
21
-145.323
0
LINE
8
BLACK
6
CONTINUOUS
10
144.839
20
-145.323
11
144.458
21
-145.323
0
LINE
8
BLACK
6
CONTINUOUS
10
144.458
20
-145.323
11
144.268
21
-145.419
0
LINE
8
BLACK
6
CONTINUOUS
10
144.268
20
-145.419
11
144.173
21
-145.514
0
LINE
8
BLACK
6
CONTINUOUS
10
144.173
20
-145.514
11
144.077
21
-145.704
0
LINE
8
BLACK
6
CONTINUOUS
10
146.458
20
-144.562
11
146.649
21
-144.562
0
LINE
8
BLACK
6
CONTINUOUS
10
146.649
20
-144.562
11
146.839
21
-144.657
0
LINE
8
BLACK
6
CONTINUOUS
10
146.839
20
-144.657
11
146.934
21
-144.752
0
LINE
8
BLACK
6
CONTINUOUS
10
146.934
20
-144.752
11
147.03
21
-144.943
0
LINE
8
BLACK
6
CONTINUOUS
10
147.03
20
-144.943
11
147.125
21
-145.323
0
LINE
8
BLACK
6
CONTINUOUS
10
147.125
20
-145.323
11
147.125
21
-145.8
0
LINE
8
BLACK
6
CONTINUOUS
10
147.125
20
-145.8
11
147.03
21
-146.181
0
LINE
8
BLACK
6
CONTINUOUS
10
147.03
20
-146.181
11
146.934
21
-146.371
0
LINE
8
BLACK
6
CONTINUOUS
10
146.934
20
-146.371
11
146.839
21
-146.466
0
LINE
8
BLACK
6
CONTINUOUS
10
146.839
20
-146.466
11
146.649
21
-146.562
0
LINE
8
BLACK
6
CONTINUOUS
10
146.649
20
-146.562
11
146.458
21
-146.562
0
LINE
8
BLACK
6
CONTINUOUS
10
146.458
20
-146.562
11
146.268
21
-146.466
0
LINE
8
BLACK
6
CONTINUOUS
10
146.268
20
-146.466
11
146.173
21
-146.371
0
LINE
8
BLACK
6
CONTINUOUS
10
146.173
20
-146.371
11
146.077
21
-146.181
0
LINE
8
BLACK
6
CONTINUOUS
10
146.077
20
-146.181
11
145.982
21
-145.8
0
LINE
8
BLACK
6
CONTINUOUS
10
145.982
20
-145.8
11
145.982
21
-145.323
0
LINE
8
BLACK
6
CONTINUOUS
10
145.982
20
-145.323
11
146.077
21
-144.943
0
LINE
8
BLACK
6
CONTINUOUS
10
146.077
20
-144.943
11
146.173
21
-144.752
0
LINE
8
BLACK
6
CONTINUOUS
10
146.173
20
-144.752
11
146.268
21
-144.657
0
LINE
8
BLACK
6
CONTINUOUS
10
146.268
20
-144.657
11
146.458
21
-144.562
0
LINE
8
BLACK
6
CONTINUOUS
10
147.887
20
-144.562
11
147.887
21
-144.943
0
LINE
8
BLACK
6
CONTINUOUS
10
148.649
20
-144.562
11
148.649
21
-144.943
0
LINE
8
BLACK
6
CONTINUOUS
10
151.601
20
-147.323
11
151.506
21
-147.228
0
LINE
8
BLACK
6
CONTINUOUS
10
151.506
20
-147.228
11
151.315
21
-146.943
0
LINE
8
BLACK
6
CONTINUOUS
10
151.315
20
-146.943
11
151.22
21
-146.752
0
LINE
8
BLACK
6
CONTINUOUS
10
151.22
20
-146.752
11
151.125
21
-146.466
0
LINE
8
BLACK
6
CONTINUOUS
10
151.125
20
-146.466
11
151.03
21
-145.99
0
LINE
8
BLACK
6
CONTINUOUS
10
151.03
20
-145.99
11
151.03
21
-145.609
0
LINE
8
BLACK
6
CONTINUOUS
10
151.03
20
-145.609
11
151.125
21
-145.133
0
LINE
8
BLACK
6
CONTINUOUS
10
151.125
20
-145.133
11
151.22
21
-144.847
0
LINE
8
BLACK
6
CONTINUOUS
10
151.22
20
-144.847
11
151.315
21
-144.657
0
LINE
8
BLACK
6
CONTINUOUS
10
151.315
20
-144.657
11
151.506
21
-144.371
0
LINE
8
BLACK
6
CONTINUOUS
10
151.506
20
-144.371
11
151.601
21
-144.276
0
LINE
8
BLACK
6
CONTINUOUS
10
152.268
20
-144.752
11
152.363
21
-144.657
0
LINE
8
BLACK
6
CONTINUOUS
10
152.363
20
-144.657
11
152.554
21
-144.562
0
LINE
8
BLACK
6
CONTINUOUS
10
152.554
20
-144.562
11
153.03
21
-144.562
0
LINE
8
BLACK
6
CONTINUOUS
10
153.03
20
-144.562
11
153.22
21
-144.657
0
LINE
8
BLACK
6
CONTINUOUS
10
153.22
20
-144.657
11
153.315
21
-144.752
0
LINE
8
BLACK
6
CONTINUOUS
10
153.315
20
-144.752
11
153.411
21
-144.943
0
LINE
8
BLACK
6
CONTINUOUS
10
153.411
20
-144.943
11
153.411
21
-145.133
0
LINE
8
BLACK
6
CONTINUOUS
10
153.411
20
-145.133
11
153.315
21
-145.419
0
LINE
8
BLACK
6
CONTINUOUS
10
153.315
20
-145.419
11
152.173
21
-146.562
0
LINE
8
BLACK
6
CONTINUOUS
10
152.173
20
-146.562
11
153.411
21
-146.562
0
LINE
8
BLACK
6
CONTINUOUS
10
155.792
20
-146.562
11
155.792
21
-144.562
0
LINE
8
BLACK
6
CONTINUOUS
10
156.649
20
-146.562
11
156.649
21
-145.514
0
LINE
8
BLACK
6
CONTINUOUS
10
156.649
20
-145.514
11
156.554
21
-145.323
0
LINE
8
BLACK
6
CONTINUOUS
10
156.554
20
-145.323
11
156.363
21
-145.228
0
LINE
8
BLACK
6
CONTINUOUS
10
156.363
20
-145.228
11
156.077
21
-145.228
0
LINE
8
BLACK
6
CONTINUOUS
10
156.077
20
-145.228
11
155.887
21
-145.323
0
LINE
8
BLACK
6
CONTINUOUS
10
155.887
20
-145.323
11
155.792
21
-145.419
0
LINE
8
BLACK
6
CONTINUOUS
10
157.887
20
-146.562
11
157.696
21
-146.466
0
LINE
8
BLACK
6
CONTINUOUS
10
157.696
20
-146.466
11
157.601
21
-146.371
0
LINE
8
BLACK
6
CONTINUOUS
10
157.601
20
-146.371
11
157.506
21
-146.181
0
LINE
8
BLACK
6
CONTINUOUS
10
157.506
20
-146.181
11
157.506
21
-145.609
0
LINE
8
BLACK
6
CONTINUOUS
10
157.506
20
-145.609
11
157.601
21
-145.419
0
LINE
8
BLACK
6
CONTINUOUS
10
157.601
20
-145.419
11
157.696
21
-145.323
0
LINE
8
BLACK
6
CONTINUOUS
10
157.696
20
-145.323
11
157.887
21
-145.228
0
LINE
8
BLACK
6
CONTINUOUS
10
157.887
20
-145.228
11
158.173
21
-145.228
0
LINE
8
BLACK
6
CONTINUOUS
10
158.173
20
-145.228
11
158.363
21
-145.323
0
LINE
8
BLACK
6
CONTINUOUS
10
158.363
20
-145.323
11
158.458
21
-145.419
0
LINE
8
BLACK
6
CONTINUOUS
10
158.458
20
-145.419
11
158.554
21
-145.609
0
LINE
8
BLACK
6
CONTINUOUS
10
158.554
20
-145.609
11
158.554
21
-146.181
0
LINE
8
BLACK
6
CONTINUOUS
10
158.554
20
-146.181
11
158.458
21
-146.371
0
LINE
8
BLACK
6
CONTINUOUS
10
158.458
20
-146.371
11
158.363
21
-146.466
0
LINE
8
BLACK
6
CONTINUOUS
10
158.363
20
-146.466
11
158.173
21
-146.562
0
LINE
8
BLACK
6
CONTINUOUS
10
158.173
20
-146.562
11
157.887
21
-146.562
0
LINE
8
BLACK
6
CONTINUOUS
10
159.696
20
-146.562
11
159.506
21
-146.466
0
LINE
8
BLACK
6
CONTINUOUS
10
159.506
20
-146.466
11
159.411
21
-146.276
0
LINE
8
BLACK
6
CONTINUOUS
10
159.411
20
-146.276
11
159.411
21
-144.562
0
LINE
8
BLACK
6
CONTINUOUS
10
161.22
20
-146.466
11
161.03
21
-146.562
0
LINE
8
BLACK
6
CONTINUOUS
10
161.03
20
-146.562
11
160.649
21
-146.562
0
LINE
8
BLACK
6
CONTINUOUS
10
160.649
20
-146.562
11
160.458
21
-146.466
0
LINE
8
BLACK
6
CONTINUOUS
10
160.458
20
-146.466
11
160.363
21
-146.276
0
LINE
8
BLACK
6
CONTINUOUS
10
160.363
20
-146.276
11
160.363
21
-145.514
0
LINE
8
BLACK
6
CONTINUOUS
10
160.363
20
-145.514
11
160.458
21
-145.323
0
LINE
8
BLACK
6
CONTINUOUS
10
160.458
20
-145.323
11
160.649
21
-145.228
0
LINE
8
BLACK
6
CONTINUOUS
10
160.649
20
-145.228
11
161.03
21
-145.228
0
LINE
8
BLACK
6
CONTINUOUS
10
161.03
20
-145.228
11
161.22
21
-145.323
0
LINE
8
BLACK
6
CONTINUOUS
10
161.22
20
-145.323
11
161.315
21
-145.514
0
LINE
8
BLACK
6
CONTINUOUS
10
161.315
20
-145.514
11
161.315
21
-145.704
0
LINE
8
BLACK
6
CONTINUOUS
10
161.315
20
-145.704
11
160.363
21
-145.895
0
LINE
8
BLACK
6
CONTINUOUS
10
162.077
20
-146.466
11
162.268
21
-146.562
0
LINE
8
BLACK
6
CONTINUOUS
10
162.268
20
-146.562
11
162.649
21
-146.562
0
LINE
8
BLACK
6
CONTINUOUS
10
162.649
20
-146.562
11
162.839
21
-146.466
0
LINE
8
BLACK
6
CONTINUOUS
10
162.839
20
-146.466
11
162.934
21
-146.276
0
LINE
8
BLACK
6
CONTINUOUS
10
162.934
20
-146.276
11
162.934
21
-146.181
0
LINE
8
BLACK
6
CONTINUOUS
10
162.934
20
-146.181
11
162.839
21
-145.99
0
LINE
8
BLACK
6
CONTINUOUS
10
162.839
20
-145.99
11
162.649
21
-145.895
0
LINE
8
BLACK
6
CONTINUOUS
10
162.649
20
-145.895
11
162.363
21
-145.895
0
LINE
8
BLACK
6
CONTINUOUS
10
162.363
20
-145.895
11
162.173
21
-145.8
0
LINE
8
BLACK
6
CONTINUOUS
10
162.173
20
-145.8
11
162.077
21
-145.609
0
LINE
8
BLACK
6
CONTINUOUS
10
162.077
20
-145.609
11
162.077
21
-145.514
0
LINE
8
BLACK
6
CONTINUOUS
10
162.077
20
-145.514
11
162.173
21
-145.323
0
LINE
8
BLACK
6
CONTINUOUS
10
162.173
20
-145.323
11
162.363
21
-145.228
0
LINE
8
BLACK
6
CONTINUOUS
10
162.363
20
-145.228
11
162.649
21
-145.228
0
LINE
8
BLACK
6
CONTINUOUS
10
162.649
20
-145.228
11
162.839
21
-145.323
0
LINE
8
BLACK
6
CONTINUOUS
10
163.601
20
-147.323
11
163.696
21
-147.228
0
LINE
8
BLACK
6
CONTINUOUS
10
163.696
20
-147.228
11
163.887
21
-146.943
0
LINE
8
BLACK
6
CONTINUOUS
10
163.887
20
-146.943
11
163.982
21
-146.752
0
LINE
8
BLACK
6
CONTINUOUS
10
163.982
20
-146.752
11
164.077
21
-146.466
0
LINE
8
BLACK
6
CONTINUOUS
10
164.077
20
-146.466
11
164.173
21
-145.99
0
LINE
8
BLACK
6
CONTINUOUS
10
164.173
20
-145.99
11
164.173
21
-145.609
0
LINE
8
BLACK
6
CONTINUOUS
10
164.173
20
-145.609
11
164.077
21
-145.133
0
LINE
8
BLACK
6
CONTINUOUS
10
164.077
20
-145.133
11
163.982
21
-144.847
0
LINE
8
BLACK
6
CONTINUOUS
10
163.982
20
-144.847
11
163.887
21
-144.657
0
LINE
8
BLACK
6
CONTINUOUS
10
163.887
20
-144.657
11
163.696
21
-144.371
0
LINE
8
BLACK
6
CONTINUOUS
10
163.696
20
-144.371
11
163.601
21
-144.276
0
LINE
8
BLACK
6
CONTINUOUS
10
113.85
20
-147.847
11
115.85
21
-149.847
0
LINE
8
BLACK
6
CONTINUOUS
10
115.85
20
-147.847
11
113.85
21
-149.847
0
CIRCLE
8
BLACK
10
114.85
20
-148.847
40
1
0
LINE
8
BLACK
6
CONTINUOUS
10
118.268
20
-147.762
11
119.506
21
-147.762
0
LINE
8
BLACK
6
CONTINUOUS
10
119.506
20
-147.762
11
118.839
21
-148.523
0
LINE
8
BLACK
6
CONTINUOUS
10
118.839
20
-148.523
11
119.125
21
-148.523
0
LINE
8
BLACK
6
CONTINUOUS
10
119.125
20
-148.523
11
119.315
21
-148.619
0
LINE
8
BLACK
6
CONTINUOUS
10
119.315
20
-148.619
11
119.411
21
-148.714
0
LINE
8
BLACK
6
CONTINUOUS
10
119.411
20
-148.714
11
119.506
21
-148.904
0
LINE
8
BLACK
6
CONTINUOUS
10
119.506
20
-148.904
11
119.506
21
-149.381
0
LINE
8
BLACK
6
CONTINUOUS
10
119.506
20
-149.381
11
119.411
21
-149.571
0
LINE
8
BLACK
6
CONTINUOUS
10
119.411
20
-149.571
11
119.315
21
-149.666
0
LINE
8
BLACK
6
CONTINUOUS
10
119.315
20
-149.666
11
119.125
21
-149.762
0
LINE
8
BLACK
6
CONTINUOUS
10
119.125
20
-149.762
11
118.554
21
-149.762
0
LINE
8
BLACK
6
CONTINUOUS
10
118.554
20
-149.762
11
118.363
21
-149.666
0
LINE
8
BLACK
6
CONTINUOUS
10
118.363
20
-149.666
11
118.268
21
-149.571
0
LINE
8
BLACK
6
CONTINUOUS
10
120.363
20
-149.571
11
120.458
21
-149.666
0
LINE
8
BLACK
6
CONTINUOUS
10
120.458
20
-149.666
11
120.363
21
-149.762
0
LINE
8
BLACK
6
CONTINUOUS
10
120.363
20
-149.762
11
120.268
21
-149.666
0
LINE
8
BLACK
6
CONTINUOUS
10
120.268
20
-149.666
11
120.363
21
-149.571
0
LINE
8
BLACK
6
CONTINUOUS
10
120.363
20
-149.571
11
120.363
21
-149.762
0
LINE
8
BLACK
6
CONTINUOUS
10
121.22
20
-147.952
11
121.315
21
-147.857
0
LINE
8
BLACK
6
CONTINUOUS
10
121.315
20
-147.857
11
121.506
21
-147.762
0
LINE
8
BLACK
6
CONTINUOUS
10
121.506
20
-147.762
11
121.982
21
-147.762
0
LINE
8
BLACK
6
CONTINUOUS
10
121.982
20
-147.762
11
122.173
21
-147.857
0
LINE
8
BLACK
6
CONTINUOUS
10
122.173
20
-147.857
11
122.268
21
-147.952
0
LINE
8
BLACK
6
CONTINUOUS
10
122.268
20
-147.952
11
122.363
21
-148.143
0
LINE
8
BLACK
6
CONTINUOUS
10
122.363
20
-148.143
11
122.363
21
-148.333
0
LINE
8
BLACK
6
CONTINUOUS
10
122.363
20
-148.333
11
122.268
21
-148.619
0
LINE
8
BLACK
6
CONTINUOUS
10
122.268
20
-148.619
11
121.125
21
-149.762
0
LINE
8
BLACK
6
CONTINUOUS
10
121.125
20
-149.762
11
122.363
21
-149.762
0
LINE
8
BLACK
6
CONTINUOUS
10
123.601
20
-147.762
11
123.792
21
-147.762
0
LINE
8
BLACK
6
CONTINUOUS
10
123.792
20
-147.762
11
123.982
21
-147.857
0
LINE
8
BLACK
6
CONTINUOUS
10
123.982
20
-147.857
11
124.077
21
-147.952
0
LINE
8
BLACK
6
CONTINUOUS
10
124.077
20
-147.952
11
124.173
21
-148.143
0
LINE
8
BLACK
6
CONTINUOUS
10
124.173
20
-148.143
11
124.268
21
-148.523
0
LINE
8
BLACK
6
CONTINUOUS
10
124.268
20
-148.523
11
124.268
21
-149
0
LINE
8
BLACK
6
CONTINUOUS
10
124.268
20
-149
11
124.173
21
-149.381
0
LINE
8
BLACK
6
CONTINUOUS
10
124.173
20
-149.381
11
124.077
21
-149.571
0
LINE
8
BLACK
6
CONTINUOUS
10
124.077
20
-149.571
11
123.982
21
-149.666
0
LINE
8
BLACK
6
CONTINUOUS
10
123.982
20
-149.666
11
123.792
21
-149.762
0
LINE
8
BLACK
6
CONTINUOUS
10
123.792
20
-149.762
11
123.601
21
-149.762
0
LINE
8
BLACK
6
CONTINUOUS
10
123.601
20
-149.762
11
123.411
21
-149.666
0
LINE
8
BLACK
6
CONTINUOUS
10
123.411
20
-149.666
11
123.315
21
-149.571
0
LINE
8
BLACK
6
CONTINUOUS
10
123.315
20
-149.571
11
123.22
21
-149.381
0
LINE
8
BLACK
6
CONTINUOUS
10
123.22
20
-149.381
11
123.125
21
-149
0
LINE
8
BLACK
6
CONTINUOUS
10
123.125
20
-149
11
123.125
21
-148.523
0
LINE
8
BLACK
6
CONTINUOUS
10
123.125
20
-148.523
11
123.22
21
-148.143
0
LINE
8
BLACK
6
CONTINUOUS
10
123.22
20
-148.143
11
123.315
21
-147.952
0
LINE
8
BLACK
6
CONTINUOUS
10
123.315
20
-147.952
11
123.411
21
-147.857
0
LINE
8
BLACK
6
CONTINUOUS
10
123.411
20
-147.857
11
123.601
21
-147.762
0
LINE
8
BLACK
6
CONTINUOUS
10
125.506
20
-147.762
11
125.696
21
-147.762
0
LINE
8
BLACK
6
CONTINUOUS
10
125.696
20
-147.762
11
125.887
21
-147.857
0
LINE
8
BLACK
6
CONTINUOUS
10
125.887
20
-147.857
11
125.982
21
-147.952
0
LINE
8
BLACK
6
CONTINUOUS
10
125.982
20
-147.952
11
126.077
21
-148.143
0
LINE
8
BLACK
6
CONTINUOUS
10
126.077
20
-148.143
11
126.173
21
-148.523
0
LINE
8
BLACK
6
CONTINUOUS
10
126.173
20
-148.523
11
126.173
21
-149
0
LINE
8
BLACK
6
CONTINUOUS
10
126.173
20
-149
11
126.077
21
-149.381
0
LINE
8
BLACK
6
CONTINUOUS
10
126.077
20
-149.381
11
125.982
21
-149.571
0
LINE
8
BLACK
6
CONTINUOUS
10
125.982
20
-149.571
11
125.887
21
-149.666
0
LINE
8
BLACK
6
CONTINUOUS
10
125.887
20
-149.666
11
125.696
21
-149.762
0
LINE
8
BLACK
6
CONTINUOUS
10
125.696
20
-149.762
11
125.506
21
-149.762
0
LINE
8
BLACK
6
CONTINUOUS
10
125.506
20
-149.762
11
125.315
21
-149.666
0
LINE
8
BLACK
6
CONTINUOUS
10
125.315
20
-149.666
11
125.22
21
-149.571
0
LINE
8
BLACK
6
CONTINUOUS
10
125.22
20
-149.571
11
125.125
21
-149.381
0
LINE
8
BLACK
6
CONTINUOUS
10
125.125
20
-149.381
11
125.03
21
-149
0
LINE
8
BLACK
6
CONTINUOUS
10
125.03
20
-149
11
125.03
21
-148.523
0
LINE
8
BLACK
6
CONTINUOUS
10
125.03
20
-148.523
11
125.125
21
-148.143
0
LINE
8
BLACK
6
CONTINUOUS
10
125.125
20
-148.143
11
125.22
21
-147.952
0
LINE
8
BLACK
6
CONTINUOUS
10
125.22
20
-147.952
11
125.315
21
-147.857
0
LINE
8
BLACK
6
CONTINUOUS
10
125.315
20
-147.857
11
125.506
21
-147.762
0
LINE
8
BLACK
6
CONTINUOUS
10
127.03
20
-149.762
11
127.03
21
-148.428
0
LINE
8
BLACK
6
CONTINUOUS
10
127.03
20
-148.619
11
127.125
21
-148.523
0
LINE
8
BLACK
6
CONTINUOUS
10
127.125
20
-148.523
11
127.315
21
-148.428
0
LINE
8
BLACK
6
CONTINUOUS
10
127.315
20
-148.428
11
127.601
21
-148.428
0
LINE
8
BLACK
6
CONTINUOUS
10
127.601
20
-148.428
11
127.792
21
-148.523
0
LINE
8
BLACK
6
CONTINUOUS
10
127.792
20
-148.523
11
127.887
21
-148.714
0
LINE
8
BLACK
6
CONTINUOUS
10
127.887
20
-148.714
11
127.887
21
-149.762
0
LINE
8
BLACK
6
CONTINUOUS
10
127.887
20
-148.714
11
127.982
21
-148.523
0
LINE
8
BLACK
6
CONTINUOUS
10
127.982
20
-148.523
11
128.173
21
-148.428
0
LINE
8
BLACK
6
CONTINUOUS
10
128.173
20
-148.428
11
128.458
21
-148.428
0
LINE
8
BLACK
6
CONTINUOUS
10
128.458
20
-148.428
11
128.649
21
-148.523
0
LINE
8
BLACK
6
CONTINUOUS
10
128.649
20
-148.523
11
128.744
21
-148.714
0
LINE
8
BLACK
6
CONTINUOUS
10
128.744
20
-148.714
11
128.744
21
-149.762
0
LINE
8
BLACK
6
CONTINUOUS
10
129.696
20
-149.762
11
129.696
21
-148.428
0
LINE
8
BLACK
6
CONTINUOUS
10
129.696
20
-148.619
11
129.792
21
-148.523
0
LINE
8
BLACK
6
CONTINUOUS
10
129.792
20
-148.523
11
129.982
21
-148.428
0
LINE
8
BLACK
6
CONTINUOUS
10
129.982
20
-148.428
11
130.268
21
-148.428
0
LINE
8
BLACK
6
CONTINUOUS
10
130.268
20
-148.428
11
130.458
21
-148.523
0
LINE
8
BLACK
6
CONTINUOUS
10
130.458
20
-148.523
11
130.554
21
-148.714
0
LINE
8
BLACK
6
CONTINUOUS
10
130.554
20
-148.714
11
130.554
21
-149.762
0
LINE
8
BLACK
6
CONTINUOUS
10
130.554
20
-148.714
11
130.649
21
-148.523
0
LINE
8
BLACK
6
CONTINUOUS
10
130.649
20
-148.523
11
130.839
21
-148.428
0
LINE
8
BLACK
6
CONTINUOUS
10
130.839
20
-148.428
11
131.125
21
-148.428
0
LINE
8
BLACK
6
CONTINUOUS
10
131.125
20
-148.428
11
131.315
21
-148.523
0
LINE
8
BLACK
6
CONTINUOUS
10
131.315
20
-148.523
11
131.411
21
-148.714
0
LINE
8
BLACK
6
CONTINUOUS
10
131.411
20
-148.714
11
131.411
21
-149.762
0
LINE
8
BLACK
6
CONTINUOUS
10
135.315
20
-147.666
11
133.601
21
-150.238
0
LINE
8
BLACK
6
CONTINUOUS
10
137.887
20
-147.762
11
138.077
21
-147.762
0
LINE
8
BLACK
6
CONTINUOUS
10
138.077
20
-147.762
11
138.268
21
-147.857
0
LINE
8
BLACK
6
CONTINUOUS
10
138.268
20
-147.857
11
138.363
21
-147.952
0
LINE
8
BLACK
6
CONTINUOUS
10
138.363
20
-147.952
11
138.458
21
-148.143
0
LINE
8
BLACK
6
CONTINUOUS
10
138.458
20
-148.143
11
138.554
21
-148.523
0
LINE
8
BLACK
6
CONTINUOUS
10
138.554
20
-148.523
11
138.554
21
-149
0
LINE
8
BLACK
6
CONTINUOUS
10
138.554
20
-149
11
138.458
21
-149.381
0
LINE
8
BLACK
6
CONTINUOUS
10
138.458
20
-149.381
11
138.363
21
-149.571
0
LINE
8
BLACK
6
CONTINUOUS
10
138.363
20
-149.571
11
138.268
21
-149.666
0
LINE
8
BLACK
6
CONTINUOUS
10
138.268
20
-149.666
11
138.077
21
-149.762
0
LINE
8
BLACK
6
CONTINUOUS
10
138.077
20
-149.762
11
137.887
21
-149.762
0
LINE
8
BLACK
6
CONTINUOUS
10
137.887
20
-149.762
11
137.696
21
-149.666
0
LINE
8
BLACK
6
CONTINUOUS
10
137.696
20
-149.666
11
137.601
21
-149.571
0
LINE
8
BLACK
6
CONTINUOUS
10
137.601
20
-149.571
11
137.506
21
-149.381
0
LINE
8
BLACK
6
CONTINUOUS
10
137.506
20
-149.381
11
137.411
21
-149
0
LINE
8
BLACK
6
CONTINUOUS
10
137.411
20
-149
11
137.411
21
-148.523
0
LINE
8
BLACK
6
CONTINUOUS
10
137.411
20
-148.523
11
137.506
21
-148.143
0
LINE
8
BLACK
6
CONTINUOUS
10
137.506
20
-148.143
11
137.601
21
-147.952
0
LINE
8
BLACK
6
CONTINUOUS
10
137.601
20
-147.952
11
137.696
21
-147.857
0
LINE
8
BLACK
6
CONTINUOUS
10
137.696
20
-147.857
11
137.887
21
-147.762
0
LINE
8
BLACK
6
CONTINUOUS
10
139.411
20
-149.571
11
139.506
21
-149.666
0
LINE
8
BLACK
6
CONTINUOUS
10
139.506
20
-149.666
11
139.411
21
-149.762
0
LINE
8
BLACK
6
CONTINUOUS
10
139.411
20
-149.762
11
139.315
21
-149.666
0
LINE
8
BLACK
6
CONTINUOUS
10
139.315
20
-149.666
11
139.411
21
-149.571
0
LINE
8
BLACK
6
CONTINUOUS
10
139.411
20
-149.571
11
139.411
21
-149.762
0
LINE
8
BLACK
6
CONTINUOUS
10
141.411
20
-149.762
11
140.268
21
-149.762
0
LINE
8
BLACK
6
CONTINUOUS
10
140.839
20
-149.762
11
140.839
21
-147.762
0
LINE
8
BLACK
6
CONTINUOUS
10
140.839
20
-147.762
11
140.649
21
-148.047
0
LINE
8
BLACK
6
CONTINUOUS
10
140.649
20
-148.047
11
140.458
21
-148.238
0
LINE
8
BLACK
6
CONTINUOUS
10
140.458
20
-148.238
11
140.268
21
-148.333
0
LINE
8
BLACK
6
CONTINUOUS
10
142.173
20
-147.952
11
142.268
21
-147.857
0
LINE
8
BLACK
6
CONTINUOUS
10
142.268
20
-147.857
11
142.458
21
-147.762
0
LINE
8
BLACK
6
CONTINUOUS
10
142.458
20
-147.762
11
142.934
21
-147.762
0
LINE
8
BLACK
6
CONTINUOUS
10
142.934
20
-147.762
11
143.125
21
-147.857
0
LINE
8
BLACK
6
CONTINUOUS
10
143.125
20
-147.857
11
143.22
21
-147.952
0
LINE
8
BLACK
6
CONTINUOUS
10
143.22
20
-147.952
11
143.315
21
-148.143
0
LINE
8
BLACK
6
CONTINUOUS
10
143.315
20
-148.143
11
143.315
21
-148.333
0
LINE
8
BLACK
6
CONTINUOUS
10
143.315
20
-148.333
11
143.22
21
-148.619
0
LINE
8
BLACK
6
CONTINUOUS
10
143.22
20
-148.619
11
142.077
21
-149.762
0
LINE
8
BLACK
6
CONTINUOUS
10
142.077
20
-149.762
11
143.315
21
-149.762
0
LINE
8
BLACK
6
CONTINUOUS
10
145.03
20
-147.762
11
144.649
21
-147.762
0
LINE
8
BLACK
6
CONTINUOUS
10
144.649
20
-147.762
11
144.458
21
-147.857
0
LINE
8
BLACK
6
CONTINUOUS
10
144.458
20
-147.857
11
144.363
21
-147.952
0
LINE
8
BLACK
6
CONTINUOUS
10
144.363
20
-147.952
11
144.173
21
-148.238
0
LINE
8
BLACK
6
CONTINUOUS
10
144.173
20
-148.238
11
144.077
21
-148.619
0
LINE
8
BLACK
6
CONTINUOUS
10
144.077
20
-148.619
11
144.077
21
-149.381
0
LINE
8
BLACK
6
CONTINUOUS
10
144.077
20
-149.381
11
144.173
21
-149.571
0
LINE
8
BLACK
6
CONTINUOUS
10
144.173
20
-149.571
11
144.268
21
-149.666
0
LINE
8
BLACK
6
CONTINUOUS
10
144.268
20
-149.666
11
144.458
21
-149.762
0
LINE
8
BLACK
6
CONTINUOUS
10
144.458
20
-149.762
11
144.839
21
-149.762
0
LINE
8
BLACK
6
CONTINUOUS
10
144.839
20
-149.762
11
145.03
21
-149.666
0
LINE
8
BLACK
6
CONTINUOUS
10
145.03
20
-149.666
11
145.125
21
-149.571
0
LINE
8
BLACK
6
CONTINUOUS
10
145.125
20
-149.571
11
145.22
21
-149.381
0
LINE
8
BLACK
6
CONTINUOUS
10
145.22
20
-149.381
11
145.22
21
-148.904
0
LINE
8
BLACK
6
CONTINUOUS
10
145.22
20
-148.904
11
145.125
21
-148.714
0
LINE
8
BLACK
6
CONTINUOUS
10
145.125
20
-148.714
11
145.03
21
-148.619
0
LINE
8
BLACK
6
CONTINUOUS
10
145.03
20
-148.619
11
144.839
21
-148.523
0
LINE
8
BLACK
6
CONTINUOUS
10
144.839
20
-148.523
11
144.458
21
-148.523
0
LINE
8
BLACK
6
CONTINUOUS
10
144.458
20
-148.523
11
144.268
21
-148.619
0
LINE
8
BLACK
6
CONTINUOUS
10
144.268
20
-148.619
11
144.173
21
-148.714
0
LINE
8
BLACK
6
CONTINUOUS
10
144.173
20
-148.714
11
144.077
21
-148.904
0
LINE
8
BLACK
6
CONTINUOUS
10
146.458
20
-147.762
11
146.649
21
-147.762
0
LINE
8
BLACK
6
CONTINUOUS
10
146.649
20
-147.762
11
146.839
21
-147.857
0
LINE
8
BLACK
6
CONTINUOUS
10
146.839
20
-147.857
11
146.934
21
-147.952
0
LINE
8
BLACK
6
CONTINUOUS
10
146.934
20
-147.952
11
147.03
21
-148.143
0
LINE
8
BLACK
6
CONTINUOUS
10
147.03
20
-148.143
11
147.125
21
-148.523
0
LINE
8
BLACK
6
CONTINUOUS
10
147.125
20
-148.523
11
147.125
21
-149
0
LINE
8
BLACK
6
CONTINUOUS
10
147.125
20
-149
11
147.03
21
-149.381
0
LINE
8
BLACK
6
CONTINUOUS
10
147.03
20
-149.381
11
146.934
21
-149.571
0
LINE
8
BLACK
6
CONTINUOUS
10
146.934
20
-149.571
11
146.839
21
-149.666
0
LINE
8
BLACK
6
CONTINUOUS
10
146.839
20
-149.666
11
146.649
21
-149.762
0
LINE
8
BLACK
6
CONTINUOUS
10
146.649
20
-149.762
11
146.458
21
-149.762
0
LINE
8
BLACK
6
CONTINUOUS
10
146.458
20
-149.762
11
146.268
21
-149.666
0
LINE
8
BLACK
6
CONTINUOUS
10
146.268
20
-149.666
11
146.173
21
-149.571
0
LINE
8
BLACK
6
CONTINUOUS
10
146.173
20
-149.571
11
146.077
21
-149.381
0
LINE
8
BLACK
6
CONTINUOUS
10
146.077
20
-149.381
11
145.982
21
-149
0
LINE
8
BLACK
6
CONTINUOUS
10
145.982
20
-149
11
145.982
21
-148.523
0
LINE
8
BLACK
6
CONTINUOUS
10
145.982
20
-148.523
11
146.077
21
-148.143
0
LINE
8
BLACK
6
CONTINUOUS
10
146.077
20
-148.143
11
146.173
21
-147.952
0
LINE
8
BLACK
6
CONTINUOUS
10
146.173
20
-147.952
11
146.268
21
-147.857
0
LINE
8
BLACK
6
CONTINUOUS
10
146.268
20
-147.857
11
146.458
21
-147.762
0
LINE
8
BLACK
6
CONTINUOUS
10
147.887
20
-147.762
11
147.887
21
-148.143
0
LINE
8
BLACK
6
CONTINUOUS
10
148.649
20
-147.762
11
148.649
21
-148.143
0
LINE
8
BLACK
6
CONTINUOUS
10
151.601
20
-150.523
11
151.506
21
-150.428
0
LINE
8
BLACK
6
CONTINUOUS
10
151.506
20
-150.428
11
151.315
21
-150.143
0
LINE
8
BLACK
6
CONTINUOUS
10
151.315
20
-150.143
11
151.22
21
-149.952
0
LINE
8
BLACK
6
CONTINUOUS
10
151.22
20
-149.952
11
151.125
21
-149.666
0
LINE
8
BLACK
6
CONTINUOUS
10
151.125
20
-149.666
11
151.03
21
-149.19
0
LINE
8
BLACK
6
CONTINUOUS
10
151.03
20
-149.19
11
151.03
21
-148.809
0
LINE
8
BLACK
6
CONTINUOUS
10
151.03
20
-148.809
11
151.125
21
-148.333
0
LINE
8
BLACK
6
CONTINUOUS
10
151.125
20
-148.333
11
151.22
21
-148.047
0
LINE
8
BLACK
6
CONTINUOUS
10
151.22
20
-148.047
11
151.315
21
-147.857
0
LINE
8
BLACK
6
CONTINUOUS
10
151.315
20
-147.857
11
151.506
21
-147.571
0
LINE
8
BLACK
6
CONTINUOUS
10
151.506
20
-147.571
11
151.601
21
-147.476
0
LINE
8
BLACK
6
CONTINUOUS
10
152.268
20
-147.952
11
152.363
21
-147.857
0
LINE
8
BLACK
6
CONTINUOUS
10
152.363
20
-147.857
11
152.554
21
-147.762
0
LINE
8
BLACK
6
CONTINUOUS
10
152.554
20
-147.762
11
153.03
21
-147.762
0
LINE
8
BLACK
6
CONTINUOUS
10
153.03
20
-147.762
11
153.22
21
-147.857
0
LINE
8
BLACK
6
CONTINUOUS
10
153.22
20
-147.857
11
153.315
21
-147.952
0
LINE
8
BLACK
6
CONTINUOUS
10
153.315
20
-147.952
11
153.411
21
-148.143
0
LINE
8
BLACK
6
CONTINUOUS
10
153.411
20
-148.143
11
153.411
21
-148.333
0
LINE
8
BLACK
6
CONTINUOUS
10
153.411
20
-148.333
11
153.315
21
-148.619
0
LINE
8
BLACK
6
CONTINUOUS
10
153.315
20
-148.619
11
152.173
21
-149.762
0
LINE
8
BLACK
6
CONTINUOUS
10
152.173
20
-149.762
11
153.411
21
-149.762
0
LINE
8
BLACK
6
CONTINUOUS
10
155.792
20
-149.762
11
155.792
21
-147.762
0
LINE
8
BLACK
6
CONTINUOUS
10
156.649
20
-149.762
11
156.649
21
-148.714
0
LINE
8
BLACK
6
CONTINUOUS
10
156.649
20
-148.714
11
156.554
21
-148.523
0
LINE
8
BLACK
6
CONTINUOUS
10
156.554
20
-148.523
11
156.363
21
-148.428
0
LINE
8
BLACK
6
CONTINUOUS
10
156.363
20
-148.428
11
156.077
21
-148.428
0
LINE
8
BLACK
6
CONTINUOUS
10
156.077
20
-148.428
11
155.887
21
-148.523
0
LINE
8
BLACK
6
CONTINUOUS
10
155.887
20
-148.523
11
155.792
21
-148.619
0
LINE
8
BLACK
6
CONTINUOUS
10
157.887
20
-149.762
11
157.696
21
-149.666
0
LINE
8
BLACK
6
CONTINUOUS
10
157.696
20
-149.666
11
157.601
21
-149.571
0
LINE
8
BLACK
6
CONTINUOUS
10
157.601
20
-149.571
11
157.506
21
-149.381
0
LINE
8
BLACK
6
CONTINUOUS
10
157.506
20
-149.381
11
157.506
21
-148.809
0
LINE
8
BLACK
6
CONTINUOUS
10
157.506
20
-148.809
11
157.601
21
-148.619
0
LINE
8
BLACK
6
CONTINUOUS
10
157.601
20
-148.619
11
157.696
21
-148.523
0
LINE
8
BLACK
6
CONTINUOUS
10
157.696
20
-148.523
11
157.887
21
-148.428
0
LINE
8
BLACK
6
CONTINUOUS
10
157.887
20
-148.428
11
158.173
21
-148.428
0
LINE
8
BLACK
6
CONTINUOUS
10
158.173
20
-148.428
11
158.363
21
-148.523
0
LINE
8
BLACK
6
CONTINUOUS
10
158.363
20
-148.523
11
158.458
21
-148.619
0
LINE
8
BLACK
6
CONTINUOUS
10
158.458
20
-148.619
11
158.554
21
-148.809
0
LINE
8
BLACK
6
CONTINUOUS
10
158.554
20
-148.809
11
158.554
21
-149.381
0
LINE
8
BLACK
6
CONTINUOUS
10
158.554
20
-149.381
11
158.458
21
-149.571
0
LINE
8
BLACK
6
CONTINUOUS
10
158.458
20
-149.571
11
158.363
21
-149.666
0
LINE
8
BLACK
6
CONTINUOUS
10
158.363
20
-149.666
11
158.173
21
-149.762
0
LINE
8
BLACK
6
CONTINUOUS
10
158.173
20
-149.762
11
157.887
21
-149.762
0
LINE
8
BLACK
6
CONTINUOUS
10
159.696
20
-149.762
11
159.506
21
-149.666
0
LINE
8
BLACK
6
CONTINUOUS
10
159.506
20
-149.666
11
159.411
21
-149.476
0
LINE
8
BLACK
6
CONTINUOUS
10
159.411
20
-149.476
11
159.411
21
-147.762
0
LINE
8
BLACK
6
CONTINUOUS
10
161.22
20
-149.666
11
161.03
21
-149.762
0
LINE
8
BLACK
6
CONTINUOUS
10
161.03
20
-149.762
11
160.649
21
-149.762
0
LINE
8
BLACK
6
CONTINUOUS
10
160.649
20
-149.762
11
160.458
21
-149.666
0
LINE
8
BLACK
6
CONTINUOUS
10
160.458
20
-149.666
11
160.363
21
-149.476
0
LINE
8
BLACK
6
CONTINUOUS
10
160.363
20
-149.476
11
160.363
21
-148.714
0
LINE
8
BLACK
6
CONTINUOUS
10
160.363
20
-148.714
11
160.458
21
-148.523
0
LINE
8
BLACK
6
CONTINUOUS
10
160.458
20
-148.523
11
160.649
21
-148.428
0
LINE
8
BLACK
6
CONTINUOUS
10
160.649
20
-148.428
11
161.03
21
-148.428
0
LINE
8
BLACK
6
CONTINUOUS
10
161.03
20
-148.428
11
161.22
21
-148.523
0
LINE
8
BLACK
6
CONTINUOUS
10
161.22
20
-148.523
11
161.315
21
-148.714
0
LINE
8
BLACK
6
CONTINUOUS
10
161.315
20
-148.714
11
161.315
21
-148.904
0
LINE
8
BLACK
6
CONTINUOUS
10
161.315
20
-148.904
11
160.363
21
-149.095
0
LINE
8
BLACK
6
CONTINUOUS
10
162.077
20
-149.666
11
162.268
21
-149.762
0
LINE
8
BLACK
6
CONTINUOUS
10
162.268
20
-149.762
11
162.649
21
-149.762
0
LINE
8
BLACK
6
CONTINUOUS
10
162.649
20
-149.762
11
162.839
21
-149.666
0
LINE
8
BLACK
6
CONTINUOUS
10
162.839
20
-149.666
11
162.934
21
-149.476
0
LINE
8
BLACK
6
CONTINUOUS
10
162.934
20
-149.476
11
162.934
21
-149.381
0
LINE
8
BLACK
6
CONTINUOUS
10
162.934
20
-149.381
11
162.839
21
-149.19
0
LINE
8
BLACK
6
CONTINUOUS
10
162.839
20
-149.19
11
162.649
21
-149.095
0
LINE
8
BLACK
6
CONTINUOUS
10
162.649
20
-149.095
11
162.363
21
-149.095
0
LINE
8
BLACK
6
CONTINUOUS
10
162.363
20
-149.095
11
162.173
21
-149
0
LINE
8
BLACK
6
CONTINUOUS
10
162.173
20
-149
11
162.077
21
-148.809
0
LINE
8
BLACK
6
CONTINUOUS
10
162.077
20
-148.809
11
162.077
21
-148.714
0
LINE
8
BLACK
6
CONTINUOUS
10
162.077
20
-148.714
11
162.173
21
-148.523
0
LINE
8
BLACK
6
CONTINUOUS
10
162.173
20
-148.523
11
162.363
21
-148.428
0
LINE
8
BLACK
6
CONTINUOUS
10
162.363
20
-148.428
11
162.649
21
-148.428
0
LINE
8
BLACK
6
CONTINUOUS
10
162.649
20
-148.428
11
162.839
21
-148.523
0
LINE
8
BLACK
6
CONTINUOUS
10
163.601
20
-150.523
11
163.696
21
-150.428
0
LINE
8
BLACK
6
CONTINUOUS
10
163.696
20
-150.428
11
163.887
21
-150.143
0
LINE
8
BLACK
6
CONTINUOUS
10
163.887
20
-150.143
11
163.982
21
-149.952
0
LINE
8
BLACK
6
CONTINUOUS
10
163.982
20
-149.952
11
164.077
21
-149.666
0
LINE
8
BLACK
6
CONTINUOUS
10
164.077
20
-149.666
11
164.173
21
-149.19
0
LINE
8
BLACK
6
CONTINUOUS
10
164.173
20
-149.19
11
164.173
21
-148.809
0
LINE
8
BLACK
6
CONTINUOUS
10
164.173
20
-148.809
11
164.077
21
-148.333
0
LINE
8
BLACK
6
CONTINUOUS
10
164.077
20
-148.333
11
163.982
21
-148.047
0
LINE
8
BLACK
6
CONTINUOUS
10
163.982
20
-148.047
11
163.887
21
-147.857
0
LINE
8
BLACK
6
CONTINUOUS
10
163.887
20
-147.857
11
163.696
21
-147.571
0
LINE
8
BLACK
6
CONTINUOUS
10
163.696
20
-147.571
11
163.601
21
-147.476
0
LINE
8
BLACK
6
CONTINUOUS
10
167.22
20
-150.523
11
167.125
21
-150.428
0
LINE
8
BLACK
6
CONTINUOUS
10
167.125
20
-150.428
11
166.934
21
-150.143
0
LINE
8
BLACK
6
CONTINUOUS
10
166.934
20
-150.143
11
166.839
21
-149.952
0
LINE
8
BLACK
6
CONTINUOUS
10
166.839
20
-149.952
11
166.744
21
-149.666
0
LINE
8
BLACK
6
CONTINUOUS
10
166.744
20
-149.666
11
166.649
21
-149.19
0
LINE
8
BLACK
6
CONTINUOUS
10
166.649
20
-149.19
11
166.649
21
-148.809
0
LINE
8
BLACK
6
CONTINUOUS
10
166.649
20
-148.809
11
166.744
21
-148.333
0
LINE
8
BLACK
6
CONTINUOUS
10
166.744
20
-148.333
11
166.839
21
-148.047
0
LINE
8
BLACK
6
CONTINUOUS
10
166.839
20
-148.047
11
166.934
21
-147.857
0
LINE
8
BLACK
6
CONTINUOUS
10
166.934
20
-147.857
11
167.125
21
-147.571
0
LINE
8
BLACK
6
CONTINUOUS
10
167.125
20
-147.571
11
167.22
21
-147.476
0
LINE
8
BLACK
6
CONTINUOUS
10
167.982
20
-148.428
11
167.982
21
-149.762
0
LINE
8
BLACK
6
CONTINUOUS
10
167.982
20
-148.619
11
168.077
21
-148.523
0
LINE
8
BLACK
6
CONTINUOUS
10
168.077
20
-148.523
11
168.268
21
-148.428
0
LINE
8
BLACK
6
CONTINUOUS
10
168.268
20
-148.428
11
168.554
21
-148.428
0
LINE
8
BLACK
6
CONTINUOUS
10
168.554
20
-148.428
11
168.744
21
-148.523
0
LINE
8
BLACK
6
CONTINUOUS
10
168.744
20
-148.523
11
168.839
21
-148.714
0
LINE
8
BLACK
6
CONTINUOUS
10
168.839
20
-148.714
11
168.839
21
-149.762
0
LINE
8
BLACK
6
CONTINUOUS
10
170.077
20
-149.762
11
169.887
21
-149.666
0
LINE
8
BLACK
6
CONTINUOUS
10
169.887
20
-149.666
11
169.792
21
-149.571
0
LINE
8
BLACK
6
CONTINUOUS
10
169.792
20
-149.571
11
169.696
21
-149.381
0
LINE
8
BLACK
6
CONTINUOUS
10
169.696
20
-149.381
11
169.696
21
-148.809
0
LINE
8
BLACK
6
CONTINUOUS
10
169.696
20
-148.809
11
169.792
21
-148.619
0
LINE
8
BLACK
6
CONTINUOUS
10
169.792
20
-148.619
11
169.887
21
-148.523
0
LINE
8
BLACK
6
CONTINUOUS
10
169.887
20
-148.523
11
170.077
21
-148.428
0
LINE
8
BLACK
6
CONTINUOUS
10
170.077
20
-148.428
11
170.363
21
-148.428
0
LINE
8
BLACK
6
CONTINUOUS
10
170.363
20
-148.428
11
170.554
21
-148.523
0
LINE
8
BLACK
6
CONTINUOUS
10
170.554
20
-148.523
11
170.649
21
-148.619
0
LINE
8
BLACK
6
CONTINUOUS
10
170.649
20
-148.619
11
170.744
21
-148.809
0
LINE
8
BLACK
6
CONTINUOUS
10
170.744
20
-148.809
11
170.744
21
-149.381
0
LINE
8
BLACK
6
CONTINUOUS
10
170.744
20
-149.381
11
170.649
21
-149.571
0
LINE
8
BLACK
6
CONTINUOUS
10
170.649
20
-149.571
11
170.554
21
-149.666
0
LINE
8
BLACK
6
CONTINUOUS
10
170.554
20
-149.666
11
170.363
21
-149.762
0
LINE
8
BLACK
6
CONTINUOUS
10
170.363
20
-149.762
11
170.077
21
-149.762
0
LINE
8
BLACK
6
CONTINUOUS
10
171.315
20
-148.428
11
172.077
21
-148.428
0
LINE
8
BLACK
6
CONTINUOUS
10
171.601
20
-147.762
11
171.601
21
-149.476
0
LINE
8
BLACK
6
CONTINUOUS
10
171.601
20
-149.476
11
171.696
21
-149.666
0
LINE
8
BLACK
6
CONTINUOUS
10
171.696
20
-149.666
11
171.887
21
-149.762
0
LINE
8
BLACK
6
CONTINUOUS
10
171.887
20
-149.762
11
172.077
21
-149.762
0
LINE
8
BLACK
6
CONTINUOUS
10
174.268
20
-148.428
11
174.268
21
-150.428
0
LINE
8
BLACK
6
CONTINUOUS
10
174.268
20
-148.523
11
174.458
21
-148.428
0
LINE
8
BLACK
6
CONTINUOUS
10
174.458
20
-148.428
11
174.839
21
-148.428
0
LINE
8
BLACK
6
CONTINUOUS
10
174.839
20
-148.428
11
175.03
21
-148.523
0
LINE
8
BLACK
6
CONTINUOUS
10
175.03
20
-148.523
11
175.125
21
-148.619
0
LINE
8
BLACK
6
CONTINUOUS
10
175.125
20
-148.619
11
175.22
21
-148.809
0
LINE
8
BLACK
6
CONTINUOUS
10
175.22
20
-148.809
11
175.22
21
-149.381
0
LINE
8
BLACK
6
CONTINUOUS
10
175.22
20
-149.381
11
175.125
21
-149.571
0
LINE
8
BLACK
6
CONTINUOUS
10
175.125
20
-149.571
11
175.03
21
-149.666
0
LINE
8
BLACK
6
CONTINUOUS
10
175.03
20
-149.666
11
174.839
21
-149.762
0
LINE
8
BLACK
6
CONTINUOUS
10
174.839
20
-149.762
11
174.458
21
-149.762
0
LINE
8
BLACK
6
CONTINUOUS
10
174.458
20
-149.762
11
174.268
21
-149.666
0
LINE
8
BLACK
6
CONTINUOUS
10
176.363
20
-149.762
11
176.173
21
-149.666
0
LINE
8
BLACK
6
CONTINUOUS
10
176.173
20
-149.666
11
176.077
21
-149.476
0
LINE
8
BLACK
6
CONTINUOUS
10
176.077
20
-149.476
11
176.077
21
-147.762
0
LINE
8
BLACK
6
CONTINUOUS
10
177.982
20
-149.762
11
177.982
21
-148.714
0
LINE
8
BLACK
6
CONTINUOUS
10
177.982
20
-148.714
11
177.887
21
-148.523
0
LINE
8
BLACK
6
CONTINUOUS
10
177.887
20
-148.523
11
177.696
21
-148.428
0
LINE
8
BLACK
6
CONTINUOUS
10
177.696
20
-148.428
11
177.315
21
-148.428
0
LINE
8
BLACK
6
CONTINUOUS
10
177.315
20
-148.428
11
177.125
21
-148.523
0
LINE
8
BLACK
6
CONTINUOUS
10
177.982
20
-149.666
11
177.792
21
-149.762
0
LINE
8
BLACK
6
CONTINUOUS
10
177.792
20
-149.762
11
177.315
21
-149.762
0
LINE
8
BLACK
6
CONTINUOUS
10
177.315
20
-149.762
11
177.125
21
-149.666
0
LINE
8
BLACK
6
CONTINUOUS
10
177.125
20
-149.666
11
177.03
21
-149.476
0
LINE
8
BLACK
6
CONTINUOUS
10
177.03
20
-149.476
11
177.03
21
-149.285
0
LINE
8
BLACK
6
CONTINUOUS
10
177.03
20
-149.285
11
177.125
21
-149.095
0
LINE
8
BLACK
6
CONTINUOUS
10
177.125
20
-149.095
11
177.315
21
-149
0
LINE
8
BLACK
6
CONTINUOUS
10
177.315
20
-149
11
177.792
21
-149
0
LINE
8
BLACK
6
CONTINUOUS
10
177.792
20
-149
11
177.982
21
-148.904
0
LINE
8
BLACK
6
CONTINUOUS
10
178.649
20
-148.428
11
179.411
21
-148.428
0
LINE
8
BLACK
6
CONTINUOUS
10
178.934
20
-147.762
11
178.934
21
-149.476
0
LINE
8
BLACK
6
CONTINUOUS
10
178.934
20
-149.476
11
179.03
21
-149.666
0
LINE
8
BLACK
6
CONTINUOUS
10
179.03
20
-149.666
11
179.22
21
-149.762
0
LINE
8
BLACK
6
CONTINUOUS
10
179.22
20
-149.762
11
179.411
21
-149.762
0
LINE
8
BLACK
6
CONTINUOUS
10
180.839
20
-149.666
11
180.649
21
-149.762
0
LINE
8
BLACK
6
CONTINUOUS
10
180.649
20
-149.762
11
180.268
21
-149.762
0
LINE
8
BLACK
6
CONTINUOUS
10
180.268
20
-149.762
11
180.077
21
-149.666
0
LINE
8
BLACK
6
CONTINUOUS
10
180.077
20
-149.666
11
179.982
21
-149.476
0
LINE
8
BLACK
6
CONTINUOUS
10
179.982
20
-149.476
11
179.982
21
-148.714
0
LINE
8
BLACK
6
CONTINUOUS
10
179.982
20
-148.714
11
180.077
21
-148.523
0
LINE
8
BLACK
6
CONTINUOUS
10
180.077
20
-148.523
11
180.268
21
-148.428
0
LINE
8
BLACK
6
CONTINUOUS
10
180.268
20
-148.428
11
180.649
21
-148.428
0
LINE
8
BLACK
6
CONTINUOUS
10
180.649
20
-148.428
11
180.839
21
-148.523
0
LINE
8
BLACK
6
CONTINUOUS
10
180.839
20
-148.523
11
180.934
21
-148.714
0
LINE
8
BLACK
6
CONTINUOUS
10
180.934
20
-148.714
11
180.934
21
-148.904
0
LINE
8
BLACK
6
CONTINUOUS
10
180.934
20
-148.904
11
179.982
21
-149.095
0
LINE
8
BLACK
6
CONTINUOUS
10
182.649
20
-149.762
11
182.649
21
-147.762
0
LINE
8
BLACK
6
CONTINUOUS
10
182.649
20
-149.666
11
182.458
21
-149.762
0
LINE
8
BLACK
6
CONTINUOUS
10
182.458
20
-149.762
11
182.077
21
-149.762
0
LINE
8
BLACK
6
CONTINUOUS
10
182.077
20
-149.762
11
181.887
21
-149.666
0
LINE
8
BLACK
6
CONTINUOUS
10
181.887
20
-149.666
11
181.792
21
-149.571
0
LINE
8
BLACK
6
CONTINUOUS
10
181.792
20
-149.571
11
181.696
21
-149.381
0
LINE
8
BLACK
6
CONTINUOUS
10
181.696
20
-149.381
11
181.696
21
-148.809
0
LINE
8
BLACK
6
CONTINUOUS
10
181.696
20
-148.809
11
181.792
21
-148.619
0
LINE
8
BLACK
6
CONTINUOUS
10
181.792
20
-148.619
11
181.887
21
-148.523
0
LINE
8
BLACK
6
CONTINUOUS
10
181.887
20
-148.523
11
182.077
21
-148.428
0
LINE
8
BLACK
6
CONTINUOUS
10
182.077
20
-148.428
11
182.458
21
-148.428
0
LINE
8
BLACK
6
CONTINUOUS
10
182.458
20
-148.428
11
182.649
21
-148.523
0
LINE
8
BLACK
6
CONTINUOUS
10
183.411
20
-150.523
11
183.506
21
-150.428
0
LINE
8
BLACK
6
CONTINUOUS
10
183.506
20
-150.428
11
183.696
21
-150.143
0
LINE
8
BLACK
6
CONTINUOUS
10
183.696
20
-150.143
11
183.792
21
-149.952
0
LINE
8
BLACK
6
CONTINUOUS
10
183.792
20
-149.952
11
183.887
21
-149.666
0
LINE
8
BLACK
6
CONTINUOUS
10
183.887
20
-149.666
11
183.982
21
-149.19
0
LINE
8
BLACK
6
CONTINUOUS
10
183.982
20
-149.19
11
183.982
21
-148.809
0
LINE
8
BLACK
6
CONTINUOUS
10
183.982
20
-148.809
11
183.887
21
-148.333
0
LINE
8
BLACK
6
CONTINUOUS
10
183.887
20
-148.333
11
183.792
21
-148.047
0
LINE
8
BLACK
6
CONTINUOUS
10
183.792
20
-148.047
11
183.696
21
-147.857
0
LINE
8
BLACK
6
CONTINUOUS
10
183.696
20
-147.857
11
183.506
21
-147.571
0
LINE
8
BLACK
6
CONTINUOUS
10
183.506
20
-147.571
11
183.411
21
-147.476
  0
ENDSEC
  0
EOF
