  0
SECTION
  2
HEADER
  9
$ANGBASE
  50
0.0
  9
$ANGDIR
  70
1
  9
$MEASUREMENT
  70
0
  0
ENDSEC
  0
SECTION
  2
TABLES
  0
TABLE
  2
LTYPE
  70
4
  0
LTYPE
  5
40F
  2
CONTINUOUS
  70
0
  3
Solid line
  72
65
  73
0
  40
0.0
  0
LTYPE
  5
410
  2
DASHDOT
 70
0
  3
Dash Dot ____ _ ____ _
 72
65
 73
4
 40
2.0
 49
1.25
 49
-0.25
 49
0.25
 49
-0.25
  0
LTYPE
  5
411
  2
DASHED
 70
0
  3
Dashed __ __ __ __ __
 72
65
 73
2
 40
0.75
 49
0.5
 49
-0.25
  0
LTYPE
  5
43B
  2
DOTTED
 70
0
  3
Dotted .  .  .  .
 72
65
 73
2
 40
0.2
 49
0.0
 49
-0.2
  0
ENDTAB
  0
TABLE
  2
STYLE
  70
4
  0
STYLE
  2
KICAD
  70
0
  40
0
  41
1
  42
1
  50
0
  71
0
  3
isocp.shx
  0
STYLE
  2
KICADB
  70
0
  40
0
  41
1
  42
1
  50
0
  71
0
  3
isocp.shx
  0
STYLE
  2
KICADI
  70
0
  40
0
  41
1
  42
1
  50
15
  71
0
  3
isocp.shx
  0
STYLE
  2
KICADBI
  70
0
  40
0
  41
1
  42
1
  50
15
  71
0
  3
isocp.shx
  0
ENDTAB
  0
TABLE
  2
LAYER
  70
1
  0
LAYER
  2
BLACK
  70
0
  62
7
  6
CONTINUOUS
  0
ENDTAB
  0
ENDSEC
  0
SECTION
  2
ENTITIES
0
LINE
8
BLACK
6
CONTINUOUS
10
0.787402
20
-8.07115
11
11.4961
21
-8.07115
0
LINE
8
BLACK
6
CONTINUOUS
10
11.4961
20
-8.07115
11
11.4961
21
-0.19685
0
LINE
8
BLACK
6
CONTINUOUS
10
11.4961
20
-0.19685
11
0.787402
21
-0.19685
0
LINE
8
BLACK
6
CONTINUOUS
10
0.787402
20
-0.19685
11
0.787402
21
-8.07115
0
LINE
8
BLACK
6
CONTINUOUS
10
0.314961
20
-5.70894
11
0.787402
21
-5.70894
0
LINE
8
BLACK
6
CONTINUOUS
10
0.314961
20
-4.72469
11
0.787402
21
-4.72469
0
LINE
8
BLACK
6
CONTINUOUS
10
0.314961
20
-3.74044
11
0.787402
21
-3.74044
0
LINE
8
BLACK
6
CONTINUOUS
10
3.54331
20
-0.19685
11
3.54331
21
-0.748031
0
LINE
8
BLACK
6
CONTINUOUS
10
0.787402
20
-0.748031
11
3.54331
21
-0.748031
0
LINE
8
BLACK
6
CONTINUOUS
10
0.314961
20
-2.36249
11
0.787402
21
-2.36249
0
LINE
8
BLACK
6
CONTINUOUS
10
0.314961
20
-8.07115
11
0.787402
21
-8.07115
0
LINE
8
BLACK
6
CONTINUOUS
10
0.314961
20
-7.0869
11
0.787402
21
-7.0869
0
LINE
8
BLACK
6
CONTINUOUS
10
0.314961
20
-2.36249
11
0.314961
21
-8.07115
0
LINE
8
BLACK
6
CONTINUOUS
10
0.511811
20
-2.36249
11
0.511811
21
-8.07115
0
LINE
8
BLACK
6
CONTINUOUS
10
4.21269
20
-7.4806
11
4.21269
21
-8.07115
0
LINE
8
BLACK
6
CONTINUOUS
10
4.21269
20
-7.4806
11
11.4961
21
-7.4806
0
LINE
8
BLACK
6
CONTINUOUS
10
11.1024
20
-7.75619
11
11.4961
21
-7.75619
0
LINE
8
BLACK
6
CONTINUOUS
10
11.1024
20
-7.4806
11
11.1024
21
-8.07115
0
LINE
8
BLACK
6
CONTINUOUS
10
4.21269
20
-7.67745
11
6.77174
21
-7.67745
0
LINE
8
BLACK
6
CONTINUOUS
10
4.21269
20
-7.8743
11
6.77174
21
-7.8743
0
LINE
8
BLACK
6
CONTINUOUS
10
6.77174
20
-7.4806
11
6.77174
21
-8.07115
0
LINE
8
BLACK
6
CONTINUOUS
10
6.37804
20
-7.4806
11
6.37804
21
-8.07115
0
LINE
8
BLACK
6
CONTINUOUS
10
5.78749
20
-7.4806
11
5.78749
21
-8.07115
0
LINE
8
BLACK
6
CONTINUOUS
10
4.88198
20
-7.4806
11
4.88198
21
-8.07115
0
LINE
8
BLACK
6
CONTINUOUS
10
4.48828
20
-7.4806
11
4.48828
21
-8.07115
0
LINE
8
BLACK
6
CONTINUOUS
10
5.02774
20
-8.01774
11
5.02774
21
-7.91932
0
LINE
8
BLACK
6
CONTINUOUS
10
5.02774
20
-7.91932
11
5.08398
21
-8.01774
0
LINE
8
BLACK
6
CONTINUOUS
10
5.08398
20
-8.01774
11
5.08398
21
-7.91932
0
LINE
8
BLACK
6
CONTINUOUS
10
5.14491
20
-7.91932
11
5.13554
21
-7.924
0
LINE
8
BLACK
6
CONTINUOUS
10
5.13554
20
-7.924
11
5.13085
21
-7.93338
0
LINE
8
BLACK
6
CONTINUOUS
10
5.13085
20
-7.93338
11
5.13554
21
-7.94275
0
LINE
8
BLACK
6
CONTINUOUS
10
5.13554
20
-7.94275
11
5.14491
21
-7.94744
0
LINE
8
BLACK
6
CONTINUOUS
10
5.14491
20
-7.94744
11
5.15428
21
-7.94275
0
LINE
8
BLACK
6
CONTINUOUS
10
5.15428
20
-7.94275
11
5.15897
21
-7.93338
0
LINE
8
BLACK
6
CONTINUOUS
10
5.15897
20
-7.93338
11
5.15428
21
-7.924
0
LINE
8
BLACK
6
CONTINUOUS
10
5.15428
20
-7.924
11
5.14491
21
-7.91932
0
LINE
8
BLACK
6
CONTINUOUS
10
5.25271
20
-7.9615
11
5.24802
21
-7.95681
0
LINE
8
BLACK
6
CONTINUOUS
10
5.24802
20
-7.95681
11
5.23865
21
-7.95213
0
LINE
8
BLACK
6
CONTINUOUS
10
5.23865
20
-7.95213
11
5.2199
21
-7.95213
0
LINE
8
BLACK
6
CONTINUOUS
10
5.2199
20
-7.95213
11
5.21053
21
-7.95681
0
LINE
8
BLACK
6
CONTINUOUS
10
5.21053
20
-7.95681
11
5.20584
21
-7.9615
0
LINE
8
BLACK
6
CONTINUOUS
10
5.20584
20
-7.9615
11
5.20115
21
-7.97087
0
LINE
8
BLACK
6
CONTINUOUS
10
5.20115
20
-7.97087
11
5.20115
21
-7.999
0
LINE
8
BLACK
6
CONTINUOUS
10
5.20115
20
-7.999
11
5.20584
21
-8.00837
0
LINE
8
BLACK
6
CONTINUOUS
10
5.20584
20
-8.00837
11
5.21053
21
-8.01306
0
LINE
8
BLACK
6
CONTINUOUS
10
5.21053
20
-8.01306
11
5.2199
21
-8.01774
0
LINE
8
BLACK
6
CONTINUOUS
10
5.2199
20
-8.01774
11
5.23396
21
-8.01774
0
LINE
8
BLACK
6
CONTINUOUS
10
5.23396
20
-8.01774
11
5.24334
21
-8.01306
0
LINE
8
BLACK
6
CONTINUOUS
10
5.24334
20
-8.01306
11
5.24802
21
-8.00837
0
LINE
8
BLACK
6
CONTINUOUS
10
5.24802
20
-8.00837
11
5.25271
21
-7.999
0
LINE
8
BLACK
6
CONTINUOUS
10
5.25271
20
-7.999
11
5.25271
21
-7.93807
0
LINE
8
BLACK
6
CONTINUOUS
10
5.25271
20
-7.93807
11
5.24802
21
-7.92869
0
LINE
8
BLACK
6
CONTINUOUS
10
5.24802
20
-7.92869
11
5.24334
21
-7.924
0
LINE
8
BLACK
6
CONTINUOUS
10
5.24334
20
-7.924
11
5.23396
21
-7.91932
0
LINE
8
BLACK
6
CONTINUOUS
10
5.23396
20
-7.91932
11
5.21522
21
-7.91932
0
LINE
8
BLACK
6
CONTINUOUS
10
5.21522
20
-7.91932
11
5.20584
21
-7.924
0
LINE
8
BLACK
6
CONTINUOUS
10
5.30895
20
-8.01774
11
5.29958
21
-8.01306
0
LINE
8
BLACK
6
CONTINUOUS
10
5.29958
20
-8.01306
11
5.29489
21
-8.00837
0
LINE
8
BLACK
6
CONTINUOUS
10
5.29489
20
-8.00837
11
5.2902
21
-7.999
0
LINE
8
BLACK
6
CONTINUOUS
10
5.2902
20
-7.999
11
5.2902
21
-7.97087
0
LINE
8
BLACK
6
CONTINUOUS
10
5.2902
20
-7.97087
11
5.29489
21
-7.9615
0
LINE
8
BLACK
6
CONTINUOUS
10
5.29489
20
-7.9615
11
5.29958
21
-7.95681
0
LINE
8
BLACK
6
CONTINUOUS
10
5.29958
20
-7.95681
11
5.30895
21
-7.95213
0
LINE
8
BLACK
6
CONTINUOUS
10
5.30895
20
-7.95213
11
5.32302
21
-7.95213
0
LINE
8
BLACK
6
CONTINUOUS
10
5.32302
20
-7.95213
11
5.33239
21
-7.95681
0
LINE
8
BLACK
6
CONTINUOUS
10
5.33239
20
-7.95681
11
5.33707
21
-7.9615
0
LINE
8
BLACK
6
CONTINUOUS
10
5.33707
20
-7.9615
11
5.34176
21
-7.97087
0
LINE
8
BLACK
6
CONTINUOUS
10
5.34176
20
-7.97087
11
5.34176
21
-7.999
0
LINE
8
BLACK
6
CONTINUOUS
10
5.34176
20
-7.999
11
5.33707
21
-8.00837
0
LINE
8
BLACK
6
CONTINUOUS
10
5.33707
20
-8.00837
11
5.33239
21
-8.01306
0
LINE
8
BLACK
6
CONTINUOUS
10
5.33239
20
-8.01306
11
5.32302
21
-8.01774
0
LINE
8
BLACK
6
CONTINUOUS
10
5.32302
20
-8.01774
11
5.30895
21
-8.01774
0
LINE
8
BLACK
6
CONTINUOUS
10
5.38394
20
-7.95213
11
5.38394
21
-8.01774
0
LINE
8
BLACK
6
CONTINUOUS
10
5.39332
20
-7.98025
11
5.42144
21
-8.01774
0
LINE
8
BLACK
6
CONTINUOUS
10
5.42144
20
-7.95213
11
5.38394
21
-7.98962
0
LINE
8
BLACK
6
CONTINUOUS
10
5.45425
20
-7.95213
11
5.47768
21
-8.01774
0
LINE
8
BLACK
6
CONTINUOUS
10
5.50112
20
-7.95213
11
5.47768
21
-8.01774
0
LINE
8
BLACK
6
CONTINUOUS
10
5.47768
20
-8.01774
11
5.46831
21
-8.04118
0
LINE
8
BLACK
6
CONTINUOUS
10
5.46831
20
-8.04118
11
5.46362
21
-8.04587
0
LINE
8
BLACK
6
CONTINUOUS
10
5.46362
20
-8.04587
11
5.45425
21
-8.05055
0
LINE
8
BLACK
6
CONTINUOUS
10
5.53861
20
-8.01774
11
5.53861
21
-7.95213
0
LINE
8
BLACK
6
CONTINUOUS
10
5.53861
20
-7.95213
11
5.56674
21
-8.00369
0
LINE
8
BLACK
6
CONTINUOUS
10
5.56674
20
-8.00369
11
5.59486
21
-7.95213
0
LINE
8
BLACK
6
CONTINUOUS
10
5.59486
20
-7.95213
11
5.59486
21
-8.01774
0
LINE
8
BLACK
6
CONTINUOUS
10
5.64172
20
-8.00837
11
5.64641
21
-8.01306
0
LINE
8
BLACK
6
CONTINUOUS
10
5.64641
20
-8.01306
11
5.64172
21
-8.01774
0
LINE
8
BLACK
6
CONTINUOUS
10
5.64172
20
-8.01774
11
5.63704
21
-8.01306
0
LINE
8
BLACK
6
CONTINUOUS
10
5.63704
20
-8.01306
11
5.64172
21
-8.00837
0
LINE
8
BLACK
6
CONTINUOUS
10
5.64172
20
-8.00837
11
5.64172
21
-8.01774
0
LINE
8
BLACK
6
CONTINUOUS
10
0.40685
20
-5.61286
11
0.411535
21
-5.5988
0
LINE
8
BLACK
6
CONTINUOUS
10
0.411535
20
-5.5988
11
0.416224
21
-5.59411
0
LINE
8
BLACK
6
CONTINUOUS
10
0.416224
20
-5.59411
11
0.425598
21
-5.58943
0
LINE
8
BLACK
6
CONTINUOUS
10
0.425598
20
-5.58943
11
0.439657
21
-5.58943
0
LINE
8
BLACK
6
CONTINUOUS
10
0.439657
20
-5.58943
11
0.449031
21
-5.59411
0
LINE
8
BLACK
6
CONTINUOUS
10
0.449031
20
-5.59411
11
0.45372
21
-5.5988
0
LINE
8
BLACK
6
CONTINUOUS
10
0.45372
20
-5.5988
11
0.458406
21
-5.60817
0
LINE
8
BLACK
6
CONTINUOUS
10
0.458406
20
-5.60817
11
0.458406
21
-5.64567
0
LINE
8
BLACK
6
CONTINUOUS
10
0.458406
20
-5.64567
11
0.35998
21
-5.64567
0
LINE
8
BLACK
6
CONTINUOUS
10
0.35998
20
-5.64567
11
0.35998
21
-5.61286
0
LINE
8
BLACK
6
CONTINUOUS
10
0.35998
20
-5.61286
11
0.364665
21
-5.60349
0
LINE
8
BLACK
6
CONTINUOUS
10
0.364665
20
-5.60349
11
0.369354
21
-5.5988
0
LINE
8
BLACK
6
CONTINUOUS
10
0.369354
20
-5.5988
11
0.378728
21
-5.59411
0
LINE
8
BLACK
6
CONTINUOUS
10
0.378728
20
-5.59411
11
0.388102
21
-5.59411
0
LINE
8
BLACK
6
CONTINUOUS
10
0.388102
20
-5.59411
11
0.397476
21
-5.5988
0
LINE
8
BLACK
6
CONTINUOUS
10
0.397476
20
-5.5988
11
0.402161
21
-5.60349
0
LINE
8
BLACK
6
CONTINUOUS
10
0.402161
20
-5.60349
11
0.40685
21
-5.61286
0
LINE
8
BLACK
6
CONTINUOUS
10
0.40685
20
-5.61286
11
0.40685
21
-5.64567
0
LINE
8
BLACK
6
CONTINUOUS
10
0.425598
20
-5.53787
11
0.425598
21
-5.5285
0
LINE
8
BLACK
6
CONTINUOUS
10
0.397476
20
-5.55662
11
0.392787
21
-5.54724
0
LINE
8
BLACK
6
CONTINUOUS
10
0.392787
20
-5.54724
11
0.392787
21
-5.5285
0
LINE
8
BLACK
6
CONTINUOUS
10
0.392787
20
-5.5285
11
0.397476
21
-5.51912
0
LINE
8
BLACK
6
CONTINUOUS
10
0.397476
20
-5.51912
11
0.40685
21
-5.51444
0
LINE
8
BLACK
6
CONTINUOUS
10
0.40685
20
-5.51444
11
0.411535
21
-5.51444
0
LINE
8
BLACK
6
CONTINUOUS
10
0.411535
20
-5.51444
11
0.420909
21
-5.51912
0
LINE
8
BLACK
6
CONTINUOUS
10
0.420909
20
-5.51912
11
0.425598
21
-5.5285
0
LINE
8
BLACK
6
CONTINUOUS
10
0.425598
20
-5.5285
11
0.430283
21
-5.51912
0
LINE
8
BLACK
6
CONTINUOUS
10
0.430283
20
-5.51912
11
0.439657
21
-5.51444
0
LINE
8
BLACK
6
CONTINUOUS
10
0.439657
20
-5.51444
11
0.444346
21
-5.51444
0
LINE
8
BLACK
6
CONTINUOUS
10
0.444346
20
-5.51444
11
0.45372
21
-5.51912
0
LINE
8
BLACK
6
CONTINUOUS
10
0.45372
20
-5.51912
11
0.458406
21
-5.5285
0
LINE
8
BLACK
6
CONTINUOUS
10
0.458406
20
-5.5285
11
0.458406
21
-5.54724
0
LINE
8
BLACK
6
CONTINUOUS
10
0.458406
20
-5.54724
11
0.45372
21
-5.55662
0
LINE
8
BLACK
6
CONTINUOUS
10
0.458406
20
-5.43007
11
0.40685
21
-5.43007
0
LINE
8
BLACK
6
CONTINUOUS
10
0.40685
20
-5.43007
11
0.397476
21
-5.43476
0
LINE
8
BLACK
6
CONTINUOUS
10
0.397476
20
-5.43476
11
0.392787
21
-5.44413
0
LINE
8
BLACK
6
CONTINUOUS
10
0.392787
20
-5.44413
11
0.392787
21
-5.46288
0
LINE
8
BLACK
6
CONTINUOUS
10
0.392787
20
-5.46288
11
0.397476
21
-5.47225
0
LINE
8
BLACK
6
CONTINUOUS
10
0.45372
20
-5.43007
11
0.458406
21
-5.43944
0
LINE
8
BLACK
6
CONTINUOUS
10
0.458406
20
-5.43944
11
0.458406
21
-5.46288
0
LINE
8
BLACK
6
CONTINUOUS
10
0.458406
20
-5.46288
11
0.45372
21
-5.47225
0
LINE
8
BLACK
6
CONTINUOUS
10
0.45372
20
-5.47225
11
0.444346
21
-5.47694
0
LINE
8
BLACK
6
CONTINUOUS
10
0.444346
20
-5.47694
11
0.434972
21
-5.47694
0
LINE
8
BLACK
6
CONTINUOUS
10
0.434972
20
-5.47694
11
0.425598
21
-5.47225
0
LINE
8
BLACK
6
CONTINUOUS
10
0.425598
20
-5.47225
11
0.420909
21
-5.46288
0
LINE
8
BLACK
6
CONTINUOUS
10
0.420909
20
-5.46288
11
0.420909
21
-5.43944
0
LINE
8
BLACK
6
CONTINUOUS
10
0.420909
20
-5.43944
11
0.416224
21
-5.43007
0
LINE
8
BLACK
6
CONTINUOUS
10
0.458406
20
-5.3832
11
0.392787
21
-5.3832
0
LINE
8
BLACK
6
CONTINUOUS
10
0.392787
20
-5.3832
11
0.444346
21
-5.35508
0
LINE
8
BLACK
6
CONTINUOUS
10
0.444346
20
-5.35508
11
0.392787
21
-5.32696
0
LINE
8
BLACK
6
CONTINUOUS
10
0.392787
20
-5.32696
11
0.458406
21
-5.32696
0
LINE
8
BLACK
6
CONTINUOUS
10
0.449031
20
-5.28009
11
0.45372
21
-5.27541
0
LINE
8
BLACK
6
CONTINUOUS
10
0.45372
20
-5.27541
11
0.458406
21
-5.28009
0
LINE
8
BLACK
6
CONTINUOUS
10
0.458406
20
-5.28009
11
0.45372
21
-5.28478
0
LINE
8
BLACK
6
CONTINUOUS
10
0.45372
20
-5.28478
11
0.449031
21
-5.28009
0
LINE
8
BLACK
6
CONTINUOUS
10
0.449031
20
-5.28009
11
0.458406
21
-5.28009
0
LINE
8
BLACK
6
CONTINUOUS
10
0.392787
20
-5.23322
11
0.458406
21
-5.23322
0
LINE
8
BLACK
6
CONTINUOUS
10
0.458406
20
-5.23322
11
0.392787
21
-5.18635
0
LINE
8
BLACK
6
CONTINUOUS
10
0.392787
20
-5.18635
11
0.458406
21
-5.18635
0
LINE
8
BLACK
6
CONTINUOUS
10
0.425598
20
-5.13948
11
0.425598
21
-5.0973
0
LINE
8
BLACK
6
CONTINUOUS
10
0.392787
20
-5.13948
11
0.458406
21
-5.13948
0
LINE
8
BLACK
6
CONTINUOUS
10
0.392787
20
-5.0973
11
0.458406
21
-5.0973
0
LINE
8
BLACK
6
CONTINUOUS
10
0.425598
20
-5.027
11
0.430283
21
-5.01293
0
LINE
8
BLACK
6
CONTINUOUS
10
0.430283
20
-5.01293
11
0.439657
21
-5.00825
0
LINE
8
BLACK
6
CONTINUOUS
10
0.439657
20
-5.00825
11
0.444346
21
-5.00825
0
LINE
8
BLACK
6
CONTINUOUS
10
0.444346
20
-5.00825
11
0.45372
21
-5.01293
0
LINE
8
BLACK
6
CONTINUOUS
10
0.45372
20
-5.01293
11
0.458406
21
-5.02231
0
LINE
8
BLACK
6
CONTINUOUS
10
0.458406
20
-5.02231
11
0.458406
21
-5.05043
0
LINE
8
BLACK
6
CONTINUOUS
10
0.458406
20
-5.05043
11
0.392787
21
-5.05043
0
LINE
8
BLACK
6
CONTINUOUS
10
0.392787
20
-5.05043
11
0.392787
21
-5.027
0
LINE
8
BLACK
6
CONTINUOUS
10
0.392787
20
-5.027
11
0.397476
21
-5.01762
0
LINE
8
BLACK
6
CONTINUOUS
10
0.397476
20
-5.01762
11
0.40685
21
-5.01293
0
LINE
8
BLACK
6
CONTINUOUS
10
0.40685
20
-5.01293
11
0.411535
21
-5.01293
0
LINE
8
BLACK
6
CONTINUOUS
10
0.411535
20
-5.01293
11
0.420909
21
-5.01762
0
LINE
8
BLACK
6
CONTINUOUS
10
0.420909
20
-5.01762
11
0.425598
21
-5.027
0
LINE
8
BLACK
6
CONTINUOUS
10
0.425598
20
-5.027
11
0.425598
21
-5.05043
0
LINE
8
BLACK
6
CONTINUOUS
10
0.449031
20
-4.96606
11
0.45372
21
-4.96138
0
LINE
8
BLACK
6
CONTINUOUS
10
0.45372
20
-4.96138
11
0.458406
21
-4.96606
0
LINE
8
BLACK
6
CONTINUOUS
10
0.458406
20
-4.96606
11
0.45372
21
-4.97075
0
LINE
8
BLACK
6
CONTINUOUS
10
0.45372
20
-4.97075
11
0.449031
21
-4.96606
0
LINE
8
BLACK
6
CONTINUOUS
10
0.449031
20
-4.96606
11
0.458406
21
-4.96606
0
LINE
8
BLACK
6
CONTINUOUS
10
0.458406
20
-4.91919
11
0.35998
21
-4.91919
0
LINE
8
BLACK
6
CONTINUOUS
10
0.35998
20
-4.91919
11
0.458406
21
-4.86295
0
LINE
8
BLACK
6
CONTINUOUS
10
0.458406
20
-4.86295
11
0.35998
21
-4.86295
0
LINE
8
BLACK
6
CONTINUOUS
10
0.35998
20
-4.80202
11
0.364665
21
-4.8114
0
LINE
8
BLACK
6
CONTINUOUS
10
0.364665
20
-4.8114
11
0.374039
21
-4.81608
0
LINE
8
BLACK
6
CONTINUOUS
10
0.374039
20
-4.81608
11
0.383413
21
-4.8114
0
LINE
8
BLACK
6
CONTINUOUS
10
0.383413
20
-4.8114
11
0.388102
21
-4.80202
0
LINE
8
BLACK
6
CONTINUOUS
10
0.388102
20
-4.80202
11
0.383413
21
-4.79265
0
LINE
8
BLACK
6
CONTINUOUS
10
0.383413
20
-4.79265
11
0.374039
21
-4.78796
0
LINE
8
BLACK
6
CONTINUOUS
10
0.374039
20
-4.78796
11
0.364665
21
-4.79265
0
LINE
8
BLACK
6
CONTINUOUS
10
0.364665
20
-4.79265
11
0.35998
21
-4.80202
0
LINE
8
BLACK
6
CONTINUOUS
10
6.49521
20
-8.04118
11
6.49521
21
-8.01774
0
LINE
8
BLACK
6
CONTINUOUS
10
6.49521
20
-8.01774
11
6.41085
21
-8.01774
0
LINE
8
BLACK
6
CONTINUOUS
10
6.41085
20
-8.01774
11
6.41085
21
-8.04118
0
LINE
8
BLACK
6
CONTINUOUS
10
6.47646
20
-8.01774
11
6.47646
21
-7.91932
0
LINE
8
BLACK
6
CONTINUOUS
10
6.47646
20
-7.91932
11
6.45303
21
-7.91932
0
LINE
8
BLACK
6
CONTINUOUS
10
6.45303
20
-7.91932
11
6.44365
21
-7.924
0
LINE
8
BLACK
6
CONTINUOUS
10
6.44365
20
-7.924
11
6.43897
21
-7.92869
0
LINE
8
BLACK
6
CONTINUOUS
10
6.43897
20
-7.92869
11
6.43428
21
-7.93807
0
LINE
8
BLACK
6
CONTINUOUS
10
6.43428
20
-7.93807
11
6.42491
21
-8.01774
0
LINE
8
BLACK
6
CONTINUOUS
10
6.57489
20
-8.01774
11
6.57489
21
-7.96619
0
LINE
8
BLACK
6
CONTINUOUS
10
6.57489
20
-7.96619
11
6.5702
21
-7.95681
0
LINE
8
BLACK
6
CONTINUOUS
10
6.5702
20
-7.95681
11
6.56083
21
-7.95213
0
LINE
8
BLACK
6
CONTINUOUS
10
6.56083
20
-7.95213
11
6.54208
21
-7.95213
0
LINE
8
BLACK
6
CONTINUOUS
10
6.54208
20
-7.95213
11
6.5327
21
-7.95681
0
LINE
8
BLACK
6
CONTINUOUS
10
6.57489
20
-8.01306
11
6.56551
21
-8.01774
0
LINE
8
BLACK
6
CONTINUOUS
10
6.56551
20
-8.01774
11
6.54208
21
-8.01774
0
LINE
8
BLACK
6
CONTINUOUS
10
6.54208
20
-8.01774
11
6.5327
21
-8.01306
0
LINE
8
BLACK
6
CONTINUOUS
10
6.5327
20
-8.01306
11
6.52802
21
-8.00369
0
LINE
8
BLACK
6
CONTINUOUS
10
6.52802
20
-8.00369
11
6.52802
21
-7.99431
0
LINE
8
BLACK
6
CONTINUOUS
10
6.52802
20
-7.99431
11
6.5327
21
-7.98494
0
LINE
8
BLACK
6
CONTINUOUS
10
6.5327
20
-7.98494
11
6.54208
21
-7.98025
0
LINE
8
BLACK
6
CONTINUOUS
10
6.54208
20
-7.98025
11
6.56551
21
-7.98025
0
LINE
8
BLACK
6
CONTINUOUS
10
6.56551
20
-7.98025
11
6.57489
21
-7.97556
0
LINE
8
BLACK
6
CONTINUOUS
10
6.60769
20
-7.95213
11
6.65456
21
-7.95213
0
LINE
8
BLACK
6
CONTINUOUS
10
6.63113
20
-7.95213
11
6.63113
21
-8.01774
0
LINE
8
BLACK
6
CONTINUOUS
10
6.72956
20
-8.01774
11
6.72956
21
-7.96619
0
LINE
8
BLACK
6
CONTINUOUS
10
6.72956
20
-7.96619
11
6.72487
21
-7.95681
0
LINE
8
BLACK
6
CONTINUOUS
10
6.72487
20
-7.95681
11
6.7155
21
-7.95213
0
LINE
8
BLACK
6
CONTINUOUS
10
6.7155
20
-7.95213
11
6.69675
21
-7.95213
0
LINE
8
BLACK
6
CONTINUOUS
10
6.69675
20
-7.95213
11
6.68737
21
-7.95681
0
LINE
8
BLACK
6
CONTINUOUS
10
6.72956
20
-8.01306
11
6.72018
21
-8.01774
0
LINE
8
BLACK
6
CONTINUOUS
10
6.72018
20
-8.01774
11
6.69675
21
-8.01774
0
LINE
8
BLACK
6
CONTINUOUS
10
6.69675
20
-8.01774
11
6.68737
21
-8.01306
0
LINE
8
BLACK
6
CONTINUOUS
10
6.68737
20
-8.01306
11
6.68269
21
-8.00369
0
LINE
8
BLACK
6
CONTINUOUS
10
6.68269
20
-8.00369
11
6.68269
21
-7.99431
0
LINE
8
BLACK
6
CONTINUOUS
10
6.68269
20
-7.99431
11
6.68737
21
-7.98494
0
LINE
8
BLACK
6
CONTINUOUS
10
6.68737
20
-7.98494
11
6.69675
21
-7.98025
0
LINE
8
BLACK
6
CONTINUOUS
10
6.69675
20
-7.98025
11
6.72018
21
-7.98025
0
LINE
8
BLACK
6
CONTINUOUS
10
6.72018
20
-7.98025
11
6.72956
21
-7.97556
0
LINE
8
BLACK
6
CONTINUOUS
10
4.2463
20
-7.91932
11
4.2463
21
-8.01774
0
LINE
8
BLACK
6
CONTINUOUS
10
4.2463
20
-8.01774
11
4.28797
21
-7.91932
0
LINE
8
BLACK
6
CONTINUOUS
10
4.28797
20
-7.91932
11
4.28797
21
-8.01774
0
LINE
8
BLACK
6
CONTINUOUS
10
4.32965
20
-7.98494
11
4.33659
21
-7.98494
0
LINE
8
BLACK
6
CONTINUOUS
10
4.31576
20
-7.95681
11
4.3227
21
-7.95213
0
LINE
8
BLACK
6
CONTINUOUS
10
4.3227
20
-7.95213
11
4.33659
21
-7.95213
0
LINE
8
BLACK
6
CONTINUOUS
10
4.33659
20
-7.95213
11
4.34354
21
-7.95681
0
LINE
8
BLACK
6
CONTINUOUS
10
4.34354
20
-7.95681
11
4.34701
21
-7.96619
0
LINE
8
BLACK
6
CONTINUOUS
10
4.34701
20
-7.96619
11
4.34701
21
-7.97087
0
LINE
8
BLACK
6
CONTINUOUS
10
4.34701
20
-7.97087
11
4.34354
21
-7.98025
0
LINE
8
BLACK
6
CONTINUOUS
10
4.34354
20
-7.98025
11
4.33659
21
-7.98494
0
LINE
8
BLACK
6
CONTINUOUS
10
4.33659
20
-7.98494
11
4.34354
21
-7.98962
0
LINE
8
BLACK
6
CONTINUOUS
10
4.34354
20
-7.98962
11
4.34701
21
-7.999
0
LINE
8
BLACK
6
CONTINUOUS
10
4.34701
20
-7.999
11
4.34701
21
-8.00369
0
LINE
8
BLACK
6
CONTINUOUS
10
4.34701
20
-8.00369
11
4.34354
21
-8.01306
0
LINE
8
BLACK
6
CONTINUOUS
10
4.34354
20
-8.01306
11
4.33659
21
-8.01774
0
LINE
8
BLACK
6
CONTINUOUS
10
4.33659
20
-8.01774
11
4.3227
21
-8.01774
0
LINE
8
BLACK
6
CONTINUOUS
10
4.3227
20
-8.01774
11
4.31576
21
-8.01306
0
LINE
8
BLACK
6
CONTINUOUS
10
4.37826
20
-8.01774
11
4.37826
21
-7.95213
0
LINE
8
BLACK
6
CONTINUOUS
10
4.37826
20
-7.95213
11
4.3991
21
-8.00369
0
LINE
8
BLACK
6
CONTINUOUS
10
4.3991
20
-8.00369
11
4.41993
21
-7.95213
0
LINE
8
BLACK
6
CONTINUOUS
10
4.41993
20
-7.95213
11
4.41993
21
-8.01774
0
LINE
8
BLACK
6
CONTINUOUS
10
4.45466
20
-8.00837
11
4.45813
21
-8.01306
0
LINE
8
BLACK
6
CONTINUOUS
10
4.45813
20
-8.01306
11
4.45466
21
-8.01774
0
LINE
8
BLACK
6
CONTINUOUS
10
4.45466
20
-8.01774
11
4.45119
21
-8.01306
0
LINE
8
BLACK
6
CONTINUOUS
10
4.45119
20
-8.01306
11
4.45466
21
-8.00837
0
LINE
8
BLACK
6
CONTINUOUS
10
4.45466
20
-8.00837
11
4.45466
21
-8.01774
0
LINE
8
BLACK
6
CONTINUOUS
10
0.35998
20
-4.65204
11
0.458406
21
-4.65204
0
LINE
8
BLACK
6
CONTINUOUS
10
0.458406
20
-4.65204
11
0.35998
21
-4.5958
0
LINE
8
BLACK
6
CONTINUOUS
10
0.35998
20
-4.5958
11
0.458406
21
-4.5958
0
LINE
8
BLACK
6
CONTINUOUS
10
0.425598
20
-4.54893
11
0.425598
21
-4.50675
0
LINE
8
BLACK
6
CONTINUOUS
10
0.392787
20
-4.54893
11
0.458406
21
-4.54893
0
LINE
8
BLACK
6
CONTINUOUS
10
0.392787
20
-4.50675
11
0.458406
21
-4.50675
0
LINE
8
BLACK
6
CONTINUOUS
10
0.425598
20
-4.43645
11
0.430283
21
-4.42239
0
LINE
8
BLACK
6
CONTINUOUS
10
0.430283
20
-4.42239
11
0.439657
21
-4.4177
0
LINE
8
BLACK
6
CONTINUOUS
10
0.439657
20
-4.4177
11
0.444346
21
-4.4177
0
LINE
8
BLACK
6
CONTINUOUS
10
0.444346
20
-4.4177
11
0.45372
21
-4.42239
0
LINE
8
BLACK
6
CONTINUOUS
10
0.45372
20
-4.42239
11
0.458406
21
-4.43176
0
LINE
8
BLACK
6
CONTINUOUS
10
0.458406
20
-4.43176
11
0.458406
21
-4.45988
0
LINE
8
BLACK
6
CONTINUOUS
10
0.458406
20
-4.45988
11
0.392787
21
-4.45988
0
LINE
8
BLACK
6
CONTINUOUS
10
0.392787
20
-4.45988
11
0.392787
21
-4.43645
0
LINE
8
BLACK
6
CONTINUOUS
10
0.392787
20
-4.43645
11
0.397476
21
-4.42707
0
LINE
8
BLACK
6
CONTINUOUS
10
0.397476
20
-4.42707
11
0.40685
21
-4.42239
0
LINE
8
BLACK
6
CONTINUOUS
10
0.40685
20
-4.42239
11
0.411535
21
-4.42239
0
LINE
8
BLACK
6
CONTINUOUS
10
0.411535
20
-4.42239
11
0.420909
21
-4.42707
0
LINE
8
BLACK
6
CONTINUOUS
10
0.420909
20
-4.42707
11
0.425598
21
-4.43645
0
LINE
8
BLACK
6
CONTINUOUS
10
0.425598
20
-4.43645
11
0.425598
21
-4.45988
0
LINE
8
BLACK
6
CONTINUOUS
10
0.449031
20
-4.37552
11
0.45372
21
-4.37083
0
LINE
8
BLACK
6
CONTINUOUS
10
0.45372
20
-4.37083
11
0.458406
21
-4.37552
0
LINE
8
BLACK
6
CONTINUOUS
10
0.458406
20
-4.37552
11
0.45372
21
-4.3802
0
LINE
8
BLACK
6
CONTINUOUS
10
0.45372
20
-4.3802
11
0.449031
21
-4.37552
0
LINE
8
BLACK
6
CONTINUOUS
10
0.449031
20
-4.37552
11
0.458406
21
-4.37552
0
LINE
8
BLACK
6
CONTINUOUS
10
0.458406
20
-4.32865
11
0.35998
21
-4.32865
0
LINE
8
BLACK
6
CONTINUOUS
10
0.35998
20
-4.32865
11
0.458406
21
-4.2724
0
LINE
8
BLACK
6
CONTINUOUS
10
0.458406
20
-4.2724
11
0.35998
21
-4.2724
0
LINE
8
BLACK
6
CONTINUOUS
10
0.35998
20
-4.21148
11
0.364665
21
-4.22085
0
LINE
8
BLACK
6
CONTINUOUS
10
0.364665
20
-4.22085
11
0.374039
21
-4.22554
0
LINE
8
BLACK
6
CONTINUOUS
10
0.374039
20
-4.22554
11
0.383413
21
-4.22085
0
LINE
8
BLACK
6
CONTINUOUS
10
0.383413
20
-4.22085
11
0.388102
21
-4.21148
0
LINE
8
BLACK
6
CONTINUOUS
10
0.388102
20
-4.21148
11
0.383413
21
-4.2021
0
LINE
8
BLACK
6
CONTINUOUS
10
0.383413
20
-4.2021
11
0.374039
21
-4.19741
0
LINE
8
BLACK
6
CONTINUOUS
10
0.374039
20
-4.19741
11
0.364665
21
-4.2021
0
LINE
8
BLACK
6
CONTINUOUS
10
0.364665
20
-4.2021
11
0.35998
21
-4.21148
0
LINE
8
BLACK
6
CONTINUOUS
10
0.402161
20
-4.10367
11
0.397476
21
-4.10836
0
LINE
8
BLACK
6
CONTINUOUS
10
0.397476
20
-4.10836
11
0.392787
21
-4.11774
0
LINE
8
BLACK
6
CONTINUOUS
10
0.392787
20
-4.11774
11
0.392787
21
-4.13648
0
LINE
8
BLACK
6
CONTINUOUS
10
0.392787
20
-4.13648
11
0.397476
21
-4.14586
0
LINE
8
BLACK
6
CONTINUOUS
10
0.397476
20
-4.14586
11
0.402161
21
-4.15054
0
LINE
8
BLACK
6
CONTINUOUS
10
0.402161
20
-4.15054
11
0.411535
21
-4.15523
0
LINE
8
BLACK
6
CONTINUOUS
10
0.411535
20
-4.15523
11
0.439657
21
-4.15523
0
LINE
8
BLACK
6
CONTINUOUS
10
0.439657
20
-4.15523
11
0.449031
21
-4.15054
0
LINE
8
BLACK
6
CONTINUOUS
10
0.449031
20
-4.15054
11
0.45372
21
-4.14586
0
LINE
8
BLACK
6
CONTINUOUS
10
0.45372
20
-4.14586
11
0.458406
21
-4.13648
0
LINE
8
BLACK
6
CONTINUOUS
10
0.458406
20
-4.13648
11
0.458406
21
-4.12242
0
LINE
8
BLACK
6
CONTINUOUS
10
0.458406
20
-4.12242
11
0.45372
21
-4.11305
0
LINE
8
BLACK
6
CONTINUOUS
10
0.45372
20
-4.11305
11
0.449031
21
-4.10836
0
LINE
8
BLACK
6
CONTINUOUS
10
0.449031
20
-4.10836
11
0.439657
21
-4.10367
0
LINE
8
BLACK
6
CONTINUOUS
10
0.439657
20
-4.10367
11
0.378728
21
-4.10367
0
LINE
8
BLACK
6
CONTINUOUS
10
0.378728
20
-4.10367
11
0.369354
21
-4.10836
0
LINE
8
BLACK
6
CONTINUOUS
10
0.369354
20
-4.10836
11
0.364665
21
-4.11305
0
LINE
8
BLACK
6
CONTINUOUS
10
0.364665
20
-4.11305
11
0.35998
21
-4.12242
0
LINE
8
BLACK
6
CONTINUOUS
10
0.35998
20
-4.12242
11
0.35998
21
-4.14117
0
LINE
8
BLACK
6
CONTINUOUS
10
0.35998
20
-4.14117
11
0.364665
21
-4.15054
0
LINE
8
BLACK
6
CONTINUOUS
10
0.392787
20
-4.07087
11
0.458406
21
-4.04743
0
LINE
8
BLACK
6
CONTINUOUS
10
0.392787
20
-4.024
11
0.458406
21
-4.04743
0
LINE
8
BLACK
6
CONTINUOUS
10
0.458406
20
-4.04743
11
0.481839
21
-4.05681
0
LINE
8
BLACK
6
CONTINUOUS
10
0.481839
20
-4.05681
11
0.486528
21
-4.06149
0
LINE
8
BLACK
6
CONTINUOUS
10
0.486528
20
-4.06149
11
0.491213
21
-4.07087
0
LINE
8
BLACK
6
CONTINUOUS
10
0.355295
20
-3.93963
11
0.35998
21
-3.94432
0
LINE
8
BLACK
6
CONTINUOUS
10
0.35998
20
-3.94432
11
0.364665
21
-3.95369
0
LINE
8
BLACK
6
CONTINUOUS
10
0.364665
20
-3.95369
11
0.364665
21
-3.97244
0
LINE
8
BLACK
6
CONTINUOUS
10
0.364665
20
-3.97244
11
0.369354
21
-3.98181
0
LINE
8
BLACK
6
CONTINUOUS
10
0.369354
20
-3.98181
11
0.374039
21
-3.9865
0
LINE
8
BLACK
6
CONTINUOUS
10
0.374039
20
-3.9865
11
0.383413
21
-3.99119
0
LINE
8
BLACK
6
CONTINUOUS
10
0.383413
20
-3.99119
11
0.439657
21
-3.99119
0
LINE
8
BLACK
6
CONTINUOUS
10
0.439657
20
-3.99119
11
0.449031
21
-3.9865
0
LINE
8
BLACK
6
CONTINUOUS
10
0.449031
20
-3.9865
11
0.45372
21
-3.98181
0
LINE
8
BLACK
6
CONTINUOUS
10
0.45372
20
-3.98181
11
0.458406
21
-3.97244
0
LINE
8
BLACK
6
CONTINUOUS
10
0.458406
20
-3.97244
11
0.458406
21
-3.95838
0
LINE
8
BLACK
6
CONTINUOUS
10
0.458406
20
-3.95838
11
0.45372
21
-3.949
0
LINE
8
BLACK
6
CONTINUOUS
10
0.45372
20
-3.949
11
0.449031
21
-3.94432
0
LINE
8
BLACK
6
CONTINUOUS
10
0.449031
20
-3.94432
11
0.439657
21
-3.93963
0
LINE
8
BLACK
6
CONTINUOUS
10
0.439657
20
-3.93963
11
0.411535
21
-3.93963
0
LINE
8
BLACK
6
CONTINUOUS
10
0.411535
20
-3.93963
11
0.402161
21
-3.94432
0
LINE
8
BLACK
6
CONTINUOUS
10
0.402161
20
-3.94432
11
0.397476
21
-3.949
0
LINE
8
BLACK
6
CONTINUOUS
10
0.397476
20
-3.949
11
0.392787
21
-3.95838
0
LINE
8
BLACK
6
CONTINUOUS
10
0.392787
20
-3.95838
11
0.392787
21
-3.97713
0
LINE
8
BLACK
6
CONTINUOUS
10
0.392787
20
-3.97713
11
0.397476
21
-3.9865
0
LINE
8
BLACK
6
CONTINUOUS
10
0.397476
20
-3.9865
11
0.402161
21
-3.99119
0
LINE
8
BLACK
6
CONTINUOUS
10
0.458406
20
-3.85995
11
0.392787
21
-3.85995
0
LINE
8
BLACK
6
CONTINUOUS
10
0.392787
20
-3.85995
11
0.392787
21
-3.87402
0
LINE
8
BLACK
6
CONTINUOUS
10
0.392787
20
-3.87402
11
0.397476
21
-3.88339
0
LINE
8
BLACK
6
CONTINUOUS
10
0.397476
20
-3.88339
11
0.40685
21
-3.88807
0
LINE
8
BLACK
6
CONTINUOUS
10
0.40685
20
-3.88807
11
0.444346
21
-3.89276
0
LINE
8
BLACK
6
CONTINUOUS
10
0.444346
20
-3.89276
11
0.45372
21
-3.89745
0
LINE
8
BLACK
6
CONTINUOUS
10
0.45372
20
-3.89745
11
0.458406
21
-3.90682
0
LINE
8
BLACK
6
CONTINUOUS
10
0.449031
20
-3.81308
11
0.45372
21
-3.8084
0
LINE
8
BLACK
6
CONTINUOUS
10
0.45372
20
-3.8084
11
0.458406
21
-3.81308
0
LINE
8
BLACK
6
CONTINUOUS
10
0.458406
20
-3.81308
11
0.45372
21
-3.81777
0
LINE
8
BLACK
6
CONTINUOUS
10
0.45372
20
-3.81777
11
0.449031
21
-3.81308
0
LINE
8
BLACK
6
CONTINUOUS
10
0.449031
20
-3.81308
11
0.458406
21
-3.81308
0
LINE
8
BLACK
6
CONTINUOUS
10
0.35998
20
-8.00553
11
0.458406
21
-8.00553
0
LINE
8
BLACK
6
CONTINUOUS
10
0.458406
20
-8.00553
11
0.35998
21
-7.94929
0
LINE
8
BLACK
6
CONTINUOUS
10
0.35998
20
-7.94929
11
0.458406
21
-7.94929
0
LINE
8
BLACK
6
CONTINUOUS
10
0.425598
20
-7.90242
11
0.425598
21
-7.86024
0
LINE
8
BLACK
6
CONTINUOUS
10
0.392787
20
-7.90242
11
0.458406
21
-7.90242
0
LINE
8
BLACK
6
CONTINUOUS
10
0.392787
20
-7.86024
11
0.458406
21
-7.86024
0
LINE
8
BLACK
6
CONTINUOUS
10
0.425598
20
-7.78994
11
0.430283
21
-7.77587
0
LINE
8
BLACK
6
CONTINUOUS
10
0.430283
20
-7.77587
11
0.439657
21
-7.77119
0
LINE
8
BLACK
6
CONTINUOUS
10
0.439657
20
-7.77119
11
0.444346
21
-7.77119
0
LINE
8
BLACK
6
CONTINUOUS
10
0.444346
20
-7.77119
11
0.45372
21
-7.77587
0
LINE
8
BLACK
6
CONTINUOUS
10
0.45372
20
-7.77587
11
0.458406
21
-7.78525
0
LINE
8
BLACK
6
CONTINUOUS
10
0.458406
20
-7.78525
11
0.458406
21
-7.81337
0
LINE
8
BLACK
6
CONTINUOUS
10
0.458406
20
-7.81337
11
0.392787
21
-7.81337
0
LINE
8
BLACK
6
CONTINUOUS
10
0.392787
20
-7.81337
11
0.392787
21
-7.78994
0
LINE
8
BLACK
6
CONTINUOUS
10
0.392787
20
-7.78994
11
0.397476
21
-7.78056
0
LINE
8
BLACK
6
CONTINUOUS
10
0.397476
20
-7.78056
11
0.40685
21
-7.77587
0
LINE
8
BLACK
6
CONTINUOUS
10
0.40685
20
-7.77587
11
0.411535
21
-7.77587
0
LINE
8
BLACK
6
CONTINUOUS
10
0.411535
20
-7.77587
11
0.420909
21
-7.78056
0
LINE
8
BLACK
6
CONTINUOUS
10
0.420909
20
-7.78056
11
0.425598
21
-7.78994
0
LINE
8
BLACK
6
CONTINUOUS
10
0.425598
20
-7.78994
11
0.425598
21
-7.81337
0
LINE
8
BLACK
6
CONTINUOUS
10
0.449031
20
-7.729
11
0.45372
21
-7.72432
0
LINE
8
BLACK
6
CONTINUOUS
10
0.45372
20
-7.72432
11
0.458406
21
-7.729
0
LINE
8
BLACK
6
CONTINUOUS
10
0.458406
20
-7.729
11
0.45372
21
-7.73369
0
LINE
8
BLACK
6
CONTINUOUS
10
0.45372
20
-7.73369
11
0.449031
21
-7.729
0
LINE
8
BLACK
6
CONTINUOUS
10
0.449031
20
-7.729
11
0.458406
21
-7.729
0
LINE
8
BLACK
6
CONTINUOUS
10
0.458406
20
-7.68213
11
0.35998
21
-7.68213
0
LINE
8
BLACK
6
CONTINUOUS
10
0.35998
20
-7.68213
11
0.458406
21
-7.62589
0
LINE
8
BLACK
6
CONTINUOUS
10
0.458406
20
-7.62589
11
0.35998
21
-7.62589
0
LINE
8
BLACK
6
CONTINUOUS
10
0.35998
20
-7.56496
11
0.364665
21
-7.57434
0
LINE
8
BLACK
6
CONTINUOUS
10
0.364665
20
-7.57434
11
0.374039
21
-7.57902
0
LINE
8
BLACK
6
CONTINUOUS
10
0.374039
20
-7.57902
11
0.383413
21
-7.57434
0
LINE
8
BLACK
6
CONTINUOUS
10
0.383413
20
-7.57434
11
0.388102
21
-7.56496
0
LINE
8
BLACK
6
CONTINUOUS
10
0.388102
20
-7.56496
11
0.383413
21
-7.55559
0
LINE
8
BLACK
6
CONTINUOUS
10
0.383413
20
-7.55559
11
0.374039
21
-7.5509
0
LINE
8
BLACK
6
CONTINUOUS
10
0.374039
20
-7.5509
11
0.364665
21
-7.55559
0
LINE
8
BLACK
6
CONTINUOUS
10
0.364665
20
-7.55559
11
0.35998
21
-7.56496
0
LINE
8
BLACK
6
CONTINUOUS
10
0.458406
20
-7.50403
11
0.392787
21
-7.50403
0
LINE
8
BLACK
6
CONTINUOUS
10
0.392787
20
-7.50403
11
0.392787
21
-7.46185
0
LINE
8
BLACK
6
CONTINUOUS
10
0.392787
20
-7.46185
11
0.458406
21
-7.46185
0
LINE
8
BLACK
6
CONTINUOUS
10
0.458406
20
-7.40092
11
0.45372
21
-7.4103
0
LINE
8
BLACK
6
CONTINUOUS
10
0.45372
20
-7.4103
11
0.449031
21
-7.41498
0
LINE
8
BLACK
6
CONTINUOUS
10
0.449031
20
-7.41498
11
0.439657
21
-7.41967
0
LINE
8
BLACK
6
CONTINUOUS
10
0.439657
20
-7.41967
11
0.411535
21
-7.41967
0
LINE
8
BLACK
6
CONTINUOUS
10
0.411535
20
-7.41967
11
0.402161
21
-7.41498
0
LINE
8
BLACK
6
CONTINUOUS
10
0.402161
20
-7.41498
11
0.397476
21
-7.4103
0
LINE
8
BLACK
6
CONTINUOUS
10
0.397476
20
-7.4103
11
0.392787
21
-7.40092
0
LINE
8
BLACK
6
CONTINUOUS
10
0.392787
20
-7.40092
11
0.392787
21
-7.38686
0
LINE
8
BLACK
6
CONTINUOUS
10
0.392787
20
-7.38686
11
0.397476
21
-7.37748
0
LINE
8
BLACK
6
CONTINUOUS
10
0.397476
20
-7.37748
11
0.402161
21
-7.3728
0
LINE
8
BLACK
6
CONTINUOUS
10
0.402161
20
-7.3728
11
0.411535
21
-7.36811
0
LINE
8
BLACK
6
CONTINUOUS
10
0.411535
20
-7.36811
11
0.439657
21
-7.36811
0
LINE
8
BLACK
6
CONTINUOUS
10
0.439657
20
-7.36811
11
0.449031
21
-7.3728
0
LINE
8
BLACK
6
CONTINUOUS
10
0.449031
20
-7.3728
11
0.45372
21
-7.37748
0
LINE
8
BLACK
6
CONTINUOUS
10
0.45372
20
-7.37748
11
0.458406
21
-7.38686
0
LINE
8
BLACK
6
CONTINUOUS
10
0.458406
20
-7.38686
11
0.458406
21
-7.40092
0
LINE
8
BLACK
6
CONTINUOUS
10
0.402161
20
-7.27906
11
0.397476
21
-7.28375
0
LINE
8
BLACK
6
CONTINUOUS
10
0.397476
20
-7.28375
11
0.392787
21
-7.29312
0
LINE
8
BLACK
6
CONTINUOUS
10
0.392787
20
-7.29312
11
0.392787
21
-7.31187
0
LINE
8
BLACK
6
CONTINUOUS
10
0.392787
20
-7.31187
11
0.397476
21
-7.32124
0
LINE
8
BLACK
6
CONTINUOUS
10
0.397476
20
-7.32124
11
0.402161
21
-7.32593
0
LINE
8
BLACK
6
CONTINUOUS
10
0.402161
20
-7.32593
11
0.411535
21
-7.33062
0
LINE
8
BLACK
6
CONTINUOUS
10
0.411535
20
-7.33062
11
0.439657
21
-7.33062
0
LINE
8
BLACK
6
CONTINUOUS
10
0.439657
20
-7.33062
11
0.449031
21
-7.32593
0
LINE
8
BLACK
6
CONTINUOUS
10
0.449031
20
-7.32593
11
0.45372
21
-7.32124
0
LINE
8
BLACK
6
CONTINUOUS
10
0.45372
20
-7.32124
11
0.458406
21
-7.31187
0
LINE
8
BLACK
6
CONTINUOUS
10
0.458406
20
-7.31187
11
0.458406
21
-7.29781
0
LINE
8
BLACK
6
CONTINUOUS
10
0.458406
20
-7.29781
11
0.45372
21
-7.28843
0
LINE
8
BLACK
6
CONTINUOUS
10
0.45372
20
-7.28843
11
0.449031
21
-7.28375
0
LINE
8
BLACK
6
CONTINUOUS
10
0.449031
20
-7.28375
11
0.439657
21
-7.27906
0
LINE
8
BLACK
6
CONTINUOUS
10
0.439657
20
-7.27906
11
0.378728
21
-7.27906
0
LINE
8
BLACK
6
CONTINUOUS
10
0.378728
20
-7.27906
11
0.369354
21
-7.28375
0
LINE
8
BLACK
6
CONTINUOUS
10
0.369354
20
-7.28375
11
0.364665
21
-7.28843
0
LINE
8
BLACK
6
CONTINUOUS
10
0.364665
20
-7.28843
11
0.35998
21
-7.29781
0
LINE
8
BLACK
6
CONTINUOUS
10
0.35998
20
-7.29781
11
0.35998
21
-7.31656
0
LINE
8
BLACK
6
CONTINUOUS
10
0.35998
20
-7.31656
11
0.364665
21
-7.32593
0
LINE
8
BLACK
6
CONTINUOUS
10
0.458406
20
-7.19938
11
0.392787
21
-7.19938
0
LINE
8
BLACK
6
CONTINUOUS
10
0.392787
20
-7.19938
11
0.392787
21
-7.21344
0
LINE
8
BLACK
6
CONTINUOUS
10
0.392787
20
-7.21344
11
0.397476
21
-7.22282
0
LINE
8
BLACK
6
CONTINUOUS
10
0.397476
20
-7.22282
11
0.40685
21
-7.2275
0
LINE
8
BLACK
6
CONTINUOUS
10
0.40685
20
-7.2275
11
0.444346
21
-7.23219
0
LINE
8
BLACK
6
CONTINUOUS
10
0.444346
20
-7.23219
11
0.45372
21
-7.23688
0
LINE
8
BLACK
6
CONTINUOUS
10
0.45372
20
-7.23688
11
0.458406
21
-7.24625
0
LINE
8
BLACK
6
CONTINUOUS
10
0.449031
20
-7.15251
11
0.45372
21
-7.14783
0
LINE
8
BLACK
6
CONTINUOUS
10
0.45372
20
-7.14783
11
0.458406
21
-7.15251
0
LINE
8
BLACK
6
CONTINUOUS
10
0.458406
20
-7.15251
11
0.45372
21
-7.1572
0
LINE
8
BLACK
6
CONTINUOUS
10
0.45372
20
-7.1572
11
0.449031
21
-7.15251
0
LINE
8
BLACK
6
CONTINUOUS
10
0.449031
20
-7.15251
11
0.458406
21
-7.15251
0
LINE
8
BLACK
6
CONTINUOUS
10
7.19535
20
-8.21459
11
7.19535
21
-8.11617
0
LINE
8
BLACK
6
CONTINUOUS
10
7.25159
20
-8.21459
11
7.20941
21
-8.15835
0
LINE
8
BLACK
6
CONTINUOUS
10
7.25159
20
-8.11617
11
7.19535
21
-8.17241
0
LINE
8
BLACK
6
CONTINUOUS
10
7.30783
20
-8.21459
11
7.29846
21
-8.20991
0
LINE
8
BLACK
6
CONTINUOUS
10
7.29846
20
-8.20991
11
7.29377
21
-8.20522
0
LINE
8
BLACK
6
CONTINUOUS
10
7.29377
20
-8.20522
11
7.28908
21
-8.19585
0
LINE
8
BLACK
6
CONTINUOUS
10
7.28908
20
-8.19585
11
7.28908
21
-8.16772
0
LINE
8
BLACK
6
CONTINUOUS
10
7.28908
20
-8.16772
11
7.29377
21
-8.15835
0
LINE
8
BLACK
6
CONTINUOUS
10
7.29377
20
-8.15835
11
7.29846
21
-8.15367
0
LINE
8
BLACK
6
CONTINUOUS
10
7.29846
20
-8.15367
11
7.30783
21
-8.14898
0
LINE
8
BLACK
6
CONTINUOUS
10
7.30783
20
-8.14898
11
7.32189
21
-8.14898
0
LINE
8
BLACK
6
CONTINUOUS
10
7.32189
20
-8.14898
11
7.33127
21
-8.15367
0
LINE
8
BLACK
6
CONTINUOUS
10
7.33127
20
-8.15367
11
7.33595
21
-8.15835
0
LINE
8
BLACK
6
CONTINUOUS
10
7.33595
20
-8.15835
11
7.34064
21
-8.16772
0
LINE
8
BLACK
6
CONTINUOUS
10
7.34064
20
-8.16772
11
7.34064
21
-8.19585
0
LINE
8
BLACK
6
CONTINUOUS
10
7.34064
20
-8.19585
11
7.33595
21
-8.20522
0
LINE
8
BLACK
6
CONTINUOUS
10
7.33595
20
-8.20522
11
7.33127
21
-8.20991
0
LINE
8
BLACK
6
CONTINUOUS
10
7.33127
20
-8.20991
11
7.32189
21
-8.21459
0
LINE
8
BLACK
6
CONTINUOUS
10
7.32189
20
-8.21459
11
7.30783
21
-8.21459
0
LINE
8
BLACK
6
CONTINUOUS
10
7.38282
20
-8.21459
11
7.38282
21
-8.14898
0
LINE
8
BLACK
6
CONTINUOUS
10
7.38282
20
-8.14898
11
7.425
21
-8.14898
0
LINE
8
BLACK
6
CONTINUOUS
10
7.425
20
-8.14898
11
7.425
21
-8.21459
0
LINE
8
BLACK
6
CONTINUOUS
10
7.47187
20
-8.14898
11
7.47187
21
-8.21459
0
LINE
8
BLACK
6
CONTINUOUS
10
7.47187
20
-8.21459
11
7.51874
21
-8.14898
0
LINE
8
BLACK
6
CONTINUOUS
10
7.51874
20
-8.14898
11
7.51874
21
-8.21459
0
LINE
8
BLACK
6
CONTINUOUS
10
7.56561
20
-8.14898
11
7.56561
21
-8.2474
0
LINE
8
BLACK
6
CONTINUOUS
10
7.56561
20
-8.15367
11
7.57499
21
-8.14898
0
LINE
8
BLACK
6
CONTINUOUS
10
7.57499
20
-8.14898
11
7.59374
21
-8.14898
0
LINE
8
BLACK
6
CONTINUOUS
10
7.59374
20
-8.14898
11
7.60311
21
-8.15367
0
LINE
8
BLACK
6
CONTINUOUS
10
7.60311
20
-8.15367
11
7.6078
21
-8.15835
0
LINE
8
BLACK
6
CONTINUOUS
10
7.6078
20
-8.15835
11
7.61248
21
-8.16772
0
LINE
8
BLACK
6
CONTINUOUS
10
7.61248
20
-8.16772
11
7.61248
21
-8.19585
0
LINE
8
BLACK
6
CONTINUOUS
10
7.61248
20
-8.19585
11
7.6078
21
-8.20522
0
LINE
8
BLACK
6
CONTINUOUS
10
7.6078
20
-8.20522
11
7.60311
21
-8.20991
0
LINE
8
BLACK
6
CONTINUOUS
10
7.60311
20
-8.20991
11
7.59374
21
-8.21459
0
LINE
8
BLACK
6
CONTINUOUS
10
7.59374
20
-8.21459
11
7.57499
21
-8.21459
0
LINE
8
BLACK
6
CONTINUOUS
10
7.57499
20
-8.21459
11
7.56561
21
-8.20991
0
LINE
8
BLACK
6
CONTINUOUS
10
7.66872
20
-8.21459
11
7.65935
21
-8.20991
0
LINE
8
BLACK
6
CONTINUOUS
10
7.65935
20
-8.20991
11
7.65467
21
-8.20522
0
LINE
8
BLACK
6
CONTINUOUS
10
7.65467
20
-8.20522
11
7.64998
21
-8.19585
0
LINE
8
BLACK
6
CONTINUOUS
10
7.64998
20
-8.19585
11
7.64998
21
-8.16772
0
LINE
8
BLACK
6
CONTINUOUS
10
7.64998
20
-8.16772
11
7.65467
21
-8.15835
0
LINE
8
BLACK
6
CONTINUOUS
10
7.65467
20
-8.15835
11
7.65935
21
-8.15367
0
LINE
8
BLACK
6
CONTINUOUS
10
7.65935
20
-8.15367
11
7.66872
21
-8.14898
0
LINE
8
BLACK
6
CONTINUOUS
10
7.66872
20
-8.14898
11
7.68279
21
-8.14898
0
LINE
8
BLACK
6
CONTINUOUS
10
7.68279
20
-8.14898
11
7.69216
21
-8.15367
0
LINE
8
BLACK
6
CONTINUOUS
10
7.69216
20
-8.15367
11
7.69685
21
-8.15835
0
LINE
8
BLACK
6
CONTINUOUS
10
7.69685
20
-8.15835
11
7.70154
21
-8.16772
0
LINE
8
BLACK
6
CONTINUOUS
10
7.70154
20
-8.16772
11
7.70154
21
-8.19585
0
LINE
8
BLACK
6
CONTINUOUS
10
7.70154
20
-8.19585
11
7.69685
21
-8.20522
0
LINE
8
BLACK
6
CONTINUOUS
10
7.69685
20
-8.20522
11
7.69216
21
-8.20991
0
LINE
8
BLACK
6
CONTINUOUS
10
7.69216
20
-8.20991
11
7.68279
21
-8.21459
0
LINE
8
BLACK
6
CONTINUOUS
10
7.68279
20
-8.21459
11
7.66872
21
-8.21459
0
LINE
8
BLACK
6
CONTINUOUS
10
7.76715
20
-8.18179
11
7.78121
21
-8.18647
0
LINE
8
BLACK
6
CONTINUOUS
10
7.78121
20
-8.18647
11
7.7859
21
-8.19585
0
LINE
8
BLACK
6
CONTINUOUS
10
7.7859
20
-8.19585
11
7.7859
21
-8.20054
0
LINE
8
BLACK
6
CONTINUOUS
10
7.7859
20
-8.20054
11
7.78121
21
-8.20991
0
LINE
8
BLACK
6
CONTINUOUS
10
7.78121
20
-8.20991
11
7.77184
21
-8.21459
0
LINE
8
BLACK
6
CONTINUOUS
10
7.77184
20
-8.21459
11
7.74372
21
-8.21459
0
LINE
8
BLACK
6
CONTINUOUS
10
7.74372
20
-8.21459
11
7.74372
21
-8.14898
0
LINE
8
BLACK
6
CONTINUOUS
10
7.74372
20
-8.14898
11
7.76715
21
-8.14898
0
LINE
8
BLACK
6
CONTINUOUS
10
7.76715
20
-8.14898
11
7.77652
21
-8.15367
0
LINE
8
BLACK
6
CONTINUOUS
10
7.77652
20
-8.15367
11
7.78121
21
-8.16304
0
LINE
8
BLACK
6
CONTINUOUS
10
7.78121
20
-8.16304
11
7.78121
21
-8.16772
0
LINE
8
BLACK
6
CONTINUOUS
10
7.78121
20
-8.16772
11
7.77652
21
-8.1771
0
LINE
8
BLACK
6
CONTINUOUS
10
7.77652
20
-8.1771
11
7.76715
21
-8.18179
0
LINE
8
BLACK
6
CONTINUOUS
10
7.76715
20
-8.18179
11
7.74372
21
-8.18179
0
LINE
8
BLACK
6
CONTINUOUS
10
7.87026
20
-8.21459
11
7.87026
21
-8.16304
0
LINE
8
BLACK
6
CONTINUOUS
10
7.87026
20
-8.16304
11
7.86558
21
-8.15367
0
LINE
8
BLACK
6
CONTINUOUS
10
7.86558
20
-8.15367
11
7.8562
21
-8.14898
0
LINE
8
BLACK
6
CONTINUOUS
10
7.8562
20
-8.14898
11
7.83746
21
-8.14898
0
LINE
8
BLACK
6
CONTINUOUS
10
7.83746
20
-8.14898
11
7.82808
21
-8.15367
0
LINE
8
BLACK
6
CONTINUOUS
10
7.87026
20
-8.20991
11
7.86089
21
-8.21459
0
LINE
8
BLACK
6
CONTINUOUS
10
7.86089
20
-8.21459
11
7.83746
21
-8.21459
0
LINE
8
BLACK
6
CONTINUOUS
10
7.83746
20
-8.21459
11
7.82808
21
-8.20991
0
LINE
8
BLACK
6
CONTINUOUS
10
7.82808
20
-8.20991
11
7.82339
21
-8.20054
0
LINE
8
BLACK
6
CONTINUOUS
10
7.82339
20
-8.20054
11
7.82339
21
-8.19116
0
LINE
8
BLACK
6
CONTINUOUS
10
7.82339
20
-8.19116
11
7.82808
21
-8.18179
0
LINE
8
BLACK
6
CONTINUOUS
10
7.82808
20
-8.18179
11
7.83746
21
-8.1771
0
LINE
8
BLACK
6
CONTINUOUS
10
7.83746
20
-8.1771
11
7.86089
21
-8.1771
0
LINE
8
BLACK
6
CONTINUOUS
10
7.86089
20
-8.1771
11
7.87026
21
-8.17241
0
LINE
8
BLACK
6
CONTINUOUS
10
7.95463
20
-8.21459
11
7.95463
21
-8.14898
0
LINE
8
BLACK
6
CONTINUOUS
10
7.95463
20
-8.14898
11
7.94057
21
-8.14898
0
LINE
8
BLACK
6
CONTINUOUS
10
7.94057
20
-8.14898
11
7.93119
21
-8.15367
0
LINE
8
BLACK
6
CONTINUOUS
10
7.93119
20
-8.15367
11
7.92651
21
-8.16304
0
LINE
8
BLACK
6
CONTINUOUS
10
7.92651
20
-8.16304
11
7.92182
21
-8.20054
0
LINE
8
BLACK
6
CONTINUOUS
10
7.92182
20
-8.20054
11
7.91713
21
-8.20991
0
LINE
8
BLACK
6
CONTINUOUS
10
7.91713
20
-8.20991
11
7.90776
21
-8.21459
0
LINE
8
BLACK
6
CONTINUOUS
10
11.2056
20
-7.66341
11
11.2056
21
-7.56499
0
LINE
8
BLACK
6
CONTINUOUS
10
11.2056
20
-7.56499
11
11.1915
21
-7.56499
0
LINE
8
BLACK
6
CONTINUOUS
10
11.1915
20
-7.56499
11
11.1774
21
-7.56967
0
LINE
8
BLACK
6
CONTINUOUS
10
11.1774
20
-7.56967
11
11.1681
21
-7.57905
0
LINE
8
BLACK
6
CONTINUOUS
10
11.1681
20
-7.57905
11
11.1634
21
-7.59311
0
LINE
8
BLACK
6
CONTINUOUS
10
11.1634
20
-7.59311
11
11.154
21
-7.64935
0
LINE
8
BLACK
6
CONTINUOUS
10
11.154
20
-7.64935
11
11.1493
21
-7.65873
0
LINE
8
BLACK
6
CONTINUOUS
10
11.1493
20
-7.65873
11
11.1399
21
-7.66341
0
LINE
8
BLACK
6
CONTINUOUS
10
11.1399
20
-7.66341
11
11.1353
21
-7.66341
0
LINE
8
BLACK
6
CONTINUOUS
10
11.2524
20
-7.5978
11
11.2524
21
-7.66341
0
LINE
8
BLACK
6
CONTINUOUS
10
11.2524
20
-7.66341
11
11.2993
21
-7.5978
0
LINE
8
BLACK
6
CONTINUOUS
10
11.2993
20
-7.5978
11
11.2993
21
-7.66341
0
LINE
8
BLACK
6
CONTINUOUS
10
11.3883
20
-7.65873
11
11.379
21
-7.66341
0
LINE
8
BLACK
6
CONTINUOUS
10
11.379
20
-7.66341
11
11.3602
21
-7.66341
0
LINE
8
BLACK
6
CONTINUOUS
10
11.3602
20
-7.66341
11
11.3509
21
-7.65873
0
LINE
8
BLACK
6
CONTINUOUS
10
11.3509
20
-7.65873
11
11.3462
21
-7.65404
0
LINE
8
BLACK
6
CONTINUOUS
10
11.3462
20
-7.65404
11
11.3415
21
-7.64467
0
LINE
8
BLACK
6
CONTINUOUS
10
11.3415
20
-7.64467
11
11.3415
21
-7.61654
0
LINE
8
BLACK
6
CONTINUOUS
10
11.3415
20
-7.61654
11
11.3462
21
-7.60717
0
LINE
8
BLACK
6
CONTINUOUS
10
11.3462
20
-7.60717
11
11.3509
21
-7.60248
0
LINE
8
BLACK
6
CONTINUOUS
10
11.3509
20
-7.60248
11
11.3602
21
-7.5978
0
LINE
8
BLACK
6
CONTINUOUS
10
11.3602
20
-7.5978
11
11.379
21
-7.5978
0
LINE
8
BLACK
6
CONTINUOUS
10
11.379
20
-7.5978
11
11.3883
21
-7.60248
0
LINE
8
BLACK
6
CONTINUOUS
10
11.4165
20
-7.5978
11
11.4633
21
-7.5978
0
LINE
8
BLACK
6
CONTINUOUS
10
11.4399
20
-7.5978
11
11.4399
21
-7.66341
0
LINE
8
BLACK
6
CONTINUOUS
10
4.59139
20
-8.01774
11
4.59139
21
-7.91932
0
LINE
8
BLACK
6
CONTINUOUS
10
4.59139
20
-7.91932
11
4.57732
21
-7.91932
0
LINE
8
BLACK
6
CONTINUOUS
10
4.57732
20
-7.91932
11
4.56326
21
-7.924
0
LINE
8
BLACK
6
CONTINUOUS
10
4.56326
20
-7.924
11
4.55389
21
-7.93338
0
LINE
8
BLACK
6
CONTINUOUS
10
4.55389
20
-7.93338
11
4.5492
21
-7.94744
0
LINE
8
BLACK
6
CONTINUOUS
10
4.5492
20
-7.94744
11
4.53983
21
-8.00369
0
LINE
8
BLACK
6
CONTINUOUS
10
4.53983
20
-8.00369
11
4.53514
21
-8.01306
0
LINE
8
BLACK
6
CONTINUOUS
10
4.53514
20
-8.01306
11
4.52577
21
-8.01774
0
LINE
8
BLACK
6
CONTINUOUS
10
4.52577
20
-8.01774
11
4.52108
21
-8.01774
0
LINE
8
BLACK
6
CONTINUOUS
10
4.63825
20
-7.95213
11
4.63825
21
-8.01774
0
LINE
8
BLACK
6
CONTINUOUS
10
4.63825
20
-8.01774
11
4.68512
21
-7.95213
0
LINE
8
BLACK
6
CONTINUOUS
10
4.68512
20
-7.95213
11
4.68512
21
-8.01774
0
LINE
8
BLACK
6
CONTINUOUS
10
4.77417
20
-8.01306
11
4.7648
21
-8.01774
0
LINE
8
BLACK
6
CONTINUOUS
10
4.7648
20
-8.01774
11
4.74605
21
-8.01774
0
LINE
8
BLACK
6
CONTINUOUS
10
4.74605
20
-8.01774
11
4.73668
21
-8.01306
0
LINE
8
BLACK
6
CONTINUOUS
10
4.73668
20
-8.01306
11
4.73199
21
-8.00837
0
LINE
8
BLACK
6
CONTINUOUS
10
4.73199
20
-8.00837
11
4.7273
21
-7.999
0
LINE
8
BLACK
6
CONTINUOUS
10
4.7273
20
-7.999
11
4.7273
21
-7.97087
0
LINE
8
BLACK
6
CONTINUOUS
10
4.7273
20
-7.97087
11
4.73199
21
-7.9615
0
LINE
8
BLACK
6
CONTINUOUS
10
4.73199
20
-7.9615
11
4.73668
21
-7.95681
0
LINE
8
BLACK
6
CONTINUOUS
10
4.73668
20
-7.95681
11
4.74605
21
-7.95213
0
LINE
8
BLACK
6
CONTINUOUS
10
4.74605
20
-7.95213
11
4.7648
21
-7.95213
0
LINE
8
BLACK
6
CONTINUOUS
10
4.7648
20
-7.95213
11
4.77417
21
-7.95681
0
LINE
8
BLACK
6
CONTINUOUS
10
4.8023
20
-7.95213
11
4.84917
21
-7.95213
0
LINE
8
BLACK
6
CONTINUOUS
10
4.82573
20
-7.95213
11
4.82573
21
-8.01774
0
LINE
8
BLACK
6
CONTINUOUS
10
0.458406
20
-6.8713
11
0.35998
21
-6.8713
0
LINE
8
BLACK
6
CONTINUOUS
10
0.35998
20
-6.8713
11
0.35998
21
-6.81506
0
LINE
8
BLACK
6
CONTINUOUS
10
0.35998
20
-6.81506
11
0.458406
21
-6.81506
0
LINE
8
BLACK
6
CONTINUOUS
10
0.458406
20
-6.75413
11
0.45372
21
-6.7635
0
LINE
8
BLACK
6
CONTINUOUS
10
0.45372
20
-6.7635
11
0.449031
21
-6.76819
0
LINE
8
BLACK
6
CONTINUOUS
10
0.449031
20
-6.76819
11
0.439657
21
-6.77288
0
LINE
8
BLACK
6
CONTINUOUS
10
0.439657
20
-6.77288
11
0.411535
21
-6.77288
0
LINE
8
BLACK
6
CONTINUOUS
10
0.411535
20
-6.77288
11
0.402161
21
-6.76819
0
LINE
8
BLACK
6
CONTINUOUS
10
0.402161
20
-6.76819
11
0.397476
21
-6.7635
0
LINE
8
BLACK
6
CONTINUOUS
10
0.397476
20
-6.7635
11
0.392787
21
-6.75413
0
LINE
8
BLACK
6
CONTINUOUS
10
0.392787
20
-6.75413
11
0.392787
21
-6.74007
0
LINE
8
BLACK
6
CONTINUOUS
10
0.392787
20
-6.74007
11
0.397476
21
-6.73069
0
LINE
8
BLACK
6
CONTINUOUS
10
0.397476
20
-6.73069
11
0.402161
21
-6.72601
0
LINE
8
BLACK
6
CONTINUOUS
10
0.402161
20
-6.72601
11
0.411535
21
-6.72132
0
LINE
8
BLACK
6
CONTINUOUS
10
0.411535
20
-6.72132
11
0.439657
21
-6.72132
0
LINE
8
BLACK
6
CONTINUOUS
10
0.439657
20
-6.72132
11
0.449031
21
-6.72601
0
LINE
8
BLACK
6
CONTINUOUS
10
0.449031
20
-6.72601
11
0.45372
21
-6.73069
0
LINE
8
BLACK
6
CONTINUOUS
10
0.45372
20
-6.73069
11
0.458406
21
-6.74007
0
LINE
8
BLACK
6
CONTINUOUS
10
0.458406
20
-6.74007
11
0.458406
21
-6.75413
0
LINE
8
BLACK
6
CONTINUOUS
10
0.402161
20
-6.63227
11
0.397476
21
-6.63696
0
LINE
8
BLACK
6
CONTINUOUS
10
0.397476
20
-6.63696
11
0.392787
21
-6.64633
0
LINE
8
BLACK
6
CONTINUOUS
10
0.392787
20
-6.64633
11
0.392787
21
-6.66508
0
LINE
8
BLACK
6
CONTINUOUS
10
0.392787
20
-6.66508
11
0.397476
21
-6.67445
0
LINE
8
BLACK
6
CONTINUOUS
10
0.397476
20
-6.67445
11
0.402161
21
-6.67914
0
LINE
8
BLACK
6
CONTINUOUS
10
0.402161
20
-6.67914
11
0.411535
21
-6.68383
0
LINE
8
BLACK
6
CONTINUOUS
10
0.411535
20
-6.68383
11
0.439657
21
-6.68383
0
LINE
8
BLACK
6
CONTINUOUS
10
0.439657
20
-6.68383
11
0.449031
21
-6.67914
0
LINE
8
BLACK
6
CONTINUOUS
10
0.449031
20
-6.67914
11
0.45372
21
-6.67445
0
LINE
8
BLACK
6
CONTINUOUS
10
0.45372
20
-6.67445
11
0.458406
21
-6.66508
0
LINE
8
BLACK
6
CONTINUOUS
10
0.458406
20
-6.66508
11
0.458406
21
-6.65102
0
LINE
8
BLACK
6
CONTINUOUS
10
0.458406
20
-6.65102
11
0.45372
21
-6.64164
0
LINE
8
BLACK
6
CONTINUOUS
10
0.45372
20
-6.64164
11
0.449031
21
-6.63696
0
LINE
8
BLACK
6
CONTINUOUS
10
0.449031
20
-6.63696
11
0.439657
21
-6.63227
0
LINE
8
BLACK
6
CONTINUOUS
10
0.439657
20
-6.63227
11
0.378728
21
-6.63227
0
LINE
8
BLACK
6
CONTINUOUS
10
0.378728
20
-6.63227
11
0.369354
21
-6.63696
0
LINE
8
BLACK
6
CONTINUOUS
10
0.369354
20
-6.63696
11
0.364665
21
-6.64164
0
LINE
8
BLACK
6
CONTINUOUS
10
0.364665
20
-6.64164
11
0.35998
21
-6.65102
0
LINE
8
BLACK
6
CONTINUOUS
10
0.35998
20
-6.65102
11
0.35998
21
-6.66976
0
LINE
8
BLACK
6
CONTINUOUS
10
0.35998
20
-6.66976
11
0.364665
21
-6.67914
0
LINE
8
BLACK
6
CONTINUOUS
10
0.458406
20
-6.59009
11
0.392787
21
-6.59009
0
LINE
8
BLACK
6
CONTINUOUS
10
0.392787
20
-6.59009
11
0.392787
21
-6.54791
0
LINE
8
BLACK
6
CONTINUOUS
10
0.392787
20
-6.54791
11
0.458406
21
-6.54791
0
LINE
8
BLACK
6
CONTINUOUS
10
0.449031
20
-6.50104
11
0.45372
21
-6.49635
0
LINE
8
BLACK
6
CONTINUOUS
10
0.45372
20
-6.49635
11
0.458406
21
-6.50104
0
LINE
8
BLACK
6
CONTINUOUS
10
0.458406
20
-6.50104
11
0.45372
21
-6.50572
0
LINE
8
BLACK
6
CONTINUOUS
10
0.45372
20
-6.50572
11
0.449031
21
-6.50104
0
LINE
8
BLACK
6
CONTINUOUS
10
0.449031
20
-6.50104
11
0.458406
21
-6.50104
0
LINE
8
BLACK
6
CONTINUOUS
10
0.392787
20
-6.37917
11
0.458406
21
-6.37917
0
LINE
8
BLACK
6
CONTINUOUS
10
0.458406
20
-6.37917
11
0.392787
21
-6.3323
0
LINE
8
BLACK
6
CONTINUOUS
10
0.392787
20
-6.3323
11
0.458406
21
-6.3323
0
LINE
8
BLACK
6
CONTINUOUS
10
0.402161
20
-6.16357
11
0.397476
21
-6.16826
0
LINE
8
BLACK
6
CONTINUOUS
10
0.397476
20
-6.16826
11
0.392787
21
-6.17763
0
LINE
8
BLACK
6
CONTINUOUS
10
0.392787
20
-6.17763
11
0.392787
21
-6.19638
0
LINE
8
BLACK
6
CONTINUOUS
10
0.392787
20
-6.19638
11
0.397476
21
-6.20576
0
LINE
8
BLACK
6
CONTINUOUS
10
0.397476
20
-6.20576
11
0.402161
21
-6.21044
0
LINE
8
BLACK
6
CONTINUOUS
10
0.402161
20
-6.21044
11
0.411535
21
-6.21513
0
LINE
8
BLACK
6
CONTINUOUS
10
0.411535
20
-6.21513
11
0.439657
21
-6.21513
0
LINE
8
BLACK
6
CONTINUOUS
10
0.439657
20
-6.21513
11
0.449031
21
-6.21044
0
LINE
8
BLACK
6
CONTINUOUS
10
0.449031
20
-6.21044
11
0.45372
21
-6.20576
0
LINE
8
BLACK
6
CONTINUOUS
10
0.45372
20
-6.20576
11
0.458406
21
-6.19638
0
LINE
8
BLACK
6
CONTINUOUS
10
0.458406
20
-6.19638
11
0.458406
21
-6.18232
0
LINE
8
BLACK
6
CONTINUOUS
10
0.458406
20
-6.18232
11
0.45372
21
-6.17294
0
LINE
8
BLACK
6
CONTINUOUS
10
0.45372
20
-6.17294
11
0.449031
21
-6.16826
0
LINE
8
BLACK
6
CONTINUOUS
10
0.449031
20
-6.16826
11
0.439657
21
-6.16357
0
LINE
8
BLACK
6
CONTINUOUS
10
0.439657
20
-6.16357
11
0.378728
21
-6.16357
0
LINE
8
BLACK
6
CONTINUOUS
10
0.378728
20
-6.16357
11
0.369354
21
-6.16826
0
LINE
8
BLACK
6
CONTINUOUS
10
0.369354
20
-6.16826
11
0.364665
21
-6.17294
0
LINE
8
BLACK
6
CONTINUOUS
10
0.364665
20
-6.17294
11
0.35998
21
-6.18232
0
LINE
8
BLACK
6
CONTINUOUS
10
0.35998
20
-6.18232
11
0.35998
21
-6.20107
0
LINE
8
BLACK
6
CONTINUOUS
10
0.35998
20
-6.20107
11
0.364665
21
-6.21044
0
LINE
8
BLACK
6
CONTINUOUS
10
0.458406
20
-6.07921
11
0.40685
21
-6.07921
0
LINE
8
BLACK
6
CONTINUOUS
10
0.40685
20
-6.07921
11
0.397476
21
-6.08389
0
LINE
8
BLACK
6
CONTINUOUS
10
0.397476
20
-6.08389
11
0.392787
21
-6.09327
0
LINE
8
BLACK
6
CONTINUOUS
10
0.392787
20
-6.09327
11
0.392787
21
-6.11202
0
LINE
8
BLACK
6
CONTINUOUS
10
0.392787
20
-6.11202
11
0.397476
21
-6.12139
0
LINE
8
BLACK
6
CONTINUOUS
10
0.45372
20
-6.07921
11
0.458406
21
-6.08858
0
LINE
8
BLACK
6
CONTINUOUS
10
0.458406
20
-6.08858
11
0.458406
21
-6.11202
0
LINE
8
BLACK
6
CONTINUOUS
10
0.458406
20
-6.11202
11
0.45372
21
-6.12139
0
LINE
8
BLACK
6
CONTINUOUS
10
0.45372
20
-6.12139
11
0.444346
21
-6.12608
0
LINE
8
BLACK
6
CONTINUOUS
10
0.444346
20
-6.12608
11
0.434972
21
-6.12608
0
LINE
8
BLACK
6
CONTINUOUS
10
0.434972
20
-6.12608
11
0.425598
21
-6.12139
0
LINE
8
BLACK
6
CONTINUOUS
10
0.425598
20
-6.12139
11
0.420909
21
-6.11202
0
LINE
8
BLACK
6
CONTINUOUS
10
0.420909
20
-6.11202
11
0.420909
21
-6.08858
0
LINE
8
BLACK
6
CONTINUOUS
10
0.420909
20
-6.08858
11
0.416224
21
-6.07921
0
LINE
8
BLACK
6
CONTINUOUS
10
0.392787
20
-6.0464
11
0.392787
21
-5.99953
0
LINE
8
BLACK
6
CONTINUOUS
10
0.392787
20
-6.02296
11
0.458406
21
-6.02296
0
LINE
8
BLACK
6
CONTINUOUS
10
0.458406
20
-5.92454
11
0.40685
21
-5.92454
0
LINE
8
BLACK
6
CONTINUOUS
10
0.40685
20
-5.92454
11
0.397476
21
-5.92922
0
LINE
8
BLACK
6
CONTINUOUS
10
0.397476
20
-5.92922
11
0.392787
21
-5.9386
0
LINE
8
BLACK
6
CONTINUOUS
10
0.392787
20
-5.9386
11
0.392787
21
-5.95735
0
LINE
8
BLACK
6
CONTINUOUS
10
0.392787
20
-5.95735
11
0.397476
21
-5.96672
0
LINE
8
BLACK
6
CONTINUOUS
10
0.45372
20
-5.92454
11
0.458406
21
-5.93391
0
LINE
8
BLACK
6
CONTINUOUS
10
0.458406
20
-5.93391
11
0.458406
21
-5.95735
0
LINE
8
BLACK
6
CONTINUOUS
10
0.458406
20
-5.95735
11
0.45372
21
-5.96672
0
LINE
8
BLACK
6
CONTINUOUS
10
0.45372
20
-5.96672
11
0.444346
21
-5.97141
0
LINE
8
BLACK
6
CONTINUOUS
10
0.444346
20
-5.97141
11
0.434972
21
-5.97141
0
LINE
8
BLACK
6
CONTINUOUS
10
0.434972
20
-5.97141
11
0.425598
21
-5.96672
0
LINE
8
BLACK
6
CONTINUOUS
10
0.425598
20
-5.96672
11
0.420909
21
-5.95735
0
LINE
8
BLACK
6
CONTINUOUS
10
0.420909
20
-5.95735
11
0.420909
21
-5.93391
0
LINE
8
BLACK
6
CONTINUOUS
10
0.420909
20
-5.93391
11
0.416224
21
-5.92454
0
LINE
8
BLACK
6
CONTINUOUS
10
0.458406
20
-3.52484
11
0.35998
21
-3.52484
0
LINE
8
BLACK
6
CONTINUOUS
10
0.35998
20
-3.52484
11
0.35998
21
-3.4686
0
LINE
8
BLACK
6
CONTINUOUS
10
0.35998
20
-3.4686
11
0.458406
21
-3.4686
0
LINE
8
BLACK
6
CONTINUOUS
10
0.458406
20
-3.40767
11
0.45372
21
-3.41705
0
LINE
8
BLACK
6
CONTINUOUS
10
0.45372
20
-3.41705
11
0.449031
21
-3.42173
0
LINE
8
BLACK
6
CONTINUOUS
10
0.449031
20
-3.42173
11
0.439657
21
-3.42642
0
LINE
8
BLACK
6
CONTINUOUS
10
0.439657
20
-3.42642
11
0.411535
21
-3.42642
0
LINE
8
BLACK
6
CONTINUOUS
10
0.411535
20
-3.42642
11
0.402161
21
-3.42173
0
LINE
8
BLACK
6
CONTINUOUS
10
0.402161
20
-3.42173
11
0.397476
21
-3.41705
0
LINE
8
BLACK
6
CONTINUOUS
10
0.397476
20
-3.41705
11
0.392787
21
-3.40767
0
LINE
8
BLACK
6
CONTINUOUS
10
0.392787
20
-3.40767
11
0.392787
21
-3.39361
0
LINE
8
BLACK
6
CONTINUOUS
10
0.392787
20
-3.39361
11
0.397476
21
-3.38424
0
LINE
8
BLACK
6
CONTINUOUS
10
0.397476
20
-3.38424
11
0.402161
21
-3.37955
0
LINE
8
BLACK
6
CONTINUOUS
10
0.402161
20
-3.37955
11
0.411535
21
-3.37486
0
LINE
8
BLACK
6
CONTINUOUS
10
0.411535
20
-3.37486
11
0.439657
21
-3.37486
0
LINE
8
BLACK
6
CONTINUOUS
10
0.439657
20
-3.37486
11
0.449031
21
-3.37955
0
LINE
8
BLACK
6
CONTINUOUS
10
0.449031
20
-3.37955
11
0.45372
21
-3.38424
0
LINE
8
BLACK
6
CONTINUOUS
10
0.45372
20
-3.38424
11
0.458406
21
-3.39361
0
LINE
8
BLACK
6
CONTINUOUS
10
0.458406
20
-3.39361
11
0.458406
21
-3.40767
0
LINE
8
BLACK
6
CONTINUOUS
10
0.402161
20
-3.28581
11
0.397476
21
-3.2905
0
LINE
8
BLACK
6
CONTINUOUS
10
0.397476
20
-3.2905
11
0.392787
21
-3.29987
0
LINE
8
BLACK
6
CONTINUOUS
10
0.392787
20
-3.29987
11
0.392787
21
-3.31862
0
LINE
8
BLACK
6
CONTINUOUS
10
0.392787
20
-3.31862
11
0.397476
21
-3.328
0
LINE
8
BLACK
6
CONTINUOUS
10
0.397476
20
-3.328
11
0.402161
21
-3.33268
0
LINE
8
BLACK
6
CONTINUOUS
10
0.402161
20
-3.33268
11
0.411535
21
-3.33737
0
LINE
8
BLACK
6
CONTINUOUS
10
0.411535
20
-3.33737
11
0.439657
21
-3.33737
0
LINE
8
BLACK
6
CONTINUOUS
10
0.439657
20
-3.33737
11
0.449031
21
-3.33268
0
LINE
8
BLACK
6
CONTINUOUS
10
0.449031
20
-3.33268
11
0.45372
21
-3.328
0
LINE
8
BLACK
6
CONTINUOUS
10
0.45372
20
-3.328
11
0.458406
21
-3.31862
0
LINE
8
BLACK
6
CONTINUOUS
10
0.458406
20
-3.31862
11
0.458406
21
-3.30456
0
LINE
8
BLACK
6
CONTINUOUS
10
0.458406
20
-3.30456
11
0.45372
21
-3.29519
0
LINE
8
BLACK
6
CONTINUOUS
10
0.45372
20
-3.29519
11
0.449031
21
-3.2905
0
LINE
8
BLACK
6
CONTINUOUS
10
0.449031
20
-3.2905
11
0.439657
21
-3.28581
0
LINE
8
BLACK
6
CONTINUOUS
10
0.439657
20
-3.28581
11
0.378728
21
-3.28581
0
LINE
8
BLACK
6
CONTINUOUS
10
0.378728
20
-3.28581
11
0.369354
21
-3.2905
0
LINE
8
BLACK
6
CONTINUOUS
10
0.369354
20
-3.2905
11
0.364665
21
-3.29519
0
LINE
8
BLACK
6
CONTINUOUS
10
0.364665
20
-3.29519
11
0.35998
21
-3.30456
0
LINE
8
BLACK
6
CONTINUOUS
10
0.35998
20
-3.30456
11
0.35998
21
-3.32331
0
LINE
8
BLACK
6
CONTINUOUS
10
0.35998
20
-3.32331
11
0.364665
21
-3.33268
0
LINE
8
BLACK
6
CONTINUOUS
10
0.458406
20
-3.24363
11
0.392787
21
-3.24363
0
LINE
8
BLACK
6
CONTINUOUS
10
0.392787
20
-3.24363
11
0.392787
21
-3.20145
0
LINE
8
BLACK
6
CONTINUOUS
10
0.392787
20
-3.20145
11
0.458406
21
-3.20145
0
LINE
8
BLACK
6
CONTINUOUS
10
0.449031
20
-3.15458
11
0.45372
21
-3.14989
0
LINE
8
BLACK
6
CONTINUOUS
10
0.45372
20
-3.14989
11
0.458406
21
-3.15458
0
LINE
8
BLACK
6
CONTINUOUS
10
0.458406
20
-3.15458
11
0.45372
21
-3.15927
0
LINE
8
BLACK
6
CONTINUOUS
10
0.45372
20
-3.15927
11
0.449031
21
-3.15458
0
LINE
8
BLACK
6
CONTINUOUS
10
0.449031
20
-3.15458
11
0.458406
21
-3.15458
0
LINE
8
BLACK
6
CONTINUOUS
10
0.392787
20
-3.03272
11
0.458406
21
-3.03272
0
LINE
8
BLACK
6
CONTINUOUS
10
0.458406
20
-3.03272
11
0.392787
21
-2.98585
0
LINE
8
BLACK
6
CONTINUOUS
10
0.392787
20
-2.98585
11
0.458406
21
-2.98585
0
LINE
8
BLACK
6
CONTINUOUS
10
0.402161
20
-2.81711
11
0.397476
21
-2.8218
0
LINE
8
BLACK
6
CONTINUOUS
10
0.397476
20
-2.8218
11
0.392787
21
-2.83118
0
LINE
8
BLACK
6
CONTINUOUS
10
0.392787
20
-2.83118
11
0.392787
21
-2.84993
0
LINE
8
BLACK
6
CONTINUOUS
10
0.392787
20
-2.84993
11
0.397476
21
-2.8593
0
LINE
8
BLACK
6
CONTINUOUS
10
0.397476
20
-2.8593
11
0.402161
21
-2.86398
0
LINE
8
BLACK
6
CONTINUOUS
10
0.402161
20
-2.86398
11
0.411535
21
-2.86867
0
LINE
8
BLACK
6
CONTINUOUS
10
0.411535
20
-2.86867
11
0.439657
21
-2.86867
0
LINE
8
BLACK
6
CONTINUOUS
10
0.439657
20
-2.86867
11
0.449031
21
-2.86398
0
LINE
8
BLACK
6
CONTINUOUS
10
0.449031
20
-2.86398
11
0.45372
21
-2.8593
0
LINE
8
BLACK
6
CONTINUOUS
10
0.45372
20
-2.8593
11
0.458406
21
-2.84993
0
LINE
8
BLACK
6
CONTINUOUS
10
0.458406
20
-2.84993
11
0.458406
21
-2.83586
0
LINE
8
BLACK
6
CONTINUOUS
10
0.458406
20
-2.83586
11
0.45372
21
-2.82649
0
LINE
8
BLACK
6
CONTINUOUS
10
0.45372
20
-2.82649
11
0.449031
21
-2.8218
0
LINE
8
BLACK
6
CONTINUOUS
10
0.449031
20
-2.8218
11
0.439657
21
-2.81711
0
LINE
8
BLACK
6
CONTINUOUS
10
0.439657
20
-2.81711
11
0.378728
21
-2.81711
0
LINE
8
BLACK
6
CONTINUOUS
10
0.378728
20
-2.81711
11
0.369354
21
-2.8218
0
LINE
8
BLACK
6
CONTINUOUS
10
0.369354
20
-2.8218
11
0.364665
21
-2.82649
0
LINE
8
BLACK
6
CONTINUOUS
10
0.364665
20
-2.82649
11
0.35998
21
-2.83586
0
LINE
8
BLACK
6
CONTINUOUS
10
0.35998
20
-2.83586
11
0.35998
21
-2.85461
0
LINE
8
BLACK
6
CONTINUOUS
10
0.35998
20
-2.85461
11
0.364665
21
-2.86398
0
LINE
8
BLACK
6
CONTINUOUS
10
0.458406
20
-2.73275
11
0.40685
21
-2.73275
0
LINE
8
BLACK
6
CONTINUOUS
10
0.40685
20
-2.73275
11
0.397476
21
-2.73744
0
LINE
8
BLACK
6
CONTINUOUS
10
0.397476
20
-2.73744
11
0.392787
21
-2.74681
0
LINE
8
BLACK
6
CONTINUOUS
10
0.392787
20
-2.74681
11
0.392787
21
-2.76556
0
LINE
8
BLACK
6
CONTINUOUS
10
0.392787
20
-2.76556
11
0.397476
21
-2.77493
0
LINE
8
BLACK
6
CONTINUOUS
10
0.45372
20
-2.73275
11
0.458406
21
-2.74213
0
LINE
8
BLACK
6
CONTINUOUS
10
0.458406
20
-2.74213
11
0.458406
21
-2.76556
0
LINE
8
BLACK
6
CONTINUOUS
10
0.458406
20
-2.76556
11
0.45372
21
-2.77493
0
LINE
8
BLACK
6
CONTINUOUS
10
0.45372
20
-2.77493
11
0.444346
21
-2.77962
0
LINE
8
BLACK
6
CONTINUOUS
10
0.444346
20
-2.77962
11
0.434972
21
-2.77962
0
LINE
8
BLACK
6
CONTINUOUS
10
0.434972
20
-2.77962
11
0.425598
21
-2.77493
0
LINE
8
BLACK
6
CONTINUOUS
10
0.425598
20
-2.77493
11
0.420909
21
-2.76556
0
LINE
8
BLACK
6
CONTINUOUS
10
0.420909
20
-2.76556
11
0.420909
21
-2.74213
0
LINE
8
BLACK
6
CONTINUOUS
10
0.420909
20
-2.74213
11
0.416224
21
-2.73275
0
LINE
8
BLACK
6
CONTINUOUS
10
0.392787
20
-2.69994
11
0.392787
21
-2.65307
0
LINE
8
BLACK
6
CONTINUOUS
10
0.392787
20
-2.67651
11
0.458406
21
-2.67651
0
LINE
8
BLACK
6
CONTINUOUS
10
0.458406
20
-2.57808
11
0.40685
21
-2.57808
0
LINE
8
BLACK
6
CONTINUOUS
10
0.40685
20
-2.57808
11
0.397476
21
-2.58277
0
LINE
8
BLACK
6
CONTINUOUS
10
0.397476
20
-2.58277
11
0.392787
21
-2.59214
0
LINE
8
BLACK
6
CONTINUOUS
10
0.392787
20
-2.59214
11
0.392787
21
-2.61089
0
LINE
8
BLACK
6
CONTINUOUS
10
0.392787
20
-2.61089
11
0.397476
21
-2.62026
0
LINE
8
BLACK
6
CONTINUOUS
10
0.45372
20
-2.57808
11
0.458406
21
-2.58746
0
LINE
8
BLACK
6
CONTINUOUS
10
0.458406
20
-2.58746
11
0.458406
21
-2.61089
0
LINE
8
BLACK
6
CONTINUOUS
10
0.458406
20
-2.61089
11
0.45372
21
-2.62026
0
LINE
8
BLACK
6
CONTINUOUS
10
0.45372
20
-2.62026
11
0.444346
21
-2.62495
0
LINE
8
BLACK
6
CONTINUOUS
10
0.444346
20
-2.62495
11
0.434972
21
-2.62495
0
LINE
8
BLACK
6
CONTINUOUS
10
0.434972
20
-2.62495
11
0.425598
21
-2.62026
0
LINE
8
BLACK
6
CONTINUOUS
10
0.425598
20
-2.62026
11
0.420909
21
-2.61089
0
LINE
8
BLACK
6
CONTINUOUS
10
0.420909
20
-2.61089
11
0.420909
21
-2.58746
0
LINE
8
BLACK
6
CONTINUOUS
10
0.420909
20
-2.58746
11
0.416224
21
-2.57808
0
LINE
8
BLACK
6
CONTINUOUS
10
5.89763
20
-8.01774
11
5.89763
21
-7.91932
0
LINE
8
BLACK
6
CONTINUOUS
10
5.89763
20
-7.91932
11
5.95387
21
-7.91932
0
LINE
8
BLACK
6
CONTINUOUS
10
5.95387
20
-7.91932
11
5.95387
21
-8.01774
0
LINE
8
BLACK
6
CONTINUOUS
10
6.0148
20
-8.01774
11
6.00543
21
-8.01306
0
LINE
8
BLACK
6
CONTINUOUS
10
6.00543
20
-8.01306
11
6.00074
21
-8.00837
0
LINE
8
BLACK
6
CONTINUOUS
10
6.00074
20
-8.00837
11
5.99605
21
-7.999
0
LINE
8
BLACK
6
CONTINUOUS
10
5.99605
20
-7.999
11
5.99605
21
-7.97087
0
LINE
8
BLACK
6
CONTINUOUS
10
5.99605
20
-7.97087
11
6.00074
21
-7.9615
0
LINE
8
BLACK
6
CONTINUOUS
10
6.00074
20
-7.9615
11
6.00543
21
-7.95681
0
LINE
8
BLACK
6
CONTINUOUS
10
6.00543
20
-7.95681
11
6.0148
21
-7.95213
0
LINE
8
BLACK
6
CONTINUOUS
10
6.0148
20
-7.95213
11
6.02886
21
-7.95213
0
LINE
8
BLACK
6
CONTINUOUS
10
6.02886
20
-7.95213
11
6.03824
21
-7.95681
0
LINE
8
BLACK
6
CONTINUOUS
10
6.03824
20
-7.95681
11
6.04292
21
-7.9615
0
LINE
8
BLACK
6
CONTINUOUS
10
6.04292
20
-7.9615
11
6.04761
21
-7.97087
0
LINE
8
BLACK
6
CONTINUOUS
10
6.04761
20
-7.97087
11
6.04761
21
-7.999
0
LINE
8
BLACK
6
CONTINUOUS
10
6.04761
20
-7.999
11
6.04292
21
-8.00837
0
LINE
8
BLACK
6
CONTINUOUS
10
6.04292
20
-8.00837
11
6.03824
21
-8.01306
0
LINE
8
BLACK
6
CONTINUOUS
10
6.03824
20
-8.01306
11
6.02886
21
-8.01774
0
LINE
8
BLACK
6
CONTINUOUS
10
6.02886
20
-8.01774
11
6.0148
21
-8.01774
0
LINE
8
BLACK
6
CONTINUOUS
10
6.13666
20
-7.9615
11
6.13197
21
-7.95681
0
LINE
8
BLACK
6
CONTINUOUS
10
6.13197
20
-7.95681
11
6.1226
21
-7.95213
0
LINE
8
BLACK
6
CONTINUOUS
10
6.1226
20
-7.95213
11
6.10385
21
-7.95213
0
LINE
8
BLACK
6
CONTINUOUS
10
6.10385
20
-7.95213
11
6.09448
21
-7.95681
0
LINE
8
BLACK
6
CONTINUOUS
10
6.09448
20
-7.95681
11
6.08979
21
-7.9615
0
LINE
8
BLACK
6
CONTINUOUS
10
6.08979
20
-7.9615
11
6.0851
21
-7.97087
0
LINE
8
BLACK
6
CONTINUOUS
10
6.0851
20
-7.97087
11
6.0851
21
-7.999
0
LINE
8
BLACK
6
CONTINUOUS
10
6.0851
20
-7.999
11
6.08979
21
-8.00837
0
LINE
8
BLACK
6
CONTINUOUS
10
6.08979
20
-8.00837
11
6.09448
21
-8.01306
0
LINE
8
BLACK
6
CONTINUOUS
10
6.09448
20
-8.01306
11
6.10385
21
-8.01774
0
LINE
8
BLACK
6
CONTINUOUS
10
6.10385
20
-8.01774
11
6.11791
21
-8.01774
0
LINE
8
BLACK
6
CONTINUOUS
10
6.11791
20
-8.01774
11
6.12729
21
-8.01306
0
LINE
8
BLACK
6
CONTINUOUS
10
6.12729
20
-8.01306
11
6.13197
21
-8.00837
0
LINE
8
BLACK
6
CONTINUOUS
10
6.13197
20
-8.00837
11
6.13666
21
-7.999
0
LINE
8
BLACK
6
CONTINUOUS
10
6.13666
20
-7.999
11
6.13666
21
-7.93807
0
LINE
8
BLACK
6
CONTINUOUS
10
6.13666
20
-7.93807
11
6.13197
21
-7.92869
0
LINE
8
BLACK
6
CONTINUOUS
10
6.13197
20
-7.92869
11
6.12729
21
-7.924
0
LINE
8
BLACK
6
CONTINUOUS
10
6.12729
20
-7.924
11
6.11791
21
-7.91932
0
LINE
8
BLACK
6
CONTINUOUS
10
6.11791
20
-7.91932
11
6.09917
21
-7.91932
0
LINE
8
BLACK
6
CONTINUOUS
10
6.09917
20
-7.91932
11
6.08979
21
-7.924
0
LINE
8
BLACK
6
CONTINUOUS
10
6.17884
20
-8.01774
11
6.17884
21
-7.95213
0
LINE
8
BLACK
6
CONTINUOUS
10
6.17884
20
-7.95213
11
6.22102
21
-7.95213
0
LINE
8
BLACK
6
CONTINUOUS
10
6.22102
20
-7.95213
11
6.22102
21
-8.01774
0
LINE
8
BLACK
6
CONTINUOUS
10
6.26789
20
-8.00837
11
6.27258
21
-8.01306
0
LINE
8
BLACK
6
CONTINUOUS
10
6.27258
20
-8.01306
11
6.26789
21
-8.01774
0
LINE
8
BLACK
6
CONTINUOUS
10
6.26789
20
-8.01774
11
6.2632
21
-8.01306
0
LINE
8
BLACK
6
CONTINUOUS
10
6.2632
20
-8.01306
11
6.26789
21
-8.00837
0
LINE
8
BLACK
6
CONTINUOUS
10
6.26789
20
-8.00837
11
6.26789
21
-8.01774
0
LINE
8
BLACK
6
CONTINUOUS
10
9.97937
20
-8.21459
11
9.97937
21
-8.11617
0
LINE
8
BLACK
6
CONTINUOUS
10
9.97
20
-8.13023
11
9.98875
21
-8.13023
0
LINE
8
BLACK
6
CONTINUOUS
10
9.98875
20
-8.13023
11
10.0028
21
-8.13492
0
LINE
8
BLACK
6
CONTINUOUS
10
10.0028
20
-8.13492
11
10.0122
21
-8.14429
0
LINE
8
BLACK
6
CONTINUOUS
10
10.0122
20
-8.14429
11
10.0169
21
-8.15367
0
LINE
8
BLACK
6
CONTINUOUS
10
10.0169
20
-8.15367
11
10.0169
21
-8.17241
0
LINE
8
BLACK
6
CONTINUOUS
10
10.0169
20
-8.17241
11
10.0122
21
-8.18179
0
LINE
8
BLACK
6
CONTINUOUS
10
10.0122
20
-8.18179
11
10.0028
21
-8.19116
0
LINE
8
BLACK
6
CONTINUOUS
10
10.0028
20
-8.19116
11
9.98875
21
-8.19585
0
LINE
8
BLACK
6
CONTINUOUS
10
9.98875
20
-8.19585
11
9.97
21
-8.19585
0
LINE
8
BLACK
6
CONTINUOUS
10
9.97
20
-8.19585
11
9.95594
21
-8.19116
0
LINE
8
BLACK
6
CONTINUOUS
10
9.95594
20
-8.19116
11
9.94656
21
-8.18179
0
LINE
8
BLACK
6
CONTINUOUS
10
9.94656
20
-8.18179
11
9.94188
21
-8.17241
0
LINE
8
BLACK
6
CONTINUOUS
10
9.94188
20
-8.17241
11
9.94188
21
-8.15367
0
LINE
8
BLACK
6
CONTINUOUS
10
9.94188
20
-8.15367
11
9.94656
21
-8.14429
0
LINE
8
BLACK
6
CONTINUOUS
10
9.94656
20
-8.14429
11
9.95594
21
-8.13492
0
LINE
8
BLACK
6
CONTINUOUS
10
9.95594
20
-8.13492
11
9.97
21
-8.13023
0
LINE
8
BLACK
6
CONTINUOUS
10
10.0684
20
-8.21459
11
10.059
21
-8.20991
0
LINE
8
BLACK
6
CONTINUOUS
10
10.059
20
-8.20991
11
10.0544
21
-8.20522
0
LINE
8
BLACK
6
CONTINUOUS
10
10.0544
20
-8.20522
11
10.0497
21
-8.19585
0
LINE
8
BLACK
6
CONTINUOUS
10
10.0497
20
-8.19585
11
10.0497
21
-8.16772
0
LINE
8
BLACK
6
CONTINUOUS
10
10.0497
20
-8.16772
11
10.0544
21
-8.15835
0
LINE
8
BLACK
6
CONTINUOUS
10
10.0544
20
-8.15835
11
10.059
21
-8.15367
0
LINE
8
BLACK
6
CONTINUOUS
10
10.059
20
-8.15367
11
10.0684
21
-8.14898
0
LINE
8
BLACK
6
CONTINUOUS
10
10.0684
20
-8.14898
11
10.0825
21
-8.14898
0
LINE
8
BLACK
6
CONTINUOUS
10
10.0825
20
-8.14898
11
10.0919
21
-8.15367
0
LINE
8
BLACK
6
CONTINUOUS
10
10.0919
20
-8.15367
11
10.0965
21
-8.15835
0
LINE
8
BLACK
6
CONTINUOUS
10
10.0965
20
-8.15835
11
10.1012
21
-8.16772
0
LINE
8
BLACK
6
CONTINUOUS
10
10.1012
20
-8.16772
11
10.1012
21
-8.19585
0
LINE
8
BLACK
6
CONTINUOUS
10
10.1012
20
-8.19585
11
10.0965
21
-8.20522
0
LINE
8
BLACK
6
CONTINUOUS
10
10.0965
20
-8.20522
11
10.0919
21
-8.20991
0
LINE
8
BLACK
6
CONTINUOUS
10
10.0919
20
-8.20991
11
10.0825
21
-8.21459
0
LINE
8
BLACK
6
CONTINUOUS
10
10.0825
20
-8.21459
11
10.0684
21
-8.21459
0
LINE
8
BLACK
6
CONTINUOUS
10
10.1434
20
-8.14898
11
10.1434
21
-8.2474
0
LINE
8
BLACK
6
CONTINUOUS
10
10.1434
20
-8.15367
11
10.1528
21
-8.14898
0
LINE
8
BLACK
6
CONTINUOUS
10
10.1528
20
-8.14898
11
10.1715
21
-8.14898
0
LINE
8
BLACK
6
CONTINUOUS
10
10.1715
20
-8.14898
11
10.1809
21
-8.15367
0
LINE
8
BLACK
6
CONTINUOUS
10
10.1809
20
-8.15367
11
10.1856
21
-8.15835
0
LINE
8
BLACK
6
CONTINUOUS
10
10.1856
20
-8.15835
11
10.1903
21
-8.16772
0
LINE
8
BLACK
6
CONTINUOUS
10
10.1903
20
-8.16772
11
10.1903
21
-8.19585
0
LINE
8
BLACK
6
CONTINUOUS
10
10.1903
20
-8.19585
11
10.1856
21
-8.20522
0
LINE
8
BLACK
6
CONTINUOUS
10
10.1856
20
-8.20522
11
10.1809
21
-8.20991
0
LINE
8
BLACK
6
CONTINUOUS
10
10.1809
20
-8.20991
11
10.1715
21
-8.21459
0
LINE
8
BLACK
6
CONTINUOUS
10
10.1715
20
-8.21459
11
10.1528
21
-8.21459
0
LINE
8
BLACK
6
CONTINUOUS
10
10.1528
20
-8.21459
11
10.1434
21
-8.20991
0
LINE
8
BLACK
6
CONTINUOUS
10
10.2325
20
-8.21459
11
10.2325
21
-8.14898
0
LINE
8
BLACK
6
CONTINUOUS
10
10.2325
20
-8.14898
11
10.2606
21
-8.20054
0
LINE
8
BLACK
6
CONTINUOUS
10
10.2606
20
-8.20054
11
10.2887
21
-8.14898
0
LINE
8
BLACK
6
CONTINUOUS
10
10.2887
20
-8.14898
11
10.2887
21
-8.21459
0
LINE
8
BLACK
6
CONTINUOUS
10
10.3778
20
-8.21459
11
10.3778
21
-8.16304
0
LINE
8
BLACK
6
CONTINUOUS
10
10.3778
20
-8.16304
11
10.3731
21
-8.15367
0
LINE
8
BLACK
6
CONTINUOUS
10
10.3731
20
-8.15367
11
10.3637
21
-8.14898
0
LINE
8
BLACK
6
CONTINUOUS
10
10.3637
20
-8.14898
11
10.3449
21
-8.14898
0
LINE
8
BLACK
6
CONTINUOUS
10
10.3449
20
-8.14898
11
10.3356
21
-8.15367
0
LINE
8
BLACK
6
CONTINUOUS
10
10.3778
20
-8.20991
11
10.3684
21
-8.21459
0
LINE
8
BLACK
6
CONTINUOUS
10
10.3684
20
-8.21459
11
10.3449
21
-8.21459
0
LINE
8
BLACK
6
CONTINUOUS
10
10.3449
20
-8.21459
11
10.3356
21
-8.20991
0
LINE
8
BLACK
6
CONTINUOUS
10
10.3356
20
-8.20991
11
10.3309
21
-8.20054
0
LINE
8
BLACK
6
CONTINUOUS
10
10.3309
20
-8.20054
11
10.3309
21
-8.19116
0
LINE
8
BLACK
6
CONTINUOUS
10
10.3309
20
-8.19116
11
10.3356
21
-8.18179
0
LINE
8
BLACK
6
CONTINUOUS
10
10.3356
20
-8.18179
11
10.3449
21
-8.1771
0
LINE
8
BLACK
6
CONTINUOUS
10
10.3449
20
-8.1771
11
10.3684
21
-8.1771
0
LINE
8
BLACK
6
CONTINUOUS
10
10.3684
20
-8.1771
11
10.3778
21
-8.17241
0
LINE
8
BLACK
6
CONTINUOUS
10
10.4106
20
-8.14898
11
10.4574
21
-8.14898
0
LINE
8
BLACK
6
CONTINUOUS
10
10.434
20
-8.14898
11
10.434
21
-8.21459
0
LINE
8
BLACK
6
CONTINUOUS
10
10.5605
20
-8.18647
11
10.6074
21
-8.18647
0
LINE
8
BLACK
6
CONTINUOUS
10
10.5512
20
-8.21459
11
10.584
21
-8.11617
0
LINE
8
BLACK
6
CONTINUOUS
10
10.584
20
-8.11617
11
10.6168
21
-8.21459
0
LINE
8
BLACK
6
CONTINUOUS
10
10.6918
20
-8.14898
11
10.6918
21
-8.21459
0
LINE
8
BLACK
6
CONTINUOUS
10
10.6684
20
-8.11148
11
10.6449
21
-8.18179
0
LINE
8
BLACK
6
CONTINUOUS
10
10.6449
20
-8.18179
11
10.7058
21
-8.18179
0
LINE
8
BLACK
6
CONTINUOUS
10
11.318
20
-7.89307
11
11.318
21
-7.95869
0
LINE
8
BLACK
6
CONTINUOUS
10
11.2946
20
-7.85558
11
11.2712
21
-7.92588
0
LINE
8
BLACK
6
CONTINUOUS
10
11.2712
20
-7.92588
11
11.3321
21
-7.92588
0
LINE
8
BLACK
6
CONTINUOUS
10
6.85504
20
-7.86591
11
6.85504
21
-7.66906
0
LINE
8
BLACK
6
CONTINUOUS
10
6.85504
20
-7.66906
11
6.9201
21
-7.80967
0
LINE
8
BLACK
6
CONTINUOUS
10
6.9201
20
-7.80967
11
6.98517
21
-7.66906
0
LINE
8
BLACK
6
CONTINUOUS
10
6.98517
20
-7.66906
11
6.98517
21
-7.86591
0
LINE
8
BLACK
6
CONTINUOUS
10
7.07812
20
-7.86591
11
7.07812
21
-7.66906
0
LINE
8
BLACK
6
CONTINUOUS
10
7.07812
20
-7.66906
11
7.18966
21
-7.66906
0
LINE
8
BLACK
6
CONTINUOUS
10
7.18966
20
-7.66906
11
7.18966
21
-7.86591
0
LINE
8
BLACK
6
CONTINUOUS
10
7.39415
20
-7.84717
11
7.38485
21
-7.85654
0
LINE
8
BLACK
6
CONTINUOUS
10
7.38485
20
-7.85654
11
7.35696
21
-7.86591
0
LINE
8
BLACK
6
CONTINUOUS
10
7.35696
20
-7.86591
11
7.33837
21
-7.86591
0
LINE
8
BLACK
6
CONTINUOUS
10
7.33837
20
-7.86591
11
7.31049
21
-7.85654
0
LINE
8
BLACK
6
CONTINUOUS
10
7.31049
20
-7.85654
11
7.2919
21
-7.8378
0
LINE
8
BLACK
6
CONTINUOUS
10
7.2919
20
-7.8378
11
7.28261
21
-7.81905
0
LINE
8
BLACK
6
CONTINUOUS
10
7.28261
20
-7.81905
11
7.27331
21
-7.78155
0
LINE
8
BLACK
6
CONTINUOUS
10
7.27331
20
-7.78155
11
7.27331
21
-7.75343
0
LINE
8
BLACK
6
CONTINUOUS
10
7.27331
20
-7.75343
11
7.28261
21
-7.71593
0
LINE
8
BLACK
6
CONTINUOUS
10
7.28261
20
-7.71593
11
7.2919
21
-7.69719
0
LINE
8
BLACK
6
CONTINUOUS
10
7.2919
20
-7.69719
11
7.31049
21
-7.67844
0
LINE
8
BLACK
6
CONTINUOUS
10
7.31049
20
-7.67844
11
7.33837
21
-7.66906
0
LINE
8
BLACK
6
CONTINUOUS
10
7.33837
20
-7.66906
11
7.35696
21
-7.66906
0
LINE
8
BLACK
6
CONTINUOUS
10
7.35696
20
-7.66906
11
7.38485
21
-7.67844
0
LINE
8
BLACK
6
CONTINUOUS
10
7.38485
20
-7.67844
11
7.39415
21
-7.68781
0
LINE
8
BLACK
6
CONTINUOUS
10
7.44991
20
-7.66906
11
7.56145
21
-7.66906
0
LINE
8
BLACK
6
CONTINUOUS
10
7.50569
20
-7.86591
11
7.50569
21
-7.66906
0
LINE
8
BLACK
6
CONTINUOUS
10
7.62652
20
-7.84717
11
7.63581
21
-7.85654
0
LINE
8
BLACK
6
CONTINUOUS
10
7.63581
20
-7.85654
11
7.62652
21
-7.86591
0
LINE
8
BLACK
6
CONTINUOUS
10
7.62652
20
-7.86591
11
7.61722
21
-7.85654
0
LINE
8
BLACK
6
CONTINUOUS
10
7.61722
20
-7.85654
11
7.62652
21
-7.84717
0
LINE
8
BLACK
6
CONTINUOUS
10
7.62652
20
-7.84717
11
7.62652
21
-7.86591
0
LINE
8
BLACK
6
CONTINUOUS
10
7.70087
20
-7.66906
11
7.831
21
-7.66906
0
LINE
8
BLACK
6
CONTINUOUS
10
7.831
20
-7.66906
11
7.74735
21
-7.86591
0
LINE
8
BLACK
6
CONTINUOUS
10
7.98902
20
-7.66906
11
7.95184
21
-7.66906
0
LINE
8
BLACK
6
CONTINUOUS
10
7.95184
20
-7.66906
11
7.93325
21
-7.67844
0
LINE
8
BLACK
6
CONTINUOUS
10
7.93325
20
-7.67844
11
7.92395
21
-7.68781
0
LINE
8
BLACK
6
CONTINUOUS
10
7.92395
20
-7.68781
11
7.90536
21
-7.71593
0
LINE
8
BLACK
6
CONTINUOUS
10
7.90536
20
-7.71593
11
7.89607
21
-7.75343
0
LINE
8
BLACK
6
CONTINUOUS
10
7.89607
20
-7.75343
11
7.89607
21
-7.82842
0
LINE
8
BLACK
6
CONTINUOUS
10
7.89607
20
-7.82842
11
7.90536
21
-7.84717
0
LINE
8
BLACK
6
CONTINUOUS
10
7.90536
20
-7.84717
11
7.91466
21
-7.85654
0
LINE
8
BLACK
6
CONTINUOUS
10
7.91466
20
-7.85654
11
7.93325
21
-7.86591
0
LINE
8
BLACK
6
CONTINUOUS
10
7.93325
20
-7.86591
11
7.97043
21
-7.86591
0
LINE
8
BLACK
6
CONTINUOUS
10
7.97043
20
-7.86591
11
7.98902
21
-7.85654
0
LINE
8
BLACK
6
CONTINUOUS
10
7.98902
20
-7.85654
11
7.99831
21
-7.84717
0
LINE
8
BLACK
6
CONTINUOUS
10
7.99831
20
-7.84717
11
8.00761
21
-7.82842
0
LINE
8
BLACK
6
CONTINUOUS
10
8.00761
20
-7.82842
11
8.00761
21
-7.78155
0
LINE
8
BLACK
6
CONTINUOUS
10
8.00761
20
-7.78155
11
7.99831
21
-7.7628
0
LINE
8
BLACK
6
CONTINUOUS
10
7.99831
20
-7.7628
11
7.98902
21
-7.75343
0
LINE
8
BLACK
6
CONTINUOUS
10
7.98902
20
-7.75343
11
7.97043
21
-7.74406
0
LINE
8
BLACK
6
CONTINUOUS
10
7.97043
20
-7.74406
11
7.93325
21
-7.74406
0
LINE
8
BLACK
6
CONTINUOUS
10
7.93325
20
-7.74406
11
7.91466
21
-7.75343
0
LINE
8
BLACK
6
CONTINUOUS
10
7.91466
20
-7.75343
11
7.90536
21
-7.7628
0
LINE
8
BLACK
6
CONTINUOUS
10
7.90536
20
-7.7628
11
7.89607
21
-7.78155
0
LINE
8
BLACK
6
CONTINUOUS
10
8.07267
20
-7.66906
11
8.2028
21
-7.66906
0
LINE
8
BLACK
6
CONTINUOUS
10
8.2028
20
-7.66906
11
8.11915
21
-7.86591
0
LINE
8
BLACK
6
CONTINUOUS
10
8.26786
20
-7.68781
11
8.27716
21
-7.67844
0
LINE
8
BLACK
6
CONTINUOUS
10
8.27716
20
-7.67844
11
8.29575
21
-7.66906
0
LINE
8
BLACK
6
CONTINUOUS
10
8.29575
20
-7.66906
11
8.34222
21
-7.66906
0
LINE
8
BLACK
6
CONTINUOUS
10
8.34222
20
-7.66906
11
8.36081
21
-7.67844
0
LINE
8
BLACK
6
CONTINUOUS
10
8.36081
20
-7.67844
11
8.37011
21
-7.68781
0
LINE
8
BLACK
6
CONTINUOUS
10
8.37011
20
-7.68781
11
8.3794
21
-7.70656
0
LINE
8
BLACK
6
CONTINUOUS
10
8.3794
20
-7.70656
11
8.3794
21
-7.72531
0
LINE
8
BLACK
6
CONTINUOUS
10
8.3794
20
-7.72531
11
8.37011
21
-7.75343
0
LINE
8
BLACK
6
CONTINUOUS
10
8.37011
20
-7.75343
11
8.25857
21
-7.86591
0
LINE
8
BLACK
6
CONTINUOUS
10
8.25857
20
-7.86591
11
8.3794
21
-7.86591
0
LINE
8
BLACK
6
CONTINUOUS
10
8.5653
20
-7.86591
11
8.45376
21
-7.86591
0
LINE
8
BLACK
6
CONTINUOUS
10
8.50953
20
-7.86591
11
8.50953
21
-7.66906
0
LINE
8
BLACK
6
CONTINUOUS
10
8.50953
20
-7.66906
11
8.49094
21
-7.69719
0
LINE
8
BLACK
6
CONTINUOUS
10
8.49094
20
-7.69719
11
8.47235
21
-7.71593
0
LINE
8
BLACK
6
CONTINUOUS
10
8.47235
20
-7.71593
11
8.45376
21
-7.72531
0
LINE
8
BLACK
6
CONTINUOUS
10
8.64895
20
-7.84717
11
8.65825
21
-7.85654
0
LINE
8
BLACK
6
CONTINUOUS
10
8.65825
20
-7.85654
11
8.64895
21
-7.86591
0
LINE
8
BLACK
6
CONTINUOUS
10
8.64895
20
-7.86591
11
8.63966
21
-7.85654
0
LINE
8
BLACK
6
CONTINUOUS
10
8.63966
20
-7.85654
11
8.64895
21
-7.84717
0
LINE
8
BLACK
6
CONTINUOUS
10
8.64895
20
-7.84717
11
8.64895
21
-7.86591
0
LINE
8
BLACK
6
CONTINUOUS
10
8.72331
20
-7.66906
11
8.85344
21
-7.66906
0
LINE
8
BLACK
6
CONTINUOUS
10
8.85344
20
-7.66906
11
8.76979
21
-7.86591
0
LINE
8
BLACK
6
CONTINUOUS
10
9.02075
20
-7.66906
11
8.9278
21
-7.66906
0
LINE
8
BLACK
6
CONTINUOUS
10
8.9278
20
-7.66906
11
8.9185
21
-7.7628
0
LINE
8
BLACK
6
CONTINUOUS
10
8.9185
20
-7.7628
11
8.9278
21
-7.75343
0
LINE
8
BLACK
6
CONTINUOUS
10
8.9278
20
-7.75343
11
8.94639
21
-7.74406
0
LINE
8
BLACK
6
CONTINUOUS
10
8.94639
20
-7.74406
11
8.99286
21
-7.74406
0
LINE
8
BLACK
6
CONTINUOUS
10
8.99286
20
-7.74406
11
9.01145
21
-7.75343
0
LINE
8
BLACK
6
CONTINUOUS
10
9.01145
20
-7.75343
11
9.02075
21
-7.7628
0
LINE
8
BLACK
6
CONTINUOUS
10
9.02075
20
-7.7628
11
9.03004
21
-7.78155
0
LINE
8
BLACK
6
CONTINUOUS
10
9.03004
20
-7.78155
11
9.03004
21
-7.82842
0
LINE
8
BLACK
6
CONTINUOUS
10
9.03004
20
-7.82842
11
9.02075
21
-7.84717
0
LINE
8
BLACK
6
CONTINUOUS
10
9.02075
20
-7.84717
11
9.01145
21
-7.85654
0
LINE
8
BLACK
6
CONTINUOUS
10
9.01145
20
-7.85654
11
8.99286
21
-7.86591
0
LINE
8
BLACK
6
CONTINUOUS
10
8.99286
20
-7.86591
11
8.94639
21
-7.86591
0
LINE
8
BLACK
6
CONTINUOUS
10
8.94639
20
-7.86591
11
8.9278
21
-7.85654
0
LINE
8
BLACK
6
CONTINUOUS
10
8.9278
20
-7.85654
11
8.9185
21
-7.84717
0
LINE
8
BLACK
6
CONTINUOUS
10
9.14158
20
-7.75343
11
9.12299
21
-7.74406
0
LINE
8
BLACK
6
CONTINUOUS
10
9.12299
20
-7.74406
11
9.1137
21
-7.73468
0
LINE
8
BLACK
6
CONTINUOUS
10
9.1137
20
-7.73468
11
9.1044
21
-7.71593
0
LINE
8
BLACK
6
CONTINUOUS
10
9.1044
20
-7.71593
11
9.1044
21
-7.70656
0
LINE
8
BLACK
6
CONTINUOUS
10
9.1044
20
-7.70656
11
9.1137
21
-7.68781
0
LINE
8
BLACK
6
CONTINUOUS
10
9.1137
20
-7.68781
11
9.12299
21
-7.67844
0
LINE
8
BLACK
6
CONTINUOUS
10
9.12299
20
-7.67844
11
9.14158
21
-7.66906
0
LINE
8
BLACK
6
CONTINUOUS
10
9.14158
20
-7.66906
11
9.17876
21
-7.66906
0
LINE
8
BLACK
6
CONTINUOUS
10
9.17876
20
-7.66906
11
9.19735
21
-7.67844
0
LINE
8
BLACK
6
CONTINUOUS
10
9.19735
20
-7.67844
11
9.20665
21
-7.68781
0
LINE
8
BLACK
6
CONTINUOUS
10
9.20665
20
-7.68781
11
9.21594
21
-7.70656
0
LINE
8
BLACK
6
CONTINUOUS
10
9.21594
20
-7.70656
11
9.21594
21
-7.71593
0
LINE
8
BLACK
6
CONTINUOUS
10
9.21594
20
-7.71593
11
9.20665
21
-7.73468
0
LINE
8
BLACK
6
CONTINUOUS
10
9.20665
20
-7.73468
11
9.19735
21
-7.74406
0
LINE
8
BLACK
6
CONTINUOUS
10
9.19735
20
-7.74406
11
9.17876
21
-7.75343
0
LINE
8
BLACK
6
CONTINUOUS
10
9.17876
20
-7.75343
11
9.14158
21
-7.75343
0
LINE
8
BLACK
6
CONTINUOUS
10
9.14158
20
-7.75343
11
9.12299
21
-7.7628
0
LINE
8
BLACK
6
CONTINUOUS
10
9.12299
20
-7.7628
11
9.1137
21
-7.77218
0
LINE
8
BLACK
6
CONTINUOUS
10
9.1137
20
-7.77218
11
9.1044
21
-7.79093
0
LINE
8
BLACK
6
CONTINUOUS
10
9.1044
20
-7.79093
11
9.1044
21
-7.82842
0
LINE
8
BLACK
6
CONTINUOUS
10
9.1044
20
-7.82842
11
9.1137
21
-7.84717
0
LINE
8
BLACK
6
CONTINUOUS
10
9.1137
20
-7.84717
11
9.12299
21
-7.85654
0
LINE
8
BLACK
6
CONTINUOUS
10
9.12299
20
-7.85654
11
9.14158
21
-7.86591
0
LINE
8
BLACK
6
CONTINUOUS
10
9.14158
20
-7.86591
11
9.17876
21
-7.86591
0
LINE
8
BLACK
6
CONTINUOUS
10
9.17876
20
-7.86591
11
9.19735
21
-7.85654
0
LINE
8
BLACK
6
CONTINUOUS
10
9.19735
20
-7.85654
11
9.20665
21
-7.84717
0
LINE
8
BLACK
6
CONTINUOUS
10
9.20665
20
-7.84717
11
9.21594
21
-7.82842
0
LINE
8
BLACK
6
CONTINUOUS
10
9.21594
20
-7.82842
11
9.21594
21
-7.79093
0
LINE
8
BLACK
6
CONTINUOUS
10
9.21594
20
-7.79093
11
9.20665
21
-7.77218
0
LINE
8
BLACK
6
CONTINUOUS
10
9.20665
20
-7.77218
11
9.19735
21
-7.7628
0
LINE
8
BLACK
6
CONTINUOUS
10
9.19735
20
-7.7628
11
9.17876
21
-7.75343
0
LINE
8
BLACK
6
CONTINUOUS
10
9.281
20
-7.66906
11
9.41113
21
-7.66906
0
LINE
8
BLACK
6
CONTINUOUS
10
9.41113
20
-7.66906
11
9.32748
21
-7.86591
0
LINE
8
BLACK
6
CONTINUOUS
10
9.56915
20
-7.66906
11
9.53197
21
-7.66906
0
LINE
8
BLACK
6
CONTINUOUS
10
9.53197
20
-7.66906
11
9.51338
21
-7.67844
0
LINE
8
BLACK
6
CONTINUOUS
10
9.51338
20
-7.67844
11
9.50408
21
-7.68781
0
LINE
8
BLACK
6
CONTINUOUS
10
9.50408
20
-7.68781
11
9.48549
21
-7.71593
0
LINE
8
BLACK
6
CONTINUOUS
10
9.48549
20
-7.71593
11
9.4762
21
-7.75343
0
LINE
8
BLACK
6
CONTINUOUS
10
9.4762
20
-7.75343
11
9.4762
21
-7.82842
0
LINE
8
BLACK
6
CONTINUOUS
10
9.4762
20
-7.82842
11
9.48549
21
-7.84717
0
LINE
8
BLACK
6
CONTINUOUS
10
9.48549
20
-7.84717
11
9.49479
21
-7.85654
0
LINE
8
BLACK
6
CONTINUOUS
10
9.49479
20
-7.85654
11
9.51338
21
-7.86591
0
LINE
8
BLACK
6
CONTINUOUS
10
9.51338
20
-7.86591
11
9.55056
21
-7.86591
0
LINE
8
BLACK
6
CONTINUOUS
10
9.55056
20
-7.86591
11
9.56915
21
-7.85654
0
LINE
8
BLACK
6
CONTINUOUS
10
9.56915
20
-7.85654
11
9.57844
21
-7.84717
0
LINE
8
BLACK
6
CONTINUOUS
10
9.57844
20
-7.84717
11
9.58774
21
-7.82842
0
LINE
8
BLACK
6
CONTINUOUS
10
9.58774
20
-7.82842
11
9.58774
21
-7.78155
0
LINE
8
BLACK
6
CONTINUOUS
10
9.58774
20
-7.78155
11
9.57844
21
-7.7628
0
LINE
8
BLACK
6
CONTINUOUS
10
9.57844
20
-7.7628
11
9.56915
21
-7.75343
0
LINE
8
BLACK
6
CONTINUOUS
10
9.56915
20
-7.75343
11
9.55056
21
-7.74406
0
LINE
8
BLACK
6
CONTINUOUS
10
9.55056
20
-7.74406
11
9.51338
21
-7.74406
0
LINE
8
BLACK
6
CONTINUOUS
10
9.51338
20
-7.74406
11
9.49479
21
-7.75343
0
LINE
8
BLACK
6
CONTINUOUS
10
9.49479
20
-7.75343
11
9.48549
21
-7.7628
0
LINE
8
BLACK
6
CONTINUOUS
10
9.48549
20
-7.7628
11
9.4762
21
-7.78155
0
LINE
8
BLACK
6
CONTINUOUS
10
9.75504
20
-7.73468
11
9.75504
21
-7.86591
0
LINE
8
BLACK
6
CONTINUOUS
10
9.70857
20
-7.65969
11
9.66209
21
-7.8003
0
LINE
8
BLACK
6
CONTINUOUS
10
9.66209
20
-7.8003
11
9.78293
21
-7.8003
0
LINE
8
BLACK
6
CONTINUOUS
10
9.85729
20
-7.84717
11
9.86658
21
-7.85654
0
LINE
8
BLACK
6
CONTINUOUS
10
9.86658
20
-7.85654
11
9.85729
21
-7.86591
0
LINE
8
BLACK
6
CONTINUOUS
10
9.85729
20
-7.86591
11
9.84799
21
-7.85654
0
LINE
8
BLACK
6
CONTINUOUS
10
9.84799
20
-7.85654
11
9.85729
21
-7.84717
0
LINE
8
BLACK
6
CONTINUOUS
10
9.85729
20
-7.84717
11
9.85729
21
-7.86591
0
LINE
8
BLACK
6
CONTINUOUS
10
9.98742
20
-7.66906
11
10.006
21
-7.66906
0
LINE
8
BLACK
6
CONTINUOUS
10
10.006
20
-7.66906
11
10.0246
21
-7.67844
0
LINE
8
BLACK
6
CONTINUOUS
10
10.0246
20
-7.67844
11
10.0339
21
-7.68781
0
LINE
8
BLACK
6
CONTINUOUS
10
10.0339
20
-7.68781
11
10.0432
21
-7.70656
0
LINE
8
BLACK
6
CONTINUOUS
10
10.0432
20
-7.70656
11
10.0525
21
-7.74406
0
LINE
8
BLACK
6
CONTINUOUS
10
10.0525
20
-7.74406
11
10.0525
21
-7.79093
0
LINE
8
BLACK
6
CONTINUOUS
10
10.0525
20
-7.79093
11
10.0432
21
-7.82842
0
LINE
8
BLACK
6
CONTINUOUS
10
10.0432
20
-7.82842
11
10.0339
21
-7.84717
0
LINE
8
BLACK
6
CONTINUOUS
10
10.0339
20
-7.84717
11
10.0246
21
-7.85654
0
LINE
8
BLACK
6
CONTINUOUS
10
10.0246
20
-7.85654
11
10.006
21
-7.86591
0
LINE
8
BLACK
6
CONTINUOUS
10
10.006
20
-7.86591
11
9.98742
21
-7.86591
0
LINE
8
BLACK
6
CONTINUOUS
10
9.98742
20
-7.86591
11
9.96883
21
-7.85654
0
LINE
8
BLACK
6
CONTINUOUS
10
9.96883
20
-7.85654
11
9.95953
21
-7.84717
0
LINE
8
BLACK
6
CONTINUOUS
10
9.95953
20
-7.84717
11
9.95024
21
-7.82842
0
LINE
8
BLACK
6
CONTINUOUS
10
9.95024
20
-7.82842
11
9.94094
21
-7.79093
0
LINE
8
BLACK
6
CONTINUOUS
10
9.94094
20
-7.79093
11
9.94094
21
-7.74406
0
LINE
8
BLACK
6
CONTINUOUS
10
9.94094
20
-7.74406
11
9.95024
21
-7.70656
0
LINE
8
BLACK
6
CONTINUOUS
10
9.95024
20
-7.70656
11
9.95953
21
-7.68781
0
LINE
8
BLACK
6
CONTINUOUS
10
9.95953
20
-7.68781
11
9.96883
21
-7.67844
0
LINE
8
BLACK
6
CONTINUOUS
10
9.96883
20
-7.67844
11
9.98742
21
-7.66906
0
LINE
8
BLACK
6
CONTINUOUS
10
10.2384
20
-7.86591
11
10.1268
21
-7.86591
0
LINE
8
BLACK
6
CONTINUOUS
10
10.1826
20
-7.86591
11
10.1826
21
-7.66906
0
LINE
8
BLACK
6
CONTINUOUS
10
10.1826
20
-7.66906
11
10.164
21
-7.69719
0
LINE
8
BLACK
6
CONTINUOUS
10
10.164
20
-7.69719
11
10.1454
21
-7.71593
0
LINE
8
BLACK
6
CONTINUOUS
10
10.1454
20
-7.71593
11
10.1268
21
-7.72531
0
LINE
8
BLACK
6
CONTINUOUS
10
10.322
20
-7.84717
11
10.3313
21
-7.85654
0
LINE
8
BLACK
6
CONTINUOUS
10
10.3313
20
-7.85654
11
10.322
21
-7.86591
0
LINE
8
BLACK
6
CONTINUOUS
10
10.322
20
-7.86591
11
10.3127
21
-7.85654
0
LINE
8
BLACK
6
CONTINUOUS
10
10.3127
20
-7.85654
11
10.322
21
-7.84717
0
LINE
8
BLACK
6
CONTINUOUS
10
10.322
20
-7.84717
11
10.322
21
-7.86591
0
LINE
8
BLACK
6
CONTINUOUS
10
10.5265
20
-7.77218
11
10.4336
21
-7.77218
0
LINE
8
BLACK
6
CONTINUOUS
10
10.4057
20
-7.68781
11
10.415
21
-7.67844
0
LINE
8
BLACK
6
CONTINUOUS
10
10.415
20
-7.67844
11
10.4429
21
-7.66906
0
LINE
8
BLACK
6
CONTINUOUS
10
10.4429
20
-7.66906
11
10.4615
21
-7.66906
0
LINE
8
BLACK
6
CONTINUOUS
10
10.4615
20
-7.66906
11
10.4893
21
-7.67844
0
LINE
8
BLACK
6
CONTINUOUS
10
10.4893
20
-7.67844
11
10.5079
21
-7.69719
0
LINE
8
BLACK
6
CONTINUOUS
10
10.5079
20
-7.69719
11
10.5172
21
-7.71593
0
LINE
8
BLACK
6
CONTINUOUS
10
10.5172
20
-7.71593
11
10.5265
21
-7.75343
0
LINE
8
BLACK
6
CONTINUOUS
10
10.5265
20
-7.75343
11
10.5265
21
-7.78155
0
LINE
8
BLACK
6
CONTINUOUS
10
10.5265
20
-7.78155
11
10.5172
21
-7.81905
0
LINE
8
BLACK
6
CONTINUOUS
10
10.5172
20
-7.81905
11
10.5079
21
-7.8378
0
LINE
8
BLACK
6
CONTINUOUS
10
10.5079
20
-7.8378
11
10.4893
21
-7.85654
0
LINE
8
BLACK
6
CONTINUOUS
10
10.4893
20
-7.85654
11
10.4615
21
-7.86591
0
LINE
8
BLACK
6
CONTINUOUS
10
10.4615
20
-7.86591
11
10.4429
21
-7.86591
0
LINE
8
BLACK
6
CONTINUOUS
10
10.4429
20
-7.86591
11
10.415
21
-7.85654
0
LINE
8
BLACK
6
CONTINUOUS
10
10.415
20
-7.85654
11
10.4057
21
-7.84717
0
LINE
8
BLACK
6
CONTINUOUS
10
10.5916
20
-7.66906
11
10.7124
21
-7.66906
0
LINE
8
BLACK
6
CONTINUOUS
10
10.7124
20
-7.66906
11
10.6474
21
-7.74406
0
LINE
8
BLACK
6
CONTINUOUS
10
10.6474
20
-7.74406
11
10.6752
21
-7.74406
0
LINE
8
BLACK
6
CONTINUOUS
10
10.6752
20
-7.74406
11
10.6938
21
-7.75343
0
LINE
8
BLACK
6
CONTINUOUS
10
10.6938
20
-7.75343
11
10.7031
21
-7.7628
0
LINE
8
BLACK
6
CONTINUOUS
10
10.7031
20
-7.7628
11
10.7124
21
-7.78155
0
LINE
8
BLACK
6
CONTINUOUS
10
10.7124
20
-7.78155
11
10.7124
21
-7.82842
0
LINE
8
BLACK
6
CONTINUOUS
10
10.7124
20
-7.82842
11
10.7031
21
-7.84717
0
LINE
8
BLACK
6
CONTINUOUS
10
10.7031
20
-7.84717
11
10.6938
21
-7.85654
0
LINE
8
BLACK
6
CONTINUOUS
10
10.6938
20
-7.85654
11
10.6752
21
-7.86591
0
LINE
8
BLACK
6
CONTINUOUS
10
10.6752
20
-7.86591
11
10.6195
21
-7.86591
0
LINE
8
BLACK
6
CONTINUOUS
10
10.6195
20
-7.86591
11
10.6009
21
-7.85654
0
LINE
8
BLACK
6
CONTINUOUS
10
10.6009
20
-7.85654
11
10.5916
21
-7.84717
0
LINE
8
BLACK
6
CONTINUOUS
10
10.7961
20
-7.84717
11
10.8054
21
-7.85654
0
LINE
8
BLACK
6
CONTINUOUS
10
10.8054
20
-7.85654
11
10.7961
21
-7.86591
0
LINE
8
BLACK
6
CONTINUOUS
10
10.7961
20
-7.86591
11
10.7868
21
-7.85654
0
LINE
8
BLACK
6
CONTINUOUS
10
10.7868
20
-7.85654
11
10.7961
21
-7.84717
0
LINE
8
BLACK
6
CONTINUOUS
10
10.7961
20
-7.84717
11
10.7961
21
-7.86591
0
LINE
8
BLACK
6
CONTINUOUS
10
10.889
20
-7.86591
11
10.889
21
-7.66906
0
LINE
8
BLACK
6
CONTINUOUS
10
10.889
20
-7.66906
11
10.9541
21
-7.80967
0
LINE
8
BLACK
6
CONTINUOUS
10
10.9541
20
-7.80967
11
11.0191
21
-7.66906
0
LINE
8
BLACK
6
CONTINUOUS
10
11.0191
20
-7.66906
11
11.0191
21
-7.86591
0
LINE
8
BLACK
6
CONTINUOUS
10
3.48339
20
-0.409409
11
3.48339
21
-0.547205
0
LINE
8
BLACK
6
CONTINUOUS
10
3.48339
20
-0.547205
11
3.4422
21
-0.44878
0
LINE
8
BLACK
6
CONTINUOUS
10
3.4422
20
-0.44878
11
3.40102
21
-0.547205
0
LINE
8
BLACK
6
CONTINUOUS
10
3.40102
20
-0.547205
11
3.40102
21
-0.409409
0
LINE
8
BLACK
6
CONTINUOUS
10
3.34217
20
-0.409409
11
3.34217
21
-0.547205
0
LINE
8
BLACK
6
CONTINUOUS
10
3.34217
20
-0.547205
11
3.27156
21
-0.547205
0
LINE
8
BLACK
6
CONTINUOUS
10
3.27156
20
-0.547205
11
3.27156
21
-0.409409
0
LINE
8
BLACK
6
CONTINUOUS
10
3.14211
20
-0.422531
11
3.14799
21
-0.415972
0
LINE
8
BLACK
6
CONTINUOUS
10
3.14799
20
-0.415972
11
3.16565
21
-0.409409
0
LINE
8
BLACK
6
CONTINUOUS
10
3.16565
20
-0.409409
11
3.17741
21
-0.409409
0
LINE
8
BLACK
6
CONTINUOUS
10
3.17741
20
-0.409409
11
3.19507
21
-0.415972
0
LINE
8
BLACK
6
CONTINUOUS
10
3.19507
20
-0.415972
11
3.20683
21
-0.429094
0
LINE
8
BLACK
6
CONTINUOUS
10
3.20683
20
-0.429094
11
3.21272
21
-0.442217
0
LINE
8
BLACK
6
CONTINUOUS
10
3.21272
20
-0.442217
11
3.2186
21
-0.468465
0
LINE
8
BLACK
6
CONTINUOUS
10
3.2186
20
-0.468465
11
3.2186
21
-0.48815
0
LINE
8
BLACK
6
CONTINUOUS
10
3.2186
20
-0.48815
11
3.21272
21
-0.514398
0
LINE
8
BLACK
6
CONTINUOUS
10
3.21272
20
-0.514398
11
3.20683
21
-0.52752
0
LINE
8
BLACK
6
CONTINUOUS
10
3.20683
20
-0.52752
11
3.19507
21
-0.540642
0
LINE
8
BLACK
6
CONTINUOUS
10
3.19507
20
-0.540642
11
3.17741
21
-0.547205
0
LINE
8
BLACK
6
CONTINUOUS
10
3.17741
20
-0.547205
11
3.16565
21
-0.547205
0
LINE
8
BLACK
6
CONTINUOUS
10
3.16565
20
-0.547205
11
3.14799
21
-0.540642
0
LINE
8
BLACK
6
CONTINUOUS
10
3.14799
20
-0.540642
11
3.14211
21
-0.534083
0
LINE
8
BLACK
6
CONTINUOUS
10
3.1068
20
-0.547205
11
3.0362
21
-0.547205
0
LINE
8
BLACK
6
CONTINUOUS
10
3.0715
20
-0.409409
11
3.0715
21
-0.547205
0
LINE
8
BLACK
6
CONTINUOUS
10
2.99501
20
-0.422531
11
2.98912
21
-0.415972
0
LINE
8
BLACK
6
CONTINUOUS
10
2.98912
20
-0.415972
11
2.99501
21
-0.409409
0
LINE
8
BLACK
6
CONTINUOUS
10
2.99501
20
-0.409409
11
3.00089
21
-0.415972
0
LINE
8
BLACK
6
CONTINUOUS
10
3.00089
20
-0.415972
11
2.99501
21
-0.422531
0
LINE
8
BLACK
6
CONTINUOUS
10
2.99501
20
-0.422531
11
2.99501
21
-0.409409
0
LINE
8
BLACK
6
CONTINUOUS
10
2.94793
20
-0.547205
11
2.86556
21
-0.547205
0
LINE
8
BLACK
6
CONTINUOUS
10
2.86556
20
-0.547205
11
2.91851
21
-0.409409
0
LINE
8
BLACK
6
CONTINUOUS
10
2.76553
20
-0.547205
11
2.78906
21
-0.547205
0
LINE
8
BLACK
6
CONTINUOUS
10
2.78906
20
-0.547205
11
2.80083
21
-0.540642
0
LINE
8
BLACK
6
CONTINUOUS
10
2.80083
20
-0.540642
11
2.80672
21
-0.534083
0
LINE
8
BLACK
6
CONTINUOUS
10
2.80672
20
-0.534083
11
2.81848
21
-0.514398
0
LINE
8
BLACK
6
CONTINUOUS
10
2.81848
20
-0.514398
11
2.82437
21
-0.48815
0
LINE
8
BLACK
6
CONTINUOUS
10
2.82437
20
-0.48815
11
2.82437
21
-0.435657
0
LINE
8
BLACK
6
CONTINUOUS
10
2.82437
20
-0.435657
11
2.81848
21
-0.422531
0
LINE
8
BLACK
6
CONTINUOUS
10
2.81848
20
-0.422531
11
2.8126
21
-0.415972
0
LINE
8
BLACK
6
CONTINUOUS
10
2.8126
20
-0.415972
11
2.80083
21
-0.409409
0
LINE
8
BLACK
6
CONTINUOUS
10
2.80083
20
-0.409409
11
2.7773
21
-0.409409
0
LINE
8
BLACK
6
CONTINUOUS
10
2.7773
20
-0.409409
11
2.76553
21
-0.415972
0
LINE
8
BLACK
6
CONTINUOUS
10
2.76553
20
-0.415972
11
2.75964
21
-0.422531
0
LINE
8
BLACK
6
CONTINUOUS
10
2.75964
20
-0.422531
11
2.75376
21
-0.435657
0
LINE
8
BLACK
6
CONTINUOUS
10
2.75376
20
-0.435657
11
2.75376
21
-0.468465
0
LINE
8
BLACK
6
CONTINUOUS
10
2.75376
20
-0.468465
11
2.75964
21
-0.481587
0
LINE
8
BLACK
6
CONTINUOUS
10
2.75964
20
-0.481587
11
2.76553
21
-0.48815
0
LINE
8
BLACK
6
CONTINUOUS
10
2.76553
20
-0.48815
11
2.7773
21
-0.494713
0
LINE
8
BLACK
6
CONTINUOUS
10
2.7773
20
-0.494713
11
2.80083
21
-0.494713
0
LINE
8
BLACK
6
CONTINUOUS
10
2.80083
20
-0.494713
11
2.8126
21
-0.48815
0
LINE
8
BLACK
6
CONTINUOUS
10
2.8126
20
-0.48815
11
2.81848
21
-0.481587
0
LINE
8
BLACK
6
CONTINUOUS
10
2.81848
20
-0.481587
11
2.82437
21
-0.468465
0
LINE
8
BLACK
6
CONTINUOUS
10
2.71257
20
-0.547205
11
2.63019
21
-0.547205
0
LINE
8
BLACK
6
CONTINUOUS
10
2.63019
20
-0.547205
11
2.68315
21
-0.409409
0
LINE
8
BLACK
6
CONTINUOUS
10
2.589
20
-0.534083
11
2.58312
21
-0.540642
0
LINE
8
BLACK
6
CONTINUOUS
10
2.58312
20
-0.540642
11
2.57135
21
-0.547205
0
LINE
8
BLACK
6
CONTINUOUS
10
2.57135
20
-0.547205
11
2.54193
21
-0.547205
0
LINE
8
BLACK
6
CONTINUOUS
10
2.54193
20
-0.547205
11
2.53017
21
-0.540642
0
LINE
8
BLACK
6
CONTINUOUS
10
2.53017
20
-0.540642
11
2.52428
21
-0.534083
0
LINE
8
BLACK
6
CONTINUOUS
10
2.52428
20
-0.534083
11
2.51839
21
-0.520957
0
LINE
8
BLACK
6
CONTINUOUS
10
2.51839
20
-0.520957
11
2.51839
21
-0.507835
0
LINE
8
BLACK
6
CONTINUOUS
10
2.51839
20
-0.507835
11
2.52428
21
-0.48815
0
LINE
8
BLACK
6
CONTINUOUS
10
2.52428
20
-0.48815
11
2.59489
21
-0.409409
0
LINE
8
BLACK
6
CONTINUOUS
10
2.59489
20
-0.409409
11
2.51839
21
-0.409409
0
LINE
8
BLACK
6
CONTINUOUS
10
2.40071
20
-0.409409
11
2.47132
21
-0.409409
0
LINE
8
BLACK
6
CONTINUOUS
10
2.43602
20
-0.409409
11
2.43602
21
-0.547205
0
LINE
8
BLACK
6
CONTINUOUS
10
2.43602
20
-0.547205
11
2.44779
21
-0.52752
0
LINE
8
BLACK
6
CONTINUOUS
10
2.44779
20
-0.52752
11
2.45956
21
-0.514398
0
LINE
8
BLACK
6
CONTINUOUS
10
2.45956
20
-0.514398
11
2.47132
21
-0.507835
0
LINE
8
BLACK
6
CONTINUOUS
10
2.34776
20
-0.422531
11
2.34187
21
-0.415972
0
LINE
8
BLACK
6
CONTINUOUS
10
2.34187
20
-0.415972
11
2.34776
21
-0.409409
0
LINE
8
BLACK
6
CONTINUOUS
10
2.34776
20
-0.409409
11
2.35364
21
-0.415972
0
LINE
8
BLACK
6
CONTINUOUS
10
2.35364
20
-0.415972
11
2.34776
21
-0.422531
0
LINE
8
BLACK
6
CONTINUOUS
10
2.34776
20
-0.422531
11
2.34776
21
-0.409409
0
LINE
8
BLACK
6
CONTINUOUS
10
2.30069
20
-0.547205
11
2.21831
21
-0.547205
0
LINE
8
BLACK
6
CONTINUOUS
10
2.21831
20
-0.547205
11
2.27126
21
-0.409409
0
LINE
8
BLACK
6
CONTINUOUS
10
2.11239
20
-0.547205
11
2.17124
21
-0.547205
0
LINE
8
BLACK
6
CONTINUOUS
10
2.17124
20
-0.547205
11
2.17712
21
-0.481587
0
LINE
8
BLACK
6
CONTINUOUS
10
2.17712
20
-0.481587
11
2.17124
21
-0.48815
0
LINE
8
BLACK
6
CONTINUOUS
10
2.17124
20
-0.48815
11
2.15947
21
-0.494713
0
LINE
8
BLACK
6
CONTINUOUS
10
2.15947
20
-0.494713
11
2.13005
21
-0.494713
0
LINE
8
BLACK
6
CONTINUOUS
10
2.13005
20
-0.494713
11
2.11828
21
-0.48815
0
LINE
8
BLACK
6
CONTINUOUS
10
2.11828
20
-0.48815
11
2.11239
21
-0.481587
0
LINE
8
BLACK
6
CONTINUOUS
10
2.11239
20
-0.481587
11
2.10651
21
-0.468465
0
LINE
8
BLACK
6
CONTINUOUS
10
2.10651
20
-0.468465
11
2.10651
21
-0.435657
0
LINE
8
BLACK
6
CONTINUOUS
10
2.10651
20
-0.435657
11
2.11239
21
-0.422531
0
LINE
8
BLACK
6
CONTINUOUS
10
2.11239
20
-0.422531
11
2.11828
21
-0.415972
0
LINE
8
BLACK
6
CONTINUOUS
10
2.11828
20
-0.415972
11
2.13005
21
-0.409409
0
LINE
8
BLACK
6
CONTINUOUS
10
2.13005
20
-0.409409
11
2.15947
21
-0.409409
0
LINE
8
BLACK
6
CONTINUOUS
10
2.15947
20
-0.409409
11
2.17124
21
-0.415972
0
LINE
8
BLACK
6
CONTINUOUS
10
2.17124
20
-0.415972
11
2.17712
21
-0.422531
0
LINE
8
BLACK
6
CONTINUOUS
10
2.0359
20
-0.48815
11
2.04767
21
-0.494713
0
LINE
8
BLACK
6
CONTINUOUS
10
2.04767
20
-0.494713
11
2.05356
21
-0.501272
0
LINE
8
BLACK
6
CONTINUOUS
10
2.05356
20
-0.501272
11
2.05944
21
-0.514398
0
LINE
8
BLACK
6
CONTINUOUS
10
2.05944
20
-0.514398
11
2.05944
21
-0.520957
0
LINE
8
BLACK
6
CONTINUOUS
10
2.05944
20
-0.520957
11
2.05356
21
-0.534083
0
LINE
8
BLACK
6
CONTINUOUS
10
2.05356
20
-0.534083
11
2.04767
21
-0.540642
0
LINE
8
BLACK
6
CONTINUOUS
10
2.04767
20
-0.540642
11
2.0359
21
-0.547205
0
LINE
8
BLACK
6
CONTINUOUS
10
2.0359
20
-0.547205
11
2.01237
21
-0.547205
0
LINE
8
BLACK
6
CONTINUOUS
10
2.01237
20
-0.547205
11
2.0006
21
-0.540642
0
LINE
8
BLACK
6
CONTINUOUS
10
2.0006
20
-0.540642
11
1.99471
21
-0.534083
0
LINE
8
BLACK
6
CONTINUOUS
10
1.99471
20
-0.534083
11
1.98883
21
-0.520957
0
LINE
8
BLACK
6
CONTINUOUS
10
1.98883
20
-0.520957
11
1.98883
21
-0.514398
0
LINE
8
BLACK
6
CONTINUOUS
10
1.98883
20
-0.514398
11
1.99471
21
-0.501272
0
LINE
8
BLACK
6
CONTINUOUS
10
1.99471
20
-0.501272
11
2.0006
21
-0.494713
0
LINE
8
BLACK
6
CONTINUOUS
10
2.0006
20
-0.494713
11
2.01237
21
-0.48815
0
LINE
8
BLACK
6
CONTINUOUS
10
2.01237
20
-0.48815
11
2.0359
21
-0.48815
0
LINE
8
BLACK
6
CONTINUOUS
10
2.0359
20
-0.48815
11
2.04767
21
-0.481587
0
LINE
8
BLACK
6
CONTINUOUS
10
2.04767
20
-0.481587
11
2.05356
21
-0.475028
0
LINE
8
BLACK
6
CONTINUOUS
10
2.05356
20
-0.475028
11
2.05944
21
-0.461902
0
LINE
8
BLACK
6
CONTINUOUS
10
2.05944
20
-0.461902
11
2.05944
21
-0.435657
0
LINE
8
BLACK
6
CONTINUOUS
10
2.05944
20
-0.435657
11
2.05356
21
-0.422531
0
LINE
8
BLACK
6
CONTINUOUS
10
2.05356
20
-0.422531
11
2.04767
21
-0.415972
0
LINE
8
BLACK
6
CONTINUOUS
10
2.04767
20
-0.415972
11
2.0359
21
-0.409409
0
LINE
8
BLACK
6
CONTINUOUS
10
2.0359
20
-0.409409
11
2.01237
21
-0.409409
0
LINE
8
BLACK
6
CONTINUOUS
10
2.01237
20
-0.409409
11
2.0006
21
-0.415972
0
LINE
8
BLACK
6
CONTINUOUS
10
2.0006
20
-0.415972
11
1.99471
21
-0.422531
0
LINE
8
BLACK
6
CONTINUOUS
10
1.99471
20
-0.422531
11
1.98883
21
-0.435657
0
LINE
8
BLACK
6
CONTINUOUS
10
1.98883
20
-0.435657
11
1.98883
21
-0.461902
0
LINE
8
BLACK
6
CONTINUOUS
10
1.98883
20
-0.461902
11
1.99471
21
-0.475028
0
LINE
8
BLACK
6
CONTINUOUS
10
1.99471
20
-0.475028
11
2.0006
21
-0.481587
0
LINE
8
BLACK
6
CONTINUOUS
10
2.0006
20
-0.481587
11
2.01237
21
-0.48815
0
LINE
8
BLACK
6
CONTINUOUS
10
1.94764
20
-0.547205
11
1.86526
21
-0.547205
0
LINE
8
BLACK
6
CONTINUOUS
10
1.86526
20
-0.547205
11
1.91822
21
-0.409409
0
LINE
8
BLACK
6
CONTINUOUS
10
1.76524
20
-0.547205
11
1.78877
21
-0.547205
0
LINE
8
BLACK
6
CONTINUOUS
10
1.78877
20
-0.547205
11
1.80054
21
-0.540642
0
LINE
8
BLACK
6
CONTINUOUS
10
1.80054
20
-0.540642
11
1.80643
21
-0.534083
0
LINE
8
BLACK
6
CONTINUOUS
10
1.80643
20
-0.534083
11
1.81819
21
-0.514398
0
LINE
8
BLACK
6
CONTINUOUS
10
1.81819
20
-0.514398
11
1.82407
21
-0.48815
0
LINE
8
BLACK
6
CONTINUOUS
10
1.82407
20
-0.48815
11
1.82407
21
-0.435657
0
LINE
8
BLACK
6
CONTINUOUS
10
1.82407
20
-0.435657
11
1.81819
21
-0.422531
0
LINE
8
BLACK
6
CONTINUOUS
10
1.81819
20
-0.422531
11
1.81231
21
-0.415972
0
LINE
8
BLACK
6
CONTINUOUS
10
1.81231
20
-0.415972
11
1.80054
21
-0.409409
0
LINE
8
BLACK
6
CONTINUOUS
10
1.80054
20
-0.409409
11
1.777
21
-0.409409
0
LINE
8
BLACK
6
CONTINUOUS
10
1.777
20
-0.409409
11
1.76524
21
-0.415972
0
LINE
8
BLACK
6
CONTINUOUS
10
1.76524
20
-0.415972
11
1.75935
21
-0.422531
0
LINE
8
BLACK
6
CONTINUOUS
10
1.75935
20
-0.422531
11
1.75346
21
-0.435657
0
LINE
8
BLACK
6
CONTINUOUS
10
1.75346
20
-0.435657
11
1.75346
21
-0.468465
0
LINE
8
BLACK
6
CONTINUOUS
10
1.75346
20
-0.468465
11
1.75935
21
-0.481587
0
LINE
8
BLACK
6
CONTINUOUS
10
1.75935
20
-0.481587
11
1.76524
21
-0.48815
0
LINE
8
BLACK
6
CONTINUOUS
10
1.76524
20
-0.48815
11
1.777
21
-0.494713
0
LINE
8
BLACK
6
CONTINUOUS
10
1.777
20
-0.494713
11
1.80054
21
-0.494713
0
LINE
8
BLACK
6
CONTINUOUS
10
1.80054
20
-0.494713
11
1.81231
21
-0.48815
0
LINE
8
BLACK
6
CONTINUOUS
10
1.81231
20
-0.48815
11
1.81819
21
-0.481587
0
LINE
8
BLACK
6
CONTINUOUS
10
1.81819
20
-0.481587
11
1.82407
21
-0.468465
0
LINE
8
BLACK
6
CONTINUOUS
10
1.64756
20
-0.501272
11
1.64756
21
-0.409409
0
LINE
8
BLACK
6
CONTINUOUS
10
1.67697
20
-0.553768
11
1.70639
21
-0.455343
0
LINE
8
BLACK
6
CONTINUOUS
10
1.70639
20
-0.455343
11
1.6299
21
-0.455343
0
LINE
8
BLACK
6
CONTINUOUS
10
1.58283
20
-0.422531
11
1.57694
21
-0.415972
0
LINE
8
BLACK
6
CONTINUOUS
10
1.57694
20
-0.415972
11
1.58283
21
-0.409409
0
LINE
8
BLACK
6
CONTINUOUS
10
1.58283
20
-0.409409
11
1.58871
21
-0.415972
0
LINE
8
BLACK
6
CONTINUOUS
10
1.58871
20
-0.415972
11
1.58283
21
-0.422531
0
LINE
8
BLACK
6
CONTINUOUS
10
1.58283
20
-0.422531
11
1.58283
21
-0.409409
0
LINE
8
BLACK
6
CONTINUOUS
10
1.50045
20
-0.547205
11
1.48868
21
-0.547205
0
LINE
8
BLACK
6
CONTINUOUS
10
1.48868
20
-0.547205
11
1.47691
21
-0.540642
0
LINE
8
BLACK
6
CONTINUOUS
10
1.47691
20
-0.540642
11
1.47103
21
-0.534083
0
LINE
8
BLACK
6
CONTINUOUS
10
1.47103
20
-0.534083
11
1.46515
21
-0.520957
0
LINE
8
BLACK
6
CONTINUOUS
10
1.46515
20
-0.520957
11
1.45926
21
-0.494713
0
LINE
8
BLACK
6
CONTINUOUS
10
1.45926
20
-0.494713
11
1.45926
21
-0.461902
0
LINE
8
BLACK
6
CONTINUOUS
10
1.45926
20
-0.461902
11
1.46515
21
-0.435657
0
LINE
8
BLACK
6
CONTINUOUS
10
1.46515
20
-0.435657
11
1.47103
21
-0.422531
0
LINE
8
BLACK
6
CONTINUOUS
10
1.47103
20
-0.422531
11
1.47691
21
-0.415972
0
LINE
8
BLACK
6
CONTINUOUS
10
1.47691
20
-0.415972
11
1.48868
21
-0.409409
0
LINE
8
BLACK
6
CONTINUOUS
10
1.48868
20
-0.409409
11
1.50045
21
-0.409409
0
LINE
8
BLACK
6
CONTINUOUS
10
1.50045
20
-0.409409
11
1.51222
21
-0.415972
0
LINE
8
BLACK
6
CONTINUOUS
10
1.51222
20
-0.415972
11
1.5181
21
-0.422531
0
LINE
8
BLACK
6
CONTINUOUS
10
1.5181
20
-0.422531
11
1.52399
21
-0.435657
0
LINE
8
BLACK
6
CONTINUOUS
10
1.52399
20
-0.435657
11
1.52987
21
-0.461902
0
LINE
8
BLACK
6
CONTINUOUS
10
1.52987
20
-0.461902
11
1.52987
21
-0.494713
0
LINE
8
BLACK
6
CONTINUOUS
10
1.52987
20
-0.494713
11
1.52399
21
-0.520957
0
LINE
8
BLACK
6
CONTINUOUS
10
1.52399
20
-0.520957
11
1.5181
21
-0.534083
0
LINE
8
BLACK
6
CONTINUOUS
10
1.5181
20
-0.534083
11
1.51222
21
-0.540642
0
LINE
8
BLACK
6
CONTINUOUS
10
1.51222
20
-0.540642
11
1.50045
21
-0.547205
0
LINE
8
BLACK
6
CONTINUOUS
10
1.34158
20
-0.409409
11
1.41219
21
-0.409409
0
LINE
8
BLACK
6
CONTINUOUS
10
1.37689
20
-0.409409
11
1.37689
21
-0.547205
0
LINE
8
BLACK
6
CONTINUOUS
10
1.37689
20
-0.547205
11
1.38865
21
-0.52752
0
LINE
8
BLACK
6
CONTINUOUS
10
1.38865
20
-0.52752
11
1.40042
21
-0.514398
0
LINE
8
BLACK
6
CONTINUOUS
10
1.40042
20
-0.514398
11
1.41219
21
-0.507835
0
LINE
8
BLACK
6
CONTINUOUS
10
1.28863
20
-0.422531
11
1.28274
21
-0.415972
0
LINE
8
BLACK
6
CONTINUOUS
10
1.28274
20
-0.415972
11
1.28863
21
-0.409409
0
LINE
8
BLACK
6
CONTINUOUS
10
1.28863
20
-0.409409
11
1.29451
21
-0.415972
0
LINE
8
BLACK
6
CONTINUOUS
10
1.29451
20
-0.415972
11
1.28863
21
-0.422531
0
LINE
8
BLACK
6
CONTINUOUS
10
1.28863
20
-0.422531
11
1.28863
21
-0.409409
0
LINE
8
BLACK
6
CONTINUOUS
10
1.15917
20
-0.475028
11
1.21802
21
-0.475028
0
LINE
8
BLACK
6
CONTINUOUS
10
1.23567
20
-0.534083
11
1.22978
21
-0.540642
0
LINE
8
BLACK
6
CONTINUOUS
10
1.22978
20
-0.540642
11
1.21213
21
-0.547205
0
LINE
8
BLACK
6
CONTINUOUS
10
1.21213
20
-0.547205
11
1.20036
21
-0.547205
0
LINE
8
BLACK
6
CONTINUOUS
10
1.20036
20
-0.547205
11
1.18271
21
-0.540642
0
LINE
8
BLACK
6
CONTINUOUS
10
1.18271
20
-0.540642
11
1.17094
21
-0.52752
0
LINE
8
BLACK
6
CONTINUOUS
10
1.17094
20
-0.52752
11
1.16506
21
-0.514398
0
LINE
8
BLACK
6
CONTINUOUS
10
1.16506
20
-0.514398
11
1.15917
21
-0.48815
0
LINE
8
BLACK
6
CONTINUOUS
10
1.15917
20
-0.48815
11
1.15917
21
-0.468465
0
LINE
8
BLACK
6
CONTINUOUS
10
1.15917
20
-0.468465
11
1.16506
21
-0.442217
0
LINE
8
BLACK
6
CONTINUOUS
10
1.16506
20
-0.442217
11
1.17094
21
-0.429094
0
LINE
8
BLACK
6
CONTINUOUS
10
1.17094
20
-0.429094
11
1.18271
21
-0.415972
0
LINE
8
BLACK
6
CONTINUOUS
10
1.18271
20
-0.415972
11
1.20036
21
-0.409409
0
LINE
8
BLACK
6
CONTINUOUS
10
1.20036
20
-0.409409
11
1.21213
21
-0.409409
0
LINE
8
BLACK
6
CONTINUOUS
10
1.21213
20
-0.409409
11
1.22978
21
-0.415972
0
LINE
8
BLACK
6
CONTINUOUS
10
1.22978
20
-0.415972
11
1.23567
21
-0.422531
0
LINE
8
BLACK
6
CONTINUOUS
10
1.11798
20
-0.547205
11
1.04149
21
-0.547205
0
LINE
8
BLACK
6
CONTINUOUS
10
1.04149
20
-0.547205
11
1.08268
21
-0.494713
0
LINE
8
BLACK
6
CONTINUOUS
10
1.08268
20
-0.494713
11
1.06503
21
-0.494713
0
LINE
8
BLACK
6
CONTINUOUS
10
1.06503
20
-0.494713
11
1.05326
21
-0.48815
0
LINE
8
BLACK
6
CONTINUOUS
10
1.05326
20
-0.48815
11
1.04737
21
-0.481587
0
LINE
8
BLACK
6
CONTINUOUS
10
1.04737
20
-0.481587
11
1.04149
21
-0.468465
0
LINE
8
BLACK
6
CONTINUOUS
10
1.04149
20
-0.468465
11
1.04149
21
-0.435657
0
LINE
8
BLACK
6
CONTINUOUS
10
1.04149
20
-0.435657
11
1.04737
21
-0.422531
0
LINE
8
BLACK
6
CONTINUOUS
10
1.04737
20
-0.422531
11
1.05326
21
-0.415972
0
LINE
8
BLACK
6
CONTINUOUS
10
1.05326
20
-0.415972
11
1.06503
21
-0.409409
0
LINE
8
BLACK
6
CONTINUOUS
10
1.06503
20
-0.409409
11
1.10033
21
-0.409409
0
LINE
8
BLACK
6
CONTINUOUS
10
1.10033
20
-0.409409
11
1.1121
21
-0.415972
0
LINE
8
BLACK
6
CONTINUOUS
10
1.1121
20
-0.415972
11
1.11798
21
-0.422531
0
LINE
8
BLACK
6
CONTINUOUS
10
0.988535
20
-0.422531
11
0.98265
21
-0.415972
0
LINE
8
BLACK
6
CONTINUOUS
10
0.98265
20
-0.415972
11
0.988535
21
-0.409409
0
LINE
8
BLACK
6
CONTINUOUS
10
0.988535
20
-0.409409
11
0.994417
21
-0.415972
0
LINE
8
BLACK
6
CONTINUOUS
10
0.994417
20
-0.415972
11
0.988535
21
-0.422531
0
LINE
8
BLACK
6
CONTINUOUS
10
0.988535
20
-0.422531
11
0.988535
21
-0.409409
0
LINE
8
BLACK
6
CONTINUOUS
10
0.929693
20
-0.409409
11
0.929693
21
-0.547205
0
LINE
8
BLACK
6
CONTINUOUS
10
0.929693
20
-0.547205
11
0.888504
21
-0.44878
0
LINE
8
BLACK
6
CONTINUOUS
10
0.888504
20
-0.44878
11
0.847315
21
-0.547205
0
LINE
8
BLACK
6
CONTINUOUS
10
0.847315
20
-0.547205
11
0.847315
21
-0.409409
0
CIRCLE
8
BLACK
10
5.25
20
-4.55
40
0.1
0
LINE
8
BLACK
6
CONTINUOUS
10
5.225
20
-4.575
11
5.275
21
-4.575
0
LINE
8
BLACK
6
CONTINUOUS
10
5.245
20
-4.6
11
5.255
21
-4.6
0
LINE
8
BLACK
6
CONTINUOUS
10
5.25
20
-4.55
11
5.25
21
-4.4
0
LINE
8
BLACK
6
CONTINUOUS
10
5.3
20
-4.55
11
5.2
21
-4.55
0
LINE
8
BLACK
6
CONTINUOUS
10
5.05
20
-4.105
11
5.05
21
-4.095
0
LINE
8
BLACK
6
CONTINUOUS
10
5.05
20
-4.095
11
5
21
-4.095
0
LINE
8
BLACK
6
CONTINUOUS
10
5
20
-4.095
11
5
21
-4.105
0
LINE
8
BLACK
6
CONTINUOUS
10
5
20
-4.105
11
5.05
21
-4.105
0
LINE
8
BLACK
6
CONTINUOUS
10
5.05
20
-4.15
11
5.05
21
-4.05
0
LINE
8
BLACK
6
CONTINUOUS
10
5.05
20
-4.05
11
4.95
21
-4.05
0
LINE
8
BLACK
6
CONTINUOUS
10
4.95
20
-4.05
11
4.95
21
-4.15
0
LINE
8
BLACK
6
CONTINUOUS
10
4.95
20
-4.15
11
5.05
21
-4.15
0
LINE
8
BLACK
6
CONTINUOUS
10
5.05
20
-4.1
11
5.2
21
-4.1
0
LINE
8
BLACK
6
CONTINUOUS
10
5.13929
20
-4.08988
11
5.11072
21
-4.08988
0
LINE
8
BLACK
6
CONTINUOUS
10
5.125
20
-4.08988
11
5.125
21
-4.03988
0
LINE
8
BLACK
6
CONTINUOUS
10
5.125
20
-4.03988
11
5.12024
21
-4.04702
0
LINE
8
BLACK
6
CONTINUOUS
10
5.12024
20
-4.04702
11
5.11548
21
-4.05178
0
LINE
8
BLACK
6
CONTINUOUS
10
5.11548
20
-4.05178
11
5.11072
21
-4.05417
0
LINE
8
BLACK
6
CONTINUOUS
10
4.98333
20
-3.8228
11
4.98333
21
-3.85852
0
LINE
8
BLACK
6
CONTINUOUS
10
4.98333
20
-3.85852
11
4.98095
21
-3.86566
0
LINE
8
BLACK
6
CONTINUOUS
10
4.98095
20
-3.86566
11
4.97619
21
-3.87043
0
LINE
8
BLACK
6
CONTINUOUS
10
4.97619
20
-3.87043
11
4.96904
21
-3.8728
0
LINE
8
BLACK
6
CONTINUOUS
10
4.96904
20
-3.8728
11
4.96428
21
-3.8728
0
LINE
8
BLACK
6
CONTINUOUS
10
5.02857
20
-3.8228
11
5.01904
21
-3.8228
0
LINE
8
BLACK
6
CONTINUOUS
10
5.01904
20
-3.8228
11
5.01428
21
-3.82519
0
LINE
8
BLACK
6
CONTINUOUS
10
5.01428
20
-3.82519
11
5.0119
21
-3.82757
0
LINE
8
BLACK
6
CONTINUOUS
10
5.0119
20
-3.82757
11
5.00714
21
-3.83471
0
LINE
8
BLACK
6
CONTINUOUS
10
5.00714
20
-3.83471
11
5.00476
21
-3.84423
0
LINE
8
BLACK
6
CONTINUOUS
10
5.00476
20
-3.84423
11
5.00476
21
-3.86328
0
LINE
8
BLACK
6
CONTINUOUS
10
5.00476
20
-3.86328
11
5.00714
21
-3.86804
0
LINE
8
BLACK
6
CONTINUOUS
10
5.00714
20
-3.86804
11
5.00952
21
-3.87043
0
LINE
8
BLACK
6
CONTINUOUS
10
5.00952
20
-3.87043
11
5.01428
21
-3.8728
0
LINE
8
BLACK
6
CONTINUOUS
10
5.01428
20
-3.8728
11
5.02381
21
-3.8728
0
LINE
8
BLACK
6
CONTINUOUS
10
5.02381
20
-3.8728
11
5.02857
21
-3.87043
0
LINE
8
BLACK
6
CONTINUOUS
10
5.02857
20
-3.87043
11
5.03095
21
-3.86804
0
LINE
8
BLACK
6
CONTINUOUS
10
5.03095
20
-3.86804
11
5.03333
21
-3.86328
0
LINE
8
BLACK
6
CONTINUOUS
10
5.03333
20
-3.86328
11
5.03333
21
-3.85137
0
LINE
8
BLACK
6
CONTINUOUS
10
5.03333
20
-3.85137
11
5.03095
21
-3.84661
0
LINE
8
BLACK
6
CONTINUOUS
10
5.03095
20
-3.84661
11
5.02857
21
-3.84423
0
LINE
8
BLACK
6
CONTINUOUS
10
5.02857
20
-3.84423
11
5.02381
21
-3.84185
0
LINE
8
BLACK
6
CONTINUOUS
10
5.02381
20
-3.84185
11
5.01428
21
-3.84185
0
LINE
8
BLACK
6
CONTINUOUS
10
5.01428
20
-3.84185
11
5.00952
21
-3.84423
0
LINE
8
BLACK
6
CONTINUOUS
10
5.00952
20
-3.84423
11
5.00714
21
-3.84661
0
LINE
8
BLACK
6
CONTINUOUS
10
5.00714
20
-3.84661
11
5.00476
21
-3.85137
0
LINE
8
BLACK
6
CONTINUOUS
10
4.94285
20
-3.9728
11
4.94285
21
-3.9228
0
LINE
8
BLACK
6
CONTINUOUS
10
4.96666
20
-3.9728
11
4.96666
21
-3.9228
0
LINE
8
BLACK
6
CONTINUOUS
10
4.96666
20
-3.9228
11
4.99523
21
-3.9728
0
LINE
8
BLACK
6
CONTINUOUS
10
4.99523
20
-3.9728
11
4.99523
21
-3.9228
0
LINE
8
BLACK
6
CONTINUOUS
10
5.01904
20
-3.95376
11
5.05714
21
-3.95376
0
LINE
8
BLACK
6
CONTINUOUS
10
5.03809
20
-3.9728
11
5.03809
21
-3.93471
0
LINE
8
BLACK
6
CONTINUOUS
10
5.17
20
-4.28
11
5.33
21
-4.28
0
LINE
8
BLACK
6
CONTINUOUS
10
5.17
20
-4.22
11
5.33
21
-4.22
0
LINE
8
BLACK
6
CONTINUOUS
10
5.25
20
-4.21
11
5.25
21
-4.1
0
LINE
8
BLACK
6
CONTINUOUS
10
5.25
20
-4.29
11
5.25
21
-4.4
0
LINE
8
BLACK
6
CONTINUOUS
10
5.44485
20
-4.21804
11
5.44247
21
-4.22043
0
LINE
8
BLACK
6
CONTINUOUS
10
5.44247
20
-4.22043
11
5.43533
21
-4.2228
0
LINE
8
BLACK
6
CONTINUOUS
10
5.43533
20
-4.2228
11
5.43057
21
-4.2228
0
LINE
8
BLACK
6
CONTINUOUS
10
5.43057
20
-4.2228
11
5.42343
21
-4.22043
0
LINE
8
BLACK
6
CONTINUOUS
10
5.42343
20
-4.22043
11
5.41866
21
-4.21566
0
LINE
8
BLACK
6
CONTINUOUS
10
5.41866
20
-4.21566
11
5.41628
21
-4.2109
0
LINE
8
BLACK
6
CONTINUOUS
10
5.41628
20
-4.2109
11
5.4139
21
-4.20137
0
LINE
8
BLACK
6
CONTINUOUS
10
5.4139
20
-4.20137
11
5.4139
21
-4.19423
0
LINE
8
BLACK
6
CONTINUOUS
10
5.4139
20
-4.19423
11
5.41628
21
-4.18471
0
LINE
8
BLACK
6
CONTINUOUS
10
5.41628
20
-4.18471
11
5.41866
21
-4.17995
0
LINE
8
BLACK
6
CONTINUOUS
10
5.41866
20
-4.17995
11
5.42343
21
-4.17519
0
LINE
8
BLACK
6
CONTINUOUS
10
5.42343
20
-4.17519
11
5.43057
21
-4.1728
0
LINE
8
BLACK
6
CONTINUOUS
10
5.43057
20
-4.1728
11
5.43533
21
-4.1728
0
LINE
8
BLACK
6
CONTINUOUS
10
5.43533
20
-4.1728
11
5.44247
21
-4.17519
0
LINE
8
BLACK
6
CONTINUOUS
10
5.44247
20
-4.17519
11
5.44485
21
-4.17757
0
LINE
8
BLACK
6
CONTINUOUS
10
5.48771
20
-4.18947
11
5.48771
21
-4.2228
0
LINE
8
BLACK
6
CONTINUOUS
10
5.4758
20
-4.17043
11
5.4639
21
-4.20614
0
LINE
8
BLACK
6
CONTINUOUS
10
5.4639
20
-4.20614
11
5.49485
21
-4.20614
0
LINE
8
BLACK
6
CONTINUOUS
10
5.53771
20
-4.1728
11
5.5139
21
-4.1728
0
LINE
8
BLACK
6
CONTINUOUS
10
5.5139
20
-4.1728
11
5.51152
21
-4.19661
0
LINE
8
BLACK
6
CONTINUOUS
10
5.51152
20
-4.19661
11
5.5139
21
-4.19423
0
LINE
8
BLACK
6
CONTINUOUS
10
5.5139
20
-4.19423
11
5.51866
21
-4.19185
0
LINE
8
BLACK
6
CONTINUOUS
10
5.51866
20
-4.19185
11
5.53057
21
-4.19185
0
LINE
8
BLACK
6
CONTINUOUS
10
5.53057
20
-4.19185
11
5.53533
21
-4.19423
0
LINE
8
BLACK
6
CONTINUOUS
10
5.53533
20
-4.19423
11
5.53771
21
-4.19661
0
LINE
8
BLACK
6
CONTINUOUS
10
5.53771
20
-4.19661
11
5.54009
21
-4.20137
0
LINE
8
BLACK
6
CONTINUOUS
10
5.54009
20
-4.20137
11
5.54009
21
-4.21328
0
LINE
8
BLACK
6
CONTINUOUS
10
5.54009
20
-4.21328
11
5.53771
21
-4.21804
0
LINE
8
BLACK
6
CONTINUOUS
10
5.53771
20
-4.21804
11
5.53533
21
-4.22043
0
LINE
8
BLACK
6
CONTINUOUS
10
5.53533
20
-4.22043
11
5.53057
21
-4.2228
0
LINE
8
BLACK
6
CONTINUOUS
10
5.53057
20
-4.2228
11
5.51866
21
-4.2228
0
LINE
8
BLACK
6
CONTINUOUS
10
5.51866
20
-4.2228
11
5.5139
21
-4.22043
0
LINE
8
BLACK
6
CONTINUOUS
10
5.5139
20
-4.22043
11
5.51152
21
-4.21804
0
LINE
8
BLACK
6
CONTINUOUS
10
5.44247
20
-4.3228
11
5.4139
21
-4.3228
0
LINE
8
BLACK
6
CONTINUOUS
10
5.42819
20
-4.3228
11
5.42819
21
-4.2728
0
LINE
8
BLACK
6
CONTINUOUS
10
5.42819
20
-4.2728
11
5.42343
21
-4.27995
0
LINE
8
BLACK
6
CONTINUOUS
10
5.42343
20
-4.27995
11
5.41866
21
-4.28471
0
LINE
8
BLACK
6
CONTINUOUS
10
5.41866
20
-4.28471
11
5.4139
21
-4.28709
0
LINE
8
BLACK
6
CONTINUOUS
10
5.48771
20
-4.2728
11
5.4639
21
-4.2728
0
LINE
8
BLACK
6
CONTINUOUS
10
5.4639
20
-4.2728
11
5.46152
21
-4.29661
0
LINE
8
BLACK
6
CONTINUOUS
10
5.46152
20
-4.29661
11
5.4639
21
-4.29423
0
LINE
8
BLACK
6
CONTINUOUS
10
5.4639
20
-4.29423
11
5.46866
21
-4.29185
0
LINE
8
BLACK
6
CONTINUOUS
10
5.46866
20
-4.29185
11
5.48057
21
-4.29185
0
LINE
8
BLACK
6
CONTINUOUS
10
5.48057
20
-4.29185
11
5.48533
21
-4.29423
0
LINE
8
BLACK
6
CONTINUOUS
10
5.48533
20
-4.29423
11
5.48771
21
-4.29661
0
LINE
8
BLACK
6
CONTINUOUS
10
5.48771
20
-4.29661
11
5.49009
21
-4.30137
0
LINE
8
BLACK
6
CONTINUOUS
10
5.49009
20
-4.30137
11
5.49009
21
-4.31328
0
LINE
8
BLACK
6
CONTINUOUS
10
5.49009
20
-4.31328
11
5.48771
21
-4.31804
0
LINE
8
BLACK
6
CONTINUOUS
10
5.48771
20
-4.31804
11
5.48533
21
-4.32043
0
LINE
8
BLACK
6
CONTINUOUS
10
5.48533
20
-4.32043
11
5.48057
21
-4.3228
0
LINE
8
BLACK
6
CONTINUOUS
10
5.48057
20
-4.3228
11
5.46866
21
-4.3228
0
LINE
8
BLACK
6
CONTINUOUS
10
5.46866
20
-4.3228
11
5.4639
21
-4.32043
0
LINE
8
BLACK
6
CONTINUOUS
10
5.4639
20
-4.32043
11
5.46152
21
-4.31804
0
LINE
8
BLACK
6
CONTINUOUS
10
5.52104
20
-4.2728
11
5.5258
21
-4.2728
0
LINE
8
BLACK
6
CONTINUOUS
10
5.5258
20
-4.2728
11
5.53056
21
-4.27519
0
LINE
8
BLACK
6
CONTINUOUS
10
5.53056
20
-4.27519
11
5.53294
21
-4.27757
0
LINE
8
BLACK
6
CONTINUOUS
10
5.53294
20
-4.27757
11
5.53533
21
-4.28233
0
LINE
8
BLACK
6
CONTINUOUS
10
5.53533
20
-4.28233
11
5.53771
21
-4.29185
0
LINE
8
BLACK
6
CONTINUOUS
10
5.53771
20
-4.29185
11
5.53771
21
-4.30376
0
LINE
8
BLACK
6
CONTINUOUS
10
5.53771
20
-4.30376
11
5.53533
21
-4.31328
0
LINE
8
BLACK
6
CONTINUOUS
10
5.53533
20
-4.31328
11
5.53294
21
-4.31804
0
LINE
8
BLACK
6
CONTINUOUS
10
5.53294
20
-4.31804
11
5.53056
21
-4.32043
0
LINE
8
BLACK
6
CONTINUOUS
10
5.53056
20
-4.32043
11
5.5258
21
-4.3228
0
LINE
8
BLACK
6
CONTINUOUS
10
5.5258
20
-4.3228
11
5.52104
21
-4.3228
0
LINE
8
BLACK
6
CONTINUOUS
10
5.52104
20
-4.3228
11
5.51628
21
-4.32043
0
LINE
8
BLACK
6
CONTINUOUS
10
5.51628
20
-4.32043
11
5.5139
21
-4.31804
0
LINE
8
BLACK
6
CONTINUOUS
10
5.5139
20
-4.31804
11
5.51152
21
-4.31328
0
LINE
8
BLACK
6
CONTINUOUS
10
5.51152
20
-4.31328
11
5.50914
21
-4.30376
0
LINE
8
BLACK
6
CONTINUOUS
10
5.50914
20
-4.30376
11
5.50914
21
-4.29185
0
LINE
8
BLACK
6
CONTINUOUS
10
5.50914
20
-4.29185
11
5.51152
21
-4.28233
0
LINE
8
BLACK
6
CONTINUOUS
10
5.51152
20
-4.28233
11
5.5139
21
-4.27757
0
LINE
8
BLACK
6
CONTINUOUS
10
5.5139
20
-4.27757
11
5.51628
21
-4.27519
0
LINE
8
BLACK
6
CONTINUOUS
10
5.51628
20
-4.27519
11
5.52104
21
-4.2728
0
LINE
8
BLACK
6
CONTINUOUS
10
5.56866
20
-4.2728
11
5.57342
21
-4.2728
0
LINE
8
BLACK
6
CONTINUOUS
10
5.57342
20
-4.2728
11
5.57818
21
-4.27519
0
LINE
8
BLACK
6
CONTINUOUS
10
5.57818
20
-4.27519
11
5.58056
21
-4.27757
0
LINE
8
BLACK
6
CONTINUOUS
10
5.58056
20
-4.27757
11
5.58294
21
-4.28233
0
LINE
8
BLACK
6
CONTINUOUS
10
5.58294
20
-4.28233
11
5.58533
21
-4.29185
0
LINE
8
BLACK
6
CONTINUOUS
10
5.58533
20
-4.29185
11
5.58533
21
-4.30376
0
LINE
8
BLACK
6
CONTINUOUS
10
5.58533
20
-4.30376
11
5.58294
21
-4.31328
0
LINE
8
BLACK
6
CONTINUOUS
10
5.58294
20
-4.31328
11
5.58056
21
-4.31804
0
LINE
8
BLACK
6
CONTINUOUS
10
5.58056
20
-4.31804
11
5.57818
21
-4.32043
0
LINE
8
BLACK
6
CONTINUOUS
10
5.57818
20
-4.32043
11
5.57342
21
-4.3228
0
LINE
8
BLACK
6
CONTINUOUS
10
5.57342
20
-4.3228
11
5.56866
21
-4.3228
0
LINE
8
BLACK
6
CONTINUOUS
10
5.56866
20
-4.3228
11
5.5639
21
-4.32043
0
LINE
8
BLACK
6
CONTINUOUS
10
5.5639
20
-4.32043
11
5.56152
21
-4.31804
0
LINE
8
BLACK
6
CONTINUOUS
10
5.56152
20
-4.31804
11
5.55913
21
-4.31328
0
LINE
8
BLACK
6
CONTINUOUS
10
5.55913
20
-4.31328
11
5.55676
21
-4.30376
0
LINE
8
BLACK
6
CONTINUOUS
10
5.55676
20
-4.30376
11
5.55676
21
-4.29185
0
LINE
8
BLACK
6
CONTINUOUS
10
5.55676
20
-4.29185
11
5.55913
21
-4.28233
0
LINE
8
BLACK
6
CONTINUOUS
10
5.55913
20
-4.28233
11
5.56152
21
-4.27757
0
LINE
8
BLACK
6
CONTINUOUS
10
5.56152
20
-4.27757
11
5.5639
21
-4.27519
0
LINE
8
BLACK
6
CONTINUOUS
10
5.5639
20
-4.27519
11
5.56866
21
-4.2728
0
LINE
8
BLACK
6
CONTINUOUS
10
5.60675
20
-4.28947
11
5.60675
21
-4.33947
0
LINE
8
BLACK
6
CONTINUOUS
10
5.60675
20
-4.29185
11
5.61152
21
-4.28947
0
LINE
8
BLACK
6
CONTINUOUS
10
5.61152
20
-4.28947
11
5.62104
21
-4.28947
0
LINE
8
BLACK
6
CONTINUOUS
10
5.62104
20
-4.28947
11
5.6258
21
-4.29185
0
LINE
8
BLACK
6
CONTINUOUS
10
5.6258
20
-4.29185
11
5.62818
21
-4.29423
0
LINE
8
BLACK
6
CONTINUOUS
10
5.62818
20
-4.29423
11
5.63056
21
-4.299
0
LINE
8
BLACK
6
CONTINUOUS
10
5.63056
20
-4.299
11
5.63056
21
-4.31328
0
LINE
8
BLACK
6
CONTINUOUS
10
5.63056
20
-4.31328
11
5.62818
21
-4.31804
0
LINE
8
BLACK
6
CONTINUOUS
10
5.62818
20
-4.31804
11
5.6258
21
-4.32043
0
LINE
8
BLACK
6
CONTINUOUS
10
5.6258
20
-4.32043
11
5.62104
21
-4.3228
0
LINE
8
BLACK
6
CONTINUOUS
10
5.62104
20
-4.3228
11
5.61152
21
-4.3228
0
LINE
8
BLACK
6
CONTINUOUS
10
5.61152
20
-4.3228
11
5.60675
21
-4.32043
0
LINE
8
BLACK
6
CONTINUOUS
10
6.1
20
-3.35
11
6.1
21
-3.3
0
LINE
8
BLACK
6
CONTINUOUS
10
6.1
20
-3.3
11
6.05
21
-3.3
0
LINE
8
BLACK
6
CONTINUOUS
10
6.05
20
-3.3
11
6.1
21
-3.25
0
LINE
8
BLACK
6
CONTINUOUS
10
6.1
20
-3.25
11
6.15
21
-3.3
0
LINE
8
BLACK
6
CONTINUOUS
10
6.15
20
-3.3
11
6.1
21
-3.3
0
LINE
8
BLACK
6
CONTINUOUS
10
6.0619
20
-3.12519
11
6.05714
21
-3.1228
0
LINE
8
BLACK
6
CONTINUOUS
10
6.05714
20
-3.1228
11
6.05
21
-3.1228
0
LINE
8
BLACK
6
CONTINUOUS
10
6.05
20
-3.1228
11
6.04285
21
-3.12519
0
LINE
8
BLACK
6
CONTINUOUS
10
6.04285
20
-3.12519
11
6.03809
21
-3.12995
0
LINE
8
BLACK
6
CONTINUOUS
10
6.03809
20
-3.12995
11
6.03571
21
-3.13471
0
LINE
8
BLACK
6
CONTINUOUS
10
6.03571
20
-3.13471
11
6.03333
21
-3.14423
0
LINE
8
BLACK
6
CONTINUOUS
10
6.03333
20
-3.14423
11
6.03333
21
-3.15137
0
LINE
8
BLACK
6
CONTINUOUS
10
6.03333
20
-3.15137
11
6.03571
21
-3.1609
0
LINE
8
BLACK
6
CONTINUOUS
10
6.03571
20
-3.1609
11
6.03809
21
-3.16566
0
LINE
8
BLACK
6
CONTINUOUS
10
6.03809
20
-3.16566
11
6.04285
21
-3.17043
0
LINE
8
BLACK
6
CONTINUOUS
10
6.04285
20
-3.17043
11
6.05
21
-3.1728
0
LINE
8
BLACK
6
CONTINUOUS
10
6.05
20
-3.1728
11
6.05476
21
-3.1728
0
LINE
8
BLACK
6
CONTINUOUS
10
6.05476
20
-3.1728
11
6.0619
21
-3.17043
0
LINE
8
BLACK
6
CONTINUOUS
10
6.0619
20
-3.17043
11
6.06428
21
-3.16804
0
LINE
8
BLACK
6
CONTINUOUS
10
6.06428
20
-3.16804
11
6.06428
21
-3.15137
0
LINE
8
BLACK
6
CONTINUOUS
10
6.06428
20
-3.15137
11
6.05476
21
-3.15137
0
LINE
8
BLACK
6
CONTINUOUS
10
6.08571
20
-3.1728
11
6.08571
21
-3.1228
0
LINE
8
BLACK
6
CONTINUOUS
10
6.08571
20
-3.1228
11
6.11428
21
-3.1728
0
LINE
8
BLACK
6
CONTINUOUS
10
6.11428
20
-3.1728
11
6.11428
21
-3.1228
0
LINE
8
BLACK
6
CONTINUOUS
10
6.13809
20
-3.1728
11
6.13809
21
-3.1228
0
LINE
8
BLACK
6
CONTINUOUS
10
6.13809
20
-3.1228
11
6.15
21
-3.1228
0
LINE
8
BLACK
6
CONTINUOUS
10
6.15
20
-3.1228
11
6.15714
21
-3.12519
0
LINE
8
BLACK
6
CONTINUOUS
10
6.15714
20
-3.12519
11
6.1619
21
-3.12995
0
LINE
8
BLACK
6
CONTINUOUS
10
6.1619
20
-3.12995
11
6.16428
21
-3.13471
0
LINE
8
BLACK
6
CONTINUOUS
10
6.16428
20
-3.13471
11
6.16666
21
-3.14423
0
LINE
8
BLACK
6
CONTINUOUS
10
6.16666
20
-3.14423
11
6.16666
21
-3.15137
0
LINE
8
BLACK
6
CONTINUOUS
10
6.16666
20
-3.15137
11
6.16428
21
-3.1609
0
LINE
8
BLACK
6
CONTINUOUS
10
6.16428
20
-3.1609
11
6.1619
21
-3.16566
0
LINE
8
BLACK
6
CONTINUOUS
10
6.1619
20
-3.16566
11
6.15714
21
-3.17043
0
LINE
8
BLACK
6
CONTINUOUS
10
6.15714
20
-3.17043
11
6.15
21
-3.1728
0
LINE
8
BLACK
6
CONTINUOUS
10
6.15
20
-3.1728
11
6.13809
21
-3.1728
0
LINE
8
BLACK
6
CONTINUOUS
10
5.9
20
-3.52
11
5.9
21
-3.58
0
LINE
8
BLACK
6
CONTINUOUS
10
5.86
20
-3.56
11
5.86
21
-3.58
0
LINE
8
BLACK
6
CONTINUOUS
10
5.86
20
-3.58
11
5.94
21
-3.58
0
LINE
8
BLACK
6
CONTINUOUS
10
5.86
20
-3.52
11
5.9
21
-3.58
0
LINE
8
BLACK
6
CONTINUOUS
10
5.9
20
-3.58
11
5.94
21
-3.52
0
LINE
8
BLACK
6
CONTINUOUS
10
5.94
20
-3.52
11
5.86
21
-3.52
0
LINE
8
BLACK
6
CONTINUOUS
10
5.9
20
-3.58
11
5.9
21
-3.65
0
LINE
8
BLACK
6
CONTINUOUS
10
5.9
20
-3.52
11
5.9
21
-3.45
0
LINE
8
BLACK
6
CONTINUOUS
10
6.01628
20
-3.5228
11
6.01628
21
-3.4728
0
LINE
8
BLACK
6
CONTINUOUS
10
6.01628
20
-3.4728
11
6.02819
21
-3.4728
0
LINE
8
BLACK
6
CONTINUOUS
10
6.02819
20
-3.4728
11
6.03533
21
-3.47519
0
LINE
8
BLACK
6
CONTINUOUS
10
6.03533
20
-3.47519
11
6.04009
21
-3.47995
0
LINE
8
BLACK
6
CONTINUOUS
10
6.04009
20
-3.47995
11
6.04247
21
-3.48471
0
LINE
8
BLACK
6
CONTINUOUS
10
6.04247
20
-3.48471
11
6.04485
21
-3.49423
0
LINE
8
BLACK
6
CONTINUOUS
10
6.04485
20
-3.49423
11
6.04485
21
-3.50137
0
LINE
8
BLACK
6
CONTINUOUS
10
6.04485
20
-3.50137
11
6.04247
21
-3.5109
0
LINE
8
BLACK
6
CONTINUOUS
10
6.04247
20
-3.5109
11
6.04009
21
-3.51566
0
LINE
8
BLACK
6
CONTINUOUS
10
6.04009
20
-3.51566
11
6.03533
21
-3.52043
0
LINE
8
BLACK
6
CONTINUOUS
10
6.03533
20
-3.52043
11
6.02819
21
-3.5228
0
LINE
8
BLACK
6
CONTINUOUS
10
6.02819
20
-3.5228
11
6.01628
21
-3.5228
0
LINE
8
BLACK
6
CONTINUOUS
10
6.09247
20
-3.5228
11
6.0639
21
-3.5228
0
LINE
8
BLACK
6
CONTINUOUS
10
6.07819
20
-3.5228
11
6.07819
21
-3.4728
0
LINE
8
BLACK
6
CONTINUOUS
10
6.07819
20
-3.4728
11
6.07343
21
-3.47995
0
LINE
8
BLACK
6
CONTINUOUS
10
6.07343
20
-3.47995
11
6.06866
21
-3.48471
0
LINE
8
BLACK
6
CONTINUOUS
10
6.06866
20
-3.48471
11
6.0639
21
-3.48709
0
LINE
8
BLACK
6
CONTINUOUS
10
5.6
20
-3.44
11
5.6
21
-3.55
0
LINE
8
BLACK
6
CONTINUOUS
10
5.525
20
-3.44
11
5.675
21
-3.44
0
LINE
8
BLACK
6
CONTINUOUS
10
5.65
20
-3.42
11
5.69
21
-3.42
0
LINE
8
BLACK
6
CONTINUOUS
10
5.58
20
-3.42
11
5.62
21
-3.42
0
LINE
8
BLACK
6
CONTINUOUS
10
5.51
20
-3.42
11
5.55
21
-3.42
0
LINE
8
BLACK
6
CONTINUOUS
10
5.5
20
-3.35
11
5.53
21
-3.35
0
LINE
8
BLACK
6
CONTINUOUS
10
5.7
20
-3.35
11
5.6
21
-3.35
0
LINE
8
BLACK
6
CONTINUOUS
10
5.6
20
-3.35
11
5.6
21
-3.42
0
LINE
8
BLACK
6
CONTINUOUS
10
5.67
20
-3.42
11
5.67
21
-3.32
0
LINE
8
BLACK
6
CONTINUOUS
10
5.67
20
-3.32
11
5.53
21
-3.32
0
LINE
8
BLACK
6
CONTINUOUS
10
5.53
20
-3.32
11
5.53
21
-3.42
0
LINE
8
BLACK
6
CONTINUOUS
10
5.61603
20
-3.36718
11
5.61624
21
-3.36736
0
LINE
8
BLACK
6
CONTINUOUS
10
5.61624
20
-3.36736
11
5.61652
21
-3.36742
0
LINE
8
BLACK
6
CONTINUOUS
10
5.61652
20
-3.36742
11
5.61701
21
-3.368
0
LINE
8
BLACK
6
CONTINUOUS
10
5.61701
20
-3.368
11
5.6176
21
-3.3685
0
LINE
8
BLACK
6
CONTINUOUS
10
5.6176
20
-3.3685
11
5.61765
21
-3.36878
0
LINE
8
BLACK
6
CONTINUOUS
10
5.61765
20
-3.36878
11
5.61783
21
-3.369
0
LINE
8
BLACK
6
CONTINUOUS
10
5.61783
20
-3.369
11
5.61782
21
-3.36978
0
LINE
8
BLACK
6
CONTINUOUS
10
5.61782
20
-3.36978
11
5.61795
21
-3.37052
0
LINE
8
BLACK
6
CONTINUOUS
10
5.61795
20
-3.37052
11
5.61781
21
-3.37076
0
LINE
8
BLACK
6
CONTINUOUS
10
5.61781
20
-3.37076
11
5.61781
21
-3.37105
0
LINE
8
BLACK
6
CONTINUOUS
10
5.61781
20
-3.37105
11
5.60281
21
-3.41106
0
LINE
8
BLACK
6
CONTINUOUS
10
5.60281
20
-3.41106
11
5.60233
21
-3.41185
0
LINE
8
BLACK
6
CONTINUOUS
10
5.60233
20
-3.41185
11
5.60232
21
-3.41191
0
LINE
8
BLACK
6
CONTINUOUS
10
5.60232
20
-3.41191
11
5.6023
21
-3.41191
0
LINE
8
BLACK
6
CONTINUOUS
10
5.6023
20
-3.41191
11
5.60228
21
-3.41195
0
LINE
8
BLACK
6
CONTINUOUS
10
5.60228
20
-3.41195
11
5.60137
21
-3.41246
0
LINE
8
BLACK
6
CONTINUOUS
10
5.60137
20
-3.41246
11
5.60055
21
-3.41295
0
LINE
8
BLACK
6
CONTINUOUS
10
5.60055
20
-3.41295
11
5.60052
21
-3.41294
0
LINE
8
BLACK
6
CONTINUOUS
10
5.60052
20
-3.41294
11
5.60049
21
-3.41296
0
LINE
8
BLACK
6
CONTINUOUS
10
5.60049
20
-3.41296
11
5.59953
21
-3.41278
0
LINE
8
BLACK
6
CONTINUOUS
10
5.59953
20
-3.41278
11
5.59852
21
-3.41261
0
LINE
8
BLACK
6
CONTINUOUS
10
5.59852
20
-3.41261
11
5.5985
21
-3.41259
0
LINE
8
BLACK
6
CONTINUOUS
10
5.5985
20
-3.41259
11
5.59848
21
-3.41258
0
LINE
8
BLACK
6
CONTINUOUS
10
5.59848
20
-3.41258
11
5.59787
21
-3.41185
0
LINE
8
BLACK
6
CONTINUOUS
10
5.59787
20
-3.41185
11
5.59719
21
-3.41106
0
LINE
8
BLACK
6
CONTINUOUS
10
5.59719
20
-3.41106
11
5.59717
21
-3.411
0
LINE
8
BLACK
6
CONTINUOUS
10
5.59717
20
-3.411
11
5.59717
21
-3.411
0
LINE
8
BLACK
6
CONTINUOUS
10
5.59717
20
-3.411
11
5.59717
21
-3.41099
0
LINE
8
BLACK
6
CONTINUOUS
10
5.59717
20
-3.41099
11
5.58219
21
-3.37106
0
LINE
8
BLACK
6
CONTINUOUS
10
5.58219
20
-3.37106
11
5.582
21
-3.37003
0
LINE
8
BLACK
6
CONTINUOUS
10
5.582
20
-3.37003
11
5.58209
21
-3.36976
0
LINE
8
BLACK
6
CONTINUOUS
10
5.58209
20
-3.36976
11
5.58205
21
-3.36948
0
LINE
8
BLACK
6
CONTINUOUS
10
5.58205
20
-3.36948
11
5.58243
21
-3.36881
0
LINE
8
BLACK
6
CONTINUOUS
10
5.58243
20
-3.36881
11
5.58269
21
-3.36809
0
LINE
8
BLACK
6
CONTINUOUS
10
5.58269
20
-3.36809
11
5.58293
21
-3.36795
0
LINE
8
BLACK
6
CONTINUOUS
10
5.58293
20
-3.36795
11
5.58307
21
-3.3677
0
LINE
8
BLACK
6
CONTINUOUS
10
5.58307
20
-3.3677
11
5.5838
21
-3.36744
0
LINE
8
BLACK
6
CONTINUOUS
10
5.5838
20
-3.36744
11
5.58445
21
-3.36705
0
LINE
8
BLACK
6
CONTINUOUS
10
5.58445
20
-3.36705
11
5.58473
21
-3.36709
0
LINE
8
BLACK
6
CONTINUOUS
10
5.58473
20
-3.36709
11
5.585
21
-3.367
0
LINE
8
BLACK
6
CONTINUOUS
10
5.585
20
-3.367
11
5.615
21
-3.367
0
LINE
8
BLACK
6
CONTINUOUS
10
5.615
20
-3.367
11
5.61603
21
-3.36718
0
LINE
8
BLACK
6
CONTINUOUS
10
5.58
20
-3.34
11
5.585
21
-3.335
0
LINE
8
BLACK
6
CONTINUOUS
10
5.585
20
-3.335
11
5.585
21
-3.305
0
LINE
8
BLACK
6
CONTINUOUS
10
5.585
20
-3.305
11
5.59
21
-3.3
0
LINE
8
BLACK
6
CONTINUOUS
10
5.585
20
-3.32
11
5.61
21
-3.335
0
LINE
8
BLACK
6
CONTINUOUS
10
5.61
20
-3.335
11
5.61
21
-3.305
0
LINE
8
BLACK
6
CONTINUOUS
10
5.61
20
-3.305
11
5.585
21
-3.32
0
CIRCLE
8
BLACK
10
5.6
20
-3.385
40
0.11
0
POLYLINE
8
BLACK
66
1
70
1
40
0.01
41
0.01
0
VERTEX
8
BLACK
10
5.665
 20
-3.35
42
1.0
0
VERTEX
8
BLACK
10
5.675
 20
-3.35
42
1.0
0
SEQEND
0
POLYLINE
8
BLACK
66
1
70
1
40
0.01
41
0.01
0
VERTEX
8
BLACK
10
5.525
 20
-3.35
42
1.0
0
VERTEX
8
BLACK
10
5.535
 20
-3.35
42
1.0
0
SEQEND
0
LINE
8
BLACK
6
CONTINUOUS
10
5.6
20
-3.55
11
5.6
21
-3.65
0
LINE
8
BLACK
6
CONTINUOUS
10
5.58988
20
-3.58571
11
5.58988
21
-3.61428
0
LINE
8
BLACK
6
CONTINUOUS
10
5.58988
20
-3.6
11
5.53988
21
-3.6
0
LINE
8
BLACK
6
CONTINUOUS
10
5.53988
20
-3.6
11
5.54702
21
-3.60476
0
LINE
8
BLACK
6
CONTINUOUS
10
5.54702
20
-3.60476
11
5.55178
21
-3.60952
0
LINE
8
BLACK
6
CONTINUOUS
10
5.55178
20
-3.60952
11
5.55417
21
-3.61428
0
LINE
8
BLACK
6
CONTINUOUS
10
5.7
20
-3.35
11
5.8
21
-3.35
0
LINE
8
BLACK
6
CONTINUOUS
10
5.73572
20
-3.29464
11
5.73809
21
-3.29226
0
LINE
8
BLACK
6
CONTINUOUS
10
5.73809
20
-3.29226
11
5.74286
21
-3.28988
0
LINE
8
BLACK
6
CONTINUOUS
10
5.74286
20
-3.28988
11
5.75476
21
-3.28988
0
LINE
8
BLACK
6
CONTINUOUS
10
5.75476
20
-3.28988
11
5.75952
21
-3.29226
0
LINE
8
BLACK
6
CONTINUOUS
10
5.75952
20
-3.29226
11
5.76191
21
-3.29464
0
LINE
8
BLACK
6
CONTINUOUS
10
5.76191
20
-3.29464
11
5.76429
21
-3.2994
0
LINE
8
BLACK
6
CONTINUOUS
10
5.76429
20
-3.2994
11
5.76429
21
-3.30417
0
LINE
8
BLACK
6
CONTINUOUS
10
5.76429
20
-3.30417
11
5.76191
21
-3.31131
0
LINE
8
BLACK
6
CONTINUOUS
10
5.76191
20
-3.31131
11
5.73333
21
-3.33988
0
LINE
8
BLACK
6
CONTINUOUS
10
5.73333
20
-3.33988
11
5.76429
21
-3.33988
0
LINE
8
BLACK
6
CONTINUOUS
10
5.5
20
-3.35
11
5.4
21
-3.35
0
LINE
8
BLACK
6
CONTINUOUS
10
5.43333
20
-3.28988
11
5.46429
21
-3.28988
0
LINE
8
BLACK
6
CONTINUOUS
10
5.46429
20
-3.28988
11
5.44762
21
-3.30893
0
LINE
8
BLACK
6
CONTINUOUS
10
5.44762
20
-3.30893
11
5.45476
21
-3.30893
0
LINE
8
BLACK
6
CONTINUOUS
10
5.45476
20
-3.30893
11
5.45952
21
-3.31131
0
LINE
8
BLACK
6
CONTINUOUS
10
5.45952
20
-3.31131
11
5.46191
21
-3.31369
0
LINE
8
BLACK
6
CONTINUOUS
10
5.46191
20
-3.31369
11
5.46429
21
-3.31845
0
LINE
8
BLACK
6
CONTINUOUS
10
5.46429
20
-3.31845
11
5.46429
21
-3.33035
0
LINE
8
BLACK
6
CONTINUOUS
10
5.46429
20
-3.33035
11
5.46191
21
-3.33512
0
LINE
8
BLACK
6
CONTINUOUS
10
5.46191
20
-3.33512
11
5.45952
21
-3.3375
0
LINE
8
BLACK
6
CONTINUOUS
10
5.45952
20
-3.3375
11
5.45476
21
-3.33988
0
LINE
8
BLACK
6
CONTINUOUS
10
5.45476
20
-3.33988
11
5.44048
21
-3.33988
0
LINE
8
BLACK
6
CONTINUOUS
10
5.44048
20
-3.33988
11
5.43572
21
-3.3375
0
LINE
8
BLACK
6
CONTINUOUS
10
5.43572
20
-3.3375
11
5.43333
21
-3.33512
0
LINE
8
BLACK
6
CONTINUOUS
10
5.59524
20
-3.12757
11
5.59047
21
-3.12519
0
LINE
8
BLACK
6
CONTINUOUS
10
5.59047
20
-3.12519
11
5.58571
21
-3.12043
0
LINE
8
BLACK
6
CONTINUOUS
10
5.58571
20
-3.12043
11
5.57857
21
-3.11328
0
LINE
8
BLACK
6
CONTINUOUS
10
5.57857
20
-3.11328
11
5.57381
21
-3.1109
0
LINE
8
BLACK
6
CONTINUOUS
10
5.57381
20
-3.1109
11
5.56905
21
-3.1109
0
LINE
8
BLACK
6
CONTINUOUS
10
5.57143
20
-3.1228
11
5.56667
21
-3.12043
0
LINE
8
BLACK
6
CONTINUOUS
10
5.56667
20
-3.12043
11
5.5619
21
-3.11566
0
LINE
8
BLACK
6
CONTINUOUS
10
5.5619
20
-3.11566
11
5.55952
21
-3.10614
0
LINE
8
BLACK
6
CONTINUOUS
10
5.55952
20
-3.10614
11
5.55952
21
-3.08947
0
LINE
8
BLACK
6
CONTINUOUS
10
5.55952
20
-3.08947
11
5.5619
21
-3.07995
0
LINE
8
BLACK
6
CONTINUOUS
10
5.5619
20
-3.07995
11
5.56667
21
-3.07519
0
LINE
8
BLACK
6
CONTINUOUS
10
5.56667
20
-3.07519
11
5.57143
21
-3.0728
0
LINE
8
BLACK
6
CONTINUOUS
10
5.57143
20
-3.0728
11
5.58095
21
-3.0728
0
LINE
8
BLACK
6
CONTINUOUS
10
5.58095
20
-3.0728
11
5.58571
21
-3.07519
0
LINE
8
BLACK
6
CONTINUOUS
10
5.58571
20
-3.07519
11
5.59047
21
-3.07995
0
LINE
8
BLACK
6
CONTINUOUS
10
5.59047
20
-3.07995
11
5.59285
21
-3.08947
0
LINE
8
BLACK
6
CONTINUOUS
10
5.59285
20
-3.08947
11
5.59285
21
-3.10614
0
LINE
8
BLACK
6
CONTINUOUS
10
5.59285
20
-3.10614
11
5.59047
21
-3.11566
0
LINE
8
BLACK
6
CONTINUOUS
10
5.59047
20
-3.11566
11
5.58571
21
-3.12043
0
LINE
8
BLACK
6
CONTINUOUS
10
5.58571
20
-3.12043
11
5.58095
21
-3.1228
0
LINE
8
BLACK
6
CONTINUOUS
10
5.58095
20
-3.1228
11
5.57143
21
-3.1228
0
LINE
8
BLACK
6
CONTINUOUS
10
5.60952
20
-3.0728
11
5.64285
21
-3.0728
0
LINE
8
BLACK
6
CONTINUOUS
10
5.64285
20
-3.0728
11
5.62143
21
-3.1228
0
LINE
8
BLACK
6
CONTINUOUS
10
5.42976
20
-3.19661
11
5.43691
21
-3.199
0
LINE
8
BLACK
6
CONTINUOUS
10
5.43691
20
-3.199
11
5.43929
21
-3.20137
0
LINE
8
BLACK
6
CONTINUOUS
10
5.43929
20
-3.20137
11
5.44167
21
-3.20614
0
LINE
8
BLACK
6
CONTINUOUS
10
5.44167
20
-3.20614
11
5.44167
21
-3.21328
0
LINE
8
BLACK
6
CONTINUOUS
10
5.44167
20
-3.21328
11
5.43929
21
-3.21804
0
LINE
8
BLACK
6
CONTINUOUS
10
5.43929
20
-3.21804
11
5.43691
21
-3.22043
0
LINE
8
BLACK
6
CONTINUOUS
10
5.43691
20
-3.22043
11
5.43214
21
-3.2228
0
LINE
8
BLACK
6
CONTINUOUS
10
5.43214
20
-3.2228
11
5.41309
21
-3.2228
0
LINE
8
BLACK
6
CONTINUOUS
10
5.41309
20
-3.2228
11
5.41309
21
-3.1728
0
LINE
8
BLACK
6
CONTINUOUS
10
5.41309
20
-3.1728
11
5.42976
21
-3.1728
0
LINE
8
BLACK
6
CONTINUOUS
10
5.42976
20
-3.1728
11
5.43452
21
-3.17519
0
LINE
8
BLACK
6
CONTINUOUS
10
5.43452
20
-3.17519
11
5.43691
21
-3.17757
0
LINE
8
BLACK
6
CONTINUOUS
10
5.43691
20
-3.17757
11
5.43929
21
-3.18233
0
LINE
8
BLACK
6
CONTINUOUS
10
5.43929
20
-3.18233
11
5.43929
21
-3.18709
0
LINE
8
BLACK
6
CONTINUOUS
10
5.43929
20
-3.18709
11
5.43691
21
-3.19185
0
LINE
8
BLACK
6
CONTINUOUS
10
5.43691
20
-3.19185
11
5.43452
21
-3.19423
0
LINE
8
BLACK
6
CONTINUOUS
10
5.43452
20
-3.19423
11
5.42976
21
-3.19661
0
LINE
8
BLACK
6
CONTINUOUS
10
5.42976
20
-3.19661
11
5.41309
21
-3.19661
0
LINE
8
BLACK
6
CONTINUOUS
10
5.46072
20
-3.22043
11
5.46786
21
-3.2228
0
LINE
8
BLACK
6
CONTINUOUS
10
5.46786
20
-3.2228
11
5.47976
21
-3.2228
0
LINE
8
BLACK
6
CONTINUOUS
10
5.47976
20
-3.2228
11
5.48452
21
-3.22043
0
LINE
8
BLACK
6
CONTINUOUS
10
5.48452
20
-3.22043
11
5.48691
21
-3.21804
0
LINE
8
BLACK
6
CONTINUOUS
10
5.48691
20
-3.21804
11
5.48929
21
-3.21328
0
LINE
8
BLACK
6
CONTINUOUS
10
5.48929
20
-3.21328
11
5.48929
21
-3.20852
0
LINE
8
BLACK
6
CONTINUOUS
10
5.48929
20
-3.20852
11
5.48691
21
-3.20376
0
LINE
8
BLACK
6
CONTINUOUS
10
5.48691
20
-3.20376
11
5.48452
21
-3.20137
0
LINE
8
BLACK
6
CONTINUOUS
10
5.48452
20
-3.20137
11
5.47976
21
-3.199
0
LINE
8
BLACK
6
CONTINUOUS
10
5.47976
20
-3.199
11
5.47024
21
-3.19661
0
LINE
8
BLACK
6
CONTINUOUS
10
5.47024
20
-3.19661
11
5.46548
21
-3.19423
0
LINE
8
BLACK
6
CONTINUOUS
10
5.46548
20
-3.19423
11
5.46309
21
-3.19185
0
LINE
8
BLACK
6
CONTINUOUS
10
5.46309
20
-3.19185
11
5.46072
21
-3.18709
0
LINE
8
BLACK
6
CONTINUOUS
10
5.46072
20
-3.18709
11
5.46072
21
-3.18233
0
LINE
8
BLACK
6
CONTINUOUS
10
5.46072
20
-3.18233
11
5.46309
21
-3.17757
0
LINE
8
BLACK
6
CONTINUOUS
10
5.46309
20
-3.17757
11
5.46548
21
-3.17519
0
LINE
8
BLACK
6
CONTINUOUS
10
5.46548
20
-3.17519
11
5.47024
21
-3.1728
0
LINE
8
BLACK
6
CONTINUOUS
10
5.47024
20
-3.1728
11
5.48214
21
-3.1728
0
LINE
8
BLACK
6
CONTINUOUS
10
5.48214
20
-3.1728
11
5.48929
21
-3.17519
0
LINE
8
BLACK
6
CONTINUOUS
10
5.50833
20
-3.22043
11
5.51548
21
-3.2228
0
LINE
8
BLACK
6
CONTINUOUS
10
5.51548
20
-3.2228
11
5.52738
21
-3.2228
0
LINE
8
BLACK
6
CONTINUOUS
10
5.52738
20
-3.2228
11
5.53214
21
-3.22043
0
LINE
8
BLACK
6
CONTINUOUS
10
5.53214
20
-3.22043
11
5.53452
21
-3.21804
0
LINE
8
BLACK
6
CONTINUOUS
10
5.53452
20
-3.21804
11
5.53691
21
-3.21328
0
LINE
8
BLACK
6
CONTINUOUS
10
5.53691
20
-3.21328
11
5.53691
21
-3.20852
0
LINE
8
BLACK
6
CONTINUOUS
10
5.53691
20
-3.20852
11
5.53452
21
-3.20376
0
LINE
8
BLACK
6
CONTINUOUS
10
5.53452
20
-3.20376
11
5.53214
21
-3.20137
0
LINE
8
BLACK
6
CONTINUOUS
10
5.53214
20
-3.20137
11
5.52738
21
-3.199
0
LINE
8
BLACK
6
CONTINUOUS
10
5.52738
20
-3.199
11
5.51786
21
-3.19661
0
LINE
8
BLACK
6
CONTINUOUS
10
5.51786
20
-3.19661
11
5.51309
21
-3.19423
0
LINE
8
BLACK
6
CONTINUOUS
10
5.51309
20
-3.19423
11
5.51071
21
-3.19185
0
LINE
8
BLACK
6
CONTINUOUS
10
5.51071
20
-3.19185
11
5.50833
21
-3.18709
0
LINE
8
BLACK
6
CONTINUOUS
10
5.50833
20
-3.18709
11
5.50833
21
-3.18233
0
LINE
8
BLACK
6
CONTINUOUS
10
5.50833
20
-3.18233
11
5.51071
21
-3.17757
0
LINE
8
BLACK
6
CONTINUOUS
10
5.51071
20
-3.17757
11
5.51309
21
-3.17519
0
LINE
8
BLACK
6
CONTINUOUS
10
5.51309
20
-3.17519
11
5.51786
21
-3.1728
0
LINE
8
BLACK
6
CONTINUOUS
10
5.51786
20
-3.1728
11
5.52976
21
-3.1728
0
LINE
8
BLACK
6
CONTINUOUS
10
5.52976
20
-3.1728
11
5.53691
21
-3.17519
0
LINE
8
BLACK
6
CONTINUOUS
10
5.55595
20
-3.17757
11
5.55833
21
-3.17519
0
LINE
8
BLACK
6
CONTINUOUS
10
5.55833
20
-3.17519
11
5.56309
21
-3.1728
0
LINE
8
BLACK
6
CONTINUOUS
10
5.56309
20
-3.1728
11
5.575
21
-3.1728
0
LINE
8
BLACK
6
CONTINUOUS
10
5.575
20
-3.1728
11
5.57976
21
-3.17519
0
LINE
8
BLACK
6
CONTINUOUS
10
5.57976
20
-3.17519
11
5.58214
21
-3.17757
0
LINE
8
BLACK
6
CONTINUOUS
10
5.58214
20
-3.17757
11
5.58452
21
-3.18233
0
LINE
8
BLACK
6
CONTINUOUS
10
5.58452
20
-3.18233
11
5.58452
21
-3.18709
0
LINE
8
BLACK
6
CONTINUOUS
10
5.58452
20
-3.18709
11
5.58214
21
-3.19423
0
LINE
8
BLACK
6
CONTINUOUS
10
5.58214
20
-3.19423
11
5.55357
21
-3.2228
0
LINE
8
BLACK
6
CONTINUOUS
10
5.55357
20
-3.2228
11
5.58452
21
-3.2228
0
LINE
8
BLACK
6
CONTINUOUS
10
5.63214
20
-3.2228
11
5.60357
21
-3.2228
0
LINE
8
BLACK
6
CONTINUOUS
10
5.61785
20
-3.2228
11
5.61785
21
-3.1728
0
LINE
8
BLACK
6
CONTINUOUS
10
5.61785
20
-3.1728
11
5.61309
21
-3.17995
0
LINE
8
BLACK
6
CONTINUOUS
10
5.61309
20
-3.17995
11
5.60833
21
-3.18471
0
LINE
8
BLACK
6
CONTINUOUS
10
5.60833
20
-3.18471
11
5.60357
21
-3.18709
0
LINE
8
BLACK
6
CONTINUOUS
10
5.675
20
-3.18947
11
5.675
21
-3.2228
0
LINE
8
BLACK
6
CONTINUOUS
10
5.66309
20
-3.17043
11
5.65119
21
-3.20614
0
LINE
8
BLACK
6
CONTINUOUS
10
5.65119
20
-3.20614
11
5.68214
21
-3.20614
0
LINE
8
BLACK
6
CONTINUOUS
10
5.70119
20
-3.2228
11
5.70119
21
-3.1728
0
LINE
8
BLACK
6
CONTINUOUS
10
5.70119
20
-3.1728
11
5.72976
21
-3.2228
0
LINE
8
BLACK
6
CONTINUOUS
10
5.72976
20
-3.2228
11
5.72976
21
-3.1728
0
LINE
8
BLACK
6
CONTINUOUS
10
5.74881
20
-3.1728
11
5.76071
21
-3.2228
0
LINE
8
BLACK
6
CONTINUOUS
10
5.76071
20
-3.2228
11
5.77024
21
-3.18709
0
LINE
8
BLACK
6
CONTINUOUS
10
5.77024
20
-3.18709
11
5.77976
21
-3.2228
0
LINE
8
BLACK
6
CONTINUOUS
10
5.77976
20
-3.2228
11
5.79167
21
-3.1728
0
CIRCLE
8
BLACK
10
5.25
20
-2.6
40
0.1
0
LINE
8
BLACK
6
CONTINUOUS
10
5.275
20
-2.575
11
5.225
21
-2.575
0
LINE
8
BLACK
6
CONTINUOUS
10
5.255
20
-2.55
11
5.245
21
-2.55
0
LINE
8
BLACK
6
CONTINUOUS
10
5.25
20
-2.6
11
5.25
21
-2.75
0
LINE
8
BLACK
6
CONTINUOUS
10
5.2
20
-2.6
11
5.3
21
-2.6
0
LINE
8
BLACK
6
CONTINUOUS
10
5.05
20
-3.355
11
5.05
21
-3.345
0
LINE
8
BLACK
6
CONTINUOUS
10
5.05
20
-3.345
11
5
21
-3.345
0
LINE
8
BLACK
6
CONTINUOUS
10
5
20
-3.345
11
5
21
-3.355
0
LINE
8
BLACK
6
CONTINUOUS
10
5
20
-3.355
11
5.05
21
-3.355
0
LINE
8
BLACK
6
CONTINUOUS
10
5.05
20
-3.4
11
5.05
21
-3.3
0
LINE
8
BLACK
6
CONTINUOUS
10
5.05
20
-3.3
11
4.95
21
-3.3
0
LINE
8
BLACK
6
CONTINUOUS
10
4.95
20
-3.3
11
4.95
21
-3.4
0
LINE
8
BLACK
6
CONTINUOUS
10
4.95
20
-3.4
11
5.05
21
-3.4
0
LINE
8
BLACK
6
CONTINUOUS
10
5.05
20
-3.35
11
5.2
21
-3.35
0
LINE
8
BLACK
6
CONTINUOUS
10
5.13929
20
-3.33988
11
5.11072
21
-3.33988
0
LINE
8
BLACK
6
CONTINUOUS
10
5.125
20
-3.33988
11
5.125
21
-3.28988
0
LINE
8
BLACK
6
CONTINUOUS
10
5.125
20
-3.28988
11
5.12024
21
-3.29702
0
LINE
8
BLACK
6
CONTINUOUS
10
5.12024
20
-3.29702
11
5.11548
21
-3.30178
0
LINE
8
BLACK
6
CONTINUOUS
10
5.11548
20
-3.30178
11
5.11072
21
-3.30417
0
LINE
8
BLACK
6
CONTINUOUS
10
4.98333
20
-3.0728
11
4.98333
21
-3.10852
0
LINE
8
BLACK
6
CONTINUOUS
10
4.98333
20
-3.10852
11
4.98095
21
-3.11566
0
LINE
8
BLACK
6
CONTINUOUS
10
4.98095
20
-3.11566
11
4.97619
21
-3.12043
0
LINE
8
BLACK
6
CONTINUOUS
10
4.97619
20
-3.12043
11
4.96904
21
-3.1228
0
LINE
8
BLACK
6
CONTINUOUS
10
4.96904
20
-3.1228
11
4.96428
21
-3.1228
0
LINE
8
BLACK
6
CONTINUOUS
10
5.03095
20
-3.0728
11
5.00714
21
-3.0728
0
LINE
8
BLACK
6
CONTINUOUS
10
5.00714
20
-3.0728
11
5.00476
21
-3.09661
0
LINE
8
BLACK
6
CONTINUOUS
10
5.00476
20
-3.09661
11
5.00714
21
-3.09423
0
LINE
8
BLACK
6
CONTINUOUS
10
5.00714
20
-3.09423
11
5.0119
21
-3.09185
0
LINE
8
BLACK
6
CONTINUOUS
10
5.0119
20
-3.09185
11
5.02381
21
-3.09185
0
LINE
8
BLACK
6
CONTINUOUS
10
5.02381
20
-3.09185
11
5.02857
21
-3.09423
0
LINE
8
BLACK
6
CONTINUOUS
10
5.02857
20
-3.09423
11
5.03095
21
-3.09661
0
LINE
8
BLACK
6
CONTINUOUS
10
5.03095
20
-3.09661
11
5.03333
21
-3.10137
0
LINE
8
BLACK
6
CONTINUOUS
10
5.03333
20
-3.10137
11
5.03333
21
-3.11328
0
LINE
8
BLACK
6
CONTINUOUS
10
5.03333
20
-3.11328
11
5.03095
21
-3.11804
0
LINE
8
BLACK
6
CONTINUOUS
10
5.03095
20
-3.11804
11
5.02857
21
-3.12043
0
LINE
8
BLACK
6
CONTINUOUS
10
5.02857
20
-3.12043
11
5.02381
21
-3.1228
0
LINE
8
BLACK
6
CONTINUOUS
10
5.02381
20
-3.1228
11
5.0119
21
-3.1228
0
LINE
8
BLACK
6
CONTINUOUS
10
5.0119
20
-3.1228
11
5.00714
21
-3.12043
0
LINE
8
BLACK
6
CONTINUOUS
10
5.00714
20
-3.12043
11
5.00476
21
-3.11804
0
LINE
8
BLACK
6
CONTINUOUS
10
4.94285
20
-3.2228
11
4.94285
21
-3.1728
0
LINE
8
BLACK
6
CONTINUOUS
10
4.96666
20
-3.2228
11
4.96666
21
-3.1728
0
LINE
8
BLACK
6
CONTINUOUS
10
4.96666
20
-3.1728
11
4.99523
21
-3.2228
0
LINE
8
BLACK
6
CONTINUOUS
10
4.99523
20
-3.2228
11
4.99523
21
-3.1728
0
LINE
8
BLACK
6
CONTINUOUS
10
5.01904
20
-3.20376
11
5.05714
21
-3.20376
0
LINE
8
BLACK
6
CONTINUOUS
10
5.17
20
-2.98
11
5.33
21
-2.98
0
LINE
8
BLACK
6
CONTINUOUS
10
5.17
20
-2.92
11
5.33
21
-2.92
0
LINE
8
BLACK
6
CONTINUOUS
10
5.25
20
-2.91
11
5.25
21
-2.8
0
LINE
8
BLACK
6
CONTINUOUS
10
5.25
20
-2.99
11
5.25
21
-3.1
0
LINE
8
BLACK
6
CONTINUOUS
10
5.44485
20
-2.91804
11
5.44247
21
-2.92043
0
LINE
8
BLACK
6
CONTINUOUS
10
5.44247
20
-2.92043
11
5.43533
21
-2.9228
0
LINE
8
BLACK
6
CONTINUOUS
10
5.43533
20
-2.9228
11
5.43057
21
-2.9228
0
LINE
8
BLACK
6
CONTINUOUS
10
5.43057
20
-2.9228
11
5.42343
21
-2.92043
0
LINE
8
BLACK
6
CONTINUOUS
10
5.42343
20
-2.92043
11
5.41866
21
-2.91566
0
LINE
8
BLACK
6
CONTINUOUS
10
5.41866
20
-2.91566
11
5.41628
21
-2.9109
0
LINE
8
BLACK
6
CONTINUOUS
10
5.41628
20
-2.9109
11
5.4139
21
-2.90137
0
LINE
8
BLACK
6
CONTINUOUS
10
5.4139
20
-2.90137
11
5.4139
21
-2.89423
0
LINE
8
BLACK
6
CONTINUOUS
10
5.4139
20
-2.89423
11
5.41628
21
-2.88471
0
LINE
8
BLACK
6
CONTINUOUS
10
5.41628
20
-2.88471
11
5.41866
21
-2.87995
0
LINE
8
BLACK
6
CONTINUOUS
10
5.41866
20
-2.87995
11
5.42343
21
-2.87519
0
LINE
8
BLACK
6
CONTINUOUS
10
5.42343
20
-2.87519
11
5.43057
21
-2.8728
0
LINE
8
BLACK
6
CONTINUOUS
10
5.43057
20
-2.8728
11
5.43533
21
-2.8728
0
LINE
8
BLACK
6
CONTINUOUS
10
5.43533
20
-2.8728
11
5.44247
21
-2.87519
0
LINE
8
BLACK
6
CONTINUOUS
10
5.44247
20
-2.87519
11
5.44485
21
-2.87757
0
LINE
8
BLACK
6
CONTINUOUS
10
5.48771
20
-2.88947
11
5.48771
21
-2.9228
0
LINE
8
BLACK
6
CONTINUOUS
10
5.4758
20
-2.87043
11
5.4639
21
-2.90614
0
LINE
8
BLACK
6
CONTINUOUS
10
5.4639
20
-2.90614
11
5.49485
21
-2.90614
0
LINE
8
BLACK
6
CONTINUOUS
10
5.53533
20
-2.88947
11
5.53533
21
-2.9228
0
LINE
8
BLACK
6
CONTINUOUS
10
5.52342
20
-2.87043
11
5.51152
21
-2.90614
0
LINE
8
BLACK
6
CONTINUOUS
10
5.51152
20
-2.90614
11
5.54247
21
-2.90614
0
LINE
8
BLACK
6
CONTINUOUS
10
5.44247
20
-3.0228
11
5.4139
21
-3.0228
0
LINE
8
BLACK
6
CONTINUOUS
10
5.42819
20
-3.0228
11
5.42819
21
-2.9728
0
LINE
8
BLACK
6
CONTINUOUS
10
5.42819
20
-2.9728
11
5.42343
21
-2.97995
0
LINE
8
BLACK
6
CONTINUOUS
10
5.42343
20
-2.97995
11
5.41866
21
-2.98471
0
LINE
8
BLACK
6
CONTINUOUS
10
5.41866
20
-2.98471
11
5.4139
21
-2.98709
0
LINE
8
BLACK
6
CONTINUOUS
10
5.48771
20
-2.9728
11
5.4639
21
-2.9728
0
LINE
8
BLACK
6
CONTINUOUS
10
5.4639
20
-2.9728
11
5.46152
21
-2.99661
0
LINE
8
BLACK
6
CONTINUOUS
10
5.46152
20
-2.99661
11
5.4639
21
-2.99423
0
LINE
8
BLACK
6
CONTINUOUS
10
5.4639
20
-2.99423
11
5.46866
21
-2.99185
0
LINE
8
BLACK
6
CONTINUOUS
10
5.46866
20
-2.99185
11
5.48057
21
-2.99185
0
LINE
8
BLACK
6
CONTINUOUS
10
5.48057
20
-2.99185
11
5.48533
21
-2.99423
0
LINE
8
BLACK
6
CONTINUOUS
10
5.48533
20
-2.99423
11
5.48771
21
-2.99661
0
LINE
8
BLACK
6
CONTINUOUS
10
5.48771
20
-2.99661
11
5.49009
21
-3.00137
0
LINE
8
BLACK
6
CONTINUOUS
10
5.49009
20
-3.00137
11
5.49009
21
-3.01328
0
LINE
8
BLACK
6
CONTINUOUS
10
5.49009
20
-3.01328
11
5.48771
21
-3.01804
0
LINE
8
BLACK
6
CONTINUOUS
10
5.48771
20
-3.01804
11
5.48533
21
-3.02043
0
LINE
8
BLACK
6
CONTINUOUS
10
5.48533
20
-3.02043
11
5.48057
21
-3.0228
0
LINE
8
BLACK
6
CONTINUOUS
10
5.48057
20
-3.0228
11
5.46866
21
-3.0228
0
LINE
8
BLACK
6
CONTINUOUS
10
5.46866
20
-3.0228
11
5.4639
21
-3.02043
0
LINE
8
BLACK
6
CONTINUOUS
10
5.4639
20
-3.02043
11
5.46152
21
-3.01804
0
LINE
8
BLACK
6
CONTINUOUS
10
5.52104
20
-2.9728
11
5.5258
21
-2.9728
0
LINE
8
BLACK
6
CONTINUOUS
10
5.5258
20
-2.9728
11
5.53056
21
-2.97519
0
LINE
8
BLACK
6
CONTINUOUS
10
5.53056
20
-2.97519
11
5.53294
21
-2.97757
0
LINE
8
BLACK
6
CONTINUOUS
10
5.53294
20
-2.97757
11
5.53533
21
-2.98233
0
LINE
8
BLACK
6
CONTINUOUS
10
5.53533
20
-2.98233
11
5.53771
21
-2.99185
0
LINE
8
BLACK
6
CONTINUOUS
10
5.53771
20
-2.99185
11
5.53771
21
-3.00376
0
LINE
8
BLACK
6
CONTINUOUS
10
5.53771
20
-3.00376
11
5.53533
21
-3.01328
0
LINE
8
BLACK
6
CONTINUOUS
10
5.53533
20
-3.01328
11
5.53294
21
-3.01804
0
LINE
8
BLACK
6
CONTINUOUS
10
5.53294
20
-3.01804
11
5.53056
21
-3.02043
0
LINE
8
BLACK
6
CONTINUOUS
10
5.53056
20
-3.02043
11
5.5258
21
-3.0228
0
LINE
8
BLACK
6
CONTINUOUS
10
5.5258
20
-3.0228
11
5.52104
21
-3.0228
0
LINE
8
BLACK
6
CONTINUOUS
10
5.52104
20
-3.0228
11
5.51628
21
-3.02043
0
LINE
8
BLACK
6
CONTINUOUS
10
5.51628
20
-3.02043
11
5.5139
21
-3.01804
0
LINE
8
BLACK
6
CONTINUOUS
10
5.5139
20
-3.01804
11
5.51152
21
-3.01328
0
LINE
8
BLACK
6
CONTINUOUS
10
5.51152
20
-3.01328
11
5.50914
21
-3.00376
0
LINE
8
BLACK
6
CONTINUOUS
10
5.50914
20
-3.00376
11
5.50914
21
-2.99185
0
LINE
8
BLACK
6
CONTINUOUS
10
5.50914
20
-2.99185
11
5.51152
21
-2.98233
0
LINE
8
BLACK
6
CONTINUOUS
10
5.51152
20
-2.98233
11
5.5139
21
-2.97757
0
LINE
8
BLACK
6
CONTINUOUS
10
5.5139
20
-2.97757
11
5.51628
21
-2.97519
0
LINE
8
BLACK
6
CONTINUOUS
10
5.51628
20
-2.97519
11
5.52104
21
-2.9728
0
LINE
8
BLACK
6
CONTINUOUS
10
5.56866
20
-2.9728
11
5.57342
21
-2.9728
0
LINE
8
BLACK
6
CONTINUOUS
10
5.57342
20
-2.9728
11
5.57818
21
-2.97519
0
LINE
8
BLACK
6
CONTINUOUS
10
5.57818
20
-2.97519
11
5.58056
21
-2.97757
0
LINE
8
BLACK
6
CONTINUOUS
10
5.58056
20
-2.97757
11
5.58294
21
-2.98233
0
LINE
8
BLACK
6
CONTINUOUS
10
5.58294
20
-2.98233
11
5.58533
21
-2.99185
0
LINE
8
BLACK
6
CONTINUOUS
10
5.58533
20
-2.99185
11
5.58533
21
-3.00376
0
LINE
8
BLACK
6
CONTINUOUS
10
5.58533
20
-3.00376
11
5.58294
21
-3.01328
0
LINE
8
BLACK
6
CONTINUOUS
10
5.58294
20
-3.01328
11
5.58056
21
-3.01804
0
LINE
8
BLACK
6
CONTINUOUS
10
5.58056
20
-3.01804
11
5.57818
21
-3.02043
0
LINE
8
BLACK
6
CONTINUOUS
10
5.57818
20
-3.02043
11
5.57342
21
-3.0228
0
LINE
8
BLACK
6
CONTINUOUS
10
5.57342
20
-3.0228
11
5.56866
21
-3.0228
0
LINE
8
BLACK
6
CONTINUOUS
10
5.56866
20
-3.0228
11
5.5639
21
-3.02043
0
LINE
8
BLACK
6
CONTINUOUS
10
5.5639
20
-3.02043
11
5.56152
21
-3.01804
0
LINE
8
BLACK
6
CONTINUOUS
10
5.56152
20
-3.01804
11
5.55913
21
-3.01328
0
LINE
8
BLACK
6
CONTINUOUS
10
5.55913
20
-3.01328
11
5.55676
21
-3.00376
0
LINE
8
BLACK
6
CONTINUOUS
10
5.55676
20
-3.00376
11
5.55676
21
-2.99185
0
LINE
8
BLACK
6
CONTINUOUS
10
5.55676
20
-2.99185
11
5.55913
21
-2.98233
0
LINE
8
BLACK
6
CONTINUOUS
10
5.55913
20
-2.98233
11
5.56152
21
-2.97757
0
LINE
8
BLACK
6
CONTINUOUS
10
5.56152
20
-2.97757
11
5.5639
21
-2.97519
0
LINE
8
BLACK
6
CONTINUOUS
10
5.5639
20
-2.97519
11
5.56866
21
-2.9728
0
LINE
8
BLACK
6
CONTINUOUS
10
5.60675
20
-2.98947
11
5.60675
21
-3.03947
0
LINE
8
BLACK
6
CONTINUOUS
10
5.60675
20
-2.99185
11
5.61152
21
-2.98947
0
LINE
8
BLACK
6
CONTINUOUS
10
5.61152
20
-2.98947
11
5.62104
21
-2.98947
0
LINE
8
BLACK
6
CONTINUOUS
10
5.62104
20
-2.98947
11
5.6258
21
-2.99185
0
LINE
8
BLACK
6
CONTINUOUS
10
5.6258
20
-2.99185
11
5.62818
21
-2.99423
0
LINE
8
BLACK
6
CONTINUOUS
10
5.62818
20
-2.99423
11
5.63056
21
-2.999
0
LINE
8
BLACK
6
CONTINUOUS
10
5.63056
20
-2.999
11
5.63056
21
-3.01328
0
LINE
8
BLACK
6
CONTINUOUS
10
5.63056
20
-3.01328
11
5.62818
21
-3.01804
0
LINE
8
BLACK
6
CONTINUOUS
10
5.62818
20
-3.01804
11
5.6258
21
-3.02043
0
LINE
8
BLACK
6
CONTINUOUS
10
5.6258
20
-3.02043
11
5.62104
21
-3.0228
0
LINE
8
BLACK
6
CONTINUOUS
10
5.62104
20
-3.0228
11
5.61152
21
-3.0228
0
LINE
8
BLACK
6
CONTINUOUS
10
5.61152
20
-3.0228
11
5.60675
21
-3.02043
0
LINE
8
BLACK
6
CONTINUOUS
10
5.57
20
-3.78
11
5.57
21
-3.92
0
LINE
8
BLACK
6
CONTINUOUS
10
5.57
20
-3.92
11
5.63
21
-3.92
0
LINE
8
BLACK
6
CONTINUOUS
10
5.63
20
-3.92
11
5.63
21
-3.78
0
LINE
8
BLACK
6
CONTINUOUS
10
5.63
20
-3.78
11
5.57
21
-3.78
0
LINE
8
BLACK
6
CONTINUOUS
10
5.6
20
-3.78
11
5.6
21
-3.75
0
LINE
8
BLACK
6
CONTINUOUS
10
5.6
20
-3.92
11
5.6
21
-3.95
0
LINE
8
BLACK
6
CONTINUOUS
10
5.74485
20
-3.8228
11
5.72819
21
-3.799
0
LINE
8
BLACK
6
CONTINUOUS
10
5.71628
20
-3.8228
11
5.71628
21
-3.7728
0
LINE
8
BLACK
6
CONTINUOUS
10
5.71628
20
-3.7728
11
5.73533
21
-3.7728
0
LINE
8
BLACK
6
CONTINUOUS
10
5.73533
20
-3.7728
11
5.74009
21
-3.77519
0
LINE
8
BLACK
6
CONTINUOUS
10
5.74009
20
-3.77519
11
5.74247
21
-3.77757
0
LINE
8
BLACK
6
CONTINUOUS
10
5.74247
20
-3.77757
11
5.74485
21
-3.78233
0
LINE
8
BLACK
6
CONTINUOUS
10
5.74485
20
-3.78233
11
5.74485
21
-3.78947
0
LINE
8
BLACK
6
CONTINUOUS
10
5.74485
20
-3.78947
11
5.74247
21
-3.79423
0
LINE
8
BLACK
6
CONTINUOUS
10
5.74247
20
-3.79423
11
5.74009
21
-3.79661
0
LINE
8
BLACK
6
CONTINUOUS
10
5.74009
20
-3.79661
11
5.73533
21
-3.799
0
LINE
8
BLACK
6
CONTINUOUS
10
5.73533
20
-3.799
11
5.71628
21
-3.799
0
LINE
8
BLACK
6
CONTINUOUS
10
5.7639
20
-3.77757
11
5.76628
21
-3.77519
0
LINE
8
BLACK
6
CONTINUOUS
10
5.76628
20
-3.77519
11
5.77104
21
-3.7728
0
LINE
8
BLACK
6
CONTINUOUS
10
5.77104
20
-3.7728
11
5.78295
21
-3.7728
0
LINE
8
BLACK
6
CONTINUOUS
10
5.78295
20
-3.7728
11
5.78771
21
-3.77519
0
LINE
8
BLACK
6
CONTINUOUS
10
5.78771
20
-3.77519
11
5.79009
21
-3.77757
0
LINE
8
BLACK
6
CONTINUOUS
10
5.79009
20
-3.77757
11
5.79247
21
-3.78233
0
LINE
8
BLACK
6
CONTINUOUS
10
5.79247
20
-3.78233
11
5.79247
21
-3.78709
0
LINE
8
BLACK
6
CONTINUOUS
10
5.79247
20
-3.78709
11
5.79009
21
-3.79423
0
LINE
8
BLACK
6
CONTINUOUS
10
5.79009
20
-3.79423
11
5.76152
21
-3.8228
0
LINE
8
BLACK
6
CONTINUOUS
10
5.76152
20
-3.8228
11
5.79247
21
-3.8228
0
LINE
8
BLACK
6
CONTINUOUS
10
5.74247
20
-3.9228
11
5.7139
21
-3.9228
0
LINE
8
BLACK
6
CONTINUOUS
10
5.72819
20
-3.9228
11
5.72819
21
-3.8728
0
LINE
8
BLACK
6
CONTINUOUS
10
5.72819
20
-3.8728
11
5.72343
21
-3.87995
0
LINE
8
BLACK
6
CONTINUOUS
10
5.72343
20
-3.87995
11
5.71866
21
-3.88471
0
LINE
8
BLACK
6
CONTINUOUS
10
5.71866
20
-3.88471
11
5.7139
21
-3.88709
0
LINE
8
BLACK
6
CONTINUOUS
10
5.77342
20
-3.8728
11
5.77819
21
-3.8728
0
LINE
8
BLACK
6
CONTINUOUS
10
5.77819
20
-3.8728
11
5.78294
21
-3.87519
0
LINE
8
BLACK
6
CONTINUOUS
10
5.78294
20
-3.87519
11
5.78533
21
-3.87757
0
LINE
8
BLACK
6
CONTINUOUS
10
5.78533
20
-3.87757
11
5.78771
21
-3.88233
0
LINE
8
BLACK
6
CONTINUOUS
10
5.78771
20
-3.88233
11
5.79009
21
-3.89185
0
LINE
8
BLACK
6
CONTINUOUS
10
5.79009
20
-3.89185
11
5.79009
21
-3.90376
0
LINE
8
BLACK
6
CONTINUOUS
10
5.79009
20
-3.90376
11
5.78771
21
-3.91328
0
LINE
8
BLACK
6
CONTINUOUS
10
5.78771
20
-3.91328
11
5.78533
21
-3.91804
0
LINE
8
BLACK
6
CONTINUOUS
10
5.78533
20
-3.91804
11
5.78294
21
-3.92043
0
LINE
8
BLACK
6
CONTINUOUS
10
5.78294
20
-3.92043
11
5.77819
21
-3.9228
0
LINE
8
BLACK
6
CONTINUOUS
10
5.77819
20
-3.9228
11
5.77342
21
-3.9228
0
LINE
8
BLACK
6
CONTINUOUS
10
5.77342
20
-3.9228
11
5.76866
21
-3.92043
0
LINE
8
BLACK
6
CONTINUOUS
10
5.76866
20
-3.92043
11
5.76628
21
-3.91804
0
LINE
8
BLACK
6
CONTINUOUS
10
5.76628
20
-3.91804
11
5.7639
21
-3.91328
0
LINE
8
BLACK
6
CONTINUOUS
10
5.7639
20
-3.91328
11
5.76152
21
-3.90376
0
LINE
8
BLACK
6
CONTINUOUS
10
5.76152
20
-3.90376
11
5.76152
21
-3.89185
0
LINE
8
BLACK
6
CONTINUOUS
10
5.76152
20
-3.89185
11
5.7639
21
-3.88233
0
LINE
8
BLACK
6
CONTINUOUS
10
5.7639
20
-3.88233
11
5.76628
21
-3.87757
0
LINE
8
BLACK
6
CONTINUOUS
10
5.76628
20
-3.87757
11
5.76866
21
-3.87519
0
LINE
8
BLACK
6
CONTINUOUS
10
5.76866
20
-3.87519
11
5.77342
21
-3.8728
0
LINE
8
BLACK
6
CONTINUOUS
10
5.82104
20
-3.8728
11
5.8258
21
-3.8728
0
LINE
8
BLACK
6
CONTINUOUS
10
5.8258
20
-3.8728
11
5.83056
21
-3.87519
0
LINE
8
BLACK
6
CONTINUOUS
10
5.83056
20
-3.87519
11
5.83294
21
-3.87757
0
LINE
8
BLACK
6
CONTINUOUS
10
5.83294
20
-3.87757
11
5.83533
21
-3.88233
0
LINE
8
BLACK
6
CONTINUOUS
10
5.83533
20
-3.88233
11
5.83771
21
-3.89185
0
LINE
8
BLACK
6
CONTINUOUS
10
5.83771
20
-3.89185
11
5.83771
21
-3.90376
0
LINE
8
BLACK
6
CONTINUOUS
10
5.83771
20
-3.90376
11
5.83533
21
-3.91328
0
LINE
8
BLACK
6
CONTINUOUS
10
5.83533
20
-3.91328
11
5.83294
21
-3.91804
0
LINE
8
BLACK
6
CONTINUOUS
10
5.83294
20
-3.91804
11
5.83056
21
-3.92043
0
LINE
8
BLACK
6
CONTINUOUS
10
5.83056
20
-3.92043
11
5.8258
21
-3.9228
0
LINE
8
BLACK
6
CONTINUOUS
10
5.8258
20
-3.9228
11
5.82104
21
-3.9228
0
LINE
8
BLACK
6
CONTINUOUS
10
5.82104
20
-3.9228
11
5.81628
21
-3.92043
0
LINE
8
BLACK
6
CONTINUOUS
10
5.81628
20
-3.92043
11
5.8139
21
-3.91804
0
LINE
8
BLACK
6
CONTINUOUS
10
5.8139
20
-3.91804
11
5.81152
21
-3.91328
0
LINE
8
BLACK
6
CONTINUOUS
10
5.81152
20
-3.91328
11
5.80914
21
-3.90376
0
LINE
8
BLACK
6
CONTINUOUS
10
5.80914
20
-3.90376
11
5.80914
21
-3.89185
0
LINE
8
BLACK
6
CONTINUOUS
10
5.80914
20
-3.89185
11
5.81152
21
-3.88233
0
LINE
8
BLACK
6
CONTINUOUS
10
5.81152
20
-3.88233
11
5.8139
21
-3.87757
0
LINE
8
BLACK
6
CONTINUOUS
10
5.8139
20
-3.87757
11
5.81628
21
-3.87519
0
LINE
8
BLACK
6
CONTINUOUS
10
5.81628
20
-3.87519
11
5.82104
21
-3.8728
0
LINE
8
BLACK
6
CONTINUOUS
10
5.85913
20
-3.9228
11
5.85913
21
-3.8728
0
LINE
8
BLACK
6
CONTINUOUS
10
5.8639
20
-3.90376
11
5.87818
21
-3.9228
0
LINE
8
BLACK
6
CONTINUOUS
10
5.87818
20
-3.88947
11
5.85913
21
-3.90852
0
LINE
8
BLACK
6
CONTINUOUS
10
6.13
20
-4.15
11
6.1
21
-4.2
0
LINE
8
BLACK
6
CONTINUOUS
10
6.1
20
-4.1
11
6.1
21
-4.2
0
LINE
8
BLACK
6
CONTINUOUS
10
6.1
20
-4.2
11
6.07
21
-4.15
0
LINE
8
BLACK
6
CONTINUOUS
10
6.0119
20
-4.30376
11
6.05
21
-4.30376
0
LINE
8
BLACK
6
CONTINUOUS
10
6.03095
20
-4.3228
11
6.03095
21
-4.28471
0
LINE
8
BLACK
6
CONTINUOUS
10
6.07143
20
-4.27757
11
6.07381
21
-4.27519
0
LINE
8
BLACK
6
CONTINUOUS
10
6.07381
20
-4.27519
11
6.07857
21
-4.2728
0
LINE
8
BLACK
6
CONTINUOUS
10
6.07857
20
-4.2728
11
6.09048
21
-4.2728
0
LINE
8
BLACK
6
CONTINUOUS
10
6.09048
20
-4.2728
11
6.09524
21
-4.27519
0
LINE
8
BLACK
6
CONTINUOUS
10
6.09524
20
-4.27519
11
6.09762
21
-4.27757
0
LINE
8
BLACK
6
CONTINUOUS
10
6.09762
20
-4.27757
11
6.1
21
-4.28233
0
LINE
8
BLACK
6
CONTINUOUS
10
6.1
20
-4.28233
11
6.1
21
-4.28709
0
LINE
8
BLACK
6
CONTINUOUS
10
6.1
20
-4.28709
11
6.09762
21
-4.29423
0
LINE
8
BLACK
6
CONTINUOUS
10
6.09762
20
-4.29423
11
6.06905
21
-4.3228
0
LINE
8
BLACK
6
CONTINUOUS
10
6.06905
20
-4.3228
11
6.1
21
-4.3228
0
LINE
8
BLACK
6
CONTINUOUS
10
6.14285
20
-4.28947
11
6.14285
21
-4.3228
0
LINE
8
BLACK
6
CONTINUOUS
10
6.13095
20
-4.27043
11
6.11905
21
-4.30614
0
LINE
8
BLACK
6
CONTINUOUS
10
6.11905
20
-4.30614
11
6.15
21
-4.30614
0
LINE
8
BLACK
6
CONTINUOUS
10
6.1619
20
-4.2728
11
6.17857
21
-4.3228
0
LINE
8
BLACK
6
CONTINUOUS
10
6.17857
20
-4.3228
11
6.19524
21
-4.2728
0
LINE
8
BLACK
6
CONTINUOUS
10
5.6
20
-4.1
11
5.6
21
-3.95
0
LINE
8
BLACK
6
CONTINUOUS
10
5.25
20
-4.1
11
5.6
21
-4.1
0
LINE
8
BLACK
6
CONTINUOUS
10
5.2
20
-4.1
11
5.25
21
-4.1
0
LINE
8
BLACK
6
CONTINUOUS
10
5.9
20
-3.35
11
5.9
21
-3.45
0
LINE
8
BLACK
6
CONTINUOUS
10
5.9
20
-3.35
11
6.1
21
-3.35
0
LINE
8
BLACK
6
CONTINUOUS
10
5.9
20
-3.65
11
5.9
21
-3.7
0
LINE
8
BLACK
6
CONTINUOUS
10
5.8
20
-3.35
11
5.9
21
-3.35
0
LINE
8
BLACK
6
CONTINUOUS
10
5.2
20
-3.35
11
5.25
21
-3.35
0
LINE
8
BLACK
6
CONTINUOUS
10
5.25
20
-3.35
11
5.4
21
-3.35
0
LINE
8
BLACK
6
CONTINUOUS
10
5.25
20
-3.1
11
5.25
21
-3.35
0
LINE
8
BLACK
6
CONTINUOUS
10
5.25
20
-2.75
11
5.25
21
-2.8
0
LINE
8
BLACK
6
CONTINUOUS
10
5.6
20
-4.1
11
6.1
21
-4.1
0
LINE
8
BLACK
6
CONTINUOUS
10
5.6
20
-3.7
11
5.6
21
-3.75
0
LINE
8
BLACK
6
CONTINUOUS
10
5.9
20
-3.7
11
5.6
21
-3.7
0
LINE
8
BLACK
6
CONTINUOUS
10
5.6
20
-3.65
11
5.6
21
-3.7
0
LINE
8
BLACK
6
CONTINUOUS
10
4.98333
20
-3.8228
11
4.98333
21
-3.85852
0
LINE
8
BLACK
6
CONTINUOUS
10
4.98333
20
-3.85852
11
4.98095
21
-3.86566
0
LINE
8
BLACK
6
CONTINUOUS
10
4.98095
20
-3.86566
11
4.97619
21
-3.87043
0
LINE
8
BLACK
6
CONTINUOUS
10
4.97619
20
-3.87043
11
4.96904
21
-3.8728
0
LINE
8
BLACK
6
CONTINUOUS
10
4.96904
20
-3.8728
11
4.96428
21
-3.8728
0
LINE
8
BLACK
6
CONTINUOUS
10
5.02857
20
-3.8228
11
5.01904
21
-3.8228
0
LINE
8
BLACK
6
CONTINUOUS
10
5.01904
20
-3.8228
11
5.01428
21
-3.82519
0
LINE
8
BLACK
6
CONTINUOUS
10
5.01428
20
-3.82519
11
5.0119
21
-3.82757
0
LINE
8
BLACK
6
CONTINUOUS
10
5.0119
20
-3.82757
11
5.00714
21
-3.83471
0
LINE
8
BLACK
6
CONTINUOUS
10
5.00714
20
-3.83471
11
5.00476
21
-3.84423
0
LINE
8
BLACK
6
CONTINUOUS
10
5.00476
20
-3.84423
11
5.00476
21
-3.86328
0
LINE
8
BLACK
6
CONTINUOUS
10
5.00476
20
-3.86328
11
5.00714
21
-3.86804
0
LINE
8
BLACK
6
CONTINUOUS
10
5.00714
20
-3.86804
11
5.00952
21
-3.87043
0
LINE
8
BLACK
6
CONTINUOUS
10
5.00952
20
-3.87043
11
5.01428
21
-3.8728
0
LINE
8
BLACK
6
CONTINUOUS
10
5.01428
20
-3.8728
11
5.02381
21
-3.8728
0
LINE
8
BLACK
6
CONTINUOUS
10
5.02381
20
-3.8728
11
5.02857
21
-3.87043
0
LINE
8
BLACK
6
CONTINUOUS
10
5.02857
20
-3.87043
11
5.03095
21
-3.86804
0
LINE
8
BLACK
6
CONTINUOUS
10
5.03095
20
-3.86804
11
5.03333
21
-3.86328
0
LINE
8
BLACK
6
CONTINUOUS
10
5.03333
20
-3.86328
11
5.03333
21
-3.85137
0
LINE
8
BLACK
6
CONTINUOUS
10
5.03333
20
-3.85137
11
5.03095
21
-3.84661
0
LINE
8
BLACK
6
CONTINUOUS
10
5.03095
20
-3.84661
11
5.02857
21
-3.84423
0
LINE
8
BLACK
6
CONTINUOUS
10
5.02857
20
-3.84423
11
5.02381
21
-3.84185
0
LINE
8
BLACK
6
CONTINUOUS
10
5.02381
20
-3.84185
11
5.01428
21
-3.84185
0
LINE
8
BLACK
6
CONTINUOUS
10
5.01428
20
-3.84185
11
5.00952
21
-3.84423
0
LINE
8
BLACK
6
CONTINUOUS
10
5.00952
20
-3.84423
11
5.00714
21
-3.84661
0
LINE
8
BLACK
6
CONTINUOUS
10
5.00714
20
-3.84661
11
5.00476
21
-3.85137
0
LINE
8
BLACK
6
CONTINUOUS
10
4.94285
20
-3.9728
11
4.94285
21
-3.9228
0
LINE
8
BLACK
6
CONTINUOUS
10
4.96666
20
-3.9728
11
4.96666
21
-3.9228
0
LINE
8
BLACK
6
CONTINUOUS
10
4.96666
20
-3.9228
11
4.99523
21
-3.9728
0
LINE
8
BLACK
6
CONTINUOUS
10
4.99523
20
-3.9728
11
4.99523
21
-3.9228
0
LINE
8
BLACK
6
CONTINUOUS
10
5.01904
20
-3.95376
11
5.05714
21
-3.95376
0
LINE
8
BLACK
6
CONTINUOUS
10
5.03809
20
-3.9728
11
5.03809
21
-3.93471
0
LINE
8
BLACK
6
CONTINUOUS
10
5.05
20
-4.1
11
5.2
21
-4.1
0
LINE
8
BLACK
6
CONTINUOUS
10
5.13929
20
-4.08988
11
5.11072
21
-4.08988
0
LINE
8
BLACK
6
CONTINUOUS
10
5.125
20
-4.08988
11
5.125
21
-4.03988
0
LINE
8
BLACK
6
CONTINUOUS
10
5.125
20
-4.03988
11
5.12024
21
-4.04702
0
LINE
8
BLACK
6
CONTINUOUS
10
5.12024
20
-4.04702
11
5.11548
21
-4.05178
0
LINE
8
BLACK
6
CONTINUOUS
10
5.11548
20
-4.05178
11
5.11072
21
-4.05417
0
LINE
8
BLACK
6
CONTINUOUS
10
5.44485
20
-4.21804
11
5.44247
21
-4.22043
0
LINE
8
BLACK
6
CONTINUOUS
10
5.44247
20
-4.22043
11
5.43533
21
-4.2228
0
LINE
8
BLACK
6
CONTINUOUS
10
5.43533
20
-4.2228
11
5.43057
21
-4.2228
0
LINE
8
BLACK
6
CONTINUOUS
10
5.43057
20
-4.2228
11
5.42343
21
-4.22043
0
LINE
8
BLACK
6
CONTINUOUS
10
5.42343
20
-4.22043
11
5.41866
21
-4.21566
0
LINE
8
BLACK
6
CONTINUOUS
10
5.41866
20
-4.21566
11
5.41628
21
-4.2109
0
LINE
8
BLACK
6
CONTINUOUS
10
5.41628
20
-4.2109
11
5.4139
21
-4.20137
0
LINE
8
BLACK
6
CONTINUOUS
10
5.4139
20
-4.20137
11
5.4139
21
-4.19423
0
LINE
8
BLACK
6
CONTINUOUS
10
5.4139
20
-4.19423
11
5.41628
21
-4.18471
0
LINE
8
BLACK
6
CONTINUOUS
10
5.41628
20
-4.18471
11
5.41866
21
-4.17995
0
LINE
8
BLACK
6
CONTINUOUS
10
5.41866
20
-4.17995
11
5.42343
21
-4.17519
0
LINE
8
BLACK
6
CONTINUOUS
10
5.42343
20
-4.17519
11
5.43057
21
-4.1728
0
LINE
8
BLACK
6
CONTINUOUS
10
5.43057
20
-4.1728
11
5.43533
21
-4.1728
0
LINE
8
BLACK
6
CONTINUOUS
10
5.43533
20
-4.1728
11
5.44247
21
-4.17519
0
LINE
8
BLACK
6
CONTINUOUS
10
5.44247
20
-4.17519
11
5.44485
21
-4.17757
0
LINE
8
BLACK
6
CONTINUOUS
10
5.48771
20
-4.18947
11
5.48771
21
-4.2228
0
LINE
8
BLACK
6
CONTINUOUS
10
5.4758
20
-4.17043
11
5.4639
21
-4.20614
0
LINE
8
BLACK
6
CONTINUOUS
10
5.4639
20
-4.20614
11
5.49485
21
-4.20614
0
LINE
8
BLACK
6
CONTINUOUS
10
5.53771
20
-4.1728
11
5.5139
21
-4.1728
0
LINE
8
BLACK
6
CONTINUOUS
10
5.5139
20
-4.1728
11
5.51152
21
-4.19661
0
LINE
8
BLACK
6
CONTINUOUS
10
5.51152
20
-4.19661
11
5.5139
21
-4.19423
0
LINE
8
BLACK
6
CONTINUOUS
10
5.5139
20
-4.19423
11
5.51866
21
-4.19185
0
LINE
8
BLACK
6
CONTINUOUS
10
5.51866
20
-4.19185
11
5.53057
21
-4.19185
0
LINE
8
BLACK
6
CONTINUOUS
10
5.53057
20
-4.19185
11
5.53533
21
-4.19423
0
LINE
8
BLACK
6
CONTINUOUS
10
5.53533
20
-4.19423
11
5.53771
21
-4.19661
0
LINE
8
BLACK
6
CONTINUOUS
10
5.53771
20
-4.19661
11
5.54009
21
-4.20137
0
LINE
8
BLACK
6
CONTINUOUS
10
5.54009
20
-4.20137
11
5.54009
21
-4.21328
0
LINE
8
BLACK
6
CONTINUOUS
10
5.54009
20
-4.21328
11
5.53771
21
-4.21804
0
LINE
8
BLACK
6
CONTINUOUS
10
5.53771
20
-4.21804
11
5.53533
21
-4.22043
0
LINE
8
BLACK
6
CONTINUOUS
10
5.53533
20
-4.22043
11
5.53057
21
-4.2228
0
LINE
8
BLACK
6
CONTINUOUS
10
5.53057
20
-4.2228
11
5.51866
21
-4.2228
0
LINE
8
BLACK
6
CONTINUOUS
10
5.51866
20
-4.2228
11
5.5139
21
-4.22043
0
LINE
8
BLACK
6
CONTINUOUS
10
5.5139
20
-4.22043
11
5.51152
21
-4.21804
0
LINE
8
BLACK
6
CONTINUOUS
10
5.44247
20
-4.3228
11
5.4139
21
-4.3228
0
LINE
8
BLACK
6
CONTINUOUS
10
5.42819
20
-4.3228
11
5.42819
21
-4.2728
0
LINE
8
BLACK
6
CONTINUOUS
10
5.42819
20
-4.2728
11
5.42343
21
-4.27995
0
LINE
8
BLACK
6
CONTINUOUS
10
5.42343
20
-4.27995
11
5.41866
21
-4.28471
0
LINE
8
BLACK
6
CONTINUOUS
10
5.41866
20
-4.28471
11
5.4139
21
-4.28709
0
LINE
8
BLACK
6
CONTINUOUS
10
5.48771
20
-4.2728
11
5.4639
21
-4.2728
0
LINE
8
BLACK
6
CONTINUOUS
10
5.4639
20
-4.2728
11
5.46152
21
-4.29661
0
LINE
8
BLACK
6
CONTINUOUS
10
5.46152
20
-4.29661
11
5.4639
21
-4.29423
0
LINE
8
BLACK
6
CONTINUOUS
10
5.4639
20
-4.29423
11
5.46866
21
-4.29185
0
LINE
8
BLACK
6
CONTINUOUS
10
5.46866
20
-4.29185
11
5.48057
21
-4.29185
0
LINE
8
BLACK
6
CONTINUOUS
10
5.48057
20
-4.29185
11
5.48533
21
-4.29423
0
LINE
8
BLACK
6
CONTINUOUS
10
5.48533
20
-4.29423
11
5.48771
21
-4.29661
0
LINE
8
BLACK
6
CONTINUOUS
10
5.48771
20
-4.29661
11
5.49009
21
-4.30137
0
LINE
8
BLACK
6
CONTINUOUS
10
5.49009
20
-4.30137
11
5.49009
21
-4.31328
0
LINE
8
BLACK
6
CONTINUOUS
10
5.49009
20
-4.31328
11
5.48771
21
-4.31804
0
LINE
8
BLACK
6
CONTINUOUS
10
5.48771
20
-4.31804
11
5.48533
21
-4.32043
0
LINE
8
BLACK
6
CONTINUOUS
10
5.48533
20
-4.32043
11
5.48057
21
-4.3228
0
LINE
8
BLACK
6
CONTINUOUS
10
5.48057
20
-4.3228
11
5.46866
21
-4.3228
0
LINE
8
BLACK
6
CONTINUOUS
10
5.46866
20
-4.3228
11
5.4639
21
-4.32043
0
LINE
8
BLACK
6
CONTINUOUS
10
5.4639
20
-4.32043
11
5.46152
21
-4.31804
0
LINE
8
BLACK
6
CONTINUOUS
10
5.52104
20
-4.2728
11
5.5258
21
-4.2728
0
LINE
8
BLACK
6
CONTINUOUS
10
5.5258
20
-4.2728
11
5.53056
21
-4.27519
0
LINE
8
BLACK
6
CONTINUOUS
10
5.53056
20
-4.27519
11
5.53294
21
-4.27757
0
LINE
8
BLACK
6
CONTINUOUS
10
5.53294
20
-4.27757
11
5.53533
21
-4.28233
0
LINE
8
BLACK
6
CONTINUOUS
10
5.53533
20
-4.28233
11
5.53771
21
-4.29185
0
LINE
8
BLACK
6
CONTINUOUS
10
5.53771
20
-4.29185
11
5.53771
21
-4.30376
0
LINE
8
BLACK
6
CONTINUOUS
10
5.53771
20
-4.30376
11
5.53533
21
-4.31328
0
LINE
8
BLACK
6
CONTINUOUS
10
5.53533
20
-4.31328
11
5.53294
21
-4.31804
0
LINE
8
BLACK
6
CONTINUOUS
10
5.53294
20
-4.31804
11
5.53056
21
-4.32043
0
LINE
8
BLACK
6
CONTINUOUS
10
5.53056
20
-4.32043
11
5.5258
21
-4.3228
0
LINE
8
BLACK
6
CONTINUOUS
10
5.5258
20
-4.3228
11
5.52104
21
-4.3228
0
LINE
8
BLACK
6
CONTINUOUS
10
5.52104
20
-4.3228
11
5.51628
21
-4.32043
0
LINE
8
BLACK
6
CONTINUOUS
10
5.51628
20
-4.32043
11
5.5139
21
-4.31804
0
LINE
8
BLACK
6
CONTINUOUS
10
5.5139
20
-4.31804
11
5.51152
21
-4.31328
0
LINE
8
BLACK
6
CONTINUOUS
10
5.51152
20
-4.31328
11
5.50914
21
-4.30376
0
LINE
8
BLACK
6
CONTINUOUS
10
5.50914
20
-4.30376
11
5.50914
21
-4.29185
0
LINE
8
BLACK
6
CONTINUOUS
10
5.50914
20
-4.29185
11
5.51152
21
-4.28233
0
LINE
8
BLACK
6
CONTINUOUS
10
5.51152
20
-4.28233
11
5.5139
21
-4.27757
0
LINE
8
BLACK
6
CONTINUOUS
10
5.5139
20
-4.27757
11
5.51628
21
-4.27519
0
LINE
8
BLACK
6
CONTINUOUS
10
5.51628
20
-4.27519
11
5.52104
21
-4.2728
0
LINE
8
BLACK
6
CONTINUOUS
10
5.56866
20
-4.2728
11
5.57342
21
-4.2728
0
LINE
8
BLACK
6
CONTINUOUS
10
5.57342
20
-4.2728
11
5.57818
21
-4.27519
0
LINE
8
BLACK
6
CONTINUOUS
10
5.57818
20
-4.27519
11
5.58056
21
-4.27757
0
LINE
8
BLACK
6
CONTINUOUS
10
5.58056
20
-4.27757
11
5.58294
21
-4.28233
0
LINE
8
BLACK
6
CONTINUOUS
10
5.58294
20
-4.28233
11
5.58533
21
-4.29185
0
LINE
8
BLACK
6
CONTINUOUS
10
5.58533
20
-4.29185
11
5.58533
21
-4.30376
0
LINE
8
BLACK
6
CONTINUOUS
10
5.58533
20
-4.30376
11
5.58294
21
-4.31328
0
LINE
8
BLACK
6
CONTINUOUS
10
5.58294
20
-4.31328
11
5.58056
21
-4.31804
0
LINE
8
BLACK
6
CONTINUOUS
10
5.58056
20
-4.31804
11
5.57818
21
-4.32043
0
LINE
8
BLACK
6
CONTINUOUS
10
5.57818
20
-4.32043
11
5.57342
21
-4.3228
0
LINE
8
BLACK
6
CONTINUOUS
10
5.57342
20
-4.3228
11
5.56866
21
-4.3228
0
LINE
8
BLACK
6
CONTINUOUS
10
5.56866
20
-4.3228
11
5.5639
21
-4.32043
0
LINE
8
BLACK
6
CONTINUOUS
10
5.5639
20
-4.32043
11
5.56152
21
-4.31804
0
LINE
8
BLACK
6
CONTINUOUS
10
5.56152
20
-4.31804
11
5.55913
21
-4.31328
0
LINE
8
BLACK
6
CONTINUOUS
10
5.55913
20
-4.31328
11
5.55676
21
-4.30376
0
LINE
8
BLACK
6
CONTINUOUS
10
5.55676
20
-4.30376
11
5.55676
21
-4.29185
0
LINE
8
BLACK
6
CONTINUOUS
10
5.55676
20
-4.29185
11
5.55913
21
-4.28233
0
LINE
8
BLACK
6
CONTINUOUS
10
5.55913
20
-4.28233
11
5.56152
21
-4.27757
0
LINE
8
BLACK
6
CONTINUOUS
10
5.56152
20
-4.27757
11
5.5639
21
-4.27519
0
LINE
8
BLACK
6
CONTINUOUS
10
5.5639
20
-4.27519
11
5.56866
21
-4.2728
0
LINE
8
BLACK
6
CONTINUOUS
10
5.60675
20
-4.28947
11
5.60675
21
-4.33947
0
LINE
8
BLACK
6
CONTINUOUS
10
5.60675
20
-4.29185
11
5.61152
21
-4.28947
0
LINE
8
BLACK
6
CONTINUOUS
10
5.61152
20
-4.28947
11
5.62104
21
-4.28947
0
LINE
8
BLACK
6
CONTINUOUS
10
5.62104
20
-4.28947
11
5.6258
21
-4.29185
0
LINE
8
BLACK
6
CONTINUOUS
10
5.6258
20
-4.29185
11
5.62818
21
-4.29423
0
LINE
8
BLACK
6
CONTINUOUS
10
5.62818
20
-4.29423
11
5.63056
21
-4.299
0
LINE
8
BLACK
6
CONTINUOUS
10
5.63056
20
-4.299
11
5.63056
21
-4.31328
0
LINE
8
BLACK
6
CONTINUOUS
10
5.63056
20
-4.31328
11
5.62818
21
-4.31804
0
LINE
8
BLACK
6
CONTINUOUS
10
5.62818
20
-4.31804
11
5.6258
21
-4.32043
0
LINE
8
BLACK
6
CONTINUOUS
10
5.6258
20
-4.32043
11
5.62104
21
-4.3228
0
LINE
8
BLACK
6
CONTINUOUS
10
5.62104
20
-4.3228
11
5.61152
21
-4.3228
0
LINE
8
BLACK
6
CONTINUOUS
10
5.61152
20
-4.3228
11
5.60675
21
-4.32043
0
LINE
8
BLACK
6
CONTINUOUS
10
5.25
20
-4.21
11
5.25
21
-4.1
0
LINE
8
BLACK
6
CONTINUOUS
10
5.25
20
-4.29
11
5.25
21
-4.4
0
LINE
8
BLACK
6
CONTINUOUS
10
5.59524
20
-3.12757
11
5.59047
21
-3.12519
0
LINE
8
BLACK
6
CONTINUOUS
10
5.59047
20
-3.12519
11
5.58571
21
-3.12043
0
LINE
8
BLACK
6
CONTINUOUS
10
5.58571
20
-3.12043
11
5.57857
21
-3.11328
0
LINE
8
BLACK
6
CONTINUOUS
10
5.57857
20
-3.11328
11
5.57381
21
-3.1109
0
LINE
8
BLACK
6
CONTINUOUS
10
5.57381
20
-3.1109
11
5.56905
21
-3.1109
0
LINE
8
BLACK
6
CONTINUOUS
10
5.57143
20
-3.1228
11
5.56667
21
-3.12043
0
LINE
8
BLACK
6
CONTINUOUS
10
5.56667
20
-3.12043
11
5.5619
21
-3.11566
0
LINE
8
BLACK
6
CONTINUOUS
10
5.5619
20
-3.11566
11
5.55952
21
-3.10614
0
LINE
8
BLACK
6
CONTINUOUS
10
5.55952
20
-3.10614
11
5.55952
21
-3.08947
0
LINE
8
BLACK
6
CONTINUOUS
10
5.55952
20
-3.08947
11
5.5619
21
-3.07995
0
LINE
8
BLACK
6
CONTINUOUS
10
5.5619
20
-3.07995
11
5.56667
21
-3.07519
0
LINE
8
BLACK
6
CONTINUOUS
10
5.56667
20
-3.07519
11
5.57143
21
-3.0728
0
LINE
8
BLACK
6
CONTINUOUS
10
5.57143
20
-3.0728
11
5.58095
21
-3.0728
0
LINE
8
BLACK
6
CONTINUOUS
10
5.58095
20
-3.0728
11
5.58571
21
-3.07519
0
LINE
8
BLACK
6
CONTINUOUS
10
5.58571
20
-3.07519
11
5.59047
21
-3.07995
0
LINE
8
BLACK
6
CONTINUOUS
10
5.59047
20
-3.07995
11
5.59285
21
-3.08947
0
LINE
8
BLACK
6
CONTINUOUS
10
5.59285
20
-3.08947
11
5.59285
21
-3.10614
0
LINE
8
BLACK
6
CONTINUOUS
10
5.59285
20
-3.10614
11
5.59047
21
-3.11566
0
LINE
8
BLACK
6
CONTINUOUS
10
5.59047
20
-3.11566
11
5.58571
21
-3.12043
0
LINE
8
BLACK
6
CONTINUOUS
10
5.58571
20
-3.12043
11
5.58095
21
-3.1228
0
LINE
8
BLACK
6
CONTINUOUS
10
5.58095
20
-3.1228
11
5.57143
21
-3.1228
0
LINE
8
BLACK
6
CONTINUOUS
10
5.60952
20
-3.0728
11
5.64285
21
-3.0728
0
LINE
8
BLACK
6
CONTINUOUS
10
5.64285
20
-3.0728
11
5.62143
21
-3.1228
0
LINE
8
BLACK
6
CONTINUOUS
10
5.42976
20
-3.19661
11
5.43691
21
-3.199
0
LINE
8
BLACK
6
CONTINUOUS
10
5.43691
20
-3.199
11
5.43929
21
-3.20137
0
LINE
8
BLACK
6
CONTINUOUS
10
5.43929
20
-3.20137
11
5.44167
21
-3.20614
0
LINE
8
BLACK
6
CONTINUOUS
10
5.44167
20
-3.20614
11
5.44167
21
-3.21328
0
LINE
8
BLACK
6
CONTINUOUS
10
5.44167
20
-3.21328
11
5.43929
21
-3.21804
0
LINE
8
BLACK
6
CONTINUOUS
10
5.43929
20
-3.21804
11
5.43691
21
-3.22043
0
LINE
8
BLACK
6
CONTINUOUS
10
5.43691
20
-3.22043
11
5.43214
21
-3.2228
0
LINE
8
BLACK
6
CONTINUOUS
10
5.43214
20
-3.2228
11
5.41309
21
-3.2228
0
LINE
8
BLACK
6
CONTINUOUS
10
5.41309
20
-3.2228
11
5.41309
21
-3.1728
0
LINE
8
BLACK
6
CONTINUOUS
10
5.41309
20
-3.1728
11
5.42976
21
-3.1728
0
LINE
8
BLACK
6
CONTINUOUS
10
5.42976
20
-3.1728
11
5.43452
21
-3.17519
0
LINE
8
BLACK
6
CONTINUOUS
10
5.43452
20
-3.17519
11
5.43691
21
-3.17757
0
LINE
8
BLACK
6
CONTINUOUS
10
5.43691
20
-3.17757
11
5.43929
21
-3.18233
0
LINE
8
BLACK
6
CONTINUOUS
10
5.43929
20
-3.18233
11
5.43929
21
-3.18709
0
LINE
8
BLACK
6
CONTINUOUS
10
5.43929
20
-3.18709
11
5.43691
21
-3.19185
0
LINE
8
BLACK
6
CONTINUOUS
10
5.43691
20
-3.19185
11
5.43452
21
-3.19423
0
LINE
8
BLACK
6
CONTINUOUS
10
5.43452
20
-3.19423
11
5.42976
21
-3.19661
0
LINE
8
BLACK
6
CONTINUOUS
10
5.42976
20
-3.19661
11
5.41309
21
-3.19661
0
LINE
8
BLACK
6
CONTINUOUS
10
5.46072
20
-3.22043
11
5.46786
21
-3.2228
0
LINE
8
BLACK
6
CONTINUOUS
10
5.46786
20
-3.2228
11
5.47976
21
-3.2228
0
LINE
8
BLACK
6
CONTINUOUS
10
5.47976
20
-3.2228
11
5.48452
21
-3.22043
0
LINE
8
BLACK
6
CONTINUOUS
10
5.48452
20
-3.22043
11
5.48691
21
-3.21804
0
LINE
8
BLACK
6
CONTINUOUS
10
5.48691
20
-3.21804
11
5.48929
21
-3.21328
0
LINE
8
BLACK
6
CONTINUOUS
10
5.48929
20
-3.21328
11
5.48929
21
-3.20852
0
LINE
8
BLACK
6
CONTINUOUS
10
5.48929
20
-3.20852
11
5.48691
21
-3.20376
0
LINE
8
BLACK
6
CONTINUOUS
10
5.48691
20
-3.20376
11
5.48452
21
-3.20137
0
LINE
8
BLACK
6
CONTINUOUS
10
5.48452
20
-3.20137
11
5.47976
21
-3.199
0
LINE
8
BLACK
6
CONTINUOUS
10
5.47976
20
-3.199
11
5.47024
21
-3.19661
0
LINE
8
BLACK
6
CONTINUOUS
10
5.47024
20
-3.19661
11
5.46548
21
-3.19423
0
LINE
8
BLACK
6
CONTINUOUS
10
5.46548
20
-3.19423
11
5.46309
21
-3.19185
0
LINE
8
BLACK
6
CONTINUOUS
10
5.46309
20
-3.19185
11
5.46072
21
-3.18709
0
LINE
8
BLACK
6
CONTINUOUS
10
5.46072
20
-3.18709
11
5.46072
21
-3.18233
0
LINE
8
BLACK
6
CONTINUOUS
10
5.46072
20
-3.18233
11
5.46309
21
-3.17757
0
LINE
8
BLACK
6
CONTINUOUS
10
5.46309
20
-3.17757
11
5.46548
21
-3.17519
0
LINE
8
BLACK
6
CONTINUOUS
10
5.46548
20
-3.17519
11
5.47024
21
-3.1728
0
LINE
8
BLACK
6
CONTINUOUS
10
5.47024
20
-3.1728
11
5.48214
21
-3.1728
0
LINE
8
BLACK
6
CONTINUOUS
10
5.48214
20
-3.1728
11
5.48929
21
-3.17519
0
LINE
8
BLACK
6
CONTINUOUS
10
5.50833
20
-3.22043
11
5.51548
21
-3.2228
0
LINE
8
BLACK
6
CONTINUOUS
10
5.51548
20
-3.2228
11
5.52738
21
-3.2228
0
LINE
8
BLACK
6
CONTINUOUS
10
5.52738
20
-3.2228
11
5.53214
21
-3.22043
0
LINE
8
BLACK
6
CONTINUOUS
10
5.53214
20
-3.22043
11
5.53452
21
-3.21804
0
LINE
8
BLACK
6
CONTINUOUS
10
5.53452
20
-3.21804
11
5.53691
21
-3.21328
0
LINE
8
BLACK
6
CONTINUOUS
10
5.53691
20
-3.21328
11
5.53691
21
-3.20852
0
LINE
8
BLACK
6
CONTINUOUS
10
5.53691
20
-3.20852
11
5.53452
21
-3.20376
0
LINE
8
BLACK
6
CONTINUOUS
10
5.53452
20
-3.20376
11
5.53214
21
-3.20137
0
LINE
8
BLACK
6
CONTINUOUS
10
5.53214
20
-3.20137
11
5.52738
21
-3.199
0
LINE
8
BLACK
6
CONTINUOUS
10
5.52738
20
-3.199
11
5.51786
21
-3.19661
0
LINE
8
BLACK
6
CONTINUOUS
10
5.51786
20
-3.19661
11
5.51309
21
-3.19423
0
LINE
8
BLACK
6
CONTINUOUS
10
5.51309
20
-3.19423
11
5.51071
21
-3.19185
0
LINE
8
BLACK
6
CONTINUOUS
10
5.51071
20
-3.19185
11
5.50833
21
-3.18709
0
LINE
8
BLACK
6
CONTINUOUS
10
5.50833
20
-3.18709
11
5.50833
21
-3.18233
0
LINE
8
BLACK
6
CONTINUOUS
10
5.50833
20
-3.18233
11
5.51071
21
-3.17757
0
LINE
8
BLACK
6
CONTINUOUS
10
5.51071
20
-3.17757
11
5.51309
21
-3.17519
0
LINE
8
BLACK
6
CONTINUOUS
10
5.51309
20
-3.17519
11
5.51786
21
-3.1728
0
LINE
8
BLACK
6
CONTINUOUS
10
5.51786
20
-3.1728
11
5.52976
21
-3.1728
0
LINE
8
BLACK
6
CONTINUOUS
10
5.52976
20
-3.1728
11
5.53691
21
-3.17519
0
LINE
8
BLACK
6
CONTINUOUS
10
5.55595
20
-3.17757
11
5.55833
21
-3.17519
0
LINE
8
BLACK
6
CONTINUOUS
10
5.55833
20
-3.17519
11
5.56309
21
-3.1728
0
LINE
8
BLACK
6
CONTINUOUS
10
5.56309
20
-3.1728
11
5.575
21
-3.1728
0
LINE
8
BLACK
6
CONTINUOUS
10
5.575
20
-3.1728
11
5.57976
21
-3.17519
0
LINE
8
BLACK
6
CONTINUOUS
10
5.57976
20
-3.17519
11
5.58214
21
-3.17757
0
LINE
8
BLACK
6
CONTINUOUS
10
5.58214
20
-3.17757
11
5.58452
21
-3.18233
0
LINE
8
BLACK
6
CONTINUOUS
10
5.58452
20
-3.18233
11
5.58452
21
-3.18709
0
LINE
8
BLACK
6
CONTINUOUS
10
5.58452
20
-3.18709
11
5.58214
21
-3.19423
0
LINE
8
BLACK
6
CONTINUOUS
10
5.58214
20
-3.19423
11
5.55357
21
-3.2228
0
LINE
8
BLACK
6
CONTINUOUS
10
5.55357
20
-3.2228
11
5.58452
21
-3.2228
0
LINE
8
BLACK
6
CONTINUOUS
10
5.63214
20
-3.2228
11
5.60357
21
-3.2228
0
LINE
8
BLACK
6
CONTINUOUS
10
5.61785
20
-3.2228
11
5.61785
21
-3.1728
0
LINE
8
BLACK
6
CONTINUOUS
10
5.61785
20
-3.1728
11
5.61309
21
-3.17995
0
LINE
8
BLACK
6
CONTINUOUS
10
5.61309
20
-3.17995
11
5.60833
21
-3.18471
0
LINE
8
BLACK
6
CONTINUOUS
10
5.60833
20
-3.18471
11
5.60357
21
-3.18709
0
LINE
8
BLACK
6
CONTINUOUS
10
5.675
20
-3.18947
11
5.675
21
-3.2228
0
LINE
8
BLACK
6
CONTINUOUS
10
5.66309
20
-3.17043
11
5.65119
21
-3.20614
0
LINE
8
BLACK
6
CONTINUOUS
10
5.65119
20
-3.20614
11
5.68214
21
-3.20614
0
LINE
8
BLACK
6
CONTINUOUS
10
5.70119
20
-3.2228
11
5.70119
21
-3.1728
0
LINE
8
BLACK
6
CONTINUOUS
10
5.70119
20
-3.1728
11
5.72976
21
-3.2228
0
LINE
8
BLACK
6
CONTINUOUS
10
5.72976
20
-3.2228
11
5.72976
21
-3.1728
0
LINE
8
BLACK
6
CONTINUOUS
10
5.74881
20
-3.1728
11
5.76071
21
-3.2228
0
LINE
8
BLACK
6
CONTINUOUS
10
5.76071
20
-3.2228
11
5.77024
21
-3.18709
0
LINE
8
BLACK
6
CONTINUOUS
10
5.77024
20
-3.18709
11
5.77976
21
-3.2228
0
LINE
8
BLACK
6
CONTINUOUS
10
5.77976
20
-3.2228
11
5.79167
21
-3.1728
0
LINE
8
BLACK
6
CONTINUOUS
10
5.6
20
-3.55
11
5.6
21
-3.65
0
LINE
8
BLACK
6
CONTINUOUS
10
5.58988
20
-3.58571
11
5.58988
21
-3.61428
0
LINE
8
BLACK
6
CONTINUOUS
10
5.58988
20
-3.6
11
5.53988
21
-3.6
0
LINE
8
BLACK
6
CONTINUOUS
10
5.53988
20
-3.6
11
5.54702
21
-3.60476
0
LINE
8
BLACK
6
CONTINUOUS
10
5.54702
20
-3.60476
11
5.55178
21
-3.60952
0
LINE
8
BLACK
6
CONTINUOUS
10
5.55178
20
-3.60952
11
5.55417
21
-3.61428
0
LINE
8
BLACK
6
CONTINUOUS
10
5.7
20
-3.35
11
5.8
21
-3.35
0
LINE
8
BLACK
6
CONTINUOUS
10
5.73572
20
-3.29464
11
5.73809
21
-3.29226
0
LINE
8
BLACK
6
CONTINUOUS
10
5.73809
20
-3.29226
11
5.74286
21
-3.28988
0
LINE
8
BLACK
6
CONTINUOUS
10
5.74286
20
-3.28988
11
5.75476
21
-3.28988
0
LINE
8
BLACK
6
CONTINUOUS
10
5.75476
20
-3.28988
11
5.75952
21
-3.29226
0
LINE
8
BLACK
6
CONTINUOUS
10
5.75952
20
-3.29226
11
5.76191
21
-3.29464
0
LINE
8
BLACK
6
CONTINUOUS
10
5.76191
20
-3.29464
11
5.76429
21
-3.2994
0
LINE
8
BLACK
6
CONTINUOUS
10
5.76429
20
-3.2994
11
5.76429
21
-3.30417
0
LINE
8
BLACK
6
CONTINUOUS
10
5.76429
20
-3.30417
11
5.76191
21
-3.31131
0
LINE
8
BLACK
6
CONTINUOUS
10
5.76191
20
-3.31131
11
5.73333
21
-3.33988
0
LINE
8
BLACK
6
CONTINUOUS
10
5.73333
20
-3.33988
11
5.76429
21
-3.33988
0
LINE
8
BLACK
6
CONTINUOUS
10
5.5
20
-3.35
11
5.4
21
-3.35
0
LINE
8
BLACK
6
CONTINUOUS
10
5.43333
20
-3.28988
11
5.46429
21
-3.28988
0
LINE
8
BLACK
6
CONTINUOUS
10
5.46429
20
-3.28988
11
5.44762
21
-3.30893
0
LINE
8
BLACK
6
CONTINUOUS
10
5.44762
20
-3.30893
11
5.45476
21
-3.30893
0
LINE
8
BLACK
6
CONTINUOUS
10
5.45476
20
-3.30893
11
5.45952
21
-3.31131
0
LINE
8
BLACK
6
CONTINUOUS
10
5.45952
20
-3.31131
11
5.46191
21
-3.31369
0
LINE
8
BLACK
6
CONTINUOUS
10
5.46191
20
-3.31369
11
5.46429
21
-3.31845
0
LINE
8
BLACK
6
CONTINUOUS
10
5.46429
20
-3.31845
11
5.46429
21
-3.33035
0
LINE
8
BLACK
6
CONTINUOUS
10
5.46429
20
-3.33035
11
5.46191
21
-3.33512
0
LINE
8
BLACK
6
CONTINUOUS
10
5.46191
20
-3.33512
11
5.45952
21
-3.3375
0
LINE
8
BLACK
6
CONTINUOUS
10
5.45952
20
-3.3375
11
5.45476
21
-3.33988
0
LINE
8
BLACK
6
CONTINUOUS
10
5.45476
20
-3.33988
11
5.44048
21
-3.33988
0
LINE
8
BLACK
6
CONTINUOUS
10
5.44048
20
-3.33988
11
5.43572
21
-3.3375
0
LINE
8
BLACK
6
CONTINUOUS
10
5.43572
20
-3.3375
11
5.43333
21
-3.33512
0
LINE
8
BLACK
6
CONTINUOUS
10
4.98333
20
-3.0728
11
4.98333
21
-3.10852
0
LINE
8
BLACK
6
CONTINUOUS
10
4.98333
20
-3.10852
11
4.98095
21
-3.11566
0
LINE
8
BLACK
6
CONTINUOUS
10
4.98095
20
-3.11566
11
4.97619
21
-3.12043
0
LINE
8
BLACK
6
CONTINUOUS
10
4.97619
20
-3.12043
11
4.96904
21
-3.1228
0
LINE
8
BLACK
6
CONTINUOUS
10
4.96904
20
-3.1228
11
4.96428
21
-3.1228
0
LINE
8
BLACK
6
CONTINUOUS
10
5.03095
20
-3.0728
11
5.00714
21
-3.0728
0
LINE
8
BLACK
6
CONTINUOUS
10
5.00714
20
-3.0728
11
5.00476
21
-3.09661
0
LINE
8
BLACK
6
CONTINUOUS
10
5.00476
20
-3.09661
11
5.00714
21
-3.09423
0
LINE
8
BLACK
6
CONTINUOUS
10
5.00714
20
-3.09423
11
5.0119
21
-3.09185
0
LINE
8
BLACK
6
CONTINUOUS
10
5.0119
20
-3.09185
11
5.02381
21
-3.09185
0
LINE
8
BLACK
6
CONTINUOUS
10
5.02381
20
-3.09185
11
5.02857
21
-3.09423
0
LINE
8
BLACK
6
CONTINUOUS
10
5.02857
20
-3.09423
11
5.03095
21
-3.09661
0
LINE
8
BLACK
6
CONTINUOUS
10
5.03095
20
-3.09661
11
5.03333
21
-3.10137
0
LINE
8
BLACK
6
CONTINUOUS
10
5.03333
20
-3.10137
11
5.03333
21
-3.11328
0
LINE
8
BLACK
6
CONTINUOUS
10
5.03333
20
-3.11328
11
5.03095
21
-3.11804
0
LINE
8
BLACK
6
CONTINUOUS
10
5.03095
20
-3.11804
11
5.02857
21
-3.12043
0
LINE
8
BLACK
6
CONTINUOUS
10
5.02857
20
-3.12043
11
5.02381
21
-3.1228
0
LINE
8
BLACK
6
CONTINUOUS
10
5.02381
20
-3.1228
11
5.0119
21
-3.1228
0
LINE
8
BLACK
6
CONTINUOUS
10
5.0119
20
-3.1228
11
5.00714
21
-3.12043
0
LINE
8
BLACK
6
CONTINUOUS
10
5.00714
20
-3.12043
11
5.00476
21
-3.11804
0
LINE
8
BLACK
6
CONTINUOUS
10
4.94285
20
-3.2228
11
4.94285
21
-3.1728
0
LINE
8
BLACK
6
CONTINUOUS
10
4.96666
20
-3.2228
11
4.96666
21
-3.1728
0
LINE
8
BLACK
6
CONTINUOUS
10
4.96666
20
-3.1728
11
4.99523
21
-3.2228
0
LINE
8
BLACK
6
CONTINUOUS
10
4.99523
20
-3.2228
11
4.99523
21
-3.1728
0
LINE
8
BLACK
6
CONTINUOUS
10
5.01904
20
-3.20376
11
5.05714
21
-3.20376
0
LINE
8
BLACK
6
CONTINUOUS
10
5.05
20
-3.35
11
5.2
21
-3.35
0
LINE
8
BLACK
6
CONTINUOUS
10
5.13929
20
-3.33988
11
5.11072
21
-3.33988
0
LINE
8
BLACK
6
CONTINUOUS
10
5.125
20
-3.33988
11
5.125
21
-3.28988
0
LINE
8
BLACK
6
CONTINUOUS
10
5.125
20
-3.28988
11
5.12024
21
-3.29702
0
LINE
8
BLACK
6
CONTINUOUS
10
5.12024
20
-3.29702
11
5.11548
21
-3.30178
0
LINE
8
BLACK
6
CONTINUOUS
10
5.11548
20
-3.30178
11
5.11072
21
-3.30417
0
LINE
8
BLACK
6
CONTINUOUS
10
5.44485
20
-2.91804
11
5.44247
21
-2.92043
0
LINE
8
BLACK
6
CONTINUOUS
10
5.44247
20
-2.92043
11
5.43533
21
-2.9228
0
LINE
8
BLACK
6
CONTINUOUS
10
5.43533
20
-2.9228
11
5.43057
21
-2.9228
0
LINE
8
BLACK
6
CONTINUOUS
10
5.43057
20
-2.9228
11
5.42343
21
-2.92043
0
LINE
8
BLACK
6
CONTINUOUS
10
5.42343
20
-2.92043
11
5.41866
21
-2.91566
0
LINE
8
BLACK
6
CONTINUOUS
10
5.41866
20
-2.91566
11
5.41628
21
-2.9109
0
LINE
8
BLACK
6
CONTINUOUS
10
5.41628
20
-2.9109
11
5.4139
21
-2.90137
0
LINE
8
BLACK
6
CONTINUOUS
10
5.4139
20
-2.90137
11
5.4139
21
-2.89423
0
LINE
8
BLACK
6
CONTINUOUS
10
5.4139
20
-2.89423
11
5.41628
21
-2.88471
0
LINE
8
BLACK
6
CONTINUOUS
10
5.41628
20
-2.88471
11
5.41866
21
-2.87995
0
LINE
8
BLACK
6
CONTINUOUS
10
5.41866
20
-2.87995
11
5.42343
21
-2.87519
0
LINE
8
BLACK
6
CONTINUOUS
10
5.42343
20
-2.87519
11
5.43057
21
-2.8728
0
LINE
8
BLACK
6
CONTINUOUS
10
5.43057
20
-2.8728
11
5.43533
21
-2.8728
0
LINE
8
BLACK
6
CONTINUOUS
10
5.43533
20
-2.8728
11
5.44247
21
-2.87519
0
LINE
8
BLACK
6
CONTINUOUS
10
5.44247
20
-2.87519
11
5.44485
21
-2.87757
0
LINE
8
BLACK
6
CONTINUOUS
10
5.48771
20
-2.88947
11
5.48771
21
-2.9228
0
LINE
8
BLACK
6
CONTINUOUS
10
5.4758
20
-2.87043
11
5.4639
21
-2.90614
0
LINE
8
BLACK
6
CONTINUOUS
10
5.4639
20
-2.90614
11
5.49485
21
-2.90614
0
LINE
8
BLACK
6
CONTINUOUS
10
5.53533
20
-2.88947
11
5.53533
21
-2.9228
0
LINE
8
BLACK
6
CONTINUOUS
10
5.52342
20
-2.87043
11
5.51152
21
-2.90614
0
LINE
8
BLACK
6
CONTINUOUS
10
5.51152
20
-2.90614
11
5.54247
21
-2.90614
0
LINE
8
BLACK
6
CONTINUOUS
10
5.44247
20
-3.0228
11
5.4139
21
-3.0228
0
LINE
8
BLACK
6
CONTINUOUS
10
5.42819
20
-3.0228
11
5.42819
21
-2.9728
0
LINE
8
BLACK
6
CONTINUOUS
10
5.42819
20
-2.9728
11
5.42343
21
-2.97995
0
LINE
8
BLACK
6
CONTINUOUS
10
5.42343
20
-2.97995
11
5.41866
21
-2.98471
0
LINE
8
BLACK
6
CONTINUOUS
10
5.41866
20
-2.98471
11
5.4139
21
-2.98709
0
LINE
8
BLACK
6
CONTINUOUS
10
5.48771
20
-2.9728
11
5.4639
21
-2.9728
0
LINE
8
BLACK
6
CONTINUOUS
10
5.4639
20
-2.9728
11
5.46152
21
-2.99661
0
LINE
8
BLACK
6
CONTINUOUS
10
5.46152
20
-2.99661
11
5.4639
21
-2.99423
0
LINE
8
BLACK
6
CONTINUOUS
10
5.4639
20
-2.99423
11
5.46866
21
-2.99185
0
LINE
8
BLACK
6
CONTINUOUS
10
5.46866
20
-2.99185
11
5.48057
21
-2.99185
0
LINE
8
BLACK
6
CONTINUOUS
10
5.48057
20
-2.99185
11
5.48533
21
-2.99423
0
LINE
8
BLACK
6
CONTINUOUS
10
5.48533
20
-2.99423
11
5.48771
21
-2.99661
0
LINE
8
BLACK
6
CONTINUOUS
10
5.48771
20
-2.99661
11
5.49009
21
-3.00137
0
LINE
8
BLACK
6
CONTINUOUS
10
5.49009
20
-3.00137
11
5.49009
21
-3.01328
0
LINE
8
BLACK
6
CONTINUOUS
10
5.49009
20
-3.01328
11
5.48771
21
-3.01804
0
LINE
8
BLACK
6
CONTINUOUS
10
5.48771
20
-3.01804
11
5.48533
21
-3.02043
0
LINE
8
BLACK
6
CONTINUOUS
10
5.48533
20
-3.02043
11
5.48057
21
-3.0228
0
LINE
8
BLACK
6
CONTINUOUS
10
5.48057
20
-3.0228
11
5.46866
21
-3.0228
0
LINE
8
BLACK
6
CONTINUOUS
10
5.46866
20
-3.0228
11
5.4639
21
-3.02043
0
LINE
8
BLACK
6
CONTINUOUS
10
5.4639
20
-3.02043
11
5.46152
21
-3.01804
0
LINE
8
BLACK
6
CONTINUOUS
10
5.52104
20
-2.9728
11
5.5258
21
-2.9728
0
LINE
8
BLACK
6
CONTINUOUS
10
5.5258
20
-2.9728
11
5.53056
21
-2.97519
0
LINE
8
BLACK
6
CONTINUOUS
10
5.53056
20
-2.97519
11
5.53294
21
-2.97757
0
LINE
8
BLACK
6
CONTINUOUS
10
5.53294
20
-2.97757
11
5.53533
21
-2.98233
0
LINE
8
BLACK
6
CONTINUOUS
10
5.53533
20
-2.98233
11
5.53771
21
-2.99185
0
LINE
8
BLACK
6
CONTINUOUS
10
5.53771
20
-2.99185
11
5.53771
21
-3.00376
0
LINE
8
BLACK
6
CONTINUOUS
10
5.53771
20
-3.00376
11
5.53533
21
-3.01328
0
LINE
8
BLACK
6
CONTINUOUS
10
5.53533
20
-3.01328
11
5.53294
21
-3.01804
0
LINE
8
BLACK
6
CONTINUOUS
10
5.53294
20
-3.01804
11
5.53056
21
-3.02043
0
LINE
8
BLACK
6
CONTINUOUS
10
5.53056
20
-3.02043
11
5.5258
21
-3.0228
0
LINE
8
BLACK
6
CONTINUOUS
10
5.5258
20
-3.0228
11
5.52104
21
-3.0228
0
LINE
8
BLACK
6
CONTINUOUS
10
5.52104
20
-3.0228
11
5.51628
21
-3.02043
0
LINE
8
BLACK
6
CONTINUOUS
10
5.51628
20
-3.02043
11
5.5139
21
-3.01804
0
LINE
8
BLACK
6
CONTINUOUS
10
5.5139
20
-3.01804
11
5.51152
21
-3.01328
0
LINE
8
BLACK
6
CONTINUOUS
10
5.51152
20
-3.01328
11
5.50914
21
-3.00376
0
LINE
8
BLACK
6
CONTINUOUS
10
5.50914
20
-3.00376
11
5.50914
21
-2.99185
0
LINE
8
BLACK
6
CONTINUOUS
10
5.50914
20
-2.99185
11
5.51152
21
-2.98233
0
LINE
8
BLACK
6
CONTINUOUS
10
5.51152
20
-2.98233
11
5.5139
21
-2.97757
0
LINE
8
BLACK
6
CONTINUOUS
10
5.5139
20
-2.97757
11
5.51628
21
-2.97519
0
LINE
8
BLACK
6
CONTINUOUS
10
5.51628
20
-2.97519
11
5.52104
21
-2.9728
0
LINE
8
BLACK
6
CONTINUOUS
10
5.56866
20
-2.9728
11
5.57342
21
-2.9728
0
LINE
8
BLACK
6
CONTINUOUS
10
5.57342
20
-2.9728
11
5.57818
21
-2.97519
0
LINE
8
BLACK
6
CONTINUOUS
10
5.57818
20
-2.97519
11
5.58056
21
-2.97757
0
LINE
8
BLACK
6
CONTINUOUS
10
5.58056
20
-2.97757
11
5.58294
21
-2.98233
0
LINE
8
BLACK
6
CONTINUOUS
10
5.58294
20
-2.98233
11
5.58533
21
-2.99185
0
LINE
8
BLACK
6
CONTINUOUS
10
5.58533
20
-2.99185
11
5.58533
21
-3.00376
0
LINE
8
BLACK
6
CONTINUOUS
10
5.58533
20
-3.00376
11
5.58294
21
-3.01328
0
LINE
8
BLACK
6
CONTINUOUS
10
5.58294
20
-3.01328
11
5.58056
21
-3.01804
0
LINE
8
BLACK
6
CONTINUOUS
10
5.58056
20
-3.01804
11
5.57818
21
-3.02043
0
LINE
8
BLACK
6
CONTINUOUS
10
5.57818
20
-3.02043
11
5.57342
21
-3.0228
0
LINE
8
BLACK
6
CONTINUOUS
10
5.57342
20
-3.0228
11
5.56866
21
-3.0228
0
LINE
8
BLACK
6
CONTINUOUS
10
5.56866
20
-3.0228
11
5.5639
21
-3.02043
0
LINE
8
BLACK
6
CONTINUOUS
10
5.5639
20
-3.02043
11
5.56152
21
-3.01804
0
LINE
8
BLACK
6
CONTINUOUS
10
5.56152
20
-3.01804
11
5.55913
21
-3.01328
0
LINE
8
BLACK
6
CONTINUOUS
10
5.55913
20
-3.01328
11
5.55676
21
-3.00376
0
LINE
8
BLACK
6
CONTINUOUS
10
5.55676
20
-3.00376
11
5.55676
21
-2.99185
0
LINE
8
BLACK
6
CONTINUOUS
10
5.55676
20
-2.99185
11
5.55913
21
-2.98233
0
LINE
8
BLACK
6
CONTINUOUS
10
5.55913
20
-2.98233
11
5.56152
21
-2.97757
0
LINE
8
BLACK
6
CONTINUOUS
10
5.56152
20
-2.97757
11
5.5639
21
-2.97519
0
LINE
8
BLACK
6
CONTINUOUS
10
5.5639
20
-2.97519
11
5.56866
21
-2.9728
0
LINE
8
BLACK
6
CONTINUOUS
10
5.60675
20
-2.98947
11
5.60675
21
-3.03947
0
LINE
8
BLACK
6
CONTINUOUS
10
5.60675
20
-2.99185
11
5.61152
21
-2.98947
0
LINE
8
BLACK
6
CONTINUOUS
10
5.61152
20
-2.98947
11
5.62104
21
-2.98947
0
LINE
8
BLACK
6
CONTINUOUS
10
5.62104
20
-2.98947
11
5.6258
21
-2.99185
0
LINE
8
BLACK
6
CONTINUOUS
10
5.6258
20
-2.99185
11
5.62818
21
-2.99423
0
LINE
8
BLACK
6
CONTINUOUS
10
5.62818
20
-2.99423
11
5.63056
21
-2.999
0
LINE
8
BLACK
6
CONTINUOUS
10
5.63056
20
-2.999
11
5.63056
21
-3.01328
0
LINE
8
BLACK
6
CONTINUOUS
10
5.63056
20
-3.01328
11
5.62818
21
-3.01804
0
LINE
8
BLACK
6
CONTINUOUS
10
5.62818
20
-3.01804
11
5.6258
21
-3.02043
0
LINE
8
BLACK
6
CONTINUOUS
10
5.6258
20
-3.02043
11
5.62104
21
-3.0228
0
LINE
8
BLACK
6
CONTINUOUS
10
5.62104
20
-3.0228
11
5.61152
21
-3.0228
0
LINE
8
BLACK
6
CONTINUOUS
10
5.61152
20
-3.0228
11
5.60675
21
-3.02043
0
LINE
8
BLACK
6
CONTINUOUS
10
5.25
20
-2.91
11
5.25
21
-2.8
0
LINE
8
BLACK
6
CONTINUOUS
10
5.25
20
-2.99
11
5.25
21
-3.1
0
POLYLINE
8
BLACK
66
1
70
1
40
0.018
41
0.018
0
VERTEX
8
BLACK
10
5.591
 20
-4.1
42
1.0
0
VERTEX
8
BLACK
10
5.609
 20
-4.1
42
1.0
0
SEQEND
0
POLYLINE
8
BLACK
66
1
70
1
40
0.018
41
0.018
0
VERTEX
8
BLACK
10
5.241
 20
-4.1
42
1.0
0
VERTEX
8
BLACK
10
5.259
 20
-4.1
42
1.0
0
SEQEND
0
POLYLINE
8
BLACK
66
1
70
1
40
0.018
41
0.018
0
VERTEX
8
BLACK
10
5.891
 20
-3.35
42
1.0
0
VERTEX
8
BLACK
10
5.909
 20
-3.35
42
1.0
0
SEQEND
0
POLYLINE
8
BLACK
66
1
70
1
40
0.018
41
0.018
0
VERTEX
8
BLACK
10
5.241
 20
-3.35
42
1.0
0
VERTEX
8
BLACK
10
5.259
 20
-3.35
42
1.0
0
SEQEND
0
POLYLINE
8
BLACK
66
1
70
1
40
0.018
41
0.018
0
VERTEX
8
BLACK
10
5.591
 20
-3.7
42
1.0
0
VERTEX
8
BLACK
10
5.609
 20
-3.7
42
1.0
0
SEQEND
  0
ENDSEC
  0
EOF
