  0
SECTION
  2
HEADER
  9
$ANGBASE
  50
0.0
  9
$ANGDIR
  70
1
  9
$MEASUREMENT
  70
1
  0
ENDSEC
  0
SECTION
  2
TABLES
  0
TABLE
  2
LTYPE
  70
4
  0
LTYPE
  5
40F
  2
CONTINUOUS
  70
0
  3
Solid line
  72
65
  73
0
  40
0.0
  0
LTYPE
  5
410
  2
DASHDOT
 70
0
  3
Dash Dot ____ _ ____ _
 72
65
 73
4
 40
2.0
 49
1.25
 49
-0.25
 49
0.25
 49
-0.25
  0
LTYPE
  5
411
  2
DASHED
 70
0
  3
Dashed __ __ __ __ __
 72
65
 73
2
 40
0.75
 49
0.5
 49
-0.25
  0
LTYPE
  5
43B
  2
DOTTED
 70
0
  3
Dotted .  .  .  .
 72
65
 73
2
 40
0.2
 49
0.0
 49
-0.2
  0
ENDTAB
  0
TABLE
  2
STYLE
  70
4
  0
STYLE
  2
KICAD
  70
0
  40
0
  41
1
  42
1
  50
0
  71
0
  3
isocp.shx
  0
STYLE
  2
KICADB
  70
0
  40
0
  41
1
  42
1
  50
0
  71
0
  3
isocp.shx
  0
STYLE
  2
KICADI
  70
0
  40
0
  41
1
  42
1
  50
15
  71
0
  3
isocp.shx
  0
STYLE
  2
KICADBI
  70
0
  40
0
  41
1
  42
1
  50
15
  71
0
  3
isocp.shx
  0
ENDTAB
  0
TABLE
  2
LAYER
  70
1
  0
LAYER
  2
BLACK
  70
0
  62
7
  6
CONTINUOUS
  0
ENDTAB
  0
ENDSEC
  0
SECTION
  2
ENTITIES
0
LINE
8
BLACK
6
CONTINUOUS
10
132.6906929999999818
20
-122.4425319999999999
11
132.9947819999999865
21
-122.5206089999999932
0
LINE
8
BLACK
6
CONTINUOUS
10
132.9947819999999865
20
-122.5206089999999932
11
133.2866879999999981
21
-122.6361819999999909
0
LINE
8
BLACK
6
CONTINUOUS
10
133.2866879999999981
20
-122.6361819999999909
11
133.5618069999999875
21
-122.7874300000000005
0
LINE
8
BLACK
6
CONTINUOUS
10
133.5618069999999875
20
-122.7874300000000005
11
133.8157999999999959
21
-122.9719669999999923
0
LINE
8
BLACK
6
CONTINUOUS
10
133.8157999999999959
20
-122.9719669999999923
11
134.0446619999999882
21
-123.1868819999999971
0
LINE
8
BLACK
6
CONTINUOUS
10
134.0446619999999882
20
-123.1868819999999971
11
134.2447819999999865
21
-123.4287869999999998
0
LINE
8
BLACK
6
CONTINUOUS
10
134.2447819999999865
20
-123.4287869999999998
11
134.4130069999999932
21
-123.6938659999999999
0
LINE
8
BLACK
6
CONTINUOUS
10
134.4130069999999932
20
-123.6938659999999999
11
134.5466810000000066
21
-123.9779389999999921
0
LINE
8
BLACK
6
CONTINUOUS
10
134.5466810000000066
20
-123.9779389999999921
11
134.6436980000000005
21
-124.2765249999999924
0
LINE
8
BLACK
6
CONTINUOUS
10
134.6436980000000005
20
-124.2765249999999924
11
134.7025270000000035
21
-124.5849169999999901
0
LINE
8
BLACK
6
CONTINUOUS
10
134.7025270000000035
20
-124.5849169999999901
11
134.7222399999999993
21
-124.8982499999999902
0
LINE
8
BLACK
6
CONTINUOUS
10
134.7222399999999993
20
-124.8982499999999902
11
134.7025270000000035
21
-125.2115829999999903
0
LINE
8
BLACK
6
CONTINUOUS
10
134.7025270000000035
20
-125.2115829999999903
11
134.6436980000000005
21
-125.5199749999999881
0
LINE
8
BLACK
6
CONTINUOUS
10
134.6436980000000005
20
-125.5199749999999881
11
134.5466810000000066
21
-125.8185609999999883
0
LINE
8
BLACK
6
CONTINUOUS
10
134.5466810000000066
20
-125.8185609999999883
11
134.4130069999999932
21
-126.1026339999999948
0
LINE
8
BLACK
6
CONTINUOUS
10
134.4130069999999932
20
-126.1026339999999948
11
134.2447819999999865
21
-126.3677129999999948
0
LINE
8
BLACK
6
CONTINUOUS
10
134.2447819999999865
20
-126.3677129999999948
11
134.0446619999999882
21
-126.6096179999999976
0
LINE
8
BLACK
6
CONTINUOUS
10
134.0446619999999882
20
-126.6096179999999976
11
133.8157999999999959
21
-126.8245329999999882
0
LINE
8
BLACK
6
CONTINUOUS
10
133.8157999999999959
20
-126.8245329999999882
11
133.5618069999999875
21
-127.0090699999999941
0
LINE
8
BLACK
6
CONTINUOUS
10
133.5618069999999875
20
-127.0090699999999941
11
133.2866879999999981
21
-127.1603179999999895
0
LINE
8
BLACK
6
CONTINUOUS
10
133.2866879999999981
20
-127.1603179999999895
11
132.9947819999999865
21
-127.2758909999999872
0
LINE
8
BLACK
6
CONTINUOUS
10
132.9947819999999865
20
-127.2758909999999872
11
132.6906929999999818
21
-127.3539679999999947
0
LINE
8
BLACK
6
CONTINUOUS
10
132.6906929999999818
20
-127.3539679999999947
11
132.3792159999999853
21
-127.3933169999999961
0
LINE
8
BLACK
6
CONTINUOUS
10
132.3792159999999853
20
-127.3933169999999961
11
132.0652639999999849
21
-127.3933169999999961
0
LINE
8
BLACK
6
CONTINUOUS
10
132.0652639999999849
20
-127.3933169999999961
11
131.7537869999999884
21
-127.3539679999999947
0
LINE
8
BLACK
6
CONTINUOUS
10
131.7537869999999884
20
-127.3539679999999947
11
131.4496979999999837
21
-127.2758909999999872
0
LINE
8
BLACK
6
CONTINUOUS
10
131.4496979999999837
20
-127.2758909999999872
11
131.1577920000000006
21
-127.1603179999999895
0
LINE
8
BLACK
6
CONTINUOUS
10
131.1577920000000006
20
-127.1603179999999895
11
130.8826729999999827
21
-127.0090699999999941
0
LINE
8
BLACK
6
CONTINUOUS
10
130.8826729999999827
20
-127.0090699999999941
11
130.6286800000000028
21
-126.8245329999999882
0
LINE
8
BLACK
6
CONTINUOUS
10
130.6286800000000028
20
-126.8245329999999882
11
130.399817999999982
21
-126.6096179999999976
0
LINE
8
BLACK
6
CONTINUOUS
10
130.399817999999982
20
-126.6096179999999976
11
130.1996979999999837
21
-126.3677129999999948
0
LINE
8
BLACK
6
CONTINUOUS
10
130.1996979999999837
20
-126.3677129999999948
11
130.0314730000000054
21
-126.1026339999999948
0
LINE
8
BLACK
6
CONTINUOUS
10
130.0314730000000054
20
-126.1026339999999948
11
129.897798999999992
21
-125.8185609999999883
0
LINE
8
BLACK
6
CONTINUOUS
10
129.897798999999992
20
-125.8185609999999883
11
129.8007819999999981
21
-125.5199749999999881
0
LINE
8
BLACK
6
CONTINUOUS
10
129.8007819999999981
20
-125.5199749999999881
11
129.7419529999999952
21
-125.2115829999999903
0
LINE
8
BLACK
6
CONTINUOUS
10
129.7419529999999952
20
-125.2115829999999903
11
129.7222399999999993
21
-124.8982499999999902
0
LINE
8
BLACK
6
CONTINUOUS
10
129.7222399999999993
20
-124.8982499999999902
11
129.7419529999999952
21
-124.5849169999999901
0
LINE
8
BLACK
6
CONTINUOUS
10
129.7419529999999952
20
-124.5849169999999901
11
129.8007819999999981
21
-124.2765249999999924
0
LINE
8
BLACK
6
CONTINUOUS
10
129.8007819999999981
20
-124.2765249999999924
11
129.897798999999992
21
-123.9779389999999921
0
LINE
8
BLACK
6
CONTINUOUS
10
129.897798999999992
20
-123.9779389999999921
11
130.0314730000000054
21
-123.6938659999999999
0
LINE
8
BLACK
6
CONTINUOUS
10
130.0314730000000054
20
-123.6938659999999999
11
130.1996979999999837
21
-123.4287869999999998
0
LINE
8
BLACK
6
CONTINUOUS
10
130.1996979999999837
20
-123.4287869999999998
11
130.399817999999982
21
-123.1868819999999971
0
LINE
8
BLACK
6
CONTINUOUS
10
130.399817999999982
20
-123.1868819999999971
11
130.6286800000000028
21
-122.9719669999999923
0
LINE
8
BLACK
6
CONTINUOUS
10
130.6286800000000028
20
-122.9719669999999923
11
130.8826729999999827
21
-122.7874300000000005
0
LINE
8
BLACK
6
CONTINUOUS
10
130.8826729999999827
20
-122.7874300000000005
11
131.1577920000000006
21
-122.6361819999999909
0
LINE
8
BLACK
6
CONTINUOUS
10
131.1577920000000006
20
-122.6361819999999909
11
131.4496979999999837
21
-122.5206089999999932
0
LINE
8
BLACK
6
CONTINUOUS
10
131.4496979999999837
20
-122.5206089999999932
11
131.7537869999999884
21
-122.4425319999999999
0
LINE
8
BLACK
6
CONTINUOUS
10
131.7537869999999884
20
-122.4425319999999999
11
132.0652639999999849
21
-122.4031829999999985
0
LINE
8
BLACK
6
CONTINUOUS
10
132.0652639999999849
20
-122.4031829999999985
11
132.3792159999999853
21
-122.4031829999999985
0
LINE
8
BLACK
6
CONTINUOUS
10
132.3792159999999853
20
-122.4031829999999985
11
132.6906929999999818
21
-122.4425319999999999
0
LINE
8
BLACK
6
CONTINUOUS
10
167.6156929999999932
20
-122.4425319999999999
11
167.9197819999999979
21
-122.5206089999999932
0
LINE
8
BLACK
6
CONTINUOUS
10
167.9197819999999979
20
-122.5206089999999932
11
168.211687999999981
21
-122.6361819999999909
0
LINE
8
BLACK
6
CONTINUOUS
10
168.211687999999981
20
-122.6361819999999909
11
168.4868069999999989
21
-122.7874300000000005
0
LINE
8
BLACK
6
CONTINUOUS
10
168.4868069999999989
20
-122.7874300000000005
11
168.7407999999999788
21
-122.9719669999999923
0
LINE
8
BLACK
6
CONTINUOUS
10
168.7407999999999788
20
-122.9719669999999923
11
168.9696619999999996
21
-123.1868819999999971
0
LINE
8
BLACK
6
CONTINUOUS
10
168.9696619999999996
20
-123.1868819999999971
11
169.1697819999999979
21
-123.4287869999999998
0
LINE
8
BLACK
6
CONTINUOUS
10
169.1697819999999979
20
-123.4287869999999998
11
169.3380070000000046
21
-123.6938659999999999
0
LINE
8
BLACK
6
CONTINUOUS
10
169.3380070000000046
20
-123.6938659999999999
11
169.4716809999999896
21
-123.9779389999999921
0
LINE
8
BLACK
6
CONTINUOUS
10
169.4716809999999896
20
-123.9779389999999921
11
169.5686979999999835
21
-124.2765249999999924
0
LINE
8
BLACK
6
CONTINUOUS
10
169.5686979999999835
20
-124.2765249999999924
11
169.6275269999999864
21
-124.5849169999999901
0
LINE
8
BLACK
6
CONTINUOUS
10
169.6275269999999864
20
-124.5849169999999901
11
169.6472399999999823
21
-124.8982499999999902
0
LINE
8
BLACK
6
CONTINUOUS
10
169.6472399999999823
20
-124.8982499999999902
11
169.6275269999999864
21
-125.2115829999999903
0
LINE
8
BLACK
6
CONTINUOUS
10
169.6275269999999864
20
-125.2115829999999903
11
169.5686979999999835
21
-125.5199749999999881
0
LINE
8
BLACK
6
CONTINUOUS
10
169.5686979999999835
20
-125.5199749999999881
11
169.4716809999999896
21
-125.8185609999999883
0
LINE
8
BLACK
6
CONTINUOUS
10
169.4716809999999896
20
-125.8185609999999883
11
169.3380070000000046
21
-126.1026339999999948
0
LINE
8
BLACK
6
CONTINUOUS
10
169.3380070000000046
20
-126.1026339999999948
11
169.1697819999999979
21
-126.3677129999999948
0
LINE
8
BLACK
6
CONTINUOUS
10
169.1697819999999979
20
-126.3677129999999948
11
168.9696619999999996
21
-126.6096179999999976
0
LINE
8
BLACK
6
CONTINUOUS
10
168.9696619999999996
20
-126.6096179999999976
11
168.7407999999999788
21
-126.8245329999999882
0
LINE
8
BLACK
6
CONTINUOUS
10
168.7407999999999788
20
-126.8245329999999882
11
168.4868069999999989
21
-127.0090699999999941
0
LINE
8
BLACK
6
CONTINUOUS
10
168.4868069999999989
20
-127.0090699999999941
11
168.211687999999981
21
-127.1603179999999895
0
LINE
8
BLACK
6
CONTINUOUS
10
168.211687999999981
20
-127.1603179999999895
11
167.9197819999999979
21
-127.2758909999999872
0
LINE
8
BLACK
6
CONTINUOUS
10
167.9197819999999979
20
-127.2758909999999872
11
167.6156929999999932
21
-127.3539679999999947
0
LINE
8
BLACK
6
CONTINUOUS
10
167.6156929999999932
20
-127.3539679999999947
11
167.3042159999999967
21
-127.3933169999999961
0
LINE
8
BLACK
6
CONTINUOUS
10
167.3042159999999967
20
-127.3933169999999961
11
166.9902639999999963
21
-127.3933169999999961
0
LINE
8
BLACK
6
CONTINUOUS
10
166.9902639999999963
20
-127.3933169999999961
11
166.6787869999999998
21
-127.3539679999999947
0
LINE
8
BLACK
6
CONTINUOUS
10
166.6787869999999998
20
-127.3539679999999947
11
166.3746979999999951
21
-127.2758909999999872
0
LINE
8
BLACK
6
CONTINUOUS
10
166.3746979999999951
20
-127.2758909999999872
11
166.0827919999999835
21
-127.1603179999999895
0
LINE
8
BLACK
6
CONTINUOUS
10
166.0827919999999835
20
-127.1603179999999895
11
165.8076729999999941
21
-127.0090699999999941
0
LINE
8
BLACK
6
CONTINUOUS
10
165.8076729999999941
20
-127.0090699999999941
11
165.5536799999999857
21
-126.8245329999999882
0
LINE
8
BLACK
6
CONTINUOUS
10
165.5536799999999857
20
-126.8245329999999882
11
165.3248179999999934
21
-126.6096179999999976
0
LINE
8
BLACK
6
CONTINUOUS
10
165.3248179999999934
20
-126.6096179999999976
11
165.1246979999999951
21
-126.3677129999999948
0
LINE
8
BLACK
6
CONTINUOUS
10
165.1246979999999951
20
-126.3677129999999948
11
164.9564729999999884
21
-126.1026339999999948
0
LINE
8
BLACK
6
CONTINUOUS
10
164.9564729999999884
20
-126.1026339999999948
11
164.8227990000000034
21
-125.8185609999999883
0
LINE
8
BLACK
6
CONTINUOUS
10
164.8227990000000034
20
-125.8185609999999883
11
164.7257819999999811
21
-125.5199749999999881
0
LINE
8
BLACK
6
CONTINUOUS
10
164.7257819999999811
20
-125.5199749999999881
11
164.6669530000000066
21
-125.2115829999999903
0
LINE
8
BLACK
6
CONTINUOUS
10
164.6669530000000066
20
-125.2115829999999903
11
164.6472399999999823
21
-124.8982499999999902
0
LINE
8
BLACK
6
CONTINUOUS
10
164.6472399999999823
20
-124.8982499999999902
11
164.6669530000000066
21
-124.5849169999999901
0
LINE
8
BLACK
6
CONTINUOUS
10
164.6669530000000066
20
-124.5849169999999901
11
164.7257819999999811
21
-124.2765249999999924
0
LINE
8
BLACK
6
CONTINUOUS
10
164.7257819999999811
20
-124.2765249999999924
11
164.8227990000000034
21
-123.9779389999999921
0
LINE
8
BLACK
6
CONTINUOUS
10
164.8227990000000034
20
-123.9779389999999921
11
164.9564729999999884
21
-123.6938659999999999
0
LINE
8
BLACK
6
CONTINUOUS
10
164.9564729999999884
20
-123.6938659999999999
11
165.1246979999999951
21
-123.4287869999999998
0
LINE
8
BLACK
6
CONTINUOUS
10
165.1246979999999951
20
-123.4287869999999998
11
165.3248179999999934
21
-123.1868819999999971
0
LINE
8
BLACK
6
CONTINUOUS
10
165.3248179999999934
20
-123.1868819999999971
11
165.5536799999999857
21
-122.9719669999999923
0
LINE
8
BLACK
6
CONTINUOUS
10
165.5536799999999857
20
-122.9719669999999923
11
165.8076729999999941
21
-122.7874300000000005
0
LINE
8
BLACK
6
CONTINUOUS
10
165.8076729999999941
20
-122.7874300000000005
11
166.0827919999999835
21
-122.6361819999999909
0
LINE
8
BLACK
6
CONTINUOUS
10
166.0827919999999835
20
-122.6361819999999909
11
166.3746979999999951
21
-122.5206089999999932
0
LINE
8
BLACK
6
CONTINUOUS
10
166.3746979999999951
20
-122.5206089999999932
11
166.6787869999999998
21
-122.4425319999999999
0
LINE
8
BLACK
6
CONTINUOUS
10
166.6787869999999998
20
-122.4425319999999999
11
166.9902639999999963
21
-122.4031829999999985
0
LINE
8
BLACK
6
CONTINUOUS
10
166.9902639999999963
20
-122.4031829999999985
11
167.3042159999999967
21
-122.4031829999999985
0
LINE
8
BLACK
6
CONTINUOUS
10
167.3042159999999967
20
-122.4031829999999985
11
167.6156929999999932
21
-122.4425319999999999
0
LINE
8
BLACK
6
CONTINUOUS
10
138.1323299999999961
20
-123.8574649999999906
11
138.3199229999999886
21
-123.914369999999991
0
LINE
8
BLACK
6
CONTINUOUS
10
138.3199229999999886
20
-123.914369999999991
11
138.4928099999999915
21
-124.006779999999992
0
LINE
8
BLACK
6
CONTINUOUS
10
138.4928099999999915
20
-124.006779999999992
11
138.644346999999982
21
-124.1311429999999945
0
LINE
8
BLACK
6
CONTINUOUS
10
138.644346999999982
20
-124.1311429999999945
11
138.7687099999999987
21
-124.2826799999999992
0
LINE
8
BLACK
6
CONTINUOUS
10
138.7687099999999987
20
-124.2826799999999992
11
138.8611199999999997
21
-124.4555669999999878
0
LINE
8
BLACK
6
CONTINUOUS
10
138.8611199999999997
20
-124.4555669999999878
11
138.9180250000000001
21
-124.6431599999999946
0
LINE
8
BLACK
6
CONTINUOUS
10
138.9180250000000001
20
-124.6431599999999946
11
138.9372400000000027
21
-124.8382499999999879
0
LINE
8
BLACK
6
CONTINUOUS
10
138.9372400000000027
20
-124.8382499999999879
11
138.9180250000000001
21
-125.0333399999999955
0
LINE
8
BLACK
6
CONTINUOUS
10
138.9180250000000001
20
-125.0333399999999955
11
138.8611199999999997
21
-125.2209329999999881
0
LINE
8
BLACK
6
CONTINUOUS
10
138.8611199999999997
20
-125.2209329999999881
11
138.7687099999999987
21
-125.393819999999991
0
LINE
8
BLACK
6
CONTINUOUS
10
138.7687099999999987
20
-125.393819999999991
11
138.644346999999982
21
-125.5453569999999957
0
LINE
8
BLACK
6
CONTINUOUS
10
138.644346999999982
20
-125.5453569999999957
11
138.4928099999999915
21
-125.6697199999999981
0
LINE
8
BLACK
6
CONTINUOUS
10
138.4928099999999915
20
-125.6697199999999981
11
138.3199229999999886
21
-125.7621299999999991
0
LINE
8
BLACK
6
CONTINUOUS
10
138.3199229999999886
20
-125.7621299999999991
11
138.1323299999999961
21
-125.8190349999999995
0
LINE
8
BLACK
6
CONTINUOUS
10
138.1323299999999961
20
-125.8190349999999995
11
137.9372400000000027
21
-125.8382499999999879
0
LINE
8
BLACK
6
CONTINUOUS
10
137.9372400000000027
20
-125.8382499999999879
11
137.742149999999981
21
-125.8190349999999995
0
LINE
8
BLACK
6
CONTINUOUS
10
137.742149999999981
20
-125.8190349999999995
11
137.5545569999999884
21
-125.7621299999999991
0
LINE
8
BLACK
6
CONTINUOUS
10
137.5545569999999884
20
-125.7621299999999991
11
137.3816699999999855
21
-125.6697199999999981
0
LINE
8
BLACK
6
CONTINUOUS
10
137.3816699999999855
20
-125.6697199999999981
11
137.230132999999995
21
-125.5453569999999957
0
LINE
8
BLACK
6
CONTINUOUS
10
137.230132999999995
20
-125.5453569999999957
11
137.1057700000000068
21
-125.393819999999991
0
LINE
8
BLACK
6
CONTINUOUS
10
137.1057700000000068
20
-125.393819999999991
11
137.0133600000000058
21
-125.2209329999999881
0
LINE
8
BLACK
6
CONTINUOUS
10
137.0133600000000058
20
-125.2209329999999881
11
136.9564550000000054
21
-125.0333399999999955
0
LINE
8
BLACK
6
CONTINUOUS
10
136.9564550000000054
20
-125.0333399999999955
11
136.9372400000000027
21
-124.8382499999999879
0
LINE
8
BLACK
6
CONTINUOUS
10
136.9372400000000027
20
-124.8382499999999879
11
136.9564550000000054
21
-124.6431599999999946
0
LINE
8
BLACK
6
CONTINUOUS
10
136.9564550000000054
20
-124.6431599999999946
11
137.0133600000000058
21
-124.4555669999999878
0
LINE
8
BLACK
6
CONTINUOUS
10
137.0133600000000058
20
-124.4555669999999878
11
137.1057700000000068
21
-124.2826799999999992
0
LINE
8
BLACK
6
CONTINUOUS
10
137.1057700000000068
20
-124.2826799999999992
11
137.230132999999995
21
-124.1311429999999945
0
LINE
8
BLACK
6
CONTINUOUS
10
137.230132999999995
20
-124.1311429999999945
11
137.3816699999999855
21
-124.006779999999992
0
LINE
8
BLACK
6
CONTINUOUS
10
137.3816699999999855
20
-124.006779999999992
11
137.5545569999999884
21
-123.914369999999991
0
LINE
8
BLACK
6
CONTINUOUS
10
137.5545569999999884
20
-123.914369999999991
11
137.742149999999981
21
-123.8574649999999906
0
LINE
8
BLACK
6
CONTINUOUS
10
137.742149999999981
20
-123.8574649999999906
11
137.9372400000000027
21
-123.8382499999999879
0
LINE
8
BLACK
6
CONTINUOUS
10
137.9372400000000027
20
-123.8382499999999879
11
138.1323299999999961
21
-123.8574649999999906
0
LINE
8
BLACK
6
CONTINUOUS
10
160.9923299999999813
20
-123.8574649999999906
11
161.1799230000000023
21
-123.914369999999991
0
LINE
8
BLACK
6
CONTINUOUS
10
161.1799230000000023
20
-123.914369999999991
11
161.3528100000000052
21
-124.006779999999992
0
LINE
8
BLACK
6
CONTINUOUS
10
161.3528100000000052
20
-124.006779999999992
11
161.5043469999999957
21
-124.1311429999999945
0
LINE
8
BLACK
6
CONTINUOUS
10
161.5043469999999957
20
-124.1311429999999945
11
161.6287099999999839
21
-124.2826799999999992
0
LINE
8
BLACK
6
CONTINUOUS
10
161.6287099999999839
20
-124.2826799999999992
11
161.7211199999999849
21
-124.4555669999999878
0
LINE
8
BLACK
6
CONTINUOUS
10
161.7211199999999849
20
-124.4555669999999878
11
161.7780249999999853
21
-124.6431599999999946
0
LINE
8
BLACK
6
CONTINUOUS
10
161.7780249999999853
20
-124.6431599999999946
11
161.797239999999988
21
-124.8382499999999879
0
LINE
8
BLACK
6
CONTINUOUS
10
161.797239999999988
20
-124.8382499999999879
11
161.7780249999999853
21
-125.0333399999999955
0
LINE
8
BLACK
6
CONTINUOUS
10
161.7780249999999853
20
-125.0333399999999955
11
161.7211199999999849
21
-125.2209329999999881
0
LINE
8
BLACK
6
CONTINUOUS
10
161.7211199999999849
20
-125.2209329999999881
11
161.6287099999999839
21
-125.393819999999991
0
LINE
8
BLACK
6
CONTINUOUS
10
161.6287099999999839
20
-125.393819999999991
11
161.5043469999999957
21
-125.5453569999999957
0
LINE
8
BLACK
6
CONTINUOUS
10
161.5043469999999957
20
-125.5453569999999957
11
161.3528100000000052
21
-125.6697199999999981
0
LINE
8
BLACK
6
CONTINUOUS
10
161.3528100000000052
20
-125.6697199999999981
11
161.1799230000000023
21
-125.7621299999999991
0
LINE
8
BLACK
6
CONTINUOUS
10
161.1799230000000023
20
-125.7621299999999991
11
160.9923299999999813
21
-125.8190349999999995
0
LINE
8
BLACK
6
CONTINUOUS
10
160.9923299999999813
20
-125.8190349999999995
11
160.797239999999988
21
-125.8382499999999879
0
LINE
8
BLACK
6
CONTINUOUS
10
160.797239999999988
20
-125.8382499999999879
11
160.6021499999999946
21
-125.8190349999999995
0
LINE
8
BLACK
6
CONTINUOUS
10
160.6021499999999946
20
-125.8190349999999995
11
160.4145570000000021
21
-125.7621299999999991
0
LINE
8
BLACK
6
CONTINUOUS
10
160.4145570000000021
20
-125.7621299999999991
11
160.2416699999999992
21
-125.6697199999999981
0
LINE
8
BLACK
6
CONTINUOUS
10
160.2416699999999992
20
-125.6697199999999981
11
160.0901329999999803
21
-125.5453569999999957
0
LINE
8
BLACK
6
CONTINUOUS
10
160.0901329999999803
20
-125.5453569999999957
11
159.965769999999992
21
-125.393819999999991
0
LINE
8
BLACK
6
CONTINUOUS
10
159.965769999999992
20
-125.393819999999991
11
159.873359999999991
21
-125.2209329999999881
0
LINE
8
BLACK
6
CONTINUOUS
10
159.873359999999991
20
-125.2209329999999881
11
159.8164549999999906
21
-125.0333399999999955
0
LINE
8
BLACK
6
CONTINUOUS
10
159.8164549999999906
20
-125.0333399999999955
11
159.797239999999988
21
-124.8382499999999879
0
LINE
8
BLACK
6
CONTINUOUS
10
159.797239999999988
20
-124.8382499999999879
11
159.8164549999999906
21
-124.6431599999999946
0
LINE
8
BLACK
6
CONTINUOUS
10
159.8164549999999906
20
-124.6431599999999946
11
159.873359999999991
21
-124.4555669999999878
0
LINE
8
BLACK
6
CONTINUOUS
10
159.873359999999991
20
-124.4555669999999878
11
159.965769999999992
21
-124.2826799999999992
0
LINE
8
BLACK
6
CONTINUOUS
10
159.965769999999992
20
-124.2826799999999992
11
160.0901329999999803
21
-124.1311429999999945
0
LINE
8
BLACK
6
CONTINUOUS
10
160.0901329999999803
20
-124.1311429999999945
11
160.2416699999999992
21
-124.006779999999992
0
LINE
8
BLACK
6
CONTINUOUS
10
160.2416699999999992
20
-124.006779999999992
11
160.4145570000000021
21
-123.914369999999991
0
LINE
8
BLACK
6
CONTINUOUS
10
160.4145570000000021
20
-123.914369999999991
11
160.6021499999999946
21
-123.8574649999999906
0
LINE
8
BLACK
6
CONTINUOUS
10
160.6021499999999946
20
-123.8574649999999906
11
160.797239999999988
21
-123.8382499999999879
0
LINE
8
BLACK
6
CONTINUOUS
10
160.797239999999988
20
-123.8382499999999879
11
160.9923299999999813
21
-123.8574649999999906
0
LINE
8
BLACK
6
CONTINUOUS
10
144.8081849999999804
20
-116.5288269999999926
11
145.1476499999999987
21
-116.6092809999999957
0
LINE
8
BLACK
6
CONTINUOUS
10
145.1476499999999987
20
-116.6092809999999957
11
145.4754790000000071
21
-116.7286019999999951
0
LINE
8
BLACK
6
CONTINUOUS
10
145.4754790000000071
20
-116.7286019999999951
11
145.7872399999999971
21
-116.8851739999999921
0
LINE
8
BLACK
6
CONTINUOUS
10
145.7872399999999971
20
-116.8851739999999921
11
146.0787159999999858
21
-117.0768799999999885
0
LINE
8
BLACK
6
CONTINUOUS
10
146.0787159999999858
20
-117.0768799999999885
11
146.3459650000000067
21
-117.3011289999999889
0
LINE
8
BLACK
6
CONTINUOUS
10
146.3459650000000067
20
-117.3011289999999889
11
146.5853730000000041
21
-117.5548869999999937
0
LINE
8
BLACK
6
CONTINUOUS
10
146.5853730000000041
20
-117.5548869999999937
11
146.7937029999999936
21
-117.8347229999999968
0
LINE
8
BLACK
6
CONTINUOUS
10
146.7937029999999936
20
-117.8347229999999968
11
146.968137999999982
21
-118.1368519999999904
0
LINE
8
BLACK
6
CONTINUOUS
10
146.968137999999982
20
-118.1368519999999904
11
147.1063179999999875
21
-118.4571899999999971
0
LINE
8
BLACK
6
CONTINUOUS
10
147.1063179999999875
20
-118.4571899999999971
11
147.20637499999998
21
-118.7914019999999908
0
LINE
8
BLACK
6
CONTINUOUS
10
147.20637499999998
20
-118.7914019999999908
11
147.2669549999999958
21
-119.1349709999999931
0
LINE
8
BLACK
6
CONTINUOUS
10
147.2669549999999958
20
-119.1349709999999931
11
147.2872399999999971
21
-119.4832499999999982
0
LINE
8
BLACK
6
CONTINUOUS
10
147.2872399999999971
20
-119.4832499999999982
11
147.2669549999999958
21
-119.8315289999999891
0
LINE
8
BLACK
6
CONTINUOUS
10
147.2669549999999958
20
-119.8315289999999891
11
147.20637499999998
21
-120.1750979999999913
0
LINE
8
BLACK
6
CONTINUOUS
10
147.20637499999998
20
-120.1750979999999913
11
147.1063179999999875
21
-120.5093099999999993
0
LINE
8
BLACK
6
CONTINUOUS
10
147.1063179999999875
20
-120.5093099999999993
11
146.968137999999982
21
-120.8296479999999917
0
LINE
8
BLACK
6
CONTINUOUS
10
146.968137999999982
20
-120.8296479999999917
11
146.7937029999999936
21
-121.1317769999999996
0
LINE
8
BLACK
6
CONTINUOUS
10
146.7937029999999936
20
-121.1317769999999996
11
146.5853730000000041
21
-121.4116129999999885
0
LINE
8
BLACK
6
CONTINUOUS
10
146.5853730000000041
20
-121.4116129999999885
11
146.3459650000000067
21
-121.6653709999999933
0
LINE
8
BLACK
6
CONTINUOUS
10
146.3459650000000067
20
-121.6653709999999933
11
146.0787159999999858
21
-121.8896199999999936
0
LINE
8
BLACK
6
CONTINUOUS
10
146.0787159999999858
20
-121.8896199999999936
11
145.7872399999999971
21
-122.08132599999999
0
LINE
8
BLACK
6
CONTINUOUS
10
145.7872399999999971
20
-122.08132599999999
11
145.4754790000000071
21
-122.2378980000000013
0
LINE
8
BLACK
6
CONTINUOUS
10
145.4754790000000071
20
-122.2378980000000013
11
145.1476499999999987
21
-122.3572190000000006
0
LINE
8
BLACK
6
CONTINUOUS
10
145.1476499999999987
20
-122.3572190000000006
11
144.8081849999999804
21
-122.4376729999999895
0
LINE
8
BLACK
6
CONTINUOUS
10
144.8081849999999804
20
-122.4376729999999895
11
144.4616739999999879
21
-122.4781739999999957
0
LINE
8
BLACK
6
CONTINUOUS
10
144.4616739999999879
20
-122.4781739999999957
11
144.1128060000000062
21
-122.4781739999999957
0
LINE
8
BLACK
6
CONTINUOUS
10
144.1128060000000062
20
-122.4781739999999957
11
143.7662949999999853
21
-122.4376729999999895
0
LINE
8
BLACK
6
CONTINUOUS
10
143.7662949999999853
20
-122.4376729999999895
11
143.4268299999999954
21
-122.3572190000000006
0
LINE
8
BLACK
6
CONTINUOUS
10
143.4268299999999954
20
-122.3572190000000006
11
143.099000999999987
21
-122.2378980000000013
0
LINE
8
BLACK
6
CONTINUOUS
10
143.099000999999987
20
-122.2378980000000013
11
142.7872399999999971
21
-122.08132599999999
0
LINE
8
BLACK
6
CONTINUOUS
10
142.7872399999999971
20
-122.08132599999999
11
142.4957639999999799
21
-121.8896199999999936
0
LINE
8
BLACK
6
CONTINUOUS
10
142.4957639999999799
20
-121.8896199999999936
11
142.2285149999999874
21
-121.6653709999999933
0
LINE
8
BLACK
6
CONTINUOUS
10
142.2285149999999874
20
-121.6653709999999933
11
141.98910699999999
21
-121.4116129999999885
0
LINE
8
BLACK
6
CONTINUOUS
10
141.98910699999999
20
-121.4116129999999885
11
141.7807770000000005
21
-121.1317769999999996
0
LINE
8
BLACK
6
CONTINUOUS
10
141.7807770000000005
20
-121.1317769999999996
11
141.6063419999999837
21
-120.8296479999999917
0
LINE
8
BLACK
6
CONTINUOUS
10
141.6063419999999837
20
-120.8296479999999917
11
141.4681620000000066
21
-120.5093099999999993
0
LINE
8
BLACK
6
CONTINUOUS
10
141.4681620000000066
20
-120.5093099999999993
11
141.3681049999999857
21
-120.1750979999999913
0
LINE
8
BLACK
6
CONTINUOUS
10
141.3681049999999857
20
-120.1750979999999913
11
141.3075249999999983
21
-119.8315289999999891
0
LINE
8
BLACK
6
CONTINUOUS
10
141.3075249999999983
20
-119.8315289999999891
11
141.2872399999999971
21
-119.4832499999999982
0
LINE
8
BLACK
6
CONTINUOUS
10
141.2872399999999971
20
-119.4832499999999982
11
141.3075249999999983
21
-119.1349709999999931
0
LINE
8
BLACK
6
CONTINUOUS
10
141.3075249999999983
20
-119.1349709999999931
11
141.3681049999999857
21
-118.7914019999999908
0
LINE
8
BLACK
6
CONTINUOUS
10
141.3681049999999857
20
-118.7914019999999908
11
141.4681620000000066
21
-118.4571899999999971
0
LINE
8
BLACK
6
CONTINUOUS
10
141.4681620000000066
20
-118.4571899999999971
11
141.6063419999999837
21
-118.1368519999999904
0
LINE
8
BLACK
6
CONTINUOUS
10
141.6063419999999837
20
-118.1368519999999904
11
141.7807770000000005
21
-117.8347229999999968
0
LINE
8
BLACK
6
CONTINUOUS
10
141.7807770000000005
20
-117.8347229999999968
11
141.98910699999999
21
-117.5548869999999937
0
LINE
8
BLACK
6
CONTINUOUS
10
141.98910699999999
20
-117.5548869999999937
11
142.2285149999999874
21
-117.3011289999999889
0
LINE
8
BLACK
6
CONTINUOUS
10
142.2285149999999874
20
-117.3011289999999889
11
142.4957639999999799
21
-117.0768799999999885
0
LINE
8
BLACK
6
CONTINUOUS
10
142.4957639999999799
20
-117.0768799999999885
11
142.7872399999999971
21
-116.8851739999999921
0
LINE
8
BLACK
6
CONTINUOUS
10
142.7872399999999971
20
-116.8851739999999921
11
143.099000999999987
21
-116.7286019999999951
0
LINE
8
BLACK
6
CONTINUOUS
10
143.099000999999987
20
-116.7286019999999951
11
143.4268299999999954
21
-116.6092809999999957
0
LINE
8
BLACK
6
CONTINUOUS
10
143.4268299999999954
20
-116.6092809999999957
11
143.7662949999999853
21
-116.5288269999999926
0
LINE
8
BLACK
6
CONTINUOUS
10
143.7662949999999853
20
-116.5288269999999926
11
144.1128060000000062
21
-116.4883260000000007
0
LINE
8
BLACK
6
CONTINUOUS
10
144.1128060000000062
20
-116.4883260000000007
11
144.4616739999999879
21
-116.4883260000000007
0
LINE
8
BLACK
6
CONTINUOUS
10
144.4616739999999879
20
-116.4883260000000007
11
144.8081849999999804
21
-116.5288269999999926
0
LINE
8
BLACK
6
CONTINUOUS
10
154.9681850000000054
20
-116.5288269999999926
11
155.3076499999999953
21
-116.6092809999999957
0
LINE
8
BLACK
6
CONTINUOUS
10
155.3076499999999953
20
-116.6092809999999957
11
155.6354790000000037
21
-116.7286019999999951
0
LINE
8
BLACK
6
CONTINUOUS
10
155.6354790000000037
20
-116.7286019999999951
11
155.9472399999999936
21
-116.8851739999999921
0
LINE
8
BLACK
6
CONTINUOUS
10
155.9472399999999936
20
-116.8851739999999921
11
156.2387159999999824
21
-117.0768799999999885
0
LINE
8
BLACK
6
CONTINUOUS
10
156.2387159999999824
20
-117.0768799999999885
11
156.5059650000000033
21
-117.3011289999999889
0
LINE
8
BLACK
6
CONTINUOUS
10
156.5059650000000033
20
-117.3011289999999889
11
156.7453730000000007
21
-117.5548869999999937
0
LINE
8
BLACK
6
CONTINUOUS
10
156.7453730000000007
20
-117.5548869999999937
11
156.9537029999999902
21
-117.8347229999999968
0
LINE
8
BLACK
6
CONTINUOUS
10
156.9537029999999902
20
-117.8347229999999968
11
157.128138000000007
21
-118.1368519999999904
0
LINE
8
BLACK
6
CONTINUOUS
10
157.128138000000007
20
-118.1368519999999904
11
157.2663179999999841
21
-118.4571899999999971
0
LINE
8
BLACK
6
CONTINUOUS
10
157.2663179999999841
20
-118.4571899999999971
11
157.366375000000005
21
-118.7914019999999908
0
LINE
8
BLACK
6
CONTINUOUS
10
157.366375000000005
20
-118.7914019999999908
11
157.4269549999999924
21
-119.1349709999999931
0
LINE
8
BLACK
6
CONTINUOUS
10
157.4269549999999924
20
-119.1349709999999931
11
157.4472399999999936
21
-119.4832499999999982
0
LINE
8
BLACK
6
CONTINUOUS
10
157.4472399999999936
20
-119.4832499999999982
11
157.4269549999999924
21
-119.8315289999999891
0
LINE
8
BLACK
6
CONTINUOUS
10
157.4269549999999924
20
-119.8315289999999891
11
157.366375000000005
21
-120.1750979999999913
0
LINE
8
BLACK
6
CONTINUOUS
10
157.366375000000005
20
-120.1750979999999913
11
157.2663179999999841
21
-120.5093099999999993
0
LINE
8
BLACK
6
CONTINUOUS
10
157.2663179999999841
20
-120.5093099999999993
11
157.128138000000007
21
-120.8296479999999917
0
LINE
8
BLACK
6
CONTINUOUS
10
157.128138000000007
20
-120.8296479999999917
11
156.9537029999999902
21
-121.1317769999999996
0
LINE
8
BLACK
6
CONTINUOUS
10
156.9537029999999902
20
-121.1317769999999996
11
156.7453730000000007
21
-121.4116129999999885
0
LINE
8
BLACK
6
CONTINUOUS
10
156.7453730000000007
20
-121.4116129999999885
11
156.5059650000000033
21
-121.6653709999999933
0
LINE
8
BLACK
6
CONTINUOUS
10
156.5059650000000033
20
-121.6653709999999933
11
156.2387159999999824
21
-121.8896199999999936
0
LINE
8
BLACK
6
CONTINUOUS
10
156.2387159999999824
20
-121.8896199999999936
11
155.9472399999999936
21
-122.08132599999999
0
LINE
8
BLACK
6
CONTINUOUS
10
155.9472399999999936
20
-122.08132599999999
11
155.6354790000000037
21
-122.2378980000000013
0
LINE
8
BLACK
6
CONTINUOUS
10
155.6354790000000037
20
-122.2378980000000013
11
155.3076499999999953
21
-122.3572190000000006
0
LINE
8
BLACK
6
CONTINUOUS
10
155.3076499999999953
20
-122.3572190000000006
11
154.9681850000000054
21
-122.4376729999999895
0
LINE
8
BLACK
6
CONTINUOUS
10
154.9681850000000054
20
-122.4376729999999895
11
154.6216739999999845
21
-122.4781739999999957
0
LINE
8
BLACK
6
CONTINUOUS
10
154.6216739999999845
20
-122.4781739999999957
11
154.2728060000000028
21
-122.4781739999999957
0
LINE
8
BLACK
6
CONTINUOUS
10
154.2728060000000028
20
-122.4781739999999957
11
153.9262949999999819
21
-122.4376729999999895
0
LINE
8
BLACK
6
CONTINUOUS
10
153.9262949999999819
20
-122.4376729999999895
11
153.586829999999992
21
-122.3572190000000006
0
LINE
8
BLACK
6
CONTINUOUS
10
153.586829999999992
20
-122.3572190000000006
11
153.2590009999999836
21
-122.2378980000000013
0
LINE
8
BLACK
6
CONTINUOUS
10
153.2590009999999836
20
-122.2378980000000013
11
152.9472399999999936
21
-122.08132599999999
0
LINE
8
BLACK
6
CONTINUOUS
10
152.9472399999999936
20
-122.08132599999999
11
152.6557640000000049
21
-121.8896199999999936
0
LINE
8
BLACK
6
CONTINUOUS
10
152.6557640000000049
20
-121.8896199999999936
11
152.388514999999984
21
-121.6653709999999933
0
LINE
8
BLACK
6
CONTINUOUS
10
152.388514999999984
20
-121.6653709999999933
11
152.1491069999999866
21
-121.4116129999999885
0
LINE
8
BLACK
6
CONTINUOUS
10
152.1491069999999866
20
-121.4116129999999885
11
151.9407769999999971
21
-121.1317769999999996
0
LINE
8
BLACK
6
CONTINUOUS
10
151.9407769999999971
20
-121.1317769999999996
11
151.7663419999999803
21
-120.8296479999999917
0
LINE
8
BLACK
6
CONTINUOUS
10
151.7663419999999803
20
-120.8296479999999917
11
151.6281620000000032
21
-120.5093099999999993
0
LINE
8
BLACK
6
CONTINUOUS
10
151.6281620000000032
20
-120.5093099999999993
11
151.5281049999999823
21
-120.1750979999999913
0
LINE
8
BLACK
6
CONTINUOUS
10
151.5281049999999823
20
-120.1750979999999913
11
151.4675249999999949
21
-119.8315289999999891
0
LINE
8
BLACK
6
CONTINUOUS
10
151.4675249999999949
20
-119.8315289999999891
11
151.4472399999999936
21
-119.4832499999999982
0
LINE
8
BLACK
6
CONTINUOUS
10
151.4472399999999936
20
-119.4832499999999982
11
151.4675249999999949
21
-119.1349709999999931
0
LINE
8
BLACK
6
CONTINUOUS
10
151.4675249999999949
20
-119.1349709999999931
11
151.5281049999999823
21
-118.7914019999999908
0
LINE
8
BLACK
6
CONTINUOUS
10
151.5281049999999823
20
-118.7914019999999908
11
151.6281620000000032
21
-118.4571899999999971
0
LINE
8
BLACK
6
CONTINUOUS
10
151.6281620000000032
20
-118.4571899999999971
11
151.7663419999999803
21
-118.1368519999999904
0
LINE
8
BLACK
6
CONTINUOUS
10
151.7663419999999803
20
-118.1368519999999904
11
151.9407769999999971
21
-117.8347229999999968
0
LINE
8
BLACK
6
CONTINUOUS
10
151.9407769999999971
20
-117.8347229999999968
11
152.1491069999999866
21
-117.5548869999999937
0
LINE
8
BLACK
6
CONTINUOUS
10
152.1491069999999866
20
-117.5548869999999937
11
152.388514999999984
21
-117.3011289999999889
0
LINE
8
BLACK
6
CONTINUOUS
10
152.388514999999984
20
-117.3011289999999889
11
152.6557640000000049
21
-117.0768799999999885
0
LINE
8
BLACK
6
CONTINUOUS
10
152.6557640000000049
20
-117.0768799999999885
11
152.9472399999999936
21
-116.8851739999999921
0
LINE
8
BLACK
6
CONTINUOUS
10
152.9472399999999936
20
-116.8851739999999921
11
153.2590009999999836
21
-116.7286019999999951
0
LINE
8
BLACK
6
CONTINUOUS
10
153.2590009999999836
20
-116.7286019999999951
11
153.586829999999992
21
-116.6092809999999957
0
LINE
8
BLACK
6
CONTINUOUS
10
153.586829999999992
20
-116.6092809999999957
11
153.9262949999999819
21
-116.5288269999999926
0
LINE
8
BLACK
6
CONTINUOUS
10
153.9262949999999819
20
-116.5288269999999926
11
154.2728060000000028
21
-116.4883260000000007
0
LINE
8
BLACK
6
CONTINUOUS
10
154.2728060000000028
20
-116.4883260000000007
11
154.6216739999999845
21
-116.4883260000000007
0
LINE
8
BLACK
6
CONTINUOUS
10
154.6216739999999845
20
-116.4883260000000007
11
154.9681850000000054
21
-116.5288269999999926
0
LINE
8
BLACK
6
CONTINUOUS
10
138.1323299999999961
20
-116.3574649999999906
11
138.3199229999999886
21
-116.414369999999991
0
LINE
8
BLACK
6
CONTINUOUS
10
138.3199229999999886
20
-116.414369999999991
11
138.4928099999999915
21
-116.506779999999992
0
LINE
8
BLACK
6
CONTINUOUS
10
138.4928099999999915
20
-116.506779999999992
11
138.644346999999982
21
-116.6311429999999945
0
LINE
8
BLACK
6
CONTINUOUS
10
138.644346999999982
20
-116.6311429999999945
11
138.7687099999999987
21
-116.7826799999999992
0
LINE
8
BLACK
6
CONTINUOUS
10
138.7687099999999987
20
-116.7826799999999992
11
138.8611199999999997
21
-116.9555669999999878
0
LINE
8
BLACK
6
CONTINUOUS
10
138.8611199999999997
20
-116.9555669999999878
11
138.9180250000000001
21
-117.1431599999999946
0
LINE
8
BLACK
6
CONTINUOUS
10
138.9180250000000001
20
-117.1431599999999946
11
138.9372400000000027
21
-117.3382499999999879
0
LINE
8
BLACK
6
CONTINUOUS
10
138.9372400000000027
20
-117.3382499999999879
11
138.9180250000000001
21
-117.5333399999999955
0
LINE
8
BLACK
6
CONTINUOUS
10
138.9180250000000001
20
-117.5333399999999955
11
138.8611199999999997
21
-117.7209329999999881
0
LINE
8
BLACK
6
CONTINUOUS
10
138.8611199999999997
20
-117.7209329999999881
11
138.7687099999999987
21
-117.893819999999991
0
LINE
8
BLACK
6
CONTINUOUS
10
138.7687099999999987
20
-117.893819999999991
11
138.644346999999982
21
-118.0453569999999957
0
LINE
8
BLACK
6
CONTINUOUS
10
138.644346999999982
20
-118.0453569999999957
11
138.4928099999999915
21
-118.1697199999999981
0
LINE
8
BLACK
6
CONTINUOUS
10
138.4928099999999915
20
-118.1697199999999981
11
138.3199229999999886
21
-118.2621299999999991
0
LINE
8
BLACK
6
CONTINUOUS
10
138.3199229999999886
20
-118.2621299999999991
11
138.1323299999999961
21
-118.3190349999999995
0
LINE
8
BLACK
6
CONTINUOUS
10
138.1323299999999961
20
-118.3190349999999995
11
137.9372400000000027
21
-118.3382499999999879
0
LINE
8
BLACK
6
CONTINUOUS
10
137.9372400000000027
20
-118.3382499999999879
11
137.742149999999981
21
-118.3190349999999995
0
LINE
8
BLACK
6
CONTINUOUS
10
137.742149999999981
20
-118.3190349999999995
11
137.5545569999999884
21
-118.2621299999999991
0
LINE
8
BLACK
6
CONTINUOUS
10
137.5545569999999884
20
-118.2621299999999991
11
137.3816699999999855
21
-118.1697199999999981
0
LINE
8
BLACK
6
CONTINUOUS
10
137.3816699999999855
20
-118.1697199999999981
11
137.230132999999995
21
-118.0453569999999957
0
LINE
8
BLACK
6
CONTINUOUS
10
137.230132999999995
20
-118.0453569999999957
11
137.1057700000000068
21
-117.893819999999991
0
LINE
8
BLACK
6
CONTINUOUS
10
137.1057700000000068
20
-117.893819999999991
11
137.0133600000000058
21
-117.7209329999999881
0
LINE
8
BLACK
6
CONTINUOUS
10
137.0133600000000058
20
-117.7209329999999881
11
136.9564550000000054
21
-117.5333399999999955
0
LINE
8
BLACK
6
CONTINUOUS
10
136.9564550000000054
20
-117.5333399999999955
11
136.9372400000000027
21
-117.3382499999999879
0
LINE
8
BLACK
6
CONTINUOUS
10
136.9372400000000027
20
-117.3382499999999879
11
136.9564550000000054
21
-117.1431599999999946
0
LINE
8
BLACK
6
CONTINUOUS
10
136.9564550000000054
20
-117.1431599999999946
11
137.0133600000000058
21
-116.9555669999999878
0
LINE
8
BLACK
6
CONTINUOUS
10
137.0133600000000058
20
-116.9555669999999878
11
137.1057700000000068
21
-116.7826799999999992
0
LINE
8
BLACK
6
CONTINUOUS
10
137.1057700000000068
20
-116.7826799999999992
11
137.230132999999995
21
-116.6311429999999945
0
LINE
8
BLACK
6
CONTINUOUS
10
137.230132999999995
20
-116.6311429999999945
11
137.3816699999999855
21
-116.506779999999992
0
LINE
8
BLACK
6
CONTINUOUS
10
137.3816699999999855
20
-116.506779999999992
11
137.5545569999999884
21
-116.414369999999991
0
LINE
8
BLACK
6
CONTINUOUS
10
137.5545569999999884
20
-116.414369999999991
11
137.742149999999981
21
-116.3574649999999906
0
LINE
8
BLACK
6
CONTINUOUS
10
137.742149999999981
20
-116.3574649999999906
11
137.9372400000000027
21
-116.3382499999999879
0
LINE
8
BLACK
6
CONTINUOUS
10
137.9372400000000027
20
-116.3382499999999879
11
138.1323299999999961
21
-116.3574649999999906
0
LINE
8
BLACK
6
CONTINUOUS
10
160.9923299999999813
20
-116.3574649999999906
11
161.1799230000000023
21
-116.414369999999991
0
LINE
8
BLACK
6
CONTINUOUS
10
161.1799230000000023
20
-116.414369999999991
11
161.3528100000000052
21
-116.506779999999992
0
LINE
8
BLACK
6
CONTINUOUS
10
161.3528100000000052
20
-116.506779999999992
11
161.5043469999999957
21
-116.6311429999999945
0
LINE
8
BLACK
6
CONTINUOUS
10
161.5043469999999957
20
-116.6311429999999945
11
161.6287099999999839
21
-116.7826799999999992
0
LINE
8
BLACK
6
CONTINUOUS
10
161.6287099999999839
20
-116.7826799999999992
11
161.7211199999999849
21
-116.9555669999999878
0
LINE
8
BLACK
6
CONTINUOUS
10
161.7211199999999849
20
-116.9555669999999878
11
161.7780249999999853
21
-117.1431599999999946
0
LINE
8
BLACK
6
CONTINUOUS
10
161.7780249999999853
20
-117.1431599999999946
11
161.797239999999988
21
-117.3382499999999879
0
LINE
8
BLACK
6
CONTINUOUS
10
161.797239999999988
20
-117.3382499999999879
11
161.7780249999999853
21
-117.5333399999999955
0
LINE
8
BLACK
6
CONTINUOUS
10
161.7780249999999853
20
-117.5333399999999955
11
161.7211199999999849
21
-117.7209329999999881
0
LINE
8
BLACK
6
CONTINUOUS
10
161.7211199999999849
20
-117.7209329999999881
11
161.6287099999999839
21
-117.893819999999991
0
LINE
8
BLACK
6
CONTINUOUS
10
161.6287099999999839
20
-117.893819999999991
11
161.5043469999999957
21
-118.0453569999999957
0
LINE
8
BLACK
6
CONTINUOUS
10
161.5043469999999957
20
-118.0453569999999957
11
161.3528100000000052
21
-118.1697199999999981
0
LINE
8
BLACK
6
CONTINUOUS
10
161.3528100000000052
20
-118.1697199999999981
11
161.1799230000000023
21
-118.2621299999999991
0
LINE
8
BLACK
6
CONTINUOUS
10
161.1799230000000023
20
-118.2621299999999991
11
160.9923299999999813
21
-118.3190349999999995
0
LINE
8
BLACK
6
CONTINUOUS
10
160.9923299999999813
20
-118.3190349999999995
11
160.797239999999988
21
-118.3382499999999879
0
LINE
8
BLACK
6
CONTINUOUS
10
160.797239999999988
20
-118.3382499999999879
11
160.6021499999999946
21
-118.3190349999999995
0
LINE
8
BLACK
6
CONTINUOUS
10
160.6021499999999946
20
-118.3190349999999995
11
160.4145570000000021
21
-118.2621299999999991
0
LINE
8
BLACK
6
CONTINUOUS
10
160.4145570000000021
20
-118.2621299999999991
11
160.2416699999999992
21
-118.1697199999999981
0
LINE
8
BLACK
6
CONTINUOUS
10
160.2416699999999992
20
-118.1697199999999981
11
160.0901329999999803
21
-118.0453569999999957
0
LINE
8
BLACK
6
CONTINUOUS
10
160.0901329999999803
20
-118.0453569999999957
11
159.965769999999992
21
-117.893819999999991
0
LINE
8
BLACK
6
CONTINUOUS
10
159.965769999999992
20
-117.893819999999991
11
159.873359999999991
21
-117.7209329999999881
0
LINE
8
BLACK
6
CONTINUOUS
10
159.873359999999991
20
-117.7209329999999881
11
159.8164549999999906
21
-117.5333399999999955
0
LINE
8
BLACK
6
CONTINUOUS
10
159.8164549999999906
20
-117.5333399999999955
11
159.797239999999988
21
-117.3382499999999879
0
LINE
8
BLACK
6
CONTINUOUS
10
159.797239999999988
20
-117.3382499999999879
11
159.8164549999999906
21
-117.1431599999999946
0
LINE
8
BLACK
6
CONTINUOUS
10
159.8164549999999906
20
-117.1431599999999946
11
159.873359999999991
21
-116.9555669999999878
0
LINE
8
BLACK
6
CONTINUOUS
10
159.873359999999991
20
-116.9555669999999878
11
159.965769999999992
21
-116.7826799999999992
0
LINE
8
BLACK
6
CONTINUOUS
10
159.965769999999992
20
-116.7826799999999992
11
160.0901329999999803
21
-116.6311429999999945
0
LINE
8
BLACK
6
CONTINUOUS
10
160.0901329999999803
20
-116.6311429999999945
11
160.2416699999999992
21
-116.506779999999992
0
LINE
8
BLACK
6
CONTINUOUS
10
160.2416699999999992
20
-116.506779999999992
11
160.4145570000000021
21
-116.414369999999991
0
LINE
8
BLACK
6
CONTINUOUS
10
160.4145570000000021
20
-116.414369999999991
11
160.6021499999999946
21
-116.3574649999999906
0
LINE
8
BLACK
6
CONTINUOUS
10
160.6021499999999946
20
-116.3574649999999906
11
160.797239999999988
21
-116.3382499999999879
0
LINE
8
BLACK
6
CONTINUOUS
10
160.797239999999988
20
-116.3382499999999879
11
160.9923299999999813
21
-116.3574649999999906
0
LINE
8
BLACK
6
CONTINUOUS
10
135.5976709999999912
20
-112.2070299999999889
11
135.6787769999999966
21
-112.2612230000000011
0
LINE
8
BLACK
6
CONTINUOUS
10
135.6787769999999966
20
-112.2612230000000011
11
135.7329699999999946
21
-112.3423289999999923
0
LINE
8
BLACK
6
CONTINUOUS
10
135.7329699999999946
20
-112.3423289999999923
11
135.7519999999999811
21
-112.4379999999999882
0
LINE
8
BLACK
6
CONTINUOUS
10
135.7519999999999811
20
-112.4379999999999882
11
135.7519999999999811
21
-114.637999999999991
0
LINE
8
BLACK
6
CONTINUOUS
10
135.7519999999999811
20
-114.637999999999991
11
135.7329699999999946
21
-114.7336710000000011
0
LINE
8
BLACK
6
CONTINUOUS
10
135.7329699999999946
20
-114.7336710000000011
11
135.6787769999999966
21
-114.8147769999999923
0
LINE
8
BLACK
6
CONTINUOUS
10
135.6787769999999966
20
-114.8147769999999923
11
135.5976709999999912
21
-114.8689699999999903
0
LINE
8
BLACK
6
CONTINUOUS
10
135.5976709999999912
20
-114.8689699999999903
11
135.5019999999999811
21
-114.887999999999991
0
LINE
8
BLACK
6
CONTINUOUS
10
135.5019999999999811
20
-114.887999999999991
11
134.6769999999999925
21
-114.887999999999991
0
LINE
8
BLACK
6
CONTINUOUS
10
134.6769999999999925
20
-114.887999999999991
11
134.5813289999999824
21
-114.8689699999999903
0
LINE
8
BLACK
6
CONTINUOUS
10
134.5813289999999824
20
-114.8689699999999903
11
134.5002230000000054
21
-114.8147769999999923
0
LINE
8
BLACK
6
CONTINUOUS
10
134.5002230000000054
20
-114.8147769999999923
11
134.4460300000000075
21
-114.7336710000000011
0
LINE
8
BLACK
6
CONTINUOUS
10
134.4460300000000075
20
-114.7336710000000011
11
134.4269999999999925
21
-114.637999999999991
0
LINE
8
BLACK
6
CONTINUOUS
10
134.4269999999999925
20
-114.637999999999991
11
134.4269999999999925
21
-112.4379999999999882
0
LINE
8
BLACK
6
CONTINUOUS
10
134.4269999999999925
20
-112.4379999999999882
11
134.4460300000000075
21
-112.3423289999999923
0
LINE
8
BLACK
6
CONTINUOUS
10
134.4460300000000075
20
-112.3423289999999923
11
134.5002230000000054
21
-112.2612230000000011
0
LINE
8
BLACK
6
CONTINUOUS
10
134.5002230000000054
20
-112.2612230000000011
11
134.5813289999999824
21
-112.2070299999999889
0
LINE
8
BLACK
6
CONTINUOUS
10
134.5813289999999824
20
-112.2070299999999889
11
134.6769999999999925
21
-112.1879999999999882
0
LINE
8
BLACK
6
CONTINUOUS
10
134.6769999999999925
20
-112.1879999999999882
11
135.5019999999999811
21
-112.1879999999999882
0
LINE
8
BLACK
6
CONTINUOUS
10
135.5019999999999811
20
-112.1879999999999882
11
135.5976709999999912
21
-112.2070299999999889
0
LINE
8
BLACK
6
CONTINUOUS
10
138.7226709999999912
20
-112.2070299999999889
11
138.8037769999999966
21
-112.2612230000000011
0
LINE
8
BLACK
6
CONTINUOUS
10
138.8037769999999966
20
-112.2612230000000011
11
138.8579699999999946
21
-112.3423289999999923
0
LINE
8
BLACK
6
CONTINUOUS
10
138.8579699999999946
20
-112.3423289999999923
11
138.8769999999999811
21
-112.4379999999999882
0
LINE
8
BLACK
6
CONTINUOUS
10
138.8769999999999811
20
-112.4379999999999882
11
138.8769999999999811
21
-114.637999999999991
0
LINE
8
BLACK
6
CONTINUOUS
10
138.8769999999999811
20
-114.637999999999991
11
138.8579699999999946
21
-114.7336710000000011
0
LINE
8
BLACK
6
CONTINUOUS
10
138.8579699999999946
20
-114.7336710000000011
11
138.8037769999999966
21
-114.8147769999999923
0
LINE
8
BLACK
6
CONTINUOUS
10
138.8037769999999966
20
-114.8147769999999923
11
138.7226709999999912
21
-114.8689699999999903
0
LINE
8
BLACK
6
CONTINUOUS
10
138.7226709999999912
20
-114.8689699999999903
11
138.6269999999999811
21
-114.887999999999991
0
LINE
8
BLACK
6
CONTINUOUS
10
138.6269999999999811
20
-114.887999999999991
11
137.8019999999999925
21
-114.887999999999991
0
LINE
8
BLACK
6
CONTINUOUS
10
137.8019999999999925
20
-114.887999999999991
11
137.7063289999999824
21
-114.8689699999999903
0
LINE
8
BLACK
6
CONTINUOUS
10
137.7063289999999824
20
-114.8689699999999903
11
137.6252230000000054
21
-114.8147769999999923
0
LINE
8
BLACK
6
CONTINUOUS
10
137.6252230000000054
20
-114.8147769999999923
11
137.5710300000000075
21
-114.7336710000000011
0
LINE
8
BLACK
6
CONTINUOUS
10
137.5710300000000075
20
-114.7336710000000011
11
137.5519999999999925
21
-114.637999999999991
0
LINE
8
BLACK
6
CONTINUOUS
10
137.5519999999999925
20
-114.637999999999991
11
137.5519999999999925
21
-112.4379999999999882
0
LINE
8
BLACK
6
CONTINUOUS
10
137.5519999999999925
20
-112.4379999999999882
11
137.5710300000000075
21
-112.3423289999999923
0
LINE
8
BLACK
6
CONTINUOUS
10
137.5710300000000075
20
-112.3423289999999923
11
137.6252230000000054
21
-112.2612230000000011
0
LINE
8
BLACK
6
CONTINUOUS
10
137.6252230000000054
20
-112.2612230000000011
11
137.7063289999999824
21
-112.2070299999999889
0
LINE
8
BLACK
6
CONTINUOUS
10
137.7063289999999824
20
-112.2070299999999889
11
137.8019999999999925
21
-112.1879999999999882
0
LINE
8
BLACK
6
CONTINUOUS
10
137.8019999999999925
20
-112.1879999999999882
11
138.6269999999999811
21
-112.1879999999999882
0
LINE
8
BLACK
6
CONTINUOUS
10
138.6269999999999811
20
-112.1879999999999882
11
138.7226709999999912
21
-112.2070299999999889
0
LINE
8
BLACK
6
CONTINUOUS
10
141.185670999999985
20
-112.2070299999999889
11
141.2667769999999905
21
-112.2612230000000011
0
LINE
8
BLACK
6
CONTINUOUS
10
141.2667769999999905
20
-112.2612230000000011
11
141.3209699999999884
21
-112.3423289999999923
0
LINE
8
BLACK
6
CONTINUOUS
10
141.3209699999999884
20
-112.3423289999999923
11
141.3400000000000034
21
-112.4379999999999882
0
LINE
8
BLACK
6
CONTINUOUS
10
141.3400000000000034
20
-112.4379999999999882
11
141.3400000000000034
21
-114.637999999999991
0
LINE
8
BLACK
6
CONTINUOUS
10
141.3400000000000034
20
-114.637999999999991
11
141.3209699999999884
21
-114.7336710000000011
0
LINE
8
BLACK
6
CONTINUOUS
10
141.3209699999999884
20
-114.7336710000000011
11
141.2667769999999905
21
-114.8147769999999923
0
LINE
8
BLACK
6
CONTINUOUS
10
141.2667769999999905
20
-114.8147769999999923
11
141.185670999999985
21
-114.8689699999999903
0
LINE
8
BLACK
6
CONTINUOUS
10
141.185670999999985
20
-114.8689699999999903
11
141.0900000000000034
21
-114.887999999999991
0
LINE
8
BLACK
6
CONTINUOUS
10
141.0900000000000034
20
-114.887999999999991
11
140.2649999999999864
21
-114.887999999999991
0
LINE
8
BLACK
6
CONTINUOUS
10
140.2649999999999864
20
-114.887999999999991
11
140.1693290000000047
21
-114.8689699999999903
0
LINE
8
BLACK
6
CONTINUOUS
10
140.1693290000000047
20
-114.8689699999999903
11
140.0882229999999993
21
-114.8147769999999923
0
LINE
8
BLACK
6
CONTINUOUS
10
140.0882229999999993
20
-114.8147769999999923
11
140.0340300000000013
21
-114.7336710000000011
0
LINE
8
BLACK
6
CONTINUOUS
10
140.0340300000000013
20
-114.7336710000000011
11
140.0149999999999864
21
-114.637999999999991
0
LINE
8
BLACK
6
CONTINUOUS
10
140.0149999999999864
20
-114.637999999999991
11
140.0149999999999864
21
-112.4379999999999882
0
LINE
8
BLACK
6
CONTINUOUS
10
140.0149999999999864
20
-112.4379999999999882
11
140.0340300000000013
21
-112.3423289999999923
0
LINE
8
BLACK
6
CONTINUOUS
10
140.0340300000000013
20
-112.3423289999999923
11
140.0882229999999993
21
-112.2612230000000011
0
LINE
8
BLACK
6
CONTINUOUS
10
140.0882229999999993
20
-112.2612230000000011
11
140.1693290000000047
21
-112.2070299999999889
0
LINE
8
BLACK
6
CONTINUOUS
10
140.1693290000000047
20
-112.2070299999999889
11
140.2649999999999864
21
-112.1879999999999882
0
LINE
8
BLACK
6
CONTINUOUS
10
140.2649999999999864
20
-112.1879999999999882
11
141.0900000000000034
21
-112.1879999999999882
0
LINE
8
BLACK
6
CONTINUOUS
10
141.0900000000000034
20
-112.1879999999999882
11
141.185670999999985
21
-112.2070299999999889
0
LINE
8
BLACK
6
CONTINUOUS
10
144.310670999999985
20
-112.2070299999999889
11
144.3917769999999905
21
-112.2612230000000011
0
LINE
8
BLACK
6
CONTINUOUS
10
144.3917769999999905
20
-112.2612230000000011
11
144.4459699999999884
21
-112.3423289999999923
0
LINE
8
BLACK
6
CONTINUOUS
10
144.4459699999999884
20
-112.3423289999999923
11
144.4650000000000034
21
-112.4379999999999882
0
LINE
8
BLACK
6
CONTINUOUS
10
144.4650000000000034
20
-112.4379999999999882
11
144.4650000000000034
21
-114.637999999999991
0
LINE
8
BLACK
6
CONTINUOUS
10
144.4650000000000034
20
-114.637999999999991
11
144.4459699999999884
21
-114.7336710000000011
0
LINE
8
BLACK
6
CONTINUOUS
10
144.4459699999999884
20
-114.7336710000000011
11
144.3917769999999905
21
-114.8147769999999923
0
LINE
8
BLACK
6
CONTINUOUS
10
144.3917769999999905
20
-114.8147769999999923
11
144.310670999999985
21
-114.8689699999999903
0
LINE
8
BLACK
6
CONTINUOUS
10
144.310670999999985
20
-114.8689699999999903
11
144.2150000000000034
21
-114.887999999999991
0
LINE
8
BLACK
6
CONTINUOUS
10
144.2150000000000034
20
-114.887999999999991
11
143.3899999999999864
21
-114.887999999999991
0
LINE
8
BLACK
6
CONTINUOUS
10
143.3899999999999864
20
-114.887999999999991
11
143.2943290000000047
21
-114.8689699999999903
0
LINE
8
BLACK
6
CONTINUOUS
10
143.2943290000000047
20
-114.8689699999999903
11
143.2132229999999993
21
-114.8147769999999923
0
LINE
8
BLACK
6
CONTINUOUS
10
143.2132229999999993
20
-114.8147769999999923
11
143.1590300000000013
21
-114.7336710000000011
0
LINE
8
BLACK
6
CONTINUOUS
10
143.1590300000000013
20
-114.7336710000000011
11
143.1399999999999864
21
-114.637999999999991
0
LINE
8
BLACK
6
CONTINUOUS
10
143.1399999999999864
20
-114.637999999999991
11
143.1399999999999864
21
-112.4379999999999882
0
LINE
8
BLACK
6
CONTINUOUS
10
143.1399999999999864
20
-112.4379999999999882
11
143.1590300000000013
21
-112.3423289999999923
0
LINE
8
BLACK
6
CONTINUOUS
10
143.1590300000000013
20
-112.3423289999999923
11
143.2132229999999993
21
-112.2612230000000011
0
LINE
8
BLACK
6
CONTINUOUS
10
143.2132229999999993
20
-112.2612230000000011
11
143.2943290000000047
21
-112.2070299999999889
0
LINE
8
BLACK
6
CONTINUOUS
10
143.2943290000000047
20
-112.2070299999999889
11
143.3899999999999864
21
-112.1879999999999882
0
LINE
8
BLACK
6
CONTINUOUS
10
143.3899999999999864
20
-112.1879999999999882
11
144.2150000000000034
21
-112.1879999999999882
0
LINE
8
BLACK
6
CONTINUOUS
10
144.2150000000000034
20
-112.1879999999999882
11
144.310670999999985
21
-112.2070299999999889
0
LINE
8
BLACK
6
CONTINUOUS
10
147.027670999999998
20
-112.2070299999999889
11
147.1087770000000035
21
-112.2612230000000011
0
LINE
8
BLACK
6
CONTINUOUS
10
147.1087770000000035
20
-112.2612230000000011
11
147.1629700000000014
21
-112.3423289999999923
0
LINE
8
BLACK
6
CONTINUOUS
10
147.1629700000000014
20
-112.3423289999999923
11
147.1819999999999879
21
-112.4379999999999882
0
LINE
8
BLACK
6
CONTINUOUS
10
147.1819999999999879
20
-112.4379999999999882
11
147.1819999999999879
21
-114.637999999999991
0
LINE
8
BLACK
6
CONTINUOUS
10
147.1819999999999879
20
-114.637999999999991
11
147.1629700000000014
21
-114.7336710000000011
0
LINE
8
BLACK
6
CONTINUOUS
10
147.1629700000000014
20
-114.7336710000000011
11
147.1087770000000035
21
-114.8147769999999923
0
LINE
8
BLACK
6
CONTINUOUS
10
147.1087770000000035
20
-114.8147769999999923
11
147.027670999999998
21
-114.8689699999999903
0
LINE
8
BLACK
6
CONTINUOUS
10
147.027670999999998
20
-114.8689699999999903
11
146.9319999999999879
21
-114.887999999999991
0
LINE
8
BLACK
6
CONTINUOUS
10
146.9319999999999879
20
-114.887999999999991
11
146.1069999999999993
21
-114.887999999999991
0
LINE
8
BLACK
6
CONTINUOUS
10
146.1069999999999993
20
-114.887999999999991
11
146.0113289999999893
21
-114.8689699999999903
0
LINE
8
BLACK
6
CONTINUOUS
10
146.0113289999999893
20
-114.8689699999999903
11
145.9302229999999838
21
-114.8147769999999923
0
LINE
8
BLACK
6
CONTINUOUS
10
145.9302229999999838
20
-114.8147769999999923
11
145.8760299999999859
21
-114.7336710000000011
0
LINE
8
BLACK
6
CONTINUOUS
10
145.8760299999999859
20
-114.7336710000000011
11
145.8569999999999993
21
-114.637999999999991
0
LINE
8
BLACK
6
CONTINUOUS
10
145.8569999999999993
20
-114.637999999999991
11
145.8569999999999993
21
-112.4379999999999882
0
LINE
8
BLACK
6
CONTINUOUS
10
145.8569999999999993
20
-112.4379999999999882
11
145.8760299999999859
21
-112.3423289999999923
0
LINE
8
BLACK
6
CONTINUOUS
10
145.8760299999999859
20
-112.3423289999999923
11
145.9302229999999838
21
-112.2612230000000011
0
LINE
8
BLACK
6
CONTINUOUS
10
145.9302229999999838
20
-112.2612230000000011
11
146.0113289999999893
21
-112.2070299999999889
0
LINE
8
BLACK
6
CONTINUOUS
10
146.0113289999999893
20
-112.2070299999999889
11
146.1069999999999993
21
-112.1879999999999882
0
LINE
8
BLACK
6
CONTINUOUS
10
146.1069999999999993
20
-112.1879999999999882
11
146.9319999999999879
21
-112.1879999999999882
0
LINE
8
BLACK
6
CONTINUOUS
10
146.9319999999999879
20
-112.1879999999999882
11
147.027670999999998
21
-112.2070299999999889
0
LINE
8
BLACK
6
CONTINUOUS
10
150.152670999999998
20
-112.2070299999999889
11
150.2337770000000035
21
-112.2612230000000011
0
LINE
8
BLACK
6
CONTINUOUS
10
150.2337770000000035
20
-112.2612230000000011
11
150.2879700000000014
21
-112.3423289999999923
0
LINE
8
BLACK
6
CONTINUOUS
10
150.2879700000000014
20
-112.3423289999999923
11
150.3069999999999879
21
-112.4379999999999882
0
LINE
8
BLACK
6
CONTINUOUS
10
150.3069999999999879
20
-112.4379999999999882
11
150.3069999999999879
21
-114.637999999999991
0
LINE
8
BLACK
6
CONTINUOUS
10
150.3069999999999879
20
-114.637999999999991
11
150.2879700000000014
21
-114.7336710000000011
0
LINE
8
BLACK
6
CONTINUOUS
10
150.2879700000000014
20
-114.7336710000000011
11
150.2337770000000035
21
-114.8147769999999923
0
LINE
8
BLACK
6
CONTINUOUS
10
150.2337770000000035
20
-114.8147769999999923
11
150.152670999999998
21
-114.8689699999999903
0
LINE
8
BLACK
6
CONTINUOUS
10
150.152670999999998
20
-114.8689699999999903
11
150.0569999999999879
21
-114.887999999999991
0
LINE
8
BLACK
6
CONTINUOUS
10
150.0569999999999879
20
-114.887999999999991
11
149.2319999999999993
21
-114.887999999999991
0
LINE
8
BLACK
6
CONTINUOUS
10
149.2319999999999993
20
-114.887999999999991
11
149.1363289999999893
21
-114.8689699999999903
0
LINE
8
BLACK
6
CONTINUOUS
10
149.1363289999999893
20
-114.8689699999999903
11
149.0552229999999838
21
-114.8147769999999923
0
LINE
8
BLACK
6
CONTINUOUS
10
149.0552229999999838
20
-114.8147769999999923
11
149.0010299999999859
21
-114.7336710000000011
0
LINE
8
BLACK
6
CONTINUOUS
10
149.0010299999999859
20
-114.7336710000000011
11
148.9819999999999993
21
-114.637999999999991
0
LINE
8
BLACK
6
CONTINUOUS
10
148.9819999999999993
20
-114.637999999999991
11
148.9819999999999993
21
-112.4379999999999882
0
LINE
8
BLACK
6
CONTINUOUS
10
148.9819999999999993
20
-112.4379999999999882
11
149.0010299999999859
21
-112.3423289999999923
0
LINE
8
BLACK
6
CONTINUOUS
10
149.0010299999999859
20
-112.3423289999999923
11
149.0552229999999838
21
-112.2612230000000011
0
LINE
8
BLACK
6
CONTINUOUS
10
149.0552229999999838
20
-112.2612230000000011
11
149.1363289999999893
21
-112.2070299999999889
0
LINE
8
BLACK
6
CONTINUOUS
10
149.1363289999999893
20
-112.2070299999999889
11
149.2319999999999993
21
-112.1879999999999882
0
LINE
8
BLACK
6
CONTINUOUS
10
149.2319999999999993
20
-112.1879999999999882
11
150.0569999999999879
21
-112.1879999999999882
0
LINE
8
BLACK
6
CONTINUOUS
10
150.0569999999999879
20
-112.1879999999999882
11
150.152670999999998
21
-112.2070299999999889
0
LINE
8
BLACK
6
CONTINUOUS
10
135.5976709999999912
20
-108.6510299999999916
11
135.6787769999999966
21
-108.7052229999999895
0
LINE
8
BLACK
6
CONTINUOUS
10
135.6787769999999966
20
-108.7052229999999895
11
135.7329699999999946
21
-108.7863289999999949
0
LINE
8
BLACK
6
CONTINUOUS
10
135.7329699999999946
20
-108.7863289999999949
11
135.7519999999999811
21
-108.8819999999999908
0
LINE
8
BLACK
6
CONTINUOUS
10
135.7519999999999811
20
-108.8819999999999908
11
135.7519999999999811
21
-111.0819999999999936
0
LINE
8
BLACK
6
CONTINUOUS
10
135.7519999999999811
20
-111.0819999999999936
11
135.7329699999999946
21
-111.1776709999999895
0
LINE
8
BLACK
6
CONTINUOUS
10
135.7329699999999946
20
-111.1776709999999895
11
135.6787769999999966
21
-111.2587769999999949
0
LINE
8
BLACK
6
CONTINUOUS
10
135.6787769999999966
20
-111.2587769999999949
11
135.5976709999999912
21
-111.3129699999999929
0
LINE
8
BLACK
6
CONTINUOUS
10
135.5976709999999912
20
-111.3129699999999929
11
135.5019999999999811
21
-111.3319999999999936
0
LINE
8
BLACK
6
CONTINUOUS
10
135.5019999999999811
20
-111.3319999999999936
11
134.6769999999999925
21
-111.3319999999999936
0
LINE
8
BLACK
6
CONTINUOUS
10
134.6769999999999925
20
-111.3319999999999936
11
134.5813289999999824
21
-111.3129699999999929
0
LINE
8
BLACK
6
CONTINUOUS
10
134.5813289999999824
20
-111.3129699999999929
11
134.5002230000000054
21
-111.2587769999999949
0
LINE
8
BLACK
6
CONTINUOUS
10
134.5002230000000054
20
-111.2587769999999949
11
134.4460300000000075
21
-111.1776709999999895
0
LINE
8
BLACK
6
CONTINUOUS
10
134.4460300000000075
20
-111.1776709999999895
11
134.4269999999999925
21
-111.0819999999999936
0
LINE
8
BLACK
6
CONTINUOUS
10
134.4269999999999925
20
-111.0819999999999936
11
134.4269999999999925
21
-108.8819999999999908
0
LINE
8
BLACK
6
CONTINUOUS
10
134.4269999999999925
20
-108.8819999999999908
11
134.4460300000000075
21
-108.7863289999999949
0
LINE
8
BLACK
6
CONTINUOUS
10
134.4460300000000075
20
-108.7863289999999949
11
134.5002230000000054
21
-108.7052229999999895
0
LINE
8
BLACK
6
CONTINUOUS
10
134.5002230000000054
20
-108.7052229999999895
11
134.5813289999999824
21
-108.6510299999999916
0
LINE
8
BLACK
6
CONTINUOUS
10
134.5813289999999824
20
-108.6510299999999916
11
134.6769999999999925
21
-108.6319999999999908
0
LINE
8
BLACK
6
CONTINUOUS
10
134.6769999999999925
20
-108.6319999999999908
11
135.5019999999999811
21
-108.6319999999999908
0
LINE
8
BLACK
6
CONTINUOUS
10
135.5019999999999811
20
-108.6319999999999908
11
135.5976709999999912
21
-108.6510299999999916
0
LINE
8
BLACK
6
CONTINUOUS
10
138.7226709999999912
20
-108.6510299999999916
11
138.8037769999999966
21
-108.7052229999999895
0
LINE
8
BLACK
6
CONTINUOUS
10
138.8037769999999966
20
-108.7052229999999895
11
138.8579699999999946
21
-108.7863289999999949
0
LINE
8
BLACK
6
CONTINUOUS
10
138.8579699999999946
20
-108.7863289999999949
11
138.8769999999999811
21
-108.8819999999999908
0
LINE
8
BLACK
6
CONTINUOUS
10
138.8769999999999811
20
-108.8819999999999908
11
138.8769999999999811
21
-111.0819999999999936
0
LINE
8
BLACK
6
CONTINUOUS
10
138.8769999999999811
20
-111.0819999999999936
11
138.8579699999999946
21
-111.1776709999999895
0
LINE
8
BLACK
6
CONTINUOUS
10
138.8579699999999946
20
-111.1776709999999895
11
138.8037769999999966
21
-111.2587769999999949
0
LINE
8
BLACK
6
CONTINUOUS
10
138.8037769999999966
20
-111.2587769999999949
11
138.7226709999999912
21
-111.3129699999999929
0
LINE
8
BLACK
6
CONTINUOUS
10
138.7226709999999912
20
-111.3129699999999929
11
138.6269999999999811
21
-111.3319999999999936
0
LINE
8
BLACK
6
CONTINUOUS
10
138.6269999999999811
20
-111.3319999999999936
11
137.8019999999999925
21
-111.3319999999999936
0
LINE
8
BLACK
6
CONTINUOUS
10
137.8019999999999925
20
-111.3319999999999936
11
137.7063289999999824
21
-111.3129699999999929
0
LINE
8
BLACK
6
CONTINUOUS
10
137.7063289999999824
20
-111.3129699999999929
11
137.6252230000000054
21
-111.2587769999999949
0
LINE
8
BLACK
6
CONTINUOUS
10
137.6252230000000054
20
-111.2587769999999949
11
137.5710300000000075
21
-111.1776709999999895
0
LINE
8
BLACK
6
CONTINUOUS
10
137.5710300000000075
20
-111.1776709999999895
11
137.5519999999999925
21
-111.0819999999999936
0
LINE
8
BLACK
6
CONTINUOUS
10
137.5519999999999925
20
-111.0819999999999936
11
137.5519999999999925
21
-108.8819999999999908
0
LINE
8
BLACK
6
CONTINUOUS
10
137.5519999999999925
20
-108.8819999999999908
11
137.5710300000000075
21
-108.7863289999999949
0
LINE
8
BLACK
6
CONTINUOUS
10
137.5710300000000075
20
-108.7863289999999949
11
137.6252230000000054
21
-108.7052229999999895
0
LINE
8
BLACK
6
CONTINUOUS
10
137.6252230000000054
20
-108.7052229999999895
11
137.7063289999999824
21
-108.6510299999999916
0
LINE
8
BLACK
6
CONTINUOUS
10
137.7063289999999824
20
-108.6510299999999916
11
137.8019999999999925
21
-108.6319999999999908
0
LINE
8
BLACK
6
CONTINUOUS
10
137.8019999999999925
20
-108.6319999999999908
11
138.6269999999999811
21
-108.6319999999999908
0
LINE
8
BLACK
6
CONTINUOUS
10
138.6269999999999811
20
-108.6319999999999908
11
138.7226709999999912
21
-108.6510299999999916
0
LINE
8
BLACK
6
CONTINUOUS
10
141.2241709999999841
20
-108.6510299999999916
11
141.3052769999999896
21
-108.7052229999999895
0
LINE
8
BLACK
6
CONTINUOUS
10
141.3052769999999896
20
-108.7052229999999895
11
141.3594699999999875
21
-108.7863289999999949
0
LINE
8
BLACK
6
CONTINUOUS
10
141.3594699999999875
20
-108.7863289999999949
11
141.3785000000000025
21
-108.8819999999999908
0
LINE
8
BLACK
6
CONTINUOUS
10
141.3785000000000025
20
-108.8819999999999908
11
141.3785000000000025
21
-111.0819999999999936
0
LINE
8
BLACK
6
CONTINUOUS
10
141.3785000000000025
20
-111.0819999999999936
11
141.3594699999999875
21
-111.1776709999999895
0
LINE
8
BLACK
6
CONTINUOUS
10
141.3594699999999875
20
-111.1776709999999895
11
141.3052769999999896
21
-111.2587769999999949
0
LINE
8
BLACK
6
CONTINUOUS
10
141.3052769999999896
20
-111.2587769999999949
11
141.2241709999999841
21
-111.3129699999999929
0
LINE
8
BLACK
6
CONTINUOUS
10
141.2241709999999841
20
-111.3129699999999929
11
141.1285000000000025
21
-111.3319999999999936
0
LINE
8
BLACK
6
CONTINUOUS
10
141.1285000000000025
20
-111.3319999999999936
11
140.3034999999999854
21
-111.3319999999999936
0
LINE
8
BLACK
6
CONTINUOUS
10
140.3034999999999854
20
-111.3319999999999936
11
140.2078290000000038
21
-111.3129699999999929
0
LINE
8
BLACK
6
CONTINUOUS
10
140.2078290000000038
20
-111.3129699999999929
11
140.1267229999999984
21
-111.2587769999999949
0
LINE
8
BLACK
6
CONTINUOUS
10
140.1267229999999984
20
-111.2587769999999949
11
140.0725300000000004
21
-111.1776709999999895
0
LINE
8
BLACK
6
CONTINUOUS
10
140.0725300000000004
20
-111.1776709999999895
11
140.0534999999999854
21
-111.0819999999999936
0
LINE
8
BLACK
6
CONTINUOUS
10
140.0534999999999854
20
-111.0819999999999936
11
140.0534999999999854
21
-108.8819999999999908
0
LINE
8
BLACK
6
CONTINUOUS
10
140.0534999999999854
20
-108.8819999999999908
11
140.0725300000000004
21
-108.7863289999999949
0
LINE
8
BLACK
6
CONTINUOUS
10
140.0725300000000004
20
-108.7863289999999949
11
140.1267229999999984
21
-108.7052229999999895
0
LINE
8
BLACK
6
CONTINUOUS
10
140.1267229999999984
20
-108.7052229999999895
11
140.2078290000000038
21
-108.6510299999999916
0
LINE
8
BLACK
6
CONTINUOUS
10
140.2078290000000038
20
-108.6510299999999916
11
140.3034999999999854
21
-108.6319999999999908
0
LINE
8
BLACK
6
CONTINUOUS
10
140.3034999999999854
20
-108.6319999999999908
11
141.1285000000000025
21
-108.6319999999999908
0
LINE
8
BLACK
6
CONTINUOUS
10
141.1285000000000025
20
-108.6319999999999908
11
141.2241709999999841
21
-108.6510299999999916
0
LINE
8
BLACK
6
CONTINUOUS
10
144.3491709999999841
20
-108.6510299999999916
11
144.4302769999999896
21
-108.7052229999999895
0
LINE
8
BLACK
6
CONTINUOUS
10
144.4302769999999896
20
-108.7052229999999895
11
144.4844699999999875
21
-108.7863289999999949
0
LINE
8
BLACK
6
CONTINUOUS
10
144.4844699999999875
20
-108.7863289999999949
11
144.5035000000000025
21
-108.8819999999999908
0
LINE
8
BLACK
6
CONTINUOUS
10
144.5035000000000025
20
-108.8819999999999908
11
144.5035000000000025
21
-111.0819999999999936
0
LINE
8
BLACK
6
CONTINUOUS
10
144.5035000000000025
20
-111.0819999999999936
11
144.4844699999999875
21
-111.1776709999999895
0
LINE
8
BLACK
6
CONTINUOUS
10
144.4844699999999875
20
-111.1776709999999895
11
144.4302769999999896
21
-111.2587769999999949
0
LINE
8
BLACK
6
CONTINUOUS
10
144.4302769999999896
20
-111.2587769999999949
11
144.3491709999999841
21
-111.3129699999999929
0
LINE
8
BLACK
6
CONTINUOUS
10
144.3491709999999841
20
-111.3129699999999929
11
144.2535000000000025
21
-111.3319999999999936
0
LINE
8
BLACK
6
CONTINUOUS
10
144.2535000000000025
20
-111.3319999999999936
11
143.4284999999999854
21
-111.3319999999999936
0
LINE
8
BLACK
6
CONTINUOUS
10
143.4284999999999854
20
-111.3319999999999936
11
143.3328290000000038
21
-111.3129699999999929
0
LINE
8
BLACK
6
CONTINUOUS
10
143.3328290000000038
20
-111.3129699999999929
11
143.2517229999999984
21
-111.2587769999999949
0
LINE
8
BLACK
6
CONTINUOUS
10
143.2517229999999984
20
-111.2587769999999949
11
143.1975300000000004
21
-111.1776709999999895
0
LINE
8
BLACK
6
CONTINUOUS
10
143.1975300000000004
20
-111.1776709999999895
11
143.1784999999999854
21
-111.0819999999999936
0
LINE
8
BLACK
6
CONTINUOUS
10
143.1784999999999854
20
-111.0819999999999936
11
143.1784999999999854
21
-108.8819999999999908
0
LINE
8
BLACK
6
CONTINUOUS
10
143.1784999999999854
20
-108.8819999999999908
11
143.1975300000000004
21
-108.7863289999999949
0
LINE
8
BLACK
6
CONTINUOUS
10
143.1975300000000004
20
-108.7863289999999949
11
143.2517229999999984
21
-108.7052229999999895
0
LINE
8
BLACK
6
CONTINUOUS
10
143.2517229999999984
20
-108.7052229999999895
11
143.3328290000000038
21
-108.6510299999999916
0
LINE
8
BLACK
6
CONTINUOUS
10
143.3328290000000038
20
-108.6510299999999916
11
143.4284999999999854
21
-108.6319999999999908
0
LINE
8
BLACK
6
CONTINUOUS
10
143.4284999999999854
20
-108.6319999999999908
11
144.2535000000000025
21
-108.6319999999999908
0
LINE
8
BLACK
6
CONTINUOUS
10
144.2535000000000025
20
-108.6319999999999908
11
144.3491709999999841
21
-108.6510299999999916
0
LINE
8
BLACK
6
CONTINUOUS
10
147.027670999999998
20
-108.6510299999999916
11
147.1087770000000035
21
-108.7052229999999895
0
LINE
8
BLACK
6
CONTINUOUS
10
147.1087770000000035
20
-108.7052229999999895
11
147.1629700000000014
21
-108.7863289999999949
0
LINE
8
BLACK
6
CONTINUOUS
10
147.1629700000000014
20
-108.7863289999999949
11
147.1819999999999879
21
-108.8819999999999908
0
LINE
8
BLACK
6
CONTINUOUS
10
147.1819999999999879
20
-108.8819999999999908
11
147.1819999999999879
21
-111.0819999999999936
0
LINE
8
BLACK
6
CONTINUOUS
10
147.1819999999999879
20
-111.0819999999999936
11
147.1629700000000014
21
-111.1776709999999895
0
LINE
8
BLACK
6
CONTINUOUS
10
147.1629700000000014
20
-111.1776709999999895
11
147.1087770000000035
21
-111.2587769999999949
0
LINE
8
BLACK
6
CONTINUOUS
10
147.1087770000000035
20
-111.2587769999999949
11
147.027670999999998
21
-111.3129699999999929
0
LINE
8
BLACK
6
CONTINUOUS
10
147.027670999999998
20
-111.3129699999999929
11
146.9319999999999879
21
-111.3319999999999936
0
LINE
8
BLACK
6
CONTINUOUS
10
146.9319999999999879
20
-111.3319999999999936
11
146.1069999999999993
21
-111.3319999999999936
0
LINE
8
BLACK
6
CONTINUOUS
10
146.1069999999999993
20
-111.3319999999999936
11
146.0113289999999893
21
-111.3129699999999929
0
LINE
8
BLACK
6
CONTINUOUS
10
146.0113289999999893
20
-111.3129699999999929
11
145.9302229999999838
21
-111.2587769999999949
0
LINE
8
BLACK
6
CONTINUOUS
10
145.9302229999999838
20
-111.2587769999999949
11
145.8760299999999859
21
-111.1776709999999895
0
LINE
8
BLACK
6
CONTINUOUS
10
145.8760299999999859
20
-111.1776709999999895
11
145.8569999999999993
21
-111.0819999999999936
0
LINE
8
BLACK
6
CONTINUOUS
10
145.8569999999999993
20
-111.0819999999999936
11
145.8569999999999993
21
-108.8819999999999908
0
LINE
8
BLACK
6
CONTINUOUS
10
145.8569999999999993
20
-108.8819999999999908
11
145.8760299999999859
21
-108.7863289999999949
0
LINE
8
BLACK
6
CONTINUOUS
10
145.8760299999999859
20
-108.7863289999999949
11
145.9302229999999838
21
-108.7052229999999895
0
LINE
8
BLACK
6
CONTINUOUS
10
145.9302229999999838
20
-108.7052229999999895
11
146.0113289999999893
21
-108.6510299999999916
0
LINE
8
BLACK
6
CONTINUOUS
10
146.0113289999999893
20
-108.6510299999999916
11
146.1069999999999993
21
-108.6319999999999908
0
LINE
8
BLACK
6
CONTINUOUS
10
146.1069999999999993
20
-108.6319999999999908
11
146.9319999999999879
21
-108.6319999999999908
0
LINE
8
BLACK
6
CONTINUOUS
10
146.9319999999999879
20
-108.6319999999999908
11
147.027670999999998
21
-108.6510299999999916
0
LINE
8
BLACK
6
CONTINUOUS
10
150.152670999999998
20
-108.6510299999999916
11
150.2337770000000035
21
-108.7052229999999895
0
LINE
8
BLACK
6
CONTINUOUS
10
150.2337770000000035
20
-108.7052229999999895
11
150.2879700000000014
21
-108.7863289999999949
0
LINE
8
BLACK
6
CONTINUOUS
10
150.2879700000000014
20
-108.7863289999999949
11
150.3069999999999879
21
-108.8819999999999908
0
LINE
8
BLACK
6
CONTINUOUS
10
150.3069999999999879
20
-108.8819999999999908
11
150.3069999999999879
21
-111.0819999999999936
0
LINE
8
BLACK
6
CONTINUOUS
10
150.3069999999999879
20
-111.0819999999999936
11
150.2879700000000014
21
-111.1776709999999895
0
LINE
8
BLACK
6
CONTINUOUS
10
150.2879700000000014
20
-111.1776709999999895
11
150.2337770000000035
21
-111.2587769999999949
0
LINE
8
BLACK
6
CONTINUOUS
10
150.2337770000000035
20
-111.2587769999999949
11
150.152670999999998
21
-111.3129699999999929
0
LINE
8
BLACK
6
CONTINUOUS
10
150.152670999999998
20
-111.3129699999999929
11
150.0569999999999879
21
-111.3319999999999936
0
LINE
8
BLACK
6
CONTINUOUS
10
150.0569999999999879
20
-111.3319999999999936
11
149.2319999999999993
21
-111.3319999999999936
0
LINE
8
BLACK
6
CONTINUOUS
10
149.2319999999999993
20
-111.3319999999999936
11
149.1363289999999893
21
-111.3129699999999929
0
LINE
8
BLACK
6
CONTINUOUS
10
149.1363289999999893
20
-111.3129699999999929
11
149.0552229999999838
21
-111.2587769999999949
0
LINE
8
BLACK
6
CONTINUOUS
10
149.0552229999999838
20
-111.2587769999999949
11
149.0010299999999859
21
-111.1776709999999895
0
LINE
8
BLACK
6
CONTINUOUS
10
149.0010299999999859
20
-111.1776709999999895
11
148.9819999999999993
21
-111.0819999999999936
0
LINE
8
BLACK
6
CONTINUOUS
10
148.9819999999999993
20
-111.0819999999999936
11
148.9819999999999993
21
-108.8819999999999908
0
LINE
8
BLACK
6
CONTINUOUS
10
148.9819999999999993
20
-108.8819999999999908
11
149.0010299999999859
21
-108.7863289999999949
0
LINE
8
BLACK
6
CONTINUOUS
10
149.0010299999999859
20
-108.7863289999999949
11
149.0552229999999838
21
-108.7052229999999895
0
LINE
8
BLACK
6
CONTINUOUS
10
149.0552229999999838
20
-108.7052229999999895
11
149.1363289999999893
21
-108.6510299999999916
0
LINE
8
BLACK
6
CONTINUOUS
10
149.1363289999999893
20
-108.6510299999999916
11
149.2319999999999993
21
-108.6319999999999908
0
LINE
8
BLACK
6
CONTINUOUS
10
149.2319999999999993
20
-108.6319999999999908
11
150.0569999999999879
21
-108.6319999999999908
0
LINE
8
BLACK
6
CONTINUOUS
10
150.0569999999999879
20
-108.6319999999999908
11
150.152670999999998
21
-108.6510299999999916
0
LINE
8
BLACK
6
CONTINUOUS
10
135.5976709999999912
20
-105.0950299999999942
11
135.6787769999999966
21
-105.1492229999999921
0
LINE
8
BLACK
6
CONTINUOUS
10
135.6787769999999966
20
-105.1492229999999921
11
135.7329699999999946
21
-105.2303289999999976
0
LINE
8
BLACK
6
CONTINUOUS
10
135.7329699999999946
20
-105.2303289999999976
11
135.7519999999999811
21
-105.3259999999999934
0
LINE
8
BLACK
6
CONTINUOUS
10
135.7519999999999811
20
-105.3259999999999934
11
135.7519999999999811
21
-107.5259999999999962
0
LINE
8
BLACK
6
CONTINUOUS
10
135.7519999999999811
20
-107.5259999999999962
11
135.7329699999999946
21
-107.6216709999999921
0
LINE
8
BLACK
6
CONTINUOUS
10
135.7329699999999946
20
-107.6216709999999921
11
135.6787769999999966
21
-107.7027769999999975
0
LINE
8
BLACK
6
CONTINUOUS
10
135.6787769999999966
20
-107.7027769999999975
11
135.5976709999999912
21
-107.7569699999999955
0
LINE
8
BLACK
6
CONTINUOUS
10
135.5976709999999912
20
-107.7569699999999955
11
135.5019999999999811
21
-107.7759999999999962
0
LINE
8
BLACK
6
CONTINUOUS
10
135.5019999999999811
20
-107.7759999999999962
11
134.6769999999999925
21
-107.7759999999999962
0
LINE
8
BLACK
6
CONTINUOUS
10
134.6769999999999925
20
-107.7759999999999962
11
134.5813289999999824
21
-107.7569699999999955
0
LINE
8
BLACK
6
CONTINUOUS
10
134.5813289999999824
20
-107.7569699999999955
11
134.5002230000000054
21
-107.7027769999999975
0
LINE
8
BLACK
6
CONTINUOUS
10
134.5002230000000054
20
-107.7027769999999975
11
134.4460300000000075
21
-107.6216709999999921
0
LINE
8
BLACK
6
CONTINUOUS
10
134.4460300000000075
20
-107.6216709999999921
11
134.4269999999999925
21
-107.5259999999999962
0
LINE
8
BLACK
6
CONTINUOUS
10
134.4269999999999925
20
-107.5259999999999962
11
134.4269999999999925
21
-105.3259999999999934
0
LINE
8
BLACK
6
CONTINUOUS
10
134.4269999999999925
20
-105.3259999999999934
11
134.4460300000000075
21
-105.2303289999999976
0
LINE
8
BLACK
6
CONTINUOUS
10
134.4460300000000075
20
-105.2303289999999976
11
134.5002230000000054
21
-105.1492229999999921
0
LINE
8
BLACK
6
CONTINUOUS
10
134.5002230000000054
20
-105.1492229999999921
11
134.5813289999999824
21
-105.0950299999999942
0
LINE
8
BLACK
6
CONTINUOUS
10
134.5813289999999824
20
-105.0950299999999942
11
134.6769999999999925
21
-105.0759999999999934
0
LINE
8
BLACK
6
CONTINUOUS
10
134.6769999999999925
20
-105.0759999999999934
11
135.5019999999999811
21
-105.0759999999999934
0
LINE
8
BLACK
6
CONTINUOUS
10
135.5019999999999811
20
-105.0759999999999934
11
135.5976709999999912
21
-105.0950299999999942
0
LINE
8
BLACK
6
CONTINUOUS
10
138.7226709999999912
20
-105.0950299999999942
11
138.8037769999999966
21
-105.1492229999999921
0
LINE
8
BLACK
6
CONTINUOUS
10
138.8037769999999966
20
-105.1492229999999921
11
138.8579699999999946
21
-105.2303289999999976
0
LINE
8
BLACK
6
CONTINUOUS
10
138.8579699999999946
20
-105.2303289999999976
11
138.8769999999999811
21
-105.3259999999999934
0
LINE
8
BLACK
6
CONTINUOUS
10
138.8769999999999811
20
-105.3259999999999934
11
138.8769999999999811
21
-107.5259999999999962
0
LINE
8
BLACK
6
CONTINUOUS
10
138.8769999999999811
20
-107.5259999999999962
11
138.8579699999999946
21
-107.6216709999999921
0
LINE
8
BLACK
6
CONTINUOUS
10
138.8579699999999946
20
-107.6216709999999921
11
138.8037769999999966
21
-107.7027769999999975
0
LINE
8
BLACK
6
CONTINUOUS
10
138.8037769999999966
20
-107.7027769999999975
11
138.7226709999999912
21
-107.7569699999999955
0
LINE
8
BLACK
6
CONTINUOUS
10
138.7226709999999912
20
-107.7569699999999955
11
138.6269999999999811
21
-107.7759999999999962
0
LINE
8
BLACK
6
CONTINUOUS
10
138.6269999999999811
20
-107.7759999999999962
11
137.8019999999999925
21
-107.7759999999999962
0
LINE
8
BLACK
6
CONTINUOUS
10
137.8019999999999925
20
-107.7759999999999962
11
137.7063289999999824
21
-107.7569699999999955
0
LINE
8
BLACK
6
CONTINUOUS
10
137.7063289999999824
20
-107.7569699999999955
11
137.6252230000000054
21
-107.7027769999999975
0
LINE
8
BLACK
6
CONTINUOUS
10
137.6252230000000054
20
-107.7027769999999975
11
137.5710300000000075
21
-107.6216709999999921
0
LINE
8
BLACK
6
CONTINUOUS
10
137.5710300000000075
20
-107.6216709999999921
11
137.5519999999999925
21
-107.5259999999999962
0
LINE
8
BLACK
6
CONTINUOUS
10
137.5519999999999925
20
-107.5259999999999962
11
137.5519999999999925
21
-105.3259999999999934
0
LINE
8
BLACK
6
CONTINUOUS
10
137.5519999999999925
20
-105.3259999999999934
11
137.5710300000000075
21
-105.2303289999999976
0
LINE
8
BLACK
6
CONTINUOUS
10
137.5710300000000075
20
-105.2303289999999976
11
137.6252230000000054
21
-105.1492229999999921
0
LINE
8
BLACK
6
CONTINUOUS
10
137.6252230000000054
20
-105.1492229999999921
11
137.7063289999999824
21
-105.0950299999999942
0
LINE
8
BLACK
6
CONTINUOUS
10
137.7063289999999824
20
-105.0950299999999942
11
137.8019999999999925
21
-105.0759999999999934
0
LINE
8
BLACK
6
CONTINUOUS
10
137.8019999999999925
20
-105.0759999999999934
11
138.6269999999999811
21
-105.0759999999999934
0
LINE
8
BLACK
6
CONTINUOUS
10
138.6269999999999811
20
-105.0759999999999934
11
138.7226709999999912
21
-105.0950299999999942
0
LINE
8
BLACK
6
CONTINUOUS
10
141.2241709999999841
20
-105.0950299999999942
11
141.3052769999999896
21
-105.1492229999999921
0
LINE
8
BLACK
6
CONTINUOUS
10
141.3052769999999896
20
-105.1492229999999921
11
141.3594699999999875
21
-105.2303289999999976
0
LINE
8
BLACK
6
CONTINUOUS
10
141.3594699999999875
20
-105.2303289999999976
11
141.3785000000000025
21
-105.3259999999999934
0
LINE
8
BLACK
6
CONTINUOUS
10
141.3785000000000025
20
-105.3259999999999934
11
141.3785000000000025
21
-107.5259999999999962
0
LINE
8
BLACK
6
CONTINUOUS
10
141.3785000000000025
20
-107.5259999999999962
11
141.3594699999999875
21
-107.6216709999999921
0
LINE
8
BLACK
6
CONTINUOUS
10
141.3594699999999875
20
-107.6216709999999921
11
141.3052769999999896
21
-107.7027769999999975
0
LINE
8
BLACK
6
CONTINUOUS
10
141.3052769999999896
20
-107.7027769999999975
11
141.2241709999999841
21
-107.7569699999999955
0
LINE
8
BLACK
6
CONTINUOUS
10
141.2241709999999841
20
-107.7569699999999955
11
141.1285000000000025
21
-107.7759999999999962
0
LINE
8
BLACK
6
CONTINUOUS
10
141.1285000000000025
20
-107.7759999999999962
11
140.3034999999999854
21
-107.7759999999999962
0
LINE
8
BLACK
6
CONTINUOUS
10
140.3034999999999854
20
-107.7759999999999962
11
140.2078290000000038
21
-107.7569699999999955
0
LINE
8
BLACK
6
CONTINUOUS
10
140.2078290000000038
20
-107.7569699999999955
11
140.1267229999999984
21
-107.7027769999999975
0
LINE
8
BLACK
6
CONTINUOUS
10
140.1267229999999984
20
-107.7027769999999975
11
140.0725300000000004
21
-107.6216709999999921
0
LINE
8
BLACK
6
CONTINUOUS
10
140.0725300000000004
20
-107.6216709999999921
11
140.0534999999999854
21
-107.5259999999999962
0
LINE
8
BLACK
6
CONTINUOUS
10
140.0534999999999854
20
-107.5259999999999962
11
140.0534999999999854
21
-105.3259999999999934
0
LINE
8
BLACK
6
CONTINUOUS
10
140.0534999999999854
20
-105.3259999999999934
11
140.0725300000000004
21
-105.2303289999999976
0
LINE
8
BLACK
6
CONTINUOUS
10
140.0725300000000004
20
-105.2303289999999976
11
140.1267229999999984
21
-105.1492229999999921
0
LINE
8
BLACK
6
CONTINUOUS
10
140.1267229999999984
20
-105.1492229999999921
11
140.2078290000000038
21
-105.0950299999999942
0
LINE
8
BLACK
6
CONTINUOUS
10
140.2078290000000038
20
-105.0950299999999942
11
140.3034999999999854
21
-105.0759999999999934
0
LINE
8
BLACK
6
CONTINUOUS
10
140.3034999999999854
20
-105.0759999999999934
11
141.1285000000000025
21
-105.0759999999999934
0
LINE
8
BLACK
6
CONTINUOUS
10
141.1285000000000025
20
-105.0759999999999934
11
141.2241709999999841
21
-105.0950299999999942
0
LINE
8
BLACK
6
CONTINUOUS
10
144.3491709999999841
20
-105.0950299999999942
11
144.4302769999999896
21
-105.1492229999999921
0
LINE
8
BLACK
6
CONTINUOUS
10
144.4302769999999896
20
-105.1492229999999921
11
144.4844699999999875
21
-105.2303289999999976
0
LINE
8
BLACK
6
CONTINUOUS
10
144.4844699999999875
20
-105.2303289999999976
11
144.5035000000000025
21
-105.3259999999999934
0
LINE
8
BLACK
6
CONTINUOUS
10
144.5035000000000025
20
-105.3259999999999934
11
144.5035000000000025
21
-107.5259999999999962
0
LINE
8
BLACK
6
CONTINUOUS
10
144.5035000000000025
20
-107.5259999999999962
11
144.4844699999999875
21
-107.6216709999999921
0
LINE
8
BLACK
6
CONTINUOUS
10
144.4844699999999875
20
-107.6216709999999921
11
144.4302769999999896
21
-107.7027769999999975
0
LINE
8
BLACK
6
CONTINUOUS
10
144.4302769999999896
20
-107.7027769999999975
11
144.3491709999999841
21
-107.7569699999999955
0
LINE
8
BLACK
6
CONTINUOUS
10
144.3491709999999841
20
-107.7569699999999955
11
144.2535000000000025
21
-107.7759999999999962
0
LINE
8
BLACK
6
CONTINUOUS
10
144.2535000000000025
20
-107.7759999999999962
11
143.4284999999999854
21
-107.7759999999999962
0
LINE
8
BLACK
6
CONTINUOUS
10
143.4284999999999854
20
-107.7759999999999962
11
143.3328290000000038
21
-107.7569699999999955
0
LINE
8
BLACK
6
CONTINUOUS
10
143.3328290000000038
20
-107.7569699999999955
11
143.2517229999999984
21
-107.7027769999999975
0
LINE
8
BLACK
6
CONTINUOUS
10
143.2517229999999984
20
-107.7027769999999975
11
143.1975300000000004
21
-107.6216709999999921
0
LINE
8
BLACK
6
CONTINUOUS
10
143.1975300000000004
20
-107.6216709999999921
11
143.1784999999999854
21
-107.5259999999999962
0
LINE
8
BLACK
6
CONTINUOUS
10
143.1784999999999854
20
-107.5259999999999962
11
143.1784999999999854
21
-105.3259999999999934
0
LINE
8
BLACK
6
CONTINUOUS
10
143.1784999999999854
20
-105.3259999999999934
11
143.1975300000000004
21
-105.2303289999999976
0
LINE
8
BLACK
6
CONTINUOUS
10
143.1975300000000004
20
-105.2303289999999976
11
143.2517229999999984
21
-105.1492229999999921
0
LINE
8
BLACK
6
CONTINUOUS
10
143.2517229999999984
20
-105.1492229999999921
11
143.3328290000000038
21
-105.0950299999999942
0
LINE
8
BLACK
6
CONTINUOUS
10
143.3328290000000038
20
-105.0950299999999942
11
143.4284999999999854
21
-105.0759999999999934
0
LINE
8
BLACK
6
CONTINUOUS
10
143.4284999999999854
20
-105.0759999999999934
11
144.2535000000000025
21
-105.0759999999999934
0
LINE
8
BLACK
6
CONTINUOUS
10
144.2535000000000025
20
-105.0759999999999934
11
144.3491709999999841
21
-105.0950299999999942
0
LINE
8
BLACK
6
CONTINUOUS
10
147.027670999999998
20
-105.0950299999999942
11
147.1087770000000035
21
-105.1492229999999921
0
LINE
8
BLACK
6
CONTINUOUS
10
147.1087770000000035
20
-105.1492229999999921
11
147.1629700000000014
21
-105.2303289999999976
0
LINE
8
BLACK
6
CONTINUOUS
10
147.1629700000000014
20
-105.2303289999999976
11
147.1819999999999879
21
-105.3259999999999934
0
LINE
8
BLACK
6
CONTINUOUS
10
147.1819999999999879
20
-105.3259999999999934
11
147.1819999999999879
21
-107.5259999999999962
0
LINE
8
BLACK
6
CONTINUOUS
10
147.1819999999999879
20
-107.5259999999999962
11
147.1629700000000014
21
-107.6216709999999921
0
LINE
8
BLACK
6
CONTINUOUS
10
147.1629700000000014
20
-107.6216709999999921
11
147.1087770000000035
21
-107.7027769999999975
0
LINE
8
BLACK
6
CONTINUOUS
10
147.1087770000000035
20
-107.7027769999999975
11
147.027670999999998
21
-107.7569699999999955
0
LINE
8
BLACK
6
CONTINUOUS
10
147.027670999999998
20
-107.7569699999999955
11
146.9319999999999879
21
-107.7759999999999962
0
LINE
8
BLACK
6
CONTINUOUS
10
146.9319999999999879
20
-107.7759999999999962
11
146.1069999999999993
21
-107.7759999999999962
0
LINE
8
BLACK
6
CONTINUOUS
10
146.1069999999999993
20
-107.7759999999999962
11
146.0113289999999893
21
-107.7569699999999955
0
LINE
8
BLACK
6
CONTINUOUS
10
146.0113289999999893
20
-107.7569699999999955
11
145.9302229999999838
21
-107.7027769999999975
0
LINE
8
BLACK
6
CONTINUOUS
10
145.9302229999999838
20
-107.7027769999999975
11
145.8760299999999859
21
-107.6216709999999921
0
LINE
8
BLACK
6
CONTINUOUS
10
145.8760299999999859
20
-107.6216709999999921
11
145.8569999999999993
21
-107.5259999999999962
0
LINE
8
BLACK
6
CONTINUOUS
10
145.8569999999999993
20
-107.5259999999999962
11
145.8569999999999993
21
-105.3259999999999934
0
LINE
8
BLACK
6
CONTINUOUS
10
145.8569999999999993
20
-105.3259999999999934
11
145.8760299999999859
21
-105.2303289999999976
0
LINE
8
BLACK
6
CONTINUOUS
10
145.8760299999999859
20
-105.2303289999999976
11
145.9302229999999838
21
-105.1492229999999921
0
LINE
8
BLACK
6
CONTINUOUS
10
145.9302229999999838
20
-105.1492229999999921
11
146.0113289999999893
21
-105.0950299999999942
0
LINE
8
BLACK
6
CONTINUOUS
10
146.0113289999999893
20
-105.0950299999999942
11
146.1069999999999993
21
-105.0759999999999934
0
LINE
8
BLACK
6
CONTINUOUS
10
146.1069999999999993
20
-105.0759999999999934
11
146.9319999999999879
21
-105.0759999999999934
0
LINE
8
BLACK
6
CONTINUOUS
10
146.9319999999999879
20
-105.0759999999999934
11
147.027670999999998
21
-105.0950299999999942
0
LINE
8
BLACK
6
CONTINUOUS
10
150.152670999999998
20
-105.0950299999999942
11
150.2337770000000035
21
-105.1492229999999921
0
LINE
8
BLACK
6
CONTINUOUS
10
150.2337770000000035
20
-105.1492229999999921
11
150.2879700000000014
21
-105.2303289999999976
0
LINE
8
BLACK
6
CONTINUOUS
10
150.2879700000000014
20
-105.2303289999999976
11
150.3069999999999879
21
-105.3259999999999934
0
LINE
8
BLACK
6
CONTINUOUS
10
150.3069999999999879
20
-105.3259999999999934
11
150.3069999999999879
21
-107.5259999999999962
0
LINE
8
BLACK
6
CONTINUOUS
10
150.3069999999999879
20
-107.5259999999999962
11
150.2879700000000014
21
-107.6216709999999921
0
LINE
8
BLACK
6
CONTINUOUS
10
150.2879700000000014
20
-107.6216709999999921
11
150.2337770000000035
21
-107.7027769999999975
0
LINE
8
BLACK
6
CONTINUOUS
10
150.2337770000000035
20
-107.7027769999999975
11
150.152670999999998
21
-107.7569699999999955
0
LINE
8
BLACK
6
CONTINUOUS
10
150.152670999999998
20
-107.7569699999999955
11
150.0569999999999879
21
-107.7759999999999962
0
LINE
8
BLACK
6
CONTINUOUS
10
150.0569999999999879
20
-107.7759999999999962
11
149.2319999999999993
21
-107.7759999999999962
0
LINE
8
BLACK
6
CONTINUOUS
10
149.2319999999999993
20
-107.7759999999999962
11
149.1363289999999893
21
-107.7569699999999955
0
LINE
8
BLACK
6
CONTINUOUS
10
149.1363289999999893
20
-107.7569699999999955
11
149.0552229999999838
21
-107.7027769999999975
0
LINE
8
BLACK
6
CONTINUOUS
10
149.0552229999999838
20
-107.7027769999999975
11
149.0010299999999859
21
-107.6216709999999921
0
LINE
8
BLACK
6
CONTINUOUS
10
149.0010299999999859
20
-107.6216709999999921
11
148.9819999999999993
21
-107.5259999999999962
0
LINE
8
BLACK
6
CONTINUOUS
10
148.9819999999999993
20
-107.5259999999999962
11
148.9819999999999993
21
-105.3259999999999934
0
LINE
8
BLACK
6
CONTINUOUS
10
148.9819999999999993
20
-105.3259999999999934
11
149.0010299999999859
21
-105.2303289999999976
0
LINE
8
BLACK
6
CONTINUOUS
10
149.0010299999999859
20
-105.2303289999999976
11
149.0552229999999838
21
-105.1492229999999921
0
LINE
8
BLACK
6
CONTINUOUS
10
149.0552229999999838
20
-105.1492229999999921
11
149.1363289999999893
21
-105.0950299999999942
0
LINE
8
BLACK
6
CONTINUOUS
10
149.1363289999999893
20
-105.0950299999999942
11
149.2319999999999993
21
-105.0759999999999934
0
LINE
8
BLACK
6
CONTINUOUS
10
149.2319999999999993
20
-105.0759999999999934
11
150.0569999999999879
21
-105.0759999999999934
0
LINE
8
BLACK
6
CONTINUOUS
10
150.0569999999999879
20
-105.0759999999999934
11
150.152670999999998
21
-105.0950299999999942
0
LINE
8
BLACK
6
CONTINUOUS
10
135.5976709999999912
20
-101.5390299999999968
11
135.6787769999999966
21
-101.5932229999999947
0
LINE
8
BLACK
6
CONTINUOUS
10
135.6787769999999966
20
-101.5932229999999947
11
135.7329699999999946
21
-101.6743290000000002
0
LINE
8
BLACK
6
CONTINUOUS
10
135.7329699999999946
20
-101.6743290000000002
11
135.7519999999999811
21
-101.769999999999996
0
LINE
8
BLACK
6
CONTINUOUS
10
135.7519999999999811
20
-101.769999999999996
11
135.7519999999999811
21
-103.9699999999999989
0
LINE
8
BLACK
6
CONTINUOUS
10
135.7519999999999811
20
-103.9699999999999989
11
135.7329699999999946
21
-104.0656709999999947
0
LINE
8
BLACK
6
CONTINUOUS
10
135.7329699999999946
20
-104.0656709999999947
11
135.6787769999999966
21
-104.1467770000000002
0
LINE
8
BLACK
6
CONTINUOUS
10
135.6787769999999966
20
-104.1467770000000002
11
135.5976709999999912
21
-104.2009699999999981
0
LINE
8
BLACK
6
CONTINUOUS
10
135.5976709999999912
20
-104.2009699999999981
11
135.5019999999999811
21
-104.2199999999999989
0
LINE
8
BLACK
6
CONTINUOUS
10
135.5019999999999811
20
-104.2199999999999989
11
134.6769999999999925
21
-104.2199999999999989
0
LINE
8
BLACK
6
CONTINUOUS
10
134.6769999999999925
20
-104.2199999999999989
11
134.5813289999999824
21
-104.2009699999999981
0
LINE
8
BLACK
6
CONTINUOUS
10
134.5813289999999824
20
-104.2009699999999981
11
134.5002230000000054
21
-104.1467770000000002
0
LINE
8
BLACK
6
CONTINUOUS
10
134.5002230000000054
20
-104.1467770000000002
11
134.4460300000000075
21
-104.0656709999999947
0
LINE
8
BLACK
6
CONTINUOUS
10
134.4460300000000075
20
-104.0656709999999947
11
134.4269999999999925
21
-103.9699999999999989
0
LINE
8
BLACK
6
CONTINUOUS
10
134.4269999999999925
20
-103.9699999999999989
11
134.4269999999999925
21
-101.769999999999996
0
LINE
8
BLACK
6
CONTINUOUS
10
134.4269999999999925
20
-101.769999999999996
11
134.4460300000000075
21
-101.6743290000000002
0
LINE
8
BLACK
6
CONTINUOUS
10
134.4460300000000075
20
-101.6743290000000002
11
134.5002230000000054
21
-101.5932229999999947
0
LINE
8
BLACK
6
CONTINUOUS
10
134.5002230000000054
20
-101.5932229999999947
11
134.5813289999999824
21
-101.5390299999999968
0
LINE
8
BLACK
6
CONTINUOUS
10
134.5813289999999824
20
-101.5390299999999968
11
134.6769999999999925
21
-101.519999999999996
0
LINE
8
BLACK
6
CONTINUOUS
10
134.6769999999999925
20
-101.519999999999996
11
135.5019999999999811
21
-101.519999999999996
0
LINE
8
BLACK
6
CONTINUOUS
10
135.5019999999999811
20
-101.519999999999996
11
135.5976709999999912
21
-101.5390299999999968
0
LINE
8
BLACK
6
CONTINUOUS
10
138.7226709999999912
20
-101.5390299999999968
11
138.8037769999999966
21
-101.5932229999999947
0
LINE
8
BLACK
6
CONTINUOUS
10
138.8037769999999966
20
-101.5932229999999947
11
138.8579699999999946
21
-101.6743290000000002
0
LINE
8
BLACK
6
CONTINUOUS
10
138.8579699999999946
20
-101.6743290000000002
11
138.8769999999999811
21
-101.769999999999996
0
LINE
8
BLACK
6
CONTINUOUS
10
138.8769999999999811
20
-101.769999999999996
11
138.8769999999999811
21
-103.9699999999999989
0
LINE
8
BLACK
6
CONTINUOUS
10
138.8769999999999811
20
-103.9699999999999989
11
138.8579699999999946
21
-104.0656709999999947
0
LINE
8
BLACK
6
CONTINUOUS
10
138.8579699999999946
20
-104.0656709999999947
11
138.8037769999999966
21
-104.1467770000000002
0
LINE
8
BLACK
6
CONTINUOUS
10
138.8037769999999966
20
-104.1467770000000002
11
138.7226709999999912
21
-104.2009699999999981
0
LINE
8
BLACK
6
CONTINUOUS
10
138.7226709999999912
20
-104.2009699999999981
11
138.6269999999999811
21
-104.2199999999999989
0
LINE
8
BLACK
6
CONTINUOUS
10
138.6269999999999811
20
-104.2199999999999989
11
137.8019999999999925
21
-104.2199999999999989
0
LINE
8
BLACK
6
CONTINUOUS
10
137.8019999999999925
20
-104.2199999999999989
11
137.7063289999999824
21
-104.2009699999999981
0
LINE
8
BLACK
6
CONTINUOUS
10
137.7063289999999824
20
-104.2009699999999981
11
137.6252230000000054
21
-104.1467770000000002
0
LINE
8
BLACK
6
CONTINUOUS
10
137.6252230000000054
20
-104.1467770000000002
11
137.5710300000000075
21
-104.0656709999999947
0
LINE
8
BLACK
6
CONTINUOUS
10
137.5710300000000075
20
-104.0656709999999947
11
137.5519999999999925
21
-103.9699999999999989
0
LINE
8
BLACK
6
CONTINUOUS
10
137.5519999999999925
20
-103.9699999999999989
11
137.5519999999999925
21
-101.769999999999996
0
LINE
8
BLACK
6
CONTINUOUS
10
137.5519999999999925
20
-101.769999999999996
11
137.5710300000000075
21
-101.6743290000000002
0
LINE
8
BLACK
6
CONTINUOUS
10
137.5710300000000075
20
-101.6743290000000002
11
137.6252230000000054
21
-101.5932229999999947
0
LINE
8
BLACK
6
CONTINUOUS
10
137.6252230000000054
20
-101.5932229999999947
11
137.7063289999999824
21
-101.5390299999999968
0
LINE
8
BLACK
6
CONTINUOUS
10
137.7063289999999824
20
-101.5390299999999968
11
137.8019999999999925
21
-101.519999999999996
0
LINE
8
BLACK
6
CONTINUOUS
10
137.8019999999999925
20
-101.519999999999996
11
138.6269999999999811
21
-101.519999999999996
0
LINE
8
BLACK
6
CONTINUOUS
10
138.6269999999999811
20
-101.519999999999996
11
138.7226709999999912
21
-101.5390299999999968
0
LINE
8
BLACK
6
CONTINUOUS
10
141.185670999999985
20
-101.5390299999999968
11
141.2667769999999905
21
-101.5932229999999947
0
LINE
8
BLACK
6
CONTINUOUS
10
141.2667769999999905
20
-101.5932229999999947
11
141.3209699999999884
21
-101.6743290000000002
0
LINE
8
BLACK
6
CONTINUOUS
10
141.3209699999999884
20
-101.6743290000000002
11
141.3400000000000034
21
-101.769999999999996
0
LINE
8
BLACK
6
CONTINUOUS
10
141.3400000000000034
20
-101.769999999999996
11
141.3400000000000034
21
-103.9699999999999989
0
LINE
8
BLACK
6
CONTINUOUS
10
141.3400000000000034
20
-103.9699999999999989
11
141.3209699999999884
21
-104.0656709999999947
0
LINE
8
BLACK
6
CONTINUOUS
10
141.3209699999999884
20
-104.0656709999999947
11
141.2667769999999905
21
-104.1467770000000002
0
LINE
8
BLACK
6
CONTINUOUS
10
141.2667769999999905
20
-104.1467770000000002
11
141.185670999999985
21
-104.2009699999999981
0
LINE
8
BLACK
6
CONTINUOUS
10
141.185670999999985
20
-104.2009699999999981
11
141.0900000000000034
21
-104.2199999999999989
0
LINE
8
BLACK
6
CONTINUOUS
10
141.0900000000000034
20
-104.2199999999999989
11
140.2649999999999864
21
-104.2199999999999989
0
LINE
8
BLACK
6
CONTINUOUS
10
140.2649999999999864
20
-104.2199999999999989
11
140.1693290000000047
21
-104.2009699999999981
0
LINE
8
BLACK
6
CONTINUOUS
10
140.1693290000000047
20
-104.2009699999999981
11
140.0882229999999993
21
-104.1467770000000002
0
LINE
8
BLACK
6
CONTINUOUS
10
140.0882229999999993
20
-104.1467770000000002
11
140.0340300000000013
21
-104.0656709999999947
0
LINE
8
BLACK
6
CONTINUOUS
10
140.0340300000000013
20
-104.0656709999999947
11
140.0149999999999864
21
-103.9699999999999989
0
LINE
8
BLACK
6
CONTINUOUS
10
140.0149999999999864
20
-103.9699999999999989
11
140.0149999999999864
21
-101.769999999999996
0
LINE
8
BLACK
6
CONTINUOUS
10
140.0149999999999864
20
-101.769999999999996
11
140.0340300000000013
21
-101.6743290000000002
0
LINE
8
BLACK
6
CONTINUOUS
10
140.0340300000000013
20
-101.6743290000000002
11
140.0882229999999993
21
-101.5932229999999947
0
LINE
8
BLACK
6
CONTINUOUS
10
140.0882229999999993
20
-101.5932229999999947
11
140.1693290000000047
21
-101.5390299999999968
0
LINE
8
BLACK
6
CONTINUOUS
10
140.1693290000000047
20
-101.5390299999999968
11
140.2649999999999864
21
-101.519999999999996
0
LINE
8
BLACK
6
CONTINUOUS
10
140.2649999999999864
20
-101.519999999999996
11
141.0900000000000034
21
-101.519999999999996
0
LINE
8
BLACK
6
CONTINUOUS
10
141.0900000000000034
20
-101.519999999999996
11
141.185670999999985
21
-101.5390299999999968
0
LINE
8
BLACK
6
CONTINUOUS
10
144.310670999999985
20
-101.5390299999999968
11
144.3917769999999905
21
-101.5932229999999947
0
LINE
8
BLACK
6
CONTINUOUS
10
144.3917769999999905
20
-101.5932229999999947
11
144.4459699999999884
21
-101.6743290000000002
0
LINE
8
BLACK
6
CONTINUOUS
10
144.4459699999999884
20
-101.6743290000000002
11
144.4650000000000034
21
-101.769999999999996
0
LINE
8
BLACK
6
CONTINUOUS
10
144.4650000000000034
20
-101.769999999999996
11
144.4650000000000034
21
-103.9699999999999989
0
LINE
8
BLACK
6
CONTINUOUS
10
144.4650000000000034
20
-103.9699999999999989
11
144.4459699999999884
21
-104.0656709999999947
0
LINE
8
BLACK
6
CONTINUOUS
10
144.4459699999999884
20
-104.0656709999999947
11
144.3917769999999905
21
-104.1467770000000002
0
LINE
8
BLACK
6
CONTINUOUS
10
144.3917769999999905
20
-104.1467770000000002
11
144.310670999999985
21
-104.2009699999999981
0
LINE
8
BLACK
6
CONTINUOUS
10
144.310670999999985
20
-104.2009699999999981
11
144.2150000000000034
21
-104.2199999999999989
0
LINE
8
BLACK
6
CONTINUOUS
10
144.2150000000000034
20
-104.2199999999999989
11
143.3899999999999864
21
-104.2199999999999989
0
LINE
8
BLACK
6
CONTINUOUS
10
143.3899999999999864
20
-104.2199999999999989
11
143.2943290000000047
21
-104.2009699999999981
0
LINE
8
BLACK
6
CONTINUOUS
10
143.2943290000000047
20
-104.2009699999999981
11
143.2132229999999993
21
-104.1467770000000002
0
LINE
8
BLACK
6
CONTINUOUS
10
143.2132229999999993
20
-104.1467770000000002
11
143.1590300000000013
21
-104.0656709999999947
0
LINE
8
BLACK
6
CONTINUOUS
10
143.1590300000000013
20
-104.0656709999999947
11
143.1399999999999864
21
-103.9699999999999989
0
LINE
8
BLACK
6
CONTINUOUS
10
143.1399999999999864
20
-103.9699999999999989
11
143.1399999999999864
21
-101.769999999999996
0
LINE
8
BLACK
6
CONTINUOUS
10
143.1399999999999864
20
-101.769999999999996
11
143.1590300000000013
21
-101.6743290000000002
0
LINE
8
BLACK
6
CONTINUOUS
10
143.1590300000000013
20
-101.6743290000000002
11
143.2132229999999993
21
-101.5932229999999947
0
LINE
8
BLACK
6
CONTINUOUS
10
143.2132229999999993
20
-101.5932229999999947
11
143.2943290000000047
21
-101.5390299999999968
0
LINE
8
BLACK
6
CONTINUOUS
10
143.2943290000000047
20
-101.5390299999999968
11
143.3899999999999864
21
-101.519999999999996
0
LINE
8
BLACK
6
CONTINUOUS
10
143.3899999999999864
20
-101.519999999999996
11
144.2150000000000034
21
-101.519999999999996
0
LINE
8
BLACK
6
CONTINUOUS
10
144.2150000000000034
20
-101.519999999999996
11
144.310670999999985
21
-101.5390299999999968
0
LINE
8
BLACK
6
CONTINUOUS
10
146.9891709999999989
20
-101.5390299999999968
11
147.0702770000000044
21
-101.5932229999999947
0
LINE
8
BLACK
6
CONTINUOUS
10
147.0702770000000044
20
-101.5932229999999947
11
147.1244700000000023
21
-101.6743290000000002
0
LINE
8
BLACK
6
CONTINUOUS
10
147.1244700000000023
20
-101.6743290000000002
11
147.1434999999999889
21
-101.769999999999996
0
LINE
8
BLACK
6
CONTINUOUS
10
147.1434999999999889
20
-101.769999999999996
11
147.1434999999999889
21
-103.9699999999999989
0
LINE
8
BLACK
6
CONTINUOUS
10
147.1434999999999889
20
-103.9699999999999989
11
147.1244700000000023
21
-104.0656709999999947
0
LINE
8
BLACK
6
CONTINUOUS
10
147.1244700000000023
20
-104.0656709999999947
11
147.0702770000000044
21
-104.1467770000000002
0
LINE
8
BLACK
6
CONTINUOUS
10
147.0702770000000044
20
-104.1467770000000002
11
146.9891709999999989
21
-104.2009699999999981
0
LINE
8
BLACK
6
CONTINUOUS
10
146.9891709999999989
20
-104.2009699999999981
11
146.8934999999999889
21
-104.2199999999999989
0
LINE
8
BLACK
6
CONTINUOUS
10
146.8934999999999889
20
-104.2199999999999989
11
146.0685000000000002
21
-104.2199999999999989
0
LINE
8
BLACK
6
CONTINUOUS
10
146.0685000000000002
20
-104.2199999999999989
11
145.9728289999999902
21
-104.2009699999999981
0
LINE
8
BLACK
6
CONTINUOUS
10
145.9728289999999902
20
-104.2009699999999981
11
145.8917229999999847
21
-104.1467770000000002
0
LINE
8
BLACK
6
CONTINUOUS
10
145.8917229999999847
20
-104.1467770000000002
11
145.8375299999999868
21
-104.0656709999999947
0
LINE
8
BLACK
6
CONTINUOUS
10
145.8375299999999868
20
-104.0656709999999947
11
145.8185000000000002
21
-103.9699999999999989
0
LINE
8
BLACK
6
CONTINUOUS
10
145.8185000000000002
20
-103.9699999999999989
11
145.8185000000000002
21
-101.769999999999996
0
LINE
8
BLACK
6
CONTINUOUS
10
145.8185000000000002
20
-101.769999999999996
11
145.8375299999999868
21
-101.6743290000000002
0
LINE
8
BLACK
6
CONTINUOUS
10
145.8375299999999868
20
-101.6743290000000002
11
145.8917229999999847
21
-101.5932229999999947
0
LINE
8
BLACK
6
CONTINUOUS
10
145.8917229999999847
20
-101.5932229999999947
11
145.9728289999999902
21
-101.5390299999999968
0
LINE
8
BLACK
6
CONTINUOUS
10
145.9728289999999902
20
-101.5390299999999968
11
146.0685000000000002
21
-101.519999999999996
0
LINE
8
BLACK
6
CONTINUOUS
10
146.0685000000000002
20
-101.519999999999996
11
146.8934999999999889
21
-101.519999999999996
0
LINE
8
BLACK
6
CONTINUOUS
10
146.8934999999999889
20
-101.519999999999996
11
146.9891709999999989
21
-101.5390299999999968
0
LINE
8
BLACK
6
CONTINUOUS
10
150.1141709999999989
20
-101.5390299999999968
11
150.1952770000000044
21
-101.5932229999999947
0
LINE
8
BLACK
6
CONTINUOUS
10
150.1952770000000044
20
-101.5932229999999947
11
150.2494700000000023
21
-101.6743290000000002
0
LINE
8
BLACK
6
CONTINUOUS
10
150.2494700000000023
20
-101.6743290000000002
11
150.2684999999999889
21
-101.769999999999996
0
LINE
8
BLACK
6
CONTINUOUS
10
150.2684999999999889
20
-101.769999999999996
11
150.2684999999999889
21
-103.9699999999999989
0
LINE
8
BLACK
6
CONTINUOUS
10
150.2684999999999889
20
-103.9699999999999989
11
150.2494700000000023
21
-104.0656709999999947
0
LINE
8
BLACK
6
CONTINUOUS
10
150.2494700000000023
20
-104.0656709999999947
11
150.1952770000000044
21
-104.1467770000000002
0
LINE
8
BLACK
6
CONTINUOUS
10
150.1952770000000044
20
-104.1467770000000002
11
150.1141709999999989
21
-104.2009699999999981
0
LINE
8
BLACK
6
CONTINUOUS
10
150.1141709999999989
20
-104.2009699999999981
11
150.0184999999999889
21
-104.2199999999999989
0
LINE
8
BLACK
6
CONTINUOUS
10
150.0184999999999889
20
-104.2199999999999989
11
149.1935000000000002
21
-104.2199999999999989
0
LINE
8
BLACK
6
CONTINUOUS
10
149.1935000000000002
20
-104.2199999999999989
11
149.0978289999999902
21
-104.2009699999999981
0
LINE
8
BLACK
6
CONTINUOUS
10
149.0978289999999902
20
-104.2009699999999981
11
149.0167229999999847
21
-104.1467770000000002
0
LINE
8
BLACK
6
CONTINUOUS
10
149.0167229999999847
20
-104.1467770000000002
11
148.9625299999999868
21
-104.0656709999999947
0
LINE
8
BLACK
6
CONTINUOUS
10
148.9625299999999868
20
-104.0656709999999947
11
148.9435000000000002
21
-103.9699999999999989
0
LINE
8
BLACK
6
CONTINUOUS
10
148.9435000000000002
20
-103.9699999999999989
11
148.9435000000000002
21
-101.769999999999996
0
LINE
8
BLACK
6
CONTINUOUS
10
148.9435000000000002
20
-101.769999999999996
11
148.9625299999999868
21
-101.6743290000000002
0
LINE
8
BLACK
6
CONTINUOUS
10
148.9625299999999868
20
-101.6743290000000002
11
149.0167229999999847
21
-101.5932229999999947
0
LINE
8
BLACK
6
CONTINUOUS
10
149.0167229999999847
20
-101.5932229999999947
11
149.0978289999999902
21
-101.5390299999999968
0
LINE
8
BLACK
6
CONTINUOUS
10
149.0978289999999902
20
-101.5390299999999968
11
149.1935000000000002
21
-101.519999999999996
0
LINE
8
BLACK
6
CONTINUOUS
10
149.1935000000000002
20
-101.519999999999996
11
150.0184999999999889
21
-101.519999999999996
0
LINE
8
BLACK
6
CONTINUOUS
10
150.0184999999999889
20
-101.519999999999996
11
150.1141709999999989
21
-101.5390299999999968
0
LINE
8
BLACK
6
CONTINUOUS
10
135.5976709999999912
20
-97.9830299999999994
11
135.6787769999999966
21
-98.0372229999999973
0
LINE
8
BLACK
6
CONTINUOUS
10
135.6787769999999966
20
-98.0372229999999973
11
135.7329699999999946
21
-98.1183289999999886
0
LINE
8
BLACK
6
CONTINUOUS
10
135.7329699999999946
20
-98.1183289999999886
11
135.7519999999999811
21
-98.2139999999999986
0
LINE
8
BLACK
6
CONTINUOUS
10
135.7519999999999811
20
-98.2139999999999986
11
135.7519999999999811
21
-100.4140000000000015
0
LINE
8
BLACK
6
CONTINUOUS
10
135.7519999999999811
20
-100.4140000000000015
11
135.7329699999999946
21
-100.5096709999999973
0
LINE
8
BLACK
6
CONTINUOUS
10
135.7329699999999946
20
-100.5096709999999973
11
135.6787769999999966
21
-100.5907769999999886
0
LINE
8
BLACK
6
CONTINUOUS
10
135.6787769999999966
20
-100.5907769999999886
11
135.5976709999999912
21
-100.6449700000000007
0
LINE
8
BLACK
6
CONTINUOUS
10
135.5976709999999912
20
-100.6449700000000007
11
135.5019999999999811
21
-100.6640000000000015
0
LINE
8
BLACK
6
CONTINUOUS
10
135.5019999999999811
20
-100.6640000000000015
11
134.6769999999999925
21
-100.6640000000000015
0
LINE
8
BLACK
6
CONTINUOUS
10
134.6769999999999925
20
-100.6640000000000015
11
134.5813289999999824
21
-100.6449700000000007
0
LINE
8
BLACK
6
CONTINUOUS
10
134.5813289999999824
20
-100.6449700000000007
11
134.5002230000000054
21
-100.5907769999999886
0
LINE
8
BLACK
6
CONTINUOUS
10
134.5002230000000054
20
-100.5907769999999886
11
134.4460300000000075
21
-100.5096709999999973
0
LINE
8
BLACK
6
CONTINUOUS
10
134.4460300000000075
20
-100.5096709999999973
11
134.4269999999999925
21
-100.4140000000000015
0
LINE
8
BLACK
6
CONTINUOUS
10
134.4269999999999925
20
-100.4140000000000015
11
134.4269999999999925
21
-98.2139999999999986
0
LINE
8
BLACK
6
CONTINUOUS
10
134.4269999999999925
20
-98.2139999999999986
11
134.4460300000000075
21
-98.1183289999999886
0
LINE
8
BLACK
6
CONTINUOUS
10
134.4460300000000075
20
-98.1183289999999886
11
134.5002230000000054
21
-98.0372229999999973
0
LINE
8
BLACK
6
CONTINUOUS
10
134.5002230000000054
20
-98.0372229999999973
11
134.5813289999999824
21
-97.9830299999999994
0
LINE
8
BLACK
6
CONTINUOUS
10
134.5813289999999824
20
-97.9830299999999994
11
134.6769999999999925
21
-97.9639999999999986
0
LINE
8
BLACK
6
CONTINUOUS
10
134.6769999999999925
20
-97.9639999999999986
11
135.5019999999999811
21
-97.9639999999999986
0
LINE
8
BLACK
6
CONTINUOUS
10
135.5019999999999811
20
-97.9639999999999986
11
135.5976709999999912
21
-97.9830299999999994
0
LINE
8
BLACK
6
CONTINUOUS
10
138.7226709999999912
20
-97.9830299999999994
11
138.8037769999999966
21
-98.0372229999999973
0
LINE
8
BLACK
6
CONTINUOUS
10
138.8037769999999966
20
-98.0372229999999973
11
138.8579699999999946
21
-98.1183289999999886
0
LINE
8
BLACK
6
CONTINUOUS
10
138.8579699999999946
20
-98.1183289999999886
11
138.8769999999999811
21
-98.2139999999999986
0
LINE
8
BLACK
6
CONTINUOUS
10
138.8769999999999811
20
-98.2139999999999986
11
138.8769999999999811
21
-100.4140000000000015
0
LINE
8
BLACK
6
CONTINUOUS
10
138.8769999999999811
20
-100.4140000000000015
11
138.8579699999999946
21
-100.5096709999999973
0
LINE
8
BLACK
6
CONTINUOUS
10
138.8579699999999946
20
-100.5096709999999973
11
138.8037769999999966
21
-100.5907769999999886
0
LINE
8
BLACK
6
CONTINUOUS
10
138.8037769999999966
20
-100.5907769999999886
11
138.7226709999999912
21
-100.6449700000000007
0
LINE
8
BLACK
6
CONTINUOUS
10
138.7226709999999912
20
-100.6449700000000007
11
138.6269999999999811
21
-100.6640000000000015
0
LINE
8
BLACK
6
CONTINUOUS
10
138.6269999999999811
20
-100.6640000000000015
11
137.8019999999999925
21
-100.6640000000000015
0
LINE
8
BLACK
6
CONTINUOUS
10
137.8019999999999925
20
-100.6640000000000015
11
137.7063289999999824
21
-100.6449700000000007
0
LINE
8
BLACK
6
CONTINUOUS
10
137.7063289999999824
20
-100.6449700000000007
11
137.6252230000000054
21
-100.5907769999999886
0
LINE
8
BLACK
6
CONTINUOUS
10
137.6252230000000054
20
-100.5907769999999886
11
137.5710300000000075
21
-100.5096709999999973
0
LINE
8
BLACK
6
CONTINUOUS
10
137.5710300000000075
20
-100.5096709999999973
11
137.5519999999999925
21
-100.4140000000000015
0
LINE
8
BLACK
6
CONTINUOUS
10
137.5519999999999925
20
-100.4140000000000015
11
137.5519999999999925
21
-98.2139999999999986
0
LINE
8
BLACK
6
CONTINUOUS
10
137.5519999999999925
20
-98.2139999999999986
11
137.5710300000000075
21
-98.1183289999999886
0
LINE
8
BLACK
6
CONTINUOUS
10
137.5710300000000075
20
-98.1183289999999886
11
137.6252230000000054
21
-98.0372229999999973
0
LINE
8
BLACK
6
CONTINUOUS
10
137.6252230000000054
20
-98.0372229999999973
11
137.7063289999999824
21
-97.9830299999999994
0
LINE
8
BLACK
6
CONTINUOUS
10
137.7063289999999824
20
-97.9830299999999994
11
137.8019999999999925
21
-97.9639999999999986
0
LINE
8
BLACK
6
CONTINUOUS
10
137.8019999999999925
20
-97.9639999999999986
11
138.6269999999999811
21
-97.9639999999999986
0
LINE
8
BLACK
6
CONTINUOUS
10
138.6269999999999811
20
-97.9639999999999986
11
138.7226709999999912
21
-97.9830299999999994
0
LINE
8
BLACK
6
CONTINUOUS
10
141.185670999999985
20
-97.9830299999999994
11
141.2667769999999905
21
-98.0372229999999973
0
LINE
8
BLACK
6
CONTINUOUS
10
141.2667769999999905
20
-98.0372229999999973
11
141.3209699999999884
21
-98.1183289999999886
0
LINE
8
BLACK
6
CONTINUOUS
10
141.3209699999999884
20
-98.1183289999999886
11
141.3400000000000034
21
-98.2139999999999986
0
LINE
8
BLACK
6
CONTINUOUS
10
141.3400000000000034
20
-98.2139999999999986
11
141.3400000000000034
21
-100.4140000000000015
0
LINE
8
BLACK
6
CONTINUOUS
10
141.3400000000000034
20
-100.4140000000000015
11
141.3209699999999884
21
-100.5096709999999973
0
LINE
8
BLACK
6
CONTINUOUS
10
141.3209699999999884
20
-100.5096709999999973
11
141.2667769999999905
21
-100.5907769999999886
0
LINE
8
BLACK
6
CONTINUOUS
10
141.2667769999999905
20
-100.5907769999999886
11
141.185670999999985
21
-100.6449700000000007
0
LINE
8
BLACK
6
CONTINUOUS
10
141.185670999999985
20
-100.6449700000000007
11
141.0900000000000034
21
-100.6640000000000015
0
LINE
8
BLACK
6
CONTINUOUS
10
141.0900000000000034
20
-100.6640000000000015
11
140.2649999999999864
21
-100.6640000000000015
0
LINE
8
BLACK
6
CONTINUOUS
10
140.2649999999999864
20
-100.6640000000000015
11
140.1693290000000047
21
-100.6449700000000007
0
LINE
8
BLACK
6
CONTINUOUS
10
140.1693290000000047
20
-100.6449700000000007
11
140.0882229999999993
21
-100.5907769999999886
0
LINE
8
BLACK
6
CONTINUOUS
10
140.0882229999999993
20
-100.5907769999999886
11
140.0340300000000013
21
-100.5096709999999973
0
LINE
8
BLACK
6
CONTINUOUS
10
140.0340300000000013
20
-100.5096709999999973
11
140.0149999999999864
21
-100.4140000000000015
0
LINE
8
BLACK
6
CONTINUOUS
10
140.0149999999999864
20
-100.4140000000000015
11
140.0149999999999864
21
-98.2139999999999986
0
LINE
8
BLACK
6
CONTINUOUS
10
140.0149999999999864
20
-98.2139999999999986
11
140.0340300000000013
21
-98.1183289999999886
0
LINE
8
BLACK
6
CONTINUOUS
10
140.0340300000000013
20
-98.1183289999999886
11
140.0882229999999993
21
-98.0372229999999973
0
LINE
8
BLACK
6
CONTINUOUS
10
140.0882229999999993
20
-98.0372229999999973
11
140.1693290000000047
21
-97.9830299999999994
0
LINE
8
BLACK
6
CONTINUOUS
10
140.1693290000000047
20
-97.9830299999999994
11
140.2649999999999864
21
-97.9639999999999986
0
LINE
8
BLACK
6
CONTINUOUS
10
140.2649999999999864
20
-97.9639999999999986
11
141.0900000000000034
21
-97.9639999999999986
0
LINE
8
BLACK
6
CONTINUOUS
10
141.0900000000000034
20
-97.9639999999999986
11
141.185670999999985
21
-97.9830299999999994
0
LINE
8
BLACK
6
CONTINUOUS
10
144.310670999999985
20
-97.9830299999999994
11
144.3917769999999905
21
-98.0372229999999973
0
LINE
8
BLACK
6
CONTINUOUS
10
144.3917769999999905
20
-98.0372229999999973
11
144.4459699999999884
21
-98.1183289999999886
0
LINE
8
BLACK
6
CONTINUOUS
10
144.4459699999999884
20
-98.1183289999999886
11
144.4650000000000034
21
-98.2139999999999986
0
LINE
8
BLACK
6
CONTINUOUS
10
144.4650000000000034
20
-98.2139999999999986
11
144.4650000000000034
21
-100.4140000000000015
0
LINE
8
BLACK
6
CONTINUOUS
10
144.4650000000000034
20
-100.4140000000000015
11
144.4459699999999884
21
-100.5096709999999973
0
LINE
8
BLACK
6
CONTINUOUS
10
144.4459699999999884
20
-100.5096709999999973
11
144.3917769999999905
21
-100.5907769999999886
0
LINE
8
BLACK
6
CONTINUOUS
10
144.3917769999999905
20
-100.5907769999999886
11
144.310670999999985
21
-100.6449700000000007
0
LINE
8
BLACK
6
CONTINUOUS
10
144.310670999999985
20
-100.6449700000000007
11
144.2150000000000034
21
-100.6640000000000015
0
LINE
8
BLACK
6
CONTINUOUS
10
144.2150000000000034
20
-100.6640000000000015
11
143.3899999999999864
21
-100.6640000000000015
0
LINE
8
BLACK
6
CONTINUOUS
10
143.3899999999999864
20
-100.6640000000000015
11
143.2943290000000047
21
-100.6449700000000007
0
LINE
8
BLACK
6
CONTINUOUS
10
143.2943290000000047
20
-100.6449700000000007
11
143.2132229999999993
21
-100.5907769999999886
0
LINE
8
BLACK
6
CONTINUOUS
10
143.2132229999999993
20
-100.5907769999999886
11
143.1590300000000013
21
-100.5096709999999973
0
LINE
8
BLACK
6
CONTINUOUS
10
143.1590300000000013
20
-100.5096709999999973
11
143.1399999999999864
21
-100.4140000000000015
0
LINE
8
BLACK
6
CONTINUOUS
10
143.1399999999999864
20
-100.4140000000000015
11
143.1399999999999864
21
-98.2139999999999986
0
LINE
8
BLACK
6
CONTINUOUS
10
143.1399999999999864
20
-98.2139999999999986
11
143.1590300000000013
21
-98.1183289999999886
0
LINE
8
BLACK
6
CONTINUOUS
10
143.1590300000000013
20
-98.1183289999999886
11
143.2132229999999993
21
-98.0372229999999973
0
LINE
8
BLACK
6
CONTINUOUS
10
143.2132229999999993
20
-98.0372229999999973
11
143.2943290000000047
21
-97.9830299999999994
0
LINE
8
BLACK
6
CONTINUOUS
10
143.2943290000000047
20
-97.9830299999999994
11
143.3899999999999864
21
-97.9639999999999986
0
LINE
8
BLACK
6
CONTINUOUS
10
143.3899999999999864
20
-97.9639999999999986
11
144.2150000000000034
21
-97.9639999999999986
0
LINE
8
BLACK
6
CONTINUOUS
10
144.2150000000000034
20
-97.9639999999999986
11
144.310670999999985
21
-97.9830299999999994
0
LINE
8
BLACK
6
CONTINUOUS
10
147.027670999999998
20
-97.9830299999999994
11
147.1087770000000035
21
-98.0372229999999973
0
LINE
8
BLACK
6
CONTINUOUS
10
147.1087770000000035
20
-98.0372229999999973
11
147.1629700000000014
21
-98.1183289999999886
0
LINE
8
BLACK
6
CONTINUOUS
10
147.1629700000000014
20
-98.1183289999999886
11
147.1819999999999879
21
-98.2139999999999986
0
LINE
8
BLACK
6
CONTINUOUS
10
147.1819999999999879
20
-98.2139999999999986
11
147.1819999999999879
21
-100.4140000000000015
0
LINE
8
BLACK
6
CONTINUOUS
10
147.1819999999999879
20
-100.4140000000000015
11
147.1629700000000014
21
-100.5096709999999973
0
LINE
8
BLACK
6
CONTINUOUS
10
147.1629700000000014
20
-100.5096709999999973
11
147.1087770000000035
21
-100.5907769999999886
0
LINE
8
BLACK
6
CONTINUOUS
10
147.1087770000000035
20
-100.5907769999999886
11
147.027670999999998
21
-100.6449700000000007
0
LINE
8
BLACK
6
CONTINUOUS
10
147.027670999999998
20
-100.6449700000000007
11
146.9319999999999879
21
-100.6640000000000015
0
LINE
8
BLACK
6
CONTINUOUS
10
146.9319999999999879
20
-100.6640000000000015
11
146.1069999999999993
21
-100.6640000000000015
0
LINE
8
BLACK
6
CONTINUOUS
10
146.1069999999999993
20
-100.6640000000000015
11
146.0113289999999893
21
-100.6449700000000007
0
LINE
8
BLACK
6
CONTINUOUS
10
146.0113289999999893
20
-100.6449700000000007
11
145.9302229999999838
21
-100.5907769999999886
0
LINE
8
BLACK
6
CONTINUOUS
10
145.9302229999999838
20
-100.5907769999999886
11
145.8760299999999859
21
-100.5096709999999973
0
LINE
8
BLACK
6
CONTINUOUS
10
145.8760299999999859
20
-100.5096709999999973
11
145.8569999999999993
21
-100.4140000000000015
0
LINE
8
BLACK
6
CONTINUOUS
10
145.8569999999999993
20
-100.4140000000000015
11
145.8569999999999993
21
-98.2139999999999986
0
LINE
8
BLACK
6
CONTINUOUS
10
145.8569999999999993
20
-98.2139999999999986
11
145.8760299999999859
21
-98.1183289999999886
0
LINE
8
BLACK
6
CONTINUOUS
10
145.8760299999999859
20
-98.1183289999999886
11
145.9302229999999838
21
-98.0372229999999973
0
LINE
8
BLACK
6
CONTINUOUS
10
145.9302229999999838
20
-98.0372229999999973
11
146.0113289999999893
21
-97.9830299999999994
0
LINE
8
BLACK
6
CONTINUOUS
10
146.0113289999999893
20
-97.9830299999999994
11
146.1069999999999993
21
-97.9639999999999986
0
LINE
8
BLACK
6
CONTINUOUS
10
146.1069999999999993
20
-97.9639999999999986
11
146.9319999999999879
21
-97.9639999999999986
0
LINE
8
BLACK
6
CONTINUOUS
10
146.9319999999999879
20
-97.9639999999999986
11
147.027670999999998
21
-97.9830299999999994
0
LINE
8
BLACK
6
CONTINUOUS
10
150.152670999999998
20
-97.9830299999999994
11
150.2337770000000035
21
-98.0372229999999973
0
LINE
8
BLACK
6
CONTINUOUS
10
150.2337770000000035
20
-98.0372229999999973
11
150.2879700000000014
21
-98.1183289999999886
0
LINE
8
BLACK
6
CONTINUOUS
10
150.2879700000000014
20
-98.1183289999999886
11
150.3069999999999879
21
-98.2139999999999986
0
LINE
8
BLACK
6
CONTINUOUS
10
150.3069999999999879
20
-98.2139999999999986
11
150.3069999999999879
21
-100.4140000000000015
0
LINE
8
BLACK
6
CONTINUOUS
10
150.3069999999999879
20
-100.4140000000000015
11
150.2879700000000014
21
-100.5096709999999973
0
LINE
8
BLACK
6
CONTINUOUS
10
150.2879700000000014
20
-100.5096709999999973
11
150.2337770000000035
21
-100.5907769999999886
0
LINE
8
BLACK
6
CONTINUOUS
10
150.2337770000000035
20
-100.5907769999999886
11
150.152670999999998
21
-100.6449700000000007
0
LINE
8
BLACK
6
CONTINUOUS
10
150.152670999999998
20
-100.6449700000000007
11
150.0569999999999879
21
-100.6640000000000015
0
LINE
8
BLACK
6
CONTINUOUS
10
150.0569999999999879
20
-100.6640000000000015
11
149.2319999999999993
21
-100.6640000000000015
0
LINE
8
BLACK
6
CONTINUOUS
10
149.2319999999999993
20
-100.6640000000000015
11
149.1363289999999893
21
-100.6449700000000007
0
LINE
8
BLACK
6
CONTINUOUS
10
149.1363289999999893
20
-100.6449700000000007
11
149.0552229999999838
21
-100.5907769999999886
0
LINE
8
BLACK
6
CONTINUOUS
10
149.0552229999999838
20
-100.5907769999999886
11
149.0010299999999859
21
-100.5096709999999973
0
LINE
8
BLACK
6
CONTINUOUS
10
149.0010299999999859
20
-100.5096709999999973
11
148.9819999999999993
21
-100.4140000000000015
0
LINE
8
BLACK
6
CONTINUOUS
10
148.9819999999999993
20
-100.4140000000000015
11
148.9819999999999993
21
-98.2139999999999986
0
LINE
8
BLACK
6
CONTINUOUS
10
148.9819999999999993
20
-98.2139999999999986
11
149.0010299999999859
21
-98.1183289999999886
0
LINE
8
BLACK
6
CONTINUOUS
10
149.0010299999999859
20
-98.1183289999999886
11
149.0552229999999838
21
-98.0372229999999973
0
LINE
8
BLACK
6
CONTINUOUS
10
149.0552229999999838
20
-98.0372229999999973
11
149.1363289999999893
21
-97.9830299999999994
0
LINE
8
BLACK
6
CONTINUOUS
10
149.1363289999999893
20
-97.9830299999999994
11
149.2319999999999993
21
-97.9639999999999986
0
LINE
8
BLACK
6
CONTINUOUS
10
149.2319999999999993
20
-97.9639999999999986
11
150.0569999999999879
21
-97.9639999999999986
0
LINE
8
BLACK
6
CONTINUOUS
10
150.0569999999999879
20
-97.9639999999999986
11
150.152670999999998
21
-97.9830299999999994
0
LINE
8
BLACK
6
CONTINUOUS
10
135.5976709999999912
20
-94.427030000000002
11
135.6787769999999966
21
-94.481223
0
LINE
8
BLACK
6
CONTINUOUS
10
135.6787769999999966
20
-94.481223
11
135.7329699999999946
21
-94.5623289999999912
0
LINE
8
BLACK
6
CONTINUOUS
10
135.7329699999999946
20
-94.5623289999999912
11
135.7519999999999811
21
-94.6580000000000013
0
LINE
8
BLACK
6
CONTINUOUS
10
135.7519999999999811
20
-94.6580000000000013
11
135.7519999999999811
21
-96.8579999999999899
0
LINE
8
BLACK
6
CONTINUOUS
10
135.7519999999999811
20
-96.8579999999999899
11
135.7329699999999946
21
-96.9536709999999999
0
LINE
8
BLACK
6
CONTINUOUS
10
135.7329699999999946
20
-96.9536709999999999
11
135.6787769999999966
21
-97.0347769999999912
0
LINE
8
BLACK
6
CONTINUOUS
10
135.6787769999999966
20
-97.0347769999999912
11
135.5976709999999912
21
-97.0889699999999891
0
LINE
8
BLACK
6
CONTINUOUS
10
135.5976709999999912
20
-97.0889699999999891
11
135.5019999999999811
21
-97.1079999999999899
0
LINE
8
BLACK
6
CONTINUOUS
10
135.5019999999999811
20
-97.1079999999999899
11
134.6769999999999925
21
-97.1079999999999899
0
LINE
8
BLACK
6
CONTINUOUS
10
134.6769999999999925
20
-97.1079999999999899
11
134.5813289999999824
21
-97.0889699999999891
0
LINE
8
BLACK
6
CONTINUOUS
10
134.5813289999999824
20
-97.0889699999999891
11
134.5002230000000054
21
-97.0347769999999912
0
LINE
8
BLACK
6
CONTINUOUS
10
134.5002230000000054
20
-97.0347769999999912
11
134.4460300000000075
21
-96.9536709999999999
0
LINE
8
BLACK
6
CONTINUOUS
10
134.4460300000000075
20
-96.9536709999999999
11
134.4269999999999925
21
-96.8579999999999899
0
LINE
8
BLACK
6
CONTINUOUS
10
134.4269999999999925
20
-96.8579999999999899
11
134.4269999999999925
21
-94.6580000000000013
0
LINE
8
BLACK
6
CONTINUOUS
10
134.4269999999999925
20
-94.6580000000000013
11
134.4460300000000075
21
-94.5623289999999912
0
LINE
8
BLACK
6
CONTINUOUS
10
134.4460300000000075
20
-94.5623289999999912
11
134.5002230000000054
21
-94.481223
0
LINE
8
BLACK
6
CONTINUOUS
10
134.5002230000000054
20
-94.481223
11
134.5813289999999824
21
-94.427030000000002
0
LINE
8
BLACK
6
CONTINUOUS
10
134.5813289999999824
20
-94.427030000000002
11
134.6769999999999925
21
-94.4080000000000013
0
LINE
8
BLACK
6
CONTINUOUS
10
134.6769999999999925
20
-94.4080000000000013
11
135.5019999999999811
21
-94.4080000000000013
0
LINE
8
BLACK
6
CONTINUOUS
10
135.5019999999999811
20
-94.4080000000000013
11
135.5976709999999912
21
-94.427030000000002
0
LINE
8
BLACK
6
CONTINUOUS
10
138.7226709999999912
20
-94.427030000000002
11
138.8037769999999966
21
-94.481223
0
LINE
8
BLACK
6
CONTINUOUS
10
138.8037769999999966
20
-94.481223
11
138.8579699999999946
21
-94.5623289999999912
0
LINE
8
BLACK
6
CONTINUOUS
10
138.8579699999999946
20
-94.5623289999999912
11
138.8769999999999811
21
-94.6580000000000013
0
LINE
8
BLACK
6
CONTINUOUS
10
138.8769999999999811
20
-94.6580000000000013
11
138.8769999999999811
21
-96.8579999999999899
0
LINE
8
BLACK
6
CONTINUOUS
10
138.8769999999999811
20
-96.8579999999999899
11
138.8579699999999946
21
-96.9536709999999999
0
LINE
8
BLACK
6
CONTINUOUS
10
138.8579699999999946
20
-96.9536709999999999
11
138.8037769999999966
21
-97.0347769999999912
0
LINE
8
BLACK
6
CONTINUOUS
10
138.8037769999999966
20
-97.0347769999999912
11
138.7226709999999912
21
-97.0889699999999891
0
LINE
8
BLACK
6
CONTINUOUS
10
138.7226709999999912
20
-97.0889699999999891
11
138.6269999999999811
21
-97.1079999999999899
0
LINE
8
BLACK
6
CONTINUOUS
10
138.6269999999999811
20
-97.1079999999999899
11
137.8019999999999925
21
-97.1079999999999899
0
LINE
8
BLACK
6
CONTINUOUS
10
137.8019999999999925
20
-97.1079999999999899
11
137.7063289999999824
21
-97.0889699999999891
0
LINE
8
BLACK
6
CONTINUOUS
10
137.7063289999999824
20
-97.0889699999999891
11
137.6252230000000054
21
-97.0347769999999912
0
LINE
8
BLACK
6
CONTINUOUS
10
137.6252230000000054
20
-97.0347769999999912
11
137.5710300000000075
21
-96.9536709999999999
0
LINE
8
BLACK
6
CONTINUOUS
10
137.5710300000000075
20
-96.9536709999999999
11
137.5519999999999925
21
-96.8579999999999899
0
LINE
8
BLACK
6
CONTINUOUS
10
137.5519999999999925
20
-96.8579999999999899
11
137.5519999999999925
21
-94.6580000000000013
0
LINE
8
BLACK
6
CONTINUOUS
10
137.5519999999999925
20
-94.6580000000000013
11
137.5710300000000075
21
-94.5623289999999912
0
LINE
8
BLACK
6
CONTINUOUS
10
137.5710300000000075
20
-94.5623289999999912
11
137.6252230000000054
21
-94.481223
0
LINE
8
BLACK
6
CONTINUOUS
10
137.6252230000000054
20
-94.481223
11
137.7063289999999824
21
-94.427030000000002
0
LINE
8
BLACK
6
CONTINUOUS
10
137.7063289999999824
20
-94.427030000000002
11
137.8019999999999925
21
-94.4080000000000013
0
LINE
8
BLACK
6
CONTINUOUS
10
137.8019999999999925
20
-94.4080000000000013
11
138.6269999999999811
21
-94.4080000000000013
0
LINE
8
BLACK
6
CONTINUOUS
10
138.6269999999999811
20
-94.4080000000000013
11
138.7226709999999912
21
-94.427030000000002
0
LINE
8
BLACK
6
CONTINUOUS
10
141.185670999999985
20
-94.427030000000002
11
141.2667769999999905
21
-94.481223
0
LINE
8
BLACK
6
CONTINUOUS
10
141.2667769999999905
20
-94.481223
11
141.3209699999999884
21
-94.5623289999999912
0
LINE
8
BLACK
6
CONTINUOUS
10
141.3209699999999884
20
-94.5623289999999912
11
141.3400000000000034
21
-94.6580000000000013
0
LINE
8
BLACK
6
CONTINUOUS
10
141.3400000000000034
20
-94.6580000000000013
11
141.3400000000000034
21
-96.8579999999999899
0
LINE
8
BLACK
6
CONTINUOUS
10
141.3400000000000034
20
-96.8579999999999899
11
141.3209699999999884
21
-96.9536709999999999
0
LINE
8
BLACK
6
CONTINUOUS
10
141.3209699999999884
20
-96.9536709999999999
11
141.2667769999999905
21
-97.0347769999999912
0
LINE
8
BLACK
6
CONTINUOUS
10
141.2667769999999905
20
-97.0347769999999912
11
141.185670999999985
21
-97.0889699999999891
0
LINE
8
BLACK
6
CONTINUOUS
10
141.185670999999985
20
-97.0889699999999891
11
141.0900000000000034
21
-97.1079999999999899
0
LINE
8
BLACK
6
CONTINUOUS
10
141.0900000000000034
20
-97.1079999999999899
11
140.2649999999999864
21
-97.1079999999999899
0
LINE
8
BLACK
6
CONTINUOUS
10
140.2649999999999864
20
-97.1079999999999899
11
140.1693290000000047
21
-97.0889699999999891
0
LINE
8
BLACK
6
CONTINUOUS
10
140.1693290000000047
20
-97.0889699999999891
11
140.0882229999999993
21
-97.0347769999999912
0
LINE
8
BLACK
6
CONTINUOUS
10
140.0882229999999993
20
-97.0347769999999912
11
140.0340300000000013
21
-96.9536709999999999
0
LINE
8
BLACK
6
CONTINUOUS
10
140.0340300000000013
20
-96.9536709999999999
11
140.0149999999999864
21
-96.8579999999999899
0
LINE
8
BLACK
6
CONTINUOUS
10
140.0149999999999864
20
-96.8579999999999899
11
140.0149999999999864
21
-94.6580000000000013
0
LINE
8
BLACK
6
CONTINUOUS
10
140.0149999999999864
20
-94.6580000000000013
11
140.0340300000000013
21
-94.5623289999999912
0
LINE
8
BLACK
6
CONTINUOUS
10
140.0340300000000013
20
-94.5623289999999912
11
140.0882229999999993
21
-94.481223
0
LINE
8
BLACK
6
CONTINUOUS
10
140.0882229999999993
20
-94.481223
11
140.1693290000000047
21
-94.427030000000002
0
LINE
8
BLACK
6
CONTINUOUS
10
140.1693290000000047
20
-94.427030000000002
11
140.2649999999999864
21
-94.4080000000000013
0
LINE
8
BLACK
6
CONTINUOUS
10
140.2649999999999864
20
-94.4080000000000013
11
141.0900000000000034
21
-94.4080000000000013
0
LINE
8
BLACK
6
CONTINUOUS
10
141.0900000000000034
20
-94.4080000000000013
11
141.185670999999985
21
-94.427030000000002
0
LINE
8
BLACK
6
CONTINUOUS
10
144.310670999999985
20
-94.427030000000002
11
144.3917769999999905
21
-94.481223
0
LINE
8
BLACK
6
CONTINUOUS
10
144.3917769999999905
20
-94.481223
11
144.4459699999999884
21
-94.5623289999999912
0
LINE
8
BLACK
6
CONTINUOUS
10
144.4459699999999884
20
-94.5623289999999912
11
144.4650000000000034
21
-94.6580000000000013
0
LINE
8
BLACK
6
CONTINUOUS
10
144.4650000000000034
20
-94.6580000000000013
11
144.4650000000000034
21
-96.8579999999999899
0
LINE
8
BLACK
6
CONTINUOUS
10
144.4650000000000034
20
-96.8579999999999899
11
144.4459699999999884
21
-96.9536709999999999
0
LINE
8
BLACK
6
CONTINUOUS
10
144.4459699999999884
20
-96.9536709999999999
11
144.3917769999999905
21
-97.0347769999999912
0
LINE
8
BLACK
6
CONTINUOUS
10
144.3917769999999905
20
-97.0347769999999912
11
144.310670999999985
21
-97.0889699999999891
0
LINE
8
BLACK
6
CONTINUOUS
10
144.310670999999985
20
-97.0889699999999891
11
144.2150000000000034
21
-97.1079999999999899
0
LINE
8
BLACK
6
CONTINUOUS
10
144.2150000000000034
20
-97.1079999999999899
11
143.3899999999999864
21
-97.1079999999999899
0
LINE
8
BLACK
6
CONTINUOUS
10
143.3899999999999864
20
-97.1079999999999899
11
143.2943290000000047
21
-97.0889699999999891
0
LINE
8
BLACK
6
CONTINUOUS
10
143.2943290000000047
20
-97.0889699999999891
11
143.2132229999999993
21
-97.0347769999999912
0
LINE
8
BLACK
6
CONTINUOUS
10
143.2132229999999993
20
-97.0347769999999912
11
143.1590300000000013
21
-96.9536709999999999
0
LINE
8
BLACK
6
CONTINUOUS
10
143.1590300000000013
20
-96.9536709999999999
11
143.1399999999999864
21
-96.8579999999999899
0
LINE
8
BLACK
6
CONTINUOUS
10
143.1399999999999864
20
-96.8579999999999899
11
143.1399999999999864
21
-94.6580000000000013
0
LINE
8
BLACK
6
CONTINUOUS
10
143.1399999999999864
20
-94.6580000000000013
11
143.1590300000000013
21
-94.5623289999999912
0
LINE
8
BLACK
6
CONTINUOUS
10
143.1590300000000013
20
-94.5623289999999912
11
143.2132229999999993
21
-94.481223
0
LINE
8
BLACK
6
CONTINUOUS
10
143.2132229999999993
20
-94.481223
11
143.2943290000000047
21
-94.427030000000002
0
LINE
8
BLACK
6
CONTINUOUS
10
143.2943290000000047
20
-94.427030000000002
11
143.3899999999999864
21
-94.4080000000000013
0
LINE
8
BLACK
6
CONTINUOUS
10
143.3899999999999864
20
-94.4080000000000013
11
144.2150000000000034
21
-94.4080000000000013
0
LINE
8
BLACK
6
CONTINUOUS
10
144.2150000000000034
20
-94.4080000000000013
11
144.310670999999985
21
-94.427030000000002
0
LINE
8
BLACK
6
CONTINUOUS
10
147.027670999999998
20
-94.427030000000002
11
147.1087770000000035
21
-94.481223
0
LINE
8
BLACK
6
CONTINUOUS
10
147.1087770000000035
20
-94.481223
11
147.1629700000000014
21
-94.5623289999999912
0
LINE
8
BLACK
6
CONTINUOUS
10
147.1629700000000014
20
-94.5623289999999912
11
147.1819999999999879
21
-94.6580000000000013
0
LINE
8
BLACK
6
CONTINUOUS
10
147.1819999999999879
20
-94.6580000000000013
11
147.1819999999999879
21
-96.8579999999999899
0
LINE
8
BLACK
6
CONTINUOUS
10
147.1819999999999879
20
-96.8579999999999899
11
147.1629700000000014
21
-96.9536709999999999
0
LINE
8
BLACK
6
CONTINUOUS
10
147.1629700000000014
20
-96.9536709999999999
11
147.1087770000000035
21
-97.0347769999999912
0
LINE
8
BLACK
6
CONTINUOUS
10
147.1087770000000035
20
-97.0347769999999912
11
147.027670999999998
21
-97.0889699999999891
0
LINE
8
BLACK
6
CONTINUOUS
10
147.027670999999998
20
-97.0889699999999891
11
146.9319999999999879
21
-97.1079999999999899
0
LINE
8
BLACK
6
CONTINUOUS
10
146.9319999999999879
20
-97.1079999999999899
11
146.1069999999999993
21
-97.1079999999999899
0
LINE
8
BLACK
6
CONTINUOUS
10
146.1069999999999993
20
-97.1079999999999899
11
146.0113289999999893
21
-97.0889699999999891
0
LINE
8
BLACK
6
CONTINUOUS
10
146.0113289999999893
20
-97.0889699999999891
11
145.9302229999999838
21
-97.0347769999999912
0
LINE
8
BLACK
6
CONTINUOUS
10
145.9302229999999838
20
-97.0347769999999912
11
145.8760299999999859
21
-96.9536709999999999
0
LINE
8
BLACK
6
CONTINUOUS
10
145.8760299999999859
20
-96.9536709999999999
11
145.8569999999999993
21
-96.8579999999999899
0
LINE
8
BLACK
6
CONTINUOUS
10
145.8569999999999993
20
-96.8579999999999899
11
145.8569999999999993
21
-94.6580000000000013
0
LINE
8
BLACK
6
CONTINUOUS
10
145.8569999999999993
20
-94.6580000000000013
11
145.8760299999999859
21
-94.5623289999999912
0
LINE
8
BLACK
6
CONTINUOUS
10
145.8760299999999859
20
-94.5623289999999912
11
145.9302229999999838
21
-94.481223
0
LINE
8
BLACK
6
CONTINUOUS
10
145.9302229999999838
20
-94.481223
11
146.0113289999999893
21
-94.427030000000002
0
LINE
8
BLACK
6
CONTINUOUS
10
146.0113289999999893
20
-94.427030000000002
11
146.1069999999999993
21
-94.4080000000000013
0
LINE
8
BLACK
6
CONTINUOUS
10
146.1069999999999993
20
-94.4080000000000013
11
146.9319999999999879
21
-94.4080000000000013
0
LINE
8
BLACK
6
CONTINUOUS
10
146.9319999999999879
20
-94.4080000000000013
11
147.027670999999998
21
-94.427030000000002
0
LINE
8
BLACK
6
CONTINUOUS
10
150.152670999999998
20
-94.427030000000002
11
150.2337770000000035
21
-94.481223
0
LINE
8
BLACK
6
CONTINUOUS
10
150.2337770000000035
20
-94.481223
11
150.2879700000000014
21
-94.5623289999999912
0
LINE
8
BLACK
6
CONTINUOUS
10
150.2879700000000014
20
-94.5623289999999912
11
150.3069999999999879
21
-94.6580000000000013
0
LINE
8
BLACK
6
CONTINUOUS
10
150.3069999999999879
20
-94.6580000000000013
11
150.3069999999999879
21
-96.8579999999999899
0
LINE
8
BLACK
6
CONTINUOUS
10
150.3069999999999879
20
-96.8579999999999899
11
150.2879700000000014
21
-96.9536709999999999
0
LINE
8
BLACK
6
CONTINUOUS
10
150.2879700000000014
20
-96.9536709999999999
11
150.2337770000000035
21
-97.0347769999999912
0
LINE
8
BLACK
6
CONTINUOUS
10
150.2337770000000035
20
-97.0347769999999912
11
150.152670999999998
21
-97.0889699999999891
0
LINE
8
BLACK
6
CONTINUOUS
10
150.152670999999998
20
-97.0889699999999891
11
150.0569999999999879
21
-97.1079999999999899
0
LINE
8
BLACK
6
CONTINUOUS
10
150.0569999999999879
20
-97.1079999999999899
11
149.2319999999999993
21
-97.1079999999999899
0
LINE
8
BLACK
6
CONTINUOUS
10
149.2319999999999993
20
-97.1079999999999899
11
149.1363289999999893
21
-97.0889699999999891
0
LINE
8
BLACK
6
CONTINUOUS
10
149.1363289999999893
20
-97.0889699999999891
11
149.0552229999999838
21
-97.0347769999999912
0
LINE
8
BLACK
6
CONTINUOUS
10
149.0552229999999838
20
-97.0347769999999912
11
149.0010299999999859
21
-96.9536709999999999
0
LINE
8
BLACK
6
CONTINUOUS
10
149.0010299999999859
20
-96.9536709999999999
11
148.9819999999999993
21
-96.8579999999999899
0
LINE
8
BLACK
6
CONTINUOUS
10
148.9819999999999993
20
-96.8579999999999899
11
148.9819999999999993
21
-94.6580000000000013
0
LINE
8
BLACK
6
CONTINUOUS
10
148.9819999999999993
20
-94.6580000000000013
11
149.0010299999999859
21
-94.5623289999999912
0
LINE
8
BLACK
6
CONTINUOUS
10
149.0010299999999859
20
-94.5623289999999912
11
149.0552229999999838
21
-94.481223
0
LINE
8
BLACK
6
CONTINUOUS
10
149.0552229999999838
20
-94.481223
11
149.1363289999999893
21
-94.427030000000002
0
LINE
8
BLACK
6
CONTINUOUS
10
149.1363289999999893
20
-94.427030000000002
11
149.2319999999999993
21
-94.4080000000000013
0
LINE
8
BLACK
6
CONTINUOUS
10
149.2319999999999993
20
-94.4080000000000013
11
150.0569999999999879
21
-94.4080000000000013
0
LINE
8
BLACK
6
CONTINUOUS
10
150.0569999999999879
20
-94.4080000000000013
11
150.152670999999998
21
-94.427030000000002
0
LINE
8
BLACK
6
CONTINUOUS
10
135.5976709999999912
20
-90.8710299999999904
11
135.6787769999999966
21
-90.9252230000000026
0
LINE
8
BLACK
6
CONTINUOUS
10
135.6787769999999966
20
-90.9252230000000026
11
135.7329699999999946
21
-91.0063289999999938
0
LINE
8
BLACK
6
CONTINUOUS
10
135.7329699999999946
20
-91.0063289999999938
11
135.7519999999999811
21
-91.1019999999999897
0
LINE
8
BLACK
6
CONTINUOUS
10
135.7519999999999811
20
-91.1019999999999897
11
135.7519999999999811
21
-93.3019999999999925
0
LINE
8
BLACK
6
CONTINUOUS
10
135.7519999999999811
20
-93.3019999999999925
11
135.7329699999999946
21
-93.3976710000000026
0
LINE
8
BLACK
6
CONTINUOUS
10
135.7329699999999946
20
-93.3976710000000026
11
135.6787769999999966
21
-93.4787769999999938
0
LINE
8
BLACK
6
CONTINUOUS
10
135.6787769999999966
20
-93.4787769999999938
11
135.5976709999999912
21
-93.5329699999999917
0
LINE
8
BLACK
6
CONTINUOUS
10
135.5976709999999912
20
-93.5329699999999917
11
135.5019999999999811
21
-93.5519999999999925
0
LINE
8
BLACK
6
CONTINUOUS
10
135.5019999999999811
20
-93.5519999999999925
11
134.6769999999999925
21
-93.5519999999999925
0
LINE
8
BLACK
6
CONTINUOUS
10
134.6769999999999925
20
-93.5519999999999925
11
134.5813289999999824
21
-93.5329699999999917
0
LINE
8
BLACK
6
CONTINUOUS
10
134.5813289999999824
20
-93.5329699999999917
11
134.5002230000000054
21
-93.4787769999999938
0
LINE
8
BLACK
6
CONTINUOUS
10
134.5002230000000054
20
-93.4787769999999938
11
134.4460300000000075
21
-93.3976710000000026
0
LINE
8
BLACK
6
CONTINUOUS
10
134.4460300000000075
20
-93.3976710000000026
11
134.4269999999999925
21
-93.3019999999999925
0
LINE
8
BLACK
6
CONTINUOUS
10
134.4269999999999925
20
-93.3019999999999925
11
134.4269999999999925
21
-91.1019999999999897
0
LINE
8
BLACK
6
CONTINUOUS
10
134.4269999999999925
20
-91.1019999999999897
11
134.4460300000000075
21
-91.0063289999999938
0
LINE
8
BLACK
6
CONTINUOUS
10
134.4460300000000075
20
-91.0063289999999938
11
134.5002230000000054
21
-90.9252230000000026
0
LINE
8
BLACK
6
CONTINUOUS
10
134.5002230000000054
20
-90.9252230000000026
11
134.5813289999999824
21
-90.8710299999999904
0
LINE
8
BLACK
6
CONTINUOUS
10
134.5813289999999824
20
-90.8710299999999904
11
134.6769999999999925
21
-90.8519999999999897
0
LINE
8
BLACK
6
CONTINUOUS
10
134.6769999999999925
20
-90.8519999999999897
11
135.5019999999999811
21
-90.8519999999999897
0
LINE
8
BLACK
6
CONTINUOUS
10
135.5019999999999811
20
-90.8519999999999897
11
135.5976709999999912
21
-90.8710299999999904
0
LINE
8
BLACK
6
CONTINUOUS
10
138.7226709999999912
20
-90.8710299999999904
11
138.8037769999999966
21
-90.9252230000000026
0
LINE
8
BLACK
6
CONTINUOUS
10
138.8037769999999966
20
-90.9252230000000026
11
138.8579699999999946
21
-91.0063289999999938
0
LINE
8
BLACK
6
CONTINUOUS
10
138.8579699999999946
20
-91.0063289999999938
11
138.8769999999999811
21
-91.1019999999999897
0
LINE
8
BLACK
6
CONTINUOUS
10
138.8769999999999811
20
-91.1019999999999897
11
138.8769999999999811
21
-93.3019999999999925
0
LINE
8
BLACK
6
CONTINUOUS
10
138.8769999999999811
20
-93.3019999999999925
11
138.8579699999999946
21
-93.3976710000000026
0
LINE
8
BLACK
6
CONTINUOUS
10
138.8579699999999946
20
-93.3976710000000026
11
138.8037769999999966
21
-93.4787769999999938
0
LINE
8
BLACK
6
CONTINUOUS
10
138.8037769999999966
20
-93.4787769999999938
11
138.7226709999999912
21
-93.5329699999999917
0
LINE
8
BLACK
6
CONTINUOUS
10
138.7226709999999912
20
-93.5329699999999917
11
138.6269999999999811
21
-93.5519999999999925
0
LINE
8
BLACK
6
CONTINUOUS
10
138.6269999999999811
20
-93.5519999999999925
11
137.8019999999999925
21
-93.5519999999999925
0
LINE
8
BLACK
6
CONTINUOUS
10
137.8019999999999925
20
-93.5519999999999925
11
137.7063289999999824
21
-93.5329699999999917
0
LINE
8
BLACK
6
CONTINUOUS
10
137.7063289999999824
20
-93.5329699999999917
11
137.6252230000000054
21
-93.4787769999999938
0
LINE
8
BLACK
6
CONTINUOUS
10
137.6252230000000054
20
-93.4787769999999938
11
137.5710300000000075
21
-93.3976710000000026
0
LINE
8
BLACK
6
CONTINUOUS
10
137.5710300000000075
20
-93.3976710000000026
11
137.5519999999999925
21
-93.3019999999999925
0
LINE
8
BLACK
6
CONTINUOUS
10
137.5519999999999925
20
-93.3019999999999925
11
137.5519999999999925
21
-91.1019999999999897
0
LINE
8
BLACK
6
CONTINUOUS
10
137.5519999999999925
20
-91.1019999999999897
11
137.5710300000000075
21
-91.0063289999999938
0
LINE
8
BLACK
6
CONTINUOUS
10
137.5710300000000075
20
-91.0063289999999938
11
137.6252230000000054
21
-90.9252230000000026
0
LINE
8
BLACK
6
CONTINUOUS
10
137.6252230000000054
20
-90.9252230000000026
11
137.7063289999999824
21
-90.8710299999999904
0
LINE
8
BLACK
6
CONTINUOUS
10
137.7063289999999824
20
-90.8710299999999904
11
137.8019999999999925
21
-90.8519999999999897
0
LINE
8
BLACK
6
CONTINUOUS
10
137.8019999999999925
20
-90.8519999999999897
11
138.6269999999999811
21
-90.8519999999999897
0
LINE
8
BLACK
6
CONTINUOUS
10
138.6269999999999811
20
-90.8519999999999897
11
138.7226709999999912
21
-90.8710299999999904
0
LINE
8
BLACK
6
CONTINUOUS
10
141.185670999999985
20
-90.8710299999999904
11
141.2667769999999905
21
-90.9252230000000026
0
LINE
8
BLACK
6
CONTINUOUS
10
141.2667769999999905
20
-90.9252230000000026
11
141.3209699999999884
21
-91.0063289999999938
0
LINE
8
BLACK
6
CONTINUOUS
10
141.3209699999999884
20
-91.0063289999999938
11
141.3400000000000034
21
-91.1019999999999897
0
LINE
8
BLACK
6
CONTINUOUS
10
141.3400000000000034
20
-91.1019999999999897
11
141.3400000000000034
21
-93.3019999999999925
0
LINE
8
BLACK
6
CONTINUOUS
10
141.3400000000000034
20
-93.3019999999999925
11
141.3209699999999884
21
-93.3976710000000026
0
LINE
8
BLACK
6
CONTINUOUS
10
141.3209699999999884
20
-93.3976710000000026
11
141.2667769999999905
21
-93.4787769999999938
0
LINE
8
BLACK
6
CONTINUOUS
10
141.2667769999999905
20
-93.4787769999999938
11
141.185670999999985
21
-93.5329699999999917
0
LINE
8
BLACK
6
CONTINUOUS
10
141.185670999999985
20
-93.5329699999999917
11
141.0900000000000034
21
-93.5519999999999925
0
LINE
8
BLACK
6
CONTINUOUS
10
141.0900000000000034
20
-93.5519999999999925
11
140.2649999999999864
21
-93.5519999999999925
0
LINE
8
BLACK
6
CONTINUOUS
10
140.2649999999999864
20
-93.5519999999999925
11
140.1693290000000047
21
-93.5329699999999917
0
LINE
8
BLACK
6
CONTINUOUS
10
140.1693290000000047
20
-93.5329699999999917
11
140.0882229999999993
21
-93.4787769999999938
0
LINE
8
BLACK
6
CONTINUOUS
10
140.0882229999999993
20
-93.4787769999999938
11
140.0340300000000013
21
-93.3976710000000026
0
LINE
8
BLACK
6
CONTINUOUS
10
140.0340300000000013
20
-93.3976710000000026
11
140.0149999999999864
21
-93.3019999999999925
0
LINE
8
BLACK
6
CONTINUOUS
10
140.0149999999999864
20
-93.3019999999999925
11
140.0149999999999864
21
-91.1019999999999897
0
LINE
8
BLACK
6
CONTINUOUS
10
140.0149999999999864
20
-91.1019999999999897
11
140.0340300000000013
21
-91.0063289999999938
0
LINE
8
BLACK
6
CONTINUOUS
10
140.0340300000000013
20
-91.0063289999999938
11
140.0882229999999993
21
-90.9252230000000026
0
LINE
8
BLACK
6
CONTINUOUS
10
140.0882229999999993
20
-90.9252230000000026
11
140.1693290000000047
21
-90.8710299999999904
0
LINE
8
BLACK
6
CONTINUOUS
10
140.1693290000000047
20
-90.8710299999999904
11
140.2649999999999864
21
-90.8519999999999897
0
LINE
8
BLACK
6
CONTINUOUS
10
140.2649999999999864
20
-90.8519999999999897
11
141.0900000000000034
21
-90.8519999999999897
0
LINE
8
BLACK
6
CONTINUOUS
10
141.0900000000000034
20
-90.8519999999999897
11
141.185670999999985
21
-90.8710299999999904
0
LINE
8
BLACK
6
CONTINUOUS
10
144.310670999999985
20
-90.8710299999999904
11
144.3917769999999905
21
-90.9252230000000026
0
LINE
8
BLACK
6
CONTINUOUS
10
144.3917769999999905
20
-90.9252230000000026
11
144.4459699999999884
21
-91.0063289999999938
0
LINE
8
BLACK
6
CONTINUOUS
10
144.4459699999999884
20
-91.0063289999999938
11
144.4650000000000034
21
-91.1019999999999897
0
LINE
8
BLACK
6
CONTINUOUS
10
144.4650000000000034
20
-91.1019999999999897
11
144.4650000000000034
21
-93.3019999999999925
0
LINE
8
BLACK
6
CONTINUOUS
10
144.4650000000000034
20
-93.3019999999999925
11
144.4459699999999884
21
-93.3976710000000026
0
LINE
8
BLACK
6
CONTINUOUS
10
144.4459699999999884
20
-93.3976710000000026
11
144.3917769999999905
21
-93.4787769999999938
0
LINE
8
BLACK
6
CONTINUOUS
10
144.3917769999999905
20
-93.4787769999999938
11
144.310670999999985
21
-93.5329699999999917
0
LINE
8
BLACK
6
CONTINUOUS
10
144.310670999999985
20
-93.5329699999999917
11
144.2150000000000034
21
-93.5519999999999925
0
LINE
8
BLACK
6
CONTINUOUS
10
144.2150000000000034
20
-93.5519999999999925
11
143.3899999999999864
21
-93.5519999999999925
0
LINE
8
BLACK
6
CONTINUOUS
10
143.3899999999999864
20
-93.5519999999999925
11
143.2943290000000047
21
-93.5329699999999917
0
LINE
8
BLACK
6
CONTINUOUS
10
143.2943290000000047
20
-93.5329699999999917
11
143.2132229999999993
21
-93.4787769999999938
0
LINE
8
BLACK
6
CONTINUOUS
10
143.2132229999999993
20
-93.4787769999999938
11
143.1590300000000013
21
-93.3976710000000026
0
LINE
8
BLACK
6
CONTINUOUS
10
143.1590300000000013
20
-93.3976710000000026
11
143.1399999999999864
21
-93.3019999999999925
0
LINE
8
BLACK
6
CONTINUOUS
10
143.1399999999999864
20
-93.3019999999999925
11
143.1399999999999864
21
-91.1019999999999897
0
LINE
8
BLACK
6
CONTINUOUS
10
143.1399999999999864
20
-91.1019999999999897
11
143.1590300000000013
21
-91.0063289999999938
0
LINE
8
BLACK
6
CONTINUOUS
10
143.1590300000000013
20
-91.0063289999999938
11
143.2132229999999993
21
-90.9252230000000026
0
LINE
8
BLACK
6
CONTINUOUS
10
143.2132229999999993
20
-90.9252230000000026
11
143.2943290000000047
21
-90.8710299999999904
0
LINE
8
BLACK
6
CONTINUOUS
10
143.2943290000000047
20
-90.8710299999999904
11
143.3899999999999864
21
-90.8519999999999897
0
LINE
8
BLACK
6
CONTINUOUS
10
143.3899999999999864
20
-90.8519999999999897
11
144.2150000000000034
21
-90.8519999999999897
0
LINE
8
BLACK
6
CONTINUOUS
10
144.2150000000000034
20
-90.8519999999999897
11
144.310670999999985
21
-90.8710299999999904
0
LINE
8
BLACK
6
CONTINUOUS
10
147.027670999999998
20
-90.8710299999999904
11
147.1087770000000035
21
-90.9252230000000026
0
LINE
8
BLACK
6
CONTINUOUS
10
147.1087770000000035
20
-90.9252230000000026
11
147.1629700000000014
21
-91.0063289999999938
0
LINE
8
BLACK
6
CONTINUOUS
10
147.1629700000000014
20
-91.0063289999999938
11
147.1819999999999879
21
-91.1019999999999897
0
LINE
8
BLACK
6
CONTINUOUS
10
147.1819999999999879
20
-91.1019999999999897
11
147.1819999999999879
21
-93.3019999999999925
0
LINE
8
BLACK
6
CONTINUOUS
10
147.1819999999999879
20
-93.3019999999999925
11
147.1629700000000014
21
-93.3976710000000026
0
LINE
8
BLACK
6
CONTINUOUS
10
147.1629700000000014
20
-93.3976710000000026
11
147.1087770000000035
21
-93.4787769999999938
0
LINE
8
BLACK
6
CONTINUOUS
10
147.1087770000000035
20
-93.4787769999999938
11
147.027670999999998
21
-93.5329699999999917
0
LINE
8
BLACK
6
CONTINUOUS
10
147.027670999999998
20
-93.5329699999999917
11
146.9319999999999879
21
-93.5519999999999925
0
LINE
8
BLACK
6
CONTINUOUS
10
146.9319999999999879
20
-93.5519999999999925
11
146.1069999999999993
21
-93.5519999999999925
0
LINE
8
BLACK
6
CONTINUOUS
10
146.1069999999999993
20
-93.5519999999999925
11
146.0113289999999893
21
-93.5329699999999917
0
LINE
8
BLACK
6
CONTINUOUS
10
146.0113289999999893
20
-93.5329699999999917
11
145.9302229999999838
21
-93.4787769999999938
0
LINE
8
BLACK
6
CONTINUOUS
10
145.9302229999999838
20
-93.4787769999999938
11
145.8760299999999859
21
-93.3976710000000026
0
LINE
8
BLACK
6
CONTINUOUS
10
145.8760299999999859
20
-93.3976710000000026
11
145.8569999999999993
21
-93.3019999999999925
0
LINE
8
BLACK
6
CONTINUOUS
10
145.8569999999999993
20
-93.3019999999999925
11
145.8569999999999993
21
-91.1019999999999897
0
LINE
8
BLACK
6
CONTINUOUS
10
145.8569999999999993
20
-91.1019999999999897
11
145.8760299999999859
21
-91.0063289999999938
0
LINE
8
BLACK
6
CONTINUOUS
10
145.8760299999999859
20
-91.0063289999999938
11
145.9302229999999838
21
-90.9252230000000026
0
LINE
8
BLACK
6
CONTINUOUS
10
145.9302229999999838
20
-90.9252230000000026
11
146.0113289999999893
21
-90.8710299999999904
0
LINE
8
BLACK
6
CONTINUOUS
10
146.0113289999999893
20
-90.8710299999999904
11
146.1069999999999993
21
-90.8519999999999897
0
LINE
8
BLACK
6
CONTINUOUS
10
146.1069999999999993
20
-90.8519999999999897
11
146.9319999999999879
21
-90.8519999999999897
0
LINE
8
BLACK
6
CONTINUOUS
10
146.9319999999999879
20
-90.8519999999999897
11
147.027670999999998
21
-90.8710299999999904
0
LINE
8
BLACK
6
CONTINUOUS
10
150.152670999999998
20
-90.8710299999999904
11
150.2337770000000035
21
-90.9252230000000026
0
LINE
8
BLACK
6
CONTINUOUS
10
150.2337770000000035
20
-90.9252230000000026
11
150.2879700000000014
21
-91.0063289999999938
0
LINE
8
BLACK
6
CONTINUOUS
10
150.2879700000000014
20
-91.0063289999999938
11
150.3069999999999879
21
-91.1019999999999897
0
LINE
8
BLACK
6
CONTINUOUS
10
150.3069999999999879
20
-91.1019999999999897
11
150.3069999999999879
21
-93.3019999999999925
0
LINE
8
BLACK
6
CONTINUOUS
10
150.3069999999999879
20
-93.3019999999999925
11
150.2879700000000014
21
-93.3976710000000026
0
LINE
8
BLACK
6
CONTINUOUS
10
150.2879700000000014
20
-93.3976710000000026
11
150.2337770000000035
21
-93.4787769999999938
0
LINE
8
BLACK
6
CONTINUOUS
10
150.2337770000000035
20
-93.4787769999999938
11
150.152670999999998
21
-93.5329699999999917
0
LINE
8
BLACK
6
CONTINUOUS
10
150.152670999999998
20
-93.5329699999999917
11
150.0569999999999879
21
-93.5519999999999925
0
LINE
8
BLACK
6
CONTINUOUS
10
150.0569999999999879
20
-93.5519999999999925
11
149.2319999999999993
21
-93.5519999999999925
0
LINE
8
BLACK
6
CONTINUOUS
10
149.2319999999999993
20
-93.5519999999999925
11
149.1363289999999893
21
-93.5329699999999917
0
LINE
8
BLACK
6
CONTINUOUS
10
149.1363289999999893
20
-93.5329699999999917
11
149.0552229999999838
21
-93.4787769999999938
0
LINE
8
BLACK
6
CONTINUOUS
10
149.0552229999999838
20
-93.4787769999999938
11
149.0010299999999859
21
-93.3976710000000026
0
LINE
8
BLACK
6
CONTINUOUS
10
149.0010299999999859
20
-93.3976710000000026
11
148.9819999999999993
21
-93.3019999999999925
0
LINE
8
BLACK
6
CONTINUOUS
10
148.9819999999999993
20
-93.3019999999999925
11
148.9819999999999993
21
-91.1019999999999897
0
LINE
8
BLACK
6
CONTINUOUS
10
148.9819999999999993
20
-91.1019999999999897
11
149.0010299999999859
21
-91.0063289999999938
0
LINE
8
BLACK
6
CONTINUOUS
10
149.0010299999999859
20
-91.0063289999999938
11
149.0552229999999838
21
-90.9252230000000026
0
LINE
8
BLACK
6
CONTINUOUS
10
149.0552229999999838
20
-90.9252230000000026
11
149.1363289999999893
21
-90.8710299999999904
0
LINE
8
BLACK
6
CONTINUOUS
10
149.1363289999999893
20
-90.8710299999999904
11
149.2319999999999993
21
-90.8519999999999897
0
LINE
8
BLACK
6
CONTINUOUS
10
149.2319999999999993
20
-90.8519999999999897
11
150.0569999999999879
21
-90.8519999999999897
0
LINE
8
BLACK
6
CONTINUOUS
10
150.0569999999999879
20
-90.8519999999999897
11
150.152670999999998
21
-90.8710299999999904
0
LINE
8
BLACK
6
CONTINUOUS
10
127.5441099999999892
20
-54.142992999999997
11
127.9421099999999996
21
-54.2020300000000006
0
LINE
8
BLACK
6
CONTINUOUS
10
127.9421099999999996
20
-54.2020300000000006
11
128.3324069999999892
21
-54.299794999999996
0
LINE
8
BLACK
6
CONTINUOUS
10
128.3324069999999892
20
-54.299794999999996
11
128.7112419999999986
21
-54.4353440000000006
0
LINE
8
BLACK
6
CONTINUOUS
10
128.7112419999999986
20
-54.4353440000000006
11
129.0749669999999867
21
-54.6073729999999955
0
LINE
8
BLACK
6
CONTINUOUS
10
129.0749669999999867
20
-54.6073729999999955
11
129.4200779999999895
21
-54.8142250000000004
0
LINE
8
BLACK
6
CONTINUOUS
10
129.4200779999999895
20
-54.8142250000000004
11
129.743251999999984
21
-55.0539069999999953
0
LINE
8
BLACK
6
CONTINUOUS
10
129.743251999999984
20
-55.0539069999999953
11
130.0413779999999804
21
-55.3241119999999995
0
LINE
8
BLACK
6
CONTINUOUS
10
130.0413779999999804
20
-55.3241119999999995
11
130.3115829999999846
21
-55.6222379999999958
0
LINE
8
BLACK
6
CONTINUOUS
10
130.3115829999999846
20
-55.6222379999999958
11
130.5512650000000008
21
-55.9454119999999975
0
LINE
8
BLACK
6
CONTINUOUS
10
130.5512650000000008
20
-55.9454119999999975
11
130.7581169999999986
21
-56.2905230000000003
0
LINE
8
BLACK
6
CONTINUOUS
10
130.7581169999999986
20
-56.2905230000000003
11
130.9301460000000077
21
-56.6542479999999955
0
LINE
8
BLACK
6
CONTINUOUS
10
130.9301460000000077
20
-56.6542479999999955
11
131.0656950000000052
21
-57.0330829999999978
0
LINE
8
BLACK
6
CONTINUOUS
10
131.0656950000000052
20
-57.0330829999999978
11
131.1634599999999864
21
-57.4233799999999945
0
LINE
8
BLACK
6
CONTINUOUS
10
131.1634599999999864
20
-57.4233799999999945
11
131.2224970000000042
21
-57.8213799999999978
0
LINE
8
BLACK
6
CONTINUOUS
10
131.2224970000000042
20
-57.8213799999999978
11
131.2422399999999811
21
-58.2232500000000002
0
LINE
8
BLACK
6
CONTINUOUS
10
131.2422399999999811
20
-58.2232500000000002
11
131.2224970000000042
21
-58.6251199999999955
0
LINE
8
BLACK
6
CONTINUOUS
10
131.2224970000000042
20
-58.6251199999999955
11
131.1634599999999864
21
-59.0231199999999987
0
LINE
8
BLACK
6
CONTINUOUS
10
131.1634599999999864
20
-59.0231199999999987
11
131.0656950000000052
21
-59.4134169999999955
0
LINE
8
BLACK
6
CONTINUOUS
10
131.0656950000000052
20
-59.4134169999999955
11
130.9301460000000077
21
-59.7922519999999977
0
LINE
8
BLACK
6
CONTINUOUS
10
130.9301460000000077
20
-59.7922519999999977
11
130.7581169999999986
21
-60.155977
0
LINE
8
BLACK
6
CONTINUOUS
10
130.7581169999999986
20
-60.155977
11
130.5512650000000008
21
-60.5010879999999958
0
LINE
8
BLACK
6
CONTINUOUS
10
130.5512650000000008
20
-60.5010879999999958
11
130.3115829999999846
21
-60.8242619999999974
0
LINE
8
BLACK
6
CONTINUOUS
10
130.3115829999999846
20
-60.8242619999999974
11
130.0413779999999804
21
-61.1223879999999937
0
LINE
8
BLACK
6
CONTINUOUS
10
130.0413779999999804
20
-61.1223879999999937
11
129.743251999999984
21
-61.392592999999998
0
LINE
8
BLACK
6
CONTINUOUS
10
129.743251999999984
20
-61.392592999999998
11
129.4200779999999895
21
-61.6322749999999999
0
LINE
8
BLACK
6
CONTINUOUS
10
129.4200779999999895
20
-61.6322749999999999
11
129.0749669999999867
21
-61.8391269999999977
0
LINE
8
BLACK
6
CONTINUOUS
10
129.0749669999999867
20
-61.8391269999999977
11
128.7112419999999986
21
-62.0111559999999997
0
LINE
8
BLACK
6
CONTINUOUS
10
128.7112419999999986
20
-62.0111559999999997
11
128.3324069999999892
21
-62.1467049999999972
0
LINE
8
BLACK
6
CONTINUOUS
10
128.3324069999999892
20
-62.1467049999999972
11
127.9421099999999996
21
-62.2444699999999997
0
LINE
8
BLACK
6
CONTINUOUS
10
127.9421099999999996
20
-62.2444699999999997
11
127.5441099999999892
21
-62.3035069999999962
0
LINE
8
BLACK
6
CONTINUOUS
10
127.5441099999999892
20
-62.3035069999999962
11
127.142240000000001
21
-62.3232499999999945
0
LINE
8
BLACK
6
CONTINUOUS
10
127.142240000000001
20
-62.3232499999999945
11
126.7403699999999986
21
-62.3035069999999962
0
LINE
8
BLACK
6
CONTINUOUS
10
126.7403699999999986
20
-62.3035069999999962
11
126.3423699999999883
21
-62.2444699999999997
0
LINE
8
BLACK
6
CONTINUOUS
10
126.3423699999999883
20
-62.2444699999999997
11
125.9520729999999986
21
-62.1467049999999972
0
LINE
8
BLACK
6
CONTINUOUS
10
125.9520729999999986
20
-62.1467049999999972
11
125.5732379999999893
21
-62.0111559999999997
0
LINE
8
BLACK
6
CONTINUOUS
10
125.5732379999999893
20
-62.0111559999999997
11
125.2095130000000012
21
-61.8391269999999977
0
LINE
8
BLACK
6
CONTINUOUS
10
125.2095130000000012
20
-61.8391269999999977
11
124.8644019999999983
21
-61.6322749999999999
0
LINE
8
BLACK
6
CONTINUOUS
10
124.8644019999999983
20
-61.6322749999999999
11
124.5412279999999896
21
-61.392592999999998
0
LINE
8
BLACK
6
CONTINUOUS
10
124.5412279999999896
20
-61.392592999999998
11
124.2431019999999933
21
-61.1223879999999937
0
LINE
8
BLACK
6
CONTINUOUS
10
124.2431019999999933
20
-61.1223879999999937
11
123.972896999999989
21
-60.8242619999999974
0
LINE
8
BLACK
6
CONTINUOUS
10
123.972896999999989
20
-60.8242619999999974
11
123.7332150000000013
21
-60.5010879999999958
0
LINE
8
BLACK
6
CONTINUOUS
10
123.7332150000000013
20
-60.5010879999999958
11
123.5263629999999893
21
-60.155977
0
LINE
8
BLACK
6
CONTINUOUS
10
123.5263629999999893
20
-60.155977
11
123.3543339999999944
21
-59.7922519999999977
0
LINE
8
BLACK
6
CONTINUOUS
10
123.3543339999999944
20
-59.7922519999999977
11
123.2187849999999969
21
-59.4134169999999955
0
LINE
8
BLACK
6
CONTINUOUS
10
123.2187849999999969
20
-59.4134169999999955
11
123.1210200000000015
21
-59.0231199999999987
0
LINE
8
BLACK
6
CONTINUOUS
10
123.1210200000000015
20
-59.0231199999999987
11
123.0619829999999979
21
-58.6251199999999955
0
LINE
8
BLACK
6
CONTINUOUS
10
123.0619829999999979
20
-58.6251199999999955
11
123.0422399999999925
21
-58.2232500000000002
0
LINE
8
BLACK
6
CONTINUOUS
10
123.0422399999999925
20
-58.2232500000000002
11
123.0619829999999979
21
-57.8213799999999978
0
LINE
8
BLACK
6
CONTINUOUS
10
123.0619829999999979
20
-57.8213799999999978
11
123.1210200000000015
21
-57.4233799999999945
0
LINE
8
BLACK
6
CONTINUOUS
10
123.1210200000000015
20
-57.4233799999999945
11
123.2187849999999969
21
-57.0330829999999978
0
LINE
8
BLACK
6
CONTINUOUS
10
123.2187849999999969
20
-57.0330829999999978
11
123.3543339999999944
21
-56.6542479999999955
0
LINE
8
BLACK
6
CONTINUOUS
10
123.3543339999999944
20
-56.6542479999999955
11
123.5263629999999893
21
-56.2905230000000003
0
LINE
8
BLACK
6
CONTINUOUS
10
123.5263629999999893
20
-56.2905230000000003
11
123.7332150000000013
21
-55.9454119999999975
0
LINE
8
BLACK
6
CONTINUOUS
10
123.7332150000000013
20
-55.9454119999999975
11
123.972896999999989
21
-55.6222379999999958
0
LINE
8
BLACK
6
CONTINUOUS
10
123.972896999999989
20
-55.6222379999999958
11
124.2431019999999933
21
-55.3241119999999995
0
LINE
8
BLACK
6
CONTINUOUS
10
124.2431019999999933
20
-55.3241119999999995
11
124.5412279999999896
21
-55.0539069999999953
0
LINE
8
BLACK
6
CONTINUOUS
10
124.5412279999999896
20
-55.0539069999999953
11
124.8644019999999983
21
-54.8142250000000004
0
LINE
8
BLACK
6
CONTINUOUS
10
124.8644019999999983
20
-54.8142250000000004
11
125.2095130000000012
21
-54.6073729999999955
0
LINE
8
BLACK
6
CONTINUOUS
10
125.2095130000000012
20
-54.6073729999999955
11
125.5732379999999893
21
-54.4353440000000006
0
LINE
8
BLACK
6
CONTINUOUS
10
125.5732379999999893
20
-54.4353440000000006
11
125.9520729999999986
21
-54.299794999999996
0
LINE
8
BLACK
6
CONTINUOUS
10
125.9520729999999986
20
-54.299794999999996
11
126.3423699999999883
21
-54.2020300000000006
0
LINE
8
BLACK
6
CONTINUOUS
10
126.3423699999999883
20
-54.2020300000000006
11
126.7403699999999986
21
-54.142992999999997
0
LINE
8
BLACK
6
CONTINUOUS
10
126.7403699999999986
20
-54.142992999999997
11
127.142240000000001
21
-54.1232499999999987
0
LINE
8
BLACK
6
CONTINUOUS
10
127.142240000000001
20
-54.1232499999999987
11
127.5441099999999892
21
-54.142992999999997
0
LINE
8
BLACK
6
CONTINUOUS
10
171.9941100000000063
20
-54.142992999999997
11
172.3921100000000024
21
-54.2020300000000006
0
LINE
8
BLACK
6
CONTINUOUS
10
172.3921100000000024
20
-54.2020300000000006
11
172.7824070000000063
21
-54.299794999999996
0
LINE
8
BLACK
6
CONTINUOUS
10
172.7824070000000063
20
-54.299794999999996
11
173.1612419999999872
21
-54.4353440000000006
0
LINE
8
BLACK
6
CONTINUOUS
10
173.1612419999999872
20
-54.4353440000000006
11
173.5249670000000037
21
-54.6073729999999955
0
LINE
8
BLACK
6
CONTINUOUS
10
173.5249670000000037
20
-54.6073729999999955
11
173.8700779999999781
21
-54.8142250000000004
0
LINE
8
BLACK
6
CONTINUOUS
10
173.8700779999999781
20
-54.8142250000000004
11
174.1932520000000011
21
-55.0539069999999953
0
LINE
8
BLACK
6
CONTINUOUS
10
174.1932520000000011
20
-55.0539069999999953
11
174.4913779999999974
21
-55.3241119999999995
0
LINE
8
BLACK
6
CONTINUOUS
10
174.4913779999999974
20
-55.3241119999999995
11
174.7615830000000017
21
-55.6222379999999958
0
LINE
8
BLACK
6
CONTINUOUS
10
174.7615830000000017
20
-55.6222379999999958
11
175.0012649999999894
21
-55.9454119999999975
0
LINE
8
BLACK
6
CONTINUOUS
10
175.0012649999999894
20
-55.9454119999999975
11
175.2081169999999872
21
-56.2905230000000003
0
LINE
8
BLACK
6
CONTINUOUS
10
175.2081169999999872
20
-56.2905230000000003
11
175.3801459999999963
21
-56.6542479999999955
0
LINE
8
BLACK
6
CONTINUOUS
10
175.3801459999999963
20
-56.6542479999999955
11
175.5156949999999938
21
-57.0330829999999978
0
LINE
8
BLACK
6
CONTINUOUS
10
175.5156949999999938
20
-57.0330829999999978
11
175.6134600000000034
21
-57.4233799999999945
0
LINE
8
BLACK
6
CONTINUOUS
10
175.6134600000000034
20
-57.4233799999999945
11
175.6724969999999928
21
-57.8213799999999978
0
LINE
8
BLACK
6
CONTINUOUS
10
175.6724969999999928
20
-57.8213799999999978
11
175.6922399999999982
21
-58.2232500000000002
0
LINE
8
BLACK
6
CONTINUOUS
10
175.6922399999999982
20
-58.2232500000000002
11
175.6724969999999928
21
-58.6251199999999955
0
LINE
8
BLACK
6
CONTINUOUS
10
175.6724969999999928
20
-58.6251199999999955
11
175.6134600000000034
21
-59.0231199999999987
0
LINE
8
BLACK
6
CONTINUOUS
10
175.6134600000000034
20
-59.0231199999999987
11
175.5156949999999938
21
-59.4134169999999955
0
LINE
8
BLACK
6
CONTINUOUS
10
175.5156949999999938
20
-59.4134169999999955
11
175.3801459999999963
21
-59.7922519999999977
0
LINE
8
BLACK
6
CONTINUOUS
10
175.3801459999999963
20
-59.7922519999999977
11
175.2081169999999872
21
-60.155977
0
LINE
8
BLACK
6
CONTINUOUS
10
175.2081169999999872
20
-60.155977
11
175.0012649999999894
21
-60.5010879999999958
0
LINE
8
BLACK
6
CONTINUOUS
10
175.0012649999999894
20
-60.5010879999999958
11
174.7615830000000017
21
-60.8242619999999974
0
LINE
8
BLACK
6
CONTINUOUS
10
174.7615830000000017
20
-60.8242619999999974
11
174.4913779999999974
21
-61.1223879999999937
0
LINE
8
BLACK
6
CONTINUOUS
10
174.4913779999999974
20
-61.1223879999999937
11
174.1932520000000011
21
-61.392592999999998
0
LINE
8
BLACK
6
CONTINUOUS
10
174.1932520000000011
20
-61.392592999999998
11
173.8700779999999781
21
-61.6322749999999999
0
LINE
8
BLACK
6
CONTINUOUS
10
173.8700779999999781
20
-61.6322749999999999
11
173.5249670000000037
21
-61.8391269999999977
0
LINE
8
BLACK
6
CONTINUOUS
10
173.5249670000000037
20
-61.8391269999999977
11
173.1612419999999872
21
-62.0111559999999997
0
LINE
8
BLACK
6
CONTINUOUS
10
173.1612419999999872
20
-62.0111559999999997
11
172.7824070000000063
21
-62.1467049999999972
0
LINE
8
BLACK
6
CONTINUOUS
10
172.7824070000000063
20
-62.1467049999999972
11
172.3921100000000024
21
-62.2444699999999997
0
LINE
8
BLACK
6
CONTINUOUS
10
172.3921100000000024
20
-62.2444699999999997
11
171.9941100000000063
21
-62.3035069999999962
0
LINE
8
BLACK
6
CONTINUOUS
10
171.9941100000000063
20
-62.3035069999999962
11
171.5922400000000039
21
-62.3232499999999945
0
LINE
8
BLACK
6
CONTINUOUS
10
171.5922400000000039
20
-62.3232499999999945
11
171.1903700000000015
21
-62.3035069999999962
0
LINE
8
BLACK
6
CONTINUOUS
10
171.1903700000000015
20
-62.3035069999999962
11
170.7923700000000053
21
-62.2444699999999997
0
LINE
8
BLACK
6
CONTINUOUS
10
170.7923700000000053
20
-62.2444699999999997
11
170.4020730000000015
21
-62.1467049999999972
0
LINE
8
BLACK
6
CONTINUOUS
10
170.4020730000000015
20
-62.1467049999999972
11
170.0232379999999921
21
-62.0111559999999997
0
LINE
8
BLACK
6
CONTINUOUS
10
170.0232379999999921
20
-62.0111559999999997
11
169.659513000000004
21
-61.8391269999999977
0
LINE
8
BLACK
6
CONTINUOUS
10
169.659513000000004
20
-61.8391269999999977
11
169.3144020000000012
21
-61.6322749999999999
0
LINE
8
BLACK
6
CONTINUOUS
10
169.3144020000000012
20
-61.6322749999999999
11
168.9912279999999782
21
-61.392592999999998
0
LINE
8
BLACK
6
CONTINUOUS
10
168.9912279999999782
20
-61.392592999999998
11
168.6931019999999819
21
-61.1223879999999937
0
LINE
8
BLACK
6
CONTINUOUS
10
168.6931019999999819
20
-61.1223879999999937
11
168.4228970000000061
21
-60.8242619999999974
0
LINE
8
BLACK
6
CONTINUOUS
10
168.4228970000000061
20
-60.8242619999999974
11
168.1832149999999899
21
-60.5010879999999958
0
LINE
8
BLACK
6
CONTINUOUS
10
168.1832149999999899
20
-60.5010879999999958
11
167.9763629999999921
21
-60.155977
0
LINE
8
BLACK
6
CONTINUOUS
10
167.9763629999999921
20
-60.155977
11
167.804333999999983
21
-59.7922519999999977
0
LINE
8
BLACK
6
CONTINUOUS
10
167.804333999999983
20
-59.7922519999999977
11
167.6687849999999855
21
-59.4134169999999955
0
LINE
8
BLACK
6
CONTINUOUS
10
167.6687849999999855
20
-59.4134169999999955
11
167.5710200000000043
21
-59.0231199999999987
0
LINE
8
BLACK
6
CONTINUOUS
10
167.5710200000000043
20
-59.0231199999999987
11
167.5119829999999865
21
-58.6251199999999955
0
LINE
8
BLACK
6
CONTINUOUS
10
167.5119829999999865
20
-58.6251199999999955
11
167.4922399999999811
21
-58.2232500000000002
0
LINE
8
BLACK
6
CONTINUOUS
10
167.4922399999999811
20
-58.2232500000000002
11
167.5119829999999865
21
-57.8213799999999978
0
LINE
8
BLACK
6
CONTINUOUS
10
167.5119829999999865
20
-57.8213799999999978
11
167.5710200000000043
21
-57.4233799999999945
0
LINE
8
BLACK
6
CONTINUOUS
10
167.5710200000000043
20
-57.4233799999999945
11
167.6687849999999855
21
-57.0330829999999978
0
LINE
8
BLACK
6
CONTINUOUS
10
167.6687849999999855
20
-57.0330829999999978
11
167.804333999999983
21
-56.6542479999999955
0
LINE
8
BLACK
6
CONTINUOUS
10
167.804333999999983
20
-56.6542479999999955
11
167.9763629999999921
21
-56.2905230000000003
0
LINE
8
BLACK
6
CONTINUOUS
10
167.9763629999999921
20
-56.2905230000000003
11
168.1832149999999899
21
-55.9454119999999975
0
LINE
8
BLACK
6
CONTINUOUS
10
168.1832149999999899
20
-55.9454119999999975
11
168.4228970000000061
21
-55.6222379999999958
0
LINE
8
BLACK
6
CONTINUOUS
10
168.4228970000000061
20
-55.6222379999999958
11
168.6931019999999819
21
-55.3241119999999995
0
LINE
8
BLACK
6
CONTINUOUS
10
168.6931019999999819
20
-55.3241119999999995
11
168.9912279999999782
21
-55.0539069999999953
0
LINE
8
BLACK
6
CONTINUOUS
10
168.9912279999999782
20
-55.0539069999999953
11
169.3144020000000012
21
-54.8142250000000004
0
LINE
8
BLACK
6
CONTINUOUS
10
169.3144020000000012
20
-54.8142250000000004
11
169.659513000000004
21
-54.6073729999999955
0
LINE
8
BLACK
6
CONTINUOUS
10
169.659513000000004
20
-54.6073729999999955
11
170.0232379999999921
21
-54.4353440000000006
0
LINE
8
BLACK
6
CONTINUOUS
10
170.0232379999999921
20
-54.4353440000000006
11
170.4020730000000015
21
-54.299794999999996
0
LINE
8
BLACK
6
CONTINUOUS
10
170.4020730000000015
20
-54.299794999999996
11
170.7923700000000053
21
-54.2020300000000006
0
LINE
8
BLACK
6
CONTINUOUS
10
170.7923700000000053
20
-54.2020300000000006
11
171.1903700000000015
21
-54.142992999999997
0
LINE
8
BLACK
6
CONTINUOUS
10
171.1903700000000015
20
-54.142992999999997
11
171.5922400000000039
21
-54.1232499999999987
0
LINE
8
BLACK
6
CONTINUOUS
10
171.5922400000000039
20
-54.1232499999999987
11
171.9941100000000063
21
-54.142992999999997
0
LINE
8
BLACK
6
CONTINUOUS
10
149.7691099999999835
20
-39.5379930000000002
11
150.1671099999999797
21
-39.5970299999999966
0
LINE
8
BLACK
6
CONTINUOUS
10
150.1671099999999797
20
-39.5970299999999966
11
150.5574069999999836
21
-39.6947949999999992
0
LINE
8
BLACK
6
CONTINUOUS
10
150.5574069999999836
20
-39.6947949999999992
11
150.9362419999999929
21
-39.8303439999999966
0
LINE
8
BLACK
6
CONTINUOUS
10
150.9362419999999929
20
-39.8303439999999966
11
151.299966999999981
21
-40.0023729999999986
0
LINE
8
BLACK
6
CONTINUOUS
10
151.299966999999981
20
-40.0023729999999986
11
151.6450779999999838
21
-40.2092249999999964
0
LINE
8
BLACK
6
CONTINUOUS
10
151.6450779999999838
20
-40.2092249999999964
11
151.9682520000000068
21
-40.4489069999999984
0
LINE
8
BLACK
6
CONTINUOUS
10
151.9682520000000068
20
-40.4489069999999984
11
152.2663780000000031
21
-40.7191119999999955
0
LINE
8
BLACK
6
CONTINUOUS
10
152.2663780000000031
20
-40.7191119999999955
11
152.5365829999999789
21
-41.017237999999999
0
LINE
8
BLACK
6
CONTINUOUS
10
152.5365829999999789
20
-41.017237999999999
11
152.7762649999999951
21
-41.3404120000000006
0
LINE
8
BLACK
6
CONTINUOUS
10
152.7762649999999951
20
-41.3404120000000006
11
152.9831169999999929
21
-41.6855229999999963
0
LINE
8
BLACK
6
CONTINUOUS
10
152.9831169999999929
20
-41.6855229999999963
11
153.155146000000002
21
-42.0492479999999986
0
LINE
8
BLACK
6
CONTINUOUS
10
153.155146000000002
20
-42.0492479999999986
11
153.2906949999999995
21
-42.4280830000000009
0
LINE
8
BLACK
6
CONTINUOUS
10
153.2906949999999995
20
-42.4280830000000009
11
153.3884599999999807
21
-42.8183799999999977
0
LINE
8
BLACK
6
CONTINUOUS
10
153.3884599999999807
20
-42.8183799999999977
11
153.4474969999999985
21
-43.2163800000000009
0
LINE
8
BLACK
6
CONTINUOUS
10
153.4474969999999985
20
-43.2163800000000009
11
153.4672400000000039
21
-43.6182499999999962
0
LINE
8
BLACK
6
CONTINUOUS
10
153.4672400000000039
20
-43.6182499999999962
11
153.4474969999999985
21
-44.0201199999999986
0
LINE
8
BLACK
6
CONTINUOUS
10
153.4474969999999985
20
-44.0201199999999986
11
153.3884599999999807
21
-44.4181199999999947
0
LINE
8
BLACK
6
CONTINUOUS
10
153.3884599999999807
20
-44.4181199999999947
11
153.2906949999999995
21
-44.8084169999999986
0
LINE
8
BLACK
6
CONTINUOUS
10
153.2906949999999995
20
-44.8084169999999986
11
153.155146000000002
21
-45.1872520000000009
0
LINE
8
BLACK
6
CONTINUOUS
10
153.155146000000002
20
-45.1872520000000009
11
152.9831169999999929
21
-45.5509769999999961
0
LINE
8
BLACK
6
CONTINUOUS
10
152.9831169999999929
20
-45.5509769999999961
11
152.7762649999999951
21
-45.8960879999999989
0
LINE
8
BLACK
6
CONTINUOUS
10
152.7762649999999951
20
-45.8960879999999989
11
152.5365829999999789
21
-46.2192620000000005
0
LINE
8
BLACK
6
CONTINUOUS
10
152.5365829999999789
20
-46.2192620000000005
11
152.2663780000000031
21
-46.5173879999999969
0
LINE
8
BLACK
6
CONTINUOUS
10
152.2663780000000031
20
-46.5173879999999969
11
151.9682520000000068
21
-46.7875930000000011
0
LINE
8
BLACK
6
CONTINUOUS
10
151.9682520000000068
20
-46.7875930000000011
11
151.6450779999999838
21
-47.0272749999999959
0
LINE
8
BLACK
6
CONTINUOUS
10
151.6450779999999838
20
-47.0272749999999959
11
151.299966999999981
21
-47.2341270000000009
0
LINE
8
BLACK
6
CONTINUOUS
10
151.299966999999981
20
-47.2341270000000009
11
150.9362419999999929
21
-47.4061559999999957
0
LINE
8
BLACK
6
CONTINUOUS
10
150.9362419999999929
20
-47.4061559999999957
11
150.5574069999999836
21
-47.5417050000000003
0
LINE
8
BLACK
6
CONTINUOUS
10
150.5574069999999836
20
-47.5417050000000003
11
150.1671099999999797
21
-47.6394699999999958
0
LINE
8
BLACK
6
CONTINUOUS
10
150.1671099999999797
20
-47.6394699999999958
11
149.7691099999999835
21
-47.6985069999999993
0
LINE
8
BLACK
6
CONTINUOUS
10
149.7691099999999835
20
-47.6985069999999993
11
149.3672399999999811
21
-47.7182499999999976
0
LINE
8
BLACK
6
CONTINUOUS
10
149.3672399999999811
20
-47.7182499999999976
11
148.9653700000000072
21
-47.6985069999999993
0
LINE
8
BLACK
6
CONTINUOUS
10
148.9653700000000072
20
-47.6985069999999993
11
148.5673699999999826
21
-47.6394699999999958
0
LINE
8
BLACK
6
CONTINUOUS
10
148.5673699999999826
20
-47.6394699999999958
11
148.1770730000000071
21
-47.5417050000000003
0
LINE
8
BLACK
6
CONTINUOUS
10
148.1770730000000071
20
-47.5417050000000003
11
147.7982379999999978
21
-47.4061559999999957
0
LINE
8
BLACK
6
CONTINUOUS
10
147.7982379999999978
20
-47.4061559999999957
11
147.4345129999999813
21
-47.2341270000000009
0
LINE
8
BLACK
6
CONTINUOUS
10
147.4345129999999813
20
-47.2341270000000009
11
147.0894020000000069
21
-47.0272749999999959
0
LINE
8
BLACK
6
CONTINUOUS
10
147.0894020000000069
20
-47.0272749999999959
11
146.7662279999999839
21
-46.7875930000000011
0
LINE
8
BLACK
6
CONTINUOUS
10
146.7662279999999839
20
-46.7875930000000011
11
146.4681019999999876
21
-46.5173879999999969
0
LINE
8
BLACK
6
CONTINUOUS
10
146.4681019999999876
20
-46.5173879999999969
11
146.1978969999999833
21
-46.2192620000000005
0
LINE
8
BLACK
6
CONTINUOUS
10
146.1978969999999833
20
-46.2192620000000005
11
145.9582149999999956
21
-45.8960879999999989
0
LINE
8
BLACK
6
CONTINUOUS
10
145.9582149999999956
20
-45.8960879999999989
11
145.7513629999999978
21
-45.5509769999999961
0
LINE
8
BLACK
6
CONTINUOUS
10
145.7513629999999978
20
-45.5509769999999961
11
145.5793339999999887
21
-45.1872520000000009
0
LINE
8
BLACK
6
CONTINUOUS
10
145.5793339999999887
20
-45.1872520000000009
11
145.4437849999999912
21
-44.8084169999999986
0
LINE
8
BLACK
6
CONTINUOUS
10
145.4437849999999912
20
-44.8084169999999986
11
145.3460199999999816
21
-44.4181199999999947
0
LINE
8
BLACK
6
CONTINUOUS
10
145.3460199999999816
20
-44.4181199999999947
11
145.2869829999999922
21
-44.0201199999999986
0
LINE
8
BLACK
6
CONTINUOUS
10
145.2869829999999922
20
-44.0201199999999986
11
145.2672399999999868
21
-43.6182499999999962
0
LINE
8
BLACK
6
CONTINUOUS
10
145.2672399999999868
20
-43.6182499999999962
11
145.2869829999999922
21
-43.2163800000000009
0
LINE
8
BLACK
6
CONTINUOUS
10
145.2869829999999922
20
-43.2163800000000009
11
145.3460199999999816
21
-42.8183799999999977
0
LINE
8
BLACK
6
CONTINUOUS
10
145.3460199999999816
20
-42.8183799999999977
11
145.4437849999999912
21
-42.4280830000000009
0
LINE
8
BLACK
6
CONTINUOUS
10
145.4437849999999912
20
-42.4280830000000009
11
145.5793339999999887
21
-42.0492479999999986
0
LINE
8
BLACK
6
CONTINUOUS
10
145.5793339999999887
20
-42.0492479999999986
11
145.7513629999999978
21
-41.6855229999999963
0
LINE
8
BLACK
6
CONTINUOUS
10
145.7513629999999978
20
-41.6855229999999963
11
145.9582149999999956
21
-41.3404120000000006
0
LINE
8
BLACK
6
CONTINUOUS
10
145.9582149999999956
20
-41.3404120000000006
11
146.1978969999999833
21
-41.017237999999999
0
LINE
8
BLACK
6
CONTINUOUS
10
146.1978969999999833
20
-41.017237999999999
11
146.4681019999999876
21
-40.7191119999999955
0
LINE
8
BLACK
6
CONTINUOUS
10
146.4681019999999876
20
-40.7191119999999955
11
146.7662279999999839
21
-40.4489069999999984
0
LINE
8
BLACK
6
CONTINUOUS
10
146.7662279999999839
20
-40.4489069999999984
11
147.0894020000000069
21
-40.2092249999999964
0
LINE
8
BLACK
6
CONTINUOUS
10
147.0894020000000069
20
-40.2092249999999964
11
147.4345129999999813
21
-40.0023729999999986
0
LINE
8
BLACK
6
CONTINUOUS
10
147.4345129999999813
20
-40.0023729999999986
11
147.7982379999999978
21
-39.8303439999999966
0
LINE
8
BLACK
6
CONTINUOUS
10
147.7982379999999978
20
-39.8303439999999966
11
148.1770730000000071
21
-39.6947949999999992
0
LINE
8
BLACK
6
CONTINUOUS
10
148.1770730000000071
20
-39.6947949999999992
11
148.5673699999999826
21
-39.5970299999999966
0
LINE
8
BLACK
6
CONTINUOUS
10
148.5673699999999826
20
-39.5970299999999966
11
148.9653700000000072
21
-39.5379930000000002
0
LINE
8
BLACK
6
CONTINUOUS
10
148.9653700000000072
20
-39.5379930000000002
11
149.3672399999999811
21
-39.5182499999999948
0
LINE
8
BLACK
6
CONTINUOUS
10
149.3672399999999811
20
-39.5182499999999948
11
149.7691099999999835
21
-39.5379930000000002
0
LINE
8
BLACK
6
CONTINUOUS
10
136.9175349999999867
20
-41.4029489999999996
11
137.1616669999999942
21
-41.4615599999999986
0
LINE
8
BLACK
6
CONTINUOUS
10
137.1616669999999942
20
-41.4615599999999986
11
137.3936249999999859
21
-41.5576399999999992
0
LINE
8
BLACK
6
CONTINUOUS
10
137.3936249999999859
20
-41.5576399999999992
11
137.6076960000000042
21
-41.6888229999999993
0
LINE
8
BLACK
6
CONTINUOUS
10
137.6076960000000042
20
-41.6888229999999993
11
137.798610999999994
21
-41.8518789999999967
0
LINE
8
BLACK
6
CONTINUOUS
10
137.798610999999994
20
-41.8518789999999967
11
137.9616670000000056
21
-42.0427940000000007
0
LINE
8
BLACK
6
CONTINUOUS
10
137.9616670000000056
20
-42.0427940000000007
11
138.0928499999999985
21
-42.2568649999999977
0
LINE
8
BLACK
6
CONTINUOUS
10
138.0928499999999985
20
-42.2568649999999977
11
138.1889299999999992
21
-42.4888229999999965
0
LINE
8
BLACK
6
CONTINUOUS
10
138.1889299999999992
20
-42.4888229999999965
11
138.247540999999984
21
-42.7329549999999969
0
LINE
8
BLACK
6
CONTINUOUS
10
138.247540999999984
20
-42.7329549999999969
11
138.2672399999999868
21
-42.9832499999999982
0
LINE
8
BLACK
6
CONTINUOUS
10
138.2672399999999868
20
-42.9832499999999982
11
138.247540999999984
21
-43.2335449999999994
0
LINE
8
BLACK
6
CONTINUOUS
10
138.247540999999984
20
-43.2335449999999994
11
138.1889299999999992
21
-43.4776769999999999
0
LINE
8
BLACK
6
CONTINUOUS
10
138.1889299999999992
20
-43.4776769999999999
11
138.0928499999999985
21
-43.7096349999999987
0
LINE
8
BLACK
6
CONTINUOUS
10
138.0928499999999985
20
-43.7096349999999987
11
137.9616670000000056
21
-43.9237059999999957
0
LINE
8
BLACK
6
CONTINUOUS
10
137.9616670000000056
20
-43.9237059999999957
11
137.798610999999994
21
-44.1146209999999996
0
LINE
8
BLACK
6
CONTINUOUS
10
137.798610999999994
20
-44.1146209999999996
11
137.6076960000000042
21
-44.2776769999999971
0
LINE
8
BLACK
6
CONTINUOUS
10
137.6076960000000042
20
-44.2776769999999971
11
137.3936249999999859
21
-44.4088599999999971
0
LINE
8
BLACK
6
CONTINUOUS
10
137.3936249999999859
20
-44.4088599999999971
11
137.1616669999999942
21
-44.5049399999999977
0
LINE
8
BLACK
6
CONTINUOUS
10
137.1616669999999942
20
-44.5049399999999977
11
136.9175349999999867
21
-44.5635509999999968
0
LINE
8
BLACK
6
CONTINUOUS
10
136.9175349999999867
20
-44.5635509999999968
11
136.6672399999999925
21
-44.5832499999999996
0
LINE
8
BLACK
6
CONTINUOUS
10
136.6672399999999925
20
-44.5832499999999996
11
136.4169449999999983
21
-44.5635509999999968
0
LINE
8
BLACK
6
CONTINUOUS
10
136.4169449999999983
20
-44.5635509999999968
11
136.1728129999999908
21
-44.5049399999999977
0
LINE
8
BLACK
6
CONTINUOUS
10
136.1728129999999908
20
-44.5049399999999977
11
135.9408549999999991
21
-44.4088599999999971
0
LINE
8
BLACK
6
CONTINUOUS
10
135.9408549999999991
20
-44.4088599999999971
11
135.7267839999999808
21
-44.2776769999999971
0
LINE
8
BLACK
6
CONTINUOUS
10
135.7267839999999808
20
-44.2776769999999971
11
135.535868999999991
21
-44.1146209999999996
0
LINE
8
BLACK
6
CONTINUOUS
10
135.535868999999991
20
-44.1146209999999996
11
135.3728130000000078
21
-43.9237059999999957
0
LINE
8
BLACK
6
CONTINUOUS
10
135.3728130000000078
20
-43.9237059999999957
11
135.2416299999999865
21
-43.7096349999999987
0
LINE
8
BLACK
6
CONTINUOUS
10
135.2416299999999865
20
-43.7096349999999987
11
135.1455499999999859
21
-43.4776769999999999
0
LINE
8
BLACK
6
CONTINUOUS
10
135.1455499999999859
20
-43.4776769999999999
11
135.086939000000001
21
-43.2335449999999994
0
LINE
8
BLACK
6
CONTINUOUS
10
135.086939000000001
20
-43.2335449999999994
11
135.0672399999999982
21
-42.9832499999999982
0
LINE
8
BLACK
6
CONTINUOUS
10
135.0672399999999982
20
-42.9832499999999982
11
135.086939000000001
21
-42.7329549999999969
0
LINE
8
BLACK
6
CONTINUOUS
10
135.086939000000001
20
-42.7329549999999969
11
135.1455499999999859
21
-42.4888229999999965
0
LINE
8
BLACK
6
CONTINUOUS
10
135.1455499999999859
20
-42.4888229999999965
11
135.2416299999999865
21
-42.2568649999999977
0
LINE
8
BLACK
6
CONTINUOUS
10
135.2416299999999865
20
-42.2568649999999977
11
135.3728130000000078
21
-42.0427940000000007
0
LINE
8
BLACK
6
CONTINUOUS
10
135.3728130000000078
20
-42.0427940000000007
11
135.535868999999991
21
-41.8518789999999967
0
LINE
8
BLACK
6
CONTINUOUS
10
135.535868999999991
20
-41.8518789999999967
11
135.7267839999999808
21
-41.6888229999999993
0
LINE
8
BLACK
6
CONTINUOUS
10
135.7267839999999808
20
-41.6888229999999993
11
135.9408549999999991
21
-41.5576399999999992
0
LINE
8
BLACK
6
CONTINUOUS
10
135.9408549999999991
20
-41.5576399999999992
11
136.1728129999999908
21
-41.4615599999999986
0
LINE
8
BLACK
6
CONTINUOUS
10
136.1728129999999908
20
-41.4615599999999986
11
136.4169449999999983
21
-41.4029489999999996
0
LINE
8
BLACK
6
CONTINUOUS
10
136.4169449999999983
20
-41.4029489999999996
11
136.6672399999999925
21
-41.3832499999999968
0
LINE
8
BLACK
6
CONTINUOUS
10
136.6672399999999925
20
-41.3832499999999968
11
136.9175349999999867
21
-41.4029489999999996
0
LINE
8
BLACK
6
CONTINUOUS
10
162.3175349999999924
20
-41.4029489999999996
11
162.5616669999999999
21
-41.4615599999999986
0
LINE
8
BLACK
6
CONTINUOUS
10
162.5616669999999999
20
-41.4615599999999986
11
162.7936249999999916
21
-41.5576399999999992
0
LINE
8
BLACK
6
CONTINUOUS
10
162.7936249999999916
20
-41.5576399999999992
11
163.0076959999999815
21
-41.6888229999999993
0
LINE
8
BLACK
6
CONTINUOUS
10
163.0076959999999815
20
-41.6888229999999993
11
163.1986109999999996
21
-41.8518789999999967
0
LINE
8
BLACK
6
CONTINUOUS
10
163.1986109999999996
20
-41.8518789999999967
11
163.3616669999999829
21
-42.0427940000000007
0
LINE
8
BLACK
6
CONTINUOUS
10
163.3616669999999829
20
-42.0427940000000007
11
163.4928500000000042
21
-42.2568649999999977
0
LINE
8
BLACK
6
CONTINUOUS
10
163.4928500000000042
20
-42.2568649999999977
11
163.5889300000000048
21
-42.4888229999999965
0
LINE
8
BLACK
6
CONTINUOUS
10
163.5889300000000048
20
-42.4888229999999965
11
163.6475409999999897
21
-42.7329549999999969
0
LINE
8
BLACK
6
CONTINUOUS
10
163.6475409999999897
20
-42.7329549999999969
11
163.6672399999999925
21
-42.9832499999999982
0
LINE
8
BLACK
6
CONTINUOUS
10
163.6672399999999925
20
-42.9832499999999982
11
163.6475409999999897
21
-43.2335449999999994
0
LINE
8
BLACK
6
CONTINUOUS
10
163.6475409999999897
20
-43.2335449999999994
11
163.5889300000000048
21
-43.4776769999999999
0
LINE
8
BLACK
6
CONTINUOUS
10
163.5889300000000048
20
-43.4776769999999999
11
163.4928500000000042
21
-43.7096349999999987
0
LINE
8
BLACK
6
CONTINUOUS
10
163.4928500000000042
20
-43.7096349999999987
11
163.3616669999999829
21
-43.9237059999999957
0
LINE
8
BLACK
6
CONTINUOUS
10
163.3616669999999829
20
-43.9237059999999957
11
163.1986109999999996
21
-44.1146209999999996
0
LINE
8
BLACK
6
CONTINUOUS
10
163.1986109999999996
20
-44.1146209999999996
11
163.0076959999999815
21
-44.2776769999999971
0
LINE
8
BLACK
6
CONTINUOUS
10
163.0076959999999815
20
-44.2776769999999971
11
162.7936249999999916
21
-44.4088599999999971
0
LINE
8
BLACK
6
CONTINUOUS
10
162.7936249999999916
20
-44.4088599999999971
11
162.5616669999999999
21
-44.5049399999999977
0
LINE
8
BLACK
6
CONTINUOUS
10
162.5616669999999999
20
-44.5049399999999977
11
162.3175349999999924
21
-44.5635509999999968
0
LINE
8
BLACK
6
CONTINUOUS
10
162.3175349999999924
20
-44.5635509999999968
11
162.0672399999999982
21
-44.5832499999999996
0
LINE
8
BLACK
6
CONTINUOUS
10
162.0672399999999982
20
-44.5832499999999996
11
161.816945000000004
21
-44.5635509999999968
0
LINE
8
BLACK
6
CONTINUOUS
10
161.816945000000004
20
-44.5635509999999968
11
161.5728129999999965
21
-44.5049399999999977
0
LINE
8
BLACK
6
CONTINUOUS
10
161.5728129999999965
20
-44.5049399999999977
11
161.3408550000000048
21
-44.4088599999999971
0
LINE
8
BLACK
6
CONTINUOUS
10
161.3408550000000048
20
-44.4088599999999971
11
161.1267839999999865
21
-44.2776769999999971
0
LINE
8
BLACK
6
CONTINUOUS
10
161.1267839999999865
20
-44.2776769999999971
11
160.9358689999999967
21
-44.1146209999999996
0
LINE
8
BLACK
6
CONTINUOUS
10
160.9358689999999967
20
-44.1146209999999996
11
160.7728129999999851
21
-43.9237059999999957
0
LINE
8
BLACK
6
CONTINUOUS
10
160.7728129999999851
20
-43.9237059999999957
11
160.6416299999999922
21
-43.7096349999999987
0
LINE
8
BLACK
6
CONTINUOUS
10
160.6416299999999922
20
-43.7096349999999987
11
160.5455499999999915
21
-43.4776769999999999
0
LINE
8
BLACK
6
CONTINUOUS
10
160.5455499999999915
20
-43.4776769999999999
11
160.4869390000000067
21
-43.2335449999999994
0
LINE
8
BLACK
6
CONTINUOUS
10
160.4869390000000067
20
-43.2335449999999994
11
160.4672400000000039
21
-42.9832499999999982
0
LINE
8
BLACK
6
CONTINUOUS
10
160.4672400000000039
20
-42.9832499999999982
11
160.4869390000000067
21
-42.7329549999999969
0
LINE
8
BLACK
6
CONTINUOUS
10
160.4869390000000067
20
-42.7329549999999969
11
160.5455499999999915
21
-42.4888229999999965
0
LINE
8
BLACK
6
CONTINUOUS
10
160.5455499999999915
20
-42.4888229999999965
11
160.6416299999999922
21
-42.2568649999999977
0
LINE
8
BLACK
6
CONTINUOUS
10
160.6416299999999922
20
-42.2568649999999977
11
160.7728129999999851
21
-42.0427940000000007
0
LINE
8
BLACK
6
CONTINUOUS
10
160.7728129999999851
20
-42.0427940000000007
11
160.9358689999999967
21
-41.8518789999999967
0
LINE
8
BLACK
6
CONTINUOUS
10
160.9358689999999967
20
-41.8518789999999967
11
161.1267839999999865
21
-41.6888229999999993
0
LINE
8
BLACK
6
CONTINUOUS
10
161.1267839999999865
20
-41.6888229999999993
11
161.3408550000000048
21
-41.5576399999999992
0
LINE
8
BLACK
6
CONTINUOUS
10
161.3408550000000048
20
-41.5576399999999992
11
161.5728129999999965
21
-41.4615599999999986
0
LINE
8
BLACK
6
CONTINUOUS
10
161.5728129999999965
20
-41.4615599999999986
11
161.816945000000004
21
-41.4029489999999996
0
LINE
8
BLACK
6
CONTINUOUS
10
161.816945000000004
20
-41.4029489999999996
11
162.0672399999999982
21
-41.3832499999999968
0
LINE
8
BLACK
6
CONTINUOUS
10
162.0672399999999982
20
-41.3832499999999968
11
162.3175349999999924
21
-41.4029489999999996
0
LINE
8
BLACK
6
CONTINUOUS
10
130.4277569999999855
20
-128.0266239999999982
11
144.9787049999999908
21
-128.0236050000000034
0
ARC
8
BLACK
10
149.4505000000000052
20
-128.526600000000002
40
4.4999949435582698
50
6.40235640
51
173.58224999
0
ARC
8
BLACK
10
170.3171600000000012
20
-114.8904099999999886
40
4.5159206772543072
50
-265.04763905
51
-94.95235110
0
ARC
8
BLACK
10
168.4277999999999906
20
-126.5267999999999944
40
1.4999570007363543
50
-90.00164253
51
0.00179532
0
LINE
8
BLACK
6
CONTINUOUS
10
169.9273129999999981
20
-119.3894719999999978
11
169.9277569999999855
21
-126.5267529999999994
0
ARC
8
BLACK
10
149.4505000000000052
20
-71.0742999999999938
40
33.5000020000002365
50
-49.60704630
51
0.00000684
0
ARC
8
BLACK
10
125.5849999999999937
20
-99.3549999999999898
40
3.5048711172739289
50
-0.02610700
51
49.79220904
0
LINE
8
BLACK
6
CONTINUOUS
10
128.9277569999999855
20
-126.5266239999999982
11
128.9277569999999855
21
-119.3739649999999983
0
ARC
8
BLACK
10
128.5432199999999909
20
-114.866579999999999
40
4.5237586549705542
50
-85.12375200
51
83.05956922
0
ARC
8
BLACK
10
130.4276999999999873
20
-126.5265999999999877
40
1.5000240010829826
50
-179.99908323
51
-89.99782280
0
ARC
8
BLACK
10
173.4277999999999906
20
-99.2544999999999931
40
3.5004870000022854
50
-229.60648353
51
-179.99993453
0
LINE
8
BLACK
6
CONTINUOUS
10
169.9273129999999981
20
-99.2545039999999972
11
169.9273129999999981
21
-110.3913569999999993
0
LINE
8
BLACK
6
CONTINUOUS
10
129.0898589999999899
20
-99.3565969999999936
11
129.0898589999999899
21
-110.3759699999999953
0
ARC
8
BLACK
10
149.4505000000000052
20
-71.0742999999999938
40
33.4999958740311001
50
-180.00000684
51
-130.15536454
0
ARC
8
BLACK
10
149.4505020000000002
20
-71.0742959999999897
40
33.5
50
0.00000000
51
180.00000000
0
LINE
8
BLACK
6
CONTINUOUS
10
153.9224339999999813
20
-128.0248059999999839
11
168.4277569999999855
21
-128.0267529999999851
  0
ENDSEC
  0
EOF
