M48
; DRILL file {KiCad 7.0.6} date Tue Dec 19 14:20:58 2023
; FORMAT={-:-/ absolute / metric / decimal}
; #@! TF.CreationDate,2023-12-19T14:20:58+03:00
; #@! TF.GenerationSoftware,Kicad,Pcbnew,7.0.6
; #@! TF.FileFunction,Plated,1,6,PTH
FMAT,2
METRIC
; #@! TA.AperFunction,Plated,PTH,ViaDrill
T1C0.400
; #@! TA.AperFunction,Plated,PTH,ComponentDrill
T2C1.000
; #@! TA.AperFunction,Plated,PTH,ComponentDrill
T3C1.200
; #@! TA.AperFunction,Plated,PTH,ComponentDrill
T4C3.000
; #@! TA.AperFunction,Plated,PTH,ComponentDrill
T5C3.200
%
G90
G05
T1
X54.61Y-100.33
X55.118Y-104.902
X55.88Y-89.535
X55.88Y-90.805
X55.88Y-92.075
X55.88Y-93.345
X55.88Y-94.615
X55.88Y-95.885
X55.88Y-97.155
X56.134Y-104.902
X57.15Y-104.902
X57.912Y-106.426
X58.166Y-100.33
X59.055Y-90.805
X59.055Y-92.075
X59.055Y-93.345
X59.055Y-94.615
X59.055Y-95.885
X60.325Y-102.87
X60.325Y-104.14
X60.325Y-105.41
X60.325Y-106.68
X60.325Y-107.95
X60.325Y-109.22
X60.325Y-110.49
X62.23Y-89.535
X62.23Y-90.805
X62.23Y-92.075
X62.23Y-93.345
X62.23Y-94.615
X62.23Y-95.885
X62.23Y-97.155
X63.5Y-104.14
X63.5Y-105.41
X63.5Y-106.68
X63.5Y-107.95
X63.5Y-109.22
X66.675Y-102.87
X66.675Y-104.14
X66.675Y-105.41
X66.675Y-106.68
X66.675Y-107.95
X66.675Y-109.22
X66.675Y-110.49
X66.675Y-116.205
X68.58Y-120.015
X68.58Y-121.285
X68.58Y-122.555
X68.58Y-123.825
X69.215Y-88.9
X69.215Y-90.17
X69.215Y-91.44
X69.215Y-92.71
X69.215Y-93.98
X69.215Y-95.25
X69.215Y-96.52
X69.215Y-97.79
X69.85Y-130.175
X70.485Y-116.205
X71.12Y-73.66
X71.12Y-80.01
X71.12Y-86.995
X72.39Y-73.66
X72.39Y-76.835
X72.39Y-80.01
X72.39Y-86.995
X73.66Y-73.66
X73.66Y-76.835
X73.66Y-80.01
X73.66Y-86.995
X73.66Y-102.235
X73.66Y-103.505
X73.66Y-104.775
X73.66Y-106.045
X73.66Y-107.315
X73.66Y-108.585
X73.66Y-109.855
X73.66Y-111.125
X73.66Y-124.167
X73.66Y-128.905
X73.66Y-130.175
X73.66Y-133.985
X74.93Y-73.66
X74.93Y-76.835
X74.93Y-80.01
X74.93Y-86.995
X76.2Y-73.66
X76.2Y-76.835
X76.2Y-80.01
X76.2Y-86.995
X77.47Y-73.66
X77.47Y-76.835
X77.47Y-80.01
X77.47Y-86.995
X77.47Y-90.17
X77.47Y-95.885
X77.47Y-100.965
X77.47Y-128.905
X77.47Y-130.175
X77.47Y-133.985
X77.521Y-124.155
X78.105Y-91.44
X78.105Y-111.404
X78.74Y-73.66
X78.74Y-80.01
X78.74Y-86.995
X78.74Y-90.17
X78.74Y-97.155
X78.74Y-102.235
X79.375Y-91.44
X80.01Y-86.995
X81.28Y-122.555
X81.28Y-128.905
X81.28Y-130.175
X81.788Y-82.249
X82.042Y-91.013
X82.55Y-85.043
X83.566Y-85.043
X84.582Y-85.043
X84.582Y-86.567
X86.233Y-87.63
X87.376Y-73.66
X87.376Y-80.01
X87.63Y-87.63
X87.63Y-91.44
X87.63Y-93.98
X88.265Y-90.17
X88.265Y-92.71
X88.265Y-111.125
X88.646Y-73.66
X88.646Y-76.835
X88.646Y-80.01
X88.9Y-87.63
X88.9Y-91.44
X88.9Y-93.98
X89.535Y-90.17
X89.535Y-92.71
X89.916Y-73.66
X89.916Y-76.835
X89.916Y-80.01
X90.17Y-87.63
X91.186Y-73.66
X91.186Y-76.835
X91.186Y-80.01
X91.44Y-87.63
X92.075Y-116.84
X92.456Y-73.66
X92.456Y-76.835
X92.456Y-80.01
X92.71Y-87.63
X92.71Y-102.235
X92.71Y-103.505
X92.71Y-104.775
X92.71Y-106.045
X92.71Y-107.315
X92.71Y-108.585
X92.71Y-109.855
X92.71Y-111.125
X93.345Y-116.84
X93.726Y-73.66
X93.726Y-76.835
X93.726Y-80.01
X93.98Y-87.63
X94.615Y-116.84
X94.996Y-73.66
X94.996Y-80.01
X95.25Y-87.63
X95.885Y-116.84
X96.52Y-88.9
X96.52Y-90.17
X96.52Y-91.44
X96.52Y-92.71
X96.52Y-93.98
X96.52Y-95.25
X96.52Y-96.52
X96.52Y-97.79
X96.52Y-120.65
X97.155Y-116.84
X97.155Y-119.38
X97.155Y-121.92
X97.155Y-123.19
X97.79Y-118.11
X97.79Y-120.65
X97.79Y-135.255
X98.425Y-116.84
X98.425Y-119.38
X98.425Y-121.92
X98.425Y-123.19
X99.06Y-118.11
X99.695Y-102.87
X99.695Y-104.14
X99.695Y-105.41
X99.695Y-106.68
X99.695Y-107.95
X99.695Y-109.22
X99.695Y-110.49
X99.695Y-116.84
X99.695Y-131.445
X102.87Y-104.14
X102.87Y-105.41
X102.87Y-106.68
X102.87Y-107.95
X102.87Y-109.22
X104.14Y-89.535
X104.14Y-90.805
X104.14Y-92.075
X104.14Y-93.345
X104.14Y-94.615
X104.14Y-95.885
X104.14Y-97.155
X106.045Y-102.87
X106.045Y-104.14
X106.045Y-105.41
X106.045Y-106.68
X106.045Y-107.95
X106.045Y-109.22
X106.045Y-110.49
X107.315Y-90.805
X107.315Y-92.075
X107.315Y-93.345
X107.315Y-94.615
X107.315Y-95.885
X108.202Y-100.077
X108.966Y-104.902
X109.978Y-104.898
X110.49Y-89.535
X110.49Y-90.805
X110.49Y-92.075
X110.49Y-93.345
X110.49Y-94.615
X110.49Y-95.885
X110.49Y-97.155
X110.744Y-107.95
X110.998Y-104.902
X111.76Y-100.076
T2
X71.755Y-142.3
X71.755Y-149.8
X81.915Y-93.345
X81.915Y-95.885
X81.915Y-98.425
X81.915Y-100.965
X81.915Y-103.505
X81.915Y-106.045
X81.915Y-108.585
X81.915Y-111.125
X81.915Y-113.665
X81.915Y-116.205
X84.455Y-93.345
X84.455Y-95.885
X84.455Y-98.425
X84.455Y-100.965
X84.455Y-103.505
X84.455Y-106.045
X84.455Y-108.585
X84.455Y-111.125
X84.455Y-113.665
X84.455Y-116.205
X94.615Y-142.3
X94.615Y-149.8
T3
X60.96Y-83.185
X83.185Y-68.58
X105.41Y-83.185
T4
X78.105Y-144.445
X88.265Y-144.445
T5
X66.04Y-149.86
X100.965Y-149.86
T0
M30
