  0
SECTION
  2
HEADER
  9
$ANGBASE
  50
0.0
  9
$ANGDIR
  70
1
  9
$MEASUREMENT
  70
1
  0
ENDSEC
  0
SECTION
  2
TABLES
  0
TABLE
  2
LTYPE
  70
4
  0
LTYPE
  5
40F
  2
CONTINUOUS
  70
0
  3
Solid line
  72
65
  73
0
  40
0.0
  0
LTYPE
  5
410
  2
DASHDOT
 70
0
  3
Dash Dot ____ _ ____ _
 72
65
 73
4
 40
2.0
 49
1.25
 49
-0.25
 49
0.25
 49
-0.25
  0
LTYPE
  5
411
  2
DASHED
 70
0
  3
Dashed __ __ __ __ __
 72
65
 73
2
 40
0.75
 49
0.5
 49
-0.25
  0
LTYPE
  5
43B
  2
DOTTED
 70
0
  3
Dotted .  .  .  .
 72
65
 73
2
 40
0.2
 49
0.0
 49
-0.2
  0
ENDTAB
  0
TABLE
  2
STYLE
  70
4
  0
STYLE
  2
KICAD
  70
0
  40
0
  41
1
  42
1
  50
0
  71
0
  3
isocp.shx
  0
STYLE
  2
KICADB
  70
0
  40
0
  41
1
  42
1
  50
0
  71
0
  3
isocp.shx
  0
STYLE
  2
KICADI
  70
0
  40
0
  41
1
  42
1
  50
15
  71
0
  3
isocp.shx
  0
STYLE
  2
KICADBI
  70
0
  40
0
  41
1
  42
1
  50
15
  71
0
  3
isocp.shx
  0
ENDTAB
  0
TABLE
  2
LAYER
  70
1
  0
LAYER
  2
BLACK
  70
0
  62
7
  6
CONTINUOUS
  0
ENDTAB
  0
ENDSEC
  0
SECTION
  2
ENTITIES
0
LINE
8
BLACK
6
CONTINUOUS
10
142.5388319999999851
20
-104.8071039999999954
11
142.576927999999981
21
-104.8451999999999913
0
LINE
8
BLACK
6
CONTINUOUS
10
142.576927999999981
20
-104.8451999999999913
11
142.6912130000000047
21
-104.8832949999999897
0
LINE
8
BLACK
6
CONTINUOUS
10
142.6912130000000047
20
-104.8832949999999897
11
142.7674039999999991
21
-104.8832949999999897
0
LINE
8
BLACK
6
CONTINUOUS
10
142.7674039999999991
20
-104.8832949999999897
11
142.8816899999999919
21
-104.8451999999999913
0
LINE
8
BLACK
6
CONTINUOUS
10
142.8816899999999919
20
-104.8451999999999913
11
142.9578799999999887
21
-104.7690089999999969
0
LINE
8
BLACK
6
CONTINUOUS
10
142.9578799999999887
20
-104.7690089999999969
11
142.9959749999999872
21
-104.6928190000000001
0
LINE
8
BLACK
6
CONTINUOUS
10
142.9959749999999872
20
-104.6928190000000001
11
143.0340709999999831
21
-104.5404379999999946
0
LINE
8
BLACK
6
CONTINUOUS
10
143.0340709999999831
20
-104.5404379999999946
11
143.0340709999999831
21
-104.4261520000000019
0
LINE
8
BLACK
6
CONTINUOUS
10
143.0340709999999831
20
-104.4261520000000019
11
142.9959749999999872
21
-104.2737709999999964
0
LINE
8
BLACK
6
CONTINUOUS
10
142.9959749999999872
20
-104.2737709999999964
11
142.9578799999999887
21
-104.1975800000000021
0
LINE
8
BLACK
6
CONTINUOUS
10
142.9578799999999887
20
-104.1975800000000021
11
142.8816899999999919
21
-104.121389999999991
0
LINE
8
BLACK
6
CONTINUOUS
10
142.8816899999999919
20
-104.121389999999991
11
142.7674039999999991
21
-104.0832949999999926
0
LINE
8
BLACK
6
CONTINUOUS
10
142.7674039999999991
20
-104.0832949999999926
11
142.6912130000000047
21
-104.0832949999999926
0
LINE
8
BLACK
6
CONTINUOUS
10
142.6912130000000047
20
-104.0832949999999926
11
142.576927999999981
21
-104.121389999999991
0
LINE
8
BLACK
6
CONTINUOUS
10
142.576927999999981
20
-104.121389999999991
11
142.5388319999999851
21
-104.1594849999999894
0
LINE
8
BLACK
6
CONTINUOUS
10
141.8531179999999949
20
-104.0832949999999926
11
142.0054989999999862
21
-104.0832949999999926
0
LINE
8
BLACK
6
CONTINUOUS
10
142.0054989999999862
20
-104.0832949999999926
11
142.0816899999999805
21
-104.121389999999991
0
LINE
8
BLACK
6
CONTINUOUS
10
142.0816899999999805
20
-104.121389999999991
11
142.1197850000000074
21
-104.1594849999999894
0
LINE
8
BLACK
6
CONTINUOUS
10
142.1197850000000074
20
-104.1594849999999894
11
142.1959750000000042
21
-104.2737709999999964
0
LINE
8
BLACK
6
CONTINUOUS
10
142.1959750000000042
20
-104.2737709999999964
11
142.2340710000000001
21
-104.4261520000000019
0
LINE
8
BLACK
6
CONTINUOUS
10
142.2340710000000001
20
-104.4261520000000019
11
142.2340710000000001
21
-104.7309139999999985
0
LINE
8
BLACK
6
CONTINUOUS
10
142.2340710000000001
20
-104.7309139999999985
11
142.1959750000000042
21
-104.8071039999999954
0
LINE
8
BLACK
6
CONTINUOUS
10
142.1959750000000042
20
-104.8071039999999954
11
142.1578800000000058
21
-104.8451999999999913
0
LINE
8
BLACK
6
CONTINUOUS
10
142.1578800000000058
20
-104.8451999999999913
11
142.0816899999999805
21
-104.8832949999999897
0
LINE
8
BLACK
6
CONTINUOUS
10
142.0816899999999805
20
-104.8832949999999897
11
141.9293089999999893
21
-104.8832949999999897
0
LINE
8
BLACK
6
CONTINUOUS
10
141.9293089999999893
20
-104.8832949999999897
11
141.8531179999999949
21
-104.8451999999999913
0
LINE
8
BLACK
6
CONTINUOUS
10
141.8531179999999949
20
-104.8451999999999913
11
141.8150229999999965
21
-104.8071039999999954
0
LINE
8
BLACK
6
CONTINUOUS
10
141.8150229999999965
20
-104.8071039999999954
11
141.7769279999999981
21
-104.7309139999999985
0
LINE
8
BLACK
6
CONTINUOUS
10
141.7769279999999981
20
-104.7309139999999985
11
141.7769279999999981
21
-104.5404379999999946
0
LINE
8
BLACK
6
CONTINUOUS
10
141.7769279999999981
20
-104.5404379999999946
11
141.8150229999999965
21
-104.4642470000000003
0
LINE
8
BLACK
6
CONTINUOUS
10
141.8150229999999965
20
-104.4642470000000003
11
141.8531179999999949
21
-104.4261520000000019
0
LINE
8
BLACK
6
CONTINUOUS
10
141.8531179999999949
20
-104.4261520000000019
11
141.9293089999999893
21
-104.3880569999999892
0
LINE
8
BLACK
6
CONTINUOUS
10
141.9293089999999893
20
-104.3880569999999892
11
142.0816899999999805
21
-104.3880569999999892
0
LINE
8
BLACK
6
CONTINUOUS
10
142.0816899999999805
20
-104.3880569999999892
11
142.1578800000000058
21
-104.4261520000000019
0
LINE
8
BLACK
6
CONTINUOUS
10
142.1578800000000058
20
-104.4261520000000019
11
142.1959750000000042
21
-104.4642470000000003
0
LINE
8
BLACK
6
CONTINUOUS
10
142.1959750000000042
20
-104.4642470000000003
11
142.2340710000000001
21
-104.5404379999999946
0
LINE
8
BLACK
6
CONTINUOUS
10
148.5577849999999955
20
-100.9971039999999931
11
148.5958809999999914
21
-101.035199999999989
0
LINE
8
BLACK
6
CONTINUOUS
10
148.5958809999999914
20
-101.035199999999989
11
148.7101659999999868
21
-101.0732950000000017
0
LINE
8
BLACK
6
CONTINUOUS
10
148.7101659999999868
20
-101.0732950000000017
11
148.7863569999999811
21
-101.0732950000000017
0
LINE
8
BLACK
6
CONTINUOUS
10
148.7863569999999811
20
-101.0732950000000017
11
148.9006430000000023
21
-101.035199999999989
0
LINE
8
BLACK
6
CONTINUOUS
10
148.9006430000000023
20
-101.035199999999989
11
148.9768329999999992
21
-100.9590089999999947
0
LINE
8
BLACK
6
CONTINUOUS
10
148.9768329999999992
20
-100.9590089999999947
11
149.0149279999999976
21
-100.8828189999999978
0
LINE
8
BLACK
6
CONTINUOUS
10
149.0149279999999976
20
-100.8828189999999978
11
149.0530239999999935
21
-100.7304379999999924
0
LINE
8
BLACK
6
CONTINUOUS
10
149.0530239999999935
20
-100.7304379999999924
11
149.0530239999999935
21
-100.6161519999999996
0
LINE
8
BLACK
6
CONTINUOUS
10
149.0530239999999935
20
-100.6161519999999996
11
149.0149279999999976
21
-100.4637709999999942
0
LINE
8
BLACK
6
CONTINUOUS
10
149.0149279999999976
20
-100.4637709999999942
11
148.9768329999999992
21
-100.3875799999999998
0
LINE
8
BLACK
6
CONTINUOUS
10
148.9768329999999992
20
-100.3875799999999998
11
148.9006430000000023
21
-100.3113899999999887
0
LINE
8
BLACK
6
CONTINUOUS
10
148.9006430000000023
20
-100.3113899999999887
11
148.7863569999999811
21
-100.2732949999999903
0
LINE
8
BLACK
6
CONTINUOUS
10
148.7863569999999811
20
-100.2732949999999903
11
148.7101659999999868
21
-100.2732949999999903
0
LINE
8
BLACK
6
CONTINUOUS
10
148.7101659999999868
20
-100.2732949999999903
11
148.5958809999999914
21
-100.3113899999999887
0
LINE
8
BLACK
6
CONTINUOUS
10
148.5958809999999914
20
-100.3113899999999887
11
148.5577849999999955
21
-100.3494850000000014
0
LINE
8
BLACK
6
CONTINUOUS
10
148.2530239999999822
20
-100.3494850000000014
11
148.2149279999999862
21
-100.3113899999999887
0
LINE
8
BLACK
6
CONTINUOUS
10
148.2149279999999862
20
-100.3113899999999887
11
148.1387379999999894
21
-100.2732949999999903
0
LINE
8
BLACK
6
CONTINUOUS
10
148.1387379999999894
20
-100.2732949999999903
11
147.9482619999999997
21
-100.2732949999999903
0
LINE
8
BLACK
6
CONTINUOUS
10
147.9482619999999997
20
-100.2732949999999903
11
147.8720710000000054
21
-100.3113899999999887
0
LINE
8
BLACK
6
CONTINUOUS
10
147.8720710000000054
20
-100.3113899999999887
11
147.8339760000000069
21
-100.3494850000000014
0
LINE
8
BLACK
6
CONTINUOUS
10
147.8339760000000069
20
-100.3494850000000014
11
147.7958809999999801
21
-100.4256759999999957
0
LINE
8
BLACK
6
CONTINUOUS
10
147.7958809999999801
20
-100.4256759999999957
11
147.7958809999999801
21
-100.5018659999999926
0
LINE
8
BLACK
6
CONTINUOUS
10
147.7958809999999801
20
-100.5018659999999926
11
147.8339760000000069
21
-100.6161519999999996
0
LINE
8
BLACK
6
CONTINUOUS
10
147.8339760000000069
20
-100.6161519999999996
11
148.2911189999999806
21
-101.0732950000000017
0
LINE
8
BLACK
6
CONTINUOUS
10
148.2911189999999806
20
-101.0732950000000017
11
147.7958809999999801
21
-101.0732950000000017
0
LINE
8
BLACK
6
CONTINUOUS
10
147.3387380000000064
20
-100.6161519999999996
11
147.4149280000000033
21
-100.5780570000000012
0
LINE
8
BLACK
6
CONTINUOUS
10
147.4149280000000033
20
-100.5780570000000012
11
147.4530230000000017
21
-100.539960999999991
0
LINE
8
BLACK
6
CONTINUOUS
10
147.4530230000000017
20
-100.539960999999991
11
147.4911189999999976
21
-100.4637709999999942
0
LINE
8
BLACK
6
CONTINUOUS
10
147.4911189999999976
20
-100.4637709999999942
11
147.4911189999999976
21
-100.4256759999999957
0
LINE
8
BLACK
6
CONTINUOUS
10
147.4911189999999976
20
-100.4256759999999957
11
147.4530230000000017
21
-100.3494850000000014
0
LINE
8
BLACK
6
CONTINUOUS
10
147.4530230000000017
20
-100.3494850000000014
11
147.4149280000000033
21
-100.3113899999999887
0
LINE
8
BLACK
6
CONTINUOUS
10
147.4149280000000033
20
-100.3113899999999887
11
147.3387380000000064
21
-100.2732949999999903
0
LINE
8
BLACK
6
CONTINUOUS
10
147.3387380000000064
20
-100.2732949999999903
11
147.1863569999999868
21
-100.2732949999999903
0
LINE
8
BLACK
6
CONTINUOUS
10
147.1863569999999868
20
-100.2732949999999903
11
147.1101659999999924
21
-100.3113899999999887
0
LINE
8
BLACK
6
CONTINUOUS
10
147.1101659999999924
20
-100.3113899999999887
11
147.072070999999994
21
-100.3494850000000014
0
LINE
8
BLACK
6
CONTINUOUS
10
147.072070999999994
20
-100.3494850000000014
11
147.0339759999999956
21
-100.4256759999999957
0
LINE
8
BLACK
6
CONTINUOUS
10
147.0339759999999956
20
-100.4256759999999957
11
147.0339759999999956
21
-100.4637709999999942
0
LINE
8
BLACK
6
CONTINUOUS
10
147.0339759999999956
20
-100.4637709999999942
11
147.072070999999994
21
-100.539960999999991
0
LINE
8
BLACK
6
CONTINUOUS
10
147.072070999999994
20
-100.539960999999991
11
147.1101659999999924
21
-100.5780570000000012
0
LINE
8
BLACK
6
CONTINUOUS
10
147.1101659999999924
20
-100.5780570000000012
11
147.1863569999999868
21
-100.6161519999999996
0
LINE
8
BLACK
6
CONTINUOUS
10
147.1863569999999868
20
-100.6161519999999996
11
147.3387380000000064
21
-100.6161519999999996
0
LINE
8
BLACK
6
CONTINUOUS
10
147.3387380000000064
20
-100.6161519999999996
11
147.4149280000000033
21
-100.654246999999998
0
LINE
8
BLACK
6
CONTINUOUS
10
147.4149280000000033
20
-100.654246999999998
11
147.4530230000000017
21
-100.6923419999999965
0
LINE
8
BLACK
6
CONTINUOUS
10
147.4530230000000017
20
-100.6923419999999965
11
147.4911189999999976
21
-100.7685329999999908
0
LINE
8
BLACK
6
CONTINUOUS
10
147.4911189999999976
20
-100.7685329999999908
11
147.4911189999999976
21
-100.9209139999999962
0
LINE
8
BLACK
6
CONTINUOUS
10
147.4911189999999976
20
-100.9209139999999962
11
147.4530230000000017
21
-100.9971039999999931
0
LINE
8
BLACK
6
CONTINUOUS
10
147.4530230000000017
20
-100.9971039999999931
11
147.4149280000000033
21
-101.035199999999989
0
LINE
8
BLACK
6
CONTINUOUS
10
147.4149280000000033
20
-101.035199999999989
11
147.3387380000000064
21
-101.0732950000000017
0
LINE
8
BLACK
6
CONTINUOUS
10
147.3387380000000064
20
-101.0732950000000017
11
147.1863569999999868
21
-101.0732950000000017
0
LINE
8
BLACK
6
CONTINUOUS
10
147.1863569999999868
20
-101.0732950000000017
11
147.1101659999999924
21
-101.035199999999989
0
LINE
8
BLACK
6
CONTINUOUS
10
147.1101659999999924
20
-101.035199999999989
11
147.072070999999994
21
-100.9971039999999931
0
LINE
8
BLACK
6
CONTINUOUS
10
147.072070999999994
20
-100.9971039999999931
11
147.0339759999999956
21
-100.9209139999999962
0
LINE
8
BLACK
6
CONTINUOUS
10
147.0339759999999956
20
-100.9209139999999962
11
147.0339759999999956
21
-100.7685329999999908
0
LINE
8
BLACK
6
CONTINUOUS
10
147.0339759999999956
20
-100.7685329999999908
11
147.072070999999994
21
-100.6923419999999965
0
LINE
8
BLACK
6
CONTINUOUS
10
147.072070999999994
20
-100.6923419999999965
11
147.1101659999999924
21
-100.654246999999998
0
LINE
8
BLACK
6
CONTINUOUS
10
147.1101659999999924
20
-100.654246999999998
11
147.1863569999999868
21
-100.6161519999999996
0
LINE
8
BLACK
6
CONTINUOUS
10
137.0392850000000067
20
-101.5051039999999887
11
137.0773810000000026
21
-101.5431999999999988
0
LINE
8
BLACK
6
CONTINUOUS
10
137.0773810000000026
20
-101.5431999999999988
11
137.1916659999999979
21
-101.5812949999999972
0
LINE
8
BLACK
6
CONTINUOUS
10
137.1916659999999979
20
-101.5812949999999972
11
137.2678569999999922
21
-101.5812949999999972
0
LINE
8
BLACK
6
CONTINUOUS
10
137.2678569999999922
20
-101.5812949999999972
11
137.382142999999985
21
-101.5431999999999988
0
LINE
8
BLACK
6
CONTINUOUS
10
137.382142999999985
20
-101.5431999999999988
11
137.4583329999999819
21
-101.4670089999999902
0
LINE
8
BLACK
6
CONTINUOUS
10
137.4583329999999819
20
-101.4670089999999902
11
137.4964279999999803
21
-101.3908189999999934
0
LINE
8
BLACK
6
CONTINUOUS
10
137.4964279999999803
20
-101.3908189999999934
11
137.5345240000000047
21
-101.2384380000000021
0
LINE
8
BLACK
6
CONTINUOUS
10
137.5345240000000047
20
-101.2384380000000021
11
137.5345240000000047
21
-101.1241519999999952
0
LINE
8
BLACK
6
CONTINUOUS
10
137.5345240000000047
20
-101.1241519999999952
11
137.4964279999999803
21
-100.9717709999999897
0
LINE
8
BLACK
6
CONTINUOUS
10
137.4964279999999803
20
-100.9717709999999897
11
137.4583329999999819
21
-100.8955799999999954
0
LINE
8
BLACK
6
CONTINUOUS
10
137.4583329999999819
20
-100.8955799999999954
11
137.382142999999985
21
-100.8193899999999985
0
LINE
8
BLACK
6
CONTINUOUS
10
137.382142999999985
20
-100.8193899999999985
11
137.2678569999999922
21
-100.7812950000000001
0
LINE
8
BLACK
6
CONTINUOUS
10
137.2678569999999922
20
-100.7812950000000001
11
137.1916659999999979
21
-100.7812950000000001
0
LINE
8
BLACK
6
CONTINUOUS
10
137.1916659999999979
20
-100.7812950000000001
11
137.0773810000000026
21
-100.8193899999999985
0
LINE
8
BLACK
6
CONTINUOUS
10
137.0773810000000026
20
-100.8193899999999985
11
137.0392850000000067
21
-100.8574849999999969
0
LINE
8
BLACK
6
CONTINUOUS
10
136.7345239999999933
20
-100.8574849999999969
11
136.6964279999999974
21
-100.8193899999999985
0
LINE
8
BLACK
6
CONTINUOUS
10
136.6964279999999974
20
-100.8193899999999985
11
136.6202380000000005
21
-100.7812950000000001
0
LINE
8
BLACK
6
CONTINUOUS
10
136.6202380000000005
20
-100.7812950000000001
11
136.4297619999999824
21
-100.7812950000000001
0
LINE
8
BLACK
6
CONTINUOUS
10
136.4297619999999824
20
-100.7812950000000001
11
136.3535709999999881
21
-100.8193899999999985
0
LINE
8
BLACK
6
CONTINUOUS
10
136.3535709999999881
20
-100.8193899999999985
11
136.3154759999999897
21
-100.8574849999999969
0
LINE
8
BLACK
6
CONTINUOUS
10
136.3154759999999897
20
-100.8574849999999969
11
136.2773809999999912
21
-100.9336759999999913
0
LINE
8
BLACK
6
CONTINUOUS
10
136.2773809999999912
20
-100.9336759999999913
11
136.2773809999999912
21
-101.0098660000000024
0
LINE
8
BLACK
6
CONTINUOUS
10
136.2773809999999912
20
-101.0098660000000024
11
136.3154759999999897
21
-101.1241519999999952
0
LINE
8
BLACK
6
CONTINUOUS
10
136.3154759999999897
20
-101.1241519999999952
11
136.7726189999999917
21
-101.5812949999999972
0
LINE
8
BLACK
6
CONTINUOUS
10
136.7726189999999917
20
-101.5812949999999972
11
136.2773809999999912
21
-101.5812949999999972
0
LINE
8
BLACK
6
CONTINUOUS
10
135.5916660000000036
20
-101.0479610000000008
11
135.5916660000000036
21
-101.5812949999999972
0
LINE
8
BLACK
6
CONTINUOUS
10
135.7821419999999932
20
-100.7432000000000016
11
135.9726189999999804
21
-101.314627999999999
0
LINE
8
BLACK
6
CONTINUOUS
10
135.9726189999999804
20
-101.314627999999999
11
135.4773799999999824
21
-101.314627999999999
0
LINE
8
BLACK
6
CONTINUOUS
10
145.3050800000000038
20
-94.9881419999999963
11
145.3526999999999987
21
-94.9405229999999989
0
LINE
8
BLACK
6
CONTINUOUS
10
145.3526999999999987
20
-94.9405229999999989
11
145.4003189999999961
21
-94.7976659999999924
0
LINE
8
BLACK
6
CONTINUOUS
10
145.4003189999999961
20
-94.7976659999999924
11
145.4003189999999961
21
-94.7024279999999976
0
LINE
8
BLACK
6
CONTINUOUS
10
145.4003189999999961
20
-94.7024279999999976
11
145.3526999999999987
21
-94.5595709999999912
0
LINE
8
BLACK
6
CONTINUOUS
10
145.3526999999999987
20
-94.5595709999999912
11
145.2574610000000064
21
-94.4643329999999963
0
LINE
8
BLACK
6
CONTINUOUS
10
145.2574610000000064
20
-94.4643329999999963
11
145.1622229999999831
21
-94.4167139999999989
0
LINE
8
BLACK
6
CONTINUOUS
10
145.1622229999999831
20
-94.4167139999999989
11
144.9717469999999935
21
-94.3690950000000015
0
LINE
8
BLACK
6
CONTINUOUS
10
144.9717469999999935
20
-94.3690950000000015
11
144.8288900000000012
21
-94.3690950000000015
0
LINE
8
BLACK
6
CONTINUOUS
10
144.8288900000000012
20
-94.3690950000000015
11
144.6384139999999832
21
-94.4167139999999989
0
LINE
8
BLACK
6
CONTINUOUS
10
144.6384139999999832
20
-94.4167139999999989
11
144.5431759999999883
21
-94.4643329999999963
0
LINE
8
BLACK
6
CONTINUOUS
10
144.5431759999999883
20
-94.4643329999999963
11
144.4479379999999935
21
-94.5595709999999912
0
LINE
8
BLACK
6
CONTINUOUS
10
144.4479379999999935
20
-94.5595709999999912
11
144.4003189999999961
21
-94.7024279999999976
0
LINE
8
BLACK
6
CONTINUOUS
10
144.4003189999999961
20
-94.7024279999999976
11
144.4003189999999961
21
-94.7976659999999924
0
LINE
8
BLACK
6
CONTINUOUS
10
144.4003189999999961
20
-94.7976659999999924
11
144.4479379999999935
21
-94.9405229999999989
0
LINE
8
BLACK
6
CONTINUOUS
10
144.4479379999999935
20
-94.9405229999999989
11
144.4955569999999909
21
-94.9881419999999963
0
LINE
8
BLACK
6
CONTINUOUS
10
145.4003189999999961
20
-95.9405229999999989
11
145.4003189999999961
21
-95.3690950000000015
0
LINE
8
BLACK
6
CONTINUOUS
10
145.4003189999999961
20
-95.6548090000000002
11
144.4003189999999961
21
-95.6548090000000002
0
LINE
8
BLACK
6
CONTINUOUS
10
144.4003189999999961
20
-95.6548090000000002
11
144.5431759999999883
21
-95.5595709999999912
0
LINE
8
BLACK
6
CONTINUOUS
10
144.5431759999999883
20
-95.5595709999999912
11
144.6384139999999832
21
-95.4643329999999963
0
LINE
8
BLACK
6
CONTINUOUS
10
144.6384139999999832
20
-95.4643329999999963
11
144.6860329999999806
21
-95.3690950000000015
0
LINE
8
BLACK
6
CONTINUOUS
10
145.4003189999999961
20
-96.4167139999999989
11
145.4003189999999961
21
-96.6071899999999886
0
LINE
8
BLACK
6
CONTINUOUS
10
145.4003189999999961
20
-96.6071899999999886
11
145.3526999999999987
21
-96.7024279999999976
0
LINE
8
BLACK
6
CONTINUOUS
10
145.3526999999999987
20
-96.7024279999999976
11
145.3050800000000038
21
-96.750046999999995
0
LINE
8
BLACK
6
CONTINUOUS
10
145.3050800000000038
20
-96.750046999999995
11
145.1622229999999831
21
-96.8452849999999899
0
LINE
8
BLACK
6
CONTINUOUS
10
145.1622229999999831
20
-96.8452849999999899
11
144.9717469999999935
21
-96.8929040000000015
0
LINE
8
BLACK
6
CONTINUOUS
10
144.9717469999999935
20
-96.8929040000000015
11
144.5907949999999857
21
-96.8929040000000015
0
LINE
8
BLACK
6
CONTINUOUS
10
144.5907949999999857
20
-96.8929040000000015
11
144.4955569999999909
21
-96.8452849999999899
0
LINE
8
BLACK
6
CONTINUOUS
10
144.4955569999999909
20
-96.8452849999999899
11
144.4479379999999935
21
-96.7976659999999924
0
LINE
8
BLACK
6
CONTINUOUS
10
144.4479379999999935
20
-96.7976659999999924
11
144.4003189999999961
21
-96.7024279999999976
0
LINE
8
BLACK
6
CONTINUOUS
10
144.4003189999999961
20
-96.7024279999999976
11
144.4003189999999961
21
-96.5119519999999937
0
LINE
8
BLACK
6
CONTINUOUS
10
144.4003189999999961
20
-96.5119519999999937
11
144.4479379999999935
21
-96.4167139999999989
0
LINE
8
BLACK
6
CONTINUOUS
10
144.4479379999999935
20
-96.4167139999999989
11
144.4955569999999909
21
-96.3690950000000015
0
LINE
8
BLACK
6
CONTINUOUS
10
144.4955569999999909
20
-96.3690950000000015
11
144.5907949999999857
21
-96.3214759999999899
0
LINE
8
BLACK
6
CONTINUOUS
10
144.5907949999999857
20
-96.3214759999999899
11
144.8288900000000012
21
-96.3214759999999899
0
LINE
8
BLACK
6
CONTINUOUS
10
144.8288900000000012
20
-96.3214759999999899
11
144.9241279999999961
21
-96.3690950000000015
0
LINE
8
BLACK
6
CONTINUOUS
10
144.9241279999999961
20
-96.3690950000000015
11
144.9717469999999935
21
-96.4167139999999989
0
LINE
8
BLACK
6
CONTINUOUS
10
144.9717469999999935
20
-96.4167139999999989
11
145.0193659999999909
21
-96.5119519999999937
0
LINE
8
BLACK
6
CONTINUOUS
10
145.0193659999999909
20
-96.5119519999999937
11
145.0193659999999909
21
-96.7024279999999976
0
LINE
8
BLACK
6
CONTINUOUS
10
145.0193659999999909
20
-96.7024279999999976
11
144.9717469999999935
21
-96.7976659999999924
0
LINE
8
BLACK
6
CONTINUOUS
10
144.9717469999999935
20
-96.7976659999999924
11
144.9241279999999961
21
-96.8452849999999899
0
LINE
8
BLACK
6
CONTINUOUS
10
144.9241279999999961
20
-96.8452849999999899
11
144.8288900000000012
21
-96.8929040000000015
0
LINE
8
BLACK
6
CONTINUOUS
10
137.0392850000000067
20
-105.3151039999999909
11
137.0773810000000026
21
-105.3532000000000011
0
LINE
8
BLACK
6
CONTINUOUS
10
137.0773810000000026
20
-105.3532000000000011
11
137.1916659999999979
21
-105.3912949999999995
0
LINE
8
BLACK
6
CONTINUOUS
10
137.1916659999999979
20
-105.3912949999999995
11
137.2678569999999922
21
-105.3912949999999995
0
LINE
8
BLACK
6
CONTINUOUS
10
137.2678569999999922
20
-105.3912949999999995
11
137.382142999999985
21
-105.3532000000000011
0
LINE
8
BLACK
6
CONTINUOUS
10
137.382142999999985
20
-105.3532000000000011
11
137.4583329999999819
21
-105.2770089999999925
0
LINE
8
BLACK
6
CONTINUOUS
10
137.4583329999999819
20
-105.2770089999999925
11
137.4964279999999803
21
-105.2008189999999956
0
LINE
8
BLACK
6
CONTINUOUS
10
137.4964279999999803
20
-105.2008189999999956
11
137.5345240000000047
21
-105.0484379999999902
0
LINE
8
BLACK
6
CONTINUOUS
10
137.5345240000000047
20
-105.0484379999999902
11
137.5345240000000047
21
-104.9341519999999974
0
LINE
8
BLACK
6
CONTINUOUS
10
137.5345240000000047
20
-104.9341519999999974
11
137.4964279999999803
21
-104.781770999999992
0
LINE
8
BLACK
6
CONTINUOUS
10
137.4964279999999803
20
-104.781770999999992
11
137.4583329999999819
21
-104.7055799999999977
0
LINE
8
BLACK
6
CONTINUOUS
10
137.4583329999999819
20
-104.7055799999999977
11
137.382142999999985
21
-104.6293900000000008
0
LINE
8
BLACK
6
CONTINUOUS
10
137.382142999999985
20
-104.6293900000000008
11
137.2678569999999922
21
-104.5912950000000023
0
LINE
8
BLACK
6
CONTINUOUS
10
137.2678569999999922
20
-104.5912950000000023
11
137.1916659999999979
21
-104.5912950000000023
0
LINE
8
BLACK
6
CONTINUOUS
10
137.1916659999999979
20
-104.5912950000000023
11
137.0773810000000026
21
-104.6293900000000008
0
LINE
8
BLACK
6
CONTINUOUS
10
137.0773810000000026
20
-104.6293900000000008
11
137.0392850000000067
21
-104.6674849999999992
0
LINE
8
BLACK
6
CONTINUOUS
10
136.2773809999999912
20
-105.3912949999999995
11
136.7345239999999933
21
-105.3912949999999995
0
LINE
8
BLACK
6
CONTINUOUS
10
136.5059520000000077
20
-105.3912949999999995
11
136.5059520000000077
21
-104.5912950000000023
0
LINE
8
BLACK
6
CONTINUOUS
10
136.5059520000000077
20
-104.5912950000000023
11
136.5821430000000021
21
-104.7055799999999977
0
LINE
8
BLACK
6
CONTINUOUS
10
136.5821430000000021
20
-104.7055799999999977
11
136.6583329999999989
21
-104.781770999999992
0
LINE
8
BLACK
6
CONTINUOUS
10
136.6583329999999989
20
-104.781770999999992
11
136.7345239999999933
21
-104.8198659999999904
0
LINE
8
BLACK
6
CONTINUOUS
10
135.9726189999999804
20
-104.6674849999999992
11
135.9345229999999844
21
-104.6293900000000008
0
LINE
8
BLACK
6
CONTINUOUS
10
135.9345229999999844
20
-104.6293900000000008
11
135.8583329999999876
21
-104.5912950000000023
0
LINE
8
BLACK
6
CONTINUOUS
10
135.8583329999999876
20
-104.5912950000000023
11
135.6678569999999979
21
-104.5912950000000023
0
LINE
8
BLACK
6
CONTINUOUS
10
135.6678569999999979
20
-104.5912950000000023
11
135.5916660000000036
21
-104.6293900000000008
0
LINE
8
BLACK
6
CONTINUOUS
10
135.5916660000000036
20
-104.6293900000000008
11
135.5535710000000051
21
-104.6674849999999992
0
LINE
8
BLACK
6
CONTINUOUS
10
135.5535710000000051
20
-104.6674849999999992
11
135.5154760000000067
21
-104.7436759999999936
0
LINE
8
BLACK
6
CONTINUOUS
10
135.5154760000000067
20
-104.7436759999999936
11
135.5154760000000067
21
-104.8198659999999904
0
LINE
8
BLACK
6
CONTINUOUS
10
135.5154760000000067
20
-104.8198659999999904
11
135.5535710000000051
21
-104.9341519999999974
0
LINE
8
BLACK
6
CONTINUOUS
10
135.5535710000000051
20
-104.9341519999999974
11
136.0107140000000072
21
-105.3912949999999995
0
LINE
8
BLACK
6
CONTINUOUS
10
136.0107140000000072
20
-105.3912949999999995
11
135.5154760000000067
21
-105.3912949999999995
0
LINE
8
BLACK
6
CONTINUOUS
10
142.8812849999999912
20
-90.5831039999999916
11
142.9193809999999871
21
-90.6212000000000018
0
LINE
8
BLACK
6
CONTINUOUS
10
142.9193809999999871
20
-90.6212000000000018
11
143.0336659999999824
21
-90.6592950000000002
0
LINE
8
BLACK
6
CONTINUOUS
10
143.0336659999999824
20
-90.6592950000000002
11
143.1098570000000052
21
-90.6592950000000002
0
LINE
8
BLACK
6
CONTINUOUS
10
143.1098570000000052
20
-90.6592950000000002
11
143.224142999999998
21
-90.6212000000000018
0
LINE
8
BLACK
6
CONTINUOUS
10
143.224142999999998
20
-90.6212000000000018
11
143.3003329999999949
21
-90.5450089999999932
0
LINE
8
BLACK
6
CONTINUOUS
10
143.3003329999999949
20
-90.5450089999999932
11
143.3384279999999933
21
-90.4688189999999963
0
LINE
8
BLACK
6
CONTINUOUS
10
143.3384279999999933
20
-90.4688189999999963
11
143.3765239999999892
21
-90.3164379999999909
0
LINE
8
BLACK
6
CONTINUOUS
10
143.3765239999999892
20
-90.3164379999999909
11
143.3765239999999892
21
-90.2021519999999981
0
LINE
8
BLACK
6
CONTINUOUS
10
143.3765239999999892
20
-90.2021519999999981
11
143.3384279999999933
21
-90.0497709999999927
0
LINE
8
BLACK
6
CONTINUOUS
10
143.3384279999999933
20
-90.0497709999999927
11
143.3003329999999949
21
-89.9735799999999983
0
LINE
8
BLACK
6
CONTINUOUS
10
143.3003329999999949
20
-89.9735799999999983
11
143.224142999999998
21
-89.8973900000000015
0
LINE
8
BLACK
6
CONTINUOUS
10
143.224142999999998
20
-89.8973900000000015
11
143.1098570000000052
21
-89.859295000000003
0
LINE
8
BLACK
6
CONTINUOUS
10
143.1098570000000052
20
-89.859295000000003
11
143.0336659999999824
21
-89.859295000000003
0
LINE
8
BLACK
6
CONTINUOUS
10
143.0336659999999824
20
-89.859295000000003
11
142.9193809999999871
21
-89.8973900000000015
0
LINE
8
BLACK
6
CONTINUOUS
10
142.9193809999999871
20
-89.8973900000000015
11
142.8812849999999912
21
-89.9354849999999999
0
LINE
8
BLACK
6
CONTINUOUS
10
142.6146190000000047
20
-89.859295000000003
11
142.1193810000000042
21
-89.859295000000003
0
LINE
8
BLACK
6
CONTINUOUS
10
142.1193810000000042
20
-89.859295000000003
11
142.3860469999999907
21
-90.1640569999999997
0
LINE
8
BLACK
6
CONTINUOUS
10
142.3860469999999907
20
-90.1640569999999997
11
142.2717619999999954
21
-90.1640569999999997
0
LINE
8
BLACK
6
CONTINUOUS
10
142.2717619999999954
20
-90.1640569999999997
11
142.195571000000001
21
-90.2021519999999981
0
LINE
8
BLACK
6
CONTINUOUS
10
142.195571000000001
20
-90.2021519999999981
11
142.1574760000000026
21
-90.2402469999999965
0
LINE
8
BLACK
6
CONTINUOUS
10
142.1574760000000026
20
-90.2402469999999965
11
142.1193810000000042
21
-90.3164379999999909
0
LINE
8
BLACK
6
CONTINUOUS
10
142.1193810000000042
20
-90.3164379999999909
11
142.1193810000000042
21
-90.5069139999999948
0
LINE
8
BLACK
6
CONTINUOUS
10
142.1193810000000042
20
-90.5069139999999948
11
142.1574760000000026
21
-90.5831039999999916
0
LINE
8
BLACK
6
CONTINUOUS
10
142.1574760000000026
20
-90.5831039999999916
11
142.195571000000001
21
-90.6212000000000018
0
LINE
8
BLACK
6
CONTINUOUS
10
142.195571000000001
20
-90.6212000000000018
11
142.2717619999999954
21
-90.6592950000000002
0
LINE
8
BLACK
6
CONTINUOUS
10
142.2717619999999954
20
-90.6592950000000002
11
142.5003329999999835
21
-90.6592950000000002
0
LINE
8
BLACK
6
CONTINUOUS
10
142.5003329999999835
20
-90.6592950000000002
11
142.5765240000000063
21
-90.6212000000000018
0
LINE
8
BLACK
6
CONTINUOUS
10
142.5765240000000063
20
-90.6212000000000018
11
142.6146190000000047
21
-90.5831039999999916
0
LINE
8
BLACK
6
CONTINUOUS
10
141.8146189999999933
20
-89.9354849999999999
11
141.7765229999999974
21
-89.8973900000000015
0
LINE
8
BLACK
6
CONTINUOUS
10
141.7765229999999974
20
-89.8973900000000015
11
141.7003330000000005
21
-89.859295000000003
0
LINE
8
BLACK
6
CONTINUOUS
10
141.7003330000000005
20
-89.859295000000003
11
141.5098569999999825
21
-89.859295000000003
0
LINE
8
BLACK
6
CONTINUOUS
10
141.5098569999999825
20
-89.859295000000003
11
141.4336659999999881
21
-89.8973900000000015
0
LINE
8
BLACK
6
CONTINUOUS
10
141.4336659999999881
20
-89.8973900000000015
11
141.3955709999999897
21
-89.9354849999999999
0
LINE
8
BLACK
6
CONTINUOUS
10
141.3955709999999897
20
-89.9354849999999999
11
141.3574759999999912
21
-90.0116759999999942
0
LINE
8
BLACK
6
CONTINUOUS
10
141.3574759999999912
20
-90.0116759999999942
11
141.3574759999999912
21
-90.0878659999999911
0
LINE
8
BLACK
6
CONTINUOUS
10
141.3574759999999912
20
-90.0878659999999911
11
141.3955709999999897
21
-90.2021519999999981
0
LINE
8
BLACK
6
CONTINUOUS
10
141.3955709999999897
20
-90.2021519999999981
11
141.8527139999999918
21
-90.6592950000000002
0
LINE
8
BLACK
6
CONTINUOUS
10
141.8527139999999918
20
-90.6592950000000002
11
141.3574759999999912
21
-90.6592950000000002
0
LINE
8
BLACK
6
CONTINUOUS
10
148.4692849999999851
20
-112.173103999999995
11
148.507380999999981
21
-112.211199999999991
0
LINE
8
BLACK
6
CONTINUOUS
10
148.507380999999981
20
-112.211199999999991
11
148.6216660000000047
21
-112.2492949999999894
0
LINE
8
BLACK
6
CONTINUOUS
10
148.6216660000000047
20
-112.2492949999999894
11
148.6978569999999991
21
-112.2492949999999894
0
LINE
8
BLACK
6
CONTINUOUS
10
148.6978569999999991
20
-112.2492949999999894
11
148.8121429999999918
21
-112.211199999999991
0
LINE
8
BLACK
6
CONTINUOUS
10
148.8121429999999918
20
-112.211199999999991
11
148.8883329999999887
21
-112.1350089999999966
0
LINE
8
BLACK
6
CONTINUOUS
10
148.8883329999999887
20
-112.1350089999999966
11
148.9264279999999872
21
-112.0588189999999997
0
LINE
8
BLACK
6
CONTINUOUS
10
148.9264279999999872
20
-112.0588189999999997
11
148.9645239999999831
21
-111.9064379999999943
0
LINE
8
BLACK
6
CONTINUOUS
10
148.9645239999999831
20
-111.9064379999999943
11
148.9645239999999831
21
-111.7921520000000015
0
LINE
8
BLACK
6
CONTINUOUS
10
148.9645239999999831
20
-111.7921520000000015
11
148.9264279999999872
21
-111.6397709999999961
0
LINE
8
BLACK
6
CONTINUOUS
10
148.9264279999999872
20
-111.6397709999999961
11
148.8883329999999887
21
-111.5635800000000017
0
LINE
8
BLACK
6
CONTINUOUS
10
148.8883329999999887
20
-111.5635800000000017
11
148.8121429999999918
21
-111.4873899999999907
0
LINE
8
BLACK
6
CONTINUOUS
10
148.8121429999999918
20
-111.4873899999999907
11
148.6978569999999991
21
-111.4492949999999922
0
LINE
8
BLACK
6
CONTINUOUS
10
148.6978569999999991
20
-111.4492949999999922
11
148.6216660000000047
21
-111.4492949999999922
0
LINE
8
BLACK
6
CONTINUOUS
10
148.6216660000000047
20
-111.4492949999999922
11
148.507380999999981
21
-111.4873899999999907
0
LINE
8
BLACK
6
CONTINUOUS
10
148.507380999999981
20
-111.4873899999999907
11
148.4692849999999851
21
-111.5254849999999891
0
LINE
8
BLACK
6
CONTINUOUS
10
147.7835709999999949
20
-111.715960999999993
11
147.7835709999999949
21
-112.2492949999999894
0
LINE
8
BLACK
6
CONTINUOUS
10
147.9740469999999846
20
-111.4111999999999938
11
148.1645240000000001
21
-111.9826279999999912
0
LINE
8
BLACK
6
CONTINUOUS
10
148.1645240000000001
20
-111.9826279999999912
11
147.6692850000000021
21
-111.9826279999999912
0
LINE
8
BLACK
6
CONTINUOUS
10
146.9454759999999851
20
-112.2492949999999894
11
147.4026189999999872
21
-112.2492949999999894
0
LINE
8
BLACK
6
CONTINUOUS
10
147.1740470000000016
20
-112.2492949999999894
11
147.1740470000000016
21
-111.4492949999999922
0
LINE
8
BLACK
6
CONTINUOUS
10
147.1740470000000016
20
-111.4492949999999922
11
147.250237999999996
21
-111.5635800000000017
0
LINE
8
BLACK
6
CONTINUOUS
10
147.250237999999996
20
-111.5635800000000017
11
147.3264279999999928
21
-111.6397709999999961
0
LINE
8
BLACK
6
CONTINUOUS
10
147.3264279999999928
20
-111.6397709999999961
11
147.4026189999999872
21
-111.6778659999999945
0
LINE
8
BLACK
6
CONTINUOUS
10
145.9900800000000061
20
-113.4983329999999881
11
146.037700000000001
21
-113.4507139999999907
0
LINE
8
BLACK
6
CONTINUOUS
10
146.037700000000001
20
-113.4507139999999907
11
146.0853189999999984
21
-113.3078569999999985
0
LINE
8
BLACK
6
CONTINUOUS
10
146.0853189999999984
20
-113.3078569999999985
11
146.0853189999999984
21
-113.2126189999999895
0
LINE
8
BLACK
6
CONTINUOUS
10
146.0853189999999984
20
-113.2126189999999895
11
146.037700000000001
21
-113.0697619999999972
0
LINE
8
BLACK
6
CONTINUOUS
10
146.037700000000001
20
-113.0697619999999972
11
145.9424609999999802
21
-112.9745239999999882
0
LINE
8
BLACK
6
CONTINUOUS
10
145.9424609999999802
20
-112.9745239999999882
11
145.8472229999999854
21
-112.9269049999999908
0
LINE
8
BLACK
6
CONTINUOUS
10
145.8472229999999854
20
-112.9269049999999908
11
145.6567469999999958
21
-112.8792859999999934
0
LINE
8
BLACK
6
CONTINUOUS
10
145.6567469999999958
20
-112.8792859999999934
11
145.5138900000000035
21
-112.8792859999999934
0
LINE
8
BLACK
6
CONTINUOUS
10
145.5138900000000035
20
-112.8792859999999934
11
145.3234139999999854
21
-112.9269049999999908
0
LINE
8
BLACK
6
CONTINUOUS
10
145.3234139999999854
20
-112.9269049999999908
11
145.2281759999999906
21
-112.9745239999999882
0
LINE
8
BLACK
6
CONTINUOUS
10
145.2281759999999906
20
-112.9745239999999882
11
145.1329379999999958
21
-113.0697619999999972
0
LINE
8
BLACK
6
CONTINUOUS
10
145.1329379999999958
20
-113.0697619999999972
11
145.0853189999999984
21
-113.2126189999999895
0
LINE
8
BLACK
6
CONTINUOUS
10
145.0853189999999984
20
-113.2126189999999895
11
145.0853189999999984
21
-113.3078569999999985
0
LINE
8
BLACK
6
CONTINUOUS
10
145.0853189999999984
20
-113.3078569999999985
11
145.1329379999999958
21
-113.4507139999999907
0
LINE
8
BLACK
6
CONTINUOUS
10
145.1329379999999958
20
-113.4507139999999907
11
145.1805569999999932
21
-113.4983329999999881
0
LINE
8
BLACK
6
CONTINUOUS
10
145.0853189999999984
20
-114.4030949999999933
11
145.0853189999999984
21
-113.9269049999999908
0
LINE
8
BLACK
6
CONTINUOUS
10
145.0853189999999984
20
-113.9269049999999908
11
145.5615090000000009
21
-113.8792859999999934
0
LINE
8
BLACK
6
CONTINUOUS
10
145.5615090000000009
20
-113.8792859999999934
11
145.5138900000000035
21
-113.9269049999999908
0
LINE
8
BLACK
6
CONTINUOUS
10
145.5138900000000035
20
-113.9269049999999908
11
145.4662710000000061
21
-114.0221429999999998
0
LINE
8
BLACK
6
CONTINUOUS
10
145.4662710000000061
20
-114.0221429999999998
11
145.4662710000000061
21
-114.2602380000000011
0
LINE
8
BLACK
6
CONTINUOUS
10
145.4662710000000061
20
-114.2602380000000011
11
145.5138900000000035
21
-114.3554759999999959
0
LINE
8
BLACK
6
CONTINUOUS
10
145.5138900000000035
20
-114.3554759999999959
11
145.5615090000000009
21
-114.4030949999999933
0
LINE
8
BLACK
6
CONTINUOUS
10
145.5615090000000009
20
-114.4030949999999933
11
145.6567469999999958
21
-114.4507139999999907
0
LINE
8
BLACK
6
CONTINUOUS
10
145.6567469999999958
20
-114.4507139999999907
11
145.8948419999999828
21
-114.4507139999999907
0
LINE
8
BLACK
6
CONTINUOUS
10
145.8948419999999828
20
-114.4507139999999907
11
145.9900800000000061
21
-114.4030949999999933
0
LINE
8
BLACK
6
CONTINUOUS
10
145.9900800000000061
20
-114.4030949999999933
11
146.037700000000001
21
-114.3554759999999959
0
LINE
8
BLACK
6
CONTINUOUS
10
146.037700000000001
20
-114.3554759999999959
11
146.0853189999999984
21
-114.2602380000000011
0
LINE
8
BLACK
6
CONTINUOUS
10
146.0853189999999984
20
-114.2602380000000011
11
146.0853189999999984
21
-114.0221429999999998
0
LINE
8
BLACK
6
CONTINUOUS
10
146.0853189999999984
20
-114.0221429999999998
11
146.037700000000001
21
-113.9269049999999908
0
LINE
8
BLACK
6
CONTINUOUS
10
146.037700000000001
20
-113.9269049999999908
11
145.9900800000000061
21
-113.8792859999999934
0
LINE
8
BLACK
6
CONTINUOUS
10
145.2550799999999924
20
-91.5591419999999943
11
145.3026999999999873
21
-91.5115229999999968
0
LINE
8
BLACK
6
CONTINUOUS
10
145.3026999999999873
20
-91.5115229999999968
11
145.3503189999999847
21
-91.3686659999999904
0
LINE
8
BLACK
6
CONTINUOUS
10
145.3503189999999847
20
-91.3686659999999904
11
145.3503189999999847
21
-91.2734279999999956
0
LINE
8
BLACK
6
CONTINUOUS
10
145.3503189999999847
20
-91.2734279999999956
11
145.3026999999999873
21
-91.1305709999999891
0
LINE
8
BLACK
6
CONTINUOUS
10
145.3026999999999873
20
-91.1305709999999891
11
145.207460999999995
21
-91.0353329999999943
0
LINE
8
BLACK
6
CONTINUOUS
10
145.207460999999995
20
-91.0353329999999943
11
145.1122230000000002
21
-90.9877139999999969
0
LINE
8
BLACK
6
CONTINUOUS
10
145.1122230000000002
20
-90.9877139999999969
11
144.9217469999999821
21
-90.9400949999999995
0
LINE
8
BLACK
6
CONTINUOUS
10
144.9217469999999821
20
-90.9400949999999995
11
144.7788899999999899
21
-90.9400949999999995
0
LINE
8
BLACK
6
CONTINUOUS
10
144.7788899999999899
20
-90.9400949999999995
11
144.5884140000000002
21
-90.9877139999999969
0
LINE
8
BLACK
6
CONTINUOUS
10
144.5884140000000002
20
-90.9877139999999969
11
144.4931760000000054
21
-91.0353329999999943
0
LINE
8
BLACK
6
CONTINUOUS
10
144.4931760000000054
20
-91.0353329999999943
11
144.3979379999999821
21
-91.1305709999999891
0
LINE
8
BLACK
6
CONTINUOUS
10
144.3979379999999821
20
-91.1305709999999891
11
144.3503189999999847
21
-91.2734279999999956
0
LINE
8
BLACK
6
CONTINUOUS
10
144.3503189999999847
20
-91.2734279999999956
11
144.3503189999999847
21
-91.3686659999999904
0
LINE
8
BLACK
6
CONTINUOUS
10
144.3503189999999847
20
-91.3686659999999904
11
144.3979379999999821
21
-91.5115229999999968
0
LINE
8
BLACK
6
CONTINUOUS
10
144.3979379999999821
20
-91.5115229999999968
11
144.4455569999999796
21
-91.5591419999999943
0
LINE
8
BLACK
6
CONTINUOUS
10
145.3503189999999847
20
-92.5115229999999968
11
145.3503189999999847
21
-91.9400949999999995
0
LINE
8
BLACK
6
CONTINUOUS
10
145.3503189999999847
20
-92.2258089999999982
11
144.3503189999999847
21
-92.2258089999999982
0
LINE
8
BLACK
6
CONTINUOUS
10
144.3503189999999847
20
-92.2258089999999982
11
144.4931760000000054
21
-92.1305709999999891
0
LINE
8
BLACK
6
CONTINUOUS
10
144.4931760000000054
20
-92.1305709999999891
11
144.5884140000000002
21
-92.0353329999999943
0
LINE
8
BLACK
6
CONTINUOUS
10
144.5884140000000002
20
-92.0353329999999943
11
144.6360329999999976
21
-91.9400949999999995
0
LINE
8
BLACK
6
CONTINUOUS
10
144.3503189999999847
20
-93.416285000000002
11
144.3503189999999847
21
-92.9400949999999995
0
LINE
8
BLACK
6
CONTINUOUS
10
144.3503189999999847
20
-92.9400949999999995
11
144.8265089999999873
21
-92.892476000000002
0
LINE
8
BLACK
6
CONTINUOUS
10
144.8265089999999873
20
-92.892476000000002
11
144.7788899999999899
21
-92.9400949999999995
0
LINE
8
BLACK
6
CONTINUOUS
10
144.7788899999999899
20
-92.9400949999999995
11
144.7312709999999925
21
-93.0353329999999943
0
LINE
8
BLACK
6
CONTINUOUS
10
144.7312709999999925
20
-93.0353329999999943
11
144.7312709999999925
21
-93.2734279999999956
0
LINE
8
BLACK
6
CONTINUOUS
10
144.7312709999999925
20
-93.2734279999999956
11
144.7788899999999899
21
-93.3686659999999904
0
LINE
8
BLACK
6
CONTINUOUS
10
144.7788899999999899
20
-93.3686659999999904
11
144.8265089999999873
21
-93.416285000000002
0
LINE
8
BLACK
6
CONTINUOUS
10
144.8265089999999873
20
-93.416285000000002
11
144.9217469999999821
21
-93.4639039999999994
0
LINE
8
BLACK
6
CONTINUOUS
10
144.9217469999999821
20
-93.4639039999999994
11
145.1598419999999976
21
-93.4639039999999994
0
LINE
8
BLACK
6
CONTINUOUS
10
145.1598419999999976
20
-93.4639039999999994
11
145.2550799999999924
21
-93.416285000000002
0
LINE
8
BLACK
6
CONTINUOUS
10
145.2550799999999924
20
-93.416285000000002
11
145.3026999999999873
21
-93.3686659999999904
0
LINE
8
BLACK
6
CONTINUOUS
10
145.3026999999999873
20
-93.3686659999999904
11
145.3503189999999847
21
-93.2734279999999956
0
LINE
8
BLACK
6
CONTINUOUS
10
145.3503189999999847
20
-93.2734279999999956
11
145.3503189999999847
21
-93.0353329999999943
0
LINE
8
BLACK
6
CONTINUOUS
10
145.3503189999999847
20
-93.0353329999999943
11
145.3026999999999873
21
-92.9400949999999995
0
LINE
8
BLACK
6
CONTINUOUS
10
145.3026999999999873
20
-92.9400949999999995
11
145.2550799999999924
21
-92.892476000000002
0
LINE
8
BLACK
6
CONTINUOUS
10
137.1662849999999878
20
-90.5831039999999916
11
137.2043809999999837
21
-90.6212000000000018
0
LINE
8
BLACK
6
CONTINUOUS
10
137.2043809999999837
20
-90.6212000000000018
11
137.3186660000000074
21
-90.6592950000000002
0
LINE
8
BLACK
6
CONTINUOUS
10
137.3186660000000074
20
-90.6592950000000002
11
137.3948570000000018
21
-90.6592950000000002
0
LINE
8
BLACK
6
CONTINUOUS
10
137.3948570000000018
20
-90.6592950000000002
11
137.5091429999999946
21
-90.6212000000000018
0
LINE
8
BLACK
6
CONTINUOUS
10
137.5091429999999946
20
-90.6212000000000018
11
137.5853329999999914
21
-90.5450089999999932
0
LINE
8
BLACK
6
CONTINUOUS
10
137.5853329999999914
20
-90.5450089999999932
11
137.6234279999999899
21
-90.4688189999999963
0
LINE
8
BLACK
6
CONTINUOUS
10
137.6234279999999899
20
-90.4688189999999963
11
137.6615239999999858
21
-90.3164379999999909
0
LINE
8
BLACK
6
CONTINUOUS
10
137.6615239999999858
20
-90.3164379999999909
11
137.6615239999999858
21
-90.2021519999999981
0
LINE
8
BLACK
6
CONTINUOUS
10
137.6615239999999858
20
-90.2021519999999981
11
137.6234279999999899
21
-90.0497709999999927
0
LINE
8
BLACK
6
CONTINUOUS
10
137.6234279999999899
20
-90.0497709999999927
11
137.5853329999999914
21
-89.9735799999999983
0
LINE
8
BLACK
6
CONTINUOUS
10
137.5853329999999914
20
-89.9735799999999983
11
137.5091429999999946
21
-89.8973900000000015
0
LINE
8
BLACK
6
CONTINUOUS
10
137.5091429999999946
20
-89.8973900000000015
11
137.3948570000000018
21
-89.859295000000003
0
LINE
8
BLACK
6
CONTINUOUS
10
137.3948570000000018
20
-89.859295000000003
11
137.3186660000000074
21
-89.859295000000003
0
LINE
8
BLACK
6
CONTINUOUS
10
137.3186660000000074
20
-89.859295000000003
11
137.2043809999999837
21
-89.8973900000000015
0
LINE
8
BLACK
6
CONTINUOUS
10
137.2043809999999837
20
-89.8973900000000015
11
137.1662849999999878
21
-89.9354849999999999
0
LINE
8
BLACK
6
CONTINUOUS
10
136.8615240000000028
20
-89.9354849999999999
11
136.8234280000000069
21
-89.8973900000000015
0
LINE
8
BLACK
6
CONTINUOUS
10
136.8234280000000069
20
-89.8973900000000015
11
136.7472379999999816
21
-89.859295000000003
0
LINE
8
BLACK
6
CONTINUOUS
10
136.7472379999999816
20
-89.859295000000003
11
136.556761999999992
21
-89.859295000000003
0
LINE
8
BLACK
6
CONTINUOUS
10
136.556761999999992
20
-89.859295000000003
11
136.4805709999999976
21
-89.8973900000000015
0
LINE
8
BLACK
6
CONTINUOUS
10
136.4805709999999976
20
-89.8973900000000015
11
136.4424759999999992
21
-89.9354849999999999
0
LINE
8
BLACK
6
CONTINUOUS
10
136.4424759999999992
20
-89.9354849999999999
11
136.4043810000000008
21
-90.0116759999999942
0
LINE
8
BLACK
6
CONTINUOUS
10
136.4043810000000008
20
-90.0116759999999942
11
136.4043810000000008
21
-90.0878659999999911
0
LINE
8
BLACK
6
CONTINUOUS
10
136.4043810000000008
20
-90.0878659999999911
11
136.4424759999999992
21
-90.2021519999999981
0
LINE
8
BLACK
6
CONTINUOUS
10
136.4424759999999992
20
-90.2021519999999981
11
136.8996190000000013
21
-90.6592950000000002
0
LINE
8
BLACK
6
CONTINUOUS
10
136.8996190000000013
20
-90.6592950000000002
11
136.4043810000000008
21
-90.6592950000000002
0
LINE
8
BLACK
6
CONTINUOUS
10
136.1377139999999883
20
-89.859295000000003
11
135.6424759999999878
21
-89.859295000000003
0
LINE
8
BLACK
6
CONTINUOUS
10
135.6424759999999878
20
-89.859295000000003
11
135.9091420000000028
21
-90.1640569999999997
0
LINE
8
BLACK
6
CONTINUOUS
10
135.9091420000000028
20
-90.1640569999999997
11
135.7948570000000075
21
-90.1640569999999997
0
LINE
8
BLACK
6
CONTINUOUS
10
135.7948570000000075
20
-90.1640569999999997
11
135.7186659999999847
21
-90.2021519999999981
0
LINE
8
BLACK
6
CONTINUOUS
10
135.7186659999999847
20
-90.2021519999999981
11
135.6805709999999863
21
-90.2402469999999965
0
LINE
8
BLACK
6
CONTINUOUS
10
135.6805709999999863
20
-90.2402469999999965
11
135.6424759999999878
21
-90.3164379999999909
0
LINE
8
BLACK
6
CONTINUOUS
10
135.6424759999999878
20
-90.3164379999999909
11
135.6424759999999878
21
-90.5069139999999948
0
LINE
8
BLACK
6
CONTINUOUS
10
135.6424759999999878
20
-90.5069139999999948
11
135.6805709999999863
21
-90.5831039999999916
0
LINE
8
BLACK
6
CONTINUOUS
10
135.6805709999999863
20
-90.5831039999999916
11
135.7186659999999847
21
-90.6212000000000018
0
LINE
8
BLACK
6
CONTINUOUS
10
135.7186659999999847
20
-90.6212000000000018
11
135.7948570000000075
21
-90.6592950000000002
0
LINE
8
BLACK
6
CONTINUOUS
10
135.7948570000000075
20
-90.6592950000000002
11
136.0234279999999956
21
-90.6592950000000002
0
LINE
8
BLACK
6
CONTINUOUS
10
136.0234279999999956
20
-90.6592950000000002
11
136.0996189999999899
21
-90.6212000000000018
0
LINE
8
BLACK
6
CONTINUOUS
10
136.0996189999999899
20
-90.6212000000000018
11
136.1377139999999883
21
-90.5831039999999916
0
LINE
8
BLACK
6
CONTINUOUS
10
145.2550799999999924
20
-112.8951419999999928
11
145.3026999999999873
21
-112.8475229999999954
0
LINE
8
BLACK
6
CONTINUOUS
10
145.3026999999999873
20
-112.8475229999999954
11
145.3503189999999847
21
-112.7046659999999889
0
LINE
8
BLACK
6
CONTINUOUS
10
145.3503189999999847
20
-112.7046659999999889
11
145.3503189999999847
21
-112.6094279999999941
0
LINE
8
BLACK
6
CONTINUOUS
10
145.3503189999999847
20
-112.6094279999999941
11
145.3026999999999873
21
-112.4665710000000018
0
LINE
8
BLACK
6
CONTINUOUS
10
145.3026999999999873
20
-112.4665710000000018
11
145.207460999999995
21
-112.3713329999999928
0
LINE
8
BLACK
6
CONTINUOUS
10
145.207460999999995
20
-112.3713329999999928
11
145.1122230000000002
21
-112.3237139999999954
0
LINE
8
BLACK
6
CONTINUOUS
10
145.1122230000000002
20
-112.3237139999999954
11
144.9217469999999821
21
-112.276094999999998
0
LINE
8
BLACK
6
CONTINUOUS
10
144.9217469999999821
20
-112.276094999999998
11
144.7788899999999899
21
-112.276094999999998
0
LINE
8
BLACK
6
CONTINUOUS
10
144.7788899999999899
20
-112.276094999999998
11
144.5884140000000002
21
-112.3237139999999954
0
LINE
8
BLACK
6
CONTINUOUS
10
144.5884140000000002
20
-112.3237139999999954
11
144.4931760000000054
21
-112.3713329999999928
0
LINE
8
BLACK
6
CONTINUOUS
10
144.4931760000000054
20
-112.3713329999999928
11
144.3979379999999821
21
-112.4665710000000018
0
LINE
8
BLACK
6
CONTINUOUS
10
144.3979379999999821
20
-112.4665710000000018
11
144.3503189999999847
21
-112.6094279999999941
0
LINE
8
BLACK
6
CONTINUOUS
10
144.3503189999999847
20
-112.6094279999999941
11
144.3503189999999847
21
-112.7046659999999889
0
LINE
8
BLACK
6
CONTINUOUS
10
144.3503189999999847
20
-112.7046659999999889
11
144.3979379999999821
21
-112.8475229999999954
0
LINE
8
BLACK
6
CONTINUOUS
10
144.3979379999999821
20
-112.8475229999999954
11
144.4455569999999796
21
-112.8951419999999928
0
LINE
8
BLACK
6
CONTINUOUS
10
144.683651999999995
20
-113.7522850000000005
11
145.3503189999999847
21
-113.7522850000000005
0
LINE
8
BLACK
6
CONTINUOUS
10
144.3026999999999873
20
-113.5141899999999993
11
145.0169850000000054
21
-113.276094999999998
0
LINE
8
BLACK
6
CONTINUOUS
10
145.0169850000000054
20
-113.276094999999998
11
145.0169850000000054
21
-113.8951419999999928
0
LINE
8
BLACK
6
CONTINUOUS
10
144.3503189999999847
20
-114.4665710000000018
11
144.3503189999999847
21
-114.5618089999999967
0
LINE
8
BLACK
6
CONTINUOUS
10
144.3503189999999847
20
-114.5618089999999967
11
144.3979379999999821
21
-114.6570469999999915
0
LINE
8
BLACK
6
CONTINUOUS
10
144.3979379999999821
20
-114.6570469999999915
11
144.4455569999999796
21
-114.7046659999999889
0
LINE
8
BLACK
6
CONTINUOUS
10
144.4455569999999796
20
-114.7046659999999889
11
144.5407950000000028
21
-114.7522850000000005
0
LINE
8
BLACK
6
CONTINUOUS
10
144.5407950000000028
20
-114.7522850000000005
11
144.7312709999999925
21
-114.7999039999999979
0
LINE
8
BLACK
6
CONTINUOUS
10
144.7312709999999925
20
-114.7999039999999979
11
144.9693659999999795
21
-114.7999039999999979
0
LINE
8
BLACK
6
CONTINUOUS
10
144.9693659999999795
20
-114.7999039999999979
11
145.1598419999999976
21
-114.7522850000000005
0
LINE
8
BLACK
6
CONTINUOUS
10
145.1598419999999976
20
-114.7522850000000005
11
145.2550799999999924
21
-114.7046659999999889
0
LINE
8
BLACK
6
CONTINUOUS
10
145.2550799999999924
20
-114.7046659999999889
11
145.3026999999999873
21
-114.6570469999999915
0
LINE
8
BLACK
6
CONTINUOUS
10
145.3026999999999873
20
-114.6570469999999915
11
145.3503189999999847
21
-114.5618089999999967
0
LINE
8
BLACK
6
CONTINUOUS
10
145.3503189999999847
20
-114.5618089999999967
11
145.3503189999999847
21
-114.4665710000000018
0
LINE
8
BLACK
6
CONTINUOUS
10
145.3503189999999847
20
-114.4665710000000018
11
145.3026999999999873
21
-114.3713329999999928
0
LINE
8
BLACK
6
CONTINUOUS
10
145.3026999999999873
20
-114.3713329999999928
11
145.2550799999999924
21
-114.3237139999999954
0
LINE
8
BLACK
6
CONTINUOUS
10
145.2550799999999924
20
-114.3237139999999954
11
145.1598419999999976
21
-114.276094999999998
0
LINE
8
BLACK
6
CONTINUOUS
10
145.1598419999999976
20
-114.276094999999998
11
144.9693659999999795
21
-114.2284760000000006
0
LINE
8
BLACK
6
CONTINUOUS
10
144.9693659999999795
20
-114.2284760000000006
11
144.7312709999999925
21
-114.2284760000000006
0
LINE
8
BLACK
6
CONTINUOUS
10
144.7312709999999925
20
-114.2284760000000006
11
144.5407950000000028
21
-114.276094999999998
0
LINE
8
BLACK
6
CONTINUOUS
10
144.5407950000000028
20
-114.276094999999998
11
144.4455569999999796
21
-114.3237139999999954
0
LINE
8
BLACK
6
CONTINUOUS
10
144.4455569999999796
20
-114.3237139999999954
11
144.3979379999999821
21
-114.3713329999999928
0
LINE
8
BLACK
6
CONTINUOUS
10
144.3979379999999821
20
-114.3713329999999928
11
144.3503189999999847
21
-114.4665710000000018
0
LINE
8
BLACK
6
CONTINUOUS
10
145.3050800000000038
20
-98.5441419999999937
11
145.3526999999999987
21
-98.4965229999999963
0
LINE
8
BLACK
6
CONTINUOUS
10
145.3526999999999987
20
-98.4965229999999963
11
145.4003189999999961
21
-98.3536659999999898
0
LINE
8
BLACK
6
CONTINUOUS
10
145.4003189999999961
20
-98.3536659999999898
11
145.4003189999999961
21
-98.258427999999995
0
LINE
8
BLACK
6
CONTINUOUS
10
145.4003189999999961
20
-98.258427999999995
11
145.3526999999999987
21
-98.1155709999999885
0
LINE
8
BLACK
6
CONTINUOUS
10
145.3526999999999987
20
-98.1155709999999885
11
145.2574610000000064
21
-98.0203329999999937
0
LINE
8
BLACK
6
CONTINUOUS
10
145.2574610000000064
20
-98.0203329999999937
11
145.1622229999999831
21
-97.9727139999999963
0
LINE
8
BLACK
6
CONTINUOUS
10
145.1622229999999831
20
-97.9727139999999963
11
144.9717469999999935
21
-97.9250949999999989
0
LINE
8
BLACK
6
CONTINUOUS
10
144.9717469999999935
20
-97.9250949999999989
11
144.8288900000000012
21
-97.9250949999999989
0
LINE
8
BLACK
6
CONTINUOUS
10
144.8288900000000012
20
-97.9250949999999989
11
144.6384139999999832
21
-97.9727139999999963
0
LINE
8
BLACK
6
CONTINUOUS
10
144.6384139999999832
20
-97.9727139999999963
11
144.5431759999999883
21
-98.0203329999999937
0
LINE
8
BLACK
6
CONTINUOUS
10
144.5431759999999883
20
-98.0203329999999937
11
144.4479379999999935
21
-98.1155709999999885
0
LINE
8
BLACK
6
CONTINUOUS
10
144.4479379999999935
20
-98.1155709999999885
11
144.4003189999999961
21
-98.258427999999995
0
LINE
8
BLACK
6
CONTINUOUS
10
144.4003189999999961
20
-98.258427999999995
11
144.4003189999999961
21
-98.3536659999999898
0
LINE
8
BLACK
6
CONTINUOUS
10
144.4003189999999961
20
-98.3536659999999898
11
144.4479379999999935
21
-98.4965229999999963
0
LINE
8
BLACK
6
CONTINUOUS
10
144.4479379999999935
20
-98.4965229999999963
11
144.4955569999999909
21
-98.5441419999999937
0
LINE
8
BLACK
6
CONTINUOUS
10
144.4003189999999961
20
-98.8774760000000015
11
144.4003189999999961
21
-99.4965229999999963
0
LINE
8
BLACK
6
CONTINUOUS
10
144.4003189999999961
20
-99.4965229999999963
11
144.7812710000000038
21
-99.1631900000000002
0
LINE
8
BLACK
6
CONTINUOUS
10
144.7812710000000038
20
-99.1631900000000002
11
144.7812710000000038
21
-99.3060469999999924
0
LINE
8
BLACK
6
CONTINUOUS
10
144.7812710000000038
20
-99.3060469999999924
11
144.8288900000000012
21
-99.4012850000000014
0
LINE
8
BLACK
6
CONTINUOUS
10
144.8288900000000012
20
-99.4012850000000014
11
144.8765089999999987
21
-99.4489039999999989
0
LINE
8
BLACK
6
CONTINUOUS
10
144.8765089999999987
20
-99.4489039999999989
11
144.9717469999999935
21
-99.4965229999999963
0
LINE
8
BLACK
6
CONTINUOUS
10
144.9717469999999935
20
-99.4965229999999963
11
145.2098419999999805
21
-99.4965229999999963
0
LINE
8
BLACK
6
CONTINUOUS
10
145.2098419999999805
20
-99.4965229999999963
11
145.3050800000000038
21
-99.4489039999999989
0
LINE
8
BLACK
6
CONTINUOUS
10
145.3050800000000038
20
-99.4489039999999989
11
145.3526999999999987
21
-99.4012850000000014
0
LINE
8
BLACK
6
CONTINUOUS
10
145.3526999999999987
20
-99.4012850000000014
11
145.4003189999999961
21
-99.3060469999999924
0
LINE
8
BLACK
6
CONTINUOUS
10
145.4003189999999961
20
-99.3060469999999924
11
145.4003189999999961
21
-99.0203329999999937
0
LINE
8
BLACK
6
CONTINUOUS
10
145.4003189999999961
20
-99.0203329999999937
11
145.3526999999999987
21
-98.9250949999999989
0
LINE
8
BLACK
6
CONTINUOUS
10
145.3526999999999987
20
-98.9250949999999989
11
145.3050800000000038
21
-98.8774760000000015
0
LINE
8
BLACK
6
CONTINUOUS
10
144.4003189999999961
20
-99.8298569999999899
11
144.4003189999999961
21
-100.4489039999999989
0
LINE
8
BLACK
6
CONTINUOUS
10
144.4003189999999961
20
-100.4489039999999989
11
144.7812710000000038
21
-100.1155709999999885
0
LINE
8
BLACK
6
CONTINUOUS
10
144.7812710000000038
20
-100.1155709999999885
11
144.7812710000000038
21
-100.258427999999995
0
LINE
8
BLACK
6
CONTINUOUS
10
144.7812710000000038
20
-100.258427999999995
11
144.8288900000000012
21
-100.3536659999999898
0
LINE
8
BLACK
6
CONTINUOUS
10
144.8288900000000012
20
-100.3536659999999898
11
144.8765089999999987
21
-100.4012850000000014
0
LINE
8
BLACK
6
CONTINUOUS
10
144.8765089999999987
20
-100.4012850000000014
11
144.9717469999999935
21
-100.4489039999999989
0
LINE
8
BLACK
6
CONTINUOUS
10
144.9717469999999935
20
-100.4489039999999989
11
145.2098419999999805
21
-100.4489039999999989
0
LINE
8
BLACK
6
CONTINUOUS
10
145.2098419999999805
20
-100.4489039999999989
11
145.3050800000000038
21
-100.4012850000000014
0
LINE
8
BLACK
6
CONTINUOUS
10
145.3050800000000038
20
-100.4012850000000014
11
145.3526999999999987
21
-100.3536659999999898
0
LINE
8
BLACK
6
CONTINUOUS
10
145.3526999999999987
20
-100.3536659999999898
11
145.4003189999999961
21
-100.258427999999995
0
LINE
8
BLACK
6
CONTINUOUS
10
145.4003189999999961
20
-100.258427999999995
11
145.4003189999999961
21
-99.9727139999999963
0
LINE
8
BLACK
6
CONTINUOUS
10
145.4003189999999961
20
-99.9727139999999963
11
145.3526999999999987
21
-99.8774760000000015
0
LINE
8
BLACK
6
CONTINUOUS
10
145.3526999999999987
20
-99.8774760000000015
11
145.3050800000000038
21
-99.8298569999999899
0
LINE
8
BLACK
6
CONTINUOUS
10
137.0392850000000067
20
-115.7291039999999924
11
137.0773810000000026
21
-115.7671999999999883
0
LINE
8
BLACK
6
CONTINUOUS
10
137.0773810000000026
20
-115.7671999999999883
11
137.1916659999999979
21
-115.805295000000001
0
LINE
8
BLACK
6
CONTINUOUS
10
137.1916659999999979
20
-115.805295000000001
11
137.2678569999999922
21
-115.805295000000001
0
LINE
8
BLACK
6
CONTINUOUS
10
137.2678569999999922
20
-115.805295000000001
11
137.382142999999985
21
-115.7671999999999883
0
LINE
8
BLACK
6
CONTINUOUS
10
137.382142999999985
20
-115.7671999999999883
11
137.4583329999999819
21
-115.691008999999994
0
LINE
8
BLACK
6
CONTINUOUS
10
137.4583329999999819
20
-115.691008999999994
11
137.4964279999999803
21
-115.6148189999999971
0
LINE
8
BLACK
6
CONTINUOUS
10
137.4964279999999803
20
-115.6148189999999971
11
137.5345240000000047
21
-115.4624379999999917
0
LINE
8
BLACK
6
CONTINUOUS
10
137.5345240000000047
20
-115.4624379999999917
11
137.5345240000000047
21
-115.3481519999999989
0
LINE
8
BLACK
6
CONTINUOUS
10
137.5345240000000047
20
-115.3481519999999989
11
137.4964279999999803
21
-115.1957709999999935
0
LINE
8
BLACK
6
CONTINUOUS
10
137.4964279999999803
20
-115.1957709999999935
11
137.4583329999999819
21
-115.1195799999999991
0
LINE
8
BLACK
6
CONTINUOUS
10
137.4583329999999819
20
-115.1195799999999991
11
137.382142999999985
21
-115.043389999999988
0
LINE
8
BLACK
6
CONTINUOUS
10
137.382142999999985
20
-115.043389999999988
11
137.2678569999999922
21
-115.0052949999999896
0
LINE
8
BLACK
6
CONTINUOUS
10
137.2678569999999922
20
-115.0052949999999896
11
137.1916659999999979
21
-115.0052949999999896
0
LINE
8
BLACK
6
CONTINUOUS
10
137.1916659999999979
20
-115.0052949999999896
11
137.0773810000000026
21
-115.043389999999988
0
LINE
8
BLACK
6
CONTINUOUS
10
137.0773810000000026
20
-115.043389999999988
11
137.0392850000000067
21
-115.0814850000000007
0
LINE
8
BLACK
6
CONTINUOUS
10
136.2773809999999912
20
-115.805295000000001
11
136.7345239999999933
21
-115.805295000000001
0
LINE
8
BLACK
6
CONTINUOUS
10
136.5059520000000077
20
-115.805295000000001
11
136.5059520000000077
21
-115.0052949999999896
0
LINE
8
BLACK
6
CONTINUOUS
10
136.5059520000000077
20
-115.0052949999999896
11
136.5821430000000021
21
-115.1195799999999991
0
LINE
8
BLACK
6
CONTINUOUS
10
136.5821430000000021
20
-115.1195799999999991
11
136.6583329999999989
21
-115.1957709999999935
0
LINE
8
BLACK
6
CONTINUOUS
10
136.6583329999999989
20
-115.1957709999999935
11
136.7345239999999933
21
-115.2338659999999919
0
LINE
8
BLACK
6
CONTINUOUS
10
135.8202379999999891
20
-115.3481519999999989
11
135.896427999999986
21
-115.3100570000000005
0
LINE
8
BLACK
6
CONTINUOUS
10
135.896427999999986
20
-115.3100570000000005
11
135.9345229999999844
21
-115.2719609999999903
0
LINE
8
BLACK
6
CONTINUOUS
10
135.9345229999999844
20
-115.2719609999999903
11
135.9726189999999804
21
-115.1957709999999935
0
LINE
8
BLACK
6
CONTINUOUS
10
135.9726189999999804
20
-115.1957709999999935
11
135.9726189999999804
21
-115.157675999999995
0
LINE
8
BLACK
6
CONTINUOUS
10
135.9726189999999804
20
-115.157675999999995
11
135.9345229999999844
21
-115.0814850000000007
0
LINE
8
BLACK
6
CONTINUOUS
10
135.9345229999999844
20
-115.0814850000000007
11
135.896427999999986
21
-115.043389999999988
0
LINE
8
BLACK
6
CONTINUOUS
10
135.896427999999986
20
-115.043389999999988
11
135.8202379999999891
21
-115.0052949999999896
0
LINE
8
BLACK
6
CONTINUOUS
10
135.8202379999999891
20
-115.0052949999999896
11
135.6678569999999979
21
-115.0052949999999896
0
LINE
8
BLACK
6
CONTINUOUS
10
135.6678569999999979
20
-115.0052949999999896
11
135.5916660000000036
21
-115.043389999999988
0
LINE
8
BLACK
6
CONTINUOUS
10
135.5916660000000036
20
-115.043389999999988
11
135.5535710000000051
21
-115.0814850000000007
0
LINE
8
BLACK
6
CONTINUOUS
10
135.5535710000000051
20
-115.0814850000000007
11
135.5154760000000067
21
-115.157675999999995
0
LINE
8
BLACK
6
CONTINUOUS
10
135.5154760000000067
20
-115.157675999999995
11
135.5154760000000067
21
-115.1957709999999935
0
LINE
8
BLACK
6
CONTINUOUS
10
135.5154760000000067
20
-115.1957709999999935
11
135.5535710000000051
21
-115.2719609999999903
0
LINE
8
BLACK
6
CONTINUOUS
10
135.5535710000000051
20
-115.2719609999999903
11
135.5916660000000036
21
-115.3100570000000005
0
LINE
8
BLACK
6
CONTINUOUS
10
135.5916660000000036
20
-115.3100570000000005
11
135.6678569999999979
21
-115.3481519999999989
0
LINE
8
BLACK
6
CONTINUOUS
10
135.6678569999999979
20
-115.3481519999999989
11
135.8202379999999891
21
-115.3481519999999989
0
LINE
8
BLACK
6
CONTINUOUS
10
135.8202379999999891
20
-115.3481519999999989
11
135.896427999999986
21
-115.3862469999999973
0
LINE
8
BLACK
6
CONTINUOUS
10
135.896427999999986
20
-115.3862469999999973
11
135.9345229999999844
21
-115.4243419999999958
0
LINE
8
BLACK
6
CONTINUOUS
10
135.9345229999999844
20
-115.4243419999999958
11
135.9726189999999804
21
-115.5005329999999901
0
LINE
8
BLACK
6
CONTINUOUS
10
135.9726189999999804
20
-115.5005329999999901
11
135.9726189999999804
21
-115.6529139999999956
0
LINE
8
BLACK
6
CONTINUOUS
10
135.9726189999999804
20
-115.6529139999999956
11
135.9345229999999844
21
-115.7291039999999924
0
LINE
8
BLACK
6
CONTINUOUS
10
135.9345229999999844
20
-115.7291039999999924
11
135.896427999999986
21
-115.7671999999999883
0
LINE
8
BLACK
6
CONTINUOUS
10
135.896427999999986
20
-115.7671999999999883
11
135.8202379999999891
21
-115.805295000000001
0
LINE
8
BLACK
6
CONTINUOUS
10
135.8202379999999891
20
-115.805295000000001
11
135.6678569999999979
21
-115.805295000000001
0
LINE
8
BLACK
6
CONTINUOUS
10
135.6678569999999979
20
-115.805295000000001
11
135.5916660000000036
21
-115.7671999999999883
0
LINE
8
BLACK
6
CONTINUOUS
10
135.5916660000000036
20
-115.7671999999999883
11
135.5535710000000051
21
-115.7291039999999924
0
LINE
8
BLACK
6
CONTINUOUS
10
135.5535710000000051
20
-115.7291039999999924
11
135.5154760000000067
21
-115.6529139999999956
0
LINE
8
BLACK
6
CONTINUOUS
10
135.5154760000000067
20
-115.6529139999999956
11
135.5154760000000067
21
-115.5005329999999901
0
LINE
8
BLACK
6
CONTINUOUS
10
135.5154760000000067
20
-115.5005329999999901
11
135.5535710000000051
21
-115.4243419999999958
0
LINE
8
BLACK
6
CONTINUOUS
10
135.5535710000000051
20
-115.4243419999999958
11
135.5916660000000036
21
-115.3862469999999973
0
LINE
8
BLACK
6
CONTINUOUS
10
135.5916660000000036
20
-115.3862469999999973
11
135.6678569999999979
21
-115.3481519999999989
0
LINE
8
BLACK
6
CONTINUOUS
10
142.7542849999999817
20
-101.5051039999999887
11
142.792381000000006
21
-101.5431999999999988
0
LINE
8
BLACK
6
CONTINUOUS
10
142.792381000000006
20
-101.5431999999999988
11
142.9066660000000013
21
-101.5812949999999972
0
LINE
8
BLACK
6
CONTINUOUS
10
142.9066660000000013
20
-101.5812949999999972
11
142.9828569999999957
21
-101.5812949999999972
0
LINE
8
BLACK
6
CONTINUOUS
10
142.9828569999999957
20
-101.5812949999999972
11
143.0971429999999884
21
-101.5431999999999988
0
LINE
8
BLACK
6
CONTINUOUS
10
143.0971429999999884
20
-101.5431999999999988
11
143.1733329999999853
21
-101.4670089999999902
0
LINE
8
BLACK
6
CONTINUOUS
10
143.1733329999999853
20
-101.4670089999999902
11
143.2114279999999837
21
-101.3908189999999934
0
LINE
8
BLACK
6
CONTINUOUS
10
143.2114279999999837
20
-101.3908189999999934
11
143.2495239999999797
21
-101.2384380000000021
0
LINE
8
BLACK
6
CONTINUOUS
10
143.2495239999999797
20
-101.2384380000000021
11
143.2495239999999797
21
-101.1241519999999952
0
LINE
8
BLACK
6
CONTINUOUS
10
143.2495239999999797
20
-101.1241519999999952
11
143.2114279999999837
21
-100.9717709999999897
0
LINE
8
BLACK
6
CONTINUOUS
10
143.2114279999999837
20
-100.9717709999999897
11
143.1733329999999853
21
-100.8955799999999954
0
LINE
8
BLACK
6
CONTINUOUS
10
143.1733329999999853
20
-100.8955799999999954
11
143.0971429999999884
21
-100.8193899999999985
0
LINE
8
BLACK
6
CONTINUOUS
10
143.0971429999999884
20
-100.8193899999999985
11
142.9828569999999957
21
-100.7812950000000001
0
LINE
8
BLACK
6
CONTINUOUS
10
142.9828569999999957
20
-100.7812950000000001
11
142.9066660000000013
21
-100.7812950000000001
0
LINE
8
BLACK
6
CONTINUOUS
10
142.9066660000000013
20
-100.7812950000000001
11
142.792381000000006
21
-100.8193899999999985
0
LINE
8
BLACK
6
CONTINUOUS
10
142.792381000000006
20
-100.8193899999999985
11
142.7542849999999817
21
-100.8574849999999969
0
LINE
8
BLACK
6
CONTINUOUS
10
141.9923809999999946
20
-101.5812949999999972
11
142.4495239999999967
21
-101.5812949999999972
0
LINE
8
BLACK
6
CONTINUOUS
10
142.2209519999999827
20
-101.5812949999999972
11
142.2209519999999827
21
-100.7812950000000001
0
LINE
8
BLACK
6
CONTINUOUS
10
142.2209519999999827
20
-100.7812950000000001
11
142.2971430000000055
21
-100.8955799999999954
0
LINE
8
BLACK
6
CONTINUOUS
10
142.2971430000000055
20
-100.8955799999999954
11
142.3733330000000024
21
-100.9717709999999897
0
LINE
8
BLACK
6
CONTINUOUS
10
142.3733330000000024
20
-100.9717709999999897
11
142.4495239999999967
21
-101.0098660000000024
0
LINE
8
BLACK
6
CONTINUOUS
10
141.306666000000007
20
-100.7812950000000001
11
141.4590469999999982
21
-100.7812950000000001
0
LINE
8
BLACK
6
CONTINUOUS
10
141.4590469999999982
20
-100.7812950000000001
11
141.5352379999999926
21
-100.8193899999999985
0
LINE
8
BLACK
6
CONTINUOUS
10
141.5352379999999926
20
-100.8193899999999985
11
141.573332999999991
21
-100.8574849999999969
0
LINE
8
BLACK
6
CONTINUOUS
10
141.573332999999991
20
-100.8574849999999969
11
141.6495229999999879
21
-100.9717709999999897
0
LINE
8
BLACK
6
CONTINUOUS
10
141.6495229999999879
20
-100.9717709999999897
11
141.6876189999999838
21
-101.1241519999999952
0
LINE
8
BLACK
6
CONTINUOUS
10
141.6876189999999838
20
-101.1241519999999952
11
141.6876189999999838
21
-101.4289139999999918
0
LINE
8
BLACK
6
CONTINUOUS
10
141.6876189999999838
20
-101.4289139999999918
11
141.6495229999999879
21
-101.5051039999999887
0
LINE
8
BLACK
6
CONTINUOUS
10
141.6495229999999879
20
-101.5051039999999887
11
141.6114279999999894
21
-101.5431999999999988
0
LINE
8
BLACK
6
CONTINUOUS
10
141.6114279999999894
20
-101.5431999999999988
11
141.5352379999999926
21
-101.5812949999999972
0
LINE
8
BLACK
6
CONTINUOUS
10
141.5352379999999926
20
-101.5812949999999972
11
141.3828570000000013
21
-101.5812949999999972
0
LINE
8
BLACK
6
CONTINUOUS
10
141.3828570000000013
20
-101.5812949999999972
11
141.306666000000007
21
-101.5431999999999988
0
LINE
8
BLACK
6
CONTINUOUS
10
141.306666000000007
20
-101.5431999999999988
11
141.2685709999999801
21
-101.5051039999999887
0
LINE
8
BLACK
6
CONTINUOUS
10
141.2685709999999801
20
-101.5051039999999887
11
141.2304759999999817
21
-101.4289139999999918
0
LINE
8
BLACK
6
CONTINUOUS
10
141.2304759999999817
20
-101.4289139999999918
11
141.2304759999999817
21
-101.2384380000000021
0
LINE
8
BLACK
6
CONTINUOUS
10
141.2304759999999817
20
-101.2384380000000021
11
141.2685709999999801
21
-101.1622469999999936
0
LINE
8
BLACK
6
CONTINUOUS
10
141.2685709999999801
20
-101.1622469999999936
11
141.306666000000007
21
-101.1241519999999952
0
LINE
8
BLACK
6
CONTINUOUS
10
141.306666000000007
20
-101.1241519999999952
11
141.3828570000000013
21
-101.0860569999999967
0
LINE
8
BLACK
6
CONTINUOUS
10
141.3828570000000013
20
-101.0860569999999967
11
141.5352379999999926
21
-101.0860569999999967
0
LINE
8
BLACK
6
CONTINUOUS
10
141.5352379999999926
20
-101.0860569999999967
11
141.6114279999999894
21
-101.1241519999999952
0
LINE
8
BLACK
6
CONTINUOUS
10
141.6114279999999894
20
-101.1241519999999952
11
141.6495229999999879
21
-101.1622469999999936
0
LINE
8
BLACK
6
CONTINUOUS
10
141.6495229999999879
20
-101.1622469999999936
11
141.6876189999999838
21
-101.2384380000000021
0
LINE
8
BLACK
6
CONTINUOUS
10
148.4692849999999851
20
-108.6171039999999977
11
148.507380999999981
21
-108.6551999999999936
0
LINE
8
BLACK
6
CONTINUOUS
10
148.507380999999981
20
-108.6551999999999936
11
148.6216660000000047
21
-108.693294999999992
0
LINE
8
BLACK
6
CONTINUOUS
10
148.6216660000000047
20
-108.693294999999992
11
148.6978569999999991
21
-108.693294999999992
0
LINE
8
BLACK
6
CONTINUOUS
10
148.6978569999999991
20
-108.693294999999992
11
148.8121429999999918
21
-108.6551999999999936
0
LINE
8
BLACK
6
CONTINUOUS
10
148.8121429999999918
20
-108.6551999999999936
11
148.8883329999999887
21
-108.5790089999999992
0
LINE
8
BLACK
6
CONTINUOUS
10
148.8883329999999887
20
-108.5790089999999992
11
148.9264279999999872
21
-108.5028189999999881
0
LINE
8
BLACK
6
CONTINUOUS
10
148.9264279999999872
20
-108.5028189999999881
11
148.9645239999999831
21
-108.3504379999999969
0
LINE
8
BLACK
6
CONTINUOUS
10
148.9645239999999831
20
-108.3504379999999969
11
148.9645239999999831
21
-108.2361519999999899
0
LINE
8
BLACK
6
CONTINUOUS
10
148.9645239999999831
20
-108.2361519999999899
11
148.9264279999999872
21
-108.0837709999999987
0
LINE
8
BLACK
6
CONTINUOUS
10
148.9264279999999872
20
-108.0837709999999987
11
148.8883329999999887
21
-108.0075799999999902
0
LINE
8
BLACK
6
CONTINUOUS
10
148.8883329999999887
20
-108.0075799999999902
11
148.8121429999999918
21
-107.9313899999999933
0
LINE
8
BLACK
6
CONTINUOUS
10
148.8121429999999918
20
-107.9313899999999933
11
148.6978569999999991
21
-107.8932949999999948
0
LINE
8
BLACK
6
CONTINUOUS
10
148.6978569999999991
20
-107.8932949999999948
11
148.6216660000000047
21
-107.8932949999999948
0
LINE
8
BLACK
6
CONTINUOUS
10
148.6216660000000047
20
-107.8932949999999948
11
148.507380999999981
21
-107.9313899999999933
0
LINE
8
BLACK
6
CONTINUOUS
10
148.507380999999981
20
-107.9313899999999933
11
148.4692849999999851
21
-107.9694849999999917
0
LINE
8
BLACK
6
CONTINUOUS
10
148.2026189999999986
20
-107.8932949999999948
11
147.707380999999998
21
-107.8932949999999948
0
LINE
8
BLACK
6
CONTINUOUS
10
147.707380999999998
20
-107.8932949999999948
11
147.9740469999999846
21
-108.1980569999999915
0
LINE
8
BLACK
6
CONTINUOUS
10
147.9740469999999846
20
-108.1980569999999915
11
147.8597619999999893
21
-108.1980569999999915
0
LINE
8
BLACK
6
CONTINUOUS
10
147.8597619999999893
20
-108.1980569999999915
11
147.7835709999999949
21
-108.2361519999999899
0
LINE
8
BLACK
6
CONTINUOUS
10
147.7835709999999949
20
-108.2361519999999899
11
147.7454759999999965
21
-108.2742469999999884
0
LINE
8
BLACK
6
CONTINUOUS
10
147.7454759999999965
20
-108.2742469999999884
11
147.707380999999998
21
-108.3504379999999969
0
LINE
8
BLACK
6
CONTINUOUS
10
147.707380999999998
20
-108.3504379999999969
11
147.707380999999998
21
-108.5409140000000008
0
LINE
8
BLACK
6
CONTINUOUS
10
147.707380999999998
20
-108.5409140000000008
11
147.7454759999999965
21
-108.6171039999999977
0
LINE
8
BLACK
6
CONTINUOUS
10
147.7454759999999965
20
-108.6171039999999977
11
147.7835709999999949
21
-108.6551999999999936
0
LINE
8
BLACK
6
CONTINUOUS
10
147.7835709999999949
20
-108.6551999999999936
11
147.8597619999999893
21
-108.693294999999992
0
LINE
8
BLACK
6
CONTINUOUS
10
147.8597619999999893
20
-108.693294999999992
11
148.0883330000000058
21
-108.693294999999992
0
LINE
8
BLACK
6
CONTINUOUS
10
148.0883330000000058
20
-108.693294999999992
11
148.1645240000000001
21
-108.6551999999999936
0
LINE
8
BLACK
6
CONTINUOUS
10
148.1645240000000001
20
-108.6551999999999936
11
148.2026189999999986
21
-108.6171039999999977
0
LINE
8
BLACK
6
CONTINUOUS
10
147.4407139999999856
20
-107.8932949999999948
11
146.9073799999999892
21
-107.8932949999999948
0
LINE
8
BLACK
6
CONTINUOUS
10
146.9073799999999892
20
-107.8932949999999948
11
147.250237999999996
21
-108.693294999999992
0
LINE
8
BLACK
6
CONTINUOUS
10
142.7542849999999817
20
-105.0611040000000003
11
142.792381000000006
21
-105.0991999999999962
0
LINE
8
BLACK
6
CONTINUOUS
10
142.792381000000006
20
-105.0991999999999962
11
142.9066660000000013
21
-105.1372949999999946
0
LINE
8
BLACK
6
CONTINUOUS
10
142.9066660000000013
20
-105.1372949999999946
11
142.9828569999999957
21
-105.1372949999999946
0
LINE
8
BLACK
6
CONTINUOUS
10
142.9828569999999957
20
-105.1372949999999946
11
143.0971429999999884
21
-105.0991999999999962
0
LINE
8
BLACK
6
CONTINUOUS
10
143.0971429999999884
20
-105.0991999999999962
11
143.1733329999999853
21
-105.0230090000000018
0
LINE
8
BLACK
6
CONTINUOUS
10
143.1733329999999853
20
-105.0230090000000018
11
143.2114279999999837
21
-104.9468189999999908
0
LINE
8
BLACK
6
CONTINUOUS
10
143.2114279999999837
20
-104.9468189999999908
11
143.2495239999999797
21
-104.7944379999999995
0
LINE
8
BLACK
6
CONTINUOUS
10
143.2495239999999797
20
-104.7944379999999995
11
143.2495239999999797
21
-104.6801519999999925
0
LINE
8
BLACK
6
CONTINUOUS
10
143.2495239999999797
20
-104.6801519999999925
11
143.2114279999999837
21
-104.5277710000000013
0
LINE
8
BLACK
6
CONTINUOUS
10
143.2114279999999837
20
-104.5277710000000013
11
143.1733329999999853
21
-104.4515799999999928
0
LINE
8
BLACK
6
CONTINUOUS
10
143.1733329999999853
20
-104.4515799999999928
11
143.0971429999999884
21
-104.3753899999999959
0
LINE
8
BLACK
6
CONTINUOUS
10
143.0971429999999884
20
-104.3753899999999959
11
142.9828569999999957
21
-104.3372949999999975
0
LINE
8
BLACK
6
CONTINUOUS
10
142.9828569999999957
20
-104.3372949999999975
11
142.9066660000000013
21
-104.3372949999999975
0
LINE
8
BLACK
6
CONTINUOUS
10
142.9066660000000013
20
-104.3372949999999975
11
142.792381000000006
21
-104.3753899999999959
0
LINE
8
BLACK
6
CONTINUOUS
10
142.792381000000006
20
-104.3753899999999959
11
142.7542849999999817
21
-104.4134849999999943
0
LINE
8
BLACK
6
CONTINUOUS
10
142.4876189999999951
20
-104.3372949999999975
11
141.9923809999999946
21
-104.3372949999999975
0
LINE
8
BLACK
6
CONTINUOUS
10
141.9923809999999946
20
-104.3372949999999975
11
142.2590469999999812
21
-104.6420569999999941
0
LINE
8
BLACK
6
CONTINUOUS
10
142.2590469999999812
20
-104.6420569999999941
11
142.1447619999999858
21
-104.6420569999999941
0
LINE
8
BLACK
6
CONTINUOUS
10
142.1447619999999858
20
-104.6420569999999941
11
142.0685709999999915
21
-104.6801519999999925
0
LINE
8
BLACK
6
CONTINUOUS
10
142.0685709999999915
20
-104.6801519999999925
11
142.0304759999999931
21
-104.718246999999991
0
LINE
8
BLACK
6
CONTINUOUS
10
142.0304759999999931
20
-104.718246999999991
11
141.9923809999999946
21
-104.7944379999999995
0
LINE
8
BLACK
6
CONTINUOUS
10
141.9923809999999946
20
-104.7944379999999995
11
141.9923809999999946
21
-104.9849139999999892
0
LINE
8
BLACK
6
CONTINUOUS
10
141.9923809999999946
20
-104.9849139999999892
11
142.0304759999999931
21
-105.0611040000000003
0
LINE
8
BLACK
6
CONTINUOUS
10
142.0304759999999931
20
-105.0611040000000003
11
142.0685709999999915
21
-105.0991999999999962
0
LINE
8
BLACK
6
CONTINUOUS
10
142.0685709999999915
20
-105.0991999999999962
11
142.1447619999999858
21
-105.1372949999999946
0
LINE
8
BLACK
6
CONTINUOUS
10
142.1447619999999858
20
-105.1372949999999946
11
142.3733330000000024
21
-105.1372949999999946
0
LINE
8
BLACK
6
CONTINUOUS
10
142.3733330000000024
20
-105.1372949999999946
11
142.4495239999999967
21
-105.0991999999999962
0
LINE
8
BLACK
6
CONTINUOUS
10
142.4495239999999967
20
-105.0991999999999962
11
142.4876189999999951
21
-105.0611040000000003
0
LINE
8
BLACK
6
CONTINUOUS
10
141.2685709999999801
20
-104.3372949999999975
11
141.6495229999999879
21
-104.3372949999999975
0
LINE
8
BLACK
6
CONTINUOUS
10
141.6495229999999879
20
-104.3372949999999975
11
141.6876189999999838
21
-104.718246999999991
0
LINE
8
BLACK
6
CONTINUOUS
10
141.6876189999999838
20
-104.718246999999991
11
141.6495229999999879
21
-104.6801519999999925
0
LINE
8
BLACK
6
CONTINUOUS
10
141.6495229999999879
20
-104.6801519999999925
11
141.573332999999991
21
-104.6420569999999941
0
LINE
8
BLACK
6
CONTINUOUS
10
141.573332999999991
20
-104.6420569999999941
11
141.3828570000000013
21
-104.6420569999999941
0
LINE
8
BLACK
6
CONTINUOUS
10
141.3828570000000013
20
-104.6420569999999941
11
141.306666000000007
21
-104.6801519999999925
0
LINE
8
BLACK
6
CONTINUOUS
10
141.306666000000007
20
-104.6801519999999925
11
141.2685709999999801
21
-104.718246999999991
0
LINE
8
BLACK
6
CONTINUOUS
10
141.2685709999999801
20
-104.718246999999991
11
141.2304759999999817
21
-104.7944379999999995
0
LINE
8
BLACK
6
CONTINUOUS
10
141.2304759999999817
20
-104.7944379999999995
11
141.2304759999999817
21
-104.9849139999999892
0
LINE
8
BLACK
6
CONTINUOUS
10
141.2304759999999817
20
-104.9849139999999892
11
141.2685709999999801
21
-105.0611040000000003
0
LINE
8
BLACK
6
CONTINUOUS
10
141.2685709999999801
20
-105.0611040000000003
11
141.306666000000007
21
-105.0991999999999962
0
LINE
8
BLACK
6
CONTINUOUS
10
141.306666000000007
20
-105.0991999999999962
11
141.3828570000000013
21
-105.1372949999999946
0
LINE
8
BLACK
6
CONTINUOUS
10
141.3828570000000013
20
-105.1372949999999946
11
141.573332999999991
21
-105.1372949999999946
0
LINE
8
BLACK
6
CONTINUOUS
10
141.573332999999991
20
-105.1372949999999946
11
141.6495229999999879
21
-105.0991999999999962
0
LINE
8
BLACK
6
CONTINUOUS
10
141.6495229999999879
20
-105.0991999999999962
11
141.6876189999999838
21
-105.0611040000000003
0
LINE
8
BLACK
6
CONTINUOUS
10
137.0392850000000067
20
-112.173103999999995
11
137.0773810000000026
21
-112.211199999999991
0
LINE
8
BLACK
6
CONTINUOUS
10
137.0773810000000026
20
-112.211199999999991
11
137.1916659999999979
21
-112.2492949999999894
0
LINE
8
BLACK
6
CONTINUOUS
10
137.1916659999999979
20
-112.2492949999999894
11
137.2678569999999922
21
-112.2492949999999894
0
LINE
8
BLACK
6
CONTINUOUS
10
137.2678569999999922
20
-112.2492949999999894
11
137.382142999999985
21
-112.211199999999991
0
LINE
8
BLACK
6
CONTINUOUS
10
137.382142999999985
20
-112.211199999999991
11
137.4583329999999819
21
-112.1350089999999966
0
LINE
8
BLACK
6
CONTINUOUS
10
137.4583329999999819
20
-112.1350089999999966
11
137.4964279999999803
21
-112.0588189999999997
0
LINE
8
BLACK
6
CONTINUOUS
10
137.4964279999999803
20
-112.0588189999999997
11
137.5345240000000047
21
-111.9064379999999943
0
LINE
8
BLACK
6
CONTINUOUS
10
137.5345240000000047
20
-111.9064379999999943
11
137.5345240000000047
21
-111.7921520000000015
0
LINE
8
BLACK
6
CONTINUOUS
10
137.5345240000000047
20
-111.7921520000000015
11
137.4964279999999803
21
-111.6397709999999961
0
LINE
8
BLACK
6
CONTINUOUS
10
137.4964279999999803
20
-111.6397709999999961
11
137.4583329999999819
21
-111.5635800000000017
0
LINE
8
BLACK
6
CONTINUOUS
10
137.4583329999999819
20
-111.5635800000000017
11
137.382142999999985
21
-111.4873899999999907
0
LINE
8
BLACK
6
CONTINUOUS
10
137.382142999999985
20
-111.4873899999999907
11
137.2678569999999922
21
-111.4492949999999922
0
LINE
8
BLACK
6
CONTINUOUS
10
137.2678569999999922
20
-111.4492949999999922
11
137.1916659999999979
21
-111.4492949999999922
0
LINE
8
BLACK
6
CONTINUOUS
10
137.1916659999999979
20
-111.4492949999999922
11
137.0773810000000026
21
-111.4873899999999907
0
LINE
8
BLACK
6
CONTINUOUS
10
137.0773810000000026
20
-111.4873899999999907
11
137.0392850000000067
21
-111.5254849999999891
0
LINE
8
BLACK
6
CONTINUOUS
10
136.7345239999999933
20
-111.5254849999999891
11
136.6964279999999974
21
-111.4873899999999907
0
LINE
8
BLACK
6
CONTINUOUS
10
136.6964279999999974
20
-111.4873899999999907
11
136.6202380000000005
21
-111.4492949999999922
0
LINE
8
BLACK
6
CONTINUOUS
10
136.6202380000000005
20
-111.4492949999999922
11
136.4297619999999824
21
-111.4492949999999922
0
LINE
8
BLACK
6
CONTINUOUS
10
136.4297619999999824
20
-111.4492949999999922
11
136.3535709999999881
21
-111.4873899999999907
0
LINE
8
BLACK
6
CONTINUOUS
10
136.3535709999999881
20
-111.4873899999999907
11
136.3154759999999897
21
-111.5254849999999891
0
LINE
8
BLACK
6
CONTINUOUS
10
136.3154759999999897
20
-111.5254849999999891
11
136.2773809999999912
21
-111.6016759999999977
0
LINE
8
BLACK
6
CONTINUOUS
10
136.2773809999999912
20
-111.6016759999999977
11
136.2773809999999912
21
-111.6778659999999945
0
LINE
8
BLACK
6
CONTINUOUS
10
136.2773809999999912
20
-111.6778659999999945
11
136.3154759999999897
21
-111.7921520000000015
0
LINE
8
BLACK
6
CONTINUOUS
10
136.3154759999999897
20
-111.7921520000000015
11
136.7726189999999917
21
-112.2492949999999894
0
LINE
8
BLACK
6
CONTINUOUS
10
136.7726189999999917
20
-112.2492949999999894
11
136.2773809999999912
21
-112.2492949999999894
0
LINE
8
BLACK
6
CONTINUOUS
10
135.7821419999999932
20
-111.4492949999999922
11
135.7059519999999964
21
-111.4492949999999922
0
LINE
8
BLACK
6
CONTINUOUS
10
135.7059519999999964
20
-111.4492949999999922
11
135.629761000000002
21
-111.4873899999999907
0
LINE
8
BLACK
6
CONTINUOUS
10
135.629761000000002
20
-111.4873899999999907
11
135.5916660000000036
21
-111.5254849999999891
0
LINE
8
BLACK
6
CONTINUOUS
10
135.5916660000000036
20
-111.5254849999999891
11
135.5535710000000051
21
-111.6016759999999977
0
LINE
8
BLACK
6
CONTINUOUS
10
135.5535710000000051
20
-111.6016759999999977
11
135.5154760000000067
21
-111.7540569999999889
0
LINE
8
BLACK
6
CONTINUOUS
10
135.5154760000000067
20
-111.7540569999999889
11
135.5154760000000067
21
-111.9445329999999927
0
LINE
8
BLACK
6
CONTINUOUS
10
135.5154760000000067
20
-111.9445329999999927
11
135.5535710000000051
21
-112.0969139999999982
0
LINE
8
BLACK
6
CONTINUOUS
10
135.5535710000000051
20
-112.0969139999999982
11
135.5916660000000036
21
-112.173103999999995
0
LINE
8
BLACK
6
CONTINUOUS
10
135.5916660000000036
20
-112.173103999999995
11
135.629761000000002
21
-112.211199999999991
0
LINE
8
BLACK
6
CONTINUOUS
10
135.629761000000002
20
-112.211199999999991
11
135.7059519999999964
21
-112.2492949999999894
0
LINE
8
BLACK
6
CONTINUOUS
10
135.7059519999999964
20
-112.2492949999999894
11
135.7821419999999932
21
-112.2492949999999894
0
LINE
8
BLACK
6
CONTINUOUS
10
135.7821419999999932
20
-112.2492949999999894
11
135.8583329999999876
21
-112.211199999999991
0
LINE
8
BLACK
6
CONTINUOUS
10
135.8583329999999876
20
-112.211199999999991
11
135.896427999999986
21
-112.173103999999995
0
LINE
8
BLACK
6
CONTINUOUS
10
135.896427999999986
20
-112.173103999999995
11
135.9345229999999844
21
-112.0969139999999982
0
LINE
8
BLACK
6
CONTINUOUS
10
135.9345229999999844
20
-112.0969139999999982
11
135.9726189999999804
21
-111.9445329999999927
0
LINE
8
BLACK
6
CONTINUOUS
10
135.9726189999999804
20
-111.9445329999999927
11
135.9726189999999804
21
-111.7540569999999889
0
LINE
8
BLACK
6
CONTINUOUS
10
135.9726189999999804
20
-111.7540569999999889
11
135.9345229999999844
21
-111.6016759999999977
0
LINE
8
BLACK
6
CONTINUOUS
10
135.9345229999999844
20
-111.6016759999999977
11
135.896427999999986
21
-111.5254849999999891
0
LINE
8
BLACK
6
CONTINUOUS
10
135.896427999999986
20
-111.5254849999999891
11
135.8583329999999876
21
-111.4873899999999907
0
LINE
8
BLACK
6
CONTINUOUS
10
135.8583329999999876
20
-111.4873899999999907
11
135.7821419999999932
21
-111.4492949999999922
0
LINE
8
BLACK
6
CONTINUOUS
10
142.5388319999999851
20
-108.3631039999999928
11
142.576927999999981
21
-108.4011999999999887
0
LINE
8
BLACK
6
CONTINUOUS
10
142.576927999999981
20
-108.4011999999999887
11
142.6912130000000047
21
-108.4392950000000013
0
LINE
8
BLACK
6
CONTINUOUS
10
142.6912130000000047
20
-108.4392950000000013
11
142.7674039999999991
21
-108.4392950000000013
0
LINE
8
BLACK
6
CONTINUOUS
10
142.7674039999999991
20
-108.4392950000000013
11
142.8816899999999919
21
-108.4011999999999887
0
LINE
8
BLACK
6
CONTINUOUS
10
142.8816899999999919
20
-108.4011999999999887
11
142.9578799999999887
21
-108.3250089999999943
0
LINE
8
BLACK
6
CONTINUOUS
10
142.9578799999999887
20
-108.3250089999999943
11
142.9959749999999872
21
-108.2488189999999975
0
LINE
8
BLACK
6
CONTINUOUS
10
142.9959749999999872
20
-108.2488189999999975
11
143.0340709999999831
21
-108.096437999999992
0
LINE
8
BLACK
6
CONTINUOUS
10
143.0340709999999831
20
-108.096437999999992
11
143.0340709999999831
21
-107.9821519999999992
0
LINE
8
BLACK
6
CONTINUOUS
10
143.0340709999999831
20
-107.9821519999999992
11
142.9959749999999872
21
-107.8297709999999938
0
LINE
8
BLACK
6
CONTINUOUS
10
142.9959749999999872
20
-107.8297709999999938
11
142.9578799999999887
21
-107.7535799999999995
0
LINE
8
BLACK
6
CONTINUOUS
10
142.9578799999999887
20
-107.7535799999999995
11
142.8816899999999919
21
-107.6773899999999884
0
LINE
8
BLACK
6
CONTINUOUS
10
142.8816899999999919
20
-107.6773899999999884
11
142.7674039999999991
21
-107.63929499999999
0
LINE
8
BLACK
6
CONTINUOUS
10
142.7674039999999991
20
-107.63929499999999
11
142.6912130000000047
21
-107.63929499999999
0
LINE
8
BLACK
6
CONTINUOUS
10
142.6912130000000047
20
-107.63929499999999
11
142.576927999999981
21
-107.6773899999999884
0
LINE
8
BLACK
6
CONTINUOUS
10
142.576927999999981
20
-107.6773899999999884
11
142.5388319999999851
21
-107.715485000000001
0
LINE
8
BLACK
6
CONTINUOUS
10
142.2340710000000001
20
-107.715485000000001
11
142.1959750000000042
21
-107.6773899999999884
0
LINE
8
BLACK
6
CONTINUOUS
10
142.1959750000000042
20
-107.6773899999999884
11
142.1197850000000074
21
-107.63929499999999
0
LINE
8
BLACK
6
CONTINUOUS
10
142.1197850000000074
20
-107.63929499999999
11
141.9293089999999893
21
-107.63929499999999
0
LINE
8
BLACK
6
CONTINUOUS
10
141.9293089999999893
20
-107.63929499999999
11
141.8531179999999949
21
-107.6773899999999884
0
LINE
8
BLACK
6
CONTINUOUS
10
141.8531179999999949
20
-107.6773899999999884
11
141.8150229999999965
21
-107.715485000000001
0
LINE
8
BLACK
6
CONTINUOUS
10
141.8150229999999965
20
-107.715485000000001
11
141.7769279999999981
21
-107.7916759999999954
0
LINE
8
BLACK
6
CONTINUOUS
10
141.7769279999999981
20
-107.7916759999999954
11
141.7769279999999981
21
-107.8678659999999923
0
LINE
8
BLACK
6
CONTINUOUS
10
141.7769279999999981
20
-107.8678659999999923
11
141.8150229999999965
21
-107.9821519999999992
0
LINE
8
BLACK
6
CONTINUOUS
10
141.8150229999999965
20
-107.9821519999999992
11
142.2721659999999986
21
-108.4392950000000013
0
LINE
8
BLACK
6
CONTINUOUS
10
142.2721659999999986
20
-108.4392950000000013
11
141.7769279999999981
21
-108.4392950000000013
0
LINE
8
BLACK
6
CONTINUOUS
10
137.2932849999999974
20
-108.8711039999999883
11
137.3313809999999933
21
-108.9091999999999985
0
LINE
8
BLACK
6
CONTINUOUS
10
137.3313809999999933
20
-108.9091999999999985
11
137.4456659999999886
21
-108.9472949999999969
0
LINE
8
BLACK
6
CONTINUOUS
10
137.4456659999999886
20
-108.9472949999999969
11
137.5218569999999829
21
-108.9472949999999969
0
LINE
8
BLACK
6
CONTINUOUS
10
137.5218569999999829
20
-108.9472949999999969
11
137.6361430000000041
21
-108.9091999999999985
0
LINE
8
BLACK
6
CONTINUOUS
10
137.6361430000000041
20
-108.9091999999999985
11
137.712333000000001
21
-108.8330089999999899
0
LINE
8
BLACK
6
CONTINUOUS
10
137.712333000000001
20
-108.8330089999999899
11
137.7504279999999994
21
-108.756818999999993
0
LINE
8
BLACK
6
CONTINUOUS
10
137.7504279999999994
20
-108.756818999999993
11
137.7885239999999953
21
-108.6044380000000018
0
LINE
8
BLACK
6
CONTINUOUS
10
137.7885239999999953
20
-108.6044380000000018
11
137.7885239999999953
21
-108.4901519999999948
0
LINE
8
BLACK
6
CONTINUOUS
10
137.7885239999999953
20
-108.4901519999999948
11
137.7504279999999994
21
-108.3377709999999894
0
LINE
8
BLACK
6
CONTINUOUS
10
137.7504279999999994
20
-108.3377709999999894
11
137.712333000000001
21
-108.261579999999995
0
LINE
8
BLACK
6
CONTINUOUS
10
137.712333000000001
20
-108.261579999999995
11
137.6361430000000041
21
-108.1853899999999982
0
LINE
8
BLACK
6
CONTINUOUS
10
137.6361430000000041
20
-108.1853899999999982
11
137.5218569999999829
21
-108.1472949999999997
0
LINE
8
BLACK
6
CONTINUOUS
10
137.5218569999999829
20
-108.1472949999999997
11
137.4456659999999886
21
-108.1472949999999997
0
LINE
8
BLACK
6
CONTINUOUS
10
137.4456659999999886
20
-108.1472949999999997
11
137.3313809999999933
21
-108.1853899999999982
0
LINE
8
BLACK
6
CONTINUOUS
10
137.3313809999999933
20
-108.1853899999999982
11
137.2932849999999974
21
-108.2234849999999966
0
LINE
8
BLACK
6
CONTINUOUS
10
136.988523999999984
20
-108.2234849999999966
11
136.9504279999999881
21
-108.1853899999999982
0
LINE
8
BLACK
6
CONTINUOUS
10
136.9504279999999881
20
-108.1853899999999982
11
136.8742379999999912
21
-108.1472949999999997
0
LINE
8
BLACK
6
CONTINUOUS
10
136.8742379999999912
20
-108.1472949999999997
11
136.6837620000000015
21
-108.1472949999999997
0
LINE
8
BLACK
6
CONTINUOUS
10
136.6837620000000015
20
-108.1472949999999997
11
136.6075710000000072
21
-108.1853899999999982
0
LINE
8
BLACK
6
CONTINUOUS
10
136.6075710000000072
20
-108.1853899999999982
11
136.5694759999999803
21
-108.2234849999999966
0
LINE
8
BLACK
6
CONTINUOUS
10
136.5694759999999803
20
-108.2234849999999966
11
136.5313809999999819
21
-108.2996759999999909
0
LINE
8
BLACK
6
CONTINUOUS
10
136.5313809999999819
20
-108.2996759999999909
11
136.5313809999999819
21
-108.375866000000002
0
LINE
8
BLACK
6
CONTINUOUS
10
136.5313809999999819
20
-108.375866000000002
11
136.5694759999999803
21
-108.4901519999999948
0
LINE
8
BLACK
6
CONTINUOUS
10
136.5694759999999803
20
-108.4901519999999948
11
137.0266189999999824
21
-108.9472949999999969
0
LINE
8
BLACK
6
CONTINUOUS
10
137.0266189999999824
20
-108.9472949999999969
11
136.5313809999999819
21
-108.9472949999999969
0
LINE
8
BLACK
6
CONTINUOUS
10
136.2266189999999995
20
-108.2234849999999966
11
136.1885230000000035
21
-108.1853899999999982
0
LINE
8
BLACK
6
CONTINUOUS
10
136.1885230000000035
20
-108.1853899999999982
11
136.1123330000000067
21
-108.1472949999999997
0
LINE
8
BLACK
6
CONTINUOUS
10
136.1123330000000067
20
-108.1472949999999997
11
135.9218569999999886
21
-108.1472949999999997
0
LINE
8
BLACK
6
CONTINUOUS
10
135.9218569999999886
20
-108.1472949999999997
11
135.8456659999999943
21
-108.1853899999999982
0
LINE
8
BLACK
6
CONTINUOUS
10
135.8456659999999943
20
-108.1853899999999982
11
135.8075709999999958
21
-108.2234849999999966
0
LINE
8
BLACK
6
CONTINUOUS
10
135.8075709999999958
20
-108.2234849999999966
11
135.7694759999999974
21
-108.2996759999999909
0
LINE
8
BLACK
6
CONTINUOUS
10
135.7694759999999974
20
-108.2996759999999909
11
135.7694759999999974
21
-108.375866000000002
0
LINE
8
BLACK
6
CONTINUOUS
10
135.7694759999999974
20
-108.375866000000002
11
135.8075709999999958
21
-108.4901519999999948
0
LINE
8
BLACK
6
CONTINUOUS
10
135.8075709999999958
20
-108.4901519999999948
11
136.2647139999999979
21
-108.9472949999999969
0
LINE
8
BLACK
6
CONTINUOUS
10
136.2647139999999979
20
-108.9472949999999969
11
135.7694759999999974
21
-108.9472949999999969
0
LINE
8
BLACK
6
CONTINUOUS
10
133.8250799999999856
20
-95.5913329999999917
11
133.8726999999999805
21
-95.5437139999999943
0
LINE
8
BLACK
6
CONTINUOUS
10
133.8726999999999805
20
-95.5437139999999943
11
133.9203190000000063
21
-95.400857000000002
0
LINE
8
BLACK
6
CONTINUOUS
10
133.9203190000000063
20
-95.400857000000002
11
133.9203190000000063
21
-95.305618999999993
0
LINE
8
BLACK
6
CONTINUOUS
10
133.9203190000000063
20
-95.305618999999993
11
133.8726999999999805
21
-95.1627620000000007
0
LINE
8
BLACK
6
CONTINUOUS
10
133.8726999999999805
20
-95.1627620000000007
11
133.7774609999999882
21
-95.0675239999999917
0
LINE
8
BLACK
6
CONTINUOUS
10
133.7774609999999882
20
-95.0675239999999917
11
133.6822229999999934
21
-95.0199049999999943
0
LINE
8
BLACK
6
CONTINUOUS
10
133.6822229999999934
20
-95.0199049999999943
11
133.4917470000000037
21
-94.9722859999999969
0
LINE
8
BLACK
6
CONTINUOUS
10
133.4917470000000037
20
-94.9722859999999969
11
133.348889999999983
21
-94.9722859999999969
0
LINE
8
BLACK
6
CONTINUOUS
10
133.348889999999983
20
-94.9722859999999969
11
133.1584139999999934
21
-95.0199049999999943
0
LINE
8
BLACK
6
CONTINUOUS
10
133.1584139999999934
20
-95.0199049999999943
11
133.0631759999999986
21
-95.0675239999999917
0
LINE
8
BLACK
6
CONTINUOUS
10
133.0631759999999986
20
-95.0675239999999917
11
132.9679380000000037
21
-95.1627620000000007
0
LINE
8
BLACK
6
CONTINUOUS
10
132.9679380000000037
20
-95.1627620000000007
11
132.9203190000000063
21
-95.305618999999993
0
LINE
8
BLACK
6
CONTINUOUS
10
132.9203190000000063
20
-95.305618999999993
11
132.9203190000000063
21
-95.400857000000002
0
LINE
8
BLACK
6
CONTINUOUS
10
132.9203190000000063
20
-95.400857000000002
11
132.9679380000000037
21
-95.5437139999999943
0
LINE
8
BLACK
6
CONTINUOUS
10
132.9679380000000037
20
-95.5437139999999943
11
133.0155570000000012
21
-95.5913329999999917
0
LINE
8
BLACK
6
CONTINUOUS
10
132.9203190000000063
20
-95.9246669999999995
11
132.9203190000000063
21
-96.5913329999999917
0
LINE
8
BLACK
6
CONTINUOUS
10
132.9203190000000063
20
-96.5913329999999917
11
133.9203190000000063
21
-96.1627620000000007
0
LINE
8
BLACK
6
CONTINUOUS
10
145.736079999999987
20
-95.1151419999999916
11
145.7836999999999819
21
-95.0675229999999942
0
LINE
8
BLACK
6
CONTINUOUS
10
145.7836999999999819
20
-95.0675229999999942
11
145.8313189999999793
21
-94.924666000000002
0
LINE
8
BLACK
6
CONTINUOUS
10
145.8313189999999793
20
-94.924666000000002
11
145.8313189999999793
21
-94.8294279999999929
0
LINE
8
BLACK
6
CONTINUOUS
10
145.8313189999999793
20
-94.8294279999999929
11
145.7836999999999819
21
-94.6865710000000007
0
LINE
8
BLACK
6
CONTINUOUS
10
145.7836999999999819
20
-94.6865710000000007
11
145.6884609999999896
21
-94.5913329999999917
0
LINE
8
BLACK
6
CONTINUOUS
10
145.6884609999999896
20
-94.5913329999999917
11
145.5932229999999947
21
-94.5437139999999943
0
LINE
8
BLACK
6
CONTINUOUS
10
145.5932229999999947
20
-94.5437139999999943
11
145.4027470000000051
21
-94.4960949999999968
0
LINE
8
BLACK
6
CONTINUOUS
10
145.4027470000000051
20
-94.4960949999999968
11
145.2598899999999844
21
-94.4960949999999968
0
LINE
8
BLACK
6
CONTINUOUS
10
145.2598899999999844
20
-94.4960949999999968
11
145.0694139999999948
21
-94.5437139999999943
0
LINE
8
BLACK
6
CONTINUOUS
10
145.0694139999999948
20
-94.5437139999999943
11
144.9741759999999999
21
-94.5913329999999917
0
LINE
8
BLACK
6
CONTINUOUS
10
144.9741759999999999
20
-94.5913329999999917
11
144.8789380000000051
21
-94.6865710000000007
0
LINE
8
BLACK
6
CONTINUOUS
10
144.8789380000000051
20
-94.6865710000000007
11
144.8313189999999793
21
-94.8294279999999929
0
LINE
8
BLACK
6
CONTINUOUS
10
144.8313189999999793
20
-94.8294279999999929
11
144.8313189999999793
21
-94.924666000000002
0
LINE
8
BLACK
6
CONTINUOUS
10
144.8313189999999793
20
-94.924666000000002
11
144.8789380000000051
21
-95.0675229999999942
0
LINE
8
BLACK
6
CONTINUOUS
10
144.8789380000000051
20
-95.0675229999999942
11
144.9265570000000025
21
-95.1151419999999916
0
LINE
8
BLACK
6
CONTINUOUS
10
144.8313189999999793
20
-95.4484759999999994
11
144.8313189999999793
21
-96.0675229999999942
0
LINE
8
BLACK
6
CONTINUOUS
10
144.8313189999999793
20
-96.0675229999999942
11
145.212270999999987
21
-95.7341899999999981
0
LINE
8
BLACK
6
CONTINUOUS
10
145.212270999999987
20
-95.7341899999999981
11
145.212270999999987
21
-95.8770469999999904
0
LINE
8
BLACK
6
CONTINUOUS
10
145.212270999999987
20
-95.8770469999999904
11
145.2598899999999844
21
-95.9722849999999994
0
LINE
8
BLACK
6
CONTINUOUS
10
145.2598899999999844
20
-95.9722849999999994
11
145.3075089999999818
21
-96.0199039999999968
0
LINE
8
BLACK
6
CONTINUOUS
10
145.3075089999999818
20
-96.0199039999999968
11
145.4027470000000051
21
-96.0675229999999942
0
LINE
8
BLACK
6
CONTINUOUS
10
145.4027470000000051
20
-96.0675229999999942
11
145.6408419999999921
21
-96.0675229999999942
0
LINE
8
BLACK
6
CONTINUOUS
10
145.6408419999999921
20
-96.0675229999999942
11
145.736079999999987
21
-96.0199039999999968
0
LINE
8
BLACK
6
CONTINUOUS
10
145.736079999999987
20
-96.0199039999999968
11
145.7836999999999819
21
-95.9722849999999994
0
LINE
8
BLACK
6
CONTINUOUS
10
145.7836999999999819
20
-95.9722849999999994
11
145.8313189999999793
21
-95.8770469999999904
0
LINE
8
BLACK
6
CONTINUOUS
10
145.8313189999999793
20
-95.8770469999999904
11
145.8313189999999793
21
-95.5913329999999917
0
LINE
8
BLACK
6
CONTINUOUS
10
145.8313189999999793
20
-95.5913329999999917
11
145.7836999999999819
21
-95.4960949999999968
0
LINE
8
BLACK
6
CONTINUOUS
10
145.7836999999999819
20
-95.4960949999999968
11
145.736079999999987
21
-95.4484759999999994
0
LINE
8
BLACK
6
CONTINUOUS
10
145.8313189999999793
20
-97.0199039999999968
11
145.8313189999999793
21
-96.4484759999999994
0
LINE
8
BLACK
6
CONTINUOUS
10
145.8313189999999793
20
-96.7341899999999981
11
144.8313189999999793
21
-96.7341899999999981
0
LINE
8
BLACK
6
CONTINUOUS
10
144.8313189999999793
20
-96.7341899999999981
11
144.9741759999999999
21
-96.6389519999999891
0
LINE
8
BLACK
6
CONTINUOUS
10
144.9741759999999999
20
-96.6389519999999891
11
145.0694139999999948
21
-96.5437139999999943
0
LINE
8
BLACK
6
CONTINUOUS
10
145.0694139999999948
20
-96.5437139999999943
11
145.1170329999999922
21
-96.4484759999999994
0
LINE
8
BLACK
6
CONTINUOUS
10
142.9897519999999815
20
-105.0659999999999883
11
141.5672480000000064
21
-105.0659999999999883
0
LINE
8
BLACK
6
CONTINUOUS
10
142.9897519999999815
20
-107.7860000000000014
11
141.5672480000000064
21
-107.7860000000000014
0
LINE
8
BLACK
6
CONTINUOUS
10
147.3322479999999928
20
-101.5099999999999909
11
148.7547519999999963
21
-101.5099999999999909
0
LINE
8
BLACK
6
CONTINUOUS
10
147.3322479999999928
20
-104.2299999999999898
11
148.7547519999999963
21
-104.2299999999999898
0
LINE
8
BLACK
6
CONTINUOUS
10
135.940747999999985
20
-97.9539999999999935
11
137.3632519999999886
21
-97.9539999999999935
0
LINE
8
BLACK
6
CONTINUOUS
10
135.940747999999985
20
-100.6739999999999924
11
137.3632519999999886
21
-100.6739999999999924
0
LINE
8
BLACK
6
CONTINUOUS
10
147.3707479999999919
20
-94.3979999999999961
11
148.7932519999999954
21
-94.3979999999999961
0
LINE
8
BLACK
6
CONTINUOUS
10
147.3707479999999919
20
-97.117999999999995
11
148.7932519999999954
21
-97.117999999999995
0
LINE
8
BLACK
6
CONTINUOUS
10
135.940747999999985
20
-101.5099999999999909
11
137.3632519999999886
21
-101.5099999999999909
0
LINE
8
BLACK
6
CONTINUOUS
10
135.940747999999985
20
-104.2299999999999898
11
137.3632519999999886
21
-104.2299999999999898
0
LINE
8
BLACK
6
CONTINUOUS
10
142.9512519999999824
20
-90.8419999999999987
11
141.5287480000000073
21
-90.8419999999999987
0
LINE
8
BLACK
6
CONTINUOUS
10
142.9512519999999824
20
-93.5619999999999976
11
141.5287480000000073
21
-93.5619999999999976
0
LINE
8
BLACK
6
CONTINUOUS
10
147.3707479999999919
20
-108.6219999999999999
11
148.7932519999999954
21
-108.6219999999999999
0
LINE
8
BLACK
6
CONTINUOUS
10
147.3707479999999919
20
-111.3419999999999987
11
148.7932519999999954
21
-111.3419999999999987
0
LINE
8
BLACK
6
CONTINUOUS
10
142.9512519999999824
20
-112.1779999999999973
11
141.5287480000000073
21
-112.1779999999999973
0
LINE
8
BLACK
6
CONTINUOUS
10
142.9512519999999824
20
-114.8979999999999961
11
141.5287480000000073
21
-114.8979999999999961
0
LINE
8
BLACK
6
CONTINUOUS
10
147.3707479999999919
20
-90.8419999999999987
11
148.7932519999999954
21
-90.8419999999999987
0
LINE
8
BLACK
6
CONTINUOUS
10
147.3707479999999919
20
-93.5619999999999976
11
148.7932519999999954
21
-93.5619999999999976
0
LINE
8
BLACK
6
CONTINUOUS
10
135.940747999999985
20
-90.8419999999999987
11
137.3632519999999886
21
-90.8419999999999987
0
LINE
8
BLACK
6
CONTINUOUS
10
135.940747999999985
20
-93.5619999999999976
11
137.3632519999999886
21
-93.5619999999999976
0
LINE
8
BLACK
6
CONTINUOUS
10
147.3707479999999919
20
-112.1779999999999973
11
148.7932519999999954
21
-112.1779999999999973
0
LINE
8
BLACK
6
CONTINUOUS
10
147.3707479999999919
20
-114.8979999999999961
11
148.7932519999999954
21
-114.8979999999999961
0
LINE
8
BLACK
6
CONTINUOUS
10
147.3707479999999919
20
-97.9539999999999935
11
148.7932519999999954
21
-97.9539999999999935
0
LINE
8
BLACK
6
CONTINUOUS
10
147.3707479999999919
20
-100.6739999999999924
11
148.7932519999999954
21
-100.6739999999999924
0
LINE
8
BLACK
6
CONTINUOUS
10
137.3632519999999886
20
-112.1779999999999973
11
135.940747999999985
21
-112.1779999999999973
0
LINE
8
BLACK
6
CONTINUOUS
10
137.3632519999999886
20
-114.8979999999999961
11
135.940747999999985
21
-114.8979999999999961
0
LINE
8
BLACK
6
CONTINUOUS
10
142.9512519999999824
20
-97.9539999999999935
11
141.5287480000000073
21
-97.9539999999999935
0
LINE
8
BLACK
6
CONTINUOUS
10
142.9512519999999824
20
-100.6739999999999924
11
141.5287480000000073
21
-100.6739999999999924
0
LINE
8
BLACK
6
CONTINUOUS
10
147.3707479999999919
20
-105.0659999999999883
11
148.7932519999999954
21
-105.0659999999999883
0
LINE
8
BLACK
6
CONTINUOUS
10
147.3707479999999919
20
-107.7860000000000014
11
148.7932519999999954
21
-107.7860000000000014
0
LINE
8
BLACK
6
CONTINUOUS
10
142.9512519999999824
20
-101.5099999999999909
11
141.5287480000000073
21
-101.5099999999999909
0
LINE
8
BLACK
6
CONTINUOUS
10
142.9512519999999824
20
-104.2299999999999898
11
141.5287480000000073
21
-104.2299999999999898
0
LINE
8
BLACK
6
CONTINUOUS
10
135.940747999999985
20
-108.6219999999999999
11
137.3632519999999886
21
-108.6219999999999999
0
LINE
8
BLACK
6
CONTINUOUS
10
135.940747999999985
20
-111.3419999999999987
11
137.3632519999999886
21
-111.3419999999999987
0
LINE
8
BLACK
6
CONTINUOUS
10
142.9897519999999815
20
-108.6219999999999999
11
141.5672480000000064
21
-108.6219999999999999
0
LINE
8
BLACK
6
CONTINUOUS
10
142.9897519999999815
20
-111.3419999999999987
11
141.5672480000000064
21
-111.3419999999999987
0
LINE
8
BLACK
6
CONTINUOUS
10
135.940747999999985
20
-105.0659999999999883
11
137.3632519999999886
21
-105.0659999999999883
0
LINE
8
BLACK
6
CONTINUOUS
10
135.940747999999985
20
-107.7860000000000014
11
137.3632519999999886
21
-107.7860000000000014
0
LINE
8
BLACK
6
CONTINUOUS
10
135.940747999999985
20
-94.3979999999999961
11
137.3632519999999886
21
-94.3979999999999961
0
LINE
8
BLACK
6
CONTINUOUS
10
135.940747999999985
20
-97.117999999999995
11
137.3632519999999886
21
-97.117999999999995
0
LINE
8
BLACK
6
CONTINUOUS
10
142.9512519999999824
20
-94.3979999999999961
11
141.5287480000000073
21
-94.3979999999999961
0
LINE
8
BLACK
6
CONTINUOUS
10
142.9512519999999824
20
-97.117999999999995
11
141.5287480000000073
21
-97.117999999999995
0
LINE
8
BLACK
6
CONTINUOUS
10
130.4277569999999855
20
-128.0266239999999982
11
144.9787049999999908
21
-128.0236050000000034
0
ARC
8
BLACK
10
149.4505000000000052
20
-128.526600000000002
40
4.4999949435582698
50
6.40235640
51
173.58224999
0
ARC
8
BLACK
10
170.3171600000000012
20
-114.8904099999999886
40
4.5159206772543072
50
-265.04763905
51
-94.95235110
0
ARC
8
BLACK
10
168.4277999999999906
20
-126.5267999999999944
40
1.4999570007363543
50
-90.00164253
51
0.00179532
0
LINE
8
BLACK
6
CONTINUOUS
10
169.9273129999999981
20
-119.3894719999999978
11
169.9277569999999855
21
-126.5267529999999994
0
ARC
8
BLACK
10
149.4505000000000052
20
-71.0742999999999938
40
33.5000020000002365
50
-49.60704630
51
0.00000684
0
ARC
8
BLACK
10
125.5849999999999937
20
-99.3549999999999898
40
3.5048711172739289
50
-0.02610700
51
49.79220904
0
LINE
8
BLACK
6
CONTINUOUS
10
128.9277569999999855
20
-126.5266239999999982
11
128.9277569999999855
21
-119.3739649999999983
0
ARC
8
BLACK
10
128.5432199999999909
20
-114.866579999999999
40
4.5237586549705542
50
-85.12375200
51
83.05956922
0
ARC
8
BLACK
10
130.4276999999999873
20
-126.5265999999999877
40
1.5000240010829826
50
-179.99908323
51
-89.99782280
0
ARC
8
BLACK
10
173.4277999999999906
20
-99.2544999999999931
40
3.5004870000022854
50
-229.60648353
51
-179.99993453
0
LINE
8
BLACK
6
CONTINUOUS
10
169.9273129999999981
20
-99.2545039999999972
11
169.9273129999999981
21
-110.3913569999999993
0
LINE
8
BLACK
6
CONTINUOUS
10
129.0898589999999899
20
-99.3565969999999936
11
129.0898589999999899
21
-110.3759699999999953
0
ARC
8
BLACK
10
149.4505000000000052
20
-71.0742999999999938
40
33.4999958740311001
50
-180.00000684
51
-130.15536454
0
ARC
8
BLACK
10
149.4505020000000002
20
-71.0742959999999897
40
33.5
50
0.00000000
51
180.00000000
0
LINE
8
BLACK
6
CONTINUOUS
10
153.9224339999999813
20
-128.0248059999999839
11
168.4277569999999855
21
-128.0267529999999851
  0
ENDSEC
  0
EOF
