%TF.GenerationSoftware,KiCad,Pcbnew,7.0.1*%
%TF.CreationDate,2023-12-14T23:22:24+03:00*%
%TF.ProjectId,_______ _____,21383b3e-3230-44f2-903f-3b3042302e6b,rev?*%
%TF.SameCoordinates,Original*%
%TF.FileFunction,Copper,L6,Bot*%
%TF.FilePolarity,Positive*%
%FSLAX46Y46*%
G04 Gerber Fmt 4.6, Leading zero omitted, Abs format (unit mm)*
G04 Created by KiCad (PCBNEW 7.0.1) date 2023-12-14 23:22:24*
%MOMM*%
%LPD*%
G01*
G04 APERTURE LIST*
G04 Aperture macros list*
%AMRoundRect*
0 Rectangle with rounded corners*
0 $1 Rounding radius*
0 $2 $3 $4 $5 $6 $7 $8 $9 X,Y pos of 4 corners*
0 Add a 4 corners polygon primitive as box body*
4,1,4,$2,$3,$4,$5,$6,$7,$8,$9,$2,$3,0*
0 Add four circle primitives for the rounded corners*
1,1,$1+$1,$2,$3*
1,1,$1+$1,$4,$5*
1,1,$1+$1,$6,$7*
1,1,$1+$1,$8,$9*
0 Add four rect primitives between the rounded corners*
20,1,$1+$1,$2,$3,$4,$5,0*
20,1,$1+$1,$4,$5,$6,$7,0*
20,1,$1+$1,$6,$7,$8,$9,0*
20,1,$1+$1,$8,$9,$2,$3,0*%
G04 Aperture macros list end*
%TA.AperFunction,ComponentPad*%
%ADD10C,8.200000*%
%TD*%
%TA.AperFunction,ComponentPad*%
%ADD11C,6.000000*%
%TD*%
%TA.AperFunction,ComponentPad*%
%ADD12R,1.700000X1.700000*%
%TD*%
%TA.AperFunction,ComponentPad*%
%ADD13O,1.700000X1.700000*%
%TD*%
%TA.AperFunction,ComponentPad*%
%ADD14C,2.000000*%
%TD*%
%TA.AperFunction,ComponentPad*%
%ADD15C,5.000000*%
%TD*%
%TA.AperFunction,SMDPad,CuDef*%
%ADD16RoundRect,0.250000X-1.100000X0.412500X-1.100000X-0.412500X1.100000X-0.412500X1.100000X0.412500X0*%
%TD*%
%TA.AperFunction,SMDPad,CuDef*%
%ADD17RoundRect,0.250000X1.100000X-0.412500X1.100000X0.412500X-1.100000X0.412500X-1.100000X-0.412500X0*%
%TD*%
%TA.AperFunction,ViaPad*%
%ADD18C,0.800000*%
%TD*%
%TA.AperFunction,Conductor*%
%ADD19C,1.000000*%
%TD*%
%TA.AperFunction,Conductor*%
%ADD20C,0.500000*%
%TD*%
%TA.AperFunction,Profile*%
%ADD21C,0.200000*%
%TD*%
G04 APERTURE END LIST*
D10*
%TO.P,J7,1,Pin_1*%
%TO.N,C*%
X123562000Y-52583000D03*
%TD*%
%TO.P,J5,1,Pin_1*%
%TO.N,A*%
X168012000Y-52583000D03*
%TD*%
D11*
%TO.P,J3,1,Pin_1*%
%TO.N,Shunt_1*%
X140707000Y-112543000D03*
%TD*%
D12*
%TO.P,J4,1,Pin_1*%
%TO.N,+3.3V*%
X147057000Y-62743000D03*
D13*
%TO.P,J4,2,Pin_2*%
%TO.N,~{OS}_MCU*%
X144517000Y-62743000D03*
%TO.P,J4,3,Pin_3*%
%TO.N,G3*%
X147057000Y-65283000D03*
%TO.P,J4,4,Pin_4*%
%TO.N,SCL_MCU*%
X144517000Y-65283000D03*
%TO.P,J4,5,Pin_5*%
%TO.N,B*%
X147057000Y-67823000D03*
%TO.P,J4,6,Pin_6*%
%TO.N,SDA_MCU*%
X144517000Y-67823000D03*
%TO.P,J4,7,Pin_7*%
%TO.N,G2*%
X147057000Y-70363000D03*
%TO.P,J4,8,Pin_8*%
%TO.N,G4*%
X144517000Y-70363000D03*
%TO.P,J4,9,Pin_9*%
%TO.N,GND*%
X147057000Y-72903000D03*
%TO.P,J4,10,Pin_10*%
X144517000Y-72903000D03*
%TO.P,J4,11,Pin_11*%
%TO.N,G1*%
X147057000Y-75443000D03*
%TO.P,J4,12,Pin_12*%
%TO.N,G6*%
X144517000Y-75443000D03*
%TO.P,J4,13,Pin_13*%
%TO.N,A*%
X147057000Y-77983000D03*
%TO.P,J4,14,Pin_14*%
%TO.N,C*%
X144517000Y-77983000D03*
%TO.P,J4,15,Pin_15*%
%TO.N,GND*%
X147057000Y-80523000D03*
%TO.P,J4,16,Pin_16*%
%TO.N,G5*%
X144517000Y-80523000D03*
%TO.P,J4,17,Pin_17*%
%TO.N,Shunt_1*%
X147057000Y-83063000D03*
%TO.P,J4,18,Pin_18*%
%TO.N,GND*%
X144517000Y-83063000D03*
%TO.P,J4,19,Pin_19*%
%TO.N,Shunt_1*%
X147057000Y-85603000D03*
%TO.P,J4,20,Pin_20*%
%TO.N,Shunt_2*%
X144517000Y-85603000D03*
%TD*%
D10*
%TO.P,J6,1,Pin_1*%
%TO.N,B*%
X145787000Y-37978000D03*
%TD*%
D14*
%TO.P,C7,1*%
%TO.N,Earth_Protective*%
X157217000Y-117998000D03*
%TO.P,C7,2*%
%TO.N,Net-(J2-Pin_1)*%
X157217000Y-110498000D03*
%TD*%
D11*
%TO.P,J2,1,Pin_1*%
%TO.N,Net-(J2-Pin_1)*%
X150867000Y-112543000D03*
%TD*%
D15*
%TO.P,H3,*%
%TO.N,Earth_Protective*%
X128642000Y-119258000D03*
%TD*%
D14*
%TO.P,C8,1*%
%TO.N,Shunt_1*%
X134357000Y-110498000D03*
%TO.P,C8,2*%
%TO.N,Earth_Protective*%
X134357000Y-117998000D03*
%TD*%
D15*
%TO.P,H4,*%
%TO.N,Earth_Protective*%
X163567000Y-119258000D03*
%TD*%
D16*
%TO.P,C41,1*%
%TO.N,Shunt_1*%
X141977000Y-87850500D03*
%TO.P,C41,2*%
%TO.N,GND*%
X141977000Y-90975500D03*
%TD*%
D17*
%TO.P,C37,1*%
%TO.N,Shunt_1*%
X149597000Y-96690500D03*
%TO.P,C37,2*%
%TO.N,GND*%
X149597000Y-93565500D03*
%TD*%
D16*
%TO.P,C25,1*%
%TO.N,Shunt_1*%
X160646000Y-99280500D03*
%TO.P,C25,2*%
%TO.N,GND*%
X160646000Y-102405500D03*
%TD*%
D17*
%TO.P,C44,1*%
%TO.N,Shunt_1*%
X145787000Y-96690500D03*
%TO.P,C44,2*%
%TO.N,GND*%
X145787000Y-93565500D03*
%TD*%
D16*
%TO.P,C32,1*%
%TO.N,Shunt_1*%
X149597000Y-87850500D03*
%TO.P,C32,2*%
%TO.N,GND*%
X149597000Y-90975500D03*
%TD*%
D17*
%TO.P,C18,1*%
%TO.N,Shunt_1*%
X134357000Y-96690500D03*
%TO.P,C18,2*%
%TO.N,GND*%
X134357000Y-93565500D03*
%TD*%
D16*
%TO.P,C5,1*%
%TO.N,Shunt_1*%
X134357000Y-99280500D03*
%TO.P,C5,2*%
%TO.N,GND*%
X134357000Y-102405500D03*
%TD*%
D17*
%TO.P,C26,1*%
%TO.N,Shunt_1*%
X153407000Y-107778000D03*
%TO.P,C26,2*%
%TO.N,GND*%
X153407000Y-104653000D03*
%TD*%
D16*
%TO.P,C4,1*%
%TO.N,Shunt_1*%
X130928000Y-99280500D03*
%TO.P,C4,2*%
%TO.N,GND*%
X130928000Y-102405500D03*
%TD*%
D17*
%TO.P,C15,1*%
%TO.N,Shunt_1*%
X134357000Y-107728000D03*
%TO.P,C15,2*%
%TO.N,GND*%
X134357000Y-104603000D03*
%TD*%
D16*
%TO.P,C40,1*%
%TO.N,Shunt_1*%
X153407000Y-87850500D03*
%TO.P,C40,2*%
%TO.N,GND*%
X153407000Y-90975500D03*
%TD*%
%TO.P,C29,1*%
%TO.N,Shunt_1*%
X157217000Y-99280500D03*
%TO.P,C29,2*%
%TO.N,GND*%
X157217000Y-102405500D03*
%TD*%
%TO.P,C30,1*%
%TO.N,Shunt_1*%
X153407000Y-99280500D03*
%TO.P,C30,2*%
%TO.N,GND*%
X153407000Y-102405500D03*
%TD*%
%TO.P,C6,1*%
%TO.N,Shunt_1*%
X150867000Y-82135500D03*
%TO.P,C6,2*%
%TO.N,GND*%
X150867000Y-85260500D03*
%TD*%
D17*
%TO.P,C14,1*%
%TO.N,Shunt_1*%
X157217000Y-107728000D03*
%TO.P,C14,2*%
%TO.N,GND*%
X157217000Y-104603000D03*
%TD*%
%TO.P,C2,1*%
%TO.N,Shunt_1*%
X157217000Y-96690500D03*
%TO.P,C2,2*%
%TO.N,GND*%
X157217000Y-93565500D03*
%TD*%
D16*
%TO.P,C9,1*%
%TO.N,Shunt_1*%
X140707000Y-82135500D03*
%TO.P,C9,2*%
%TO.N,GND*%
X140707000Y-85260500D03*
%TD*%
D17*
%TO.P,C28,1*%
%TO.N,Shunt_1*%
X141977000Y-107728000D03*
%TO.P,C28,2*%
%TO.N,GND*%
X141977000Y-104603000D03*
%TD*%
%TO.P,C3,1*%
%TO.N,Shunt_1*%
X145787000Y-107778000D03*
%TO.P,C3,2*%
%TO.N,GND*%
X145787000Y-104653000D03*
%TD*%
D16*
%TO.P,C23,1*%
%TO.N,Shunt_1*%
X141977000Y-99280500D03*
%TO.P,C23,2*%
%TO.N,GND*%
X141977000Y-102405500D03*
%TD*%
D17*
%TO.P,C22,1*%
%TO.N,Shunt_1*%
X140707000Y-79545500D03*
%TO.P,C22,2*%
%TO.N,GND*%
X140707000Y-76420500D03*
%TD*%
D16*
%TO.P,C43,1*%
%TO.N,Shunt_1*%
X145787000Y-87850500D03*
%TO.P,C43,2*%
%TO.N,GND*%
X145787000Y-90975500D03*
%TD*%
D17*
%TO.P,C17,1*%
%TO.N,Shunt_1*%
X138167000Y-96690500D03*
%TO.P,C17,2*%
%TO.N,GND*%
X138167000Y-93565500D03*
%TD*%
D16*
%TO.P,C19,1*%
%TO.N,Shunt_1*%
X149597000Y-99280500D03*
%TO.P,C19,2*%
%TO.N,GND*%
X149597000Y-102405500D03*
%TD*%
%TO.P,C36,1*%
%TO.N,Shunt_1*%
X145787000Y-99280500D03*
%TO.P,C36,2*%
%TO.N,GND*%
X145787000Y-102405500D03*
%TD*%
D17*
%TO.P,C11,1*%
%TO.N,Shunt_1*%
X141977000Y-96690500D03*
%TO.P,C11,2*%
%TO.N,GND*%
X141977000Y-93565500D03*
%TD*%
D16*
%TO.P,C38,1*%
%TO.N,Shunt_1*%
X157217000Y-87850500D03*
%TO.P,C38,2*%
%TO.N,GND*%
X157217000Y-90975500D03*
%TD*%
%TO.P,C33,1*%
%TO.N,Shunt_1*%
X138167000Y-87850500D03*
%TO.P,C33,2*%
%TO.N,GND*%
X138167000Y-90975500D03*
%TD*%
%TO.P,C34,1*%
%TO.N,Shunt_1*%
X134357000Y-87850500D03*
%TO.P,C34,2*%
%TO.N,GND*%
X134357000Y-90975500D03*
%TD*%
D17*
%TO.P,C42,1*%
%TO.N,Shunt_1*%
X138167000Y-107728000D03*
%TO.P,C42,2*%
%TO.N,GND*%
X138167000Y-104603000D03*
%TD*%
%TO.P,C31,1*%
%TO.N,Shunt_1*%
X153407000Y-96740500D03*
%TO.P,C31,2*%
%TO.N,GND*%
X153407000Y-93615500D03*
%TD*%
%TO.P,C16,1*%
%TO.N,Shunt_1*%
X150867000Y-79545500D03*
%TO.P,C16,2*%
%TO.N,GND*%
X150867000Y-76420500D03*
%TD*%
%TO.P,C27,1*%
%TO.N,Shunt_1*%
X149597000Y-107778000D03*
%TO.P,C27,2*%
%TO.N,GND*%
X149597000Y-104653000D03*
%TD*%
D16*
%TO.P,C24,1*%
%TO.N,Shunt_1*%
X138167000Y-99280500D03*
%TO.P,C24,2*%
%TO.N,GND*%
X138167000Y-102405500D03*
%TD*%
D18*
%TO.N,G1*%
X155312000Y-71633000D03*
%TO.N,A*%
X173092000Y-64013000D03*
X155312000Y-74173000D03*
X166742000Y-60203000D03*
X169917000Y-61473000D03*
X155312000Y-75443000D03*
X169917000Y-65283000D03*
X155312000Y-76713000D03*
X169917000Y-60203000D03*
X166742000Y-65283000D03*
X169917000Y-64013000D03*
X166742000Y-62743000D03*
X169917000Y-62743000D03*
X166742000Y-66553000D03*
X173092000Y-58933000D03*
X166742000Y-58933000D03*
X173092000Y-62743000D03*
X173092000Y-61473000D03*
X155312000Y-72903000D03*
X155312000Y-80523000D03*
X173092000Y-65283000D03*
X155312000Y-79253000D03*
X173092000Y-66553000D03*
X173092000Y-60203000D03*
X155312000Y-77983000D03*
X166742000Y-64013000D03*
X166742000Y-61473000D03*
%TO.N,G2*%
X159122000Y-58298000D03*
%TO.N,GND*%
X141342000Y-56393000D03*
X159122000Y-90048000D03*
X159122000Y-67188000D03*
X159122000Y-59568000D03*
X160392000Y-87508000D03*
X173346000Y-77348000D03*
X131817000Y-60838000D03*
X159122000Y-64648000D03*
X155947000Y-86238000D03*
X131817000Y-59568000D03*
X161027000Y-88778000D03*
X157217000Y-86238000D03*
X161027000Y-86238000D03*
X120768000Y-69728000D03*
X159757000Y-88778000D03*
X142612000Y-56393000D03*
X120514000Y-75824000D03*
X144390000Y-51647500D03*
X161027000Y-92588000D03*
X136262000Y-103383000D03*
X161662000Y-87508000D03*
X154677000Y-86238000D03*
X159757000Y-91318000D03*
X131817000Y-63378000D03*
X174362000Y-69474000D03*
X162297000Y-86238000D03*
X159122000Y-63378000D03*
X136262000Y-93565500D03*
X131817000Y-62108000D03*
X131817000Y-64648000D03*
X138802000Y-56393000D03*
X140122800Y-93553200D03*
X131817000Y-58298000D03*
X137532000Y-56393000D03*
X140072000Y-103383000D03*
X158487000Y-86238000D03*
X159122000Y-60838000D03*
X140072000Y-56393000D03*
X159757000Y-92588000D03*
X161027000Y-91318000D03*
X131817000Y-65918000D03*
X134992000Y-56393000D03*
X159757000Y-86238000D03*
X159122000Y-65918000D03*
X160392000Y-90048000D03*
X159122000Y-62108000D03*
X136262000Y-56393000D03*
%TO.N,G3*%
X148835000Y-57028000D03*
%TO.N,B*%
X134992000Y-46233000D03*
X140072000Y-49408000D03*
X138802000Y-46233000D03*
X137532000Y-43058000D03*
X136262000Y-43058000D03*
X133722000Y-49408000D03*
X133722000Y-43058000D03*
X136262000Y-46233000D03*
X140072000Y-43058000D03*
X154042000Y-57028000D03*
X136262000Y-49408000D03*
X150232000Y-57028000D03*
X151502000Y-57028000D03*
X140072000Y-46233000D03*
X138802000Y-43058000D03*
X157852000Y-57028000D03*
X134992000Y-49408000D03*
X137532000Y-49408000D03*
X138802000Y-49408000D03*
X155312000Y-57028000D03*
X134992000Y-43058000D03*
X137532000Y-46233000D03*
X141342000Y-49408000D03*
X156582000Y-57028000D03*
X141342000Y-43058000D03*
X152772000Y-57028000D03*
%TO.N,G4*%
X133722000Y-56393000D03*
%TO.N,G5*%
X136262000Y-80523000D03*
%TO.N,C*%
X136262000Y-76713000D03*
X124832000Y-64013000D03*
X136262000Y-79253000D03*
X124832000Y-62743000D03*
X124832000Y-61473000D03*
X121657000Y-64013000D03*
X121657000Y-61473000D03*
X118482000Y-62743000D03*
X118482000Y-61473000D03*
X136262000Y-74173000D03*
X118482000Y-65283000D03*
X124832000Y-58933000D03*
X118482000Y-58933000D03*
X118482000Y-60203000D03*
X124832000Y-60203000D03*
X124832000Y-65283000D03*
X121657000Y-62743000D03*
X136262000Y-71633000D03*
X121657000Y-65283000D03*
X118482000Y-66553000D03*
X124832000Y-66553000D03*
X121657000Y-60203000D03*
X136262000Y-72903000D03*
X136262000Y-75443000D03*
X136262000Y-77983000D03*
X118482000Y-64013000D03*
%TO.N,G6*%
X131817000Y-67188000D03*
%TO.N,Shunt_1*%
X131182000Y-91953000D03*
X140072000Y-99573000D03*
X162297000Y-100843000D03*
X140072000Y-98303000D03*
X131182000Y-89413000D03*
X143882000Y-91953000D03*
X136262000Y-99573000D03*
X131182000Y-90683000D03*
X143882000Y-98303000D03*
X140707000Y-80802500D03*
X131182000Y-93223000D03*
X150867000Y-80523000D03*
X143882000Y-99573000D03*
X133087000Y-85603000D03*
X136262000Y-98303000D03*
X129277000Y-85603000D03*
%TO.N,Shunt_2*%
X141342000Y-71633000D03*
X150486000Y-63378000D03*
X153788000Y-46233000D03*
X122927000Y-79888000D03*
X165472000Y-76078000D03*
X149978000Y-49408000D03*
X122927000Y-73538000D03*
X168647000Y-72268000D03*
X156328000Y-46233000D03*
X155058000Y-49408000D03*
X162297000Y-72268000D03*
X140072000Y-70363000D03*
X153788000Y-43058000D03*
X126102000Y-76078000D03*
X165472000Y-78618000D03*
X150867000Y-62108000D03*
X151502000Y-60838000D03*
X122927000Y-72268000D03*
X168647000Y-73538000D03*
X129277000Y-72268000D03*
X140072000Y-59568000D03*
X126102000Y-73538000D03*
X162297000Y-78618000D03*
X168647000Y-78618000D03*
X122927000Y-77348000D03*
X152518000Y-49408000D03*
X129277000Y-79888000D03*
X165472000Y-77348000D03*
X151248000Y-46233000D03*
X129277000Y-76078000D03*
X156328000Y-49408000D03*
X126102000Y-78618000D03*
X151248000Y-43058000D03*
X152518000Y-46233000D03*
X156328000Y-43058000D03*
X168647000Y-77348000D03*
X162297000Y-73538000D03*
X149978000Y-43058000D03*
X122927000Y-78618000D03*
X151502000Y-63378000D03*
X126102000Y-77348000D03*
X129277000Y-77348000D03*
X162297000Y-76078000D03*
X157598000Y-49408000D03*
X155058000Y-46233000D03*
X140072000Y-65283000D03*
X152137000Y-62108000D03*
X150486000Y-60838000D03*
X140707000Y-60838000D03*
X162297000Y-79888000D03*
X151248000Y-49408000D03*
X152137000Y-59568000D03*
X141342000Y-59568000D03*
X122927000Y-76078000D03*
X150994000Y-59568000D03*
X157598000Y-43058000D03*
X168647000Y-79888000D03*
X162297000Y-74808000D03*
X129277000Y-73538000D03*
X155058000Y-43058000D03*
X129277000Y-78618000D03*
X126102000Y-74808000D03*
X165472000Y-74808000D03*
X162297000Y-77348000D03*
X165472000Y-73538000D03*
X152518000Y-43058000D03*
X122927000Y-74808000D03*
X141977000Y-60838000D03*
X141342000Y-66553000D03*
X168647000Y-74808000D03*
X168647000Y-76078000D03*
X129277000Y-74808000D03*
X153788000Y-49408000D03*
%TO.N,+3.3V*%
X117212000Y-69728000D03*
X147184000Y-55965500D03*
X170803816Y-69475092D03*
X144644000Y-60410500D03*
%TO.N,~{OS}_MCU*%
X145152000Y-54441500D03*
X173600000Y-74300000D03*
X119752000Y-74300000D03*
%TO.N,SCL_MCU*%
X172579701Y-74295701D03*
X146168000Y-54441500D03*
X118736000Y-74300000D03*
%TO.N,SDA_MCU*%
X118727048Y-73275049D03*
X171568000Y-74300000D03*
X147184000Y-54441500D03*
%TD*%
D19*
%TO.N,GND*%
X147349500Y-80230500D02*
X147057000Y-80523000D01*
D20*
%TO.N,Shunt_1*%
X162208500Y-100843000D02*
X160646000Y-99280500D01*
D19*
X140707000Y-79545500D02*
X140707000Y-80802500D01*
D20*
X162297000Y-100843000D02*
X162208500Y-100843000D01*
D19*
X140707000Y-80802500D02*
X140707000Y-82135500D01*
%TD*%
%TA.AperFunction,Conductor*%
%TO.N,Earth_Protective*%
G36*
X135184000Y-116988613D02*
G01*
X135229387Y-117034000D01*
X135246000Y-117096000D01*
X135246000Y-118960157D01*
X135229391Y-119022150D01*
X135184015Y-119067536D01*
X135122026Y-119084156D01*
X133157725Y-119084564D01*
X128472043Y-119085536D01*
X128410032Y-119068932D01*
X128364634Y-119023543D01*
X128348017Y-118961536D01*
X128348017Y-117096000D01*
X128364630Y-117034000D01*
X128410017Y-116988613D01*
X128472017Y-116972000D01*
X135122000Y-116972000D01*
X135184000Y-116988613D01*
G37*
%TD.AperFunction*%
%TD*%
%TA.AperFunction,Conductor*%
%TO.N,B*%
G36*
X146956672Y-34953939D02*
G01*
X146961044Y-34954096D01*
X148043914Y-35012139D01*
X148048234Y-35012448D01*
X149128312Y-35109102D01*
X149132690Y-35109572D01*
X150208645Y-35244717D01*
X150212927Y-35245332D01*
X151283376Y-35418794D01*
X151287706Y-35419575D01*
X152351253Y-35631128D01*
X152355520Y-35632056D01*
X153410840Y-35881435D01*
X153415077Y-35882516D01*
X153944260Y-36027690D01*
X153997991Y-36058461D01*
X154030145Y-36111377D01*
X154032704Y-36173243D01*
X153943319Y-36590558D01*
X153892824Y-37019337D01*
X153882704Y-37450971D01*
X153913043Y-37881638D01*
X153983584Y-38307594D01*
X154093694Y-38725053D01*
X154242418Y-39130378D01*
X154428443Y-39519997D01*
X154650134Y-39890482D01*
X154905542Y-40238576D01*
X155192423Y-40561224D01*
X155508263Y-40855596D01*
X155850270Y-41119090D01*
X155850274Y-41119093D01*
X156215459Y-41349408D01*
X156600606Y-41544514D01*
X157002331Y-41702697D01*
X157417103Y-41822567D01*
X157841278Y-41903071D01*
X158171532Y-41934132D01*
X158271125Y-41943500D01*
X158271127Y-41943500D01*
X158594871Y-41943500D01*
X158594877Y-41943500D01*
X158918272Y-41928325D01*
X159345753Y-41867792D01*
X159765688Y-41767495D01*
X160174386Y-41628316D01*
X160568255Y-41451477D01*
X160748278Y-41349408D01*
X160943835Y-41238532D01*
X161120827Y-41114942D01*
X161297822Y-40991353D01*
X161627108Y-40712113D01*
X161928799Y-40403265D01*
X162200244Y-40067523D01*
X162314374Y-39895624D01*
X162362614Y-39853110D01*
X162425665Y-39840473D01*
X162486566Y-39861112D01*
X163051480Y-40238576D01*
X163262966Y-40379886D01*
X163266595Y-40382405D01*
X164010070Y-40918526D01*
X164146149Y-41016653D01*
X164149692Y-41019306D01*
X165006023Y-41684524D01*
X165009441Y-41687279D01*
X165831498Y-42374293D01*
X165841481Y-42382636D01*
X165844791Y-42385503D01*
X166651554Y-43110179D01*
X166654767Y-43113172D01*
X167435097Y-43866130D01*
X167438177Y-43869210D01*
X168191122Y-44649526D01*
X168194139Y-44652766D01*
X168286993Y-44756138D01*
X168314208Y-44805768D01*
X168316531Y-44862322D01*
X168293478Y-44914017D01*
X168249852Y-44950081D01*
X168194744Y-44963000D01*
X159122000Y-44963000D01*
X159122000Y-57276969D01*
X159109450Y-57331327D01*
X159074342Y-57374682D01*
X159023781Y-57398259D01*
X158842197Y-57436855D01*
X158669269Y-57513848D01*
X158505585Y-57632772D01*
X158505069Y-57632061D01*
X158477242Y-57652280D01*
X158426806Y-57663000D01*
X149722965Y-57663000D01*
X149660965Y-57646387D01*
X149615578Y-57601000D01*
X149598965Y-57539000D01*
X149615578Y-57477000D01*
X149662179Y-57396284D01*
X149683285Y-57331327D01*
X149720674Y-57216256D01*
X149740460Y-57028000D01*
X149720674Y-56839744D01*
X149690332Y-56746363D01*
X149662179Y-56659715D01*
X149567533Y-56495783D01*
X149440870Y-56355110D01*
X149287730Y-56243848D01*
X149114802Y-56166855D01*
X148929648Y-56127500D01*
X148929646Y-56127500D01*
X148740354Y-56127500D01*
X148740352Y-56127500D01*
X148555197Y-56166855D01*
X148382272Y-56243846D01*
X148243504Y-56344667D01*
X148186159Y-56367370D01*
X148124971Y-56359640D01*
X148075075Y-56323388D01*
X148048815Y-56267582D01*
X148052687Y-56206034D01*
X148069674Y-56153756D01*
X148089460Y-55965500D01*
X148069674Y-55777244D01*
X148014959Y-55608849D01*
X148011179Y-55597215D01*
X147916535Y-55433286D01*
X147895642Y-55410082D01*
X147789871Y-55292612D01*
X147789867Y-55292609D01*
X147784342Y-55286473D01*
X147756175Y-55233499D01*
X147756175Y-55173501D01*
X147784342Y-55120527D01*
X147789867Y-55114390D01*
X147789871Y-55114388D01*
X147916533Y-54973716D01*
X148011179Y-54809784D01*
X148069674Y-54629756D01*
X148089460Y-54441500D01*
X148069674Y-54253244D01*
X148011179Y-54073216D01*
X148011179Y-54073215D01*
X147916533Y-53909283D01*
X147789870Y-53768610D01*
X147636730Y-53657348D01*
X147463802Y-53580355D01*
X147278648Y-53541000D01*
X147278646Y-53541000D01*
X147089354Y-53541000D01*
X147089352Y-53541000D01*
X146904201Y-53580354D01*
X146726436Y-53659501D01*
X146676000Y-53670221D01*
X146625564Y-53659501D01*
X146530205Y-53617044D01*
X146447803Y-53580356D01*
X146447802Y-53580355D01*
X146447798Y-53580354D01*
X146262648Y-53541000D01*
X146262646Y-53541000D01*
X146073354Y-53541000D01*
X146073352Y-53541000D01*
X145888201Y-53580354D01*
X145710436Y-53659501D01*
X145660000Y-53670221D01*
X145609564Y-53659501D01*
X145514205Y-53617044D01*
X145431803Y-53580356D01*
X145431802Y-53580355D01*
X145431798Y-53580354D01*
X145246648Y-53541000D01*
X145246646Y-53541000D01*
X145057354Y-53541000D01*
X145057352Y-53541000D01*
X144872197Y-53580355D01*
X144699269Y-53657348D01*
X144546129Y-53768610D01*
X144419466Y-53909283D01*
X144324820Y-54073215D01*
X144266326Y-54253242D01*
X144246540Y-54441500D01*
X144266326Y-54629757D01*
X144324820Y-54809784D01*
X144419466Y-54973716D01*
X144546129Y-55114389D01*
X144699269Y-55225651D01*
X144872197Y-55302644D01*
X145057352Y-55342000D01*
X145057354Y-55342000D01*
X145246646Y-55342000D01*
X145246648Y-55342000D01*
X145370083Y-55315762D01*
X145431803Y-55302644D01*
X145543755Y-55252798D01*
X145609564Y-55223499D01*
X145660000Y-55212778D01*
X145710436Y-55223499D01*
X145888197Y-55302644D01*
X146073352Y-55342000D01*
X146073354Y-55342000D01*
X146262642Y-55342000D01*
X146262646Y-55342000D01*
X146265529Y-55341387D01*
X146322145Y-55342570D01*
X146372334Y-55368806D01*
X146405623Y-55414621D01*
X146415068Y-55470459D01*
X146398701Y-55524675D01*
X146356820Y-55597216D01*
X146298326Y-55777242D01*
X146278540Y-55965499D01*
X146298326Y-56153757D01*
X146356820Y-56333784D01*
X146451466Y-56497716D01*
X146578129Y-56638389D01*
X146731269Y-56749651D01*
X146904197Y-56826644D01*
X147089352Y-56866000D01*
X147089354Y-56866000D01*
X147278646Y-56866000D01*
X147278648Y-56866000D01*
X147402191Y-56839740D01*
X147463803Y-56826644D01*
X147636730Y-56749651D01*
X147775495Y-56648832D01*
X147832838Y-56626129D01*
X147894027Y-56633859D01*
X147943923Y-56670110D01*
X147970183Y-56725915D01*
X147966311Y-56787468D01*
X147949326Y-56839740D01*
X147929540Y-57028000D01*
X147949326Y-57216257D01*
X148007820Y-57396284D01*
X148054422Y-57477000D01*
X148071035Y-57539000D01*
X148054422Y-57601000D01*
X148009035Y-57646387D01*
X147947035Y-57663000D01*
X132576000Y-57663000D01*
X132514000Y-57646387D01*
X132468613Y-57601000D01*
X132452000Y-57539000D01*
X132452000Y-56393000D01*
X132816540Y-56393000D01*
X132836326Y-56581257D01*
X132894820Y-56761284D01*
X132989466Y-56925216D01*
X133116129Y-57065889D01*
X133269269Y-57177151D01*
X133442197Y-57254144D01*
X133627352Y-57293500D01*
X133627354Y-57293500D01*
X133816646Y-57293500D01*
X133816648Y-57293500D01*
X133940083Y-57267262D01*
X134001803Y-57254144D01*
X134174730Y-57177151D01*
X134267159Y-57109998D01*
X134284115Y-57097679D01*
X134331219Y-57076707D01*
X134382781Y-57076707D01*
X134429885Y-57097679D01*
X134539269Y-57177151D01*
X134712197Y-57254144D01*
X134897352Y-57293500D01*
X134897354Y-57293500D01*
X135086646Y-57293500D01*
X135086648Y-57293500D01*
X135210083Y-57267262D01*
X135271803Y-57254144D01*
X135444730Y-57177151D01*
X135537159Y-57109998D01*
X135554115Y-57097679D01*
X135601219Y-57076707D01*
X135652781Y-57076707D01*
X135699885Y-57097679D01*
X135809269Y-57177151D01*
X135982197Y-57254144D01*
X136167352Y-57293500D01*
X136167354Y-57293500D01*
X136356646Y-57293500D01*
X136356648Y-57293500D01*
X136480083Y-57267262D01*
X136541803Y-57254144D01*
X136714730Y-57177151D01*
X136807159Y-57109998D01*
X136824115Y-57097679D01*
X136871219Y-57076707D01*
X136922781Y-57076707D01*
X136969885Y-57097679D01*
X137079269Y-57177151D01*
X137252197Y-57254144D01*
X137437352Y-57293500D01*
X137437354Y-57293500D01*
X137626646Y-57293500D01*
X137626648Y-57293500D01*
X137750083Y-57267262D01*
X137811803Y-57254144D01*
X137984730Y-57177151D01*
X138077159Y-57109998D01*
X138094115Y-57097679D01*
X138141219Y-57076707D01*
X138192781Y-57076707D01*
X138239885Y-57097679D01*
X138349269Y-57177151D01*
X138522197Y-57254144D01*
X138707352Y-57293500D01*
X138707354Y-57293500D01*
X138896646Y-57293500D01*
X138896648Y-57293500D01*
X139020083Y-57267262D01*
X139081803Y-57254144D01*
X139254730Y-57177151D01*
X139347159Y-57109998D01*
X139364115Y-57097679D01*
X139411219Y-57076707D01*
X139462781Y-57076707D01*
X139509885Y-57097679D01*
X139619269Y-57177151D01*
X139792197Y-57254144D01*
X139977352Y-57293500D01*
X139977354Y-57293500D01*
X140166646Y-57293500D01*
X140166648Y-57293500D01*
X140290083Y-57267262D01*
X140351803Y-57254144D01*
X140524730Y-57177151D01*
X140617159Y-57109998D01*
X140634115Y-57097679D01*
X140681219Y-57076707D01*
X140732781Y-57076707D01*
X140779885Y-57097679D01*
X140889269Y-57177151D01*
X141062197Y-57254144D01*
X141247352Y-57293500D01*
X141247354Y-57293500D01*
X141436646Y-57293500D01*
X141436648Y-57293500D01*
X141560083Y-57267262D01*
X141621803Y-57254144D01*
X141794730Y-57177151D01*
X141887159Y-57109998D01*
X141904115Y-57097679D01*
X141951219Y-57076707D01*
X142002781Y-57076707D01*
X142049885Y-57097679D01*
X142159269Y-57177151D01*
X142332197Y-57254144D01*
X142517352Y-57293500D01*
X142517354Y-57293500D01*
X142706646Y-57293500D01*
X142706648Y-57293500D01*
X142830083Y-57267262D01*
X142891803Y-57254144D01*
X143064730Y-57177151D01*
X143157159Y-57109998D01*
X143217870Y-57065889D01*
X143344533Y-56925216D01*
X143439179Y-56761284D01*
X143450671Y-56725915D01*
X143497674Y-56581256D01*
X143517460Y-56393000D01*
X143497674Y-56204744D01*
X143439179Y-56024716D01*
X143439179Y-56024715D01*
X143344533Y-55860783D01*
X143217870Y-55720110D01*
X143064730Y-55608848D01*
X142891802Y-55531855D01*
X142706648Y-55492500D01*
X142706646Y-55492500D01*
X142517354Y-55492500D01*
X142517352Y-55492500D01*
X142332197Y-55531855D01*
X142159269Y-55608848D01*
X142049885Y-55688321D01*
X142002781Y-55709293D01*
X141951219Y-55709293D01*
X141904115Y-55688321D01*
X141794730Y-55608848D01*
X141621802Y-55531855D01*
X141436648Y-55492500D01*
X141436646Y-55492500D01*
X141247354Y-55492500D01*
X141247352Y-55492500D01*
X141062197Y-55531855D01*
X140889269Y-55608848D01*
X140779885Y-55688321D01*
X140732781Y-55709293D01*
X140681219Y-55709293D01*
X140634115Y-55688321D01*
X140524730Y-55608848D01*
X140351802Y-55531855D01*
X140166648Y-55492500D01*
X140166646Y-55492500D01*
X139977354Y-55492500D01*
X139977352Y-55492500D01*
X139792197Y-55531855D01*
X139619269Y-55608848D01*
X139509885Y-55688321D01*
X139462781Y-55709293D01*
X139411219Y-55709293D01*
X139364115Y-55688321D01*
X139254730Y-55608848D01*
X139081802Y-55531855D01*
X138896648Y-55492500D01*
X138896646Y-55492500D01*
X138707354Y-55492500D01*
X138707352Y-55492500D01*
X138522197Y-55531855D01*
X138349269Y-55608848D01*
X138239885Y-55688321D01*
X138192781Y-55709293D01*
X138141219Y-55709293D01*
X138094115Y-55688321D01*
X137984730Y-55608848D01*
X137811802Y-55531855D01*
X137626648Y-55492500D01*
X137626646Y-55492500D01*
X137437354Y-55492500D01*
X137437352Y-55492500D01*
X137252197Y-55531855D01*
X137079269Y-55608848D01*
X136969885Y-55688321D01*
X136922781Y-55709293D01*
X136871219Y-55709293D01*
X136824115Y-55688321D01*
X136714730Y-55608848D01*
X136541802Y-55531855D01*
X136356648Y-55492500D01*
X136356646Y-55492500D01*
X136167354Y-55492500D01*
X136167352Y-55492500D01*
X135982197Y-55531855D01*
X135809269Y-55608848D01*
X135699885Y-55688321D01*
X135652781Y-55709293D01*
X135601219Y-55709293D01*
X135554115Y-55688321D01*
X135444730Y-55608848D01*
X135271802Y-55531855D01*
X135086648Y-55492500D01*
X135086646Y-55492500D01*
X134897354Y-55492500D01*
X134897352Y-55492500D01*
X134712197Y-55531855D01*
X134539269Y-55608848D01*
X134429885Y-55688321D01*
X134382781Y-55709293D01*
X134331219Y-55709293D01*
X134284115Y-55688321D01*
X134174730Y-55608848D01*
X134001802Y-55531855D01*
X133816648Y-55492500D01*
X133816646Y-55492500D01*
X133627354Y-55492500D01*
X133627352Y-55492500D01*
X133442197Y-55531855D01*
X133269269Y-55608848D01*
X133116129Y-55720110D01*
X132989466Y-55860783D01*
X132894820Y-56024715D01*
X132836326Y-56204742D01*
X132816540Y-56393000D01*
X132452000Y-56393000D01*
X132452000Y-51647499D01*
X143484540Y-51647499D01*
X143504326Y-51835757D01*
X143562820Y-52015784D01*
X143657466Y-52179716D01*
X143784129Y-52320389D01*
X143937269Y-52431651D01*
X144110197Y-52508644D01*
X144295352Y-52548000D01*
X144295354Y-52548000D01*
X144484646Y-52548000D01*
X144484648Y-52548000D01*
X144608084Y-52521762D01*
X144669803Y-52508644D01*
X144842730Y-52431651D01*
X144995871Y-52320388D01*
X145122533Y-52179716D01*
X145217179Y-52015784D01*
X145275674Y-51835756D01*
X145295460Y-51647500D01*
X145275674Y-51459244D01*
X145217179Y-51279216D01*
X145217179Y-51279215D01*
X145122533Y-51115283D01*
X144995870Y-50974610D01*
X144842730Y-50863348D01*
X144669802Y-50786355D01*
X144484648Y-50747000D01*
X144484646Y-50747000D01*
X144295354Y-50747000D01*
X144295352Y-50747000D01*
X144110197Y-50786355D01*
X143937269Y-50863348D01*
X143784129Y-50974610D01*
X143657466Y-51115283D01*
X143562820Y-51279215D01*
X143504326Y-51459242D01*
X143484540Y-51647499D01*
X132452000Y-51647499D01*
X132452000Y-49408000D01*
X149072540Y-49408000D01*
X149092326Y-49596257D01*
X149150820Y-49776284D01*
X149245466Y-49940216D01*
X149372129Y-50080889D01*
X149525269Y-50192151D01*
X149698197Y-50269144D01*
X149883352Y-50308500D01*
X149883354Y-50308500D01*
X150072646Y-50308500D01*
X150072648Y-50308500D01*
X150196083Y-50282262D01*
X150257803Y-50269144D01*
X150430730Y-50192151D01*
X150430729Y-50192151D01*
X150540115Y-50112679D01*
X150587219Y-50091707D01*
X150638781Y-50091707D01*
X150685885Y-50112679D01*
X150795269Y-50192151D01*
X150968197Y-50269144D01*
X151153352Y-50308500D01*
X151153354Y-50308500D01*
X151342646Y-50308500D01*
X151342648Y-50308500D01*
X151466083Y-50282262D01*
X151527803Y-50269144D01*
X151700730Y-50192151D01*
X151700729Y-50192151D01*
X151810115Y-50112679D01*
X151857219Y-50091707D01*
X151908781Y-50091707D01*
X151955885Y-50112679D01*
X152065269Y-50192151D01*
X152238197Y-50269144D01*
X152423352Y-50308500D01*
X152423354Y-50308500D01*
X152612646Y-50308500D01*
X152612648Y-50308500D01*
X152736083Y-50282262D01*
X152797803Y-50269144D01*
X152970730Y-50192151D01*
X152970729Y-50192151D01*
X153080115Y-50112679D01*
X153127219Y-50091707D01*
X153178781Y-50091707D01*
X153225885Y-50112679D01*
X153335269Y-50192151D01*
X153508197Y-50269144D01*
X153693352Y-50308500D01*
X153693354Y-50308500D01*
X153882646Y-50308500D01*
X153882648Y-50308500D01*
X154006083Y-50282262D01*
X154067803Y-50269144D01*
X154240730Y-50192151D01*
X154240729Y-50192151D01*
X154350115Y-50112679D01*
X154397219Y-50091707D01*
X154448781Y-50091707D01*
X154495885Y-50112679D01*
X154605269Y-50192151D01*
X154778197Y-50269144D01*
X154963352Y-50308500D01*
X154963354Y-50308500D01*
X155152646Y-50308500D01*
X155152648Y-50308500D01*
X155276083Y-50282262D01*
X155337803Y-50269144D01*
X155510730Y-50192151D01*
X155510729Y-50192151D01*
X155620115Y-50112679D01*
X155667219Y-50091707D01*
X155718781Y-50091707D01*
X155765885Y-50112679D01*
X155875269Y-50192151D01*
X156048197Y-50269144D01*
X156233352Y-50308500D01*
X156233354Y-50308500D01*
X156422646Y-50308500D01*
X156422648Y-50308500D01*
X156546083Y-50282262D01*
X156607803Y-50269144D01*
X156780730Y-50192151D01*
X156780729Y-50192151D01*
X156890115Y-50112679D01*
X156937219Y-50091707D01*
X156988781Y-50091707D01*
X157035885Y-50112679D01*
X157145269Y-50192151D01*
X157318197Y-50269144D01*
X157503352Y-50308500D01*
X157503354Y-50308500D01*
X157692646Y-50308500D01*
X157692648Y-50308500D01*
X157816083Y-50282262D01*
X157877803Y-50269144D01*
X158050730Y-50192151D01*
X158050729Y-50192151D01*
X158203870Y-50080889D01*
X158330533Y-49940216D01*
X158425179Y-49776284D01*
X158425179Y-49776283D01*
X158483674Y-49596256D01*
X158503460Y-49408000D01*
X158483674Y-49219744D01*
X158425179Y-49039716D01*
X158425179Y-49039715D01*
X158330533Y-48875783D01*
X158203870Y-48735110D01*
X158050730Y-48623848D01*
X157877802Y-48546855D01*
X157692648Y-48507500D01*
X157692646Y-48507500D01*
X157503354Y-48507500D01*
X157503352Y-48507500D01*
X157318197Y-48546855D01*
X157145269Y-48623848D01*
X157035885Y-48703321D01*
X156988781Y-48724293D01*
X156937219Y-48724293D01*
X156890115Y-48703321D01*
X156780730Y-48623848D01*
X156607802Y-48546855D01*
X156422648Y-48507500D01*
X156422646Y-48507500D01*
X156233354Y-48507500D01*
X156233352Y-48507500D01*
X156048197Y-48546855D01*
X155875269Y-48623848D01*
X155765885Y-48703321D01*
X155718781Y-48724293D01*
X155667219Y-48724293D01*
X155620115Y-48703321D01*
X155510730Y-48623848D01*
X155337802Y-48546855D01*
X155152648Y-48507500D01*
X155152646Y-48507500D01*
X154963354Y-48507500D01*
X154963352Y-48507500D01*
X154778197Y-48546855D01*
X154605269Y-48623848D01*
X154495885Y-48703321D01*
X154448781Y-48724293D01*
X154397219Y-48724293D01*
X154350115Y-48703321D01*
X154240730Y-48623848D01*
X154067802Y-48546855D01*
X153882648Y-48507500D01*
X153882646Y-48507500D01*
X153693354Y-48507500D01*
X153693352Y-48507500D01*
X153508197Y-48546855D01*
X153335269Y-48623848D01*
X153225885Y-48703321D01*
X153178781Y-48724293D01*
X153127219Y-48724293D01*
X153080115Y-48703321D01*
X152970730Y-48623848D01*
X152797802Y-48546855D01*
X152612648Y-48507500D01*
X152612646Y-48507500D01*
X152423354Y-48507500D01*
X152423352Y-48507500D01*
X152238197Y-48546855D01*
X152065269Y-48623848D01*
X151955885Y-48703321D01*
X151908781Y-48724293D01*
X151857219Y-48724293D01*
X151810115Y-48703321D01*
X151700730Y-48623848D01*
X151527802Y-48546855D01*
X151342648Y-48507500D01*
X151342646Y-48507500D01*
X151153354Y-48507500D01*
X151153352Y-48507500D01*
X150968197Y-48546855D01*
X150795269Y-48623848D01*
X150685885Y-48703321D01*
X150638781Y-48724293D01*
X150587219Y-48724293D01*
X150540115Y-48703321D01*
X150430730Y-48623848D01*
X150257802Y-48546855D01*
X150072648Y-48507500D01*
X150072646Y-48507500D01*
X149883354Y-48507500D01*
X149883352Y-48507500D01*
X149698197Y-48546855D01*
X149525269Y-48623848D01*
X149372129Y-48735110D01*
X149245466Y-48875783D01*
X149150820Y-49039715D01*
X149092326Y-49219742D01*
X149072540Y-49408000D01*
X132452000Y-49408000D01*
X132452000Y-46232999D01*
X150342540Y-46232999D01*
X150362326Y-46421257D01*
X150420820Y-46601284D01*
X150515466Y-46765216D01*
X150642129Y-46905889D01*
X150795269Y-47017151D01*
X150968197Y-47094144D01*
X151153352Y-47133500D01*
X151153354Y-47133500D01*
X151342646Y-47133500D01*
X151342648Y-47133500D01*
X151466084Y-47107262D01*
X151527803Y-47094144D01*
X151700730Y-47017151D01*
X151700729Y-47017151D01*
X151810115Y-46937679D01*
X151857219Y-46916707D01*
X151908781Y-46916707D01*
X151955885Y-46937679D01*
X152065269Y-47017151D01*
X152238197Y-47094144D01*
X152423352Y-47133500D01*
X152423354Y-47133500D01*
X152612646Y-47133500D01*
X152612648Y-47133500D01*
X152736084Y-47107262D01*
X152797803Y-47094144D01*
X152970730Y-47017151D01*
X152970729Y-47017151D01*
X153080115Y-46937679D01*
X153127219Y-46916707D01*
X153178781Y-46916707D01*
X153225885Y-46937679D01*
X153335269Y-47017151D01*
X153508197Y-47094144D01*
X153693352Y-47133500D01*
X153693354Y-47133500D01*
X153882646Y-47133500D01*
X153882648Y-47133500D01*
X154006084Y-47107262D01*
X154067803Y-47094144D01*
X154240730Y-47017151D01*
X154240729Y-47017151D01*
X154350115Y-46937679D01*
X154397219Y-46916707D01*
X154448781Y-46916707D01*
X154495885Y-46937679D01*
X154605269Y-47017151D01*
X154778197Y-47094144D01*
X154963352Y-47133500D01*
X154963354Y-47133500D01*
X155152646Y-47133500D01*
X155152648Y-47133500D01*
X155276084Y-47107262D01*
X155337803Y-47094144D01*
X155510730Y-47017151D01*
X155510729Y-47017151D01*
X155620115Y-46937679D01*
X155667219Y-46916707D01*
X155718781Y-46916707D01*
X155765885Y-46937679D01*
X155875269Y-47017151D01*
X156048197Y-47094144D01*
X156233352Y-47133500D01*
X156233354Y-47133500D01*
X156422646Y-47133500D01*
X156422648Y-47133500D01*
X156546084Y-47107262D01*
X156607803Y-47094144D01*
X156780730Y-47017151D01*
X156780730Y-47017150D01*
X156933870Y-46905889D01*
X157060533Y-46765216D01*
X157155179Y-46601284D01*
X157155178Y-46601284D01*
X157213674Y-46421256D01*
X157233460Y-46233000D01*
X157213674Y-46044744D01*
X157155179Y-45864716D01*
X157155179Y-45864715D01*
X157060533Y-45700783D01*
X156933870Y-45560110D01*
X156780730Y-45448848D01*
X156607802Y-45371855D01*
X156422648Y-45332500D01*
X156422646Y-45332500D01*
X156233354Y-45332500D01*
X156233352Y-45332500D01*
X156048197Y-45371855D01*
X155875269Y-45448848D01*
X155765885Y-45528321D01*
X155718781Y-45549293D01*
X155667219Y-45549293D01*
X155620115Y-45528321D01*
X155510730Y-45448848D01*
X155337802Y-45371855D01*
X155152648Y-45332500D01*
X155152646Y-45332500D01*
X154963354Y-45332500D01*
X154963352Y-45332500D01*
X154778197Y-45371855D01*
X154605269Y-45448848D01*
X154495885Y-45528321D01*
X154448781Y-45549293D01*
X154397219Y-45549293D01*
X154350115Y-45528321D01*
X154240730Y-45448848D01*
X154067802Y-45371855D01*
X153882648Y-45332500D01*
X153882646Y-45332500D01*
X153693354Y-45332500D01*
X153693352Y-45332500D01*
X153508197Y-45371855D01*
X153335269Y-45448848D01*
X153225885Y-45528321D01*
X153178781Y-45549293D01*
X153127219Y-45549293D01*
X153080115Y-45528321D01*
X152970730Y-45448848D01*
X152797802Y-45371855D01*
X152612648Y-45332500D01*
X152612646Y-45332500D01*
X152423354Y-45332500D01*
X152423352Y-45332500D01*
X152238197Y-45371855D01*
X152065269Y-45448848D01*
X151955885Y-45528321D01*
X151908781Y-45549293D01*
X151857219Y-45549293D01*
X151810115Y-45528321D01*
X151700730Y-45448848D01*
X151527802Y-45371855D01*
X151342648Y-45332500D01*
X151342646Y-45332500D01*
X151153354Y-45332500D01*
X151153352Y-45332500D01*
X150968197Y-45371855D01*
X150795269Y-45448848D01*
X150642129Y-45560110D01*
X150515466Y-45700783D01*
X150420820Y-45864715D01*
X150362326Y-46044742D01*
X150342540Y-46232999D01*
X132452000Y-46232999D01*
X132452000Y-44963000D01*
X123545780Y-44963000D01*
X123490672Y-44950081D01*
X123447046Y-44914018D01*
X123423993Y-44862323D01*
X123426316Y-44805768D01*
X123453531Y-44756138D01*
X123546384Y-44652766D01*
X123549362Y-44649567D01*
X124302373Y-43869182D01*
X124305398Y-43866157D01*
X125085782Y-43113147D01*
X125088941Y-43110204D01*
X125147058Y-43058000D01*
X149072540Y-43058000D01*
X149092326Y-43246257D01*
X149150820Y-43426284D01*
X149245466Y-43590216D01*
X149372129Y-43730889D01*
X149525269Y-43842151D01*
X149698197Y-43919144D01*
X149883352Y-43958500D01*
X149883354Y-43958500D01*
X150072646Y-43958500D01*
X150072648Y-43958500D01*
X150196084Y-43932262D01*
X150257803Y-43919144D01*
X150430730Y-43842151D01*
X150430729Y-43842151D01*
X150540115Y-43762679D01*
X150587219Y-43741707D01*
X150638781Y-43741707D01*
X150685885Y-43762679D01*
X150795269Y-43842151D01*
X150968197Y-43919144D01*
X151153352Y-43958500D01*
X151153354Y-43958500D01*
X151342646Y-43958500D01*
X151342648Y-43958500D01*
X151466084Y-43932262D01*
X151527803Y-43919144D01*
X151700730Y-43842151D01*
X151700729Y-43842151D01*
X151810115Y-43762679D01*
X151857219Y-43741707D01*
X151908781Y-43741707D01*
X151955885Y-43762679D01*
X152065269Y-43842151D01*
X152238197Y-43919144D01*
X152423352Y-43958500D01*
X152423354Y-43958500D01*
X152612646Y-43958500D01*
X152612648Y-43958500D01*
X152736084Y-43932262D01*
X152797803Y-43919144D01*
X152970730Y-43842151D01*
X152970729Y-43842151D01*
X153080115Y-43762679D01*
X153127219Y-43741707D01*
X153178781Y-43741707D01*
X153225885Y-43762679D01*
X153335269Y-43842151D01*
X153508197Y-43919144D01*
X153693352Y-43958500D01*
X153693354Y-43958500D01*
X153882646Y-43958500D01*
X153882648Y-43958500D01*
X154006084Y-43932262D01*
X154067803Y-43919144D01*
X154240730Y-43842151D01*
X154240729Y-43842151D01*
X154350115Y-43762679D01*
X154397219Y-43741707D01*
X154448781Y-43741707D01*
X154495885Y-43762679D01*
X154605269Y-43842151D01*
X154778197Y-43919144D01*
X154963352Y-43958500D01*
X154963354Y-43958500D01*
X155152646Y-43958500D01*
X155152648Y-43958500D01*
X155276084Y-43932262D01*
X155337803Y-43919144D01*
X155510730Y-43842151D01*
X155510729Y-43842151D01*
X155620115Y-43762679D01*
X155667219Y-43741707D01*
X155718781Y-43741707D01*
X155765885Y-43762679D01*
X155875269Y-43842151D01*
X156048197Y-43919144D01*
X156233352Y-43958500D01*
X156233354Y-43958500D01*
X156422646Y-43958500D01*
X156422648Y-43958500D01*
X156546084Y-43932262D01*
X156607803Y-43919144D01*
X156780730Y-43842151D01*
X156780729Y-43842151D01*
X156890115Y-43762679D01*
X156937219Y-43741707D01*
X156988781Y-43741707D01*
X157035885Y-43762679D01*
X157145269Y-43842151D01*
X157318197Y-43919144D01*
X157503352Y-43958500D01*
X157503354Y-43958500D01*
X157692646Y-43958500D01*
X157692648Y-43958500D01*
X157816084Y-43932262D01*
X157877803Y-43919144D01*
X158050730Y-43842151D01*
X158050729Y-43842151D01*
X158203870Y-43730889D01*
X158330533Y-43590216D01*
X158425179Y-43426284D01*
X158425179Y-43426283D01*
X158483674Y-43246256D01*
X158503460Y-43058000D01*
X158483674Y-42869744D01*
X158425179Y-42689716D01*
X158425179Y-42689715D01*
X158330533Y-42525783D01*
X158203870Y-42385110D01*
X158050730Y-42273848D01*
X157877802Y-42196855D01*
X157692648Y-42157500D01*
X157692646Y-42157500D01*
X157503354Y-42157500D01*
X157503352Y-42157500D01*
X157318197Y-42196855D01*
X157145269Y-42273848D01*
X157035885Y-42353321D01*
X156988781Y-42374293D01*
X156937219Y-42374293D01*
X156890115Y-42353321D01*
X156780730Y-42273848D01*
X156607802Y-42196855D01*
X156422648Y-42157500D01*
X156422646Y-42157500D01*
X156233354Y-42157500D01*
X156233352Y-42157500D01*
X156048197Y-42196855D01*
X155875269Y-42273848D01*
X155765885Y-42353321D01*
X155718781Y-42374293D01*
X155667219Y-42374293D01*
X155620115Y-42353321D01*
X155510730Y-42273848D01*
X155337802Y-42196855D01*
X155152648Y-42157500D01*
X155152646Y-42157500D01*
X154963354Y-42157500D01*
X154963352Y-42157500D01*
X154778197Y-42196855D01*
X154605269Y-42273848D01*
X154495885Y-42353321D01*
X154448781Y-42374293D01*
X154397219Y-42374293D01*
X154350115Y-42353321D01*
X154240730Y-42273848D01*
X154067802Y-42196855D01*
X153882648Y-42157500D01*
X153882646Y-42157500D01*
X153693354Y-42157500D01*
X153693352Y-42157500D01*
X153508197Y-42196855D01*
X153335269Y-42273848D01*
X153225885Y-42353321D01*
X153178781Y-42374293D01*
X153127219Y-42374293D01*
X153080115Y-42353321D01*
X152970730Y-42273848D01*
X152797802Y-42196855D01*
X152612648Y-42157500D01*
X152612646Y-42157500D01*
X152423354Y-42157500D01*
X152423352Y-42157500D01*
X152238197Y-42196855D01*
X152065269Y-42273848D01*
X151955885Y-42353321D01*
X151908781Y-42374293D01*
X151857219Y-42374293D01*
X151810115Y-42353321D01*
X151700730Y-42273848D01*
X151527802Y-42196855D01*
X151342648Y-42157500D01*
X151342646Y-42157500D01*
X151153354Y-42157500D01*
X151153352Y-42157500D01*
X150968197Y-42196855D01*
X150795269Y-42273848D01*
X150685885Y-42353321D01*
X150638781Y-42374293D01*
X150587219Y-42374293D01*
X150540115Y-42353321D01*
X150430730Y-42273848D01*
X150257802Y-42196855D01*
X150072648Y-42157500D01*
X150072646Y-42157500D01*
X149883354Y-42157500D01*
X149883352Y-42157500D01*
X149698197Y-42196855D01*
X149525269Y-42273848D01*
X149372129Y-42385110D01*
X149245466Y-42525783D01*
X149150820Y-42689715D01*
X149092326Y-42869742D01*
X149072540Y-43058000D01*
X125147058Y-43058000D01*
X125895759Y-42385479D01*
X125899006Y-42382666D01*
X126731109Y-41687256D01*
X126734473Y-41684545D01*
X127590858Y-41019285D01*
X127594348Y-41016672D01*
X128473953Y-40382387D01*
X128477523Y-40379909D01*
X129138265Y-39938414D01*
X129197234Y-39917915D01*
X129258718Y-39928746D01*
X129307131Y-39968162D01*
X129505542Y-40238576D01*
X129792423Y-40561224D01*
X130108263Y-40855596D01*
X130450270Y-41119090D01*
X130450274Y-41119093D01*
X130815459Y-41349408D01*
X131200606Y-41544514D01*
X131602331Y-41702697D01*
X132017103Y-41822567D01*
X132441278Y-41903071D01*
X132771532Y-41934132D01*
X132871125Y-41943500D01*
X132871127Y-41943500D01*
X133194871Y-41943500D01*
X133194877Y-41943500D01*
X133518272Y-41928325D01*
X133945753Y-41867792D01*
X134365688Y-41767495D01*
X134774386Y-41628316D01*
X135168255Y-41451477D01*
X135348278Y-41349408D01*
X135543835Y-41238532D01*
X135720827Y-41114942D01*
X135897822Y-40991353D01*
X136227108Y-40712113D01*
X136528799Y-40403265D01*
X136800244Y-40067523D01*
X137039056Y-39707837D01*
X137243137Y-39327370D01*
X137410695Y-38929463D01*
X137540255Y-38517615D01*
X137630680Y-38095445D01*
X137681175Y-37666661D01*
X137691296Y-37235034D01*
X137676100Y-37019337D01*
X137660956Y-36804361D01*
X137625549Y-36590555D01*
X137590417Y-36378410D01*
X137549356Y-36222736D01*
X137549500Y-36158947D01*
X137581340Y-36103668D01*
X137636446Y-36071534D01*
X138325459Y-35882512D01*
X138329669Y-35881439D01*
X139385014Y-35632054D01*
X139389259Y-35631130D01*
X140452827Y-35419573D01*
X140457137Y-35418796D01*
X141527604Y-35245331D01*
X141531870Y-35244718D01*
X142607839Y-35109572D01*
X142612205Y-35109102D01*
X143692293Y-35012448D01*
X143696605Y-35012139D01*
X144779481Y-34954095D01*
X144783849Y-34953939D01*
X145868077Y-34934585D01*
X145872447Y-34934585D01*
X146956672Y-34953939D01*
G37*
%TD.AperFunction*%
%TD*%
%TA.AperFunction,Conductor*%
%TO.N,A*%
G36*
X169029184Y-45609670D02*
G01*
X169071814Y-45642482D01*
X169565325Y-46233000D01*
X169617017Y-46294852D01*
X169619795Y-46298299D01*
X170285001Y-47154615D01*
X170287654Y-47158158D01*
X170921897Y-48037705D01*
X170924421Y-48041341D01*
X171526847Y-48942935D01*
X171529240Y-48946659D01*
X171697931Y-49219744D01*
X171930510Y-49596256D01*
X172099100Y-49869177D01*
X172101359Y-49872984D01*
X172637928Y-50815254D01*
X172640050Y-50819139D01*
X173142668Y-51779999D01*
X173144649Y-51783958D01*
X173612623Y-52762090D01*
X173614462Y-52766116D01*
X174047243Y-53760366D01*
X174048937Y-53764456D01*
X174445947Y-54773497D01*
X174447494Y-54777644D01*
X174808240Y-55800225D01*
X174809638Y-55804425D01*
X175133656Y-56839232D01*
X175134903Y-56843479D01*
X175421784Y-57889204D01*
X175422878Y-57893493D01*
X175672244Y-58948758D01*
X175673185Y-58953084D01*
X175884729Y-60016588D01*
X175885515Y-60020944D01*
X176004534Y-60755420D01*
X176053875Y-61059910D01*
X176058967Y-61091330D01*
X176059597Y-61095712D01*
X176194733Y-62171606D01*
X176195206Y-62176007D01*
X176266506Y-62972757D01*
X176267000Y-62983809D01*
X176267000Y-67880872D01*
X176266536Y-67891595D01*
X176205480Y-68595026D01*
X176205034Y-68599297D01*
X176077841Y-69643480D01*
X176077248Y-69647733D01*
X175949572Y-70460339D01*
X175929091Y-70511581D01*
X175888406Y-70548863D01*
X175835574Y-70564800D01*
X175781059Y-70556238D01*
X175701007Y-70524246D01*
X175640801Y-70508650D01*
X175514049Y-70492500D01*
X175514045Y-70492500D01*
X174871749Y-70492500D01*
X174807514Y-70474565D01*
X174761860Y-70425949D01*
X174747994Y-70360715D01*
X174769926Y-70297732D01*
X174805810Y-70268046D01*
X174804187Y-70265812D01*
X174967870Y-70146889D01*
X174983489Y-70129543D01*
X175094533Y-70006216D01*
X175189179Y-69842284D01*
X175247674Y-69662256D01*
X175267460Y-69474000D01*
X175247674Y-69285744D01*
X175189534Y-69106808D01*
X175189179Y-69105715D01*
X175094533Y-68941783D01*
X174967870Y-68801110D01*
X174814730Y-68689848D01*
X174641802Y-68612855D01*
X174456648Y-68573500D01*
X174456646Y-68573500D01*
X174267354Y-68573500D01*
X174267352Y-68573500D01*
X174082197Y-68612855D01*
X173909269Y-68689848D01*
X173756129Y-68801110D01*
X173629466Y-68941783D01*
X173534820Y-69105715D01*
X173476326Y-69285742D01*
X173456540Y-69474000D01*
X173476326Y-69662257D01*
X173534820Y-69842284D01*
X173629466Y-70006216D01*
X173756129Y-70146889D01*
X173919813Y-70265812D01*
X173918189Y-70268046D01*
X173954074Y-70297732D01*
X173976006Y-70360715D01*
X173962140Y-70425949D01*
X173916486Y-70474565D01*
X173852251Y-70492500D01*
X171316018Y-70492500D01*
X171251784Y-70474566D01*
X171206130Y-70425951D01*
X171192262Y-70360718D01*
X171214192Y-70297736D01*
X171248050Y-70269722D01*
X171246003Y-70266904D01*
X171409686Y-70147981D01*
X171536349Y-70007308D01*
X171630995Y-69843376D01*
X171631350Y-69842284D01*
X171689490Y-69663348D01*
X171709276Y-69475092D01*
X171689490Y-69286836D01*
X171630995Y-69106808D01*
X171630995Y-69106807D01*
X171536349Y-68942875D01*
X171409686Y-68802202D01*
X171256546Y-68690940D01*
X171083618Y-68613947D01*
X170898464Y-68574592D01*
X170898462Y-68574592D01*
X170709170Y-68574592D01*
X170709168Y-68574592D01*
X170524013Y-68613947D01*
X170351085Y-68690940D01*
X170197945Y-68802202D01*
X170071282Y-68942875D01*
X169976636Y-69106807D01*
X169918142Y-69286834D01*
X169898356Y-69475092D01*
X169918142Y-69663349D01*
X169976636Y-69843376D01*
X170071282Y-70007308D01*
X170197945Y-70147981D01*
X170361629Y-70266904D01*
X170359581Y-70269722D01*
X170393440Y-70297736D01*
X170415370Y-70360718D01*
X170401502Y-70425951D01*
X170355848Y-70474566D01*
X170291614Y-70492500D01*
X161150999Y-70492500D01*
X161020169Y-70509724D01*
X160958161Y-70526339D01*
X160836250Y-70576836D01*
X160731557Y-70657170D01*
X160686170Y-70702557D01*
X160605836Y-70807250D01*
X160555339Y-70929161D01*
X160538724Y-70991169D01*
X160524714Y-71097587D01*
X160521500Y-71122000D01*
X160521500Y-74299999D01*
X160521500Y-83574000D01*
X160536418Y-83687316D01*
X160525862Y-83755904D01*
X160480105Y-83808080D01*
X160413480Y-83827500D01*
X156576500Y-83827500D01*
X156514500Y-83810887D01*
X156469113Y-83765500D01*
X156452500Y-83703500D01*
X156452500Y-81416939D01*
X156436946Y-81292511D01*
X156421921Y-81233350D01*
X156421920Y-81233348D01*
X156421919Y-81233343D01*
X156376214Y-81116569D01*
X156303172Y-81014640D01*
X156303170Y-81014637D01*
X156303168Y-81014635D01*
X156261735Y-80969814D01*
X156165849Y-80888999D01*
X156053031Y-80834278D01*
X156053028Y-80834277D01*
X156053026Y-80834276D01*
X156024122Y-80824464D01*
X155995215Y-80814651D01*
X155872391Y-80789382D01*
X155753138Y-80794850D01*
X155747117Y-80795127D01*
X155686952Y-80805466D01*
X155686948Y-80805467D01*
X155686949Y-80805467D01*
X155566957Y-80841867D01*
X155446641Y-80895434D01*
X155421991Y-80903444D01*
X155389641Y-80910320D01*
X155366262Y-80915290D01*
X155340482Y-80918000D01*
X155283516Y-80918000D01*
X155257737Y-80915290D01*
X155219635Y-80907191D01*
X155202010Y-80903445D01*
X155177358Y-80895435D01*
X155162907Y-80889001D01*
X155125313Y-80872263D01*
X155102868Y-80859304D01*
X155056779Y-80825818D01*
X155037515Y-80808473D01*
X154999397Y-80766139D01*
X154984160Y-80745166D01*
X154955676Y-80695830D01*
X154945133Y-80672153D01*
X154927529Y-80617972D01*
X154922140Y-80592617D01*
X154916186Y-80535959D01*
X154916186Y-80510039D01*
X154922141Y-80453379D01*
X154927528Y-80428031D01*
X154945136Y-80373838D01*
X154955672Y-80350172D01*
X155006496Y-80262142D01*
X155012279Y-80253066D01*
X155043634Y-80208291D01*
X155071801Y-80155317D01*
X155115956Y-80040290D01*
X155130972Y-79917998D01*
X155130972Y-79858002D01*
X155115956Y-79735710D01*
X155071801Y-79620683D01*
X155043636Y-79567712D01*
X155043634Y-79567708D01*
X155012289Y-79522943D01*
X155006477Y-79513820D01*
X154955677Y-79425832D01*
X154945133Y-79402151D01*
X154927530Y-79347976D01*
X154922140Y-79322616D01*
X154916186Y-79265957D01*
X154916186Y-79240039D01*
X154922141Y-79183374D01*
X154927531Y-79158019D01*
X154945135Y-79103843D01*
X154955672Y-79080173D01*
X155006493Y-78992147D01*
X155012277Y-78983069D01*
X155043643Y-78938275D01*
X155071808Y-78885301D01*
X155115959Y-78770276D01*
X155130972Y-78647987D01*
X155130971Y-78587991D01*
X155115954Y-78465701D01*
X155071798Y-78350676D01*
X155071797Y-78350673D01*
X155043630Y-78297700D01*
X155012282Y-78252931D01*
X155006469Y-78243807D01*
X154970548Y-78181591D01*
X154955676Y-78155831D01*
X154945133Y-78132152D01*
X154927530Y-78077977D01*
X154922140Y-78052617D01*
X154916186Y-77995958D01*
X154916186Y-77970040D01*
X154916840Y-77963810D01*
X154922141Y-77913375D01*
X154927530Y-77888022D01*
X154945135Y-77833840D01*
X154955672Y-77810173D01*
X155006482Y-77722166D01*
X155012287Y-77713055D01*
X155043634Y-77668291D01*
X155071801Y-77615317D01*
X155115956Y-77500290D01*
X155130972Y-77377998D01*
X155130972Y-77318002D01*
X155115956Y-77195710D01*
X155071801Y-77080683D01*
X155043636Y-77027712D01*
X155043634Y-77027708D01*
X155012289Y-76982943D01*
X155006477Y-76973820D01*
X154955677Y-76885832D01*
X154945133Y-76862151D01*
X154927530Y-76807976D01*
X154922140Y-76782616D01*
X154916186Y-76725957D01*
X154916186Y-76700039D01*
X154922141Y-76643374D01*
X154927531Y-76618019D01*
X154945135Y-76563843D01*
X154955672Y-76540173D01*
X155006493Y-76452147D01*
X155012277Y-76443069D01*
X155043643Y-76398275D01*
X155071808Y-76345301D01*
X155115959Y-76230276D01*
X155130972Y-76107987D01*
X155130971Y-76047991D01*
X155115954Y-75925701D01*
X155071798Y-75810676D01*
X155071797Y-75810673D01*
X155043630Y-75757700D01*
X155012282Y-75712931D01*
X155006469Y-75703807D01*
X154970548Y-75641591D01*
X154955676Y-75615831D01*
X154945133Y-75592152D01*
X154927530Y-75537977D01*
X154922140Y-75512617D01*
X154916186Y-75455958D01*
X154916186Y-75430040D01*
X154916840Y-75423810D01*
X154922141Y-75373375D01*
X154927530Y-75348022D01*
X154945135Y-75293840D01*
X154955672Y-75270173D01*
X155006482Y-75182166D01*
X155012287Y-75173055D01*
X155043634Y-75128291D01*
X155071801Y-75075317D01*
X155115956Y-74960290D01*
X155130972Y-74837998D01*
X155130972Y-74778002D01*
X155115956Y-74655710D01*
X155071801Y-74540683D01*
X155043636Y-74487712D01*
X155043634Y-74487708D01*
X155012289Y-74442943D01*
X155006477Y-74433820D01*
X154955677Y-74345832D01*
X154945134Y-74322152D01*
X154927531Y-74267978D01*
X154922140Y-74242617D01*
X154916186Y-74185958D01*
X154916186Y-74160040D01*
X154919425Y-74129217D01*
X154922141Y-74103375D01*
X154927530Y-74078022D01*
X154945135Y-74023840D01*
X154955672Y-74000173D01*
X155006482Y-73912166D01*
X155012287Y-73903055D01*
X155043634Y-73858291D01*
X155071801Y-73805317D01*
X155115956Y-73690290D01*
X155130972Y-73567998D01*
X155130972Y-73508002D01*
X155115956Y-73385710D01*
X155071801Y-73270683D01*
X155043636Y-73217712D01*
X155043634Y-73217708D01*
X155012289Y-73172943D01*
X155006477Y-73163820D01*
X154955677Y-73075832D01*
X154945134Y-73052152D01*
X154927531Y-72997978D01*
X154922140Y-72972617D01*
X154916186Y-72915958D01*
X154916186Y-72890040D01*
X154916840Y-72883810D01*
X154922141Y-72833375D01*
X154927530Y-72808022D01*
X154945135Y-72753840D01*
X154955672Y-72730173D01*
X155006482Y-72642166D01*
X155012287Y-72633055D01*
X155043634Y-72588291D01*
X155043633Y-72588291D01*
X155047987Y-72582075D01*
X155048587Y-72582495D01*
X155077860Y-72548014D01*
X155125872Y-72525624D01*
X155178848Y-72525315D01*
X155217354Y-72533500D01*
X155406646Y-72533500D01*
X155406648Y-72533500D01*
X155530083Y-72507262D01*
X155591803Y-72494144D01*
X155764730Y-72417151D01*
X155917871Y-72305888D01*
X156044533Y-72165216D01*
X156139179Y-72001284D01*
X156197674Y-71821256D01*
X156217460Y-71633000D01*
X156197674Y-71444744D01*
X156171279Y-71363511D01*
X156165615Y-71315196D01*
X156178973Y-71268417D01*
X156209296Y-71230382D01*
X156261734Y-71186187D01*
X156303172Y-71141360D01*
X156376214Y-71039431D01*
X156421919Y-70922657D01*
X156436946Y-70863489D01*
X156450020Y-70758897D01*
X156452500Y-70739061D01*
X156452500Y-58422000D01*
X156469113Y-58360000D01*
X156514500Y-58314613D01*
X156576500Y-58298000D01*
X158104890Y-58298000D01*
X158163105Y-58312515D01*
X158207691Y-58352660D01*
X158228210Y-58409036D01*
X158229573Y-58422000D01*
X158236326Y-58486257D01*
X158294820Y-58666284D01*
X158389466Y-58830216D01*
X158407305Y-58850028D01*
X158435472Y-58903002D01*
X158435472Y-58962998D01*
X158407305Y-59015972D01*
X158389466Y-59035783D01*
X158294820Y-59199715D01*
X158236326Y-59379742D01*
X158225219Y-59485420D01*
X158216540Y-59568000D01*
X158226432Y-59662127D01*
X158236326Y-59756257D01*
X158294820Y-59936284D01*
X158389466Y-60100216D01*
X158407305Y-60120028D01*
X158435472Y-60173002D01*
X158435472Y-60232998D01*
X158407305Y-60285972D01*
X158389466Y-60305783D01*
X158294820Y-60469715D01*
X158236326Y-60649742D01*
X158216540Y-60838000D01*
X158236326Y-61026257D01*
X158294820Y-61206284D01*
X158389466Y-61370215D01*
X158407304Y-61390026D01*
X158435471Y-61442999D01*
X158435472Y-61502995D01*
X158407307Y-61555969D01*
X158389466Y-61575783D01*
X158294820Y-61739715D01*
X158236326Y-61919742D01*
X158220493Y-62070388D01*
X158216540Y-62108000D01*
X158223688Y-62176007D01*
X158236326Y-62296257D01*
X158294820Y-62476284D01*
X158389466Y-62640215D01*
X158407304Y-62660026D01*
X158435471Y-62712999D01*
X158435472Y-62772995D01*
X158407307Y-62825969D01*
X158389466Y-62845783D01*
X158294820Y-63009715D01*
X158236326Y-63189742D01*
X158216540Y-63377999D01*
X158236326Y-63566257D01*
X158294820Y-63746284D01*
X158389466Y-63910216D01*
X158407305Y-63930028D01*
X158435472Y-63983002D01*
X158435472Y-64042998D01*
X158407305Y-64095972D01*
X158389466Y-64115783D01*
X158294820Y-64279715D01*
X158236326Y-64459742D01*
X158216540Y-64648000D01*
X158236326Y-64836257D01*
X158294820Y-65016284D01*
X158389466Y-65180215D01*
X158407304Y-65200026D01*
X158435471Y-65252999D01*
X158435472Y-65312995D01*
X158407307Y-65365969D01*
X158389466Y-65385783D01*
X158294820Y-65549715D01*
X158236326Y-65729742D01*
X158216540Y-65918000D01*
X158236326Y-66106257D01*
X158294820Y-66286284D01*
X158389466Y-66450216D01*
X158407305Y-66470028D01*
X158435472Y-66523002D01*
X158435472Y-66582998D01*
X158407305Y-66635972D01*
X158389466Y-66655783D01*
X158294820Y-66819715D01*
X158236326Y-66999742D01*
X158216540Y-67187999D01*
X158236326Y-67376257D01*
X158294820Y-67556284D01*
X158389466Y-67720216D01*
X158516129Y-67860889D01*
X158669269Y-67972151D01*
X158842197Y-68049144D01*
X159027352Y-68088500D01*
X159027354Y-68088500D01*
X159216646Y-68088500D01*
X159216648Y-68088500D01*
X159340083Y-68062262D01*
X159401803Y-68049144D01*
X159574730Y-67972151D01*
X159604580Y-67950464D01*
X159727870Y-67860889D01*
X159761987Y-67822999D01*
X159854533Y-67720216D01*
X159949179Y-67556284D01*
X160007674Y-67376256D01*
X160027460Y-67188000D01*
X160007674Y-66999744D01*
X159949179Y-66819716D01*
X159949179Y-66819715D01*
X159854535Y-66655787D01*
X159854534Y-66655786D01*
X159854533Y-66655784D01*
X159836693Y-66635971D01*
X159808527Y-66582999D01*
X159808527Y-66523001D01*
X159836693Y-66470028D01*
X159854533Y-66450216D01*
X159949179Y-66286284D01*
X160007674Y-66106256D01*
X160027460Y-65918000D01*
X160007674Y-65729744D01*
X159956782Y-65573114D01*
X159949179Y-65549715D01*
X159854533Y-65385783D01*
X159836694Y-65365971D01*
X159808527Y-65312997D01*
X159808528Y-65253000D01*
X159836694Y-65200027D01*
X159854533Y-65180216D01*
X159949179Y-65016284D01*
X160007674Y-64836256D01*
X160027460Y-64648000D01*
X160007674Y-64459744D01*
X159949179Y-64279716D01*
X159949179Y-64279715D01*
X159854533Y-64115783D01*
X159836694Y-64095971D01*
X159808527Y-64042996D01*
X159808528Y-63982998D01*
X159836696Y-63930025D01*
X159854533Y-63910216D01*
X159949179Y-63746284D01*
X160007674Y-63566256D01*
X160027460Y-63378000D01*
X160007674Y-63189744D01*
X159949179Y-63009716D01*
X159949179Y-63009715D01*
X159854535Y-62845787D01*
X159854534Y-62845786D01*
X159854533Y-62845784D01*
X159836693Y-62825971D01*
X159808527Y-62772999D01*
X159808527Y-62713001D01*
X159836693Y-62660028D01*
X159854533Y-62640216D01*
X159949179Y-62476284D01*
X160007674Y-62296256D01*
X160027460Y-62108000D01*
X160007674Y-61919744D01*
X159949179Y-61739716D01*
X159949179Y-61739715D01*
X159854535Y-61575787D01*
X159854534Y-61575786D01*
X159854533Y-61575784D01*
X159836693Y-61555971D01*
X159808527Y-61502999D01*
X159808527Y-61443001D01*
X159836693Y-61390028D01*
X159854533Y-61370216D01*
X159949179Y-61206284D01*
X160007674Y-61026256D01*
X160027460Y-60838000D01*
X160007674Y-60649744D01*
X159972938Y-60542839D01*
X159949179Y-60469715D01*
X159854533Y-60305783D01*
X159836694Y-60285971D01*
X159808527Y-60232996D01*
X159808528Y-60172998D01*
X159836696Y-60120025D01*
X159854533Y-60100216D01*
X159949179Y-59936284D01*
X160007674Y-59756256D01*
X160027460Y-59568000D01*
X160007674Y-59379744D01*
X159957081Y-59224035D01*
X159949179Y-59199715D01*
X159854535Y-59035787D01*
X159854534Y-59035786D01*
X159854533Y-59035784D01*
X159836693Y-59015971D01*
X159808527Y-58962999D01*
X159808527Y-58903001D01*
X159836693Y-58850028D01*
X159854533Y-58830216D01*
X159949179Y-58666284D01*
X160007674Y-58486256D01*
X160027460Y-58298000D01*
X160007674Y-58109744D01*
X159949179Y-57929716D01*
X159949179Y-57929715D01*
X159854533Y-57765783D01*
X159788851Y-57692837D01*
X159765236Y-57654302D01*
X159757000Y-57609864D01*
X159757000Y-45722000D01*
X159773613Y-45660000D01*
X159819000Y-45614613D01*
X159881000Y-45598000D01*
X168976668Y-45598000D01*
X169029184Y-45609670D01*
G37*
%TD.AperFunction*%
%TD*%
%TA.AperFunction,Conductor*%
%TO.N,C*%
G36*
X131755000Y-45614613D02*
G01*
X131800387Y-45660000D01*
X131817000Y-45722000D01*
X131817000Y-57276969D01*
X131804450Y-57331327D01*
X131769342Y-57374682D01*
X131718781Y-57398259D01*
X131537197Y-57436855D01*
X131364269Y-57513848D01*
X131211129Y-57625110D01*
X131084466Y-57765783D01*
X130989820Y-57929715D01*
X130931326Y-58109742D01*
X130911540Y-58298000D01*
X130931326Y-58486257D01*
X130989820Y-58666284D01*
X131084466Y-58830216D01*
X131102305Y-58850028D01*
X131130472Y-58903002D01*
X131130472Y-58962998D01*
X131102305Y-59015972D01*
X131084466Y-59035783D01*
X130989820Y-59199715D01*
X130931326Y-59379742D01*
X130911540Y-59568000D01*
X130931326Y-59756257D01*
X130989820Y-59936284D01*
X131084466Y-60100216D01*
X131102305Y-60120028D01*
X131130472Y-60173002D01*
X131130472Y-60232998D01*
X131102305Y-60285972D01*
X131084466Y-60305783D01*
X130989820Y-60469715D01*
X130931326Y-60649742D01*
X130911540Y-60838000D01*
X130931326Y-61026257D01*
X130989820Y-61206284D01*
X131084466Y-61370215D01*
X131102304Y-61390026D01*
X131130471Y-61442999D01*
X131130472Y-61502995D01*
X131102307Y-61555969D01*
X131084466Y-61575783D01*
X130989820Y-61739715D01*
X130931326Y-61919742D01*
X130920219Y-62025420D01*
X130911540Y-62108000D01*
X130918688Y-62176007D01*
X130931326Y-62296257D01*
X130989820Y-62476284D01*
X131084466Y-62640215D01*
X131102304Y-62660026D01*
X131130471Y-62712999D01*
X131130472Y-62772995D01*
X131102307Y-62825969D01*
X131084466Y-62845783D01*
X130989820Y-63009715D01*
X130931326Y-63189742D01*
X130912882Y-63365232D01*
X130911540Y-63378000D01*
X130921433Y-63472128D01*
X130931326Y-63566257D01*
X130989820Y-63746284D01*
X131084466Y-63910216D01*
X131102305Y-63930028D01*
X131130472Y-63983002D01*
X131130472Y-64042998D01*
X131102305Y-64095972D01*
X131084466Y-64115783D01*
X130989820Y-64279715D01*
X130931326Y-64459742D01*
X130911540Y-64648000D01*
X130931326Y-64836257D01*
X130989820Y-65016284D01*
X131084466Y-65180215D01*
X131102304Y-65200026D01*
X131130471Y-65252999D01*
X131130472Y-65312995D01*
X131102307Y-65365969D01*
X131084466Y-65385783D01*
X130989820Y-65549715D01*
X130931326Y-65729742D01*
X130911540Y-65917999D01*
X130931326Y-66106257D01*
X130989820Y-66286284D01*
X131084466Y-66450216D01*
X131102305Y-66470028D01*
X131130472Y-66523002D01*
X131130472Y-66582998D01*
X131102305Y-66635972D01*
X131084466Y-66655783D01*
X130989820Y-66819715D01*
X130931326Y-66999742D01*
X130911540Y-67188000D01*
X130931326Y-67376257D01*
X130989820Y-67556284D01*
X131084466Y-67720216D01*
X131211129Y-67860889D01*
X131364269Y-67972151D01*
X131537197Y-68049144D01*
X131722352Y-68088500D01*
X131722354Y-68088500D01*
X131911646Y-68088500D01*
X131911648Y-68088500D01*
X132035083Y-68062262D01*
X132096803Y-68049144D01*
X132269730Y-67972151D01*
X132422871Y-67860888D01*
X132549533Y-67720216D01*
X132644179Y-67556284D01*
X132702674Y-67376256D01*
X132722460Y-67188000D01*
X132702674Y-66999744D01*
X132644179Y-66819716D01*
X132644179Y-66819715D01*
X132549535Y-66655787D01*
X132549534Y-66655786D01*
X132549533Y-66655784D01*
X132531693Y-66635971D01*
X132503527Y-66582999D01*
X132503527Y-66523001D01*
X132531693Y-66470028D01*
X132549533Y-66450216D01*
X132644179Y-66286284D01*
X132702674Y-66106256D01*
X132722460Y-65918000D01*
X132702674Y-65729744D01*
X132651782Y-65573114D01*
X132644179Y-65549715D01*
X132549533Y-65385783D01*
X132531694Y-65365971D01*
X132503527Y-65312997D01*
X132503528Y-65253000D01*
X132531694Y-65200027D01*
X132549533Y-65180216D01*
X132644179Y-65016284D01*
X132702674Y-64836256D01*
X132722460Y-64648000D01*
X132702674Y-64459744D01*
X132644179Y-64279716D01*
X132644179Y-64279715D01*
X132549533Y-64115783D01*
X132531694Y-64095971D01*
X132503527Y-64042996D01*
X132503528Y-63982998D01*
X132531696Y-63930025D01*
X132549533Y-63910216D01*
X132644179Y-63746284D01*
X132702674Y-63566256D01*
X132722460Y-63378000D01*
X132702674Y-63189744D01*
X132672332Y-63096363D01*
X132644179Y-63009715D01*
X132549535Y-62845787D01*
X132549534Y-62845786D01*
X132549533Y-62845784D01*
X132531693Y-62825971D01*
X132503527Y-62772999D01*
X132503527Y-62713001D01*
X132531693Y-62660028D01*
X132549533Y-62640216D01*
X132644179Y-62476284D01*
X132702674Y-62296256D01*
X132722460Y-62108000D01*
X132702674Y-61919744D01*
X132667938Y-61812839D01*
X132644179Y-61739715D01*
X132549535Y-61575787D01*
X132549534Y-61575786D01*
X132549533Y-61575784D01*
X132531693Y-61555971D01*
X132503527Y-61502999D01*
X132503527Y-61443001D01*
X132531693Y-61390028D01*
X132549533Y-61370216D01*
X132644179Y-61206284D01*
X132702674Y-61026256D01*
X132722460Y-60838000D01*
X132702674Y-60649744D01*
X132672332Y-60556363D01*
X132644179Y-60469715D01*
X132549533Y-60305783D01*
X132531694Y-60285971D01*
X132503527Y-60232996D01*
X132503528Y-60172998D01*
X132531696Y-60120025D01*
X132549533Y-60100216D01*
X132644179Y-59936284D01*
X132702674Y-59756256D01*
X132722460Y-59568000D01*
X132702674Y-59379744D01*
X132667938Y-59272839D01*
X132644179Y-59199715D01*
X132549535Y-59035787D01*
X132549534Y-59035786D01*
X132549533Y-59035784D01*
X132531693Y-59015971D01*
X132503527Y-58962999D01*
X132503527Y-58903001D01*
X132531693Y-58850028D01*
X132549533Y-58830216D01*
X132644179Y-58666284D01*
X132702674Y-58486256D01*
X132710789Y-58409036D01*
X132731309Y-58352660D01*
X132775895Y-58312515D01*
X132834110Y-58298000D01*
X134997500Y-58298000D01*
X135059500Y-58314613D01*
X135104887Y-58360000D01*
X135121500Y-58422000D01*
X135121500Y-70739061D01*
X135137053Y-70863488D01*
X135152078Y-70922649D01*
X135152080Y-70922656D01*
X135152081Y-70922657D01*
X135197785Y-71039430D01*
X135197786Y-71039431D01*
X135270831Y-71141364D01*
X135312264Y-71186185D01*
X135408150Y-71267000D01*
X135469372Y-71296695D01*
X135520974Y-71321724D01*
X135578780Y-71341347D01*
X135578782Y-71341347D01*
X135578784Y-71341348D01*
X135701608Y-71366617D01*
X135701610Y-71366616D01*
X135701611Y-71366617D01*
X135826883Y-71360873D01*
X135887048Y-71350534D01*
X136007044Y-71314132D01*
X136127367Y-71260559D01*
X136152008Y-71252553D01*
X136173366Y-71248013D01*
X136207738Y-71240709D01*
X136233515Y-71238000D01*
X136290488Y-71238000D01*
X136316261Y-71240708D01*
X136371990Y-71252553D01*
X136396630Y-71260559D01*
X136448681Y-71283734D01*
X136471130Y-71296695D01*
X136517217Y-71330179D01*
X136536480Y-71347523D01*
X136574600Y-71389858D01*
X136589836Y-71410827D01*
X136618323Y-71460169D01*
X136628865Y-71483847D01*
X136646468Y-71538023D01*
X136651858Y-71563381D01*
X136657812Y-71620038D01*
X136657812Y-71645958D01*
X136651858Y-71702613D01*
X136646468Y-71727972D01*
X136628863Y-71782153D01*
X136618319Y-71805834D01*
X136567517Y-71893826D01*
X136561705Y-71902949D01*
X136530363Y-71947708D01*
X136502194Y-72000687D01*
X136458042Y-72115708D01*
X136458041Y-72115710D01*
X136458042Y-72115710D01*
X136443027Y-72238001D01*
X136443027Y-72297999D01*
X136458043Y-72420292D01*
X136502198Y-72535319D01*
X136530364Y-72588291D01*
X136561716Y-72633065D01*
X136567525Y-72642184D01*
X136618323Y-72730168D01*
X136628865Y-72753846D01*
X136646468Y-72808023D01*
X136651858Y-72833382D01*
X136657812Y-72890040D01*
X136657812Y-72915959D01*
X136651858Y-72972613D01*
X136646468Y-72997972D01*
X136628863Y-73052153D01*
X136618319Y-73075834D01*
X136567517Y-73163826D01*
X136561705Y-73172949D01*
X136530363Y-73217708D01*
X136502194Y-73270687D01*
X136458042Y-73385708D01*
X136458041Y-73385710D01*
X136458042Y-73385710D01*
X136443027Y-73508001D01*
X136443027Y-73567999D01*
X136458043Y-73690292D01*
X136502198Y-73805319D01*
X136530364Y-73858291D01*
X136561716Y-73903065D01*
X136567525Y-73912184D01*
X136618323Y-74000168D01*
X136628865Y-74023846D01*
X136646468Y-74078023D01*
X136651858Y-74103382D01*
X136657812Y-74160040D01*
X136657812Y-74185959D01*
X136651858Y-74242613D01*
X136646468Y-74267972D01*
X136628863Y-74322153D01*
X136618319Y-74345834D01*
X136567517Y-74433826D01*
X136561705Y-74442949D01*
X136530363Y-74487708D01*
X136502194Y-74540687D01*
X136458042Y-74655708D01*
X136458041Y-74655710D01*
X136458042Y-74655710D01*
X136443027Y-74778001D01*
X136443027Y-74837999D01*
X136458043Y-74960292D01*
X136502198Y-75075319D01*
X136530364Y-75128291D01*
X136547586Y-75152886D01*
X136561716Y-75173065D01*
X136567525Y-75182184D01*
X136618323Y-75270168D01*
X136628865Y-75293846D01*
X136646468Y-75348023D01*
X136651858Y-75373381D01*
X136657812Y-75430038D01*
X136657812Y-75455958D01*
X136651858Y-75512613D01*
X136646468Y-75537972D01*
X136628863Y-75592153D01*
X136618319Y-75615834D01*
X136567517Y-75703825D01*
X136561706Y-75712947D01*
X136530364Y-75757709D01*
X136502197Y-75810684D01*
X136458044Y-75925704D01*
X136443027Y-76047995D01*
X136443027Y-76107987D01*
X136458042Y-76230286D01*
X136502197Y-76345316D01*
X136530363Y-76398288D01*
X136561709Y-76443055D01*
X136567520Y-76452176D01*
X136618323Y-76540169D01*
X136628865Y-76563847D01*
X136646468Y-76618023D01*
X136651858Y-76643379D01*
X136657813Y-76700036D01*
X136657813Y-76725960D01*
X136651858Y-76782615D01*
X136646468Y-76807972D01*
X136628863Y-76862153D01*
X136618319Y-76885834D01*
X136567517Y-76973826D01*
X136561705Y-76982949D01*
X136530363Y-77027708D01*
X136502194Y-77080687D01*
X136458042Y-77195708D01*
X136458041Y-77195710D01*
X136458042Y-77195710D01*
X136443027Y-77318001D01*
X136443027Y-77377999D01*
X136458043Y-77500292D01*
X136502198Y-77615319D01*
X136530364Y-77668291D01*
X136547586Y-77692886D01*
X136561716Y-77713065D01*
X136567525Y-77722184D01*
X136618323Y-77810168D01*
X136628865Y-77833846D01*
X136646468Y-77888023D01*
X136651858Y-77913382D01*
X136657812Y-77970040D01*
X136657812Y-77995959D01*
X136651858Y-78052613D01*
X136646468Y-78077972D01*
X136628863Y-78132153D01*
X136618319Y-78155834D01*
X136567517Y-78243825D01*
X136561706Y-78252947D01*
X136530364Y-78297709D01*
X136502197Y-78350684D01*
X136458044Y-78465704D01*
X136443027Y-78587995D01*
X136443027Y-78647987D01*
X136458042Y-78770286D01*
X136502197Y-78885316D01*
X136530363Y-78938288D01*
X136561709Y-78983055D01*
X136567520Y-78992176D01*
X136618323Y-79080169D01*
X136628865Y-79103847D01*
X136646468Y-79158023D01*
X136651858Y-79183381D01*
X136657812Y-79240038D01*
X136657812Y-79265958D01*
X136651858Y-79322613D01*
X136646468Y-79347972D01*
X136628863Y-79402153D01*
X136618319Y-79425834D01*
X136567517Y-79513826D01*
X136561705Y-79522949D01*
X136526012Y-79573924D01*
X136525411Y-79573503D01*
X136496127Y-79607992D01*
X136448119Y-79630377D01*
X136395150Y-79630684D01*
X136356647Y-79622500D01*
X136356646Y-79622500D01*
X136167354Y-79622500D01*
X136167352Y-79622500D01*
X135982197Y-79661855D01*
X135809269Y-79738848D01*
X135656129Y-79850110D01*
X135529466Y-79990783D01*
X135434820Y-80154715D01*
X135376326Y-80334742D01*
X135356540Y-80522999D01*
X135376326Y-80711259D01*
X135402719Y-80792487D01*
X135408384Y-80840803D01*
X135395026Y-80887580D01*
X135364701Y-80925619D01*
X135312265Y-80969812D01*
X135270831Y-81014635D01*
X135197786Y-81116568D01*
X135152078Y-81233350D01*
X135137053Y-81292511D01*
X135121500Y-81416939D01*
X135121500Y-83574000D01*
X135104887Y-83636000D01*
X135059500Y-83681387D01*
X134997500Y-83698000D01*
X131176500Y-83698000D01*
X131114500Y-83681387D01*
X131069113Y-83636000D01*
X131052500Y-83574000D01*
X131052500Y-71121999D01*
X131035275Y-70991169D01*
X131035275Y-70991166D01*
X131018662Y-70929166D01*
X130968163Y-70807250D01*
X130931060Y-70758897D01*
X130887829Y-70702557D01*
X130842442Y-70657170D01*
X130737749Y-70576836D01*
X130615838Y-70526339D01*
X130579324Y-70516555D01*
X130553834Y-70509725D01*
X130553833Y-70509724D01*
X130553830Y-70509724D01*
X130423001Y-70492500D01*
X130423000Y-70492500D01*
X121569892Y-70492500D01*
X121514757Y-70479568D01*
X121471122Y-70443470D01*
X121448088Y-70391735D01*
X121450460Y-70335153D01*
X121477743Y-70285527D01*
X121481747Y-70281079D01*
X121500533Y-70260216D01*
X121595179Y-70096284D01*
X121653674Y-69916256D01*
X121673460Y-69728000D01*
X121653674Y-69539744D01*
X121595179Y-69359716D01*
X121595179Y-69359715D01*
X121500533Y-69195783D01*
X121373870Y-69055110D01*
X121220730Y-68943848D01*
X121047802Y-68866855D01*
X120862648Y-68827500D01*
X120862646Y-68827500D01*
X120673354Y-68827500D01*
X120673352Y-68827500D01*
X120488197Y-68866855D01*
X120315269Y-68943848D01*
X120162129Y-69055110D01*
X120035466Y-69195783D01*
X119940820Y-69359715D01*
X119882326Y-69539742D01*
X119862540Y-69727999D01*
X119882326Y-69916257D01*
X119940820Y-70096284D01*
X120035466Y-70260215D01*
X120058257Y-70285527D01*
X120085540Y-70335153D01*
X120087912Y-70391735D01*
X120064878Y-70443470D01*
X120021243Y-70479568D01*
X119966108Y-70492500D01*
X118013892Y-70492500D01*
X117958757Y-70479568D01*
X117915122Y-70443470D01*
X117892088Y-70391735D01*
X117894460Y-70335153D01*
X117921743Y-70285527D01*
X117925747Y-70281079D01*
X117944533Y-70260216D01*
X118039179Y-70096284D01*
X118097674Y-69916256D01*
X118117460Y-69728000D01*
X118097674Y-69539744D01*
X118039179Y-69359716D01*
X118039179Y-69359715D01*
X117944533Y-69195783D01*
X117817870Y-69055110D01*
X117664730Y-68943848D01*
X117491802Y-68866855D01*
X117306648Y-68827500D01*
X117306646Y-68827500D01*
X117117354Y-68827500D01*
X117117352Y-68827500D01*
X116932197Y-68866855D01*
X116759269Y-68943848D01*
X116606129Y-69055110D01*
X116479466Y-69195783D01*
X116384820Y-69359715D01*
X116326326Y-69539742D01*
X116306540Y-69727999D01*
X116326326Y-69916257D01*
X116384820Y-70096284D01*
X116479466Y-70260215D01*
X116502257Y-70285527D01*
X116529540Y-70335153D01*
X116531912Y-70391735D01*
X116508878Y-70443470D01*
X116465243Y-70479568D01*
X116410108Y-70492500D01*
X116036624Y-70492500D01*
X115926172Y-70504715D01*
X115926166Y-70504716D01*
X115919378Y-70505467D01*
X115919091Y-70502874D01*
X115864868Y-70500016D01*
X115809714Y-70462504D01*
X115781976Y-70401846D01*
X115666072Y-69667733D01*
X115665483Y-69663529D01*
X115537067Y-68614367D01*
X115536624Y-68610136D01*
X115444785Y-67557117D01*
X115444486Y-67552827D01*
X115389340Y-66497288D01*
X115389191Y-66492998D01*
X115388791Y-66470028D01*
X115373698Y-65602550D01*
X115370802Y-65436101D01*
X115370803Y-65431731D01*
X115371183Y-65410464D01*
X115390155Y-64347633D01*
X115390311Y-64343265D01*
X115448355Y-63260389D01*
X115448664Y-63256077D01*
X115545318Y-62175989D01*
X115545790Y-62171606D01*
X115552176Y-62120767D01*
X115680934Y-61095654D01*
X115681547Y-61091388D01*
X115855012Y-60020921D01*
X115855794Y-60016588D01*
X116067346Y-58953043D01*
X116068270Y-58948798D01*
X116317655Y-57893453D01*
X116318728Y-57889243D01*
X116605624Y-56843463D01*
X116606867Y-56839232D01*
X116622909Y-56788000D01*
X116930895Y-55804393D01*
X116932271Y-55800258D01*
X117293044Y-54777601D01*
X117294560Y-54773539D01*
X117691592Y-53764441D01*
X117693280Y-53760366D01*
X118126076Y-52766082D01*
X118127884Y-52762124D01*
X118595894Y-51783916D01*
X118597834Y-51780040D01*
X119100485Y-50819115D01*
X119102581Y-50815279D01*
X119639194Y-49872932D01*
X119641392Y-49869228D01*
X120211302Y-48946629D01*
X120213656Y-48942965D01*
X120816125Y-48041307D01*
X120818603Y-48037737D01*
X121452888Y-47158132D01*
X121455501Y-47154642D01*
X122120761Y-46298257D01*
X122123472Y-46294893D01*
X122668709Y-45642482D01*
X122711340Y-45609670D01*
X122763856Y-45598000D01*
X131693000Y-45598000D01*
X131755000Y-45614613D01*
G37*
%TD.AperFunction*%
%TD*%
%TA.AperFunction,Conductor*%
%TO.N,Earth_Protective*%
G36*
X163284798Y-116988612D02*
G01*
X163330185Y-117033996D01*
X163346800Y-117095992D01*
X163346915Y-118961776D01*
X163330302Y-119023784D01*
X163284908Y-119069175D01*
X163222898Y-119085784D01*
X159839298Y-119085330D01*
X156451981Y-119084875D01*
X156389990Y-119068258D01*
X156344610Y-119022871D01*
X156328000Y-118960876D01*
X156328000Y-117096000D01*
X156344613Y-117034000D01*
X156390000Y-116988613D01*
X156452000Y-116972000D01*
X163222800Y-116972000D01*
X163284798Y-116988612D01*
G37*
%TD.AperFunction*%
%TD*%
%TA.AperFunction,Conductor*%
%TO.N,Shunt_2*%
G36*
X130485000Y-71014613D02*
G01*
X130530387Y-71060000D01*
X130547000Y-71122000D01*
X130547000Y-83574000D01*
X130530387Y-83636000D01*
X130485000Y-83681387D01*
X130423000Y-83698000D01*
X121511584Y-83698000D01*
X121456144Y-83684916D01*
X121412404Y-83648426D01*
X121403079Y-83636000D01*
X121162004Y-83314743D01*
X121159474Y-83311248D01*
X120554851Y-82444259D01*
X120552445Y-82440677D01*
X119978379Y-81553219D01*
X119976099Y-81549556D01*
X119537583Y-80816956D01*
X119433234Y-80642626D01*
X119431111Y-80638936D01*
X118920126Y-79713666D01*
X118918111Y-79709863D01*
X118439641Y-78767403D01*
X118437755Y-78763522D01*
X117992369Y-77804996D01*
X117990619Y-77801052D01*
X117578852Y-76827616D01*
X117577240Y-76823614D01*
X117266849Y-76012257D01*
X117199572Y-75836398D01*
X117198105Y-75832351D01*
X117130634Y-75635744D01*
X116855023Y-74832622D01*
X116853694Y-74828517D01*
X116804867Y-74668284D01*
X116545599Y-73817451D01*
X116544421Y-73813327D01*
X116400659Y-73275049D01*
X117821588Y-73275049D01*
X117841374Y-73463306D01*
X117899868Y-73643333D01*
X117951797Y-73733276D01*
X117968410Y-73795275D01*
X117951798Y-73857275D01*
X117908820Y-73931716D01*
X117850326Y-74111742D01*
X117830540Y-74299999D01*
X117850326Y-74488257D01*
X117908820Y-74668284D01*
X118003466Y-74832216D01*
X118130129Y-74972889D01*
X118283269Y-75084151D01*
X118456197Y-75161144D01*
X118641352Y-75200500D01*
X118641354Y-75200500D01*
X118830646Y-75200500D01*
X118830648Y-75200500D01*
X118954083Y-75174262D01*
X119015803Y-75161144D01*
X119127755Y-75111298D01*
X119193564Y-75081999D01*
X119244000Y-75071278D01*
X119294436Y-75081999D01*
X119472197Y-75161144D01*
X119647901Y-75198491D01*
X119700155Y-75223415D01*
X119735400Y-75269345D01*
X119745950Y-75326271D01*
X119729507Y-75381781D01*
X119686820Y-75455715D01*
X119628326Y-75635742D01*
X119608540Y-75824000D01*
X119628326Y-76012257D01*
X119686820Y-76192284D01*
X119781466Y-76356216D01*
X119908129Y-76496889D01*
X120061269Y-76608151D01*
X120234197Y-76685144D01*
X120419352Y-76724500D01*
X120419354Y-76724500D01*
X120608646Y-76724500D01*
X120608648Y-76724500D01*
X120732083Y-76698262D01*
X120793803Y-76685144D01*
X120966730Y-76608151D01*
X121119871Y-76496888D01*
X121246533Y-76356216D01*
X121341179Y-76192284D01*
X121399674Y-76012256D01*
X121419460Y-75824000D01*
X121399674Y-75635744D01*
X121341179Y-75455716D01*
X121341179Y-75455715D01*
X121246533Y-75291783D01*
X121119870Y-75151110D01*
X120966730Y-75039848D01*
X120793802Y-74962855D01*
X120618099Y-74925508D01*
X120565844Y-74900584D01*
X120530600Y-74854653D01*
X120520050Y-74797728D01*
X120536492Y-74742220D01*
X120579179Y-74668284D01*
X120637674Y-74488256D01*
X120657460Y-74300000D01*
X120637674Y-74111744D01*
X120579179Y-73931716D01*
X120579179Y-73931715D01*
X120484533Y-73767783D01*
X120357870Y-73627110D01*
X120204730Y-73515848D01*
X120031802Y-73438855D01*
X119846648Y-73399500D01*
X119846646Y-73399500D01*
X119757144Y-73399500D01*
X119691465Y-73380677D01*
X119645726Y-73329924D01*
X119638222Y-73287552D01*
X119633870Y-73288010D01*
X119632508Y-73275049D01*
X119612722Y-73086793D01*
X119554227Y-72906765D01*
X119554227Y-72906764D01*
X119459581Y-72742832D01*
X119332918Y-72602159D01*
X119179778Y-72490897D01*
X119006850Y-72413904D01*
X118821696Y-72374549D01*
X118821694Y-72374549D01*
X118632402Y-72374549D01*
X118632400Y-72374549D01*
X118447245Y-72413904D01*
X118274317Y-72490897D01*
X118121177Y-72602159D01*
X117994514Y-72742832D01*
X117899868Y-72906764D01*
X117841374Y-73086791D01*
X117821588Y-73275049D01*
X116400659Y-73275049D01*
X116271682Y-72792126D01*
X116270662Y-72788026D01*
X116033602Y-71757891D01*
X116032716Y-71753705D01*
X115914888Y-71145587D01*
X115916453Y-71091423D01*
X115940966Y-71043098D01*
X115983746Y-71009840D01*
X116036624Y-70998000D01*
X130423000Y-70998000D01*
X130485000Y-71014613D01*
G37*
%TD.AperFunction*%
%TD*%
%TA.AperFunction,Conductor*%
%TO.N,Shunt_1*%
G36*
X152075000Y-78634613D02*
G01*
X152120387Y-78680000D01*
X152137000Y-78742000D01*
X152137000Y-82939000D01*
X152120387Y-83001000D01*
X152075000Y-83046387D01*
X152013000Y-83063000D01*
X149721000Y-83063000D01*
X149659000Y-83046387D01*
X149613613Y-83001000D01*
X149597000Y-82939000D01*
X149597000Y-81158000D01*
X148445648Y-81158000D01*
X148386005Y-81142714D01*
X148341067Y-81100625D01*
X148321913Y-81042109D01*
X148330241Y-80997717D01*
X148328095Y-80997142D01*
X148392063Y-80758407D01*
X148412659Y-80523000D01*
X148392063Y-80287594D01*
X148392063Y-80287592D01*
X148343324Y-80105695D01*
X148340097Y-80089295D01*
X148332248Y-80027660D01*
X148343021Y-79959278D01*
X148388777Y-79907326D01*
X148455255Y-79888000D01*
X149597000Y-79888000D01*
X149597000Y-78742000D01*
X149613613Y-78680000D01*
X149659000Y-78634613D01*
X149721000Y-78618000D01*
X152013000Y-78618000D01*
X152075000Y-78634613D01*
G37*
%TD.AperFunction*%
%TD*%
%TA.AperFunction,Conductor*%
%TO.N,Shunt_1*%
G36*
X133660000Y-84984613D02*
G01*
X133705387Y-85030000D01*
X133722000Y-85092000D01*
X133722000Y-87508000D01*
X158363000Y-87508000D01*
X158425000Y-87524613D01*
X158470387Y-87570000D01*
X158487000Y-87632000D01*
X158487000Y-88654000D01*
X158470387Y-88716000D01*
X158425000Y-88761387D01*
X158363000Y-88778000D01*
X132576000Y-88778000D01*
X132514000Y-88761387D01*
X132468613Y-88716000D01*
X132452000Y-88654000D01*
X132452000Y-85092000D01*
X132468613Y-85030000D01*
X132514000Y-84984613D01*
X132576000Y-84968000D01*
X133598000Y-84968000D01*
X133660000Y-84984613D01*
G37*
%TD.AperFunction*%
%TD*%
%TA.AperFunction,Conductor*%
%TO.N,Shunt_2*%
G36*
X175574248Y-71013595D02*
G01*
X175619308Y-71056458D01*
X175637890Y-71115808D01*
X175675661Y-71871236D01*
X175672687Y-71905106D01*
X175478395Y-72753580D01*
X175477365Y-72757749D01*
X175207190Y-73774416D01*
X175206015Y-73778546D01*
X174900811Y-74785213D01*
X174899494Y-74789301D01*
X174559613Y-75784806D01*
X174558156Y-75788845D01*
X174263219Y-76563849D01*
X174213162Y-76695382D01*
X174176766Y-76746443D01*
X174120043Y-76773169D01*
X174057496Y-76768726D01*
X174005120Y-76734251D01*
X173951871Y-76675112D01*
X173951867Y-76675109D01*
X173798730Y-76563848D01*
X173625802Y-76486855D01*
X173440648Y-76447500D01*
X173440646Y-76447500D01*
X173251354Y-76447500D01*
X173251352Y-76447500D01*
X173066197Y-76486855D01*
X172893269Y-76563848D01*
X172740129Y-76675110D01*
X172613466Y-76815783D01*
X172518820Y-76979715D01*
X172460326Y-77159742D01*
X172440540Y-77348000D01*
X172460326Y-77536257D01*
X172518820Y-77716284D01*
X172613466Y-77880216D01*
X172740129Y-78020889D01*
X172893269Y-78132151D01*
X173066197Y-78209144D01*
X173251352Y-78248500D01*
X173348198Y-78248500D01*
X173407747Y-78263735D01*
X173452664Y-78305696D01*
X173471911Y-78364072D01*
X173460759Y-78424519D01*
X173331443Y-78704338D01*
X173329574Y-78708204D01*
X172855478Y-79647249D01*
X172853477Y-79651048D01*
X172347156Y-80573108D01*
X172345024Y-80576836D01*
X171807103Y-81480771D01*
X171804844Y-81484423D01*
X171235910Y-82369248D01*
X171233525Y-82372819D01*
X170634322Y-83237373D01*
X170631815Y-83240860D01*
X170328149Y-83648122D01*
X170284351Y-83684831D01*
X170228741Y-83698000D01*
X161151000Y-83698000D01*
X161089000Y-83681387D01*
X161043613Y-83636000D01*
X161027000Y-83574000D01*
X161027000Y-74300000D01*
X170662540Y-74300000D01*
X170682326Y-74488257D01*
X170740820Y-74668284D01*
X170835466Y-74832216D01*
X170962129Y-74972889D01*
X171115269Y-75084151D01*
X171288197Y-75161144D01*
X171473352Y-75200500D01*
X171473354Y-75200500D01*
X171662646Y-75200500D01*
X171662648Y-75200500D01*
X171786083Y-75174262D01*
X171847803Y-75161144D01*
X172020730Y-75084151D01*
X172020731Y-75084149D01*
X172028242Y-75080806D01*
X172078678Y-75070085D01*
X172129114Y-75080806D01*
X172299898Y-75156845D01*
X172485053Y-75196201D01*
X172485055Y-75196201D01*
X172674347Y-75196201D01*
X172674349Y-75196201D01*
X172797785Y-75169963D01*
X172859504Y-75156845D01*
X173032431Y-75079852D01*
X173032431Y-75079851D01*
X173034587Y-75078892D01*
X173085023Y-75068171D01*
X173135459Y-75078892D01*
X173147268Y-75084150D01*
X173147270Y-75084151D01*
X173310541Y-75156845D01*
X173320197Y-75161144D01*
X173505352Y-75200500D01*
X173505354Y-75200500D01*
X173694646Y-75200500D01*
X173694648Y-75200500D01*
X173818083Y-75174262D01*
X173879803Y-75161144D01*
X174052730Y-75084151D01*
X174108810Y-75043407D01*
X174205870Y-74972889D01*
X174332533Y-74832216D01*
X174427179Y-74668284D01*
X174427178Y-74668284D01*
X174485674Y-74488256D01*
X174505460Y-74300000D01*
X174485674Y-74111744D01*
X174427179Y-73931716D01*
X174427179Y-73931715D01*
X174332533Y-73767783D01*
X174205870Y-73627110D01*
X174052730Y-73515848D01*
X173879802Y-73438855D01*
X173694648Y-73399500D01*
X173694646Y-73399500D01*
X173505354Y-73399500D01*
X173505352Y-73399500D01*
X173320199Y-73438854D01*
X173145113Y-73516808D01*
X173094678Y-73527528D01*
X173044243Y-73516808D01*
X172859501Y-73434555D01*
X172674349Y-73395201D01*
X172674347Y-73395201D01*
X172485055Y-73395201D01*
X172485053Y-73395201D01*
X172299898Y-73434556D01*
X172119459Y-73514894D01*
X172069023Y-73525615D01*
X172018587Y-73514894D01*
X171847802Y-73438855D01*
X171662648Y-73399500D01*
X171662646Y-73399500D01*
X171473354Y-73399500D01*
X171473352Y-73399500D01*
X171288197Y-73438855D01*
X171115269Y-73515848D01*
X170962129Y-73627110D01*
X170835466Y-73767783D01*
X170740820Y-73931715D01*
X170682326Y-74111742D01*
X170662540Y-74300000D01*
X161027000Y-74300000D01*
X161027000Y-71122000D01*
X161043613Y-71060000D01*
X161089000Y-71014613D01*
X161151000Y-70998000D01*
X175514045Y-70998000D01*
X175574248Y-71013595D01*
G37*
%TD.AperFunction*%
%TD*%
%TA.AperFunction,Conductor*%
%TO.N,Shunt_1*%
G36*
X158425000Y-95779613D02*
G01*
X158470387Y-95825000D01*
X158487000Y-95887000D01*
X158487000Y-98303000D01*
X162173000Y-98303000D01*
X162235000Y-98319613D01*
X162280387Y-98365000D01*
X162297000Y-98427000D01*
X162297000Y-100084000D01*
X162280387Y-100146000D01*
X162235000Y-100191387D01*
X162173000Y-100208000D01*
X129401000Y-100208000D01*
X129339000Y-100191387D01*
X129293613Y-100146000D01*
X129277000Y-100084000D01*
X129277000Y-98427000D01*
X129293613Y-98365000D01*
X129339000Y-98319613D01*
X129401000Y-98303000D01*
X133087000Y-98303000D01*
X133087000Y-95887000D01*
X133103613Y-95825000D01*
X133149000Y-95779613D01*
X133211000Y-95763000D01*
X158363000Y-95763000D01*
X158425000Y-95779613D01*
G37*
%TD.AperFunction*%
%TD*%
%TA.AperFunction,Conductor*%
%TO.N,Shunt_1*%
G36*
X158425000Y-107209613D02*
G01*
X158470387Y-107255000D01*
X158487000Y-107317000D01*
X158487000Y-108339000D01*
X158470387Y-108401000D01*
X158425000Y-108446387D01*
X158363000Y-108463000D01*
X150232000Y-108463000D01*
X150232000Y-108994014D01*
X150220382Y-109046419D01*
X150187706Y-109089003D01*
X150140094Y-109113789D01*
X149783799Y-109209258D01*
X149441264Y-109340744D01*
X149114343Y-109507320D01*
X148806636Y-109707146D01*
X148521490Y-109938054D01*
X148262054Y-110197490D01*
X148031146Y-110482636D01*
X147831320Y-110790343D01*
X147664744Y-111117264D01*
X147533257Y-111459801D01*
X147510136Y-111546093D01*
X147485351Y-111593706D01*
X147442766Y-111626382D01*
X147390361Y-111638000D01*
X140072000Y-111638000D01*
X140072000Y-113546000D01*
X140055387Y-113608000D01*
X140010000Y-113653387D01*
X139948000Y-113670000D01*
X133211000Y-113670000D01*
X133149000Y-113653387D01*
X133103613Y-113608000D01*
X133087000Y-113546000D01*
X133087000Y-107317000D01*
X133103613Y-107255000D01*
X133149000Y-107209613D01*
X133211000Y-107193000D01*
X158363000Y-107193000D01*
X158425000Y-107209613D01*
G37*
%TD.AperFunction*%
%TD*%
%TA.AperFunction,Conductor*%
%TO.N,GND*%
G36*
X155885000Y-58314613D02*
G01*
X155930387Y-58360000D01*
X155947000Y-58422000D01*
X155947000Y-70739057D01*
X155931973Y-70798225D01*
X155890535Y-70843052D01*
X155832729Y-70862675D01*
X155772564Y-70852336D01*
X155591802Y-70771855D01*
X155406648Y-70732500D01*
X155406646Y-70732500D01*
X155217354Y-70732500D01*
X155217352Y-70732500D01*
X155032197Y-70771855D01*
X154859269Y-70848848D01*
X154706129Y-70960110D01*
X154579466Y-71100783D01*
X154484820Y-71264715D01*
X154426326Y-71444742D01*
X154406540Y-71632999D01*
X154426326Y-71821257D01*
X154484820Y-72001284D01*
X154579466Y-72165216D01*
X154597305Y-72185028D01*
X154625472Y-72238002D01*
X154625472Y-72297998D01*
X154597305Y-72350972D01*
X154579466Y-72370783D01*
X154484820Y-72534715D01*
X154426326Y-72714742D01*
X154406540Y-72903000D01*
X154426326Y-73091257D01*
X154484820Y-73271284D01*
X154579466Y-73435216D01*
X154597305Y-73455028D01*
X154625472Y-73508002D01*
X154625472Y-73567998D01*
X154597305Y-73620972D01*
X154579466Y-73640783D01*
X154484820Y-73804715D01*
X154426326Y-73984742D01*
X154406540Y-74173000D01*
X154426326Y-74361257D01*
X154484820Y-74541284D01*
X154579466Y-74705216D01*
X154597305Y-74725028D01*
X154625472Y-74778002D01*
X154625472Y-74837998D01*
X154597305Y-74890972D01*
X154579466Y-74910783D01*
X154484820Y-75074715D01*
X154426326Y-75254742D01*
X154406540Y-75443000D01*
X154426326Y-75631257D01*
X154484820Y-75811284D01*
X154579466Y-75975215D01*
X154597304Y-75995026D01*
X154625471Y-76047999D01*
X154625472Y-76107995D01*
X154597307Y-76160969D01*
X154579466Y-76180783D01*
X154484820Y-76344715D01*
X154426326Y-76524742D01*
X154406540Y-76712999D01*
X154426326Y-76901257D01*
X154484820Y-77081284D01*
X154579466Y-77245216D01*
X154597305Y-77265028D01*
X154625472Y-77318002D01*
X154625472Y-77377998D01*
X154597305Y-77430972D01*
X154579466Y-77450783D01*
X154484820Y-77614715D01*
X154426326Y-77794742D01*
X154406540Y-77983000D01*
X154426326Y-78171257D01*
X154484820Y-78351284D01*
X154579466Y-78515215D01*
X154597304Y-78535026D01*
X154625471Y-78587999D01*
X154625472Y-78647995D01*
X154597307Y-78700969D01*
X154579466Y-78720783D01*
X154484820Y-78884715D01*
X154426326Y-79064742D01*
X154406540Y-79252999D01*
X154426326Y-79441257D01*
X154484820Y-79621284D01*
X154579466Y-79785216D01*
X154597305Y-79805028D01*
X154625472Y-79858002D01*
X154625472Y-79917998D01*
X154597305Y-79970972D01*
X154579466Y-79990783D01*
X154484820Y-80154715D01*
X154426326Y-80334742D01*
X154426325Y-80334744D01*
X154426326Y-80334744D01*
X154406540Y-80523000D01*
X154409453Y-80550712D01*
X154426326Y-80711257D01*
X154484820Y-80891284D01*
X154579466Y-81055216D01*
X154706129Y-81195889D01*
X154859269Y-81307151D01*
X155032197Y-81384144D01*
X155217352Y-81423500D01*
X155217354Y-81423500D01*
X155406646Y-81423500D01*
X155406648Y-81423500D01*
X155543547Y-81394401D01*
X155591803Y-81384144D01*
X155656030Y-81355548D01*
X155772564Y-81303664D01*
X155832729Y-81293325D01*
X155890535Y-81312948D01*
X155931973Y-81357775D01*
X155947000Y-81416943D01*
X155947000Y-84333000D01*
X169545620Y-84333000D01*
X169611648Y-84352041D01*
X169657397Y-84403318D01*
X169668818Y-84471081D01*
X169642402Y-84534519D01*
X169342792Y-84908579D01*
X169340050Y-84911884D01*
X168654388Y-85709665D01*
X168651533Y-85712872D01*
X167938692Y-86486399D01*
X167935728Y-86489506D01*
X167196518Y-87237897D01*
X167193448Y-87240900D01*
X166428752Y-87963263D01*
X166425580Y-87966157D01*
X165635534Y-88662312D01*
X165633910Y-88663718D01*
X165501508Y-88776372D01*
X165501060Y-88776797D01*
X165456090Y-88815057D01*
X165121544Y-89144114D01*
X164811597Y-89496424D01*
X164527845Y-89870173D01*
X164271784Y-90263387D01*
X164044729Y-90674049D01*
X163847870Y-91100009D01*
X163682228Y-91539056D01*
X163548669Y-91988893D01*
X163447885Y-92447189D01*
X163380399Y-92911566D01*
X163346568Y-93379585D01*
X163346573Y-93614215D01*
X163346573Y-93614219D01*
X163346571Y-93789567D01*
X163346573Y-93789604D01*
X163346573Y-100397139D01*
X163329960Y-100459139D01*
X163284573Y-100504526D01*
X163222573Y-100521139D01*
X163160573Y-100504526D01*
X163115186Y-100459139D01*
X163029533Y-100310783D01*
X162902870Y-100170110D01*
X162853615Y-100134325D01*
X162816015Y-100090302D01*
X162802500Y-100034007D01*
X162802500Y-98426999D01*
X162785275Y-98296169D01*
X162785275Y-98296166D01*
X162768662Y-98234166D01*
X162718163Y-98112250D01*
X162718162Y-98112249D01*
X162637829Y-98007557D01*
X162592442Y-97962170D01*
X162487749Y-97881836D01*
X162365838Y-97831339D01*
X162303830Y-97814724D01*
X162173001Y-97797500D01*
X162173000Y-97797500D01*
X159116500Y-97797500D01*
X159054500Y-97780887D01*
X159009113Y-97735500D01*
X158992500Y-97673500D01*
X158992500Y-97470452D01*
X158998794Y-97431448D01*
X159056999Y-97255797D01*
X159056999Y-97255796D01*
X159067500Y-97153009D01*
X159067499Y-96227992D01*
X159056999Y-96125203D01*
X159001814Y-95958666D01*
X158998794Y-95949552D01*
X158992500Y-95910548D01*
X158992500Y-95886999D01*
X158975275Y-95756169D01*
X158975275Y-95756166D01*
X158958662Y-95694166D01*
X158908163Y-95572250D01*
X158827829Y-95467557D01*
X158782442Y-95422170D01*
X158677749Y-95341836D01*
X158555838Y-95291339D01*
X158493830Y-95274724D01*
X158363001Y-95257500D01*
X158363000Y-95257500D01*
X133211000Y-95257500D01*
X133210999Y-95257500D01*
X133080169Y-95274724D01*
X133018161Y-95291339D01*
X132896250Y-95341836D01*
X132791557Y-95422170D01*
X132746170Y-95467557D01*
X132665836Y-95572250D01*
X132615339Y-95694161D01*
X132598724Y-95756169D01*
X132581500Y-95886999D01*
X132581500Y-95910548D01*
X132575206Y-95949552D01*
X132517000Y-96125202D01*
X132506500Y-96227990D01*
X132506500Y-97153008D01*
X132517000Y-97255796D01*
X132575206Y-97431448D01*
X132581500Y-97470452D01*
X132581500Y-97673500D01*
X132564887Y-97735500D01*
X132519500Y-97780887D01*
X132457500Y-97797500D01*
X129400999Y-97797500D01*
X129270169Y-97814724D01*
X129208161Y-97831339D01*
X129086250Y-97881836D01*
X128981557Y-97962170D01*
X128936170Y-98007557D01*
X128855836Y-98112250D01*
X128805339Y-98234161D01*
X128788724Y-98296169D01*
X128771500Y-98426999D01*
X128771500Y-100084001D01*
X128788724Y-100214830D01*
X128805339Y-100276838D01*
X128855836Y-100398749D01*
X128936170Y-100503442D01*
X128981557Y-100548829D01*
X129086250Y-100629163D01*
X129208166Y-100679662D01*
X129270166Y-100696275D01*
X129368291Y-100709193D01*
X129400999Y-100713500D01*
X129401000Y-100713500D01*
X160966271Y-100713500D01*
X161013724Y-100722939D01*
X161053952Y-100749819D01*
X161426823Y-101122690D01*
X161457073Y-101172051D01*
X161469821Y-101211286D01*
X161564466Y-101375216D01*
X161691129Y-101515889D01*
X161844269Y-101627151D01*
X162017197Y-101704144D01*
X162202352Y-101743500D01*
X162202354Y-101743500D01*
X162391646Y-101743500D01*
X162391648Y-101743500D01*
X162515084Y-101717262D01*
X162576803Y-101704144D01*
X162749730Y-101627151D01*
X162902871Y-101515888D01*
X163029533Y-101375216D01*
X163115185Y-101226861D01*
X163160573Y-101181474D01*
X163222573Y-101164861D01*
X163284573Y-101181474D01*
X163329960Y-101226861D01*
X163346573Y-101288861D01*
X163346573Y-102161325D01*
X163329553Y-102224025D01*
X163283166Y-102269511D01*
X162908971Y-102479085D01*
X162832182Y-102522093D01*
X162387948Y-102813917D01*
X161965444Y-103136380D01*
X161566752Y-103487890D01*
X161193894Y-103866667D01*
X160848709Y-104270844D01*
X160532940Y-104698375D01*
X160248149Y-105147152D01*
X159995764Y-105614918D01*
X159777040Y-106099352D01*
X159593087Y-106597995D01*
X159444803Y-107108407D01*
X159332937Y-107628020D01*
X159314262Y-107759239D01*
X159290854Y-107815959D01*
X159243118Y-107854512D01*
X159182741Y-107865457D01*
X159124509Y-107846114D01*
X159082681Y-107801220D01*
X159067499Y-107741769D01*
X159067499Y-107265492D01*
X159056999Y-107162703D01*
X159001814Y-106996166D01*
X158909712Y-106846844D01*
X158909711Y-106846842D01*
X158785657Y-106722788D01*
X158636334Y-106630686D01*
X158469797Y-106575500D01*
X158367009Y-106565000D01*
X156066991Y-106565000D01*
X155964203Y-106575500D01*
X155797665Y-106630686D01*
X155735485Y-106669039D01*
X155670389Y-106687500D01*
X154866907Y-106687500D01*
X154827903Y-106681206D01*
X154659797Y-106625500D01*
X154557009Y-106615000D01*
X152256991Y-106615000D01*
X152154203Y-106625500D01*
X151986097Y-106681206D01*
X151947093Y-106687500D01*
X151056907Y-106687500D01*
X151017903Y-106681206D01*
X150849797Y-106625500D01*
X150747009Y-106615000D01*
X148446991Y-106615000D01*
X148344203Y-106625500D01*
X148176097Y-106681206D01*
X148137093Y-106687500D01*
X147246907Y-106687500D01*
X147207903Y-106681206D01*
X147039797Y-106625500D01*
X146937009Y-106615000D01*
X144636991Y-106615000D01*
X144534203Y-106625500D01*
X144366097Y-106681206D01*
X144327093Y-106687500D01*
X143523611Y-106687500D01*
X143458515Y-106669039D01*
X143396334Y-106630686D01*
X143229797Y-106575500D01*
X143127009Y-106565000D01*
X140826991Y-106565000D01*
X140724203Y-106575500D01*
X140557665Y-106630686D01*
X140495485Y-106669039D01*
X140430389Y-106687500D01*
X139713611Y-106687500D01*
X139648515Y-106669039D01*
X139586334Y-106630686D01*
X139419797Y-106575500D01*
X139317009Y-106565000D01*
X137016991Y-106565000D01*
X136914203Y-106575500D01*
X136747665Y-106630686D01*
X136685485Y-106669039D01*
X136620389Y-106687500D01*
X135903611Y-106687500D01*
X135838515Y-106669039D01*
X135776334Y-106630686D01*
X135609797Y-106575500D01*
X135507009Y-106565000D01*
X133206991Y-106565000D01*
X133104203Y-106575500D01*
X132937665Y-106630686D01*
X132788342Y-106722788D01*
X132664288Y-106846842D01*
X132572187Y-106996164D01*
X132572186Y-106996166D01*
X132558114Y-107038633D01*
X132514995Y-107168755D01*
X132480258Y-107221903D01*
X132423767Y-107250890D01*
X132360335Y-107248115D01*
X132306591Y-107214307D01*
X132276628Y-107158331D01*
X132222543Y-106929979D01*
X132061141Y-106415796D01*
X131863372Y-105914476D01*
X131630248Y-105428587D01*
X131362965Y-104960619D01*
X131062891Y-104512969D01*
X130731565Y-104087932D01*
X130370683Y-103687683D01*
X129982094Y-103314275D01*
X129567790Y-102969620D01*
X129129894Y-102655485D01*
X128670649Y-102373478D01*
X128576957Y-102324808D01*
X128528138Y-102279143D01*
X128510119Y-102214769D01*
X128510119Y-93625522D01*
X128510102Y-93624968D01*
X128510115Y-93591284D01*
X128510154Y-93481975D01*
X128476236Y-93011631D01*
X128408358Y-92544977D01*
X128306875Y-92084461D01*
X128172320Y-91632501D01*
X128005399Y-91191467D01*
X127806987Y-90763675D01*
X127578127Y-90351368D01*
X127360101Y-90017999D01*
X127320014Y-89956704D01*
X127034017Y-89581776D01*
X126721620Y-89228526D01*
X126384479Y-88898827D01*
X126337447Y-88859061D01*
X126335061Y-88856803D01*
X126203162Y-88745517D01*
X126201525Y-88744112D01*
X126098417Y-88654000D01*
X125404774Y-88047782D01*
X125401619Y-88044926D01*
X124700732Y-87387991D01*
X124630432Y-87322099D01*
X124627336Y-87319094D01*
X124187298Y-86876903D01*
X123881769Y-86569879D01*
X123878811Y-86566802D01*
X123159755Y-85792096D01*
X123156880Y-85788888D01*
X123089721Y-85711283D01*
X122996014Y-85603000D01*
X128371540Y-85603000D01*
X128391326Y-85791257D01*
X128449820Y-85971284D01*
X128544466Y-86135216D01*
X128671129Y-86275889D01*
X128824269Y-86387151D01*
X128997197Y-86464144D01*
X129182352Y-86503500D01*
X129182354Y-86503500D01*
X129371646Y-86503500D01*
X129371648Y-86503500D01*
X129508552Y-86474400D01*
X129556803Y-86464144D01*
X129729730Y-86387151D01*
X129882871Y-86275888D01*
X130009533Y-86135216D01*
X130104179Y-85971284D01*
X130162674Y-85791256D01*
X130182460Y-85603000D01*
X130162674Y-85414744D01*
X130104179Y-85234716D01*
X130104179Y-85234715D01*
X130009533Y-85070783D01*
X129882870Y-84930110D01*
X129729730Y-84818848D01*
X129556802Y-84741855D01*
X129371648Y-84702500D01*
X129371646Y-84702500D01*
X129182354Y-84702500D01*
X129182352Y-84702500D01*
X128997197Y-84741855D01*
X128824269Y-84818848D01*
X128671129Y-84930110D01*
X128544466Y-85070783D01*
X128449820Y-85234715D01*
X128391326Y-85414742D01*
X128371540Y-85603000D01*
X122996014Y-85603000D01*
X122465226Y-84989648D01*
X122462460Y-84986337D01*
X122172868Y-84627171D01*
X122098415Y-84534831D01*
X122071784Y-84471379D01*
X122083083Y-84403498D01*
X122128834Y-84352095D01*
X122194947Y-84333000D01*
X132174636Y-84333000D01*
X132233804Y-84348027D01*
X132278631Y-84389465D01*
X132298254Y-84447271D01*
X132287916Y-84507435D01*
X132250124Y-84555373D01*
X132195529Y-84597266D01*
X132156552Y-84627175D01*
X132111170Y-84672557D01*
X132030836Y-84777250D01*
X131980339Y-84899161D01*
X131963724Y-84961169D01*
X131946500Y-85091999D01*
X131946500Y-88611999D01*
X131928227Y-88676789D01*
X131878795Y-88722484D01*
X131812771Y-88735617D01*
X131749615Y-88712317D01*
X131634730Y-88628848D01*
X131461802Y-88551855D01*
X131276648Y-88512500D01*
X131276646Y-88512500D01*
X131087354Y-88512500D01*
X131087352Y-88512500D01*
X130902197Y-88551855D01*
X130729269Y-88628848D01*
X130576129Y-88740110D01*
X130449466Y-88880783D01*
X130354820Y-89044715D01*
X130296326Y-89224742D01*
X130276540Y-89412999D01*
X130296326Y-89601257D01*
X130354820Y-89781284D01*
X130449466Y-89945215D01*
X130467304Y-89965026D01*
X130495471Y-90017999D01*
X130495472Y-90077995D01*
X130467307Y-90130969D01*
X130449466Y-90150783D01*
X130354820Y-90314715D01*
X130296326Y-90494742D01*
X130276540Y-90682999D01*
X130296326Y-90871257D01*
X130354820Y-91051284D01*
X130449466Y-91215215D01*
X130467304Y-91235026D01*
X130495471Y-91287999D01*
X130495472Y-91347995D01*
X130467307Y-91400969D01*
X130449466Y-91420783D01*
X130354820Y-91584715D01*
X130296326Y-91764742D01*
X130276540Y-91953000D01*
X130296326Y-92141257D01*
X130354820Y-92321284D01*
X130449466Y-92485215D01*
X130467304Y-92505026D01*
X130495471Y-92557999D01*
X130495472Y-92617995D01*
X130467307Y-92670969D01*
X130449466Y-92690783D01*
X130354820Y-92854715D01*
X130296326Y-93034742D01*
X130276540Y-93223000D01*
X130296326Y-93411257D01*
X130354820Y-93591284D01*
X130449466Y-93755216D01*
X130576129Y-93895889D01*
X130729269Y-94007151D01*
X130902197Y-94084144D01*
X131087352Y-94123500D01*
X131087354Y-94123500D01*
X131276646Y-94123500D01*
X131276648Y-94123500D01*
X131400084Y-94097262D01*
X131461803Y-94084144D01*
X131634730Y-94007151D01*
X131787871Y-93895888D01*
X131914533Y-93755216D01*
X132009179Y-93591284D01*
X132067674Y-93411256D01*
X132087460Y-93223000D01*
X132067674Y-93034744D01*
X132027651Y-92911566D01*
X132009179Y-92854715D01*
X131914535Y-92690787D01*
X131914534Y-92690786D01*
X131914533Y-92690784D01*
X131896693Y-92670971D01*
X131868527Y-92617999D01*
X131868527Y-92558001D01*
X131896693Y-92505028D01*
X131914533Y-92485216D01*
X132009179Y-92321284D01*
X132067674Y-92141256D01*
X132087460Y-91953000D01*
X142976540Y-91953000D01*
X142996326Y-92141257D01*
X143054820Y-92321284D01*
X143149466Y-92485216D01*
X143276129Y-92625889D01*
X143429269Y-92737151D01*
X143602197Y-92814144D01*
X143787352Y-92853500D01*
X143787354Y-92853500D01*
X143976646Y-92853500D01*
X143976648Y-92853500D01*
X144100083Y-92827262D01*
X144161803Y-92814144D01*
X144334730Y-92737151D01*
X144487871Y-92625888D01*
X144614533Y-92485216D01*
X144709179Y-92321284D01*
X144767674Y-92141256D01*
X144787460Y-91953000D01*
X144767674Y-91764744D01*
X144724707Y-91632505D01*
X144709179Y-91584715D01*
X144614533Y-91420783D01*
X144487870Y-91280110D01*
X144334730Y-91168848D01*
X144161802Y-91091855D01*
X143976648Y-91052500D01*
X143976646Y-91052500D01*
X143787354Y-91052500D01*
X143787352Y-91052500D01*
X143602197Y-91091855D01*
X143429269Y-91168848D01*
X143276129Y-91280110D01*
X143149466Y-91420783D01*
X143054820Y-91584715D01*
X142996326Y-91764742D01*
X142976540Y-91953000D01*
X132087460Y-91953000D01*
X132067674Y-91764744D01*
X132024707Y-91632505D01*
X132009179Y-91584715D01*
X131914535Y-91420787D01*
X131914534Y-91420786D01*
X131914533Y-91420784D01*
X131896693Y-91400971D01*
X131868527Y-91347999D01*
X131868527Y-91288001D01*
X131896693Y-91235028D01*
X131914533Y-91215216D01*
X132009179Y-91051284D01*
X132067674Y-90871256D01*
X132087460Y-90683000D01*
X132067674Y-90494744D01*
X132009179Y-90314716D01*
X132009179Y-90314715D01*
X131914533Y-90150783D01*
X131896694Y-90130971D01*
X131868527Y-90077997D01*
X131868528Y-90018000D01*
X131896694Y-89965027D01*
X131914533Y-89945216D01*
X132009179Y-89781284D01*
X132067674Y-89601256D01*
X132087460Y-89413000D01*
X132077837Y-89321446D01*
X132087550Y-89258797D01*
X132126965Y-89209134D01*
X132185777Y-89185447D01*
X132248610Y-89193928D01*
X132383161Y-89249660D01*
X132383166Y-89249662D01*
X132445166Y-89266275D01*
X132543291Y-89279193D01*
X132575999Y-89283500D01*
X132576000Y-89283500D01*
X158363000Y-89283500D01*
X158363001Y-89283500D01*
X158389166Y-89280054D01*
X158493834Y-89266275D01*
X158555834Y-89249662D01*
X158677750Y-89199163D01*
X158782442Y-89118829D01*
X158827829Y-89073442D01*
X158908163Y-88968750D01*
X158958662Y-88846834D01*
X158975275Y-88784834D01*
X158992500Y-88654000D01*
X158992500Y-88630452D01*
X158998794Y-88591448D01*
X159056999Y-88415797D01*
X159056998Y-88415797D01*
X159067500Y-88313009D01*
X159067499Y-87387992D01*
X159056999Y-87285203D01*
X159001814Y-87118666D01*
X158909712Y-86969344D01*
X158909711Y-86969342D01*
X158785657Y-86845288D01*
X158636334Y-86753186D01*
X158469797Y-86698000D01*
X158367009Y-86687500D01*
X156066991Y-86687500D01*
X155964203Y-86698000D01*
X155797665Y-86753186D01*
X155648342Y-86845288D01*
X155527450Y-86966181D01*
X155487222Y-86993061D01*
X155439769Y-87002500D01*
X155184231Y-87002500D01*
X155136778Y-86993061D01*
X155096550Y-86966181D01*
X154975657Y-86845288D01*
X154826334Y-86753186D01*
X154659797Y-86698000D01*
X154557009Y-86687500D01*
X152256991Y-86687500D01*
X152154203Y-86698000D01*
X151987665Y-86753186D01*
X151838342Y-86845288D01*
X151717450Y-86966181D01*
X151677222Y-86993061D01*
X151629769Y-87002500D01*
X151374231Y-87002500D01*
X151326778Y-86993061D01*
X151286550Y-86966181D01*
X151165657Y-86845288D01*
X151016334Y-86753186D01*
X150849797Y-86698000D01*
X150747009Y-86687500D01*
X148446991Y-86687500D01*
X148344203Y-86698000D01*
X148177666Y-86753186D01*
X148138627Y-86777265D01*
X148081940Y-86795440D01*
X148023315Y-86785102D01*
X147976264Y-86748633D01*
X147951630Y-86694439D01*
X147955092Y-86635010D01*
X147985847Y-86584048D01*
X148095495Y-86474401D01*
X148231035Y-86280830D01*
X148330903Y-86066663D01*
X148392063Y-85838408D01*
X148412659Y-85603000D01*
X148392063Y-85367592D01*
X148330903Y-85139337D01*
X148231035Y-84925171D01*
X148095495Y-84731599D01*
X147928401Y-84564505D01*
X147742839Y-84434573D01*
X147703975Y-84390257D01*
X147689964Y-84333000D01*
X147703975Y-84275743D01*
X147742839Y-84231426D01*
X147928401Y-84101495D01*
X148095495Y-83934401D01*
X148231035Y-83740830D01*
X148330903Y-83526663D01*
X148392063Y-83298408D01*
X148412659Y-83063000D01*
X148392063Y-82827592D01*
X148330903Y-82599337D01*
X148231035Y-82385171D01*
X148095495Y-82191599D01*
X147928401Y-82024505D01*
X147734830Y-81888965D01*
X147520663Y-81789097D01*
X147459502Y-81772709D01*
X147292407Y-81727936D01*
X147057000Y-81707340D01*
X146821592Y-81727936D01*
X146593336Y-81789097D01*
X146379170Y-81888965D01*
X146185598Y-82024505D01*
X146018505Y-82191598D01*
X145882965Y-82385170D01*
X145783097Y-82599336D01*
X145721936Y-82827592D01*
X145701340Y-83063000D01*
X145721936Y-83298407D01*
X145750184Y-83403829D01*
X145783097Y-83526663D01*
X145882965Y-83740830D01*
X146018505Y-83934401D01*
X146185599Y-84101495D01*
X146371160Y-84231426D01*
X146410024Y-84275743D01*
X146424035Y-84333000D01*
X146410024Y-84390257D01*
X146371159Y-84434575D01*
X146185595Y-84564508D01*
X146018505Y-84731598D01*
X145888575Y-84917159D01*
X145844257Y-84956025D01*
X145787000Y-84970036D01*
X145729743Y-84956025D01*
X145685425Y-84917159D01*
X145555494Y-84731598D01*
X145388404Y-84564508D01*
X145388401Y-84564505D01*
X145194830Y-84428965D01*
X144980663Y-84329097D01*
X144919501Y-84312709D01*
X144752407Y-84267936D01*
X144517000Y-84247340D01*
X144281592Y-84267936D01*
X144053336Y-84329097D01*
X143839170Y-84428965D01*
X143645598Y-84564505D01*
X143478505Y-84731598D01*
X143342965Y-84925170D01*
X143243097Y-85139336D01*
X143181936Y-85367592D01*
X143161340Y-85602999D01*
X143181936Y-85838407D01*
X143226709Y-86005501D01*
X143243097Y-86066663D01*
X143342965Y-86280830D01*
X143478505Y-86474401D01*
X143478508Y-86474404D01*
X143588148Y-86584044D01*
X143618907Y-86635011D01*
X143622369Y-86694440D01*
X143597735Y-86748634D01*
X143550683Y-86785102D01*
X143492058Y-86795440D01*
X143435371Y-86777264D01*
X143396334Y-86753186D01*
X143229797Y-86698000D01*
X143127009Y-86687500D01*
X140826991Y-86687500D01*
X140724203Y-86698000D01*
X140557665Y-86753186D01*
X140408342Y-86845288D01*
X140287450Y-86966181D01*
X140247222Y-86993061D01*
X140199769Y-87002500D01*
X139944231Y-87002500D01*
X139896778Y-86993061D01*
X139856550Y-86966181D01*
X139735657Y-86845288D01*
X139586334Y-86753186D01*
X139419797Y-86698000D01*
X139317009Y-86687500D01*
X137016991Y-86687500D01*
X136914203Y-86698000D01*
X136747665Y-86753186D01*
X136598342Y-86845288D01*
X136477450Y-86966181D01*
X136437222Y-86993061D01*
X136389769Y-87002500D01*
X136134231Y-87002500D01*
X136086778Y-86993061D01*
X136046550Y-86966181D01*
X135925657Y-86845288D01*
X135776334Y-86753186D01*
X135609797Y-86698000D01*
X135507009Y-86687500D01*
X134351499Y-86687500D01*
X134289500Y-86670888D01*
X134244113Y-86625501D01*
X134227500Y-86563501D01*
X134227500Y-85091999D01*
X134213589Y-84986337D01*
X134210275Y-84961166D01*
X134193662Y-84899166D01*
X134143163Y-84777250D01*
X134116003Y-84741855D01*
X134062829Y-84672557D01*
X134017447Y-84627175D01*
X134017442Y-84627171D01*
X133923875Y-84555373D01*
X133886084Y-84507435D01*
X133875746Y-84447271D01*
X133895369Y-84389465D01*
X133940196Y-84348027D01*
X133999364Y-84333000D01*
X135627000Y-84333000D01*
X135627000Y-82598008D01*
X138856500Y-82598008D01*
X138867000Y-82700796D01*
X138922186Y-82867334D01*
X139014288Y-83016657D01*
X139138342Y-83140711D01*
X139138344Y-83140712D01*
X139287666Y-83232814D01*
X139350844Y-83253749D01*
X139454202Y-83287999D01*
X139464702Y-83289071D01*
X139556991Y-83298500D01*
X141857008Y-83298499D01*
X141959797Y-83287999D01*
X142126334Y-83232814D01*
X142275656Y-83140712D01*
X142399712Y-83016656D01*
X142491814Y-82867334D01*
X142546999Y-82700797D01*
X142557500Y-82598009D01*
X142557499Y-81672992D01*
X142546999Y-81570203D01*
X142491814Y-81403666D01*
X142399712Y-81254344D01*
X142399711Y-81254342D01*
X142275657Y-81130288D01*
X142126334Y-81038186D01*
X141959797Y-80983000D01*
X141857009Y-80972500D01*
X141831500Y-80972500D01*
X141769500Y-80955887D01*
X141724113Y-80910500D01*
X141707500Y-80848500D01*
X141707500Y-80832499D01*
X141724113Y-80770499D01*
X141769500Y-80725112D01*
X141831500Y-80708499D01*
X141857009Y-80708499D01*
X141908402Y-80703248D01*
X141959797Y-80697999D01*
X142126334Y-80642814D01*
X142275656Y-80550712D01*
X142303368Y-80523000D01*
X143161340Y-80523000D01*
X143181936Y-80758407D01*
X143221084Y-80904510D01*
X143243097Y-80986663D01*
X143342965Y-81200830D01*
X143478505Y-81394401D01*
X143645599Y-81561495D01*
X143839170Y-81697035D01*
X144053337Y-81796903D01*
X144281592Y-81858063D01*
X144517000Y-81878659D01*
X144752408Y-81858063D01*
X144980663Y-81796903D01*
X145194830Y-81697035D01*
X145388401Y-81561495D01*
X145555495Y-81394401D01*
X145691035Y-81200830D01*
X145749633Y-81075167D01*
X147817494Y-81075167D01*
X147841496Y-81199370D01*
X147860645Y-81257873D01*
X147914732Y-81372230D01*
X147995511Y-81469572D01*
X148029628Y-81501525D01*
X148040449Y-81511660D01*
X148142865Y-81585899D01*
X148260506Y-81632388D01*
X148320149Y-81647674D01*
X148445648Y-81663500D01*
X148892500Y-81663500D01*
X148954500Y-81680113D01*
X148999887Y-81725500D01*
X149016500Y-81787500D01*
X149016500Y-82598008D01*
X149027000Y-82700796D01*
X149085206Y-82876448D01*
X149091500Y-82915452D01*
X149091500Y-82939001D01*
X149108724Y-83069830D01*
X149125339Y-83131838D01*
X149175836Y-83253749D01*
X149256170Y-83358442D01*
X149301557Y-83403829D01*
X149406250Y-83484163D01*
X149508854Y-83526663D01*
X149528166Y-83534662D01*
X149590166Y-83551275D01*
X149688291Y-83564193D01*
X149720999Y-83568500D01*
X149721000Y-83568500D01*
X152013000Y-83568500D01*
X152013001Y-83568500D01*
X152039166Y-83565055D01*
X152143834Y-83551275D01*
X152205834Y-83534662D01*
X152327750Y-83484163D01*
X152432442Y-83403829D01*
X152477829Y-83358442D01*
X152558163Y-83253750D01*
X152608662Y-83131834D01*
X152625275Y-83069834D01*
X152642500Y-82939000D01*
X152642500Y-82915452D01*
X152648794Y-82876448D01*
X152706999Y-82700797D01*
X152706999Y-82700796D01*
X152717500Y-82598009D01*
X152717499Y-81672992D01*
X152706999Y-81570203D01*
X152651814Y-81403666D01*
X152648794Y-81394552D01*
X152642500Y-81355548D01*
X152642500Y-80325452D01*
X152648794Y-80286448D01*
X152706999Y-80110797D01*
X152706999Y-80110796D01*
X152717500Y-80008009D01*
X152717499Y-79082992D01*
X152706999Y-78980203D01*
X152651814Y-78813666D01*
X152648794Y-78804552D01*
X152642500Y-78765548D01*
X152642500Y-78741999D01*
X152632276Y-78664342D01*
X152625275Y-78611166D01*
X152608662Y-78549166D01*
X152558163Y-78427250D01*
X152558162Y-78427249D01*
X152477829Y-78322557D01*
X152432442Y-78277170D01*
X152327749Y-78196836D01*
X152205838Y-78146339D01*
X152143830Y-78129724D01*
X152013001Y-78112500D01*
X152013000Y-78112500D01*
X149721000Y-78112500D01*
X149720999Y-78112500D01*
X149590169Y-78129724D01*
X149528161Y-78146339D01*
X149406250Y-78196836D01*
X149301557Y-78277170D01*
X149256170Y-78322557D01*
X149175836Y-78427250D01*
X149125339Y-78549161D01*
X149108724Y-78611169D01*
X149091500Y-78741999D01*
X149091500Y-78765548D01*
X149085206Y-78804552D01*
X149027000Y-78980202D01*
X149016500Y-79082991D01*
X149016500Y-79258500D01*
X148999887Y-79320500D01*
X148954500Y-79365887D01*
X148892500Y-79382500D01*
X148455252Y-79382500D01*
X148314143Y-79402595D01*
X148247663Y-79421921D01*
X148117775Y-79480607D01*
X148009428Y-79573222D01*
X147963672Y-79625174D01*
X147885488Y-79744348D01*
X147843680Y-79880609D01*
X147843680Y-79880611D01*
X147832907Y-79948993D01*
X147830798Y-80091518D01*
X147833253Y-80110796D01*
X147838646Y-80153151D01*
X147844111Y-80186910D01*
X147847329Y-80203264D01*
X147855052Y-80236545D01*
X147889533Y-80365234D01*
X147893286Y-80386518D01*
X147904282Y-80512191D01*
X147904282Y-80533807D01*
X147893286Y-80659483D01*
X147889533Y-80680767D01*
X147839818Y-80866312D01*
X147838481Y-80876466D01*
X147837417Y-80883134D01*
X147825080Y-80948898D01*
X147817494Y-81075167D01*
X145749633Y-81075167D01*
X145790903Y-80986663D01*
X145852063Y-80758408D01*
X145872659Y-80523000D01*
X145852063Y-80287592D01*
X145790903Y-80059337D01*
X145691035Y-79845171D01*
X145555495Y-79651599D01*
X145388401Y-79484505D01*
X145202839Y-79354573D01*
X145163975Y-79310257D01*
X145149964Y-79253000D01*
X145163975Y-79195743D01*
X145202839Y-79151426D01*
X145388401Y-79021495D01*
X145555495Y-78854401D01*
X145685426Y-78668839D01*
X145729743Y-78629975D01*
X145787000Y-78615964D01*
X145844257Y-78629975D01*
X145888573Y-78668839D01*
X146018505Y-78854401D01*
X146185599Y-79021495D01*
X146379170Y-79157035D01*
X146593337Y-79256903D01*
X146821592Y-79318063D01*
X147057000Y-79338659D01*
X147292408Y-79318063D01*
X147520663Y-79256903D01*
X147734830Y-79157035D01*
X147928401Y-79021495D01*
X148095495Y-78854401D01*
X148231035Y-78660830D01*
X148330903Y-78446663D01*
X148392063Y-78218408D01*
X148412659Y-77983000D01*
X148392063Y-77747592D01*
X148330903Y-77519337D01*
X148231035Y-77305171D01*
X148095495Y-77111599D01*
X147928401Y-76944505D01*
X147742839Y-76814573D01*
X147703975Y-76770257D01*
X147689964Y-76713000D01*
X147703975Y-76655743D01*
X147742839Y-76611426D01*
X147928401Y-76481495D01*
X148095495Y-76314401D01*
X148231035Y-76120830D01*
X148330903Y-75906663D01*
X148392063Y-75678408D01*
X148412659Y-75443000D01*
X148392063Y-75207592D01*
X148330903Y-74979337D01*
X148231035Y-74765171D01*
X148095495Y-74571599D01*
X147928401Y-74404505D01*
X147734830Y-74268965D01*
X147520663Y-74169097D01*
X147459502Y-74152709D01*
X147292407Y-74107936D01*
X147056999Y-74087340D01*
X146821592Y-74107936D01*
X146593336Y-74169097D01*
X146379170Y-74268965D01*
X146185598Y-74404505D01*
X146018505Y-74571598D01*
X145888575Y-74757159D01*
X145844257Y-74796025D01*
X145787000Y-74810036D01*
X145729743Y-74796025D01*
X145685425Y-74757159D01*
X145555494Y-74571598D01*
X145388404Y-74404508D01*
X145388401Y-74404505D01*
X145194830Y-74268965D01*
X144980663Y-74169097D01*
X144919502Y-74152709D01*
X144752407Y-74107936D01*
X144516999Y-74087340D01*
X144281592Y-74107936D01*
X144053336Y-74169097D01*
X143839170Y-74268965D01*
X143645598Y-74404505D01*
X143478505Y-74571598D01*
X143342965Y-74765170D01*
X143243097Y-74979336D01*
X143181936Y-75207592D01*
X143161340Y-75443000D01*
X143181936Y-75678407D01*
X143220948Y-75824000D01*
X143243097Y-75906663D01*
X143342965Y-76120830D01*
X143478505Y-76314401D01*
X143645599Y-76481495D01*
X143831160Y-76611426D01*
X143870024Y-76655743D01*
X143884035Y-76713000D01*
X143870024Y-76770257D01*
X143831159Y-76814575D01*
X143645595Y-76944508D01*
X143478505Y-77111598D01*
X143342965Y-77305170D01*
X143243097Y-77519336D01*
X143181936Y-77747592D01*
X143161340Y-77983000D01*
X143181936Y-78218407D01*
X143225905Y-78382500D01*
X143243097Y-78446663D01*
X143342965Y-78660830D01*
X143478505Y-78854401D01*
X143645599Y-79021495D01*
X143831160Y-79151426D01*
X143870024Y-79195743D01*
X143884035Y-79253000D01*
X143870024Y-79310257D01*
X143831159Y-79354575D01*
X143645595Y-79484508D01*
X143478505Y-79651598D01*
X143342965Y-79845170D01*
X143243097Y-80059336D01*
X143181936Y-80287592D01*
X143161340Y-80523000D01*
X142303368Y-80523000D01*
X142399712Y-80426656D01*
X142491814Y-80277334D01*
X142546999Y-80110797D01*
X142557500Y-80008009D01*
X142557499Y-79082992D01*
X142546999Y-78980203D01*
X142491814Y-78813666D01*
X142399712Y-78664344D01*
X142399711Y-78664342D01*
X142275657Y-78540288D01*
X142126334Y-78448186D01*
X141959797Y-78393000D01*
X141857009Y-78382500D01*
X139556991Y-78382500D01*
X139454203Y-78393000D01*
X139287665Y-78448186D01*
X139138342Y-78540288D01*
X139014288Y-78664342D01*
X138922186Y-78813665D01*
X138867000Y-78980202D01*
X138856500Y-79082990D01*
X138856500Y-80008008D01*
X138867000Y-80110796D01*
X138922186Y-80277334D01*
X139014288Y-80426657D01*
X139138342Y-80550711D01*
X139138344Y-80550712D01*
X139287666Y-80642814D01*
X139370586Y-80670291D01*
X139454202Y-80697999D01*
X139556991Y-80708500D01*
X139582500Y-80708500D01*
X139644500Y-80725113D01*
X139689887Y-80770500D01*
X139706500Y-80832500D01*
X139706500Y-80848501D01*
X139689887Y-80910501D01*
X139644500Y-80955888D01*
X139582500Y-80972501D01*
X139556991Y-80972501D01*
X139454203Y-80983000D01*
X139287665Y-81038186D01*
X139138342Y-81130288D01*
X139014288Y-81254342D01*
X138922186Y-81403665D01*
X138867000Y-81570202D01*
X138856500Y-81672990D01*
X138856500Y-82598008D01*
X135627000Y-82598008D01*
X135627000Y-81416943D01*
X135642027Y-81357775D01*
X135683465Y-81312948D01*
X135741271Y-81293325D01*
X135801436Y-81303664D01*
X135982197Y-81384144D01*
X136167352Y-81423500D01*
X136167354Y-81423500D01*
X136356646Y-81423500D01*
X136356648Y-81423500D01*
X136493547Y-81394401D01*
X136541803Y-81384144D01*
X136714730Y-81307151D01*
X136861073Y-81200827D01*
X136867870Y-81195889D01*
X136994533Y-81055216D01*
X137089179Y-80891284D01*
X137108279Y-80832500D01*
X137147674Y-80711256D01*
X137167460Y-80523000D01*
X137147674Y-80334744D01*
X137115767Y-80236545D01*
X137089179Y-80154715D01*
X136994535Y-79990787D01*
X136994534Y-79990786D01*
X136994533Y-79990784D01*
X136976693Y-79970971D01*
X136948527Y-79917999D01*
X136948527Y-79858001D01*
X136976693Y-79805028D01*
X136994533Y-79785216D01*
X137089179Y-79621284D01*
X137147674Y-79441256D01*
X137167460Y-79253000D01*
X137147674Y-79064744D01*
X137089179Y-78884716D01*
X137089179Y-78884715D01*
X136994533Y-78720783D01*
X136976694Y-78700971D01*
X136948527Y-78647997D01*
X136948528Y-78588000D01*
X136976694Y-78535027D01*
X136994533Y-78515216D01*
X137089179Y-78351284D01*
X137147674Y-78171256D01*
X137167460Y-77983000D01*
X137147674Y-77794744D01*
X137089179Y-77614716D01*
X137089179Y-77614715D01*
X136994535Y-77450787D01*
X136994534Y-77450786D01*
X136994533Y-77450784D01*
X136976693Y-77430971D01*
X136948527Y-77377999D01*
X136948527Y-77318001D01*
X136976693Y-77265028D01*
X136994533Y-77245216D01*
X137089179Y-77081284D01*
X137147674Y-76901256D01*
X137167460Y-76713000D01*
X137147674Y-76524744D01*
X137089179Y-76344716D01*
X137089179Y-76344715D01*
X136994533Y-76180783D01*
X136976694Y-76160971D01*
X136948527Y-76107997D01*
X136948528Y-76048000D01*
X136976694Y-75995027D01*
X136994533Y-75975216D01*
X137089179Y-75811284D01*
X137147674Y-75631256D01*
X137167460Y-75443000D01*
X137147674Y-75254744D01*
X137089179Y-75074716D01*
X137089179Y-75074715D01*
X136994535Y-74910787D01*
X136994534Y-74910786D01*
X136994533Y-74910784D01*
X136976693Y-74890971D01*
X136948527Y-74837999D01*
X136948527Y-74778001D01*
X136976693Y-74725028D01*
X136994533Y-74705216D01*
X137089179Y-74541284D01*
X137147674Y-74361256D01*
X137167460Y-74173000D01*
X137147674Y-73984744D01*
X137089179Y-73804716D01*
X137089179Y-73804715D01*
X136994535Y-73640787D01*
X136994534Y-73640786D01*
X136994533Y-73640784D01*
X136976693Y-73620971D01*
X136948527Y-73567999D01*
X136948527Y-73508001D01*
X136976693Y-73455028D01*
X136994533Y-73435216D01*
X137089179Y-73271284D01*
X137147674Y-73091256D01*
X137167460Y-72903000D01*
X137147674Y-72714744D01*
X137089179Y-72534716D01*
X137089179Y-72534715D01*
X136994535Y-72370787D01*
X136994534Y-72370786D01*
X136994533Y-72370784D01*
X136976693Y-72350971D01*
X136948527Y-72297999D01*
X136948527Y-72238001D01*
X136976693Y-72185028D01*
X136994533Y-72165216D01*
X137089179Y-72001284D01*
X137147674Y-71821256D01*
X137167460Y-71633000D01*
X137147674Y-71444744D01*
X137108466Y-71324075D01*
X137089179Y-71264715D01*
X136994533Y-71100783D01*
X136867870Y-70960110D01*
X136714730Y-70848848D01*
X136541802Y-70771855D01*
X136356648Y-70732500D01*
X136356646Y-70732500D01*
X136167354Y-70732500D01*
X136167352Y-70732500D01*
X135982197Y-70771855D01*
X135801436Y-70852336D01*
X135741271Y-70862675D01*
X135683465Y-70843052D01*
X135642027Y-70798225D01*
X135627000Y-70739057D01*
X135627000Y-70363000D01*
X139166540Y-70363000D01*
X139170522Y-70400888D01*
X139186326Y-70551257D01*
X139244820Y-70731284D01*
X139339466Y-70895216D01*
X139466129Y-71035889D01*
X139619269Y-71147151D01*
X139792197Y-71224144D01*
X139977352Y-71263500D01*
X139977354Y-71263500D01*
X140166646Y-71263500D01*
X140166648Y-71263500D01*
X140330994Y-71228567D01*
X140395093Y-71231926D01*
X140448925Y-71266884D01*
X140478065Y-71324075D01*
X140474706Y-71388174D01*
X140456326Y-71444740D01*
X140436540Y-71632999D01*
X140456326Y-71821257D01*
X140514820Y-72001284D01*
X140609466Y-72165216D01*
X140736129Y-72305889D01*
X140889269Y-72417151D01*
X141062197Y-72494144D01*
X141247352Y-72533500D01*
X141247354Y-72533500D01*
X141436646Y-72533500D01*
X141436648Y-72533500D01*
X141560083Y-72507262D01*
X141621803Y-72494144D01*
X141794730Y-72417151D01*
X141947871Y-72305888D01*
X142074533Y-72165216D01*
X142169179Y-72001284D01*
X142227674Y-71821256D01*
X142247460Y-71633000D01*
X142227674Y-71444744D01*
X142188466Y-71324075D01*
X142169179Y-71264715D01*
X142074533Y-71100783D01*
X141947870Y-70960110D01*
X141794730Y-70848848D01*
X141621802Y-70771855D01*
X141436648Y-70732500D01*
X141436646Y-70732500D01*
X141247354Y-70732500D01*
X141247351Y-70732500D01*
X141083004Y-70767432D01*
X141018905Y-70764073D01*
X140965073Y-70729114D01*
X140935934Y-70671922D01*
X140939292Y-70607827D01*
X140957674Y-70551256D01*
X140977460Y-70363000D01*
X143161340Y-70363000D01*
X143181936Y-70598407D01*
X143217866Y-70732500D01*
X143243097Y-70826663D01*
X143342965Y-71040830D01*
X143478505Y-71234401D01*
X143645599Y-71401495D01*
X143839170Y-71537035D01*
X144053337Y-71636903D01*
X144281592Y-71698063D01*
X144517000Y-71718659D01*
X144752408Y-71698063D01*
X144980663Y-71636903D01*
X145194830Y-71537035D01*
X145388401Y-71401495D01*
X145555495Y-71234401D01*
X145685426Y-71048839D01*
X145729743Y-71009975D01*
X145787000Y-70995964D01*
X145844257Y-71009975D01*
X145888573Y-71048839D01*
X146018505Y-71234401D01*
X146185599Y-71401495D01*
X146379170Y-71537035D01*
X146593337Y-71636903D01*
X146821592Y-71698063D01*
X147057000Y-71718659D01*
X147292408Y-71698063D01*
X147520663Y-71636903D01*
X147734830Y-71537035D01*
X147928401Y-71401495D01*
X148095495Y-71234401D01*
X148231035Y-71040830D01*
X148330903Y-70826663D01*
X148392063Y-70598408D01*
X148412659Y-70363000D01*
X148392063Y-70127592D01*
X148330903Y-69899337D01*
X148231035Y-69685171D01*
X148095495Y-69491599D01*
X147928401Y-69324505D01*
X147742839Y-69194573D01*
X147703974Y-69150255D01*
X147689964Y-69092999D01*
X147703975Y-69035742D01*
X147742837Y-68991428D01*
X147928401Y-68861495D01*
X148095495Y-68694401D01*
X148231035Y-68500830D01*
X148330903Y-68286663D01*
X148392063Y-68058408D01*
X148412659Y-67823000D01*
X148392063Y-67587592D01*
X148330903Y-67359337D01*
X148231035Y-67145171D01*
X148095495Y-66951599D01*
X147928401Y-66784505D01*
X147742839Y-66654573D01*
X147703974Y-66610255D01*
X147689964Y-66552999D01*
X147703975Y-66495742D01*
X147742837Y-66451428D01*
X147928401Y-66321495D01*
X148095495Y-66154401D01*
X148231035Y-65960830D01*
X148330903Y-65746663D01*
X148392063Y-65518408D01*
X148412659Y-65283000D01*
X148392063Y-65047592D01*
X148330903Y-64819337D01*
X148231035Y-64605171D01*
X148095495Y-64411599D01*
X147973568Y-64289672D01*
X147942273Y-64236927D01*
X147940084Y-64175634D01*
X147967537Y-64120789D01*
X148017916Y-64085810D01*
X148149331Y-64036796D01*
X148264546Y-63950546D01*
X148350796Y-63835331D01*
X148401091Y-63700483D01*
X148407500Y-63640873D01*
X148407500Y-63378000D01*
X149580540Y-63378000D01*
X149590433Y-63472128D01*
X149600326Y-63566257D01*
X149658820Y-63746284D01*
X149753466Y-63910216D01*
X149880129Y-64050889D01*
X150033269Y-64162151D01*
X150206197Y-64239144D01*
X150391352Y-64278500D01*
X150391354Y-64278500D01*
X150580646Y-64278500D01*
X150580648Y-64278500D01*
X150740581Y-64244505D01*
X150765803Y-64239144D01*
X150908447Y-64175634D01*
X150943564Y-64159999D01*
X150994000Y-64149278D01*
X151044436Y-64159999D01*
X151222197Y-64239144D01*
X151407352Y-64278500D01*
X151407354Y-64278500D01*
X151596646Y-64278500D01*
X151596648Y-64278500D01*
X151756581Y-64244505D01*
X151781803Y-64239144D01*
X151954730Y-64162151D01*
X152027935Y-64108965D01*
X152107870Y-64050889D01*
X152120560Y-64036796D01*
X152234533Y-63910216D01*
X152329179Y-63746284D01*
X152387674Y-63566256D01*
X152407460Y-63378000D01*
X152387674Y-63189744D01*
X152363237Y-63114537D01*
X152359053Y-63054689D01*
X152383456Y-62999879D01*
X152430732Y-62962942D01*
X152589730Y-62892151D01*
X152589730Y-62892150D01*
X152589732Y-62892150D01*
X152742870Y-62780889D01*
X152776987Y-62742999D01*
X152869533Y-62640216D01*
X152964179Y-62476284D01*
X153022674Y-62296256D01*
X153042460Y-62108000D01*
X153022674Y-61919744D01*
X152964179Y-61739716D01*
X152964179Y-61739715D01*
X152869533Y-61575783D01*
X152742870Y-61435110D01*
X152589730Y-61323848D01*
X152430733Y-61253057D01*
X152383455Y-61216120D01*
X152359053Y-61161310D01*
X152363237Y-61101462D01*
X152387674Y-61026256D01*
X152407460Y-60838000D01*
X152387674Y-60649744D01*
X152363237Y-60574537D01*
X152359053Y-60514689D01*
X152383456Y-60459879D01*
X152430732Y-60422942D01*
X152589730Y-60352151D01*
X152589730Y-60352150D01*
X152589732Y-60352150D01*
X152742870Y-60240889D01*
X152869533Y-60100216D01*
X152964179Y-59936284D01*
X152983025Y-59878283D01*
X153022674Y-59756256D01*
X153042460Y-59568000D01*
X153022674Y-59379744D01*
X152964179Y-59199716D01*
X152964179Y-59199715D01*
X152869533Y-59035783D01*
X152742870Y-58895110D01*
X152589730Y-58783848D01*
X152416802Y-58706855D01*
X152231648Y-58667500D01*
X152231646Y-58667500D01*
X152042354Y-58667500D01*
X152042352Y-58667500D01*
X151857197Y-58706855D01*
X151684269Y-58783848D01*
X151638385Y-58817185D01*
X151591281Y-58838157D01*
X151539719Y-58838157D01*
X151492615Y-58817185D01*
X151446730Y-58783848D01*
X151273802Y-58706855D01*
X151088648Y-58667500D01*
X151088646Y-58667500D01*
X150899354Y-58667500D01*
X150899352Y-58667500D01*
X150714197Y-58706855D01*
X150541269Y-58783848D01*
X150388129Y-58895110D01*
X150261466Y-59035783D01*
X150166820Y-59199715D01*
X150108326Y-59379742D01*
X150088540Y-59567999D01*
X150088540Y-59568000D01*
X150094673Y-59626349D01*
X150108326Y-59756257D01*
X150148812Y-59880859D01*
X150152997Y-59940709D01*
X150128595Y-59995518D01*
X150081318Y-60032456D01*
X150033268Y-60053850D01*
X149880129Y-60165111D01*
X149753466Y-60305783D01*
X149658820Y-60469715D01*
X149600326Y-60649742D01*
X149580540Y-60838000D01*
X149600326Y-61026257D01*
X149658820Y-61206284D01*
X149753466Y-61370216D01*
X149880129Y-61510889D01*
X149996587Y-61595500D01*
X150031089Y-61633818D01*
X150047023Y-61682856D01*
X150041633Y-61734136D01*
X149981326Y-61919742D01*
X149981325Y-61919744D01*
X149981326Y-61919744D01*
X149961540Y-62108000D01*
X149971432Y-62202127D01*
X149981326Y-62296257D01*
X150041633Y-62481863D01*
X150047023Y-62533143D01*
X150031089Y-62582181D01*
X149996588Y-62620499D01*
X149880127Y-62705112D01*
X149753466Y-62845783D01*
X149658820Y-63009715D01*
X149600326Y-63189742D01*
X149600325Y-63189744D01*
X149600326Y-63189744D01*
X149580540Y-63378000D01*
X148407500Y-63378000D01*
X148407499Y-61845128D01*
X148401091Y-61785517D01*
X148350796Y-61650669D01*
X148264546Y-61535454D01*
X148149331Y-61449204D01*
X148014483Y-61398909D01*
X147954873Y-61392500D01*
X147954869Y-61392500D01*
X146159130Y-61392500D01*
X146099515Y-61398909D01*
X145964669Y-61449204D01*
X145849454Y-61535454D01*
X145763204Y-61650669D01*
X145714189Y-61782083D01*
X145679209Y-61832462D01*
X145624365Y-61859915D01*
X145563072Y-61857726D01*
X145510326Y-61826430D01*
X145388404Y-61704508D01*
X145388404Y-61704507D01*
X145388401Y-61704505D01*
X145194830Y-61568965D01*
X144982874Y-61470128D01*
X144938641Y-61435445D01*
X144914265Y-61384796D01*
X144914756Y-61328588D01*
X144940012Y-61278372D01*
X144984842Y-61244467D01*
X145096730Y-61194651D01*
X145096730Y-61194650D01*
X145096732Y-61194650D01*
X145249870Y-61083389D01*
X145376533Y-60942716D01*
X145471179Y-60778784D01*
X145485335Y-60735216D01*
X145529674Y-60598756D01*
X145549460Y-60410500D01*
X145529674Y-60222244D01*
X145499332Y-60128863D01*
X145471179Y-60042215D01*
X145376533Y-59878283D01*
X145249870Y-59737610D01*
X145096730Y-59626348D01*
X144923802Y-59549355D01*
X144738648Y-59510000D01*
X144738646Y-59510000D01*
X144549354Y-59510000D01*
X144549352Y-59510000D01*
X144364197Y-59549355D01*
X144191269Y-59626348D01*
X144038129Y-59737610D01*
X143911466Y-59878283D01*
X143816820Y-60042215D01*
X143758326Y-60222242D01*
X143738540Y-60410499D01*
X143758326Y-60598757D01*
X143816820Y-60778784D01*
X143911466Y-60942716D01*
X144038129Y-61083389D01*
X144191267Y-61194650D01*
X144204375Y-61200486D01*
X144251919Y-61237765D01*
X144276203Y-61293086D01*
X144271463Y-61353317D01*
X144238824Y-61404158D01*
X144186034Y-61433541D01*
X144053335Y-61469097D01*
X143839170Y-61568965D01*
X143645598Y-61704505D01*
X143478505Y-61871598D01*
X143342965Y-62065170D01*
X143243097Y-62279336D01*
X143181936Y-62507592D01*
X143161340Y-62742999D01*
X143181936Y-62978407D01*
X143218413Y-63114539D01*
X143243097Y-63206663D01*
X143342965Y-63420830D01*
X143478505Y-63614401D01*
X143645599Y-63781495D01*
X143831160Y-63911426D01*
X143870024Y-63955743D01*
X143884035Y-64013000D01*
X143870024Y-64070257D01*
X143831159Y-64114575D01*
X143820562Y-64121995D01*
X143653256Y-64239144D01*
X143645595Y-64244508D01*
X143478505Y-64411598D01*
X143342965Y-64605170D01*
X143243097Y-64819336D01*
X143181936Y-65047592D01*
X143161340Y-65283000D01*
X143181936Y-65518407D01*
X143217866Y-65652500D01*
X143243097Y-65746663D01*
X143342965Y-65960830D01*
X143478505Y-66154401D01*
X143645599Y-66321495D01*
X143831160Y-66451426D01*
X143870024Y-66495743D01*
X143884035Y-66553000D01*
X143870024Y-66610257D01*
X143831159Y-66654575D01*
X143645595Y-66784508D01*
X143478505Y-66951598D01*
X143342965Y-67145170D01*
X143243097Y-67359336D01*
X143181936Y-67587592D01*
X143161340Y-67822999D01*
X143181936Y-68058407D01*
X143226709Y-68225501D01*
X143243097Y-68286663D01*
X143342965Y-68500830D01*
X143478505Y-68694401D01*
X143645599Y-68861495D01*
X143831160Y-68991426D01*
X143870024Y-69035743D01*
X143884035Y-69093000D01*
X143870024Y-69150257D01*
X143831159Y-69194575D01*
X143645595Y-69324508D01*
X143478505Y-69491598D01*
X143342965Y-69685170D01*
X143243097Y-69899336D01*
X143181936Y-70127592D01*
X143161340Y-70363000D01*
X140977460Y-70363000D01*
X140957674Y-70174744D01*
X140927332Y-70081363D01*
X140899179Y-69994715D01*
X140804533Y-69830783D01*
X140677870Y-69690110D01*
X140524730Y-69578848D01*
X140351802Y-69501855D01*
X140166648Y-69462500D01*
X140166646Y-69462500D01*
X139977354Y-69462500D01*
X139977352Y-69462500D01*
X139792197Y-69501855D01*
X139619269Y-69578848D01*
X139466129Y-69690110D01*
X139339466Y-69830783D01*
X139244820Y-69994715D01*
X139186326Y-70174742D01*
X139186325Y-70174744D01*
X139186326Y-70174744D01*
X139166540Y-70363000D01*
X135627000Y-70363000D01*
X135627000Y-65282999D01*
X139166540Y-65282999D01*
X139186326Y-65471257D01*
X139244820Y-65651284D01*
X139339466Y-65815216D01*
X139466129Y-65955889D01*
X139619269Y-66067151D01*
X139792197Y-66144144D01*
X139977352Y-66183500D01*
X139977354Y-66183500D01*
X140166646Y-66183500D01*
X140166648Y-66183500D01*
X140330994Y-66148567D01*
X140395093Y-66151926D01*
X140448925Y-66186884D01*
X140478065Y-66244075D01*
X140474706Y-66308174D01*
X140456326Y-66364740D01*
X140436540Y-66552999D01*
X140456326Y-66741257D01*
X140514820Y-66921284D01*
X140609466Y-67085216D01*
X140736129Y-67225889D01*
X140889269Y-67337151D01*
X141062197Y-67414144D01*
X141247352Y-67453500D01*
X141247354Y-67453500D01*
X141436646Y-67453500D01*
X141436648Y-67453500D01*
X141560083Y-67427262D01*
X141621803Y-67414144D01*
X141794730Y-67337151D01*
X141947871Y-67225888D01*
X142074533Y-67085216D01*
X142169179Y-66921284D01*
X142227674Y-66741256D01*
X142247460Y-66553000D01*
X142227674Y-66364744D01*
X142188466Y-66244075D01*
X142169179Y-66184715D01*
X142074533Y-66020783D01*
X141947870Y-65880110D01*
X141794730Y-65768848D01*
X141621802Y-65691855D01*
X141436648Y-65652500D01*
X141436646Y-65652500D01*
X141247354Y-65652500D01*
X141247351Y-65652500D01*
X141083004Y-65687432D01*
X141018905Y-65684073D01*
X140965073Y-65649114D01*
X140935934Y-65591922D01*
X140939292Y-65527827D01*
X140957674Y-65471256D01*
X140977460Y-65283000D01*
X140957674Y-65094744D01*
X140899179Y-64914716D01*
X140899179Y-64914715D01*
X140804533Y-64750783D01*
X140677870Y-64610110D01*
X140524730Y-64498848D01*
X140351802Y-64421855D01*
X140166648Y-64382500D01*
X140166646Y-64382500D01*
X139977354Y-64382500D01*
X139977352Y-64382500D01*
X139792197Y-64421855D01*
X139619269Y-64498848D01*
X139466129Y-64610110D01*
X139339466Y-64750783D01*
X139244820Y-64914715D01*
X139186326Y-65094742D01*
X139166540Y-65282999D01*
X135627000Y-65282999D01*
X135627000Y-59568000D01*
X139166540Y-59568000D01*
X139186326Y-59756257D01*
X139244820Y-59936284D01*
X139339466Y-60100216D01*
X139466129Y-60240889D01*
X139619265Y-60352149D01*
X139672962Y-60376056D01*
X139778267Y-60422942D01*
X139825543Y-60459879D01*
X139849946Y-60514688D01*
X139845761Y-60574538D01*
X139821326Y-60649740D01*
X139801540Y-60838000D01*
X139821326Y-61026257D01*
X139879820Y-61206284D01*
X139974466Y-61370216D01*
X140101129Y-61510889D01*
X140254269Y-61622151D01*
X140427197Y-61699144D01*
X140612352Y-61738500D01*
X140612354Y-61738500D01*
X140801646Y-61738500D01*
X140801648Y-61738500D01*
X140961581Y-61704505D01*
X140986803Y-61699144D01*
X141159730Y-61622151D01*
X141223549Y-61575784D01*
X141269115Y-61542679D01*
X141316219Y-61521707D01*
X141367781Y-61521707D01*
X141414885Y-61542679D01*
X141524269Y-61622151D01*
X141697197Y-61699144D01*
X141882352Y-61738500D01*
X141882354Y-61738500D01*
X142071646Y-61738500D01*
X142071648Y-61738500D01*
X142231581Y-61704505D01*
X142256803Y-61699144D01*
X142429730Y-61622151D01*
X142502936Y-61568964D01*
X142582870Y-61510889D01*
X142709533Y-61370216D01*
X142804179Y-61206284D01*
X142818792Y-61161310D01*
X142862674Y-61026256D01*
X142882460Y-60838000D01*
X142862674Y-60649744D01*
X142818792Y-60514689D01*
X142804179Y-60469715D01*
X142709533Y-60305783D01*
X142582870Y-60165110D01*
X142429730Y-60053848D01*
X142270733Y-59983057D01*
X142223455Y-59946120D01*
X142199053Y-59891310D01*
X142203237Y-59831462D01*
X142227674Y-59756256D01*
X142247460Y-59568000D01*
X142227674Y-59379744D01*
X142169179Y-59199716D01*
X142169179Y-59199715D01*
X142074533Y-59035783D01*
X141947870Y-58895110D01*
X141794730Y-58783848D01*
X141621802Y-58706855D01*
X141436648Y-58667500D01*
X141436646Y-58667500D01*
X141247354Y-58667500D01*
X141247352Y-58667500D01*
X141062197Y-58706855D01*
X140889269Y-58783848D01*
X140779885Y-58863321D01*
X140732781Y-58884293D01*
X140681219Y-58884293D01*
X140634115Y-58863321D01*
X140524730Y-58783848D01*
X140351802Y-58706855D01*
X140166648Y-58667500D01*
X140166646Y-58667500D01*
X139977354Y-58667500D01*
X139977352Y-58667500D01*
X139792197Y-58706855D01*
X139619269Y-58783848D01*
X139466129Y-58895110D01*
X139339466Y-59035783D01*
X139244820Y-59199715D01*
X139186326Y-59379742D01*
X139166540Y-59568000D01*
X135627000Y-59568000D01*
X135627000Y-58422000D01*
X135643613Y-58360000D01*
X135689000Y-58314613D01*
X135751000Y-58298000D01*
X155823000Y-58298000D01*
X155885000Y-58314613D01*
G37*
%TD.AperFunction*%
%TD*%
D21*
X126847517Y-122086374D02*
X141398465Y-122083355D01*
X150342190Y-122084556D02*
G75*
G03*
X141398465Y-122083355I-4471930J-501814D01*
G01*
X166347072Y-104451099D02*
G75*
G03*
X166347073Y-113449221I389848J-4499061D01*
G01*
X164847517Y-122086517D02*
G75*
G03*
X166347517Y-120586503I-17J1500017D01*
G01*
X166347073Y-113449222D02*
X166347517Y-120586503D01*
X167579138Y-90948252D02*
G75*
G03*
X179370262Y-65434046I-21708888J25514212D01*
G01*
X125509571Y-93716347D02*
G75*
G03*
X124267370Y-91038052I-3504871J1647D01*
G01*
X125347517Y-120586374D02*
X125347517Y-113433715D01*
X125347517Y-113433715D02*
G75*
G03*
X125509619Y-104435721I-384537J4507385D01*
G01*
X125347526Y-120586374D02*
G75*
G03*
X126847517Y-122086374I1499974J-26D01*
G01*
X167579165Y-90948283D02*
G75*
G03*
X166347073Y-93614254I2268335J-2666017D01*
G01*
X166347073Y-93614254D02*
X166347073Y-104451107D01*
X125509619Y-93716347D02*
X125509619Y-104435720D01*
X112370266Y-65434046D02*
G75*
G03*
X124267371Y-91038050I33499954J-24D01*
G01*
X179370262Y-65434046D02*
G75*
G03*
X112370262Y-65434046I-33500000J0D01*
G01*
X150342194Y-122084556D02*
X164847517Y-122086503D01*
M02*
