M48
; DRILL file {KiCad 7.0.1} date Thu Dec 14 23:22:26 2023
; FORMAT={-:-/ absolute / inch / decimal}
; #@! TF.CreationDate,2023-12-14T23:22:26+03:00
; #@! TF.GenerationSoftware,Kicad,Pcbnew,7.0.1
; #@! TF.FileFunction,Plated,1,6,PTH
FMAT,2
INCH
; #@! TA.AperFunction,Plated,PTH,ViaDrill
T1C0.0157
; #@! TA.AperFunction,Plated,PTH,ComponentDrill
T2C0.0394
; #@! TA.AperFunction,Plated,PTH,ComponentDrill
T3C0.0472
; #@! TA.AperFunction,Plated,PTH,ComponentDrill
T4C0.1181
; #@! TA.AperFunction,Plated,PTH,ComponentDrill
T5C0.1260
%
G90
G05
T1
X4.6146Y-2.7452
X4.6646Y-2.3202
X4.6646Y-2.3702
X4.6646Y-2.4202
X4.6646Y-2.4702
X4.6646Y-2.5202
X4.6646Y-2.5702
X4.6646Y-2.6202
X4.6743Y-2.8848
X4.6746Y-2.9252
X4.7146Y-2.9252
X4.7446Y-2.9852
X4.7546Y-2.7452
X4.7896Y-2.3702
X4.7896Y-2.4202
X4.7896Y-2.4702
X4.7896Y-2.5202
X4.7896Y-2.5702
X4.8396Y-2.8452
X4.8396Y-2.8952
X4.8396Y-2.9452
X4.8396Y-2.9952
X4.8396Y-3.0452
X4.8396Y-3.0952
X4.8396Y-3.1452
X4.9146Y-2.3202
X4.9146Y-2.3702
X4.9146Y-2.4202
X4.9146Y-2.4702
X4.9146Y-2.5202
X4.9146Y-2.5702
X4.9146Y-2.6202
X4.9646Y-2.8952
X4.9646Y-2.9452
X4.9646Y-2.9952
X4.9646Y-3.0452
X4.9646Y-3.0952
X5.0896Y-2.8452
X5.0896Y-2.8952
X5.0896Y-2.9452
X5.0896Y-2.9952
X5.0896Y-3.0452
X5.0896Y-3.0952
X5.0896Y-3.1452
X5.0896Y-3.3702
X5.1646Y-3.5202
X5.1646Y-3.5702
X5.1646Y-3.6202
X5.1646Y-3.6702
X5.1896Y-2.2952
X5.1896Y-2.3452
X5.1896Y-2.3952
X5.1896Y-2.4452
X5.1896Y-2.4952
X5.1896Y-2.5452
X5.1896Y-2.5952
X5.1896Y-2.6452
X5.2396Y-3.3702
X5.2646Y-1.6952
X5.2646Y-1.9452
X5.2646Y-2.2202
X5.3146Y-1.6952
X5.3146Y-1.8202
X5.3146Y-1.9452
X5.3146Y-2.2202
X5.3646Y-1.6952
X5.3646Y-1.8202
X5.3646Y-1.9452
X5.3646Y-2.2202
X5.3646Y-2.8202
X5.3646Y-2.8702
X5.3646Y-2.9202
X5.3646Y-2.9702
X5.3646Y-3.0202
X5.3646Y-3.0702
X5.3646Y-3.1202
X5.3646Y-3.1702
X5.3646Y-3.6837
X5.3646Y-3.8702
X5.3646Y-3.9202
X5.3646Y-4.0702
X5.4146Y-1.6952
X5.4146Y-1.8202
X5.4146Y-1.9452
X5.4146Y-2.2202
X5.4646Y-1.6952
X5.4646Y-1.8202
X5.4646Y-1.9452
X5.4646Y-2.2202
X5.5146Y-1.6952
X5.5146Y-1.8202
X5.5146Y-1.9452
X5.5146Y-2.2202
X5.5146Y-2.3452
X5.5146Y-2.5702
X5.5146Y-2.7702
X5.5146Y-3.8702
X5.5146Y-3.9202
X5.5146Y-4.0702
X5.5166Y-3.6832
X5.5396Y-2.3952
X5.5396Y-3.1812
X5.5646Y-1.6952
X5.5646Y-1.9452
X5.5646Y-2.2202
X5.5646Y-2.3452
X5.5646Y-2.6202
X5.5646Y-2.8202
X5.5896Y-2.3952
X5.6146Y-2.2202
X5.6646Y-3.6202
X5.6646Y-3.8702
X5.6646Y-3.9202
X5.6846Y-2.0334
X5.6946Y-2.3784
X5.7146Y-2.1434
X5.7546Y-2.1434
X5.7946Y-2.1434
X5.7946Y-2.2034
X5.8596Y-2.2452
X5.9046Y-1.6952
X5.9046Y-1.9452
X5.9146Y-2.2452
X5.9246Y-2.3952
X5.9246Y-2.4952
X5.9396Y-2.4452
X5.9396Y-3.1702
X5.9446Y-2.3452
X5.9546Y-1.6952
X5.9546Y-1.8202
X5.9546Y-1.9452
X5.9646Y-2.2452
X5.9646Y-2.3952
X5.9646Y-2.4952
X5.9896Y-2.3452
X5.9896Y-2.4452
X6.0046Y-1.6952
X6.0046Y-1.8202
X6.0046Y-1.9452
X6.0146Y-2.2452
X6.0546Y-1.6952
X6.0546Y-1.8202
X6.0546Y-1.9452
X6.0646Y-2.2452
X6.0896Y-3.3952
X6.1046Y-1.6952
X6.1046Y-1.8202
X6.1046Y-1.9452
X6.1146Y-2.2452
X6.1146Y-2.8202
X6.1146Y-2.8702
X6.1146Y-2.9202
X6.1146Y-2.9702
X6.1146Y-3.0202
X6.1146Y-3.0702
X6.1146Y-3.1202
X6.1146Y-3.1702
X6.1396Y-3.3952
X6.1546Y-1.6952
X6.1546Y-1.8202
X6.1546Y-1.9452
X6.1646Y-2.2452
X6.1896Y-3.3952
X6.2046Y-1.6952
X6.2046Y-1.9452
X6.2146Y-2.2452
X6.2396Y-3.3952
X6.2646Y-2.2952
X6.2646Y-2.3452
X6.2646Y-2.3952
X6.2646Y-2.4452
X6.2646Y-2.4952
X6.2646Y-2.5452
X6.2646Y-2.5952
X6.2646Y-2.6452
X6.2646Y-3.5452
X6.2896Y-3.3952
X6.2896Y-3.4952
X6.2896Y-3.5952
X6.2896Y-3.6452
X6.3146Y-3.4452
X6.3146Y-3.5452
X6.3396Y-3.3952
X6.3396Y-3.4952
X6.3396Y-3.5952
X6.3396Y-3.6452
X6.3646Y-3.4452
X6.3896Y-2.8452
X6.3896Y-2.8952
X6.3896Y-2.9452
X6.3896Y-2.9952
X6.3896Y-3.0452
X6.3896Y-3.0952
X6.3896Y-3.1452
X6.3896Y-3.3952
X6.3896Y-3.9702
X6.5146Y-2.8952
X6.5146Y-2.9452
X6.5146Y-2.9952
X6.5146Y-3.0452
X6.5146Y-3.0952
X6.5646Y-2.3202
X6.5646Y-2.3702
X6.5646Y-2.4202
X6.5646Y-2.4702
X6.5646Y-2.5202
X6.5646Y-2.5702
X6.5646Y-2.6202
X6.6396Y-2.8452
X6.6396Y-2.8952
X6.6396Y-2.9452
X6.6396Y-2.9952
X6.6396Y-3.0452
X6.6396Y-3.0952
X6.6396Y-3.1452
X6.6896Y-2.3702
X6.6896Y-2.4202
X6.6896Y-2.4702
X6.6896Y-2.5202
X6.6896Y-2.5702
X6.7246Y-2.7352
X6.7546Y-2.9252
X6.7945Y-2.925
X6.8146Y-2.3202
X6.8146Y-2.3702
X6.8146Y-2.4202
X6.8146Y-2.4702
X6.8146Y-2.5202
X6.8146Y-2.5702
X6.8146Y-2.6202
X6.8246Y-3.0452
X6.8346Y-2.9252
X6.8646Y-2.7352
T2
X5.2896Y-4.3503
X5.2896Y-4.6456
X5.6896Y-2.4702
X5.6896Y-2.5702
X5.6896Y-2.6702
X5.6896Y-2.7702
X5.6896Y-2.8702
X5.6896Y-2.9702
X5.6896Y-3.0702
X5.6896Y-3.1702
X5.6896Y-3.2702
X5.6896Y-3.3702
X5.7896Y-2.4702
X5.7896Y-2.5702
X5.7896Y-2.6702
X5.7896Y-2.7702
X5.7896Y-2.8702
X5.7896Y-2.9702
X5.7896Y-3.0702
X5.7896Y-3.1702
X5.7896Y-3.2702
X5.7896Y-3.3702
X6.1896Y-4.3503
X6.1896Y-4.6456
T3
X4.8646Y-2.0702
X5.7396Y-1.4952
X6.6146Y-2.0702
T4
X5.5396Y-4.4308
X5.9396Y-4.4308
T5
X5.0646Y-4.6952
X6.4396Y-4.6952
T0
M30
