%TF.GenerationSoftware,KiCad,Pcbnew,7.0.1*%
%TF.CreationDate,2023-12-14T23:22:24+03:00*%
%TF.ProjectId,_______ _____,21383b3e-3230-44f2-903f-3b3042302e6b,rev?*%
%TF.SameCoordinates,Original*%
%TF.FileFunction,Copper,L1,Top*%
%TF.FilePolarity,Positive*%
%FSLAX46Y46*%
G04 Gerber Fmt 4.6, Leading zero omitted, Abs format (unit mm)*
G04 Created by KiCad (PCBNEW 7.0.1) date 2023-12-14 23:22:24*
%MOMM*%
%LPD*%
G01*
G04 APERTURE LIST*
G04 Aperture macros list*
%AMRoundRect*
0 Rectangle with rounded corners*
0 $1 Rounding radius*
0 $2 $3 $4 $5 $6 $7 $8 $9 X,Y pos of 4 corners*
0 Add a 4 corners polygon primitive as box body*
4,1,4,$2,$3,$4,$5,$6,$7,$8,$9,$2,$3,0*
0 Add four circle primitives for the rounded corners*
1,1,$1+$1,$2,$3*
1,1,$1+$1,$4,$5*
1,1,$1+$1,$6,$7*
1,1,$1+$1,$8,$9*
0 Add four rect primitives between the rounded corners*
20,1,$1+$1,$2,$3,$4,$5,0*
20,1,$1+$1,$4,$5,$6,$7,0*
20,1,$1+$1,$6,$7,$8,$9,0*
20,1,$1+$1,$8,$9,$2,$3,0*%
G04 Aperture macros list end*
%TA.AperFunction,SMDPad,CuDef*%
%ADD10RoundRect,0.250000X1.100000X-0.412500X1.100000X0.412500X-1.100000X0.412500X-1.100000X-0.412500X0*%
%TD*%
%TA.AperFunction,ComponentPad*%
%ADD11C,8.200000*%
%TD*%
%TA.AperFunction,SMDPad,CuDef*%
%ADD12R,2.800000X0.900000*%
%TD*%
%TA.AperFunction,SMDPad,CuDef*%
%ADD13R,1.550000X10.100000*%
%TD*%
%TA.AperFunction,SMDPad,CuDef*%
%ADD14R,2.750000X8.700000*%
%TD*%
%TA.AperFunction,SMDPad,CuDef*%
%ADD15R,3.700000X9.700000*%
%TD*%
%TA.AperFunction,SMDPad,CuDef*%
%ADD16RoundRect,0.237500X-0.300000X-0.237500X0.300000X-0.237500X0.300000X0.237500X-0.300000X0.237500X0*%
%TD*%
%TA.AperFunction,ComponentPad*%
%ADD17C,6.000000*%
%TD*%
%TA.AperFunction,SMDPad,CuDef*%
%ADD18R,0.900000X2.800000*%
%TD*%
%TA.AperFunction,SMDPad,CuDef*%
%ADD19R,10.100000X1.550000*%
%TD*%
%TA.AperFunction,SMDPad,CuDef*%
%ADD20R,8.700000X2.750000*%
%TD*%
%TA.AperFunction,SMDPad,CuDef*%
%ADD21R,9.700000X3.700000*%
%TD*%
%TA.AperFunction,SMDPad,CuDef*%
%ADD22RoundRect,0.100000X0.100000X-0.712500X0.100000X0.712500X-0.100000X0.712500X-0.100000X-0.712500X0*%
%TD*%
%TA.AperFunction,ComponentPad*%
%ADD23R,1.700000X1.700000*%
%TD*%
%TA.AperFunction,ComponentPad*%
%ADD24O,1.700000X1.700000*%
%TD*%
%TA.AperFunction,ComponentPad*%
%ADD25C,2.000000*%
%TD*%
%TA.AperFunction,SMDPad,CuDef*%
%ADD26RoundRect,0.100000X-0.100000X0.712500X-0.100000X-0.712500X0.100000X-0.712500X0.100000X0.712500X0*%
%TD*%
%TA.AperFunction,SMDPad,CuDef*%
%ADD27RoundRect,0.250000X-1.100000X0.412500X-1.100000X-0.412500X1.100000X-0.412500X1.100000X0.412500X0*%
%TD*%
%TA.AperFunction,SMDPad,CuDef*%
%ADD28RoundRect,0.249999X-0.450001X-1.425001X0.450001X-1.425001X0.450001X1.425001X-0.450001X1.425001X0*%
%TD*%
%TA.AperFunction,ComponentPad*%
%ADD29C,5.000000*%
%TD*%
%TA.AperFunction,SMDPad,CuDef*%
%ADD30RoundRect,0.225000X0.375000X-0.225000X0.375000X0.225000X-0.375000X0.225000X-0.375000X-0.225000X0*%
%TD*%
%TA.AperFunction,SMDPad,CuDef*%
%ADD31RoundRect,0.250000X-0.450000X0.350000X-0.450000X-0.350000X0.450000X-0.350000X0.450000X0.350000X0*%
%TD*%
%TA.AperFunction,ViaPad*%
%ADD32C,0.800000*%
%TD*%
%TA.AperFunction,Conductor*%
%ADD33C,0.500000*%
%TD*%
%TA.AperFunction,Conductor*%
%ADD34C,0.250000*%
%TD*%
%TA.AperFunction,Conductor*%
%ADD35C,1.000000*%
%TD*%
%TA.AperFunction,Profile*%
%ADD36C,0.200000*%
%TD*%
G04 APERTURE END LIST*
D10*
%TO.P,C12,1*%
%TO.N,Shunt_1*%
X141977000Y-96690500D03*
%TO.P,C12,2*%
%TO.N,GND*%
X141977000Y-93565500D03*
%TD*%
D11*
%TO.P,J7,1,Pin_1*%
%TO.N,C*%
X123562000Y-52583000D03*
%TD*%
%TO.P,J5,1,Pin_1*%
%TO.N,A*%
X168012000Y-52583000D03*
%TD*%
D10*
%TO.P,C13,1*%
%TO.N,Shunt_1*%
X141977000Y-107778000D03*
%TO.P,C13,2*%
%TO.N,GND*%
X141977000Y-104653000D03*
%TD*%
D12*
%TO.P,Q7,1,G*%
%TO.N,G6*%
X129272000Y-66943000D03*
%TO.P,Q7,2,S*%
%TO.N,GND*%
X129272000Y-65743000D03*
X129272000Y-64543000D03*
X129272000Y-63343000D03*
X129272000Y-62143000D03*
X129272000Y-60943000D03*
X129272000Y-59743000D03*
X129272000Y-58543000D03*
D13*
%TO.P,Q7,3,D*%
%TO.N,C*%
X118422000Y-62743000D03*
D14*
X120572000Y-62743000D03*
D15*
X123797000Y-62743000D03*
%TD*%
D16*
%TO.P,C47,1*%
%TO.N,+3.3V*%
X144797500Y-59267500D03*
%TO.P,C47,2*%
%TO.N,GND*%
X146522500Y-59267500D03*
%TD*%
D10*
%TO.P,C10,1*%
%TO.N,Shunt_1*%
X138167000Y-107778000D03*
%TO.P,C10,2*%
%TO.N,GND*%
X138167000Y-104653000D03*
%TD*%
D17*
%TO.P,J3,1,Pin_1*%
%TO.N,Shunt_1*%
X140707000Y-112543000D03*
%TD*%
D18*
%TO.P,Q1,1,G*%
%TO.N,Net-(D1-K)*%
X157607000Y-95768000D03*
%TO.P,Q1,2,S*%
%TO.N,GND*%
X156407000Y-95768000D03*
X155207000Y-95768000D03*
X154007000Y-95768000D03*
X152807000Y-95768000D03*
X151607000Y-95768000D03*
X150407000Y-95768000D03*
X149207000Y-95768000D03*
D19*
%TO.P,Q1,3,D*%
%TO.N,Net-(J2-Pin_1)*%
X153407000Y-106618000D03*
D20*
X153407000Y-104468000D03*
D21*
X153407000Y-101243000D03*
%TD*%
D22*
%TO.P,D2,1,SDA*%
%TO.N,SDA_MCU*%
X171650000Y-75904500D03*
%TO.P,D2,2,SCL*%
%TO.N,SCL_MCU*%
X172300000Y-75904500D03*
%TO.P,D2,3,~{OS}/INT*%
%TO.N,~{OS}_MCU*%
X172950000Y-75904500D03*
%TO.P,D2,4,GND*%
%TO.N,GND*%
X173600000Y-75904500D03*
%TO.P,D2,5,A2*%
X173600000Y-71679500D03*
%TO.P,D2,6,A1*%
X172950000Y-71679500D03*
%TO.P,D2,7,A0*%
%TO.N,+3.3V*%
X172300000Y-71679500D03*
%TO.P,D2,8,VDD*%
X171650000Y-71679500D03*
%TD*%
D10*
%TO.P,C35,1*%
%TO.N,Shunt_1*%
X134357000Y-96690500D03*
%TO.P,C35,2*%
%TO.N,GND*%
X134357000Y-93565500D03*
%TD*%
D23*
%TO.P,J4,1,Pin_1*%
%TO.N,+3.3V*%
X147057000Y-62743000D03*
D24*
%TO.P,J4,2,Pin_2*%
%TO.N,~{OS}_MCU*%
X144517000Y-62743000D03*
%TO.P,J4,3,Pin_3*%
%TO.N,G3*%
X147057000Y-65283000D03*
%TO.P,J4,4,Pin_4*%
%TO.N,SCL_MCU*%
X144517000Y-65283000D03*
%TO.P,J4,5,Pin_5*%
%TO.N,B*%
X147057000Y-67823000D03*
%TO.P,J4,6,Pin_6*%
%TO.N,SDA_MCU*%
X144517000Y-67823000D03*
%TO.P,J4,7,Pin_7*%
%TO.N,G2*%
X147057000Y-70363000D03*
%TO.P,J4,8,Pin_8*%
%TO.N,G4*%
X144517000Y-70363000D03*
%TO.P,J4,9,Pin_9*%
%TO.N,GND*%
X147057000Y-72903000D03*
%TO.P,J4,10,Pin_10*%
X144517000Y-72903000D03*
%TO.P,J4,11,Pin_11*%
%TO.N,G1*%
X147057000Y-75443000D03*
%TO.P,J4,12,Pin_12*%
%TO.N,G6*%
X144517000Y-75443000D03*
%TO.P,J4,13,Pin_13*%
%TO.N,A*%
X147057000Y-77983000D03*
%TO.P,J4,14,Pin_14*%
%TO.N,C*%
X144517000Y-77983000D03*
%TO.P,J4,15,Pin_15*%
%TO.N,GND*%
X147057000Y-80523000D03*
%TO.P,J4,16,Pin_16*%
%TO.N,G5*%
X144517000Y-80523000D03*
%TO.P,J4,17,Pin_17*%
%TO.N,Shunt_1*%
X147057000Y-83063000D03*
%TO.P,J4,18,Pin_18*%
%TO.N,GND*%
X144517000Y-83063000D03*
%TO.P,J4,19,Pin_19*%
%TO.N,Shunt_1*%
X147057000Y-85603000D03*
%TO.P,J4,20,Pin_20*%
%TO.N,Shunt_2*%
X144517000Y-85603000D03*
%TD*%
D11*
%TO.P,J6,1,Pin_1*%
%TO.N,B*%
X145787000Y-37978000D03*
%TD*%
D12*
%TO.P,Q6,1,G*%
%TO.N,G5*%
X133717000Y-80278000D03*
%TO.P,Q6,2,S*%
%TO.N,C*%
X133717000Y-79078000D03*
X133717000Y-77878000D03*
X133717000Y-76678000D03*
X133717000Y-75478000D03*
X133717000Y-74278000D03*
X133717000Y-73078000D03*
X133717000Y-71878000D03*
D13*
%TO.P,Q6,3,D*%
%TO.N,Shunt_2*%
X122867000Y-76078000D03*
D14*
X125017000Y-76078000D03*
D15*
X128242000Y-76078000D03*
%TD*%
D25*
%TO.P,C7,1*%
%TO.N,Earth_Protective*%
X157217000Y-117998000D03*
%TO.P,C7,2*%
%TO.N,Net-(J2-Pin_1)*%
X157217000Y-110498000D03*
%TD*%
D26*
%TO.P,D3,1,SDA*%
%TO.N,SDA_MCU*%
X146635000Y-53010500D03*
%TO.P,D3,2,SCL*%
%TO.N,SCL_MCU*%
X145985000Y-53010500D03*
%TO.P,D3,3,~{OS}/INT*%
%TO.N,~{OS}_MCU*%
X145335000Y-53010500D03*
%TO.P,D3,4,GND*%
%TO.N,GND*%
X144685000Y-53010500D03*
%TO.P,D3,5,A2*%
X144685000Y-57235500D03*
%TO.P,D3,6,A1*%
%TO.N,+3.3V*%
X145335000Y-57235500D03*
%TO.P,D3,7,A0*%
%TO.N,GND*%
X145985000Y-57235500D03*
%TO.P,D3,8,VDD*%
%TO.N,+3.3V*%
X146635000Y-57235500D03*
%TD*%
D27*
%TO.P,C21,1*%
%TO.N,Shunt_1*%
X138167000Y-99280500D03*
%TO.P,C21,2*%
%TO.N,GND*%
X138167000Y-102405500D03*
%TD*%
D16*
%TO.P,C48,1*%
%TO.N,+3.3V*%
X118127500Y-69728000D03*
%TO.P,C48,2*%
%TO.N,GND*%
X119852500Y-69728000D03*
%TD*%
D17*
%TO.P,J2,1,Pin_1*%
%TO.N,Net-(J2-Pin_1)*%
X150867000Y-112543000D03*
%TD*%
D10*
%TO.P,C39,1*%
%TO.N,Shunt_1*%
X134357000Y-107778000D03*
%TO.P,C39,2*%
%TO.N,GND*%
X134357000Y-104653000D03*
%TD*%
D28*
%TO.P,R1,1*%
%TO.N,Shunt_1*%
X131307000Y-86873000D03*
%TO.P,R1,2*%
%TO.N,Shunt_2*%
X137407000Y-86873000D03*
%TD*%
D18*
%TO.P,Q5,1,G*%
%TO.N,G4*%
X133332000Y-53848000D03*
%TO.P,Q5,2,S*%
%TO.N,GND*%
X134532000Y-53848000D03*
X135732000Y-53848000D03*
X136932000Y-53848000D03*
X138132000Y-53848000D03*
X139332000Y-53848000D03*
X140532000Y-53848000D03*
X141732000Y-53848000D03*
D19*
%TO.P,Q5,3,D*%
%TO.N,B*%
X137532000Y-42998000D03*
D20*
X137532000Y-45148000D03*
D21*
X137532000Y-48373000D03*
%TD*%
D29*
%TO.P,H3,*%
%TO.N,Earth_Protective*%
X128642000Y-119258000D03*
%TD*%
D12*
%TO.P,Q3,1,G*%
%TO.N,G2*%
X162297000Y-58543000D03*
%TO.P,Q3,2,S*%
%TO.N,GND*%
X162297000Y-59743000D03*
X162297000Y-60943000D03*
X162297000Y-62143000D03*
X162297000Y-63343000D03*
X162297000Y-64543000D03*
X162297000Y-65743000D03*
X162297000Y-66943000D03*
D13*
%TO.P,Q3,3,D*%
%TO.N,A*%
X173147000Y-62743000D03*
D14*
X170997000Y-62743000D03*
D15*
X167772000Y-62743000D03*
%TD*%
D30*
%TO.P,D1,1,K*%
%TO.N,Net-(D1-K)*%
X161027000Y-97158000D03*
%TO.P,D1,2,A*%
%TO.N,GND*%
X161027000Y-93858000D03*
%TD*%
D27*
%TO.P,C45,1*%
%TO.N,Shunt_1*%
X141977000Y-99280500D03*
%TO.P,C45,2*%
%TO.N,GND*%
X141977000Y-102405500D03*
%TD*%
D25*
%TO.P,C8,1*%
%TO.N,Shunt_1*%
X134357000Y-110498000D03*
%TO.P,C8,2*%
%TO.N,Earth_Protective*%
X134357000Y-117998000D03*
%TD*%
D27*
%TO.P,C20,1*%
%TO.N,Shunt_1*%
X134357000Y-99280500D03*
%TO.P,C20,2*%
%TO.N,GND*%
X134357000Y-102405500D03*
%TD*%
D16*
%TO.P,C46,1*%
%TO.N,+3.3V*%
X171721500Y-69728000D03*
%TO.P,C46,2*%
%TO.N,GND*%
X173446500Y-69728000D03*
%TD*%
D31*
%TO.P,R2,1*%
%TO.N,Net-(D1-K)*%
X161027000Y-99208000D03*
%TO.P,R2,2*%
%TO.N,Shunt_1*%
X161027000Y-101208000D03*
%TD*%
D18*
%TO.P,Q4,1,G*%
%TO.N,G3*%
X149588000Y-53867000D03*
%TO.P,Q4,2,S*%
%TO.N,B*%
X150788000Y-53867000D03*
X151988000Y-53867000D03*
X153188000Y-53867000D03*
X154388000Y-53867000D03*
X155588000Y-53867000D03*
X156788000Y-53867000D03*
X157988000Y-53867000D03*
D19*
%TO.P,Q4,3,D*%
%TO.N,Shunt_2*%
X153788000Y-43017000D03*
D20*
X153788000Y-45167000D03*
D21*
X153788000Y-48392000D03*
%TD*%
D12*
%TO.P,Q2,1,G*%
%TO.N,G1*%
X157857000Y-71878000D03*
%TO.P,Q2,2,S*%
%TO.N,A*%
X157857000Y-73078000D03*
X157857000Y-74278000D03*
X157857000Y-75478000D03*
X157857000Y-76678000D03*
X157857000Y-77878000D03*
X157857000Y-79078000D03*
X157857000Y-80278000D03*
D13*
%TO.P,Q2,3,D*%
%TO.N,Shunt_2*%
X168707000Y-76078000D03*
D14*
X166557000Y-76078000D03*
D15*
X163332000Y-76078000D03*
%TD*%
D29*
%TO.P,H4,*%
%TO.N,Earth_Protective*%
X163567000Y-119258000D03*
%TD*%
D10*
%TO.P,C1,1*%
%TO.N,Shunt_1*%
X138294000Y-96690500D03*
%TO.P,C1,2*%
%TO.N,GND*%
X138294000Y-93565500D03*
%TD*%
D22*
%TO.P,D4,1,SDA*%
%TO.N,SDA_MCU*%
X118015000Y-75904500D03*
%TO.P,D4,2,SCL*%
%TO.N,SCL_MCU*%
X118665000Y-75904500D03*
%TO.P,D4,3,~{OS}/INT*%
%TO.N,~{OS}_MCU*%
X119315000Y-75904500D03*
%TO.P,D4,4,GND*%
%TO.N,GND*%
X119965000Y-75904500D03*
%TO.P,D4,5,A2*%
X119965000Y-71679500D03*
%TO.P,D4,6,A1*%
%TO.N,+3.3V*%
X119315000Y-71679500D03*
%TO.P,D4,7,A0*%
X118665000Y-71679500D03*
%TO.P,D4,8,VDD*%
X118015000Y-71679500D03*
%TD*%
D32*
%TO.N,G1*%
X155312000Y-71633000D03*
%TO.N,A*%
X173092000Y-64013000D03*
X155312000Y-74173000D03*
X166742000Y-60203000D03*
X169917000Y-61473000D03*
X155312000Y-75443000D03*
X169917000Y-65283000D03*
X155312000Y-76713000D03*
X169917000Y-60203000D03*
X166742000Y-65283000D03*
X169917000Y-64013000D03*
X166742000Y-62743000D03*
X169917000Y-62743000D03*
X166742000Y-66553000D03*
X173092000Y-58933000D03*
X166742000Y-58933000D03*
X173092000Y-62743000D03*
X173092000Y-61473000D03*
X155312000Y-72903000D03*
X155312000Y-80523000D03*
X173092000Y-65283000D03*
X155312000Y-79253000D03*
X173092000Y-66553000D03*
X173092000Y-60203000D03*
X155312000Y-77983000D03*
X166742000Y-64013000D03*
X166742000Y-61473000D03*
%TO.N,G2*%
X159122000Y-58298000D03*
%TO.N,GND*%
X141342000Y-56393000D03*
X159122000Y-90048000D03*
X159122000Y-67188000D03*
X159122000Y-59568000D03*
X160392000Y-87508000D03*
X173346000Y-77348000D03*
X131817000Y-60838000D03*
X159122000Y-64648000D03*
X155947000Y-86238000D03*
X131817000Y-59568000D03*
X161027000Y-88778000D03*
X157217000Y-86238000D03*
X161027000Y-86238000D03*
X120768000Y-69728000D03*
X159757000Y-88778000D03*
X142612000Y-56393000D03*
X120514000Y-75824000D03*
X144390000Y-51647500D03*
X161027000Y-92588000D03*
X136262000Y-103383000D03*
X161662000Y-87508000D03*
X154677000Y-86238000D03*
X159757000Y-91318000D03*
X131817000Y-63378000D03*
X174362000Y-69474000D03*
X162297000Y-86238000D03*
X159122000Y-63378000D03*
X136262000Y-93565500D03*
X131817000Y-62108000D03*
X131817000Y-64648000D03*
X138802000Y-56393000D03*
X140122800Y-93553200D03*
X131817000Y-58298000D03*
X137532000Y-56393000D03*
X140072000Y-103383000D03*
X158487000Y-86238000D03*
X159122000Y-60838000D03*
X140072000Y-56393000D03*
X159757000Y-92588000D03*
X161027000Y-91318000D03*
X131817000Y-65918000D03*
X134992000Y-56393000D03*
X159757000Y-86238000D03*
X159122000Y-65918000D03*
X160392000Y-90048000D03*
X159122000Y-62108000D03*
X136262000Y-56393000D03*
%TO.N,G3*%
X148835000Y-57028000D03*
%TO.N,B*%
X134992000Y-46233000D03*
X140072000Y-49408000D03*
X138802000Y-46233000D03*
X137532000Y-43058000D03*
X136262000Y-43058000D03*
X133722000Y-49408000D03*
X133722000Y-43058000D03*
X136262000Y-46233000D03*
X140072000Y-43058000D03*
X154042000Y-57028000D03*
X136262000Y-49408000D03*
X150232000Y-57028000D03*
X151502000Y-57028000D03*
X140072000Y-46233000D03*
X138802000Y-43058000D03*
X157852000Y-57028000D03*
X134992000Y-49408000D03*
X137532000Y-49408000D03*
X138802000Y-49408000D03*
X155312000Y-57028000D03*
X134992000Y-43058000D03*
X137532000Y-46233000D03*
X141342000Y-49408000D03*
X156582000Y-57028000D03*
X141342000Y-43058000D03*
X152772000Y-57028000D03*
%TO.N,G4*%
X133722000Y-56393000D03*
%TO.N,G5*%
X136262000Y-80523000D03*
%TO.N,C*%
X136262000Y-76713000D03*
X124832000Y-64013000D03*
X136262000Y-79253000D03*
X124832000Y-62743000D03*
X124832000Y-61473000D03*
X121657000Y-64013000D03*
X121657000Y-61473000D03*
X118482000Y-62743000D03*
X118482000Y-61473000D03*
X136262000Y-74173000D03*
X118482000Y-65283000D03*
X124832000Y-58933000D03*
X118482000Y-58933000D03*
X118482000Y-60203000D03*
X124832000Y-60203000D03*
X124832000Y-65283000D03*
X121657000Y-62743000D03*
X136262000Y-71633000D03*
X121657000Y-65283000D03*
X118482000Y-66553000D03*
X124832000Y-66553000D03*
X121657000Y-60203000D03*
X136262000Y-72903000D03*
X136262000Y-75443000D03*
X136262000Y-77983000D03*
X118482000Y-64013000D03*
%TO.N,G6*%
X131817000Y-67188000D03*
%TO.N,Shunt_1*%
X131182000Y-91953000D03*
X140072000Y-99573000D03*
X162297000Y-100843000D03*
X140072000Y-98303000D03*
X131182000Y-89413000D03*
X143882000Y-91953000D03*
X136262000Y-99573000D03*
X131182000Y-90683000D03*
X143882000Y-98303000D03*
X140707000Y-80802500D03*
X131182000Y-93223000D03*
X150867000Y-80523000D03*
X143882000Y-99573000D03*
X133087000Y-85603000D03*
X136262000Y-98303000D03*
X129277000Y-85603000D03*
%TO.N,Shunt_2*%
X141342000Y-71633000D03*
X150486000Y-63378000D03*
X153788000Y-46233000D03*
X122927000Y-79888000D03*
X165472000Y-76078000D03*
X149978000Y-49408000D03*
X122927000Y-73538000D03*
X168647000Y-72268000D03*
X156328000Y-46233000D03*
X155058000Y-49408000D03*
X162297000Y-72268000D03*
X140072000Y-70363000D03*
X153788000Y-43058000D03*
X126102000Y-76078000D03*
X165472000Y-78618000D03*
X150867000Y-62108000D03*
X151502000Y-60838000D03*
X122927000Y-72268000D03*
X168647000Y-73538000D03*
X129277000Y-72268000D03*
X140072000Y-59568000D03*
X126102000Y-73538000D03*
X162297000Y-78618000D03*
X168647000Y-78618000D03*
X122927000Y-77348000D03*
X152518000Y-49408000D03*
X129277000Y-79888000D03*
X165472000Y-77348000D03*
X151248000Y-46233000D03*
X129277000Y-76078000D03*
X156328000Y-49408000D03*
X126102000Y-78618000D03*
X151248000Y-43058000D03*
X152518000Y-46233000D03*
X156328000Y-43058000D03*
X168647000Y-77348000D03*
X162297000Y-73538000D03*
X149978000Y-43058000D03*
X122927000Y-78618000D03*
X151502000Y-63378000D03*
X126102000Y-77348000D03*
X129277000Y-77348000D03*
X162297000Y-76078000D03*
X157598000Y-49408000D03*
X155058000Y-46233000D03*
X140072000Y-65283000D03*
X152137000Y-62108000D03*
X150486000Y-60838000D03*
X140707000Y-60838000D03*
X162297000Y-79888000D03*
X151248000Y-49408000D03*
X152137000Y-59568000D03*
X141342000Y-59568000D03*
X122927000Y-76078000D03*
X150994000Y-59568000D03*
X157598000Y-43058000D03*
X168647000Y-79888000D03*
X162297000Y-74808000D03*
X129277000Y-73538000D03*
X155058000Y-43058000D03*
X129277000Y-78618000D03*
X126102000Y-74808000D03*
X165472000Y-74808000D03*
X162297000Y-77348000D03*
X165472000Y-73538000D03*
X152518000Y-43058000D03*
X122927000Y-74808000D03*
X141977000Y-60838000D03*
X141342000Y-66553000D03*
X168647000Y-74808000D03*
X168647000Y-76078000D03*
X129277000Y-74808000D03*
X153788000Y-49408000D03*
%TO.N,+3.3V*%
X117212000Y-69728000D03*
X147184000Y-55965500D03*
X170803816Y-69475092D03*
X144644000Y-60410500D03*
%TO.N,~{OS}_MCU*%
X145152000Y-54441500D03*
X173600000Y-74300000D03*
X119752000Y-74300000D03*
%TO.N,SCL_MCU*%
X172579701Y-74295701D03*
X146168000Y-54441500D03*
X118736000Y-74300000D03*
%TO.N,SDA_MCU*%
X118727048Y-73275049D03*
X171568000Y-74300000D03*
X147184000Y-54441500D03*
%TD*%
D33*
%TO.N,G1*%
X157857000Y-71878000D02*
X155557000Y-71878000D01*
X155557000Y-71878000D02*
X155312000Y-71633000D01*
%TO.N,G2*%
X159367000Y-58543000D02*
X159122000Y-58298000D01*
X162297000Y-58543000D02*
X159367000Y-58543000D01*
D34*
%TO.N,GND*%
X174108000Y-69728000D02*
X174362000Y-69474000D01*
X145985000Y-56186750D02*
X145763750Y-55965500D01*
X142612000Y-56393000D02*
X142612000Y-57028000D01*
X142993000Y-57409000D02*
X144511500Y-57409000D01*
X144511500Y-57409000D02*
X144685000Y-57235500D01*
D35*
X141977000Y-93565500D02*
X140110500Y-93565500D01*
D34*
X120433500Y-75904500D02*
X120514000Y-75824000D01*
X142612000Y-57028000D02*
X142993000Y-57409000D01*
X172950000Y-71679500D02*
X173600000Y-71679500D01*
D35*
X134357000Y-93565500D02*
X138294000Y-93565500D01*
D34*
X144685000Y-51942500D02*
X144390000Y-51647500D01*
X173600000Y-71679500D02*
X173600000Y-69881500D01*
X173600000Y-69881500D02*
X173446500Y-69728000D01*
X119852500Y-69728000D02*
X120768000Y-69728000D01*
D35*
X134357000Y-93565500D02*
X136262000Y-93565500D01*
D34*
X173600000Y-75904500D02*
X173600000Y-77094000D01*
X144898000Y-55965500D02*
X144644000Y-56219500D01*
X119965000Y-71679500D02*
X119965000Y-69840500D01*
X145985000Y-57235500D02*
X145985000Y-56186750D01*
X145985000Y-58730000D02*
X146522500Y-59267500D01*
X173446500Y-69728000D02*
X174108000Y-69728000D01*
X145985000Y-57235500D02*
X145985000Y-58730000D01*
X119965000Y-75904500D02*
X120433500Y-75904500D01*
X144644000Y-56219500D02*
X144644000Y-57194500D01*
X145763750Y-55965500D02*
X144898000Y-55965500D01*
X144685000Y-53010500D02*
X144685000Y-51942500D01*
X144644000Y-57194500D02*
X144685000Y-57235500D01*
D35*
X140033500Y-93565500D02*
X138294000Y-93565500D01*
D34*
X119965000Y-69840500D02*
X119852500Y-69728000D01*
X173600000Y-77094000D02*
X173346000Y-77348000D01*
D33*
%TO.N,G3*%
X149588000Y-53867000D02*
X149588000Y-56275000D01*
X149588000Y-56275000D02*
X148835000Y-57028000D01*
%TO.N,G4*%
X133332000Y-53848000D02*
X133332000Y-56003000D01*
X133332000Y-56003000D02*
X133722000Y-56393000D01*
%TO.N,G5*%
X136017000Y-80278000D02*
X136262000Y-80523000D01*
X133717000Y-80278000D02*
X136017000Y-80278000D01*
%TO.N,G6*%
X129272000Y-66943000D02*
X131572000Y-66943000D01*
X131572000Y-66943000D02*
X131817000Y-67188000D01*
%TO.N,Shunt_1*%
X161932000Y-101208000D02*
X161027000Y-101208000D01*
X162297000Y-100843000D02*
X161932000Y-101208000D01*
D34*
%TO.N,+3.3V*%
X118127500Y-69728000D02*
X117212000Y-69728000D01*
X119315000Y-71679500D02*
X118665000Y-71679500D01*
X144644000Y-60410500D02*
X144797500Y-60257000D01*
X171056724Y-69728000D02*
X170803816Y-69475092D01*
X146635000Y-56514500D02*
X146635000Y-57235500D01*
X171721500Y-69728000D02*
X171056724Y-69728000D01*
X171650000Y-71679500D02*
X171650000Y-69799500D01*
X145335000Y-58730000D02*
X144797500Y-59267500D01*
X144797500Y-60257000D02*
X144797500Y-59267500D01*
X171650000Y-69799500D02*
X171721500Y-69728000D01*
X118015000Y-69840500D02*
X118127500Y-69728000D01*
X172300000Y-71679500D02*
X171650000Y-71679500D01*
X145335000Y-57235500D02*
X145335000Y-58730000D01*
X118665000Y-71679500D02*
X118015000Y-71679500D01*
X118015000Y-71679500D02*
X118015000Y-69840500D01*
X147184000Y-55965500D02*
X146635000Y-56514500D01*
%TO.N,~{OS}_MCU*%
X173600000Y-74300000D02*
X172950000Y-74950000D01*
X145335000Y-53010500D02*
X145335000Y-54258500D01*
X119315000Y-75904500D02*
X119315000Y-74737000D01*
X145335000Y-54258500D02*
X145152000Y-54441500D01*
X172950000Y-74950000D02*
X172950000Y-75904500D01*
X119315000Y-74737000D02*
X119752000Y-74300000D01*
%TO.N,SCL_MCU*%
X118665000Y-74371000D02*
X118736000Y-74300000D01*
X145985000Y-53010500D02*
X145985000Y-54258500D01*
X145985000Y-54258500D02*
X146168000Y-54441500D01*
X172300000Y-74575402D02*
X172579701Y-74295701D01*
X172300000Y-75904500D02*
X172300000Y-74575402D01*
X118665000Y-75904500D02*
X118665000Y-74371000D01*
D33*
%TO.N,Net-(D1-K)*%
X161027000Y-99208000D02*
X161027000Y-97158000D01*
X157607000Y-95768000D02*
X159637000Y-95768000D01*
X159637000Y-95768000D02*
X161027000Y-97158000D01*
D34*
%TO.N,SDA_MCU*%
X171568000Y-74300000D02*
X171568000Y-75822500D01*
X171568000Y-75822500D02*
X171650000Y-75904500D01*
X146635000Y-53010500D02*
X147184000Y-53559500D01*
X147184000Y-53559500D02*
X147184000Y-54441500D01*
X118011000Y-73991097D02*
X118011000Y-75900500D01*
X118011000Y-75900500D02*
X118015000Y-75904500D01*
X118727048Y-73275049D02*
X118011000Y-73991097D01*
%TD*%
%TA.AperFunction,Conductor*%
%TO.N,GND*%
G36*
X133025000Y-57679613D02*
G01*
X133070387Y-57725000D01*
X133087000Y-57787000D01*
X133087000Y-66429000D01*
X133070387Y-66491000D01*
X133025000Y-66536387D01*
X132963000Y-66553000D01*
X132512194Y-66553000D01*
X132461758Y-66542280D01*
X132433930Y-66522061D01*
X132433415Y-66522772D01*
X132269732Y-66403849D01*
X132154445Y-66352520D01*
X132096803Y-66326856D01*
X132053866Y-66317729D01*
X131981444Y-66302335D01*
X131954821Y-66293427D01*
X131900705Y-66268192D01*
X131897461Y-66266621D01*
X131829309Y-66232395D01*
X131810903Y-66225997D01*
X131736211Y-66210574D01*
X131732692Y-66209794D01*
X131658490Y-66192208D01*
X131639121Y-66190229D01*
X131562869Y-66192448D01*
X131559263Y-66192500D01*
X131134320Y-66192500D01*
X131078815Y-66179384D01*
X131035053Y-66142811D01*
X131029546Y-66135454D01*
X130914331Y-66049204D01*
X130779483Y-65998909D01*
X130719873Y-65992500D01*
X130719869Y-65992500D01*
X130719835Y-65992500D01*
X128130999Y-65992500D01*
X128069000Y-65975888D01*
X128023613Y-65930501D01*
X128007000Y-65868501D01*
X128007000Y-57787000D01*
X128023613Y-57725000D01*
X128069000Y-57679613D01*
X128131000Y-57663000D01*
X132963000Y-57663000D01*
X133025000Y-57679613D01*
G37*
%TD.AperFunction*%
%TD*%
%TA.AperFunction,Conductor*%
%TO.N,GND*%
G36*
X143185000Y-52599613D02*
G01*
X143230387Y-52645000D01*
X143247000Y-52707000D01*
X143247000Y-57539000D01*
X143230387Y-57601000D01*
X143185000Y-57646387D01*
X143123000Y-57663000D01*
X134481000Y-57663000D01*
X134419000Y-57646387D01*
X134373613Y-57601000D01*
X134357000Y-57539000D01*
X134357000Y-57081136D01*
X134365236Y-57036698D01*
X134388851Y-56998163D01*
X134454533Y-56925216D01*
X134549179Y-56761284D01*
X134549179Y-56761283D01*
X134607674Y-56581256D01*
X134627460Y-56393000D01*
X134607674Y-56204744D01*
X134571924Y-56094718D01*
X134549179Y-56024715D01*
X134454533Y-55860783D01*
X134388851Y-55787837D01*
X134365236Y-55749302D01*
X134357000Y-55704864D01*
X134357000Y-52707000D01*
X134373613Y-52645000D01*
X134419000Y-52599613D01*
X134481000Y-52583000D01*
X143123000Y-52583000D01*
X143185000Y-52599613D01*
G37*
%TD.AperFunction*%
%TD*%
%TA.AperFunction,Conductor*%
%TO.N,Shunt_2*%
G36*
X143942742Y-58311515D02*
G01*
X143986765Y-58349115D01*
X144008920Y-58402602D01*
X144004378Y-58460318D01*
X143974128Y-58509681D01*
X143914661Y-58569147D01*
X143824091Y-58715984D01*
X143769825Y-58879746D01*
X143759500Y-58980823D01*
X143759500Y-59554176D01*
X143769825Y-59655252D01*
X143824092Y-59819017D01*
X143848040Y-59857843D01*
X143866488Y-59921135D01*
X143849889Y-59984937D01*
X143816821Y-60042214D01*
X143758326Y-60222242D01*
X143738540Y-60410499D01*
X143758326Y-60598757D01*
X143816820Y-60778784D01*
X143911466Y-60942716D01*
X144038129Y-61083389D01*
X144191267Y-61194650D01*
X144204375Y-61200486D01*
X144251919Y-61237765D01*
X144276203Y-61293086D01*
X144271463Y-61353317D01*
X144238824Y-61404158D01*
X144186034Y-61433541D01*
X144053335Y-61469097D01*
X143839170Y-61568965D01*
X143645598Y-61704505D01*
X143478505Y-61871598D01*
X143342965Y-62065170D01*
X143243097Y-62279336D01*
X143181936Y-62507592D01*
X143161340Y-62742999D01*
X143181936Y-62978407D01*
X143226709Y-63145501D01*
X143243097Y-63206663D01*
X143342965Y-63420830D01*
X143478505Y-63614401D01*
X143645599Y-63781495D01*
X143831160Y-63911426D01*
X143870024Y-63955743D01*
X143884035Y-64013000D01*
X143870024Y-64070257D01*
X143831159Y-64114575D01*
X143800738Y-64135875D01*
X143743958Y-64175634D01*
X143645595Y-64244508D01*
X143478505Y-64411598D01*
X143342965Y-64605170D01*
X143243097Y-64819336D01*
X143181936Y-65047592D01*
X143161340Y-65283000D01*
X143181936Y-65518407D01*
X143226709Y-65685502D01*
X143243097Y-65746663D01*
X143342965Y-65960830D01*
X143478505Y-66154401D01*
X143645599Y-66321495D01*
X143831160Y-66451426D01*
X143870024Y-66495743D01*
X143884035Y-66553000D01*
X143870024Y-66610257D01*
X143831160Y-66654574D01*
X143703804Y-66743750D01*
X143645595Y-66784508D01*
X143478505Y-66951598D01*
X143342965Y-67145170D01*
X143243097Y-67359336D01*
X143181936Y-67587592D01*
X143161340Y-67822999D01*
X143181936Y-68058407D01*
X143222693Y-68210515D01*
X143243097Y-68286663D01*
X143342965Y-68500830D01*
X143478505Y-68694401D01*
X143645599Y-68861495D01*
X143831160Y-68991426D01*
X143870024Y-69035743D01*
X143884035Y-69093000D01*
X143870024Y-69150257D01*
X143831159Y-69194575D01*
X143645595Y-69324508D01*
X143478505Y-69491598D01*
X143342965Y-69685170D01*
X143243097Y-69899336D01*
X143181936Y-70127592D01*
X143161340Y-70363000D01*
X143181936Y-70598407D01*
X143217866Y-70732500D01*
X143243097Y-70826663D01*
X143342965Y-71040830D01*
X143478505Y-71234401D01*
X143645599Y-71401495D01*
X143831160Y-71531426D01*
X143870024Y-71575743D01*
X143884035Y-71633000D01*
X143870024Y-71690257D01*
X143831159Y-71734575D01*
X143645595Y-71864508D01*
X143478505Y-72031598D01*
X143342965Y-72225170D01*
X143243097Y-72439336D01*
X143181936Y-72667592D01*
X143161340Y-72902999D01*
X143181936Y-73138407D01*
X143226709Y-73305502D01*
X143243097Y-73366663D01*
X143342965Y-73580830D01*
X143478505Y-73774401D01*
X143645599Y-73941495D01*
X143831160Y-74071426D01*
X143870024Y-74115743D01*
X143884035Y-74173000D01*
X143870024Y-74230257D01*
X143831159Y-74274575D01*
X143645595Y-74404508D01*
X143478505Y-74571598D01*
X143342965Y-74765170D01*
X143243097Y-74979336D01*
X143181936Y-75207592D01*
X143161340Y-75443000D01*
X143181936Y-75678407D01*
X143226709Y-75845501D01*
X143243097Y-75906663D01*
X143342965Y-76120830D01*
X143478505Y-76314401D01*
X143645599Y-76481495D01*
X143831160Y-76611426D01*
X143870024Y-76655743D01*
X143884035Y-76713000D01*
X143870024Y-76770257D01*
X143831159Y-76814575D01*
X143645595Y-76944508D01*
X143478505Y-77111598D01*
X143342965Y-77305170D01*
X143243097Y-77519336D01*
X143181936Y-77747592D01*
X143161340Y-77983000D01*
X143181936Y-78218407D01*
X143224129Y-78375872D01*
X143243097Y-78446663D01*
X143342965Y-78660830D01*
X143478505Y-78854401D01*
X143645599Y-79021495D01*
X143831160Y-79151426D01*
X143870024Y-79195743D01*
X143884035Y-79253000D01*
X143870024Y-79310257D01*
X143831159Y-79354575D01*
X143645595Y-79484508D01*
X143478505Y-79651598D01*
X143342965Y-79845170D01*
X143243097Y-80059336D01*
X143181936Y-80287592D01*
X143161340Y-80523000D01*
X143181936Y-80758407D01*
X143226709Y-80925502D01*
X143243097Y-80986663D01*
X143342965Y-81200830D01*
X143478505Y-81394401D01*
X143645599Y-81561495D01*
X143831160Y-81691426D01*
X143870024Y-81735743D01*
X143884035Y-81793000D01*
X143870024Y-81850257D01*
X143831159Y-81894575D01*
X143645595Y-82024508D01*
X143478505Y-82191598D01*
X143342965Y-82385170D01*
X143243097Y-82599336D01*
X143181936Y-82827592D01*
X143161340Y-83063000D01*
X143181936Y-83298407D01*
X143226709Y-83465502D01*
X143243097Y-83526663D01*
X143342965Y-83740830D01*
X143478505Y-83934401D01*
X143645599Y-84101495D01*
X143839170Y-84237035D01*
X144053337Y-84336903D01*
X144281592Y-84398063D01*
X144517000Y-84418659D01*
X144752408Y-84398063D01*
X144980663Y-84336903D01*
X145194830Y-84237035D01*
X145388401Y-84101495D01*
X145555495Y-83934401D01*
X145685426Y-83748839D01*
X145729743Y-83709975D01*
X145787000Y-83695964D01*
X145844257Y-83709975D01*
X145888573Y-83748839D01*
X146018505Y-83934401D01*
X146185599Y-84101495D01*
X146371160Y-84231426D01*
X146410024Y-84275743D01*
X146424035Y-84333000D01*
X146410024Y-84390257D01*
X146371159Y-84434575D01*
X146185595Y-84564508D01*
X146018505Y-84731598D01*
X145882965Y-84925170D01*
X145783097Y-85139336D01*
X145721936Y-85367592D01*
X145701340Y-85602999D01*
X145721936Y-85838407D01*
X145766709Y-86005501D01*
X145783097Y-86066663D01*
X145882965Y-86280830D01*
X146018505Y-86474401D01*
X146185599Y-86641495D01*
X146379170Y-86777035D01*
X146593337Y-86876903D01*
X146821592Y-86938063D01*
X147057000Y-86958659D01*
X147292408Y-86938063D01*
X147520663Y-86876903D01*
X147734830Y-86777035D01*
X147928401Y-86641495D01*
X148095495Y-86474401D01*
X148231035Y-86280830D01*
X148330903Y-86066663D01*
X148392063Y-85838408D01*
X148412659Y-85603000D01*
X148392063Y-85367592D01*
X148330903Y-85139337D01*
X148231035Y-84925171D01*
X148095495Y-84731599D01*
X147928401Y-84564505D01*
X147742839Y-84434573D01*
X147703975Y-84390257D01*
X147689964Y-84333000D01*
X147703975Y-84275743D01*
X147742839Y-84231426D01*
X147928401Y-84101495D01*
X148095495Y-83934401D01*
X148231035Y-83740830D01*
X148330903Y-83526663D01*
X148392063Y-83298408D01*
X148412659Y-83063000D01*
X148392063Y-82827592D01*
X148330903Y-82599337D01*
X148231035Y-82385171D01*
X148095495Y-82191599D01*
X147928401Y-82024505D01*
X147742839Y-81894573D01*
X147703975Y-81850257D01*
X147689964Y-81793000D01*
X147703975Y-81735743D01*
X147742839Y-81691426D01*
X147928401Y-81561495D01*
X148095495Y-81394401D01*
X148231035Y-81200830D01*
X148330903Y-80986663D01*
X148392063Y-80758408D01*
X148412659Y-80523000D01*
X148412659Y-80522999D01*
X149961540Y-80522999D01*
X149981326Y-80711257D01*
X150039820Y-80891284D01*
X150134466Y-81055216D01*
X150261129Y-81195889D01*
X150414269Y-81307151D01*
X150587197Y-81384144D01*
X150772352Y-81423500D01*
X150772354Y-81423500D01*
X150961646Y-81423500D01*
X150961648Y-81423500D01*
X151098547Y-81394401D01*
X151146803Y-81384144D01*
X151319730Y-81307151D01*
X151319730Y-81307150D01*
X151472870Y-81195889D01*
X151599533Y-81055216D01*
X151694179Y-80891284D01*
X151723027Y-80802499D01*
X151752674Y-80711256D01*
X151772460Y-80523000D01*
X151752674Y-80334744D01*
X151694179Y-80154716D01*
X151694179Y-80154715D01*
X151599533Y-79990783D01*
X151472870Y-79850110D01*
X151319730Y-79738848D01*
X151146802Y-79661855D01*
X150961648Y-79622500D01*
X150961646Y-79622500D01*
X150772354Y-79622500D01*
X150772352Y-79622500D01*
X150587197Y-79661855D01*
X150414269Y-79738848D01*
X150261129Y-79850110D01*
X150134466Y-79990783D01*
X150039820Y-80154715D01*
X149981326Y-80334742D01*
X149961540Y-80522999D01*
X148412659Y-80522999D01*
X148392063Y-80287592D01*
X148330903Y-80059337D01*
X148231035Y-79845171D01*
X148095495Y-79651599D01*
X147928401Y-79484505D01*
X147742839Y-79354573D01*
X147703975Y-79310257D01*
X147689964Y-79253000D01*
X147703975Y-79195743D01*
X147742839Y-79151426D01*
X147928401Y-79021495D01*
X148095495Y-78854401D01*
X148231035Y-78660830D01*
X148330903Y-78446663D01*
X148392063Y-78218408D01*
X148412659Y-77983000D01*
X148392063Y-77747592D01*
X148330903Y-77519337D01*
X148231035Y-77305171D01*
X148095495Y-77111599D01*
X147928401Y-76944505D01*
X147742839Y-76814573D01*
X147703975Y-76770257D01*
X147689964Y-76713000D01*
X147703975Y-76655743D01*
X147742839Y-76611426D01*
X147928401Y-76481495D01*
X148095495Y-76314401D01*
X148231035Y-76120830D01*
X148330903Y-75906663D01*
X148392063Y-75678408D01*
X148412659Y-75443000D01*
X148392063Y-75207592D01*
X148330903Y-74979337D01*
X148231035Y-74765171D01*
X148095495Y-74571599D01*
X147928401Y-74404505D01*
X147742839Y-74274573D01*
X147703975Y-74230257D01*
X147689964Y-74173000D01*
X147703975Y-74115743D01*
X147742839Y-74071426D01*
X147928401Y-73941495D01*
X148095495Y-73774401D01*
X148231035Y-73580830D01*
X148330903Y-73366663D01*
X148392063Y-73138408D01*
X148412659Y-72903000D01*
X148392063Y-72667592D01*
X148330903Y-72439337D01*
X148231035Y-72225171D01*
X148095495Y-72031599D01*
X147928401Y-71864505D01*
X147742839Y-71734573D01*
X147703976Y-71690257D01*
X147689965Y-71633000D01*
X147703976Y-71575743D01*
X147742839Y-71531426D01*
X147928401Y-71401495D01*
X148095495Y-71234401D01*
X148231035Y-71040830D01*
X148330903Y-70826663D01*
X148392063Y-70598408D01*
X148412659Y-70363000D01*
X148392063Y-70127592D01*
X148330903Y-69899337D01*
X148231035Y-69685171D01*
X148095495Y-69491599D01*
X147928401Y-69324505D01*
X147742839Y-69194573D01*
X147703974Y-69150255D01*
X147689964Y-69092999D01*
X147703975Y-69035742D01*
X147742837Y-68991428D01*
X147928401Y-68861495D01*
X148095495Y-68694401D01*
X148231035Y-68500830D01*
X148330903Y-68286663D01*
X148392063Y-68058408D01*
X148412659Y-67823000D01*
X148392063Y-67587592D01*
X148330903Y-67359337D01*
X148231035Y-67145171D01*
X148095495Y-66951599D01*
X147928401Y-66784505D01*
X147742839Y-66654573D01*
X147703974Y-66610255D01*
X147689964Y-66552999D01*
X147703975Y-66495742D01*
X147742837Y-66451428D01*
X147928401Y-66321495D01*
X148095495Y-66154401D01*
X148231035Y-65960830D01*
X148330903Y-65746663D01*
X148392063Y-65518408D01*
X148412659Y-65283000D01*
X148392063Y-65047592D01*
X148330903Y-64819337D01*
X148231035Y-64605171D01*
X148095495Y-64411599D01*
X147973568Y-64289672D01*
X147942273Y-64236927D01*
X147940084Y-64175634D01*
X147967537Y-64120789D01*
X148017916Y-64085810D01*
X148149331Y-64036796D01*
X148264546Y-63950546D01*
X148350796Y-63835331D01*
X148401091Y-63700483D01*
X148407500Y-63640873D01*
X148407499Y-61845128D01*
X148401091Y-61785517D01*
X148350796Y-61650669D01*
X148264546Y-61535454D01*
X148149331Y-61449204D01*
X148014483Y-61398909D01*
X147954873Y-61392500D01*
X147954869Y-61392500D01*
X146159130Y-61392500D01*
X146099515Y-61398909D01*
X145964669Y-61449204D01*
X145849454Y-61535454D01*
X145763204Y-61650669D01*
X145714189Y-61782083D01*
X145679209Y-61832462D01*
X145624365Y-61859915D01*
X145563072Y-61857726D01*
X145510326Y-61826430D01*
X145388404Y-61704508D01*
X145388404Y-61704507D01*
X145388401Y-61704505D01*
X145194830Y-61568965D01*
X144982874Y-61470128D01*
X144938641Y-61435445D01*
X144914265Y-61384796D01*
X144914756Y-61328588D01*
X144940012Y-61278372D01*
X144984842Y-61244467D01*
X145096730Y-61194651D01*
X145096730Y-61194650D01*
X145096732Y-61194650D01*
X145249870Y-61083389D01*
X145376533Y-60942716D01*
X145471179Y-60778784D01*
X145471178Y-60778784D01*
X145529674Y-60598756D01*
X145549460Y-60410500D01*
X145529674Y-60222244D01*
X145527226Y-60214712D01*
X145524583Y-60147448D01*
X145557476Y-60088713D01*
X145558347Y-60087841D01*
X145558350Y-60087840D01*
X145572320Y-60073869D01*
X145627905Y-60041777D01*
X145692093Y-60041777D01*
X145747680Y-60073871D01*
X145761647Y-60087838D01*
X145761649Y-60087839D01*
X145761650Y-60087840D01*
X145821917Y-60125013D01*
X145908484Y-60178408D01*
X146072246Y-60232674D01*
X146081614Y-60233631D01*
X146173323Y-60243000D01*
X146871676Y-60242999D01*
X146972753Y-60232674D01*
X147136516Y-60178408D01*
X147283350Y-60087840D01*
X147405340Y-59965850D01*
X147495908Y-59819016D01*
X147550174Y-59655253D01*
X147560500Y-59554177D01*
X147560499Y-58980824D01*
X147550174Y-58879747D01*
X147495908Y-58715984D01*
X147405340Y-58569150D01*
X147405339Y-58569149D01*
X147405338Y-58569147D01*
X147345872Y-58509681D01*
X147315622Y-58460318D01*
X147311080Y-58402602D01*
X147333235Y-58349115D01*
X147377258Y-58311515D01*
X147433553Y-58298000D01*
X152648000Y-58298000D01*
X152710000Y-58314613D01*
X152755387Y-58360000D01*
X152772000Y-58422000D01*
X152772000Y-90559000D01*
X152755387Y-90621000D01*
X152710000Y-90666387D01*
X152648000Y-90683000D01*
X135116000Y-90683000D01*
X135054000Y-90666387D01*
X135008613Y-90621000D01*
X134992000Y-90559000D01*
X134992000Y-84457000D01*
X135008613Y-84395000D01*
X135054000Y-84349613D01*
X135116000Y-84333000D01*
X138802000Y-84333000D01*
X138802000Y-80802499D01*
X139801540Y-80802499D01*
X139821326Y-80990757D01*
X139879820Y-81170784D01*
X139974466Y-81334716D01*
X140101129Y-81475389D01*
X140254269Y-81586651D01*
X140427197Y-81663644D01*
X140612352Y-81703000D01*
X140612354Y-81703000D01*
X140801646Y-81703000D01*
X140801648Y-81703000D01*
X140925084Y-81676762D01*
X140986803Y-81663644D01*
X141159730Y-81586651D01*
X141312871Y-81475388D01*
X141439533Y-81334716D01*
X141534179Y-81170784D01*
X141592674Y-80990756D01*
X141612460Y-80802500D01*
X141592674Y-80614244D01*
X141534179Y-80434216D01*
X141534179Y-80434215D01*
X141439533Y-80270283D01*
X141312870Y-80129610D01*
X141159730Y-80018348D01*
X140986802Y-79941355D01*
X140801648Y-79902000D01*
X140801646Y-79902000D01*
X140612354Y-79902000D01*
X140612352Y-79902000D01*
X140427197Y-79941355D01*
X140254269Y-80018348D01*
X140101129Y-80129610D01*
X139974466Y-80270283D01*
X139879820Y-80434215D01*
X139821326Y-80614242D01*
X139801540Y-80802499D01*
X138802000Y-80802499D01*
X138802000Y-58422000D01*
X138818613Y-58360000D01*
X138864000Y-58314613D01*
X138926000Y-58298000D01*
X143886447Y-58298000D01*
X143942742Y-58311515D01*
G37*
%TD.AperFunction*%
%TD*%
%TA.AperFunction,Conductor*%
%TO.N,Shunt_1*%
G36*
X134295000Y-84349613D02*
G01*
X134340387Y-84395000D01*
X134357000Y-84457000D01*
X134357000Y-91318000D01*
X145028000Y-91318000D01*
X145090000Y-91334613D01*
X145135387Y-91380000D01*
X145152000Y-91442000D01*
X145152000Y-113546000D01*
X145135387Y-113608000D01*
X145090000Y-113653387D01*
X145028000Y-113670000D01*
X131060674Y-113670000D01*
X130995931Y-113651756D01*
X130950239Y-113602392D01*
X130937044Y-113536434D01*
X130960228Y-113473291D01*
X131018306Y-113393058D01*
X131215971Y-113119988D01*
X131499937Y-112661951D01*
X131750410Y-112184774D01*
X131966108Y-111690903D01*
X132145926Y-111182867D01*
X132288941Y-110663270D01*
X132394422Y-110134774D01*
X132461828Y-109600086D01*
X132490814Y-109061946D01*
X132481230Y-108523112D01*
X132433127Y-107986343D01*
X132346750Y-107454391D01*
X132222543Y-106929979D01*
X132061141Y-106415796D01*
X131863372Y-105914476D01*
X131630248Y-105428587D01*
X131451431Y-105115508D01*
X132506500Y-105115508D01*
X132517000Y-105218296D01*
X132572186Y-105384834D01*
X132664288Y-105534157D01*
X132788342Y-105658211D01*
X132788344Y-105658212D01*
X132937666Y-105750314D01*
X133041207Y-105784624D01*
X133104202Y-105805499D01*
X133114703Y-105806571D01*
X133206991Y-105816000D01*
X135507008Y-105815999D01*
X135609797Y-105805499D01*
X135627015Y-105799793D01*
X135666017Y-105793500D01*
X136857983Y-105793500D01*
X136896984Y-105799793D01*
X136914203Y-105805499D01*
X137016991Y-105816000D01*
X139317008Y-105815999D01*
X139419797Y-105805499D01*
X139437015Y-105799793D01*
X139476017Y-105793500D01*
X140667983Y-105793500D01*
X140706984Y-105799793D01*
X140724203Y-105805499D01*
X140826991Y-105816000D01*
X143127008Y-105815999D01*
X143229797Y-105805499D01*
X143396334Y-105750314D01*
X143545656Y-105658212D01*
X143669712Y-105534156D01*
X143761814Y-105384834D01*
X143816999Y-105218297D01*
X143827500Y-105115509D01*
X143827499Y-104190492D01*
X143816999Y-104087703D01*
X143761814Y-103921166D01*
X143758794Y-103912052D01*
X143752500Y-103873048D01*
X143752500Y-103185452D01*
X143758794Y-103146448D01*
X143816999Y-102970797D01*
X143817119Y-102969619D01*
X143827500Y-102868009D01*
X143827499Y-101942992D01*
X143816999Y-101840203D01*
X143761814Y-101673666D01*
X143758794Y-101664552D01*
X143752500Y-101625548D01*
X143752500Y-101601999D01*
X143735275Y-101471169D01*
X143735275Y-101471166D01*
X143718662Y-101409166D01*
X143668163Y-101287250D01*
X143668162Y-101287249D01*
X143587829Y-101182557D01*
X143542442Y-101137170D01*
X143437749Y-101056836D01*
X143315838Y-101006339D01*
X143253830Y-100989724D01*
X143123001Y-100972500D01*
X143123000Y-100972500D01*
X133211000Y-100972500D01*
X133210999Y-100972500D01*
X133080169Y-100989724D01*
X133018161Y-101006339D01*
X132896250Y-101056836D01*
X132791557Y-101137170D01*
X132746170Y-101182557D01*
X132665836Y-101287250D01*
X132615339Y-101409161D01*
X132598724Y-101471169D01*
X132581500Y-101601999D01*
X132581500Y-101625548D01*
X132575206Y-101664552D01*
X132517000Y-101840202D01*
X132506500Y-101942990D01*
X132506500Y-102868008D01*
X132517000Y-102970796D01*
X132575206Y-103146448D01*
X132581500Y-103185452D01*
X132581500Y-103873048D01*
X132575206Y-103912052D01*
X132517000Y-104087702D01*
X132506500Y-104190490D01*
X132506500Y-105115508D01*
X131451431Y-105115508D01*
X131362965Y-104960619D01*
X131062891Y-104512969D01*
X130731565Y-104087932D01*
X130370683Y-103687683D01*
X129982094Y-103314275D01*
X129567790Y-102969620D01*
X129129894Y-102655485D01*
X128670649Y-102373478D01*
X128576957Y-102324808D01*
X128528138Y-102279143D01*
X128510119Y-102214769D01*
X128510119Y-94028008D01*
X132506500Y-94028008D01*
X132517000Y-94130796D01*
X132572186Y-94297334D01*
X132664288Y-94446657D01*
X132788342Y-94570711D01*
X132788344Y-94570712D01*
X132937666Y-94662814D01*
X133049017Y-94699712D01*
X133104202Y-94717999D01*
X133114703Y-94719071D01*
X133206991Y-94728500D01*
X135507008Y-94728499D01*
X135609797Y-94717999D01*
X135776334Y-94662814D01*
X135861045Y-94610563D01*
X135903366Y-94584461D01*
X135968462Y-94566000D01*
X136312742Y-94566000D01*
X136682538Y-94566000D01*
X136747634Y-94584461D01*
X136819522Y-94628801D01*
X136874666Y-94662814D01*
X136986017Y-94699712D01*
X137041202Y-94717999D01*
X137051703Y-94719071D01*
X137143991Y-94728500D01*
X139444008Y-94728499D01*
X139546797Y-94717999D01*
X139713334Y-94662814D01*
X139798045Y-94610563D01*
X139840366Y-94584461D01*
X139905462Y-94566000D01*
X140008759Y-94566000D01*
X140084242Y-94566000D01*
X140365538Y-94566000D01*
X140430634Y-94584461D01*
X140502522Y-94628801D01*
X140557666Y-94662814D01*
X140669017Y-94699712D01*
X140724202Y-94717999D01*
X140734703Y-94719071D01*
X140826991Y-94728500D01*
X143127008Y-94728499D01*
X143229797Y-94717999D01*
X143396334Y-94662814D01*
X143545656Y-94570712D01*
X143669712Y-94446656D01*
X143761814Y-94297334D01*
X143816999Y-94130797D01*
X143827500Y-94028009D01*
X143827499Y-93102992D01*
X143816999Y-93000203D01*
X143761814Y-92833666D01*
X143669712Y-92684344D01*
X143669711Y-92684342D01*
X143545657Y-92560288D01*
X143396334Y-92468186D01*
X143229797Y-92413000D01*
X143127009Y-92402500D01*
X140826991Y-92402500D01*
X140724203Y-92413000D01*
X140557665Y-92468186D01*
X140430634Y-92546539D01*
X140365538Y-92565000D01*
X140135241Y-92565000D01*
X139905462Y-92565000D01*
X139840366Y-92546539D01*
X139713334Y-92468186D01*
X139546797Y-92413000D01*
X139444009Y-92402500D01*
X137143991Y-92402500D01*
X137041203Y-92413000D01*
X136874665Y-92468186D01*
X136747634Y-92546539D01*
X136682538Y-92565000D01*
X136363741Y-92565000D01*
X135968462Y-92565000D01*
X135903366Y-92546539D01*
X135776334Y-92468186D01*
X135609797Y-92413000D01*
X135507009Y-92402500D01*
X133206991Y-92402500D01*
X133104203Y-92413000D01*
X132937665Y-92468186D01*
X132788342Y-92560288D01*
X132664288Y-92684342D01*
X132572186Y-92833665D01*
X132517000Y-93000202D01*
X132506500Y-93102990D01*
X132506500Y-94028008D01*
X128510119Y-94028008D01*
X128510119Y-93625522D01*
X128510102Y-93624968D01*
X128510154Y-93481976D01*
X128499160Y-93329515D01*
X128476236Y-93011631D01*
X128408358Y-92544977D01*
X128306875Y-92084461D01*
X128172320Y-91632501D01*
X128005399Y-91191467D01*
X127806987Y-90763675D01*
X127578127Y-90351368D01*
X127320019Y-89956712D01*
X127320014Y-89956704D01*
X127034017Y-89581776D01*
X126721620Y-89228526D01*
X126384479Y-88898827D01*
X126337447Y-88859061D01*
X126335061Y-88856803D01*
X126203162Y-88745517D01*
X126201525Y-88744112D01*
X126056465Y-88617335D01*
X125404774Y-88047782D01*
X125401619Y-88044926D01*
X124960236Y-87631222D01*
X124630432Y-87322099D01*
X124627336Y-87319094D01*
X124422834Y-87113591D01*
X124233104Y-86922933D01*
X124206381Y-86882781D01*
X124197000Y-86835468D01*
X124197000Y-84457000D01*
X124213613Y-84395000D01*
X124259000Y-84349613D01*
X124321000Y-84333000D01*
X134233000Y-84333000D01*
X134295000Y-84349613D01*
G37*
%TD.AperFunction*%
%TD*%
%TA.AperFunction,Conductor*%
%TO.N,GND*%
G36*
X143185000Y-101494613D02*
G01*
X143230387Y-101540000D01*
X143247000Y-101602000D01*
X143247000Y-105164000D01*
X143230387Y-105226000D01*
X143185000Y-105271387D01*
X143123000Y-105288000D01*
X133211000Y-105288000D01*
X133149000Y-105271387D01*
X133103613Y-105226000D01*
X133087000Y-105164000D01*
X133087000Y-101602000D01*
X133103613Y-101540000D01*
X133149000Y-101494613D01*
X133211000Y-101478000D01*
X143123000Y-101478000D01*
X143185000Y-101494613D01*
G37*
%TD.AperFunction*%
%TD*%
%TA.AperFunction,Conductor*%
%TO.N,GND*%
G36*
X158477242Y-58943720D02*
G01*
X158505069Y-58963938D01*
X158505585Y-58963228D01*
X158669269Y-59082151D01*
X158842193Y-59159143D01*
X158842196Y-59159143D01*
X158842197Y-59159144D01*
X158957563Y-59183665D01*
X158984171Y-59192568D01*
X159038328Y-59217822D01*
X159041509Y-59219362D01*
X159108567Y-59253040D01*
X159108568Y-59253040D01*
X159109701Y-59253609D01*
X159128084Y-59259998D01*
X159129321Y-59260253D01*
X159129327Y-59260256D01*
X159202862Y-59275439D01*
X159206209Y-59276181D01*
X159279279Y-59293500D01*
X159279281Y-59293500D01*
X159280505Y-59293790D01*
X159299876Y-59295769D01*
X159301140Y-59295732D01*
X159301144Y-59295733D01*
X159376110Y-59293552D01*
X159379716Y-59293500D01*
X160434680Y-59293500D01*
X160490185Y-59306616D01*
X160533946Y-59343188D01*
X160539454Y-59350546D01*
X160654669Y-59436796D01*
X160789517Y-59487091D01*
X160849127Y-59493500D01*
X163744872Y-59493499D01*
X163804483Y-59487091D01*
X163939331Y-59436796D01*
X164003690Y-59388616D01*
X164066947Y-59364378D01*
X164133504Y-59377000D01*
X164183495Y-59422717D01*
X164202000Y-59487884D01*
X164202000Y-67699000D01*
X164185387Y-67761000D01*
X164140000Y-67806387D01*
X164078000Y-67823000D01*
X157976000Y-67823000D01*
X157914000Y-67806387D01*
X157868613Y-67761000D01*
X157852000Y-67699000D01*
X157852000Y-59057000D01*
X157868613Y-58995000D01*
X157914000Y-58949613D01*
X157976000Y-58933000D01*
X158426806Y-58933000D01*
X158477242Y-58943720D01*
G37*
%TD.AperFunction*%
%TD*%
%TA.AperFunction,Conductor*%
%TO.N,Net-(J2-Pin_1)*%
G36*
X159764500Y-98954613D02*
G01*
X159809887Y-99000000D01*
X159826500Y-99062000D01*
X159826500Y-99608008D01*
X159837000Y-99710796D01*
X159892186Y-99877334D01*
X159984286Y-100026654D01*
X159984287Y-100026655D01*
X159984288Y-100026656D01*
X160077951Y-100120319D01*
X160110044Y-100175905D01*
X160110044Y-100240092D01*
X160077951Y-100295680D01*
X159984287Y-100389344D01*
X159892186Y-100538665D01*
X159837000Y-100705202D01*
X159826500Y-100807990D01*
X159826500Y-101608008D01*
X159837000Y-101710796D01*
X159892186Y-101877334D01*
X159984288Y-102026657D01*
X160108342Y-102150711D01*
X160164895Y-102185592D01*
X160257666Y-102242814D01*
X160369017Y-102279712D01*
X160424202Y-102297999D01*
X160434703Y-102299071D01*
X160526991Y-102308500D01*
X161527008Y-102308499D01*
X161629797Y-102297999D01*
X161796334Y-102242814D01*
X161945656Y-102150712D01*
X162069712Y-102026656D01*
X162102855Y-101972920D01*
X162130073Y-101941885D01*
X162165972Y-101921505D01*
X162176824Y-101917555D01*
X162180085Y-101916423D01*
X162251334Y-101892814D01*
X162251336Y-101892812D01*
X162252536Y-101892415D01*
X162270063Y-101883929D01*
X162271112Y-101883238D01*
X162271117Y-101883237D01*
X162333806Y-101842005D01*
X162336798Y-101840099D01*
X162400656Y-101800712D01*
X162400656Y-101800711D01*
X162401729Y-101800050D01*
X162416824Y-101787753D01*
X162417692Y-101786832D01*
X162417696Y-101786830D01*
X162448807Y-101753853D01*
X162478253Y-101730848D01*
X162513217Y-101717658D01*
X162576803Y-101704144D01*
X162576804Y-101704143D01*
X162576806Y-101704143D01*
X162749730Y-101627151D01*
X162902870Y-101515889D01*
X163029533Y-101375216D01*
X163115186Y-101226861D01*
X163160573Y-101181474D01*
X163222573Y-101164861D01*
X163284573Y-101181474D01*
X163329960Y-101226861D01*
X163346573Y-101288861D01*
X163346573Y-102161325D01*
X163329553Y-102224025D01*
X163283166Y-102269511D01*
X163213553Y-102308500D01*
X162832182Y-102522093D01*
X162387948Y-102813917D01*
X161965444Y-103136380D01*
X161566752Y-103487890D01*
X161193894Y-103866667D01*
X160848709Y-104270844D01*
X160532940Y-104698375D01*
X160248149Y-105147152D01*
X159995764Y-105614918D01*
X159777040Y-106099352D01*
X159593087Y-106597995D01*
X159444803Y-107108407D01*
X159332937Y-107628020D01*
X159258047Y-108154229D01*
X159220512Y-108684400D01*
X159220512Y-109215921D01*
X159258048Y-109746094D01*
X159284226Y-109930030D01*
X159332938Y-110272307D01*
X159391985Y-110546576D01*
X159444803Y-110791914D01*
X159593088Y-111302326D01*
X159777041Y-111800968D01*
X159777046Y-111800979D01*
X159995764Y-112285401D01*
X160248149Y-112753167D01*
X160302142Y-112838250D01*
X160532941Y-113201945D01*
X160732645Y-113472331D01*
X160756459Y-113535544D01*
X160743606Y-113601861D01*
X160697898Y-113651600D01*
X160632901Y-113670000D01*
X145911000Y-113670000D01*
X145849000Y-113653387D01*
X145803613Y-113608000D01*
X145787000Y-113546000D01*
X145787000Y-99062000D01*
X145803613Y-99000000D01*
X145849000Y-98954613D01*
X145911000Y-98938000D01*
X159702500Y-98938000D01*
X159764500Y-98954613D01*
G37*
%TD.AperFunction*%
%TD*%
%TA.AperFunction,Conductor*%
%TO.N,GND*%
G36*
X167315000Y-85619613D02*
G01*
X167360387Y-85665000D01*
X167377000Y-85727000D01*
X167377000Y-87004259D01*
X167367707Y-87051358D01*
X167341221Y-87091397D01*
X167265630Y-87167927D01*
X167196518Y-87237898D01*
X167193448Y-87240900D01*
X166428752Y-87963263D01*
X166425580Y-87966157D01*
X165635534Y-88662312D01*
X165633910Y-88663718D01*
X165501508Y-88776372D01*
X165501060Y-88776797D01*
X165456090Y-88815057D01*
X165121544Y-89144114D01*
X164811597Y-89496424D01*
X164527845Y-89870173D01*
X164271784Y-90263387D01*
X164044729Y-90674049D01*
X163847870Y-91100009D01*
X163682228Y-91539056D01*
X163548669Y-91988893D01*
X163447885Y-92447189D01*
X163380399Y-92911566D01*
X163346568Y-93379585D01*
X163346573Y-93614215D01*
X163346573Y-93614219D01*
X163346571Y-93789567D01*
X163346573Y-93789604D01*
X163346573Y-98179000D01*
X163329960Y-98241000D01*
X163284573Y-98286387D01*
X163222573Y-98303000D01*
X162034731Y-98303000D01*
X161987278Y-98293561D01*
X161947050Y-98266681D01*
X161945657Y-98265288D01*
X161836404Y-98197901D01*
X161793223Y-98152794D01*
X161777500Y-98092362D01*
X161777500Y-98073005D01*
X161793222Y-98012574D01*
X161836403Y-97967467D01*
X161855044Y-97955968D01*
X161974968Y-97836044D01*
X162064002Y-97691699D01*
X162071690Y-97668500D01*
X162117349Y-97530708D01*
X162127500Y-97431345D01*
X162127499Y-96884656D01*
X162117349Y-96785292D01*
X162064003Y-96624303D01*
X162064002Y-96624302D01*
X162064002Y-96624300D01*
X161974968Y-96479955D01*
X161855044Y-96360031D01*
X161710699Y-96270997D01*
X161549707Y-96217650D01*
X161450345Y-96207500D01*
X161189229Y-96207500D01*
X161141776Y-96198061D01*
X161101548Y-96171181D01*
X160212728Y-95282360D01*
X160200946Y-95268727D01*
X160186609Y-95249469D01*
X160148666Y-95217631D01*
X160140691Y-95210323D01*
X160136782Y-95206414D01*
X160136782Y-95206413D01*
X160136777Y-95206409D01*
X160112423Y-95187152D01*
X160109647Y-95184890D01*
X160051251Y-95135890D01*
X160034821Y-95125422D01*
X159965691Y-95093186D01*
X159962447Y-95091615D01*
X159894306Y-95057394D01*
X159875903Y-95050997D01*
X159801211Y-95035574D01*
X159797692Y-95034794D01*
X159723490Y-95017208D01*
X159704121Y-95015229D01*
X159627869Y-95017448D01*
X159624263Y-95017500D01*
X158681499Y-95017500D01*
X158619499Y-95000887D01*
X158574112Y-94955500D01*
X158557499Y-94893500D01*
X158557499Y-94320130D01*
X158557499Y-94320127D01*
X158551091Y-94260517D01*
X158500796Y-94125669D01*
X158414546Y-94010454D01*
X158299331Y-93924204D01*
X158164483Y-93873909D01*
X158104873Y-93867500D01*
X158104869Y-93867500D01*
X157109130Y-93867500D01*
X157049515Y-93873909D01*
X156914669Y-93924204D01*
X156799454Y-94010454D01*
X156713204Y-94125668D01*
X156662909Y-94260516D01*
X156656500Y-94320130D01*
X156656500Y-97215869D01*
X156662909Y-97275483D01*
X156713204Y-97410331D01*
X156799454Y-97525546D01*
X156914669Y-97611796D01*
X157049517Y-97662091D01*
X157109127Y-97668500D01*
X158104872Y-97668499D01*
X158164483Y-97662091D01*
X158299331Y-97611796D01*
X158414546Y-97525546D01*
X158500796Y-97410331D01*
X158551091Y-97275483D01*
X158557500Y-97215873D01*
X158557500Y-96642500D01*
X158574113Y-96580500D01*
X158619500Y-96535113D01*
X158681500Y-96518500D01*
X159274770Y-96518500D01*
X159322223Y-96527939D01*
X159362451Y-96554819D01*
X159890181Y-97082549D01*
X159917061Y-97122777D01*
X159926500Y-97170230D01*
X159926500Y-97431344D01*
X159936650Y-97530707D01*
X159989997Y-97691699D01*
X160079031Y-97836044D01*
X160198955Y-97955968D01*
X160217597Y-97967467D01*
X160260778Y-98012574D01*
X160276500Y-98073005D01*
X160276500Y-98092362D01*
X160260777Y-98152794D01*
X160217596Y-98197901D01*
X160108342Y-98265288D01*
X160106950Y-98266681D01*
X160066722Y-98293561D01*
X160019269Y-98303000D01*
X145911000Y-98303000D01*
X145849000Y-98286387D01*
X145803613Y-98241000D01*
X145787000Y-98179000D01*
X145787000Y-91442000D01*
X145803613Y-91380000D01*
X145849000Y-91334613D01*
X145911000Y-91318000D01*
X153407000Y-91318000D01*
X153407000Y-85727000D01*
X153423613Y-85665000D01*
X153469000Y-85619613D01*
X153531000Y-85603000D01*
X167253000Y-85603000D01*
X167315000Y-85619613D01*
G37*
%TD.AperFunction*%
%TD*%
%TA.AperFunction,Conductor*%
%TO.N,Earth_Protective*%
G36*
X135184000Y-116988613D02*
G01*
X135229387Y-117034000D01*
X135246000Y-117096000D01*
X135246000Y-118960157D01*
X135229391Y-119022150D01*
X135184015Y-119067536D01*
X135122026Y-119084156D01*
X133157725Y-119084564D01*
X128472043Y-119085536D01*
X128410032Y-119068932D01*
X128364634Y-119023543D01*
X128348017Y-118961536D01*
X128348017Y-117096000D01*
X128364630Y-117034000D01*
X128410017Y-116988613D01*
X128472017Y-116972000D01*
X135122000Y-116972000D01*
X135184000Y-116988613D01*
G37*
%TD.AperFunction*%
%TD*%
%TA.AperFunction,Conductor*%
%TO.N,B*%
G36*
X146956672Y-34953939D02*
G01*
X146961044Y-34954096D01*
X148043914Y-35012139D01*
X148048234Y-35012448D01*
X149128312Y-35109102D01*
X149132690Y-35109572D01*
X150208645Y-35244717D01*
X150212927Y-35245332D01*
X151283376Y-35418794D01*
X151287706Y-35419575D01*
X152351253Y-35631128D01*
X152355520Y-35632056D01*
X153410840Y-35881435D01*
X153415077Y-35882516D01*
X153944260Y-36027690D01*
X153997991Y-36058461D01*
X154030145Y-36111377D01*
X154032704Y-36173243D01*
X153943319Y-36590558D01*
X153892824Y-37019337D01*
X153882704Y-37450971D01*
X153913043Y-37881638D01*
X153983584Y-38307594D01*
X154093694Y-38725053D01*
X154242418Y-39130378D01*
X154428443Y-39519997D01*
X154650134Y-39890482D01*
X154905542Y-40238576D01*
X155192423Y-40561224D01*
X155508263Y-40855596D01*
X155850270Y-41119090D01*
X155850274Y-41119093D01*
X156215459Y-41349408D01*
X156215461Y-41349409D01*
X156526322Y-41506884D01*
X156574858Y-41550861D01*
X156594219Y-41613431D01*
X156579004Y-41677136D01*
X156533457Y-41724202D01*
X156470286Y-41741500D01*
X148690130Y-41741500D01*
X148630515Y-41747909D01*
X148495669Y-41798204D01*
X148380454Y-41884454D01*
X148294204Y-41999668D01*
X148243909Y-42134516D01*
X148237500Y-42194130D01*
X148237500Y-43839869D01*
X148240321Y-43866105D01*
X148243909Y-43899483D01*
X148294204Y-44034331D01*
X148380454Y-44149546D01*
X148495669Y-44235796D01*
X148630517Y-44286091D01*
X148690127Y-44292500D01*
X148813500Y-44292499D01*
X148875499Y-44309112D01*
X148920887Y-44354499D01*
X148937500Y-44416499D01*
X148937500Y-45925024D01*
X148923031Y-45983153D01*
X148883001Y-46027716D01*
X148844822Y-46041696D01*
X148845110Y-46042466D01*
X148695669Y-46098204D01*
X148580454Y-46184454D01*
X148494204Y-46299668D01*
X148443909Y-46434516D01*
X148437500Y-46494130D01*
X148437500Y-50289869D01*
X148443909Y-50349483D01*
X148494204Y-50484331D01*
X148580454Y-50599546D01*
X148695669Y-50685796D01*
X148830517Y-50736091D01*
X148890127Y-50742500D01*
X158685872Y-50742499D01*
X158745483Y-50736091D01*
X158880331Y-50685796D01*
X158893657Y-50675819D01*
X158923690Y-50653338D01*
X158986948Y-50629099D01*
X159053505Y-50641721D01*
X159103495Y-50687438D01*
X159122000Y-50752605D01*
X159122000Y-57276969D01*
X159109450Y-57331327D01*
X159074342Y-57374682D01*
X159023781Y-57398259D01*
X158842197Y-57436855D01*
X158669269Y-57513848D01*
X158505585Y-57632772D01*
X158505069Y-57632061D01*
X158477242Y-57652280D01*
X158426806Y-57663000D01*
X149722965Y-57663000D01*
X149660965Y-57646387D01*
X149615578Y-57601000D01*
X149598965Y-57539000D01*
X149615578Y-57477000D01*
X149662179Y-57396284D01*
X149663408Y-57392501D01*
X149717522Y-57225955D01*
X149747769Y-57176597D01*
X150073642Y-56850724D01*
X150087260Y-56838954D01*
X150106530Y-56824610D01*
X150138376Y-56786656D01*
X150145662Y-56778704D01*
X150149591Y-56774777D01*
X150168833Y-56750439D01*
X150171090Y-56747670D01*
X150189345Y-56725915D01*
X150219302Y-56690214D01*
X150219303Y-56690211D01*
X150220115Y-56689244D01*
X150230573Y-56672827D01*
X150231106Y-56671682D01*
X150231111Y-56671677D01*
X150262833Y-56603646D01*
X150264362Y-56600488D01*
X150298040Y-56533433D01*
X150298040Y-56533432D01*
X150298612Y-56532294D01*
X150305000Y-56513914D01*
X150305255Y-56512675D01*
X150305257Y-56512673D01*
X150320447Y-56439103D01*
X150321186Y-56435770D01*
X150338500Y-56362721D01*
X150338500Y-56362717D01*
X150338791Y-56361489D01*
X150340770Y-56342121D01*
X150340733Y-56340859D01*
X150340734Y-56340856D01*
X150338552Y-56265869D01*
X150338500Y-56262263D01*
X150338500Y-55729320D01*
X150351616Y-55673815D01*
X150388188Y-55630053D01*
X150395546Y-55624546D01*
X150481796Y-55509331D01*
X150532091Y-55374483D01*
X150538500Y-55314873D01*
X150538499Y-52419128D01*
X150532091Y-52359517D01*
X150481796Y-52224669D01*
X150395546Y-52109454D01*
X150280331Y-52023204D01*
X150145483Y-51972909D01*
X150085873Y-51966500D01*
X150085869Y-51966500D01*
X149090130Y-51966500D01*
X149030515Y-51972909D01*
X148895669Y-52023204D01*
X148780454Y-52109454D01*
X148694204Y-52224668D01*
X148643909Y-52359516D01*
X148637500Y-52419130D01*
X148637500Y-55314869D01*
X148643909Y-55374484D01*
X148658280Y-55413014D01*
X148694204Y-55509331D01*
X148780454Y-55624546D01*
X148787811Y-55630053D01*
X148824384Y-55673815D01*
X148837500Y-55729320D01*
X148837500Y-55912771D01*
X148828061Y-55960224D01*
X148801183Y-56000449D01*
X148709114Y-56092518D01*
X148682229Y-56119403D01*
X148653715Y-56140695D01*
X148620329Y-56153011D01*
X148555197Y-56166855D01*
X148382272Y-56243846D01*
X148243504Y-56344667D01*
X148186159Y-56367370D01*
X148124971Y-56359640D01*
X148075075Y-56323388D01*
X148048815Y-56267582D01*
X148052687Y-56206034D01*
X148069674Y-56153756D01*
X148089460Y-55965500D01*
X148069674Y-55777244D01*
X148030004Y-55655154D01*
X148011179Y-55597215D01*
X147916535Y-55433286D01*
X147888407Y-55402047D01*
X147789871Y-55292612D01*
X147789867Y-55292609D01*
X147784342Y-55286473D01*
X147756175Y-55233499D01*
X147756175Y-55173501D01*
X147784342Y-55120527D01*
X147789867Y-55114390D01*
X147789871Y-55114388D01*
X147916533Y-54973716D01*
X148011179Y-54809784D01*
X148069674Y-54629756D01*
X148089460Y-54441500D01*
X148069674Y-54253244D01*
X148011179Y-54073216D01*
X148011179Y-54073215D01*
X147916535Y-53909286D01*
X147886420Y-53875840D01*
X147841347Y-53825782D01*
X147817736Y-53787251D01*
X147809500Y-53742813D01*
X147809500Y-53642240D01*
X147811763Y-53621736D01*
X147809561Y-53551644D01*
X147809500Y-53547750D01*
X147809500Y-53520157D01*
X147809500Y-53520150D01*
X147808995Y-53516153D01*
X147808080Y-53504523D01*
X147806709Y-53460873D01*
X147801120Y-53441640D01*
X147797174Y-53422582D01*
X147794664Y-53402708D01*
X147778588Y-53362106D01*
X147774804Y-53351052D01*
X147762619Y-53309113D01*
X147762618Y-53309112D01*
X147762618Y-53309110D01*
X147752417Y-53291861D01*
X147743860Y-53274395D01*
X147736486Y-53255768D01*
X147710813Y-53220432D01*
X147704402Y-53210672D01*
X147682169Y-53173078D01*
X147668006Y-53158915D01*
X147655369Y-53144120D01*
X147643595Y-53127914D01*
X147643594Y-53127913D01*
X147609935Y-53100068D01*
X147601305Y-53092214D01*
X147371818Y-52862727D01*
X147344938Y-52822499D01*
X147335499Y-52775046D01*
X147335499Y-52258637D01*
X147320044Y-52141239D01*
X147307659Y-52111338D01*
X147259536Y-51995159D01*
X147184194Y-51896971D01*
X147163282Y-51869717D01*
X147037840Y-51773463D01*
X146891762Y-51712956D01*
X146774362Y-51697500D01*
X146495637Y-51697500D01*
X146378240Y-51712954D01*
X146357451Y-51721566D01*
X146309999Y-51731004D01*
X146262548Y-51721566D01*
X146241762Y-51712956D01*
X146163494Y-51702651D01*
X146124362Y-51697500D01*
X145845637Y-51697500D01*
X145728240Y-51712954D01*
X145707451Y-51721566D01*
X145659999Y-51731004D01*
X145612548Y-51721566D01*
X145591762Y-51712956D01*
X145513494Y-51702651D01*
X145474362Y-51697500D01*
X145474361Y-51697500D01*
X145412365Y-51697500D01*
X145354150Y-51682985D01*
X145309564Y-51642840D01*
X145289044Y-51586463D01*
X145275674Y-51459244D01*
X145217179Y-51279216D01*
X145217179Y-51279215D01*
X145122533Y-51115283D01*
X144995870Y-50974610D01*
X144842730Y-50863348D01*
X144669802Y-50786355D01*
X144484648Y-50747000D01*
X144484646Y-50747000D01*
X144295354Y-50747000D01*
X144295352Y-50747000D01*
X144110197Y-50786355D01*
X143937269Y-50863348D01*
X143784129Y-50974610D01*
X143657466Y-51115283D01*
X143562820Y-51279215D01*
X143504326Y-51459242D01*
X143484540Y-51647499D01*
X143504326Y-51835757D01*
X143553988Y-51988601D01*
X143556039Y-52058228D01*
X143520228Y-52117975D01*
X143457856Y-52148988D01*
X143388605Y-52141480D01*
X143315839Y-52111339D01*
X143253830Y-52094724D01*
X143123001Y-52077500D01*
X143123000Y-52077500D01*
X142563514Y-52077500D01*
X142524355Y-52071154D01*
X142489204Y-52052767D01*
X142424333Y-52004205D01*
X142424331Y-52004204D01*
X142289483Y-51953909D01*
X142229873Y-51947500D01*
X142229869Y-51947500D01*
X141234130Y-51947500D01*
X141181084Y-51953203D01*
X141174517Y-51953909D01*
X141174516Y-51953909D01*
X141172360Y-51954141D01*
X141131999Y-51961422D01*
X141091646Y-51954141D01*
X141056810Y-51950396D01*
X141029873Y-51947500D01*
X141029869Y-51947500D01*
X140034130Y-51947500D01*
X139981084Y-51953203D01*
X139974517Y-51953909D01*
X139974516Y-51953909D01*
X139972360Y-51954141D01*
X139931999Y-51961422D01*
X139891646Y-51954141D01*
X139856810Y-51950396D01*
X139829873Y-51947500D01*
X139829869Y-51947500D01*
X138834130Y-51947500D01*
X138781084Y-51953203D01*
X138774517Y-51953909D01*
X138774516Y-51953909D01*
X138772360Y-51954141D01*
X138731999Y-51961422D01*
X138691646Y-51954141D01*
X138656810Y-51950396D01*
X138629873Y-51947500D01*
X138629869Y-51947500D01*
X137634130Y-51947500D01*
X137581084Y-51953203D01*
X137574517Y-51953909D01*
X137574516Y-51953909D01*
X137572360Y-51954141D01*
X137531999Y-51961422D01*
X137491646Y-51954141D01*
X137456810Y-51950396D01*
X137429873Y-51947500D01*
X137429869Y-51947500D01*
X136434130Y-51947500D01*
X136381084Y-51953203D01*
X136374517Y-51953909D01*
X136374516Y-51953909D01*
X136372360Y-51954141D01*
X136331999Y-51961422D01*
X136291646Y-51954141D01*
X136256810Y-51950396D01*
X136229873Y-51947500D01*
X136229869Y-51947500D01*
X135234130Y-51947500D01*
X135181084Y-51953203D01*
X135174517Y-51953909D01*
X135174516Y-51953909D01*
X135172360Y-51954141D01*
X135131999Y-51961422D01*
X135091646Y-51954141D01*
X135056810Y-51950396D01*
X135029873Y-51947500D01*
X135029869Y-51947500D01*
X134034130Y-51947500D01*
X133981084Y-51953203D01*
X133974517Y-51953909D01*
X133974516Y-51953909D01*
X133972360Y-51954141D01*
X133931999Y-51961422D01*
X133891646Y-51954141D01*
X133856810Y-51950396D01*
X133829873Y-51947500D01*
X133829869Y-51947500D01*
X132834130Y-51947500D01*
X132774515Y-51953909D01*
X132681503Y-51988601D01*
X132639669Y-52004204D01*
X132639668Y-52004204D01*
X132622964Y-52010435D01*
X132621750Y-52007182D01*
X132587050Y-52020478D01*
X132520494Y-52007854D01*
X132470504Y-51962137D01*
X132452000Y-51896971D01*
X132452000Y-44963000D01*
X123545780Y-44963000D01*
X123490672Y-44950081D01*
X123447046Y-44914018D01*
X123423993Y-44862323D01*
X123426316Y-44805768D01*
X123453531Y-44756138D01*
X123546384Y-44652766D01*
X123549362Y-44649567D01*
X124302373Y-43869182D01*
X124305398Y-43866157D01*
X125085782Y-43113147D01*
X125088941Y-43110204D01*
X125895759Y-42385479D01*
X125899006Y-42382666D01*
X126731109Y-41687256D01*
X126734473Y-41684545D01*
X127590858Y-41019285D01*
X127594348Y-41016672D01*
X128473953Y-40382387D01*
X128477523Y-40379909D01*
X129138265Y-39938414D01*
X129197234Y-39917915D01*
X129258718Y-39928746D01*
X129307131Y-39968162D01*
X129505542Y-40238576D01*
X129792423Y-40561224D01*
X130108263Y-40855596D01*
X130450270Y-41119090D01*
X130450274Y-41119093D01*
X130815459Y-41349408D01*
X131200606Y-41544514D01*
X131602331Y-41702697D01*
X132017103Y-41822567D01*
X132441278Y-41903071D01*
X132771532Y-41934132D01*
X132871125Y-41943500D01*
X132871127Y-41943500D01*
X133194871Y-41943500D01*
X133194877Y-41943500D01*
X133518272Y-41928325D01*
X133945753Y-41867792D01*
X134365688Y-41767495D01*
X134774386Y-41628316D01*
X134961043Y-41544511D01*
X135168253Y-41451478D01*
X135543835Y-41238532D01*
X135720827Y-41114942D01*
X135897822Y-40991353D01*
X136227108Y-40712113D01*
X136528799Y-40403265D01*
X136800244Y-40067523D01*
X137039056Y-39707837D01*
X137243137Y-39327370D01*
X137410695Y-38929463D01*
X137540255Y-38517615D01*
X137630680Y-38095445D01*
X137681175Y-37666661D01*
X137691296Y-37235034D01*
X137676100Y-37019337D01*
X137660956Y-36804361D01*
X137625549Y-36590555D01*
X137590417Y-36378410D01*
X137549356Y-36222736D01*
X137549500Y-36158947D01*
X137581340Y-36103668D01*
X137636446Y-36071534D01*
X138325459Y-35882512D01*
X138329669Y-35881439D01*
X139385014Y-35632054D01*
X139389259Y-35631130D01*
X140452827Y-35419573D01*
X140457137Y-35418796D01*
X141527604Y-35245331D01*
X141531870Y-35244718D01*
X142607839Y-35109572D01*
X142612205Y-35109102D01*
X143692293Y-35012448D01*
X143696605Y-35012139D01*
X144779481Y-34954095D01*
X144783849Y-34953939D01*
X145868077Y-34934585D01*
X145872447Y-34934585D01*
X146956672Y-34953939D01*
G37*
%TD.AperFunction*%
%TD*%
%TA.AperFunction,Conductor*%
%TO.N,A*%
G36*
X169029184Y-45609670D02*
G01*
X169071815Y-45642483D01*
X169617017Y-46294852D01*
X169619795Y-46298299D01*
X170285001Y-47154615D01*
X170287654Y-47158158D01*
X170921897Y-48037705D01*
X170924421Y-48041341D01*
X171526847Y-48942935D01*
X171529240Y-48946659D01*
X172099100Y-49869177D01*
X172101359Y-49872984D01*
X172637928Y-50815254D01*
X172640050Y-50819139D01*
X173142668Y-51779999D01*
X173144649Y-51783958D01*
X173612623Y-52762090D01*
X173614462Y-52766116D01*
X174047243Y-53760366D01*
X174048937Y-53764456D01*
X174445947Y-54773497D01*
X174447494Y-54777644D01*
X174808240Y-55800225D01*
X174809638Y-55804425D01*
X175133656Y-56839232D01*
X175134903Y-56843479D01*
X175421784Y-57889204D01*
X175422878Y-57893493D01*
X175672244Y-58948758D01*
X175673185Y-58953084D01*
X175884729Y-60016588D01*
X175885515Y-60020944D01*
X176058967Y-61091330D01*
X176059597Y-61095712D01*
X176194733Y-62171606D01*
X176195206Y-62176007D01*
X176266506Y-62972757D01*
X176267000Y-62983809D01*
X176267000Y-67880872D01*
X176266536Y-67891595D01*
X176205480Y-68595026D01*
X176205034Y-68599297D01*
X176077841Y-69643480D01*
X176077248Y-69647733D01*
X175913974Y-70686905D01*
X175913234Y-70691135D01*
X175714076Y-71724034D01*
X175713190Y-71728235D01*
X175478395Y-72753580D01*
X175477365Y-72757749D01*
X175207190Y-73774416D01*
X175206015Y-73778546D01*
X174900811Y-74785213D01*
X174899494Y-74789301D01*
X174559613Y-75784806D01*
X174558156Y-75788843D01*
X174540391Y-75835526D01*
X174499698Y-75890020D01*
X174436383Y-75914853D01*
X174369493Y-75902556D01*
X174319150Y-75856828D01*
X174300499Y-75791424D01*
X174300499Y-75152637D01*
X174286606Y-75047102D01*
X174285044Y-75035238D01*
X174272350Y-75004591D01*
X174264702Y-74936138D01*
X174294762Y-74874165D01*
X174332533Y-74832216D01*
X174427179Y-74668284D01*
X174461207Y-74563556D01*
X174485674Y-74488256D01*
X174505460Y-74300000D01*
X174485674Y-74111744D01*
X174427179Y-73931716D01*
X174427179Y-73931715D01*
X174332533Y-73767783D01*
X174205870Y-73627110D01*
X174052730Y-73515848D01*
X173879802Y-73438855D01*
X173694648Y-73399500D01*
X173694646Y-73399500D01*
X173505354Y-73399500D01*
X173505352Y-73399500D01*
X173320199Y-73438854D01*
X173145113Y-73516808D01*
X173094678Y-73527528D01*
X173044243Y-73516808D01*
X172859501Y-73434555D01*
X172674349Y-73395201D01*
X172674347Y-73395201D01*
X172485055Y-73395201D01*
X172485053Y-73395201D01*
X172299898Y-73434556D01*
X172119459Y-73514894D01*
X172069023Y-73525615D01*
X172018587Y-73514894D01*
X171847802Y-73438855D01*
X171662648Y-73399500D01*
X171662646Y-73399500D01*
X171473354Y-73399500D01*
X171473352Y-73399500D01*
X171288197Y-73438855D01*
X171115269Y-73515848D01*
X170962129Y-73627110D01*
X170835466Y-73767783D01*
X170740820Y-73931715D01*
X170682326Y-74111742D01*
X170662540Y-74300000D01*
X170682326Y-74488257D01*
X170740820Y-74668284D01*
X170835464Y-74832213D01*
X170835467Y-74832216D01*
X170910652Y-74915717D01*
X170934264Y-74954249D01*
X170942500Y-74998687D01*
X170942500Y-75739756D01*
X170940235Y-75760262D01*
X170942439Y-75830373D01*
X170942500Y-75834268D01*
X170942500Y-75861849D01*
X170943003Y-75865834D01*
X170943918Y-75877467D01*
X170945394Y-75924415D01*
X170949500Y-75953262D01*
X170949500Y-76656362D01*
X170964955Y-76773760D01*
X171025464Y-76919841D01*
X171121717Y-77045282D01*
X171197657Y-77103552D01*
X171247159Y-77141536D01*
X171393238Y-77202044D01*
X171510639Y-77217500D01*
X171789360Y-77217499D01*
X171789362Y-77217499D01*
X171836320Y-77211317D01*
X171906762Y-77202044D01*
X171927549Y-77193433D01*
X171975000Y-77183995D01*
X172022450Y-77193433D01*
X172043238Y-77202044D01*
X172160639Y-77217500D01*
X172316540Y-77217499D01*
X172382248Y-77236340D01*
X172427989Y-77287138D01*
X172436486Y-77335321D01*
X172439178Y-77335039D01*
X172460326Y-77536257D01*
X172518820Y-77716284D01*
X172613466Y-77880216D01*
X172740129Y-78020889D01*
X172893269Y-78132151D01*
X173066197Y-78209144D01*
X173251352Y-78248500D01*
X173348198Y-78248500D01*
X173407747Y-78263735D01*
X173452664Y-78305696D01*
X173471911Y-78364072D01*
X173460759Y-78424519D01*
X173331443Y-78704338D01*
X173329574Y-78708204D01*
X172855478Y-79647249D01*
X172853477Y-79651048D01*
X172347156Y-80573108D01*
X172345024Y-80576836D01*
X171807103Y-81480771D01*
X171804844Y-81484423D01*
X171235910Y-82369248D01*
X171233525Y-82372819D01*
X170634322Y-83237373D01*
X170631815Y-83240860D01*
X170003018Y-84084172D01*
X170000392Y-84087569D01*
X169342793Y-84908579D01*
X169340053Y-84911882D01*
X169328932Y-84924822D01*
X169286630Y-84956690D01*
X169234890Y-84968000D01*
X153531000Y-84968000D01*
X153469000Y-84951387D01*
X153423613Y-84906000D01*
X153407000Y-84844000D01*
X153407000Y-80975869D01*
X160981500Y-80975869D01*
X160987909Y-81035484D01*
X161000124Y-81068234D01*
X161038204Y-81170331D01*
X161124454Y-81285546D01*
X161239669Y-81371796D01*
X161374517Y-81422091D01*
X161434127Y-81428500D01*
X165229872Y-81428499D01*
X165289483Y-81422091D01*
X165424331Y-81371796D01*
X165539546Y-81285546D01*
X165625796Y-81170331D01*
X165676091Y-81035483D01*
X165676090Y-81035483D01*
X165681534Y-81020890D01*
X165682303Y-81021177D01*
X165696288Y-80982994D01*
X165740851Y-80942967D01*
X165798977Y-80928499D01*
X167307500Y-80928499D01*
X167369500Y-80945112D01*
X167414887Y-80990498D01*
X167431500Y-81052498D01*
X167431500Y-81175869D01*
X167437909Y-81235483D01*
X167488204Y-81370331D01*
X167574454Y-81485546D01*
X167689669Y-81571796D01*
X167824517Y-81622091D01*
X167884127Y-81628500D01*
X169529872Y-81628499D01*
X169589483Y-81622091D01*
X169724331Y-81571796D01*
X169839546Y-81485546D01*
X169925796Y-81370331D01*
X169976091Y-81235483D01*
X169982500Y-81175873D01*
X169982499Y-70980128D01*
X169976091Y-70920517D01*
X169925796Y-70785669D01*
X169839546Y-70670454D01*
X169724331Y-70584204D01*
X169589483Y-70533909D01*
X169529873Y-70527500D01*
X169529869Y-70527500D01*
X167884130Y-70527500D01*
X167824515Y-70533909D01*
X167689669Y-70584204D01*
X167574454Y-70670454D01*
X167488204Y-70785668D01*
X167437909Y-70920516D01*
X167431500Y-70980131D01*
X167431500Y-71103500D01*
X167414887Y-71165500D01*
X167369500Y-71210887D01*
X167307500Y-71227500D01*
X165798976Y-71227500D01*
X165740847Y-71213031D01*
X165696284Y-71173001D01*
X165682303Y-71134822D01*
X165681534Y-71135110D01*
X165668731Y-71100783D01*
X165625796Y-70985669D01*
X165539546Y-70870454D01*
X165424331Y-70784204D01*
X165289483Y-70733909D01*
X165229873Y-70727500D01*
X165229869Y-70727500D01*
X161434130Y-70727500D01*
X161374515Y-70733909D01*
X161239669Y-70784204D01*
X161124454Y-70870454D01*
X161038204Y-70985668D01*
X160987909Y-71120516D01*
X160981500Y-71180130D01*
X160981500Y-80975869D01*
X153407000Y-80975869D01*
X153407000Y-71632999D01*
X154406540Y-71632999D01*
X154426326Y-71821257D01*
X154484820Y-72001284D01*
X154579466Y-72165216D01*
X154706129Y-72305889D01*
X154859269Y-72417151D01*
X155032193Y-72494143D01*
X155032196Y-72494143D01*
X155032197Y-72494144D01*
X155147563Y-72518665D01*
X155174171Y-72527568D01*
X155228328Y-72552822D01*
X155231509Y-72554362D01*
X155298567Y-72588040D01*
X155298568Y-72588040D01*
X155299701Y-72588609D01*
X155318084Y-72594998D01*
X155319321Y-72595253D01*
X155319327Y-72595256D01*
X155392862Y-72610439D01*
X155396209Y-72611181D01*
X155469279Y-72628500D01*
X155469281Y-72628500D01*
X155470505Y-72628790D01*
X155489876Y-72630769D01*
X155491140Y-72630732D01*
X155491144Y-72630733D01*
X155566110Y-72628552D01*
X155569716Y-72628500D01*
X155994680Y-72628500D01*
X156050185Y-72641616D01*
X156093946Y-72678188D01*
X156099454Y-72685546D01*
X156214669Y-72771796D01*
X156349517Y-72822091D01*
X156409127Y-72828500D01*
X159304872Y-72828499D01*
X159364483Y-72822091D01*
X159499331Y-72771796D01*
X159614546Y-72685546D01*
X159700796Y-72570331D01*
X159751091Y-72435483D01*
X159757500Y-72375873D01*
X159757499Y-71380128D01*
X159751091Y-71320517D01*
X159700796Y-71185669D01*
X159614546Y-71070454D01*
X159499331Y-70984204D01*
X159364483Y-70933909D01*
X159304873Y-70927500D01*
X159304869Y-70927500D01*
X156409130Y-70927500D01*
X156349515Y-70933909D01*
X156225600Y-70980127D01*
X156214669Y-70984204D01*
X156176501Y-71012777D01*
X156141005Y-71039349D01*
X156085120Y-71062705D01*
X156024838Y-71056804D01*
X155974544Y-71023054D01*
X155940882Y-70985669D01*
X155917871Y-70960112D01*
X155917870Y-70960111D01*
X155917869Y-70960110D01*
X155764730Y-70848848D01*
X155591802Y-70771855D01*
X155406648Y-70732500D01*
X155406646Y-70732500D01*
X155217354Y-70732500D01*
X155217352Y-70732500D01*
X155032197Y-70771855D01*
X154859269Y-70848848D01*
X154706129Y-70960110D01*
X154579466Y-71100783D01*
X154484820Y-71264715D01*
X154426326Y-71444742D01*
X154406540Y-71632999D01*
X153407000Y-71632999D01*
X153407000Y-69475092D01*
X169898356Y-69475092D01*
X169918142Y-69663349D01*
X169976636Y-69843376D01*
X170071282Y-70007308D01*
X170197945Y-70147981D01*
X170351085Y-70259243D01*
X170524013Y-70336236D01*
X170709168Y-70375592D01*
X170709170Y-70375592D01*
X170738145Y-70375592D01*
X170798577Y-70391315D01*
X170826483Y-70418029D01*
X170828411Y-70416102D01*
X170970898Y-70558589D01*
X170970865Y-70558621D01*
X171001366Y-70589268D01*
X171019142Y-70644244D01*
X171010076Y-70701307D01*
X170964956Y-70810237D01*
X170949500Y-70927637D01*
X170949500Y-72431362D01*
X170964955Y-72548760D01*
X171025464Y-72694841D01*
X171121717Y-72820282D01*
X171229517Y-72902999D01*
X171247159Y-72916536D01*
X171393238Y-72977044D01*
X171510639Y-72992500D01*
X171789360Y-72992499D01*
X171789362Y-72992499D01*
X171867627Y-72982195D01*
X171906762Y-72977044D01*
X171927546Y-72968434D01*
X171974998Y-72958995D01*
X172022452Y-72968434D01*
X172024607Y-72969326D01*
X172043238Y-72977044D01*
X172160639Y-72992500D01*
X172439360Y-72992499D01*
X172439362Y-72992499D01*
X172517627Y-72982195D01*
X172556762Y-72977044D01*
X172577546Y-72968434D01*
X172624998Y-72958995D01*
X172672452Y-72968434D01*
X172674607Y-72969326D01*
X172693238Y-72977044D01*
X172810639Y-72992500D01*
X173089360Y-72992499D01*
X173089362Y-72992499D01*
X173167627Y-72982195D01*
X173206762Y-72977044D01*
X173227546Y-72968434D01*
X173274998Y-72958995D01*
X173322452Y-72968434D01*
X173324607Y-72969326D01*
X173343238Y-72977044D01*
X173460639Y-72992500D01*
X173739360Y-72992499D01*
X173739362Y-72992499D01*
X173798060Y-72984771D01*
X173856762Y-72977044D01*
X174002841Y-72916536D01*
X174128282Y-72820282D01*
X174224536Y-72694841D01*
X174285044Y-72548762D01*
X174300500Y-72431361D01*
X174300499Y-70927640D01*
X174299561Y-70920517D01*
X174285044Y-70810239D01*
X174285043Y-70810237D01*
X174234938Y-70689273D01*
X174225500Y-70641821D01*
X174225500Y-70581552D01*
X174234939Y-70534099D01*
X174261819Y-70493871D01*
X174339589Y-70416101D01*
X174341288Y-70417800D01*
X174370096Y-70390222D01*
X174430528Y-70374500D01*
X174456648Y-70374500D01*
X174580084Y-70348262D01*
X174641803Y-70335144D01*
X174814730Y-70258151D01*
X174967871Y-70146888D01*
X175094533Y-70006216D01*
X175189179Y-69842284D01*
X175247674Y-69662256D01*
X175267460Y-69474000D01*
X175247674Y-69285744D01*
X175189534Y-69106808D01*
X175189179Y-69105715D01*
X175094533Y-68941783D01*
X174967870Y-68801110D01*
X174814730Y-68689848D01*
X174641802Y-68612855D01*
X174456648Y-68573500D01*
X174456646Y-68573500D01*
X174267354Y-68573500D01*
X174267352Y-68573500D01*
X174082197Y-68612855D01*
X173909270Y-68689848D01*
X173855630Y-68728819D01*
X173821063Y-68746431D01*
X173782746Y-68752500D01*
X173097323Y-68752500D01*
X172996247Y-68762825D01*
X172832484Y-68817091D01*
X172685647Y-68907661D01*
X172671681Y-68921628D01*
X172616094Y-68953722D01*
X172551906Y-68953722D01*
X172496319Y-68921628D01*
X172482352Y-68907661D01*
X172335515Y-68817091D01*
X172171753Y-68762825D01*
X172080044Y-68753457D01*
X172070676Y-68752500D01*
X171381566Y-68752500D01*
X171343248Y-68746431D01*
X171308681Y-68728818D01*
X171256546Y-68690940D01*
X171083618Y-68613947D01*
X170898464Y-68574592D01*
X170898462Y-68574592D01*
X170709170Y-68574592D01*
X170709168Y-68574592D01*
X170524013Y-68613947D01*
X170351085Y-68690940D01*
X170197945Y-68802202D01*
X170071282Y-68942875D01*
X169976636Y-69106807D01*
X169918142Y-69286834D01*
X169898356Y-69475092D01*
X153407000Y-69475092D01*
X153407000Y-58422000D01*
X153423613Y-58360000D01*
X153469000Y-58314613D01*
X153531000Y-58298000D01*
X157574636Y-58298000D01*
X157633804Y-58313027D01*
X157678631Y-58354465D01*
X157698254Y-58412271D01*
X157687916Y-58472435D01*
X157650124Y-58520373D01*
X157595529Y-58562266D01*
X157556552Y-58592175D01*
X157511170Y-58637557D01*
X157430836Y-58742250D01*
X157380339Y-58864161D01*
X157363724Y-58926169D01*
X157346500Y-59056999D01*
X157346500Y-67699001D01*
X157363724Y-67829830D01*
X157380339Y-67891838D01*
X157430836Y-68013749D01*
X157511170Y-68118442D01*
X157556557Y-68163829D01*
X157628322Y-68218896D01*
X157661250Y-68244163D01*
X157783166Y-68294662D01*
X157845166Y-68311275D01*
X157925277Y-68321822D01*
X157975999Y-68328500D01*
X157976000Y-68328500D01*
X164078000Y-68328500D01*
X164078001Y-68328500D01*
X164104166Y-68325054D01*
X164208834Y-68311275D01*
X164270834Y-68294662D01*
X164392750Y-68244163D01*
X164497442Y-68163829D01*
X164542829Y-68118442D01*
X164623163Y-68013750D01*
X164673662Y-67891834D01*
X164690275Y-67829834D01*
X164707500Y-67699000D01*
X164707500Y-59487884D01*
X164688275Y-59349800D01*
X164669770Y-59284633D01*
X164613558Y-59157055D01*
X164524635Y-59049684D01*
X164474644Y-59003967D01*
X164474642Y-59003965D01*
X164394365Y-58948758D01*
X164359772Y-58924968D01*
X164281815Y-58898635D01*
X164237817Y-58872662D01*
X164208025Y-58831153D01*
X164197499Y-58781156D01*
X164197499Y-58045130D01*
X164197499Y-58045128D01*
X164191091Y-57985517D01*
X164140796Y-57850669D01*
X164054546Y-57735454D01*
X163939331Y-57649204D01*
X163804483Y-57598909D01*
X163744873Y-57592500D01*
X163744869Y-57592500D01*
X160849130Y-57592500D01*
X160789515Y-57598909D01*
X160654669Y-57649203D01*
X160654669Y-57649204D01*
X160539454Y-57735454D01*
X160533946Y-57742811D01*
X160490185Y-57779384D01*
X160434680Y-57792500D01*
X159933796Y-57792500D01*
X159883361Y-57781780D01*
X159841646Y-57751472D01*
X159827223Y-57735454D01*
X159788849Y-57692835D01*
X159765236Y-57654302D01*
X159757000Y-57609864D01*
X159757000Y-45722000D01*
X159773613Y-45660000D01*
X159819000Y-45614613D01*
X159881000Y-45598000D01*
X168976668Y-45598000D01*
X169029184Y-45609670D01*
G37*
%TD.AperFunction*%
%TD*%
%TA.AperFunction,Conductor*%
%TO.N,C*%
G36*
X131755000Y-45614613D02*
G01*
X131800387Y-45660000D01*
X131817000Y-45722000D01*
X131817000Y-57033500D01*
X131800387Y-57095500D01*
X131755000Y-57140887D01*
X131693000Y-57157500D01*
X128130999Y-57157500D01*
X128000169Y-57174724D01*
X127938161Y-57191339D01*
X127816250Y-57241836D01*
X127711557Y-57322170D01*
X127666170Y-57367557D01*
X127585836Y-57472250D01*
X127535339Y-57594161D01*
X127535338Y-57594166D01*
X127520526Y-57649447D01*
X127518725Y-57656167D01*
X127511203Y-57713294D01*
X127487532Y-57771416D01*
X127428204Y-57850669D01*
X127384891Y-57966798D01*
X127377909Y-57985517D01*
X127371866Y-58041729D01*
X127371500Y-58045130D01*
X127371500Y-59040869D01*
X127378141Y-59102644D01*
X127385422Y-59142996D01*
X127378138Y-59183377D01*
X127371500Y-59245121D01*
X127371500Y-60240869D01*
X127378141Y-60302644D01*
X127385422Y-60342998D01*
X127378141Y-60383359D01*
X127371500Y-60445130D01*
X127371500Y-61440869D01*
X127378141Y-61502644D01*
X127385422Y-61542998D01*
X127378141Y-61583359D01*
X127371500Y-61645130D01*
X127371500Y-62640869D01*
X127378141Y-62702644D01*
X127385422Y-62742998D01*
X127378141Y-62783359D01*
X127371500Y-62845130D01*
X127371500Y-63840869D01*
X127378141Y-63902644D01*
X127385422Y-63942998D01*
X127378141Y-63983359D01*
X127371500Y-64045130D01*
X127371500Y-65040869D01*
X127378141Y-65102644D01*
X127385422Y-65142998D01*
X127378141Y-65183359D01*
X127371500Y-65245130D01*
X127371500Y-66240869D01*
X127378141Y-66302644D01*
X127385422Y-66342996D01*
X127378138Y-66383377D01*
X127371500Y-66445121D01*
X127371500Y-67440869D01*
X127377909Y-67500484D01*
X127389995Y-67532887D01*
X127428204Y-67635331D01*
X127514454Y-67750546D01*
X127629669Y-67836796D01*
X127764517Y-67887091D01*
X127824127Y-67893500D01*
X130719872Y-67893499D01*
X130779483Y-67887091D01*
X130914331Y-67836796D01*
X130987997Y-67781648D01*
X131043878Y-67758294D01*
X131104160Y-67764194D01*
X131154455Y-67797945D01*
X131211129Y-67860889D01*
X131364269Y-67972151D01*
X131537197Y-68049144D01*
X131722352Y-68088500D01*
X131722354Y-68088500D01*
X131911646Y-68088500D01*
X131911648Y-68088500D01*
X132035083Y-68062262D01*
X132096803Y-68049144D01*
X132269730Y-67972151D01*
X132299580Y-67950464D01*
X132422870Y-67860889D01*
X132456987Y-67822999D01*
X132549533Y-67720216D01*
X132644179Y-67556284D01*
X132702674Y-67376256D01*
X132722460Y-67188000D01*
X132722459Y-67187998D01*
X132723822Y-67175039D01*
X132726790Y-67175350D01*
X132735115Y-67128141D01*
X132780855Y-67077342D01*
X132846565Y-67058500D01*
X132963001Y-67058500D01*
X132989166Y-67055055D01*
X133093834Y-67041275D01*
X133155834Y-67024662D01*
X133277750Y-66974163D01*
X133382442Y-66893829D01*
X133427829Y-66848442D01*
X133508163Y-66743750D01*
X133558662Y-66621834D01*
X133575275Y-66559834D01*
X133592500Y-66429000D01*
X133592500Y-58422000D01*
X133609113Y-58360000D01*
X133654500Y-58314613D01*
X133716500Y-58298000D01*
X138043000Y-58298000D01*
X138105000Y-58314613D01*
X138150387Y-58360000D01*
X138167000Y-58422000D01*
X138167000Y-83574000D01*
X138150387Y-83636000D01*
X138105000Y-83681387D01*
X138043000Y-83698000D01*
X121511584Y-83698000D01*
X121456144Y-83684916D01*
X121412404Y-83648426D01*
X121403079Y-83636000D01*
X121162004Y-83314743D01*
X121159474Y-83311248D01*
X121075241Y-83190464D01*
X120554840Y-82444243D01*
X120552445Y-82440677D01*
X120534687Y-82413225D01*
X119978379Y-81553219D01*
X119976099Y-81549556D01*
X119752419Y-81175869D01*
X119433234Y-80642626D01*
X119431111Y-80638936D01*
X118920126Y-79713666D01*
X118918111Y-79709863D01*
X118879799Y-79634398D01*
X118439635Y-78767391D01*
X118437755Y-78763522D01*
X118377003Y-78632777D01*
X117992369Y-77804996D01*
X117990619Y-77801052D01*
X117900116Y-77587100D01*
X117816659Y-77389805D01*
X117807394Y-77330037D01*
X117827504Y-77272994D01*
X117872205Y-77232250D01*
X117930859Y-77217499D01*
X118154360Y-77217499D01*
X118154363Y-77217499D01*
X118213060Y-77209771D01*
X118271762Y-77202044D01*
X118292549Y-77193433D01*
X118340000Y-77183995D01*
X118387450Y-77193433D01*
X118408238Y-77202044D01*
X118525639Y-77217500D01*
X118804360Y-77217499D01*
X118804362Y-77217499D01*
X118851320Y-77211317D01*
X118921762Y-77202044D01*
X118942549Y-77193433D01*
X118990000Y-77183995D01*
X119037450Y-77193433D01*
X119058238Y-77202044D01*
X119175639Y-77217500D01*
X119454360Y-77217499D01*
X119454362Y-77217499D01*
X119501320Y-77211317D01*
X119571762Y-77202044D01*
X119592549Y-77193433D01*
X119640000Y-77183995D01*
X119687450Y-77193433D01*
X119708238Y-77202044D01*
X119825639Y-77217500D01*
X120104360Y-77217499D01*
X120104362Y-77217499D01*
X120163060Y-77209771D01*
X120221762Y-77202044D01*
X120367841Y-77141536D01*
X120493282Y-77045282D01*
X120589536Y-76919841D01*
X120650044Y-76773762D01*
X120650043Y-76773762D01*
X120651450Y-76770368D01*
X120686721Y-76722484D01*
X120740229Y-76696531D01*
X120793803Y-76685144D01*
X120793804Y-76685143D01*
X120793806Y-76685143D01*
X120966730Y-76608151D01*
X121119870Y-76496889D01*
X121246533Y-76356216D01*
X121291615Y-76278131D01*
X121341179Y-76192284D01*
X121349569Y-76166460D01*
X121388458Y-76109237D01*
X121451957Y-76081757D01*
X121520296Y-76092580D01*
X121572196Y-76138336D01*
X121591500Y-76204779D01*
X121591500Y-81175869D01*
X121596469Y-81222090D01*
X121597909Y-81235483D01*
X121648204Y-81370331D01*
X121734454Y-81485546D01*
X121849669Y-81571796D01*
X121984517Y-81622091D01*
X122044127Y-81628500D01*
X123689872Y-81628499D01*
X123749483Y-81622091D01*
X123884331Y-81571796D01*
X123999546Y-81485546D01*
X124085796Y-81370331D01*
X124136091Y-81235483D01*
X124142500Y-81175873D01*
X124142499Y-81052498D01*
X124159112Y-80990500D01*
X124204499Y-80945112D01*
X124266499Y-80928499D01*
X125775024Y-80928499D01*
X125833153Y-80942968D01*
X125877716Y-80982999D01*
X125891696Y-81021177D01*
X125892466Y-81020890D01*
X125897909Y-81035483D01*
X125948204Y-81170331D01*
X126034454Y-81285546D01*
X126149669Y-81371796D01*
X126284517Y-81422091D01*
X126344127Y-81428500D01*
X130139872Y-81428499D01*
X130199483Y-81422091D01*
X130334331Y-81371796D01*
X130449546Y-81285546D01*
X130535796Y-81170331D01*
X130586091Y-81035483D01*
X130592500Y-80975873D01*
X130592500Y-80775869D01*
X131816500Y-80775869D01*
X131822188Y-80828780D01*
X131822909Y-80835483D01*
X131873204Y-80970331D01*
X131959454Y-81085546D01*
X132074669Y-81171796D01*
X132209517Y-81222091D01*
X132269127Y-81228500D01*
X135164872Y-81228499D01*
X135224483Y-81222091D01*
X135359331Y-81171796D01*
X135432997Y-81116648D01*
X135488878Y-81093294D01*
X135549160Y-81099194D01*
X135599455Y-81132945D01*
X135656129Y-81195889D01*
X135809269Y-81307151D01*
X135982197Y-81384144D01*
X136167352Y-81423500D01*
X136167354Y-81423500D01*
X136356646Y-81423500D01*
X136356648Y-81423500D01*
X136480083Y-81397262D01*
X136541803Y-81384144D01*
X136714730Y-81307151D01*
X136813373Y-81235483D01*
X136867870Y-81195889D01*
X136885894Y-81175872D01*
X136994533Y-81055216D01*
X137089179Y-80891284D01*
X137147674Y-80711256D01*
X137167460Y-80523000D01*
X137147674Y-80334744D01*
X137089179Y-80154716D01*
X137089179Y-80154715D01*
X136994533Y-79990783D01*
X136867870Y-79850110D01*
X136714732Y-79738849D01*
X136599445Y-79687520D01*
X136541803Y-79661856D01*
X136498866Y-79652729D01*
X136426444Y-79637335D01*
X136399821Y-79628427D01*
X136345705Y-79603192D01*
X136342461Y-79601621D01*
X136274309Y-79567395D01*
X136255903Y-79560997D01*
X136181211Y-79545574D01*
X136177692Y-79544794D01*
X136103490Y-79527208D01*
X136084121Y-79525229D01*
X136007869Y-79527448D01*
X136004263Y-79527500D01*
X135579320Y-79527500D01*
X135523815Y-79514384D01*
X135480053Y-79477811D01*
X135474546Y-79470454D01*
X135359331Y-79384204D01*
X135224483Y-79333909D01*
X135164873Y-79327500D01*
X135164869Y-79327500D01*
X132269130Y-79327500D01*
X132209515Y-79333909D01*
X132074669Y-79384204D01*
X131959454Y-79470454D01*
X131873204Y-79585668D01*
X131822909Y-79720516D01*
X131816500Y-79780130D01*
X131816500Y-80775869D01*
X130592500Y-80775869D01*
X130592499Y-71180128D01*
X130586091Y-71120517D01*
X130535796Y-70985669D01*
X130449546Y-70870454D01*
X130334331Y-70784204D01*
X130199483Y-70733909D01*
X130139873Y-70727500D01*
X130139869Y-70727500D01*
X126344130Y-70727500D01*
X126284515Y-70733909D01*
X126149669Y-70784204D01*
X126034454Y-70870454D01*
X125948204Y-70985668D01*
X125892466Y-71135110D01*
X125891695Y-71134822D01*
X125877716Y-71173000D01*
X125833153Y-71213031D01*
X125775024Y-71227500D01*
X124266499Y-71227500D01*
X124204499Y-71210887D01*
X124159112Y-71165500D01*
X124142499Y-71103500D01*
X124142499Y-70980130D01*
X124142499Y-70980127D01*
X124136091Y-70920517D01*
X124085796Y-70785669D01*
X123999546Y-70670454D01*
X123884331Y-70584204D01*
X123749483Y-70533909D01*
X123689873Y-70527500D01*
X123689869Y-70527500D01*
X122044130Y-70527500D01*
X121984515Y-70533909D01*
X121849669Y-70584204D01*
X121734454Y-70670454D01*
X121648204Y-70785668D01*
X121597909Y-70920516D01*
X121591500Y-70980131D01*
X121591500Y-75443220D01*
X121572197Y-75509663D01*
X121520296Y-75555419D01*
X121451958Y-75566242D01*
X121388459Y-75538763D01*
X121349569Y-75481537D01*
X121341179Y-75455716D01*
X121246533Y-75291783D01*
X121119870Y-75151110D01*
X120966730Y-75039848D01*
X120793802Y-74962855D01*
X120662044Y-74934849D01*
X120621657Y-74918429D01*
X120589449Y-74889046D01*
X120561292Y-74852351D01*
X120539895Y-74808960D01*
X120536731Y-74760681D01*
X120552282Y-74714869D01*
X120579179Y-74668284D01*
X120637674Y-74488256D01*
X120657460Y-74300000D01*
X120637674Y-74111744D01*
X120599933Y-73995590D01*
X120579179Y-73931715D01*
X120484533Y-73767783D01*
X120357870Y-73627110D01*
X120204730Y-73515848D01*
X120031802Y-73438855D01*
X119846648Y-73399500D01*
X119846646Y-73399500D01*
X119757144Y-73399500D01*
X119691465Y-73380677D01*
X119645726Y-73329924D01*
X119638222Y-73287553D01*
X119633870Y-73288011D01*
X119632508Y-73275049D01*
X119616125Y-73119178D01*
X119622832Y-73064066D01*
X119652920Y-73017400D01*
X119700357Y-72988544D01*
X119755629Y-72983283D01*
X119825639Y-72992500D01*
X120104360Y-72992499D01*
X120104362Y-72992499D01*
X120174368Y-72983283D01*
X120221762Y-72977044D01*
X120367841Y-72916536D01*
X120493282Y-72820282D01*
X120589536Y-72694841D01*
X120650044Y-72548762D01*
X120665500Y-72431361D01*
X120665499Y-70927640D01*
X120665499Y-70927637D01*
X120650045Y-70810240D01*
X120645784Y-70799954D01*
X120636942Y-70740347D01*
X120657243Y-70683610D01*
X120701892Y-70643142D01*
X120760345Y-70628500D01*
X120862648Y-70628500D01*
X120986083Y-70602262D01*
X121047803Y-70589144D01*
X121220730Y-70512151D01*
X121373871Y-70400888D01*
X121500533Y-70260216D01*
X121595179Y-70096284D01*
X121653674Y-69916256D01*
X121673460Y-69728000D01*
X121653674Y-69539744D01*
X121595179Y-69359716D01*
X121595179Y-69359715D01*
X121500533Y-69195783D01*
X121373870Y-69055110D01*
X121220730Y-68943848D01*
X121047802Y-68866855D01*
X120862648Y-68827500D01*
X120862646Y-68827500D01*
X120673354Y-68827500D01*
X120673352Y-68827500D01*
X120580669Y-68847200D01*
X120533711Y-68848088D01*
X120489794Y-68831450D01*
X120466516Y-68817092D01*
X120421971Y-68802331D01*
X120302753Y-68762825D01*
X120211044Y-68753457D01*
X120201676Y-68752500D01*
X119503323Y-68752500D01*
X119402247Y-68762825D01*
X119238484Y-68817091D01*
X119091647Y-68907661D01*
X119077681Y-68921628D01*
X119022094Y-68953722D01*
X118957906Y-68953722D01*
X118902319Y-68921628D01*
X118888352Y-68907661D01*
X118741515Y-68817091D01*
X118577753Y-68762825D01*
X118486044Y-68753457D01*
X118476676Y-68752500D01*
X117778323Y-68752500D01*
X117677247Y-68762825D01*
X117558029Y-68802331D01*
X117513484Y-68817092D01*
X117490208Y-68831449D01*
X117490206Y-68831450D01*
X117446287Y-68848088D01*
X117399330Y-68847200D01*
X117306648Y-68827500D01*
X117306646Y-68827500D01*
X117117354Y-68827500D01*
X117117352Y-68827500D01*
X116932197Y-68866855D01*
X116759269Y-68943848D01*
X116606129Y-69055110D01*
X116479466Y-69195783D01*
X116384820Y-69359715D01*
X116326326Y-69539742D01*
X116306540Y-69727999D01*
X116326326Y-69916257D01*
X116384820Y-70096284D01*
X116479466Y-70260216D01*
X116606129Y-70400889D01*
X116759269Y-70512151D01*
X116932197Y-70589144D01*
X117117352Y-70628500D01*
X117219656Y-70628500D01*
X117278109Y-70643142D01*
X117322758Y-70683610D01*
X117343059Y-70740347D01*
X117334217Y-70799949D01*
X117329956Y-70810238D01*
X117329955Y-70810241D01*
X117314500Y-70927637D01*
X117314500Y-72431362D01*
X117329955Y-72548760D01*
X117390464Y-72694841D01*
X117486717Y-72820282D01*
X117612159Y-72916536D01*
X117763412Y-72979187D01*
X117806648Y-73009180D01*
X117833552Y-73054402D01*
X117839280Y-73106708D01*
X117830199Y-73193115D01*
X117823727Y-73254697D01*
X117812327Y-73295119D01*
X117788087Y-73329417D01*
X117627208Y-73490296D01*
X117611110Y-73503193D01*
X117563096Y-73554322D01*
X117560391Y-73557114D01*
X117540874Y-73576631D01*
X117538415Y-73579802D01*
X117530842Y-73588669D01*
X117500935Y-73620517D01*
X117491285Y-73638071D01*
X117480609Y-73654325D01*
X117468326Y-73670160D01*
X117450975Y-73710255D01*
X117445838Y-73720741D01*
X117424802Y-73759004D01*
X117419821Y-73778406D01*
X117413520Y-73796808D01*
X117405561Y-73815199D01*
X117398728Y-73858339D01*
X117396360Y-73869771D01*
X117385500Y-73912075D01*
X117385500Y-73932113D01*
X117383973Y-73951512D01*
X117380840Y-73971291D01*
X117384950Y-74014772D01*
X117385500Y-74026441D01*
X117385500Y-74876478D01*
X117376061Y-74923930D01*
X117329956Y-75035237D01*
X117314500Y-75152638D01*
X117314500Y-75428173D01*
X117295414Y-75494271D01*
X117244033Y-75540022D01*
X117176172Y-75551342D01*
X117112721Y-75524747D01*
X117073214Y-75468423D01*
X117064489Y-75443000D01*
X116855023Y-74832622D01*
X116853694Y-74828517D01*
X116804867Y-74668283D01*
X116545599Y-73817451D01*
X116544421Y-73813327D01*
X116271682Y-72792126D01*
X116270662Y-72788026D01*
X116033602Y-71757891D01*
X116032723Y-71753743D01*
X115831657Y-70716036D01*
X115830914Y-70711808D01*
X115666072Y-69667733D01*
X115665483Y-69663529D01*
X115537067Y-68614367D01*
X115536624Y-68610136D01*
X115444785Y-67557117D01*
X115444486Y-67552827D01*
X115389340Y-66497288D01*
X115389191Y-66492998D01*
X115388144Y-66432847D01*
X115373698Y-65602550D01*
X115370802Y-65436101D01*
X115370803Y-65431731D01*
X115374134Y-65245127D01*
X115390155Y-64347633D01*
X115390311Y-64343265D01*
X115448355Y-63260389D01*
X115448664Y-63256077D01*
X115545318Y-62175989D01*
X115545790Y-62171606D01*
X115552176Y-62120767D01*
X115680934Y-61095654D01*
X115681547Y-61091388D01*
X115855012Y-60020921D01*
X115855794Y-60016588D01*
X115876244Y-59913781D01*
X116067346Y-58953043D01*
X116068270Y-58948798D01*
X116317655Y-57893453D01*
X116318728Y-57889243D01*
X116605624Y-56843463D01*
X116606867Y-56839232D01*
X116613138Y-56819204D01*
X116930895Y-55804393D01*
X116932271Y-55800258D01*
X117293044Y-54777601D01*
X117294560Y-54773539D01*
X117691592Y-53764441D01*
X117693280Y-53760366D01*
X117724995Y-53687506D01*
X118126076Y-52766082D01*
X118127884Y-52762124D01*
X118595894Y-51783916D01*
X118597834Y-51780040D01*
X119100485Y-50819115D01*
X119102581Y-50815279D01*
X119639194Y-49872932D01*
X119641392Y-49869228D01*
X120211302Y-48946629D01*
X120213656Y-48942965D01*
X120816125Y-48041307D01*
X120818603Y-48037737D01*
X121452888Y-47158132D01*
X121455501Y-47154642D01*
X122120761Y-46298257D01*
X122123472Y-46294893D01*
X122668709Y-45642482D01*
X122711340Y-45609670D01*
X122763856Y-45598000D01*
X131693000Y-45598000D01*
X131755000Y-45614613D01*
G37*
%TD.AperFunction*%
%TD*%
%TA.AperFunction,Conductor*%
%TO.N,Earth_Protective*%
G36*
X163284798Y-116988612D02*
G01*
X163330185Y-117033996D01*
X163346800Y-117095992D01*
X163346915Y-118961776D01*
X163330302Y-119023784D01*
X163284908Y-119069175D01*
X163222898Y-119085784D01*
X159839298Y-119085330D01*
X156451981Y-119084875D01*
X156389990Y-119068258D01*
X156344610Y-119022871D01*
X156328000Y-118960876D01*
X156328000Y-117096000D01*
X156344613Y-117034000D01*
X156390000Y-116988613D01*
X156452000Y-116972000D01*
X163222800Y-116972000D01*
X163284798Y-116988612D01*
G37*
%TD.AperFunction*%
%TD*%
D36*
X126847517Y-122086374D02*
X141398465Y-122083355D01*
X150342190Y-122084556D02*
G75*
G03*
X141398465Y-122083355I-4471930J-501814D01*
G01*
X166347072Y-104451099D02*
G75*
G03*
X166347073Y-113449221I389848J-4499061D01*
G01*
X164847517Y-122086517D02*
G75*
G03*
X166347517Y-120586503I-17J1500017D01*
G01*
X166347073Y-113449222D02*
X166347517Y-120586503D01*
X167579138Y-90948252D02*
G75*
G03*
X179370262Y-65434046I-21708888J25514212D01*
G01*
X125509571Y-93716347D02*
G75*
G03*
X124267370Y-91038052I-3504871J1647D01*
G01*
X125347517Y-120586374D02*
X125347517Y-113433715D01*
X125347517Y-113433715D02*
G75*
G03*
X125509619Y-104435721I-384537J4507385D01*
G01*
X125347526Y-120586374D02*
G75*
G03*
X126847517Y-122086374I1499974J-26D01*
G01*
X167579165Y-90948283D02*
G75*
G03*
X166347073Y-93614254I2268335J-2666017D01*
G01*
X166347073Y-93614254D02*
X166347073Y-104451107D01*
X125509619Y-93716347D02*
X125509619Y-104435720D01*
X112370266Y-65434046D02*
G75*
G03*
X124267371Y-91038050I33499954J-24D01*
G01*
X179370262Y-65434046D02*
G75*
G03*
X112370262Y-65434046I-33500000J0D01*
G01*
X150342194Y-122084556D02*
X164847517Y-122086503D01*
M02*
