%TF.GenerationSoftware,KiCad,Pcbnew,7.0.1*%
%TF.CreationDate,2023-12-14T23:22:24+03:00*%
%TF.ProjectId,_______ _____,21383b3e-3230-44f2-903f-3b3042302e6b,rev?*%
%TF.SameCoordinates,Original*%
%TF.FileFunction,Legend,Top*%
%TF.FilePolarity,Positive*%
%FSLAX46Y46*%
G04 Gerber Fmt 4.6, Leading zero omitted, Abs format (unit mm)*
G04 Created by KiCad (PCBNEW 7.0.1) date 2023-12-14 23:22:24*
%MOMM*%
%LPD*%
G01*
G04 APERTURE LIST*
%ADD10C,0.150000*%
%ADD11C,0.300000*%
%ADD12C,0.120000*%
%ADD13C,0.200000*%
%TA.AperFunction,Profile*%
%ADD14C,0.200000*%
%TD*%
G04 APERTURE END LIST*
D10*
%TO.C,C12*%
X144884380Y-95770857D02*
X144932000Y-95818476D01*
X144932000Y-95818476D02*
X144979619Y-95961333D01*
X144979619Y-95961333D02*
X144979619Y-96056571D01*
X144979619Y-96056571D02*
X144932000Y-96199428D01*
X144932000Y-96199428D02*
X144836761Y-96294666D01*
X144836761Y-96294666D02*
X144741523Y-96342285D01*
X144741523Y-96342285D02*
X144551047Y-96389904D01*
X144551047Y-96389904D02*
X144408190Y-96389904D01*
X144408190Y-96389904D02*
X144217714Y-96342285D01*
X144217714Y-96342285D02*
X144122476Y-96294666D01*
X144122476Y-96294666D02*
X144027238Y-96199428D01*
X144027238Y-96199428D02*
X143979619Y-96056571D01*
X143979619Y-96056571D02*
X143979619Y-95961333D01*
X143979619Y-95961333D02*
X144027238Y-95818476D01*
X144027238Y-95818476D02*
X144074857Y-95770857D01*
X144979619Y-94818476D02*
X144979619Y-95389904D01*
X144979619Y-95104190D02*
X143979619Y-95104190D01*
X143979619Y-95104190D02*
X144122476Y-95199428D01*
X144122476Y-95199428D02*
X144217714Y-95294666D01*
X144217714Y-95294666D02*
X144265333Y-95389904D01*
X144074857Y-94437523D02*
X144027238Y-94389904D01*
X144027238Y-94389904D02*
X143979619Y-94294666D01*
X143979619Y-94294666D02*
X143979619Y-94056571D01*
X143979619Y-94056571D02*
X144027238Y-93961333D01*
X144027238Y-93961333D02*
X144074857Y-93913714D01*
X144074857Y-93913714D02*
X144170095Y-93866095D01*
X144170095Y-93866095D02*
X144265333Y-93866095D01*
X144265333Y-93866095D02*
X144408190Y-93913714D01*
X144408190Y-93913714D02*
X144979619Y-94485142D01*
X144979619Y-94485142D02*
X144979619Y-93866095D01*
%TO.C,J7*%
X123228666Y-46838619D02*
X123228666Y-47552904D01*
X123228666Y-47552904D02*
X123181047Y-47695761D01*
X123181047Y-47695761D02*
X123085809Y-47791000D01*
X123085809Y-47791000D02*
X122942952Y-47838619D01*
X122942952Y-47838619D02*
X122847714Y-47838619D01*
X123609619Y-46838619D02*
X124276285Y-46838619D01*
X124276285Y-46838619D02*
X123847714Y-47838619D01*
D11*
X129515047Y-53317761D02*
X129419809Y-53413000D01*
X129419809Y-53413000D02*
X129134095Y-53508238D01*
X129134095Y-53508238D02*
X128943619Y-53508238D01*
X128943619Y-53508238D02*
X128657904Y-53413000D01*
X128657904Y-53413000D02*
X128467428Y-53222523D01*
X128467428Y-53222523D02*
X128372190Y-53032047D01*
X128372190Y-53032047D02*
X128276952Y-52651095D01*
X128276952Y-52651095D02*
X128276952Y-52365380D01*
X128276952Y-52365380D02*
X128372190Y-51984428D01*
X128372190Y-51984428D02*
X128467428Y-51793952D01*
X128467428Y-51793952D02*
X128657904Y-51603476D01*
X128657904Y-51603476D02*
X128943619Y-51508238D01*
X128943619Y-51508238D02*
X129134095Y-51508238D01*
X129134095Y-51508238D02*
X129419809Y-51603476D01*
X129419809Y-51603476D02*
X129515047Y-51698714D01*
D10*
%TO.C,J5*%
X167678666Y-46838619D02*
X167678666Y-47552904D01*
X167678666Y-47552904D02*
X167631047Y-47695761D01*
X167631047Y-47695761D02*
X167535809Y-47791000D01*
X167535809Y-47791000D02*
X167392952Y-47838619D01*
X167392952Y-47838619D02*
X167297714Y-47838619D01*
X168631047Y-46838619D02*
X168154857Y-46838619D01*
X168154857Y-46838619D02*
X168107238Y-47314809D01*
X168107238Y-47314809D02*
X168154857Y-47267190D01*
X168154857Y-47267190D02*
X168250095Y-47219571D01*
X168250095Y-47219571D02*
X168488190Y-47219571D01*
X168488190Y-47219571D02*
X168583428Y-47267190D01*
X168583428Y-47267190D02*
X168631047Y-47314809D01*
X168631047Y-47314809D02*
X168678666Y-47410047D01*
X168678666Y-47410047D02*
X168678666Y-47648142D01*
X168678666Y-47648142D02*
X168631047Y-47743380D01*
X168631047Y-47743380D02*
X168583428Y-47791000D01*
X168583428Y-47791000D02*
X168488190Y-47838619D01*
X168488190Y-47838619D02*
X168250095Y-47838619D01*
X168250095Y-47838619D02*
X168154857Y-47791000D01*
X168154857Y-47791000D02*
X168107238Y-47743380D01*
D11*
X162201809Y-52936809D02*
X163154190Y-52936809D01*
X162011333Y-53508238D02*
X162677999Y-51508238D01*
X162677999Y-51508238D02*
X163344666Y-53508238D01*
D10*
%TO.C,C13*%
X144884380Y-106565857D02*
X144932000Y-106613476D01*
X144932000Y-106613476D02*
X144979619Y-106756333D01*
X144979619Y-106756333D02*
X144979619Y-106851571D01*
X144979619Y-106851571D02*
X144932000Y-106994428D01*
X144932000Y-106994428D02*
X144836761Y-107089666D01*
X144836761Y-107089666D02*
X144741523Y-107137285D01*
X144741523Y-107137285D02*
X144551047Y-107184904D01*
X144551047Y-107184904D02*
X144408190Y-107184904D01*
X144408190Y-107184904D02*
X144217714Y-107137285D01*
X144217714Y-107137285D02*
X144122476Y-107089666D01*
X144122476Y-107089666D02*
X144027238Y-106994428D01*
X144027238Y-106994428D02*
X143979619Y-106851571D01*
X143979619Y-106851571D02*
X143979619Y-106756333D01*
X143979619Y-106756333D02*
X144027238Y-106613476D01*
X144027238Y-106613476D02*
X144074857Y-106565857D01*
X144979619Y-105613476D02*
X144979619Y-106184904D01*
X144979619Y-105899190D02*
X143979619Y-105899190D01*
X143979619Y-105899190D02*
X144122476Y-105994428D01*
X144122476Y-105994428D02*
X144217714Y-106089666D01*
X144217714Y-106089666D02*
X144265333Y-106184904D01*
X143979619Y-105280142D02*
X143979619Y-104661095D01*
X143979619Y-104661095D02*
X144360571Y-104994428D01*
X144360571Y-104994428D02*
X144360571Y-104851571D01*
X144360571Y-104851571D02*
X144408190Y-104756333D01*
X144408190Y-104756333D02*
X144455809Y-104708714D01*
X144455809Y-104708714D02*
X144551047Y-104661095D01*
X144551047Y-104661095D02*
X144789142Y-104661095D01*
X144789142Y-104661095D02*
X144884380Y-104708714D01*
X144884380Y-104708714D02*
X144932000Y-104756333D01*
X144932000Y-104756333D02*
X144979619Y-104851571D01*
X144979619Y-104851571D02*
X144979619Y-105137285D01*
X144979619Y-105137285D02*
X144932000Y-105232523D01*
X144932000Y-105232523D02*
X144884380Y-105280142D01*
%TO.C,Q7*%
X115211761Y-63300857D02*
X115116523Y-63253238D01*
X115116523Y-63253238D02*
X115021285Y-63158000D01*
X115021285Y-63158000D02*
X114878428Y-63015142D01*
X114878428Y-63015142D02*
X114783190Y-62967523D01*
X114783190Y-62967523D02*
X114687952Y-62967523D01*
X114735571Y-63205619D02*
X114640333Y-63158000D01*
X114640333Y-63158000D02*
X114545095Y-63062761D01*
X114545095Y-63062761D02*
X114497476Y-62872285D01*
X114497476Y-62872285D02*
X114497476Y-62538952D01*
X114497476Y-62538952D02*
X114545095Y-62348476D01*
X114545095Y-62348476D02*
X114640333Y-62253238D01*
X114640333Y-62253238D02*
X114735571Y-62205619D01*
X114735571Y-62205619D02*
X114926047Y-62205619D01*
X114926047Y-62205619D02*
X115021285Y-62253238D01*
X115021285Y-62253238D02*
X115116523Y-62348476D01*
X115116523Y-62348476D02*
X115164142Y-62538952D01*
X115164142Y-62538952D02*
X115164142Y-62872285D01*
X115164142Y-62872285D02*
X115116523Y-63062761D01*
X115116523Y-63062761D02*
X115021285Y-63158000D01*
X115021285Y-63158000D02*
X114926047Y-63205619D01*
X114926047Y-63205619D02*
X114735571Y-63205619D01*
X115497476Y-62205619D02*
X116164142Y-62205619D01*
X116164142Y-62205619D02*
X115735571Y-63205619D01*
%TO.C,C47*%
X148192142Y-59681380D02*
X148144523Y-59729000D01*
X148144523Y-59729000D02*
X148001666Y-59776619D01*
X148001666Y-59776619D02*
X147906428Y-59776619D01*
X147906428Y-59776619D02*
X147763571Y-59729000D01*
X147763571Y-59729000D02*
X147668333Y-59633761D01*
X147668333Y-59633761D02*
X147620714Y-59538523D01*
X147620714Y-59538523D02*
X147573095Y-59348047D01*
X147573095Y-59348047D02*
X147573095Y-59205190D01*
X147573095Y-59205190D02*
X147620714Y-59014714D01*
X147620714Y-59014714D02*
X147668333Y-58919476D01*
X147668333Y-58919476D02*
X147763571Y-58824238D01*
X147763571Y-58824238D02*
X147906428Y-58776619D01*
X147906428Y-58776619D02*
X148001666Y-58776619D01*
X148001666Y-58776619D02*
X148144523Y-58824238D01*
X148144523Y-58824238D02*
X148192142Y-58871857D01*
X149049285Y-59109952D02*
X149049285Y-59776619D01*
X148811190Y-58729000D02*
X148573095Y-59443285D01*
X148573095Y-59443285D02*
X149192142Y-59443285D01*
X149477857Y-58776619D02*
X150144523Y-58776619D01*
X150144523Y-58776619D02*
X149715952Y-59776619D01*
%TO.C,C10*%
X137651142Y-109719380D02*
X137603523Y-109767000D01*
X137603523Y-109767000D02*
X137460666Y-109814619D01*
X137460666Y-109814619D02*
X137365428Y-109814619D01*
X137365428Y-109814619D02*
X137222571Y-109767000D01*
X137222571Y-109767000D02*
X137127333Y-109671761D01*
X137127333Y-109671761D02*
X137079714Y-109576523D01*
X137079714Y-109576523D02*
X137032095Y-109386047D01*
X137032095Y-109386047D02*
X137032095Y-109243190D01*
X137032095Y-109243190D02*
X137079714Y-109052714D01*
X137079714Y-109052714D02*
X137127333Y-108957476D01*
X137127333Y-108957476D02*
X137222571Y-108862238D01*
X137222571Y-108862238D02*
X137365428Y-108814619D01*
X137365428Y-108814619D02*
X137460666Y-108814619D01*
X137460666Y-108814619D02*
X137603523Y-108862238D01*
X137603523Y-108862238D02*
X137651142Y-108909857D01*
X138603523Y-109814619D02*
X138032095Y-109814619D01*
X138317809Y-109814619D02*
X138317809Y-108814619D01*
X138317809Y-108814619D02*
X138222571Y-108957476D01*
X138222571Y-108957476D02*
X138127333Y-109052714D01*
X138127333Y-109052714D02*
X138032095Y-109100333D01*
X139222571Y-108814619D02*
X139317809Y-108814619D01*
X139317809Y-108814619D02*
X139413047Y-108862238D01*
X139413047Y-108862238D02*
X139460666Y-108909857D01*
X139460666Y-108909857D02*
X139508285Y-109005095D01*
X139508285Y-109005095D02*
X139555904Y-109195571D01*
X139555904Y-109195571D02*
X139555904Y-109433666D01*
X139555904Y-109433666D02*
X139508285Y-109624142D01*
X139508285Y-109624142D02*
X139460666Y-109719380D01*
X139460666Y-109719380D02*
X139413047Y-109767000D01*
X139413047Y-109767000D02*
X139317809Y-109814619D01*
X139317809Y-109814619D02*
X139222571Y-109814619D01*
X139222571Y-109814619D02*
X139127333Y-109767000D01*
X139127333Y-109767000D02*
X139079714Y-109719380D01*
X139079714Y-109719380D02*
X139032095Y-109624142D01*
X139032095Y-109624142D02*
X138984476Y-109433666D01*
X138984476Y-109433666D02*
X138984476Y-109195571D01*
X138984476Y-109195571D02*
X139032095Y-109005095D01*
X139032095Y-109005095D02*
X139079714Y-108909857D01*
X139079714Y-108909857D02*
X139127333Y-108862238D01*
X139127333Y-108862238D02*
X139222571Y-108814619D01*
%TO.C,J3*%
X130213666Y-112005619D02*
X130213666Y-112719904D01*
X130213666Y-112719904D02*
X130166047Y-112862761D01*
X130166047Y-112862761D02*
X130070809Y-112958000D01*
X130070809Y-112958000D02*
X129927952Y-113005619D01*
X129927952Y-113005619D02*
X129832714Y-113005619D01*
X130594619Y-112005619D02*
X131213666Y-112005619D01*
X131213666Y-112005619D02*
X130880333Y-112386571D01*
X130880333Y-112386571D02*
X131023190Y-112386571D01*
X131023190Y-112386571D02*
X131118428Y-112434190D01*
X131118428Y-112434190D02*
X131166047Y-112481809D01*
X131166047Y-112481809D02*
X131213666Y-112577047D01*
X131213666Y-112577047D02*
X131213666Y-112815142D01*
X131213666Y-112815142D02*
X131166047Y-112910380D01*
X131166047Y-112910380D02*
X131118428Y-112958000D01*
X131118428Y-112958000D02*
X131023190Y-113005619D01*
X131023190Y-113005619D02*
X130737476Y-113005619D01*
X130737476Y-113005619D02*
X130642238Y-112958000D01*
X130642238Y-112958000D02*
X130594619Y-112910380D01*
D11*
X133976286Y-121088238D02*
X133976286Y-119088238D01*
X134928667Y-121088238D02*
X134928667Y-119088238D01*
X134928667Y-119088238D02*
X136071524Y-121088238D01*
X136071524Y-121088238D02*
X136071524Y-119088238D01*
X137023905Y-120326333D02*
X138547715Y-120326333D01*
X137785810Y-121088238D02*
X137785810Y-119564428D01*
D10*
%TO.C,Q1*%
X160931761Y-104575857D02*
X160836523Y-104528238D01*
X160836523Y-104528238D02*
X160741285Y-104433000D01*
X160741285Y-104433000D02*
X160598428Y-104290142D01*
X160598428Y-104290142D02*
X160503190Y-104242523D01*
X160503190Y-104242523D02*
X160407952Y-104242523D01*
X160455571Y-104480619D02*
X160360333Y-104433000D01*
X160360333Y-104433000D02*
X160265095Y-104337761D01*
X160265095Y-104337761D02*
X160217476Y-104147285D01*
X160217476Y-104147285D02*
X160217476Y-103813952D01*
X160217476Y-103813952D02*
X160265095Y-103623476D01*
X160265095Y-103623476D02*
X160360333Y-103528238D01*
X160360333Y-103528238D02*
X160455571Y-103480619D01*
X160455571Y-103480619D02*
X160646047Y-103480619D01*
X160646047Y-103480619D02*
X160741285Y-103528238D01*
X160741285Y-103528238D02*
X160836523Y-103623476D01*
X160836523Y-103623476D02*
X160884142Y-103813952D01*
X160884142Y-103813952D02*
X160884142Y-104147285D01*
X160884142Y-104147285D02*
X160836523Y-104337761D01*
X160836523Y-104337761D02*
X160741285Y-104433000D01*
X160741285Y-104433000D02*
X160646047Y-104480619D01*
X160646047Y-104480619D02*
X160455571Y-104480619D01*
X161836523Y-104480619D02*
X161265095Y-104480619D01*
X161550809Y-104480619D02*
X161550809Y-103480619D01*
X161550809Y-103480619D02*
X161455571Y-103623476D01*
X161455571Y-103623476D02*
X161360333Y-103718714D01*
X161360333Y-103718714D02*
X161265095Y-103766333D01*
%TO.C,D2*%
X174766905Y-74254619D02*
X174766905Y-73254619D01*
X174766905Y-73254619D02*
X175005000Y-73254619D01*
X175005000Y-73254619D02*
X175147857Y-73302238D01*
X175147857Y-73302238D02*
X175243095Y-73397476D01*
X175243095Y-73397476D02*
X175290714Y-73492714D01*
X175290714Y-73492714D02*
X175338333Y-73683190D01*
X175338333Y-73683190D02*
X175338333Y-73826047D01*
X175338333Y-73826047D02*
X175290714Y-74016523D01*
X175290714Y-74016523D02*
X175243095Y-74111761D01*
X175243095Y-74111761D02*
X175147857Y-74207000D01*
X175147857Y-74207000D02*
X175005000Y-74254619D01*
X175005000Y-74254619D02*
X174766905Y-74254619D01*
X175719286Y-73349857D02*
X175766905Y-73302238D01*
X175766905Y-73302238D02*
X175862143Y-73254619D01*
X175862143Y-73254619D02*
X176100238Y-73254619D01*
X176100238Y-73254619D02*
X176195476Y-73302238D01*
X176195476Y-73302238D02*
X176243095Y-73349857D01*
X176243095Y-73349857D02*
X176290714Y-73445095D01*
X176290714Y-73445095D02*
X176290714Y-73540333D01*
X176290714Y-73540333D02*
X176243095Y-73683190D01*
X176243095Y-73683190D02*
X175671667Y-74254619D01*
X175671667Y-74254619D02*
X176290714Y-74254619D01*
%TO.C,C35*%
X132311380Y-95770857D02*
X132359000Y-95818476D01*
X132359000Y-95818476D02*
X132406619Y-95961333D01*
X132406619Y-95961333D02*
X132406619Y-96056571D01*
X132406619Y-96056571D02*
X132359000Y-96199428D01*
X132359000Y-96199428D02*
X132263761Y-96294666D01*
X132263761Y-96294666D02*
X132168523Y-96342285D01*
X132168523Y-96342285D02*
X131978047Y-96389904D01*
X131978047Y-96389904D02*
X131835190Y-96389904D01*
X131835190Y-96389904D02*
X131644714Y-96342285D01*
X131644714Y-96342285D02*
X131549476Y-96294666D01*
X131549476Y-96294666D02*
X131454238Y-96199428D01*
X131454238Y-96199428D02*
X131406619Y-96056571D01*
X131406619Y-96056571D02*
X131406619Y-95961333D01*
X131406619Y-95961333D02*
X131454238Y-95818476D01*
X131454238Y-95818476D02*
X131501857Y-95770857D01*
X131406619Y-95437523D02*
X131406619Y-94818476D01*
X131406619Y-94818476D02*
X131787571Y-95151809D01*
X131787571Y-95151809D02*
X131787571Y-95008952D01*
X131787571Y-95008952D02*
X131835190Y-94913714D01*
X131835190Y-94913714D02*
X131882809Y-94866095D01*
X131882809Y-94866095D02*
X131978047Y-94818476D01*
X131978047Y-94818476D02*
X132216142Y-94818476D01*
X132216142Y-94818476D02*
X132311380Y-94866095D01*
X132311380Y-94866095D02*
X132359000Y-94913714D01*
X132359000Y-94913714D02*
X132406619Y-95008952D01*
X132406619Y-95008952D02*
X132406619Y-95294666D01*
X132406619Y-95294666D02*
X132359000Y-95389904D01*
X132359000Y-95389904D02*
X132311380Y-95437523D01*
X131406619Y-93913714D02*
X131406619Y-94389904D01*
X131406619Y-94389904D02*
X131882809Y-94437523D01*
X131882809Y-94437523D02*
X131835190Y-94389904D01*
X131835190Y-94389904D02*
X131787571Y-94294666D01*
X131787571Y-94294666D02*
X131787571Y-94056571D01*
X131787571Y-94056571D02*
X131835190Y-93961333D01*
X131835190Y-93961333D02*
X131882809Y-93913714D01*
X131882809Y-93913714D02*
X131978047Y-93866095D01*
X131978047Y-93866095D02*
X132216142Y-93866095D01*
X132216142Y-93866095D02*
X132311380Y-93913714D01*
X132311380Y-93913714D02*
X132359000Y-93961333D01*
X132359000Y-93961333D02*
X132406619Y-94056571D01*
X132406619Y-94056571D02*
X132406619Y-94294666D01*
X132406619Y-94294666D02*
X132359000Y-94389904D01*
X132359000Y-94389904D02*
X132311380Y-94437523D01*
%TO.C,J4*%
X149517666Y-64745619D02*
X149517666Y-65459904D01*
X149517666Y-65459904D02*
X149470047Y-65602761D01*
X149470047Y-65602761D02*
X149374809Y-65698000D01*
X149374809Y-65698000D02*
X149231952Y-65745619D01*
X149231952Y-65745619D02*
X149136714Y-65745619D01*
X150422428Y-65078952D02*
X150422428Y-65745619D01*
X150184333Y-64698000D02*
X149946238Y-65412285D01*
X149946238Y-65412285D02*
X150565285Y-65412285D01*
%TO.C,J6*%
X145453666Y-32614619D02*
X145453666Y-33328904D01*
X145453666Y-33328904D02*
X145406047Y-33471761D01*
X145406047Y-33471761D02*
X145310809Y-33567000D01*
X145310809Y-33567000D02*
X145167952Y-33614619D01*
X145167952Y-33614619D02*
X145072714Y-33614619D01*
X146358428Y-32614619D02*
X146167952Y-32614619D01*
X146167952Y-32614619D02*
X146072714Y-32662238D01*
X146072714Y-32662238D02*
X146025095Y-32709857D01*
X146025095Y-32709857D02*
X145929857Y-32852714D01*
X145929857Y-32852714D02*
X145882238Y-33043190D01*
X145882238Y-33043190D02*
X145882238Y-33424142D01*
X145882238Y-33424142D02*
X145929857Y-33519380D01*
X145929857Y-33519380D02*
X145977476Y-33567000D01*
X145977476Y-33567000D02*
X146072714Y-33614619D01*
X146072714Y-33614619D02*
X146263190Y-33614619D01*
X146263190Y-33614619D02*
X146358428Y-33567000D01*
X146358428Y-33567000D02*
X146406047Y-33519380D01*
X146406047Y-33519380D02*
X146453666Y-33424142D01*
X146453666Y-33424142D02*
X146453666Y-33186047D01*
X146453666Y-33186047D02*
X146406047Y-33090809D01*
X146406047Y-33090809D02*
X146358428Y-33043190D01*
X146358428Y-33043190D02*
X146263190Y-32995571D01*
X146263190Y-32995571D02*
X146072714Y-32995571D01*
X146072714Y-32995571D02*
X145977476Y-33043190D01*
X145977476Y-33043190D02*
X145929857Y-33090809D01*
X145929857Y-33090809D02*
X145882238Y-33186047D01*
D11*
X145929857Y-43697619D02*
X146215571Y-43792857D01*
X146215571Y-43792857D02*
X146310809Y-43888095D01*
X146310809Y-43888095D02*
X146406047Y-44078571D01*
X146406047Y-44078571D02*
X146406047Y-44364285D01*
X146406047Y-44364285D02*
X146310809Y-44554761D01*
X146310809Y-44554761D02*
X146215571Y-44650000D01*
X146215571Y-44650000D02*
X146025095Y-44745238D01*
X146025095Y-44745238D02*
X145263190Y-44745238D01*
X145263190Y-44745238D02*
X145263190Y-42745238D01*
X145263190Y-42745238D02*
X145929857Y-42745238D01*
X145929857Y-42745238D02*
X146120333Y-42840476D01*
X146120333Y-42840476D02*
X146215571Y-42935714D01*
X146215571Y-42935714D02*
X146310809Y-43126190D01*
X146310809Y-43126190D02*
X146310809Y-43316666D01*
X146310809Y-43316666D02*
X146215571Y-43507142D01*
X146215571Y-43507142D02*
X146120333Y-43602380D01*
X146120333Y-43602380D02*
X145929857Y-43697619D01*
X145929857Y-43697619D02*
X145263190Y-43697619D01*
D10*
%TO.C,Q6*%
X127276761Y-83747857D02*
X127181523Y-83700238D01*
X127181523Y-83700238D02*
X127086285Y-83605000D01*
X127086285Y-83605000D02*
X126943428Y-83462142D01*
X126943428Y-83462142D02*
X126848190Y-83414523D01*
X126848190Y-83414523D02*
X126752952Y-83414523D01*
X126800571Y-83652619D02*
X126705333Y-83605000D01*
X126705333Y-83605000D02*
X126610095Y-83509761D01*
X126610095Y-83509761D02*
X126562476Y-83319285D01*
X126562476Y-83319285D02*
X126562476Y-82985952D01*
X126562476Y-82985952D02*
X126610095Y-82795476D01*
X126610095Y-82795476D02*
X126705333Y-82700238D01*
X126705333Y-82700238D02*
X126800571Y-82652619D01*
X126800571Y-82652619D02*
X126991047Y-82652619D01*
X126991047Y-82652619D02*
X127086285Y-82700238D01*
X127086285Y-82700238D02*
X127181523Y-82795476D01*
X127181523Y-82795476D02*
X127229142Y-82985952D01*
X127229142Y-82985952D02*
X127229142Y-83319285D01*
X127229142Y-83319285D02*
X127181523Y-83509761D01*
X127181523Y-83509761D02*
X127086285Y-83605000D01*
X127086285Y-83605000D02*
X126991047Y-83652619D01*
X126991047Y-83652619D02*
X126800571Y-83652619D01*
X128086285Y-82652619D02*
X127895809Y-82652619D01*
X127895809Y-82652619D02*
X127800571Y-82700238D01*
X127800571Y-82700238D02*
X127752952Y-82747857D01*
X127752952Y-82747857D02*
X127657714Y-82890714D01*
X127657714Y-82890714D02*
X127610095Y-83081190D01*
X127610095Y-83081190D02*
X127610095Y-83462142D01*
X127610095Y-83462142D02*
X127657714Y-83557380D01*
X127657714Y-83557380D02*
X127705333Y-83605000D01*
X127705333Y-83605000D02*
X127800571Y-83652619D01*
X127800571Y-83652619D02*
X127991047Y-83652619D01*
X127991047Y-83652619D02*
X128086285Y-83605000D01*
X128086285Y-83605000D02*
X128133904Y-83557380D01*
X128133904Y-83557380D02*
X128181523Y-83462142D01*
X128181523Y-83462142D02*
X128181523Y-83224047D01*
X128181523Y-83224047D02*
X128133904Y-83128809D01*
X128133904Y-83128809D02*
X128086285Y-83081190D01*
X128086285Y-83081190D02*
X127991047Y-83033571D01*
X127991047Y-83033571D02*
X127800571Y-83033571D01*
X127800571Y-83033571D02*
X127705333Y-83081190D01*
X127705333Y-83081190D02*
X127657714Y-83128809D01*
X127657714Y-83128809D02*
X127610095Y-83224047D01*
%TO.C,C7*%
X157593380Y-114414666D02*
X157641000Y-114462285D01*
X157641000Y-114462285D02*
X157688619Y-114605142D01*
X157688619Y-114605142D02*
X157688619Y-114700380D01*
X157688619Y-114700380D02*
X157641000Y-114843237D01*
X157641000Y-114843237D02*
X157545761Y-114938475D01*
X157545761Y-114938475D02*
X157450523Y-114986094D01*
X157450523Y-114986094D02*
X157260047Y-115033713D01*
X157260047Y-115033713D02*
X157117190Y-115033713D01*
X157117190Y-115033713D02*
X156926714Y-114986094D01*
X156926714Y-114986094D02*
X156831476Y-114938475D01*
X156831476Y-114938475D02*
X156736238Y-114843237D01*
X156736238Y-114843237D02*
X156688619Y-114700380D01*
X156688619Y-114700380D02*
X156688619Y-114605142D01*
X156688619Y-114605142D02*
X156736238Y-114462285D01*
X156736238Y-114462285D02*
X156783857Y-114414666D01*
X156688619Y-114081332D02*
X156688619Y-113414666D01*
X156688619Y-113414666D02*
X157688619Y-113843237D01*
%TO.C,D3*%
X144921905Y-51602119D02*
X144921905Y-50602119D01*
X144921905Y-50602119D02*
X145160000Y-50602119D01*
X145160000Y-50602119D02*
X145302857Y-50649738D01*
X145302857Y-50649738D02*
X145398095Y-50744976D01*
X145398095Y-50744976D02*
X145445714Y-50840214D01*
X145445714Y-50840214D02*
X145493333Y-51030690D01*
X145493333Y-51030690D02*
X145493333Y-51173547D01*
X145493333Y-51173547D02*
X145445714Y-51364023D01*
X145445714Y-51364023D02*
X145398095Y-51459261D01*
X145398095Y-51459261D02*
X145302857Y-51554500D01*
X145302857Y-51554500D02*
X145160000Y-51602119D01*
X145160000Y-51602119D02*
X144921905Y-51602119D01*
X145826667Y-50602119D02*
X146445714Y-50602119D01*
X146445714Y-50602119D02*
X146112381Y-50983071D01*
X146112381Y-50983071D02*
X146255238Y-50983071D01*
X146255238Y-50983071D02*
X146350476Y-51030690D01*
X146350476Y-51030690D02*
X146398095Y-51078309D01*
X146398095Y-51078309D02*
X146445714Y-51173547D01*
X146445714Y-51173547D02*
X146445714Y-51411642D01*
X146445714Y-51411642D02*
X146398095Y-51506880D01*
X146398095Y-51506880D02*
X146350476Y-51554500D01*
X146350476Y-51554500D02*
X146255238Y-51602119D01*
X146255238Y-51602119D02*
X145969524Y-51602119D01*
X145969524Y-51602119D02*
X145874286Y-51554500D01*
X145874286Y-51554500D02*
X145826667Y-51506880D01*
%TO.C,C21*%
X137524142Y-98289380D02*
X137476523Y-98337000D01*
X137476523Y-98337000D02*
X137333666Y-98384619D01*
X137333666Y-98384619D02*
X137238428Y-98384619D01*
X137238428Y-98384619D02*
X137095571Y-98337000D01*
X137095571Y-98337000D02*
X137000333Y-98241761D01*
X137000333Y-98241761D02*
X136952714Y-98146523D01*
X136952714Y-98146523D02*
X136905095Y-97956047D01*
X136905095Y-97956047D02*
X136905095Y-97813190D01*
X136905095Y-97813190D02*
X136952714Y-97622714D01*
X136952714Y-97622714D02*
X137000333Y-97527476D01*
X137000333Y-97527476D02*
X137095571Y-97432238D01*
X137095571Y-97432238D02*
X137238428Y-97384619D01*
X137238428Y-97384619D02*
X137333666Y-97384619D01*
X137333666Y-97384619D02*
X137476523Y-97432238D01*
X137476523Y-97432238D02*
X137524142Y-97479857D01*
X137905095Y-97479857D02*
X137952714Y-97432238D01*
X137952714Y-97432238D02*
X138047952Y-97384619D01*
X138047952Y-97384619D02*
X138286047Y-97384619D01*
X138286047Y-97384619D02*
X138381285Y-97432238D01*
X138381285Y-97432238D02*
X138428904Y-97479857D01*
X138428904Y-97479857D02*
X138476523Y-97575095D01*
X138476523Y-97575095D02*
X138476523Y-97670333D01*
X138476523Y-97670333D02*
X138428904Y-97813190D01*
X138428904Y-97813190D02*
X137857476Y-98384619D01*
X137857476Y-98384619D02*
X138476523Y-98384619D01*
X139428904Y-98384619D02*
X138857476Y-98384619D01*
X139143190Y-98384619D02*
X139143190Y-97384619D01*
X139143190Y-97384619D02*
X139047952Y-97527476D01*
X139047952Y-97527476D02*
X138952714Y-97622714D01*
X138952714Y-97622714D02*
X138857476Y-97670333D01*
%TO.C,C48*%
X115172142Y-70095380D02*
X115124523Y-70143000D01*
X115124523Y-70143000D02*
X114981666Y-70190619D01*
X114981666Y-70190619D02*
X114886428Y-70190619D01*
X114886428Y-70190619D02*
X114743571Y-70143000D01*
X114743571Y-70143000D02*
X114648333Y-70047761D01*
X114648333Y-70047761D02*
X114600714Y-69952523D01*
X114600714Y-69952523D02*
X114553095Y-69762047D01*
X114553095Y-69762047D02*
X114553095Y-69619190D01*
X114553095Y-69619190D02*
X114600714Y-69428714D01*
X114600714Y-69428714D02*
X114648333Y-69333476D01*
X114648333Y-69333476D02*
X114743571Y-69238238D01*
X114743571Y-69238238D02*
X114886428Y-69190619D01*
X114886428Y-69190619D02*
X114981666Y-69190619D01*
X114981666Y-69190619D02*
X115124523Y-69238238D01*
X115124523Y-69238238D02*
X115172142Y-69285857D01*
X116029285Y-69523952D02*
X116029285Y-70190619D01*
X115791190Y-69143000D02*
X115553095Y-69857285D01*
X115553095Y-69857285D02*
X116172142Y-69857285D01*
X116695952Y-69619190D02*
X116600714Y-69571571D01*
X116600714Y-69571571D02*
X116553095Y-69523952D01*
X116553095Y-69523952D02*
X116505476Y-69428714D01*
X116505476Y-69428714D02*
X116505476Y-69381095D01*
X116505476Y-69381095D02*
X116553095Y-69285857D01*
X116553095Y-69285857D02*
X116600714Y-69238238D01*
X116600714Y-69238238D02*
X116695952Y-69190619D01*
X116695952Y-69190619D02*
X116886428Y-69190619D01*
X116886428Y-69190619D02*
X116981666Y-69238238D01*
X116981666Y-69238238D02*
X117029285Y-69285857D01*
X117029285Y-69285857D02*
X117076904Y-69381095D01*
X117076904Y-69381095D02*
X117076904Y-69428714D01*
X117076904Y-69428714D02*
X117029285Y-69523952D01*
X117029285Y-69523952D02*
X116981666Y-69571571D01*
X116981666Y-69571571D02*
X116886428Y-69619190D01*
X116886428Y-69619190D02*
X116695952Y-69619190D01*
X116695952Y-69619190D02*
X116600714Y-69666809D01*
X116600714Y-69666809D02*
X116553095Y-69714428D01*
X116553095Y-69714428D02*
X116505476Y-69809666D01*
X116505476Y-69809666D02*
X116505476Y-70000142D01*
X116505476Y-70000142D02*
X116553095Y-70095380D01*
X116553095Y-70095380D02*
X116600714Y-70143000D01*
X116600714Y-70143000D02*
X116695952Y-70190619D01*
X116695952Y-70190619D02*
X116886428Y-70190619D01*
X116886428Y-70190619D02*
X116981666Y-70143000D01*
X116981666Y-70143000D02*
X117029285Y-70095380D01*
X117029285Y-70095380D02*
X117076904Y-70000142D01*
X117076904Y-70000142D02*
X117076904Y-69809666D01*
X117076904Y-69809666D02*
X117029285Y-69714428D01*
X117029285Y-69714428D02*
X116981666Y-69666809D01*
X116981666Y-69666809D02*
X116886428Y-69619190D01*
%TO.C,J2*%
X161328666Y-112005619D02*
X161328666Y-112719904D01*
X161328666Y-112719904D02*
X161281047Y-112862761D01*
X161281047Y-112862761D02*
X161185809Y-112958000D01*
X161185809Y-112958000D02*
X161042952Y-113005619D01*
X161042952Y-113005619D02*
X160947714Y-113005619D01*
X161757238Y-112100857D02*
X161804857Y-112053238D01*
X161804857Y-112053238D02*
X161900095Y-112005619D01*
X161900095Y-112005619D02*
X162138190Y-112005619D01*
X162138190Y-112005619D02*
X162233428Y-112053238D01*
X162233428Y-112053238D02*
X162281047Y-112100857D01*
X162281047Y-112100857D02*
X162328666Y-112196095D01*
X162328666Y-112196095D02*
X162328666Y-112291333D01*
X162328666Y-112291333D02*
X162281047Y-112434190D01*
X162281047Y-112434190D02*
X161709619Y-113005619D01*
X161709619Y-113005619D02*
X162328666Y-113005619D01*
D11*
X153661286Y-121088238D02*
X153661286Y-119088238D01*
X154613667Y-121088238D02*
X154613667Y-119088238D01*
X154613667Y-119088238D02*
X155756524Y-121088238D01*
X155756524Y-121088238D02*
X155756524Y-119088238D01*
X156708905Y-120326333D02*
X158232715Y-120326333D01*
D10*
%TO.C,C39*%
X132184380Y-106565857D02*
X132232000Y-106613476D01*
X132232000Y-106613476D02*
X132279619Y-106756333D01*
X132279619Y-106756333D02*
X132279619Y-106851571D01*
X132279619Y-106851571D02*
X132232000Y-106994428D01*
X132232000Y-106994428D02*
X132136761Y-107089666D01*
X132136761Y-107089666D02*
X132041523Y-107137285D01*
X132041523Y-107137285D02*
X131851047Y-107184904D01*
X131851047Y-107184904D02*
X131708190Y-107184904D01*
X131708190Y-107184904D02*
X131517714Y-107137285D01*
X131517714Y-107137285D02*
X131422476Y-107089666D01*
X131422476Y-107089666D02*
X131327238Y-106994428D01*
X131327238Y-106994428D02*
X131279619Y-106851571D01*
X131279619Y-106851571D02*
X131279619Y-106756333D01*
X131279619Y-106756333D02*
X131327238Y-106613476D01*
X131327238Y-106613476D02*
X131374857Y-106565857D01*
X131279619Y-106232523D02*
X131279619Y-105613476D01*
X131279619Y-105613476D02*
X131660571Y-105946809D01*
X131660571Y-105946809D02*
X131660571Y-105803952D01*
X131660571Y-105803952D02*
X131708190Y-105708714D01*
X131708190Y-105708714D02*
X131755809Y-105661095D01*
X131755809Y-105661095D02*
X131851047Y-105613476D01*
X131851047Y-105613476D02*
X132089142Y-105613476D01*
X132089142Y-105613476D02*
X132184380Y-105661095D01*
X132184380Y-105661095D02*
X132232000Y-105708714D01*
X132232000Y-105708714D02*
X132279619Y-105803952D01*
X132279619Y-105803952D02*
X132279619Y-106089666D01*
X132279619Y-106089666D02*
X132232000Y-106184904D01*
X132232000Y-106184904D02*
X132184380Y-106232523D01*
X132279619Y-105137285D02*
X132279619Y-104946809D01*
X132279619Y-104946809D02*
X132232000Y-104851571D01*
X132232000Y-104851571D02*
X132184380Y-104803952D01*
X132184380Y-104803952D02*
X132041523Y-104708714D01*
X132041523Y-104708714D02*
X131851047Y-104661095D01*
X131851047Y-104661095D02*
X131470095Y-104661095D01*
X131470095Y-104661095D02*
X131374857Y-104708714D01*
X131374857Y-104708714D02*
X131327238Y-104756333D01*
X131327238Y-104756333D02*
X131279619Y-104851571D01*
X131279619Y-104851571D02*
X131279619Y-105042047D01*
X131279619Y-105042047D02*
X131327238Y-105137285D01*
X131327238Y-105137285D02*
X131374857Y-105184904D01*
X131374857Y-105184904D02*
X131470095Y-105232523D01*
X131470095Y-105232523D02*
X131708190Y-105232523D01*
X131708190Y-105232523D02*
X131803428Y-105184904D01*
X131803428Y-105184904D02*
X131851047Y-105137285D01*
X131851047Y-105137285D02*
X131898666Y-105042047D01*
X131898666Y-105042047D02*
X131898666Y-104851571D01*
X131898666Y-104851571D02*
X131851047Y-104756333D01*
X131851047Y-104756333D02*
X131803428Y-104708714D01*
X131803428Y-104708714D02*
X131708190Y-104661095D01*
%TO.C,R1*%
X134190333Y-89875619D02*
X133857000Y-89399428D01*
X133618905Y-89875619D02*
X133618905Y-88875619D01*
X133618905Y-88875619D02*
X133999857Y-88875619D01*
X133999857Y-88875619D02*
X134095095Y-88923238D01*
X134095095Y-88923238D02*
X134142714Y-88970857D01*
X134142714Y-88970857D02*
X134190333Y-89066095D01*
X134190333Y-89066095D02*
X134190333Y-89208952D01*
X134190333Y-89208952D02*
X134142714Y-89304190D01*
X134142714Y-89304190D02*
X134095095Y-89351809D01*
X134095095Y-89351809D02*
X133999857Y-89399428D01*
X133999857Y-89399428D02*
X133618905Y-89399428D01*
X135142714Y-89875619D02*
X134571286Y-89875619D01*
X134857000Y-89875619D02*
X134857000Y-88875619D01*
X134857000Y-88875619D02*
X134761762Y-89018476D01*
X134761762Y-89018476D02*
X134666524Y-89113714D01*
X134666524Y-89113714D02*
X134571286Y-89161333D01*
%TO.C,Q5*%
X137436761Y-40440857D02*
X137341523Y-40393238D01*
X137341523Y-40393238D02*
X137246285Y-40298000D01*
X137246285Y-40298000D02*
X137103428Y-40155142D01*
X137103428Y-40155142D02*
X137008190Y-40107523D01*
X137008190Y-40107523D02*
X136912952Y-40107523D01*
X136960571Y-40345619D02*
X136865333Y-40298000D01*
X136865333Y-40298000D02*
X136770095Y-40202761D01*
X136770095Y-40202761D02*
X136722476Y-40012285D01*
X136722476Y-40012285D02*
X136722476Y-39678952D01*
X136722476Y-39678952D02*
X136770095Y-39488476D01*
X136770095Y-39488476D02*
X136865333Y-39393238D01*
X136865333Y-39393238D02*
X136960571Y-39345619D01*
X136960571Y-39345619D02*
X137151047Y-39345619D01*
X137151047Y-39345619D02*
X137246285Y-39393238D01*
X137246285Y-39393238D02*
X137341523Y-39488476D01*
X137341523Y-39488476D02*
X137389142Y-39678952D01*
X137389142Y-39678952D02*
X137389142Y-40012285D01*
X137389142Y-40012285D02*
X137341523Y-40202761D01*
X137341523Y-40202761D02*
X137246285Y-40298000D01*
X137246285Y-40298000D02*
X137151047Y-40345619D01*
X137151047Y-40345619D02*
X136960571Y-40345619D01*
X138293904Y-39345619D02*
X137817714Y-39345619D01*
X137817714Y-39345619D02*
X137770095Y-39821809D01*
X137770095Y-39821809D02*
X137817714Y-39774190D01*
X137817714Y-39774190D02*
X137912952Y-39726571D01*
X137912952Y-39726571D02*
X138151047Y-39726571D01*
X138151047Y-39726571D02*
X138246285Y-39774190D01*
X138246285Y-39774190D02*
X138293904Y-39821809D01*
X138293904Y-39821809D02*
X138341523Y-39917047D01*
X138341523Y-39917047D02*
X138341523Y-40155142D01*
X138341523Y-40155142D02*
X138293904Y-40250380D01*
X138293904Y-40250380D02*
X138246285Y-40298000D01*
X138246285Y-40298000D02*
X138151047Y-40345619D01*
X138151047Y-40345619D02*
X137912952Y-40345619D01*
X137912952Y-40345619D02*
X137817714Y-40298000D01*
X137817714Y-40298000D02*
X137770095Y-40250380D01*
%TO.C,Q3*%
X176806761Y-63300857D02*
X176711523Y-63253238D01*
X176711523Y-63253238D02*
X176616285Y-63158000D01*
X176616285Y-63158000D02*
X176473428Y-63015142D01*
X176473428Y-63015142D02*
X176378190Y-62967523D01*
X176378190Y-62967523D02*
X176282952Y-62967523D01*
X176330571Y-63205619D02*
X176235333Y-63158000D01*
X176235333Y-63158000D02*
X176140095Y-63062761D01*
X176140095Y-63062761D02*
X176092476Y-62872285D01*
X176092476Y-62872285D02*
X176092476Y-62538952D01*
X176092476Y-62538952D02*
X176140095Y-62348476D01*
X176140095Y-62348476D02*
X176235333Y-62253238D01*
X176235333Y-62253238D02*
X176330571Y-62205619D01*
X176330571Y-62205619D02*
X176521047Y-62205619D01*
X176521047Y-62205619D02*
X176616285Y-62253238D01*
X176616285Y-62253238D02*
X176711523Y-62348476D01*
X176711523Y-62348476D02*
X176759142Y-62538952D01*
X176759142Y-62538952D02*
X176759142Y-62872285D01*
X176759142Y-62872285D02*
X176711523Y-63062761D01*
X176711523Y-63062761D02*
X176616285Y-63158000D01*
X176616285Y-63158000D02*
X176521047Y-63205619D01*
X176521047Y-63205619D02*
X176330571Y-63205619D01*
X177092476Y-62205619D02*
X177711523Y-62205619D01*
X177711523Y-62205619D02*
X177378190Y-62586571D01*
X177378190Y-62586571D02*
X177521047Y-62586571D01*
X177521047Y-62586571D02*
X177616285Y-62634190D01*
X177616285Y-62634190D02*
X177663904Y-62681809D01*
X177663904Y-62681809D02*
X177711523Y-62777047D01*
X177711523Y-62777047D02*
X177711523Y-63015142D01*
X177711523Y-63015142D02*
X177663904Y-63110380D01*
X177663904Y-63110380D02*
X177616285Y-63158000D01*
X177616285Y-63158000D02*
X177521047Y-63205619D01*
X177521047Y-63205619D02*
X177235333Y-63205619D01*
X177235333Y-63205619D02*
X177140095Y-63158000D01*
X177140095Y-63158000D02*
X177092476Y-63110380D01*
%TO.C,D1*%
X162193905Y-96225619D02*
X162193905Y-95225619D01*
X162193905Y-95225619D02*
X162432000Y-95225619D01*
X162432000Y-95225619D02*
X162574857Y-95273238D01*
X162574857Y-95273238D02*
X162670095Y-95368476D01*
X162670095Y-95368476D02*
X162717714Y-95463714D01*
X162717714Y-95463714D02*
X162765333Y-95654190D01*
X162765333Y-95654190D02*
X162765333Y-95797047D01*
X162765333Y-95797047D02*
X162717714Y-95987523D01*
X162717714Y-95987523D02*
X162670095Y-96082761D01*
X162670095Y-96082761D02*
X162574857Y-96178000D01*
X162574857Y-96178000D02*
X162432000Y-96225619D01*
X162432000Y-96225619D02*
X162193905Y-96225619D01*
X163717714Y-96225619D02*
X163146286Y-96225619D01*
X163432000Y-96225619D02*
X163432000Y-95225619D01*
X163432000Y-95225619D02*
X163336762Y-95368476D01*
X163336762Y-95368476D02*
X163241524Y-95463714D01*
X163241524Y-95463714D02*
X163146286Y-95511333D01*
%TO.C,C45*%
X144884380Y-101485857D02*
X144932000Y-101533476D01*
X144932000Y-101533476D02*
X144979619Y-101676333D01*
X144979619Y-101676333D02*
X144979619Y-101771571D01*
X144979619Y-101771571D02*
X144932000Y-101914428D01*
X144932000Y-101914428D02*
X144836761Y-102009666D01*
X144836761Y-102009666D02*
X144741523Y-102057285D01*
X144741523Y-102057285D02*
X144551047Y-102104904D01*
X144551047Y-102104904D02*
X144408190Y-102104904D01*
X144408190Y-102104904D02*
X144217714Y-102057285D01*
X144217714Y-102057285D02*
X144122476Y-102009666D01*
X144122476Y-102009666D02*
X144027238Y-101914428D01*
X144027238Y-101914428D02*
X143979619Y-101771571D01*
X143979619Y-101771571D02*
X143979619Y-101676333D01*
X143979619Y-101676333D02*
X144027238Y-101533476D01*
X144027238Y-101533476D02*
X144074857Y-101485857D01*
X144312952Y-100628714D02*
X144979619Y-100628714D01*
X143932000Y-100866809D02*
X144646285Y-101104904D01*
X144646285Y-101104904D02*
X144646285Y-100485857D01*
X143979619Y-99628714D02*
X143979619Y-100104904D01*
X143979619Y-100104904D02*
X144455809Y-100152523D01*
X144455809Y-100152523D02*
X144408190Y-100104904D01*
X144408190Y-100104904D02*
X144360571Y-100009666D01*
X144360571Y-100009666D02*
X144360571Y-99771571D01*
X144360571Y-99771571D02*
X144408190Y-99676333D01*
X144408190Y-99676333D02*
X144455809Y-99628714D01*
X144455809Y-99628714D02*
X144551047Y-99581095D01*
X144551047Y-99581095D02*
X144789142Y-99581095D01*
X144789142Y-99581095D02*
X144884380Y-99628714D01*
X144884380Y-99628714D02*
X144932000Y-99676333D01*
X144932000Y-99676333D02*
X144979619Y-99771571D01*
X144979619Y-99771571D02*
X144979619Y-100009666D01*
X144979619Y-100009666D02*
X144932000Y-100104904D01*
X144932000Y-100104904D02*
X144884380Y-100152523D01*
%TO.C,C8*%
X134733380Y-114466666D02*
X134781000Y-114514285D01*
X134781000Y-114514285D02*
X134828619Y-114657142D01*
X134828619Y-114657142D02*
X134828619Y-114752380D01*
X134828619Y-114752380D02*
X134781000Y-114895237D01*
X134781000Y-114895237D02*
X134685761Y-114990475D01*
X134685761Y-114990475D02*
X134590523Y-115038094D01*
X134590523Y-115038094D02*
X134400047Y-115085713D01*
X134400047Y-115085713D02*
X134257190Y-115085713D01*
X134257190Y-115085713D02*
X134066714Y-115038094D01*
X134066714Y-115038094D02*
X133971476Y-114990475D01*
X133971476Y-114990475D02*
X133876238Y-114895237D01*
X133876238Y-114895237D02*
X133828619Y-114752380D01*
X133828619Y-114752380D02*
X133828619Y-114657142D01*
X133828619Y-114657142D02*
X133876238Y-114514285D01*
X133876238Y-114514285D02*
X133923857Y-114466666D01*
X134257190Y-113895237D02*
X134209571Y-113990475D01*
X134209571Y-113990475D02*
X134161952Y-114038094D01*
X134161952Y-114038094D02*
X134066714Y-114085713D01*
X134066714Y-114085713D02*
X134019095Y-114085713D01*
X134019095Y-114085713D02*
X133923857Y-114038094D01*
X133923857Y-114038094D02*
X133876238Y-113990475D01*
X133876238Y-113990475D02*
X133828619Y-113895237D01*
X133828619Y-113895237D02*
X133828619Y-113704761D01*
X133828619Y-113704761D02*
X133876238Y-113609523D01*
X133876238Y-113609523D02*
X133923857Y-113561904D01*
X133923857Y-113561904D02*
X134019095Y-113514285D01*
X134019095Y-113514285D02*
X134066714Y-113514285D01*
X134066714Y-113514285D02*
X134161952Y-113561904D01*
X134161952Y-113561904D02*
X134209571Y-113609523D01*
X134209571Y-113609523D02*
X134257190Y-113704761D01*
X134257190Y-113704761D02*
X134257190Y-113895237D01*
X134257190Y-113895237D02*
X134304809Y-113990475D01*
X134304809Y-113990475D02*
X134352428Y-114038094D01*
X134352428Y-114038094D02*
X134447666Y-114085713D01*
X134447666Y-114085713D02*
X134638142Y-114085713D01*
X134638142Y-114085713D02*
X134733380Y-114038094D01*
X134733380Y-114038094D02*
X134781000Y-113990475D01*
X134781000Y-113990475D02*
X134828619Y-113895237D01*
X134828619Y-113895237D02*
X134828619Y-113704761D01*
X134828619Y-113704761D02*
X134781000Y-113609523D01*
X134781000Y-113609523D02*
X134733380Y-113561904D01*
X134733380Y-113561904D02*
X134638142Y-113514285D01*
X134638142Y-113514285D02*
X134447666Y-113514285D01*
X134447666Y-113514285D02*
X134352428Y-113561904D01*
X134352428Y-113561904D02*
X134304809Y-113609523D01*
X134304809Y-113609523D02*
X134257190Y-113704761D01*
%TO.C,C20*%
X132311380Y-101612857D02*
X132359000Y-101660476D01*
X132359000Y-101660476D02*
X132406619Y-101803333D01*
X132406619Y-101803333D02*
X132406619Y-101898571D01*
X132406619Y-101898571D02*
X132359000Y-102041428D01*
X132359000Y-102041428D02*
X132263761Y-102136666D01*
X132263761Y-102136666D02*
X132168523Y-102184285D01*
X132168523Y-102184285D02*
X131978047Y-102231904D01*
X131978047Y-102231904D02*
X131835190Y-102231904D01*
X131835190Y-102231904D02*
X131644714Y-102184285D01*
X131644714Y-102184285D02*
X131549476Y-102136666D01*
X131549476Y-102136666D02*
X131454238Y-102041428D01*
X131454238Y-102041428D02*
X131406619Y-101898571D01*
X131406619Y-101898571D02*
X131406619Y-101803333D01*
X131406619Y-101803333D02*
X131454238Y-101660476D01*
X131454238Y-101660476D02*
X131501857Y-101612857D01*
X131501857Y-101231904D02*
X131454238Y-101184285D01*
X131454238Y-101184285D02*
X131406619Y-101089047D01*
X131406619Y-101089047D02*
X131406619Y-100850952D01*
X131406619Y-100850952D02*
X131454238Y-100755714D01*
X131454238Y-100755714D02*
X131501857Y-100708095D01*
X131501857Y-100708095D02*
X131597095Y-100660476D01*
X131597095Y-100660476D02*
X131692333Y-100660476D01*
X131692333Y-100660476D02*
X131835190Y-100708095D01*
X131835190Y-100708095D02*
X132406619Y-101279523D01*
X132406619Y-101279523D02*
X132406619Y-100660476D01*
X131406619Y-100041428D02*
X131406619Y-99946190D01*
X131406619Y-99946190D02*
X131454238Y-99850952D01*
X131454238Y-99850952D02*
X131501857Y-99803333D01*
X131501857Y-99803333D02*
X131597095Y-99755714D01*
X131597095Y-99755714D02*
X131787571Y-99708095D01*
X131787571Y-99708095D02*
X132025666Y-99708095D01*
X132025666Y-99708095D02*
X132216142Y-99755714D01*
X132216142Y-99755714D02*
X132311380Y-99803333D01*
X132311380Y-99803333D02*
X132359000Y-99850952D01*
X132359000Y-99850952D02*
X132406619Y-99946190D01*
X132406619Y-99946190D02*
X132406619Y-100041428D01*
X132406619Y-100041428D02*
X132359000Y-100136666D01*
X132359000Y-100136666D02*
X132311380Y-100184285D01*
X132311380Y-100184285D02*
X132216142Y-100231904D01*
X132216142Y-100231904D02*
X132025666Y-100279523D01*
X132025666Y-100279523D02*
X131787571Y-100279523D01*
X131787571Y-100279523D02*
X131597095Y-100231904D01*
X131597095Y-100231904D02*
X131501857Y-100184285D01*
X131501857Y-100184285D02*
X131454238Y-100136666D01*
X131454238Y-100136666D02*
X131406619Y-100041428D01*
%TO.C,C46*%
X175497142Y-70095380D02*
X175449523Y-70143000D01*
X175449523Y-70143000D02*
X175306666Y-70190619D01*
X175306666Y-70190619D02*
X175211428Y-70190619D01*
X175211428Y-70190619D02*
X175068571Y-70143000D01*
X175068571Y-70143000D02*
X174973333Y-70047761D01*
X174973333Y-70047761D02*
X174925714Y-69952523D01*
X174925714Y-69952523D02*
X174878095Y-69762047D01*
X174878095Y-69762047D02*
X174878095Y-69619190D01*
X174878095Y-69619190D02*
X174925714Y-69428714D01*
X174925714Y-69428714D02*
X174973333Y-69333476D01*
X174973333Y-69333476D02*
X175068571Y-69238238D01*
X175068571Y-69238238D02*
X175211428Y-69190619D01*
X175211428Y-69190619D02*
X175306666Y-69190619D01*
X175306666Y-69190619D02*
X175449523Y-69238238D01*
X175449523Y-69238238D02*
X175497142Y-69285857D01*
X176354285Y-69523952D02*
X176354285Y-70190619D01*
X176116190Y-69143000D02*
X175878095Y-69857285D01*
X175878095Y-69857285D02*
X176497142Y-69857285D01*
X177306666Y-69190619D02*
X177116190Y-69190619D01*
X177116190Y-69190619D02*
X177020952Y-69238238D01*
X177020952Y-69238238D02*
X176973333Y-69285857D01*
X176973333Y-69285857D02*
X176878095Y-69428714D01*
X176878095Y-69428714D02*
X176830476Y-69619190D01*
X176830476Y-69619190D02*
X176830476Y-70000142D01*
X176830476Y-70000142D02*
X176878095Y-70095380D01*
X176878095Y-70095380D02*
X176925714Y-70143000D01*
X176925714Y-70143000D02*
X177020952Y-70190619D01*
X177020952Y-70190619D02*
X177211428Y-70190619D01*
X177211428Y-70190619D02*
X177306666Y-70143000D01*
X177306666Y-70143000D02*
X177354285Y-70095380D01*
X177354285Y-70095380D02*
X177401904Y-70000142D01*
X177401904Y-70000142D02*
X177401904Y-69762047D01*
X177401904Y-69762047D02*
X177354285Y-69666809D01*
X177354285Y-69666809D02*
X177306666Y-69619190D01*
X177306666Y-69619190D02*
X177211428Y-69571571D01*
X177211428Y-69571571D02*
X177020952Y-69571571D01*
X177020952Y-69571571D02*
X176925714Y-69619190D01*
X176925714Y-69619190D02*
X176878095Y-69666809D01*
X176878095Y-69666809D02*
X176830476Y-69762047D01*
%TO.C,R2*%
X162765333Y-100670619D02*
X162432000Y-100194428D01*
X162193905Y-100670619D02*
X162193905Y-99670619D01*
X162193905Y-99670619D02*
X162574857Y-99670619D01*
X162574857Y-99670619D02*
X162670095Y-99718238D01*
X162670095Y-99718238D02*
X162717714Y-99765857D01*
X162717714Y-99765857D02*
X162765333Y-99861095D01*
X162765333Y-99861095D02*
X162765333Y-100003952D01*
X162765333Y-100003952D02*
X162717714Y-100099190D01*
X162717714Y-100099190D02*
X162670095Y-100146809D01*
X162670095Y-100146809D02*
X162574857Y-100194428D01*
X162574857Y-100194428D02*
X162193905Y-100194428D01*
X163146286Y-99765857D02*
X163193905Y-99718238D01*
X163193905Y-99718238D02*
X163289143Y-99670619D01*
X163289143Y-99670619D02*
X163527238Y-99670619D01*
X163527238Y-99670619D02*
X163622476Y-99718238D01*
X163622476Y-99718238D02*
X163670095Y-99765857D01*
X163670095Y-99765857D02*
X163717714Y-99861095D01*
X163717714Y-99861095D02*
X163717714Y-99956333D01*
X163717714Y-99956333D02*
X163670095Y-100099190D01*
X163670095Y-100099190D02*
X163098667Y-100670619D01*
X163098667Y-100670619D02*
X163717714Y-100670619D01*
%TO.C,Q4*%
X153692761Y-40459857D02*
X153597523Y-40412238D01*
X153597523Y-40412238D02*
X153502285Y-40317000D01*
X153502285Y-40317000D02*
X153359428Y-40174142D01*
X153359428Y-40174142D02*
X153264190Y-40126523D01*
X153264190Y-40126523D02*
X153168952Y-40126523D01*
X153216571Y-40364619D02*
X153121333Y-40317000D01*
X153121333Y-40317000D02*
X153026095Y-40221761D01*
X153026095Y-40221761D02*
X152978476Y-40031285D01*
X152978476Y-40031285D02*
X152978476Y-39697952D01*
X152978476Y-39697952D02*
X153026095Y-39507476D01*
X153026095Y-39507476D02*
X153121333Y-39412238D01*
X153121333Y-39412238D02*
X153216571Y-39364619D01*
X153216571Y-39364619D02*
X153407047Y-39364619D01*
X153407047Y-39364619D02*
X153502285Y-39412238D01*
X153502285Y-39412238D02*
X153597523Y-39507476D01*
X153597523Y-39507476D02*
X153645142Y-39697952D01*
X153645142Y-39697952D02*
X153645142Y-40031285D01*
X153645142Y-40031285D02*
X153597523Y-40221761D01*
X153597523Y-40221761D02*
X153502285Y-40317000D01*
X153502285Y-40317000D02*
X153407047Y-40364619D01*
X153407047Y-40364619D02*
X153216571Y-40364619D01*
X154502285Y-39697952D02*
X154502285Y-40364619D01*
X154264190Y-39317000D02*
X154026095Y-40031285D01*
X154026095Y-40031285D02*
X154645142Y-40031285D01*
%TO.C,Q2*%
X164106761Y-83874857D02*
X164011523Y-83827238D01*
X164011523Y-83827238D02*
X163916285Y-83732000D01*
X163916285Y-83732000D02*
X163773428Y-83589142D01*
X163773428Y-83589142D02*
X163678190Y-83541523D01*
X163678190Y-83541523D02*
X163582952Y-83541523D01*
X163630571Y-83779619D02*
X163535333Y-83732000D01*
X163535333Y-83732000D02*
X163440095Y-83636761D01*
X163440095Y-83636761D02*
X163392476Y-83446285D01*
X163392476Y-83446285D02*
X163392476Y-83112952D01*
X163392476Y-83112952D02*
X163440095Y-82922476D01*
X163440095Y-82922476D02*
X163535333Y-82827238D01*
X163535333Y-82827238D02*
X163630571Y-82779619D01*
X163630571Y-82779619D02*
X163821047Y-82779619D01*
X163821047Y-82779619D02*
X163916285Y-82827238D01*
X163916285Y-82827238D02*
X164011523Y-82922476D01*
X164011523Y-82922476D02*
X164059142Y-83112952D01*
X164059142Y-83112952D02*
X164059142Y-83446285D01*
X164059142Y-83446285D02*
X164011523Y-83636761D01*
X164011523Y-83636761D02*
X163916285Y-83732000D01*
X163916285Y-83732000D02*
X163821047Y-83779619D01*
X163821047Y-83779619D02*
X163630571Y-83779619D01*
X164440095Y-82874857D02*
X164487714Y-82827238D01*
X164487714Y-82827238D02*
X164582952Y-82779619D01*
X164582952Y-82779619D02*
X164821047Y-82779619D01*
X164821047Y-82779619D02*
X164916285Y-82827238D01*
X164916285Y-82827238D02*
X164963904Y-82874857D01*
X164963904Y-82874857D02*
X165011523Y-82970095D01*
X165011523Y-82970095D02*
X165011523Y-83065333D01*
X165011523Y-83065333D02*
X164963904Y-83208190D01*
X164963904Y-83208190D02*
X164392476Y-83779619D01*
X164392476Y-83779619D02*
X165011523Y-83779619D01*
%TO.C,C1*%
X138127333Y-92193380D02*
X138079714Y-92241000D01*
X138079714Y-92241000D02*
X137936857Y-92288619D01*
X137936857Y-92288619D02*
X137841619Y-92288619D01*
X137841619Y-92288619D02*
X137698762Y-92241000D01*
X137698762Y-92241000D02*
X137603524Y-92145761D01*
X137603524Y-92145761D02*
X137555905Y-92050523D01*
X137555905Y-92050523D02*
X137508286Y-91860047D01*
X137508286Y-91860047D02*
X137508286Y-91717190D01*
X137508286Y-91717190D02*
X137555905Y-91526714D01*
X137555905Y-91526714D02*
X137603524Y-91431476D01*
X137603524Y-91431476D02*
X137698762Y-91336238D01*
X137698762Y-91336238D02*
X137841619Y-91288619D01*
X137841619Y-91288619D02*
X137936857Y-91288619D01*
X137936857Y-91288619D02*
X138079714Y-91336238D01*
X138079714Y-91336238D02*
X138127333Y-91383857D01*
X139079714Y-92288619D02*
X138508286Y-92288619D01*
X138794000Y-92288619D02*
X138794000Y-91288619D01*
X138794000Y-91288619D02*
X138698762Y-91431476D01*
X138698762Y-91431476D02*
X138603524Y-91526714D01*
X138603524Y-91526714D02*
X138508286Y-91574333D01*
%TO.C,D4*%
X115584905Y-74254619D02*
X115584905Y-73254619D01*
X115584905Y-73254619D02*
X115823000Y-73254619D01*
X115823000Y-73254619D02*
X115965857Y-73302238D01*
X115965857Y-73302238D02*
X116061095Y-73397476D01*
X116061095Y-73397476D02*
X116108714Y-73492714D01*
X116108714Y-73492714D02*
X116156333Y-73683190D01*
X116156333Y-73683190D02*
X116156333Y-73826047D01*
X116156333Y-73826047D02*
X116108714Y-74016523D01*
X116108714Y-74016523D02*
X116061095Y-74111761D01*
X116061095Y-74111761D02*
X115965857Y-74207000D01*
X115965857Y-74207000D02*
X115823000Y-74254619D01*
X115823000Y-74254619D02*
X115584905Y-74254619D01*
X117013476Y-73587952D02*
X117013476Y-74254619D01*
X116775381Y-73207000D02*
X116537286Y-73921285D01*
X116537286Y-73921285D02*
X117156333Y-73921285D01*
D12*
%TO.C,C12*%
X140617000Y-95839252D02*
X140617000Y-94416748D01*
X143337000Y-95839252D02*
X143337000Y-94416748D01*
%TO.C,C13*%
X140617000Y-106926752D02*
X140617000Y-105504248D01*
X143337000Y-106926752D02*
X143337000Y-105504248D01*
D13*
%TO.C,Q7*%
X126527000Y-67693000D02*
X127202000Y-67693000D01*
X127202000Y-67693000D02*
X127202000Y-57793000D01*
X131227000Y-66943000D02*
X131227000Y-66943000D01*
X131227000Y-66943000D02*
X131327000Y-66943000D01*
X131327000Y-66943000D02*
X131327000Y-66943000D01*
X127202000Y-57793000D02*
X126527000Y-57793000D01*
X131327000Y-66943000D02*
G75*
G03*
X131227000Y-66943000I-50000J0D01*
G01*
X131227000Y-66943000D02*
G75*
G03*
X131327000Y-66943000I50000J0D01*
G01*
D12*
%TO.C,C47*%
X145513733Y-58757500D02*
X145806267Y-58757500D01*
X145513733Y-59777500D02*
X145806267Y-59777500D01*
%TO.C,C10*%
X136807000Y-106926752D02*
X136807000Y-105504248D01*
X139527000Y-106926752D02*
X139527000Y-105504248D01*
D13*
%TO.C,Q1*%
X158357000Y-98513000D02*
X158357000Y-97838000D01*
X158357000Y-97838000D02*
X148457000Y-97838000D01*
X157607000Y-93813000D02*
X157607000Y-93813000D01*
X157607000Y-93813000D02*
X157607000Y-93713000D01*
X157607000Y-93713000D02*
X157607000Y-93713000D01*
X148457000Y-97838000D02*
X148457000Y-98513000D01*
X157607000Y-93713000D02*
G75*
G03*
X157607000Y-93813000I0J-50000D01*
G01*
X157607000Y-93813000D02*
G75*
G03*
X157607000Y-93713000I0J50000D01*
G01*
D12*
%TO.C,D2*%
X171015000Y-73792000D02*
X171015000Y-76717000D01*
X171015000Y-73792000D02*
X171015000Y-72292000D01*
X174235000Y-73792000D02*
X174235000Y-75292000D01*
X174235000Y-73792000D02*
X174235000Y-72292000D01*
%TO.C,C35*%
X132997000Y-95839252D02*
X132997000Y-94416748D01*
X135717000Y-95839252D02*
X135717000Y-94416748D01*
%TO.C,J4*%
X143187000Y-61413000D02*
X143187000Y-86933000D01*
X143187000Y-61413000D02*
X145787000Y-61413000D01*
X143187000Y-86933000D02*
X148387000Y-86933000D01*
X145787000Y-61413000D02*
X145787000Y-64013000D01*
X145787000Y-64013000D02*
X148387000Y-64013000D01*
X147057000Y-61413000D02*
X148387000Y-61413000D01*
X148387000Y-61413000D02*
X148387000Y-62743000D01*
X148387000Y-64013000D02*
X148387000Y-86933000D01*
D13*
%TO.C,Q6*%
X130972000Y-81028000D02*
X131647000Y-81028000D01*
X131647000Y-81028000D02*
X131647000Y-71128000D01*
X135672000Y-80278000D02*
X135672000Y-80278000D01*
X135672000Y-80278000D02*
X135772000Y-80278000D01*
X135772000Y-80278000D02*
X135772000Y-80278000D01*
X131647000Y-71128000D02*
X130972000Y-71128000D01*
X135772000Y-80278000D02*
G75*
G03*
X135672000Y-80278000I-50000J0D01*
G01*
X135672000Y-80278000D02*
G75*
G03*
X135772000Y-80278000I50000J0D01*
G01*
D12*
%TO.C,C7*%
X154597000Y-118118000D02*
X155961000Y-118118000D01*
X154597000Y-118118000D02*
X154597000Y-110378000D01*
X158473000Y-118118000D02*
X159837000Y-118118000D01*
X159837000Y-118118000D02*
X159837000Y-110378000D01*
X154597000Y-110378000D02*
X155961000Y-110378000D01*
X158473000Y-110378000D02*
X159837000Y-110378000D01*
%TO.C,D3*%
X147270000Y-55123000D02*
X147270000Y-52198000D01*
X147270000Y-55123000D02*
X147270000Y-56623000D01*
X144050000Y-55123000D02*
X144050000Y-53623000D01*
X144050000Y-55123000D02*
X144050000Y-56623000D01*
%TO.C,C21*%
X139527000Y-100131748D02*
X139527000Y-101554252D01*
X136807000Y-100131748D02*
X136807000Y-101554252D01*
%TO.C,C48*%
X118843733Y-69218000D02*
X119136267Y-69218000D01*
X118843733Y-70238000D02*
X119136267Y-70238000D01*
%TO.C,C39*%
X132997000Y-106926752D02*
X132997000Y-105504248D01*
X135717000Y-106926752D02*
X135717000Y-105504248D01*
%TO.C,R1*%
X132179936Y-85163000D02*
X136534064Y-85163000D01*
X132179936Y-88583000D02*
X136534064Y-88583000D01*
D13*
%TO.C,Q5*%
X132582000Y-51103000D02*
X132582000Y-51778000D01*
X132582000Y-51778000D02*
X142482000Y-51778000D01*
X133332000Y-55803000D02*
X133332000Y-55803000D01*
X133332000Y-55803000D02*
X133332000Y-55903000D01*
X133332000Y-55903000D02*
X133332000Y-55903000D01*
X142482000Y-51778000D02*
X142482000Y-51103000D01*
X133332000Y-55903000D02*
G75*
G03*
X133332000Y-55803000I0J50000D01*
G01*
X133332000Y-55803000D02*
G75*
G03*
X133332000Y-55903000I0J-50000D01*
G01*
%TO.C,Q3*%
X165042000Y-57793000D02*
X164367000Y-57793000D01*
X164367000Y-57793000D02*
X164367000Y-67693000D01*
X160342000Y-58543000D02*
X160342000Y-58543000D01*
X160342000Y-58543000D02*
X160242000Y-58543000D01*
X160242000Y-58543000D02*
X160242000Y-58543000D01*
X164367000Y-67693000D02*
X165042000Y-67693000D01*
X160242000Y-58543000D02*
G75*
G03*
X160342000Y-58543000I50000J0D01*
G01*
X160342000Y-58543000D02*
G75*
G03*
X160242000Y-58543000I-50000J0D01*
G01*
D12*
%TO.C,D1*%
X160027000Y-97868000D02*
X162027000Y-97868000D01*
X160027000Y-97868000D02*
X160027000Y-93858000D01*
X162027000Y-97868000D02*
X162027000Y-93858000D01*
%TO.C,C45*%
X143337000Y-100131748D02*
X143337000Y-101554252D01*
X140617000Y-100131748D02*
X140617000Y-101554252D01*
%TO.C,C8*%
X136977000Y-110378000D02*
X135613000Y-110378000D01*
X136977000Y-110378000D02*
X136977000Y-118118000D01*
X133101000Y-110378000D02*
X131737000Y-110378000D01*
X131737000Y-110378000D02*
X131737000Y-118118000D01*
X136977000Y-118118000D02*
X135613000Y-118118000D01*
X133101000Y-118118000D02*
X131737000Y-118118000D01*
%TO.C,C20*%
X135717000Y-100131748D02*
X135717000Y-101554252D01*
X132997000Y-100131748D02*
X132997000Y-101554252D01*
%TO.C,C46*%
X172437733Y-69218000D02*
X172730267Y-69218000D01*
X172437733Y-70238000D02*
X172730267Y-70238000D01*
%TO.C,R2*%
X161762000Y-99980936D02*
X161762000Y-100435064D01*
X160292000Y-99980936D02*
X160292000Y-100435064D01*
D13*
%TO.C,Q4*%
X148838000Y-51122000D02*
X148838000Y-51797000D01*
X148838000Y-51797000D02*
X158738000Y-51797000D01*
X149588000Y-55822000D02*
X149588000Y-55822000D01*
X149588000Y-55822000D02*
X149588000Y-55922000D01*
X149588000Y-55922000D02*
X149588000Y-55922000D01*
X158738000Y-51797000D02*
X158738000Y-51122000D01*
X149588000Y-55922000D02*
G75*
G03*
X149588000Y-55822000I0J50000D01*
G01*
X149588000Y-55822000D02*
G75*
G03*
X149588000Y-55922000I0J-50000D01*
G01*
%TO.C,Q2*%
X160602000Y-71128000D02*
X159927000Y-71128000D01*
X159927000Y-71128000D02*
X159927000Y-81028000D01*
X155902000Y-71878000D02*
X155902000Y-71878000D01*
X155902000Y-71878000D02*
X155802000Y-71878000D01*
X155802000Y-71878000D02*
X155802000Y-71878000D01*
X159927000Y-81028000D02*
X160602000Y-81028000D01*
X155802000Y-71878000D02*
G75*
G03*
X155902000Y-71878000I50000J0D01*
G01*
X155902000Y-71878000D02*
G75*
G03*
X155802000Y-71878000I-50000J0D01*
G01*
D12*
%TO.C,C1*%
X136934000Y-95839252D02*
X136934000Y-94416748D01*
X139654000Y-95839252D02*
X139654000Y-94416748D01*
%TO.C,D4*%
X117380000Y-73792000D02*
X117380000Y-76717000D01*
X117380000Y-73792000D02*
X117380000Y-72292000D01*
X120600000Y-73792000D02*
X120600000Y-75292000D01*
X120600000Y-73792000D02*
X120600000Y-72292000D01*
%TD*%
D14*
X126847517Y-122086374D02*
X141398465Y-122083355D01*
X150342190Y-122084556D02*
G75*
G03*
X141398465Y-122083355I-4471930J-501814D01*
G01*
X166347072Y-104451099D02*
G75*
G03*
X166347073Y-113449221I389848J-4499061D01*
G01*
X164847517Y-122086517D02*
G75*
G03*
X166347517Y-120586503I-17J1500017D01*
G01*
X166347073Y-113449222D02*
X166347517Y-120586503D01*
X167579138Y-90948252D02*
G75*
G03*
X179370262Y-65434046I-21708888J25514212D01*
G01*
X125509571Y-93716347D02*
G75*
G03*
X124267370Y-91038052I-3504871J1647D01*
G01*
X125347517Y-120586374D02*
X125347517Y-113433715D01*
X125347517Y-113433715D02*
G75*
G03*
X125509619Y-104435721I-384537J4507385D01*
G01*
X125347526Y-120586374D02*
G75*
G03*
X126847517Y-122086374I1499974J-26D01*
G01*
X167579165Y-90948283D02*
G75*
G03*
X166347073Y-93614254I2268335J-2666017D01*
G01*
X166347073Y-93614254D02*
X166347073Y-104451107D01*
X125509619Y-93716347D02*
X125509619Y-104435720D01*
X112370266Y-65434046D02*
G75*
G03*
X124267371Y-91038050I33499954J-24D01*
G01*
X179370262Y-65434046D02*
G75*
G03*
X112370262Y-65434046I-33500000J0D01*
G01*
X150342194Y-122084556D02*
X164847517Y-122086503D01*
M02*
