%TF.GenerationSoftware,KiCad,Pcbnew,7.0.1*%
%TF.CreationDate,2023-12-14T23:22:24+03:00*%
%TF.ProjectId,_______ _____,21383b3e-3230-44f2-903f-3b3042302e6b,rev?*%
%TF.SameCoordinates,Original*%
%TF.FileFunction,Paste,Bot*%
%TF.FilePolarity,Positive*%
%FSLAX46Y46*%
G04 Gerber Fmt 4.6, Leading zero omitted, Abs format (unit mm)*
G04 Created by KiCad (PCBNEW 7.0.1) date 2023-12-14 23:22:24*
%MOMM*%
%LPD*%
G01*
G04 APERTURE LIST*
G04 Aperture macros list*
%AMRoundRect*
0 Rectangle with rounded corners*
0 $1 Rounding radius*
0 $2 $3 $4 $5 $6 $7 $8 $9 X,Y pos of 4 corners*
0 Add a 4 corners polygon primitive as box body*
4,1,4,$2,$3,$4,$5,$6,$7,$8,$9,$2,$3,0*
0 Add four circle primitives for the rounded corners*
1,1,$1+$1,$2,$3*
1,1,$1+$1,$4,$5*
1,1,$1+$1,$6,$7*
1,1,$1+$1,$8,$9*
0 Add four rect primitives between the rounded corners*
20,1,$1+$1,$2,$3,$4,$5,0*
20,1,$1+$1,$4,$5,$6,$7,0*
20,1,$1+$1,$6,$7,$8,$9,0*
20,1,$1+$1,$8,$9,$2,$3,0*%
G04 Aperture macros list end*
%ADD10RoundRect,0.250000X-1.100000X0.412500X-1.100000X-0.412500X1.100000X-0.412500X1.100000X0.412500X0*%
%ADD11RoundRect,0.250000X1.100000X-0.412500X1.100000X0.412500X-1.100000X0.412500X-1.100000X-0.412500X0*%
%TA.AperFunction,Profile*%
%ADD12C,0.200000*%
%TD*%
G04 APERTURE END LIST*
D10*
%TO.C,C41*%
X141977000Y-87850500D03*
X141977000Y-90975500D03*
%TD*%
D11*
%TO.C,C37*%
X149597000Y-96690500D03*
X149597000Y-93565500D03*
%TD*%
D10*
%TO.C,C25*%
X160646000Y-99280500D03*
X160646000Y-102405500D03*
%TD*%
D11*
%TO.C,C44*%
X145787000Y-96690500D03*
X145787000Y-93565500D03*
%TD*%
D10*
%TO.C,C32*%
X149597000Y-87850500D03*
X149597000Y-90975500D03*
%TD*%
D11*
%TO.C,C18*%
X134357000Y-96690500D03*
X134357000Y-93565500D03*
%TD*%
D10*
%TO.C,C5*%
X134357000Y-99280500D03*
X134357000Y-102405500D03*
%TD*%
D11*
%TO.C,C26*%
X153407000Y-107778000D03*
X153407000Y-104653000D03*
%TD*%
D10*
%TO.C,C4*%
X130928000Y-99280500D03*
X130928000Y-102405500D03*
%TD*%
D11*
%TO.C,C15*%
X134357000Y-107728000D03*
X134357000Y-104603000D03*
%TD*%
D10*
%TO.C,C40*%
X153407000Y-87850500D03*
X153407000Y-90975500D03*
%TD*%
%TO.C,C29*%
X157217000Y-99280500D03*
X157217000Y-102405500D03*
%TD*%
%TO.C,C30*%
X153407000Y-99280500D03*
X153407000Y-102405500D03*
%TD*%
%TO.C,C6*%
X150867000Y-82135500D03*
X150867000Y-85260500D03*
%TD*%
D11*
%TO.C,C14*%
X157217000Y-107728000D03*
X157217000Y-104603000D03*
%TD*%
%TO.C,C2*%
X157217000Y-96690500D03*
X157217000Y-93565500D03*
%TD*%
D10*
%TO.C,C9*%
X140707000Y-82135500D03*
X140707000Y-85260500D03*
%TD*%
D11*
%TO.C,C28*%
X141977000Y-107728000D03*
X141977000Y-104603000D03*
%TD*%
%TO.C,C3*%
X145787000Y-107778000D03*
X145787000Y-104653000D03*
%TD*%
D10*
%TO.C,C23*%
X141977000Y-99280500D03*
X141977000Y-102405500D03*
%TD*%
D11*
%TO.C,C22*%
X140707000Y-79545500D03*
X140707000Y-76420500D03*
%TD*%
D10*
%TO.C,C43*%
X145787000Y-87850500D03*
X145787000Y-90975500D03*
%TD*%
D11*
%TO.C,C17*%
X138167000Y-96690500D03*
X138167000Y-93565500D03*
%TD*%
D10*
%TO.C,C19*%
X149597000Y-99280500D03*
X149597000Y-102405500D03*
%TD*%
%TO.C,C36*%
X145787000Y-99280500D03*
X145787000Y-102405500D03*
%TD*%
D11*
%TO.C,C11*%
X141977000Y-96690500D03*
X141977000Y-93565500D03*
%TD*%
D10*
%TO.C,C38*%
X157217000Y-87850500D03*
X157217000Y-90975500D03*
%TD*%
%TO.C,C33*%
X138167000Y-87850500D03*
X138167000Y-90975500D03*
%TD*%
%TO.C,C34*%
X134357000Y-87850500D03*
X134357000Y-90975500D03*
%TD*%
D11*
%TO.C,C42*%
X138167000Y-107728000D03*
X138167000Y-104603000D03*
%TD*%
%TO.C,C31*%
X153407000Y-96740500D03*
X153407000Y-93615500D03*
%TD*%
%TO.C,C16*%
X150867000Y-79545500D03*
X150867000Y-76420500D03*
%TD*%
%TO.C,C27*%
X149597000Y-107778000D03*
X149597000Y-104653000D03*
%TD*%
D10*
%TO.C,C24*%
X138167000Y-99280500D03*
X138167000Y-102405500D03*
%TD*%
D12*
X126847517Y-122086374D02*
X141398465Y-122083355D01*
X150342190Y-122084556D02*
G75*
G03*
X141398465Y-122083355I-4471930J-501814D01*
G01*
X166347072Y-104451099D02*
G75*
G03*
X166347073Y-113449221I389848J-4499061D01*
G01*
X164847517Y-122086517D02*
G75*
G03*
X166347517Y-120586503I-17J1500017D01*
G01*
X166347073Y-113449222D02*
X166347517Y-120586503D01*
X167579138Y-90948252D02*
G75*
G03*
X179370262Y-65434046I-21708888J25514212D01*
G01*
X125509571Y-93716347D02*
G75*
G03*
X124267370Y-91038052I-3504871J1647D01*
G01*
X125347517Y-120586374D02*
X125347517Y-113433715D01*
X125347517Y-113433715D02*
G75*
G03*
X125509619Y-104435721I-384537J4507385D01*
G01*
X125347526Y-120586374D02*
G75*
G03*
X126847517Y-122086374I1499974J-26D01*
G01*
X167579165Y-90948283D02*
G75*
G03*
X166347073Y-93614254I2268335J-2666017D01*
G01*
X166347073Y-93614254D02*
X166347073Y-104451107D01*
X125509619Y-93716347D02*
X125509619Y-104435720D01*
X112370266Y-65434046D02*
G75*
G03*
X124267371Y-91038050I33499954J-24D01*
G01*
X179370262Y-65434046D02*
G75*
G03*
X112370262Y-65434046I-33500000J0D01*
G01*
X150342194Y-122084556D02*
X164847517Y-122086503D01*
M02*
