%TF.GenerationSoftware,KiCad,Pcbnew,7.0.1*%
%TF.CreationDate,2023-12-14T23:22:25+03:00*%
%TF.ProjectId,_______ _____,21383b3e-3230-44f2-903f-3b3042302e6b,rev?*%
%TF.SameCoordinates,Original*%
%TF.FileFunction,Soldermask,Top*%
%TF.FilePolarity,Negative*%
%FSLAX46Y46*%
G04 Gerber Fmt 4.6, Leading zero omitted, Abs format (unit mm)*
G04 Created by KiCad (PCBNEW 7.0.1) date 2023-12-14 23:22:25*
%MOMM*%
%LPD*%
G01*
G04 APERTURE LIST*
G04 Aperture macros list*
%AMRoundRect*
0 Rectangle with rounded corners*
0 $1 Rounding radius*
0 $2 $3 $4 $5 $6 $7 $8 $9 X,Y pos of 4 corners*
0 Add a 4 corners polygon primitive as box body*
4,1,4,$2,$3,$4,$5,$6,$7,$8,$9,$2,$3,0*
0 Add four circle primitives for the rounded corners*
1,1,$1+$1,$2,$3*
1,1,$1+$1,$4,$5*
1,1,$1+$1,$6,$7*
1,1,$1+$1,$8,$9*
0 Add four rect primitives between the rounded corners*
20,1,$1+$1,$2,$3,$4,$5,0*
20,1,$1+$1,$4,$5,$6,$7,0*
20,1,$1+$1,$6,$7,$8,$9,0*
20,1,$1+$1,$8,$9,$2,$3,0*%
G04 Aperture macros list end*
%ADD10RoundRect,0.250000X1.100000X-0.412500X1.100000X0.412500X-1.100000X0.412500X-1.100000X-0.412500X0*%
%ADD11C,8.200000*%
%ADD12R,2.800000X0.900000*%
%ADD13R,1.550000X10.100000*%
%ADD14R,2.750000X8.700000*%
%ADD15R,3.700000X9.700000*%
%ADD16RoundRect,0.237500X-0.300000X-0.237500X0.300000X-0.237500X0.300000X0.237500X-0.300000X0.237500X0*%
%ADD17C,6.000000*%
%ADD18R,0.900000X2.800000*%
%ADD19R,10.100000X1.550000*%
%ADD20R,8.700000X2.750000*%
%ADD21R,9.700000X3.700000*%
%ADD22RoundRect,0.100000X0.100000X-0.712500X0.100000X0.712500X-0.100000X0.712500X-0.100000X-0.712500X0*%
%ADD23R,1.700000X1.700000*%
%ADD24O,1.700000X1.700000*%
%ADD25C,2.000000*%
%ADD26RoundRect,0.100000X-0.100000X0.712500X-0.100000X-0.712500X0.100000X-0.712500X0.100000X0.712500X0*%
%ADD27RoundRect,0.250000X-1.100000X0.412500X-1.100000X-0.412500X1.100000X-0.412500X1.100000X0.412500X0*%
%ADD28RoundRect,0.249999X-0.450001X-1.425001X0.450001X-1.425001X0.450001X1.425001X-0.450001X1.425001X0*%
%ADD29C,3.200000*%
%ADD30C,5.000000*%
%ADD31RoundRect,0.225000X0.375000X-0.225000X0.375000X0.225000X-0.375000X0.225000X-0.375000X-0.225000X0*%
%ADD32RoundRect,0.250000X-0.450000X0.350000X-0.450000X-0.350000X0.450000X-0.350000X0.450000X0.350000X0*%
%TA.AperFunction,Profile*%
%ADD33C,0.200000*%
%TD*%
G04 APERTURE END LIST*
D10*
%TO.C,C12*%
X141977000Y-96690500D03*
X141977000Y-93565500D03*
%TD*%
D11*
%TO.C,J7*%
X123562000Y-52583000D03*
%TD*%
%TO.C,J5*%
X168012000Y-52583000D03*
%TD*%
D10*
%TO.C,C13*%
X141977000Y-107778000D03*
X141977000Y-104653000D03*
%TD*%
D12*
%TO.C,Q7*%
X129272000Y-66943000D03*
X129272000Y-65743000D03*
X129272000Y-64543000D03*
X129272000Y-63343000D03*
X129272000Y-62143000D03*
X129272000Y-60943000D03*
X129272000Y-59743000D03*
X129272000Y-58543000D03*
D13*
X118422000Y-62743000D03*
D14*
X120572000Y-62743000D03*
D15*
X123797000Y-62743000D03*
%TD*%
D16*
%TO.C,C47*%
X144797500Y-59267500D03*
X146522500Y-59267500D03*
%TD*%
D10*
%TO.C,C10*%
X138167000Y-107778000D03*
X138167000Y-104653000D03*
%TD*%
D17*
%TO.C,J3*%
X140707000Y-112543000D03*
%TD*%
D18*
%TO.C,Q1*%
X157607000Y-95768000D03*
X156407000Y-95768000D03*
X155207000Y-95768000D03*
X154007000Y-95768000D03*
X152807000Y-95768000D03*
X151607000Y-95768000D03*
X150407000Y-95768000D03*
X149207000Y-95768000D03*
D19*
X153407000Y-106618000D03*
D20*
X153407000Y-104468000D03*
D21*
X153407000Y-101243000D03*
%TD*%
D22*
%TO.C,D2*%
X171650000Y-75904500D03*
X172300000Y-75904500D03*
X172950000Y-75904500D03*
X173600000Y-75904500D03*
X173600000Y-71679500D03*
X172950000Y-71679500D03*
X172300000Y-71679500D03*
X171650000Y-71679500D03*
%TD*%
D10*
%TO.C,C35*%
X134357000Y-96690500D03*
X134357000Y-93565500D03*
%TD*%
D23*
%TO.C,J4*%
X147057000Y-62743000D03*
D24*
X144517000Y-62743000D03*
X147057000Y-65283000D03*
X144517000Y-65283000D03*
X147057000Y-67823000D03*
X144517000Y-67823000D03*
X147057000Y-70363000D03*
X144517000Y-70363000D03*
X147057000Y-72903000D03*
X144517000Y-72903000D03*
X147057000Y-75443000D03*
X144517000Y-75443000D03*
X147057000Y-77983000D03*
X144517000Y-77983000D03*
X147057000Y-80523000D03*
X144517000Y-80523000D03*
X147057000Y-83063000D03*
X144517000Y-83063000D03*
X147057000Y-85603000D03*
X144517000Y-85603000D03*
%TD*%
D11*
%TO.C,J6*%
X145787000Y-37978000D03*
%TD*%
D12*
%TO.C,Q6*%
X133717000Y-80278000D03*
X133717000Y-79078000D03*
X133717000Y-77878000D03*
X133717000Y-76678000D03*
X133717000Y-75478000D03*
X133717000Y-74278000D03*
X133717000Y-73078000D03*
X133717000Y-71878000D03*
D13*
X122867000Y-76078000D03*
D14*
X125017000Y-76078000D03*
D15*
X128242000Y-76078000D03*
%TD*%
D25*
%TO.C,C7*%
X157217000Y-117998000D03*
X157217000Y-110498000D03*
%TD*%
D26*
%TO.C,D3*%
X146635000Y-53010500D03*
X145985000Y-53010500D03*
X145335000Y-53010500D03*
X144685000Y-53010500D03*
X144685000Y-57235500D03*
X145335000Y-57235500D03*
X145985000Y-57235500D03*
X146635000Y-57235500D03*
%TD*%
D27*
%TO.C,C21*%
X138167000Y-99280500D03*
X138167000Y-102405500D03*
%TD*%
D16*
%TO.C,C48*%
X118127500Y-69728000D03*
X119852500Y-69728000D03*
%TD*%
D17*
%TO.C,J2*%
X150867000Y-112543000D03*
%TD*%
D10*
%TO.C,C39*%
X134357000Y-107778000D03*
X134357000Y-104653000D03*
%TD*%
D28*
%TO.C,R1*%
X131307000Y-86873000D03*
X137407000Y-86873000D03*
%TD*%
D29*
%TO.C,H1*%
X158487000Y-37343000D03*
%TD*%
D18*
%TO.C,Q5*%
X133332000Y-53848000D03*
X134532000Y-53848000D03*
X135732000Y-53848000D03*
X136932000Y-53848000D03*
X138132000Y-53848000D03*
X139332000Y-53848000D03*
X140532000Y-53848000D03*
X141732000Y-53848000D03*
D19*
X137532000Y-42998000D03*
D20*
X137532000Y-45148000D03*
D21*
X137532000Y-48373000D03*
%TD*%
D30*
%TO.C,H3*%
X128642000Y-119258000D03*
%TD*%
D12*
%TO.C,Q3*%
X162297000Y-58543000D03*
X162297000Y-59743000D03*
X162297000Y-60943000D03*
X162297000Y-62143000D03*
X162297000Y-63343000D03*
X162297000Y-64543000D03*
X162297000Y-65743000D03*
X162297000Y-66943000D03*
D13*
X173147000Y-62743000D03*
D14*
X170997000Y-62743000D03*
D15*
X167772000Y-62743000D03*
%TD*%
D31*
%TO.C,D1*%
X161027000Y-97158000D03*
X161027000Y-93858000D03*
%TD*%
D27*
%TO.C,C45*%
X141977000Y-99280500D03*
X141977000Y-102405500D03*
%TD*%
D25*
%TO.C,C8*%
X134357000Y-110498000D03*
X134357000Y-117998000D03*
%TD*%
D27*
%TO.C,C20*%
X134357000Y-99280500D03*
X134357000Y-102405500D03*
%TD*%
D16*
%TO.C,C46*%
X171721500Y-69728000D03*
X173446500Y-69728000D03*
%TD*%
D32*
%TO.C,R2*%
X161027000Y-99208000D03*
X161027000Y-101208000D03*
%TD*%
D18*
%TO.C,Q4*%
X149588000Y-53867000D03*
X150788000Y-53867000D03*
X151988000Y-53867000D03*
X153188000Y-53867000D03*
X154388000Y-53867000D03*
X155588000Y-53867000D03*
X156788000Y-53867000D03*
X157988000Y-53867000D03*
D19*
X153788000Y-43017000D03*
D20*
X153788000Y-45167000D03*
D21*
X153788000Y-48392000D03*
%TD*%
D29*
%TO.C,H2*%
X133087000Y-37343000D03*
%TD*%
D12*
%TO.C,Q2*%
X157857000Y-71878000D03*
X157857000Y-73078000D03*
X157857000Y-74278000D03*
X157857000Y-75478000D03*
X157857000Y-76678000D03*
X157857000Y-77878000D03*
X157857000Y-79078000D03*
X157857000Y-80278000D03*
D13*
X168707000Y-76078000D03*
D14*
X166557000Y-76078000D03*
D15*
X163332000Y-76078000D03*
%TD*%
D30*
%TO.C,H4*%
X163567000Y-119258000D03*
%TD*%
D10*
%TO.C,C1*%
X138294000Y-96690500D03*
X138294000Y-93565500D03*
%TD*%
D22*
%TO.C,D4*%
X118015000Y-75904500D03*
X118665000Y-75904500D03*
X119315000Y-75904500D03*
X119965000Y-75904500D03*
X119965000Y-71679500D03*
X119315000Y-71679500D03*
X118665000Y-71679500D03*
X118015000Y-71679500D03*
%TD*%
D33*
X126847517Y-122086374D02*
X141398465Y-122083355D01*
X150342190Y-122084556D02*
G75*
G03*
X141398465Y-122083355I-4471930J-501814D01*
G01*
X166347072Y-104451099D02*
G75*
G03*
X166347073Y-113449221I389848J-4499061D01*
G01*
X164847517Y-122086517D02*
G75*
G03*
X166347517Y-120586503I-17J1500017D01*
G01*
X166347073Y-113449222D02*
X166347517Y-120586503D01*
X167579138Y-90948252D02*
G75*
G03*
X179370262Y-65434046I-21708888J25514212D01*
G01*
X125509571Y-93716347D02*
G75*
G03*
X124267370Y-91038052I-3504871J1647D01*
G01*
X125347517Y-120586374D02*
X125347517Y-113433715D01*
X125347517Y-113433715D02*
G75*
G03*
X125509619Y-104435721I-384537J4507385D01*
G01*
X125347526Y-120586374D02*
G75*
G03*
X126847517Y-122086374I1499974J-26D01*
G01*
X167579165Y-90948283D02*
G75*
G03*
X166347073Y-93614254I2268335J-2666017D01*
G01*
X166347073Y-93614254D02*
X166347073Y-104451107D01*
X125509619Y-93716347D02*
X125509619Y-104435720D01*
X112370266Y-65434046D02*
G75*
G03*
X124267371Y-91038050I33499954J-24D01*
G01*
X179370262Y-65434046D02*
G75*
G03*
X112370262Y-65434046I-33500000J0D01*
G01*
X150342194Y-122084556D02*
X164847517Y-122086503D01*
M02*
