%TF.GenerationSoftware,KiCad,Pcbnew,7.0.1*%
%TF.CreationDate,2023-12-14T23:22:24+03:00*%
%TF.ProjectId,_______ _____,21383b3e-3230-44f2-903f-3b3042302e6b,rev?*%
%TF.SameCoordinates,Original*%
%TF.FileFunction,Copper,L4,Inr*%
%TF.FilePolarity,Positive*%
%FSLAX46Y46*%
G04 Gerber Fmt 4.6, Leading zero omitted, Abs format (unit mm)*
G04 Created by KiCad (PCBNEW 7.0.1) date 2023-12-14 23:22:24*
%MOMM*%
%LPD*%
G01*
G04 APERTURE LIST*
%TA.AperFunction,ComponentPad*%
%ADD10C,8.200000*%
%TD*%
%TA.AperFunction,ComponentPad*%
%ADD11C,6.000000*%
%TD*%
%TA.AperFunction,ComponentPad*%
%ADD12R,1.700000X1.700000*%
%TD*%
%TA.AperFunction,ComponentPad*%
%ADD13O,1.700000X1.700000*%
%TD*%
%TA.AperFunction,ComponentPad*%
%ADD14C,2.000000*%
%TD*%
%TA.AperFunction,ComponentPad*%
%ADD15C,5.000000*%
%TD*%
%TA.AperFunction,ViaPad*%
%ADD16C,0.800000*%
%TD*%
%TA.AperFunction,Conductor*%
%ADD17C,0.250000*%
%TD*%
%TA.AperFunction,Profile*%
%ADD18C,0.200000*%
%TD*%
G04 APERTURE END LIST*
D10*
%TO.N,C*%
%TO.C,J7*%
X123562000Y-52583000D03*
%TD*%
%TO.N,A*%
%TO.C,J5*%
X168012000Y-52583000D03*
%TD*%
D11*
%TO.N,Shunt_1*%
%TO.C,J3*%
X140707000Y-112543000D03*
%TD*%
D12*
%TO.N,+3.3V*%
%TO.C,J4*%
X147057000Y-62743000D03*
D13*
%TO.N,~{OS}_MCU*%
X144517000Y-62743000D03*
%TO.N,G3*%
X147057000Y-65283000D03*
%TO.N,SCL_MCU*%
X144517000Y-65283000D03*
%TO.N,B*%
X147057000Y-67823000D03*
%TO.N,SDA_MCU*%
X144517000Y-67823000D03*
%TO.N,G2*%
X147057000Y-70363000D03*
%TO.N,G4*%
X144517000Y-70363000D03*
%TO.N,GND*%
X147057000Y-72903000D03*
X144517000Y-72903000D03*
%TO.N,G1*%
X147057000Y-75443000D03*
%TO.N,G6*%
X144517000Y-75443000D03*
%TO.N,A*%
X147057000Y-77983000D03*
%TO.N,C*%
X144517000Y-77983000D03*
%TO.N,GND*%
X147057000Y-80523000D03*
%TO.N,G5*%
X144517000Y-80523000D03*
%TO.N,Shunt_1*%
X147057000Y-83063000D03*
%TO.N,GND*%
X144517000Y-83063000D03*
%TO.N,Shunt_1*%
X147057000Y-85603000D03*
%TO.N,Shunt_2*%
X144517000Y-85603000D03*
%TD*%
D10*
%TO.N,B*%
%TO.C,J6*%
X145787000Y-37978000D03*
%TD*%
D14*
%TO.N,Earth_Protective*%
%TO.C,C7*%
X157217000Y-117998000D03*
%TO.N,Net-(J2-Pin_1)*%
X157217000Y-110498000D03*
%TD*%
D11*
%TO.N,Net-(J2-Pin_1)*%
%TO.C,J2*%
X150867000Y-112543000D03*
%TD*%
D15*
%TO.N,Earth_Protective*%
%TO.C,H3*%
X128642000Y-119258000D03*
%TD*%
D14*
%TO.N,Shunt_1*%
%TO.C,C8*%
X134357000Y-110498000D03*
%TO.N,Earth_Protective*%
X134357000Y-117998000D03*
%TD*%
D15*
%TO.N,Earth_Protective*%
%TO.C,H4*%
X163567000Y-119258000D03*
%TD*%
D16*
%TO.N,G1*%
X155312000Y-71633000D03*
%TO.N,A*%
X173092000Y-64013000D03*
X155312000Y-74173000D03*
X166742000Y-60203000D03*
X169917000Y-61473000D03*
X155312000Y-75443000D03*
X169917000Y-65283000D03*
X155312000Y-76713000D03*
X169917000Y-60203000D03*
X166742000Y-65283000D03*
X169917000Y-64013000D03*
X166742000Y-62743000D03*
X169917000Y-62743000D03*
X166742000Y-66553000D03*
X173092000Y-58933000D03*
X166742000Y-58933000D03*
X173092000Y-62743000D03*
X173092000Y-61473000D03*
X155312000Y-72903000D03*
X155312000Y-80523000D03*
X173092000Y-65283000D03*
X155312000Y-79253000D03*
X173092000Y-66553000D03*
X173092000Y-60203000D03*
X155312000Y-77983000D03*
X166742000Y-64013000D03*
X166742000Y-61473000D03*
%TO.N,G2*%
X159122000Y-58298000D03*
%TO.N,GND*%
X141342000Y-56393000D03*
X159122000Y-90048000D03*
X159122000Y-67188000D03*
X159122000Y-59568000D03*
X160392000Y-87508000D03*
X173346000Y-77348000D03*
X131817000Y-60838000D03*
X159122000Y-64648000D03*
X155947000Y-86238000D03*
X131817000Y-59568000D03*
X161027000Y-88778000D03*
X157217000Y-86238000D03*
X161027000Y-86238000D03*
X120768000Y-69728000D03*
X159757000Y-88778000D03*
X142612000Y-56393000D03*
X120514000Y-75824000D03*
X144390000Y-51647500D03*
X161027000Y-92588000D03*
X136262000Y-103383000D03*
X161662000Y-87508000D03*
X154677000Y-86238000D03*
X159757000Y-91318000D03*
X131817000Y-63378000D03*
X174362000Y-69474000D03*
X162297000Y-86238000D03*
X159122000Y-63378000D03*
X136262000Y-93565500D03*
X131817000Y-62108000D03*
X131817000Y-64648000D03*
X138802000Y-56393000D03*
X140122800Y-93553200D03*
X131817000Y-58298000D03*
X137532000Y-56393000D03*
X140072000Y-103383000D03*
X158487000Y-86238000D03*
X159122000Y-60838000D03*
X140072000Y-56393000D03*
X159757000Y-92588000D03*
X161027000Y-91318000D03*
X131817000Y-65918000D03*
X134992000Y-56393000D03*
X159757000Y-86238000D03*
X159122000Y-65918000D03*
X160392000Y-90048000D03*
X159122000Y-62108000D03*
X136262000Y-56393000D03*
%TO.N,G3*%
X148835000Y-57028000D03*
%TO.N,B*%
X134992000Y-46233000D03*
X140072000Y-49408000D03*
X138802000Y-46233000D03*
X137532000Y-43058000D03*
X136262000Y-43058000D03*
X133722000Y-49408000D03*
X133722000Y-43058000D03*
X136262000Y-46233000D03*
X140072000Y-43058000D03*
X154042000Y-57028000D03*
X136262000Y-49408000D03*
X150232000Y-57028000D03*
X151502000Y-57028000D03*
X140072000Y-46233000D03*
X138802000Y-43058000D03*
X157852000Y-57028000D03*
X134992000Y-49408000D03*
X137532000Y-49408000D03*
X138802000Y-49408000D03*
X155312000Y-57028000D03*
X134992000Y-43058000D03*
X137532000Y-46233000D03*
X141342000Y-49408000D03*
X156582000Y-57028000D03*
X141342000Y-43058000D03*
X152772000Y-57028000D03*
%TO.N,G4*%
X133722000Y-56393000D03*
%TO.N,G5*%
X136262000Y-80523000D03*
%TO.N,C*%
X136262000Y-76713000D03*
X124832000Y-64013000D03*
X136262000Y-79253000D03*
X124832000Y-62743000D03*
X124832000Y-61473000D03*
X121657000Y-64013000D03*
X121657000Y-61473000D03*
X118482000Y-62743000D03*
X118482000Y-61473000D03*
X136262000Y-74173000D03*
X118482000Y-65283000D03*
X124832000Y-58933000D03*
X118482000Y-58933000D03*
X118482000Y-60203000D03*
X124832000Y-60203000D03*
X124832000Y-65283000D03*
X121657000Y-62743000D03*
X136262000Y-71633000D03*
X121657000Y-65283000D03*
X118482000Y-66553000D03*
X124832000Y-66553000D03*
X121657000Y-60203000D03*
X136262000Y-72903000D03*
X136262000Y-75443000D03*
X136262000Y-77983000D03*
X118482000Y-64013000D03*
%TO.N,G6*%
X131817000Y-67188000D03*
%TO.N,Shunt_1*%
X131182000Y-91953000D03*
X140072000Y-99573000D03*
X162297000Y-100843000D03*
X140072000Y-98303000D03*
X131182000Y-89413000D03*
X143882000Y-91953000D03*
X136262000Y-99573000D03*
X131182000Y-90683000D03*
X143882000Y-98303000D03*
X140707000Y-80802500D03*
X131182000Y-93223000D03*
X150867000Y-80523000D03*
X143882000Y-99573000D03*
X133087000Y-85603000D03*
X136262000Y-98303000D03*
X129277000Y-85603000D03*
%TO.N,Shunt_2*%
X141342000Y-71633000D03*
X150486000Y-63378000D03*
X153788000Y-46233000D03*
X122927000Y-79888000D03*
X165472000Y-76078000D03*
X149978000Y-49408000D03*
X122927000Y-73538000D03*
X168647000Y-72268000D03*
X156328000Y-46233000D03*
X155058000Y-49408000D03*
X162297000Y-72268000D03*
X140072000Y-70363000D03*
X153788000Y-43058000D03*
X126102000Y-76078000D03*
X165472000Y-78618000D03*
X150867000Y-62108000D03*
X151502000Y-60838000D03*
X122927000Y-72268000D03*
X168647000Y-73538000D03*
X129277000Y-72268000D03*
X140072000Y-59568000D03*
X126102000Y-73538000D03*
X162297000Y-78618000D03*
X168647000Y-78618000D03*
X122927000Y-77348000D03*
X152518000Y-49408000D03*
X129277000Y-79888000D03*
X165472000Y-77348000D03*
X151248000Y-46233000D03*
X129277000Y-76078000D03*
X156328000Y-49408000D03*
X126102000Y-78618000D03*
X151248000Y-43058000D03*
X152518000Y-46233000D03*
X156328000Y-43058000D03*
X168647000Y-77348000D03*
X162297000Y-73538000D03*
X149978000Y-43058000D03*
X122927000Y-78618000D03*
X151502000Y-63378000D03*
X126102000Y-77348000D03*
X129277000Y-77348000D03*
X162297000Y-76078000D03*
X157598000Y-49408000D03*
X155058000Y-46233000D03*
X140072000Y-65283000D03*
X152137000Y-62108000D03*
X150486000Y-60838000D03*
X140707000Y-60838000D03*
X162297000Y-79888000D03*
X151248000Y-49408000D03*
X152137000Y-59568000D03*
X141342000Y-59568000D03*
X122927000Y-76078000D03*
X150994000Y-59568000D03*
X157598000Y-43058000D03*
X168647000Y-79888000D03*
X162297000Y-74808000D03*
X129277000Y-73538000D03*
X155058000Y-43058000D03*
X129277000Y-78618000D03*
X126102000Y-74808000D03*
X165472000Y-74808000D03*
X162297000Y-77348000D03*
X165472000Y-73538000D03*
X152518000Y-43058000D03*
X122927000Y-74808000D03*
X141977000Y-60838000D03*
X141342000Y-66553000D03*
X168647000Y-74808000D03*
X168647000Y-76078000D03*
X129277000Y-74808000D03*
X153788000Y-49408000D03*
%TO.N,+3.3V*%
X117212000Y-69728000D03*
X147184000Y-55965500D03*
X170803816Y-69475092D03*
X144644000Y-60410500D03*
%TO.N,~{OS}_MCU*%
X145152000Y-54441500D03*
X173600000Y-74300000D03*
X119752000Y-74300000D03*
%TO.N,SCL_MCU*%
X172579701Y-74295701D03*
X146168000Y-54441500D03*
X118736000Y-74300000D03*
%TO.N,SDA_MCU*%
X118727048Y-73275049D03*
X171568000Y-74300000D03*
X147184000Y-54441500D03*
%TD*%
D17*
%TO.N,~{OS}_MCU*%
X173600000Y-74290695D02*
X168783305Y-69474000D01*
X144126695Y-62743000D02*
X144517000Y-62743000D01*
X147543701Y-64108000D02*
X145882000Y-64108000D01*
X119752000Y-74300000D02*
X124324000Y-69728000D01*
X152909701Y-69474000D02*
X147543701Y-64108000D01*
X168783305Y-69474000D02*
X152909701Y-69474000D01*
X124324000Y-69728000D02*
X137141695Y-69728000D01*
X173600000Y-74300000D02*
X173600000Y-74290695D01*
X137141695Y-69728000D02*
X144126695Y-62743000D01*
X145882000Y-64108000D02*
X144517000Y-62743000D01*
%TO.N,SCL_MCU*%
X150994000Y-69982000D02*
X147470000Y-66458000D01*
X145692000Y-66458000D02*
X144517000Y-65283000D01*
X172579701Y-74295701D02*
X172579701Y-74286396D01*
X168275305Y-69982000D02*
X150994000Y-69982000D01*
X147470000Y-66458000D02*
X145692000Y-66458000D01*
X172579701Y-74286396D02*
X168275305Y-69982000D01*
%TO.N,SDA_MCU*%
X167894305Y-70490000D02*
X150865604Y-70490000D01*
X150865604Y-70490000D02*
X149373604Y-68998000D01*
X145692000Y-68998000D02*
X144517000Y-67823000D01*
X171568000Y-74163695D02*
X167894305Y-70490000D01*
X149373604Y-68998000D02*
X145692000Y-68998000D01*
X171568000Y-74300000D02*
X171568000Y-74163695D01*
%TD*%
%TA.AperFunction,Conductor*%
%TO.N,Shunt_2*%
G36*
X150208622Y-35244714D02*
G01*
X150212958Y-35245337D01*
X151283376Y-35418794D01*
X151287706Y-35419575D01*
X152351253Y-35631128D01*
X152355520Y-35632056D01*
X153410840Y-35881435D01*
X153415077Y-35882516D01*
X153944260Y-36027690D01*
X153997991Y-36058461D01*
X154030145Y-36111377D01*
X154032704Y-36173243D01*
X153943319Y-36590558D01*
X153892824Y-37019337D01*
X153882704Y-37450971D01*
X153913043Y-37881638D01*
X153983584Y-38307594D01*
X154093694Y-38725053D01*
X154168696Y-38929461D01*
X154242419Y-39130381D01*
X154330821Y-39315533D01*
X154428443Y-39519997D01*
X154650134Y-39890482D01*
X154905542Y-40238576D01*
X155192423Y-40561224D01*
X155508263Y-40855596D01*
X155800372Y-41080647D01*
X155850274Y-41119093D01*
X156215459Y-41349408D01*
X156600606Y-41544514D01*
X157002331Y-41702697D01*
X157417103Y-41822567D01*
X157841278Y-41903071D01*
X158171195Y-41934101D01*
X158271125Y-41943500D01*
X158271127Y-41943500D01*
X158594871Y-41943500D01*
X158594877Y-41943500D01*
X158918272Y-41928325D01*
X159345753Y-41867792D01*
X159765688Y-41767495D01*
X160174386Y-41628316D01*
X160568255Y-41451477D01*
X160748278Y-41349408D01*
X160943835Y-41238532D01*
X161169943Y-41080647D01*
X161297822Y-40991353D01*
X161627108Y-40712113D01*
X161928799Y-40403265D01*
X162200244Y-40067523D01*
X162314374Y-39895624D01*
X162362614Y-39853110D01*
X162425665Y-39840473D01*
X162486566Y-39861112D01*
X163051480Y-40238576D01*
X163262966Y-40379886D01*
X163266595Y-40382405D01*
X164010070Y-40918526D01*
X164146149Y-41016653D01*
X164149692Y-41019306D01*
X165006023Y-41684524D01*
X165009441Y-41687279D01*
X165831498Y-42374293D01*
X165841481Y-42382636D01*
X165844791Y-42385503D01*
X166651554Y-43110179D01*
X166654767Y-43113172D01*
X167435097Y-43866130D01*
X167438177Y-43869210D01*
X168094760Y-44549661D01*
X168191135Y-44649540D01*
X168194130Y-44652755D01*
X168918800Y-45459512D01*
X168921668Y-45462823D01*
X169565325Y-46233000D01*
X169617017Y-46294852D01*
X169619788Y-46298291D01*
X169855161Y-46601284D01*
X170285001Y-47154615D01*
X170287654Y-47158158D01*
X170921897Y-48037705D01*
X170924421Y-48041341D01*
X171526847Y-48942935D01*
X171529240Y-48946659D01*
X171697931Y-49219744D01*
X172061073Y-49807618D01*
X172099100Y-49869177D01*
X172101359Y-49872984D01*
X172637928Y-50815254D01*
X172640050Y-50819139D01*
X173142668Y-51779999D01*
X173144649Y-51783958D01*
X173612623Y-52762090D01*
X173614462Y-52766116D01*
X174047243Y-53760366D01*
X174048937Y-53764456D01*
X174445947Y-54773497D01*
X174447494Y-54777644D01*
X174808240Y-55800225D01*
X174809638Y-55804425D01*
X175133656Y-56839232D01*
X175134903Y-56843479D01*
X175421784Y-57889204D01*
X175422878Y-57893493D01*
X175672244Y-58948758D01*
X175673185Y-58953084D01*
X175884729Y-60016588D01*
X175885515Y-60020944D01*
X176058967Y-61091330D01*
X176059597Y-61095712D01*
X176194733Y-62171606D01*
X176195206Y-62176007D01*
X176266506Y-62972757D01*
X176267000Y-62983809D01*
X176267000Y-67880872D01*
X176266536Y-67891595D01*
X176205480Y-68595026D01*
X176205034Y-68599297D01*
X176077841Y-69643480D01*
X176077248Y-69647733D01*
X175913974Y-70686905D01*
X175913234Y-70691135D01*
X175714076Y-71724034D01*
X175713190Y-71728235D01*
X175478395Y-72753580D01*
X175477365Y-72757749D01*
X175207190Y-73774416D01*
X175206015Y-73778546D01*
X174900811Y-74785213D01*
X174899494Y-74789301D01*
X174559613Y-75784806D01*
X174558156Y-75788845D01*
X174263219Y-76563849D01*
X174213162Y-76695382D01*
X174176766Y-76746443D01*
X174120043Y-76773169D01*
X174057496Y-76768726D01*
X174005120Y-76734251D01*
X173996340Y-76724500D01*
X173951871Y-76675112D01*
X173951867Y-76675109D01*
X173798730Y-76563848D01*
X173625802Y-76486855D01*
X173440648Y-76447500D01*
X173440646Y-76447500D01*
X173251354Y-76447500D01*
X173251352Y-76447500D01*
X173066197Y-76486855D01*
X172893269Y-76563848D01*
X172740129Y-76675110D01*
X172613466Y-76815783D01*
X172518820Y-76979715D01*
X172460326Y-77159742D01*
X172440540Y-77348000D01*
X172460326Y-77536257D01*
X172518820Y-77716284D01*
X172613466Y-77880216D01*
X172740129Y-78020889D01*
X172893269Y-78132151D01*
X173066197Y-78209144D01*
X173251352Y-78248500D01*
X173348198Y-78248500D01*
X173407747Y-78263735D01*
X173452664Y-78305696D01*
X173471911Y-78364072D01*
X173460759Y-78424519D01*
X173331443Y-78704338D01*
X173329574Y-78708204D01*
X172855478Y-79647249D01*
X172853477Y-79651048D01*
X172347156Y-80573108D01*
X172345024Y-80576836D01*
X171807103Y-81480771D01*
X171804844Y-81484423D01*
X171235910Y-82369248D01*
X171233525Y-82372819D01*
X170634322Y-83237373D01*
X170631815Y-83240860D01*
X170328149Y-83648122D01*
X170284351Y-83684831D01*
X170228741Y-83698000D01*
X152896000Y-83698000D01*
X152834000Y-83681387D01*
X152788613Y-83636000D01*
X152772000Y-83574000D01*
X152772000Y-72903000D01*
X148526284Y-72903000D01*
X148467434Y-72888145D01*
X148422684Y-72847139D01*
X148402756Y-72789807D01*
X148392063Y-72667592D01*
X148356459Y-72534715D01*
X148330903Y-72439337D01*
X148231035Y-72225171D01*
X148095495Y-72031599D01*
X147928401Y-71864505D01*
X147742839Y-71734573D01*
X147703976Y-71690257D01*
X147689965Y-71633000D01*
X147703976Y-71575743D01*
X147742839Y-71531426D01*
X147928401Y-71401495D01*
X148095495Y-71234401D01*
X148231035Y-71040830D01*
X148330903Y-70826663D01*
X148392063Y-70598408D01*
X148412659Y-70363000D01*
X148392063Y-70127592D01*
X148330903Y-69899337D01*
X148284537Y-69799905D01*
X148273184Y-69739390D01*
X148292338Y-69680875D01*
X148337276Y-69638786D01*
X148396919Y-69623500D01*
X149063152Y-69623500D01*
X149110605Y-69632939D01*
X149150833Y-69659819D01*
X150364801Y-70873787D01*
X150377702Y-70889889D01*
X150379816Y-70891874D01*
X150379818Y-70891877D01*
X150427165Y-70936339D01*
X150428844Y-70937916D01*
X150431639Y-70940625D01*
X150451134Y-70960120D01*
X150454308Y-70962582D01*
X150463172Y-70970153D01*
X150495022Y-71000062D01*
X150505518Y-71005832D01*
X150512578Y-71009714D01*
X150528835Y-71020392D01*
X150544668Y-71032674D01*
X150560789Y-71039649D01*
X150584760Y-71050023D01*
X150595247Y-71055160D01*
X150633512Y-71076197D01*
X150652920Y-71081180D01*
X150671314Y-71087478D01*
X150689709Y-71095438D01*
X150732858Y-71102271D01*
X150744284Y-71104638D01*
X150759826Y-71108629D01*
X150786584Y-71115500D01*
X150786585Y-71115500D01*
X150806620Y-71115500D01*
X150826017Y-71117026D01*
X150845800Y-71120160D01*
X150889278Y-71116050D01*
X150900948Y-71115500D01*
X154362633Y-71115500D01*
X154418928Y-71129015D01*
X154462951Y-71166615D01*
X154485106Y-71220102D01*
X154480564Y-71277818D01*
X154426326Y-71444742D01*
X154406540Y-71632999D01*
X154426326Y-71821257D01*
X154484820Y-72001284D01*
X154579466Y-72165216D01*
X154597305Y-72185028D01*
X154625472Y-72238002D01*
X154625472Y-72297998D01*
X154597305Y-72350972D01*
X154579466Y-72370783D01*
X154484820Y-72534715D01*
X154426326Y-72714742D01*
X154406540Y-72903000D01*
X154426326Y-73091257D01*
X154484820Y-73271284D01*
X154579466Y-73435216D01*
X154597305Y-73455028D01*
X154625472Y-73508002D01*
X154625472Y-73567998D01*
X154597305Y-73620972D01*
X154579466Y-73640783D01*
X154484820Y-73804715D01*
X154426326Y-73984742D01*
X154406540Y-74173000D01*
X154426326Y-74361257D01*
X154484820Y-74541284D01*
X154579466Y-74705216D01*
X154597305Y-74725028D01*
X154625472Y-74778002D01*
X154625472Y-74837998D01*
X154597305Y-74890972D01*
X154579466Y-74910783D01*
X154484820Y-75074715D01*
X154426326Y-75254742D01*
X154406540Y-75443000D01*
X154426326Y-75631257D01*
X154484820Y-75811284D01*
X154579466Y-75975215D01*
X154597304Y-75995026D01*
X154625471Y-76047999D01*
X154625472Y-76107995D01*
X154597307Y-76160969D01*
X154579466Y-76180783D01*
X154484820Y-76344715D01*
X154426326Y-76524742D01*
X154406540Y-76712999D01*
X154426326Y-76901257D01*
X154484820Y-77081284D01*
X154579466Y-77245216D01*
X154597305Y-77265028D01*
X154625472Y-77318002D01*
X154625472Y-77377998D01*
X154597305Y-77430972D01*
X154579466Y-77450783D01*
X154484820Y-77614715D01*
X154426326Y-77794742D01*
X154406540Y-77983000D01*
X154426326Y-78171257D01*
X154484820Y-78351284D01*
X154579466Y-78515215D01*
X154597304Y-78535026D01*
X154625471Y-78587999D01*
X154625472Y-78647995D01*
X154597307Y-78700969D01*
X154579466Y-78720783D01*
X154484820Y-78884715D01*
X154426326Y-79064742D01*
X154406540Y-79252999D01*
X154426326Y-79441257D01*
X154484820Y-79621284D01*
X154579466Y-79785216D01*
X154597305Y-79805028D01*
X154625472Y-79858002D01*
X154625472Y-79917998D01*
X154597305Y-79970972D01*
X154579466Y-79990783D01*
X154484820Y-80154715D01*
X154426326Y-80334742D01*
X154406540Y-80522999D01*
X154426326Y-80711257D01*
X154484820Y-80891284D01*
X154579466Y-81055216D01*
X154706129Y-81195889D01*
X154859269Y-81307151D01*
X155032197Y-81384144D01*
X155217352Y-81423500D01*
X155217354Y-81423500D01*
X155406646Y-81423500D01*
X155406648Y-81423500D01*
X155530083Y-81397262D01*
X155591803Y-81384144D01*
X155764730Y-81307151D01*
X155917871Y-81195888D01*
X156044533Y-81055216D01*
X156139179Y-80891284D01*
X156197674Y-80711256D01*
X156217460Y-80523000D01*
X156197674Y-80334744D01*
X156139179Y-80154716D01*
X156139179Y-80154715D01*
X156044535Y-79990787D01*
X156044534Y-79990786D01*
X156044533Y-79990784D01*
X156026693Y-79970971D01*
X155998527Y-79917999D01*
X155998527Y-79858001D01*
X156026693Y-79805028D01*
X156044533Y-79785216D01*
X156139179Y-79621284D01*
X156197674Y-79441256D01*
X156217460Y-79253000D01*
X156197674Y-79064744D01*
X156139179Y-78884716D01*
X156139179Y-78884715D01*
X156044533Y-78720783D01*
X156026694Y-78700971D01*
X155998527Y-78647997D01*
X155998528Y-78588000D01*
X156026694Y-78535027D01*
X156044533Y-78515216D01*
X156139179Y-78351284D01*
X156197674Y-78171256D01*
X156217460Y-77983000D01*
X156197674Y-77794744D01*
X156139179Y-77614716D01*
X156139179Y-77614715D01*
X156044535Y-77450787D01*
X156044534Y-77450786D01*
X156044533Y-77450784D01*
X156026693Y-77430971D01*
X155998527Y-77377999D01*
X155998527Y-77318001D01*
X156026693Y-77265028D01*
X156044533Y-77245216D01*
X156139179Y-77081284D01*
X156197674Y-76901256D01*
X156217460Y-76713000D01*
X156197674Y-76524744D01*
X156139179Y-76344716D01*
X156139179Y-76344715D01*
X156044533Y-76180783D01*
X156026694Y-76160971D01*
X155998527Y-76107997D01*
X155998528Y-76048000D01*
X156026694Y-75995027D01*
X156044533Y-75975216D01*
X156139179Y-75811284D01*
X156197674Y-75631256D01*
X156217460Y-75443000D01*
X156197674Y-75254744D01*
X156167261Y-75161144D01*
X156139179Y-75074715D01*
X156044535Y-74910787D01*
X156044534Y-74910786D01*
X156044533Y-74910784D01*
X156026693Y-74890971D01*
X155998527Y-74837999D01*
X155998527Y-74778001D01*
X156026693Y-74725028D01*
X156044533Y-74705216D01*
X156139179Y-74541284D01*
X156197674Y-74361256D01*
X156217460Y-74173000D01*
X156197674Y-73984744D01*
X156139179Y-73804716D01*
X156139179Y-73804715D01*
X156044535Y-73640787D01*
X156044534Y-73640786D01*
X156044533Y-73640784D01*
X156026693Y-73620971D01*
X155998527Y-73567999D01*
X155998527Y-73508001D01*
X156026693Y-73455028D01*
X156044533Y-73435216D01*
X156139179Y-73271284D01*
X156197674Y-73091256D01*
X156217460Y-72903000D01*
X156197674Y-72714744D01*
X156139179Y-72534716D01*
X156139179Y-72534715D01*
X156044535Y-72370787D01*
X156044534Y-72370786D01*
X156044533Y-72370784D01*
X156026693Y-72350971D01*
X155998527Y-72297999D01*
X155998527Y-72238001D01*
X156026693Y-72185028D01*
X156044533Y-72165216D01*
X156139179Y-72001284D01*
X156197674Y-71821256D01*
X156217460Y-71633000D01*
X156197674Y-71444744D01*
X156143435Y-71277817D01*
X156138894Y-71220102D01*
X156161049Y-71166615D01*
X156205072Y-71129015D01*
X156261367Y-71115500D01*
X167583853Y-71115500D01*
X167631306Y-71124939D01*
X167671534Y-71151819D01*
X170635666Y-74115952D01*
X170664872Y-74162241D01*
X170671306Y-74216594D01*
X170662540Y-74299999D01*
X170682326Y-74488257D01*
X170740820Y-74668284D01*
X170835466Y-74832216D01*
X170962129Y-74972889D01*
X171115269Y-75084151D01*
X171288197Y-75161144D01*
X171473352Y-75200500D01*
X171473354Y-75200500D01*
X171662646Y-75200500D01*
X171662648Y-75200500D01*
X171786083Y-75174262D01*
X171847803Y-75161144D01*
X172020730Y-75084151D01*
X172020731Y-75084149D01*
X172028242Y-75080806D01*
X172078678Y-75070085D01*
X172129114Y-75080806D01*
X172299898Y-75156845D01*
X172485053Y-75196201D01*
X172485055Y-75196201D01*
X172674347Y-75196201D01*
X172674349Y-75196201D01*
X172797785Y-75169963D01*
X172859504Y-75156845D01*
X173032431Y-75079852D01*
X173032431Y-75079851D01*
X173034587Y-75078892D01*
X173085023Y-75068171D01*
X173135459Y-75078892D01*
X173147268Y-75084150D01*
X173147270Y-75084151D01*
X173297661Y-75151110D01*
X173320197Y-75161144D01*
X173505352Y-75200500D01*
X173505354Y-75200500D01*
X173694646Y-75200500D01*
X173694648Y-75200500D01*
X173818083Y-75174262D01*
X173879803Y-75161144D01*
X174052730Y-75084151D01*
X174108810Y-75043407D01*
X174205870Y-74972889D01*
X174332533Y-74832216D01*
X174427179Y-74668284D01*
X174468444Y-74541284D01*
X174485674Y-74488256D01*
X174505460Y-74300000D01*
X174485674Y-74111744D01*
X174427179Y-73931716D01*
X174427179Y-73931715D01*
X174332533Y-73767783D01*
X174205870Y-73627110D01*
X174052730Y-73515848D01*
X173879802Y-73438855D01*
X173694648Y-73399500D01*
X173694646Y-73399500D01*
X173644758Y-73399500D01*
X173597305Y-73390061D01*
X173557077Y-73363181D01*
X170781169Y-70587273D01*
X170750919Y-70537910D01*
X170746377Y-70480194D01*
X170768532Y-70426707D01*
X170812555Y-70389107D01*
X170868850Y-70375592D01*
X170898464Y-70375592D01*
X171041813Y-70345122D01*
X171083619Y-70336236D01*
X171256546Y-70259243D01*
X171409687Y-70147980D01*
X171536349Y-70007308D01*
X171630995Y-69843376D01*
X171689490Y-69663348D01*
X171709276Y-69475092D01*
X171709161Y-69474000D01*
X173456540Y-69474000D01*
X173476326Y-69662257D01*
X173534820Y-69842284D01*
X173629466Y-70006216D01*
X173756129Y-70146889D01*
X173909269Y-70258151D01*
X174082197Y-70335144D01*
X174267352Y-70374500D01*
X174267354Y-70374500D01*
X174456646Y-70374500D01*
X174456648Y-70374500D01*
X174607680Y-70342397D01*
X174641803Y-70335144D01*
X174814730Y-70258151D01*
X174967871Y-70146888D01*
X175094533Y-70006216D01*
X175189179Y-69842284D01*
X175247674Y-69662256D01*
X175267460Y-69474000D01*
X175247674Y-69285744D01*
X175203651Y-69150257D01*
X175189179Y-69105715D01*
X175094533Y-68941783D01*
X174967870Y-68801110D01*
X174814730Y-68689848D01*
X174641802Y-68612855D01*
X174456648Y-68573500D01*
X174456646Y-68573500D01*
X174267354Y-68573500D01*
X174267352Y-68573500D01*
X174082197Y-68612855D01*
X173909269Y-68689848D01*
X173756129Y-68801110D01*
X173629466Y-68941783D01*
X173534820Y-69105715D01*
X173476326Y-69285742D01*
X173456540Y-69474000D01*
X171709161Y-69474000D01*
X171689490Y-69286836D01*
X171634416Y-69117336D01*
X171630995Y-69106807D01*
X171536349Y-68942875D01*
X171409686Y-68802202D01*
X171256546Y-68690940D01*
X171083618Y-68613947D01*
X170898464Y-68574592D01*
X170898462Y-68574592D01*
X170709170Y-68574592D01*
X170709168Y-68574592D01*
X170524013Y-68613947D01*
X170351085Y-68690940D01*
X170197945Y-68802202D01*
X170071282Y-68942875D01*
X169976636Y-69106807D01*
X169918142Y-69286834D01*
X169903715Y-69424098D01*
X169877773Y-69487904D01*
X169821786Y-69528024D01*
X169753027Y-69532078D01*
X169692713Y-69498817D01*
X169284107Y-69090211D01*
X169271211Y-69074113D01*
X169220080Y-69026098D01*
X169217283Y-69023387D01*
X169197775Y-69003879D01*
X169194595Y-69001412D01*
X169185729Y-68993839D01*
X169153887Y-68963938D01*
X169136329Y-68954285D01*
X169120069Y-68943604D01*
X169104241Y-68931327D01*
X169064156Y-68913980D01*
X169053666Y-68908841D01*
X169015396Y-68887802D01*
X168995996Y-68882821D01*
X168977589Y-68876519D01*
X168959202Y-68868562D01*
X168916063Y-68861729D01*
X168904629Y-68859361D01*
X168862324Y-68848500D01*
X168842289Y-68848500D01*
X168822891Y-68846973D01*
X168815467Y-68845797D01*
X168803110Y-68843840D01*
X168803109Y-68843840D01*
X168770056Y-68846964D01*
X168759630Y-68847950D01*
X168747961Y-68848500D01*
X153220153Y-68848500D01*
X153172700Y-68839061D01*
X153132472Y-68812181D01*
X148343216Y-64022924D01*
X148312785Y-63972998D01*
X148308614Y-63914678D01*
X148331632Y-63860930D01*
X148350796Y-63835331D01*
X148401091Y-63700483D01*
X148407500Y-63640873D01*
X148407499Y-61845128D01*
X148401091Y-61785517D01*
X148350796Y-61650669D01*
X148264546Y-61535454D01*
X148149331Y-61449204D01*
X148014483Y-61398909D01*
X147954873Y-61392500D01*
X147954869Y-61392500D01*
X146159130Y-61392500D01*
X146099515Y-61398909D01*
X145964669Y-61449204D01*
X145849454Y-61535454D01*
X145763204Y-61650669D01*
X145714189Y-61782083D01*
X145679209Y-61832462D01*
X145624365Y-61859915D01*
X145563072Y-61857726D01*
X145510326Y-61826430D01*
X145388404Y-61704508D01*
X145388404Y-61704507D01*
X145388401Y-61704505D01*
X145194830Y-61568965D01*
X144982874Y-61470128D01*
X144938641Y-61435445D01*
X144914265Y-61384796D01*
X144914756Y-61328588D01*
X144940012Y-61278372D01*
X144984842Y-61244467D01*
X145096730Y-61194651D01*
X145096730Y-61194650D01*
X145096732Y-61194650D01*
X145249870Y-61083389D01*
X145376533Y-60942716D01*
X145471179Y-60778784D01*
X145485335Y-60735216D01*
X145529674Y-60598756D01*
X145549460Y-60410500D01*
X145529674Y-60222244D01*
X145496461Y-60120024D01*
X145471179Y-60042215D01*
X145376533Y-59878283D01*
X145249870Y-59737610D01*
X145096730Y-59626348D01*
X144923802Y-59549355D01*
X144738648Y-59510000D01*
X144738646Y-59510000D01*
X144549354Y-59510000D01*
X144549352Y-59510000D01*
X144364197Y-59549355D01*
X144191269Y-59626348D01*
X144038129Y-59737610D01*
X143911466Y-59878283D01*
X143816820Y-60042215D01*
X143758326Y-60222242D01*
X143738540Y-60410499D01*
X143758326Y-60598757D01*
X143816820Y-60778784D01*
X143911466Y-60942716D01*
X144038129Y-61083389D01*
X144191267Y-61194650D01*
X144204375Y-61200486D01*
X144251919Y-61237765D01*
X144276203Y-61293086D01*
X144271463Y-61353317D01*
X144238824Y-61404158D01*
X144186034Y-61433541D01*
X144053335Y-61469097D01*
X143839170Y-61568965D01*
X143645598Y-61704505D01*
X143478505Y-61871598D01*
X143342965Y-62065170D01*
X143243097Y-62279336D01*
X143181936Y-62507592D01*
X143161340Y-62743001D01*
X143162798Y-62759665D01*
X143155792Y-62812882D01*
X143126951Y-62858152D01*
X136918923Y-69066181D01*
X136878695Y-69093061D01*
X136831242Y-69102500D01*
X124406740Y-69102500D01*
X124386236Y-69100236D01*
X124316144Y-69102439D01*
X124312250Y-69102500D01*
X124284648Y-69102500D01*
X124280653Y-69103004D01*
X124269029Y-69103918D01*
X124225368Y-69105290D01*
X124206129Y-69110880D01*
X124187080Y-69114825D01*
X124167208Y-69117335D01*
X124126593Y-69133415D01*
X124115549Y-69137196D01*
X124073611Y-69149382D01*
X124056364Y-69159581D01*
X124038900Y-69168136D01*
X124020267Y-69175514D01*
X123984926Y-69201189D01*
X123975168Y-69207599D01*
X123937579Y-69229829D01*
X123923410Y-69243998D01*
X123908622Y-69256628D01*
X123892413Y-69268405D01*
X123864572Y-69302058D01*
X123856711Y-69310696D01*
X119841049Y-73326359D01*
X119780734Y-73359620D01*
X119711976Y-73355566D01*
X119655989Y-73315446D01*
X119630047Y-73251640D01*
X119612722Y-73086793D01*
X119554227Y-72906765D01*
X119554227Y-72906764D01*
X119459581Y-72742832D01*
X119332918Y-72602159D01*
X119179778Y-72490897D01*
X119006850Y-72413904D01*
X118821696Y-72374549D01*
X118821694Y-72374549D01*
X118632402Y-72374549D01*
X118632400Y-72374549D01*
X118447245Y-72413904D01*
X118274317Y-72490897D01*
X118121177Y-72602159D01*
X117994514Y-72742832D01*
X117899868Y-72906764D01*
X117841374Y-73086791D01*
X117821588Y-73275049D01*
X117841374Y-73463306D01*
X117899868Y-73643333D01*
X117951797Y-73733276D01*
X117968410Y-73795275D01*
X117951798Y-73857275D01*
X117908820Y-73931716D01*
X117850326Y-74111742D01*
X117830540Y-74299999D01*
X117850326Y-74488257D01*
X117908820Y-74668284D01*
X118003466Y-74832216D01*
X118130129Y-74972889D01*
X118283269Y-75084151D01*
X118456197Y-75161144D01*
X118641352Y-75200500D01*
X118641354Y-75200500D01*
X118830646Y-75200500D01*
X118830648Y-75200500D01*
X118954083Y-75174262D01*
X119015803Y-75161144D01*
X119127755Y-75111298D01*
X119193564Y-75081999D01*
X119244000Y-75071278D01*
X119294436Y-75081999D01*
X119472197Y-75161144D01*
X119647901Y-75198491D01*
X119700155Y-75223415D01*
X119735400Y-75269345D01*
X119745950Y-75326271D01*
X119729507Y-75381781D01*
X119686820Y-75455715D01*
X119628326Y-75635742D01*
X119608540Y-75824000D01*
X119628326Y-76012257D01*
X119686820Y-76192284D01*
X119781466Y-76356216D01*
X119908129Y-76496889D01*
X120061269Y-76608151D01*
X120234197Y-76685144D01*
X120419352Y-76724500D01*
X120419354Y-76724500D01*
X120608646Y-76724500D01*
X120608648Y-76724500D01*
X120732083Y-76698262D01*
X120793803Y-76685144D01*
X120966730Y-76608151D01*
X121027708Y-76563848D01*
X121119870Y-76496889D01*
X121246533Y-76356216D01*
X121341179Y-76192284D01*
X121351354Y-76160969D01*
X121399674Y-76012256D01*
X121419460Y-75824000D01*
X121399674Y-75635744D01*
X121341179Y-75455716D01*
X121341179Y-75455715D01*
X121246533Y-75291783D01*
X121119870Y-75151110D01*
X120966730Y-75039848D01*
X120793802Y-74962855D01*
X120618099Y-74925508D01*
X120565844Y-74900584D01*
X120530600Y-74854653D01*
X120520050Y-74797728D01*
X120536492Y-74742220D01*
X120579179Y-74668284D01*
X120637674Y-74488256D01*
X120655321Y-74320344D01*
X120666721Y-74279925D01*
X120690958Y-74245630D01*
X124546771Y-70389819D01*
X124587000Y-70362939D01*
X124634453Y-70353500D01*
X137058951Y-70353500D01*
X137079457Y-70355764D01*
X137082360Y-70355672D01*
X137082362Y-70355673D01*
X137149567Y-70353561D01*
X137153463Y-70353500D01*
X137181044Y-70353500D01*
X137181045Y-70353500D01*
X137185014Y-70352998D01*
X137196660Y-70352080D01*
X137240322Y-70350709D01*
X137259554Y-70345120D01*
X137278613Y-70341174D01*
X137284891Y-70340381D01*
X137298487Y-70338664D01*
X137339102Y-70322582D01*
X137350139Y-70318803D01*
X137392085Y-70306618D01*
X137409324Y-70296422D01*
X137426797Y-70287862D01*
X137445427Y-70280486D01*
X137480759Y-70254814D01*
X137490525Y-70248400D01*
X137528113Y-70226171D01*
X137528112Y-70226171D01*
X137528115Y-70226170D01*
X137542280Y-70212004D01*
X137557068Y-70199373D01*
X137573282Y-70187594D01*
X137601133Y-70153926D01*
X137608974Y-70145309D01*
X143028659Y-64725624D01*
X143084244Y-64693532D01*
X143148431Y-64693532D01*
X143204019Y-64725626D01*
X143236113Y-64781213D01*
X143236113Y-64845400D01*
X143181936Y-65047592D01*
X143161340Y-65283000D01*
X143181936Y-65518407D01*
X143226709Y-65685502D01*
X143243097Y-65746663D01*
X143342965Y-65960830D01*
X143478505Y-66154401D01*
X143645599Y-66321495D01*
X143831160Y-66451426D01*
X143870024Y-66495743D01*
X143884035Y-66553000D01*
X143870024Y-66610257D01*
X143831159Y-66654575D01*
X143645595Y-66784508D01*
X143478505Y-66951598D01*
X143342965Y-67145170D01*
X143243097Y-67359336D01*
X143181936Y-67587592D01*
X143161340Y-67822999D01*
X143181936Y-68058407D01*
X143225521Y-68221068D01*
X143243097Y-68286663D01*
X143342965Y-68500830D01*
X143478505Y-68694401D01*
X143645599Y-68861495D01*
X143831160Y-68991426D01*
X143870024Y-69035743D01*
X143884035Y-69093000D01*
X143870024Y-69150257D01*
X143831158Y-69194575D01*
X143651775Y-69320181D01*
X143645595Y-69324508D01*
X143478505Y-69491598D01*
X143342965Y-69685170D01*
X143243097Y-69899336D01*
X143181936Y-70127592D01*
X143161340Y-70363000D01*
X143181936Y-70598407D01*
X143212322Y-70711808D01*
X143243097Y-70826663D01*
X143342965Y-71040830D01*
X143478505Y-71234401D01*
X143645599Y-71401495D01*
X143831160Y-71531426D01*
X143870024Y-71575743D01*
X143884035Y-71633000D01*
X143870024Y-71690257D01*
X143831159Y-71734575D01*
X143645595Y-71864508D01*
X143478505Y-72031598D01*
X143342965Y-72225170D01*
X143243097Y-72439336D01*
X143181936Y-72667592D01*
X143171244Y-72789807D01*
X143151316Y-72847139D01*
X143106566Y-72888145D01*
X143047716Y-72903000D01*
X138802000Y-72903000D01*
X138802000Y-83574000D01*
X138785387Y-83636000D01*
X138740000Y-83681387D01*
X138678000Y-83698000D01*
X121511584Y-83698000D01*
X121456144Y-83684916D01*
X121412404Y-83648426D01*
X121403079Y-83636000D01*
X121162004Y-83314743D01*
X121159474Y-83311248D01*
X120554851Y-82444259D01*
X120552445Y-82440677D01*
X120507402Y-82371045D01*
X119978379Y-81553219D01*
X119976099Y-81549556D01*
X119474314Y-80711257D01*
X119433234Y-80642626D01*
X119431111Y-80638936D01*
X119367084Y-80522999D01*
X135356540Y-80522999D01*
X135376326Y-80711257D01*
X135434820Y-80891284D01*
X135529466Y-81055216D01*
X135656129Y-81195889D01*
X135809269Y-81307151D01*
X135982197Y-81384144D01*
X136167352Y-81423500D01*
X136167354Y-81423500D01*
X136356646Y-81423500D01*
X136356648Y-81423500D01*
X136480083Y-81397262D01*
X136541803Y-81384144D01*
X136714730Y-81307151D01*
X136867871Y-81195888D01*
X136994533Y-81055216D01*
X137089179Y-80891284D01*
X137147674Y-80711256D01*
X137167460Y-80523000D01*
X137147674Y-80334744D01*
X137089179Y-80154716D01*
X137089179Y-80154715D01*
X136994535Y-79990787D01*
X136994534Y-79990786D01*
X136994533Y-79990784D01*
X136976693Y-79970971D01*
X136948527Y-79917999D01*
X136948527Y-79858001D01*
X136976693Y-79805028D01*
X136994533Y-79785216D01*
X137089179Y-79621284D01*
X137147674Y-79441256D01*
X137167460Y-79253000D01*
X137147674Y-79064744D01*
X137089179Y-78884716D01*
X137089179Y-78884715D01*
X136994533Y-78720783D01*
X136976694Y-78700971D01*
X136948527Y-78647997D01*
X136948528Y-78588000D01*
X136976694Y-78535027D01*
X136994533Y-78515216D01*
X137089179Y-78351284D01*
X137147674Y-78171256D01*
X137167460Y-77983000D01*
X137147674Y-77794744D01*
X137089179Y-77614716D01*
X137089179Y-77614715D01*
X136994535Y-77450787D01*
X136994534Y-77450786D01*
X136994533Y-77450784D01*
X136976693Y-77430971D01*
X136948527Y-77377999D01*
X136948527Y-77318001D01*
X136976693Y-77265028D01*
X136994533Y-77245216D01*
X137089179Y-77081284D01*
X137147674Y-76901256D01*
X137167460Y-76713000D01*
X137147674Y-76524744D01*
X137089179Y-76344716D01*
X137089179Y-76344715D01*
X136994533Y-76180783D01*
X136976694Y-76160971D01*
X136948527Y-76107997D01*
X136948528Y-76048000D01*
X136976694Y-75995027D01*
X136994533Y-75975216D01*
X137089179Y-75811284D01*
X137147674Y-75631256D01*
X137167460Y-75443000D01*
X137147674Y-75254744D01*
X137117261Y-75161144D01*
X137089179Y-75074715D01*
X136994535Y-74910787D01*
X136994534Y-74910786D01*
X136994533Y-74910784D01*
X136976693Y-74890971D01*
X136948527Y-74837999D01*
X136948527Y-74778001D01*
X136976693Y-74725028D01*
X136994533Y-74705216D01*
X137089179Y-74541284D01*
X137147674Y-74361256D01*
X137167460Y-74173000D01*
X137147674Y-73984744D01*
X137089179Y-73804716D01*
X137089179Y-73804715D01*
X136994535Y-73640787D01*
X136994534Y-73640786D01*
X136994533Y-73640784D01*
X136976693Y-73620971D01*
X136948527Y-73567999D01*
X136948527Y-73508001D01*
X136976693Y-73455028D01*
X136994533Y-73435216D01*
X137089179Y-73271284D01*
X137147674Y-73091256D01*
X137167460Y-72903000D01*
X137147674Y-72714744D01*
X137089179Y-72534716D01*
X137089179Y-72534715D01*
X136994535Y-72370787D01*
X136994534Y-72370786D01*
X136994533Y-72370784D01*
X136976693Y-72350971D01*
X136948527Y-72297999D01*
X136948527Y-72238001D01*
X136976693Y-72185028D01*
X136994533Y-72165216D01*
X137089179Y-72001284D01*
X137147674Y-71821256D01*
X137167460Y-71633000D01*
X137147674Y-71444744D01*
X137089179Y-71264716D01*
X137089179Y-71264715D01*
X136994533Y-71100783D01*
X136867870Y-70960110D01*
X136714730Y-70848848D01*
X136541802Y-70771855D01*
X136356648Y-70732500D01*
X136356646Y-70732500D01*
X136167354Y-70732500D01*
X136167352Y-70732500D01*
X135982197Y-70771855D01*
X135809269Y-70848848D01*
X135656129Y-70960110D01*
X135529466Y-71100783D01*
X135434820Y-71264715D01*
X135376326Y-71444742D01*
X135356540Y-71632999D01*
X135376326Y-71821257D01*
X135434820Y-72001284D01*
X135529466Y-72165216D01*
X135547305Y-72185028D01*
X135575472Y-72238002D01*
X135575472Y-72297998D01*
X135547305Y-72350972D01*
X135529466Y-72370783D01*
X135434820Y-72534715D01*
X135376326Y-72714742D01*
X135356540Y-72903000D01*
X135376326Y-73091257D01*
X135434820Y-73271284D01*
X135529466Y-73435216D01*
X135547305Y-73455028D01*
X135575472Y-73508002D01*
X135575472Y-73567998D01*
X135547305Y-73620972D01*
X135529466Y-73640783D01*
X135434820Y-73804715D01*
X135376326Y-73984742D01*
X135356540Y-74172999D01*
X135376326Y-74361257D01*
X135434820Y-74541284D01*
X135529466Y-74705216D01*
X135547305Y-74725028D01*
X135575472Y-74778002D01*
X135575472Y-74837998D01*
X135547305Y-74890972D01*
X135529466Y-74910783D01*
X135434820Y-75074715D01*
X135376326Y-75254742D01*
X135356540Y-75443000D01*
X135376326Y-75631257D01*
X135434820Y-75811284D01*
X135529466Y-75975215D01*
X135547304Y-75995026D01*
X135575471Y-76047999D01*
X135575472Y-76107995D01*
X135547307Y-76160969D01*
X135529466Y-76180783D01*
X135434820Y-76344715D01*
X135376326Y-76524742D01*
X135356540Y-76713000D01*
X135376326Y-76901257D01*
X135434820Y-77081284D01*
X135529466Y-77245216D01*
X135547305Y-77265028D01*
X135575472Y-77318002D01*
X135575472Y-77377998D01*
X135547305Y-77430972D01*
X135529466Y-77450783D01*
X135434820Y-77614715D01*
X135376326Y-77794742D01*
X135356540Y-77983000D01*
X135376326Y-78171257D01*
X135434820Y-78351284D01*
X135529466Y-78515215D01*
X135547304Y-78535026D01*
X135575471Y-78587999D01*
X135575472Y-78647995D01*
X135547307Y-78700969D01*
X135529466Y-78720783D01*
X135434820Y-78884715D01*
X135376326Y-79064742D01*
X135356540Y-79252999D01*
X135376326Y-79441257D01*
X135434820Y-79621284D01*
X135529466Y-79785216D01*
X135547305Y-79805028D01*
X135575472Y-79858002D01*
X135575472Y-79917998D01*
X135547305Y-79970972D01*
X135529466Y-79990783D01*
X135434820Y-80154715D01*
X135376326Y-80334742D01*
X135356540Y-80522999D01*
X119367084Y-80522999D01*
X118920126Y-79713666D01*
X118918111Y-79709863D01*
X118439635Y-78767391D01*
X118437755Y-78763522D01*
X118417896Y-78720784D01*
X118075079Y-77982999D01*
X117992369Y-77804996D01*
X117990619Y-77801052D01*
X117578852Y-76827616D01*
X117577240Y-76823614D01*
X117266849Y-76012257D01*
X117199572Y-75836398D01*
X117198105Y-75832351D01*
X117190875Y-75811284D01*
X116855023Y-74832622D01*
X116853694Y-74828517D01*
X116804867Y-74668284D01*
X116545599Y-73817451D01*
X116544421Y-73813327D01*
X116271682Y-72792126D01*
X116270662Y-72788026D01*
X116033602Y-71757891D01*
X116032723Y-71753743D01*
X115831657Y-70716036D01*
X115830914Y-70711808D01*
X115675587Y-69727999D01*
X116306540Y-69727999D01*
X116326326Y-69916257D01*
X116384820Y-70096284D01*
X116479466Y-70260216D01*
X116606129Y-70400889D01*
X116759269Y-70512151D01*
X116932197Y-70589144D01*
X117117352Y-70628500D01*
X117117354Y-70628500D01*
X117306646Y-70628500D01*
X117306648Y-70628500D01*
X117448219Y-70598408D01*
X117491803Y-70589144D01*
X117664730Y-70512151D01*
X117817871Y-70400888D01*
X117944533Y-70260216D01*
X118039179Y-70096284D01*
X118097674Y-69916256D01*
X118117460Y-69728000D01*
X118117460Y-69727999D01*
X119862540Y-69727999D01*
X119882326Y-69916257D01*
X119940820Y-70096284D01*
X120035466Y-70260216D01*
X120162129Y-70400889D01*
X120315269Y-70512151D01*
X120488197Y-70589144D01*
X120673352Y-70628500D01*
X120673354Y-70628500D01*
X120862646Y-70628500D01*
X120862648Y-70628500D01*
X121004219Y-70598408D01*
X121047803Y-70589144D01*
X121220730Y-70512151D01*
X121373871Y-70400888D01*
X121500533Y-70260216D01*
X121595179Y-70096284D01*
X121653674Y-69916256D01*
X121673460Y-69728000D01*
X121653674Y-69539744D01*
X121595179Y-69359716D01*
X121595179Y-69359715D01*
X121500533Y-69195783D01*
X121373870Y-69055110D01*
X121220730Y-68943848D01*
X121047802Y-68866855D01*
X120862648Y-68827500D01*
X120862646Y-68827500D01*
X120673354Y-68827500D01*
X120673352Y-68827500D01*
X120488197Y-68866855D01*
X120315269Y-68943848D01*
X120162129Y-69055110D01*
X120035466Y-69195783D01*
X119940820Y-69359715D01*
X119882326Y-69539742D01*
X119862540Y-69727999D01*
X118117460Y-69727999D01*
X118097674Y-69539744D01*
X118039179Y-69359716D01*
X118039179Y-69359715D01*
X117944533Y-69195783D01*
X117817870Y-69055110D01*
X117664730Y-68943848D01*
X117491802Y-68866855D01*
X117306648Y-68827500D01*
X117306646Y-68827500D01*
X117117354Y-68827500D01*
X117117352Y-68827500D01*
X116932197Y-68866855D01*
X116759269Y-68943848D01*
X116606129Y-69055110D01*
X116479466Y-69195783D01*
X116384820Y-69359715D01*
X116326326Y-69539742D01*
X116306540Y-69727999D01*
X115675587Y-69727999D01*
X115666072Y-69667733D01*
X115665483Y-69663529D01*
X115537067Y-68614367D01*
X115536624Y-68610136D01*
X115444785Y-67557117D01*
X115444486Y-67552827D01*
X115392251Y-66553000D01*
X117576540Y-66553000D01*
X117596326Y-66741257D01*
X117654820Y-66921284D01*
X117749466Y-67085216D01*
X117876129Y-67225889D01*
X118029269Y-67337151D01*
X118202197Y-67414144D01*
X118387352Y-67453500D01*
X118387354Y-67453500D01*
X118576646Y-67453500D01*
X118576648Y-67453500D01*
X118700083Y-67427262D01*
X118761803Y-67414144D01*
X118934730Y-67337151D01*
X119087871Y-67225888D01*
X119214533Y-67085216D01*
X119309179Y-66921284D01*
X119367674Y-66741256D01*
X119387460Y-66553000D01*
X123926540Y-66553000D01*
X123946326Y-66741257D01*
X124004820Y-66921284D01*
X124099466Y-67085216D01*
X124226129Y-67225889D01*
X124379269Y-67337151D01*
X124552197Y-67414144D01*
X124737352Y-67453500D01*
X124737354Y-67453500D01*
X124926646Y-67453500D01*
X124926648Y-67453500D01*
X125050083Y-67427262D01*
X125111803Y-67414144D01*
X125284730Y-67337151D01*
X125437871Y-67225888D01*
X125471986Y-67188000D01*
X130911540Y-67188000D01*
X130931326Y-67376257D01*
X130989820Y-67556284D01*
X131084466Y-67720216D01*
X131211129Y-67860889D01*
X131364269Y-67972151D01*
X131537197Y-68049144D01*
X131722352Y-68088500D01*
X131722354Y-68088500D01*
X131911646Y-68088500D01*
X131911648Y-68088500D01*
X132053219Y-68058408D01*
X132096803Y-68049144D01*
X132269730Y-67972151D01*
X132269730Y-67972150D01*
X132422870Y-67860889D01*
X132456987Y-67822999D01*
X132549533Y-67720216D01*
X132644179Y-67556284D01*
X132702674Y-67376256D01*
X132722460Y-67188000D01*
X132702674Y-66999744D01*
X132644179Y-66819716D01*
X132644179Y-66819715D01*
X132549535Y-66655787D01*
X132549534Y-66655786D01*
X132549533Y-66655784D01*
X132531693Y-66635971D01*
X132503527Y-66582999D01*
X132503527Y-66523001D01*
X132531693Y-66470028D01*
X132549533Y-66450216D01*
X132644179Y-66286284D01*
X132702674Y-66106256D01*
X132722460Y-65918000D01*
X132702674Y-65729744D01*
X132644179Y-65549716D01*
X132644179Y-65549715D01*
X132549533Y-65385783D01*
X132531694Y-65365971D01*
X132503527Y-65312997D01*
X132503528Y-65253000D01*
X132531694Y-65200027D01*
X132549533Y-65180216D01*
X132644179Y-65016284D01*
X132702674Y-64836256D01*
X132722460Y-64648000D01*
X132702674Y-64459744D01*
X132644179Y-64279716D01*
X132644179Y-64279715D01*
X132549533Y-64115783D01*
X132531694Y-64095971D01*
X132503527Y-64042996D01*
X132503528Y-63982998D01*
X132531696Y-63930025D01*
X132549533Y-63910216D01*
X132644179Y-63746284D01*
X132702674Y-63566256D01*
X132722460Y-63378000D01*
X132702674Y-63189744D01*
X132644179Y-63009716D01*
X132644179Y-63009715D01*
X132549535Y-62845787D01*
X132549534Y-62845786D01*
X132549533Y-62845784D01*
X132531693Y-62825971D01*
X132503527Y-62772999D01*
X132503527Y-62713001D01*
X132531693Y-62660028D01*
X132549533Y-62640216D01*
X132644179Y-62476284D01*
X132702674Y-62296256D01*
X132722460Y-62108000D01*
X132702674Y-61919744D01*
X132644179Y-61739716D01*
X132644179Y-61739715D01*
X132549535Y-61575787D01*
X132549534Y-61575786D01*
X132549533Y-61575784D01*
X132531693Y-61555971D01*
X132503527Y-61502999D01*
X132503527Y-61443001D01*
X132531693Y-61390028D01*
X132549533Y-61370216D01*
X132644179Y-61206284D01*
X132702674Y-61026256D01*
X132722460Y-60838000D01*
X132702674Y-60649744D01*
X132644179Y-60469716D01*
X132644179Y-60469715D01*
X132549533Y-60305783D01*
X132531694Y-60285971D01*
X132503527Y-60232996D01*
X132503528Y-60172998D01*
X132531696Y-60120025D01*
X132549533Y-60100216D01*
X132644179Y-59936284D01*
X132702674Y-59756256D01*
X132722460Y-59568000D01*
X132702674Y-59379744D01*
X132644179Y-59199716D01*
X132644179Y-59199715D01*
X132549535Y-59035787D01*
X132549534Y-59035786D01*
X132549533Y-59035784D01*
X132531693Y-59015971D01*
X132503527Y-58962999D01*
X132503527Y-58903001D01*
X132531693Y-58850028D01*
X132549533Y-58830216D01*
X132644179Y-58666284D01*
X132702674Y-58486256D01*
X132722460Y-58298000D01*
X132702674Y-58109744D01*
X132663466Y-57989075D01*
X132644179Y-57929715D01*
X132549533Y-57765783D01*
X132422870Y-57625110D01*
X132269730Y-57513848D01*
X132096802Y-57436855D01*
X131911648Y-57397500D01*
X131911646Y-57397500D01*
X131722354Y-57397500D01*
X131722352Y-57397500D01*
X131537197Y-57436855D01*
X131364269Y-57513848D01*
X131211129Y-57625110D01*
X131084466Y-57765783D01*
X130989820Y-57929715D01*
X130931326Y-58109742D01*
X130911540Y-58298000D01*
X130931326Y-58486257D01*
X130989820Y-58666284D01*
X131084466Y-58830216D01*
X131102305Y-58850028D01*
X131130472Y-58903002D01*
X131130472Y-58962998D01*
X131102305Y-59015972D01*
X131084466Y-59035783D01*
X130989820Y-59199715D01*
X130931326Y-59379742D01*
X130911540Y-59568000D01*
X130931326Y-59756257D01*
X130989820Y-59936284D01*
X131084466Y-60100216D01*
X131102305Y-60120028D01*
X131130472Y-60173002D01*
X131130472Y-60232998D01*
X131102305Y-60285972D01*
X131084466Y-60305783D01*
X130989820Y-60469715D01*
X130931326Y-60649742D01*
X130911540Y-60838000D01*
X130931326Y-61026257D01*
X130989820Y-61206284D01*
X131084466Y-61370215D01*
X131102304Y-61390026D01*
X131130471Y-61442999D01*
X131130472Y-61502995D01*
X131102307Y-61555969D01*
X131084466Y-61575783D01*
X130989820Y-61739715D01*
X130931326Y-61919742D01*
X130931325Y-61919744D01*
X130931326Y-61919744D01*
X130911540Y-62108000D01*
X130918688Y-62176007D01*
X130931326Y-62296257D01*
X130989820Y-62476284D01*
X131084466Y-62640215D01*
X131102304Y-62660026D01*
X131130471Y-62712999D01*
X131130472Y-62772995D01*
X131102307Y-62825969D01*
X131084466Y-62845783D01*
X130989820Y-63009715D01*
X130931326Y-63189742D01*
X130911540Y-63377999D01*
X130931326Y-63566257D01*
X130989820Y-63746284D01*
X131084466Y-63910216D01*
X131102305Y-63930028D01*
X131130472Y-63983002D01*
X131130472Y-64042998D01*
X131102305Y-64095972D01*
X131084466Y-64115783D01*
X130989820Y-64279715D01*
X130931326Y-64459742D01*
X130911540Y-64648000D01*
X130931326Y-64836257D01*
X130989820Y-65016284D01*
X131084466Y-65180215D01*
X131102304Y-65200026D01*
X131130471Y-65252999D01*
X131130472Y-65312995D01*
X131102307Y-65365969D01*
X131084466Y-65385783D01*
X130989820Y-65549715D01*
X130931326Y-65729742D01*
X130931325Y-65729744D01*
X130931326Y-65729744D01*
X130911540Y-65918000D01*
X130920260Y-66000969D01*
X130931326Y-66106257D01*
X130989820Y-66286284D01*
X131084466Y-66450216D01*
X131102305Y-66470028D01*
X131130472Y-66523002D01*
X131130472Y-66582998D01*
X131102305Y-66635972D01*
X131084466Y-66655783D01*
X130989820Y-66819715D01*
X130931326Y-66999742D01*
X130911540Y-67188000D01*
X125471986Y-67188000D01*
X125564533Y-67085216D01*
X125659179Y-66921284D01*
X125717674Y-66741256D01*
X125737460Y-66553000D01*
X125717674Y-66364744D01*
X125659179Y-66184716D01*
X125659179Y-66184715D01*
X125564535Y-66020787D01*
X125564534Y-66020786D01*
X125564533Y-66020784D01*
X125546693Y-66000971D01*
X125518527Y-65947999D01*
X125518527Y-65888001D01*
X125546693Y-65835028D01*
X125564533Y-65815216D01*
X125659179Y-65651284D01*
X125717674Y-65471256D01*
X125737460Y-65283000D01*
X125717674Y-65094744D01*
X125659179Y-64914716D01*
X125659179Y-64914715D01*
X125564533Y-64750783D01*
X125546694Y-64730971D01*
X125518527Y-64677997D01*
X125518528Y-64618000D01*
X125546694Y-64565027D01*
X125564533Y-64545216D01*
X125659179Y-64381284D01*
X125717674Y-64201256D01*
X125737460Y-64013000D01*
X125717674Y-63824744D01*
X125659179Y-63644716D01*
X125659179Y-63644715D01*
X125564533Y-63480783D01*
X125546694Y-63460971D01*
X125518527Y-63407997D01*
X125518528Y-63348000D01*
X125546694Y-63295027D01*
X125564533Y-63275216D01*
X125659179Y-63111284D01*
X125717674Y-62931256D01*
X125737460Y-62743000D01*
X125717674Y-62554744D01*
X125659179Y-62374716D01*
X125659179Y-62374715D01*
X125564533Y-62210783D01*
X125546694Y-62190971D01*
X125518527Y-62137997D01*
X125518528Y-62078000D01*
X125546694Y-62025027D01*
X125564533Y-62005216D01*
X125659179Y-61841284D01*
X125717674Y-61661256D01*
X125737460Y-61473000D01*
X125717674Y-61284744D01*
X125659179Y-61104716D01*
X125659179Y-61104715D01*
X125564533Y-60940783D01*
X125546694Y-60920971D01*
X125518527Y-60867997D01*
X125518528Y-60808000D01*
X125546694Y-60755027D01*
X125564533Y-60735216D01*
X125659179Y-60571284D01*
X125717674Y-60391256D01*
X125737460Y-60203000D01*
X125717674Y-60014744D01*
X125659179Y-59834716D01*
X125659179Y-59834715D01*
X125564533Y-59670783D01*
X125546694Y-59650971D01*
X125518527Y-59597997D01*
X125518528Y-59538000D01*
X125546694Y-59485027D01*
X125564533Y-59465216D01*
X125659179Y-59301284D01*
X125717674Y-59121256D01*
X125737460Y-58933000D01*
X125717674Y-58744744D01*
X125659179Y-58564716D01*
X125659179Y-58564715D01*
X125564533Y-58400783D01*
X125437870Y-58260110D01*
X125284730Y-58148848D01*
X125111802Y-58071855D01*
X124926648Y-58032500D01*
X124926646Y-58032500D01*
X124737354Y-58032500D01*
X124737352Y-58032500D01*
X124552197Y-58071855D01*
X124379269Y-58148848D01*
X124226129Y-58260110D01*
X124099466Y-58400783D01*
X124004820Y-58564715D01*
X123946326Y-58744742D01*
X123926540Y-58933000D01*
X123946326Y-59121257D01*
X124004820Y-59301284D01*
X124099466Y-59465215D01*
X124117304Y-59485026D01*
X124145471Y-59537999D01*
X124145472Y-59597995D01*
X124117307Y-59650969D01*
X124099466Y-59670783D01*
X124004820Y-59834715D01*
X123946326Y-60014742D01*
X123926540Y-60203000D01*
X123946326Y-60391257D01*
X124004820Y-60571284D01*
X124099466Y-60735215D01*
X124117304Y-60755026D01*
X124145471Y-60807999D01*
X124145472Y-60867995D01*
X124117307Y-60920969D01*
X124099466Y-60940783D01*
X124004820Y-61104715D01*
X123946326Y-61284742D01*
X123926540Y-61472999D01*
X123946326Y-61661257D01*
X124004820Y-61841284D01*
X124099466Y-62005215D01*
X124117304Y-62025026D01*
X124145471Y-62077999D01*
X124145472Y-62137995D01*
X124117307Y-62190969D01*
X124099466Y-62210783D01*
X124004820Y-62374715D01*
X123946326Y-62554742D01*
X123926540Y-62743000D01*
X123946326Y-62931257D01*
X124004820Y-63111284D01*
X124099466Y-63275215D01*
X124117304Y-63295026D01*
X124145471Y-63347999D01*
X124145472Y-63407995D01*
X124117307Y-63460969D01*
X124099466Y-63480783D01*
X124004820Y-63644715D01*
X123946326Y-63824742D01*
X123926540Y-64012999D01*
X123946326Y-64201257D01*
X124004820Y-64381284D01*
X124099466Y-64545215D01*
X124117304Y-64565026D01*
X124145471Y-64617999D01*
X124145472Y-64677995D01*
X124117307Y-64730969D01*
X124099466Y-64750783D01*
X124004820Y-64914715D01*
X123946326Y-65094742D01*
X123926540Y-65282999D01*
X123946326Y-65471257D01*
X124004820Y-65651284D01*
X124099466Y-65815215D01*
X124117304Y-65835026D01*
X124145471Y-65887999D01*
X124145472Y-65947995D01*
X124117307Y-66000969D01*
X124099466Y-66020783D01*
X124004820Y-66184715D01*
X123946326Y-66364742D01*
X123926540Y-66553000D01*
X119387460Y-66553000D01*
X119367674Y-66364744D01*
X119309179Y-66184716D01*
X119309179Y-66184715D01*
X119214535Y-66020787D01*
X119214534Y-66020786D01*
X119214533Y-66020784D01*
X119196693Y-66000971D01*
X119168527Y-65947999D01*
X119168527Y-65888001D01*
X119196693Y-65835028D01*
X119214533Y-65815216D01*
X119309179Y-65651284D01*
X119367674Y-65471256D01*
X119387460Y-65283000D01*
X119387460Y-65282999D01*
X120751540Y-65282999D01*
X120771326Y-65471257D01*
X120829820Y-65651284D01*
X120924466Y-65815216D01*
X121051129Y-65955889D01*
X121204269Y-66067151D01*
X121377197Y-66144144D01*
X121562352Y-66183500D01*
X121562354Y-66183500D01*
X121751646Y-66183500D01*
X121751648Y-66183500D01*
X121916328Y-66148496D01*
X121936803Y-66144144D01*
X122109730Y-66067151D01*
X122109730Y-66067150D01*
X122262870Y-65955889D01*
X122296987Y-65917999D01*
X122389533Y-65815216D01*
X122484179Y-65651284D01*
X122542674Y-65471256D01*
X122562460Y-65283000D01*
X122542674Y-65094744D01*
X122484179Y-64914716D01*
X122484179Y-64914715D01*
X122389533Y-64750783D01*
X122371694Y-64730971D01*
X122343527Y-64677997D01*
X122343528Y-64618000D01*
X122371694Y-64565027D01*
X122389533Y-64545216D01*
X122484179Y-64381284D01*
X122542674Y-64201256D01*
X122562460Y-64013000D01*
X122542674Y-63824744D01*
X122484179Y-63644716D01*
X122484179Y-63644715D01*
X122389533Y-63480783D01*
X122371694Y-63460971D01*
X122343527Y-63407997D01*
X122343528Y-63348000D01*
X122371694Y-63295027D01*
X122389533Y-63275216D01*
X122484179Y-63111284D01*
X122542674Y-62931256D01*
X122562460Y-62743000D01*
X122542674Y-62554744D01*
X122484179Y-62374716D01*
X122484179Y-62374715D01*
X122389533Y-62210783D01*
X122371694Y-62190971D01*
X122343527Y-62137997D01*
X122343528Y-62078000D01*
X122371694Y-62025027D01*
X122389533Y-62005216D01*
X122484179Y-61841284D01*
X122542674Y-61661256D01*
X122562460Y-61473000D01*
X122542674Y-61284744D01*
X122484179Y-61104716D01*
X122484179Y-61104715D01*
X122389533Y-60940783D01*
X122371694Y-60920971D01*
X122343527Y-60867997D01*
X122343528Y-60808000D01*
X122371694Y-60755027D01*
X122389533Y-60735216D01*
X122484179Y-60571284D01*
X122542674Y-60391256D01*
X122562460Y-60203000D01*
X122542674Y-60014744D01*
X122484179Y-59834716D01*
X122484179Y-59834715D01*
X122389533Y-59670783D01*
X122262870Y-59530110D01*
X122109730Y-59418848D01*
X121936802Y-59341855D01*
X121751648Y-59302500D01*
X121751646Y-59302500D01*
X121562354Y-59302500D01*
X121562352Y-59302500D01*
X121377197Y-59341855D01*
X121204269Y-59418848D01*
X121051129Y-59530110D01*
X120924466Y-59670783D01*
X120829820Y-59834715D01*
X120771326Y-60014742D01*
X120751540Y-60203000D01*
X120771326Y-60391257D01*
X120829820Y-60571284D01*
X120924466Y-60735215D01*
X120942304Y-60755026D01*
X120970471Y-60807999D01*
X120970472Y-60867995D01*
X120942307Y-60920969D01*
X120924466Y-60940783D01*
X120829820Y-61104715D01*
X120771326Y-61284742D01*
X120751540Y-61472999D01*
X120771326Y-61661257D01*
X120829820Y-61841284D01*
X120924466Y-62005215D01*
X120942304Y-62025026D01*
X120970471Y-62077999D01*
X120970472Y-62137995D01*
X120942307Y-62190969D01*
X120924466Y-62210783D01*
X120829820Y-62374715D01*
X120771326Y-62554742D01*
X120751540Y-62743000D01*
X120771326Y-62931257D01*
X120829820Y-63111284D01*
X120924466Y-63275215D01*
X120942304Y-63295026D01*
X120970471Y-63347999D01*
X120970472Y-63407995D01*
X120942307Y-63460969D01*
X120924466Y-63480783D01*
X120829820Y-63644715D01*
X120771326Y-63824742D01*
X120751540Y-64012999D01*
X120771326Y-64201257D01*
X120829820Y-64381284D01*
X120924466Y-64545215D01*
X120942304Y-64565026D01*
X120970471Y-64617999D01*
X120970472Y-64677995D01*
X120942307Y-64730969D01*
X120924466Y-64750783D01*
X120829820Y-64914715D01*
X120771326Y-65094742D01*
X120751540Y-65282999D01*
X119387460Y-65282999D01*
X119367674Y-65094744D01*
X119309179Y-64914716D01*
X119309179Y-64914715D01*
X119214533Y-64750783D01*
X119196694Y-64730971D01*
X119168527Y-64677997D01*
X119168528Y-64618000D01*
X119196694Y-64565027D01*
X119214533Y-64545216D01*
X119309179Y-64381284D01*
X119367674Y-64201256D01*
X119387460Y-64013000D01*
X119367674Y-63824744D01*
X119309179Y-63644716D01*
X119309179Y-63644715D01*
X119214533Y-63480783D01*
X119196694Y-63460971D01*
X119168527Y-63407997D01*
X119168528Y-63348000D01*
X119196694Y-63295027D01*
X119214533Y-63275216D01*
X119309179Y-63111284D01*
X119367674Y-62931256D01*
X119387460Y-62743000D01*
X119367674Y-62554744D01*
X119309179Y-62374716D01*
X119309179Y-62374715D01*
X119214533Y-62210783D01*
X119196694Y-62190971D01*
X119168527Y-62137997D01*
X119168528Y-62078000D01*
X119196694Y-62025027D01*
X119214533Y-62005216D01*
X119309179Y-61841284D01*
X119367674Y-61661256D01*
X119387460Y-61473000D01*
X119367674Y-61284744D01*
X119309179Y-61104716D01*
X119309179Y-61104715D01*
X119214533Y-60940783D01*
X119196694Y-60920971D01*
X119168527Y-60867997D01*
X119168528Y-60808000D01*
X119196694Y-60755027D01*
X119214533Y-60735216D01*
X119309179Y-60571284D01*
X119367674Y-60391256D01*
X119387460Y-60203000D01*
X119367674Y-60014744D01*
X119309179Y-59834716D01*
X119309179Y-59834715D01*
X119214533Y-59670783D01*
X119196694Y-59650971D01*
X119168527Y-59597997D01*
X119168528Y-59538000D01*
X119196694Y-59485027D01*
X119214533Y-59465216D01*
X119309179Y-59301284D01*
X119367674Y-59121256D01*
X119387460Y-58933000D01*
X119367674Y-58744744D01*
X119309179Y-58564716D01*
X119309179Y-58564715D01*
X119214533Y-58400783D01*
X119087870Y-58260110D01*
X118934730Y-58148848D01*
X118761802Y-58071855D01*
X118576648Y-58032500D01*
X118576646Y-58032500D01*
X118387354Y-58032500D01*
X118387352Y-58032500D01*
X118202197Y-58071855D01*
X118029269Y-58148848D01*
X117876129Y-58260110D01*
X117749466Y-58400783D01*
X117654820Y-58564715D01*
X117596326Y-58744742D01*
X117576540Y-58933000D01*
X117596326Y-59121257D01*
X117654820Y-59301284D01*
X117749466Y-59465215D01*
X117767304Y-59485026D01*
X117795471Y-59537999D01*
X117795472Y-59597995D01*
X117767307Y-59650969D01*
X117749466Y-59670783D01*
X117654820Y-59834715D01*
X117596326Y-60014742D01*
X117576540Y-60203000D01*
X117596326Y-60391257D01*
X117654820Y-60571284D01*
X117749466Y-60735215D01*
X117767304Y-60755026D01*
X117795471Y-60807999D01*
X117795472Y-60867995D01*
X117767307Y-60920969D01*
X117749466Y-60940783D01*
X117654820Y-61104715D01*
X117596326Y-61284742D01*
X117576540Y-61472999D01*
X117596326Y-61661257D01*
X117654820Y-61841284D01*
X117749466Y-62005215D01*
X117767304Y-62025026D01*
X117795471Y-62077999D01*
X117795472Y-62137995D01*
X117767307Y-62190969D01*
X117749466Y-62210783D01*
X117654820Y-62374715D01*
X117596326Y-62554742D01*
X117576540Y-62743000D01*
X117596326Y-62931257D01*
X117654820Y-63111284D01*
X117749466Y-63275215D01*
X117767304Y-63295026D01*
X117795471Y-63347999D01*
X117795472Y-63407995D01*
X117767307Y-63460969D01*
X117749466Y-63480783D01*
X117654820Y-63644715D01*
X117596326Y-63824742D01*
X117576540Y-64012999D01*
X117596326Y-64201257D01*
X117654820Y-64381284D01*
X117749466Y-64545215D01*
X117767304Y-64565026D01*
X117795471Y-64617999D01*
X117795472Y-64677995D01*
X117767307Y-64730969D01*
X117749466Y-64750783D01*
X117654820Y-64914715D01*
X117596326Y-65094742D01*
X117576540Y-65282999D01*
X117596326Y-65471257D01*
X117654820Y-65651284D01*
X117749466Y-65815215D01*
X117767304Y-65835026D01*
X117795471Y-65887999D01*
X117795472Y-65947995D01*
X117767307Y-66000969D01*
X117749466Y-66020783D01*
X117654820Y-66184715D01*
X117596326Y-66364742D01*
X117576540Y-66553000D01*
X115392251Y-66553000D01*
X115389340Y-66497288D01*
X115389191Y-66492998D01*
X115388791Y-66470028D01*
X115372234Y-65518407D01*
X115370802Y-65436101D01*
X115370803Y-65431731D01*
X115390155Y-64347633D01*
X115390311Y-64343265D01*
X115448355Y-63260389D01*
X115448664Y-63256077D01*
X115545318Y-62175989D01*
X115545790Y-62171606D01*
X115680934Y-61095654D01*
X115681547Y-61091388D01*
X115855012Y-60020921D01*
X115855794Y-60016588D01*
X115856161Y-60014744D01*
X116067346Y-58953043D01*
X116068270Y-58948798D01*
X116317655Y-57893453D01*
X116318728Y-57889243D01*
X116605624Y-56843463D01*
X116606867Y-56839232D01*
X116610809Y-56826644D01*
X116930895Y-55804393D01*
X116932271Y-55800258D01*
X117293044Y-54777601D01*
X117294560Y-54773539D01*
X117691592Y-53764441D01*
X117693280Y-53760366D01*
X117738122Y-53657348D01*
X118126076Y-52766082D01*
X118127884Y-52762124D01*
X118595894Y-51783916D01*
X118597834Y-51780040D01*
X118935603Y-51134323D01*
X118976316Y-51088880D01*
X119033776Y-51068354D01*
X119094070Y-51077719D01*
X119142597Y-51114706D01*
X119167609Y-51170360D01*
X119163049Y-51231206D01*
X119132394Y-51322668D01*
X119035002Y-51736753D01*
X118976232Y-52158062D01*
X118956586Y-52582999D01*
X118976232Y-53007937D01*
X119035002Y-53429246D01*
X119132393Y-53843327D01*
X119267577Y-54246663D01*
X119439404Y-54635815D01*
X119516093Y-54773497D01*
X119646398Y-55007438D01*
X119719661Y-55114389D01*
X119886803Y-55358387D01*
X120158557Y-55685647D01*
X120459352Y-55986442D01*
X120786612Y-56258196D01*
X120786618Y-56258200D01*
X121137562Y-56498602D01*
X121137566Y-56498604D01*
X121509184Y-56705595D01*
X121509186Y-56705596D01*
X121509190Y-56705598D01*
X121898333Y-56877421D01*
X121898336Y-56877422D01*
X122301672Y-57012606D01*
X122574213Y-57076707D01*
X122715757Y-57109998D01*
X123137066Y-57168768D01*
X123562000Y-57188414D01*
X123986934Y-57168768D01*
X124408243Y-57109998D01*
X124822331Y-57012605D01*
X125225667Y-56877421D01*
X125614810Y-56705598D01*
X125986438Y-56498602D01*
X126140598Y-56393000D01*
X132816540Y-56393000D01*
X132836326Y-56581257D01*
X132894820Y-56761284D01*
X132989466Y-56925216D01*
X133116129Y-57065889D01*
X133269269Y-57177151D01*
X133442197Y-57254144D01*
X133627352Y-57293500D01*
X133627354Y-57293500D01*
X133816646Y-57293500D01*
X133816648Y-57293500D01*
X133940083Y-57267262D01*
X134001803Y-57254144D01*
X134174730Y-57177151D01*
X134267159Y-57109998D01*
X134284115Y-57097679D01*
X134331219Y-57076707D01*
X134382781Y-57076707D01*
X134429885Y-57097679D01*
X134539269Y-57177151D01*
X134712197Y-57254144D01*
X134897352Y-57293500D01*
X134897354Y-57293500D01*
X135086646Y-57293500D01*
X135086648Y-57293500D01*
X135210083Y-57267262D01*
X135271803Y-57254144D01*
X135444730Y-57177151D01*
X135537159Y-57109998D01*
X135554115Y-57097679D01*
X135601219Y-57076707D01*
X135652781Y-57076707D01*
X135699885Y-57097679D01*
X135809269Y-57177151D01*
X135982197Y-57254144D01*
X136167352Y-57293500D01*
X136167354Y-57293500D01*
X136356646Y-57293500D01*
X136356648Y-57293500D01*
X136480083Y-57267262D01*
X136541803Y-57254144D01*
X136714730Y-57177151D01*
X136807159Y-57109998D01*
X136824115Y-57097679D01*
X136871219Y-57076707D01*
X136922781Y-57076707D01*
X136969885Y-57097679D01*
X137079269Y-57177151D01*
X137252197Y-57254144D01*
X137437352Y-57293500D01*
X137437354Y-57293500D01*
X137626646Y-57293500D01*
X137626648Y-57293500D01*
X137750083Y-57267262D01*
X137811803Y-57254144D01*
X137984730Y-57177151D01*
X138077159Y-57109998D01*
X138094115Y-57097679D01*
X138141219Y-57076707D01*
X138192781Y-57076707D01*
X138239885Y-57097679D01*
X138349269Y-57177151D01*
X138522197Y-57254144D01*
X138707352Y-57293500D01*
X138707354Y-57293500D01*
X138896646Y-57293500D01*
X138896648Y-57293500D01*
X139020083Y-57267262D01*
X139081803Y-57254144D01*
X139254730Y-57177151D01*
X139347159Y-57109998D01*
X139364115Y-57097679D01*
X139411219Y-57076707D01*
X139462781Y-57076707D01*
X139509885Y-57097679D01*
X139619269Y-57177151D01*
X139792197Y-57254144D01*
X139977352Y-57293500D01*
X139977354Y-57293500D01*
X140166646Y-57293500D01*
X140166648Y-57293500D01*
X140290083Y-57267262D01*
X140351803Y-57254144D01*
X140524730Y-57177151D01*
X140617159Y-57109998D01*
X140634115Y-57097679D01*
X140681219Y-57076707D01*
X140732781Y-57076707D01*
X140779885Y-57097679D01*
X140889269Y-57177151D01*
X141062197Y-57254144D01*
X141247352Y-57293500D01*
X141247354Y-57293500D01*
X141436646Y-57293500D01*
X141436648Y-57293500D01*
X141560083Y-57267262D01*
X141621803Y-57254144D01*
X141794730Y-57177151D01*
X141887159Y-57109998D01*
X141904115Y-57097679D01*
X141951219Y-57076707D01*
X142002781Y-57076707D01*
X142049885Y-57097679D01*
X142159269Y-57177151D01*
X142332197Y-57254144D01*
X142517352Y-57293500D01*
X142517354Y-57293500D01*
X142706646Y-57293500D01*
X142706648Y-57293500D01*
X142830083Y-57267262D01*
X142891803Y-57254144D01*
X143064730Y-57177151D01*
X143157160Y-57109997D01*
X143217870Y-57065889D01*
X143344533Y-56925216D01*
X143439179Y-56761284D01*
X143450671Y-56725915D01*
X143497674Y-56581256D01*
X143517460Y-56393000D01*
X143497674Y-56204744D01*
X143439179Y-56024716D01*
X143439179Y-56024715D01*
X143344533Y-55860783D01*
X143217870Y-55720110D01*
X143064730Y-55608848D01*
X142891802Y-55531855D01*
X142706648Y-55492500D01*
X142706646Y-55492500D01*
X142517354Y-55492500D01*
X142517352Y-55492500D01*
X142332197Y-55531855D01*
X142159269Y-55608848D01*
X142049885Y-55688321D01*
X142002781Y-55709293D01*
X141951219Y-55709293D01*
X141904115Y-55688321D01*
X141794730Y-55608848D01*
X141621802Y-55531855D01*
X141436648Y-55492500D01*
X141436646Y-55492500D01*
X141247354Y-55492500D01*
X141247352Y-55492500D01*
X141062197Y-55531855D01*
X140889269Y-55608848D01*
X140779885Y-55688321D01*
X140732781Y-55709293D01*
X140681219Y-55709293D01*
X140634115Y-55688321D01*
X140524730Y-55608848D01*
X140351802Y-55531855D01*
X140166648Y-55492500D01*
X140166646Y-55492500D01*
X139977354Y-55492500D01*
X139977352Y-55492500D01*
X139792197Y-55531855D01*
X139619269Y-55608848D01*
X139509885Y-55688321D01*
X139462781Y-55709293D01*
X139411219Y-55709293D01*
X139364115Y-55688321D01*
X139254730Y-55608848D01*
X139081802Y-55531855D01*
X138896648Y-55492500D01*
X138896646Y-55492500D01*
X138707354Y-55492500D01*
X138707352Y-55492500D01*
X138522197Y-55531855D01*
X138349269Y-55608848D01*
X138239885Y-55688321D01*
X138192781Y-55709293D01*
X138141219Y-55709293D01*
X138094115Y-55688321D01*
X137984730Y-55608848D01*
X137811802Y-55531855D01*
X137626648Y-55492500D01*
X137626646Y-55492500D01*
X137437354Y-55492500D01*
X137437352Y-55492500D01*
X137252197Y-55531855D01*
X137079269Y-55608848D01*
X136969885Y-55688321D01*
X136922781Y-55709293D01*
X136871219Y-55709293D01*
X136824115Y-55688321D01*
X136714730Y-55608848D01*
X136541802Y-55531855D01*
X136356648Y-55492500D01*
X136356646Y-55492500D01*
X136167354Y-55492500D01*
X136167352Y-55492500D01*
X135982197Y-55531855D01*
X135809269Y-55608848D01*
X135699885Y-55688321D01*
X135652781Y-55709293D01*
X135601219Y-55709293D01*
X135554115Y-55688321D01*
X135444730Y-55608848D01*
X135271802Y-55531855D01*
X135086648Y-55492500D01*
X135086646Y-55492500D01*
X134897354Y-55492500D01*
X134897352Y-55492500D01*
X134712197Y-55531855D01*
X134539269Y-55608848D01*
X134429885Y-55688321D01*
X134382781Y-55709293D01*
X134331219Y-55709293D01*
X134284115Y-55688321D01*
X134174730Y-55608848D01*
X134001802Y-55531855D01*
X133816648Y-55492500D01*
X133816646Y-55492500D01*
X133627354Y-55492500D01*
X133627352Y-55492500D01*
X133442197Y-55531855D01*
X133269269Y-55608848D01*
X133116129Y-55720110D01*
X132989466Y-55860783D01*
X132894820Y-56024715D01*
X132836326Y-56204742D01*
X132816540Y-56393000D01*
X126140598Y-56393000D01*
X126337382Y-56258200D01*
X126354666Y-56243848D01*
X126664647Y-55986442D01*
X126965442Y-55685647D01*
X127237196Y-55358387D01*
X127237196Y-55358385D01*
X127237200Y-55358382D01*
X127477602Y-55007438D01*
X127684598Y-54635810D01*
X127770394Y-54441500D01*
X144246540Y-54441500D01*
X144266326Y-54629757D01*
X144324820Y-54809784D01*
X144419466Y-54973716D01*
X144546129Y-55114389D01*
X144699269Y-55225651D01*
X144872197Y-55302644D01*
X145057352Y-55342000D01*
X145057354Y-55342000D01*
X145246646Y-55342000D01*
X145246648Y-55342000D01*
X145370083Y-55315762D01*
X145431803Y-55302644D01*
X145543755Y-55252798D01*
X145609564Y-55223499D01*
X145660000Y-55212778D01*
X145710436Y-55223499D01*
X145888197Y-55302644D01*
X146073352Y-55342000D01*
X146073354Y-55342000D01*
X146262642Y-55342000D01*
X146262646Y-55342000D01*
X146265529Y-55341387D01*
X146322145Y-55342570D01*
X146372334Y-55368806D01*
X146405623Y-55414621D01*
X146415068Y-55470459D01*
X146398701Y-55524675D01*
X146356820Y-55597216D01*
X146298326Y-55777242D01*
X146278540Y-55965499D01*
X146298326Y-56153757D01*
X146356820Y-56333784D01*
X146451466Y-56497716D01*
X146578129Y-56638389D01*
X146731269Y-56749651D01*
X146904197Y-56826644D01*
X147089352Y-56866000D01*
X147089354Y-56866000D01*
X147278646Y-56866000D01*
X147278648Y-56866000D01*
X147404581Y-56839232D01*
X147463803Y-56826644D01*
X147636730Y-56749651D01*
X147775495Y-56648832D01*
X147832838Y-56626129D01*
X147894027Y-56633859D01*
X147943923Y-56670110D01*
X147970183Y-56725915D01*
X147966311Y-56787468D01*
X147949326Y-56839740D01*
X147929540Y-57028000D01*
X147949326Y-57216257D01*
X148007820Y-57396284D01*
X148102466Y-57560216D01*
X148229129Y-57700889D01*
X148382269Y-57812151D01*
X148555197Y-57889144D01*
X148740352Y-57928500D01*
X148740354Y-57928500D01*
X148929646Y-57928500D01*
X148929648Y-57928500D01*
X149094342Y-57893493D01*
X149114803Y-57889144D01*
X149287730Y-57812151D01*
X149440871Y-57700888D01*
X149441349Y-57700356D01*
X149443162Y-57699223D01*
X149451415Y-57693228D01*
X149451834Y-57693804D01*
X149499320Y-57664132D01*
X149567680Y-57664132D01*
X149615165Y-57693804D01*
X149615585Y-57693228D01*
X149623837Y-57699223D01*
X149625651Y-57700357D01*
X149626131Y-57700890D01*
X149779269Y-57812151D01*
X149952197Y-57889144D01*
X150137352Y-57928500D01*
X150137354Y-57928500D01*
X150326646Y-57928500D01*
X150326648Y-57928500D01*
X150491342Y-57893493D01*
X150511803Y-57889144D01*
X150684730Y-57812151D01*
X150748549Y-57765784D01*
X150794115Y-57732679D01*
X150841219Y-57711707D01*
X150892781Y-57711707D01*
X150939885Y-57732679D01*
X151049269Y-57812151D01*
X151222197Y-57889144D01*
X151407352Y-57928500D01*
X151407354Y-57928500D01*
X151596646Y-57928500D01*
X151596648Y-57928500D01*
X151761342Y-57893493D01*
X151781803Y-57889144D01*
X151954730Y-57812151D01*
X152018549Y-57765784D01*
X152064115Y-57732679D01*
X152111219Y-57711707D01*
X152162781Y-57711707D01*
X152209885Y-57732679D01*
X152319269Y-57812151D01*
X152492197Y-57889144D01*
X152677352Y-57928500D01*
X152677354Y-57928500D01*
X152866646Y-57928500D01*
X152866648Y-57928500D01*
X153031342Y-57893493D01*
X153051803Y-57889144D01*
X153224730Y-57812151D01*
X153288549Y-57765784D01*
X153334115Y-57732679D01*
X153381219Y-57711707D01*
X153432781Y-57711707D01*
X153479885Y-57732679D01*
X153589269Y-57812151D01*
X153762197Y-57889144D01*
X153947352Y-57928500D01*
X153947354Y-57928500D01*
X154136646Y-57928500D01*
X154136648Y-57928500D01*
X154301342Y-57893493D01*
X154321803Y-57889144D01*
X154494730Y-57812151D01*
X154558549Y-57765784D01*
X154604115Y-57732679D01*
X154651219Y-57711707D01*
X154702781Y-57711707D01*
X154749885Y-57732679D01*
X154859269Y-57812151D01*
X155032197Y-57889144D01*
X155217352Y-57928500D01*
X155217354Y-57928500D01*
X155406646Y-57928500D01*
X155406648Y-57928500D01*
X155571342Y-57893493D01*
X155591803Y-57889144D01*
X155764730Y-57812151D01*
X155828549Y-57765784D01*
X155874115Y-57732679D01*
X155921219Y-57711707D01*
X155972781Y-57711707D01*
X156019885Y-57732679D01*
X156129269Y-57812151D01*
X156302197Y-57889144D01*
X156487352Y-57928500D01*
X156487354Y-57928500D01*
X156676646Y-57928500D01*
X156676648Y-57928500D01*
X156841342Y-57893493D01*
X156861803Y-57889144D01*
X157034730Y-57812151D01*
X157098549Y-57765784D01*
X157144115Y-57732679D01*
X157191219Y-57711707D01*
X157242781Y-57711707D01*
X157289885Y-57732679D01*
X157399269Y-57812151D01*
X157572197Y-57889144D01*
X157757352Y-57928500D01*
X157757354Y-57928500D01*
X157946646Y-57928500D01*
X157946648Y-57928500D01*
X158110994Y-57893567D01*
X158175093Y-57896926D01*
X158228925Y-57931884D01*
X158258065Y-57989075D01*
X158254706Y-58053174D01*
X158236326Y-58109740D01*
X158216540Y-58297999D01*
X158236326Y-58486257D01*
X158294820Y-58666284D01*
X158389466Y-58830216D01*
X158407305Y-58850028D01*
X158435472Y-58903002D01*
X158435472Y-58962998D01*
X158407305Y-59015972D01*
X158389466Y-59035783D01*
X158294820Y-59199715D01*
X158236326Y-59379742D01*
X158216540Y-59567999D01*
X158216540Y-59568000D01*
X158222673Y-59626349D01*
X158236326Y-59756257D01*
X158294820Y-59936284D01*
X158389466Y-60100216D01*
X158407305Y-60120028D01*
X158435472Y-60173002D01*
X158435472Y-60232998D01*
X158407305Y-60285972D01*
X158389466Y-60305783D01*
X158294820Y-60469715D01*
X158236326Y-60649742D01*
X158216540Y-60838000D01*
X158236326Y-61026257D01*
X158294820Y-61206284D01*
X158389466Y-61370215D01*
X158407304Y-61390026D01*
X158435471Y-61442999D01*
X158435472Y-61502995D01*
X158407307Y-61555969D01*
X158389466Y-61575783D01*
X158294820Y-61739715D01*
X158236326Y-61919742D01*
X158236325Y-61919744D01*
X158236326Y-61919744D01*
X158216540Y-62108000D01*
X158223688Y-62176007D01*
X158236326Y-62296257D01*
X158294820Y-62476284D01*
X158389466Y-62640215D01*
X158407304Y-62660026D01*
X158435471Y-62712999D01*
X158435472Y-62772995D01*
X158407307Y-62825969D01*
X158389466Y-62845783D01*
X158294820Y-63009715D01*
X158236326Y-63189742D01*
X158216540Y-63377999D01*
X158236326Y-63566257D01*
X158294820Y-63746284D01*
X158389466Y-63910216D01*
X158407305Y-63930028D01*
X158435472Y-63983002D01*
X158435472Y-64042998D01*
X158407305Y-64095972D01*
X158389466Y-64115783D01*
X158294820Y-64279715D01*
X158236326Y-64459742D01*
X158216540Y-64648000D01*
X158236326Y-64836257D01*
X158294820Y-65016284D01*
X158389466Y-65180215D01*
X158407304Y-65200026D01*
X158435471Y-65252999D01*
X158435472Y-65312995D01*
X158407307Y-65365969D01*
X158389466Y-65385783D01*
X158294820Y-65549715D01*
X158236326Y-65729742D01*
X158216540Y-65918000D01*
X158236326Y-66106257D01*
X158294820Y-66286284D01*
X158389466Y-66450216D01*
X158407305Y-66470028D01*
X158435472Y-66523002D01*
X158435472Y-66582998D01*
X158407305Y-66635972D01*
X158389466Y-66655783D01*
X158294820Y-66819715D01*
X158236326Y-66999742D01*
X158216540Y-67187999D01*
X158236326Y-67376257D01*
X158294820Y-67556284D01*
X158389466Y-67720216D01*
X158516129Y-67860889D01*
X158669269Y-67972151D01*
X158842197Y-68049144D01*
X159027352Y-68088500D01*
X159027354Y-68088500D01*
X159216646Y-68088500D01*
X159216648Y-68088500D01*
X159358219Y-68058408D01*
X159401803Y-68049144D01*
X159574730Y-67972151D01*
X159574730Y-67972150D01*
X159727870Y-67860889D01*
X159761987Y-67822999D01*
X159854533Y-67720216D01*
X159949179Y-67556284D01*
X160007674Y-67376256D01*
X160027460Y-67188000D01*
X160007674Y-66999744D01*
X159949179Y-66819716D01*
X159949179Y-66819715D01*
X159854535Y-66655787D01*
X159854534Y-66655786D01*
X159854533Y-66655784D01*
X159836693Y-66635971D01*
X159808527Y-66582999D01*
X159808527Y-66553000D01*
X165836540Y-66553000D01*
X165856326Y-66741257D01*
X165914820Y-66921284D01*
X166009466Y-67085216D01*
X166136129Y-67225889D01*
X166289269Y-67337151D01*
X166462197Y-67414144D01*
X166647352Y-67453500D01*
X166647354Y-67453500D01*
X166836646Y-67453500D01*
X166836648Y-67453500D01*
X166960083Y-67427262D01*
X167021803Y-67414144D01*
X167194730Y-67337151D01*
X167347871Y-67225888D01*
X167474533Y-67085216D01*
X167569179Y-66921284D01*
X167627674Y-66741256D01*
X167647460Y-66553000D01*
X172186540Y-66553000D01*
X172206326Y-66741257D01*
X172264820Y-66921284D01*
X172359466Y-67085216D01*
X172486129Y-67225889D01*
X172639269Y-67337151D01*
X172812197Y-67414144D01*
X172997352Y-67453500D01*
X172997354Y-67453500D01*
X173186646Y-67453500D01*
X173186648Y-67453500D01*
X173310083Y-67427262D01*
X173371803Y-67414144D01*
X173544730Y-67337151D01*
X173697871Y-67225888D01*
X173824533Y-67085216D01*
X173919179Y-66921284D01*
X173977674Y-66741256D01*
X173997460Y-66553000D01*
X173977674Y-66364744D01*
X173919179Y-66184716D01*
X173919179Y-66184715D01*
X173824535Y-66020787D01*
X173824534Y-66020786D01*
X173824533Y-66020784D01*
X173806693Y-66000971D01*
X173778527Y-65947999D01*
X173778527Y-65888001D01*
X173806693Y-65835028D01*
X173824533Y-65815216D01*
X173919179Y-65651284D01*
X173977674Y-65471256D01*
X173997460Y-65283000D01*
X173977674Y-65094744D01*
X173919179Y-64914716D01*
X173919179Y-64914715D01*
X173824533Y-64750783D01*
X173806694Y-64730971D01*
X173778527Y-64677997D01*
X173778528Y-64618000D01*
X173806694Y-64565027D01*
X173824533Y-64545216D01*
X173919179Y-64381284D01*
X173977674Y-64201256D01*
X173997460Y-64013000D01*
X173977674Y-63824744D01*
X173919179Y-63644716D01*
X173919179Y-63644715D01*
X173824533Y-63480783D01*
X173806694Y-63460971D01*
X173778527Y-63407997D01*
X173778528Y-63348000D01*
X173806694Y-63295027D01*
X173824533Y-63275216D01*
X173919179Y-63111284D01*
X173977674Y-62931256D01*
X173997460Y-62743000D01*
X173977674Y-62554744D01*
X173919179Y-62374716D01*
X173919179Y-62374715D01*
X173824533Y-62210783D01*
X173806694Y-62190971D01*
X173778527Y-62137997D01*
X173778528Y-62078000D01*
X173806694Y-62025027D01*
X173824533Y-62005216D01*
X173919179Y-61841284D01*
X173977674Y-61661256D01*
X173997460Y-61473000D01*
X173977674Y-61284744D01*
X173919179Y-61104716D01*
X173919179Y-61104715D01*
X173824533Y-60940783D01*
X173806694Y-60920971D01*
X173778527Y-60867997D01*
X173778528Y-60808000D01*
X173806694Y-60755027D01*
X173824533Y-60735216D01*
X173919179Y-60571284D01*
X173977674Y-60391256D01*
X173997460Y-60203000D01*
X173977674Y-60014744D01*
X173919179Y-59834716D01*
X173919179Y-59834715D01*
X173824533Y-59670783D01*
X173806694Y-59650971D01*
X173778527Y-59597997D01*
X173778528Y-59538000D01*
X173806694Y-59485027D01*
X173824533Y-59465216D01*
X173919179Y-59301284D01*
X173977674Y-59121256D01*
X173997460Y-58933000D01*
X173977674Y-58744744D01*
X173919179Y-58564716D01*
X173919179Y-58564715D01*
X173824533Y-58400783D01*
X173697870Y-58260110D01*
X173544730Y-58148848D01*
X173371802Y-58071855D01*
X173186648Y-58032500D01*
X173186646Y-58032500D01*
X172997354Y-58032500D01*
X172997352Y-58032500D01*
X172812197Y-58071855D01*
X172639269Y-58148848D01*
X172486129Y-58260110D01*
X172359466Y-58400783D01*
X172264820Y-58564715D01*
X172206326Y-58744742D01*
X172206325Y-58744744D01*
X172206326Y-58744744D01*
X172186540Y-58933000D01*
X172188651Y-58953084D01*
X172206326Y-59121257D01*
X172264820Y-59301284D01*
X172359466Y-59465215D01*
X172377304Y-59485026D01*
X172405471Y-59537999D01*
X172405472Y-59597995D01*
X172377307Y-59650969D01*
X172359466Y-59670783D01*
X172264820Y-59834715D01*
X172206326Y-60014742D01*
X172186540Y-60203000D01*
X172206326Y-60391257D01*
X172264820Y-60571284D01*
X172359466Y-60735215D01*
X172377304Y-60755026D01*
X172405471Y-60807999D01*
X172405472Y-60867995D01*
X172377307Y-60920969D01*
X172359466Y-60940783D01*
X172264820Y-61104715D01*
X172206326Y-61284742D01*
X172186540Y-61473000D01*
X172206326Y-61661257D01*
X172264820Y-61841284D01*
X172359466Y-62005215D01*
X172377304Y-62025026D01*
X172405471Y-62077999D01*
X172405472Y-62137995D01*
X172377307Y-62190969D01*
X172359466Y-62210783D01*
X172264820Y-62374715D01*
X172206326Y-62554742D01*
X172186540Y-62742999D01*
X172206326Y-62931257D01*
X172264820Y-63111284D01*
X172359466Y-63275215D01*
X172377304Y-63295026D01*
X172405471Y-63347999D01*
X172405472Y-63407995D01*
X172377307Y-63460969D01*
X172359466Y-63480783D01*
X172264820Y-63644715D01*
X172206326Y-63824742D01*
X172186540Y-64012999D01*
X172206326Y-64201257D01*
X172264820Y-64381284D01*
X172359466Y-64545215D01*
X172377304Y-64565026D01*
X172405471Y-64617999D01*
X172405472Y-64677995D01*
X172377307Y-64730969D01*
X172359466Y-64750783D01*
X172264820Y-64914715D01*
X172206326Y-65094742D01*
X172186540Y-65283000D01*
X172206326Y-65471257D01*
X172264820Y-65651284D01*
X172359466Y-65815215D01*
X172377304Y-65835026D01*
X172405471Y-65887999D01*
X172405472Y-65947995D01*
X172377307Y-66000969D01*
X172359466Y-66020783D01*
X172264820Y-66184715D01*
X172206326Y-66364742D01*
X172186540Y-66553000D01*
X167647460Y-66553000D01*
X167627674Y-66364744D01*
X167569179Y-66184716D01*
X167569179Y-66184715D01*
X167474535Y-66020787D01*
X167474534Y-66020786D01*
X167474533Y-66020784D01*
X167456693Y-66000971D01*
X167428527Y-65947999D01*
X167428527Y-65888001D01*
X167456693Y-65835028D01*
X167474533Y-65815216D01*
X167569179Y-65651284D01*
X167627674Y-65471256D01*
X167647460Y-65283000D01*
X169011540Y-65283000D01*
X169031326Y-65471257D01*
X169089820Y-65651284D01*
X169184466Y-65815216D01*
X169311129Y-65955889D01*
X169464269Y-66067151D01*
X169637197Y-66144144D01*
X169822352Y-66183500D01*
X169822354Y-66183500D01*
X170011646Y-66183500D01*
X170011648Y-66183500D01*
X170176328Y-66148496D01*
X170196803Y-66144144D01*
X170369730Y-66067151D01*
X170369730Y-66067150D01*
X170522870Y-65955889D01*
X170556987Y-65917999D01*
X170649533Y-65815216D01*
X170744179Y-65651284D01*
X170802674Y-65471256D01*
X170822460Y-65283000D01*
X170802674Y-65094744D01*
X170744179Y-64914716D01*
X170744179Y-64914715D01*
X170649533Y-64750783D01*
X170631694Y-64730971D01*
X170603527Y-64677997D01*
X170603528Y-64618000D01*
X170631694Y-64565027D01*
X170649533Y-64545216D01*
X170744179Y-64381284D01*
X170802674Y-64201256D01*
X170822460Y-64013000D01*
X170802674Y-63824744D01*
X170744179Y-63644716D01*
X170744179Y-63644715D01*
X170649533Y-63480783D01*
X170631694Y-63460971D01*
X170603527Y-63407997D01*
X170603528Y-63348000D01*
X170631694Y-63295027D01*
X170649533Y-63275216D01*
X170744179Y-63111284D01*
X170802674Y-62931256D01*
X170822460Y-62743000D01*
X170802674Y-62554744D01*
X170744179Y-62374716D01*
X170744179Y-62374715D01*
X170649533Y-62210783D01*
X170631694Y-62190971D01*
X170603527Y-62137997D01*
X170603528Y-62078000D01*
X170631694Y-62025027D01*
X170649533Y-62005216D01*
X170744179Y-61841284D01*
X170802674Y-61661256D01*
X170822460Y-61473000D01*
X170802674Y-61284744D01*
X170744179Y-61104716D01*
X170744179Y-61104715D01*
X170649533Y-60940783D01*
X170631694Y-60920971D01*
X170603527Y-60867997D01*
X170603528Y-60808000D01*
X170631694Y-60755027D01*
X170649533Y-60735216D01*
X170744179Y-60571284D01*
X170802674Y-60391256D01*
X170822460Y-60203000D01*
X170802674Y-60014744D01*
X170744179Y-59834716D01*
X170744179Y-59834715D01*
X170649533Y-59670783D01*
X170522870Y-59530110D01*
X170369730Y-59418848D01*
X170196802Y-59341855D01*
X170011648Y-59302500D01*
X170011646Y-59302500D01*
X169822354Y-59302500D01*
X169822352Y-59302500D01*
X169637197Y-59341855D01*
X169464269Y-59418848D01*
X169311129Y-59530110D01*
X169184466Y-59670783D01*
X169089820Y-59834715D01*
X169031326Y-60014742D01*
X169011540Y-60203000D01*
X169031326Y-60391257D01*
X169089820Y-60571284D01*
X169184466Y-60735215D01*
X169202304Y-60755026D01*
X169230471Y-60807999D01*
X169230472Y-60867995D01*
X169202307Y-60920969D01*
X169184466Y-60940783D01*
X169089820Y-61104715D01*
X169031326Y-61284742D01*
X169011540Y-61473000D01*
X169031326Y-61661257D01*
X169089820Y-61841284D01*
X169184466Y-62005215D01*
X169202304Y-62025026D01*
X169230471Y-62077999D01*
X169230472Y-62137995D01*
X169202307Y-62190969D01*
X169184466Y-62210783D01*
X169089820Y-62374715D01*
X169031326Y-62554742D01*
X169011540Y-62742999D01*
X169031326Y-62931257D01*
X169089820Y-63111284D01*
X169184466Y-63275215D01*
X169202304Y-63295026D01*
X169230471Y-63347999D01*
X169230472Y-63407995D01*
X169202307Y-63460969D01*
X169184466Y-63480783D01*
X169089820Y-63644715D01*
X169031326Y-63824742D01*
X169011540Y-64012999D01*
X169031326Y-64201257D01*
X169089820Y-64381284D01*
X169184466Y-64545215D01*
X169202304Y-64565026D01*
X169230471Y-64617999D01*
X169230472Y-64677995D01*
X169202307Y-64730969D01*
X169184466Y-64750783D01*
X169089820Y-64914715D01*
X169031326Y-65094742D01*
X169011540Y-65283000D01*
X167647460Y-65283000D01*
X167627674Y-65094744D01*
X167569179Y-64914716D01*
X167569179Y-64914715D01*
X167474533Y-64750783D01*
X167456694Y-64730971D01*
X167428527Y-64677997D01*
X167428528Y-64618000D01*
X167456694Y-64565027D01*
X167474533Y-64545216D01*
X167569179Y-64381284D01*
X167627674Y-64201256D01*
X167647460Y-64013000D01*
X167627674Y-63824744D01*
X167569179Y-63644716D01*
X167569179Y-63644715D01*
X167474533Y-63480783D01*
X167456694Y-63460971D01*
X167428527Y-63407997D01*
X167428528Y-63348000D01*
X167456694Y-63295027D01*
X167474533Y-63275216D01*
X167569179Y-63111284D01*
X167627674Y-62931256D01*
X167647460Y-62743000D01*
X167627674Y-62554744D01*
X167569179Y-62374716D01*
X167569179Y-62374715D01*
X167474533Y-62210783D01*
X167456694Y-62190971D01*
X167428527Y-62137997D01*
X167428528Y-62078000D01*
X167456694Y-62025027D01*
X167474533Y-62005216D01*
X167569179Y-61841284D01*
X167627674Y-61661256D01*
X167647460Y-61473000D01*
X167627674Y-61284744D01*
X167569179Y-61104716D01*
X167569179Y-61104715D01*
X167474533Y-60940783D01*
X167456694Y-60920971D01*
X167428527Y-60867997D01*
X167428528Y-60808000D01*
X167456694Y-60755027D01*
X167474533Y-60735216D01*
X167569179Y-60571284D01*
X167627674Y-60391256D01*
X167647460Y-60203000D01*
X167627674Y-60014744D01*
X167569179Y-59834716D01*
X167569179Y-59834715D01*
X167474533Y-59670783D01*
X167456694Y-59650971D01*
X167428527Y-59597997D01*
X167428528Y-59538000D01*
X167456694Y-59485027D01*
X167474533Y-59465216D01*
X167569179Y-59301284D01*
X167627674Y-59121256D01*
X167647460Y-58933000D01*
X167627674Y-58744744D01*
X167569179Y-58564716D01*
X167569179Y-58564715D01*
X167474533Y-58400783D01*
X167347870Y-58260110D01*
X167194730Y-58148848D01*
X167021802Y-58071855D01*
X166836648Y-58032500D01*
X166836646Y-58032500D01*
X166647354Y-58032500D01*
X166647352Y-58032500D01*
X166462197Y-58071855D01*
X166289269Y-58148848D01*
X166136129Y-58260110D01*
X166009466Y-58400783D01*
X165914820Y-58564715D01*
X165856326Y-58744742D01*
X165856325Y-58744744D01*
X165856326Y-58744744D01*
X165836540Y-58933000D01*
X165838651Y-58953084D01*
X165856326Y-59121257D01*
X165914820Y-59301284D01*
X166009466Y-59465215D01*
X166027304Y-59485026D01*
X166055471Y-59537999D01*
X166055472Y-59597995D01*
X166027307Y-59650969D01*
X166009466Y-59670783D01*
X165914820Y-59834715D01*
X165856326Y-60014742D01*
X165836540Y-60203000D01*
X165856326Y-60391257D01*
X165914820Y-60571284D01*
X166009466Y-60735215D01*
X166027304Y-60755026D01*
X166055471Y-60807999D01*
X166055472Y-60867995D01*
X166027307Y-60920969D01*
X166009466Y-60940783D01*
X165914820Y-61104715D01*
X165856326Y-61284742D01*
X165836540Y-61473000D01*
X165856326Y-61661257D01*
X165914820Y-61841284D01*
X166009466Y-62005215D01*
X166027304Y-62025026D01*
X166055471Y-62077999D01*
X166055472Y-62137995D01*
X166027307Y-62190969D01*
X166009466Y-62210783D01*
X165914820Y-62374715D01*
X165856326Y-62554742D01*
X165836540Y-62742999D01*
X165856326Y-62931257D01*
X165914820Y-63111284D01*
X166009466Y-63275215D01*
X166027304Y-63295026D01*
X166055471Y-63347999D01*
X166055472Y-63407995D01*
X166027307Y-63460969D01*
X166009466Y-63480783D01*
X165914820Y-63644715D01*
X165856326Y-63824742D01*
X165836540Y-64012999D01*
X165856326Y-64201257D01*
X165914820Y-64381284D01*
X166009466Y-64545215D01*
X166027304Y-64565026D01*
X166055471Y-64617999D01*
X166055472Y-64677995D01*
X166027307Y-64730969D01*
X166009466Y-64750783D01*
X165914820Y-64914715D01*
X165856326Y-65094742D01*
X165836540Y-65283000D01*
X165856326Y-65471257D01*
X165914820Y-65651284D01*
X166009466Y-65815215D01*
X166027304Y-65835026D01*
X166055471Y-65887999D01*
X166055472Y-65947995D01*
X166027307Y-66000969D01*
X166009466Y-66020783D01*
X165914820Y-66184715D01*
X165856326Y-66364742D01*
X165836540Y-66553000D01*
X159808527Y-66553000D01*
X159808527Y-66523001D01*
X159836693Y-66470028D01*
X159854533Y-66450216D01*
X159949179Y-66286284D01*
X160007674Y-66106256D01*
X160027460Y-65918000D01*
X160007674Y-65729744D01*
X159949179Y-65549716D01*
X159949179Y-65549715D01*
X159854533Y-65385783D01*
X159836694Y-65365971D01*
X159808527Y-65312997D01*
X159808528Y-65253000D01*
X159836694Y-65200027D01*
X159854533Y-65180216D01*
X159949179Y-65016284D01*
X160007674Y-64836256D01*
X160027460Y-64648000D01*
X160007674Y-64459744D01*
X159949179Y-64279716D01*
X159949179Y-64279715D01*
X159854533Y-64115783D01*
X159836694Y-64095971D01*
X159808527Y-64042996D01*
X159808528Y-63982998D01*
X159836696Y-63930025D01*
X159854533Y-63910216D01*
X159949179Y-63746284D01*
X160007674Y-63566256D01*
X160027460Y-63378000D01*
X160007674Y-63189744D01*
X159949179Y-63009716D01*
X159949179Y-63009715D01*
X159854535Y-62845787D01*
X159854534Y-62845786D01*
X159854533Y-62845784D01*
X159836693Y-62825971D01*
X159808527Y-62772999D01*
X159808527Y-62713001D01*
X159836693Y-62660028D01*
X159854533Y-62640216D01*
X159949179Y-62476284D01*
X160007674Y-62296256D01*
X160027460Y-62108000D01*
X160007674Y-61919744D01*
X159949179Y-61739716D01*
X159949179Y-61739715D01*
X159854535Y-61575787D01*
X159854534Y-61575786D01*
X159854533Y-61575784D01*
X159836693Y-61555971D01*
X159808527Y-61502999D01*
X159808527Y-61443001D01*
X159836693Y-61390028D01*
X159854533Y-61370216D01*
X159949179Y-61206284D01*
X160007674Y-61026256D01*
X160027460Y-60838000D01*
X160007674Y-60649744D01*
X159949179Y-60469716D01*
X159949179Y-60469715D01*
X159854533Y-60305783D01*
X159836694Y-60285971D01*
X159808527Y-60232996D01*
X159808528Y-60172998D01*
X159836696Y-60120025D01*
X159854533Y-60100216D01*
X159949179Y-59936284D01*
X160007674Y-59756256D01*
X160027460Y-59568000D01*
X160007674Y-59379744D01*
X159949179Y-59199716D01*
X159949179Y-59199715D01*
X159854535Y-59035787D01*
X159854534Y-59035786D01*
X159854533Y-59035784D01*
X159836693Y-59015971D01*
X159808527Y-58962999D01*
X159808527Y-58903001D01*
X159836693Y-58850028D01*
X159854533Y-58830216D01*
X159949179Y-58666284D01*
X160007674Y-58486256D01*
X160027460Y-58298000D01*
X160007674Y-58109744D01*
X159968466Y-57989075D01*
X159949179Y-57929715D01*
X159854533Y-57765783D01*
X159727870Y-57625110D01*
X159574730Y-57513848D01*
X159401802Y-57436855D01*
X159216648Y-57397500D01*
X159216646Y-57397500D01*
X159027354Y-57397500D01*
X159027351Y-57397500D01*
X158863004Y-57432432D01*
X158798905Y-57429073D01*
X158745073Y-57394114D01*
X158715934Y-57336922D01*
X158719292Y-57272827D01*
X158737674Y-57216256D01*
X158757460Y-57028000D01*
X158737674Y-56839744D01*
X158707332Y-56746363D01*
X158679179Y-56659715D01*
X158584533Y-56495783D01*
X158457870Y-56355110D01*
X158304730Y-56243848D01*
X158131802Y-56166855D01*
X157946648Y-56127500D01*
X157946646Y-56127500D01*
X157757354Y-56127500D01*
X157757352Y-56127500D01*
X157572197Y-56166855D01*
X157399269Y-56243848D01*
X157289885Y-56323321D01*
X157242781Y-56344293D01*
X157191219Y-56344293D01*
X157144115Y-56323321D01*
X157034730Y-56243848D01*
X156861802Y-56166855D01*
X156676648Y-56127500D01*
X156676646Y-56127500D01*
X156487354Y-56127500D01*
X156487352Y-56127500D01*
X156302197Y-56166855D01*
X156129269Y-56243848D01*
X156019885Y-56323321D01*
X155972781Y-56344293D01*
X155921219Y-56344293D01*
X155874115Y-56323321D01*
X155764730Y-56243848D01*
X155591802Y-56166855D01*
X155406648Y-56127500D01*
X155406646Y-56127500D01*
X155217354Y-56127500D01*
X155217352Y-56127500D01*
X155032197Y-56166855D01*
X154859269Y-56243848D01*
X154749885Y-56323321D01*
X154702781Y-56344293D01*
X154651219Y-56344293D01*
X154604115Y-56323321D01*
X154494730Y-56243848D01*
X154321802Y-56166855D01*
X154136648Y-56127500D01*
X154136646Y-56127500D01*
X153947354Y-56127500D01*
X153947352Y-56127500D01*
X153762197Y-56166855D01*
X153589269Y-56243848D01*
X153479885Y-56323321D01*
X153432781Y-56344293D01*
X153381219Y-56344293D01*
X153334115Y-56323321D01*
X153224730Y-56243848D01*
X153051802Y-56166855D01*
X152866648Y-56127500D01*
X152866646Y-56127500D01*
X152677354Y-56127500D01*
X152677352Y-56127500D01*
X152492197Y-56166855D01*
X152319269Y-56243848D01*
X152209885Y-56323321D01*
X152162781Y-56344293D01*
X152111219Y-56344293D01*
X152064115Y-56323321D01*
X151954730Y-56243848D01*
X151781802Y-56166855D01*
X151596648Y-56127500D01*
X151596646Y-56127500D01*
X151407354Y-56127500D01*
X151407352Y-56127500D01*
X151222197Y-56166855D01*
X151049269Y-56243848D01*
X150939885Y-56323321D01*
X150892781Y-56344293D01*
X150841219Y-56344293D01*
X150794115Y-56323321D01*
X150684730Y-56243848D01*
X150511802Y-56166855D01*
X150326648Y-56127500D01*
X150326646Y-56127500D01*
X150137354Y-56127500D01*
X150137352Y-56127500D01*
X149952197Y-56166855D01*
X149779269Y-56243848D01*
X149626127Y-56355112D01*
X149625647Y-56355646D01*
X149623832Y-56356779D01*
X149615585Y-56362772D01*
X149615165Y-56362195D01*
X149567678Y-56391868D01*
X149499322Y-56391868D01*
X149451834Y-56362195D01*
X149451415Y-56362772D01*
X149443167Y-56356779D01*
X149441353Y-56355646D01*
X149440872Y-56355112D01*
X149287730Y-56243848D01*
X149114802Y-56166855D01*
X148929648Y-56127500D01*
X148929646Y-56127500D01*
X148740354Y-56127500D01*
X148740352Y-56127500D01*
X148555197Y-56166855D01*
X148382272Y-56243846D01*
X148243504Y-56344667D01*
X148186159Y-56367370D01*
X148124971Y-56359640D01*
X148075075Y-56323388D01*
X148048815Y-56267582D01*
X148052687Y-56206034D01*
X148069674Y-56153756D01*
X148089460Y-55965500D01*
X148069674Y-55777244D01*
X148014959Y-55608849D01*
X148011179Y-55597215D01*
X147916535Y-55433286D01*
X147895642Y-55410082D01*
X147789871Y-55292612D01*
X147789867Y-55292609D01*
X147784342Y-55286473D01*
X147756175Y-55233499D01*
X147756175Y-55173501D01*
X147784342Y-55120527D01*
X147789867Y-55114390D01*
X147789871Y-55114388D01*
X147916533Y-54973716D01*
X148011179Y-54809784D01*
X148069674Y-54629756D01*
X148089460Y-54441500D01*
X148069674Y-54253244D01*
X148011179Y-54073216D01*
X148011179Y-54073215D01*
X147916533Y-53909283D01*
X147789870Y-53768610D01*
X147636730Y-53657348D01*
X147463802Y-53580355D01*
X147278648Y-53541000D01*
X147278646Y-53541000D01*
X147089354Y-53541000D01*
X147089352Y-53541000D01*
X146904201Y-53580354D01*
X146726436Y-53659501D01*
X146676000Y-53670221D01*
X146625564Y-53659501D01*
X146530205Y-53617044D01*
X146447803Y-53580356D01*
X146447802Y-53580355D01*
X146447798Y-53580354D01*
X146262648Y-53541000D01*
X146262646Y-53541000D01*
X146073354Y-53541000D01*
X146073352Y-53541000D01*
X145888201Y-53580354D01*
X145710436Y-53659501D01*
X145660000Y-53670221D01*
X145609564Y-53659501D01*
X145514205Y-53617044D01*
X145431803Y-53580356D01*
X145431802Y-53580355D01*
X145431798Y-53580354D01*
X145246648Y-53541000D01*
X145246646Y-53541000D01*
X145057354Y-53541000D01*
X145057352Y-53541000D01*
X144872197Y-53580355D01*
X144699269Y-53657348D01*
X144546129Y-53768610D01*
X144419466Y-53909283D01*
X144324820Y-54073215D01*
X144266326Y-54253242D01*
X144246540Y-54441500D01*
X127770394Y-54441500D01*
X127856421Y-54246667D01*
X127991605Y-53843331D01*
X128088998Y-53429243D01*
X128147768Y-53007934D01*
X128167414Y-52583000D01*
X128167414Y-52582999D01*
X163406586Y-52582999D01*
X163426232Y-53007937D01*
X163485002Y-53429246D01*
X163582393Y-53843327D01*
X163717577Y-54246663D01*
X163889404Y-54635815D01*
X163966093Y-54773497D01*
X164096398Y-55007438D01*
X164169661Y-55114389D01*
X164336803Y-55358387D01*
X164608557Y-55685647D01*
X164909352Y-55986442D01*
X165236612Y-56258196D01*
X165236618Y-56258200D01*
X165587562Y-56498602D01*
X165587566Y-56498604D01*
X165959184Y-56705595D01*
X165959186Y-56705596D01*
X165959190Y-56705598D01*
X166348333Y-56877421D01*
X166348336Y-56877422D01*
X166751672Y-57012606D01*
X167024213Y-57076707D01*
X167165757Y-57109998D01*
X167587066Y-57168768D01*
X168012000Y-57188414D01*
X168436934Y-57168768D01*
X168858243Y-57109998D01*
X169272331Y-57012605D01*
X169675667Y-56877421D01*
X170064810Y-56705598D01*
X170436438Y-56498602D01*
X170787382Y-56258200D01*
X170804666Y-56243848D01*
X171114647Y-55986442D01*
X171415442Y-55685647D01*
X171687196Y-55358387D01*
X171687196Y-55358385D01*
X171687200Y-55358382D01*
X171927602Y-55007438D01*
X172134598Y-54635810D01*
X172306421Y-54246667D01*
X172441605Y-53843331D01*
X172538998Y-53429243D01*
X172597768Y-53007934D01*
X172617414Y-52583000D01*
X172597768Y-52158066D01*
X172538998Y-51736757D01*
X172441605Y-51322669D01*
X172306421Y-50919333D01*
X172134598Y-50530190D01*
X171927602Y-50158562D01*
X171687200Y-49807618D01*
X171687196Y-49807612D01*
X171415442Y-49480352D01*
X171114647Y-49179557D01*
X170787387Y-48907803D01*
X170611909Y-48787598D01*
X170436438Y-48667398D01*
X170358253Y-48623849D01*
X170064815Y-48460404D01*
X169675663Y-48288577D01*
X169272327Y-48153393D01*
X168858246Y-48056002D01*
X168436937Y-47997232D01*
X168012000Y-47977586D01*
X167587062Y-47997232D01*
X167165753Y-48056002D01*
X166751672Y-48153393D01*
X166348336Y-48288577D01*
X165959184Y-48460404D01*
X165587566Y-48667395D01*
X165236612Y-48907803D01*
X164909352Y-49179557D01*
X164608557Y-49480352D01*
X164336803Y-49807612D01*
X164096395Y-50158566D01*
X163889404Y-50530184D01*
X163717577Y-50919336D01*
X163582393Y-51322672D01*
X163485002Y-51736753D01*
X163426232Y-52158062D01*
X163406586Y-52582999D01*
X128167414Y-52582999D01*
X128147768Y-52158066D01*
X128088998Y-51736757D01*
X128068005Y-51647499D01*
X143484540Y-51647499D01*
X143504326Y-51835757D01*
X143562820Y-52015784D01*
X143657466Y-52179716D01*
X143784129Y-52320389D01*
X143937269Y-52431651D01*
X144110197Y-52508644D01*
X144295352Y-52548000D01*
X144295354Y-52548000D01*
X144484646Y-52548000D01*
X144484648Y-52548000D01*
X144608084Y-52521762D01*
X144669803Y-52508644D01*
X144842730Y-52431651D01*
X144995871Y-52320388D01*
X145122533Y-52179716D01*
X145217179Y-52015784D01*
X145275674Y-51835756D01*
X145295460Y-51647500D01*
X145275674Y-51459244D01*
X145231298Y-51322669D01*
X145217179Y-51279215D01*
X145122533Y-51115283D01*
X144995870Y-50974610D01*
X144842730Y-50863348D01*
X144669802Y-50786355D01*
X144484648Y-50747000D01*
X144484646Y-50747000D01*
X144295354Y-50747000D01*
X144295352Y-50747000D01*
X144110197Y-50786355D01*
X143937269Y-50863348D01*
X143784129Y-50974610D01*
X143657466Y-51115283D01*
X143562820Y-51279215D01*
X143504326Y-51459242D01*
X143484540Y-51647499D01*
X128068005Y-51647499D01*
X127991605Y-51322669D01*
X127856421Y-50919333D01*
X127684598Y-50530190D01*
X127477602Y-50158562D01*
X127237200Y-49807618D01*
X127237196Y-49807612D01*
X126965442Y-49480352D01*
X126893090Y-49408000D01*
X132816540Y-49408000D01*
X132836326Y-49596257D01*
X132894820Y-49776284D01*
X132989466Y-49940216D01*
X133116129Y-50080889D01*
X133269269Y-50192151D01*
X133442197Y-50269144D01*
X133627352Y-50308500D01*
X133627354Y-50308500D01*
X133816646Y-50308500D01*
X133816648Y-50308500D01*
X133940083Y-50282262D01*
X134001803Y-50269144D01*
X134174730Y-50192151D01*
X134220956Y-50158566D01*
X134284115Y-50112679D01*
X134331219Y-50091707D01*
X134382781Y-50091707D01*
X134429885Y-50112679D01*
X134539269Y-50192151D01*
X134712197Y-50269144D01*
X134897352Y-50308500D01*
X134897354Y-50308500D01*
X135086646Y-50308500D01*
X135086648Y-50308500D01*
X135210083Y-50282262D01*
X135271803Y-50269144D01*
X135444730Y-50192151D01*
X135490956Y-50158566D01*
X135554115Y-50112679D01*
X135601219Y-50091707D01*
X135652781Y-50091707D01*
X135699885Y-50112679D01*
X135809269Y-50192151D01*
X135982197Y-50269144D01*
X136167352Y-50308500D01*
X136167354Y-50308500D01*
X136356646Y-50308500D01*
X136356648Y-50308500D01*
X136480083Y-50282262D01*
X136541803Y-50269144D01*
X136714730Y-50192151D01*
X136760956Y-50158566D01*
X136824115Y-50112679D01*
X136871219Y-50091707D01*
X136922781Y-50091707D01*
X136969885Y-50112679D01*
X137079269Y-50192151D01*
X137252197Y-50269144D01*
X137437352Y-50308500D01*
X137437354Y-50308500D01*
X137626646Y-50308500D01*
X137626648Y-50308500D01*
X137750083Y-50282262D01*
X137811803Y-50269144D01*
X137984730Y-50192151D01*
X138030956Y-50158566D01*
X138094115Y-50112679D01*
X138141219Y-50091707D01*
X138192781Y-50091707D01*
X138239885Y-50112679D01*
X138349269Y-50192151D01*
X138522197Y-50269144D01*
X138707352Y-50308500D01*
X138707354Y-50308500D01*
X138896646Y-50308500D01*
X138896648Y-50308500D01*
X139020083Y-50282262D01*
X139081803Y-50269144D01*
X139254730Y-50192151D01*
X139300956Y-50158566D01*
X139364115Y-50112679D01*
X139411219Y-50091707D01*
X139462781Y-50091707D01*
X139509885Y-50112679D01*
X139619269Y-50192151D01*
X139792197Y-50269144D01*
X139977352Y-50308500D01*
X139977354Y-50308500D01*
X140166646Y-50308500D01*
X140166648Y-50308500D01*
X140290083Y-50282262D01*
X140351803Y-50269144D01*
X140524730Y-50192151D01*
X140570956Y-50158566D01*
X140634115Y-50112679D01*
X140681219Y-50091707D01*
X140732781Y-50091707D01*
X140779885Y-50112679D01*
X140889269Y-50192151D01*
X141062197Y-50269144D01*
X141247352Y-50308500D01*
X141247354Y-50308500D01*
X141436646Y-50308500D01*
X141436648Y-50308500D01*
X141560083Y-50282262D01*
X141621803Y-50269144D01*
X141794730Y-50192151D01*
X141840956Y-50158566D01*
X141947870Y-50080889D01*
X142074533Y-49940216D01*
X142169179Y-49776284D01*
X142169179Y-49776283D01*
X142227674Y-49596256D01*
X142247460Y-49408000D01*
X142227674Y-49219744D01*
X142169179Y-49039716D01*
X142169179Y-49039715D01*
X142074533Y-48875783D01*
X141947870Y-48735110D01*
X141794730Y-48623848D01*
X141621802Y-48546855D01*
X141436648Y-48507500D01*
X141436646Y-48507500D01*
X141247354Y-48507500D01*
X141247352Y-48507500D01*
X141062197Y-48546855D01*
X140889269Y-48623848D01*
X140779885Y-48703321D01*
X140732781Y-48724293D01*
X140681219Y-48724293D01*
X140634115Y-48703321D01*
X140524730Y-48623848D01*
X140351802Y-48546855D01*
X140166648Y-48507500D01*
X140166646Y-48507500D01*
X139977354Y-48507500D01*
X139977352Y-48507500D01*
X139792197Y-48546855D01*
X139619269Y-48623848D01*
X139509885Y-48703321D01*
X139462781Y-48724293D01*
X139411219Y-48724293D01*
X139364115Y-48703321D01*
X139254730Y-48623848D01*
X139081802Y-48546855D01*
X138896648Y-48507500D01*
X138896646Y-48507500D01*
X138707354Y-48507500D01*
X138707352Y-48507500D01*
X138522197Y-48546855D01*
X138349269Y-48623848D01*
X138239885Y-48703321D01*
X138192781Y-48724293D01*
X138141219Y-48724293D01*
X138094115Y-48703321D01*
X137984730Y-48623848D01*
X137811802Y-48546855D01*
X137626648Y-48507500D01*
X137626646Y-48507500D01*
X137437354Y-48507500D01*
X137437352Y-48507500D01*
X137252197Y-48546855D01*
X137079269Y-48623848D01*
X136969885Y-48703321D01*
X136922781Y-48724293D01*
X136871219Y-48724293D01*
X136824115Y-48703321D01*
X136714730Y-48623848D01*
X136541802Y-48546855D01*
X136356648Y-48507500D01*
X136356646Y-48507500D01*
X136167354Y-48507500D01*
X136167352Y-48507500D01*
X135982197Y-48546855D01*
X135809269Y-48623848D01*
X135699885Y-48703321D01*
X135652781Y-48724293D01*
X135601219Y-48724293D01*
X135554115Y-48703321D01*
X135444730Y-48623848D01*
X135271802Y-48546855D01*
X135086648Y-48507500D01*
X135086646Y-48507500D01*
X134897354Y-48507500D01*
X134897352Y-48507500D01*
X134712197Y-48546855D01*
X134539269Y-48623848D01*
X134429885Y-48703321D01*
X134382781Y-48724293D01*
X134331219Y-48724293D01*
X134284115Y-48703321D01*
X134174730Y-48623848D01*
X134001802Y-48546855D01*
X133816648Y-48507500D01*
X133816646Y-48507500D01*
X133627354Y-48507500D01*
X133627352Y-48507500D01*
X133442197Y-48546855D01*
X133269269Y-48623848D01*
X133116129Y-48735110D01*
X132989466Y-48875783D01*
X132894820Y-49039715D01*
X132836326Y-49219742D01*
X132816540Y-49408000D01*
X126893090Y-49408000D01*
X126664647Y-49179557D01*
X126337387Y-48907803D01*
X126161909Y-48787598D01*
X125986438Y-48667398D01*
X125908253Y-48623849D01*
X125614815Y-48460404D01*
X125225663Y-48288577D01*
X124822327Y-48153393D01*
X124408246Y-48056002D01*
X123986937Y-47997232D01*
X123562000Y-47977586D01*
X123137062Y-47997232D01*
X122715753Y-48056002D01*
X122301672Y-48153393D01*
X121898336Y-48288577D01*
X121509184Y-48460404D01*
X121137566Y-48667395D01*
X120786612Y-48907803D01*
X120459352Y-49179557D01*
X120186405Y-49452504D01*
X120135425Y-49483267D01*
X120075982Y-49486720D01*
X120021783Y-49462065D01*
X119985325Y-49414989D01*
X119975014Y-49356345D01*
X119993228Y-49299658D01*
X120211302Y-48946629D01*
X120213656Y-48942965D01*
X120816125Y-48041307D01*
X120818603Y-48037737D01*
X121452888Y-47158132D01*
X121455501Y-47154642D01*
X122120761Y-46298257D01*
X122123472Y-46294893D01*
X122175198Y-46232999D01*
X134086540Y-46232999D01*
X134106326Y-46421257D01*
X134164820Y-46601284D01*
X134259466Y-46765216D01*
X134386129Y-46905889D01*
X134539269Y-47017151D01*
X134712197Y-47094144D01*
X134897352Y-47133500D01*
X134897354Y-47133500D01*
X135086646Y-47133500D01*
X135086648Y-47133500D01*
X135210084Y-47107262D01*
X135271803Y-47094144D01*
X135444730Y-47017151D01*
X135444729Y-47017151D01*
X135554115Y-46937679D01*
X135601219Y-46916707D01*
X135652781Y-46916707D01*
X135699885Y-46937679D01*
X135809269Y-47017151D01*
X135982197Y-47094144D01*
X136167352Y-47133500D01*
X136167354Y-47133500D01*
X136356646Y-47133500D01*
X136356648Y-47133500D01*
X136480084Y-47107262D01*
X136541803Y-47094144D01*
X136714730Y-47017151D01*
X136714729Y-47017151D01*
X136824115Y-46937679D01*
X136871219Y-46916707D01*
X136922781Y-46916707D01*
X136969885Y-46937679D01*
X137079269Y-47017151D01*
X137252197Y-47094144D01*
X137437352Y-47133500D01*
X137437354Y-47133500D01*
X137626646Y-47133500D01*
X137626648Y-47133500D01*
X137750084Y-47107262D01*
X137811803Y-47094144D01*
X137984730Y-47017151D01*
X137984729Y-47017151D01*
X138094115Y-46937679D01*
X138141219Y-46916707D01*
X138192781Y-46916707D01*
X138239885Y-46937679D01*
X138349269Y-47017151D01*
X138522197Y-47094144D01*
X138707352Y-47133500D01*
X138707354Y-47133500D01*
X138896646Y-47133500D01*
X138896648Y-47133500D01*
X139020084Y-47107262D01*
X139081803Y-47094144D01*
X139254730Y-47017151D01*
X139254729Y-47017151D01*
X139364115Y-46937679D01*
X139411219Y-46916707D01*
X139462781Y-46916707D01*
X139509885Y-46937679D01*
X139619269Y-47017151D01*
X139792197Y-47094144D01*
X139977352Y-47133500D01*
X139977354Y-47133500D01*
X140166646Y-47133500D01*
X140166648Y-47133500D01*
X140290084Y-47107262D01*
X140351803Y-47094144D01*
X140524730Y-47017151D01*
X140524730Y-47017150D01*
X140677870Y-46905889D01*
X140804533Y-46765216D01*
X140899179Y-46601284D01*
X140899178Y-46601284D01*
X140957674Y-46421256D01*
X140977460Y-46233000D01*
X140957674Y-46044744D01*
X140899179Y-45864716D01*
X140899179Y-45864715D01*
X140804533Y-45700783D01*
X140677870Y-45560110D01*
X140524730Y-45448848D01*
X140351802Y-45371855D01*
X140166648Y-45332500D01*
X140166646Y-45332500D01*
X139977354Y-45332500D01*
X139977352Y-45332500D01*
X139792197Y-45371855D01*
X139619269Y-45448848D01*
X139509885Y-45528321D01*
X139462781Y-45549293D01*
X139411219Y-45549293D01*
X139364115Y-45528321D01*
X139254730Y-45448848D01*
X139081802Y-45371855D01*
X138896648Y-45332500D01*
X138896646Y-45332500D01*
X138707354Y-45332500D01*
X138707352Y-45332500D01*
X138522197Y-45371855D01*
X138349269Y-45448848D01*
X138239885Y-45528321D01*
X138192781Y-45549293D01*
X138141219Y-45549293D01*
X138094115Y-45528321D01*
X137984730Y-45448848D01*
X137811802Y-45371855D01*
X137626648Y-45332500D01*
X137626646Y-45332500D01*
X137437354Y-45332500D01*
X137437352Y-45332500D01*
X137252197Y-45371855D01*
X137079269Y-45448848D01*
X136969885Y-45528321D01*
X136922781Y-45549293D01*
X136871219Y-45549293D01*
X136824115Y-45528321D01*
X136714730Y-45448848D01*
X136541802Y-45371855D01*
X136356648Y-45332500D01*
X136356646Y-45332500D01*
X136167354Y-45332500D01*
X136167352Y-45332500D01*
X135982197Y-45371855D01*
X135809269Y-45448848D01*
X135699885Y-45528321D01*
X135652781Y-45549293D01*
X135601219Y-45549293D01*
X135554115Y-45528321D01*
X135444730Y-45448848D01*
X135271802Y-45371855D01*
X135086648Y-45332500D01*
X135086646Y-45332500D01*
X134897354Y-45332500D01*
X134897352Y-45332500D01*
X134712197Y-45371855D01*
X134539269Y-45448848D01*
X134386129Y-45560110D01*
X134259466Y-45700783D01*
X134164820Y-45864715D01*
X134106326Y-46044742D01*
X134086540Y-46232999D01*
X122175198Y-46232999D01*
X122818882Y-45462790D01*
X122821695Y-45459543D01*
X123546420Y-44652725D01*
X123549363Y-44649566D01*
X124302373Y-43869182D01*
X124305398Y-43866157D01*
X125085782Y-43113147D01*
X125088941Y-43110204D01*
X125147058Y-43058000D01*
X132816540Y-43058000D01*
X132836326Y-43246257D01*
X132894820Y-43426284D01*
X132989466Y-43590216D01*
X133116129Y-43730889D01*
X133269269Y-43842151D01*
X133442197Y-43919144D01*
X133627352Y-43958500D01*
X133627354Y-43958500D01*
X133816646Y-43958500D01*
X133816648Y-43958500D01*
X133940084Y-43932262D01*
X134001803Y-43919144D01*
X134174730Y-43842151D01*
X134174729Y-43842151D01*
X134284115Y-43762679D01*
X134331219Y-43741707D01*
X134382781Y-43741707D01*
X134429885Y-43762679D01*
X134539269Y-43842151D01*
X134712197Y-43919144D01*
X134897352Y-43958500D01*
X134897354Y-43958500D01*
X135086646Y-43958500D01*
X135086648Y-43958500D01*
X135210084Y-43932262D01*
X135271803Y-43919144D01*
X135444730Y-43842151D01*
X135444729Y-43842151D01*
X135554115Y-43762679D01*
X135601219Y-43741707D01*
X135652781Y-43741707D01*
X135699885Y-43762679D01*
X135809269Y-43842151D01*
X135982197Y-43919144D01*
X136167352Y-43958500D01*
X136167354Y-43958500D01*
X136356646Y-43958500D01*
X136356648Y-43958500D01*
X136480084Y-43932262D01*
X136541803Y-43919144D01*
X136714730Y-43842151D01*
X136714729Y-43842151D01*
X136824115Y-43762679D01*
X136871219Y-43741707D01*
X136922781Y-43741707D01*
X136969885Y-43762679D01*
X137079269Y-43842151D01*
X137252197Y-43919144D01*
X137437352Y-43958500D01*
X137437354Y-43958500D01*
X137626646Y-43958500D01*
X137626648Y-43958500D01*
X137750084Y-43932262D01*
X137811803Y-43919144D01*
X137984730Y-43842151D01*
X137984729Y-43842151D01*
X138094115Y-43762679D01*
X138141219Y-43741707D01*
X138192781Y-43741707D01*
X138239885Y-43762679D01*
X138349269Y-43842151D01*
X138522197Y-43919144D01*
X138707352Y-43958500D01*
X138707354Y-43958500D01*
X138896646Y-43958500D01*
X138896648Y-43958500D01*
X139020084Y-43932262D01*
X139081803Y-43919144D01*
X139254730Y-43842151D01*
X139254729Y-43842151D01*
X139364115Y-43762679D01*
X139411219Y-43741707D01*
X139462781Y-43741707D01*
X139509885Y-43762679D01*
X139619269Y-43842151D01*
X139792197Y-43919144D01*
X139977352Y-43958500D01*
X139977354Y-43958500D01*
X140166646Y-43958500D01*
X140166648Y-43958500D01*
X140290084Y-43932262D01*
X140351803Y-43919144D01*
X140524730Y-43842151D01*
X140524729Y-43842151D01*
X140634115Y-43762679D01*
X140681219Y-43741707D01*
X140732781Y-43741707D01*
X140779885Y-43762679D01*
X140889269Y-43842151D01*
X141062197Y-43919144D01*
X141247352Y-43958500D01*
X141247354Y-43958500D01*
X141436646Y-43958500D01*
X141436648Y-43958500D01*
X141560084Y-43932262D01*
X141621803Y-43919144D01*
X141794730Y-43842151D01*
X141794729Y-43842151D01*
X141947870Y-43730889D01*
X142074533Y-43590216D01*
X142169179Y-43426284D01*
X142169179Y-43426283D01*
X142227674Y-43246256D01*
X142247460Y-43058000D01*
X142227674Y-42869744D01*
X142169179Y-42689716D01*
X142169179Y-42689715D01*
X142074533Y-42525783D01*
X141947870Y-42385110D01*
X141794730Y-42273848D01*
X141621802Y-42196855D01*
X141436648Y-42157500D01*
X141436646Y-42157500D01*
X141247354Y-42157500D01*
X141247352Y-42157500D01*
X141062197Y-42196855D01*
X140889269Y-42273848D01*
X140779885Y-42353321D01*
X140732781Y-42374293D01*
X140681219Y-42374293D01*
X140634115Y-42353321D01*
X140524730Y-42273848D01*
X140351802Y-42196855D01*
X140166648Y-42157500D01*
X140166646Y-42157500D01*
X139977354Y-42157500D01*
X139977352Y-42157500D01*
X139792197Y-42196855D01*
X139619269Y-42273848D01*
X139509885Y-42353321D01*
X139462781Y-42374293D01*
X139411219Y-42374293D01*
X139364115Y-42353321D01*
X139254730Y-42273848D01*
X139081802Y-42196855D01*
X138896648Y-42157500D01*
X138896646Y-42157500D01*
X138707354Y-42157500D01*
X138707352Y-42157500D01*
X138522197Y-42196855D01*
X138349269Y-42273848D01*
X138239885Y-42353321D01*
X138192781Y-42374293D01*
X138141219Y-42374293D01*
X138094115Y-42353321D01*
X137984730Y-42273848D01*
X137811802Y-42196855D01*
X137626648Y-42157500D01*
X137626646Y-42157500D01*
X137437354Y-42157500D01*
X137437352Y-42157500D01*
X137252197Y-42196855D01*
X137079269Y-42273848D01*
X136969885Y-42353321D01*
X136922781Y-42374293D01*
X136871219Y-42374293D01*
X136824115Y-42353321D01*
X136714730Y-42273848D01*
X136541802Y-42196855D01*
X136356648Y-42157500D01*
X136356646Y-42157500D01*
X136167354Y-42157500D01*
X136167352Y-42157500D01*
X135982197Y-42196855D01*
X135809269Y-42273848D01*
X135699885Y-42353321D01*
X135652781Y-42374293D01*
X135601219Y-42374293D01*
X135554115Y-42353321D01*
X135444730Y-42273848D01*
X135271802Y-42196855D01*
X135086648Y-42157500D01*
X135086646Y-42157500D01*
X134897354Y-42157500D01*
X134897352Y-42157500D01*
X134712197Y-42196855D01*
X134539269Y-42273848D01*
X134429885Y-42353321D01*
X134382781Y-42374293D01*
X134331219Y-42374293D01*
X134284115Y-42353321D01*
X134174730Y-42273848D01*
X134001802Y-42196855D01*
X133816648Y-42157500D01*
X133816646Y-42157500D01*
X133659948Y-42157500D01*
X133608883Y-42144456D01*
X133607497Y-42146413D01*
X133552832Y-42173339D01*
X133442197Y-42196855D01*
X133269269Y-42273848D01*
X133116129Y-42385110D01*
X132989466Y-42525783D01*
X132894820Y-42689715D01*
X132836326Y-42869742D01*
X132816540Y-43058000D01*
X125147058Y-43058000D01*
X125895759Y-42385479D01*
X125899006Y-42382666D01*
X126731109Y-41687256D01*
X126734473Y-41684545D01*
X127590858Y-41019285D01*
X127594348Y-41016672D01*
X128473953Y-40382387D01*
X128477523Y-40379909D01*
X129138265Y-39938414D01*
X129197234Y-39917915D01*
X129258718Y-39928746D01*
X129307131Y-39968162D01*
X129505542Y-40238576D01*
X129792423Y-40561224D01*
X130108263Y-40855596D01*
X130400372Y-41080647D01*
X130450274Y-41119093D01*
X130815459Y-41349408D01*
X131200606Y-41544514D01*
X131602331Y-41702697D01*
X132017103Y-41822567D01*
X132441278Y-41903071D01*
X132771195Y-41934101D01*
X132871125Y-41943500D01*
X132871127Y-41943500D01*
X133194871Y-41943500D01*
X133194877Y-41943500D01*
X133518272Y-41928325D01*
X133518280Y-41928323D01*
X133521239Y-41928185D01*
X133580771Y-41940337D01*
X133585814Y-41934101D01*
X133642562Y-41910725D01*
X133696614Y-41903071D01*
X133945753Y-41867792D01*
X134365688Y-41767495D01*
X134774386Y-41628316D01*
X135168255Y-41451477D01*
X135348278Y-41349408D01*
X135543835Y-41238532D01*
X135769943Y-41080647D01*
X135897822Y-40991353D01*
X136227108Y-40712113D01*
X136528799Y-40403265D01*
X136800244Y-40067523D01*
X137039056Y-39707837D01*
X137243137Y-39327370D01*
X137410695Y-38929463D01*
X137540255Y-38517615D01*
X137630680Y-38095445D01*
X137681175Y-37666661D01*
X137691296Y-37235034D01*
X137676100Y-37019337D01*
X137660956Y-36804361D01*
X137625549Y-36590555D01*
X137590417Y-36378410D01*
X137549356Y-36222736D01*
X137549500Y-36158947D01*
X137581340Y-36103668D01*
X137636446Y-36071534D01*
X138325459Y-35882512D01*
X138329669Y-35881439D01*
X139385014Y-35632054D01*
X139389259Y-35631130D01*
X140452827Y-35419573D01*
X140457137Y-35418796D01*
X141527573Y-35245336D01*
X141531893Y-35244715D01*
X141861268Y-35203344D01*
X141917406Y-35209242D01*
X141965115Y-35239417D01*
X141994504Y-35287613D01*
X141999483Y-35343843D01*
X141979019Y-35396454D01*
X141871395Y-35553566D01*
X141664404Y-35925184D01*
X141492577Y-36314336D01*
X141357393Y-36717672D01*
X141260002Y-37131753D01*
X141201232Y-37553062D01*
X141181586Y-37977999D01*
X141201232Y-38402937D01*
X141260002Y-38824246D01*
X141357393Y-39238327D01*
X141492577Y-39641663D01*
X141664404Y-40030815D01*
X141871395Y-40402433D01*
X142111803Y-40753387D01*
X142383557Y-41080647D01*
X142684352Y-41381442D01*
X143011612Y-41653196D01*
X143011618Y-41653200D01*
X143362562Y-41893602D01*
X143446467Y-41940337D01*
X143734184Y-42100595D01*
X143734186Y-42100596D01*
X143734190Y-42100598D01*
X144123333Y-42272421D01*
X144123336Y-42272422D01*
X144526672Y-42407606D01*
X144871423Y-42488690D01*
X144940757Y-42504998D01*
X145362066Y-42563768D01*
X145787000Y-42583414D01*
X146211934Y-42563768D01*
X146633243Y-42504998D01*
X147047331Y-42407605D01*
X147450667Y-42272421D01*
X147839810Y-42100598D01*
X148211438Y-41893602D01*
X148562382Y-41653200D01*
X148889647Y-41381442D01*
X149190442Y-41080647D01*
X149462200Y-40753382D01*
X149702602Y-40402438D01*
X149909598Y-40030810D01*
X150081421Y-39641667D01*
X150216605Y-39238331D01*
X150313998Y-38824243D01*
X150372768Y-38402934D01*
X150392414Y-37978000D01*
X150372768Y-37553066D01*
X150313998Y-37131757D01*
X150236995Y-36804361D01*
X150216606Y-36717672D01*
X150081422Y-36314336D01*
X150040979Y-36222741D01*
X149909598Y-35925190D01*
X149702602Y-35553562D01*
X149579303Y-35373568D01*
X149558840Y-35320959D01*
X149563819Y-35264728D01*
X149593208Y-35216532D01*
X149640916Y-35186357D01*
X149697055Y-35180459D01*
X150208622Y-35244714D01*
G37*
%TD.AperFunction*%
%TD*%
%TA.AperFunction,Conductor*%
%TO.N,Shunt_1*%
G36*
X143305682Y-73552011D02*
G01*
X143349998Y-73590874D01*
X143478505Y-73774401D01*
X143645599Y-73941495D01*
X143831160Y-74071426D01*
X143870024Y-74115743D01*
X143884035Y-74173000D01*
X143870024Y-74230257D01*
X143831159Y-74274575D01*
X143645595Y-74404508D01*
X143478505Y-74571598D01*
X143342965Y-74765170D01*
X143243097Y-74979336D01*
X143181936Y-75207592D01*
X143161340Y-75443000D01*
X143181936Y-75678407D01*
X143220948Y-75824000D01*
X143243097Y-75906663D01*
X143342965Y-76120830D01*
X143478505Y-76314401D01*
X143645599Y-76481495D01*
X143831160Y-76611426D01*
X143870024Y-76655743D01*
X143884035Y-76713000D01*
X143870024Y-76770257D01*
X143831159Y-76814575D01*
X143645595Y-76944508D01*
X143478505Y-77111598D01*
X143342965Y-77305170D01*
X143243097Y-77519336D01*
X143181936Y-77747592D01*
X143161340Y-77983000D01*
X143181936Y-78218407D01*
X143226709Y-78385501D01*
X143243097Y-78446663D01*
X143342965Y-78660830D01*
X143478505Y-78854401D01*
X143645599Y-79021495D01*
X143831160Y-79151426D01*
X143870024Y-79195743D01*
X143884035Y-79253000D01*
X143870024Y-79310257D01*
X143831158Y-79354575D01*
X143653256Y-79479144D01*
X143645595Y-79484508D01*
X143478505Y-79651598D01*
X143342965Y-79845170D01*
X143243097Y-80059336D01*
X143181936Y-80287592D01*
X143161340Y-80523000D01*
X143181936Y-80758407D01*
X143226709Y-80925502D01*
X143243097Y-80986663D01*
X143342965Y-81200830D01*
X143478505Y-81394401D01*
X143645599Y-81561495D01*
X143831160Y-81691426D01*
X143870024Y-81735743D01*
X143884035Y-81793000D01*
X143870024Y-81850257D01*
X143831159Y-81894575D01*
X143645595Y-82024508D01*
X143478505Y-82191598D01*
X143342965Y-82385170D01*
X143243097Y-82599336D01*
X143181936Y-82827592D01*
X143161340Y-83063000D01*
X143181936Y-83298407D01*
X143226709Y-83465502D01*
X143243097Y-83526663D01*
X143342965Y-83740830D01*
X143478505Y-83934401D01*
X143645599Y-84101495D01*
X143831160Y-84231426D01*
X143870024Y-84275743D01*
X143884035Y-84333000D01*
X143870024Y-84390257D01*
X143831159Y-84434575D01*
X143645595Y-84564508D01*
X143478505Y-84731598D01*
X143342965Y-84925170D01*
X143243097Y-85139336D01*
X143181936Y-85367592D01*
X143161340Y-85602999D01*
X143181936Y-85838407D01*
X143205985Y-85928159D01*
X143243097Y-86066663D01*
X143342965Y-86280830D01*
X143478505Y-86474401D01*
X143645599Y-86641495D01*
X143839170Y-86777035D01*
X144053337Y-86876903D01*
X144281592Y-86938063D01*
X144517000Y-86958659D01*
X144752408Y-86938063D01*
X144980663Y-86876903D01*
X145194830Y-86777035D01*
X145388401Y-86641495D01*
X145555495Y-86474401D01*
X145691035Y-86280830D01*
X145711007Y-86238000D01*
X153771540Y-86238000D01*
X153791326Y-86426257D01*
X153849820Y-86606284D01*
X153944466Y-86770216D01*
X154071129Y-86910889D01*
X154224269Y-87022151D01*
X154397197Y-87099144D01*
X154582352Y-87138500D01*
X154582354Y-87138500D01*
X154771646Y-87138500D01*
X154771648Y-87138500D01*
X154895084Y-87112262D01*
X154956803Y-87099144D01*
X155129730Y-87022151D01*
X155217120Y-86958659D01*
X155239115Y-86942679D01*
X155286219Y-86921707D01*
X155337781Y-86921707D01*
X155384885Y-86942679D01*
X155494269Y-87022151D01*
X155667197Y-87099144D01*
X155852352Y-87138500D01*
X155852354Y-87138500D01*
X156041646Y-87138500D01*
X156041648Y-87138500D01*
X156165084Y-87112262D01*
X156226803Y-87099144D01*
X156399730Y-87022151D01*
X156487120Y-86958659D01*
X156509115Y-86942679D01*
X156556219Y-86921707D01*
X156607781Y-86921707D01*
X156654885Y-86942679D01*
X156764269Y-87022151D01*
X156937197Y-87099144D01*
X157122352Y-87138500D01*
X157122354Y-87138500D01*
X157311646Y-87138500D01*
X157311648Y-87138500D01*
X157435084Y-87112262D01*
X157496803Y-87099144D01*
X157669730Y-87022151D01*
X157757120Y-86958659D01*
X157779115Y-86942679D01*
X157826219Y-86921707D01*
X157877781Y-86921707D01*
X157924885Y-86942679D01*
X158034269Y-87022151D01*
X158207197Y-87099144D01*
X158392352Y-87138500D01*
X158392354Y-87138500D01*
X158581646Y-87138500D01*
X158581648Y-87138500D01*
X158705084Y-87112262D01*
X158766803Y-87099144D01*
X158939730Y-87022151D01*
X159027120Y-86958659D01*
X159049115Y-86942679D01*
X159096219Y-86921707D01*
X159147781Y-86921707D01*
X159194885Y-86942679D01*
X159304266Y-87022149D01*
X159304269Y-87022150D01*
X159304270Y-87022151D01*
X159463267Y-87092942D01*
X159510543Y-87129879D01*
X159534946Y-87184688D01*
X159530761Y-87244538D01*
X159506326Y-87319740D01*
X159486540Y-87507999D01*
X159506326Y-87696259D01*
X159530761Y-87771461D01*
X159534946Y-87831311D01*
X159510544Y-87886120D01*
X159463266Y-87923057D01*
X159304269Y-87993848D01*
X159151129Y-88105110D01*
X159024466Y-88245783D01*
X158929820Y-88409715D01*
X158871326Y-88589742D01*
X158851540Y-88777999D01*
X158871326Y-88966259D01*
X158895761Y-89041461D01*
X158899946Y-89101311D01*
X158875544Y-89156120D01*
X158828266Y-89193057D01*
X158669269Y-89263848D01*
X158516129Y-89375110D01*
X158389466Y-89515783D01*
X158294820Y-89679715D01*
X158236326Y-89859742D01*
X158216540Y-90048000D01*
X158236326Y-90236257D01*
X158294820Y-90416284D01*
X158389466Y-90580216D01*
X158516129Y-90720889D01*
X158669265Y-90832149D01*
X158722962Y-90856056D01*
X158828267Y-90902942D01*
X158875543Y-90939879D01*
X158899946Y-90994688D01*
X158895761Y-91054538D01*
X158871326Y-91129740D01*
X158851540Y-91318000D01*
X158871326Y-91506257D01*
X158929820Y-91686284D01*
X159024466Y-91850215D01*
X159042304Y-91870026D01*
X159070471Y-91922999D01*
X159070472Y-91982995D01*
X159042307Y-92035969D01*
X159024466Y-92055783D01*
X158929820Y-92219715D01*
X158871326Y-92399742D01*
X158851540Y-92587999D01*
X158871326Y-92776257D01*
X158929820Y-92956284D01*
X159024466Y-93120216D01*
X159151129Y-93260889D01*
X159304269Y-93372151D01*
X159477197Y-93449144D01*
X159662352Y-93488500D01*
X159662354Y-93488500D01*
X159851646Y-93488500D01*
X159851648Y-93488500D01*
X159975084Y-93462262D01*
X160036803Y-93449144D01*
X160209730Y-93372151D01*
X160268415Y-93329514D01*
X160319115Y-93292679D01*
X160366219Y-93271707D01*
X160417781Y-93271707D01*
X160464885Y-93292679D01*
X160574269Y-93372151D01*
X160747197Y-93449144D01*
X160932352Y-93488500D01*
X160932354Y-93488500D01*
X161121646Y-93488500D01*
X161121648Y-93488500D01*
X161245084Y-93462262D01*
X161306803Y-93449144D01*
X161479730Y-93372151D01*
X161562517Y-93312003D01*
X161632870Y-93260889D01*
X161759533Y-93120216D01*
X161854179Y-92956284D01*
X161878864Y-92880312D01*
X161912674Y-92776256D01*
X161932460Y-92588000D01*
X161912674Y-92399744D01*
X161854179Y-92219716D01*
X161854179Y-92219715D01*
X161759533Y-92055783D01*
X161741694Y-92035971D01*
X161713527Y-91982997D01*
X161713528Y-91923000D01*
X161741694Y-91870027D01*
X161759533Y-91850216D01*
X161854179Y-91686284D01*
X161912674Y-91506256D01*
X161932460Y-91318000D01*
X161912674Y-91129744D01*
X161882332Y-91036363D01*
X161854179Y-90949715D01*
X161759533Y-90785783D01*
X161632870Y-90645110D01*
X161479730Y-90533848D01*
X161320733Y-90463057D01*
X161273455Y-90426120D01*
X161249053Y-90371310D01*
X161253237Y-90311462D01*
X161277674Y-90236256D01*
X161297460Y-90048000D01*
X161277674Y-89859744D01*
X161253237Y-89784537D01*
X161249053Y-89724689D01*
X161273456Y-89669879D01*
X161320732Y-89632942D01*
X161479730Y-89562151D01*
X161479730Y-89562150D01*
X161479732Y-89562150D01*
X161632870Y-89450889D01*
X161759533Y-89310216D01*
X161854179Y-89146284D01*
X161888238Y-89041461D01*
X161912674Y-88966256D01*
X161932460Y-88778000D01*
X161912674Y-88589744D01*
X161888237Y-88514537D01*
X161884053Y-88454689D01*
X161908456Y-88399879D01*
X161955732Y-88362942D01*
X162114730Y-88292151D01*
X162114730Y-88292150D01*
X162114732Y-88292150D01*
X162267870Y-88180889D01*
X162394533Y-88040216D01*
X162489179Y-87876284D01*
X162523238Y-87771461D01*
X162547674Y-87696256D01*
X162567460Y-87508000D01*
X162547674Y-87319744D01*
X162523237Y-87244537D01*
X162519053Y-87184689D01*
X162543456Y-87129879D01*
X162590732Y-87092942D01*
X162749730Y-87022151D01*
X162749730Y-87022150D01*
X162749732Y-87022150D01*
X162902870Y-86910889D01*
X163029533Y-86770216D01*
X163124179Y-86606284D01*
X163137013Y-86566785D01*
X163182674Y-86426256D01*
X163202460Y-86238000D01*
X163182674Y-86049744D01*
X163152332Y-85956363D01*
X163124179Y-85869715D01*
X163029533Y-85705783D01*
X162902870Y-85565110D01*
X162749730Y-85453848D01*
X162576802Y-85376855D01*
X162391648Y-85337500D01*
X162391646Y-85337500D01*
X162202354Y-85337500D01*
X162202352Y-85337500D01*
X162017197Y-85376855D01*
X161844269Y-85453848D01*
X161734885Y-85533321D01*
X161687781Y-85554293D01*
X161636219Y-85554293D01*
X161589115Y-85533321D01*
X161479730Y-85453848D01*
X161306802Y-85376855D01*
X161121648Y-85337500D01*
X161121646Y-85337500D01*
X160932354Y-85337500D01*
X160932352Y-85337500D01*
X160747197Y-85376855D01*
X160574269Y-85453848D01*
X160464885Y-85533321D01*
X160417781Y-85554293D01*
X160366219Y-85554293D01*
X160319115Y-85533321D01*
X160209730Y-85453848D01*
X160036802Y-85376855D01*
X159851648Y-85337500D01*
X159851646Y-85337500D01*
X159662354Y-85337500D01*
X159662352Y-85337500D01*
X159477197Y-85376855D01*
X159304269Y-85453848D01*
X159194885Y-85533321D01*
X159147781Y-85554293D01*
X159096219Y-85554293D01*
X159049115Y-85533321D01*
X158939730Y-85453848D01*
X158766802Y-85376855D01*
X158581648Y-85337500D01*
X158581646Y-85337500D01*
X158392354Y-85337500D01*
X158392352Y-85337500D01*
X158207197Y-85376855D01*
X158034269Y-85453848D01*
X157924885Y-85533321D01*
X157877781Y-85554293D01*
X157826219Y-85554293D01*
X157779115Y-85533321D01*
X157669730Y-85453848D01*
X157496802Y-85376855D01*
X157311648Y-85337500D01*
X157311646Y-85337500D01*
X157122354Y-85337500D01*
X157122352Y-85337500D01*
X156937197Y-85376855D01*
X156764269Y-85453848D01*
X156654885Y-85533321D01*
X156607781Y-85554293D01*
X156556219Y-85554293D01*
X156509115Y-85533321D01*
X156399730Y-85453848D01*
X156226802Y-85376855D01*
X156041648Y-85337500D01*
X156041646Y-85337500D01*
X155852354Y-85337500D01*
X155852352Y-85337500D01*
X155667197Y-85376855D01*
X155494269Y-85453848D01*
X155384885Y-85533321D01*
X155337781Y-85554293D01*
X155286219Y-85554293D01*
X155239115Y-85533321D01*
X155129730Y-85453848D01*
X154956802Y-85376855D01*
X154771648Y-85337500D01*
X154771646Y-85337500D01*
X154582354Y-85337500D01*
X154582352Y-85337500D01*
X154397197Y-85376855D01*
X154224269Y-85453848D01*
X154071129Y-85565110D01*
X153944466Y-85705783D01*
X153849820Y-85869715D01*
X153791326Y-86049742D01*
X153771540Y-86238000D01*
X145711007Y-86238000D01*
X145790903Y-86066663D01*
X145852063Y-85838408D01*
X145872659Y-85603000D01*
X145872174Y-85597462D01*
X145852063Y-85367592D01*
X145844000Y-85337500D01*
X145790903Y-85139337D01*
X145691035Y-84925171D01*
X145555495Y-84731599D01*
X145388401Y-84564505D01*
X145202839Y-84434573D01*
X145163975Y-84390257D01*
X145149964Y-84333000D01*
X145163975Y-84275743D01*
X145202839Y-84231426D01*
X145388401Y-84101495D01*
X145555495Y-83934401D01*
X145691035Y-83740830D01*
X145790903Y-83526663D01*
X145852063Y-83298408D01*
X145872659Y-83063000D01*
X145852063Y-82827592D01*
X145790903Y-82599337D01*
X145691035Y-82385171D01*
X145555495Y-82191599D01*
X145388401Y-82024505D01*
X145202839Y-81894573D01*
X145163975Y-81850257D01*
X145149964Y-81793000D01*
X145163975Y-81735743D01*
X145202839Y-81691426D01*
X145388401Y-81561495D01*
X145555495Y-81394401D01*
X145685426Y-81208839D01*
X145729743Y-81169975D01*
X145787000Y-81155964D01*
X145844257Y-81169975D01*
X145888573Y-81208839D01*
X146018505Y-81394401D01*
X146185599Y-81561495D01*
X146379170Y-81697035D01*
X146593337Y-81796903D01*
X146821592Y-81858063D01*
X147057000Y-81878659D01*
X147292408Y-81858063D01*
X147520663Y-81796903D01*
X147734830Y-81697035D01*
X147928401Y-81561495D01*
X148095495Y-81394401D01*
X148231035Y-81200830D01*
X148330903Y-80986663D01*
X148392063Y-80758408D01*
X148412659Y-80523000D01*
X148392063Y-80287592D01*
X148330903Y-80059337D01*
X148231035Y-79845171D01*
X148095495Y-79651599D01*
X147928401Y-79484505D01*
X147742839Y-79354573D01*
X147703975Y-79310257D01*
X147689964Y-79253000D01*
X147703975Y-79195743D01*
X147742839Y-79151426D01*
X147928401Y-79021495D01*
X148095495Y-78854401D01*
X148231035Y-78660830D01*
X148330903Y-78446663D01*
X148392063Y-78218408D01*
X148412659Y-77983000D01*
X148392063Y-77747592D01*
X148330903Y-77519337D01*
X148231035Y-77305171D01*
X148095495Y-77111599D01*
X147928401Y-76944505D01*
X147742839Y-76814573D01*
X147703975Y-76770257D01*
X147689964Y-76713000D01*
X147703975Y-76655743D01*
X147742839Y-76611426D01*
X147928401Y-76481495D01*
X148095495Y-76314401D01*
X148231035Y-76120830D01*
X148330903Y-75906663D01*
X148392063Y-75678408D01*
X148412659Y-75443000D01*
X148392063Y-75207592D01*
X148330903Y-74979337D01*
X148231035Y-74765171D01*
X148095495Y-74571599D01*
X147928401Y-74404505D01*
X147742839Y-74274573D01*
X147703975Y-74230257D01*
X147689964Y-74173000D01*
X147703975Y-74115743D01*
X147742839Y-74071426D01*
X147928401Y-73941495D01*
X148095495Y-73774401D01*
X148224001Y-73590874D01*
X148268318Y-73552011D01*
X148325575Y-73538000D01*
X152013000Y-73538000D01*
X152075000Y-73554613D01*
X152120387Y-73600000D01*
X152137000Y-73662000D01*
X152137000Y-84333000D01*
X169545620Y-84333000D01*
X169611648Y-84352041D01*
X169657397Y-84403318D01*
X169668818Y-84471081D01*
X169642402Y-84534519D01*
X169342792Y-84908579D01*
X169340050Y-84911884D01*
X168654388Y-85709665D01*
X168651533Y-85712872D01*
X167938692Y-86486399D01*
X167935728Y-86489506D01*
X167196518Y-87237897D01*
X167193448Y-87240900D01*
X166428752Y-87963263D01*
X166425580Y-87966157D01*
X165635534Y-88662312D01*
X165633910Y-88663718D01*
X165501508Y-88776372D01*
X165501060Y-88776797D01*
X165456090Y-88815057D01*
X165121544Y-89144114D01*
X164811597Y-89496424D01*
X164527845Y-89870173D01*
X164271784Y-90263387D01*
X164044729Y-90674049D01*
X163847870Y-91100009D01*
X163682228Y-91539056D01*
X163548669Y-91988893D01*
X163447885Y-92447189D01*
X163380399Y-92911566D01*
X163346568Y-93379585D01*
X163346568Y-93379590D01*
X163346573Y-93614215D01*
X163346572Y-93741457D01*
X163346571Y-93789567D01*
X163346573Y-93789604D01*
X163346573Y-102161325D01*
X163329553Y-102224025D01*
X163283166Y-102269511D01*
X162908971Y-102479085D01*
X162832182Y-102522093D01*
X162387948Y-102813917D01*
X161965444Y-103136380D01*
X161566752Y-103487890D01*
X161193894Y-103866667D01*
X160848709Y-104270844D01*
X160532940Y-104698375D01*
X160248149Y-105147152D01*
X159995764Y-105614918D01*
X159777040Y-106099352D01*
X159593087Y-106597995D01*
X159444803Y-107108407D01*
X159332937Y-107628020D01*
X159258047Y-108154229D01*
X159220512Y-108684400D01*
X159220512Y-109215921D01*
X159258048Y-109746094D01*
X159313365Y-110134774D01*
X159332938Y-110272307D01*
X159393669Y-110554396D01*
X159444803Y-110791914D01*
X159593088Y-111302326D01*
X159777041Y-111800968D01*
X159777046Y-111800979D01*
X159995764Y-112285401D01*
X160248149Y-112753167D01*
X160309754Y-112850244D01*
X160532941Y-113201945D01*
X160732645Y-113472331D01*
X160756459Y-113535544D01*
X160743606Y-113601861D01*
X160697898Y-113651600D01*
X160632901Y-113670000D01*
X154350606Y-113670000D01*
X154295762Y-113657212D01*
X154252230Y-113621486D01*
X154228989Y-113570191D01*
X154230831Y-113513906D01*
X154263212Y-113393058D01*
X154295705Y-113271794D01*
X154309612Y-113183989D01*
X154353102Y-112909406D01*
X154361146Y-112755904D01*
X154372304Y-112543000D01*
X154355710Y-112226373D01*
X154353102Y-112176593D01*
X154295706Y-111814211D01*
X154295705Y-111814206D01*
X154200742Y-111459801D01*
X154069255Y-111117264D01*
X153902682Y-110790348D01*
X153820157Y-110663270D01*
X153712830Y-110498000D01*
X155711356Y-110498000D01*
X155731891Y-110745816D01*
X155731891Y-110745819D01*
X155731892Y-110745821D01*
X155792937Y-110986881D01*
X155835982Y-111085014D01*
X155892825Y-111214604D01*
X155892827Y-111214607D01*
X156028836Y-111422785D01*
X156197256Y-111605738D01*
X156197259Y-111605740D01*
X156393485Y-111758470D01*
X156393487Y-111758471D01*
X156393491Y-111758474D01*
X156612190Y-111876828D01*
X156847386Y-111957571D01*
X157092665Y-111998500D01*
X157341335Y-111998500D01*
X157586614Y-111957571D01*
X157821810Y-111876828D01*
X158040509Y-111758474D01*
X158236744Y-111605738D01*
X158405164Y-111422785D01*
X158541173Y-111214607D01*
X158641063Y-110986881D01*
X158702108Y-110745821D01*
X158722643Y-110498000D01*
X158702108Y-110250179D01*
X158641063Y-110009119D01*
X158541173Y-109781393D01*
X158405164Y-109573215D01*
X158236744Y-109390262D01*
X158173125Y-109340745D01*
X158040514Y-109237529D01*
X158040510Y-109237526D01*
X158040509Y-109237526D01*
X157821810Y-109119172D01*
X157821806Y-109119170D01*
X157821805Y-109119170D01*
X157586615Y-109038429D01*
X157341335Y-108997500D01*
X157092665Y-108997500D01*
X156847384Y-109038429D01*
X156612194Y-109119170D01*
X156393485Y-109237529D01*
X156197259Y-109390259D01*
X156197256Y-109390261D01*
X156197256Y-109390262D01*
X156028836Y-109573215D01*
X156011273Y-109600097D01*
X155892825Y-109781395D01*
X155824110Y-109938051D01*
X155792937Y-110009119D01*
X155761119Y-110134765D01*
X155731891Y-110250183D01*
X155711356Y-110498000D01*
X153712830Y-110498000D01*
X153702853Y-110482636D01*
X153532531Y-110272307D01*
X153471949Y-110197494D01*
X153212506Y-109938051D01*
X153019050Y-109781393D01*
X152927363Y-109707146D01*
X152619656Y-109507320D01*
X152292735Y-109340744D01*
X151950200Y-109209258D01*
X151595788Y-109114293D01*
X151233406Y-109056897D01*
X150867000Y-109037696D01*
X150500593Y-109056897D01*
X150138211Y-109114293D01*
X149783799Y-109209258D01*
X149441264Y-109340744D01*
X149114343Y-109507320D01*
X148806636Y-109707146D01*
X148521490Y-109938054D01*
X148262054Y-110197490D01*
X148031146Y-110482636D01*
X147831320Y-110790343D01*
X147664744Y-111117264D01*
X147533258Y-111459799D01*
X147438293Y-111814211D01*
X147380897Y-112176593D01*
X147361696Y-112543000D01*
X147380897Y-112909406D01*
X147438293Y-113271788D01*
X147503169Y-113513906D01*
X147505011Y-113570191D01*
X147481770Y-113621486D01*
X147438238Y-113657212D01*
X147383394Y-113670000D01*
X131060674Y-113670000D01*
X130995931Y-113651756D01*
X130950239Y-113602392D01*
X130937044Y-113536434D01*
X130960228Y-113473291D01*
X131040983Y-113361730D01*
X131215971Y-113119988D01*
X131499937Y-112661951D01*
X131750410Y-112184774D01*
X131966108Y-111690903D01*
X132145926Y-111182867D01*
X132288941Y-110663270D01*
X132394422Y-110134774D01*
X132438971Y-109781395D01*
X132461827Y-109600097D01*
X132465847Y-109525464D01*
X132490814Y-109061946D01*
X132481230Y-108523112D01*
X132433127Y-107986343D01*
X132346750Y-107454391D01*
X132222543Y-106929979D01*
X132061141Y-106415796D01*
X131863372Y-105914476D01*
X131630248Y-105428587D01*
X131362965Y-104960619D01*
X131062891Y-104512969D01*
X130731565Y-104087932D01*
X130370683Y-103687683D01*
X130053613Y-103383000D01*
X135356540Y-103383000D01*
X135376326Y-103571257D01*
X135434820Y-103751284D01*
X135529466Y-103915216D01*
X135656129Y-104055889D01*
X135809269Y-104167151D01*
X135982197Y-104244144D01*
X136167352Y-104283500D01*
X136167354Y-104283500D01*
X136356646Y-104283500D01*
X136356648Y-104283500D01*
X136480084Y-104257262D01*
X136541803Y-104244144D01*
X136714730Y-104167151D01*
X136867871Y-104055888D01*
X136994533Y-103915216D01*
X137089179Y-103751284D01*
X137147674Y-103571256D01*
X137167460Y-103383000D01*
X139166540Y-103383000D01*
X139186326Y-103571257D01*
X139244820Y-103751284D01*
X139339466Y-103915216D01*
X139466129Y-104055889D01*
X139619269Y-104167151D01*
X139792197Y-104244144D01*
X139977352Y-104283500D01*
X139977354Y-104283500D01*
X140166646Y-104283500D01*
X140166648Y-104283500D01*
X140290084Y-104257262D01*
X140351803Y-104244144D01*
X140524730Y-104167151D01*
X140677871Y-104055888D01*
X140804533Y-103915216D01*
X140899179Y-103751284D01*
X140957674Y-103571256D01*
X140977460Y-103383000D01*
X140957674Y-103194744D01*
X140899179Y-103014716D01*
X140899179Y-103014715D01*
X140804533Y-102850783D01*
X140677870Y-102710110D01*
X140524730Y-102598848D01*
X140351802Y-102521855D01*
X140166648Y-102482500D01*
X140166646Y-102482500D01*
X139977354Y-102482500D01*
X139977352Y-102482500D01*
X139792197Y-102521855D01*
X139619269Y-102598848D01*
X139466129Y-102710110D01*
X139339466Y-102850783D01*
X139244820Y-103014715D01*
X139186326Y-103194742D01*
X139166540Y-103383000D01*
X137167460Y-103383000D01*
X137147674Y-103194744D01*
X137089179Y-103014716D01*
X137089179Y-103014715D01*
X136994533Y-102850783D01*
X136867870Y-102710110D01*
X136714730Y-102598848D01*
X136541802Y-102521855D01*
X136356648Y-102482500D01*
X136356646Y-102482500D01*
X136167354Y-102482500D01*
X136167352Y-102482500D01*
X135982197Y-102521855D01*
X135809269Y-102598848D01*
X135656129Y-102710110D01*
X135529466Y-102850783D01*
X135434820Y-103014715D01*
X135376326Y-103194742D01*
X135356540Y-103383000D01*
X130053613Y-103383000D01*
X129982094Y-103314275D01*
X129567790Y-102969620D01*
X129402134Y-102850783D01*
X129129894Y-102655485D01*
X128670649Y-102373478D01*
X128576957Y-102324808D01*
X128528138Y-102279143D01*
X128510119Y-102214769D01*
X128510119Y-93625522D01*
X128510102Y-93624968D01*
X128510124Y-93565499D01*
X135356540Y-93565499D01*
X135376326Y-93753757D01*
X135434820Y-93933784D01*
X135529466Y-94097716D01*
X135656129Y-94238389D01*
X135809269Y-94349651D01*
X135982197Y-94426644D01*
X136167352Y-94466000D01*
X136167354Y-94466000D01*
X136356646Y-94466000D01*
X136356648Y-94466000D01*
X136480084Y-94439762D01*
X136541803Y-94426644D01*
X136714730Y-94349651D01*
X136867871Y-94238388D01*
X136994533Y-94097716D01*
X137089179Y-93933784D01*
X137147674Y-93753756D01*
X137167460Y-93565500D01*
X137166167Y-93553200D01*
X139217340Y-93553200D01*
X139237126Y-93741457D01*
X139295620Y-93921484D01*
X139390266Y-94085416D01*
X139516929Y-94226089D01*
X139670069Y-94337351D01*
X139842997Y-94414344D01*
X140028152Y-94453700D01*
X140028154Y-94453700D01*
X140217446Y-94453700D01*
X140217448Y-94453700D01*
X140340883Y-94427462D01*
X140402603Y-94414344D01*
X140575530Y-94337351D01*
X140711740Y-94238389D01*
X140728670Y-94226089D01*
X140855333Y-94085416D01*
X140949979Y-93921484D01*
X140962340Y-93883441D01*
X141008474Y-93741456D01*
X141028260Y-93553200D01*
X141008474Y-93364944D01*
X140965761Y-93233487D01*
X140949979Y-93184915D01*
X140855333Y-93020983D01*
X140728670Y-92880310D01*
X140575530Y-92769048D01*
X140402602Y-92692055D01*
X140217448Y-92652700D01*
X140217446Y-92652700D01*
X140028154Y-92652700D01*
X140028152Y-92652700D01*
X139842997Y-92692055D01*
X139670069Y-92769048D01*
X139516929Y-92880310D01*
X139390266Y-93020983D01*
X139295620Y-93184915D01*
X139237126Y-93364942D01*
X139217340Y-93553200D01*
X137166167Y-93553200D01*
X137147674Y-93377244D01*
X137109867Y-93260888D01*
X137089179Y-93197215D01*
X136994533Y-93033283D01*
X136867870Y-92892610D01*
X136714730Y-92781348D01*
X136541802Y-92704355D01*
X136356648Y-92665000D01*
X136356646Y-92665000D01*
X136167354Y-92665000D01*
X136167352Y-92665000D01*
X135982197Y-92704355D01*
X135809269Y-92781348D01*
X135656129Y-92892610D01*
X135529466Y-93033283D01*
X135434820Y-93197215D01*
X135376326Y-93377242D01*
X135356540Y-93565499D01*
X128510124Y-93565499D01*
X128510154Y-93481976D01*
X128502770Y-93379585D01*
X128476236Y-93011631D01*
X128408358Y-92544977D01*
X128306875Y-92084461D01*
X128172320Y-91632501D01*
X128005399Y-91191467D01*
X127806987Y-90763675D01*
X127578127Y-90351368D01*
X127320019Y-89956712D01*
X127320014Y-89956704D01*
X127034017Y-89581776D01*
X126721620Y-89228526D01*
X126384479Y-88898827D01*
X126337447Y-88859061D01*
X126335061Y-88856803D01*
X126203162Y-88745517D01*
X126201525Y-88744112D01*
X126024895Y-88589744D01*
X125404774Y-88047782D01*
X125401619Y-88044926D01*
X124828769Y-87507999D01*
X124630432Y-87322099D01*
X124627336Y-87319094D01*
X124187297Y-86876902D01*
X123881769Y-86569879D01*
X123878811Y-86566802D01*
X123159755Y-85792096D01*
X123156880Y-85788888D01*
X123089721Y-85711283D01*
X122792295Y-85367592D01*
X122465226Y-84989648D01*
X122462460Y-84986337D01*
X122235394Y-84704719D01*
X122098415Y-84534831D01*
X122071784Y-84471379D01*
X122083083Y-84403498D01*
X122128834Y-84352095D01*
X122194947Y-84333000D01*
X139437000Y-84333000D01*
X139437000Y-73662000D01*
X139453613Y-73600000D01*
X139499000Y-73554613D01*
X139561000Y-73538000D01*
X143248425Y-73538000D01*
X143305682Y-73552011D01*
G37*
%TD.AperFunction*%
%TD*%
D18*
X126847517Y-122086374D02*
X141398465Y-122083355D01*
X150342190Y-122084556D02*
G75*
G03*
X141398465Y-122083355I-4471930J-501814D01*
G01*
X166347072Y-104451099D02*
G75*
G03*
X166347073Y-113449221I389848J-4499061D01*
G01*
X164847517Y-122086517D02*
G75*
G03*
X166347517Y-120586503I-17J1500017D01*
G01*
X166347073Y-113449222D02*
X166347517Y-120586503D01*
X167579138Y-90948252D02*
G75*
G03*
X179370262Y-65434046I-21708888J25514212D01*
G01*
X125509571Y-93716347D02*
G75*
G03*
X124267370Y-91038052I-3504871J1647D01*
G01*
X125347517Y-120586374D02*
X125347517Y-113433715D01*
X125347517Y-113433715D02*
G75*
G03*
X125509619Y-104435721I-384537J4507385D01*
G01*
X125347526Y-120586374D02*
G75*
G03*
X126847517Y-122086374I1499974J-26D01*
G01*
X167579165Y-90948283D02*
G75*
G03*
X166347073Y-93614254I2268335J-2666017D01*
G01*
X166347073Y-93614254D02*
X166347073Y-104451107D01*
X125509619Y-93716347D02*
X125509619Y-104435720D01*
X112370266Y-65434046D02*
G75*
G03*
X124267371Y-91038050I33499954J-24D01*
G01*
X179370262Y-65434046D02*
G75*
G03*
X112370262Y-65434046I-33500000J0D01*
G01*
X150342194Y-122084556D02*
X164847517Y-122086503D01*
M02*
