%TF.GenerationSoftware,KiCad,Pcbnew,7.0.1*%
%TF.CreationDate,2023-12-14T23:22:24+03:00*%
%TF.ProjectId,_______ _____,21383b3e-3230-44f2-903f-3b3042302e6b,rev?*%
%TF.SameCoordinates,Original*%
%TF.FileFunction,Copper,L2,Inr*%
%TF.FilePolarity,Positive*%
%FSLAX46Y46*%
G04 Gerber Fmt 4.6, Leading zero omitted, Abs format (unit mm)*
G04 Created by KiCad (PCBNEW 7.0.1) date 2023-12-14 23:22:24*
%MOMM*%
%LPD*%
G01*
G04 APERTURE LIST*
%TA.AperFunction,ComponentPad*%
%ADD10C,8.200000*%
%TD*%
%TA.AperFunction,ComponentPad*%
%ADD11C,6.000000*%
%TD*%
%TA.AperFunction,ComponentPad*%
%ADD12R,1.700000X1.700000*%
%TD*%
%TA.AperFunction,ComponentPad*%
%ADD13O,1.700000X1.700000*%
%TD*%
%TA.AperFunction,ComponentPad*%
%ADD14C,2.000000*%
%TD*%
%TA.AperFunction,ComponentPad*%
%ADD15C,5.000000*%
%TD*%
%TA.AperFunction,ViaPad*%
%ADD16C,0.800000*%
%TD*%
%TA.AperFunction,Conductor*%
%ADD17C,0.250000*%
%TD*%
%TA.AperFunction,Profile*%
%ADD18C,0.200000*%
%TD*%
G04 APERTURE END LIST*
D10*
%TO.N,C*%
%TO.C,J7*%
X123562000Y-52583000D03*
%TD*%
%TO.N,A*%
%TO.C,J5*%
X168012000Y-52583000D03*
%TD*%
D11*
%TO.N,Shunt_1*%
%TO.C,J3*%
X140707000Y-112543000D03*
%TD*%
D12*
%TO.N,+3.3V*%
%TO.C,J4*%
X147057000Y-62743000D03*
D13*
%TO.N,~{OS}_MCU*%
X144517000Y-62743000D03*
%TO.N,G3*%
X147057000Y-65283000D03*
%TO.N,SCL_MCU*%
X144517000Y-65283000D03*
%TO.N,B*%
X147057000Y-67823000D03*
%TO.N,SDA_MCU*%
X144517000Y-67823000D03*
%TO.N,G2*%
X147057000Y-70363000D03*
%TO.N,G4*%
X144517000Y-70363000D03*
%TO.N,GND*%
X147057000Y-72903000D03*
X144517000Y-72903000D03*
%TO.N,G1*%
X147057000Y-75443000D03*
%TO.N,G6*%
X144517000Y-75443000D03*
%TO.N,A*%
X147057000Y-77983000D03*
%TO.N,C*%
X144517000Y-77983000D03*
%TO.N,GND*%
X147057000Y-80523000D03*
%TO.N,G5*%
X144517000Y-80523000D03*
%TO.N,Shunt_1*%
X147057000Y-83063000D03*
%TO.N,GND*%
X144517000Y-83063000D03*
%TO.N,Shunt_1*%
X147057000Y-85603000D03*
%TO.N,Shunt_2*%
X144517000Y-85603000D03*
%TD*%
D10*
%TO.N,B*%
%TO.C,J6*%
X145787000Y-37978000D03*
%TD*%
D14*
%TO.N,Earth_Protective*%
%TO.C,C7*%
X157217000Y-117998000D03*
%TO.N,Net-(J2-Pin_1)*%
X157217000Y-110498000D03*
%TD*%
D11*
%TO.N,Net-(J2-Pin_1)*%
%TO.C,J2*%
X150867000Y-112543000D03*
%TD*%
D15*
%TO.N,Earth_Protective*%
%TO.C,H3*%
X128642000Y-119258000D03*
%TD*%
D14*
%TO.N,Shunt_1*%
%TO.C,C8*%
X134357000Y-110498000D03*
%TO.N,Earth_Protective*%
X134357000Y-117998000D03*
%TD*%
D15*
%TO.N,Earth_Protective*%
%TO.C,H4*%
X163567000Y-119258000D03*
%TD*%
D16*
%TO.N,G1*%
X155312000Y-71633000D03*
%TO.N,A*%
X173092000Y-64013000D03*
X155312000Y-74173000D03*
X166742000Y-60203000D03*
X169917000Y-61473000D03*
X155312000Y-75443000D03*
X169917000Y-65283000D03*
X155312000Y-76713000D03*
X169917000Y-60203000D03*
X166742000Y-65283000D03*
X169917000Y-64013000D03*
X166742000Y-62743000D03*
X169917000Y-62743000D03*
X166742000Y-66553000D03*
X173092000Y-58933000D03*
X166742000Y-58933000D03*
X173092000Y-62743000D03*
X173092000Y-61473000D03*
X155312000Y-72903000D03*
X155312000Y-80523000D03*
X173092000Y-65283000D03*
X155312000Y-79253000D03*
X173092000Y-66553000D03*
X173092000Y-60203000D03*
X155312000Y-77983000D03*
X166742000Y-64013000D03*
X166742000Y-61473000D03*
%TO.N,G2*%
X159122000Y-58298000D03*
%TO.N,GND*%
X141342000Y-56393000D03*
X159122000Y-90048000D03*
X159122000Y-67188000D03*
X159122000Y-59568000D03*
X160392000Y-87508000D03*
X173346000Y-77348000D03*
X131817000Y-60838000D03*
X159122000Y-64648000D03*
X155947000Y-86238000D03*
X131817000Y-59568000D03*
X161027000Y-88778000D03*
X157217000Y-86238000D03*
X161027000Y-86238000D03*
X120768000Y-69728000D03*
X159757000Y-88778000D03*
X142612000Y-56393000D03*
X120514000Y-75824000D03*
X144390000Y-51647500D03*
X161027000Y-92588000D03*
X136262000Y-103383000D03*
X161662000Y-87508000D03*
X154677000Y-86238000D03*
X159757000Y-91318000D03*
X131817000Y-63378000D03*
X174362000Y-69474000D03*
X162297000Y-86238000D03*
X159122000Y-63378000D03*
X136262000Y-93565500D03*
X131817000Y-62108000D03*
X131817000Y-64648000D03*
X138802000Y-56393000D03*
X140122800Y-93553200D03*
X131817000Y-58298000D03*
X137532000Y-56393000D03*
X140072000Y-103383000D03*
X158487000Y-86238000D03*
X159122000Y-60838000D03*
X140072000Y-56393000D03*
X159757000Y-92588000D03*
X161027000Y-91318000D03*
X131817000Y-65918000D03*
X134992000Y-56393000D03*
X159757000Y-86238000D03*
X159122000Y-65918000D03*
X160392000Y-90048000D03*
X159122000Y-62108000D03*
X136262000Y-56393000D03*
%TO.N,G3*%
X148835000Y-57028000D03*
%TO.N,B*%
X134992000Y-46233000D03*
X140072000Y-49408000D03*
X138802000Y-46233000D03*
X137532000Y-43058000D03*
X136262000Y-43058000D03*
X133722000Y-49408000D03*
X133722000Y-43058000D03*
X136262000Y-46233000D03*
X140072000Y-43058000D03*
X154042000Y-57028000D03*
X136262000Y-49408000D03*
X150232000Y-57028000D03*
X151502000Y-57028000D03*
X140072000Y-46233000D03*
X138802000Y-43058000D03*
X157852000Y-57028000D03*
X134992000Y-49408000D03*
X137532000Y-49408000D03*
X138802000Y-49408000D03*
X155312000Y-57028000D03*
X134992000Y-43058000D03*
X137532000Y-46233000D03*
X141342000Y-49408000D03*
X156582000Y-57028000D03*
X141342000Y-43058000D03*
X152772000Y-57028000D03*
%TO.N,G4*%
X133722000Y-56393000D03*
%TO.N,G5*%
X136262000Y-80523000D03*
%TO.N,C*%
X136262000Y-76713000D03*
X124832000Y-64013000D03*
X136262000Y-79253000D03*
X124832000Y-62743000D03*
X124832000Y-61473000D03*
X121657000Y-64013000D03*
X121657000Y-61473000D03*
X118482000Y-62743000D03*
X118482000Y-61473000D03*
X136262000Y-74173000D03*
X118482000Y-65283000D03*
X124832000Y-58933000D03*
X118482000Y-58933000D03*
X118482000Y-60203000D03*
X124832000Y-60203000D03*
X124832000Y-65283000D03*
X121657000Y-62743000D03*
X136262000Y-71633000D03*
X121657000Y-65283000D03*
X118482000Y-66553000D03*
X124832000Y-66553000D03*
X121657000Y-60203000D03*
X136262000Y-72903000D03*
X136262000Y-75443000D03*
X136262000Y-77983000D03*
X118482000Y-64013000D03*
%TO.N,G6*%
X131817000Y-67188000D03*
%TO.N,Shunt_1*%
X131182000Y-91953000D03*
X140072000Y-99573000D03*
X162297000Y-100843000D03*
X140072000Y-98303000D03*
X131182000Y-89413000D03*
X143882000Y-91953000D03*
X136262000Y-99573000D03*
X131182000Y-90683000D03*
X143882000Y-98303000D03*
X140707000Y-80802500D03*
X131182000Y-93223000D03*
X150867000Y-80523000D03*
X143882000Y-99573000D03*
X133087000Y-85603000D03*
X136262000Y-98303000D03*
X129277000Y-85603000D03*
%TO.N,Shunt_2*%
X141342000Y-71633000D03*
X150486000Y-63378000D03*
X153788000Y-46233000D03*
X122927000Y-79888000D03*
X165472000Y-76078000D03*
X149978000Y-49408000D03*
X122927000Y-73538000D03*
X168647000Y-72268000D03*
X156328000Y-46233000D03*
X155058000Y-49408000D03*
X162297000Y-72268000D03*
X140072000Y-70363000D03*
X153788000Y-43058000D03*
X126102000Y-76078000D03*
X165472000Y-78618000D03*
X150867000Y-62108000D03*
X151502000Y-60838000D03*
X122927000Y-72268000D03*
X168647000Y-73538000D03*
X129277000Y-72268000D03*
X140072000Y-59568000D03*
X126102000Y-73538000D03*
X162297000Y-78618000D03*
X168647000Y-78618000D03*
X122927000Y-77348000D03*
X152518000Y-49408000D03*
X129277000Y-79888000D03*
X165472000Y-77348000D03*
X151248000Y-46233000D03*
X129277000Y-76078000D03*
X156328000Y-49408000D03*
X126102000Y-78618000D03*
X151248000Y-43058000D03*
X152518000Y-46233000D03*
X156328000Y-43058000D03*
X168647000Y-77348000D03*
X162297000Y-73538000D03*
X149978000Y-43058000D03*
X122927000Y-78618000D03*
X151502000Y-63378000D03*
X126102000Y-77348000D03*
X129277000Y-77348000D03*
X162297000Y-76078000D03*
X157598000Y-49408000D03*
X155058000Y-46233000D03*
X140072000Y-65283000D03*
X152137000Y-62108000D03*
X150486000Y-60838000D03*
X140707000Y-60838000D03*
X162297000Y-79888000D03*
X151248000Y-49408000D03*
X152137000Y-59568000D03*
X141342000Y-59568000D03*
X122927000Y-76078000D03*
X150994000Y-59568000D03*
X157598000Y-43058000D03*
X168647000Y-79888000D03*
X162297000Y-74808000D03*
X129277000Y-73538000D03*
X155058000Y-43058000D03*
X129277000Y-78618000D03*
X126102000Y-74808000D03*
X165472000Y-74808000D03*
X162297000Y-77348000D03*
X165472000Y-73538000D03*
X152518000Y-43058000D03*
X122927000Y-74808000D03*
X141977000Y-60838000D03*
X141342000Y-66553000D03*
X168647000Y-74808000D03*
X168647000Y-76078000D03*
X129277000Y-74808000D03*
X153788000Y-49408000D03*
%TO.N,+3.3V*%
X117212000Y-69728000D03*
X147184000Y-55965500D03*
X170803816Y-69475092D03*
X144644000Y-60410500D03*
%TO.N,~{OS}_MCU*%
X145152000Y-54441500D03*
X173600000Y-74300000D03*
X119752000Y-74300000D03*
%TO.N,SCL_MCU*%
X172579701Y-74295701D03*
X146168000Y-54441500D03*
X118736000Y-74300000D03*
%TO.N,SDA_MCU*%
X118727048Y-73275049D03*
X171568000Y-74300000D03*
X147184000Y-54441500D03*
%TD*%
D17*
%TO.N,~{OS}_MCU*%
X143342000Y-57304695D02*
X143342000Y-61568000D01*
X145152000Y-54441500D02*
X145152000Y-55494695D01*
X145152000Y-55494695D02*
X143342000Y-57304695D01*
X143342000Y-61568000D02*
X144517000Y-62743000D01*
%TO.N,SCL_MCU*%
X139681695Y-69728000D02*
X139771695Y-69638000D01*
X123298695Y-69728000D02*
X139681695Y-69728000D01*
X145692000Y-64108000D02*
X144517000Y-65283000D01*
X118736000Y-74300000D02*
X118736000Y-74290695D01*
X146168000Y-55319799D02*
X145692000Y-55795799D01*
X139771695Y-69638000D02*
X140162000Y-69638000D01*
X145692000Y-55795799D02*
X145692000Y-64108000D01*
X146168000Y-54441500D02*
X146168000Y-55319799D01*
X118736000Y-74290695D02*
X123298695Y-69728000D01*
X140162000Y-69638000D02*
X144517000Y-65283000D01*
%TO.N,SDA_MCU*%
X148454000Y-65918001D02*
X147914001Y-66458000D01*
X147184000Y-54441500D02*
X147184000Y-54940195D01*
X146168000Y-56964000D02*
X148454000Y-59250000D01*
X145882000Y-66458000D02*
X144517000Y-67823000D01*
X148454000Y-59250000D02*
X148454000Y-65918001D01*
X147914001Y-66458000D02*
X145882000Y-66458000D01*
X146168000Y-55956195D02*
X146168000Y-56964000D01*
X147184000Y-54940195D02*
X146168000Y-55956195D01*
%TD*%
%TA.AperFunction,Conductor*%
%TO.N,GND*%
G36*
X150208622Y-35244714D02*
G01*
X150212958Y-35245337D01*
X151283376Y-35418794D01*
X151287706Y-35419575D01*
X152351253Y-35631128D01*
X152355520Y-35632056D01*
X153410840Y-35881435D01*
X153415077Y-35882516D01*
X153944260Y-36027690D01*
X153997991Y-36058461D01*
X154030145Y-36111377D01*
X154032704Y-36173243D01*
X153943319Y-36590558D01*
X153892824Y-37019337D01*
X153882704Y-37450971D01*
X153913043Y-37881638D01*
X153983584Y-38307594D01*
X154093694Y-38725053D01*
X154168696Y-38929461D01*
X154242419Y-39130381D01*
X154330821Y-39315533D01*
X154428443Y-39519997D01*
X154650134Y-39890482D01*
X154905542Y-40238576D01*
X155192423Y-40561224D01*
X155508263Y-40855596D01*
X155800372Y-41080647D01*
X155850274Y-41119093D01*
X156215459Y-41349408D01*
X156600606Y-41544514D01*
X157002331Y-41702697D01*
X157417103Y-41822567D01*
X157841278Y-41903071D01*
X158171195Y-41934101D01*
X158271125Y-41943500D01*
X158271127Y-41943500D01*
X158594871Y-41943500D01*
X158594877Y-41943500D01*
X158918272Y-41928325D01*
X159345753Y-41867792D01*
X159765688Y-41767495D01*
X160174386Y-41628316D01*
X160568255Y-41451477D01*
X160748278Y-41349408D01*
X160943835Y-41238532D01*
X161169943Y-41080647D01*
X161297822Y-40991353D01*
X161627108Y-40712113D01*
X161928799Y-40403265D01*
X162200244Y-40067523D01*
X162314374Y-39895624D01*
X162362614Y-39853110D01*
X162425665Y-39840473D01*
X162486566Y-39861112D01*
X163051480Y-40238576D01*
X163262966Y-40379886D01*
X163266595Y-40382405D01*
X164010070Y-40918526D01*
X164146149Y-41016653D01*
X164149692Y-41019306D01*
X165006023Y-41684524D01*
X165009441Y-41687279D01*
X165831498Y-42374293D01*
X165841481Y-42382636D01*
X165844791Y-42385503D01*
X166651554Y-43110179D01*
X166654767Y-43113172D01*
X167435097Y-43866130D01*
X167438177Y-43869210D01*
X168094760Y-44549661D01*
X168191135Y-44649540D01*
X168194130Y-44652755D01*
X168918800Y-45459512D01*
X168921668Y-45462823D01*
X169565325Y-46233000D01*
X169617017Y-46294852D01*
X169619788Y-46298291D01*
X169855161Y-46601284D01*
X170285001Y-47154615D01*
X170287654Y-47158158D01*
X170921897Y-48037705D01*
X170924421Y-48041341D01*
X171526847Y-48942935D01*
X171529240Y-48946659D01*
X171697931Y-49219744D01*
X172061073Y-49807618D01*
X172099100Y-49869177D01*
X172101359Y-49872984D01*
X172637928Y-50815254D01*
X172640050Y-50819139D01*
X173142668Y-51779999D01*
X173144649Y-51783958D01*
X173612623Y-52762090D01*
X173614462Y-52766116D01*
X174047243Y-53760366D01*
X174048937Y-53764456D01*
X174445947Y-54773497D01*
X174447494Y-54777644D01*
X174808240Y-55800225D01*
X174809638Y-55804425D01*
X175133656Y-56839232D01*
X175134903Y-56843479D01*
X175421784Y-57889204D01*
X175422878Y-57893493D01*
X175672244Y-58948758D01*
X175673185Y-58953084D01*
X175884729Y-60016588D01*
X175885515Y-60020944D01*
X176058967Y-61091330D01*
X176059597Y-61095712D01*
X176194733Y-62171606D01*
X176195206Y-62176007D01*
X176266506Y-62972757D01*
X176267000Y-62983809D01*
X176267000Y-67880872D01*
X176266536Y-67891595D01*
X176205480Y-68595026D01*
X176205034Y-68599297D01*
X176077841Y-69643480D01*
X176077248Y-69647733D01*
X175913974Y-70686905D01*
X175913234Y-70691135D01*
X175714076Y-71724034D01*
X175713190Y-71728235D01*
X175478395Y-72753580D01*
X175477365Y-72757749D01*
X175207190Y-73774416D01*
X175206015Y-73778546D01*
X174900811Y-74785213D01*
X174899494Y-74789301D01*
X174559613Y-75784806D01*
X174558156Y-75788845D01*
X174184009Y-76771986D01*
X174182425Y-76775940D01*
X173774458Y-77745544D01*
X173772724Y-77749473D01*
X173331443Y-78704338D01*
X173329574Y-78708204D01*
X172855478Y-79647249D01*
X172853477Y-79651048D01*
X172347156Y-80573108D01*
X172345024Y-80576836D01*
X171807103Y-81480771D01*
X171804844Y-81484423D01*
X171235910Y-82369248D01*
X171233525Y-82372819D01*
X170634322Y-83237373D01*
X170631815Y-83240860D01*
X170003018Y-84084172D01*
X170000392Y-84087569D01*
X169342792Y-84908579D01*
X169340050Y-84911884D01*
X168654388Y-85709665D01*
X168651533Y-85712872D01*
X167938692Y-86486399D01*
X167935728Y-86489506D01*
X167196518Y-87237897D01*
X167193448Y-87240900D01*
X166428752Y-87963263D01*
X166425580Y-87966157D01*
X165635534Y-88662312D01*
X165633910Y-88663718D01*
X165501508Y-88776372D01*
X165501060Y-88776797D01*
X165456090Y-88815057D01*
X165121544Y-89144114D01*
X164811597Y-89496424D01*
X164527845Y-89870173D01*
X164271784Y-90263387D01*
X164044729Y-90674049D01*
X163847870Y-91100009D01*
X163682228Y-91539056D01*
X163548669Y-91988893D01*
X163447885Y-92447189D01*
X163380399Y-92911566D01*
X163346568Y-93379585D01*
X163346573Y-93614215D01*
X163346573Y-93614219D01*
X163346571Y-93789567D01*
X163346573Y-93789604D01*
X163346573Y-100397139D01*
X163329960Y-100459139D01*
X163284573Y-100504526D01*
X163222573Y-100521139D01*
X163160573Y-100504526D01*
X163115186Y-100459139D01*
X163029533Y-100310783D01*
X162902870Y-100170110D01*
X162749730Y-100058848D01*
X162576802Y-99981855D01*
X162391648Y-99942500D01*
X162391646Y-99942500D01*
X162202354Y-99942500D01*
X162202352Y-99942500D01*
X162017197Y-99981855D01*
X161844269Y-100058848D01*
X161691129Y-100170110D01*
X161564466Y-100310783D01*
X161469820Y-100474715D01*
X161411326Y-100654742D01*
X161391540Y-100842999D01*
X161411326Y-101031257D01*
X161469820Y-101211284D01*
X161564466Y-101375216D01*
X161691129Y-101515889D01*
X161844269Y-101627151D01*
X162017197Y-101704144D01*
X162202352Y-101743500D01*
X162202354Y-101743500D01*
X162391646Y-101743500D01*
X162391648Y-101743500D01*
X162515084Y-101717262D01*
X162576803Y-101704144D01*
X162749730Y-101627151D01*
X162902871Y-101515888D01*
X163029533Y-101375216D01*
X163115185Y-101226861D01*
X163160573Y-101181474D01*
X163222573Y-101164861D01*
X163284573Y-101181474D01*
X163329960Y-101226861D01*
X163346573Y-101288861D01*
X163346573Y-102161325D01*
X163329553Y-102224025D01*
X163283166Y-102269511D01*
X162908971Y-102479085D01*
X162832182Y-102522093D01*
X162387948Y-102813917D01*
X161965444Y-103136380D01*
X161566752Y-103487890D01*
X161193894Y-103866667D01*
X160848709Y-104270844D01*
X160532940Y-104698375D01*
X160248149Y-105147152D01*
X159995764Y-105614918D01*
X159777040Y-106099352D01*
X159593087Y-106597995D01*
X159444803Y-107108407D01*
X159332937Y-107628020D01*
X159258047Y-108154229D01*
X159220512Y-108684400D01*
X159220512Y-109215921D01*
X159258048Y-109746094D01*
X159313365Y-110134774D01*
X159332938Y-110272307D01*
X159393669Y-110554396D01*
X159444803Y-110791914D01*
X159593088Y-111302326D01*
X159777041Y-111800968D01*
X159777046Y-111800979D01*
X159995764Y-112285401D01*
X160248149Y-112753167D01*
X160309754Y-112850244D01*
X160532941Y-113201945D01*
X160732645Y-113472331D01*
X160756459Y-113535544D01*
X160743606Y-113601861D01*
X160697898Y-113651600D01*
X160632901Y-113670000D01*
X154350606Y-113670000D01*
X154295762Y-113657212D01*
X154252230Y-113621486D01*
X154228989Y-113570191D01*
X154230831Y-113513906D01*
X154263212Y-113393058D01*
X154295705Y-113271794D01*
X154309612Y-113183989D01*
X154353102Y-112909406D01*
X154361146Y-112755904D01*
X154372304Y-112543000D01*
X154355710Y-112226373D01*
X154353102Y-112176593D01*
X154295706Y-111814211D01*
X154295705Y-111814206D01*
X154200742Y-111459801D01*
X154069255Y-111117264D01*
X153902682Y-110790348D01*
X153820157Y-110663270D01*
X153712830Y-110498000D01*
X155711356Y-110498000D01*
X155731891Y-110745816D01*
X155731891Y-110745819D01*
X155731892Y-110745821D01*
X155792937Y-110986881D01*
X155835982Y-111085014D01*
X155892825Y-111214604D01*
X155892827Y-111214607D01*
X156028836Y-111422785D01*
X156197256Y-111605738D01*
X156197259Y-111605740D01*
X156393485Y-111758470D01*
X156393487Y-111758471D01*
X156393491Y-111758474D01*
X156612190Y-111876828D01*
X156847386Y-111957571D01*
X157092665Y-111998500D01*
X157341335Y-111998500D01*
X157586614Y-111957571D01*
X157821810Y-111876828D01*
X158040509Y-111758474D01*
X158236744Y-111605738D01*
X158405164Y-111422785D01*
X158541173Y-111214607D01*
X158641063Y-110986881D01*
X158702108Y-110745821D01*
X158722643Y-110498000D01*
X158702108Y-110250179D01*
X158641063Y-110009119D01*
X158541173Y-109781393D01*
X158405164Y-109573215D01*
X158236744Y-109390262D01*
X158173125Y-109340745D01*
X158040514Y-109237529D01*
X158040510Y-109237526D01*
X158040509Y-109237526D01*
X157821810Y-109119172D01*
X157821806Y-109119170D01*
X157821805Y-109119170D01*
X157586615Y-109038429D01*
X157341335Y-108997500D01*
X157092665Y-108997500D01*
X156847384Y-109038429D01*
X156612194Y-109119170D01*
X156393485Y-109237529D01*
X156197259Y-109390259D01*
X156197256Y-109390261D01*
X156197256Y-109390262D01*
X156028836Y-109573215D01*
X156011273Y-109600097D01*
X155892825Y-109781395D01*
X155824110Y-109938051D01*
X155792937Y-110009119D01*
X155761119Y-110134765D01*
X155731891Y-110250183D01*
X155711356Y-110498000D01*
X153712830Y-110498000D01*
X153702853Y-110482636D01*
X153532531Y-110272307D01*
X153471949Y-110197494D01*
X153212506Y-109938051D01*
X153019050Y-109781393D01*
X152927363Y-109707146D01*
X152619656Y-109507320D01*
X152292735Y-109340744D01*
X151950200Y-109209258D01*
X151595788Y-109114293D01*
X151233406Y-109056897D01*
X150867000Y-109037696D01*
X150500593Y-109056897D01*
X150138211Y-109114293D01*
X149783799Y-109209258D01*
X149441264Y-109340744D01*
X149114343Y-109507320D01*
X148806636Y-109707146D01*
X148521490Y-109938054D01*
X148262054Y-110197490D01*
X148031146Y-110482636D01*
X147831320Y-110790343D01*
X147664744Y-111117264D01*
X147533258Y-111459799D01*
X147438293Y-111814211D01*
X147380897Y-112176593D01*
X147361696Y-112543000D01*
X147380897Y-112909406D01*
X147438293Y-113271788D01*
X147503169Y-113513906D01*
X147505011Y-113570191D01*
X147481770Y-113621486D01*
X147438238Y-113657212D01*
X147383394Y-113670000D01*
X144190606Y-113670000D01*
X144135762Y-113657212D01*
X144092230Y-113621486D01*
X144068989Y-113570191D01*
X144070831Y-113513906D01*
X144103212Y-113393058D01*
X144135705Y-113271794D01*
X144149612Y-113183989D01*
X144193102Y-112909406D01*
X144201146Y-112755904D01*
X144212304Y-112543000D01*
X144195710Y-112226373D01*
X144193102Y-112176593D01*
X144135706Y-111814211D01*
X144135705Y-111814206D01*
X144040742Y-111459801D01*
X143909255Y-111117264D01*
X143742682Y-110790348D01*
X143660157Y-110663270D01*
X143542853Y-110482636D01*
X143372531Y-110272307D01*
X143311949Y-110197494D01*
X143052506Y-109938051D01*
X142859050Y-109781393D01*
X142767363Y-109707146D01*
X142459656Y-109507320D01*
X142132735Y-109340744D01*
X141790200Y-109209258D01*
X141435788Y-109114293D01*
X141073406Y-109056897D01*
X140707000Y-109037696D01*
X140340593Y-109056897D01*
X139978211Y-109114293D01*
X139623799Y-109209258D01*
X139281264Y-109340744D01*
X138954343Y-109507320D01*
X138646636Y-109707146D01*
X138361490Y-109938054D01*
X138102054Y-110197490D01*
X137871146Y-110482636D01*
X137671320Y-110790343D01*
X137504744Y-111117264D01*
X137373258Y-111459799D01*
X137278293Y-111814211D01*
X137220897Y-112176593D01*
X137201696Y-112543000D01*
X137220897Y-112909406D01*
X137278293Y-113271788D01*
X137343169Y-113513906D01*
X137345011Y-113570191D01*
X137321770Y-113621486D01*
X137278238Y-113657212D01*
X137223394Y-113670000D01*
X131060674Y-113670000D01*
X130995931Y-113651756D01*
X130950239Y-113602392D01*
X130937044Y-113536434D01*
X130960228Y-113473291D01*
X131040983Y-113361730D01*
X131215971Y-113119988D01*
X131499937Y-112661951D01*
X131750410Y-112184774D01*
X131966108Y-111690903D01*
X132145926Y-111182867D01*
X132288941Y-110663270D01*
X132321927Y-110498000D01*
X132851356Y-110498000D01*
X132871891Y-110745816D01*
X132871891Y-110745819D01*
X132871892Y-110745821D01*
X132932937Y-110986881D01*
X132975982Y-111085014D01*
X133032825Y-111214604D01*
X133032827Y-111214607D01*
X133168836Y-111422785D01*
X133337256Y-111605738D01*
X133337259Y-111605740D01*
X133533485Y-111758470D01*
X133533487Y-111758471D01*
X133533491Y-111758474D01*
X133752190Y-111876828D01*
X133987386Y-111957571D01*
X134232665Y-111998500D01*
X134481335Y-111998500D01*
X134726614Y-111957571D01*
X134961810Y-111876828D01*
X135180509Y-111758474D01*
X135376744Y-111605738D01*
X135545164Y-111422785D01*
X135681173Y-111214607D01*
X135781063Y-110986881D01*
X135842108Y-110745821D01*
X135862643Y-110498000D01*
X135842108Y-110250179D01*
X135781063Y-110009119D01*
X135681173Y-109781393D01*
X135545164Y-109573215D01*
X135376744Y-109390262D01*
X135313125Y-109340745D01*
X135180514Y-109237529D01*
X135180510Y-109237526D01*
X135180509Y-109237526D01*
X134961810Y-109119172D01*
X134961806Y-109119170D01*
X134961805Y-109119170D01*
X134726615Y-109038429D01*
X134481335Y-108997500D01*
X134232665Y-108997500D01*
X133987384Y-109038429D01*
X133752194Y-109119170D01*
X133533485Y-109237529D01*
X133337259Y-109390259D01*
X133337256Y-109390261D01*
X133337256Y-109390262D01*
X133168836Y-109573215D01*
X133151273Y-109600097D01*
X133032825Y-109781395D01*
X132964110Y-109938051D01*
X132932937Y-110009119D01*
X132901119Y-110134765D01*
X132871891Y-110250183D01*
X132851356Y-110498000D01*
X132321927Y-110498000D01*
X132394422Y-110134774D01*
X132438971Y-109781395D01*
X132461827Y-109600097D01*
X132465847Y-109525464D01*
X132490814Y-109061946D01*
X132481230Y-108523112D01*
X132433127Y-107986343D01*
X132346750Y-107454391D01*
X132222543Y-106929979D01*
X132061141Y-106415796D01*
X131863372Y-105914476D01*
X131630248Y-105428587D01*
X131362965Y-104960619D01*
X131062891Y-104512969D01*
X130731565Y-104087932D01*
X130370683Y-103687683D01*
X129982094Y-103314275D01*
X129567790Y-102969620D01*
X129129894Y-102655485D01*
X128670649Y-102373478D01*
X128576957Y-102324808D01*
X128528138Y-102279143D01*
X128510119Y-102214769D01*
X128510119Y-99572999D01*
X135356540Y-99572999D01*
X135376326Y-99761257D01*
X135434820Y-99941284D01*
X135529466Y-100105216D01*
X135656129Y-100245889D01*
X135809269Y-100357151D01*
X135982197Y-100434144D01*
X136167352Y-100473500D01*
X136167354Y-100473500D01*
X136356646Y-100473500D01*
X136356648Y-100473500D01*
X136480084Y-100447262D01*
X136541803Y-100434144D01*
X136714730Y-100357151D01*
X136867871Y-100245888D01*
X136994533Y-100105216D01*
X137089179Y-99941284D01*
X137147674Y-99761256D01*
X137167460Y-99573000D01*
X137167460Y-99572999D01*
X139166540Y-99572999D01*
X139186326Y-99761257D01*
X139244820Y-99941284D01*
X139339466Y-100105216D01*
X139466129Y-100245889D01*
X139619269Y-100357151D01*
X139792197Y-100434144D01*
X139977352Y-100473500D01*
X139977354Y-100473500D01*
X140166646Y-100473500D01*
X140166648Y-100473500D01*
X140290084Y-100447262D01*
X140351803Y-100434144D01*
X140524730Y-100357151D01*
X140677871Y-100245888D01*
X140804533Y-100105216D01*
X140899179Y-99941284D01*
X140957674Y-99761256D01*
X140977460Y-99573000D01*
X140977460Y-99572999D01*
X142976540Y-99572999D01*
X142996326Y-99761257D01*
X143054820Y-99941284D01*
X143149466Y-100105216D01*
X143276129Y-100245889D01*
X143429269Y-100357151D01*
X143602197Y-100434144D01*
X143787352Y-100473500D01*
X143787354Y-100473500D01*
X143976646Y-100473500D01*
X143976648Y-100473500D01*
X144100084Y-100447262D01*
X144161803Y-100434144D01*
X144334730Y-100357151D01*
X144487871Y-100245888D01*
X144614533Y-100105216D01*
X144709179Y-99941284D01*
X144767674Y-99761256D01*
X144787460Y-99573000D01*
X144767674Y-99384744D01*
X144709179Y-99204716D01*
X144709179Y-99204715D01*
X144614535Y-99040787D01*
X144614534Y-99040786D01*
X144614533Y-99040784D01*
X144596693Y-99020971D01*
X144568527Y-98967999D01*
X144568527Y-98908001D01*
X144596693Y-98855028D01*
X144614533Y-98835216D01*
X144709179Y-98671284D01*
X144767674Y-98491256D01*
X144787460Y-98303000D01*
X144767674Y-98114744D01*
X144709179Y-97934716D01*
X144709179Y-97934715D01*
X144614533Y-97770783D01*
X144487870Y-97630110D01*
X144334730Y-97518848D01*
X144161802Y-97441855D01*
X143976648Y-97402500D01*
X143976646Y-97402500D01*
X143787354Y-97402500D01*
X143787352Y-97402500D01*
X143602197Y-97441855D01*
X143429269Y-97518848D01*
X143276129Y-97630110D01*
X143149466Y-97770783D01*
X143054820Y-97934715D01*
X142996326Y-98114742D01*
X142976540Y-98303000D01*
X142996326Y-98491257D01*
X143054820Y-98671284D01*
X143149466Y-98835216D01*
X143167305Y-98855028D01*
X143195472Y-98908002D01*
X143195472Y-98967998D01*
X143167305Y-99020972D01*
X143149466Y-99040783D01*
X143054820Y-99204715D01*
X142996326Y-99384742D01*
X142976540Y-99572999D01*
X140977460Y-99572999D01*
X140957674Y-99384744D01*
X140899179Y-99204716D01*
X140899179Y-99204715D01*
X140804535Y-99040787D01*
X140804534Y-99040786D01*
X140804533Y-99040784D01*
X140786693Y-99020971D01*
X140758527Y-98967999D01*
X140758527Y-98908001D01*
X140786693Y-98855028D01*
X140804533Y-98835216D01*
X140899179Y-98671284D01*
X140957674Y-98491256D01*
X140977460Y-98303000D01*
X140957674Y-98114744D01*
X140899179Y-97934716D01*
X140899179Y-97934715D01*
X140804533Y-97770783D01*
X140677870Y-97630110D01*
X140524730Y-97518848D01*
X140351802Y-97441855D01*
X140166648Y-97402500D01*
X140166646Y-97402500D01*
X139977354Y-97402500D01*
X139977352Y-97402500D01*
X139792197Y-97441855D01*
X139619269Y-97518848D01*
X139466129Y-97630110D01*
X139339466Y-97770783D01*
X139244820Y-97934715D01*
X139186326Y-98114742D01*
X139166540Y-98303000D01*
X139186326Y-98491257D01*
X139244820Y-98671284D01*
X139339466Y-98835216D01*
X139357305Y-98855028D01*
X139385472Y-98908002D01*
X139385472Y-98967998D01*
X139357305Y-99020972D01*
X139339466Y-99040783D01*
X139244820Y-99204715D01*
X139186326Y-99384742D01*
X139166540Y-99572999D01*
X137167460Y-99572999D01*
X137147674Y-99384744D01*
X137089179Y-99204716D01*
X137089179Y-99204715D01*
X136994535Y-99040787D01*
X136994534Y-99040786D01*
X136994533Y-99040784D01*
X136976693Y-99020971D01*
X136948527Y-98967999D01*
X136948527Y-98908001D01*
X136976693Y-98855028D01*
X136994533Y-98835216D01*
X137089179Y-98671284D01*
X137147674Y-98491256D01*
X137167460Y-98303000D01*
X137147674Y-98114744D01*
X137089179Y-97934716D01*
X137089179Y-97934715D01*
X136994533Y-97770783D01*
X136867870Y-97630110D01*
X136714730Y-97518848D01*
X136541802Y-97441855D01*
X136356648Y-97402500D01*
X136356646Y-97402500D01*
X136167354Y-97402500D01*
X136167352Y-97402500D01*
X135982197Y-97441855D01*
X135809269Y-97518848D01*
X135656129Y-97630110D01*
X135529466Y-97770783D01*
X135434820Y-97934715D01*
X135376326Y-98114742D01*
X135356540Y-98303000D01*
X135376326Y-98491257D01*
X135434820Y-98671284D01*
X135529466Y-98835216D01*
X135547305Y-98855028D01*
X135575472Y-98908002D01*
X135575472Y-98967998D01*
X135547305Y-99020972D01*
X135529466Y-99040783D01*
X135434820Y-99204715D01*
X135376326Y-99384742D01*
X135356540Y-99572999D01*
X128510119Y-99572999D01*
X128510119Y-93625522D01*
X128510102Y-93624968D01*
X128510115Y-93591284D01*
X128510154Y-93481975D01*
X128491478Y-93223000D01*
X130276540Y-93223000D01*
X130296326Y-93411257D01*
X130354820Y-93591284D01*
X130449466Y-93755216D01*
X130576129Y-93895889D01*
X130729269Y-94007151D01*
X130902197Y-94084144D01*
X131087352Y-94123500D01*
X131087354Y-94123500D01*
X131276646Y-94123500D01*
X131276648Y-94123500D01*
X131400084Y-94097262D01*
X131461803Y-94084144D01*
X131634730Y-94007151D01*
X131787871Y-93895888D01*
X131914533Y-93755216D01*
X132009179Y-93591284D01*
X132067674Y-93411256D01*
X132087460Y-93223000D01*
X132067674Y-93034744D01*
X132027651Y-92911566D01*
X132009179Y-92854715D01*
X131914535Y-92690787D01*
X131914534Y-92690786D01*
X131914533Y-92690784D01*
X131896693Y-92670971D01*
X131868527Y-92617999D01*
X131868527Y-92558001D01*
X131896693Y-92505028D01*
X131914533Y-92485216D01*
X132009179Y-92321284D01*
X132067674Y-92141256D01*
X132087460Y-91953000D01*
X142976540Y-91953000D01*
X142996326Y-92141257D01*
X143054820Y-92321284D01*
X143149466Y-92485216D01*
X143276129Y-92625889D01*
X143429269Y-92737151D01*
X143602197Y-92814144D01*
X143787352Y-92853500D01*
X143787354Y-92853500D01*
X143976646Y-92853500D01*
X143976648Y-92853500D01*
X144100083Y-92827262D01*
X144161803Y-92814144D01*
X144334730Y-92737151D01*
X144487871Y-92625888D01*
X144614533Y-92485216D01*
X144709179Y-92321284D01*
X144767674Y-92141256D01*
X144787460Y-91953000D01*
X144767674Y-91764744D01*
X144724707Y-91632505D01*
X144709179Y-91584715D01*
X144614533Y-91420783D01*
X144487870Y-91280110D01*
X144334730Y-91168848D01*
X144161802Y-91091855D01*
X143976648Y-91052500D01*
X143976646Y-91052500D01*
X143787354Y-91052500D01*
X143787352Y-91052500D01*
X143602197Y-91091855D01*
X143429269Y-91168848D01*
X143276129Y-91280110D01*
X143149466Y-91420783D01*
X143054820Y-91584715D01*
X142996326Y-91764742D01*
X142976540Y-91953000D01*
X132087460Y-91953000D01*
X132067674Y-91764744D01*
X132024707Y-91632505D01*
X132009179Y-91584715D01*
X131914535Y-91420787D01*
X131914534Y-91420786D01*
X131914533Y-91420784D01*
X131896693Y-91400971D01*
X131868527Y-91347999D01*
X131868527Y-91288001D01*
X131896693Y-91235028D01*
X131914533Y-91215216D01*
X132009179Y-91051284D01*
X132067674Y-90871256D01*
X132087460Y-90683000D01*
X132067674Y-90494744D01*
X132009179Y-90314716D01*
X132009179Y-90314715D01*
X131914533Y-90150783D01*
X131896694Y-90130971D01*
X131868527Y-90077997D01*
X131868528Y-90018000D01*
X131896694Y-89965027D01*
X131914533Y-89945216D01*
X132009179Y-89781284D01*
X132067674Y-89601256D01*
X132087460Y-89413000D01*
X132067674Y-89224744D01*
X132009179Y-89044716D01*
X132009179Y-89044715D01*
X131914533Y-88880783D01*
X131787870Y-88740110D01*
X131634730Y-88628848D01*
X131461802Y-88551855D01*
X131276648Y-88512500D01*
X131276646Y-88512500D01*
X131087354Y-88512500D01*
X131087352Y-88512500D01*
X130902197Y-88551855D01*
X130729269Y-88628848D01*
X130576129Y-88740110D01*
X130449466Y-88880783D01*
X130354820Y-89044715D01*
X130296326Y-89224742D01*
X130276540Y-89412999D01*
X130296326Y-89601257D01*
X130354820Y-89781284D01*
X130449466Y-89945215D01*
X130467304Y-89965026D01*
X130495471Y-90017999D01*
X130495472Y-90077995D01*
X130467307Y-90130969D01*
X130449466Y-90150783D01*
X130354820Y-90314715D01*
X130296326Y-90494742D01*
X130276540Y-90682999D01*
X130296326Y-90871257D01*
X130354820Y-91051284D01*
X130449466Y-91215215D01*
X130467304Y-91235026D01*
X130495471Y-91287999D01*
X130495472Y-91347995D01*
X130467307Y-91400969D01*
X130449466Y-91420783D01*
X130354820Y-91584715D01*
X130296326Y-91764742D01*
X130276540Y-91953000D01*
X130296326Y-92141257D01*
X130354820Y-92321284D01*
X130449466Y-92485215D01*
X130467304Y-92505026D01*
X130495471Y-92557999D01*
X130495472Y-92617995D01*
X130467307Y-92670969D01*
X130449466Y-92690783D01*
X130354820Y-92854715D01*
X130296326Y-93034742D01*
X130276540Y-93223000D01*
X128491478Y-93223000D01*
X128476236Y-93011631D01*
X128408358Y-92544977D01*
X128306875Y-92084461D01*
X128172320Y-91632501D01*
X128005399Y-91191467D01*
X127806987Y-90763675D01*
X127578127Y-90351368D01*
X127360101Y-90017999D01*
X127320014Y-89956704D01*
X127034017Y-89581776D01*
X126721620Y-89228526D01*
X126384479Y-88898827D01*
X126337447Y-88859061D01*
X126335061Y-88856803D01*
X126203162Y-88745517D01*
X126201525Y-88744112D01*
X125981543Y-88551856D01*
X125404774Y-88047782D01*
X125401619Y-88044926D01*
X124960236Y-87631222D01*
X124630432Y-87322099D01*
X124627336Y-87319094D01*
X124187297Y-86876902D01*
X123881769Y-86569879D01*
X123878811Y-86566802D01*
X123159755Y-85792096D01*
X123156880Y-85788888D01*
X123089721Y-85711283D01*
X122996014Y-85603000D01*
X128371540Y-85603000D01*
X128391326Y-85791257D01*
X128449820Y-85971284D01*
X128544466Y-86135216D01*
X128671129Y-86275889D01*
X128824269Y-86387151D01*
X128997197Y-86464144D01*
X129182352Y-86503500D01*
X129182354Y-86503500D01*
X129371646Y-86503500D01*
X129371648Y-86503500D01*
X129508547Y-86474401D01*
X129556803Y-86464144D01*
X129729730Y-86387151D01*
X129882871Y-86275888D01*
X130009533Y-86135216D01*
X130104179Y-85971284D01*
X130162674Y-85791256D01*
X130182460Y-85603000D01*
X132181540Y-85603000D01*
X132201326Y-85791257D01*
X132259820Y-85971284D01*
X132354466Y-86135216D01*
X132481129Y-86275889D01*
X132634269Y-86387151D01*
X132807197Y-86464144D01*
X132992352Y-86503500D01*
X132992354Y-86503500D01*
X133181646Y-86503500D01*
X133181648Y-86503500D01*
X133318547Y-86474401D01*
X133366803Y-86464144D01*
X133539730Y-86387151D01*
X133692871Y-86275888D01*
X133819533Y-86135216D01*
X133914179Y-85971284D01*
X133972674Y-85791256D01*
X133992460Y-85603000D01*
X133992460Y-85602999D01*
X143161340Y-85602999D01*
X143181936Y-85838407D01*
X143226709Y-86005501D01*
X143243097Y-86066663D01*
X143342965Y-86280830D01*
X143478505Y-86474401D01*
X143645599Y-86641495D01*
X143839170Y-86777035D01*
X144053337Y-86876903D01*
X144281592Y-86938063D01*
X144517000Y-86958659D01*
X144752408Y-86938063D01*
X144980663Y-86876903D01*
X145194830Y-86777035D01*
X145388401Y-86641495D01*
X145555495Y-86474401D01*
X145685426Y-86288839D01*
X145729743Y-86249975D01*
X145787000Y-86235964D01*
X145844257Y-86249975D01*
X145888573Y-86288839D01*
X146018505Y-86474401D01*
X146185599Y-86641495D01*
X146379170Y-86777035D01*
X146593337Y-86876903D01*
X146821592Y-86938063D01*
X147057000Y-86958659D01*
X147292408Y-86938063D01*
X147520663Y-86876903D01*
X147734830Y-86777035D01*
X147928401Y-86641495D01*
X148095495Y-86474401D01*
X148231035Y-86280830D01*
X148330903Y-86066663D01*
X148392063Y-85838408D01*
X148412659Y-85603000D01*
X148392063Y-85367592D01*
X148330903Y-85139337D01*
X148231035Y-84925171D01*
X148095495Y-84731599D01*
X147928401Y-84564505D01*
X147742839Y-84434573D01*
X147703975Y-84390257D01*
X147689964Y-84333000D01*
X147703975Y-84275743D01*
X147742839Y-84231426D01*
X147928401Y-84101495D01*
X148095495Y-83934401D01*
X148231035Y-83740830D01*
X148330903Y-83526663D01*
X148392063Y-83298408D01*
X148412659Y-83063000D01*
X148392063Y-82827592D01*
X148330903Y-82599337D01*
X148231035Y-82385171D01*
X148095495Y-82191599D01*
X147928401Y-82024505D01*
X147734830Y-81888965D01*
X147520663Y-81789097D01*
X147459502Y-81772709D01*
X147292407Y-81727936D01*
X147057000Y-81707340D01*
X146821592Y-81727936D01*
X146593336Y-81789097D01*
X146379170Y-81888965D01*
X146185598Y-82024505D01*
X146018505Y-82191598D01*
X145882965Y-82385170D01*
X145783097Y-82599336D01*
X145721936Y-82827592D01*
X145701340Y-83063000D01*
X145721936Y-83298407D01*
X145766709Y-83465502D01*
X145783097Y-83526663D01*
X145882965Y-83740830D01*
X146018505Y-83934401D01*
X146185599Y-84101495D01*
X146371160Y-84231426D01*
X146410024Y-84275743D01*
X146424035Y-84333000D01*
X146410024Y-84390257D01*
X146371159Y-84434575D01*
X146185595Y-84564508D01*
X146018505Y-84731598D01*
X145888575Y-84917159D01*
X145844257Y-84956025D01*
X145787000Y-84970036D01*
X145729743Y-84956025D01*
X145685425Y-84917159D01*
X145555494Y-84731598D01*
X145388404Y-84564508D01*
X145388401Y-84564505D01*
X145194830Y-84428965D01*
X144980663Y-84329097D01*
X144919501Y-84312709D01*
X144752407Y-84267936D01*
X144517000Y-84247340D01*
X144281592Y-84267936D01*
X144053336Y-84329097D01*
X143839170Y-84428965D01*
X143645598Y-84564505D01*
X143478505Y-84731598D01*
X143342965Y-84925170D01*
X143243097Y-85139336D01*
X143181936Y-85367592D01*
X143161340Y-85602999D01*
X133992460Y-85602999D01*
X133972674Y-85414744D01*
X133914179Y-85234716D01*
X133914179Y-85234715D01*
X133819533Y-85070783D01*
X133692870Y-84930110D01*
X133539730Y-84818848D01*
X133366802Y-84741855D01*
X133181648Y-84702500D01*
X133181646Y-84702500D01*
X132992354Y-84702500D01*
X132992352Y-84702500D01*
X132807197Y-84741855D01*
X132634269Y-84818848D01*
X132481129Y-84930110D01*
X132354466Y-85070783D01*
X132259820Y-85234715D01*
X132201326Y-85414742D01*
X132181540Y-85603000D01*
X130182460Y-85603000D01*
X130162674Y-85414744D01*
X130104179Y-85234716D01*
X130104179Y-85234715D01*
X130009533Y-85070783D01*
X129882870Y-84930110D01*
X129729730Y-84818848D01*
X129556802Y-84741855D01*
X129371648Y-84702500D01*
X129371646Y-84702500D01*
X129182354Y-84702500D01*
X129182352Y-84702500D01*
X128997197Y-84741855D01*
X128824269Y-84818848D01*
X128671129Y-84930110D01*
X128544466Y-85070783D01*
X128449820Y-85234715D01*
X128391326Y-85414742D01*
X128371540Y-85603000D01*
X122996014Y-85603000D01*
X122465226Y-84989648D01*
X122462460Y-84986337D01*
X121932534Y-84329097D01*
X121799016Y-84163501D01*
X121796375Y-84160105D01*
X121752393Y-84101495D01*
X121162004Y-83314743D01*
X121159474Y-83311248D01*
X120554851Y-82444259D01*
X120552445Y-82440677D01*
X120516539Y-82385170D01*
X120078075Y-81707341D01*
X119978379Y-81553219D01*
X119976099Y-81549556D01*
X119767360Y-81200830D01*
X119433234Y-80642626D01*
X119431111Y-80638936D01*
X118920126Y-79713666D01*
X118918111Y-79709863D01*
X118912973Y-79699742D01*
X118439635Y-78767391D01*
X118437755Y-78763522D01*
X118417896Y-78720784D01*
X118162554Y-78171256D01*
X117992369Y-77804996D01*
X117990619Y-77801052D01*
X117578852Y-76827616D01*
X117577240Y-76823614D01*
X117303474Y-76107995D01*
X117199572Y-75836398D01*
X117198105Y-75832351D01*
X117190875Y-75811284D01*
X116855023Y-74832622D01*
X116853694Y-74828517D01*
X116724488Y-74404505D01*
X116545599Y-73817451D01*
X116544421Y-73813327D01*
X116400659Y-73275049D01*
X117821588Y-73275049D01*
X117841374Y-73463306D01*
X117899868Y-73643333D01*
X117951797Y-73733276D01*
X117968410Y-73795275D01*
X117951798Y-73857275D01*
X117908820Y-73931716D01*
X117850326Y-74111742D01*
X117830540Y-74299999D01*
X117850326Y-74488257D01*
X117908820Y-74668284D01*
X118003466Y-74832216D01*
X118130129Y-74972889D01*
X118283269Y-75084151D01*
X118456197Y-75161144D01*
X118641352Y-75200500D01*
X118641354Y-75200500D01*
X118830646Y-75200500D01*
X118830648Y-75200500D01*
X118954083Y-75174262D01*
X119015803Y-75161144D01*
X119127755Y-75111298D01*
X119193564Y-75081999D01*
X119244000Y-75071278D01*
X119294436Y-75081999D01*
X119472197Y-75161144D01*
X119657352Y-75200500D01*
X119657354Y-75200500D01*
X119846646Y-75200500D01*
X119846648Y-75200500D01*
X119970083Y-75174262D01*
X120031803Y-75161144D01*
X120204730Y-75084151D01*
X120260810Y-75043407D01*
X120357870Y-74972889D01*
X120484533Y-74832216D01*
X120579179Y-74668284D01*
X120620444Y-74541284D01*
X120637674Y-74488256D01*
X120657460Y-74300000D01*
X120637674Y-74111744D01*
X120579179Y-73931716D01*
X120579179Y-73931715D01*
X120484533Y-73767783D01*
X120401690Y-73675777D01*
X120373018Y-73620699D01*
X120374644Y-73558626D01*
X120406157Y-73505126D01*
X121818363Y-72092921D01*
X121870202Y-72061896D01*
X121930551Y-72059050D01*
X121985082Y-72085060D01*
X122020850Y-72133751D01*
X122029363Y-72193565D01*
X122021540Y-72267999D01*
X122041326Y-72456257D01*
X122099820Y-72636284D01*
X122194466Y-72800215D01*
X122212304Y-72820026D01*
X122240471Y-72872999D01*
X122240472Y-72932995D01*
X122212307Y-72985969D01*
X122194466Y-73005783D01*
X122099820Y-73169715D01*
X122041326Y-73349742D01*
X122021540Y-73537999D01*
X122041326Y-73726257D01*
X122099820Y-73906284D01*
X122194466Y-74070215D01*
X122212304Y-74090026D01*
X122240471Y-74142999D01*
X122240472Y-74202995D01*
X122212307Y-74255969D01*
X122194466Y-74275783D01*
X122099820Y-74439715D01*
X122041326Y-74619742D01*
X122021540Y-74808000D01*
X122041326Y-74996257D01*
X122099820Y-75176284D01*
X122194466Y-75340215D01*
X122212304Y-75360026D01*
X122240471Y-75412999D01*
X122240472Y-75472995D01*
X122212307Y-75525969D01*
X122194466Y-75545783D01*
X122099820Y-75709715D01*
X122041326Y-75889742D01*
X122021540Y-76078000D01*
X122041326Y-76266257D01*
X122099820Y-76446284D01*
X122194466Y-76610215D01*
X122212304Y-76630026D01*
X122240471Y-76682999D01*
X122240472Y-76742995D01*
X122212307Y-76795969D01*
X122194466Y-76815783D01*
X122099820Y-76979715D01*
X122041326Y-77159742D01*
X122021540Y-77348000D01*
X122041326Y-77536257D01*
X122099820Y-77716284D01*
X122194466Y-77880215D01*
X122212304Y-77900026D01*
X122240471Y-77952999D01*
X122240472Y-78012995D01*
X122212307Y-78065969D01*
X122194466Y-78085783D01*
X122099820Y-78249715D01*
X122041326Y-78429742D01*
X122041325Y-78429744D01*
X122041326Y-78429744D01*
X122021540Y-78618000D01*
X122030260Y-78700969D01*
X122041326Y-78806257D01*
X122099820Y-78986284D01*
X122194466Y-79150215D01*
X122212304Y-79170026D01*
X122240471Y-79222999D01*
X122240472Y-79282995D01*
X122212307Y-79335969D01*
X122194466Y-79355783D01*
X122099820Y-79519715D01*
X122041326Y-79699742D01*
X122021540Y-79888000D01*
X122041326Y-80076257D01*
X122099820Y-80256284D01*
X122194466Y-80420216D01*
X122321129Y-80560889D01*
X122474269Y-80672151D01*
X122647197Y-80749144D01*
X122832352Y-80788500D01*
X122832354Y-80788500D01*
X123021646Y-80788500D01*
X123021648Y-80788500D01*
X123163219Y-80758408D01*
X123206803Y-80749144D01*
X123379730Y-80672151D01*
X123379729Y-80672151D01*
X123532870Y-80560889D01*
X123566987Y-80522999D01*
X123659533Y-80420216D01*
X123754179Y-80256284D01*
X123812674Y-80076256D01*
X123832460Y-79888000D01*
X128371540Y-79888000D01*
X128374693Y-79917998D01*
X128391326Y-80076257D01*
X128449820Y-80256284D01*
X128544466Y-80420216D01*
X128671129Y-80560889D01*
X128824269Y-80672151D01*
X128997197Y-80749144D01*
X129182352Y-80788500D01*
X129182354Y-80788500D01*
X129371646Y-80788500D01*
X129371648Y-80788500D01*
X129513219Y-80758408D01*
X129556803Y-80749144D01*
X129729730Y-80672151D01*
X129729729Y-80672151D01*
X129882870Y-80560889D01*
X129916987Y-80522999D01*
X135356540Y-80522999D01*
X135376326Y-80711257D01*
X135434820Y-80891284D01*
X135529466Y-81055216D01*
X135656129Y-81195889D01*
X135809269Y-81307151D01*
X135982197Y-81384144D01*
X136167352Y-81423500D01*
X136167354Y-81423500D01*
X136356646Y-81423500D01*
X136356648Y-81423500D01*
X136493547Y-81394401D01*
X136541803Y-81384144D01*
X136714730Y-81307151D01*
X136867871Y-81195888D01*
X136994533Y-81055216D01*
X137089179Y-80891284D01*
X137118027Y-80802499D01*
X139801540Y-80802499D01*
X139821326Y-80990757D01*
X139879820Y-81170784D01*
X139974466Y-81334716D01*
X140101129Y-81475389D01*
X140254269Y-81586651D01*
X140427197Y-81663644D01*
X140612352Y-81703000D01*
X140612354Y-81703000D01*
X140801646Y-81703000D01*
X140801648Y-81703000D01*
X140925084Y-81676762D01*
X140986803Y-81663644D01*
X141159730Y-81586651D01*
X141210787Y-81549556D01*
X141312870Y-81475389D01*
X141385790Y-81394404D01*
X141439533Y-81334716D01*
X141534179Y-81170784D01*
X141592674Y-80990756D01*
X141612460Y-80802500D01*
X141592674Y-80614244D01*
X141563027Y-80523000D01*
X143161340Y-80523000D01*
X143181936Y-80758407D01*
X143226709Y-80925502D01*
X143243097Y-80986663D01*
X143342965Y-81200830D01*
X143478505Y-81394401D01*
X143645599Y-81561495D01*
X143839170Y-81697035D01*
X144053337Y-81796903D01*
X144281592Y-81858063D01*
X144517000Y-81878659D01*
X144752408Y-81858063D01*
X144980663Y-81796903D01*
X145194830Y-81697035D01*
X145388401Y-81561495D01*
X145555495Y-81394401D01*
X145691035Y-81200830D01*
X145790903Y-80986663D01*
X145852063Y-80758408D01*
X145872659Y-80523000D01*
X145872659Y-80522999D01*
X149961540Y-80522999D01*
X149981326Y-80711257D01*
X150039820Y-80891284D01*
X150134466Y-81055216D01*
X150261129Y-81195889D01*
X150414269Y-81307151D01*
X150587197Y-81384144D01*
X150772352Y-81423500D01*
X150772354Y-81423500D01*
X150961646Y-81423500D01*
X150961648Y-81423500D01*
X151098547Y-81394401D01*
X151146803Y-81384144D01*
X151319730Y-81307151D01*
X151472871Y-81195888D01*
X151599533Y-81055216D01*
X151694179Y-80891284D01*
X151752674Y-80711256D01*
X151772460Y-80523000D01*
X151772460Y-80522999D01*
X154406540Y-80522999D01*
X154426326Y-80711257D01*
X154484820Y-80891284D01*
X154579466Y-81055216D01*
X154706129Y-81195889D01*
X154859269Y-81307151D01*
X155032197Y-81384144D01*
X155217352Y-81423500D01*
X155217354Y-81423500D01*
X155406646Y-81423500D01*
X155406648Y-81423500D01*
X155543547Y-81394401D01*
X155591803Y-81384144D01*
X155764730Y-81307151D01*
X155917871Y-81195888D01*
X156044533Y-81055216D01*
X156139179Y-80891284D01*
X156197674Y-80711256D01*
X156217460Y-80523000D01*
X156197674Y-80334744D01*
X156139179Y-80154716D01*
X156139179Y-80154715D01*
X156044535Y-79990787D01*
X156044534Y-79990786D01*
X156044533Y-79990784D01*
X156026693Y-79970971D01*
X155998527Y-79917999D01*
X155998527Y-79888000D01*
X161391540Y-79888000D01*
X161394693Y-79917998D01*
X161411326Y-80076257D01*
X161469820Y-80256284D01*
X161564466Y-80420216D01*
X161691129Y-80560889D01*
X161844269Y-80672151D01*
X162017197Y-80749144D01*
X162202352Y-80788500D01*
X162202354Y-80788500D01*
X162391646Y-80788500D01*
X162391648Y-80788500D01*
X162533219Y-80758408D01*
X162576803Y-80749144D01*
X162749730Y-80672151D01*
X162749729Y-80672151D01*
X162902870Y-80560889D01*
X162936987Y-80522999D01*
X163029533Y-80420216D01*
X163124179Y-80256284D01*
X163182674Y-80076256D01*
X163202460Y-79888000D01*
X167741540Y-79888000D01*
X167744693Y-79917998D01*
X167761326Y-80076257D01*
X167819820Y-80256284D01*
X167914466Y-80420216D01*
X168041129Y-80560889D01*
X168194269Y-80672151D01*
X168367197Y-80749144D01*
X168552352Y-80788500D01*
X168552354Y-80788500D01*
X168741646Y-80788500D01*
X168741648Y-80788500D01*
X168883219Y-80758408D01*
X168926803Y-80749144D01*
X169099730Y-80672151D01*
X169099729Y-80672151D01*
X169252870Y-80560889D01*
X169286987Y-80522999D01*
X169379533Y-80420216D01*
X169474179Y-80256284D01*
X169532674Y-80076256D01*
X169552460Y-79888000D01*
X169532674Y-79699744D01*
X169474179Y-79519716D01*
X169474179Y-79519715D01*
X169379533Y-79355783D01*
X169361694Y-79335971D01*
X169333527Y-79282996D01*
X169333528Y-79222998D01*
X169361696Y-79170025D01*
X169379533Y-79150216D01*
X169474179Y-78986284D01*
X169532674Y-78806256D01*
X169552460Y-78618000D01*
X169532674Y-78429744D01*
X169474179Y-78249716D01*
X169474179Y-78249715D01*
X169379535Y-78085787D01*
X169379534Y-78085786D01*
X169379533Y-78085784D01*
X169361693Y-78065971D01*
X169333527Y-78012999D01*
X169333527Y-77953001D01*
X169361693Y-77900028D01*
X169379533Y-77880216D01*
X169474179Y-77716284D01*
X169532674Y-77536256D01*
X169552460Y-77348000D01*
X169532674Y-77159744D01*
X169474179Y-76979716D01*
X169474179Y-76979715D01*
X169379535Y-76815787D01*
X169379534Y-76815786D01*
X169379533Y-76815784D01*
X169361693Y-76795971D01*
X169333527Y-76742999D01*
X169333527Y-76683001D01*
X169361693Y-76630028D01*
X169379533Y-76610216D01*
X169474179Y-76446284D01*
X169532674Y-76266256D01*
X169552460Y-76078000D01*
X169532674Y-75889744D01*
X169474179Y-75709716D01*
X169474179Y-75709715D01*
X169379533Y-75545783D01*
X169361694Y-75525971D01*
X169333527Y-75472997D01*
X169333528Y-75413000D01*
X169361694Y-75360027D01*
X169379533Y-75340216D01*
X169474179Y-75176284D01*
X169532674Y-74996256D01*
X169552460Y-74808000D01*
X169532674Y-74619744D01*
X169474179Y-74439716D01*
X169474179Y-74439715D01*
X169393515Y-74300000D01*
X170662540Y-74300000D01*
X170682326Y-74488257D01*
X170740820Y-74668284D01*
X170835466Y-74832216D01*
X170962129Y-74972889D01*
X171115269Y-75084151D01*
X171288197Y-75161144D01*
X171473352Y-75200500D01*
X171473354Y-75200500D01*
X171662646Y-75200500D01*
X171662648Y-75200500D01*
X171786083Y-75174262D01*
X171847803Y-75161144D01*
X172020730Y-75084151D01*
X172020731Y-75084149D01*
X172028242Y-75080806D01*
X172078678Y-75070085D01*
X172129114Y-75080806D01*
X172299898Y-75156845D01*
X172485053Y-75196201D01*
X172485055Y-75196201D01*
X172674347Y-75196201D01*
X172674349Y-75196201D01*
X172797785Y-75169963D01*
X172859504Y-75156845D01*
X173032431Y-75079852D01*
X173032431Y-75079851D01*
X173034587Y-75078892D01*
X173085023Y-75068171D01*
X173135459Y-75078892D01*
X173147268Y-75084150D01*
X173147270Y-75084151D01*
X173310541Y-75156845D01*
X173320197Y-75161144D01*
X173505352Y-75200500D01*
X173505354Y-75200500D01*
X173694646Y-75200500D01*
X173694648Y-75200500D01*
X173818083Y-75174262D01*
X173879803Y-75161144D01*
X174052730Y-75084151D01*
X174108810Y-75043407D01*
X174205870Y-74972889D01*
X174332533Y-74832216D01*
X174427179Y-74668284D01*
X174468444Y-74541284D01*
X174485674Y-74488256D01*
X174505460Y-74300000D01*
X174485674Y-74111744D01*
X174427179Y-73931716D01*
X174427179Y-73931715D01*
X174332533Y-73767783D01*
X174205870Y-73627110D01*
X174052730Y-73515848D01*
X173879802Y-73438855D01*
X173694648Y-73399500D01*
X173694646Y-73399500D01*
X173505354Y-73399500D01*
X173505352Y-73399500D01*
X173320199Y-73438854D01*
X173145113Y-73516808D01*
X173094678Y-73527528D01*
X173044243Y-73516808D01*
X172859501Y-73434555D01*
X172674349Y-73395201D01*
X172674347Y-73395201D01*
X172485055Y-73395201D01*
X172485053Y-73395201D01*
X172299898Y-73434556D01*
X172119459Y-73514894D01*
X172069023Y-73525615D01*
X172018587Y-73514894D01*
X171847802Y-73438855D01*
X171662648Y-73399500D01*
X171662646Y-73399500D01*
X171473354Y-73399500D01*
X171473352Y-73399500D01*
X171288197Y-73438855D01*
X171115269Y-73515848D01*
X170962129Y-73627110D01*
X170835466Y-73767783D01*
X170740820Y-73931715D01*
X170682326Y-74111742D01*
X170662540Y-74300000D01*
X169393515Y-74300000D01*
X169379533Y-74275783D01*
X169361694Y-74255971D01*
X169333527Y-74202997D01*
X169333528Y-74143000D01*
X169361694Y-74090027D01*
X169379533Y-74070216D01*
X169474179Y-73906284D01*
X169532674Y-73726256D01*
X169552460Y-73538000D01*
X169532674Y-73349744D01*
X169474179Y-73169716D01*
X169474179Y-73169715D01*
X169379533Y-73005783D01*
X169361694Y-72985971D01*
X169333527Y-72932997D01*
X169333528Y-72873000D01*
X169361694Y-72820027D01*
X169379533Y-72800216D01*
X169474179Y-72636284D01*
X169532674Y-72456256D01*
X169552460Y-72268000D01*
X169532674Y-72079744D01*
X169474179Y-71899716D01*
X169474179Y-71899715D01*
X169379533Y-71735783D01*
X169252870Y-71595110D01*
X169099730Y-71483848D01*
X168926802Y-71406855D01*
X168741648Y-71367500D01*
X168741646Y-71367500D01*
X168552354Y-71367500D01*
X168552352Y-71367500D01*
X168367197Y-71406855D01*
X168194269Y-71483848D01*
X168041129Y-71595110D01*
X167914466Y-71735783D01*
X167819820Y-71899715D01*
X167761326Y-72079742D01*
X167741540Y-72267999D01*
X167761326Y-72456257D01*
X167819820Y-72636284D01*
X167914466Y-72800215D01*
X167932304Y-72820026D01*
X167960471Y-72872999D01*
X167960472Y-72932995D01*
X167932307Y-72985969D01*
X167914466Y-73005783D01*
X167819820Y-73169715D01*
X167761326Y-73349742D01*
X167741540Y-73538000D01*
X167761326Y-73726257D01*
X167819820Y-73906284D01*
X167914466Y-74070215D01*
X167932304Y-74090026D01*
X167960471Y-74142999D01*
X167960472Y-74202995D01*
X167932307Y-74255969D01*
X167914466Y-74275783D01*
X167819820Y-74439715D01*
X167761326Y-74619742D01*
X167741540Y-74808000D01*
X167761326Y-74996257D01*
X167819820Y-75176284D01*
X167914466Y-75340215D01*
X167932304Y-75360026D01*
X167960471Y-75412999D01*
X167960472Y-75472995D01*
X167932307Y-75525969D01*
X167914466Y-75545783D01*
X167819820Y-75709715D01*
X167761326Y-75889742D01*
X167761325Y-75889744D01*
X167761326Y-75889744D01*
X167741540Y-76078000D01*
X167750260Y-76160969D01*
X167761326Y-76266257D01*
X167819820Y-76446284D01*
X167914466Y-76610215D01*
X167932304Y-76630026D01*
X167960471Y-76682999D01*
X167960472Y-76742995D01*
X167932307Y-76795969D01*
X167914466Y-76815783D01*
X167819820Y-76979715D01*
X167761326Y-77159742D01*
X167741540Y-77348000D01*
X167761326Y-77536257D01*
X167819820Y-77716284D01*
X167914466Y-77880215D01*
X167932304Y-77900026D01*
X167960471Y-77952999D01*
X167960472Y-78012995D01*
X167932307Y-78065969D01*
X167914466Y-78085783D01*
X167819820Y-78249715D01*
X167761326Y-78429742D01*
X167761325Y-78429744D01*
X167761326Y-78429744D01*
X167741540Y-78618000D01*
X167750260Y-78700969D01*
X167761326Y-78806257D01*
X167819820Y-78986284D01*
X167914466Y-79150215D01*
X167932304Y-79170026D01*
X167960471Y-79222999D01*
X167960472Y-79282995D01*
X167932307Y-79335969D01*
X167914466Y-79355783D01*
X167819820Y-79519715D01*
X167761326Y-79699742D01*
X167752343Y-79785212D01*
X167741540Y-79888000D01*
X163202460Y-79888000D01*
X163182674Y-79699744D01*
X163124179Y-79519716D01*
X163124179Y-79519715D01*
X163029533Y-79355783D01*
X163011694Y-79335971D01*
X162983527Y-79282996D01*
X162983528Y-79222998D01*
X163011696Y-79170025D01*
X163029533Y-79150216D01*
X163124179Y-78986284D01*
X163182674Y-78806256D01*
X163202460Y-78618000D01*
X164566540Y-78618000D01*
X164575260Y-78700969D01*
X164586326Y-78806257D01*
X164644820Y-78986284D01*
X164739466Y-79150216D01*
X164866129Y-79290889D01*
X165019269Y-79402151D01*
X165192197Y-79479144D01*
X165377352Y-79518500D01*
X165377354Y-79518500D01*
X165566646Y-79518500D01*
X165566648Y-79518500D01*
X165726581Y-79484505D01*
X165751803Y-79479144D01*
X165924730Y-79402151D01*
X166012120Y-79338659D01*
X166077870Y-79290889D01*
X166111987Y-79252999D01*
X166204533Y-79150216D01*
X166299179Y-78986284D01*
X166357674Y-78806256D01*
X166377460Y-78618000D01*
X166357674Y-78429744D01*
X166299179Y-78249716D01*
X166299179Y-78249715D01*
X166204535Y-78085787D01*
X166204534Y-78085786D01*
X166204533Y-78085784D01*
X166186693Y-78065971D01*
X166158527Y-78012999D01*
X166158527Y-77953001D01*
X166186693Y-77900028D01*
X166204533Y-77880216D01*
X166299179Y-77716284D01*
X166357674Y-77536256D01*
X166377460Y-77348000D01*
X166357674Y-77159744D01*
X166299179Y-76979716D01*
X166299179Y-76979715D01*
X166204535Y-76815787D01*
X166204534Y-76815786D01*
X166204533Y-76815784D01*
X166186693Y-76795971D01*
X166158527Y-76742999D01*
X166158527Y-76683001D01*
X166186693Y-76630028D01*
X166204533Y-76610216D01*
X166299179Y-76446284D01*
X166357674Y-76266256D01*
X166377460Y-76078000D01*
X166357674Y-75889744D01*
X166299179Y-75709716D01*
X166299179Y-75709715D01*
X166204533Y-75545783D01*
X166186694Y-75525971D01*
X166158527Y-75472997D01*
X166158528Y-75413000D01*
X166186694Y-75360027D01*
X166204533Y-75340216D01*
X166299179Y-75176284D01*
X166357674Y-74996256D01*
X166377460Y-74808000D01*
X166357674Y-74619744D01*
X166299179Y-74439716D01*
X166299179Y-74439715D01*
X166204533Y-74275783D01*
X166186694Y-74255971D01*
X166158527Y-74202997D01*
X166158528Y-74143000D01*
X166186694Y-74090027D01*
X166204533Y-74070216D01*
X166299179Y-73906284D01*
X166357674Y-73726256D01*
X166377460Y-73538000D01*
X166357674Y-73349744D01*
X166299179Y-73169716D01*
X166299179Y-73169715D01*
X166204533Y-73005783D01*
X166077870Y-72865110D01*
X165924730Y-72753848D01*
X165751802Y-72676855D01*
X165566648Y-72637500D01*
X165566646Y-72637500D01*
X165377354Y-72637500D01*
X165377352Y-72637500D01*
X165192197Y-72676855D01*
X165019269Y-72753848D01*
X164866129Y-72865110D01*
X164739466Y-73005783D01*
X164644820Y-73169715D01*
X164586326Y-73349742D01*
X164566540Y-73538000D01*
X164586326Y-73726257D01*
X164644820Y-73906284D01*
X164739466Y-74070215D01*
X164757304Y-74090026D01*
X164785471Y-74142999D01*
X164785472Y-74202995D01*
X164757307Y-74255969D01*
X164739466Y-74275783D01*
X164644820Y-74439715D01*
X164586326Y-74619742D01*
X164566540Y-74808000D01*
X164586326Y-74996257D01*
X164644820Y-75176284D01*
X164739466Y-75340215D01*
X164757304Y-75360026D01*
X164785471Y-75412999D01*
X164785472Y-75472995D01*
X164757307Y-75525969D01*
X164739466Y-75545783D01*
X164644820Y-75709715D01*
X164586326Y-75889742D01*
X164586325Y-75889744D01*
X164586326Y-75889744D01*
X164566540Y-76078000D01*
X164575260Y-76160969D01*
X164586326Y-76266257D01*
X164644820Y-76446284D01*
X164739466Y-76610215D01*
X164757304Y-76630026D01*
X164785471Y-76682999D01*
X164785472Y-76742995D01*
X164757307Y-76795969D01*
X164739466Y-76815783D01*
X164644820Y-76979715D01*
X164586326Y-77159742D01*
X164566540Y-77348000D01*
X164586326Y-77536257D01*
X164644820Y-77716284D01*
X164739466Y-77880215D01*
X164757304Y-77900026D01*
X164785471Y-77952999D01*
X164785472Y-78012995D01*
X164757307Y-78065969D01*
X164739466Y-78085783D01*
X164644820Y-78249715D01*
X164586326Y-78429742D01*
X164586325Y-78429744D01*
X164586326Y-78429744D01*
X164566540Y-78618000D01*
X163202460Y-78618000D01*
X163182674Y-78429744D01*
X163124179Y-78249716D01*
X163124179Y-78249715D01*
X163029535Y-78085787D01*
X163029534Y-78085786D01*
X163029533Y-78085784D01*
X163011693Y-78065971D01*
X162983527Y-78012999D01*
X162983527Y-77953001D01*
X163011693Y-77900028D01*
X163029533Y-77880216D01*
X163124179Y-77716284D01*
X163182674Y-77536256D01*
X163202460Y-77348000D01*
X163182674Y-77159744D01*
X163124179Y-76979716D01*
X163124179Y-76979715D01*
X163029535Y-76815787D01*
X163029534Y-76815786D01*
X163029533Y-76815784D01*
X163011693Y-76795971D01*
X162983527Y-76742999D01*
X162983527Y-76683001D01*
X163011693Y-76630028D01*
X163029533Y-76610216D01*
X163124179Y-76446284D01*
X163182674Y-76266256D01*
X163202460Y-76078000D01*
X163182674Y-75889744D01*
X163124179Y-75709716D01*
X163124179Y-75709715D01*
X163029533Y-75545783D01*
X163011694Y-75525971D01*
X162983527Y-75472997D01*
X162983528Y-75413000D01*
X163011694Y-75360027D01*
X163029533Y-75340216D01*
X163124179Y-75176284D01*
X163182674Y-74996256D01*
X163202460Y-74808000D01*
X163182674Y-74619744D01*
X163124179Y-74439716D01*
X163124179Y-74439715D01*
X163029533Y-74275783D01*
X163011694Y-74255971D01*
X162983527Y-74202997D01*
X162983528Y-74143000D01*
X163011694Y-74090027D01*
X163029533Y-74070216D01*
X163124179Y-73906284D01*
X163182674Y-73726256D01*
X163202460Y-73538000D01*
X163182674Y-73349744D01*
X163124179Y-73169716D01*
X163124179Y-73169715D01*
X163029533Y-73005783D01*
X163011694Y-72985971D01*
X162983527Y-72932997D01*
X162983528Y-72873000D01*
X163011694Y-72820027D01*
X163029533Y-72800216D01*
X163124179Y-72636284D01*
X163182674Y-72456256D01*
X163202460Y-72268000D01*
X163182674Y-72079744D01*
X163124179Y-71899716D01*
X163124179Y-71899715D01*
X163029533Y-71735783D01*
X162902870Y-71595110D01*
X162749730Y-71483848D01*
X162576802Y-71406855D01*
X162391648Y-71367500D01*
X162391646Y-71367500D01*
X162202354Y-71367500D01*
X162202352Y-71367500D01*
X162017197Y-71406855D01*
X161844269Y-71483848D01*
X161691129Y-71595110D01*
X161564466Y-71735783D01*
X161469820Y-71899715D01*
X161411326Y-72079742D01*
X161391540Y-72267999D01*
X161411326Y-72456257D01*
X161469820Y-72636284D01*
X161564466Y-72800215D01*
X161582304Y-72820026D01*
X161610471Y-72872999D01*
X161610472Y-72932995D01*
X161582307Y-72985969D01*
X161564466Y-73005783D01*
X161469820Y-73169715D01*
X161411326Y-73349742D01*
X161391540Y-73538000D01*
X161411326Y-73726257D01*
X161469820Y-73906284D01*
X161564466Y-74070215D01*
X161582304Y-74090026D01*
X161610471Y-74142999D01*
X161610472Y-74202995D01*
X161582307Y-74255969D01*
X161564466Y-74275783D01*
X161469820Y-74439715D01*
X161411326Y-74619742D01*
X161391540Y-74808000D01*
X161411326Y-74996257D01*
X161469820Y-75176284D01*
X161564466Y-75340215D01*
X161582304Y-75360026D01*
X161610471Y-75412999D01*
X161610472Y-75472995D01*
X161582307Y-75525969D01*
X161564466Y-75545783D01*
X161469820Y-75709715D01*
X161411326Y-75889742D01*
X161411325Y-75889744D01*
X161411326Y-75889744D01*
X161391540Y-76078000D01*
X161400260Y-76160969D01*
X161411326Y-76266257D01*
X161469820Y-76446284D01*
X161564466Y-76610215D01*
X161582304Y-76630026D01*
X161610471Y-76682999D01*
X161610472Y-76742995D01*
X161582307Y-76795969D01*
X161564466Y-76815783D01*
X161469820Y-76979715D01*
X161411326Y-77159742D01*
X161391540Y-77348000D01*
X161411326Y-77536257D01*
X161469820Y-77716284D01*
X161564466Y-77880215D01*
X161582304Y-77900026D01*
X161610471Y-77952999D01*
X161610472Y-78012995D01*
X161582307Y-78065969D01*
X161564466Y-78085783D01*
X161469820Y-78249715D01*
X161411326Y-78429742D01*
X161411325Y-78429744D01*
X161411326Y-78429744D01*
X161391540Y-78618000D01*
X161400260Y-78700969D01*
X161411326Y-78806257D01*
X161469820Y-78986284D01*
X161564466Y-79150215D01*
X161582304Y-79170026D01*
X161610471Y-79222999D01*
X161610472Y-79282995D01*
X161582307Y-79335969D01*
X161564466Y-79355783D01*
X161469820Y-79519715D01*
X161411326Y-79699742D01*
X161402343Y-79785212D01*
X161391540Y-79888000D01*
X155998527Y-79888000D01*
X155998527Y-79858001D01*
X156026693Y-79805028D01*
X156044533Y-79785216D01*
X156139179Y-79621284D01*
X156197674Y-79441256D01*
X156217460Y-79253000D01*
X156197674Y-79064744D01*
X156139179Y-78884716D01*
X156139179Y-78884715D01*
X156044533Y-78720783D01*
X156026694Y-78700971D01*
X155998527Y-78647997D01*
X155998528Y-78588000D01*
X156026694Y-78535027D01*
X156044533Y-78515216D01*
X156139179Y-78351284D01*
X156197674Y-78171256D01*
X156217460Y-77983000D01*
X156197674Y-77794744D01*
X156139179Y-77614716D01*
X156139179Y-77614715D01*
X156044535Y-77450787D01*
X156044534Y-77450786D01*
X156044533Y-77450784D01*
X156026693Y-77430971D01*
X155998527Y-77377999D01*
X155998527Y-77318001D01*
X156026693Y-77265028D01*
X156044533Y-77245216D01*
X156139179Y-77081284D01*
X156197674Y-76901256D01*
X156217460Y-76713000D01*
X156197674Y-76524744D01*
X156139179Y-76344716D01*
X156139179Y-76344715D01*
X156044533Y-76180783D01*
X156026694Y-76160971D01*
X155998527Y-76107997D01*
X155998528Y-76048000D01*
X156026694Y-75995027D01*
X156044533Y-75975216D01*
X156139179Y-75811284D01*
X156197674Y-75631256D01*
X156217460Y-75443000D01*
X156197674Y-75254744D01*
X156167261Y-75161144D01*
X156139179Y-75074715D01*
X156044535Y-74910787D01*
X156044534Y-74910786D01*
X156044533Y-74910784D01*
X156026693Y-74890971D01*
X155998527Y-74837999D01*
X155998527Y-74778001D01*
X156026693Y-74725028D01*
X156044533Y-74705216D01*
X156139179Y-74541284D01*
X156197674Y-74361256D01*
X156217460Y-74173000D01*
X156197674Y-73984744D01*
X156139179Y-73804716D01*
X156139179Y-73804715D01*
X156044535Y-73640787D01*
X156044534Y-73640786D01*
X156044533Y-73640784D01*
X156026693Y-73620971D01*
X155998527Y-73567999D01*
X155998527Y-73508001D01*
X156026693Y-73455028D01*
X156044533Y-73435216D01*
X156139179Y-73271284D01*
X156197674Y-73091256D01*
X156217460Y-72903000D01*
X156197674Y-72714744D01*
X156139179Y-72534716D01*
X156139179Y-72534715D01*
X156044535Y-72370787D01*
X156044534Y-72370786D01*
X156044533Y-72370784D01*
X156026693Y-72350971D01*
X155998527Y-72297999D01*
X155998527Y-72238001D01*
X156026693Y-72185028D01*
X156044533Y-72165216D01*
X156139179Y-72001284D01*
X156197674Y-71821256D01*
X156217460Y-71633000D01*
X156197674Y-71444744D01*
X156158466Y-71324075D01*
X156139179Y-71264715D01*
X156044533Y-71100783D01*
X155917870Y-70960110D01*
X155764730Y-70848848D01*
X155591802Y-70771855D01*
X155406648Y-70732500D01*
X155406646Y-70732500D01*
X155217354Y-70732500D01*
X155217352Y-70732500D01*
X155032197Y-70771855D01*
X154859269Y-70848848D01*
X154706129Y-70960110D01*
X154579466Y-71100783D01*
X154484820Y-71264715D01*
X154426326Y-71444742D01*
X154406540Y-71632999D01*
X154426326Y-71821257D01*
X154484820Y-72001284D01*
X154579466Y-72165216D01*
X154597305Y-72185028D01*
X154625472Y-72238002D01*
X154625472Y-72297998D01*
X154597305Y-72350972D01*
X154579466Y-72370783D01*
X154484820Y-72534715D01*
X154426326Y-72714742D01*
X154406540Y-72903000D01*
X154426326Y-73091257D01*
X154484820Y-73271284D01*
X154579466Y-73435216D01*
X154597305Y-73455028D01*
X154625472Y-73508002D01*
X154625472Y-73567998D01*
X154597305Y-73620972D01*
X154579466Y-73640783D01*
X154484820Y-73804715D01*
X154426326Y-73984742D01*
X154406540Y-74173000D01*
X154426326Y-74361257D01*
X154484820Y-74541284D01*
X154579466Y-74705216D01*
X154597305Y-74725028D01*
X154625472Y-74778002D01*
X154625472Y-74837998D01*
X154597305Y-74890972D01*
X154579466Y-74910783D01*
X154484820Y-75074715D01*
X154426326Y-75254742D01*
X154406540Y-75443000D01*
X154426326Y-75631257D01*
X154484820Y-75811284D01*
X154579466Y-75975215D01*
X154597304Y-75995026D01*
X154625471Y-76047999D01*
X154625472Y-76107995D01*
X154597307Y-76160969D01*
X154579466Y-76180783D01*
X154484820Y-76344715D01*
X154426326Y-76524742D01*
X154406540Y-76712999D01*
X154426326Y-76901257D01*
X154484820Y-77081284D01*
X154579466Y-77245216D01*
X154597305Y-77265028D01*
X154625472Y-77318002D01*
X154625472Y-77377998D01*
X154597305Y-77430972D01*
X154579466Y-77450783D01*
X154484820Y-77614715D01*
X154426326Y-77794742D01*
X154406540Y-77983000D01*
X154426326Y-78171257D01*
X154484820Y-78351284D01*
X154579466Y-78515215D01*
X154597304Y-78535026D01*
X154625471Y-78587999D01*
X154625472Y-78647995D01*
X154597307Y-78700969D01*
X154579466Y-78720783D01*
X154484820Y-78884715D01*
X154426326Y-79064742D01*
X154406540Y-79252999D01*
X154426326Y-79441257D01*
X154484820Y-79621284D01*
X154579466Y-79785216D01*
X154597305Y-79805028D01*
X154625472Y-79858002D01*
X154625472Y-79917998D01*
X154597305Y-79970972D01*
X154579466Y-79990783D01*
X154484820Y-80154715D01*
X154426326Y-80334742D01*
X154406540Y-80522999D01*
X151772460Y-80522999D01*
X151752674Y-80334744D01*
X151694179Y-80154716D01*
X151694179Y-80154715D01*
X151599533Y-79990783D01*
X151472870Y-79850110D01*
X151319730Y-79738848D01*
X151146802Y-79661855D01*
X150961648Y-79622500D01*
X150961646Y-79622500D01*
X150772354Y-79622500D01*
X150772352Y-79622500D01*
X150587197Y-79661855D01*
X150414269Y-79738848D01*
X150261129Y-79850110D01*
X150134466Y-79990783D01*
X150039820Y-80154715D01*
X149981326Y-80334742D01*
X149961540Y-80522999D01*
X145872659Y-80522999D01*
X145852063Y-80287592D01*
X145790903Y-80059337D01*
X145691035Y-79845171D01*
X145555495Y-79651599D01*
X145388401Y-79484505D01*
X145202839Y-79354573D01*
X145163975Y-79310257D01*
X145149964Y-79253000D01*
X145163975Y-79195743D01*
X145202839Y-79151426D01*
X145388401Y-79021495D01*
X145555495Y-78854401D01*
X145685426Y-78668839D01*
X145729743Y-78629975D01*
X145787000Y-78615964D01*
X145844257Y-78629975D01*
X145888573Y-78668839D01*
X146018505Y-78854401D01*
X146185599Y-79021495D01*
X146379170Y-79157035D01*
X146593337Y-79256903D01*
X146821592Y-79318063D01*
X147057000Y-79338659D01*
X147292408Y-79318063D01*
X147520663Y-79256903D01*
X147734830Y-79157035D01*
X147928401Y-79021495D01*
X148095495Y-78854401D01*
X148231035Y-78660830D01*
X148330903Y-78446663D01*
X148392063Y-78218408D01*
X148412659Y-77983000D01*
X148392063Y-77747592D01*
X148330903Y-77519337D01*
X148231035Y-77305171D01*
X148095495Y-77111599D01*
X147928401Y-76944505D01*
X147742839Y-76814573D01*
X147703975Y-76770257D01*
X147689964Y-76713000D01*
X147703975Y-76655743D01*
X147742839Y-76611426D01*
X147928401Y-76481495D01*
X148095495Y-76314401D01*
X148231035Y-76120830D01*
X148330903Y-75906663D01*
X148392063Y-75678408D01*
X148412659Y-75443000D01*
X148392063Y-75207592D01*
X148330903Y-74979337D01*
X148231035Y-74765171D01*
X148095495Y-74571599D01*
X147928401Y-74404505D01*
X147734830Y-74268965D01*
X147520663Y-74169097D01*
X147459502Y-74152709D01*
X147292407Y-74107936D01*
X147056999Y-74087340D01*
X146821592Y-74107936D01*
X146593336Y-74169097D01*
X146379170Y-74268965D01*
X146185598Y-74404505D01*
X146018505Y-74571598D01*
X145888575Y-74757159D01*
X145844257Y-74796025D01*
X145787000Y-74810036D01*
X145729743Y-74796025D01*
X145685425Y-74757159D01*
X145555494Y-74571598D01*
X145388404Y-74404508D01*
X145388401Y-74404505D01*
X145194830Y-74268965D01*
X144980663Y-74169097D01*
X144919502Y-74152709D01*
X144752407Y-74107936D01*
X144516999Y-74087340D01*
X144281592Y-74107936D01*
X144053336Y-74169097D01*
X143839170Y-74268965D01*
X143645598Y-74404505D01*
X143478505Y-74571598D01*
X143342965Y-74765170D01*
X143243097Y-74979336D01*
X143181936Y-75207592D01*
X143161340Y-75443000D01*
X143181936Y-75678407D01*
X143223185Y-75832351D01*
X143243097Y-75906663D01*
X143342965Y-76120830D01*
X143478505Y-76314401D01*
X143645599Y-76481495D01*
X143831160Y-76611426D01*
X143870024Y-76655743D01*
X143884035Y-76713000D01*
X143870024Y-76770257D01*
X143831159Y-76814575D01*
X143645595Y-76944508D01*
X143478505Y-77111598D01*
X143342965Y-77305170D01*
X143243097Y-77519336D01*
X143181936Y-77747592D01*
X143161340Y-77983000D01*
X143181936Y-78218407D01*
X143226709Y-78385501D01*
X143243097Y-78446663D01*
X143342965Y-78660830D01*
X143478505Y-78854401D01*
X143645599Y-79021495D01*
X143831160Y-79151426D01*
X143870024Y-79195743D01*
X143884035Y-79253000D01*
X143870024Y-79310257D01*
X143831158Y-79354575D01*
X143653256Y-79479144D01*
X143645595Y-79484508D01*
X143478505Y-79651598D01*
X143342965Y-79845170D01*
X143243097Y-80059336D01*
X143181936Y-80287592D01*
X143161340Y-80523000D01*
X141563027Y-80523000D01*
X141534179Y-80434216D01*
X141534179Y-80434215D01*
X141439533Y-80270283D01*
X141312870Y-80129610D01*
X141159730Y-80018348D01*
X140986802Y-79941355D01*
X140801648Y-79902000D01*
X140801646Y-79902000D01*
X140612354Y-79902000D01*
X140612352Y-79902000D01*
X140427197Y-79941355D01*
X140254269Y-80018348D01*
X140101129Y-80129610D01*
X139974466Y-80270283D01*
X139879820Y-80434215D01*
X139821326Y-80614242D01*
X139801540Y-80802499D01*
X137118027Y-80802499D01*
X137147674Y-80711256D01*
X137167460Y-80523000D01*
X137147674Y-80334744D01*
X137089179Y-80154716D01*
X137089179Y-80154715D01*
X136994535Y-79990787D01*
X136994534Y-79990786D01*
X136994533Y-79990784D01*
X136976693Y-79970971D01*
X136948527Y-79917999D01*
X136948527Y-79858001D01*
X136976693Y-79805028D01*
X136994533Y-79785216D01*
X137089179Y-79621284D01*
X137147674Y-79441256D01*
X137167460Y-79253000D01*
X137147674Y-79064744D01*
X137089179Y-78884716D01*
X137089179Y-78884715D01*
X136994533Y-78720783D01*
X136976694Y-78700971D01*
X136948527Y-78647997D01*
X136948528Y-78588000D01*
X136976694Y-78535027D01*
X136994533Y-78515216D01*
X137089179Y-78351284D01*
X137147674Y-78171256D01*
X137167460Y-77983000D01*
X137147674Y-77794744D01*
X137089179Y-77614716D01*
X137089179Y-77614715D01*
X136994535Y-77450787D01*
X136994534Y-77450786D01*
X136994533Y-77450784D01*
X136976693Y-77430971D01*
X136948527Y-77377999D01*
X136948527Y-77318001D01*
X136976693Y-77265028D01*
X136994533Y-77245216D01*
X137089179Y-77081284D01*
X137147674Y-76901256D01*
X137167460Y-76713000D01*
X137147674Y-76524744D01*
X137089179Y-76344716D01*
X137089179Y-76344715D01*
X136994533Y-76180783D01*
X136976694Y-76160971D01*
X136948527Y-76107997D01*
X136948528Y-76048000D01*
X136976694Y-75995027D01*
X136994533Y-75975216D01*
X137089179Y-75811284D01*
X137147674Y-75631256D01*
X137167460Y-75443000D01*
X137147674Y-75254744D01*
X137117261Y-75161144D01*
X137089179Y-75074715D01*
X136994535Y-74910787D01*
X136994534Y-74910786D01*
X136994533Y-74910784D01*
X136976693Y-74890971D01*
X136948527Y-74837999D01*
X136948527Y-74778001D01*
X136976693Y-74725028D01*
X136994533Y-74705216D01*
X137089179Y-74541284D01*
X137147674Y-74361256D01*
X137167460Y-74173000D01*
X137147674Y-73984744D01*
X137089179Y-73804716D01*
X137089179Y-73804715D01*
X136994535Y-73640787D01*
X136994534Y-73640786D01*
X136994533Y-73640784D01*
X136976693Y-73620971D01*
X136948527Y-73567999D01*
X136948527Y-73508001D01*
X136976693Y-73455028D01*
X136994533Y-73435216D01*
X137089179Y-73271284D01*
X137147674Y-73091256D01*
X137167460Y-72903000D01*
X137147674Y-72714744D01*
X137089179Y-72534716D01*
X137089179Y-72534715D01*
X136994535Y-72370787D01*
X136994534Y-72370786D01*
X136994533Y-72370784D01*
X136976693Y-72350971D01*
X136948527Y-72297999D01*
X136948527Y-72238001D01*
X136976693Y-72185028D01*
X136994533Y-72165216D01*
X137089179Y-72001284D01*
X137147674Y-71821256D01*
X137167460Y-71633000D01*
X137147674Y-71444744D01*
X137108466Y-71324075D01*
X137089179Y-71264715D01*
X136994533Y-71100783D01*
X136867870Y-70960110D01*
X136714730Y-70848848D01*
X136541802Y-70771855D01*
X136356648Y-70732500D01*
X136356646Y-70732500D01*
X136167354Y-70732500D01*
X136167352Y-70732500D01*
X135982197Y-70771855D01*
X135809269Y-70848848D01*
X135656129Y-70960110D01*
X135529466Y-71100783D01*
X135434820Y-71264715D01*
X135376326Y-71444742D01*
X135356540Y-71632999D01*
X135376326Y-71821257D01*
X135434820Y-72001284D01*
X135529466Y-72165216D01*
X135547305Y-72185028D01*
X135575472Y-72238002D01*
X135575472Y-72297998D01*
X135547305Y-72350972D01*
X135529466Y-72370783D01*
X135434820Y-72534715D01*
X135376326Y-72714742D01*
X135356540Y-72903000D01*
X135376326Y-73091257D01*
X135434820Y-73271284D01*
X135529466Y-73435216D01*
X135547305Y-73455028D01*
X135575472Y-73508002D01*
X135575472Y-73567998D01*
X135547305Y-73620972D01*
X135529466Y-73640783D01*
X135434820Y-73804715D01*
X135376326Y-73984742D01*
X135356540Y-74172999D01*
X135376326Y-74361257D01*
X135434820Y-74541284D01*
X135529466Y-74705216D01*
X135547305Y-74725028D01*
X135575472Y-74778002D01*
X135575472Y-74837998D01*
X135547305Y-74890972D01*
X135529466Y-74910783D01*
X135434820Y-75074715D01*
X135376326Y-75254742D01*
X135356540Y-75443000D01*
X135376326Y-75631257D01*
X135434820Y-75811284D01*
X135529466Y-75975215D01*
X135547304Y-75995026D01*
X135575471Y-76047999D01*
X135575472Y-76107995D01*
X135547307Y-76160969D01*
X135529466Y-76180783D01*
X135434820Y-76344715D01*
X135376326Y-76524742D01*
X135356540Y-76713000D01*
X135376326Y-76901257D01*
X135434820Y-77081284D01*
X135529466Y-77245216D01*
X135547305Y-77265028D01*
X135575472Y-77318002D01*
X135575472Y-77377998D01*
X135547305Y-77430972D01*
X135529466Y-77450783D01*
X135434820Y-77614715D01*
X135376326Y-77794742D01*
X135356540Y-77983000D01*
X135376326Y-78171257D01*
X135434820Y-78351284D01*
X135529466Y-78515215D01*
X135547304Y-78535026D01*
X135575471Y-78587999D01*
X135575472Y-78647995D01*
X135547307Y-78700969D01*
X135529466Y-78720783D01*
X135434820Y-78884715D01*
X135376326Y-79064742D01*
X135356540Y-79252999D01*
X135376326Y-79441257D01*
X135434820Y-79621284D01*
X135529466Y-79785216D01*
X135547305Y-79805028D01*
X135575472Y-79858002D01*
X135575472Y-79917998D01*
X135547305Y-79970972D01*
X135529466Y-79990783D01*
X135434820Y-80154715D01*
X135376326Y-80334742D01*
X135356540Y-80522999D01*
X129916987Y-80522999D01*
X130009533Y-80420216D01*
X130104179Y-80256284D01*
X130162674Y-80076256D01*
X130182460Y-79888000D01*
X130162674Y-79699744D01*
X130104179Y-79519716D01*
X130104179Y-79519715D01*
X130009533Y-79355783D01*
X129991694Y-79335971D01*
X129963527Y-79282996D01*
X129963528Y-79222998D01*
X129991696Y-79170025D01*
X130009533Y-79150216D01*
X130104179Y-78986284D01*
X130162674Y-78806256D01*
X130182460Y-78618000D01*
X130162674Y-78429744D01*
X130104179Y-78249716D01*
X130104179Y-78249715D01*
X130009535Y-78085787D01*
X130009534Y-78085786D01*
X130009533Y-78085784D01*
X129991693Y-78065971D01*
X129963527Y-78012999D01*
X129963527Y-77953001D01*
X129991693Y-77900028D01*
X130009533Y-77880216D01*
X130104179Y-77716284D01*
X130162674Y-77536256D01*
X130182460Y-77348000D01*
X130162674Y-77159744D01*
X130104179Y-76979716D01*
X130104179Y-76979715D01*
X130009535Y-76815787D01*
X130009534Y-76815786D01*
X130009533Y-76815784D01*
X129991693Y-76795971D01*
X129963527Y-76742999D01*
X129963527Y-76683001D01*
X129991693Y-76630028D01*
X130009533Y-76610216D01*
X130104179Y-76446284D01*
X130162674Y-76266256D01*
X130182460Y-76078000D01*
X130162674Y-75889744D01*
X130104179Y-75709716D01*
X130104179Y-75709715D01*
X130009533Y-75545783D01*
X129991694Y-75525971D01*
X129963527Y-75472997D01*
X129963528Y-75413000D01*
X129991694Y-75360027D01*
X130009533Y-75340216D01*
X130104179Y-75176284D01*
X130162674Y-74996256D01*
X130182460Y-74808000D01*
X130162674Y-74619744D01*
X130104179Y-74439716D01*
X130104179Y-74439715D01*
X130009533Y-74275783D01*
X129991694Y-74255971D01*
X129963527Y-74202997D01*
X129963528Y-74143000D01*
X129991694Y-74090027D01*
X130009533Y-74070216D01*
X130104179Y-73906284D01*
X130162674Y-73726256D01*
X130182460Y-73538000D01*
X130162674Y-73349744D01*
X130104179Y-73169716D01*
X130104179Y-73169715D01*
X130009533Y-73005783D01*
X129991694Y-72985971D01*
X129963527Y-72932997D01*
X129963528Y-72873000D01*
X129991694Y-72820027D01*
X130009533Y-72800216D01*
X130104179Y-72636284D01*
X130162674Y-72456256D01*
X130182460Y-72268000D01*
X130162674Y-72079744D01*
X130104179Y-71899716D01*
X130104179Y-71899715D01*
X130009533Y-71735783D01*
X129882870Y-71595110D01*
X129729730Y-71483848D01*
X129556802Y-71406855D01*
X129371648Y-71367500D01*
X129371646Y-71367500D01*
X129182354Y-71367500D01*
X129182352Y-71367500D01*
X128997197Y-71406855D01*
X128824269Y-71483848D01*
X128671129Y-71595110D01*
X128544466Y-71735783D01*
X128449820Y-71899715D01*
X128391326Y-72079742D01*
X128371540Y-72267999D01*
X128391326Y-72456257D01*
X128449820Y-72636284D01*
X128544466Y-72800215D01*
X128562304Y-72820026D01*
X128590471Y-72872999D01*
X128590472Y-72932995D01*
X128562307Y-72985969D01*
X128544466Y-73005783D01*
X128449820Y-73169715D01*
X128391326Y-73349742D01*
X128371540Y-73537999D01*
X128391326Y-73726257D01*
X128449820Y-73906284D01*
X128544466Y-74070215D01*
X128562304Y-74090026D01*
X128590471Y-74142999D01*
X128590472Y-74202995D01*
X128562307Y-74255969D01*
X128544466Y-74275783D01*
X128449820Y-74439715D01*
X128391326Y-74619742D01*
X128371540Y-74808000D01*
X128391326Y-74996257D01*
X128449820Y-75176284D01*
X128544466Y-75340215D01*
X128562304Y-75360026D01*
X128590471Y-75412999D01*
X128590472Y-75472995D01*
X128562307Y-75525969D01*
X128544466Y-75545783D01*
X128449820Y-75709715D01*
X128391326Y-75889742D01*
X128371540Y-76078000D01*
X128391326Y-76266257D01*
X128449820Y-76446284D01*
X128544466Y-76610215D01*
X128562304Y-76630026D01*
X128590471Y-76682999D01*
X128590472Y-76742995D01*
X128562307Y-76795969D01*
X128544466Y-76815783D01*
X128449820Y-76979715D01*
X128391326Y-77159742D01*
X128371540Y-77348000D01*
X128391326Y-77536257D01*
X128449820Y-77716284D01*
X128544466Y-77880215D01*
X128562304Y-77900026D01*
X128590471Y-77952999D01*
X128590472Y-78012995D01*
X128562307Y-78065969D01*
X128544466Y-78085783D01*
X128449820Y-78249715D01*
X128391326Y-78429742D01*
X128391325Y-78429744D01*
X128391326Y-78429744D01*
X128371540Y-78618000D01*
X128380260Y-78700969D01*
X128391326Y-78806257D01*
X128449820Y-78986284D01*
X128544466Y-79150215D01*
X128562304Y-79170026D01*
X128590471Y-79222999D01*
X128590472Y-79282995D01*
X128562307Y-79335969D01*
X128544466Y-79355783D01*
X128449820Y-79519715D01*
X128391326Y-79699742D01*
X128382343Y-79785212D01*
X128371540Y-79888000D01*
X123832460Y-79888000D01*
X123812674Y-79699744D01*
X123754179Y-79519716D01*
X123754179Y-79519715D01*
X123659533Y-79355783D01*
X123641694Y-79335971D01*
X123613527Y-79282996D01*
X123613528Y-79222998D01*
X123641696Y-79170025D01*
X123659533Y-79150216D01*
X123754179Y-78986284D01*
X123812674Y-78806256D01*
X123832460Y-78618000D01*
X125196540Y-78618000D01*
X125205260Y-78700969D01*
X125216326Y-78806257D01*
X125274820Y-78986284D01*
X125369466Y-79150216D01*
X125496129Y-79290889D01*
X125649269Y-79402151D01*
X125822197Y-79479144D01*
X126007352Y-79518500D01*
X126007354Y-79518500D01*
X126196646Y-79518500D01*
X126196648Y-79518500D01*
X126356581Y-79484505D01*
X126381803Y-79479144D01*
X126554730Y-79402151D01*
X126642120Y-79338659D01*
X126707870Y-79290889D01*
X126741987Y-79252999D01*
X126834533Y-79150216D01*
X126929179Y-78986284D01*
X126987674Y-78806256D01*
X127007460Y-78618000D01*
X126987674Y-78429744D01*
X126929179Y-78249716D01*
X126929179Y-78249715D01*
X126834535Y-78085787D01*
X126834534Y-78085786D01*
X126834533Y-78085784D01*
X126816693Y-78065971D01*
X126788527Y-78012999D01*
X126788527Y-77953001D01*
X126816693Y-77900028D01*
X126834533Y-77880216D01*
X126929179Y-77716284D01*
X126987674Y-77536256D01*
X127007460Y-77348000D01*
X126987674Y-77159744D01*
X126929179Y-76979716D01*
X126929179Y-76979715D01*
X126834535Y-76815787D01*
X126834534Y-76815786D01*
X126834533Y-76815784D01*
X126816693Y-76795971D01*
X126788527Y-76742999D01*
X126788527Y-76683001D01*
X126816693Y-76630028D01*
X126834533Y-76610216D01*
X126929179Y-76446284D01*
X126987674Y-76266256D01*
X127007460Y-76078000D01*
X126987674Y-75889744D01*
X126929179Y-75709716D01*
X126929179Y-75709715D01*
X126834533Y-75545783D01*
X126816694Y-75525971D01*
X126788527Y-75472997D01*
X126788528Y-75413000D01*
X126816694Y-75360027D01*
X126834533Y-75340216D01*
X126929179Y-75176284D01*
X126987674Y-74996256D01*
X127007460Y-74808000D01*
X126987674Y-74619744D01*
X126929179Y-74439716D01*
X126929179Y-74439715D01*
X126834533Y-74275783D01*
X126816694Y-74255971D01*
X126788527Y-74202997D01*
X126788528Y-74143000D01*
X126816694Y-74090027D01*
X126834533Y-74070216D01*
X126929179Y-73906284D01*
X126987674Y-73726256D01*
X127007460Y-73538000D01*
X126987674Y-73349744D01*
X126929179Y-73169716D01*
X126929179Y-73169715D01*
X126834533Y-73005783D01*
X126707870Y-72865110D01*
X126554730Y-72753848D01*
X126381802Y-72676855D01*
X126196648Y-72637500D01*
X126196646Y-72637500D01*
X126007354Y-72637500D01*
X126007352Y-72637500D01*
X125822197Y-72676855D01*
X125649269Y-72753848D01*
X125496129Y-72865110D01*
X125369466Y-73005783D01*
X125274820Y-73169715D01*
X125216326Y-73349742D01*
X125196540Y-73537999D01*
X125216326Y-73726257D01*
X125274820Y-73906284D01*
X125369466Y-74070215D01*
X125387304Y-74090026D01*
X125415471Y-74142999D01*
X125415472Y-74202995D01*
X125387307Y-74255969D01*
X125369466Y-74275783D01*
X125274820Y-74439715D01*
X125216326Y-74619742D01*
X125196540Y-74808000D01*
X125216326Y-74996257D01*
X125274820Y-75176284D01*
X125369466Y-75340215D01*
X125387304Y-75360026D01*
X125415471Y-75412999D01*
X125415472Y-75472995D01*
X125387307Y-75525969D01*
X125369466Y-75545783D01*
X125274820Y-75709715D01*
X125216326Y-75889742D01*
X125196540Y-76078000D01*
X125216326Y-76266257D01*
X125274820Y-76446284D01*
X125369466Y-76610215D01*
X125387304Y-76630026D01*
X125415471Y-76682999D01*
X125415472Y-76742995D01*
X125387307Y-76795969D01*
X125369466Y-76815783D01*
X125274820Y-76979715D01*
X125216326Y-77159742D01*
X125196540Y-77348000D01*
X125216326Y-77536257D01*
X125274820Y-77716284D01*
X125369466Y-77880215D01*
X125387304Y-77900026D01*
X125415471Y-77952999D01*
X125415472Y-78012995D01*
X125387307Y-78065969D01*
X125369466Y-78085783D01*
X125274820Y-78249715D01*
X125216326Y-78429742D01*
X125216325Y-78429744D01*
X125216326Y-78429744D01*
X125196540Y-78618000D01*
X123832460Y-78618000D01*
X123812674Y-78429744D01*
X123754179Y-78249716D01*
X123754179Y-78249715D01*
X123659535Y-78085787D01*
X123659534Y-78085786D01*
X123659533Y-78085784D01*
X123641693Y-78065971D01*
X123613527Y-78012999D01*
X123613527Y-77953001D01*
X123641693Y-77900028D01*
X123659533Y-77880216D01*
X123754179Y-77716284D01*
X123812674Y-77536256D01*
X123832460Y-77348000D01*
X123812674Y-77159744D01*
X123754179Y-76979716D01*
X123754179Y-76979715D01*
X123659535Y-76815787D01*
X123659534Y-76815786D01*
X123659533Y-76815784D01*
X123641693Y-76795971D01*
X123613527Y-76742999D01*
X123613527Y-76683001D01*
X123641693Y-76630028D01*
X123659533Y-76610216D01*
X123754179Y-76446284D01*
X123812674Y-76266256D01*
X123832460Y-76078000D01*
X123812674Y-75889744D01*
X123754179Y-75709716D01*
X123754179Y-75709715D01*
X123659533Y-75545783D01*
X123641694Y-75525971D01*
X123613527Y-75472997D01*
X123613528Y-75413000D01*
X123641694Y-75360027D01*
X123659533Y-75340216D01*
X123754179Y-75176284D01*
X123812674Y-74996256D01*
X123832460Y-74808000D01*
X123812674Y-74619744D01*
X123754179Y-74439716D01*
X123754179Y-74439715D01*
X123659533Y-74275783D01*
X123641694Y-74255971D01*
X123613527Y-74202997D01*
X123613528Y-74143000D01*
X123641694Y-74090027D01*
X123659533Y-74070216D01*
X123754179Y-73906284D01*
X123812674Y-73726256D01*
X123832460Y-73538000D01*
X123812674Y-73349744D01*
X123754179Y-73169716D01*
X123754179Y-73169715D01*
X123659533Y-73005783D01*
X123641694Y-72985971D01*
X123613527Y-72932997D01*
X123613528Y-72873000D01*
X123641694Y-72820027D01*
X123659533Y-72800216D01*
X123754179Y-72636284D01*
X123812674Y-72456256D01*
X123832460Y-72268000D01*
X123812674Y-72079744D01*
X123754179Y-71899716D01*
X123754179Y-71899715D01*
X123659533Y-71735783D01*
X123532870Y-71595110D01*
X123379730Y-71483848D01*
X123206802Y-71406855D01*
X123021648Y-71367500D01*
X123021646Y-71367500D01*
X122843148Y-71367500D01*
X122786853Y-71353985D01*
X122742830Y-71316385D01*
X122720675Y-71262898D01*
X122725217Y-71205182D01*
X122755467Y-71155819D01*
X123521467Y-70389819D01*
X123561695Y-70362939D01*
X123609148Y-70353500D01*
X139053891Y-70353500D01*
X139112105Y-70368014D01*
X139156692Y-70408160D01*
X139177212Y-70464538D01*
X139186326Y-70551257D01*
X139244820Y-70731284D01*
X139339466Y-70895216D01*
X139466129Y-71035889D01*
X139619269Y-71147151D01*
X139792197Y-71224144D01*
X139977352Y-71263500D01*
X139977354Y-71263500D01*
X140166646Y-71263500D01*
X140166648Y-71263500D01*
X140330994Y-71228567D01*
X140395093Y-71231926D01*
X140448925Y-71266884D01*
X140478065Y-71324075D01*
X140474706Y-71388174D01*
X140456326Y-71444740D01*
X140436540Y-71632999D01*
X140456326Y-71821257D01*
X140514820Y-72001284D01*
X140609466Y-72165216D01*
X140736129Y-72305889D01*
X140889269Y-72417151D01*
X141062197Y-72494144D01*
X141247352Y-72533500D01*
X141247354Y-72533500D01*
X141436646Y-72533500D01*
X141436648Y-72533500D01*
X141560083Y-72507262D01*
X141621803Y-72494144D01*
X141794730Y-72417151D01*
X141947871Y-72305888D01*
X142074533Y-72165216D01*
X142169179Y-72001284D01*
X142227674Y-71821256D01*
X142247460Y-71633000D01*
X142227674Y-71444744D01*
X142188466Y-71324075D01*
X142169179Y-71264715D01*
X142074533Y-71100783D01*
X141947870Y-70960110D01*
X141794730Y-70848848D01*
X141621802Y-70771855D01*
X141436648Y-70732500D01*
X141436646Y-70732500D01*
X141247354Y-70732500D01*
X141247351Y-70732500D01*
X141083004Y-70767432D01*
X141018905Y-70764073D01*
X140965073Y-70729114D01*
X140935934Y-70671922D01*
X140939292Y-70607827D01*
X140957674Y-70551256D01*
X140977460Y-70363000D01*
X140957674Y-70174744D01*
X140899179Y-69994716D01*
X140899178Y-69994715D01*
X140899178Y-69994713D01*
X140870142Y-69944420D01*
X140854001Y-69893228D01*
X140861007Y-69840010D01*
X140889846Y-69794742D01*
X142949193Y-67735395D01*
X143010034Y-67702017D01*
X143079283Y-67706556D01*
X143135249Y-67747591D01*
X143160401Y-67812270D01*
X143181936Y-68058407D01*
X143226709Y-68225501D01*
X143243097Y-68286663D01*
X143342965Y-68500830D01*
X143478505Y-68694401D01*
X143645599Y-68861495D01*
X143831160Y-68991426D01*
X143870024Y-69035743D01*
X143884035Y-69093000D01*
X143870024Y-69150257D01*
X143831160Y-69194574D01*
X143665321Y-69310696D01*
X143645595Y-69324508D01*
X143478505Y-69491598D01*
X143342965Y-69685170D01*
X143243097Y-69899336D01*
X143181936Y-70127592D01*
X143161340Y-70363000D01*
X143181936Y-70598407D01*
X143217866Y-70732500D01*
X143243097Y-70826663D01*
X143342965Y-71040830D01*
X143478505Y-71234401D01*
X143645599Y-71401495D01*
X143839170Y-71537035D01*
X144053337Y-71636903D01*
X144281592Y-71698063D01*
X144517000Y-71718659D01*
X144752408Y-71698063D01*
X144980663Y-71636903D01*
X145194830Y-71537035D01*
X145388401Y-71401495D01*
X145555495Y-71234401D01*
X145685426Y-71048839D01*
X145729743Y-71009975D01*
X145787000Y-70995964D01*
X145844257Y-71009975D01*
X145888573Y-71048839D01*
X146018505Y-71234401D01*
X146185599Y-71401495D01*
X146379170Y-71537035D01*
X146593337Y-71636903D01*
X146821592Y-71698063D01*
X147057000Y-71718659D01*
X147292408Y-71698063D01*
X147520663Y-71636903D01*
X147734830Y-71537035D01*
X147928401Y-71401495D01*
X148095495Y-71234401D01*
X148231035Y-71040830D01*
X148330903Y-70826663D01*
X148392063Y-70598408D01*
X148412659Y-70363000D01*
X148392063Y-70127592D01*
X148330903Y-69899337D01*
X148231035Y-69685171D01*
X148095495Y-69491599D01*
X148078988Y-69475092D01*
X169898356Y-69475092D01*
X169918142Y-69663349D01*
X169976636Y-69843376D01*
X170071282Y-70007308D01*
X170197945Y-70147981D01*
X170351085Y-70259243D01*
X170524013Y-70336236D01*
X170709168Y-70375592D01*
X170709170Y-70375592D01*
X170898462Y-70375592D01*
X170898464Y-70375592D01*
X171021899Y-70349354D01*
X171083619Y-70336236D01*
X171256546Y-70259243D01*
X171256546Y-70259242D01*
X171409686Y-70147981D01*
X171536349Y-70007308D01*
X171630995Y-69843376D01*
X171646798Y-69794740D01*
X171689490Y-69663348D01*
X171709276Y-69475092D01*
X171689490Y-69286836D01*
X171653319Y-69175514D01*
X171630995Y-69106807D01*
X171536349Y-68942875D01*
X171409686Y-68802202D01*
X171256546Y-68690940D01*
X171083618Y-68613947D01*
X170898464Y-68574592D01*
X170898462Y-68574592D01*
X170709170Y-68574592D01*
X170709168Y-68574592D01*
X170524013Y-68613947D01*
X170351085Y-68690940D01*
X170197945Y-68802202D01*
X170071282Y-68942875D01*
X169976636Y-69106807D01*
X169918142Y-69286834D01*
X169898356Y-69475092D01*
X148078988Y-69475092D01*
X147928401Y-69324505D01*
X147742839Y-69194573D01*
X147703974Y-69150255D01*
X147689964Y-69092999D01*
X147703975Y-69035742D01*
X147742837Y-68991428D01*
X147928401Y-68861495D01*
X148095495Y-68694401D01*
X148231035Y-68500830D01*
X148330903Y-68286663D01*
X148392063Y-68058408D01*
X148412659Y-67823000D01*
X148392063Y-67587592D01*
X148330903Y-67359337D01*
X148231035Y-67145171D01*
X148231034Y-67145169D01*
X148226450Y-67135339D01*
X148228962Y-67134167D01*
X148212384Y-67086755D01*
X148226593Y-67021019D01*
X148273029Y-66972369D01*
X148300421Y-66956170D01*
X148314586Y-66942004D01*
X148329374Y-66929373D01*
X148345588Y-66917594D01*
X148373439Y-66883926D01*
X148381280Y-66875309D01*
X148703590Y-66553000D01*
X165836540Y-66553000D01*
X165856326Y-66741257D01*
X165914820Y-66921284D01*
X166009466Y-67085216D01*
X166136129Y-67225889D01*
X166289269Y-67337151D01*
X166462197Y-67414144D01*
X166647352Y-67453500D01*
X166647354Y-67453500D01*
X166836646Y-67453500D01*
X166836648Y-67453500D01*
X166960083Y-67427262D01*
X167021803Y-67414144D01*
X167194730Y-67337151D01*
X167347871Y-67225888D01*
X167474533Y-67085216D01*
X167569179Y-66921284D01*
X167627674Y-66741256D01*
X167647460Y-66553000D01*
X172186540Y-66553000D01*
X172206326Y-66741257D01*
X172264820Y-66921284D01*
X172359466Y-67085216D01*
X172486129Y-67225889D01*
X172639269Y-67337151D01*
X172812197Y-67414144D01*
X172997352Y-67453500D01*
X172997354Y-67453500D01*
X173186646Y-67453500D01*
X173186648Y-67453500D01*
X173310083Y-67427262D01*
X173371803Y-67414144D01*
X173544730Y-67337151D01*
X173697871Y-67225888D01*
X173824533Y-67085216D01*
X173919179Y-66921284D01*
X173977674Y-66741256D01*
X173997460Y-66553000D01*
X173977674Y-66364744D01*
X173920364Y-66188363D01*
X173919179Y-66184715D01*
X173824535Y-66020787D01*
X173824534Y-66020786D01*
X173824533Y-66020784D01*
X173806693Y-66000971D01*
X173778527Y-65947999D01*
X173778527Y-65888001D01*
X173806693Y-65835028D01*
X173824533Y-65815216D01*
X173919179Y-65651284D01*
X173977674Y-65471256D01*
X173997460Y-65283000D01*
X173977674Y-65094744D01*
X173919179Y-64914716D01*
X173919179Y-64914715D01*
X173824533Y-64750783D01*
X173806694Y-64730971D01*
X173778527Y-64677997D01*
X173778528Y-64618000D01*
X173806694Y-64565027D01*
X173824533Y-64545216D01*
X173919179Y-64381284D01*
X173977674Y-64201256D01*
X173997460Y-64013000D01*
X173977674Y-63824744D01*
X173919179Y-63644716D01*
X173919179Y-63644715D01*
X173824533Y-63480783D01*
X173806694Y-63460971D01*
X173778527Y-63407997D01*
X173778528Y-63348000D01*
X173806694Y-63295027D01*
X173824533Y-63275216D01*
X173919179Y-63111284D01*
X173977674Y-62931256D01*
X173997460Y-62743000D01*
X173977674Y-62554744D01*
X173919179Y-62374716D01*
X173919179Y-62374715D01*
X173824533Y-62210783D01*
X173806694Y-62190971D01*
X173778527Y-62137997D01*
X173778528Y-62078000D01*
X173806694Y-62025027D01*
X173824533Y-62005216D01*
X173919179Y-61841284D01*
X173977674Y-61661256D01*
X173997460Y-61473000D01*
X173977674Y-61284744D01*
X173919179Y-61104716D01*
X173919179Y-61104715D01*
X173824533Y-60940783D01*
X173806694Y-60920971D01*
X173778527Y-60867997D01*
X173778528Y-60808000D01*
X173806694Y-60755027D01*
X173824533Y-60735216D01*
X173919179Y-60571284D01*
X173977674Y-60391256D01*
X173997460Y-60203000D01*
X173977674Y-60014744D01*
X173919179Y-59834716D01*
X173919179Y-59834715D01*
X173824533Y-59670783D01*
X173806694Y-59650971D01*
X173778527Y-59597997D01*
X173778528Y-59538000D01*
X173806694Y-59485027D01*
X173824533Y-59465216D01*
X173919179Y-59301284D01*
X173977674Y-59121256D01*
X173997460Y-58933000D01*
X173977674Y-58744744D01*
X173919179Y-58564716D01*
X173919179Y-58564715D01*
X173824533Y-58400783D01*
X173697870Y-58260110D01*
X173544730Y-58148848D01*
X173371802Y-58071855D01*
X173186648Y-58032500D01*
X173186646Y-58032500D01*
X172997354Y-58032500D01*
X172997352Y-58032500D01*
X172812197Y-58071855D01*
X172639269Y-58148848D01*
X172486129Y-58260110D01*
X172359466Y-58400783D01*
X172264820Y-58564715D01*
X172206326Y-58744742D01*
X172195325Y-58849415D01*
X172186540Y-58933000D01*
X172188651Y-58953084D01*
X172206326Y-59121257D01*
X172264820Y-59301284D01*
X172359466Y-59465215D01*
X172377304Y-59485026D01*
X172405471Y-59537999D01*
X172405472Y-59597995D01*
X172377307Y-59650969D01*
X172359466Y-59670783D01*
X172264820Y-59834715D01*
X172206326Y-60014742D01*
X172186540Y-60203000D01*
X172206326Y-60391257D01*
X172264820Y-60571284D01*
X172359466Y-60735215D01*
X172377304Y-60755026D01*
X172405471Y-60807999D01*
X172405472Y-60867995D01*
X172377307Y-60920969D01*
X172359466Y-60940783D01*
X172264820Y-61104715D01*
X172206326Y-61284742D01*
X172186540Y-61473000D01*
X172206326Y-61661257D01*
X172264820Y-61841284D01*
X172359466Y-62005215D01*
X172377304Y-62025026D01*
X172405471Y-62077999D01*
X172405472Y-62137995D01*
X172377307Y-62190969D01*
X172359466Y-62210783D01*
X172264820Y-62374715D01*
X172206326Y-62554742D01*
X172186540Y-62742999D01*
X172206326Y-62931257D01*
X172264820Y-63111284D01*
X172359466Y-63275215D01*
X172377304Y-63295026D01*
X172405471Y-63347999D01*
X172405472Y-63407995D01*
X172377307Y-63460969D01*
X172359466Y-63480783D01*
X172264820Y-63644715D01*
X172206326Y-63824742D01*
X172186540Y-64012999D01*
X172206326Y-64201257D01*
X172264820Y-64381284D01*
X172359466Y-64545215D01*
X172377304Y-64565026D01*
X172405471Y-64617999D01*
X172405472Y-64677995D01*
X172377307Y-64730969D01*
X172359466Y-64750783D01*
X172264820Y-64914715D01*
X172206326Y-65094742D01*
X172186540Y-65283000D01*
X172206326Y-65471257D01*
X172264820Y-65651284D01*
X172359466Y-65815215D01*
X172377304Y-65835026D01*
X172405471Y-65887999D01*
X172405472Y-65947995D01*
X172377307Y-66000969D01*
X172359466Y-66020783D01*
X172264820Y-66184715D01*
X172206326Y-66364742D01*
X172186540Y-66553000D01*
X167647460Y-66553000D01*
X167627674Y-66364744D01*
X167570364Y-66188363D01*
X167569179Y-66184715D01*
X167474535Y-66020787D01*
X167474534Y-66020786D01*
X167474533Y-66020784D01*
X167456693Y-66000971D01*
X167428527Y-65947999D01*
X167428527Y-65888001D01*
X167456693Y-65835028D01*
X167474533Y-65815216D01*
X167569179Y-65651284D01*
X167627674Y-65471256D01*
X167647460Y-65283000D01*
X169011540Y-65283000D01*
X169031326Y-65471257D01*
X169089820Y-65651284D01*
X169184466Y-65815216D01*
X169311129Y-65955889D01*
X169464269Y-66067151D01*
X169637197Y-66144144D01*
X169822352Y-66183500D01*
X169822354Y-66183500D01*
X170011646Y-66183500D01*
X170011648Y-66183500D01*
X170160191Y-66151926D01*
X170196803Y-66144144D01*
X170369730Y-66067151D01*
X170408035Y-66039321D01*
X170522870Y-65955889D01*
X170649533Y-65815216D01*
X170744179Y-65651284D01*
X170787354Y-65518405D01*
X170802674Y-65471256D01*
X170822460Y-65283000D01*
X170802674Y-65094744D01*
X170744179Y-64914716D01*
X170744179Y-64914715D01*
X170649533Y-64750783D01*
X170631694Y-64730971D01*
X170603527Y-64677997D01*
X170603528Y-64618000D01*
X170631694Y-64565027D01*
X170649533Y-64545216D01*
X170744179Y-64381284D01*
X170802674Y-64201256D01*
X170822460Y-64013000D01*
X170802674Y-63824744D01*
X170744179Y-63644716D01*
X170744179Y-63644715D01*
X170649533Y-63480783D01*
X170631694Y-63460971D01*
X170603527Y-63407997D01*
X170603528Y-63348000D01*
X170631694Y-63295027D01*
X170649533Y-63275216D01*
X170744179Y-63111284D01*
X170802674Y-62931256D01*
X170822460Y-62743000D01*
X170802674Y-62554744D01*
X170744179Y-62374716D01*
X170744179Y-62374715D01*
X170649533Y-62210783D01*
X170631694Y-62190971D01*
X170603527Y-62137997D01*
X170603528Y-62078000D01*
X170631694Y-62025027D01*
X170649533Y-62005216D01*
X170744179Y-61841284D01*
X170802674Y-61661256D01*
X170822460Y-61473000D01*
X170802674Y-61284744D01*
X170744179Y-61104716D01*
X170744179Y-61104715D01*
X170649533Y-60940783D01*
X170631694Y-60920971D01*
X170603527Y-60867997D01*
X170603528Y-60808000D01*
X170631694Y-60755027D01*
X170649533Y-60735216D01*
X170744179Y-60571284D01*
X170802674Y-60391256D01*
X170822460Y-60203000D01*
X170802674Y-60014744D01*
X170744179Y-59834716D01*
X170744179Y-59834715D01*
X170649533Y-59670783D01*
X170522870Y-59530110D01*
X170369730Y-59418848D01*
X170196802Y-59341855D01*
X170011648Y-59302500D01*
X170011646Y-59302500D01*
X169822354Y-59302500D01*
X169822352Y-59302500D01*
X169637197Y-59341855D01*
X169464269Y-59418848D01*
X169311129Y-59530110D01*
X169184466Y-59670783D01*
X169089820Y-59834715D01*
X169031326Y-60014742D01*
X169011540Y-60203000D01*
X169031326Y-60391257D01*
X169089820Y-60571284D01*
X169184466Y-60735215D01*
X169202304Y-60755026D01*
X169230471Y-60807999D01*
X169230472Y-60867995D01*
X169202307Y-60920969D01*
X169184466Y-60940783D01*
X169089820Y-61104715D01*
X169031326Y-61284742D01*
X169011540Y-61473000D01*
X169031326Y-61661257D01*
X169089820Y-61841284D01*
X169184466Y-62005215D01*
X169202304Y-62025026D01*
X169230471Y-62077999D01*
X169230472Y-62137995D01*
X169202307Y-62190969D01*
X169184466Y-62210783D01*
X169089820Y-62374715D01*
X169031326Y-62554742D01*
X169011540Y-62742999D01*
X169031326Y-62931257D01*
X169089820Y-63111284D01*
X169184466Y-63275215D01*
X169202304Y-63295026D01*
X169230471Y-63347999D01*
X169230472Y-63407995D01*
X169202307Y-63460969D01*
X169184466Y-63480783D01*
X169089820Y-63644715D01*
X169031326Y-63824742D01*
X169011540Y-64012999D01*
X169031326Y-64201257D01*
X169089820Y-64381284D01*
X169184466Y-64545215D01*
X169202304Y-64565026D01*
X169230471Y-64617999D01*
X169230472Y-64677995D01*
X169202307Y-64730969D01*
X169184466Y-64750783D01*
X169089820Y-64914715D01*
X169031326Y-65094742D01*
X169011540Y-65283000D01*
X167647460Y-65283000D01*
X167627674Y-65094744D01*
X167569179Y-64914716D01*
X167569179Y-64914715D01*
X167474533Y-64750783D01*
X167456694Y-64730971D01*
X167428527Y-64677997D01*
X167428528Y-64618000D01*
X167456694Y-64565027D01*
X167474533Y-64545216D01*
X167569179Y-64381284D01*
X167627674Y-64201256D01*
X167647460Y-64013000D01*
X167627674Y-63824744D01*
X167569179Y-63644716D01*
X167569179Y-63644715D01*
X167474533Y-63480783D01*
X167456694Y-63460971D01*
X167428527Y-63407997D01*
X167428528Y-63348000D01*
X167456694Y-63295027D01*
X167474533Y-63275216D01*
X167569179Y-63111284D01*
X167627674Y-62931256D01*
X167647460Y-62743000D01*
X167627674Y-62554744D01*
X167569179Y-62374716D01*
X167569179Y-62374715D01*
X167474533Y-62210783D01*
X167456694Y-62190971D01*
X167428527Y-62137997D01*
X167428528Y-62078000D01*
X167456694Y-62025027D01*
X167474533Y-62005216D01*
X167569179Y-61841284D01*
X167627674Y-61661256D01*
X167647460Y-61473000D01*
X167627674Y-61284744D01*
X167569179Y-61104716D01*
X167569179Y-61104715D01*
X167474533Y-60940783D01*
X167456694Y-60920971D01*
X167428527Y-60867997D01*
X167428528Y-60808000D01*
X167456694Y-60755027D01*
X167474533Y-60735216D01*
X167569179Y-60571284D01*
X167627674Y-60391256D01*
X167647460Y-60203000D01*
X167627674Y-60014744D01*
X167569179Y-59834716D01*
X167569179Y-59834715D01*
X167474533Y-59670783D01*
X167456694Y-59650971D01*
X167428527Y-59597997D01*
X167428528Y-59538000D01*
X167456694Y-59485027D01*
X167474533Y-59465216D01*
X167569179Y-59301284D01*
X167627674Y-59121256D01*
X167647460Y-58933000D01*
X167627674Y-58744744D01*
X167569179Y-58564716D01*
X167569179Y-58564715D01*
X167474533Y-58400783D01*
X167347870Y-58260110D01*
X167194730Y-58148848D01*
X167021802Y-58071855D01*
X166836648Y-58032500D01*
X166836646Y-58032500D01*
X166647354Y-58032500D01*
X166647352Y-58032500D01*
X166462197Y-58071855D01*
X166289269Y-58148848D01*
X166136129Y-58260110D01*
X166009466Y-58400783D01*
X165914820Y-58564715D01*
X165856326Y-58744742D01*
X165845325Y-58849415D01*
X165836540Y-58933000D01*
X165838651Y-58953084D01*
X165856326Y-59121257D01*
X165914820Y-59301284D01*
X166009466Y-59465215D01*
X166027304Y-59485026D01*
X166055471Y-59537999D01*
X166055472Y-59597995D01*
X166027307Y-59650969D01*
X166009466Y-59670783D01*
X165914820Y-59834715D01*
X165856326Y-60014742D01*
X165836540Y-60203000D01*
X165856326Y-60391257D01*
X165914820Y-60571284D01*
X166009466Y-60735215D01*
X166027304Y-60755026D01*
X166055471Y-60807999D01*
X166055472Y-60867995D01*
X166027307Y-60920969D01*
X166009466Y-60940783D01*
X165914820Y-61104715D01*
X165856326Y-61284742D01*
X165836540Y-61473000D01*
X165856326Y-61661257D01*
X165914820Y-61841284D01*
X166009466Y-62005215D01*
X166027304Y-62025026D01*
X166055471Y-62077999D01*
X166055472Y-62137995D01*
X166027307Y-62190969D01*
X166009466Y-62210783D01*
X165914820Y-62374715D01*
X165856326Y-62554742D01*
X165836540Y-62742999D01*
X165856326Y-62931257D01*
X165914820Y-63111284D01*
X166009466Y-63275215D01*
X166027304Y-63295026D01*
X166055471Y-63347999D01*
X166055472Y-63407995D01*
X166027307Y-63460969D01*
X166009466Y-63480783D01*
X165914820Y-63644715D01*
X165856326Y-63824742D01*
X165836540Y-64012999D01*
X165856326Y-64201257D01*
X165914820Y-64381284D01*
X166009466Y-64545215D01*
X166027304Y-64565026D01*
X166055471Y-64617999D01*
X166055472Y-64677995D01*
X166027307Y-64730969D01*
X166009466Y-64750783D01*
X165914820Y-64914715D01*
X165856326Y-65094742D01*
X165836540Y-65283000D01*
X165856326Y-65471257D01*
X165914820Y-65651284D01*
X166009466Y-65815215D01*
X166027304Y-65835026D01*
X166055471Y-65887999D01*
X166055472Y-65947995D01*
X166027307Y-66000969D01*
X166009466Y-66020783D01*
X165914820Y-66184715D01*
X165856326Y-66364742D01*
X165836540Y-66553000D01*
X148703590Y-66553000D01*
X148837792Y-66418798D01*
X148853885Y-66405907D01*
X148855873Y-66403788D01*
X148855877Y-66403787D01*
X148901948Y-66354724D01*
X148904566Y-66352024D01*
X148924120Y-66332472D01*
X148926581Y-66329299D01*
X148934156Y-66320428D01*
X148964062Y-66288583D01*
X148973712Y-66271028D01*
X148984400Y-66254758D01*
X148996671Y-66238939D01*
X148996673Y-66238937D01*
X149014026Y-66198833D01*
X149019157Y-66188363D01*
X149040197Y-66150093D01*
X149045175Y-66130700D01*
X149051481Y-66112283D01*
X149053018Y-66108729D01*
X149059438Y-66093897D01*
X149066272Y-66050746D01*
X149068635Y-66039332D01*
X149079500Y-65997020D01*
X149079500Y-65976985D01*
X149081027Y-65957586D01*
X149082546Y-65947995D01*
X149084160Y-65937805D01*
X149080050Y-65894326D01*
X149079500Y-65882657D01*
X149079500Y-63378000D01*
X149580540Y-63378000D01*
X149589260Y-63460969D01*
X149600326Y-63566257D01*
X149658820Y-63746284D01*
X149753466Y-63910216D01*
X149880129Y-64050889D01*
X150033269Y-64162151D01*
X150206197Y-64239144D01*
X150391352Y-64278500D01*
X150391354Y-64278500D01*
X150580646Y-64278500D01*
X150580648Y-64278500D01*
X150740581Y-64244505D01*
X150765803Y-64239144D01*
X150910873Y-64174554D01*
X150943564Y-64159999D01*
X150994000Y-64149278D01*
X151044436Y-64159999D01*
X151222197Y-64239144D01*
X151407352Y-64278500D01*
X151407354Y-64278500D01*
X151596646Y-64278500D01*
X151596648Y-64278500D01*
X151756581Y-64244505D01*
X151781803Y-64239144D01*
X151954730Y-64162151D01*
X152107871Y-64050888D01*
X152234533Y-63910216D01*
X152329179Y-63746284D01*
X152387674Y-63566256D01*
X152407460Y-63378000D01*
X152387674Y-63189744D01*
X152363237Y-63114537D01*
X152359053Y-63054689D01*
X152383456Y-62999879D01*
X152430732Y-62962942D01*
X152589730Y-62892151D01*
X152589730Y-62892150D01*
X152589732Y-62892150D01*
X152742870Y-62780889D01*
X152776987Y-62742999D01*
X152869533Y-62640216D01*
X152964179Y-62476284D01*
X153022674Y-62296256D01*
X153042460Y-62108000D01*
X153022674Y-61919744D01*
X152964179Y-61739716D01*
X152964179Y-61739715D01*
X152869533Y-61575783D01*
X152742870Y-61435110D01*
X152589730Y-61323848D01*
X152430733Y-61253057D01*
X152383455Y-61216120D01*
X152359053Y-61161310D01*
X152363237Y-61101462D01*
X152387674Y-61026256D01*
X152407460Y-60838000D01*
X152387674Y-60649744D01*
X152363237Y-60574537D01*
X152359053Y-60514689D01*
X152383456Y-60459879D01*
X152430732Y-60422942D01*
X152589730Y-60352151D01*
X152589730Y-60352150D01*
X152589732Y-60352150D01*
X152742870Y-60240889D01*
X152831503Y-60142453D01*
X152869533Y-60100216D01*
X152964179Y-59936284D01*
X153022674Y-59756256D01*
X153042460Y-59568000D01*
X153022674Y-59379744D01*
X152964179Y-59199716D01*
X152964179Y-59199715D01*
X152869533Y-59035783D01*
X152742870Y-58895110D01*
X152589730Y-58783848D01*
X152416802Y-58706855D01*
X152231648Y-58667500D01*
X152231646Y-58667500D01*
X152042354Y-58667500D01*
X152042352Y-58667500D01*
X151857197Y-58706855D01*
X151684269Y-58783848D01*
X151638385Y-58817185D01*
X151591281Y-58838157D01*
X151539719Y-58838157D01*
X151492615Y-58817185D01*
X151446730Y-58783848D01*
X151273802Y-58706855D01*
X151088648Y-58667500D01*
X151088646Y-58667500D01*
X150899354Y-58667500D01*
X150899352Y-58667500D01*
X150714197Y-58706855D01*
X150541269Y-58783848D01*
X150388129Y-58895110D01*
X150261466Y-59035783D01*
X150166820Y-59199715D01*
X150108326Y-59379742D01*
X150089333Y-59560453D01*
X150088540Y-59568000D01*
X150094673Y-59626349D01*
X150108326Y-59756257D01*
X150148812Y-59880859D01*
X150152997Y-59940709D01*
X150128595Y-59995518D01*
X150081318Y-60032456D01*
X150033268Y-60053850D01*
X149880129Y-60165111D01*
X149753466Y-60305783D01*
X149658820Y-60469715D01*
X149600326Y-60649742D01*
X149580540Y-60838000D01*
X149600326Y-61026257D01*
X149658820Y-61206284D01*
X149753466Y-61370216D01*
X149880129Y-61510889D01*
X149996587Y-61595500D01*
X150031089Y-61633818D01*
X150047023Y-61682856D01*
X150041633Y-61734136D01*
X149981326Y-61919742D01*
X149974638Y-61983375D01*
X149961540Y-62108000D01*
X149968688Y-62176007D01*
X149981326Y-62296257D01*
X150041633Y-62481863D01*
X150047023Y-62533143D01*
X150031089Y-62582181D01*
X149996588Y-62620499D01*
X149880127Y-62705112D01*
X149753466Y-62845783D01*
X149658820Y-63009715D01*
X149600326Y-63189742D01*
X149600325Y-63189744D01*
X149600326Y-63189744D01*
X149580540Y-63378000D01*
X149079500Y-63378000D01*
X149079500Y-59332740D01*
X149081763Y-59312236D01*
X149079561Y-59242144D01*
X149079500Y-59238250D01*
X149079500Y-59210657D01*
X149079500Y-59210650D01*
X149078995Y-59206653D01*
X149078080Y-59195023D01*
X149076709Y-59151373D01*
X149071120Y-59132140D01*
X149067174Y-59113082D01*
X149064664Y-59093208D01*
X149048588Y-59052606D01*
X149044804Y-59041552D01*
X149032619Y-58999613D01*
X149032618Y-58999612D01*
X149032618Y-58999610D01*
X149022417Y-58982361D01*
X149013860Y-58964895D01*
X149006486Y-58946268D01*
X148980813Y-58910932D01*
X148974402Y-58901172D01*
X148952169Y-58863578D01*
X148938006Y-58849415D01*
X148925369Y-58834620D01*
X148913595Y-58818414D01*
X148913594Y-58818413D01*
X148879935Y-58790568D01*
X148871305Y-58782714D01*
X147166272Y-57077681D01*
X147136022Y-57028318D01*
X147131480Y-56970602D01*
X147153635Y-56917115D01*
X147197658Y-56879515D01*
X147253953Y-56866000D01*
X147278648Y-56866000D01*
X147404581Y-56839232D01*
X147463803Y-56826644D01*
X147636730Y-56749651D01*
X147775495Y-56648832D01*
X147832838Y-56626129D01*
X147894027Y-56633859D01*
X147943923Y-56670110D01*
X147970183Y-56725915D01*
X147966311Y-56787468D01*
X147949326Y-56839740D01*
X147929540Y-57028000D01*
X147949326Y-57216257D01*
X148007820Y-57396284D01*
X148102466Y-57560216D01*
X148229129Y-57700889D01*
X148382269Y-57812151D01*
X148555197Y-57889144D01*
X148740352Y-57928500D01*
X148740354Y-57928500D01*
X148929646Y-57928500D01*
X148929648Y-57928500D01*
X149094342Y-57893493D01*
X149114803Y-57889144D01*
X149287730Y-57812151D01*
X149440871Y-57700888D01*
X149441349Y-57700356D01*
X149443162Y-57699223D01*
X149451415Y-57693228D01*
X149451834Y-57693804D01*
X149499320Y-57664132D01*
X149567680Y-57664132D01*
X149615165Y-57693804D01*
X149615585Y-57693228D01*
X149623837Y-57699223D01*
X149625651Y-57700357D01*
X149626131Y-57700890D01*
X149779269Y-57812151D01*
X149952197Y-57889144D01*
X150137352Y-57928500D01*
X150137354Y-57928500D01*
X150326646Y-57928500D01*
X150326648Y-57928500D01*
X150491342Y-57893493D01*
X150511803Y-57889144D01*
X150684730Y-57812151D01*
X150748549Y-57765784D01*
X150794115Y-57732679D01*
X150841219Y-57711707D01*
X150892781Y-57711707D01*
X150939885Y-57732679D01*
X151049269Y-57812151D01*
X151222197Y-57889144D01*
X151407352Y-57928500D01*
X151407354Y-57928500D01*
X151596646Y-57928500D01*
X151596648Y-57928500D01*
X151761342Y-57893493D01*
X151781803Y-57889144D01*
X151954730Y-57812151D01*
X152018549Y-57765784D01*
X152064115Y-57732679D01*
X152111219Y-57711707D01*
X152162781Y-57711707D01*
X152209885Y-57732679D01*
X152319269Y-57812151D01*
X152492197Y-57889144D01*
X152677352Y-57928500D01*
X152677354Y-57928500D01*
X152866646Y-57928500D01*
X152866648Y-57928500D01*
X153031342Y-57893493D01*
X153051803Y-57889144D01*
X153224730Y-57812151D01*
X153288549Y-57765784D01*
X153334115Y-57732679D01*
X153381219Y-57711707D01*
X153432781Y-57711707D01*
X153479885Y-57732679D01*
X153589269Y-57812151D01*
X153762197Y-57889144D01*
X153947352Y-57928500D01*
X153947354Y-57928500D01*
X154136646Y-57928500D01*
X154136648Y-57928500D01*
X154301342Y-57893493D01*
X154321803Y-57889144D01*
X154494730Y-57812151D01*
X154558549Y-57765784D01*
X154604115Y-57732679D01*
X154651219Y-57711707D01*
X154702781Y-57711707D01*
X154749885Y-57732679D01*
X154859269Y-57812151D01*
X155032197Y-57889144D01*
X155217352Y-57928500D01*
X155217354Y-57928500D01*
X155406646Y-57928500D01*
X155406648Y-57928500D01*
X155571342Y-57893493D01*
X155591803Y-57889144D01*
X155764730Y-57812151D01*
X155828549Y-57765784D01*
X155874115Y-57732679D01*
X155921219Y-57711707D01*
X155972781Y-57711707D01*
X156019885Y-57732679D01*
X156129269Y-57812151D01*
X156302197Y-57889144D01*
X156487352Y-57928500D01*
X156487354Y-57928500D01*
X156676646Y-57928500D01*
X156676648Y-57928500D01*
X156841342Y-57893493D01*
X156861803Y-57889144D01*
X157034730Y-57812151D01*
X157098549Y-57765784D01*
X157144115Y-57732679D01*
X157191219Y-57711707D01*
X157242781Y-57711707D01*
X157289885Y-57732679D01*
X157399269Y-57812151D01*
X157572197Y-57889144D01*
X157757352Y-57928500D01*
X157757354Y-57928500D01*
X157946646Y-57928500D01*
X157946648Y-57928500D01*
X158110994Y-57893567D01*
X158175093Y-57896926D01*
X158228925Y-57931884D01*
X158258065Y-57989075D01*
X158254706Y-58053174D01*
X158236326Y-58109740D01*
X158216540Y-58297999D01*
X158236326Y-58486257D01*
X158294820Y-58666284D01*
X158389466Y-58830216D01*
X158516129Y-58970889D01*
X158669269Y-59082151D01*
X158842197Y-59159144D01*
X159027352Y-59198500D01*
X159027354Y-59198500D01*
X159216646Y-59198500D01*
X159216648Y-59198500D01*
X159340083Y-59172262D01*
X159401803Y-59159144D01*
X159574730Y-59082151D01*
X159615395Y-59052606D01*
X159727870Y-58970889D01*
X159761987Y-58932999D01*
X159854533Y-58830216D01*
X159949179Y-58666284D01*
X160007674Y-58486256D01*
X160027460Y-58298000D01*
X160007674Y-58109744D01*
X159968466Y-57989075D01*
X159949179Y-57929715D01*
X159854533Y-57765783D01*
X159727870Y-57625110D01*
X159574730Y-57513848D01*
X159401802Y-57436855D01*
X159216648Y-57397500D01*
X159216646Y-57397500D01*
X159027354Y-57397500D01*
X159027351Y-57397500D01*
X158863004Y-57432432D01*
X158798905Y-57429073D01*
X158745073Y-57394114D01*
X158715934Y-57336922D01*
X158719292Y-57272827D01*
X158737674Y-57216256D01*
X158757460Y-57028000D01*
X158737674Y-56839744D01*
X158707332Y-56746363D01*
X158679179Y-56659715D01*
X158584533Y-56495783D01*
X158457870Y-56355110D01*
X158304730Y-56243848D01*
X158131802Y-56166855D01*
X157946648Y-56127500D01*
X157946646Y-56127500D01*
X157757354Y-56127500D01*
X157757352Y-56127500D01*
X157572197Y-56166855D01*
X157399269Y-56243848D01*
X157289885Y-56323321D01*
X157242781Y-56344293D01*
X157191219Y-56344293D01*
X157144115Y-56323321D01*
X157034730Y-56243848D01*
X156861802Y-56166855D01*
X156676648Y-56127500D01*
X156676646Y-56127500D01*
X156487354Y-56127500D01*
X156487352Y-56127500D01*
X156302197Y-56166855D01*
X156129269Y-56243848D01*
X156019885Y-56323321D01*
X155972781Y-56344293D01*
X155921219Y-56344293D01*
X155874115Y-56323321D01*
X155764730Y-56243848D01*
X155591802Y-56166855D01*
X155406648Y-56127500D01*
X155406646Y-56127500D01*
X155217354Y-56127500D01*
X155217352Y-56127500D01*
X155032197Y-56166855D01*
X154859269Y-56243848D01*
X154749885Y-56323321D01*
X154702781Y-56344293D01*
X154651219Y-56344293D01*
X154604115Y-56323321D01*
X154494730Y-56243848D01*
X154321802Y-56166855D01*
X154136648Y-56127500D01*
X154136646Y-56127500D01*
X153947354Y-56127500D01*
X153947352Y-56127500D01*
X153762197Y-56166855D01*
X153589269Y-56243848D01*
X153479885Y-56323321D01*
X153432781Y-56344293D01*
X153381219Y-56344293D01*
X153334115Y-56323321D01*
X153224730Y-56243848D01*
X153051802Y-56166855D01*
X152866648Y-56127500D01*
X152866646Y-56127500D01*
X152677354Y-56127500D01*
X152677352Y-56127500D01*
X152492197Y-56166855D01*
X152319269Y-56243848D01*
X152209885Y-56323321D01*
X152162781Y-56344293D01*
X152111219Y-56344293D01*
X152064115Y-56323321D01*
X151954730Y-56243848D01*
X151781802Y-56166855D01*
X151596648Y-56127500D01*
X151596646Y-56127500D01*
X151407354Y-56127500D01*
X151407352Y-56127500D01*
X151222197Y-56166855D01*
X151049269Y-56243848D01*
X150939885Y-56323321D01*
X150892781Y-56344293D01*
X150841219Y-56344293D01*
X150794115Y-56323321D01*
X150684730Y-56243848D01*
X150511802Y-56166855D01*
X150326648Y-56127500D01*
X150326646Y-56127500D01*
X150137354Y-56127500D01*
X150137352Y-56127500D01*
X149952197Y-56166855D01*
X149779269Y-56243848D01*
X149626127Y-56355112D01*
X149625647Y-56355646D01*
X149623832Y-56356779D01*
X149615585Y-56362772D01*
X149615165Y-56362195D01*
X149567678Y-56391868D01*
X149499322Y-56391868D01*
X149451834Y-56362195D01*
X149451415Y-56362772D01*
X149443167Y-56356779D01*
X149441353Y-56355646D01*
X149440872Y-56355112D01*
X149287730Y-56243848D01*
X149114802Y-56166855D01*
X148929648Y-56127500D01*
X148929646Y-56127500D01*
X148740354Y-56127500D01*
X148740352Y-56127500D01*
X148555197Y-56166855D01*
X148382272Y-56243846D01*
X148243504Y-56344667D01*
X148186159Y-56367370D01*
X148124971Y-56359640D01*
X148075075Y-56323388D01*
X148048815Y-56267582D01*
X148052687Y-56206034D01*
X148069674Y-56153756D01*
X148089460Y-55965500D01*
X148069674Y-55777244D01*
X148014959Y-55608849D01*
X148011179Y-55597215D01*
X147916535Y-55433286D01*
X147849095Y-55358387D01*
X147795010Y-55298319D01*
X147766742Y-55244930D01*
X147767057Y-55184517D01*
X147775175Y-55152895D01*
X147781470Y-55134499D01*
X147782389Y-55132377D01*
X147804039Y-55098652D01*
X147916533Y-54973716D01*
X148011179Y-54809784D01*
X148069674Y-54629756D01*
X148089460Y-54441500D01*
X148069674Y-54253244D01*
X148011179Y-54073216D01*
X148011179Y-54073215D01*
X147916533Y-53909283D01*
X147789870Y-53768610D01*
X147636730Y-53657348D01*
X147463802Y-53580355D01*
X147278648Y-53541000D01*
X147278646Y-53541000D01*
X147089354Y-53541000D01*
X147089352Y-53541000D01*
X146904201Y-53580354D01*
X146726436Y-53659501D01*
X146676000Y-53670221D01*
X146625564Y-53659501D01*
X146530205Y-53617044D01*
X146447803Y-53580356D01*
X146447802Y-53580355D01*
X146447798Y-53580354D01*
X146262648Y-53541000D01*
X146262646Y-53541000D01*
X146073354Y-53541000D01*
X146073352Y-53541000D01*
X145888201Y-53580354D01*
X145710436Y-53659501D01*
X145660000Y-53670221D01*
X145609564Y-53659501D01*
X145514205Y-53617044D01*
X145431803Y-53580356D01*
X145431802Y-53580355D01*
X145431798Y-53580354D01*
X145246648Y-53541000D01*
X145246646Y-53541000D01*
X145057354Y-53541000D01*
X145057352Y-53541000D01*
X144872197Y-53580355D01*
X144699269Y-53657348D01*
X144546129Y-53768610D01*
X144419466Y-53909283D01*
X144324820Y-54073215D01*
X144266326Y-54253242D01*
X144246540Y-54441500D01*
X144266326Y-54629757D01*
X144324820Y-54809784D01*
X144419464Y-54973713D01*
X144419466Y-54973715D01*
X144419467Y-54973716D01*
X144494652Y-55057217D01*
X144518264Y-55095749D01*
X144526500Y-55140187D01*
X144526500Y-55184243D01*
X144517061Y-55231696D01*
X144490181Y-55271924D01*
X142958208Y-56803894D01*
X142942110Y-56816791D01*
X142894096Y-56867920D01*
X142891391Y-56870712D01*
X142871874Y-56890229D01*
X142869415Y-56893400D01*
X142861842Y-56902267D01*
X142831935Y-56934115D01*
X142822285Y-56951669D01*
X142811609Y-56967923D01*
X142799326Y-56983758D01*
X142781975Y-57023853D01*
X142776838Y-57034339D01*
X142755802Y-57072602D01*
X142750821Y-57092004D01*
X142744520Y-57110406D01*
X142736561Y-57128797D01*
X142729728Y-57171937D01*
X142727360Y-57183369D01*
X142716500Y-57225673D01*
X142716500Y-57245711D01*
X142714973Y-57265110D01*
X142711840Y-57284889D01*
X142715950Y-57328370D01*
X142716500Y-57340039D01*
X142716500Y-60018835D01*
X142698227Y-60083625D01*
X142648795Y-60129320D01*
X142582771Y-60142453D01*
X142519615Y-60119153D01*
X142429730Y-60053848D01*
X142270733Y-59983057D01*
X142223455Y-59946120D01*
X142199053Y-59891310D01*
X142203237Y-59831462D01*
X142227674Y-59756256D01*
X142247460Y-59568000D01*
X142227674Y-59379744D01*
X142169179Y-59199716D01*
X142169179Y-59199715D01*
X142074533Y-59035783D01*
X141947870Y-58895110D01*
X141794730Y-58783848D01*
X141621802Y-58706855D01*
X141436648Y-58667500D01*
X141436646Y-58667500D01*
X141247354Y-58667500D01*
X141247352Y-58667500D01*
X141062197Y-58706855D01*
X140889269Y-58783848D01*
X140779885Y-58863321D01*
X140732781Y-58884293D01*
X140681219Y-58884293D01*
X140634115Y-58863321D01*
X140524730Y-58783848D01*
X140351802Y-58706855D01*
X140166648Y-58667500D01*
X140166646Y-58667500D01*
X139977354Y-58667500D01*
X139977352Y-58667500D01*
X139792197Y-58706855D01*
X139619269Y-58783848D01*
X139466129Y-58895110D01*
X139339466Y-59035783D01*
X139244820Y-59199715D01*
X139186326Y-59379742D01*
X139166540Y-59568000D01*
X139186326Y-59756257D01*
X139244820Y-59936284D01*
X139339466Y-60100216D01*
X139466129Y-60240889D01*
X139619265Y-60352149D01*
X139672962Y-60376056D01*
X139778267Y-60422942D01*
X139825543Y-60459879D01*
X139849946Y-60514688D01*
X139845761Y-60574538D01*
X139821326Y-60649740D01*
X139801540Y-60838000D01*
X139821326Y-61026257D01*
X139879820Y-61206284D01*
X139974466Y-61370216D01*
X140101129Y-61510889D01*
X140254269Y-61622151D01*
X140427197Y-61699144D01*
X140612352Y-61738500D01*
X140612354Y-61738500D01*
X140801646Y-61738500D01*
X140801648Y-61738500D01*
X140925084Y-61712262D01*
X140986803Y-61699144D01*
X141159730Y-61622151D01*
X141196412Y-61595500D01*
X141269115Y-61542679D01*
X141316219Y-61521707D01*
X141367781Y-61521707D01*
X141414885Y-61542679D01*
X141524269Y-61622151D01*
X141697197Y-61699144D01*
X141882352Y-61738500D01*
X141882354Y-61738500D01*
X142071646Y-61738500D01*
X142071648Y-61738500D01*
X142195084Y-61712262D01*
X142256803Y-61699144D01*
X142326193Y-61668248D01*
X142429727Y-61622153D01*
X142436641Y-61617130D01*
X142521993Y-61555118D01*
X142584176Y-61531900D01*
X142649428Y-61544081D01*
X142699047Y-61588172D01*
X142718816Y-61651539D01*
X142719290Y-61666625D01*
X142724879Y-61685860D01*
X142728825Y-61704916D01*
X142731335Y-61724792D01*
X142747414Y-61765404D01*
X142751197Y-61776451D01*
X142763382Y-61818391D01*
X142773580Y-61835635D01*
X142782136Y-61853100D01*
X142789514Y-61871732D01*
X142789515Y-61871733D01*
X142815180Y-61907059D01*
X142821593Y-61916822D01*
X142843826Y-61954416D01*
X142843829Y-61954419D01*
X142843830Y-61954420D01*
X142857995Y-61968585D01*
X142870627Y-61983375D01*
X142882406Y-61999587D01*
X142916058Y-62027426D01*
X142924699Y-62035289D01*
X143176762Y-62287352D01*
X143208856Y-62342939D01*
X143208856Y-62407126D01*
X143181936Y-62507593D01*
X143161340Y-62743000D01*
X143181936Y-62978407D01*
X143218413Y-63114539D01*
X143243097Y-63206663D01*
X143342965Y-63420830D01*
X143478505Y-63614401D01*
X143645599Y-63781495D01*
X143831160Y-63911426D01*
X143870024Y-63955743D01*
X143884035Y-64013000D01*
X143870024Y-64070257D01*
X143831158Y-64114575D01*
X143653256Y-64239144D01*
X143645595Y-64244508D01*
X143478505Y-64411598D01*
X143342965Y-64605170D01*
X143243097Y-64819336D01*
X143181936Y-65047592D01*
X143161340Y-65283000D01*
X143181936Y-65518405D01*
X143181937Y-65518408D01*
X143204484Y-65602557D01*
X143208856Y-65618871D01*
X143208856Y-65683059D01*
X143176762Y-65738646D01*
X142442219Y-66473188D01*
X142381904Y-66506450D01*
X142313145Y-66502394D01*
X142257158Y-66462273D01*
X142231218Y-66398470D01*
X142227674Y-66364744D01*
X142170364Y-66188363D01*
X142169179Y-66184715D01*
X142074533Y-66020783D01*
X141947870Y-65880110D01*
X141794730Y-65768848D01*
X141621802Y-65691855D01*
X141436648Y-65652500D01*
X141436646Y-65652500D01*
X141247354Y-65652500D01*
X141247351Y-65652500D01*
X141083004Y-65687432D01*
X141018905Y-65684073D01*
X140965073Y-65649114D01*
X140935934Y-65591922D01*
X140939292Y-65527827D01*
X140957674Y-65471256D01*
X140977460Y-65283000D01*
X140957674Y-65094744D01*
X140899179Y-64914716D01*
X140899179Y-64914715D01*
X140804533Y-64750783D01*
X140677870Y-64610110D01*
X140524730Y-64498848D01*
X140351802Y-64421855D01*
X140166648Y-64382500D01*
X140166646Y-64382500D01*
X139977354Y-64382500D01*
X139977352Y-64382500D01*
X139792197Y-64421855D01*
X139619269Y-64498848D01*
X139466129Y-64610110D01*
X139339466Y-64750783D01*
X139244820Y-64914715D01*
X139186326Y-65094742D01*
X139166540Y-65282999D01*
X139186326Y-65471257D01*
X139244820Y-65651284D01*
X139339466Y-65815216D01*
X139466129Y-65955889D01*
X139619269Y-66067151D01*
X139792197Y-66144144D01*
X139977352Y-66183500D01*
X139977354Y-66183500D01*
X140166646Y-66183500D01*
X140166648Y-66183500D01*
X140330994Y-66148567D01*
X140395093Y-66151926D01*
X140448925Y-66186884D01*
X140478065Y-66244075D01*
X140474706Y-66308174D01*
X140456326Y-66364740D01*
X140436540Y-66553000D01*
X140456326Y-66741257D01*
X140514820Y-66921284D01*
X140609466Y-67085216D01*
X140736129Y-67225889D01*
X140889269Y-67337151D01*
X141062197Y-67414144D01*
X141200908Y-67443628D01*
X141259298Y-67473862D01*
X141294021Y-67529700D01*
X141295312Y-67595441D01*
X141262808Y-67652599D01*
X139939755Y-68975653D01*
X139886670Y-69007048D01*
X139846635Y-69008306D01*
X139846684Y-69009836D01*
X139763839Y-69012439D01*
X139759945Y-69012500D01*
X139732343Y-69012500D01*
X139728348Y-69013004D01*
X139716724Y-69013918D01*
X139673063Y-69015290D01*
X139653823Y-69020880D01*
X139634776Y-69024825D01*
X139614904Y-69027335D01*
X139574294Y-69043413D01*
X139563249Y-69047194D01*
X139521305Y-69059381D01*
X139504061Y-69069579D01*
X139486594Y-69078137D01*
X139476680Y-69082062D01*
X139467963Y-69085514D01*
X139467962Y-69085514D01*
X139453402Y-69091280D01*
X139453287Y-69090991D01*
X139442613Y-69096431D01*
X139404294Y-69102500D01*
X123381436Y-69102500D01*
X123360932Y-69100236D01*
X123290840Y-69102439D01*
X123286946Y-69102500D01*
X123259343Y-69102500D01*
X123255348Y-69103004D01*
X123243724Y-69103918D01*
X123200063Y-69105290D01*
X123180823Y-69110880D01*
X123161776Y-69114825D01*
X123141904Y-69117335D01*
X123101294Y-69133413D01*
X123090249Y-69137194D01*
X123048306Y-69149380D01*
X123031064Y-69159578D01*
X123013592Y-69168138D01*
X122994961Y-69175514D01*
X122959633Y-69201181D01*
X122949875Y-69207591D01*
X122912274Y-69229829D01*
X122898105Y-69243998D01*
X122883317Y-69256628D01*
X122867108Y-69268405D01*
X122839267Y-69302058D01*
X122831406Y-69310696D01*
X119523402Y-72618700D01*
X119465719Y-72651336D01*
X119399467Y-72649601D01*
X119343571Y-72613991D01*
X119332918Y-72602159D01*
X119179778Y-72490897D01*
X119006850Y-72413904D01*
X118821696Y-72374549D01*
X118821694Y-72374549D01*
X118632402Y-72374549D01*
X118632400Y-72374549D01*
X118447245Y-72413904D01*
X118274317Y-72490897D01*
X118121177Y-72602159D01*
X117994514Y-72742832D01*
X117899868Y-72906764D01*
X117841374Y-73086791D01*
X117821588Y-73275049D01*
X116400659Y-73275049D01*
X116271682Y-72792126D01*
X116270662Y-72788026D01*
X116033602Y-71757891D01*
X116032723Y-71753743D01*
X115831657Y-70716036D01*
X115830914Y-70711808D01*
X115675587Y-69728000D01*
X116306540Y-69728000D01*
X116316433Y-69822128D01*
X116326326Y-69916257D01*
X116384820Y-70096284D01*
X116479466Y-70260216D01*
X116606129Y-70400889D01*
X116759269Y-70512151D01*
X116932197Y-70589144D01*
X117117352Y-70628500D01*
X117117354Y-70628500D01*
X117306646Y-70628500D01*
X117306648Y-70628500D01*
X117448219Y-70598408D01*
X117491803Y-70589144D01*
X117664730Y-70512151D01*
X117817871Y-70400888D01*
X117944533Y-70260216D01*
X118039179Y-70096284D01*
X118097674Y-69916256D01*
X118117460Y-69728000D01*
X118097674Y-69539744D01*
X118039179Y-69359716D01*
X118039179Y-69359715D01*
X117944533Y-69195783D01*
X117817870Y-69055110D01*
X117664730Y-68943848D01*
X117491802Y-68866855D01*
X117306648Y-68827500D01*
X117306646Y-68827500D01*
X117117354Y-68827500D01*
X117117352Y-68827500D01*
X116932197Y-68866855D01*
X116759269Y-68943848D01*
X116606129Y-69055110D01*
X116479466Y-69195783D01*
X116384820Y-69359715D01*
X116326326Y-69539742D01*
X116306540Y-69727999D01*
X116306540Y-69728000D01*
X115675587Y-69728000D01*
X115666072Y-69667733D01*
X115665483Y-69663529D01*
X115537067Y-68614367D01*
X115536624Y-68610136D01*
X115444785Y-67557117D01*
X115444486Y-67552827D01*
X115392251Y-66553000D01*
X117576540Y-66553000D01*
X117596326Y-66741257D01*
X117654820Y-66921284D01*
X117749466Y-67085216D01*
X117876129Y-67225889D01*
X118029269Y-67337151D01*
X118202197Y-67414144D01*
X118387352Y-67453500D01*
X118387354Y-67453500D01*
X118576646Y-67453500D01*
X118576648Y-67453500D01*
X118700083Y-67427262D01*
X118761803Y-67414144D01*
X118934730Y-67337151D01*
X119087871Y-67225888D01*
X119214533Y-67085216D01*
X119309179Y-66921284D01*
X119367674Y-66741256D01*
X119387460Y-66553000D01*
X123926540Y-66553000D01*
X123946326Y-66741257D01*
X124004820Y-66921284D01*
X124099466Y-67085216D01*
X124226129Y-67225889D01*
X124379269Y-67337151D01*
X124552197Y-67414144D01*
X124737352Y-67453500D01*
X124737354Y-67453500D01*
X124926646Y-67453500D01*
X124926648Y-67453500D01*
X125050083Y-67427262D01*
X125111803Y-67414144D01*
X125284730Y-67337151D01*
X125437871Y-67225888D01*
X125471986Y-67188000D01*
X130911540Y-67188000D01*
X130931326Y-67376257D01*
X130989820Y-67556284D01*
X131084466Y-67720216D01*
X131211129Y-67860889D01*
X131364269Y-67972151D01*
X131537197Y-68049144D01*
X131722352Y-68088500D01*
X131722354Y-68088500D01*
X131911646Y-68088500D01*
X131911648Y-68088500D01*
X132053219Y-68058408D01*
X132096803Y-68049144D01*
X132269730Y-67972151D01*
X132269730Y-67972150D01*
X132422870Y-67860889D01*
X132456987Y-67822999D01*
X132549533Y-67720216D01*
X132644179Y-67556284D01*
X132702674Y-67376256D01*
X132722460Y-67188000D01*
X132702674Y-66999744D01*
X132672332Y-66906363D01*
X132644179Y-66819715D01*
X132549533Y-66655783D01*
X132422870Y-66515110D01*
X132269730Y-66403848D01*
X132096802Y-66326855D01*
X131911648Y-66287500D01*
X131911646Y-66287500D01*
X131722354Y-66287500D01*
X131722352Y-66287500D01*
X131537197Y-66326855D01*
X131364269Y-66403848D01*
X131211129Y-66515110D01*
X131084466Y-66655783D01*
X130989820Y-66819715D01*
X130931326Y-66999742D01*
X130911540Y-67188000D01*
X125471986Y-67188000D01*
X125564533Y-67085216D01*
X125659179Y-66921284D01*
X125717674Y-66741256D01*
X125737460Y-66553000D01*
X125717674Y-66364744D01*
X125660364Y-66188363D01*
X125659179Y-66184715D01*
X125564535Y-66020787D01*
X125564534Y-66020786D01*
X125564533Y-66020784D01*
X125546693Y-66000971D01*
X125518527Y-65947999D01*
X125518527Y-65888001D01*
X125546693Y-65835028D01*
X125564533Y-65815216D01*
X125659179Y-65651284D01*
X125717674Y-65471256D01*
X125737460Y-65283000D01*
X125717674Y-65094744D01*
X125659179Y-64914716D01*
X125659179Y-64914715D01*
X125564533Y-64750783D01*
X125546694Y-64730971D01*
X125518527Y-64677997D01*
X125518528Y-64618000D01*
X125546694Y-64565027D01*
X125564533Y-64545216D01*
X125659179Y-64381284D01*
X125717674Y-64201256D01*
X125737460Y-64013000D01*
X125717674Y-63824744D01*
X125659179Y-63644716D01*
X125659179Y-63644715D01*
X125564533Y-63480783D01*
X125546694Y-63460971D01*
X125518527Y-63407997D01*
X125518528Y-63348000D01*
X125546694Y-63295027D01*
X125564533Y-63275216D01*
X125659179Y-63111284D01*
X125717674Y-62931256D01*
X125737460Y-62743000D01*
X125717674Y-62554744D01*
X125659179Y-62374716D01*
X125659179Y-62374715D01*
X125564533Y-62210783D01*
X125546694Y-62190971D01*
X125518527Y-62137997D01*
X125518528Y-62078000D01*
X125546694Y-62025027D01*
X125564533Y-62005216D01*
X125659179Y-61841284D01*
X125717674Y-61661256D01*
X125737460Y-61473000D01*
X125717674Y-61284744D01*
X125659179Y-61104716D01*
X125659179Y-61104715D01*
X125564533Y-60940783D01*
X125546694Y-60920971D01*
X125518527Y-60867997D01*
X125518528Y-60808000D01*
X125546694Y-60755027D01*
X125564533Y-60735216D01*
X125659179Y-60571284D01*
X125717674Y-60391256D01*
X125737460Y-60203000D01*
X125717674Y-60014744D01*
X125659179Y-59834716D01*
X125659179Y-59834715D01*
X125564533Y-59670783D01*
X125546694Y-59650971D01*
X125518527Y-59597997D01*
X125518528Y-59538000D01*
X125546694Y-59485027D01*
X125564533Y-59465216D01*
X125659179Y-59301284D01*
X125717674Y-59121256D01*
X125737460Y-58933000D01*
X125717674Y-58744744D01*
X125659179Y-58564716D01*
X125659179Y-58564715D01*
X125564533Y-58400783D01*
X125437870Y-58260110D01*
X125284730Y-58148848D01*
X125111802Y-58071855D01*
X124926648Y-58032500D01*
X124926646Y-58032500D01*
X124737354Y-58032500D01*
X124737352Y-58032500D01*
X124552197Y-58071855D01*
X124379269Y-58148848D01*
X124226129Y-58260110D01*
X124099466Y-58400783D01*
X124004820Y-58564715D01*
X123946326Y-58744742D01*
X123926540Y-58933000D01*
X123946326Y-59121257D01*
X124004820Y-59301284D01*
X124099466Y-59465215D01*
X124117304Y-59485026D01*
X124145471Y-59537999D01*
X124145472Y-59597995D01*
X124117307Y-59650969D01*
X124099466Y-59670783D01*
X124004820Y-59834715D01*
X123946326Y-60014742D01*
X123926540Y-60203000D01*
X123946326Y-60391257D01*
X124004820Y-60571284D01*
X124099466Y-60735215D01*
X124117304Y-60755026D01*
X124145471Y-60807999D01*
X124145472Y-60867995D01*
X124117307Y-60920969D01*
X124099466Y-60940783D01*
X124004820Y-61104715D01*
X123946326Y-61284742D01*
X123933378Y-61407937D01*
X123926540Y-61473000D01*
X123933863Y-61542679D01*
X123946326Y-61661257D01*
X124004820Y-61841284D01*
X124099466Y-62005215D01*
X124117304Y-62025026D01*
X124145471Y-62077999D01*
X124145472Y-62137995D01*
X124117307Y-62190969D01*
X124099466Y-62210783D01*
X124004820Y-62374715D01*
X123946326Y-62554742D01*
X123926540Y-62743000D01*
X123946326Y-62931257D01*
X124004820Y-63111284D01*
X124099466Y-63275215D01*
X124117304Y-63295026D01*
X124145471Y-63347999D01*
X124145472Y-63407995D01*
X124117307Y-63460969D01*
X124099466Y-63480783D01*
X124004820Y-63644715D01*
X123946326Y-63824742D01*
X123926540Y-64012999D01*
X123946326Y-64201257D01*
X124004820Y-64381284D01*
X124099466Y-64545215D01*
X124117304Y-64565026D01*
X124145471Y-64617999D01*
X124145472Y-64677995D01*
X124117307Y-64730969D01*
X124099466Y-64750783D01*
X124004820Y-64914715D01*
X123946326Y-65094742D01*
X123926540Y-65282999D01*
X123946326Y-65471257D01*
X124004820Y-65651284D01*
X124099466Y-65815215D01*
X124117304Y-65835026D01*
X124145471Y-65887999D01*
X124145472Y-65947995D01*
X124117307Y-66000969D01*
X124099466Y-66020783D01*
X124004820Y-66184715D01*
X123946326Y-66364742D01*
X123926540Y-66553000D01*
X119387460Y-66553000D01*
X119367674Y-66364744D01*
X119310364Y-66188363D01*
X119309179Y-66184715D01*
X119214535Y-66020787D01*
X119214534Y-66020786D01*
X119214533Y-66020784D01*
X119196693Y-66000971D01*
X119168527Y-65947999D01*
X119168527Y-65888001D01*
X119196693Y-65835028D01*
X119214533Y-65815216D01*
X119309179Y-65651284D01*
X119367674Y-65471256D01*
X119387460Y-65283000D01*
X119387460Y-65282999D01*
X120751540Y-65282999D01*
X120771326Y-65471257D01*
X120829820Y-65651284D01*
X120924466Y-65815216D01*
X121051129Y-65955889D01*
X121204269Y-66067151D01*
X121377197Y-66144144D01*
X121562352Y-66183500D01*
X121562354Y-66183500D01*
X121751646Y-66183500D01*
X121751648Y-66183500D01*
X121900191Y-66151926D01*
X121936803Y-66144144D01*
X122109730Y-66067151D01*
X122148035Y-66039321D01*
X122262870Y-65955889D01*
X122389533Y-65815216D01*
X122484179Y-65651284D01*
X122527354Y-65518405D01*
X122542674Y-65471256D01*
X122562460Y-65283000D01*
X122542674Y-65094744D01*
X122484179Y-64914716D01*
X122484179Y-64914715D01*
X122389533Y-64750783D01*
X122371694Y-64730971D01*
X122343527Y-64677997D01*
X122343528Y-64618000D01*
X122371694Y-64565027D01*
X122389533Y-64545216D01*
X122484179Y-64381284D01*
X122542674Y-64201256D01*
X122562460Y-64013000D01*
X122542674Y-63824744D01*
X122484179Y-63644716D01*
X122484179Y-63644715D01*
X122389533Y-63480783D01*
X122371694Y-63460971D01*
X122343527Y-63407997D01*
X122343528Y-63348000D01*
X122371694Y-63295027D01*
X122389533Y-63275216D01*
X122484179Y-63111284D01*
X122542674Y-62931256D01*
X122562460Y-62743000D01*
X122542674Y-62554744D01*
X122484179Y-62374716D01*
X122484179Y-62374715D01*
X122389533Y-62210783D01*
X122371694Y-62190971D01*
X122343527Y-62137997D01*
X122343528Y-62078000D01*
X122371694Y-62025027D01*
X122389533Y-62005216D01*
X122484179Y-61841284D01*
X122542674Y-61661256D01*
X122562460Y-61473000D01*
X122542674Y-61284744D01*
X122484179Y-61104716D01*
X122484179Y-61104715D01*
X122389533Y-60940783D01*
X122371694Y-60920971D01*
X122343527Y-60867997D01*
X122343528Y-60808000D01*
X122371694Y-60755027D01*
X122389533Y-60735216D01*
X122484179Y-60571284D01*
X122542674Y-60391256D01*
X122562460Y-60203000D01*
X122542674Y-60014744D01*
X122484179Y-59834716D01*
X122484179Y-59834715D01*
X122389533Y-59670783D01*
X122262870Y-59530110D01*
X122109730Y-59418848D01*
X121936802Y-59341855D01*
X121751648Y-59302500D01*
X121751646Y-59302500D01*
X121562354Y-59302500D01*
X121562352Y-59302500D01*
X121377197Y-59341855D01*
X121204269Y-59418848D01*
X121051129Y-59530110D01*
X120924466Y-59670783D01*
X120829820Y-59834715D01*
X120771326Y-60014742D01*
X120751540Y-60203000D01*
X120771326Y-60391257D01*
X120829820Y-60571284D01*
X120924466Y-60735215D01*
X120942304Y-60755026D01*
X120970471Y-60807999D01*
X120970472Y-60867995D01*
X120942307Y-60920969D01*
X120924466Y-60940783D01*
X120829820Y-61104715D01*
X120771326Y-61284742D01*
X120758378Y-61407937D01*
X120751540Y-61473000D01*
X120758863Y-61542679D01*
X120771326Y-61661257D01*
X120829820Y-61841284D01*
X120924466Y-62005215D01*
X120942304Y-62025026D01*
X120970471Y-62077999D01*
X120970472Y-62137995D01*
X120942307Y-62190969D01*
X120924466Y-62210783D01*
X120829820Y-62374715D01*
X120771326Y-62554742D01*
X120751540Y-62743000D01*
X120771326Y-62931257D01*
X120829820Y-63111284D01*
X120924466Y-63275215D01*
X120942304Y-63295026D01*
X120970471Y-63347999D01*
X120970472Y-63407995D01*
X120942307Y-63460969D01*
X120924466Y-63480783D01*
X120829820Y-63644715D01*
X120771326Y-63824742D01*
X120751540Y-64012999D01*
X120771326Y-64201257D01*
X120829820Y-64381284D01*
X120924466Y-64545215D01*
X120942304Y-64565026D01*
X120970471Y-64617999D01*
X120970472Y-64677995D01*
X120942307Y-64730969D01*
X120924466Y-64750783D01*
X120829820Y-64914715D01*
X120771326Y-65094742D01*
X120751540Y-65282999D01*
X119387460Y-65282999D01*
X119367674Y-65094744D01*
X119309179Y-64914716D01*
X119309179Y-64914715D01*
X119214533Y-64750783D01*
X119196694Y-64730971D01*
X119168527Y-64677997D01*
X119168528Y-64618000D01*
X119196694Y-64565027D01*
X119214533Y-64545216D01*
X119309179Y-64381284D01*
X119367674Y-64201256D01*
X119387460Y-64013000D01*
X119367674Y-63824744D01*
X119309179Y-63644716D01*
X119309179Y-63644715D01*
X119214533Y-63480783D01*
X119196694Y-63460971D01*
X119168527Y-63407997D01*
X119168528Y-63348000D01*
X119196694Y-63295027D01*
X119214533Y-63275216D01*
X119309179Y-63111284D01*
X119367674Y-62931256D01*
X119387460Y-62743000D01*
X119367674Y-62554744D01*
X119309179Y-62374716D01*
X119309179Y-62374715D01*
X119214533Y-62210783D01*
X119196694Y-62190971D01*
X119168527Y-62137997D01*
X119168528Y-62078000D01*
X119196694Y-62025027D01*
X119214533Y-62005216D01*
X119309179Y-61841284D01*
X119367674Y-61661256D01*
X119387460Y-61473000D01*
X119367674Y-61284744D01*
X119309179Y-61104716D01*
X119309179Y-61104715D01*
X119214533Y-60940783D01*
X119196694Y-60920971D01*
X119168527Y-60867997D01*
X119168528Y-60808000D01*
X119196694Y-60755027D01*
X119214533Y-60735216D01*
X119309179Y-60571284D01*
X119367674Y-60391256D01*
X119387460Y-60203000D01*
X119367674Y-60014744D01*
X119309179Y-59834716D01*
X119309179Y-59834715D01*
X119214533Y-59670783D01*
X119196694Y-59650971D01*
X119168527Y-59597997D01*
X119168528Y-59538000D01*
X119196694Y-59485027D01*
X119214533Y-59465216D01*
X119309179Y-59301284D01*
X119367674Y-59121256D01*
X119387460Y-58933000D01*
X119367674Y-58744744D01*
X119309179Y-58564716D01*
X119309179Y-58564715D01*
X119214533Y-58400783D01*
X119087870Y-58260110D01*
X118934730Y-58148848D01*
X118761802Y-58071855D01*
X118576648Y-58032500D01*
X118576646Y-58032500D01*
X118387354Y-58032500D01*
X118387352Y-58032500D01*
X118202197Y-58071855D01*
X118029269Y-58148848D01*
X117876129Y-58260110D01*
X117749466Y-58400783D01*
X117654820Y-58564715D01*
X117596326Y-58744742D01*
X117576540Y-58933000D01*
X117596326Y-59121257D01*
X117654820Y-59301284D01*
X117749466Y-59465215D01*
X117767304Y-59485026D01*
X117795471Y-59537999D01*
X117795472Y-59597995D01*
X117767307Y-59650969D01*
X117749466Y-59670783D01*
X117654820Y-59834715D01*
X117596326Y-60014742D01*
X117576540Y-60203000D01*
X117596326Y-60391257D01*
X117654820Y-60571284D01*
X117749466Y-60735215D01*
X117767304Y-60755026D01*
X117795471Y-60807999D01*
X117795472Y-60867995D01*
X117767307Y-60920969D01*
X117749466Y-60940783D01*
X117654820Y-61104715D01*
X117596326Y-61284742D01*
X117583378Y-61407937D01*
X117576540Y-61473000D01*
X117583863Y-61542679D01*
X117596326Y-61661257D01*
X117654820Y-61841284D01*
X117749466Y-62005215D01*
X117767304Y-62025026D01*
X117795471Y-62077999D01*
X117795472Y-62137995D01*
X117767307Y-62190969D01*
X117749466Y-62210783D01*
X117654820Y-62374715D01*
X117596326Y-62554742D01*
X117576540Y-62743000D01*
X117596326Y-62931257D01*
X117654820Y-63111284D01*
X117749466Y-63275215D01*
X117767304Y-63295026D01*
X117795471Y-63347999D01*
X117795472Y-63407995D01*
X117767307Y-63460969D01*
X117749466Y-63480783D01*
X117654820Y-63644715D01*
X117596326Y-63824742D01*
X117576540Y-64012999D01*
X117596326Y-64201257D01*
X117654820Y-64381284D01*
X117749466Y-64545215D01*
X117767304Y-64565026D01*
X117795471Y-64617999D01*
X117795472Y-64677995D01*
X117767307Y-64730969D01*
X117749466Y-64750783D01*
X117654820Y-64914715D01*
X117596326Y-65094742D01*
X117576540Y-65282999D01*
X117596326Y-65471257D01*
X117654820Y-65651284D01*
X117749466Y-65815215D01*
X117767304Y-65835026D01*
X117795471Y-65887999D01*
X117795472Y-65947995D01*
X117767307Y-66000969D01*
X117749466Y-66020783D01*
X117654820Y-66184715D01*
X117596326Y-66364742D01*
X117576540Y-66553000D01*
X115392251Y-66553000D01*
X115389340Y-66497288D01*
X115389191Y-66492998D01*
X115388846Y-66473188D01*
X115377892Y-65843602D01*
X115370802Y-65436101D01*
X115370803Y-65431731D01*
X115376819Y-65094742D01*
X115390155Y-64347633D01*
X115390311Y-64343265D01*
X115448355Y-63260389D01*
X115448664Y-63256077D01*
X115545318Y-62175989D01*
X115545790Y-62171606D01*
X115680934Y-61095654D01*
X115681547Y-61091388D01*
X115855012Y-60020921D01*
X115855794Y-60016588D01*
X115856161Y-60014744D01*
X116067346Y-58953043D01*
X116068270Y-58948798D01*
X116317655Y-57893453D01*
X116318728Y-57889243D01*
X116605624Y-56843463D01*
X116606867Y-56839232D01*
X116613894Y-56816791D01*
X116930895Y-55804393D01*
X116932271Y-55800258D01*
X117293044Y-54777601D01*
X117294560Y-54773539D01*
X117691592Y-53764441D01*
X117693280Y-53760366D01*
X117738122Y-53657348D01*
X118126076Y-52766082D01*
X118127884Y-52762124D01*
X118595894Y-51783916D01*
X118597834Y-51780040D01*
X118935603Y-51134323D01*
X118976316Y-51088880D01*
X119033776Y-51068354D01*
X119094070Y-51077719D01*
X119142597Y-51114706D01*
X119167609Y-51170360D01*
X119163049Y-51231206D01*
X119132394Y-51322668D01*
X119035002Y-51736753D01*
X118976232Y-52158062D01*
X118956586Y-52582999D01*
X118976232Y-53007937D01*
X119035002Y-53429246D01*
X119132393Y-53843327D01*
X119267577Y-54246663D01*
X119439404Y-54635815D01*
X119516093Y-54773497D01*
X119646398Y-55007438D01*
X119719752Y-55114522D01*
X119886803Y-55358387D01*
X120158557Y-55685647D01*
X120459352Y-55986442D01*
X120786612Y-56258196D01*
X120786618Y-56258200D01*
X121137562Y-56498602D01*
X121137566Y-56498604D01*
X121509184Y-56705595D01*
X121509186Y-56705596D01*
X121509190Y-56705598D01*
X121898333Y-56877421D01*
X121898336Y-56877422D01*
X122301672Y-57012606D01*
X122646423Y-57093690D01*
X122715757Y-57109998D01*
X123137066Y-57168768D01*
X123562000Y-57188414D01*
X123986934Y-57168768D01*
X124408243Y-57109998D01*
X124822331Y-57012605D01*
X125225667Y-56877421D01*
X125614810Y-56705598D01*
X125986438Y-56498602D01*
X126140598Y-56393000D01*
X132816540Y-56393000D01*
X132836326Y-56581257D01*
X132894820Y-56761284D01*
X132989466Y-56925216D01*
X133116129Y-57065889D01*
X133269269Y-57177151D01*
X133442197Y-57254144D01*
X133627352Y-57293500D01*
X133627354Y-57293500D01*
X133816646Y-57293500D01*
X133816648Y-57293500D01*
X133940083Y-57267262D01*
X134001803Y-57254144D01*
X134174730Y-57177151D01*
X134174729Y-57177151D01*
X134327870Y-57065889D01*
X134454533Y-56925216D01*
X134549179Y-56761284D01*
X134566540Y-56707852D01*
X134607674Y-56581256D01*
X134627460Y-56393000D01*
X134607674Y-56204744D01*
X134549179Y-56024716D01*
X134549179Y-56024715D01*
X134454533Y-55860783D01*
X134327870Y-55720110D01*
X134174730Y-55608848D01*
X134001802Y-55531855D01*
X133816648Y-55492500D01*
X133816646Y-55492500D01*
X133627354Y-55492500D01*
X133627352Y-55492500D01*
X133442197Y-55531855D01*
X133269269Y-55608848D01*
X133116129Y-55720110D01*
X132989466Y-55860783D01*
X132894820Y-56024715D01*
X132836326Y-56204742D01*
X132816540Y-56393000D01*
X126140598Y-56393000D01*
X126337382Y-56258200D01*
X126354666Y-56243848D01*
X126664647Y-55986442D01*
X126965442Y-55685647D01*
X127237196Y-55358387D01*
X127237196Y-55358385D01*
X127237200Y-55358382D01*
X127477602Y-55007438D01*
X127684598Y-54635810D01*
X127856421Y-54246667D01*
X127991605Y-53843331D01*
X128088998Y-53429243D01*
X128147768Y-53007934D01*
X128167414Y-52583000D01*
X128167414Y-52582999D01*
X163406586Y-52582999D01*
X163426232Y-53007937D01*
X163485002Y-53429246D01*
X163582393Y-53843327D01*
X163717577Y-54246663D01*
X163889404Y-54635815D01*
X163966093Y-54773497D01*
X164096398Y-55007438D01*
X164169752Y-55114522D01*
X164336803Y-55358387D01*
X164608557Y-55685647D01*
X164909352Y-55986442D01*
X165236612Y-56258196D01*
X165236618Y-56258200D01*
X165587562Y-56498602D01*
X165587566Y-56498604D01*
X165959184Y-56705595D01*
X165959186Y-56705596D01*
X165959190Y-56705598D01*
X166348333Y-56877421D01*
X166348336Y-56877422D01*
X166751672Y-57012606D01*
X167096423Y-57093690D01*
X167165757Y-57109998D01*
X167587066Y-57168768D01*
X168012000Y-57188414D01*
X168436934Y-57168768D01*
X168858243Y-57109998D01*
X169272331Y-57012605D01*
X169675667Y-56877421D01*
X170064810Y-56705598D01*
X170436438Y-56498602D01*
X170787382Y-56258200D01*
X170804666Y-56243848D01*
X171114647Y-55986442D01*
X171415442Y-55685647D01*
X171687196Y-55358387D01*
X171687196Y-55358385D01*
X171687200Y-55358382D01*
X171927602Y-55007438D01*
X172134598Y-54635810D01*
X172306421Y-54246667D01*
X172441605Y-53843331D01*
X172538998Y-53429243D01*
X172597768Y-53007934D01*
X172617414Y-52583000D01*
X172597768Y-52158066D01*
X172538998Y-51736757D01*
X172441605Y-51322669D01*
X172306421Y-50919333D01*
X172134598Y-50530190D01*
X171927602Y-50158562D01*
X171687200Y-49807618D01*
X171687196Y-49807612D01*
X171415442Y-49480352D01*
X171114647Y-49179557D01*
X170787387Y-48907803D01*
X170611909Y-48787598D01*
X170436438Y-48667398D01*
X170358253Y-48623849D01*
X170064815Y-48460404D01*
X169675663Y-48288577D01*
X169272327Y-48153393D01*
X168858246Y-48056002D01*
X168436937Y-47997232D01*
X168012000Y-47977586D01*
X167587062Y-47997232D01*
X167165753Y-48056002D01*
X166751672Y-48153393D01*
X166348336Y-48288577D01*
X165959184Y-48460404D01*
X165587566Y-48667395D01*
X165236612Y-48907803D01*
X164909352Y-49179557D01*
X164608557Y-49480352D01*
X164336803Y-49807612D01*
X164096395Y-50158566D01*
X163889404Y-50530184D01*
X163717577Y-50919336D01*
X163582393Y-51322672D01*
X163485002Y-51736753D01*
X163426232Y-52158062D01*
X163406586Y-52582999D01*
X128167414Y-52582999D01*
X128147768Y-52158066D01*
X128088998Y-51736757D01*
X127991605Y-51322669D01*
X127856421Y-50919333D01*
X127684598Y-50530190D01*
X127477602Y-50158562D01*
X127237200Y-49807618D01*
X127237196Y-49807612D01*
X126965442Y-49480352D01*
X126893090Y-49408000D01*
X132816540Y-49408000D01*
X132836326Y-49596257D01*
X132894820Y-49776284D01*
X132989466Y-49940216D01*
X133116129Y-50080889D01*
X133269269Y-50192151D01*
X133442197Y-50269144D01*
X133627352Y-50308500D01*
X133627354Y-50308500D01*
X133816646Y-50308500D01*
X133816648Y-50308500D01*
X133940083Y-50282262D01*
X134001803Y-50269144D01*
X134174730Y-50192151D01*
X134220956Y-50158566D01*
X134284115Y-50112679D01*
X134331219Y-50091707D01*
X134382781Y-50091707D01*
X134429885Y-50112679D01*
X134539269Y-50192151D01*
X134712197Y-50269144D01*
X134897352Y-50308500D01*
X134897354Y-50308500D01*
X135086646Y-50308500D01*
X135086648Y-50308500D01*
X135210083Y-50282262D01*
X135271803Y-50269144D01*
X135444730Y-50192151D01*
X135490956Y-50158566D01*
X135554115Y-50112679D01*
X135601219Y-50091707D01*
X135652781Y-50091707D01*
X135699885Y-50112679D01*
X135809269Y-50192151D01*
X135982197Y-50269144D01*
X136167352Y-50308500D01*
X136167354Y-50308500D01*
X136356646Y-50308500D01*
X136356648Y-50308500D01*
X136480083Y-50282262D01*
X136541803Y-50269144D01*
X136714730Y-50192151D01*
X136760956Y-50158566D01*
X136824115Y-50112679D01*
X136871219Y-50091707D01*
X136922781Y-50091707D01*
X136969885Y-50112679D01*
X137079269Y-50192151D01*
X137252197Y-50269144D01*
X137437352Y-50308500D01*
X137437354Y-50308500D01*
X137626646Y-50308500D01*
X137626648Y-50308500D01*
X137750083Y-50282262D01*
X137811803Y-50269144D01*
X137984730Y-50192151D01*
X138030956Y-50158566D01*
X138094115Y-50112679D01*
X138141219Y-50091707D01*
X138192781Y-50091707D01*
X138239885Y-50112679D01*
X138349269Y-50192151D01*
X138522197Y-50269144D01*
X138707352Y-50308500D01*
X138707354Y-50308500D01*
X138896646Y-50308500D01*
X138896648Y-50308500D01*
X139020083Y-50282262D01*
X139081803Y-50269144D01*
X139254730Y-50192151D01*
X139300956Y-50158566D01*
X139364115Y-50112679D01*
X139411219Y-50091707D01*
X139462781Y-50091707D01*
X139509885Y-50112679D01*
X139619269Y-50192151D01*
X139792197Y-50269144D01*
X139977352Y-50308500D01*
X139977354Y-50308500D01*
X140166646Y-50308500D01*
X140166648Y-50308500D01*
X140290083Y-50282262D01*
X140351803Y-50269144D01*
X140524730Y-50192151D01*
X140570956Y-50158566D01*
X140634115Y-50112679D01*
X140681219Y-50091707D01*
X140732781Y-50091707D01*
X140779885Y-50112679D01*
X140889269Y-50192151D01*
X141062197Y-50269144D01*
X141247352Y-50308500D01*
X141247354Y-50308500D01*
X141436646Y-50308500D01*
X141436648Y-50308500D01*
X141560083Y-50282262D01*
X141621803Y-50269144D01*
X141794730Y-50192151D01*
X141840956Y-50158566D01*
X141947870Y-50080889D01*
X142074533Y-49940216D01*
X142169179Y-49776284D01*
X142169179Y-49776283D01*
X142227674Y-49596256D01*
X142247460Y-49408000D01*
X149072540Y-49408000D01*
X149092326Y-49596257D01*
X149150820Y-49776284D01*
X149245466Y-49940216D01*
X149372129Y-50080889D01*
X149525269Y-50192151D01*
X149698197Y-50269144D01*
X149883352Y-50308500D01*
X149883354Y-50308500D01*
X150072646Y-50308500D01*
X150072648Y-50308500D01*
X150196083Y-50282262D01*
X150257803Y-50269144D01*
X150430730Y-50192151D01*
X150476956Y-50158566D01*
X150540115Y-50112679D01*
X150587219Y-50091707D01*
X150638781Y-50091707D01*
X150685885Y-50112679D01*
X150795269Y-50192151D01*
X150968197Y-50269144D01*
X151153352Y-50308500D01*
X151153354Y-50308500D01*
X151342646Y-50308500D01*
X151342648Y-50308500D01*
X151466083Y-50282262D01*
X151527803Y-50269144D01*
X151700730Y-50192151D01*
X151746956Y-50158566D01*
X151810115Y-50112679D01*
X151857219Y-50091707D01*
X151908781Y-50091707D01*
X151955885Y-50112679D01*
X152065269Y-50192151D01*
X152238197Y-50269144D01*
X152423352Y-50308500D01*
X152423354Y-50308500D01*
X152612646Y-50308500D01*
X152612648Y-50308500D01*
X152736083Y-50282262D01*
X152797803Y-50269144D01*
X152970730Y-50192151D01*
X153016956Y-50158566D01*
X153080115Y-50112679D01*
X153127219Y-50091707D01*
X153178781Y-50091707D01*
X153225885Y-50112679D01*
X153335269Y-50192151D01*
X153508197Y-50269144D01*
X153693352Y-50308500D01*
X153693354Y-50308500D01*
X153882646Y-50308500D01*
X153882648Y-50308500D01*
X154006083Y-50282262D01*
X154067803Y-50269144D01*
X154240730Y-50192151D01*
X154286956Y-50158566D01*
X154350115Y-50112679D01*
X154397219Y-50091707D01*
X154448781Y-50091707D01*
X154495885Y-50112679D01*
X154605269Y-50192151D01*
X154778197Y-50269144D01*
X154963352Y-50308500D01*
X154963354Y-50308500D01*
X155152646Y-50308500D01*
X155152648Y-50308500D01*
X155276083Y-50282262D01*
X155337803Y-50269144D01*
X155510730Y-50192151D01*
X155556956Y-50158566D01*
X155620115Y-50112679D01*
X155667219Y-50091707D01*
X155718781Y-50091707D01*
X155765885Y-50112679D01*
X155875269Y-50192151D01*
X156048197Y-50269144D01*
X156233352Y-50308500D01*
X156233354Y-50308500D01*
X156422646Y-50308500D01*
X156422648Y-50308500D01*
X156546083Y-50282262D01*
X156607803Y-50269144D01*
X156780730Y-50192151D01*
X156826956Y-50158566D01*
X156890115Y-50112679D01*
X156937219Y-50091707D01*
X156988781Y-50091707D01*
X157035885Y-50112679D01*
X157145269Y-50192151D01*
X157318197Y-50269144D01*
X157503352Y-50308500D01*
X157503354Y-50308500D01*
X157692646Y-50308500D01*
X157692648Y-50308500D01*
X157816083Y-50282262D01*
X157877803Y-50269144D01*
X158050730Y-50192151D01*
X158096956Y-50158566D01*
X158203870Y-50080889D01*
X158330533Y-49940216D01*
X158425179Y-49776284D01*
X158425179Y-49776283D01*
X158483674Y-49596256D01*
X158503460Y-49408000D01*
X158483674Y-49219744D01*
X158425179Y-49039716D01*
X158425179Y-49039715D01*
X158330533Y-48875783D01*
X158203870Y-48735110D01*
X158050730Y-48623848D01*
X157877802Y-48546855D01*
X157692648Y-48507500D01*
X157692646Y-48507500D01*
X157503354Y-48507500D01*
X157503352Y-48507500D01*
X157318197Y-48546855D01*
X157145269Y-48623848D01*
X157035885Y-48703321D01*
X156988781Y-48724293D01*
X156937219Y-48724293D01*
X156890115Y-48703321D01*
X156780730Y-48623848D01*
X156607802Y-48546855D01*
X156422648Y-48507500D01*
X156422646Y-48507500D01*
X156233354Y-48507500D01*
X156233352Y-48507500D01*
X156048197Y-48546855D01*
X155875269Y-48623848D01*
X155765885Y-48703321D01*
X155718781Y-48724293D01*
X155667219Y-48724293D01*
X155620115Y-48703321D01*
X155510730Y-48623848D01*
X155337802Y-48546855D01*
X155152648Y-48507500D01*
X155152646Y-48507500D01*
X154963354Y-48507500D01*
X154963352Y-48507500D01*
X154778197Y-48546855D01*
X154605269Y-48623848D01*
X154495885Y-48703321D01*
X154448781Y-48724293D01*
X154397219Y-48724293D01*
X154350115Y-48703321D01*
X154240730Y-48623848D01*
X154067802Y-48546855D01*
X153882648Y-48507500D01*
X153882646Y-48507500D01*
X153693354Y-48507500D01*
X153693352Y-48507500D01*
X153508197Y-48546855D01*
X153335269Y-48623848D01*
X153225885Y-48703321D01*
X153178781Y-48724293D01*
X153127219Y-48724293D01*
X153080115Y-48703321D01*
X152970730Y-48623848D01*
X152797802Y-48546855D01*
X152612648Y-48507500D01*
X152612646Y-48507500D01*
X152423354Y-48507500D01*
X152423352Y-48507500D01*
X152238197Y-48546855D01*
X152065269Y-48623848D01*
X151955885Y-48703321D01*
X151908781Y-48724293D01*
X151857219Y-48724293D01*
X151810115Y-48703321D01*
X151700730Y-48623848D01*
X151527802Y-48546855D01*
X151342648Y-48507500D01*
X151342646Y-48507500D01*
X151153354Y-48507500D01*
X151153352Y-48507500D01*
X150968197Y-48546855D01*
X150795269Y-48623848D01*
X150685885Y-48703321D01*
X150638781Y-48724293D01*
X150587219Y-48724293D01*
X150540115Y-48703321D01*
X150430730Y-48623848D01*
X150257802Y-48546855D01*
X150072648Y-48507500D01*
X150072646Y-48507500D01*
X149883354Y-48507500D01*
X149883352Y-48507500D01*
X149698197Y-48546855D01*
X149525269Y-48623848D01*
X149372129Y-48735110D01*
X149245466Y-48875783D01*
X149150820Y-49039715D01*
X149092326Y-49219742D01*
X149072540Y-49408000D01*
X142247460Y-49408000D01*
X142227674Y-49219744D01*
X142169179Y-49039716D01*
X142169179Y-49039715D01*
X142074533Y-48875783D01*
X141947870Y-48735110D01*
X141794730Y-48623848D01*
X141621802Y-48546855D01*
X141436648Y-48507500D01*
X141436646Y-48507500D01*
X141247354Y-48507500D01*
X141247352Y-48507500D01*
X141062197Y-48546855D01*
X140889269Y-48623848D01*
X140779885Y-48703321D01*
X140732781Y-48724293D01*
X140681219Y-48724293D01*
X140634115Y-48703321D01*
X140524730Y-48623848D01*
X140351802Y-48546855D01*
X140166648Y-48507500D01*
X140166646Y-48507500D01*
X139977354Y-48507500D01*
X139977352Y-48507500D01*
X139792197Y-48546855D01*
X139619269Y-48623848D01*
X139509885Y-48703321D01*
X139462781Y-48724293D01*
X139411219Y-48724293D01*
X139364115Y-48703321D01*
X139254730Y-48623848D01*
X139081802Y-48546855D01*
X138896648Y-48507500D01*
X138896646Y-48507500D01*
X138707354Y-48507500D01*
X138707352Y-48507500D01*
X138522197Y-48546855D01*
X138349269Y-48623848D01*
X138239885Y-48703321D01*
X138192781Y-48724293D01*
X138141219Y-48724293D01*
X138094115Y-48703321D01*
X137984730Y-48623848D01*
X137811802Y-48546855D01*
X137626648Y-48507500D01*
X137626646Y-48507500D01*
X137437354Y-48507500D01*
X137437352Y-48507500D01*
X137252197Y-48546855D01*
X137079269Y-48623848D01*
X136969885Y-48703321D01*
X136922781Y-48724293D01*
X136871219Y-48724293D01*
X136824115Y-48703321D01*
X136714730Y-48623848D01*
X136541802Y-48546855D01*
X136356648Y-48507500D01*
X136356646Y-48507500D01*
X136167354Y-48507500D01*
X136167352Y-48507500D01*
X135982197Y-48546855D01*
X135809269Y-48623848D01*
X135699885Y-48703321D01*
X135652781Y-48724293D01*
X135601219Y-48724293D01*
X135554115Y-48703321D01*
X135444730Y-48623848D01*
X135271802Y-48546855D01*
X135086648Y-48507500D01*
X135086646Y-48507500D01*
X134897354Y-48507500D01*
X134897352Y-48507500D01*
X134712197Y-48546855D01*
X134539269Y-48623848D01*
X134429885Y-48703321D01*
X134382781Y-48724293D01*
X134331219Y-48724293D01*
X134284115Y-48703321D01*
X134174730Y-48623848D01*
X134001802Y-48546855D01*
X133816648Y-48507500D01*
X133816646Y-48507500D01*
X133627354Y-48507500D01*
X133627352Y-48507500D01*
X133442197Y-48546855D01*
X133269269Y-48623848D01*
X133116129Y-48735110D01*
X132989466Y-48875783D01*
X132894820Y-49039715D01*
X132836326Y-49219742D01*
X132816540Y-49408000D01*
X126893090Y-49408000D01*
X126664647Y-49179557D01*
X126337387Y-48907803D01*
X126161909Y-48787598D01*
X125986438Y-48667398D01*
X125908253Y-48623849D01*
X125614815Y-48460404D01*
X125225663Y-48288577D01*
X124822327Y-48153393D01*
X124408246Y-48056002D01*
X123986937Y-47997232D01*
X123562000Y-47977586D01*
X123137062Y-47997232D01*
X122715753Y-48056002D01*
X122301672Y-48153393D01*
X121898336Y-48288577D01*
X121509184Y-48460404D01*
X121137566Y-48667395D01*
X120786612Y-48907803D01*
X120459352Y-49179557D01*
X120186405Y-49452504D01*
X120135425Y-49483267D01*
X120075982Y-49486720D01*
X120021783Y-49462065D01*
X119985325Y-49414989D01*
X119975014Y-49356345D01*
X119993228Y-49299658D01*
X120211302Y-48946629D01*
X120213656Y-48942965D01*
X120816125Y-48041307D01*
X120818603Y-48037737D01*
X121452888Y-47158132D01*
X121455501Y-47154642D01*
X122120761Y-46298257D01*
X122123472Y-46294893D01*
X122175198Y-46232999D01*
X134086540Y-46232999D01*
X134106326Y-46421257D01*
X134164820Y-46601284D01*
X134259466Y-46765216D01*
X134386129Y-46905889D01*
X134539269Y-47017151D01*
X134712197Y-47094144D01*
X134897352Y-47133500D01*
X134897354Y-47133500D01*
X135086646Y-47133500D01*
X135086648Y-47133500D01*
X135210084Y-47107262D01*
X135271803Y-47094144D01*
X135444730Y-47017151D01*
X135444729Y-47017151D01*
X135554115Y-46937679D01*
X135601219Y-46916707D01*
X135652781Y-46916707D01*
X135699885Y-46937679D01*
X135809269Y-47017151D01*
X135982197Y-47094144D01*
X136167352Y-47133500D01*
X136167354Y-47133500D01*
X136356646Y-47133500D01*
X136356648Y-47133500D01*
X136480084Y-47107262D01*
X136541803Y-47094144D01*
X136714730Y-47017151D01*
X136714729Y-47017151D01*
X136824115Y-46937679D01*
X136871219Y-46916707D01*
X136922781Y-46916707D01*
X136969885Y-46937679D01*
X137079269Y-47017151D01*
X137252197Y-47094144D01*
X137437352Y-47133500D01*
X137437354Y-47133500D01*
X137626646Y-47133500D01*
X137626648Y-47133500D01*
X137750084Y-47107262D01*
X137811803Y-47094144D01*
X137984730Y-47017151D01*
X137984729Y-47017151D01*
X138094115Y-46937679D01*
X138141219Y-46916707D01*
X138192781Y-46916707D01*
X138239885Y-46937679D01*
X138349269Y-47017151D01*
X138522197Y-47094144D01*
X138707352Y-47133500D01*
X138707354Y-47133500D01*
X138896646Y-47133500D01*
X138896648Y-47133500D01*
X139020084Y-47107262D01*
X139081803Y-47094144D01*
X139254730Y-47017151D01*
X139254729Y-47017151D01*
X139364115Y-46937679D01*
X139411219Y-46916707D01*
X139462781Y-46916707D01*
X139509885Y-46937679D01*
X139619269Y-47017151D01*
X139792197Y-47094144D01*
X139977352Y-47133500D01*
X139977354Y-47133500D01*
X140166646Y-47133500D01*
X140166648Y-47133500D01*
X140290084Y-47107262D01*
X140351803Y-47094144D01*
X140524730Y-47017151D01*
X140524730Y-47017150D01*
X140677870Y-46905889D01*
X140804533Y-46765216D01*
X140899179Y-46601284D01*
X140899178Y-46601284D01*
X140957674Y-46421256D01*
X140977460Y-46233000D01*
X140977460Y-46232999D01*
X150342540Y-46232999D01*
X150362326Y-46421257D01*
X150420820Y-46601284D01*
X150515466Y-46765216D01*
X150642129Y-46905889D01*
X150795269Y-47017151D01*
X150968197Y-47094144D01*
X151153352Y-47133500D01*
X151153354Y-47133500D01*
X151342646Y-47133500D01*
X151342648Y-47133500D01*
X151466084Y-47107262D01*
X151527803Y-47094144D01*
X151700730Y-47017151D01*
X151700729Y-47017151D01*
X151810115Y-46937679D01*
X151857219Y-46916707D01*
X151908781Y-46916707D01*
X151955885Y-46937679D01*
X152065269Y-47017151D01*
X152238197Y-47094144D01*
X152423352Y-47133500D01*
X152423354Y-47133500D01*
X152612646Y-47133500D01*
X152612648Y-47133500D01*
X152736084Y-47107262D01*
X152797803Y-47094144D01*
X152970730Y-47017151D01*
X152970729Y-47017151D01*
X153080115Y-46937679D01*
X153127219Y-46916707D01*
X153178781Y-46916707D01*
X153225885Y-46937679D01*
X153335269Y-47017151D01*
X153508197Y-47094144D01*
X153693352Y-47133500D01*
X153693354Y-47133500D01*
X153882646Y-47133500D01*
X153882648Y-47133500D01*
X154006084Y-47107262D01*
X154067803Y-47094144D01*
X154240730Y-47017151D01*
X154240729Y-47017151D01*
X154350115Y-46937679D01*
X154397219Y-46916707D01*
X154448781Y-46916707D01*
X154495885Y-46937679D01*
X154605269Y-47017151D01*
X154778197Y-47094144D01*
X154963352Y-47133500D01*
X154963354Y-47133500D01*
X155152646Y-47133500D01*
X155152648Y-47133500D01*
X155276084Y-47107262D01*
X155337803Y-47094144D01*
X155510730Y-47017151D01*
X155510729Y-47017151D01*
X155620115Y-46937679D01*
X155667219Y-46916707D01*
X155718781Y-46916707D01*
X155765885Y-46937679D01*
X155875269Y-47017151D01*
X156048197Y-47094144D01*
X156233352Y-47133500D01*
X156233354Y-47133500D01*
X156422646Y-47133500D01*
X156422648Y-47133500D01*
X156546084Y-47107262D01*
X156607803Y-47094144D01*
X156780730Y-47017151D01*
X156780730Y-47017150D01*
X156933870Y-46905889D01*
X157060533Y-46765216D01*
X157155179Y-46601284D01*
X157155178Y-46601284D01*
X157213674Y-46421256D01*
X157233460Y-46233000D01*
X157213674Y-46044744D01*
X157155179Y-45864716D01*
X157155179Y-45864715D01*
X157060533Y-45700783D01*
X156933870Y-45560110D01*
X156780730Y-45448848D01*
X156607802Y-45371855D01*
X156422648Y-45332500D01*
X156422646Y-45332500D01*
X156233354Y-45332500D01*
X156233352Y-45332500D01*
X156048197Y-45371855D01*
X155875269Y-45448848D01*
X155765885Y-45528321D01*
X155718781Y-45549293D01*
X155667219Y-45549293D01*
X155620115Y-45528321D01*
X155510730Y-45448848D01*
X155337802Y-45371855D01*
X155152648Y-45332500D01*
X155152646Y-45332500D01*
X154963354Y-45332500D01*
X154963352Y-45332500D01*
X154778197Y-45371855D01*
X154605269Y-45448848D01*
X154495885Y-45528321D01*
X154448781Y-45549293D01*
X154397219Y-45549293D01*
X154350115Y-45528321D01*
X154240730Y-45448848D01*
X154067802Y-45371855D01*
X153882648Y-45332500D01*
X153882646Y-45332500D01*
X153693354Y-45332500D01*
X153693352Y-45332500D01*
X153508197Y-45371855D01*
X153335269Y-45448848D01*
X153225885Y-45528321D01*
X153178781Y-45549293D01*
X153127219Y-45549293D01*
X153080115Y-45528321D01*
X152970730Y-45448848D01*
X152797802Y-45371855D01*
X152612648Y-45332500D01*
X152612646Y-45332500D01*
X152423354Y-45332500D01*
X152423352Y-45332500D01*
X152238197Y-45371855D01*
X152065269Y-45448848D01*
X151955885Y-45528321D01*
X151908781Y-45549293D01*
X151857219Y-45549293D01*
X151810115Y-45528321D01*
X151700730Y-45448848D01*
X151527802Y-45371855D01*
X151342648Y-45332500D01*
X151342646Y-45332500D01*
X151153354Y-45332500D01*
X151153352Y-45332500D01*
X150968197Y-45371855D01*
X150795269Y-45448848D01*
X150642129Y-45560110D01*
X150515466Y-45700783D01*
X150420820Y-45864715D01*
X150362326Y-46044742D01*
X150342540Y-46232999D01*
X140977460Y-46232999D01*
X140957674Y-46044744D01*
X140899179Y-45864716D01*
X140899179Y-45864715D01*
X140804533Y-45700783D01*
X140677870Y-45560110D01*
X140524730Y-45448848D01*
X140351802Y-45371855D01*
X140166648Y-45332500D01*
X140166646Y-45332500D01*
X139977354Y-45332500D01*
X139977352Y-45332500D01*
X139792197Y-45371855D01*
X139619269Y-45448848D01*
X139509885Y-45528321D01*
X139462781Y-45549293D01*
X139411219Y-45549293D01*
X139364115Y-45528321D01*
X139254730Y-45448848D01*
X139081802Y-45371855D01*
X138896648Y-45332500D01*
X138896646Y-45332500D01*
X138707354Y-45332500D01*
X138707352Y-45332500D01*
X138522197Y-45371855D01*
X138349269Y-45448848D01*
X138239885Y-45528321D01*
X138192781Y-45549293D01*
X138141219Y-45549293D01*
X138094115Y-45528321D01*
X137984730Y-45448848D01*
X137811802Y-45371855D01*
X137626648Y-45332500D01*
X137626646Y-45332500D01*
X137437354Y-45332500D01*
X137437352Y-45332500D01*
X137252197Y-45371855D01*
X137079269Y-45448848D01*
X136969885Y-45528321D01*
X136922781Y-45549293D01*
X136871219Y-45549293D01*
X136824115Y-45528321D01*
X136714730Y-45448848D01*
X136541802Y-45371855D01*
X136356648Y-45332500D01*
X136356646Y-45332500D01*
X136167354Y-45332500D01*
X136167352Y-45332500D01*
X135982197Y-45371855D01*
X135809269Y-45448848D01*
X135699885Y-45528321D01*
X135652781Y-45549293D01*
X135601219Y-45549293D01*
X135554115Y-45528321D01*
X135444730Y-45448848D01*
X135271802Y-45371855D01*
X135086648Y-45332500D01*
X135086646Y-45332500D01*
X134897354Y-45332500D01*
X134897352Y-45332500D01*
X134712197Y-45371855D01*
X134539269Y-45448848D01*
X134386129Y-45560110D01*
X134259466Y-45700783D01*
X134164820Y-45864715D01*
X134106326Y-46044742D01*
X134086540Y-46232999D01*
X122175198Y-46232999D01*
X122818882Y-45462790D01*
X122821695Y-45459543D01*
X123546420Y-44652725D01*
X123549363Y-44649566D01*
X124302373Y-43869182D01*
X124305398Y-43866157D01*
X125085782Y-43113147D01*
X125088941Y-43110204D01*
X125147058Y-43058000D01*
X132816540Y-43058000D01*
X132836326Y-43246257D01*
X132894820Y-43426284D01*
X132989466Y-43590216D01*
X133116129Y-43730889D01*
X133269269Y-43842151D01*
X133442197Y-43919144D01*
X133627352Y-43958500D01*
X133627354Y-43958500D01*
X133816646Y-43958500D01*
X133816648Y-43958500D01*
X133940084Y-43932262D01*
X134001803Y-43919144D01*
X134174730Y-43842151D01*
X134174729Y-43842151D01*
X134284115Y-43762679D01*
X134331219Y-43741707D01*
X134382781Y-43741707D01*
X134429885Y-43762679D01*
X134539269Y-43842151D01*
X134712197Y-43919144D01*
X134897352Y-43958500D01*
X134897354Y-43958500D01*
X135086646Y-43958500D01*
X135086648Y-43958500D01*
X135210084Y-43932262D01*
X135271803Y-43919144D01*
X135444730Y-43842151D01*
X135444729Y-43842151D01*
X135554115Y-43762679D01*
X135601219Y-43741707D01*
X135652781Y-43741707D01*
X135699885Y-43762679D01*
X135809269Y-43842151D01*
X135982197Y-43919144D01*
X136167352Y-43958500D01*
X136167354Y-43958500D01*
X136356646Y-43958500D01*
X136356648Y-43958500D01*
X136480084Y-43932262D01*
X136541803Y-43919144D01*
X136714730Y-43842151D01*
X136714729Y-43842151D01*
X136824115Y-43762679D01*
X136871219Y-43741707D01*
X136922781Y-43741707D01*
X136969885Y-43762679D01*
X137079269Y-43842151D01*
X137252197Y-43919144D01*
X137437352Y-43958500D01*
X137437354Y-43958500D01*
X137626646Y-43958500D01*
X137626648Y-43958500D01*
X137750084Y-43932262D01*
X137811803Y-43919144D01*
X137984730Y-43842151D01*
X137984729Y-43842151D01*
X138094115Y-43762679D01*
X138141219Y-43741707D01*
X138192781Y-43741707D01*
X138239885Y-43762679D01*
X138349269Y-43842151D01*
X138522197Y-43919144D01*
X138707352Y-43958500D01*
X138707354Y-43958500D01*
X138896646Y-43958500D01*
X138896648Y-43958500D01*
X139020084Y-43932262D01*
X139081803Y-43919144D01*
X139254730Y-43842151D01*
X139254729Y-43842151D01*
X139364115Y-43762679D01*
X139411219Y-43741707D01*
X139462781Y-43741707D01*
X139509885Y-43762679D01*
X139619269Y-43842151D01*
X139792197Y-43919144D01*
X139977352Y-43958500D01*
X139977354Y-43958500D01*
X140166646Y-43958500D01*
X140166648Y-43958500D01*
X140290084Y-43932262D01*
X140351803Y-43919144D01*
X140524730Y-43842151D01*
X140524729Y-43842151D01*
X140634115Y-43762679D01*
X140681219Y-43741707D01*
X140732781Y-43741707D01*
X140779885Y-43762679D01*
X140889269Y-43842151D01*
X141062197Y-43919144D01*
X141247352Y-43958500D01*
X141247354Y-43958500D01*
X141436646Y-43958500D01*
X141436648Y-43958500D01*
X141560084Y-43932262D01*
X141621803Y-43919144D01*
X141794730Y-43842151D01*
X141794729Y-43842151D01*
X141947870Y-43730889D01*
X142074533Y-43590216D01*
X142169179Y-43426284D01*
X142169179Y-43426283D01*
X142227674Y-43246256D01*
X142247460Y-43058000D01*
X149072540Y-43058000D01*
X149092326Y-43246257D01*
X149150820Y-43426284D01*
X149245466Y-43590216D01*
X149372129Y-43730889D01*
X149525269Y-43842151D01*
X149698197Y-43919144D01*
X149883352Y-43958500D01*
X149883354Y-43958500D01*
X150072646Y-43958500D01*
X150072648Y-43958500D01*
X150196084Y-43932262D01*
X150257803Y-43919144D01*
X150430730Y-43842151D01*
X150430729Y-43842151D01*
X150540115Y-43762679D01*
X150587219Y-43741707D01*
X150638781Y-43741707D01*
X150685885Y-43762679D01*
X150795269Y-43842151D01*
X150968197Y-43919144D01*
X151153352Y-43958500D01*
X151153354Y-43958500D01*
X151342646Y-43958500D01*
X151342648Y-43958500D01*
X151466084Y-43932262D01*
X151527803Y-43919144D01*
X151700730Y-43842151D01*
X151700729Y-43842151D01*
X151810115Y-43762679D01*
X151857219Y-43741707D01*
X151908781Y-43741707D01*
X151955885Y-43762679D01*
X152065269Y-43842151D01*
X152238197Y-43919144D01*
X152423352Y-43958500D01*
X152423354Y-43958500D01*
X152612646Y-43958500D01*
X152612648Y-43958500D01*
X152736084Y-43932262D01*
X152797803Y-43919144D01*
X152970730Y-43842151D01*
X152970729Y-43842151D01*
X153080115Y-43762679D01*
X153127219Y-43741707D01*
X153178781Y-43741707D01*
X153225885Y-43762679D01*
X153335269Y-43842151D01*
X153508197Y-43919144D01*
X153693352Y-43958500D01*
X153693354Y-43958500D01*
X153882646Y-43958500D01*
X153882648Y-43958500D01*
X154006084Y-43932262D01*
X154067803Y-43919144D01*
X154240730Y-43842151D01*
X154240729Y-43842151D01*
X154350115Y-43762679D01*
X154397219Y-43741707D01*
X154448781Y-43741707D01*
X154495885Y-43762679D01*
X154605269Y-43842151D01*
X154778197Y-43919144D01*
X154963352Y-43958500D01*
X154963354Y-43958500D01*
X155152646Y-43958500D01*
X155152648Y-43958500D01*
X155276084Y-43932262D01*
X155337803Y-43919144D01*
X155510730Y-43842151D01*
X155510729Y-43842151D01*
X155620115Y-43762679D01*
X155667219Y-43741707D01*
X155718781Y-43741707D01*
X155765885Y-43762679D01*
X155875269Y-43842151D01*
X156048197Y-43919144D01*
X156233352Y-43958500D01*
X156233354Y-43958500D01*
X156422646Y-43958500D01*
X156422648Y-43958500D01*
X156546084Y-43932262D01*
X156607803Y-43919144D01*
X156780730Y-43842151D01*
X156780729Y-43842151D01*
X156890115Y-43762679D01*
X156937219Y-43741707D01*
X156988781Y-43741707D01*
X157035885Y-43762679D01*
X157145269Y-43842151D01*
X157318197Y-43919144D01*
X157503352Y-43958500D01*
X157503354Y-43958500D01*
X157692646Y-43958500D01*
X157692648Y-43958500D01*
X157816084Y-43932262D01*
X157877803Y-43919144D01*
X158050730Y-43842151D01*
X158050729Y-43842151D01*
X158203870Y-43730889D01*
X158330533Y-43590216D01*
X158425179Y-43426284D01*
X158425179Y-43426283D01*
X158483674Y-43246256D01*
X158503460Y-43058000D01*
X158483674Y-42869744D01*
X158425179Y-42689716D01*
X158425179Y-42689715D01*
X158330533Y-42525783D01*
X158203870Y-42385110D01*
X158050730Y-42273848D01*
X157877802Y-42196855D01*
X157692648Y-42157500D01*
X157692646Y-42157500D01*
X157503354Y-42157500D01*
X157503352Y-42157500D01*
X157318197Y-42196855D01*
X157145269Y-42273848D01*
X157035885Y-42353321D01*
X156988781Y-42374293D01*
X156937219Y-42374293D01*
X156890115Y-42353321D01*
X156780730Y-42273848D01*
X156607802Y-42196855D01*
X156422648Y-42157500D01*
X156422646Y-42157500D01*
X156233354Y-42157500D01*
X156233352Y-42157500D01*
X156048197Y-42196855D01*
X155875269Y-42273848D01*
X155765885Y-42353321D01*
X155718781Y-42374293D01*
X155667219Y-42374293D01*
X155620115Y-42353321D01*
X155510730Y-42273848D01*
X155337802Y-42196855D01*
X155152648Y-42157500D01*
X155152646Y-42157500D01*
X154963354Y-42157500D01*
X154963352Y-42157500D01*
X154778197Y-42196855D01*
X154605269Y-42273848D01*
X154495885Y-42353321D01*
X154448781Y-42374293D01*
X154397219Y-42374293D01*
X154350115Y-42353321D01*
X154240730Y-42273848D01*
X154067802Y-42196855D01*
X153882648Y-42157500D01*
X153882646Y-42157500D01*
X153693354Y-42157500D01*
X153693352Y-42157500D01*
X153508197Y-42196855D01*
X153335269Y-42273848D01*
X153225885Y-42353321D01*
X153178781Y-42374293D01*
X153127219Y-42374293D01*
X153080115Y-42353321D01*
X152970730Y-42273848D01*
X152797802Y-42196855D01*
X152612648Y-42157500D01*
X152612646Y-42157500D01*
X152423354Y-42157500D01*
X152423352Y-42157500D01*
X152238197Y-42196855D01*
X152065269Y-42273848D01*
X151955885Y-42353321D01*
X151908781Y-42374293D01*
X151857219Y-42374293D01*
X151810115Y-42353321D01*
X151700730Y-42273848D01*
X151527802Y-42196855D01*
X151342648Y-42157500D01*
X151342646Y-42157500D01*
X151153354Y-42157500D01*
X151153352Y-42157500D01*
X150968197Y-42196855D01*
X150795269Y-42273848D01*
X150685885Y-42353321D01*
X150638781Y-42374293D01*
X150587219Y-42374293D01*
X150540115Y-42353321D01*
X150430730Y-42273848D01*
X150257802Y-42196855D01*
X150072648Y-42157500D01*
X150072646Y-42157500D01*
X149883354Y-42157500D01*
X149883352Y-42157500D01*
X149698197Y-42196855D01*
X149525269Y-42273848D01*
X149372129Y-42385110D01*
X149245466Y-42525783D01*
X149150820Y-42689715D01*
X149092326Y-42869742D01*
X149072540Y-43058000D01*
X142247460Y-43058000D01*
X142227674Y-42869744D01*
X142169179Y-42689716D01*
X142169179Y-42689715D01*
X142074533Y-42525783D01*
X141947870Y-42385110D01*
X141794730Y-42273848D01*
X141621802Y-42196855D01*
X141436648Y-42157500D01*
X141436646Y-42157500D01*
X141247354Y-42157500D01*
X141247352Y-42157500D01*
X141062197Y-42196855D01*
X140889269Y-42273848D01*
X140779885Y-42353321D01*
X140732781Y-42374293D01*
X140681219Y-42374293D01*
X140634115Y-42353321D01*
X140524730Y-42273848D01*
X140351802Y-42196855D01*
X140166648Y-42157500D01*
X140166646Y-42157500D01*
X139977354Y-42157500D01*
X139977352Y-42157500D01*
X139792197Y-42196855D01*
X139619269Y-42273848D01*
X139509885Y-42353321D01*
X139462781Y-42374293D01*
X139411219Y-42374293D01*
X139364115Y-42353321D01*
X139254730Y-42273848D01*
X139081802Y-42196855D01*
X138896648Y-42157500D01*
X138896646Y-42157500D01*
X138707354Y-42157500D01*
X138707352Y-42157500D01*
X138522197Y-42196855D01*
X138349269Y-42273848D01*
X138239885Y-42353321D01*
X138192781Y-42374293D01*
X138141219Y-42374293D01*
X138094115Y-42353321D01*
X137984730Y-42273848D01*
X137811802Y-42196855D01*
X137626648Y-42157500D01*
X137626646Y-42157500D01*
X137437354Y-42157500D01*
X137437352Y-42157500D01*
X137252197Y-42196855D01*
X137079269Y-42273848D01*
X136969885Y-42353321D01*
X136922781Y-42374293D01*
X136871219Y-42374293D01*
X136824115Y-42353321D01*
X136714730Y-42273848D01*
X136541802Y-42196855D01*
X136356648Y-42157500D01*
X136356646Y-42157500D01*
X136167354Y-42157500D01*
X136167352Y-42157500D01*
X135982197Y-42196855D01*
X135809269Y-42273848D01*
X135699885Y-42353321D01*
X135652781Y-42374293D01*
X135601219Y-42374293D01*
X135554115Y-42353321D01*
X135444730Y-42273848D01*
X135271802Y-42196855D01*
X135086648Y-42157500D01*
X135086646Y-42157500D01*
X134897354Y-42157500D01*
X134897352Y-42157500D01*
X134712197Y-42196855D01*
X134539269Y-42273848D01*
X134429885Y-42353321D01*
X134382781Y-42374293D01*
X134331219Y-42374293D01*
X134284115Y-42353321D01*
X134174730Y-42273848D01*
X134001802Y-42196855D01*
X133816648Y-42157500D01*
X133816646Y-42157500D01*
X133659948Y-42157500D01*
X133608883Y-42144456D01*
X133607497Y-42146413D01*
X133552832Y-42173339D01*
X133442197Y-42196855D01*
X133269269Y-42273848D01*
X133116129Y-42385110D01*
X132989466Y-42525783D01*
X132894820Y-42689715D01*
X132836326Y-42869742D01*
X132816540Y-43058000D01*
X125147058Y-43058000D01*
X125895759Y-42385479D01*
X125899006Y-42382666D01*
X126731109Y-41687256D01*
X126734473Y-41684545D01*
X127590858Y-41019285D01*
X127594348Y-41016672D01*
X128473953Y-40382387D01*
X128477523Y-40379909D01*
X129138265Y-39938414D01*
X129197234Y-39917915D01*
X129258718Y-39928746D01*
X129307131Y-39968162D01*
X129505542Y-40238576D01*
X129792423Y-40561224D01*
X130108263Y-40855596D01*
X130400372Y-41080647D01*
X130450274Y-41119093D01*
X130815459Y-41349408D01*
X131200606Y-41544514D01*
X131602331Y-41702697D01*
X132017103Y-41822567D01*
X132441278Y-41903071D01*
X132771195Y-41934101D01*
X132871125Y-41943500D01*
X132871127Y-41943500D01*
X133194871Y-41943500D01*
X133194877Y-41943500D01*
X133518272Y-41928325D01*
X133518280Y-41928323D01*
X133521239Y-41928185D01*
X133580771Y-41940337D01*
X133585814Y-41934101D01*
X133642562Y-41910725D01*
X133696614Y-41903071D01*
X133945753Y-41867792D01*
X134365688Y-41767495D01*
X134774386Y-41628316D01*
X135168255Y-41451477D01*
X135348278Y-41349408D01*
X135543835Y-41238532D01*
X135769943Y-41080647D01*
X135897822Y-40991353D01*
X136227108Y-40712113D01*
X136528799Y-40403265D01*
X136800244Y-40067523D01*
X137039056Y-39707837D01*
X137243137Y-39327370D01*
X137410695Y-38929463D01*
X137540255Y-38517615D01*
X137630680Y-38095445D01*
X137681175Y-37666661D01*
X137691296Y-37235034D01*
X137676100Y-37019337D01*
X137660956Y-36804361D01*
X137625549Y-36590555D01*
X137590417Y-36378410D01*
X137549356Y-36222736D01*
X137549500Y-36158947D01*
X137581340Y-36103668D01*
X137636446Y-36071534D01*
X138325459Y-35882512D01*
X138329669Y-35881439D01*
X139385014Y-35632054D01*
X139389259Y-35631130D01*
X140452827Y-35419573D01*
X140457137Y-35418796D01*
X141527573Y-35245336D01*
X141531893Y-35244715D01*
X141861268Y-35203344D01*
X141917406Y-35209242D01*
X141965115Y-35239417D01*
X141994504Y-35287613D01*
X141999483Y-35343843D01*
X141979019Y-35396454D01*
X141871395Y-35553566D01*
X141664404Y-35925184D01*
X141492577Y-36314336D01*
X141357393Y-36717672D01*
X141260002Y-37131753D01*
X141201232Y-37553062D01*
X141181586Y-37977999D01*
X141201232Y-38402937D01*
X141260002Y-38824246D01*
X141357393Y-39238327D01*
X141492577Y-39641663D01*
X141664404Y-40030815D01*
X141871395Y-40402433D01*
X142111803Y-40753387D01*
X142383557Y-41080647D01*
X142684352Y-41381442D01*
X143011612Y-41653196D01*
X143011618Y-41653200D01*
X143362562Y-41893602D01*
X143446467Y-41940337D01*
X143734184Y-42100595D01*
X143734186Y-42100596D01*
X143734190Y-42100598D01*
X144123333Y-42272421D01*
X144123336Y-42272422D01*
X144526672Y-42407606D01*
X144871423Y-42488690D01*
X144940757Y-42504998D01*
X145362066Y-42563768D01*
X145787000Y-42583414D01*
X146211934Y-42563768D01*
X146633243Y-42504998D01*
X147047331Y-42407605D01*
X147450667Y-42272421D01*
X147839810Y-42100598D01*
X148211438Y-41893602D01*
X148562382Y-41653200D01*
X148889647Y-41381442D01*
X149190442Y-41080647D01*
X149462200Y-40753382D01*
X149702602Y-40402438D01*
X149909598Y-40030810D01*
X150081421Y-39641667D01*
X150216605Y-39238331D01*
X150313998Y-38824243D01*
X150372768Y-38402934D01*
X150392414Y-37978000D01*
X150372768Y-37553066D01*
X150313998Y-37131757D01*
X150236995Y-36804361D01*
X150216606Y-36717672D01*
X150081422Y-36314336D01*
X150040979Y-36222741D01*
X149909598Y-35925190D01*
X149702602Y-35553562D01*
X149579303Y-35373568D01*
X149558840Y-35320959D01*
X149563819Y-35264728D01*
X149593208Y-35216532D01*
X149640916Y-35186357D01*
X149697055Y-35180459D01*
X150208622Y-35244714D01*
G37*
%TD.AperFunction*%
%TD*%
D18*
X126847517Y-122086374D02*
X141398465Y-122083355D01*
X150342190Y-122084556D02*
G75*
G03*
X141398465Y-122083355I-4471930J-501814D01*
G01*
X166347072Y-104451099D02*
G75*
G03*
X166347073Y-113449221I389848J-4499061D01*
G01*
X164847517Y-122086517D02*
G75*
G03*
X166347517Y-120586503I-17J1500017D01*
G01*
X166347073Y-113449222D02*
X166347517Y-120586503D01*
X167579138Y-90948252D02*
G75*
G03*
X179370262Y-65434046I-21708888J25514212D01*
G01*
X125509571Y-93716347D02*
G75*
G03*
X124267370Y-91038052I-3504871J1647D01*
G01*
X125347517Y-120586374D02*
X125347517Y-113433715D01*
X125347517Y-113433715D02*
G75*
G03*
X125509619Y-104435721I-384537J4507385D01*
G01*
X125347526Y-120586374D02*
G75*
G03*
X126847517Y-122086374I1499974J-26D01*
G01*
X167579165Y-90948283D02*
G75*
G03*
X166347073Y-93614254I2268335J-2666017D01*
G01*
X166347073Y-93614254D02*
X166347073Y-104451107D01*
X125509619Y-93716347D02*
X125509619Y-104435720D01*
X112370266Y-65434046D02*
G75*
G03*
X124267371Y-91038050I33499954J-24D01*
G01*
X179370262Y-65434046D02*
G75*
G03*
X112370262Y-65434046I-33500000J0D01*
G01*
X150342194Y-122084556D02*
X164847517Y-122086503D01*
M02*
